<svg width="58" height="68" viewBox="0 0 58 68" fill="none" xmlns="http://www.w3.org/2000/svg">
<g id="Group 13">
<g id="Group 12">
<g id="Group 11">
<path id="Rectangle 1349" d="M55.8037 18.547L54.5183 16.9798L54.1317 17.2969L52.8463 15.7296L53.2329 15.4125L51.9474 13.8453L51.5609 14.1624L50.2754 12.5952L50.662 12.2781L49.3766 10.7108L48.99 11.0279L47.7046 9.4607L48.0912 9.14362L46.8057 7.57639L46.4191 7.89347L45.1337 6.32624L45.5203 6.00916L44.2349 4.44193L43.8483 4.75902L43.2056 3.9754C42.9824 3.70327 42.7455 3.44531 42.4965 3.20217L42.8458 2.84441C42.3151 2.32625 41.7316 1.87197 41.1077 1.48737L40.8453 1.91302C40.2491 1.54551 39.6139 1.24498 38.9516 1.01703L39.1144 0.54425C38.4213 0.305693 37.7 0.142648 36.9628 0.0609105L36.9077 0.557865C36.5618 0.519511 36.2122 0.5 35.8602 0.5H34.8777V0H32.9125V0.5H30.9474V0H28.9823V0.5H27.0172V0H25.0521V0.5H23.087V0H21.1219V0.5H19.1568V0H17.1917V0.5H15.2266V0H13.2615V0.5H11.2964V0H9.33126V0.5H7.36616V0H5.40105V0.5H3.43594V0H1.47084V0.5H0.988281V1.02493H0.488281V3.07478H0.988281V5.12464H0.488281V7.17449H0.988281V9.22435H0.488281V11.2742H0.988281V13.3241H0.488281V15.3739H0.988281V17.4238H0.488281V19.4736H0.988281V21.5235H0.488281V23.5733H0.988281V25.6232H0.488281V27.673H0.988281V29.7229H0.488281V31.7727H0.988281V33.8226H0.488281V35.8725H0.988281V37.9223H0.488281V39.9722H0.988281V42.022H0.488281V44.0719H0.988281V46.1217H0.488281V48.1716H0.988281V50.2214H0.488281V52.2713H0.988281V54.3211H0.488281V56.371H0.988281V57.3959C0.988281 57.7106 1.00356 58.0215 1.03339 58.328L0.535744 58.3765C0.600184 59.0386 0.7292 59.6818 0.916415 60.2998L1.39493 60.1548C1.57688 60.7553 1.81673 61.3308 2.10805 61.8746L1.66729 62.1107C1.97773 62.6903 2.34363 63.2358 2.75788 63.74L3.14421 63.4225C3.53933 63.9034 3.98076 64.3449 4.46167 64.74L4.14426 65.1263C4.64845 65.5406 5.19389 65.9065 5.77348 66.2169L6.00956 65.7762C6.55345 66.0675 7.1289 66.3073 7.72943 66.4893L7.58446 66.9678C8.20238 67.155 8.8456 67.284 9.50774 67.3485L9.55617 66.8508C9.8627 66.8806 10.1736 66.8959 10.4883 66.8959H11.4871V67.3959H13.4848V66.8959H15.4825V67.3959H17.4802V66.8959H19.4778V67.3959H21.4755V66.8959H23.4732V67.3959H25.4709V66.8959H27.4685V67.3959H29.4662V66.8959H31.4639V67.3959H33.4616V66.8959H35.4592V67.3959H37.4569V66.8959H39.4546V67.3959H41.4523V66.8959H43.4499V67.3959H45.4476V66.8959H46.4465C46.7611 66.8959 47.072 66.8806 47.3786 66.8508L47.427 67.3485C48.0891 67.284 48.7324 67.155 49.3503 66.9678L49.2053 66.4893C49.8058 66.3073 50.3813 66.0675 50.9252 65.7762L51.1613 66.2169C51.7408 65.9065 52.2863 65.5406 52.7905 65.1263L52.4731 64.74C52.954 64.3449 53.3954 63.9034 53.7905 63.4225L54.1769 63.74C54.5911 63.2358 54.957 62.6903 55.2674 62.1107L54.8267 61.8746C55.118 61.3308 55.3579 60.7553 55.5398 60.1548L56.0183 60.2998C56.2055 59.6818 56.3346 59.0386 56.399 58.3765L55.9013 58.328C55.9312 58.0215 55.9465 57.7106 55.9465 57.3959V56.4443H56.4465V54.541H55.9465V52.6378H56.4465V50.7345H55.9465V48.8312H56.4465V46.928H55.9465V45.0247H56.4465V43.1214H55.9465V41.2182H56.4465V39.3149H55.9465V37.4116H56.4465V35.5084H55.9465V33.6051H56.4465V31.7018H55.9465V29.7986H56.4465V27.8953H55.9465V25.992H56.4465V24.0888H55.9465V22.1855H56.4465V20.2822H55.9465V19.5094L55.4171 18.8641L55.8037 18.547Z" fill="#F5F9FF" stroke="#C8DEF9" stroke-dasharray="2 2"/>
<ellipse id="Ellipse 475" cx="22.5878" cy="30.3021" rx="1.88082" ry="2.0898" fill="#87B6F1"/>
<ellipse id="Ellipse 476" cx="34.8129" cy="30.3021" rx="1.88082" ry="2.0898" fill="#87B6F1"/>
<path id="Ellipse 477" d="M34.343 35.0041C34.343 38.4666 31.8168 41.2735 28.7006 41.2735C25.5843 41.2735 23.0581 38.4666 23.0581 35.0041" stroke="#87B6F1"/>
<path id="Rectangle 1350" d="M41.5429 16.6093L41.5429 18.4234L42.0429 18.4242L42.0429 18.8305L42.4774 18.8305L42.4782 19.3305L44.3487 19.3305L44.348 18.8305L46.2185 18.8305L46.2193 19.3305L48.0899 19.3305L48.0891 18.8305L49.9597 18.8305L49.9605 19.3305L51.8311 19.3305L51.8303 18.8305L53.7009 18.8305L53.7016 19.3305L55.5722 19.3305L55.5717 18.9811L55.4985 18.8924L55.5714 18.8323L55.5714 18.8305L55.5736 18.8305L55.884 18.5746L54.6369 17.0628L54.2514 17.3806L53.0044 15.8688L53.3899 15.551L52.1428 14.0392L51.7573 14.3571L50.5103 12.8453L50.8958 12.5275L49.6487 11.0157L49.2632 11.3335L48.0162 9.82168L48.4017 9.50387L47.1546 7.99208L46.7691 8.30989L45.5221 6.7981L45.9076 6.48029L44.6605 4.9685L44.275 5.28631L43.0279 3.77452L43.4134 3.45671L42.1664 1.94492L42.0429 2.04676L42.0429 2.09688L41.9822 2.09679L41.7809 2.26273L41.6436 2.09625L41.5429 2.0961L41.5429 3.91025L42.0429 3.91103L42.0429 5.72518L41.5429 5.7244L41.5429 7.53854L42.0429 7.53933L42.0429 9.35348L41.5429 9.35269L41.5429 11.1668L42.0429 11.1676L42.0429 12.9818L41.5429 12.981L41.5429 14.7951L42.0429 14.7959L42.0429 16.6101L41.5429 16.6093Z" fill="#DEECFC" stroke="#C8DEF9" stroke-dasharray="2 2"/>
</g>
</g>
</g>
</svg>
