<svg width="14" height="14" viewBox="0 0 14 14" fill="none" xmlns="http://www.w3.org/2000/svg">
<path d="M7 13.5C10.5899 13.5 13.5 10.5899 13.5 7C13.5 3.41015 10.5899 0.5 7 0.5C3.41015 0.5 0.5 3.41015 0.5 7C0.5 10.5899 3.41015 13.5 7 13.5Z" stroke="#121212"/>
<path d="M6.32 8.28C6.32 7.06 6.65 6.69 7.24 6.32C7.66 6.05 7.98 5.75 7.98 5.3C7.98 4.8 7.6 4.49 7.12 4.48C6.67 4.49 6.25 4.79 6.22 5.36H4.84C4.87 3.99 5.89 3.33 7.14 3.34C8.5 3.33 9.46 4.04 9.46 5.24C9.46 6.05 9.05 6.56 8.4 6.94C7.86 7.27 7.61 7.59 7.6 8.28V8.38H6.32V8.28ZM6.18 9.76C6.16 9.32 6.54 8.95 7 8.96C7.43 8.95 7.81 9.32 7.82 9.76C7.81 10.22 7.43 10.59 7 10.58C6.54 10.59 6.16 10.22 6.18 9.76Z" fill="#121212"/>
</svg>
