<svg width="37" height="34" viewBox="0 0 37 34" fill="none" xmlns="http://www.w3.org/2000/svg">
<g clip-path="url(#clip0_432_977)">
<rect width="36.77" height="33.02" transform="translate(0.115234 -0.00976562)" fill="white"/>
<path d="M16.8447 19.4805C16.9847 19.4805 17.1155 19.5502 17.1855 19.6602C17.2654 19.77 17.2752 19.92 17.2354 20.0498C17.1254 20.3298 17.0752 20.6302 17.0752 20.9502C17.0752 22.3502 18.2055 23.4805 19.6055 23.4805C21.0053 23.4803 22.1348 22.3501 22.1348 20.9502C22.1348 20.6402 22.0748 20.34 21.9648 20.04C21.915 19.9101 21.9357 19.7701 22.0156 19.6602C22.0956 19.5503 22.2256 19.4805 22.3555 19.4805H25.9551C26.1851 19.4805 26.375 19.6704 26.375 19.9004V28.2803C26.375 30.9003 24.2447 33.0205 21.6348 33.0205L21.6152 33.0098H13.2354C13.0054 33.0098 12.8154 32.8198 12.8154 32.5898V29.0303C12.8154 28.9993 12.8187 28.9686 12.8252 28.9395V19.9004C12.8252 19.6704 13.0151 19.4805 13.2451 19.4805H16.8447Z" fill="#DEECFC"/>
<path d="M13.2352 33.0107H4.85523C2.24523 33.0107 0.115234 30.8807 0.115234 28.2707V19.8907C0.115234 19.6607 0.305234 19.4707 0.535234 19.4707H4.12523C4.35523 19.4707 4.54523 19.6607 4.54523 19.8907C4.54523 20.1207 4.35523 20.3107 4.12523 20.3107H0.945234V28.2707C0.945234 30.4307 2.69523 32.1807 4.85523 32.1807H12.8152V29.5507C12.6052 29.5907 12.3952 29.6107 12.1852 29.6107C10.3352 29.6107 8.82523 28.1007 8.82523 26.2507C8.82523 24.4007 10.3352 22.8907 12.1852 22.8907C12.3952 22.8907 12.6152 22.9107 12.8152 22.9507V20.3207H9.64523C9.41523 20.3207 9.22523 20.1307 9.22523 19.9007C9.22523 19.6707 9.41523 19.4807 9.64523 19.4807H13.2352C13.4652 19.4807 13.6552 19.6707 13.6552 19.9007V23.5007C13.6552 23.6407 13.5852 23.7707 13.4752 23.8407C13.3652 23.9207 13.2152 23.9307 13.0852 23.8807C12.7952 23.7707 12.4952 23.7107 12.1852 23.7107C10.7952 23.7107 9.65523 24.8507 9.65523 26.2407C9.65523 27.6307 10.7852 28.7707 12.1852 28.7707C12.4952 28.7707 12.7952 28.7107 13.0852 28.6007C13.2152 28.5507 13.3552 28.5707 13.4752 28.6407C13.5852 28.7207 13.6552 28.8507 13.6552 28.9807V32.5807C13.6552 32.8107 13.4652 33.0007 13.2352 33.0007V33.0107Z" fill="#DEECFC"/>
<path d="M13.2352 20.3103H9.63523C9.49523 20.3103 9.37523 20.2403 9.29523 20.1303C9.21523 20.0203 9.19523 19.8703 9.24523 19.7503C9.35523 19.4603 9.41523 19.1503 9.41523 18.8503C9.41523 17.4503 8.27523 16.3203 6.88523 16.3203C5.49523 16.3203 4.35523 17.4503 4.35523 18.8503C4.35523 19.1403 4.40523 19.4303 4.51523 19.7203C4.54523 19.7703 4.55523 19.8303 4.55523 19.9003C4.55523 20.1303 4.36523 20.3203 4.13523 20.3203H0.535234C0.305234 20.3203 0.115234 20.1303 0.115234 19.9003V11.5203C0.115234 8.91027 2.24523 6.78027 4.85523 6.78027H13.2352C13.4652 6.78027 13.6552 6.97027 13.6552 7.20027V10.2603C13.9752 10.1603 14.3052 10.1103 14.6452 10.1103C16.4952 10.1103 18.0052 11.6503 18.0052 13.5503C18.0052 15.4503 16.4952 16.9903 14.6452 16.9903C14.3052 16.9903 13.9752 16.9403 13.6552 16.8403V19.9003C13.6552 20.1303 13.4652 20.3203 13.2352 20.3203V20.3103Z" fill="#DEECFC"/>
<path d="M25.4651 16.5902C25.4651 16.5902 25.3951 16.5902 25.3551 16.5802C25.2451 16.5502 25.1551 16.4802 25.1051 16.3902L23.3051 13.2702C23.2351 13.1502 23.2351 13.0102 23.2851 12.8802C23.3451 12.7602 23.4651 12.6702 23.5951 12.6502C23.9051 12.6002 24.1851 12.5002 24.4551 12.3402C25.0451 12.0002 25.4651 11.4602 25.6351 10.8102C25.8151 10.1602 25.7251 9.47023 25.3851 8.89023C24.9351 8.11023 24.0951 7.62023 23.1851 7.62023C22.7451 7.62023 22.3051 7.74023 21.9251 7.96023C21.6551 8.12023 21.4151 8.32024 21.2251 8.55023C21.1351 8.66023 21.0051 8.72023 20.8651 8.70023C20.7251 8.69023 20.6051 8.61023 20.5351 8.49023L18.7351 5.37023C18.6251 5.17023 18.6851 4.92023 18.8851 4.80023L26.1651 0.620234C26.8751 0.210234 27.6951 -0.00976562 28.5251 -0.00976562C30.2251 -0.00976562 31.7951 0.900234 32.6451 2.36023L36.8351 9.62023C36.8951 9.72023 36.9051 9.83023 36.8751 9.94023C36.8451 10.0502 36.7751 10.1402 36.6851 10.1902L25.6851 16.5402C25.6251 16.5802 25.5451 16.6002 25.4751 16.6002L25.4651 16.5902Z" fill="#92C1F6"/>
<path d="M32.1548 17.64C30.9348 17.64 29.7948 16.97 29.1748 15.9C28.8448 15.34 28.6848 14.7 28.7048 14.04C28.7048 13.9 28.7848 13.76 28.9148 13.69L33.2248 11.2C33.3548 11.13 33.5048 11.13 33.6348 11.2C34.2048 11.51 34.6748 11.97 35.0048 12.53C35.4748 13.34 35.5948 14.28 35.3548 15.18C35.1248 16.04 34.5748 16.76 33.8048 17.2C33.3048 17.49 32.7348 17.64 32.1548 17.64ZM29.5448 14.3C29.5648 14.72 29.6848 15.13 29.9048 15.49C30.3748 16.31 31.2448 16.82 32.1648 16.82C32.5948 16.82 33.0248 16.71 33.3948 16.49C33.9648 16.16 34.3748 15.62 34.5548 14.98C34.7348 14.3 34.6448 13.59 34.2848 12.97C34.0748 12.61 33.7848 12.3 33.4348 12.07L29.5448 14.31V14.3Z" fill="#92C1F6"/>
<circle cx="12" cy="26.5" r="3" fill="#DEECFC"/>
<circle cx="32" cy="14.5" r="3" fill="#92C1F6"/>
</g>
<defs>
<clipPath id="clip0_432_977">
<rect width="36.77" height="33.02" fill="white" transform="translate(0.115234 -0.00976562)"/>
</clipPath>
</defs>
</svg>
