<svg width="16" height="16" viewBox="0 0 16 16" fill="none" xmlns="http://www.w3.org/2000/svg">
<path d="M8 15C11.866 15 15 11.866 15 8C15 4.13401 11.866 1 8 1C4.13401 1 1 4.13401 1 8C1 11.866 4.13401 15 8 15Z" fill="#83ABFA"/>
<path d="M7.43 9.09L7.22 5.4L7.17 4H8.65L8.6 5.4L8.39 9.09H7.43ZM7.91 11.75C7.64333 11.75 7.42333 11.6567 7.25 11.47C7.08333 11.2833 7 11.0567 7 10.79C7 10.51 7.08333 10.28 7.25 10.1C7.42333 9.92 7.64333 9.83 7.91 9.83C8.17667 9.83 8.39333 9.92 8.56 10.1C8.73333 10.28 8.82 10.51 8.82 10.79C8.82 11.0567 8.73333 11.2833 8.56 11.47C8.39333 11.6567 8.17667 11.75 7.91 11.75Z" fill="white"/>
</svg>
