<svg width="20" height="20" viewBox="0 0 20 20" fill="none" xmlns="http://www.w3.org/2000/svg">
<path d="M13.0625 3.92676C13.4105 3.92676 13.7441 4.0811 13.9902 4.35547C14.2364 4.62991 14.375 5.0025 14.375 5.39062V5.87793H14.8125C15.3927 5.87793 15.9491 6.13537 16.3594 6.59277C16.7695 7.05015 17 7.67064 17 8.31738V13.1953C16.9999 13.5833 16.8613 13.9551 16.6152 14.2295C16.3691 14.5039 16.0356 14.6582 15.6875 14.6582H14.375V15.1465C14.3749 15.5345 14.2363 15.9063 13.9902 16.1807C13.7441 16.4551 13.4106 16.6094 13.0625 16.6094H6.9375C6.5894 16.6094 6.25591 16.4551 6.00977 16.1807C5.7637 15.9063 5.62505 15.5345 5.625 15.1465V14.6582H4.3125C3.9644 14.6582 3.63091 14.5039 3.38477 14.2295C3.13869 13.9551 3.00006 13.5833 3 13.1953V8.31738C3 7.67064 3.23054 7.05015 3.64062 6.59277C4.05086 6.13537 4.60734 5.87793 5.1875 5.87793H5.625V5.39062C5.625 5.0025 5.76362 4.62991 6.00977 4.35547C6.2559 4.0811 6.58946 3.92676 6.9375 3.92676H13.0625ZM6.9375 11.7314C6.82154 11.7314 6.70996 11.7826 6.62793 11.874C6.54588 11.9655 6.5 12.0904 6.5 12.2197V15.1465C6.50005 15.2757 6.54598 15.3998 6.62793 15.4912C6.70998 15.5827 6.82147 15.6338 6.9375 15.6338H13.0625C13.1785 15.6338 13.29 15.5827 13.3721 15.4912C13.454 15.3998 13.4999 15.2757 13.5 15.1465V12.2197C13.5 12.0904 13.4541 11.9655 13.3721 11.874C13.29 11.7826 13.1785 11.7314 13.0625 11.7314H6.9375ZM5.1875 6.85352C4.83947 6.85352 4.50589 7.00788 4.25977 7.28223C4.01362 7.55667 3.875 7.92926 3.875 8.31738V13.1953C3.87506 13.3246 3.92098 13.4486 4.00293 13.54C4.08498 13.6315 4.19647 13.6826 4.3125 13.6826H5.625V12.2197C5.625 11.8316 5.76362 11.459 6.00977 11.1846C6.25589 10.9103 6.58949 10.7559 6.9375 10.7559H13.0625C13.4105 10.7559 13.7441 10.9103 13.9902 11.1846C14.2364 11.459 14.375 11.8316 14.375 12.2197V13.6826H15.6875C15.8035 13.6826 15.915 13.6315 15.9971 13.54C16.079 13.4486 16.1249 13.3246 16.125 13.1953V8.31738C16.125 7.92926 15.9864 7.55667 15.7402 7.28223C15.4941 7.00788 15.1605 6.85352 14.8125 6.85352H5.1875ZM6.9375 4.90234C6.8215 4.90234 6.70997 4.95349 6.62793 5.04492C6.54588 5.1364 6.5 5.26125 6.5 5.39062V5.87793H13.5V5.39062C13.5 5.26125 13.4541 5.1364 13.3721 5.04492C13.29 4.95349 13.1785 4.90234 13.0625 4.90234H6.9375Z" fill="#999999"/>
<path d="M13.0625 3.92676C13.4105 3.92676 13.7441 4.0811 13.9902 4.35547C14.2364 4.62991 14.375 5.0025 14.375 5.39062V5.87793H14.8125C15.3927 5.87793 15.9491 6.13537 16.3594 6.59277C16.7695 7.05015 17 7.67064 17 8.31738V13.1953C16.9999 13.5833 16.8613 13.9551 16.6152 14.2295C16.3691 14.5039 16.0356 14.6582 15.6875 14.6582H14.375V15.1465C14.3749 15.5345 14.2363 15.9063 13.9902 16.1807C13.7441 16.4551 13.4106 16.6094 13.0625 16.6094H6.9375C6.5894 16.6094 6.25591 16.4551 6.00977 16.1807C5.7637 15.9063 5.62505 15.5345 5.625 15.1465V14.6582H4.3125C3.9644 14.6582 3.63091 14.5039 3.38477 14.2295C3.13869 13.9551 3.00006 13.5833 3 13.1953V8.31738C3 7.67064 3.23054 7.05015 3.64062 6.59277C4.05086 6.13537 4.60734 5.87793 5.1875 5.87793H5.625V5.39062C5.625 5.0025 5.76362 4.62991 6.00977 4.35547C6.2559 4.0811 6.58946 3.92676 6.9375 3.92676H13.0625ZM6.9375 11.7314C6.82154 11.7314 6.70996 11.7826 6.62793 11.874C6.54588 11.9655 6.5 12.0904 6.5 12.2197V15.1465C6.50005 15.2757 6.54598 15.3998 6.62793 15.4912C6.70998 15.5827 6.82147 15.6338 6.9375 15.6338H13.0625C13.1785 15.6338 13.29 15.5827 13.3721 15.4912C13.454 15.3998 13.4999 15.2757 13.5 15.1465V12.2197C13.5 12.0904 13.4541 11.9655 13.3721 11.874C13.29 11.7826 13.1785 11.7314 13.0625 11.7314H6.9375ZM5.1875 6.85352C4.83947 6.85352 4.50589 7.00788 4.25977 7.28223C4.01362 7.55667 3.875 7.92926 3.875 8.31738V13.1953C3.87506 13.3246 3.92098 13.4486 4.00293 13.54C4.08498 13.6315 4.19647 13.6826 4.3125 13.6826H5.625V12.2197C5.625 11.8316 5.76362 11.459 6.00977 11.1846C6.25589 10.9103 6.58949 10.7559 6.9375 10.7559H13.0625C13.4105 10.7559 13.7441 10.9103 13.9902 11.1846C14.2364 11.459 14.375 11.8316 14.375 12.2197V13.6826H15.6875C15.8035 13.6826 15.915 13.6315 15.9971 13.54C16.079 13.4486 16.1249 13.3246 16.125 13.1953V8.31738C16.125 7.92926 15.9864 7.55667 15.7402 7.28223C15.4941 7.00788 15.1605 6.85352 14.8125 6.85352H5.1875ZM6.9375 4.90234C6.8215 4.90234 6.70997 4.95349 6.62793 5.04492C6.54588 5.1364 6.5 5.26125 6.5 5.39062V5.87793H13.5V5.39062C13.5 5.26125 13.4541 5.1364 13.3721 5.04492C13.29 4.95349 13.1785 4.90234 13.0625 4.90234H6.9375Z" stroke="#999999"/>
</svg>
