<svg width="14" height="17" viewBox="0 0 14 17" fill="none" xmlns="http://www.w3.org/2000/svg">
<rect x="0.625" y="1.625" width="12.75" height="14.75" rx="1.375" stroke="#878D91" stroke-width="1.25"/>
<path fill-rule="evenodd" clip-rule="evenodd" d="M10.587 6.60737C10.7821 6.76823 10.8054 7.05147 10.6388 7.24001L7.01555 11.3425C6.92595 11.444 6.79428 11.5017 6.65624 11.5C6.5182 11.4983 6.3881 11.4373 6.30121 11.3337L3.97858 8.56377C3.8171 8.37119 3.8478 8.08861 4.04715 7.93261C4.24651 7.77662 4.53902 7.80628 4.7005 7.99886L6.67144 10.3494L9.93208 6.65749C10.0986 6.46896 10.3918 6.44652 10.587 6.60737Z" fill="#878D91" stroke="#878D91" stroke-width="0.1" stroke-linecap="round" stroke-linejoin="round"/>
<mask id="path-3-inside-1_62_1671" fill="white">
<rect x="3" width="8" height="3.5" rx="0.5"/>
</mask>
<rect x="3" width="8" height="3.5" rx="0.5" fill="white" stroke="#878D91" stroke-width="2.5" mask="url(#path-3-inside-1_62_1671)"/>
</svg>
