<svg width="16" height="14" viewBox="0 0 16 14" fill="none" xmlns="http://www.w3.org/2000/svg">
<path d="M11.0625 0.827148L11.2031 0.834961C11.5292 0.871032 11.8345 1.0316 12.0654 1.28906L12.1582 1.40332C12.3628 1.68167 12.4746 2.03065 12.4746 2.39062V2.77832H12.8125C13.4228 2.77832 14.0057 3.04836 14.4336 3.52539C14.8612 4.00218 15.0996 4.64729 15.0996 5.31738V10.1953C15.0995 10.6065 14.9539 11.0031 14.6904 11.2969C14.4266 11.5911 14.0658 11.7588 13.6875 11.7588H12.4746V12.1465C12.4746 12.5577 12.3289 12.9543 12.0654 13.248C11.8016 13.5422 11.4408 13.71 11.0625 13.71H4.9375C4.55915 13.71 4.19841 13.5422 3.93457 13.248C3.67114 12.9543 3.52544 12.5577 3.52539 12.1465V11.7588H2.3125C1.93415 11.7588 1.57341 11.5911 1.30957 11.2969C1.04613 11.0031 0.900453 10.6065 0.900391 10.1953V5.31738C0.900391 4.64729 1.13879 4.00218 1.56641 3.52539C1.99433 3.04836 2.57716 2.77832 3.1875 2.77832H3.52539V2.39062C3.52539 1.97949 3.6713 1.58284 3.93457 1.28906L4.03809 1.18457C4.28902 0.95526 4.60634 0.827148 4.9375 0.827148H11.0625ZM4.9375 8.83203C4.87311 8.83203 4.80895 8.85256 4.75391 8.89355L4.70215 8.94141C4.63764 9.01349 4.59961 9.11372 4.59961 9.21973V12.1465C4.59966 12.2526 4.63753 12.3528 4.70215 12.4248C4.76649 12.4965 4.85172 12.5342 4.9375 12.5342H11.0625C11.1483 12.5342 11.2335 12.4965 11.2979 12.4248C11.3625 12.3528 11.4003 12.2526 11.4004 12.1465V9.21973C11.4004 9.14006 11.3788 9.06352 11.3408 9L11.2979 8.94141C11.2335 8.86966 11.1483 8.83203 11.0625 8.83203H4.9375ZM3.1875 3.95312C2.86976 3.95312 2.5624 4.09408 2.33398 4.34863C2.10522 4.6037 1.97461 4.95248 1.97461 5.31738V10.1953C1.97467 10.3014 2.01254 10.4016 2.07715 10.4736L2.12891 10.5205C2.184 10.5616 2.24803 10.583 2.3125 10.583H3.52539V9.21973C3.52539 8.80855 3.67125 8.41195 3.93457 8.11816C4.19841 7.82398 4.55915 7.65625 4.9375 7.65625H11.0625C11.4408 7.65625 11.8016 7.82398 12.0654 8.11816C12.3287 8.41195 12.4746 8.80855 12.4746 9.21973V10.583H13.6875C13.7733 10.583 13.8585 10.5454 13.9229 10.4736C13.9875 10.4016 14.0253 10.3014 14.0254 10.1953V5.31738C14.0254 4.95248 13.8948 4.6037 13.666 4.34863C13.4376 4.09408 13.1302 3.95312 12.8125 3.95312H3.1875ZM4.9375 2.00195C4.85172 2.00195 4.76649 2.04056 4.70215 2.1123C4.63769 2.18438 4.59961 2.28466 4.59961 2.39062V2.77832H11.4004V2.39062C11.4004 2.28466 11.3623 2.18438 11.2979 2.1123C11.2335 2.04056 11.1483 2.00195 11.0625 2.00195H4.9375Z" fill="#878D91" stroke="#878D91" stroke-width="0.2"/>
</svg>
