<svg width="16" height="16" viewBox="0 0 16 16" fill="none" xmlns="http://www.w3.org/2000/svg">
<path d="M6.92857 1.03571H1.5C0.947715 1.03571 0.5 1.48342 0.5 2.03571V14.5C0.5 15.0523 0.947715 15.5 1.5 15.5H13.9643C14.5166 15.5 14.9643 15.0523 14.9643 14.5V9.07142" stroke="#878D91" stroke-linecap="round" stroke-linejoin="round"/>
<path d="M4.78564 10.7143V8.20711C4.78564 8.0745 4.83832 7.94732 4.93209 7.85355L11.9321 0.853553C12.1274 0.658291 12.4439 0.658291 12.6392 0.853553L15.1464 3.36073C15.3416 3.55599 15.3416 3.87258 15.1464 4.06784L8.14638 11.0678C8.05261 11.1616 7.92543 11.2143 7.79282 11.2143H5.28564C5.0095 11.2143 4.78564 10.9904 4.78564 10.7143Z" stroke="#878D91" stroke-linejoin="round"/>
</svg>
