<svg width="18" height="14" viewBox="0 0 18 14" fill="none" xmlns="http://www.w3.org/2000/svg">
<path d="M1.75 0.625H4.72754C5.08054 0.625097 5.41009 0.790415 5.62109 1.06641L5.7041 1.19141L6.70117 2.93555L6.88184 3.25H13.125C13.7463 3.25 14.25 3.75368 14.25 4.375V12.25C14.25 12.8713 13.7463 13.375 13.125 13.375H1.75C1.12868 13.375 0.625 12.8713 0.625 12.25V1.75C0.625 1.12868 1.12868 0.625 1.75 0.625Z" fill="white" stroke="#878D91" stroke-width="1.25"/>
<path d="M4.06641 6.75H14.7256C15.6052 6.75027 16.2424 7.55814 16.0742 8.39258L16.0293 8.55957L14.7383 12.4346C14.5511 12.996 14.0254 13.375 13.4336 13.375H2.77441C1.89485 13.3747 1.25764 12.5669 1.42578 11.7324L1.4707 11.5654L2.76172 7.69043C2.94886 7.12899 3.47461 6.75005 4.06641 6.75Z" fill="white" stroke="#878D91" stroke-width="1.25"/>
</svg>
