<svg width="20" height="20" viewBox="0 0 20 20" fill="none" xmlns="http://www.w3.org/2000/svg">
<path d="M4 5.7998H16.6" stroke="#A5A5A5" stroke-width="1.25" stroke-linecap="round" stroke-linejoin="round"/>
<path d="M15.2199 5.80001V15.6C15.2199 15.7844 15.1835 15.9669 15.1128 16.1372C15.042 16.3074 14.9384 16.462 14.8077 16.5921C14.6771 16.7222 14.5221 16.8252 14.3515 16.8952C14.181 16.9652 13.9983 17.0008 13.8139 17H6.78491C6.60055 17.0008 6.41786 16.9652 6.24731 16.8952C6.07676 16.8252 5.92171 16.7222 5.79108 16.5921C5.66044 16.462 5.55678 16.3074 5.48605 16.1372C5.41531 15.9669 5.3789 15.7844 5.37891 15.6V5.80001M7.48791 5.80001V4.40001C7.4879 4.21566 7.52431 4.03311 7.59505 3.86287C7.66578 3.69262 7.76944 3.53802 7.90008 3.40794C8.03071 3.27786 8.18576 3.17486 8.35631 3.10485C8.52686 3.03485 8.70955 2.99922 8.89391 3.00001H11.7059C11.8903 2.99922 12.073 3.03485 12.2435 3.10485C12.4141 3.17486 12.5691 3.27786 12.6997 3.40794C12.8304 3.53802 12.934 3.69262 13.0048 3.86287C13.0755 4.03311 13.1119 4.21566 13.1119 4.40001V5.80001" stroke="#A5A5A5" stroke-width="1.25" stroke-linecap="round" stroke-linejoin="round"/>
<path d="M8.90039 9.33887V13.4789" stroke="#A5A5A5" stroke-width="1.25" stroke-linecap="round" stroke-linejoin="round"/>
<path d="M11.7012 9.33887V13.4789" stroke="#A5A5A5" stroke-width="1.25" stroke-linecap="round" stroke-linejoin="round"/>
</svg>
