<svg width="17" height="18" viewBox="0 0 17 18" fill="none" xmlns="http://www.w3.org/2000/svg">
<path d="M11.7148 1H1V13.8578H11.7148V1Z" fill="white" stroke="#878D91" stroke-width="1.25" stroke-linejoin="round"/>
<path d="M3.8418 4.87314H8.95712" stroke="#878D91" stroke-linecap="round" stroke-linejoin="round"/>
<path d="M3.8418 7.78268H6.79539" stroke="#878D91" stroke-linecap="round" stroke-linejoin="round"/>
<path d="M11.5986 7.92889C13.6316 7.92889 15.2695 9.55471 15.2695 11.5471C15.2695 13.5394 13.6316 15.1652 11.5986 15.1652C9.56583 15.1651 7.92872 13.5393 7.92871 11.5471C7.92871 9.5548 9.56583 7.92904 11.5986 7.92889Z" fill="white" stroke="#878D91"/>
<path d="M11.5993 15.0669C13.5721 15.0669 15.1713 13.491 15.1713 11.547C15.1713 9.60302 13.5721 8.0271 11.5993 8.0271C9.62657 8.0271 8.02734 9.60302 8.02734 11.547C8.02734 13.491 9.62657 15.0669 11.5993 15.0669Z" fill="white" stroke="#878D91"/>
<path d="M14.0581 14.6857L16.4019 17.0002" stroke="#878D91" stroke-linecap="round"/>
</svg>
