<svg width="18" height="14" viewBox="0 0 18 14" fill="none" xmlns="http://www.w3.org/2000/svg">
<rect y="13" width="18" height="1" rx="0.5" fill="#2F80E5"/>
<path d="M1.70001 6C1.70001 5.44772 2.14773 5 2.70001 5V5C3.2523 5 3.70001 5.44772 3.70001 6V12H1.70001V6Z" fill="#2F80E5"/>
<path d="M5.70001 9C5.70001 8.44772 6.14773 8 6.70001 8V8C7.2523 8 7.70001 8.44772 7.70001 9V12H5.70001V9Z" fill="#2F80E5"/>
<path d="M9.70001 1C9.70001 0.447715 10.1477 0 10.7 0V0C11.2523 0 11.7 0.447715 11.7 1V12H9.70001V1Z" fill="#2F80E5"/>
<path d="M13.7 5C13.7 4.44772 14.1477 4 14.7 4V4C15.2523 4 15.7 4.44772 15.7 5V12H13.7V5Z" fill="#2F80E5"/>
</svg>
