<svg width="30" height="30" viewBox="0 0 30 30" fill="none" xmlns="http://www.w3.org/2000/svg">
<rect width="30" height="30" rx="6" fill="#DEECFC"/>
<g clip-path="url(#clip0_36_878)">
<path d="M23 23H8C8 22.0081 8.19785 21.0618 8.55661 20.1972C8.59544 20.1038 8.63596 20.0114 8.6787 19.92C8.72195 19.8266 8.76724 19.7342 8.81458 19.6428C9.69045 17.9479 11.2091 16.6303 13.0536 16.0026C13.1461 15.971 13.2394 15.9413 13.3336 15.9134C13.4272 15.8855 13.5219 15.8593 13.6171 15.8351C14.2188 15.6816 14.8498 15.5999 15.5001 15.5999C16.1503 15.5999 16.7815 15.6816 17.3831 15.8351C17.4783 15.8593 17.5728 15.8855 17.6664 15.9132C17.7606 15.9413 17.8539 15.971 17.9464 16.0026C19.7909 16.6301 21.3096 17.9479 22.1854 19.6428C22.2328 19.7342 22.2781 19.8266 22.3213 19.92C22.364 20.0114 22.4046 20.1038 22.4434 20.1972C22.8021 21.0618 23 22.0081 23 23Z" fill="#2F80E5"/>
<path d="M19.5944 11.0399C19.5944 13.2713 17.7613 15.08 15.4999 15.08C13.2386 15.08 11.4053 13.2713 11.4053 11.0399C11.4053 8.80852 13.2386 7 15.4999 7C17.7613 7 19.5944 8.80869 19.5944 11.0399Z" fill="#2F80E5"/>
</g>
<defs>
<clipPath id="clip0_36_878">
<rect width="15" height="16" fill="white" transform="translate(8 7)"/>
</clipPath>
</defs>
</svg>
