<svg width="154" height="137" viewBox="0 0 154 137" fill="none" xmlns="http://www.w3.org/2000/svg">
<path d="M140.996 33.0383L139.596 31.6379L139.243 31.9914L137.843 30.5911L138.197 30.2376L136.797 28.8373L136.444 29.1907L135.044 27.7904L135.398 27.4369L133.998 26.0366L133.645 26.39L132.245 24.9897L132.599 24.6362L131.199 23.2359L130.846 23.5894L129.446 22.189L129.8 21.8356L128.4 20.4352L128.047 20.7887L126.647 19.3883L127.001 19.0349L125.601 17.6345L125.247 17.988L123.848 16.5877L124.202 16.2342L122.802 14.8339L122.448 15.1873L121.049 13.787L121.403 13.4335L120.003 12.0332L119.649 12.3866L118.25 10.9863L118.603 10.6328L117.204 9.23251L116.85 9.58596L115.451 8.18562L115.804 7.83217L114.405 6.43183L114.051 6.78528L112.652 5.38494L113.005 5.03149L111.606 3.63115L111.252 3.9846L110.552 3.28443C110.332 3.06343 110.101 2.85444 109.862 2.65789L110.179 2.27147C109.67 1.85366 109.124 1.48916 108.548 1.18163L108.313 1.62255C107.764 1.32903 107.187 1.09013 106.592 0.909347L106.737 0.430897C106.113 0.241486 105.469 0.112694 104.813 0.0481586L104.764 0.545751C104.456 0.515391 104.145 0.5 103.833 0.5H102.819V0H100.79V0.5H98.7613V0H96.7327V0.5H94.7041V0H92.6754V0.5H90.6468V0H88.6182V0.5H86.5895V0H84.5609V0.5H82.5323V0H80.5036V0.5H78.475V0H76.4464V0.5H74.4177V0H72.3891V0.5H70.3604V0H68.3318V0.5H66.3032V0H64.2745V0.5H62.2459V0H60.2173V0.5H58.1886V0H56.16V0.5H54.1314V0H52.1027V0.5H50.0741V0H48.0454V0.5H46.0168V0H43.9882V0.5H41.9595V0H39.9309V0.5H37.9023V0H35.8736V0.5H33.845V0H31.8164V0.5H29.7877V0H27.7591V0.5H25.7305V0H23.7018V0.5H23.1875V0.991667H22.6875V2.975H23.1875V4.95833H22.6875V6.94167H23.1875V8.925H22.6875V10.9083H23.1875V12.8917H22.6875V14.875H23.1875V16.8583H22.6875V18.8417H23.1875V20.825H22.6875V22.8083H23.1875V24.7917H22.6875V26.775H23.1875V28.7583H22.6875V30.7417H23.1875V32.725H22.6875V34.7083H23.1875V36.6917H22.6875V38.675H23.1875V40.6583H22.6875V42.6417H23.1875V44.625H22.6875V46.6083H23.1875V48.5917H22.6875V50.575H23.1875V52.5583H22.6875V54.5417H23.1875V56.525H22.6875V58.5083H23.1875V60.4917H22.6875V62.475H23.1875V64.4583H22.6875V66.4417H23.1875V68.425H22.6875V70.4083H23.1875V72.3917H22.6875V74.375H23.1875V76.3583H22.6875V78.3416H23.1875V80.325H22.6875V82.3083H23.1875V84.2916H22.6875V86.275H23.1875V88.2583H22.6875V90.2416H23.1875V92.225H22.6875V94.2083H23.1875V96.1916H22.6875V98.1749H23.1875V100.158H22.6875V102.142H23.1875V104.125H22.6875V106.108H23.1875V108.092H22.6875V110.075H23.1875V112.058H22.6875V114.042H23.1875V116.025H22.6875V118.008H23.1875V119C23.1875 119.315 23.2028 119.626 23.2326 119.932L22.735 119.981C22.7994 120.643 22.9284 121.286 23.1156 121.904L23.5942 121.759C23.7761 122.359 24.016 122.935 24.3073 123.479L23.8665 123.715C24.177 124.294 24.5428 124.84 24.9571 125.344L25.3434 125.027C25.7385 125.508 26.18 125.949 26.6609 126.344L26.3435 126.73C26.8477 127.145 27.3931 127.511 27.9727 127.821L28.2088 127.38C28.7527 127.672 29.3281 127.911 29.9286 128.093L29.7837 128.572C30.4016 128.759 31.0448 128.888 31.707 128.953L31.7554 128.455C32.0619 128.485 32.3728 128.5 32.6875 128.5H33.6776V129H35.6577V128.5H37.6379V129H39.6181V128.5H41.5982V129H43.5784V128.5H45.5586V129H47.5387V128.5H49.5189V129H51.4991V128.5H53.4792V129H55.4594V128.5H57.4396V129H59.4197V128.5H61.3999V129H63.3801V128.5H65.3602V129H67.3404V128.5H69.3206V129H71.3007V128.5H73.2809V129H75.261V128.5H77.2412V129H79.2214V128.5H81.2015V129H83.1817V128.5H85.1619V129H87.142V128.5H89.1222V129H91.1024V128.5H93.0825V129H95.0627V128.5H97.0428V129H99.023V128.5H101.003V129H102.983V128.5H104.964V129H106.944V128.5H108.924V129H110.904V128.5H112.884V129H114.864V128.5H116.844V129H118.825V128.5H120.805V129H122.785V128.5H124.765V129H126.745V128.5H128.725V129H130.706V128.5H131.696C132.01 128.5 132.321 128.485 132.628 128.455L132.676 128.953C133.338 128.888 133.982 128.759 134.6 128.572L134.455 128.093C135.055 127.911 135.631 127.672 136.174 127.38L136.411 127.821C136.99 127.511 137.536 127.145 138.04 126.73L137.722 126.344C138.203 125.949 138.645 125.508 139.04 125.027L139.426 125.344C139.84 124.84 140.206 124.294 140.517 123.715L140.076 123.479C140.367 122.935 140.607 122.359 140.789 121.759L141.268 121.904C141.455 121.286 141.584 120.643 141.648 119.981L141.151 119.932C141.18 119.626 141.196 119.315 141.196 119V117.985H141.696V115.955H141.196V113.925H141.696V111.895H141.196V109.865H141.696V107.835H141.196V105.805H141.696V103.775H141.196V101.745H141.696V99.7146H141.196V97.6846H141.696V95.6546H141.196V93.6245H141.696V91.5945H141.196V89.5645H141.696V87.5344H141.196V85.5044H141.696V83.4743H141.196V81.4443H141.696V79.4143H141.196V77.3842H141.696V75.3542H141.196V73.3242H141.696V71.2941H141.196V69.2641H141.696V67.2341H141.196V65.204H141.696V63.174H141.196V61.1439H141.696V59.1139H141.196V57.0839H141.696V55.0538H141.196V53.0238H141.696V50.9938H141.196V48.9637H141.696V46.9337H141.196V44.9037H141.696V42.8736H141.196V40.8436H141.696V38.8135H141.196V36.7835H141.696V34.7535H141.196V33.9455L140.642 33.3917L140.996 33.0383Z" fill="#F5F9FF" stroke="#C8DEF9" stroke-dasharray="2 2"/>
<circle cx="69.6875" cy="58" r="4" fill="#87B6F1"/>
<circle cx="95.6875" cy="58" r="4" fill="#87B6F1"/>
<path d="M94.6875 79C94.6875 72.3726 89.3149 67 82.6875 67C76.0601 67 70.6875 72.3726 70.6875 79" stroke="#87B6F1"/>
<path d="M106.979 34.0824L106.785 36.0268L107.282 36.0765L107.245 36.4433L107.616 36.4078L107.663 36.9056L109.616 36.7188L109.568 36.2211L111.52 36.0343L111.568 36.532L113.52 36.3452L113.472 35.8475L115.424 35.6607L115.472 36.1584L117.424 35.9716L117.376 35.4739L119.328 35.2871L119.376 35.7848L121.328 35.598L121.281 35.1003L123.233 34.9135L123.28 35.4112L125.232 35.2244L125.185 34.7267L127.137 34.5399L127.184 35.0377L129.137 34.8509L129.089 34.3531L131.041 34.1663L131.089 34.6641L133.041 34.4773L132.993 33.9796L134.945 33.7928L134.993 34.2905L136.945 34.1037L136.897 33.606L138.849 33.4192L138.897 33.9169L140.849 33.7301L140.811 33.3295L140.753 33.2713L141.106 32.9177L139.668 31.4797L139.315 31.8332L137.876 30.3952L138.23 30.0416L136.792 28.6036L136.438 28.9572L135 27.5191L135.354 27.1656L133.916 25.7275L133.562 26.0811L132.124 24.6431L132.478 24.2895L131.04 22.8515L130.686 23.205L129.248 21.767L129.602 21.4134L128.163 19.9754L127.81 20.329L126.372 18.8909L126.725 18.5374L125.287 17.0993L124.934 17.4529L123.496 16.0149L123.849 15.6613L122.411 14.2233L122.058 14.5768L120.62 13.1388L120.973 12.7852L119.535 11.3472L119.181 11.7008L117.743 10.2627L118.097 9.90918L116.659 8.47115L116.305 8.8247L114.867 7.38667L115.221 7.03311L113.783 5.59508L113.429 5.94864L111.991 4.51061L112.345 4.15705L110.907 2.71902L110.553 3.07258L110.493 3.01246L110.09 2.97219L109.896 4.91658L110.393 4.96633L110.199 6.91072L109.701 6.86097L109.507 8.80535L110.004 8.85511L109.81 10.7995L109.312 10.7497L109.118 12.6941L109.616 12.7439L109.421 14.6883L108.924 14.6385L108.729 16.5829L109.227 16.6327L109.032 18.577L108.535 18.5273L108.34 20.4717L108.838 20.5214L108.643 22.4658L108.146 22.4161L107.951 24.3605L108.449 24.4102L108.254 26.3546L107.757 26.3048L107.562 28.2492L108.06 28.299L107.865 30.2434L107.368 30.1936L107.174 32.138L107.671 32.1878L107.477 34.1321L106.979 34.0824Z" fill="#DEECFC" stroke="#C8DEF9" stroke-dasharray="2 2"/>
<path d="M0.4375 81H26.4375V110" stroke="#C8DEF9" stroke-width="12"/>
<path d="M70.5625 131L48.5625 131L48.5625 107" stroke="#C8DEF9" stroke-width="12"/>
<path d="M153.562 84L131.562 84L131.563 60L153.562 60" stroke="#C8DEF9" stroke-width="12"/>
</svg>
