<svg width="15" height="14" viewBox="0 0 15 14" fill="none" xmlns="http://www.w3.org/2000/svg">
<path d="M8.24365 1.26947L13.5796 6.49603L13.5737 6.50287L13.939 6.85638C13.9478 6.86496 13.9565 6.88091 13.9565 6.90033C13.9565 6.90972 13.9547 6.9184 13.9517 6.92572L13.939 6.94427L13.937 6.94623L8.23975 12.5283C8.23003 12.5377 8.218 12.5435 8.20557 12.5458L8.16943 12.5419H8.16748C8.14294 12.5315 8.1275 12.508 8.12744 12.4804V8.58588L7.5542 8.67084C5.47826 8.97922 3.59572 10.0497 2.26807 11.6826L2.01025 12.0165L2.00928 12.0175L1.54346 12.6552L1.54053 12.6591L1.53564 12.664C1.47472 12.7225 1.3964 12.7519 1.31885 12.7519C1.289 12.7519 1.25827 12.7475 1.22803 12.7382L1.14014 12.6962C1.01766 12.6136 0.968597 12.464 1.01904 12.3242L1.02295 12.3144L1.02588 12.3056L1.38428 11.1767C2.24955 8.44812 4.37918 6.36888 7.11084 5.56732L7.37744 5.49408L7.75635 5.39545L8.13135 5.29877V1.31732C8.13154 1.29183 8.14733 1.26681 8.17334 1.2558C8.18434 1.25117 8.19705 1.24956 8.20947 1.25189L8.24365 1.26947Z" stroke="#999999"/>
</svg>
