<svg width="20" height="20" viewBox="0 0 20 20" fill="none" xmlns="http://www.w3.org/2000/svg">
<mask id="path-1-inside-1_1_936" fill="white">
<path d="M9.99121 2C14.1282 2.00016 17.4814 5.35419 17.4814 9.49121C17.4814 10.8109 17.1392 12.0501 16.54 13.127L17.4561 16.1211C17.7054 16.9367 16.8842 17.67 16.1016 17.3311L13.3994 16.1602C12.3767 16.6839 11.2191 16.9814 9.99121 16.9814C5.85419 16.9814 2.50016 13.6282 2.5 9.49121C2.5 5.35409 5.85409 2 9.99121 2Z"/>
</mask>
<path d="M9.99121 2L9.99125 1H9.99121V2ZM17.4814 9.49121L18.4814 9.49125V9.49121H17.4814ZM16.54 13.127L15.6662 12.6408L15.4593 13.0126L15.5838 13.4195L16.54 13.127ZM17.4561 16.1211L18.4124 15.8288L18.4123 15.8285L17.4561 16.1211ZM16.1016 17.3311L15.704 18.2486L15.7041 18.2487L16.1016 17.3311ZM13.3994 16.1602L13.797 15.2426L13.3638 15.0549L12.9436 15.2701L13.3994 16.1602ZM9.99121 16.9814V17.9814H9.99125L9.99121 16.9814ZM2.5 9.49121H1.5V9.49125L2.5 9.49121ZM9.99121 2L9.99117 3C13.5758 3.00014 16.4814 5.90635 16.4814 9.49121H17.4814H18.4814C18.4814 4.80204 14.6806 1.00018 9.99125 1L9.99121 2ZM17.4814 9.49121L16.4814 9.49117C16.4814 10.6358 16.185 11.7083 15.6662 12.6408L16.54 13.127L17.4139 13.6131C18.0933 12.392 18.4814 10.986 18.4814 9.49125L17.4814 9.49121ZM16.54 13.127L15.5838 13.4195L16.4998 16.4136L17.4561 16.1211L18.4123 15.8285L17.4963 12.8344L16.54 13.127ZM17.4561 16.1211L16.4997 16.4134L16.499 16.4134L16.1016 17.3311L15.7041 18.2487C17.2683 18.9262 18.9113 17.4609 18.4124 15.8288L17.4561 16.1211ZM16.1016 17.3311L16.4992 16.4135L13.797 15.2426L13.3994 16.1602L13.0018 17.0777L15.704 18.2486L16.1016 17.3311ZM13.3994 16.1602L12.9436 15.2701C12.0575 15.7238 11.0556 15.9814 9.99117 15.9814L9.99121 16.9814L9.99125 17.9814C11.3826 17.9814 12.696 17.6439 13.8552 17.0502L13.3994 16.1602ZM9.99121 16.9814V15.9814C6.40635 15.9814 3.50014 13.0758 3.5 9.49117L2.5 9.49121L1.5 9.49125C1.50018 14.1806 5.30204 17.9814 9.99121 17.9814V16.9814ZM2.5 9.49121H3.5C3.5 5.90638 6.40638 3 9.99121 3V2V1C5.30181 1 1.5 4.80181 1.5 9.49121H2.5Z" fill="#999999" mask="url(#path-1-inside-1_1_936)"/>
<circle cx="6.7672" cy="9.68108" r="0.853446" fill="#999999"/>
<circle cx="10.1813" cy="9.68108" r="0.853446" fill="#999999"/>
<circle cx="13.595" cy="9.68108" r="0.853446" fill="#999999"/>
</svg>
