<svg width="37" height="34" viewBox="0 0 37 34" fill="none" xmlns="http://www.w3.org/2000/svg">
<g clip-path="url(#clip0_432_995)">
<rect width="36.77" height="33.02" transform="translate(0.115234 -0.00976562)" fill="white"/>
<path d="M16.8447 19.4805C16.9847 19.4805 17.1155 19.5502 17.1855 19.6602C17.2654 19.77 17.2752 19.92 17.2354 20.0498C17.1254 20.3298 17.0752 20.6302 17.0752 20.9502C17.0752 22.3502 18.2055 23.4805 19.6055 23.4805C21.0053 23.4803 22.1348 22.3501 22.1348 20.9502C22.1348 20.6402 22.0748 20.34 21.9648 20.04C21.915 19.9101 21.9357 19.7701 22.0156 19.6602C22.0956 19.5503 22.2256 19.4805 22.3555 19.4805H25.9551C26.1851 19.4805 26.375 19.6704 26.375 19.9004V28.2803C26.375 30.9003 24.2447 33.0205 21.6348 33.0205L21.6152 33.0098H13.2354C13.0054 33.0098 12.8154 32.8198 12.8154 32.5898V29.0303C12.8154 28.9993 12.8187 28.9686 12.8252 28.9395V19.9004C12.8252 19.6704 13.0151 19.4805 13.2451 19.4805H16.8447Z" fill="#DEECFC"/>
<path d="M13.2352 33.0107H4.85523C2.24523 33.0107 0.115234 30.8807 0.115234 28.2707V19.8907C0.115234 19.6607 0.305234 19.4707 0.535234 19.4707H4.12523C4.35523 19.4707 4.54523 19.6607 4.54523 19.8907C4.54523 20.1207 4.35523 20.3107 4.12523 20.3107H0.945234V28.2707C0.945234 30.4307 2.69523 32.1807 4.85523 32.1807H12.8152V29.5507C12.6052 29.5907 12.3952 29.6107 12.1852 29.6107C10.3352 29.6107 8.82523 28.1007 8.82523 26.2507C8.82523 24.4007 10.3352 22.8907 12.1852 22.8907C12.3952 22.8907 12.6152 22.9107 12.8152 22.9507V20.3207H9.64523C9.41523 20.3207 9.22523 20.1307 9.22523 19.9007C9.22523 19.6707 9.41523 19.4807 9.64523 19.4807H13.2352C13.4652 19.4807 13.6552 19.6707 13.6552 19.9007V23.5007C13.6552 23.6407 13.5852 23.7707 13.4752 23.8407C13.3652 23.9207 13.2152 23.9307 13.0852 23.8807C12.7952 23.7707 12.4952 23.7107 12.1852 23.7107C10.7952 23.7107 9.65523 24.8507 9.65523 26.2407C9.65523 27.6307 10.7852 28.7707 12.1852 28.7707C12.4952 28.7707 12.7952 28.7107 13.0852 28.6007C13.2152 28.5507 13.3552 28.5707 13.4752 28.6407C13.5852 28.7207 13.6552 28.8507 13.6552 28.9807V32.5807C13.6552 32.8107 13.4652 33.0007 13.2352 33.0007V33.0107Z" fill="#DEECFC"/>
<path d="M13.2352 20.3103H9.63523C9.49523 20.3103 9.37523 20.2403 9.29523 20.1303C9.21523 20.0203 9.19523 19.8703 9.24523 19.7503C9.35523 19.4603 9.41523 19.1503 9.41523 18.8503C9.41523 17.4503 8.27523 16.3203 6.88523 16.3203C5.49523 16.3203 4.35523 17.4503 4.35523 18.8503C4.35523 19.1403 4.40523 19.4303 4.51523 19.7203C4.54523 19.7703 4.55523 19.8303 4.55523 19.9003C4.55523 20.1303 4.36523 20.3203 4.13523 20.3203H0.535234C0.305234 20.3203 0.115234 20.1303 0.115234 19.9003V11.5203C0.115234 8.91027 2.24523 6.78027 4.85523 6.78027H13.2352C13.4652 6.78027 13.6552 6.97027 13.6552 7.20027V10.2603C13.9752 10.1603 14.3052 10.1103 14.6452 10.1103C16.4952 10.1103 18.0052 11.6503 18.0052 13.5503C18.0052 15.4503 16.4952 16.9903 14.6452 16.9903C14.3052 16.9903 13.9752 16.9403 13.6552 16.8403V19.9003C13.6552 20.1303 13.4652 20.3203 13.2352 20.3203V20.3103Z" fill="#DEECFC"/>
<path d="M12.8802 19.7682C12.8802 19.7682 12.8196 19.7332 12.7899 19.7046C12.7097 19.6236 12.6667 19.518 12.6684 19.415L12.6696 15.813C12.669 15.6741 12.739 15.5529 12.8473 15.4653C12.9592 15.3914 13.1081 15.3734 13.2307 15.4211C13.5242 15.5328 13.8167 15.5862 14.1305 15.5826C14.8115 15.5832 15.4452 15.3255 15.9174 14.8476C16.3983 14.3747 16.6654 13.7321 16.6609 13.0598C16.6612 12.1593 16.1787 11.315 15.3906 10.86C15.0096 10.64 14.5685 10.5239 14.1295 10.5244C13.8156 10.528 13.5078 10.5812 13.2282 10.6854C13.0953 10.7357 12.9527 10.7226 12.8415 10.6353C12.7252 10.5566 12.6613 10.4274 12.6607 10.2884L12.6618 6.68644C12.6666 6.45823 12.8435 6.27173 13.0767 6.2678L21.4714 6.28782C22.2913 6.28775 23.1114 6.50722 23.8302 6.92222C25.3025 7.77222 26.2071 9.3453 26.2132 11.0347L26.2119 19.417C26.2139 19.5337 26.1675 19.6339 26.0865 19.7142C26.0056 19.7944 25.8999 19.8374 25.797 19.8357L13.0957 19.8349C13.0238 19.8396 12.9445 19.8169 12.8838 19.7819L12.8802 19.7682Z" fill="#92C1F6"/>
<path d="M18.1483 24.0223C17.0917 23.4123 16.4394 22.2621 16.4375 21.0254C16.4317 20.3755 16.6131 19.7412 16.9605 19.1796C17.0305 19.0584 17.1697 18.9772 17.3173 18.9815L22.2949 18.9801C22.4425 18.9845 22.5724 19.0595 22.65 19.1851C22.9886 19.7386 23.1656 20.372 23.1714 21.0219C23.1735 21.9584 22.8074 22.8325 22.1495 23.4919C21.5204 24.1217 20.684 24.4702 19.7972 24.4663C19.2192 24.4674 18.6506 24.3123 18.1483 24.0223ZM17.5579 19.8248C17.3653 20.1985 17.2642 20.6136 17.2747 21.0354C17.2717 21.9805 17.7702 22.8572 18.5669 23.3172C18.9393 23.5322 19.3667 23.6519 19.7971 23.6464C20.4558 23.6456 21.0808 23.383 21.5567 22.9187C22.0526 22.4198 22.3297 21.7599 22.3279 21.043C22.326 20.6262 22.2299 20.2128 22.0418 19.8386L17.5529 19.8335L17.5579 19.8248Z" fill="#92C1F6"/>
<circle cx="12" cy="26.5" r="3" fill="#DEECFC"/>
<circle cx="19.5844" cy="21.225" r="3" transform="rotate(30 19.5844 21.225)" fill="#92C1F6"/>
</g>
<defs>
<clipPath id="clip0_432_995">
<rect width="36.77" height="33.02" fill="white" transform="translate(0.115234 -0.00976562)"/>
</clipPath>
</defs>
</svg>
