<svg width="17" height="17" viewBox="0 0 17 17" fill="none" xmlns="http://www.w3.org/2000/svg">
<path d="M8.49951 1.90649C9.59807 1.90667 10.4896 2.79719 10.4897 3.89575C10.4897 4.64473 10.0752 5.29641 9.46338 5.63599C9.60056 5.73743 9.72634 5.8616 9.83154 6.01196L10.6304 7.15356L10.728 7.28149C11.2442 7.89209 12.1197 8.07966 12.8472 7.71606L12.9888 7.64478C12.7031 7.30019 12.5309 6.85765 12.5308 6.37524C12.5309 5.27684 13.4217 4.38641 14.52 4.38599C15.6187 4.38599 16.5101 5.27658 16.5103 6.37524C16.51 7.47104 15.6236 8.36001 14.5288 8.3645L13.9087 11.5168C13.5513 13.3336 11.9585 14.6446 10.1069 14.6448H6.89307C5.0415 14.6445 3.44867 13.3336 3.09131 11.5168L2.47119 8.3645C1.3762 8.36022 0.48905 7.47117 0.48877 6.37524C0.488945 5.27695 1.37983 4.38658 2.47803 4.38599C3.57674 4.38599 4.46809 5.27658 4.46826 6.37524C4.46814 6.85752 4.29598 7.29925 4.01025 7.6438L4.15381 7.71606C4.92967 8.10364 5.87334 7.86416 6.37061 7.15356L7.16846 6.01196L7.29834 5.84985C7.37142 5.76905 7.4514 5.69834 7.53564 5.63599C6.92456 5.29627 6.51033 4.64437 6.51025 3.89575C6.51043 2.79735 7.40116 1.90692 8.49951 1.90649Z" fill="#929292"/>
</svg>
