<svg width="20" height="20" viewBox="0 0 20 20" fill="none" xmlns="http://www.w3.org/2000/svg">
<path fill-rule="evenodd" clip-rule="evenodd" d="M14.7549 9.94252C14.7575 9.94007 14.76 9.93759 14.7625 9.93509L16.709 7.98857C16.9599 7.75011 17.1077 7.42274 17.1203 7.07646C17.1331 6.72596 17.0064 6.38468 16.768 6.12744C16.7627 6.12164 16.7572 6.11594 16.7516 6.11035L14.2751 3.63459L13.9937 3.35444C13.7368 3.11569 13.3957 2.98852 13.0452 3.00082C12.6987 3.01297 12.371 3.1604 12.1322 3.4112L10.1931 5.35029C10.1906 5.35273 10.188 5.3552 10.1855 5.3577L3.86967 11.6736C3.77607 11.7672 3.71461 11.8881 3.69413 12.0188L3.00757 16.3977C2.9766 16.595 3.04179 16.7952 3.18298 16.9365C3.32418 17.0777 3.52439 17.143 3.72171 17.1121L8.10152 16.4262C8.23229 16.4057 8.35318 16.3443 8.44677 16.2507L14.7549 9.94252ZM10.6273 6.68375L13.4366 9.49308L7.7069 15.2228L4.37541 15.7445L4.89757 12.4134L10.6273 6.68375Z" fill="#747474"/>
</svg>
