<svg width="17" height="17" viewBox="0 0 17 17" fill="none" xmlns="http://www.w3.org/2000/svg">
<g id="Wrapped gift">
<g id="Subtract">
<path d="M8.52979 4.94898H12.929C13.5219 4.94398 14.0001 4.46336 14.0001 3.8726C14.0001 2.18042 11.9775 1.31931 10.7669 2.49082L8.52979 4.65989V4.94898Z" fill="#DE2236"/>
<path d="M8.52979 4.94898H12.929C13.5219 4.94398 14.0001 4.46336 14.0001 3.8726C14.0001 2.18042 11.9775 1.31931 10.7669 2.49082L8.52979 4.65989V4.94898Z" fill="url(#paint0_radial_79_758)"/>
<path d="M8.52979 4.94898H12.929C13.5219 4.94398 14.0001 4.46336 14.0001 3.8726C14.0001 2.18042 11.9775 1.31931 10.7669 2.49082L8.52979 4.65989V4.94898Z" fill="url(#paint1_radial_79_758)"/>
<path d="M8.52979 4.94898H12.929C13.5219 4.94398 14.0001 4.46336 14.0001 3.8726C14.0001 2.18042 11.9775 1.31931 10.7669 2.49082L8.52979 4.65989V4.94898Z" fill="url(#paint2_linear_79_758)"/>
<path d="M8.52979 4.94898H12.929C13.5219 4.94398 14.0001 4.46336 14.0001 3.8726C14.0001 2.18042 11.9775 1.31931 10.7669 2.49082L8.52979 4.65989V4.94898Z" fill="url(#paint3_radial_79_758)"/>
<path d="M8.52979 4.94898H12.929C13.5219 4.94398 14.0001 4.46336 14.0001 3.8726C14.0001 2.18042 11.9775 1.31931 10.7669 2.49082L8.52979 4.65989V4.94898Z" fill="url(#paint4_radial_79_758)"/>
<path d="M8.52979 4.94898H12.929C13.5219 4.94398 14.0001 4.46336 14.0001 3.8726C14.0001 2.18042 11.9775 1.31931 10.7669 2.49082L8.52979 4.65989V4.94898Z" fill="url(#paint5_linear_79_758)"/>
<path d="M8.52979 4.94898H12.929C13.5219 4.94398 14.0001 4.46336 14.0001 3.8726C14.0001 2.18042 11.9775 1.31931 10.7669 2.49082L8.52979 4.65989V4.94898Z" fill="url(#paint6_radial_79_758)" fill-opacity="0.8"/>
</g>
<g id="Subtract_2">
<path d="M8.52979 4.94898H4.13054C3.5377 4.94398 3.05944 4.46336 3.05944 3.8726C3.05944 2.18042 5.08209 1.31931 6.29269 2.49082L8.52979 4.65989V4.94898Z" fill="url(#paint7_linear_79_758)"/>
<path d="M8.52979 4.94898H4.13054C3.5377 4.94398 3.05944 4.46336 3.05944 3.8726C3.05944 2.18042 5.08209 1.31931 6.29269 2.49082L8.52979 4.65989V4.94898Z" fill="url(#paint8_linear_79_758)"/>
<path d="M8.52979 4.94898H4.13054C3.5377 4.94398 3.05944 4.46336 3.05944 3.8726C3.05944 2.18042 5.08209 1.31931 6.29269 2.49082L8.52979 4.65989V4.94898Z" fill="url(#paint9_radial_79_758)"/>
<path d="M8.52979 4.94898H4.13054C3.5377 4.94398 3.05944 4.46336 3.05944 3.8726C3.05944 2.18042 5.08209 1.31931 6.29269 2.49082L8.52979 4.65989V4.94898Z" fill="url(#paint10_radial_79_758)"/>
<path d="M8.52979 4.94898H4.13054C3.5377 4.94398 3.05944 4.46336 3.05944 3.8726C3.05944 2.18042 5.08209 1.31931 6.29269 2.49082L8.52979 4.65989V4.94898Z" fill="url(#paint11_radial_79_758)" fill-opacity="0.8"/>
<path d="M8.52979 4.94898H4.13054C3.5377 4.94398 3.05944 4.46336 3.05944 3.8726C3.05944 2.18042 5.08209 1.31931 6.29269 2.49082L8.52979 4.65989V4.94898Z" fill="url(#paint12_radial_79_758)" fill-opacity="0.7"/>
<path d="M8.52979 4.94898H4.13054C3.5377 4.94398 3.05944 4.46336 3.05944 3.8726C3.05944 2.18042 5.08209 1.31931 6.29269 2.49082L8.52979 4.65989V4.94898Z" fill="url(#paint13_radial_79_758)"/>
<path d="M8.52979 4.94898H4.13054C3.5377 4.94398 3.05944 4.46336 3.05944 3.8726C3.05944 2.18042 5.08209 1.31931 6.29269 2.49082L8.52979 4.65989V4.94898Z" fill="url(#paint14_radial_79_758)" fill-opacity="0.6"/>
<path d="M8.52979 4.94898H4.13054C3.5377 4.94398 3.05944 4.46336 3.05944 3.8726C3.05944 2.18042 5.08209 1.31931 6.29269 2.49082L8.52979 4.65989V4.94898Z" fill="url(#paint15_radial_79_758)" fill-opacity="0.6"/>
</g>
<g id="Vector">
<path d="M12.944 15.9489H4.05595C3.47042 15.9489 3 15.4842 3 14.9058V8.44894H14V14.9058C14 15.4793 13.5296 15.9489 12.944 15.9489Z" fill="url(#paint16_linear_79_758)"/>
<path d="M12.944 15.9489H4.05595C3.47042 15.9489 3 15.4842 3 14.9058V8.44894H14V14.9058C14 15.4793 13.5296 15.9489 12.944 15.9489Z" fill="url(#paint17_linear_79_758)"/>
<path d="M12.944 15.9489H4.05595C3.47042 15.9489 3 15.4842 3 14.9058V8.44894H14V14.9058C14 15.4793 13.5296 15.9489 12.944 15.9489Z" fill="url(#paint18_linear_79_758)"/>
<path d="M12.944 15.9489H4.05595C3.47042 15.9489 3 15.4842 3 14.9058V8.44894H14V14.9058C14 15.4793 13.5296 15.9489 12.944 15.9489Z" fill="url(#paint19_radial_79_758)"/>
<path d="M12.944 15.9489H4.05595C3.47042 15.9489 3 15.4842 3 14.9058V8.44894H14V14.9058C14 15.4793 13.5296 15.9489 12.944 15.9489Z" fill="url(#paint20_radial_79_758)"/>
<path d="M12.944 15.9489H4.05595C3.47042 15.9489 3 15.4842 3 14.9058V8.44894H14V14.9058C14 15.4793 13.5296 15.9489 12.944 15.9489Z" fill="url(#paint21_linear_79_758)"/>
<path d="M12.944 15.9489H4.05595C3.47042 15.9489 3 15.4842 3 14.9058V8.44894H14V14.9058C14 15.4793 13.5296 15.9489 12.944 15.9489Z" fill="url(#paint22_linear_79_758)"/>
<path d="M12.944 15.9489H4.05595C3.47042 15.9489 3 15.4842 3 14.9058V8.44894H14V14.9058C14 15.4793 13.5296 15.9489 12.944 15.9489Z" fill="url(#paint23_radial_79_758)"/>
<path d="M12.944 15.9489H4.05595C3.47042 15.9489 3 15.4842 3 14.9058V8.44894H14V14.9058C14 15.4793 13.5296 15.9489 12.944 15.9489Z" fill="url(#paint24_radial_79_758)"/>
</g>
<g id="Vector_2">
<path d="M14.3308 4.94894H2.66923C2.29965 4.94894 2 5.24937 2 5.6199V7.77799C2 8.14852 2.29965 8.44894 2.66923 8.44894H14.3308C14.7003 8.44894 15 8.14852 15 7.77799V5.6199C15 5.24937 14.7003 4.94894 14.3308 4.94894Z" fill="url(#paint25_linear_79_758)"/>
<path d="M14.3308 4.94894H2.66923C2.29965 4.94894 2 5.24937 2 5.6199V7.77799C2 8.14852 2.29965 8.44894 2.66923 8.44894H14.3308C14.7003 8.44894 15 8.14852 15 7.77799V5.6199C15 5.24937 14.7003 4.94894 14.3308 4.94894Z" fill="url(#paint26_linear_79_758)"/>
<path d="M14.3308 4.94894H2.66923C2.29965 4.94894 2 5.24937 2 5.6199V7.77799C2 8.14852 2.29965 8.44894 2.66923 8.44894H14.3308C14.7003 8.44894 15 8.14852 15 7.77799V5.6199C15 5.24937 14.7003 4.94894 14.3308 4.94894Z" fill="url(#paint27_radial_79_758)" fill-opacity="0.8"/>
<path d="M14.3308 4.94894H2.66923C2.29965 4.94894 2 5.24937 2 5.6199V7.77799C2 8.14852 2.29965 8.44894 2.66923 8.44894H14.3308C14.7003 8.44894 15 8.14852 15 7.77799V5.6199C15 5.24937 14.7003 4.94894 14.3308 4.94894Z" fill="url(#paint28_radial_79_758)" fill-opacity="0.3"/>
<path d="M14.3308 4.94894H2.66923C2.29965 4.94894 2 5.24937 2 5.6199V7.77799C2 8.14852 2.29965 8.44894 2.66923 8.44894H14.3308C14.7003 8.44894 15 8.14852 15 7.77799V5.6199C15 5.24937 14.7003 4.94894 14.3308 4.94894Z" fill="url(#paint29_radial_79_758)" fill-opacity="0.6"/>
<path d="M14.3308 4.94894H2.66923C2.29965 4.94894 2 5.24937 2 5.6199V7.77799C2 8.14852 2.29965 8.44894 2.66923 8.44894H14.3308C14.7003 8.44894 15 8.14852 15 7.77799V5.6199C15 5.24937 14.7003 4.94894 14.3308 4.94894Z" fill="url(#paint30_linear_79_758)"/>
<path d="M14.3308 4.94894H2.66923C2.29965 4.94894 2 5.24937 2 5.6199V7.77799C2 8.14852 2.29965 8.44894 2.66923 8.44894H14.3308C14.7003 8.44894 15 8.14852 15 7.77799V5.6199C15 5.24937 14.7003 4.94894 14.3308 4.94894Z" fill="url(#paint31_radial_79_758)"/>
<path d="M14.3308 4.94894H2.66923C2.29965 4.94894 2 5.24937 2 5.6199V7.77799C2 8.14852 2.29965 8.44894 2.66923 8.44894H14.3308C14.7003 8.44894 15 8.14852 15 7.77799V5.6199C15 5.24937 14.7003 4.94894 14.3308 4.94894Z" fill="url(#paint32_linear_79_758)"/>
<path d="M14.3308 4.94894H2.66923C2.29965 4.94894 2 5.24937 2 5.6199V7.77799C2 8.14852 2.29965 8.44894 2.66923 8.44894H14.3308C14.7003 8.44894 15 8.14852 15 7.77799V5.6199C15 5.24937 14.7003 4.94894 14.3308 4.94894Z" fill="url(#paint33_radial_79_758)"/>
</g>
<g id="Vector_3">
<path d="M8.50246 2.44894C7.67216 2.44894 7 3.1335 7 3.97914V15.9489H9.99997V3.97914C10.0049 3.1335 9.33276 2.44894 8.50246 2.44894Z" fill="url(#paint34_linear_79_758)"/>
<path d="M8.50246 2.44894C7.67216 2.44894 7 3.1335 7 3.97914V15.9489H9.99997V3.97914C10.0049 3.1335 9.33276 2.44894 8.50246 2.44894Z" fill="url(#paint35_linear_79_758)"/>
<path d="M8.50246 2.44894C7.67216 2.44894 7 3.1335 7 3.97914V15.9489H9.99997V3.97914C10.0049 3.1335 9.33276 2.44894 8.50246 2.44894Z" fill="url(#paint36_radial_79_758)"/>
<path d="M8.50246 2.44894C7.67216 2.44894 7 3.1335 7 3.97914V15.9489H9.99997V3.97914C10.0049 3.1335 9.33276 2.44894 8.50246 2.44894Z" fill="url(#paint37_radial_79_758)"/>
<path d="M8.50246 2.44894C7.67216 2.44894 7 3.1335 7 3.97914V15.9489H9.99997V3.97914C10.0049 3.1335 9.33276 2.44894 8.50246 2.44894Z" fill="url(#paint38_linear_79_758)"/>
<path d="M8.50246 2.44894C7.67216 2.44894 7 3.1335 7 3.97914V15.9489H9.99997V3.97914C10.0049 3.1335 9.33276 2.44894 8.50246 2.44894Z" fill="url(#paint39_radial_79_758)"/>
<path d="M8.50246 2.44894C7.67216 2.44894 7 3.1335 7 3.97914V15.9489H9.99997V3.97914C10.0049 3.1335 9.33276 2.44894 8.50246 2.44894Z" fill="url(#paint40_radial_79_758)"/>
<path d="M8.50246 2.44894C7.67216 2.44894 7 3.1335 7 3.97914V15.9489H9.99997V3.97914C10.0049 3.1335 9.33276 2.44894 8.50246 2.44894Z" fill="url(#paint41_linear_79_758)"/>
</g>
</g>
<defs>
<radialGradient id="paint0_radial_79_758" cx="0" cy="0" r="1" gradientUnits="userSpaceOnUse" gradientTransform="translate(13.7521 3.00235) rotate(161.323) scale(1.99786 4.30357)">
<stop stop-color="#FB5157" stop-opacity="0.35"/>
<stop offset="0.760014" stop-color="#FB5157" stop-opacity="0.155599"/>
<stop offset="1" stop-color="#FB5157" stop-opacity="0"/>
</radialGradient>
<radialGradient id="paint1_radial_79_758" cx="0" cy="0" r="1" gradientUnits="userSpaceOnUse" gradientTransform="translate(11.1965 4.38054) rotate(-30.6716) scale(2.87253 2.74231)">
<stop stop-color="#FB5157" stop-opacity="0"/>
<stop offset="0.785828" stop-color="#FB5157" stop-opacity="0"/>
<stop offset="0.817688" stop-color="#FB5157" stop-opacity="0.153978"/>
<stop offset="0.841351" stop-color="#FB5157" stop-opacity="0.327228"/>
<stop offset="0.876786" stop-color="#FB5157" stop-opacity="0.68"/>
<stop offset="0.907275" stop-color="#FB5157" stop-opacity="0.867629"/>
<stop offset="0.926291" stop-color="#FB5157" stop-opacity="0.86"/>
<stop offset="0.957593" stop-color="#FB5157" stop-opacity="0.682713"/>
<stop offset="1" stop-color="#FB5157" stop-opacity="0"/>
</radialGradient>
<linearGradient id="paint2_linear_79_758" x1="11.8551" y1="5.18892" x2="11.8551" y2="4.26013" gradientUnits="userSpaceOnUse">
<stop offset="0.281039" stop-color="#CE280A"/>
<stop offset="0.773458" stop-color="#CE280A" stop-opacity="0.223506"/>
<stop offset="1" stop-color="#CE280A" stop-opacity="0"/>
</linearGradient>
<radialGradient id="paint3_radial_79_758" cx="0" cy="0" r="1" gradientUnits="userSpaceOnUse" gradientTransform="translate(13.8437 4.79422) rotate(-132.522) scale(0.840654 3.5749)">
<stop stop-color="#DE2236"/>
<stop offset="0.499788" stop-color="#DE2236"/>
<stop offset="0.782723" stop-color="#DE2236" stop-opacity="0.222514"/>
<stop offset="1" stop-color="#DE2236" stop-opacity="0"/>
</radialGradient>
<radialGradient id="paint4_radial_79_758" cx="0" cy="0" r="1" gradientUnits="userSpaceOnUse" gradientTransform="translate(11.8996 1.64703) rotate(69.6521) scale(1.05825 4.50023)">
<stop stop-color="#DE2236"/>
<stop offset="0.499788" stop-color="#DE2236"/>
<stop offset="0.780931" stop-color="#DE2236" stop-opacity="0.222514"/>
<stop offset="1" stop-color="#DE2236" stop-opacity="0"/>
</radialGradient>
<linearGradient id="paint5_linear_79_758" x1="10.4207" y1="2.75706" x2="10.8821" y2="3.2873" gradientUnits="userSpaceOnUse">
<stop stop-color="#B23C3E"/>
<stop offset="0.692708" stop-color="#B23C3E" stop-opacity="0.259759"/>
<stop offset="1" stop-color="#B23C3E" stop-opacity="0"/>
</linearGradient>
<radialGradient id="paint6_radial_79_758" cx="0" cy="0" r="1" gradientUnits="userSpaceOnUse" gradientTransform="translate(12.3163 5.04485) rotate(-78.9407) scale(3.03774 3.09122)">
<stop stop-color="#B23C3E" stop-opacity="0"/>
<stop offset="0.831316" stop-color="#B23C3E" stop-opacity="0"/>
<stop offset="0.877061" stop-color="#B23C3E" stop-opacity="0.259759"/>
<stop offset="0.936366" stop-color="#B23C3E" stop-opacity="0.626319"/>
<stop offset="1" stop-color="#B23C3E"/>
</radialGradient>
<linearGradient id="paint7_linear_79_758" x1="6.66935" y1="2.59604" x2="5.79461" y2="4.94898" gradientUnits="userSpaceOnUse">
<stop stop-color="#DF2332"/>
<stop offset="1" stop-color="#D9213B"/>
</linearGradient>
<linearGradient id="paint8_linear_79_758" x1="5.20446" y1="5.18892" x2="5.20446" y2="4.26013" gradientUnits="userSpaceOnUse">
<stop offset="0.175365" stop-color="#CE280A"/>
<stop offset="0.776867" stop-color="#CE280A" stop-opacity="0.211088"/>
<stop offset="1" stop-color="#CE280A" stop-opacity="0"/>
</linearGradient>
<radialGradient id="paint9_radial_79_758" cx="0" cy="0" r="1" gradientUnits="userSpaceOnUse" gradientTransform="translate(7.2692 5.09217) rotate(-173.603) scale(1.28509 3.38003)">
<stop offset="0.150943" stop-color="#BD1123"/>
<stop offset="1" stop-color="#BD1123" stop-opacity="0"/>
</radialGradient>
<radialGradient id="paint10_radial_79_758" cx="0" cy="0" r="1" gradientUnits="userSpaceOnUse" gradientTransform="translate(3.53884 4.8371) rotate(-57.1306) scale(0.780142 3.69328)">
<stop stop-color="#B23C3E"/>
<stop offset="0.664656" stop-color="#B23C3E" stop-opacity="0.326073"/>
<stop offset="1" stop-color="#B23C3E" stop-opacity="0"/>
</radialGradient>
<radialGradient id="paint11_radial_79_758" cx="0" cy="0" r="1" gradientUnits="userSpaceOnUse" gradientTransform="translate(6.54943 4.8007) rotate(-141.705) scale(3.66282 2.85199)">
<stop stop-color="#B23C3E" stop-opacity="0"/>
<stop offset="0.831316" stop-color="#B23C3E" stop-opacity="0"/>
<stop offset="0.879941" stop-color="#B23C3E" stop-opacity="0.259759"/>
<stop offset="0.936366" stop-color="#B23C3E" stop-opacity="0.626319"/>
<stop offset="1" stop-color="#B23C3E"/>
</radialGradient>
<radialGradient id="paint12_radial_79_758" cx="0" cy="0" r="1" gradientUnits="userSpaceOnUse" gradientTransform="translate(6.60895 3.1656) rotate(125.49) scale(1.25512 2.80461)">
<stop stop-color="#FB5157" stop-opacity="0.73"/>
<stop offset="0.177703" stop-color="#FB5157" stop-opacity="0.68"/>
<stop offset="0.490193" stop-color="#FB5157" stop-opacity="0.303009"/>
<stop offset="0.722196" stop-color="#FB5157" stop-opacity="0.04"/>
<stop offset="1" stop-color="#FB5157" stop-opacity="0"/>
</radialGradient>
<radialGradient id="paint13_radial_79_758" cx="0" cy="0" r="1" gradientUnits="userSpaceOnUse" gradientTransform="translate(6.59653 3.19828) rotate(128.157) scale(0.435525 2.88002)">
<stop stop-color="#FB5157" stop-opacity="0.95"/>
<stop offset="0.202351" stop-color="#FB5157" stop-opacity="0.79"/>
<stop offset="0.490193" stop-color="#FB5157" stop-opacity="0.303009"/>
<stop offset="0.722196" stop-color="#FB5157" stop-opacity="0.04"/>
<stop offset="1" stop-color="#FB5157" stop-opacity="0"/>
</radialGradient>
<radialGradient id="paint14_radial_79_758" cx="0" cy="0" r="1" gradientUnits="userSpaceOnUse" gradientTransform="translate(5.6786 2.58592) rotate(116.369) scale(0.325801 1.08236)">
<stop stop-color="#FB5157" stop-opacity="0.73"/>
<stop offset="0.177703" stop-color="#FB5157" stop-opacity="0.68"/>
<stop offset="0.424401" stop-color="#FB5157" stop-opacity="0.303009"/>
<stop offset="0.722196" stop-color="#FB5157" stop-opacity="0.04"/>
<stop offset="1" stop-color="#FB5157" stop-opacity="0"/>
</radialGradient>
<radialGradient id="paint15_radial_79_758" cx="0" cy="0" r="1" gradientUnits="userSpaceOnUse" gradientTransform="translate(5.27406 2.39325) rotate(97.1935) scale(0.364536 1.21104)">
<stop stop-color="#FB5157" stop-opacity="0.73"/>
<stop offset="0.177703" stop-color="#FB5157" stop-opacity="0.68"/>
<stop offset="0.424401" stop-color="#FB5157" stop-opacity="0.303009"/>
<stop offset="0.722196" stop-color="#FB5157" stop-opacity="0.04"/>
<stop offset="1" stop-color="#FB5157" stop-opacity="0"/>
</radialGradient>
<linearGradient id="paint16_linear_79_758" x1="3" y1="13.2302" x2="14" y2="13.2302" gradientUnits="userSpaceOnUse">
<stop stop-color="#F1A738"/>
<stop offset="1" stop-color="#FAD42C"/>
</linearGradient>
<linearGradient id="paint17_linear_79_758" x1="14.1535" y1="12.8552" x2="12.7404" y2="12.8552" gradientUnits="userSpaceOnUse">
<stop stop-color="#FFF733"/>
<stop offset="0.720904" stop-color="#FFF733" stop-opacity="0.136144"/>
<stop offset="1" stop-color="#FFF733" stop-opacity="0"/>
</linearGradient>
<linearGradient id="paint18_linear_79_758" x1="8.5" y1="7.69582" x2="8.5" y2="9.07394" gradientUnits="userSpaceOnUse">
<stop stop-color="#C97525"/>
<stop offset="0.808655" stop-color="#C97525" stop-opacity="0.142955"/>
<stop offset="1" stop-color="#C97525" stop-opacity="0"/>
</linearGradient>
<radialGradient id="paint19_radial_79_758" cx="0" cy="0" r="1" gradientUnits="userSpaceOnUse" gradientTransform="translate(1.88936 13.4663) scale(4.02008 11.4043)">
<stop offset="0.215641" stop-color="#DE7550" stop-opacity="0.12"/>
<stop offset="0.648277" stop-color="#DE7550" stop-opacity="0.158562"/>
<stop offset="1" stop-color="#DE7550" stop-opacity="0"/>
</radialGradient>
<radialGradient id="paint20_radial_79_758" cx="0" cy="0" r="1" gradientUnits="userSpaceOnUse" gradientTransform="translate(7.11218 11.6052) rotate(-180) scale(0.981273 9.93981)">
<stop stop-color="#C87C28"/>
<stop offset="0.736532" stop-color="#C87C28" stop-opacity="0.111376"/>
<stop offset="1" stop-color="#C87C28" stop-opacity="0"/>
</radialGradient>
<linearGradient id="paint21_linear_79_758" x1="2.90393" y1="12.1989" x2="4.56513" y2="12.1989" gradientUnits="userSpaceOnUse">
<stop offset="0.062763" stop-color="#C2773F"/>
<stop offset="0.557292" stop-color="#C2773F" stop-opacity="0.319771"/>
<stop offset="0.751516" stop-color="#C2773F" stop-opacity="0.13"/>
<stop offset="0.869792" stop-color="#C2773F" stop-opacity="0.0544971"/>
<stop offset="1" stop-color="#C2773F" stop-opacity="0"/>
</linearGradient>
<linearGradient id="paint22_linear_79_758" x1="8.75648" y1="16.407" x2="8.75648" y2="14.5982" gradientUnits="userSpaceOnUse">
<stop stop-color="#E68370"/>
<stop offset="0.696478" stop-color="#E68370" stop-opacity="0.202348"/>
<stop offset="0.81579" stop-color="#E68370" stop-opacity="0.0982455"/>
<stop offset="1" stop-color="#E68370" stop-opacity="0"/>
</linearGradient>
<radialGradient id="paint23_radial_79_758" cx="0" cy="0" r="1" gradientUnits="userSpaceOnUse" gradientTransform="translate(4.33389 16.7247) rotate(-90) scale(2.30664 6.54358)">
<stop offset="0.215641" stop-color="#DE7550"/>
<stop offset="0.804562" stop-color="#DE7550" stop-opacity="0.158562"/>
<stop offset="1" stop-color="#DE7550" stop-opacity="0"/>
</radialGradient>
<radialGradient id="paint24_radial_79_758" cx="0" cy="0" r="1" gradientUnits="userSpaceOnUse" gradientTransform="translate(4.43273 8.28111) rotate(88.2101) scale(0.548619 3.42339)">
<stop stop-color="#DE7550"/>
<stop offset="0.768755" stop-color="#DE7550" stop-opacity="0.158562"/>
<stop offset="1" stop-color="#DE7550" stop-opacity="0"/>
</radialGradient>
<linearGradient id="paint25_linear_79_758" x1="15" y1="6.94246" x2="2.00009" y2="6.90889" gradientUnits="userSpaceOnUse">
<stop stop-color="#F6D729"/>
<stop offset="1" stop-color="#F39B3A"/>
</linearGradient>
<linearGradient id="paint26_linear_79_758" x1="15" y1="6.69894" x2="14.1363" y2="6.69894" gradientUnits="userSpaceOnUse">
<stop stop-color="#FFF850"/>
<stop offset="0.695278" stop-color="#FFF850" stop-opacity="0.15634"/>
<stop offset="1" stop-color="#FFF850" stop-opacity="0"/>
</linearGradient>
<radialGradient id="paint27_radial_79_758" cx="0" cy="0" r="1" gradientUnits="userSpaceOnUse" gradientTransform="translate(12.7457 4.89878) rotate(90) scale(0.878324 5.44919)">
<stop stop-color="#FFF850" stop-opacity="0.6"/>
<stop offset="0.671477" stop-color="#FFF850" stop-opacity="0.15634"/>
<stop offset="1" stop-color="#FFF850" stop-opacity="0"/>
</radialGradient>
<radialGradient id="paint28_radial_79_758" cx="0" cy="0" r="1" gradientUnits="userSpaceOnUse" gradientTransform="translate(5.06032 4.95582) rotate(90) scale(1.20767 7.49247)">
<stop stop-color="#FFF850" stop-opacity="0.6"/>
<stop offset="0.671477" stop-color="#FFF850" stop-opacity="0.15634"/>
<stop offset="1" stop-color="#FFF850" stop-opacity="0"/>
</radialGradient>
<radialGradient id="paint29_radial_79_758" cx="0" cy="0" r="1" gradientUnits="userSpaceOnUse" gradientTransform="translate(14.5879 5.49718) rotate(-123.341) scale(0.546097 0.859174)">
<stop stop-color="white" stop-opacity="0.64"/>
<stop offset="0.672805" stop-color="white" stop-opacity="0.15634"/>
<stop offset="0.870446" stop-color="white" stop-opacity="0.0479534"/>
<stop offset="1" stop-color="white" stop-opacity="0"/>
</radialGradient>
<linearGradient id="paint30_linear_79_758" x1="8.5" y1="8.6083" x2="8.5" y2="7.65412" gradientUnits="userSpaceOnUse">
<stop offset="0.125527" stop-color="#E8AF21"/>
<stop offset="0.769626" stop-color="#E8AF21" stop-opacity="0.18586"/>
<stop offset="1" stop-color="#E8AF21" stop-opacity="0"/>
</linearGradient>
<radialGradient id="paint31_radial_79_758" cx="0" cy="0" r="1" gradientUnits="userSpaceOnUse" gradientTransform="translate(3.57641 8.81098) rotate(-90) scale(1.07643 7.73332)">
<stop offset="0.215641" stop-color="#DE7550"/>
<stop offset="0.804562" stop-color="#DE7550" stop-opacity="0.158562"/>
<stop offset="1" stop-color="#DE7550" stop-opacity="0"/>
</radialGradient>
<linearGradient id="paint32_linear_79_758" x1="2.00876" y1="6.91032" x2="2.86165" y2="6.91032" gradientUnits="userSpaceOnUse">
<stop stop-color="#BE7841"/>
<stop offset="0.606593" stop-color="#BE7841" stop-opacity="0.217187"/>
<stop offset="0.8324" stop-color="#BE7841" stop-opacity="0.0717493"/>
<stop offset="1" stop-color="#BE7841" stop-opacity="0"/>
</linearGradient>
<radialGradient id="paint33_radial_79_758" cx="0" cy="0" r="1" gradientUnits="userSpaceOnUse" gradientTransform="translate(7.47466 7.21457) rotate(180) scale(1.26562 8.76562)">
<stop offset="0.188888" stop-color="#C57E10" stop-opacity="0.7"/>
<stop offset="0.763803" stop-color="#C57E10" stop-opacity="0.145026"/>
<stop offset="0.885514" stop-color="#C57E10" stop-opacity="0.072038"/>
<stop offset="1" stop-color="#C57E10" stop-opacity="0"/>
</radialGradient>
<linearGradient id="paint34_linear_79_758" x1="8.50389" y1="2.44985" x2="8.50389" y2="15.9483" gradientUnits="userSpaceOnUse">
<stop stop-color="#D12136"/>
<stop offset="1" stop-color="#B6246E"/>
</linearGradient>
<linearGradient id="paint35_linear_79_758" x1="7.04377" y1="9.32337" x2="7.30661" y2="9.32337" gradientUnits="userSpaceOnUse">
<stop stop-color="#BA1A27"/>
<stop offset="0.589026" stop-color="#BA1A27" stop-opacity="0.261528"/>
<stop offset="1" stop-color="#BA1A27" stop-opacity="0"/>
</linearGradient>
<radialGradient id="paint36_radial_79_758" cx="0" cy="0" r="1" gradientUnits="userSpaceOnUse" gradientTransform="translate(7.29404 3.04772) rotate(23.4986) scale(0.355163 1.97888)">
<stop stop-color="#BA1A27"/>
<stop offset="0.589026" stop-color="#BA1A27" stop-opacity="0.261528"/>
<stop offset="1" stop-color="#BA1A27" stop-opacity="0"/>
</radialGradient>
<radialGradient id="paint37_radial_79_758" cx="0" cy="0" r="1" gradientUnits="userSpaceOnUse" gradientTransform="translate(7.73304 2.64412) rotate(60.7086) scale(0.332865 1.85465)">
<stop stop-color="#BA1A27"/>
<stop offset="0.589026" stop-color="#BA1A27" stop-opacity="0.261528"/>
<stop offset="1" stop-color="#BA1A27" stop-opacity="0"/>
</radialGradient>
<linearGradient id="paint38_linear_79_758" x1="9.97728" y1="10.2881" x2="9.56957" y2="10.2881" gradientUnits="userSpaceOnUse">
<stop stop-color="#E44D57"/>
<stop offset="0.509552" stop-color="#E44D57" stop-opacity="0.272435"/>
<stop offset="0.705965" stop-color="#E44D57" stop-opacity="0.0833426"/>
<stop offset="1" stop-color="#E44D57" stop-opacity="0"/>
</linearGradient>
<radialGradient id="paint39_radial_79_758" cx="0" cy="0" r="1" gradientUnits="userSpaceOnUse" gradientTransform="translate(4.96429 10.7712) rotate(-58.9068) scale(9.10204 7.71559)">
<stop stop-color="#E44D57" stop-opacity="0"/>
<stop offset="0.960718" stop-color="#E44D57" stop-opacity="0"/>
<stop offset="0.976618" stop-color="#E44D57" stop-opacity="0.224248"/>
<stop offset="1" stop-color="#E44D57"/>
</radialGradient>
<radialGradient id="paint40_radial_79_758" cx="0" cy="0" r="1" gradientUnits="userSpaceOnUse" gradientTransform="translate(9.83023 3.32184) rotate(151.512) scale(0.321866 1.13701)">
<stop stop-color="#E44D57"/>
<stop offset="0.508631" stop-color="#E44D57" stop-opacity="0.272435"/>
<stop offset="1" stop-color="#E44D57" stop-opacity="0"/>
</radialGradient>
<linearGradient id="paint41_linear_79_758" x1="8.5" y1="16.0766" x2="8.5" y2="14.5687" gradientUnits="userSpaceOnUse">
<stop stop-color="#B3368C"/>
<stop offset="1" stop-color="#B3368C" stop-opacity="0"/>
</linearGradient>
</defs>
</svg>
