<svg xmlns="http://www.w3.org/2000/svg" width="24.733" height="25.741" viewBox="0 0 24.733 25.741">
  <g id="ico-star-check" transform="translate(-2.634 -2.129)">
    <path id="패스_1" data-name="패스 1" d="M12.873,3.286a2.533,2.533,0,0,1,4.253,0,2.533,2.533,0,0,0,3.038.987,2.533,2.533,0,0,1,3.441,2.5,2.533,2.533,0,0,0,1.878,2.584A2.533,2.533,0,0,1,26.8,13.4a2.533,2.533,0,0,0,0,3.194,2.533,2.533,0,0,1-1.314,4.045,2.533,2.533,0,0,0-1.878,2.584,2.533,2.533,0,0,1-3.441,2.5,2.533,2.533,0,0,0-3.038.987,2.533,2.533,0,0,1-4.253,0,2.533,2.533,0,0,0-3.038-.987,2.533,2.533,0,0,1-3.441-2.5,2.533,2.533,0,0,0-1.878-2.584A2.533,2.533,0,0,1,3.2,16.6a2.533,2.533,0,0,0,0-3.194A2.533,2.533,0,0,1,4.517,9.358,2.533,2.533,0,0,0,6.394,6.773a2.533,2.533,0,0,1,3.441-2.5A2.533,2.533,0,0,0,12.873,3.286Z" fill="#deecfc"/>
    <path id="패스_2" data-name="패스 2" d="M11,14.591l3.6,3.273L20,12.136" fill="none" stroke="#458de8" stroke-linecap="round" stroke-linejoin="round" stroke-width="2"/>
  </g>
</svg>
