<svg width="16" height="18" viewBox="0 0 16 18" fill="none" xmlns="http://www.w3.org/2000/svg">
<path d="M6.85718 0.75H9.14331C9.41926 0.750226 9.64331 0.973997 9.64331 1.25V2.46387C9.64331 2.73987 9.41926 2.96364 9.14331 2.96387H6.85718C6.58104 2.96387 6.35718 2.74001 6.35718 2.46387V1.25C6.35718 1.00829 6.52862 0.806292 6.75659 0.759766L6.85718 0.75Z" stroke="#878D91" stroke-linecap="round" stroke-linejoin="round"/>
<path d="M2.57141 5.03571H13.4288C13.7048 5.03586 13.9288 5.25966 13.9288 5.53571V16.3931C13.9287 16.669 13.7048 16.893 13.4288 16.8931H2.57141C2.29536 16.8931 2.07156 16.6691 2.07141 16.3931V5.53571C2.07141 5.29399 2.24286 5.092 2.47083 5.04547L2.57141 5.03571Z" stroke="#878D91" stroke-linejoin="round"/>
<path d="M1.5 2.89288H14.5C14.7761 2.89288 15 3.11674 15 3.39288V4.60675C15 4.88289 14.7761 5.10675 14.5 5.10675H1.5C1.22386 5.10675 1 4.88289 1 4.60675V3.39288C1 3.11674 1.22386 2.89288 1.5 2.89288Z" fill="white" stroke="#878D91" stroke-linejoin="round"/>
<path d="M4.78564 8.82141V13.1071" stroke="#878D91" stroke-linecap="round"/>
<path d="M8 8.82141V13.1071" stroke="#878D91" stroke-linecap="round"/>
<path d="M11.2144 8.82141V13.1071" stroke="#878D91" stroke-linecap="round"/>
</svg>
