<svg width="16" height="16" viewBox="0 0 16 16" fill="none" xmlns="http://www.w3.org/2000/svg">
<rect width="16" height="16" rx="4" fill="#4D5256"/>
<path d="M4.435 11.34V5.29C4.435 4.465 4.754 4.003 5.579 4.003C6.129 4.003 6.448 4.179 6.69 4.575L9.539 9.58H9.572V4.949C9.572 4.399 9.924 4.003 10.474 4.003C11.024 4.003 11.376 4.399 11.376 4.949V11.043C11.376 11.835 11.101 12.286 10.309 12.286C9.759 12.286 9.363 12.11 9.099 11.692L6.272 6.929H6.239V11.34C6.239 11.901 5.887 12.286 5.337 12.286C4.787 12.286 4.435 11.89 4.435 11.34Z" fill="#FFD84E"/>
</svg>
