<svg width="19" height="15" viewBox="0 0 19 15" fill="none" xmlns="http://www.w3.org/2000/svg">
<path id="Union" fill-rule="evenodd" clip-rule="evenodd" d="M4.85849 2.96494C6.04313 1.74557 7.66434 1 9.45052 1C12.8612 1 15.6942 3.74301 15.9767 7.26867L14.8533 6.14628L14.1465 6.85372L16.1484 8.85372L16.5021 9.20711L16.8555 8.85338L18.8536 6.85338L18.1461 6.14662L16.9824 7.31152C16.7168 3.24611 13.462 0 9.45052 0C7.3777 0 5.50243 0.867028 4.14124 2.26813L4.85849 2.96494ZM2.85551 6.14662L2.50212 5.79289L2.1484 6.14628L0.146484 8.14628L0.853252 8.85372L2.00864 7.69944C2.20091 11.7625 5.52951 15 9.61128 15C11.6393 15 13.4803 14.2005 14.845 12.8987L14.1547 12.1751C12.9675 13.3077 11.3706 14 9.61128 14C6.09479 14 3.2107 11.226 3.01092 7.71707L4.14615 8.85338L4.85359 8.14662L2.85551 6.14662Z" fill="#2F80E5"/>
</svg>
