<svg width="25" height="24" viewBox="0 0 25 24" fill="none" xmlns="http://www.w3.org/2000/svg">
<path fill-rule="evenodd" clip-rule="evenodd" d="M7.85849 7.46494C9.04313 6.24557 10.6643 5.5 12.4505 5.5C15.8612 5.5 18.6942 8.24301 18.9767 11.7687L17.8533 10.6463L17.1465 11.3537L19.1484 13.3537L19.5021 13.7071L19.8555 13.3534L21.8536 11.3534L21.1461 10.6466L19.9824 11.8115C19.7168 7.74611 16.462 4.5 12.4505 4.5C10.3777 4.5 8.50243 5.36703 7.14124 6.76813L7.85849 7.46494ZM5.85551 10.6466L5.50212 10.2929L5.1484 10.6463L3.14648 12.6463L3.85325 13.3537L5.00864 12.1994C5.20091 16.2625 8.52951 19.5 12.6113 19.5C14.6393 19.5 16.4803 18.7005 17.845 17.3987L17.1547 16.6751C15.9675 17.8077 14.3706 18.5 12.6113 18.5C9.09479 18.5 6.2107 15.726 6.01092 12.2171L7.14615 13.3534L7.85359 12.6466L5.85551 10.6466Z" fill="#121212"/>
</svg>
