<svg width="20" height="20" viewBox="0 0 20 20" fill="none" xmlns="http://www.w3.org/2000/svg">
<g id="icon_edit">
<path id="Vector 20" d="M9 3.5H4C3.44772 3.5 3 3.94772 3 4.5V16C3 16.5523 3.44772 17 4 17H15.5C16.0523 17 16.5 16.5523 16.5 16V11" stroke="#ACACAC" stroke-linecap="round" stroke-linejoin="round"/>
<path id="Vector 21" d="M7 12.5V10.2071C7 10.0745 7.05268 9.94732 7.14645 9.85355L13.6464 3.35355C13.8417 3.15829 14.1583 3.15829 14.3536 3.35355L16.6464 5.64645C16.8417 5.84171 16.8417 6.15829 16.6464 6.35355L10.1464 12.8536C10.0527 12.9473 9.9255 13 9.79289 13H7.5C7.22386 13 7 12.7761 7 12.5Z" stroke="#ACACAC" stroke-linejoin="round"/>
</g>
</svg>
