<svg width="10" height="10" viewBox="0 0 10 10" fill="none" xmlns="http://www.w3.org/2000/svg">
<path d="M8.64648 0.64624C8.84175 0.451205 9.15832 0.451084 9.35352 0.64624C9.5243 0.817028 9.54594 1.08109 9.41797 1.27515L9.35352 1.35327L5.70703 4.99976L9.35352 8.64624C9.54873 8.84145 9.54862 9.158 9.35352 9.35327C9.18266 9.52413 8.91869 9.54586 8.72461 9.41772L8.64648 9.35327L5 5.70679L1.35352 9.35327C1.15825 9.54853 0.841747 9.54853 0.646484 9.35327C0.451257 9.15801 0.451234 8.84149 0.646484 8.64624L4.29297 4.99976L0.646484 1.35327C0.451224 1.15801 0.451223 0.841502 0.646484 0.64624C0.841758 0.451134 1.1583 0.451032 1.35352 0.64624L5 4.29272L8.64648 0.64624Z" fill="white"/>
</svg>
