<svg width="12" height="12" viewBox="0 0 12 12" fill="none" xmlns="http://www.w3.org/2000/svg">
<path fill-rule="evenodd" clip-rule="evenodd" d="M2.22855 1.52145C2.03329 1.32618 1.71671 1.32618 1.52145 1.52145C1.32618 1.71671 1.32618 2.03329 1.52145 2.22855L5.29328 6.00037L1.52145 9.77219C1.32618 9.96745 1.32618 10.284 1.52145 10.4793C1.71671 10.6746 2.03329 10.6746 2.22855 10.4793L6.00039 6.70748L9.77219 10.4793C9.96745 10.6745 10.284 10.6745 10.4793 10.4793C10.6746 10.284 10.6746 9.96742 10.4793 9.77216L6.70749 6.00037L10.4793 2.22858C10.6746 2.03332 10.6746 1.71674 10.4793 1.52148C10.284 1.32621 9.96745 1.32621 9.77219 1.52148L6.00039 5.29327L2.22855 1.52145Z" fill="#999999"/>
</svg>
