<svg width="16" height="16" viewBox="0 0 16 16" fill="none" xmlns="http://www.w3.org/2000/svg">
<path d="M11.05 5.09441L14.1145 5.53731C14.308 5.5715 14.4885 5.65817 14.6362 5.78789C14.7839 5.91761 14.8933 6.0854 14.9523 6.273C15.0114 6.46061 15.0178 6.66082 14.971 6.85185C14.9242 7.04288 14.826 7.2174 14.6869 7.3564L12.4454 9.61373C12.324 9.73728 12.2338 9.88802 12.1822 10.0534C12.1307 10.2189 12.1193 10.3942 12.149 10.5649L12.6935 13.7563C12.7332 13.9485 12.7174 14.1481 12.6479 14.3317C12.5785 14.5153 12.4583 14.6753 12.3014 14.7931C12.1445 14.9109 11.9573 14.9816 11.7618 14.9969C11.5662 15.0122 11.3703 14.9715 11.197 14.8795L8.48571 13.3593C8.33722 13.2756 8.16965 13.2316 7.99921 13.2316C7.82876 13.2316 7.66119 13.2756 7.51271 13.3593L4.79748 14.878C4.62414 14.9698 4.42828 15.0103 4.23277 14.9949C4.03727 14.9794 3.85018 14.9087 3.69336 14.7908C3.53653 14.673 3.41645 14.5129 3.34712 14.3293C3.27779 14.1457 3.26207 13.9462 3.30182 13.754L3.84626 10.5626C3.87639 10.3921 3.8655 10.2169 3.81451 10.0515C3.76352 9.88611 3.67389 9.73524 3.55304 9.61139L1.31304 7.3564C1.174 7.2174 1.07573 7.04288 1.02894 6.85185C0.982143 6.66082 0.988617 6.46061 1.04765 6.273C1.10669 6.0854 1.21602 5.91761 1.36375 5.78789C1.51148 5.65817 1.69194 5.5715 1.88548 5.53731L4.95304 5.09441C5.12162 5.06773 5.28094 4.99957 5.4167 4.89605C5.55245 4.79252 5.66039 4.65687 5.73082 4.50128L7.07559 1.60101C7.15502 1.42212 7.28459 1.27013 7.44859 1.16345C7.61259 1.05678 7.804 1 7.9996 1C8.19519 1 8.3866 1.05678 8.5506 1.16345C8.7146 1.27013 8.84417 1.42212 8.92359 1.60101L10.2668 4.50128C10.3377 4.65756 10.4465 4.79366 10.5833 4.89723C10.72 5.0008 10.8805 5.06858 11.05 5.09441Z" stroke="#999999" stroke-miterlimit="10"/>
</svg>
