<svg width="20" height="20" viewBox="0 0 20 20" fill="none" xmlns="http://www.w3.org/2000/svg">
<g id="icon_delete">
<path id="Vector 25" d="M8.5 4V3C8.5 2.72386 8.72386 2.5 9 2.5H11C11.2761 2.5 11.5 2.72386 11.5 3V4C11.5 4.27614 11.2761 4.5 11 4.5H9C8.72386 4.5 8.5 4.27614 8.5 4Z" stroke="#ACACAC" stroke-linecap="round" stroke-linejoin="round"/>
<path id="Vector 23" d="M4.5 17V7C4.5 6.72386 4.72386 6.5 5 6.5H15C15.2761 6.5 15.5 6.72386 15.5 7V17C15.5 17.2761 15.2761 17.5 15 17.5H5C4.72386 17.5 4.5 17.2761 4.5 17Z" stroke="#ACACAC" stroke-linejoin="round"/>
<path id="Vector 22" d="M3.5 6V5C3.5 4.72386 3.72386 4.5 4 4.5H16C16.2761 4.5 16.5 4.72386 16.5 5V6C16.5 6.27614 16.2761 6.5 16 6.5H4C3.72386 6.5 3.5 6.27614 3.5 6Z" fill="white" stroke="#ACACAC" stroke-linejoin="round"/>
<path id="Vector 27" d="M7 10V14" stroke="#ACACAC" stroke-linecap="round"/>
<path id="Vector 28" d="M10 10V14" stroke="#ACACAC" stroke-linecap="round"/>
<path id="Vector 29" d="M13 10V14" stroke="#ACACAC" stroke-linecap="round"/>
</g>
</svg>
