<svg xmlns="http://www.w3.org/2000/svg" width="24" height="24" viewBox="0 0 24 24"><g transform="translate(-287 -132)"><rect width="24" height="24" transform="translate(287 132)" fill="none"/><g transform="translate(291 136)"><path d="M6.971,2A4.934,4.934,0,0,0,2,6.884a4.934,4.934,0,0,0,4.971,4.884,4.934,4.934,0,0,0,4.971-4.884A4.934,4.934,0,0,0,6.971,2m0-2a6.928,6.928,0,0,1,6.971,6.884,6.928,6.928,0,0,1-6.971,6.884A6.928,6.928,0,0,1,0,6.884,6.928,6.928,0,0,1,6.971,0Z" fill="#a5a5a5"/><path d="M19.633,24.049a1,1,0,0,1-.7-.288l-3.918-3.869a1,1,0,1,1,1.405-1.423l3.918,3.869a1,1,0,0,1-.7,1.712Z" transform="translate(-4.633 -7.049)" fill="#a5a5a5"/></g></g></svg>