<svg width="8" height="8" viewBox="0 0 8 8" fill="none" xmlns="http://www.w3.org/2000/svg">
<path id="Union" fill-rule="evenodd" clip-rule="evenodd" d="M0.916053 0.208641C0.72079 0.013379 0.404208 0.0133796 0.208946 0.208642C0.0136842 0.403905 0.0136848 0.720487 0.208947 0.915749L3.29321 4L0.208947 7.08426C0.0136847 7.27952 0.0136842 7.5961 0.208946 7.79137C0.404208 7.98663 0.72079 7.98663 0.916053 7.79137L4.00032 4.70711L7.08457 7.79134C7.27983 7.9866 7.59641 7.9866 7.79167 7.79134C7.98693 7.59608 7.98693 7.2795 7.79167 7.08423L4.70743 4L7.79167 0.915774C7.98693 0.720512 7.98693 0.403929 7.79167 0.208667C7.59641 0.0134046 7.27983 0.0134041 7.08456 0.208666L4.00032 3.2929L0.916053 0.208641Z" fill="#C5C5C5"/>
</svg>
