<svg width="14" height="14" viewBox="0 0 14 14" fill="none" xmlns="http://www.w3.org/2000/svg">
<path d="M13.4587 13.4534C13.7611 13.1494 13.7605 12.658 13.4572 12.3547L11.13 10.0275C11.9525 8.97167 12.4425 7.65334 12.4425 6.21834C12.4425 2.79417 9.65417 0 6.22417 0C2.79417 0 0 2.79417 0 6.22417C0 9.65417 2.79417 12.4483 6.22417 12.4483C7.65917 12.4483 8.9775 11.9525 10.0333 11.1358L12.3576 13.4554C12.6621 13.7593 13.1553 13.7584 13.4587 13.4534ZM1.5575 6.22417C1.5575 3.65167 3.65167 1.5575 6.22417 1.5575C8.79667 1.5575 10.8908 3.65167 10.8908 6.22417C10.8908 8.79667 8.79667 10.8908 6.22417 10.8908C3.65167 10.8908 1.5575 8.79667 1.5575 6.22417Z" fill="#4D5256"/>
</svg>
