<svg width="24" height="24" viewBox="0 0 24 24" fill="none" xmlns="http://www.w3.org/2000/svg">
<path d="M9.84485 7.24518L9.98886 7.49689H10.2788H17C17.8284 7.49689 18.5 8.16846 18.5 8.99689V17.9969C18.5 18.8253 17.8284 19.4969 17 19.4969H4C3.17157 19.4969 2.5 18.8253 2.5 17.9969V5.99689C2.5 5.16846 3.17157 4.49689 4 4.49689H7.40255C7.94055 4.49689 8.43736 4.78502 8.70453 5.252L9.84485 7.24518Z" fill="white" stroke="black"/>
<path d="M5.01849 12.5225C5.22267 11.91 5.79587 11.4969 6.44152 11.4969H19.2251C20.249 11.4969 20.9719 12.4999 20.6482 13.4712L18.9815 18.4712C18.7773 19.0837 18.2041 19.4969 17.5585 19.4969H4.77485C3.75102 19.4969 3.02806 18.4938 3.35183 17.5225L5.01849 12.5225Z" fill="white" stroke="black"/>
</svg>
