<svg width="16" height="16" viewBox="0 0 16 16" fill="none" xmlns="http://www.w3.org/2000/svg">
<g id="si:copy-line">
<path id="Vector" d="M4 10H3.6C2.71333 10 2 9.28667 2 8.4V3.6C2 2.71333 2.71333 2 3.6 2H8.4C9.28667 2 10 2.71333 10 3.6V4M7.6 6H12.4C12.8243 6 13.2313 6.16857 13.5314 6.46863C13.8314 6.76869 14 7.17565 14 7.6V12.4C14 12.8243 13.8314 13.2313 13.5314 13.5314C13.2313 13.8314 12.8243 14 12.4 14H7.6C7.17565 14 6.76869 13.8314 6.46863 13.5314C6.16857 13.2313 6 12.8243 6 12.4V7.6C6 7.38988 6.04139 7.18183 6.12179 6.98771C6.2022 6.79359 6.32006 6.6172 6.46863 6.46863C6.6172 6.32006 6.79359 6.2022 6.98771 6.12179C7.18183 6.04139 7.38988 6 7.6 6Z" stroke="#333333" stroke-miterlimit="10" stroke-linecap="round" stroke-linejoin="round"/>
</g>
</svg>
