<svg width="72" height="72" viewBox="0 0 72 72" fill="none" xmlns="http://www.w3.org/2000/svg">
<path d="M12.8462 32.5768V52.2723L35.6716 64.5272L58.4896 52.2723V33.8056" fill="#B2D1F6"/>
<path d="M12.8462 32.5768V52.2723L35.6716 64.5272L58.4896 52.2723V33.8056" stroke="#9CC3F3" stroke-width="1.25" stroke-linecap="round" stroke-linejoin="round"/>
<path d="M26.5393 12.0372L31.1494 19.9163" stroke="#71A8EE" stroke-width="1.25" stroke-linecap="round"/>
<path d="M35.6685 7.47287V21.1592" stroke="#71A8EE" stroke-width="1.25" stroke-linecap="round"/>
<path d="M44.8423 12.0372L40.2322 19.9163" stroke="#71A8EE" stroke-width="1.25" stroke-linecap="round"/>
<path d="M35.6685 62.245V34.8589" stroke="#9CC3F3" stroke-width="1.25" stroke-linecap="round" stroke-linejoin="round"/>
<path d="M6 28.4273L24.6494 39.5988L35.6682 33.8111L16.9431 22.7092L6 28.4273Z" fill="white"/>
<path d="M16.9431 22.7092L35.6682 33.8111L24.6494 39.5988L6 28.4273L16.9431 22.7092ZM16.9431 22.7092L23.2693 19.0593" stroke="#9CC3F3" stroke-width="1.25" stroke-linecap="round" stroke-linejoin="round"/>
<path d="M66 28.3467L47.3506 39.4233L36.3318 33.6847L55.0569 22.6772L66 28.3467Z" fill="white"/>
<path d="M55.0569 22.6772L36.3318 33.6847L47.3506 39.4233L66 28.3467L55.0569 22.6772ZM55.0569 22.6772L47.9602 18.8838" stroke="#9CC3F3" stroke-width="1.25" stroke-linecap="round" stroke-linejoin="round"/>
</svg>
