<svg width="20" height="15" viewBox="0 0 20 15" fill="none" xmlns="http://www.w3.org/2000/svg">
<path d="M9.71094 10.2119L12.7879 13.2888" stroke="#CED3D6" stroke-width="1.5" stroke-linecap="round"/>
<circle cx="6.04427" cy="6.54525" r="5.08333" fill="white" stroke="#CED3D6" stroke-width="1.5"/>
<path d="M12.7891 2.5C12.7891 2.22386 13.0129 2 13.2891 2H19.2891C19.5652 2 19.7891 2.22386 19.7891 2.5C19.7891 2.77614 19.5652 3 19.2891 3H13.2891C13.0129 3 12.7891 2.77614 12.7891 2.5Z" fill="#CED3D6"/>
<path d="M12.7891 2.5C12.7891 2.22386 13.0129 2 13.2891 2H19.2891C19.5652 2 19.7891 2.22386 19.7891 2.5C19.7891 2.77614 19.5652 3 19.2891 3H13.2891C13.0129 3 12.7891 2.77614 12.7891 2.5Z" fill="#CED3D6"/>
<path d="M12.7891 4.5C12.7891 4.22386 13.0129 4 13.2891 4H16.2891C16.5652 4 16.7891 4.22386 16.7891 4.5C16.7891 4.77614 16.5652 5 16.2891 5H13.2891C13.0129 5 12.7891 4.77614 12.7891 4.5Z" fill="#CED3D6"/>
<path d="M12.7891 4.5C12.7891 4.22386 13.0129 4 13.2891 4H16.2891C16.5652 4 16.7891 4.22386 16.7891 4.5C16.7891 4.77614 16.5652 5 16.2891 5H13.2891C13.0129 5 12.7891 4.77614 12.7891 4.5Z" fill="#CED3D6"/>
</svg>
