<svg width="50" height="28" viewBox="0 0 50 28" fill="none" xmlns="http://www.w3.org/2000/svg">
<rect x="0.5" y="0.5" width="49" height="27" rx="13.5" stroke="#EAEEEF"/>
<path d="M24.7109 17.2119L27.7879 20.2888" stroke="#CED3D6" stroke-width="1.5" stroke-linecap="round"/>
<circle cx="21.0443" cy="13.5452" r="5.08333" fill="white" stroke="#CED3D6" stroke-width="1.5"/>
<path d="M27.7891 9.5C27.7891 9.22386 28.0129 9 28.2891 9H34.2891C34.5652 9 34.7891 9.22386 34.7891 9.5C34.7891 9.77614 34.5652 10 34.2891 10H28.2891C28.0129 10 27.7891 9.77614 27.7891 9.5Z" fill="#CED3D6"/>
<path d="M27.7891 9.5C27.7891 9.22386 28.0129 9 28.2891 9H34.2891C34.5652 9 34.7891 9.22386 34.7891 9.5C34.7891 9.77614 34.5652 10 34.2891 10H28.2891C28.0129 10 27.7891 9.77614 27.7891 9.5Z" fill="#CED3D6"/>
<path d="M27.7891 11.5C27.7891 11.2239 28.0129 11 28.2891 11H31.2891C31.5652 11 31.7891 11.2239 31.7891 11.5C31.7891 11.7761 31.5652 12 31.2891 12H28.2891C28.0129 12 27.7891 11.7761 27.7891 11.5Z" fill="#CED3D6"/>
<path d="M27.7891 11.5C27.7891 11.2239 28.0129 11 28.2891 11H31.2891C31.5652 11 31.7891 11.2239 31.7891 11.5C31.7891 11.7761 31.5652 12 31.2891 12H28.2891C28.0129 12 27.7891 11.7761 27.7891 11.5Z" fill="#CED3D6"/>
</svg>
