<?xml version="1.0" encoding="utf-8"?>
<!-- Generator: Adobe Illustrator 21.1.0, SVG Export Plug-In . SVG Version: 6.00 Build 0)  -->
<svg version="1.1" id="레이어_1" xmlns="http://www.w3.org/2000/svg" xmlns:xlink="http://www.w3.org/1999/xlink" x="0px"
	 y="0px" viewBox="0 0 128 37.6" style="enable-background:new 0 0 128 37.6;" xml:space="preserve">
<style type="text/css">
	.st0{fill:#040000;}
	.st1{fill:#F0AF1B;}
	.st2{fill:#E9491D;}
</style>
<g>
	<g>
		<path class="st0" d="M42.8,26.5V15.3c0-2.1-1-3.4-2.9-3.4s-3,1.4-3,3.4v11.2h-5.4l0,0V7.6l0,0h5.4l0,0v1.7l0,0
			c0.9-1.2,2.5-2.1,4.9-2.1c4.2,0,6.4,2.9,6.4,7v12.3H42.8z"/>
		<path class="st0" d="M108.6,4.6L108.6,4.6V0h5.4v4.6H108.6z M108.6,26.5L108.6,26.5V7.7l0,0h5.4v18.8H108.6z"/>
		<path class="st0" d="M125.6,26.8c-4.4,0-6-2-6-6.4v-8.8h-1.8h-0.2v-4h2V2h5.4v5.7h3l0,0v4h-3v8.6c0,1.4,0.5,1.9,1.7,1.9h1.3l0,0
			v4.6H125.6L125.6,26.8z"/>
		<path class="st0" d="M98,26.5v-1.8l0,0c-1,1.3-2.5,2.2-4.8,2.2c-4.2,0-6.3-2.9-6.3-7V7.6h5.4v11.2c0,2,1,3.4,2.9,3.4
			s2.9-1.4,2.9-3.4V7.6h5.4v18.8H98V26.5z"/>
		<path class="st0" d="M60.6,27.1c6.5,0,8.4-4.4,8.4-7.6h-5.5c0,1.2-0.6,2.9-2.9,2.9c-1.4,0-2.5-0.7-2.9-2.1
			c-0.3-0.9-0.4-1.7-0.4-3.3c0-1.6,0.1-2.4,0.4-3.3c0.4-1.3,1.5-2.1,2.9-2.1c2.4,0,2.9,1.7,2.9,2.9h5.5c0-3.2-1.9-7.6-8.4-7.6
			c-4,0-7.1,1.9-8.2,5.4c-0.4,1.4-0.6,2.7-0.6,4.6s0.2,3.3,0.6,4.6C53.5,25.2,56.6,27.1,60.6,27.1z"/>
		<path class="st0" d="M72.8,7.6h5v3.6c1.2-3.4,4.6-3.8,6.4-3.6V13c-1-0.1-4-0.4-5.3,1.6c-0.4,0.7-0.6,1.7-0.6,3v8.8h-5.5V7.6z"/>
	</g>
	<path class="st0" d="M20.9,26.5V0h5.6v26.5H20.9z"/>
	<polygon class="st1" points="15.3,32 15.3,23.7 9.7,23.7 9.7,37.6 23.6,37.6 23.6,32 	"/>
	<path class="st2" d="M7.7,0C3.4,0,0,3.4,0,7.7c0,4.2,3.4,7.7,7.7,7.7s7.7-3.4,7.7-7.7C15.3,3.4,11.9,0,7.7,0z M7.7,10.3
		C6.2,10.3,5,9.1,5,7.7S6.2,5,7.7,5s2.6,1.2,2.6,2.6S9.1,10.3,7.7,10.3z"/>
</g>
</svg>
