<?xml version="1.0" encoding="utf-8"?>
<!-- Generator: Adobe Illustrator 16.0.3, SVG Export Plug-In . SVG Version: 6.00 Build 0)  -->
<!DOCTYPE svg PUBLIC "-//W3C//DTD SVG 1.1//EN" "http://www.w3.org/Graphics/SVG/1.1/DTD/svg11.dtd">
<svg version="1.1" id="레이어_1" xmlns="http://www.w3.org/2000/svg" xmlns:xlink="http://www.w3.org/1999/xlink" x="0px"
	 y="0px" width="128px" height="39px" viewBox="-1.5 0 128 39" enable-background="new -1.5 0 128 39" xml:space="preserve">
<image display="none" overflow="visible" width="295" height="87" xlink:href="logo.png"  transform="matrix(0.4339 0 0 0.4339 -1.5 -9.765625e-004)">
</image>
<g>
	<path fill="#050000" d="M41.5,27V15c0-4.243-6-4.243-6,0v12h-6V8h6v2c2-4,12-4.192,12,4v13H41.5z"/>
	<path fill="#050000" d="M106.5,5V0.013h6V5H106.5z M106.5,27V8h6v19H106.5z"/>
	<path fill="#050000" d="M123.5,27c-3,0-6-3-6-7v-8h-2V8h2V3h5v5h4v4h-4v7c0,2,1,3,3,3h1v3.25V27H123.5z"/>
	<path fill="#050000" d="M96.5,27v-3c-3,5-11,4-11-5V8h6v11c0,4,5,4,5,0V8h6v19H96.5z"/>
	<path fill="#050000" d="M67.5,20h-5c0,3-7,4-7-3s7-6,7-3h5c0-9-17-10-17,3S67.5,29,67.5,20z"/>
	<path fill="#050000" d="M70.5,8h6v3c1-3,4-3,6-3v5c-2,0-6,0-6,5v9h-6V8z"/>
	<polygon fill="#050000" points="19.5,0 25.5,0 25.5,27 19.513,27 	"/>
	<polygon fill="#FFB700" points="14.5,32 14.5,24 8.5,24 8.5,38 22.5,38 22.5,32 	"/>
	<path fill="#FF4C00" d="M6.5,0c-4.226,0-8,3.774-8,8c0,4.225,3.774,8,8,8c4.226,0,8-3.774,8-8S10.726,0,6.5,0 M6.5,11
		c-1.453,0-3-1.548-3-3c0-1.452,1.548-3,3-3c1.452,0,3,1.548,3,3C9.5,9.452,7.952,11,6.5,11"/>
</g>
</svg>
