<?xml version="1.0" encoding="utf-8"?>
<!-- Generator: Adobe Illustrator 16.0.3, SVG Export Plug-In . SVG Version: 6.00 Build 0)  -->
<!DOCTYPE svg PUBLIC "-//W3C//DTD SVG 1.1//EN" "http://www.w3.org/Graphics/SVG/1.1/DTD/svg11.dtd">
<svg version="1.1" xmlns="http://www.w3.org/2000/svg" xmlns:xlink="http://www.w3.org/1999/xlink" x="0px" y="0px" width="128px"
	 height="39px" viewBox="0 0 128 39" enable-background="new 0 0 128 39" xml:space="preserve">
		<!-- <image display="none" overflow="visible" width="295" height="87" xlink:href="logo.png"  transform="matrix(0.4339 0 0 0.4339 0 -0.082)">
			</image> -->
	<g>
		<path d="M43,27V15.255c0-4.708-5.063-4.544-5.063,0V27H32V7.634h5.937v1.711h0.038C40.456,5.962,49,5.856,49,14.205V27H43z"/>
		<path d="M108,5V0.013h6V5H108z M108,27V8h6v19H108z"/>
		<path d="M125.516,26.686c-4.355,0-5.987-1.941-5.987-6.26V12H117V7h2.528V1.957h5.404V7h3.032v5h-3.032v8.193
			c0,1.398,0.466,1.865,1.711,1.865h1.321v4.627H125.516z"/>
		<path d="M98,27v-2.297c-2.54,3.352-11,3.574-11-4.82V8h6v10.832c0,4.729,5,4.537,5,0V8h6v19H98z"/>
		<path d="M60.6,27.07c6.454,0,8.37-4.393,8.37-7.566h-5.449c-0.112,3.441-6.187,5.325-6.187-2.46c0-7.776,6.074-5.923,6.187-2.46
			h5.449c0-9.45-14.083-10.036-16.535-2.177c-0.427,1.388-0.623,2.735-0.623,4.637c0,1.901,0.195,3.249,0.623,4.636
			C53.522,25.168,56.634,27.07,60.6,27.07z"/>
		<path d="M72,8h6v3.241c1.17-3.398,4.302-3.771,6.045-3.636v5.384C78.412,12.491,78,15.311,78,17.665V27h-6V8z"/>
		<rect x="21" y="0" width="6" height="27"/>
		<polygon fill="#FFB700" points="16,32 16,23 10,23 10,38 24,38 24,32.021 		"/>
		<path fill="#FF4C00" d="M8,0C3.581,0,0,3.581,0,8s3.581,8,8,8c4.418,0,8-3.581,8-8S12.418,0,8,0 M8,10.753
			c-1.519,0-2.754-1.234-2.754-2.753c0-1.519,1.236-2.754,2.754-2.754c1.518,0,2.753,1.236,2.753,2.754
			C10.753,9.519,9.518,10.753,8,10.753"/>
	</g>
</svg>