<?xml version="1.0" encoding="utf-8"?>
<!-- Generator: Adobe Illustrator 16.0.3, SVG Export Plug-In . SVG Version: 6.00 Build 0)  -->
<!DOCTYPE svg PUBLIC "-//W3C//DTD SVG 1.1//EN" "http://www.w3.org/Graphics/SVG/1.1/DTD/svg11.dtd">
<svg version="1.1" id="레이어_1" xmlns="http://www.w3.org/2000/svg" xmlns:xlink="http://www.w3.org/1999/xlink" x="0px"
	 y="0px" width="128px" height="39px" viewBox="0 0 128 39" enable-background="new 0 0 128 39" xml:space="preserve">
<g>
	<path fill="#050000" d="M42.842,26.432V15.243c0-2.059-0.971-3.419-2.914-3.419c-1.865,0-2.953,1.36-2.953,3.419v11.189h-5.438
		h-0.001V7.628h0.001h5.438v1.709h0.039c0.855-1.166,2.448-2.137,4.857-2.137c4.157,0,6.411,2.875,6.411,6.992v12.239H42.842z"/>
	<path fill="#050000" d="M108.414,4.636L108.414,4.636V0.013h5.438v4.623H108.414z M108.414,26.432L108.414,26.432V7.628h5.438
		v18.804H108.414z"/>
	<path fill="#050000" d="M125.484,26.664c-4.352,0-5.984-1.943-5.984-6.256V11.63h-1.787h-0.164V7.628h1.951V1.955h5.4v5.673h3.031
		v4.002H124.9v8.548c0,1.396,0.467,1.863,1.711,1.863h1.32v4.623H125.484z"/>
	<path fill="#050000" d="M97.873,26.432v-1.748h-0.041c-0.971,1.281-2.447,2.176-4.816,2.176c-4.156,0-6.334-2.916-6.334-6.994
		V7.628h5.441v11.188c0,2.02,0.971,3.42,2.873,3.42c1.865,0,2.877-1.361,2.877-3.42V7.628h5.438v18.804H97.873z"/>
	<path fill="#050000" d="M60.621,27.047c6.45,0,8.364-4.389,8.364-7.559h-5.446c-0.039,1.23-0.548,2.887-2.917,2.887
		c-1.438,0-2.487-0.713-2.915-2.061c-0.271-0.869-0.348-1.66-0.348-3.285s0.077-2.416,0.348-3.287
		c0.428-1.347,1.477-2.059,2.915-2.059c2.369,0,2.878,1.657,2.917,2.888h5.446c0-3.171-1.914-7.561-8.364-7.561
		c-3.963,0-7.071,1.9-8.159,5.385c-0.428,1.387-0.623,2.732-0.623,4.633c0,1.9,0.195,3.246,0.623,4.632
		C53.55,25.146,56.657,27.047,60.621,27.047"/>
	<path fill="#050000" d="M72.666,7.628h5.004v3.604c1.17-3.396,4.635-3.768,6.377-3.633v5.379c-1.047-0.093-3.973-0.439-5.322,1.645
		c-0.445,0.688-0.572,1.688-0.572,3.026v8.782h-5.486V7.628z"/>
	<rect x="20.936" y="0" fill="#050000" width="5.565" height="26.431"/>
	<polygon fill="#FFB700" points="15.371,31.996 15.371,23.648 9.807,23.648 9.807,37.561 23.718,37.561 23.718,31.996 	"/>
	<path fill="#FF4C00" d="M7.72,0C3.494,0,0.069,3.426,0.069,7.651s3.425,7.651,7.651,7.651c4.226,0,7.651-3.425,7.651-7.651
		S11.946,0,7.72,0 M7.72,10.286c-1.453,0-2.634-1.182-2.634-2.634S6.268,5.017,7.72,5.017c1.452,0,2.634,1.182,2.634,2.634
		S9.172,10.286,7.72,10.286"/>
</g>
</svg>
