<svg xmlns="http://www.w3.org/2000/svg" width="128" height="38" viewBox="0 0 128 38"><style>.a{fill:#040000;}</style><path d="M42.9 26.4V15.2c0-2.1-1-3.4-2.9-3.4s-3 1.4-3 3.4v11.2h-5.4l0 0V7.6l0 0h5.4l0 0v1.7l0 0c0.9-1.2 2.5-2.1 4.9-2.1 4.2 0 6.4 2.9 6.4 7v12.2H42.9z" class="a"/><path d="M108.4 4.6L108.4 4.6V0h5.4v4.6H108.4zM108.4 26.4L108.4 26.4V7.6l0 0h5.4v18.8H108.4z" class="a"/><path d="M125.4 26.6c-4.3 0-6-1.9-6-6.2v-8.8h-1.8 -0.2v-4h2V1.9h5.4v5.7h3l0 0v4h-3v8.5c0 1.4 0.5 1.9 1.7 1.9h1.3l0 0v4.6H125.4z" class="a"/><path d="M97.9 26.4v-1.7l0 0c-1 1.3-2.4 2.2-4.8 2.2 -4.2 0-6.3-2.9-6.3-7V7.6h5.4v11.2c0 2 1 3.4 2.9 3.4 1.9 0 2.9-1.4 2.9-3.4V7.6h5.4v18.8H97.9z" class="a"/><path d="M60.6 27c6.4 0 8.4-4.4 8.4-7.6H63.6c0 1.2-0.5 2.9-2.9 2.9 -1.4 0-2.5-0.7-2.9-2.1 -0.3-0.9-0.3-1.7-0.3-3.3s0.1-2.4 0.3-3.3c0.4-1.3 1.5-2.1 2.9-2.1 2.4 0 2.9 1.7 2.9 2.9h5.4c0-3.2-1.9-7.6-8.4-7.6 -4 0-7.1 1.9-8.2 5.4 -0.4 1.4-0.6 2.7-0.6 4.6 0 1.9 0.2 3.2 0.6 4.6C53.6 25.1 56.7 27 60.6 27z" class="a"/><path d="M72.7 7.6h5v3.6c1.2-3.4 4.6-3.8 6.4-3.6V13c-1-0.1-4-0.4-5.3 1.6 -0.4 0.7-0.6 1.7-0.6 3v8.8h-5.5V7.6z" class="a"/><rect x="21" width="5.6" height="26.4" class="a"/><polygon points="15.4 31.9 15.4 23.6 9.9 23.6 9.9 37.5 23.8 37.5 23.8 31.9 " fill="#F0AF1B"/><path d="M7.8 0c-4.2 0-7.6 3.4-7.6 7.6 0 4.2 3.4 7.6 7.6 7.6 4.2 0 7.6-3.4 7.6-7.6C15.4 3.4 12 0 7.8 0zM7.8 10.2c-1.5 0-2.6-1.2-2.6-2.6S6.4 5 7.8 5s2.6 1.2 2.6 2.6S9.2 10.2 7.8 10.2z" fill="#E9491D"/></svg>