<svg width="148" height="300" viewBox="0 0 148 300" fill="none" xmlns="http://www.w3.org/2000/svg">
<g clip-path="url(#clip0_135_2063)">
<rect width="148" height="300" rx="6" fill="#FFF5E2"/>
<path d="M42.6821 69.5361V84.4111H41.1714V76.7246H39.2456V83.6475H37.8013V69.835H39.2456V75.4297H41.1714V69.5361H42.6821ZM35.9917 71.3291V72.6074H31.9907V79.4971C33.8169 79.4805 35.1948 79.3975 36.7886 79.0986L36.9048 80.3936C35.1118 80.7588 33.5845 80.8252 31.4096 80.8418H30.4136V71.3291H35.9917ZM53.1497 71.0469V72.3086H44.2845V71.0469H47.9368V69.4697H49.514V71.0469H53.1497ZM48.7171 72.9727C50.8587 72.9893 52.3196 74.0518 52.3196 75.6787C52.3196 77.3057 50.8587 78.3848 48.7171 78.3848C46.5589 78.3848 45.098 77.3057 45.098 75.6787C45.098 74.0518 46.5589 72.9893 48.7171 72.9727ZM48.7171 74.1846C47.4554 74.1846 46.6087 74.7656 46.6253 75.6787C46.6087 76.6084 47.4554 77.1562 48.7171 77.1562C49.9788 77.1562 50.8255 76.6084 50.8421 75.6787C50.8255 74.7656 49.9788 74.1846 48.7171 74.1846ZM55.9554 69.5361V73.5703H58.1136V74.8818H55.9554V78.833H54.3782V69.5361H55.9554ZM55.9554 79.5967V84.4111H54.3782V80.875H46.1273V79.5967H55.9554ZM63.1691 72.3916C63.1691 74.0186 64.215 75.6621 66.1408 76.3926L65.3107 77.6045C63.9245 77.0732 62.9533 76.0605 62.422 74.832C61.8742 76.2183 60.8532 77.4219 59.4171 78.0361L58.5539 76.8076C60.5627 75.9277 61.6418 74.0518 61.6418 72.3916V70.4658H63.1691V72.3916ZM71.3039 69.5527V78.7002H69.8097V74.7158H68.0666V78.2354H66.6056V69.8184H68.0666V73.4209H69.8097V69.5527H71.3039ZM66.3234 78.9824C69.4279 78.9824 71.3703 79.9951 71.3869 81.6885C71.3703 83.3818 69.4279 84.3945 66.3234 84.3779C63.2189 84.3945 61.2765 83.3818 61.2931 81.6885C61.2765 79.9951 63.2189 78.9824 66.3234 78.9824ZM66.3234 80.1943C64.1652 80.1943 62.8371 80.7422 62.8537 81.6885C62.8371 82.6348 64.1652 83.1826 66.3234 83.166C68.4816 83.1826 69.7931 82.6348 69.8097 81.6885C69.7931 80.7422 68.4816 80.1943 66.3234 80.1943ZM85.291 69.5361V84.4443H83.7139V69.5361H85.291ZM77.3389 70.6484C79.5469 70.6484 81.1738 72.6738 81.1738 75.8613C81.1738 79.0654 79.5469 81.0908 77.3389 81.0908C75.0977 81.0908 73.4873 79.0654 73.4873 75.8613C73.4873 72.6738 75.0977 70.6484 77.3389 70.6484ZM77.3389 72.0596C75.9609 72.0596 75.0146 73.5205 75.0146 75.8613C75.0146 78.2188 75.9609 79.6797 77.3389 79.6797C78.7002 79.6797 79.6465 78.2188 79.6465 75.8613C79.6465 73.5205 78.7002 72.0596 77.3389 72.0596ZM93.8747 69.7686V71.2959H95.8835V69.7686H97.361V74.9814H98.4733V69.7686H99.9675V71.2959H101.976V69.7686H103.454V75.2139H98.6891V76.6914H104.699V77.9531H91.1354V76.6914H97.1286V75.2139H92.3473V69.7686H93.8747ZM93.8747 73.9355H95.8835V72.5078H93.8747V73.9355ZM99.9675 73.9355H101.976V72.5078H99.9675V73.9355ZM94.3727 78.8828V80.2275H101.412V78.8828H102.989V84.2285H92.8122V78.8828H94.3727ZM94.3727 82.9668H101.412V81.4561H94.3727V82.9668ZM119.051 77.3057V78.5674H105.488V77.3057H119.051ZM117.524 82.8174V84.0957H107.198V79.7793H108.792V82.8174H117.524ZM112.261 70.0342C115.482 70.0176 117.574 71.1465 117.574 73.0059C117.574 74.8818 115.482 76.0107 112.261 76.0273C109.024 76.0107 106.949 74.8818 106.949 73.0059C106.949 71.1465 109.024 70.0176 112.261 70.0342ZM112.261 71.2959C109.987 71.2959 108.559 71.9434 108.576 73.0059C108.559 74.1016 109.987 74.7324 112.261 74.7324C114.536 74.7324 115.947 74.1016 115.947 73.0059C115.947 71.9434 114.536 71.2959 112.261 71.2959Z" fill="#222222"/>
<path d="M25.6498 224.987C25.6498 227.185 27.0854 229.455 29.1068 230.319L28.3451 231.403C26.7997 230.722 25.5692 229.279 24.9613 227.521C24.3534 229.396 23.1156 230.993 21.5922 231.74L20.7865 230.642C22.7641 229.719 24.2289 227.243 24.2436 224.987V223.596H21.2406V222.438H28.6381V223.596H25.6498V224.987ZM31.685 221.12V234.245H30.2934V221.12H31.685ZM43.968 221.779V222.775C43.968 223.808 43.968 224.98 43.6311 226.569H45.4914V227.712H33.4797V226.569H42.2248C42.5764 225.039 42.591 223.918 42.591 222.922H34.9885V221.779H43.968ZM43.9826 229.382V234.084H34.9445V229.382H43.9826ZM36.3068 230.48V232.956H42.6057V230.48H36.3068ZM59.7303 221.12V226.203H61.8396V227.375H59.7303V234.245H58.3387V221.12H59.7303ZM51.3807 222.219V225.588H54.8523V222.219H56.2293V231.125H50.0037V222.219H51.3807ZM51.3807 229.982H54.8523V226.687H51.3807V229.982ZM74.1812 231.506V232.678H62.1695V231.506H67.4576V229.206H63.6344V225.031H71.3395V223.186H63.6051V222.043H72.7164V226.145H65.0113V228.063H73.024V229.206H68.8346V231.506H74.1812ZM88.5227 221.135V225.031H90.3977V226.174H88.5227V229.968H87.1311V221.135H88.5227ZM78.1076 228.503C79.1257 228.503 80.3049 228.503 81.5354 228.459V227.58C80.0412 227.426 79.0891 226.723 79.1037 225.661C79.0891 224.46 80.3342 223.713 82.2238 223.728C84.0988 223.713 85.3439 224.46 85.3439 225.661C85.3439 226.716 84.4064 227.419 82.927 227.58V228.415C84.0988 228.356 85.2854 228.261 86.384 228.107L86.5012 229.104C83.674 229.602 80.5686 229.616 78.2541 229.616L78.1076 228.503ZM88.5227 230.583V234.245H87.1311V231.667H79.7482V230.583H88.5227ZM86.0178 222.248V223.288H78.4445V222.248H81.5354V221.018H82.927V222.248H86.0178ZM82.2238 224.68C81.0959 224.665 80.4221 225.031 80.4221 225.661C80.4221 226.276 81.0959 226.672 82.2238 226.672C83.3371 226.672 84.0109 226.276 84.0109 225.661C84.0109 225.031 83.3371 224.665 82.2238 224.68ZM101.743 221.135V230.671H100.352V221.135H101.743ZM102.139 232.839V233.967H93.1592V229.704H94.5654V232.839H102.139ZM94.624 222.014C96.6016 222.014 98.1104 223.361 98.1104 225.266C98.1104 227.199 96.6016 228.532 94.624 228.532C92.6465 228.532 91.123 227.199 91.123 225.266C91.123 223.361 92.6465 222.014 94.624 222.014ZM94.624 223.229C93.3936 223.229 92.4854 224.064 92.4854 225.266C92.4854 226.496 93.3936 227.316 94.624 227.316C95.8252 227.316 96.748 226.496 96.748 225.266C96.748 224.064 95.8252 223.229 94.624 223.229ZM113.748 221.12V226.438H115.857V227.595H113.748V234.245H112.371V221.12H113.748ZM111.228 223.171V224.313H103.45V223.171H106.687V221.296H108.079V223.171H111.228ZM107.39 225.28C109.265 225.28 110.642 226.54 110.657 228.327C110.642 230.129 109.265 231.374 107.39 231.389C105.501 231.374 104.124 230.129 104.124 228.327C104.124 226.54 105.501 225.28 107.39 225.28ZM107.39 226.423C106.277 226.423 105.442 227.199 105.457 228.327C105.442 229.47 106.277 230.231 107.39 230.217C108.504 230.231 109.324 229.47 109.324 228.327C109.324 227.199 108.504 226.423 107.39 226.423ZM126.807 222.38V223.669C126.807 225.295 126.807 227.111 126.309 229.792L124.903 229.646C125.416 227.111 125.416 225.251 125.416 223.669V223.508H117.447V222.38H126.807ZM128.155 231.315V232.473H116.187V231.315H120.743V226.687H122.12V231.315H128.155ZM100.025 242.911C102.779 242.911 104.874 244.361 104.874 246.573C104.874 248.785 102.779 250.25 100.025 250.235C97.2716 250.25 95.1915 248.785 95.1915 246.573C95.1915 244.361 97.2716 242.911 100.025 242.911ZM100.025 244.039C98.0187 244.024 96.5099 245.05 96.5245 246.573C96.5099 248.111 98.0187 249.093 100.025 249.093C102.032 249.093 103.526 248.111 103.526 246.573C103.526 245.05 102.032 244.024 100.025 244.039ZM106.061 252.389V253.546H94.0489V252.389H106.061ZM118.725 252.506V253.678H106.713V252.506H112.001V250.206H108.178V246.031H115.883V244.186H108.148V243.043H117.26V247.145H109.555V249.063H117.567V250.206H113.378V252.506H118.725ZM44.2023 263.12V269.873H42.8107V266.504H40.0422V265.376H42.8107V263.12H44.2023ZM44.2023 270.488V273.755H37.01V274.971H44.6564V276.084H35.6477V272.7H42.8254V271.587H35.6184V270.488H44.2023ZM37.8742 264.688C37.8742 266.357 39.0754 267.91 41.0529 268.54L40.3205 269.624C38.8776 269.126 37.7863 268.137 37.215 266.885C36.6364 268.291 35.5085 269.397 33.9631 269.932L33.216 268.818C35.2668 268.159 36.4826 266.533 36.4973 264.688V263.545H37.8742V264.688ZM56.8662 263.12V270.928H55.4746V267.603H53.0283V266.46H55.4746V263.12H56.8662ZM52.4717 271.294C55.2256 271.294 56.9102 272.202 56.9102 273.77C56.9102 275.337 55.2256 276.23 52.4717 276.245C49.7178 276.23 48.0186 275.337 48.0332 273.77C48.0186 272.202 49.7178 271.294 52.4717 271.294ZM52.4717 272.378C50.5527 272.378 49.4102 272.876 49.4102 273.77C49.4102 274.648 50.5527 275.161 52.4717 275.146C54.3906 275.161 55.5332 274.648 55.5332 273.77C55.5332 272.876 54.3906 272.378 52.4717 272.378ZM50.626 265.435C50.626 267.104 51.8125 268.716 53.79 269.39L53.0723 270.488C51.6001 269.976 50.5161 268.928 49.9521 267.632C49.3735 269.104 48.2236 270.283 46.6562 270.854L45.9238 269.741C47.96 269.038 49.2051 267.266 49.2051 265.449V265.156H46.3633V264.028H53.4385V265.156H50.626V265.435ZM65.077 265.288V266.416H58.5584V265.288H61.1365V263.501H62.5135V265.288H65.077ZM61.825 267.207C63.4949 267.207 64.6668 268.452 64.6814 270.225C64.6668 272.012 63.4949 273.271 61.825 273.271C60.1844 273.271 58.9686 272.012 58.9832 270.225C58.9686 268.452 60.1844 267.207 61.825 267.207ZM61.825 268.364C60.8728 268.364 60.2137 269.141 60.2137 270.225C60.2137 271.338 60.8728 272.085 61.825 272.085C62.7625 272.085 63.451 271.338 63.451 270.225C63.451 269.141 62.7625 268.364 61.825 268.364ZM69.823 263.12V276.245H68.5047V269.727H66.9959V275.63H65.6775V263.413H66.9959V268.584H68.5047V263.12H69.823ZM86.6254 273.462V274.619H74.6137V273.462H79.9018V270.767H75.9906V264.014H77.3822V266.27H83.8275V264.014H85.2045V270.767H81.2787V273.462H86.6254ZM77.3822 269.639H83.8275V267.397H77.3822V269.639ZM91.2766 266.709C91.2766 268.804 92.1555 271.045 93.9133 272.114L93.1369 273.184C91.9064 272.444 91.0715 271.133 90.632 269.609C90.1413 271.279 89.2404 272.7 87.966 273.477L87.1018 272.437C88.9621 271.323 89.9289 269.009 89.9289 266.768V264.321H91.2766V266.709ZM98.5715 263.12V276.245H97.2385V263.12H98.5715ZM95.8469 263.369V275.601H94.5285V268.892H92.4924V267.734H94.5285V263.369H95.8469ZM111.953 273.447V274.604H99.9414V273.447H102.812V270.02C101.736 269.426 101.084 268.481 101.084 267.31C101.084 265.244 103.105 263.882 105.918 263.882C108.745 263.882 110.767 265.244 110.767 267.31C110.767 268.467 110.137 269.397 109.082 269.99V273.447H111.953ZM105.918 264.995C103.853 264.995 102.432 265.889 102.432 267.31C102.432 268.716 103.853 269.639 105.918 269.639C107.969 269.639 109.419 268.716 109.419 267.31C109.419 265.889 107.969 264.995 105.918 264.995ZM104.189 273.447H107.676V270.518C107.141 270.657 106.548 270.723 105.918 270.723C105.303 270.723 104.717 270.657 104.189 270.532V273.447ZM115.022 264.395L114.89 271.938H113.44L113.308 264.395H115.022ZM114.173 275.103C113.601 275.103 113.118 274.634 113.133 274.062C113.118 273.491 113.601 273.022 114.173 273.022C114.729 273.022 115.213 273.491 115.213 274.062C115.213 274.634 114.729 275.103 114.173 275.103Z" fill="#222222"/>
<path d="M32.0187 250.279C31.0372 249.298 30.5099 248.082 30.4952 246.734C30.5099 244.771 31.9747 243.204 33.879 243.204C34.963 243.204 35.8858 243.702 36.5011 244.479C37.131 243.702 38.0685 243.204 39.1524 243.204C41.0421 243.204 42.5216 244.771 42.5216 246.734C42.5216 248.082 41.9942 249.298 40.9981 250.279L36.5011 254.776L32.0187 250.279ZM50.703 243.116V243.849C50.6884 244.728 50.6884 246.031 50.3661 247.73L48.9892 247.599C49.2748 246.141 49.3188 245.086 49.3407 244.259H44.0819V243.116H50.703ZM47.3485 246.061V248.771C48.7548 248.727 50.205 248.624 51.5233 248.434L51.6112 249.444C48.872 249.928 45.7372 249.972 43.4228 249.986L43.2909 248.858C44.0966 248.851 45.0121 248.844 45.9716 248.814V246.061H47.3485ZM53.7792 242.12V246.295H55.581V247.467H53.7792V251.979H52.3583V242.12H53.7792ZM54.204 253.839V254.967H45.2831V251.085H46.6747V253.839H54.204ZM66.9411 242.135V249.562H65.5495V242.135H66.9411ZM66.9411 250.265V255.084H58.3132V250.265H66.9411ZM59.6901 251.378V253.956H65.5788V251.378H59.6901ZM60.8327 243.907C60.8181 245.68 62.0925 247.276 64.0847 247.95L63.3962 249.02C61.8728 248.514 60.7302 247.474 60.1296 246.119C59.5437 247.562 58.3791 248.712 56.8044 249.269L56.1159 248.17C58.1667 247.481 59.4118 245.738 59.4118 243.907V242.633H60.8327V243.907ZM79.6343 242.12V255.245H78.228V242.12H79.6343ZM75.7231 243.526C75.7231 247.364 74.0825 250.704 69.5854 252.857L68.853 251.729C72.3467 250.067 74.0459 247.701 74.3169 244.64H69.4829V243.526H75.7231ZM85.0179 242.721C86.7464 242.706 88.0794 243.709 88.3724 245.182H90.9358V242.12H92.3274V249.166H90.9358V246.324H88.387C88.1014 247.833 86.761 248.844 85.0179 248.844C83.011 248.844 81.5755 247.584 81.5755 245.768C81.5755 243.98 83.011 242.706 85.0179 242.721ZM85.0179 243.878C83.7728 243.878 82.9085 244.64 82.9085 245.768C82.9085 246.896 83.7728 247.672 85.0179 247.672C86.2337 247.672 87.0979 246.896 87.0979 245.768C87.0979 244.64 86.2337 243.878 85.0179 243.878ZM85.1497 249.796V251.319H90.9358V249.796H92.3274V255.084H83.7728V249.796H85.1497ZM85.1497 253.941H90.9358V252.418H85.1497V253.941Z" fill="#FF460A"/>
<path d="M19.5859 91.2119C22.2021 91.2119 24.1689 92.8633 24.1875 95.1455C24.1689 97.4092 22.2021 99.042 19.5859 99.0605C16.9512 99.042 14.9472 97.4092 14.9658 95.1455C14.9472 92.8633 16.9512 91.2119 19.5859 91.2119ZM19.5859 93.3828C18.417 93.4014 17.5449 93.9951 17.5449 95.1455C17.5449 96.2773 18.3984 96.9082 19.5859 96.9082C20.7549 96.9082 21.5898 96.2773 21.5898 95.1455C21.5898 93.9951 20.7549 93.4014 19.5859 93.3828ZM29.0488 90.748V99.2275H26.3769V90.748H29.0488ZM29.0488 99.877V104.664H20.1611V105.518H29.457V107.596H17.5635V102.734H26.3769V101.918H17.5078V99.877H29.0488ZM44.2919 90.748V97.2979H46.704V99.5059H44.2919V107.781H41.6571V90.748H44.2919ZM40.6551 93.2344V95.3496H30.6913V93.2344H34.3837V91.0264H37.0555V93.2344H40.6551ZM35.7196 96.166C38.2059 96.166 40.0985 97.873 40.1171 100.267C40.0985 102.679 38.2059 104.367 35.7196 104.367C33.159 104.367 31.285 102.679 31.3036 100.267C31.285 97.873 33.159 96.166 35.7196 96.166ZM35.7196 98.3184C34.6249 98.3369 33.8456 99.042 33.8641 100.267C33.8456 101.528 34.6249 102.196 35.7196 102.196C36.7772 102.196 37.538 101.528 37.5565 100.267C37.538 99.042 36.7772 98.3369 35.7196 98.3184ZM60.9636 92.1396V93.7354C60.9636 95.8691 60.9636 98.2998 60.2771 101.974L57.5681 101.695C58.2175 98.5781 58.2639 96.2124 58.2917 94.2549H48.4206V92.1396H60.9636ZM62.3552 103.644V105.796H46.8249V103.644H52.2244V97.8545H54.8777V103.644H62.3552ZM81.0405 90.7666V100.192H78.3687V90.7666H81.0405ZM73.4146 92.9746C73.396 94.8857 74.4536 96.8525 77.311 97.5947L76.0493 99.71C74.1011 99.1626 72.8022 98.0586 72.0415 96.6299C71.2622 98.1885 69.9077 99.4131 67.8853 99.9883L66.605 97.8916C69.5552 97.0566 70.6313 94.96 70.6313 92.9746V91.3418H73.4146V92.9746ZM81.1333 100.879V102.976H79.2036V105.462H81.2632V107.596H69.2397V105.462H71.3179V102.976H69.3696V100.879H81.1333ZM73.9712 105.462H76.5688V102.976H73.9712V105.462ZM98.306 99.376V101.473H82.7758V99.376H98.306ZM96.5248 105.369V107.503H84.6127V102.512H87.2845V105.369H96.5248ZM90.5316 91.249C94.2797 91.249 96.766 92.585 96.7845 94.7559C96.766 96.9639 94.2797 98.3184 90.5316 98.3369C86.765 98.3184 84.2787 96.9639 84.2787 94.7559C84.2787 92.585 86.765 91.249 90.5316 91.249ZM90.5316 93.3457C88.2865 93.3643 87.0433 93.8281 87.0619 94.7559C87.0433 95.7393 88.2865 96.166 90.5316 96.166C92.7582 96.166 94.0199 95.7393 94.0199 94.7559C94.0199 93.8281 92.7582 93.3643 90.5316 93.3457ZM117.066 90.748V107.781H114.357V90.748H117.066ZM111.944 92.5107C111.944 97.7617 110.275 102.029 104.077 104.942L102.686 102.827C107.018 100.777 108.837 98.2627 109.217 94.5889H103.651V92.5107H111.944ZM123.495 91.4531C125.638 91.4531 127.364 92.6777 127.874 94.459H130.49V90.748H133.144V99.9141H130.49V96.5557H127.893C127.392 98.3926 125.647 99.6357 123.495 99.6357C120.86 99.6357 118.912 97.9102 118.931 95.5166C118.912 93.1787 120.86 91.4531 123.495 91.4531ZM123.495 93.6611C122.289 93.6611 121.454 94.3477 121.454 95.5166C121.454 96.7041 122.289 97.3906 123.495 97.3906C124.646 97.3906 125.48 96.7041 125.48 95.5166C125.48 94.3477 124.646 93.6611 123.495 93.6611ZM124.293 100.619V102.085H130.49V100.619H133.144V107.596H121.677V100.619H124.293ZM124.293 105.443H130.49V104.126H124.293V105.443Z" fill="#FF460A"/>
<circle cx="74" cy="40" r="20" fill="url(#paint0_linear_135_2063)"/>
<g filter="url(#filter0_i_135_2063)">
<circle cx="74" cy="40" r="18" fill="url(#paint1_linear_135_2063)"/>
</g>
<path d="M70.4269 42.6041L70.1519 42.3276C70.0801 42.2552 69.9946 42.1977 69.9004 42.1585C69.8062 42.1193 69.7052 42.0991 69.6032 42.0991C69.5012 42.0991 69.4002 42.1193 69.306 42.1585C69.2118 42.1977 69.1264 42.2552 69.0545 42.3276L67.406 43.9831C67.2599 44.1303 67.1779 44.3293 67.1779 44.5367C67.1779 44.7441 67.2599 44.9431 67.406 45.0903L67.6805 45.366C67.7524 45.4384 67.8378 45.4959 67.932 45.5351C68.0261 45.5743 68.1271 45.5945 68.2291 45.5945C68.3311 45.5945 68.432 45.5743 68.5262 45.5351C68.6203 45.4959 68.7058 45.4384 68.7776 45.366L70.4265 43.7105C70.5725 43.5634 70.6544 43.3646 70.6545 43.1574C70.6546 42.9502 70.5728 42.7513 70.4269 42.6041Z" fill="url(#paint2_linear_135_2063)"/>
<path d="M71.5278 49.2298C71.6752 49.3711 71.8714 49.45 72.0756 49.45C72.2797 49.45 72.476 49.3711 72.6233 49.2298V49.2279L74.2722 47.5743L74.2746 47.5724C74.4202 47.4254 74.5019 47.2269 74.5019 47.02C74.5019 46.813 74.4202 46.6145 74.2746 46.4675L74 46.191C73.8525 46.0493 73.6558 45.9702 73.4513 45.9702C73.2467 45.9702 73.0501 46.0493 72.9026 46.191L71.2541 47.8465C71.1078 47.9935 71.0258 48.1924 71.0258 48.3997C71.0258 48.6071 71.1078 48.8059 71.2541 48.9529L71.5278 49.2298Z" fill="url(#paint3_linear_135_2063)"/>
<path d="M73.452 51.1605C73.5239 51.2328 73.6093 51.2902 73.7033 51.3293C73.7974 51.3684 73.8983 51.3886 74.0002 51.3886C74.1021 51.3886 74.203 51.3684 74.297 51.3293C74.3911 51.2902 74.4765 51.2328 74.5483 51.1605L76.196 49.5054C76.3421 49.3585 76.4241 49.1598 76.4241 48.9526C76.4241 48.7454 76.3421 48.5467 76.196 48.3998L75.9238 48.1214C75.7777 47.9761 75.58 47.8947 75.3739 47.895C75.2728 47.8949 75.1726 47.9148 75.0792 47.9535C74.9858 47.9922 74.9009 48.049 74.8295 48.1206L73.181 49.7757C73.0353 49.9227 72.9536 50.1212 72.9536 50.3281C72.9536 50.535 73.0353 50.7336 73.181 50.8805L73.452 51.1605Z" fill="url(#paint4_linear_135_2063)"/>
<path d="M70.1527 47.5262C70.2548 47.5265 70.356 47.5064 70.4503 47.4671C70.5445 47.4279 70.6301 47.3702 70.7018 47.2976L72.3503 45.6425C72.4964 45.4953 72.5784 45.2963 72.5784 45.0889C72.5784 44.8815 72.4964 44.6825 72.3503 44.5353L72.0758 44.2588C72.0038 44.1865 71.9183 44.1292 71.8241 44.09C71.7299 44.0509 71.6289 44.0308 71.5269 44.0308C71.4249 44.0308 71.3239 44.0509 71.2297 44.09C71.1355 44.1292 71.0499 44.1865 70.9779 44.2588L69.3294 45.9147C69.1834 46.0619 69.1014 46.2609 69.1014 46.4683C69.1014 46.6757 69.1834 46.8746 69.3294 47.0219L69.6044 47.2976C69.6761 47.3701 69.7614 47.4277 69.8556 47.467C69.9497 47.5062 70.0507 47.5264 70.1527 47.5262Z" fill="url(#paint5_linear_135_2063)"/>
<path d="M76.1992 39.5709L80.5959 43.9864C80.7433 44.1282 80.9399 44.2075 81.1445 44.2075C81.349 44.2075 81.5456 44.1282 81.693 43.9864L81.9679 43.7103C82.1141 43.5632 82.1961 43.3644 82.1961 43.1571C82.1961 42.9498 82.1141 42.7509 81.9679 42.6039L75.9223 36.5333C75.8489 36.4622 75.7507 36.4225 75.6485 36.4225C75.5463 36.4225 75.4481 36.4622 75.3747 36.5333L72.3523 39.5667C72.136 39.7839 71.8789 39.9564 71.5958 40.074C71.3127 40.1917 71.0092 40.2522 70.7026 40.2522C70.396 40.2522 70.0925 40.1917 69.8094 40.074C69.5263 39.9564 69.2692 39.7839 69.0529 39.5667C68.8348 39.3469 68.7124 39.0499 68.7124 38.7403C68.7124 38.4306 68.8348 38.1336 69.0529 37.9139L73.4377 33.512C72.2562 32.4586 70.7157 31.8983 69.1335 31.9467C67.5513 31.9951 66.0479 32.6485 64.933 33.7722C63.7678 34.9469 63.114 36.5344 63.114 38.189C63.114 39.8436 63.7678 41.4311 64.933 42.6058L66.4587 44.138C66.5259 43.8723 66.6625 43.6293 66.8545 43.4338L68.503 41.7783C68.6472 41.6333 68.8187 41.5182 69.0075 41.4397C69.1963 41.3612 69.3987 41.3208 69.6032 41.3208C69.8077 41.3208 70.0101 41.3612 70.199 41.4397C70.3878 41.5182 70.5592 41.6333 70.7034 41.7783L70.9779 42.0548C71.1358 42.2144 71.2571 42.4064 71.3335 42.6175C71.4099 42.8286 71.4396 43.0537 71.4205 43.2774C71.6406 43.2598 71.862 43.2893 72.0698 43.3638C72.2777 43.4384 72.4673 43.5564 72.626 43.7099L72.901 43.9864C73.057 44.1443 73.1773 44.334 73.2538 44.5424C73.3303 44.7508 73.3612 44.9733 73.3443 45.1947C73.3797 45.1923 73.4139 45.1845 73.4497 45.1845C73.6542 45.1841 73.8568 45.2243 74.0457 45.3028C74.2345 45.3813 74.4059 45.4966 74.5499 45.6419L74.8244 45.9184C74.9824 46.078 75.1037 46.2701 75.1801 46.4813C75.2565 46.6924 75.2862 46.9177 75.267 47.1414C75.487 47.1241 75.7082 47.1536 75.916 47.2279C76.1238 47.3023 76.3135 47.4198 76.4725 47.5727L76.7393 47.8449C76.7417 47.8469 76.7448 47.8477 76.7467 47.8496C76.8186 47.922 76.9041 47.9795 76.9982 48.0187C77.0924 48.0579 77.1934 48.0781 77.2954 48.0781C77.3975 48.0781 77.4985 48.0579 77.5926 48.0187C77.6868 47.9795 77.7723 47.922 77.8442 47.8496L78.1191 47.5731C78.2649 47.426 78.3467 47.2274 78.3467 47.0203C78.3467 46.8132 78.2649 46.6145 78.1191 46.4675L73.7243 42.0517C73.6882 42.0154 73.6596 41.9725 73.6402 41.9252C73.6207 41.878 73.6108 41.8274 73.6109 41.7763C73.611 41.7252 73.6212 41.6746 73.6408 41.6274C73.6605 41.5803 73.6892 41.5374 73.7254 41.5014C73.7616 41.4653 73.8046 41.4367 73.8518 41.4173C73.8991 41.3978 73.9497 41.3879 74.0008 41.388C74.104 41.3882 74.2029 41.4294 74.2757 41.5025L78.6725 45.9184C78.82 46.06 79.0166 46.139 79.221 46.139C79.4255 46.139 79.622 46.06 79.7695 45.9184L80.0441 45.6423C80.1902 45.4951 80.2721 45.2962 80.2721 45.0889C80.2721 44.8816 80.1902 44.6826 80.0441 44.5355L75.6477 40.12C75.5749 40.0469 75.5341 39.9479 75.5343 39.8447C75.5345 39.7415 75.5758 39.6426 75.6489 39.5698C75.722 39.4969 75.8211 39.4562 75.9243 39.4564C76.0275 39.4566 76.1263 39.4978 76.1992 39.5709Z" fill="url(#paint6_linear_135_2063)"/>
<path d="M82.9157 42.7589L83.0669 42.6068C84.2322 41.4322 84.886 39.8447 84.886 38.1902C84.886 36.5357 84.2322 34.9482 83.0669 33.7736C82.4911 33.1943 81.8064 32.7346 81.0522 32.421C80.298 32.1073 79.4893 31.9458 78.6725 31.9458C77.8557 31.9458 77.047 32.1073 76.2928 32.421C75.5386 32.7346 74.8539 33.1943 74.2781 33.7736L69.6056 38.4648C69.5324 38.5385 69.4913 38.6381 69.4913 38.742C69.4913 38.8459 69.5324 38.9456 69.6056 39.0193C69.9009 39.303 70.2945 39.4614 70.704 39.4614C71.1135 39.4614 71.5071 39.303 71.8024 39.0193L74.8248 35.986C75.0468 35.773 75.3425 35.6541 75.6501 35.6541C75.9576 35.6541 76.2533 35.773 76.4753 35.986L82.5194 42.0558C82.7115 42.2508 82.8483 42.4935 82.9157 42.7589Z" fill="url(#paint7_linear_135_2063)"/>
<g filter="url(#filter1_f_135_2063)">
<path d="M24.4224 158H5.58511C0.291228 158 -4 162.234 -4 167.457C-4 172.68 0.291228 176.914 5.58511 176.914H11.6198L13.7523 180.313C14.3247 181.229 15.6753 181.229 16.2477 180.313L18.3802 176.914H24.4149C29.7088 176.914 34 172.68 34 167.457C34 162.234 29.7088 158 24.4149 158H24.4224Z" fill="#FEEAC4"/>
<path d="M8.159 171V164.637H8.95002V167.467H12.3162V164.637H13.116V171H12.3162V168.161H8.95002V171H8.159ZM16.5659 165.999C16.5659 167.379 17.48 168.794 18.5874 169.339L18.1655 169.893C17.3042 169.44 16.5835 168.517 16.2407 167.432C15.8892 168.587 15.1509 169.572 14.272 170.042L13.8325 169.488C14.9751 168.926 15.8804 167.423 15.8892 165.999V164.575H16.5659V165.999ZM19.9937 163.898V167.071H21.3032V167.669H19.9937V171.712H19.3081V163.898H19.9937ZM22.7931 169.163C22.8019 167.985 23.1623 167.625 23.7687 167.256C24.1291 167.036 24.4103 166.685 24.4103 166.192C24.4103 165.595 23.9445 165.217 23.3644 165.217C22.8635 165.217 22.3625 165.516 22.3097 166.236H21.5099C21.5539 165.173 22.3625 164.549 23.3644 164.549C24.4631 164.549 25.1838 165.261 25.1838 166.228C25.1838 166.913 24.8586 167.396 24.3137 167.73C23.7687 168.064 23.5666 168.398 23.549 169.163V169.207H22.7931V169.163ZM23.1974 171.053C22.8898 171.053 22.6262 170.798 22.6349 170.481C22.6262 170.174 22.8898 169.919 23.1974 169.919C23.5051 169.919 23.7599 170.174 23.7599 170.481C23.7599 170.798 23.5051 171.053 23.1974 171.053Z" fill="#9A9A9A"/>
</g>
<g filter="url(#filter2_f_135_2063)">
<path d="M126.422 184H107.585C102.291 184 98 188.234 98 193.457C98 198.68 102.291 202.914 107.585 202.914H113.62L115.752 206.313C116.325 207.229 117.675 207.229 118.248 206.313L120.38 202.914H126.415C131.709 202.914 136 198.68 136 193.457C136 188.234 131.709 184 126.415 184H126.422Z" fill="#FEEAC4"/>
<path d="M111.729 197H109.751V190.637H111.808C113.662 190.637 114.761 191.832 114.761 193.81C114.761 195.796 113.662 197 111.729 197ZM110.542 196.297H111.676C113.241 196.297 113.988 195.356 113.988 193.81C113.988 192.271 113.241 191.34 111.755 191.34H110.542V196.297ZM117.974 191.999C117.974 193.379 118.888 194.794 119.995 195.339L119.573 195.893C118.712 195.44 117.991 194.517 117.648 193.432C117.297 194.587 116.559 195.572 115.68 196.042L115.24 195.488C116.383 194.926 117.288 193.423 117.297 191.999V190.575H117.974V191.999ZM121.401 189.898V193.071H122.711V193.669H121.401V197.712H120.716V189.898H121.401ZM124.201 195.163C124.21 193.985 124.57 193.625 125.176 193.256C125.537 193.036 125.818 192.685 125.818 192.192C125.818 191.595 125.352 191.217 124.772 191.217C124.271 191.217 123.77 191.516 123.717 192.236H122.918C122.962 191.173 123.77 190.549 124.772 190.549C125.871 190.549 126.591 191.261 126.591 192.228C126.591 192.913 126.266 193.396 125.721 193.73C125.176 194.064 124.974 194.398 124.957 195.163V195.207H124.201V195.163ZM124.605 197.053C124.298 197.053 124.034 196.798 124.043 196.481C124.034 196.174 124.298 195.919 124.605 195.919C124.913 195.919 125.168 196.174 125.168 196.481C125.168 196.798 124.913 197.053 124.605 197.053Z" fill="#9A9A9A"/>
</g>
<g filter="url(#filter3_f_135_2063)">
<path d="M136.422 121H117.585C112.291 121 108 125.234 108 130.457C108 135.68 112.291 139.914 117.585 139.914H123.62L125.752 143.313C126.325 144.229 127.675 144.229 128.248 143.313L130.38 139.914H136.415C141.709 139.914 146 135.68 146 130.457C146 125.234 141.709 121 136.415 121H136.422Z" fill="#FEEAC4"/>
<path d="M125.16 127.637V134H124.404L120.959 129.043H120.897V134H120.106V127.637H120.871L124.316 132.603H124.378V127.637H125.16ZM128.619 128.999C128.619 130.379 129.533 131.794 130.64 132.339L130.218 132.893C129.357 132.44 128.636 131.517 128.293 130.432C127.942 131.587 127.204 132.572 126.325 133.042L125.885 132.488C127.028 131.926 127.933 130.423 127.942 128.999V127.575H128.619V128.999ZM132.046 126.898V130.071H133.356V130.669H132.046V134.712H131.361V126.898H132.046ZM134.846 132.163C134.855 130.985 135.215 130.625 135.821 130.256C136.182 130.036 136.463 129.685 136.463 129.192C136.463 128.595 135.997 128.217 135.417 128.217C134.916 128.217 134.415 128.516 134.362 129.236H133.563C133.607 128.173 134.415 127.549 135.417 127.549C136.516 127.549 137.237 128.261 137.237 129.228C137.237 129.913 136.911 130.396 136.366 130.73C135.821 131.064 135.619 131.398 135.602 132.163V132.207H134.846V132.163ZM135.25 134.053C134.943 134.053 134.679 133.798 134.688 133.481C134.679 133.174 134.943 132.919 135.25 132.919C135.558 132.919 135.813 133.174 135.813 133.481C135.813 133.798 135.558 134.053 135.25 134.053Z" fill="#9A9A9A"/>
</g>
<g filter="url(#filter4_d_135_2063)">
<path d="M56.3897 125H29.621C22.0981 125 16 131.075 16 138.569C16 146.063 22.0981 152.137 29.621 152.137H38.1965L41.2269 157.015C42.0404 158.328 43.9596 158.328 44.7731 157.015L47.8035 152.137H56.379C63.9019 152.137 70 146.063 70 138.569C70 131.075 63.9019 125 56.379 125H56.3897Z" fill="#C2E3FF"/>
</g>
<path d="M36.0808 136.335C36.0046 135.548 35.3318 135.091 34.3415 135.091C33.3005 135.091 32.6658 135.599 32.6658 136.284C32.6658 137.059 33.4783 137.376 34.24 137.554L35.1033 137.782C36.4744 138.1 37.7947 138.823 37.7947 140.423C37.7947 142.035 36.5251 143.14 34.3162 143.14C32.1706 143.14 30.8249 142.111 30.7488 140.296H32.3738C32.4499 141.261 33.2624 141.73 34.3035 141.73C35.3953 141.73 36.1443 141.197 36.1443 140.41C36.1443 139.687 35.4714 139.382 34.4812 139.128L33.4402 138.861C31.9294 138.468 30.99 137.706 30.99 136.386C30.99 134.761 32.4372 133.682 34.3669 133.682C36.322 133.682 37.6423 134.786 37.6677 136.335H36.0808ZM42.5366 135.408C42.5239 137.452 43.5522 139.534 45.3296 140.385L44.4663 141.515C43.2222 140.886 42.3271 139.674 41.8384 138.214C41.3369 139.775 40.3975 141.07 39.0835 141.73L38.2202 140.601C40.061 139.725 41.1147 137.528 41.1274 135.408V133.58H42.5366V135.408ZM47.4243 132.653V137.147H49.189V138.354H47.4243V144.13H46.0151V132.653H47.4243ZM51.3538 140.182C51.3665 138.569 51.8235 138.074 52.6233 137.579C53.1692 137.236 53.5754 136.805 53.5754 136.17C53.5754 135.459 53.0296 135.002 52.3313 135.002C51.6965 135.002 51.0872 135.408 51.0491 136.259H49.4622C49.5003 134.558 50.7825 133.682 52.344 133.682C54.0579 133.682 55.2385 134.634 55.2385 136.145C55.2385 137.173 54.718 137.846 53.8928 138.341C53.1565 138.785 52.8518 139.229 52.8391 140.182V140.296H51.3538V140.182ZM52.1409 143.102C51.595 143.102 51.1506 142.657 51.1506 142.111C51.1506 141.578 51.595 141.134 52.1409 141.134C52.6614 141.134 53.1184 141.578 53.1184 142.111C53.1184 142.657 52.6614 143.102 52.1409 143.102Z" fill="#222222"/>
<g filter="url(#filter5_d_135_2063)">
<path d="M118.39 138H116.717H115.044H111.698H108.351H105.005H91.621C84.0981 138 78 144.075 78 151.569C78 159.063 84.0981 165.137 91.621 165.137H100.197L103.227 170.015C104.04 171.328 105.96 171.328 106.773 170.015L109.803 165.137H118.379C125.902 165.137 132 159.063 132 151.569C132 144.075 125.902 138 118.379 138H118.39Z" fill="#FFE58E"/>
</g>
<path d="M93.9011 157V147.809H95.5515V152.036H95.6785L99.2712 147.809H101.29L97.7351 151.935L101.328 157H99.3347L96.5798 153.052L95.5515 154.258V157H93.9011ZM105.714 149.408C105.702 151.452 106.73 153.534 108.507 154.385L107.644 155.515C106.4 154.886 105.505 153.674 105.016 152.214C104.515 153.775 103.575 155.07 102.261 155.73L101.398 154.601C103.239 153.725 104.292 151.528 104.305 149.408V147.58H105.714V149.408ZM110.602 146.653V151.147H112.367V152.354H110.602V158.13H109.193V146.653H110.602ZM114.532 154.182C114.544 152.569 115.001 152.074 115.801 151.579C116.347 151.236 116.753 150.805 116.753 150.17C116.753 149.459 116.207 149.002 115.509 149.002C114.874 149.002 114.265 149.408 114.227 150.259H112.64C112.678 148.558 113.96 147.682 115.522 147.682C117.236 147.682 118.416 148.634 118.416 150.145C118.416 151.173 117.896 151.846 117.071 152.341C116.334 152.785 116.03 153.229 116.017 154.182V154.296H114.532V154.182ZM115.319 157.102C114.773 157.102 114.328 156.657 114.328 156.111C114.328 155.578 114.773 155.134 115.319 155.134C115.839 155.134 116.296 155.578 116.296 156.111C116.296 156.657 115.839 157.102 115.319 157.102Z" fill="#222222"/>
<g filter="url(#filter6_d_135_2063)">
<path d="M74.3897 171H72.7166H71.0436H67.6975H64.3514H61.0053H47.621C40.0981 171 34 177.075 34 184.569C34 192.063 40.0981 198.137 47.621 198.137H56.1965L59.2269 203.015C60.0404 204.328 61.9596 204.328 62.7731 203.015L65.8035 198.137H74.379C81.9019 198.137 88 192.063 88 184.569C88 177.075 81.9019 171 74.379 171H74.3897Z" fill="#FFD0C3"/>
</g>
<path d="M51.1057 189V179.809H52.7561V187.604H56.8186V189H51.1057ZM61.5098 181.408C61.4971 183.452 62.5254 185.534 64.3027 186.385L63.4395 187.515C62.1953 186.886 61.3003 185.674 60.8115 184.214C60.3101 185.775 59.3706 187.07 58.0566 187.73L57.1934 186.601C59.0342 185.725 60.0879 183.528 60.1006 181.408V179.58H61.5098V181.408ZM66.3975 178.653V183.147H68.1621V184.354H66.3975V190.13H64.9883V178.653H66.3975ZM70.3269 186.182C70.3396 184.569 70.7966 184.074 71.5964 183.579C72.1423 183.236 72.5486 182.805 72.5486 182.17C72.5486 181.459 72.0027 181.002 71.3045 181.002C70.6697 181.002 70.0603 181.408 70.0222 182.259H68.4353C68.4734 180.558 69.7556 179.682 71.3171 179.682C73.031 179.682 74.2117 180.634 74.2117 182.145C74.2117 183.173 73.6912 183.846 72.866 184.341C72.1296 184.785 71.825 185.229 71.8123 186.182V186.296H70.3269V186.182ZM71.114 189.102C70.5681 189.102 70.1238 188.657 70.1238 188.111C70.1238 187.578 70.5681 187.134 71.114 187.134C71.6345 187.134 72.0916 187.578 72.0916 188.111C72.0916 188.657 71.6345 189.102 71.114 189.102Z" fill="#222222"/>
</g>
<defs>
<filter id="filter0_i_135_2063" x="56" y="22" width="36" height="36.5" filterUnits="userSpaceOnUse" color-interpolation-filters="sRGB">
<feFlood flood-opacity="0" result="BackgroundImageFix"/>
<feBlend mode="normal" in="SourceGraphic" in2="BackgroundImageFix" result="shape"/>
<feColorMatrix in="SourceAlpha" type="matrix" values="0 0 0 0 0 0 0 0 0 0 0 0 0 0 0 0 0 0 127 0" result="hardAlpha"/>
<feOffset dy="1"/>
<feGaussianBlur stdDeviation="0.25"/>
<feComposite in2="hardAlpha" operator="arithmetic" k2="-1" k3="1"/>
<feColorMatrix type="matrix" values="0 0 0 0 0.907245 0 0 0 0 0.651109 0 0 0 0 0.219945 0 0 0 1 0"/>
<feBlend mode="normal" in2="shape" result="effect1_innerShadow_135_2063"/>
</filter>
<filter id="filter1_f_135_2063" x="-6" y="156" width="42" height="27" filterUnits="userSpaceOnUse" color-interpolation-filters="sRGB">
<feFlood flood-opacity="0" result="BackgroundImageFix"/>
<feBlend mode="normal" in="SourceGraphic" in2="BackgroundImageFix" result="shape"/>
<feGaussianBlur stdDeviation="1" result="effect1_foregroundBlur_135_2063"/>
</filter>
<filter id="filter2_f_135_2063" x="96" y="182" width="42" height="27" filterUnits="userSpaceOnUse" color-interpolation-filters="sRGB">
<feFlood flood-opacity="0" result="BackgroundImageFix"/>
<feBlend mode="normal" in="SourceGraphic" in2="BackgroundImageFix" result="shape"/>
<feGaussianBlur stdDeviation="1" result="effect1_foregroundBlur_135_2063"/>
</filter>
<filter id="filter3_f_135_2063" x="106" y="119" width="42" height="27" filterUnits="userSpaceOnUse" color-interpolation-filters="sRGB">
<feFlood flood-opacity="0" result="BackgroundImageFix"/>
<feBlend mode="normal" in="SourceGraphic" in2="BackgroundImageFix" result="shape"/>
<feGaussianBlur stdDeviation="1" result="effect1_foregroundBlur_135_2063"/>
</filter>
<filter id="filter4_d_135_2063" x="15" y="125" width="56" height="35" filterUnits="userSpaceOnUse" color-interpolation-filters="sRGB">
<feFlood flood-opacity="0" result="BackgroundImageFix"/>
<feColorMatrix in="SourceAlpha" type="matrix" values="0 0 0 0 0 0 0 0 0 0 0 0 0 0 0 0 0 0 127 0" result="hardAlpha"/>
<feOffset dy="1"/>
<feGaussianBlur stdDeviation="0.5"/>
<feComposite in2="hardAlpha" operator="out"/>
<feColorMatrix type="matrix" values="0 0 0 0 0 0 0 0 0 0 0 0 0 0 0 0 0 0 0.17 0"/>
<feBlend mode="normal" in2="BackgroundImageFix" result="effect1_dropShadow_135_2063"/>
<feBlend mode="normal" in="SourceGraphic" in2="effect1_dropShadow_135_2063" result="shape"/>
</filter>
<filter id="filter5_d_135_2063" x="77" y="138" width="56" height="35" filterUnits="userSpaceOnUse" color-interpolation-filters="sRGB">
<feFlood flood-opacity="0" result="BackgroundImageFix"/>
<feColorMatrix in="SourceAlpha" type="matrix" values="0 0 0 0 0 0 0 0 0 0 0 0 0 0 0 0 0 0 127 0" result="hardAlpha"/>
<feOffset dy="1"/>
<feGaussianBlur stdDeviation="0.5"/>
<feComposite in2="hardAlpha" operator="out"/>
<feColorMatrix type="matrix" values="0 0 0 0 0 0 0 0 0 0 0 0 0 0 0 0 0 0 0.17 0"/>
<feBlend mode="normal" in2="BackgroundImageFix" result="effect1_dropShadow_135_2063"/>
<feBlend mode="normal" in="SourceGraphic" in2="effect1_dropShadow_135_2063" result="shape"/>
</filter>
<filter id="filter6_d_135_2063" x="33" y="171" width="56" height="35" filterUnits="userSpaceOnUse" color-interpolation-filters="sRGB">
<feFlood flood-opacity="0" result="BackgroundImageFix"/>
<feColorMatrix in="SourceAlpha" type="matrix" values="0 0 0 0 0 0 0 0 0 0 0 0 0 0 0 0 0 0 127 0" result="hardAlpha"/>
<feOffset dy="1"/>
<feGaussianBlur stdDeviation="0.5"/>
<feComposite in2="hardAlpha" operator="out"/>
<feColorMatrix type="matrix" values="0 0 0 0 0 0 0 0 0 0 0 0 0 0 0 0 0 0 0.17 0"/>
<feBlend mode="normal" in2="BackgroundImageFix" result="effect1_dropShadow_135_2063"/>
<feBlend mode="normal" in="SourceGraphic" in2="effect1_dropShadow_135_2063" result="shape"/>
</filter>
<linearGradient id="paint0_linear_135_2063" x1="61.5342" y1="22.6027" x2="88.3836" y2="56.9863" gradientUnits="userSpaceOnUse">
<stop stop-color="#FFC462"/>
<stop offset="1" stop-color="#F3A200"/>
</linearGradient>
<linearGradient id="paint1_linear_135_2063" x1="74" y1="22" x2="74" y2="58" gradientUnits="userSpaceOnUse">
<stop offset="0.600962" stop-color="white"/>
<stop offset="1" stop-color="#FFEDC0"/>
</linearGradient>
<linearGradient id="paint2_linear_135_2063" x1="67.8328" y1="42.3266" x2="70.182" y2="45.3188" gradientUnits="userSpaceOnUse">
<stop stop-color="#FFC462"/>
<stop offset="1" stop-color="#F3A200"/>
</linearGradient>
<linearGradient id="paint3_linear_135_2063" x1="71.6805" y1="46.1966" x2="74.0169" y2="49.1855" gradientUnits="userSpaceOnUse">
<stop stop-color="#FFC462"/>
<stop offset="1" stop-color="#F3A200"/>
</linearGradient>
<linearGradient id="paint4_linear_135_2063" x1="73.6073" y1="48.1223" x2="75.956" y2="51.1103" gradientUnits="userSpaceOnUse">
<stop stop-color="#FFC462"/>
<stop offset="1" stop-color="#F3A200"/>
</linearGradient>
<linearGradient id="paint5_linear_135_2063" x1="69.7563" y1="44.2582" x2="72.1056" y2="47.2508" gradientUnits="userSpaceOnUse">
<stop stop-color="#FFC462"/>
<stop offset="1" stop-color="#F3A200"/>
</linearGradient>
<linearGradient id="paint6_linear_135_2063" x1="66.7082" y1="32.9937" x2="76.9736" y2="48.5416" gradientUnits="userSpaceOnUse">
<stop stop-color="#FFC462"/>
<stop offset="1" stop-color="#F3A200"/>
</linearGradient>
<linearGradient id="paint7_linear_135_2063" x1="72.391" y1="32.6494" x2="78.6997" y2="44.1516" gradientUnits="userSpaceOnUse">
<stop stop-color="#FFC462"/>
<stop offset="1" stop-color="#F3A200"/>
</linearGradient>
<clipPath id="clip0_135_2063">
<rect width="148" height="300" fill="white"/>
</clipPath>
</defs>
</svg>
