<svg xmlns="http://www.w3.org/2000/svg" width="14" height="14" viewBox="0 0 14 14"><defs><style>.a{fill:#fae902;stroke:#e5d500;}.b{fill:#454545;}.c{stroke:none;}.d{fill:none;}</style></defs><g transform="translate(-1064 -1112)"><g class="a" transform="translate(1064 1112)"><circle class="c" cx="7" cy="7" r="7"/><circle class="d" cx="7" cy="7" r="6.5"/></g><path class="b" d="M1.78,3.012h.465L2,3.839Zm3.152,0H5.4l-.221.826ZM3.585,1.431l.2.691H3.381ZM6.223,0l-.58,2.122H4.671L4.051,0H3.119L2.5,2.122H1.543L.964,0H0L.613,2.122H.049v.89H.874L1.568,5.4h.849l.7-2.384h.931L4.761,5.4h.833L6.28,3.012h.915v-.89H6.541L7.154,0Z" transform="translate(1067.4 1116.604)"/></g></svg>