<svg xmlns="http://www.w3.org/2000/svg" xmlns:xlink="http://www.w3.org/1999/xlink" width="45.263" height="48.574" viewBox="0 0 45.263 48.574"><defs><clipPath id="a"><rect width="45.263" height="48.574" transform="translate(-3 -2)" fill="none"/></clipPath></defs><g transform="translate(3 2)"><g clip-path="url(#a)"><path d="M137.247,165.88a42.379,42.379,0,0,0-8.014,11.574,8.507,8.507,0,0,0-.768,2.3,8.015,8.015,0,0,0,.242,3.692c1.111,3.771,5.2,14.129,15.839,10.167,11.938-6.711,9.676-14.017,9.676-14.017a8.748,8.748,0,0,0-.812-2.276,44.529,44.529,0,0,0-8.22-11.437Z" transform="translate(-120.528 -155.771)" fill="#ffeb95"/><path d="M137.044,165.38h8.35l.146.143a44.97,44.97,0,0,1,8.313,11.563,9.251,9.251,0,0,1,.854,2.386,8.326,8.326,0,0,1-.375,4.777,13.849,13.849,0,0,1-2.867,4.674,26.214,26.214,0,0,1-6.675,5.123l-.034.019-.036.014a13.5,13.5,0,0,1-4.692.92,10.337,10.337,0,0,1-8.453-4.532,22.2,22.2,0,0,1-3.348-6.882,8.559,8.559,0,0,1-.254-3.923,9.009,9.009,0,0,1,.813-2.433,42.357,42.357,0,0,1,8.112-11.708Zm7.941,1h-7.534a41.72,41.72,0,0,0-7.771,11.3,8.01,8.01,0,0,0-.723,2.163,7.556,7.556,0,0,0,.229,3.461c.948,3.216,3.9,10.7,10.842,10.7a12.486,12.486,0,0,0,4.306-.843c5.958-3.358,8.2-6.833,9.027-9.16a7.446,7.446,0,0,0,.382-4.257l-.011-.045a8.25,8.25,0,0,0-.766-2.146A44.183,44.183,0,0,0,144.985,166.38Z" transform="translate(-120.528 -155.771)"/><path d="M260.029,118.486h-7.943a1.444,1.444,0,1,0,0,2.888h7.943a1.444,1.444,0,1,0,0-2.888" transform="translate(-235.367 -111.265)" fill="#ffa700"/><path d="M260.029,121.874h-7.943a1.944,1.944,0,0,1,0-3.888h7.943a1.944,1.944,0,1,1,0,3.888Zm-7.943-2.888a.944.944,0,0,0,0,1.888h7.943a.944.944,0,1,0,0-1.888Z" transform="translate(-235.367 -111.265)"/><path d="M249.394,7.241l2-5.759a.361.361,0,0,0-.432-.467c-4.59,1.121-7.084-2.589-11.613-.191l2.232,6.416Z" transform="translate(-224.764 0)" fill="#ffeb95"/><path d="M249.749,7.741h-8.522L238.738.584l.379-.2A7.054,7.054,0,0,1,242.478-.5a12.05,12.05,0,0,1,3.345.616,12.059,12.059,0,0,0,3.358.616,6.934,6.934,0,0,0,1.665-.2A.881.881,0,0,1,251.054.5a.866.866,0,0,1,.7.364.847.847,0,0,1,.11.778Zm-7.811-1h7.1l1.8-5.184a7.88,7.88,0,0,1-1.661.176,12.841,12.841,0,0,1-3.633-.655A11.121,11.121,0,0,0,242.478.5a5.906,5.906,0,0,0-2.51.576Z" transform="translate(-224.764 0)"/><path d="M0,427.434l5.709-5.71a5.777,5.777,0,0,1,4.085-1.692h4.343a4.657,4.657,0,0,1,3.293,1.364,3.972,3.972,0,0,0,2.808,1.163h4.673a2.346,2.346,0,0,1,2.032,1.173l.136.275,8.243-6.9a2.4,2.4,0,0,1,3.237,3.537L26.511,432.694a3.61,3.61,0,0,1-2.553,1.058H11.548a2.166,2.166,0,0,0-1.532.634l-1.351,1.351" transform="translate(0 -391.164)" fill="#ffbfb6"/><path d="M9.019,436.091l-.707-.707,1.351-1.351a2.649,2.649,0,0,1,1.885-.781h12.41a3.09,3.09,0,0,0,2.2-.911l12.049-12.049a1.9,1.9,0,0,0-2.562-2.8l-8.73,7.306-.41-.829a1.854,1.854,0,0,0-1.592-.91H20.239a4.442,4.442,0,0,1-3.162-1.31,4.13,4.13,0,0,0-2.94-1.218H9.794a5.242,5.242,0,0,0-3.731,1.546l-5.709,5.71-.707-.707,5.709-5.71a6.236,6.236,0,0,1,4.438-1.838h4.343a5.124,5.124,0,0,1,3.647,1.511,3.449,3.449,0,0,0,2.455,1.017h4.673a2.858,2.858,0,0,1,2.307,1.179L35,416.725A2.9,2.9,0,0,1,38.913,421L26.865,433.048a4.084,4.084,0,0,1-2.907,1.2H11.548a1.655,1.655,0,0,0-1.178.488Z" transform="translate(0 -391.164)"/><path d="M258.012,541.39a2.349,2.349,0,0,1-2.225,3.1h-9.929" transform="translate(-230.875 -508.396)" fill="#ffbfb6"/><path d="M255.787,544.985h-9.929v-1h9.929a1.849,1.849,0,0,0,1.751-2.436l.948-.319a2.849,2.849,0,0,1-2.7,3.755Z" transform="translate(-230.875 -508.396)"/><path d="M260.6,286.475l-1.117,3.988h-1.356l-1.157-3.988h-1.516l-1.143,3.988h-1.383l-1.13-3.988H250.46v-1.489h.918l-1-3.55h1.569l.944,3.55h1.556l1.01-3.55h1.516l1.01,3.55h1.583l.944-3.55h1.516l-1,3.55h1.064v1.489Zm-7.326,0,.359,1.382.4-1.382Zm2.938-2.646-.332,1.157h.664Zm2.194,2.646.4,1.382.359-1.382Z" transform="translate(-235.121 -264.284)" fill="#ff460a"/></g><path d="M1430-3199.425v-2h-2v-1h2v-2h1v2h2v1h-2v2Z" transform="translate(-1427 3220)" fill="#ff460a"/><path d="M1430-3199.425v-2h-2v-1h2v-2h1v2h2v1h-2v2Z" transform="translate(-1396 3212)" fill="#ff460a"/></g></svg>