<svg xmlns="http://www.w3.org/2000/svg" width="15.703" height="16.711" viewBox="0 0 15.703 16.711"><g opacity="0.501"><path d="M6.971,2A4.934,4.934,0,0,0,2,6.884a4.934,4.934,0,0,0,4.971,4.884,4.934,4.934,0,0,0,4.971-4.884A4.934,4.934,0,0,0,6.971,2m0-2a6.928,6.928,0,0,1,6.971,6.884,6.928,6.928,0,0,1-6.971,6.884A6.928,6.928,0,0,1,0,6.884,6.928,6.928,0,0,1,6.971,0Z" fill="#121212"/><path d="M18.93,23.761l-3.918-3.869,1.405-1.423,3.918,3.869Z" transform="translate(-4.633 -7.049)" fill="#121212"/></g></svg>