<svg xmlns="http://www.w3.org/2000/svg" width="14" height="14" viewBox="0 0 14 14"><g transform="translate(-1064 -1112)"><circle cx="7" cy="7" r="7" transform="translate(1064 1112)" fill="#fae902"/><path d="M7,1a6,6,0,1,0,6,6A6.007,6.007,0,0,0,7,1M7,0A7,7,0,1,1,0,7,7,7,0,0,1,7,0Z" transform="translate(1064 1112)" fill="#e5d500"/><path d="M1.78,3.012h.465L2,3.839Zm3.152,0H5.4l-.221.826ZM3.585,1.431l.2.691H3.381ZM6.223,0l-.58,2.122H4.671L4.051,0H3.119L2.5,2.122H1.543L.964,0H0L.613,2.122H.049v.89H.874L1.568,5.4h.849l.7-2.384h.931L4.761,5.4h.833L6.28,3.012h.915v-.89H6.541L7.154,0Z" transform="translate(1067.4 1116.604)" fill="#454545"/></g></svg>