<svg xmlns="http://www.w3.org/2000/svg" xmlns:xlink="http://www.w3.org/1999/xlink" width="45.263" height="37.574" viewBox="0 0 45.263 37.574"><defs><style>.a{fill:none;}.b{clip-path:url(#a);}.c{fill:#ffeb95;}.c,.d{stroke:#000;}.d{fill:#ffa700;}.e{fill:#ff460a;}.f{clip-path:url(#b);}.g{fill:#ffce55;}.h{fill:#1e1e1e;}</style><clipPath id="a"><rect class="a" width="45.263" height="37.574" transform="translate(-3 -2)"/></clipPath><clipPath id="b"><rect class="a" width="15.503" height="13.332"/></clipPath></defs><g transform="translate(3 -3)"><g class="b" transform="translate(0 5)"><path class="c" d="M137.247,165.88a36.384,36.384,0,0,0-8.014,9.775,6.449,6.449,0,0,0-.768,1.941,5.763,5.763,0,0,0,.242,3.118c1.111,3.185,5.2,11.934,15.839,8.587,11.938-5.668,9.676-11.839,9.676-11.839a6.677,6.677,0,0,0-.812-1.922,38.533,38.533,0,0,0-8.22-9.66Z" transform="translate(-120.528 -155.771)"/><path class="d" d="M260.029,118.486h-7.943a1.444,1.444,0,1,0,0,2.888h7.943a1.444,1.444,0,1,0,0-2.888" transform="translate(-235.367 -111.265)"/><path class="c" d="M249.394,7.241l2-5.759a.361.361,0,0,0-.432-.467c-4.59,1.121-7.084-2.589-11.613-.191l2.232,6.416Z" transform="translate(-224.764 0)"/><path class="e" d="M260.6,286.475l-1.117,3.988h-1.356l-1.157-3.988h-1.516l-1.143,3.988h-1.383l-1.13-3.988H250.46v-1.489h.918l-1-3.55h1.569l.944,3.55h1.556l1.01-3.55h1.516l1.01,3.55h1.583l.944-3.55h1.516l-1,3.55h1.064v1.489Zm-7.326,0,.359,1.382.4-1.382Zm2.938-2.646-.332,1.157h.664Zm2.194,2.646.4,1.382.359-1.382Z" transform="translate(-235.121 -264.284)"/></g><path class="e" d="M1430-3199.425v-2h-2v-1h2v-2h1v2h2v1h-2v2Z" transform="translate(-1427 3220)"/><path class="e" d="M1430-3199.425v-2h-2v-1h2v-2h1v2h2v1h-2v2Z" transform="translate(-1396 3212)"/><g transform="translate(-1 27.243)"><g class="f"><path class="g" d="M13.642,17.35H3.009A2.01,2.01,0,0,0,1,19.36v.707a2.009,2.009,0,0,0,1.421,1.922,15.852,15.852,0,0,0,6,.885c3.294,0,6.018-.553,6.517-1.276a2.007,2.007,0,0,0,.709-1.531V19.36a2.01,2.01,0,0,0-2.01-2.01" transform="translate(-0.575 -9.968)"/><path class="h" d="M7.851,22.725a16.316,16.316,0,0,1-6.164-.915A2.422,2.422,0,0,1,0,19.492v-.707A2.438,2.438,0,0,1,2.435,16.35H13.067A2.438,2.438,0,0,1,15.5,18.785v.707a2.434,2.434,0,0,1-.821,1.822c-.767.974-3.962,1.41-6.83,1.41M2.435,17.2A1.586,1.586,0,0,0,.851,18.785v.707a1.576,1.576,0,0,0,1.12,1.515.37.37,0,0,1,.066.027,15.636,15.636,0,0,0,5.814.84c3.532,0,5.851-.634,6.167-1.092a.4.4,0,0,1,.074-.082,1.586,1.586,0,0,0,.56-1.208v-.707A1.586,1.586,0,0,0,13.067,17.2Z" transform="translate(0 -9.393)"/><path class="g" d="M16.295,16.885c0,.836-2.958,1.514-6.606,1.514s-6.606-.678-6.606-1.514,2.958-1.514,6.606-1.514,6.606.677,6.606,1.514" transform="translate(-1.771 -8.831)"/><path class="h" d="M9.114,18.25c-2.612,0-7.031-.409-7.031-1.939s4.419-1.94,7.031-1.94,7.032.408,7.032,1.94-4.42,1.939-7.032,1.939m0-3.028c-3.779,0-6.033.72-6.182,1.107.149.35,2.4,1.071,6.182,1.071s6.034-.72,6.183-1.107c-.149-.35-2.4-1.071-6.183-1.071" transform="translate(-1.197 -8.256)"/><path class="g" d="M13.642,10.268H3.009A2.01,2.01,0,0,0,1,12.278v.707a2.012,2.012,0,0,0,1.421,1.923,15.88,15.88,0,0,0,6,.885c3.294,0,6.018-.554,6.517-1.276a2.006,2.006,0,0,0,.709-1.531v-.707a2.01,2.01,0,0,0-2.01-2.01" transform="translate(-0.575 -5.899)"/><path class="h" d="M7.851,15.644a16.328,16.328,0,0,1-6.164-.915A2.423,2.423,0,0,1,0,12.41V11.7A2.438,2.438,0,0,1,2.435,9.268H13.067A2.438,2.438,0,0,1,15.5,11.7v.707a2.432,2.432,0,0,1-.821,1.822c-.767.974-3.962,1.411-6.83,1.411M2.435,10.119A1.586,1.586,0,0,0,.851,11.7v.707a1.577,1.577,0,0,0,1.12,1.516.385.385,0,0,1,.066.027,15.653,15.653,0,0,0,5.814.84c3.532,0,5.851-.634,6.167-1.093a.427.427,0,0,1,.074-.082,1.585,1.585,0,0,0,.56-1.208V11.7a1.587,1.587,0,0,0-1.585-1.585Z" transform="translate(0 -5.325)"/><path class="g" d="M16.295,9.8c0,.837-2.958,1.514-6.606,1.514S3.083,10.64,3.083,9.8,6.041,8.289,9.689,8.289s6.606.679,6.606,1.514" transform="translate(-1.771 -4.762)"/><path class="h" d="M9.114,11.168c-2.612,0-7.031-.408-7.031-1.939S6.5,7.289,9.114,7.289s7.032.409,7.032,1.94-4.42,1.939-7.032,1.939m0-3.028c-3.777,0-6.033.72-6.182,1.107.149.35,2.4,1.07,6.182,1.07S15.148,9.6,15.3,9.211c-.15-.351-2.406-1.071-6.183-1.071" transform="translate(-1.197 -4.188)"/><path class="g" d="M13.642,2.979H3.009A2.01,2.01,0,0,0,1,4.989V5.7A2.01,2.01,0,0,0,2.421,7.617a15.852,15.852,0,0,0,6,.885c3.294,0,6.018-.553,6.517-1.276A2,2,0,0,0,15.652,5.7V4.989a2.01,2.01,0,0,0-2.01-2.01" transform="translate(-0.575 -1.711)"/><path class="h" d="M7.851,8.354a16.32,16.32,0,0,1-6.164-.915A2.422,2.422,0,0,1,0,5.121V4.415A2.438,2.438,0,0,1,2.435,1.979H13.067A2.438,2.438,0,0,1,15.5,4.415v.707a2.432,2.432,0,0,1-.821,1.822c-.767.974-3.961,1.41-6.83,1.41M2.435,2.83A1.586,1.586,0,0,0,.851,4.415v.707a1.576,1.576,0,0,0,1.12,1.515.357.357,0,0,1,.066.027,15.633,15.633,0,0,0,5.814.84c3.532,0,5.851-.634,6.167-1.092a.417.417,0,0,1,.074-.083,1.583,1.583,0,0,0,.56-1.207V4.415A1.586,1.586,0,0,0,13.067,2.83Z" transform="translate(0 -1.137)"/><path class="g" d="M16.295,2.514c0,.836-2.958,1.514-6.606,1.514S3.083,3.35,3.083,2.514,6.041,1,9.689,1s6.606.677,6.606,1.514" transform="translate(-1.771 -0.575)"/><path class="h" d="M9.114,3.879C6.5,3.879,2.083,3.47,2.083,1.94S6.5,0,9.114,0s7.032.408,7.032,1.94-4.42,1.939-7.032,1.939m0-3.028c-3.778,0-6.033.72-6.182,1.106.149.351,2.4,1.071,6.182,1.071s6.034-.72,6.183-1.106c-.149-.35-2.4-1.071-6.183-1.071" transform="translate(-1.197 0)"/></g></g></g></svg>