<svg xmlns="http://www.w3.org/2000/svg" width="21" height="21" viewBox="0 0 21 21"><g transform="translate(-895 -751)"><g transform="translate(895 751)"><g fill="#2f80e5"><path d="M 18 20.5 L 3 20.5 C 1.621500015258789 20.5 0.5 19.37849998474121 0.5 18 L 0.5 3 C 0.5 1.621500015258789 1.621500015258789 0.5 3 0.5 L 18 0.5 C 19.37849998474121 0.5 20.5 1.621500015258789 20.5 3 L 20.5 18 C 20.5 19.37849998474121 19.37849998474121 20.5 18 20.5 Z" stroke="none"/><path d="M 3 1 C 1.897199630737305 1 1 1.897199630737305 1 3 L 1 18 C 1 19.1028003692627 1.897199630737305 20 3 20 L 18 20 C 19.1028003692627 20 20 19.1028003692627 20 18 L 20 3 C 20 1.897199630737305 19.1028003692627 1 18 1 L 3 1 M 3 0 L 18 0 C 19.65685081481934 0 21 1.343149185180664 21 3 L 21 18 C 21 19.65685081481934 19.65685081481934 21 18 21 L 3 21 C 1.343149185180664 21 0 19.65685081481934 0 18 L 0 3 C 0 1.343149185180664 1.343149185180664 0 3 0 Z" stroke="none" fill="#2f80e5"/></g><path d="M3.7,7.4h0L0,3.7,1.48,2.22l3.7,3.7L11.1,0l1.48,1.481-7.4,7.4Z" transform="translate(4.072 6.619)" fill="#fff"/></g></g></svg>