<svg xmlns="http://www.w3.org/2000/svg" xmlns:xlink="http://www.w3.org/1999/xlink" width="54" height="54" viewBox="0 0 54 54"><defs><style>.a,.e,.f{fill:none;}.b{clip-path:url(#a);}.c{fill:#fff;}.d{fill:#e1e1e1;}.e{stroke:#838383;}.e,.f{stroke-miterlimit:10;}.f{stroke:#747474;}.g{fill:#ff460a;}</style><clipPath id="a"><rect class="a" width="54" height="54"/></clipPath></defs><g class="b"><path class="c" d="M27,53.5A26.5,26.5,0,1,1,53.5,27,26.53,26.53,0,0,1,27,53.5"/><path class="d" d="M27,1A26,26,0,1,1,1,27,26.03,26.03,0,0,1,27,1m0-1A27,27,0,1,0,54,27,27,27,0,0,0,27,0"/><rect class="e" width="26.293" height="17.748" transform="translate(13.854 18.126)"/><line class="f" x2="13.166" y2="8.752" transform="translate(13.981 18.47)"/><line class="e" x1="13.032" y2="8.561" transform="translate(27.089 18.776)"/><path class="g" d="M28.58,27.04a1.5,1.5,0,1,1-1.5-1.5,1.5,1.5,0,0,1,1.5,1.5"/></g></svg>