<svg xmlns="http://www.w3.org/2000/svg" xmlns:xlink="http://www.w3.org/1999/xlink" width="54" height="54" viewBox="0 0 54 54"><defs><style>.a,.g{fill:none;}.b{clip-path:url(#a);}.c{fill:#fff;}.d{fill:#e1e1e1;}.e{fill:#838383;font-size:12px;font-family:MinSans-Regular, Min Sans;}.f{letter-spacing:-0.041em;}.g{stroke:#ff460a;stroke-linecap:round;stroke-miterlimit:10;stroke-width:2px;}</style><clipPath id="a"><rect class="a" width="54" height="54"/></clipPath></defs><g class="b"><path class="c" d="M27,53.5A26.5,26.5,0,1,1,53.5,27,26.53,26.53,0,0,1,27,53.5"/><path class="d" d="M27,1A26,26,0,1,1,1,27,26.03,26.03,0,0,1,27,1m0-1A27,27,0,1,0,54,27,27,27,0,0,0,27,0"/></g><text class="e" transform="translate(15.47 37.866)"><tspan class="f" x="0" y="0">T</tspan><tspan y="0">OP</tspan></text><g class="b"><line class="g" y1="6.268" x2="7.185" transform="translate(19.701 15.7)"/><line class="g" x1="7.185" y1="6.191" transform="translate(27.114 15.701)"/></g></svg>