<svg xmlns="http://www.w3.org/2000/svg" width="283.465" height="283.465" viewBox="0 0 283.465 283.465"><path fill="#F58220" d="M30.753 120.683c0 6.482 5.259 11.724 11.742 11.724 6.468 0 11.738-5.242 11.738-11.724 0-6.479-5.27-11.756-11.738-11.756-6.482 0-11.742 5.277-11.742 11.756zm7.669 0c0-2.25 1.813-4.08 4.073-4.08 2.245 0 4.081 1.83 4.081 4.08 0 2.241-1.836 4.071-4.081 4.071-2.26-.001-4.073-1.831-4.073-4.071z"/><path fill="#CAAE01" d="M49.248 153.881v24.65h29.498v-7.502h-21.162v-17.148h-8.336z"/><path fill="#006072" d="M93.131 120.065h.122c1.948-4.37 5.855-4.907 7.887-4.907 4.979 0 8.997 2.903 8.735 9.687v29.277h-8.735v-25.301c0-3.708-.409-6.118-3.701-6.267-3.304-.132-4.445 2.967-4.308 7.01v24.558h-8.758v-37.953h8.758v3.896zM136.325 129.357v-4.245c-.134-2.076-1.146-3.227-3.028-3.227-3.369 0-3.369 3.839-3.306 8.493v8.938c-.199 7.402.693 8.744 3.306 9.095 2.7-.079 2.774-2.563 3.028-5.593v-3.502h8.747v3.502c0 7.942-3.29 12.314-11.979 12.314-7.745 0-12.177-4.107-11.831-14.207v-12.314c-.069-10.629 5.168-13.455 11.831-13.455 8.814 0 12.059 5.518 11.979 11.172v3.027h-8.747zM163.819 122.897h.128c1.074-2.759 2.147-4.32 3.439-5.394 2.479-2.083 4.165-1.94 5.457-2.009v10.349c-4.856-.454-8.553.759-8.694 6.338v21.94h-8.75v-37.953h8.42v6.729zM198.133 148.475h-.131c-1.348 4.506-3.912 6.583-8.145 6.659-6.936 0-8.486-3.571-8.486-9.886v-29.079h8.747v25.983c0 1.682-.063 3.557.881 5.028.745.819 1.55 1.231 2.695 1.231 4.122 0 4.04-4.637 4.04-7.623v-24.62h8.738v37.953h-8.34v-5.646zM218.799 154.122v-37.953h8.75v37.953h-8.75zm0-42.546v-7.648h8.75v7.648h-8.75zM253.688 154.26c-5.174.599-12.452 1.066-12.452-5.992v-25.714h-3.563v-6.384h3.491v-10.431h8.823v10.431h3.701v6.384h-3.701v23.554c.203 1.623 2.624 1.418 3.701 1.301v6.851zM72.437 110.346v27.756c0 5.048-.545 10.407-1.032 14.061-.899 6.528-2.645 8.544-4.264 8.544-.602 0-1.33-.791-1.759-2.044-.458-1.327-.644-3.412-.673-5.021v-48.065c.038-1.945-.803-2.849-.803-2.849-.282-.368-1.3-1.228-2.456-1.952-1.916-1.146-4.494-2.665-5.645-3.442 0 0-.781-.416-.368-1.097.124-.196.404-.445.705-.591.631-.37 1.517-.561 2.635-.561 2.673 0 5.459.633 8.496 1.593 4.157 1.328 5.913 3.411 5.913 5.471 0 0 .005 1.149-.463 3.51.001-.002-.286 2.32-.286 4.687z"/><text transform="translate(257.667 155.134)" fill="#006072" font-family="'Dotum'" font-size="11">®</text></svg>