<svg xmlns="http://www.w3.org/2000/svg" xmlns:xlink="http://www.w3.org/1999/xlink" width="26" height="24" viewBox="0 0 26 24"><defs><clipPath id="a"><rect width="26" height="24" transform="translate(0.5)" fill="#fff"/></clipPath></defs><g transform="translate(-0.5)"><g clip-path="url(#a)"><path d="M22.15,24H4.85A4.239,4.239,0,0,1,1,21.977a4.38,4.38,0,0,1,.2-4.394L9.85,2.371A4.254,4.254,0,0,1,13.5,0a4.254,4.254,0,0,1,3.65,2.371L25.8,17.58a4.373,4.373,0,0,1,.2,4.394A4.239,4.239,0,0,1,22.15,24Z" fill="#ffe600"/><path d="M22.15,22.689H4.85a3.023,3.023,0,0,1-2.736-1.351,3.075,3.075,0,0,1,.185-3.1L10.95,3.033A3.023,3.023,0,0,1,13.5,1.309a3.023,3.023,0,0,1,2.55,1.724L24.7,18.241a3.072,3.072,0,0,1,.188,3.094A3.024,3.024,0,0,1,22.15,22.689ZM13.5,3.309c-.25,0-.561.273-.811.713L4.038,19.23a1.219,1.219,0,0,0-.2,1.1,1.163,1.163,0,0,0,1.007.358h17.3a1.164,1.164,0,0,0,1.009-.359,1.218,1.218,0,0,0-.2-1.1L14.311,4.021C14.061,3.582,13.75,3.309,13.5,3.309Z" fill="#fff"/><path d="M12.88,15.549a.761.761,0,0,0,.591.286h.013a.827.827,0,0,0,.441-.12.746.746,0,0,0,.323-.425,2.646,2.646,0,0,0,.088-.653c.01-.236.049-.959.119-2.164.07-1.25.1-1.989.1-2.319a1.1,1.1,0,0,0-.271-.726,1.021,1.021,0,0,0-.79-.367,1.076,1.076,0,0,0-.749.3,1.042,1.042,0,0,0-.328.783l.274,4.871a.919.919,0,0,0,.188.537Zm.581.76a1.008,1.008,0,0,0-.994,1A1.072,1.072,0,0,0,13.5,18.353h.013a1.023,1.023,0,0,0,.676-.254.944.944,0,0,0,.341-.721,1.058,1.058,0,0,0-.32-.794,1.07,1.07,0,0,0-.749-.28Z"/></g></g></svg>