<svg xmlns="http://www.w3.org/2000/svg" width="20" height="20" viewBox="0 0 20 20"><circle cx="10" cy="10" r="10" fill="#ff460a"/><path d="M9.43,11.586a.736.736,0,0,0,.553.246H10a.824.824,0,0,0,.413-.1.651.651,0,0,0,.3-.365,2.107,2.107,0,0,0,.082-.562c.01-.2.046-.826.111-1.864.065-1.076.1-1.712.1-2a.908.908,0,0,0-.254-.625A.991.991,0,0,0,10.007,6a1.056,1.056,0,0,0-.7.255A.864.864,0,0,0,9,6.93l.256,4.194a.753.753,0,0,0,.176.463Zm.543.654a.963.963,0,0,0-.645.246.809.809,0,0,0-.285.616.848.848,0,0,0,.295.629A.993.993,0,0,0,10.01,14h.012a1.007,1.007,0,0,0,.633-.219.789.789,0,0,0,.319-.621.875.875,0,0,0-.3-.684,1.051,1.051,0,0,0-.7-.241Z" fill="#fff"/></svg>