<svg width="440" height="236" viewBox="0 0 440 236" fill="none" xmlns="http://www.w3.org/2000/svg">
<rect width="440" height="236" rx="10" fill="#F7F7F7"/>
<path d="M126.98 25.2168C126.98 27.8535 128.334 30.666 131.023 31.791L129.775 33.584C127.912 32.7754 126.593 31.1582 125.855 29.1895C125.134 31.334 123.816 33.1094 121.9 33.9883L120.617 32.1953C123.306 30.9824 124.677 27.9766 124.677 25.2168V24.2324H121.25V22.3516H130.373V24.2324H126.98V25.2168ZM131.92 37.0469V20.8047H134.205V37.0469H131.92ZM149.434 21.5254V22.8086C149.434 24.1094 149.434 25.498 149.048 27.3789H151.175V29.1895H136.462V27.3789H146.798C147.149 25.7441 147.202 24.4785 147.202 23.3359H138.272V21.5254H149.434ZM138.184 36.8711V30.9121H149.364V36.8711H138.184ZM140.417 35.0781H147.149V32.6875H140.417V35.0781ZM169.277 20.7695V37.0645H166.991V20.7695H169.277ZM156.269 27.7129C156.269 24.1621 158.079 21.9121 160.54 21.9121C162.984 21.9121 164.794 24.1621 164.794 27.7129C164.794 31.2812 162.984 33.5137 160.54 33.5137C158.079 33.5137 156.269 31.2812 156.269 27.7129ZM158.466 27.7129C158.466 30.1387 159.292 31.457 160.54 31.457C161.771 31.457 162.614 30.1387 162.614 27.7129C162.614 25.2871 161.771 23.9863 160.54 23.9863C159.292 23.9863 158.466 25.2871 158.466 27.7129ZM182.421 30.9121C185.92 30.9121 188.17 32.0723 188.17 33.9883C188.17 35.8867 185.92 37.0469 182.421 37.0469C178.906 37.0469 176.656 35.8867 176.656 33.9883C176.656 32.0723 178.906 30.9121 182.421 30.9121ZM175.179 29.8574V28.0645H180.646V25.2168H182.914V28.0645H189.822V29.8574H175.179ZM176.832 23.3184V21.5254H188.082V22.8613C188.082 24.1445 188.082 25.5156 187.625 27.2031L185.375 26.9746C185.761 25.5156 185.814 24.4082 185.814 23.3184H176.832ZM178.923 33.9883C178.923 34.8672 180.189 35.3242 182.421 35.3242C184.636 35.3242 185.92 34.8672 185.92 33.9883C185.92 33.0918 184.636 32.6172 182.421 32.6172C180.189 32.6172 178.923 33.0918 178.923 33.9883ZM204.155 22.1934V23.7402C204.155 25.7793 204.155 28.0645 203.505 31.5098L201.237 31.2637C201.835 28.1699 201.87 25.9023 201.87 24.0039H192.395V22.1934H204.155ZM190.884 35.0605V33.2148H196.122V27.625H198.389V33.2148H205.579V35.0605H190.884ZM220.545 20.7871V37.0293H218.383V20.7871H220.545ZM206.729 27.8359C206.729 24.1797 208.117 21.9473 210.244 21.9473C212.195 21.9473 213.496 23.7578 213.742 26.7988H215.078V21.0508H217.205V36.3086H215.078V28.627H213.76C213.566 31.8086 212.248 33.7246 210.244 33.7246C208.117 33.7246 206.729 31.4922 206.729 27.8359ZM208.803 27.8359C208.803 30.332 209.33 31.5801 210.244 31.5801C211.176 31.5801 211.703 30.332 211.703 27.8359C211.703 25.3398 211.176 24.0918 210.244 24.0918C209.33 24.0918 208.803 25.3398 208.803 27.8359ZM239.438 20.8047V29.5234H237.153V20.8047H239.438ZM226.184 25.2871C226.184 23.0547 228.082 21.4727 230.596 21.4727C233.127 21.4727 235.008 23.0547 235.008 25.2871C235.008 27.5371 233.127 29.1367 230.596 29.1367C228.082 29.1367 226.184 27.5371 226.184 25.2871ZM228.416 25.2871C228.416 26.5352 229.33 27.2559 230.596 27.2559C231.879 27.2559 232.793 26.5352 232.793 25.2871C232.793 24.0742 231.879 23.3359 230.596 23.3359C229.33 23.3359 228.416 24.0742 228.416 25.2871ZM228.663 36.8711V30.2441H230.895V31.791H237.188V30.2441H239.438V36.8711H228.663ZM230.895 35.043H237.188V33.5312H230.895V35.043ZM247.619 24.4609C247.619 27.3613 248.814 30.332 251.398 31.5801L250.027 33.4082C248.322 32.5293 247.162 30.9297 246.494 28.9785C245.791 31.0703 244.543 32.793 242.714 33.6895L241.343 31.8613C244.05 30.5957 245.351 27.4668 245.351 24.4609V22.0527H247.619V24.4609ZM252.101 37.0469V20.8047H254.386V27.0625H256.759V28.9434H254.386V37.0469H252.101ZM263.639 25.2168C263.639 27.8535 264.993 30.666 267.682 31.791L266.434 33.584C264.571 32.7754 263.253 31.1582 262.514 29.1895C261.794 31.334 260.475 33.1094 258.559 33.9883L257.276 32.1953C259.966 30.9824 261.337 27.9766 261.337 25.2168V24.2324H257.909V22.3516H267.032V24.2324H263.639V25.2168ZM268.579 37.0469V20.8047H270.864V37.0469H268.579ZM286.762 20.7871V33.0918H284.494V31.791H281.418V30.2441H284.494V20.7871H286.762ZM273.051 27.9941C276.021 27.9941 279.994 27.959 283.387 27.5195L283.545 29.1367C282.262 29.3477 280.943 29.5059 279.643 29.6113V32.6699H277.375V34.9375H287.131V36.748H275.107V31.9316H277.375V29.7344C275.934 29.7871 274.545 29.8047 273.332 29.8047L273.051 27.9941ZM274.229 24.25C274.229 22.5273 275.898 21.3496 278.289 21.3496C280.662 21.3496 282.314 22.5273 282.314 24.25C282.314 25.9902 280.662 27.1328 278.289 27.1328C275.898 27.1328 274.229 25.9902 274.229 24.25ZM276.391 24.25C276.391 25.0586 277.164 25.4805 278.289 25.4805C279.396 25.4805 280.17 25.0586 280.17 24.25C280.17 23.4414 279.396 23.0195 278.289 23.0195C277.164 23.0195 276.391 23.4414 276.391 24.25ZM301.552 20.8047V27.1504H303.925V29.0312H301.552V37.0469H299.284V20.8047H301.552ZM288.755 25.0059V23.2129H292.376V21.0508H294.661V23.2129H298.23V25.0059H288.755ZM289.423 29.8223C289.423 27.5723 291.163 25.9727 293.519 25.9727C295.892 25.9727 297.632 27.5723 297.632 29.8223C297.632 32.0898 295.892 33.6895 293.519 33.6895C291.163 33.6895 289.423 32.0898 289.423 29.8223ZM291.585 29.8223C291.585 31.0879 292.394 31.8438 293.519 31.8438C294.644 31.8438 295.47 31.0879 295.47 29.8223C295.47 28.5742 294.644 27.8184 293.519 27.8184C292.394 27.8184 291.585 28.5742 291.585 29.8223ZM312.879 22.1055V23.3711H315.85V20.8047H318.135V32.6348H315.85V28.6621H312.879V30.0332H305.233V22.1055H312.879ZM307.413 36.748V31.5273H309.68V34.9375H318.487V36.748H307.413ZM307.465 28.2402H310.664V23.8809H307.465V28.2402ZM312.879 26.8516H315.85V25.1816H312.879V26.8516ZM290.502 48.0156C294.211 48.0156 296.373 49 296.373 50.793C296.373 52.6035 294.211 53.5879 290.502 53.5879C286.811 53.5879 284.631 52.6035 284.631 50.793C284.631 49 286.811 48.0156 290.502 48.0156ZM283.155 56.1543V54.3613H297.85V56.1543H283.155ZM284.842 58.7734V57.1035H296.057V61.2344H287.11V62.2188H296.496V63.9238H284.877V59.6523H293.825V58.7734H284.842ZM287.004 50.793C287.004 51.584 288.147 51.918 290.502 51.918C292.875 51.918 294.018 51.584 294.018 50.793C294.018 50.0547 292.875 49.6855 290.502 49.6855C288.147 49.6855 287.004 50.0547 287.004 50.793ZM315.653 55.3105V57.1211H304.245V49.1406H315.512V50.9688H306.495V55.3105H315.653ZM302.522 62.0781V60.2148H317.235V62.0781H302.522ZM331.814 47.7695V64.0645H329.547V57.4902H326.787V55.6797H329.547V53.0781H326.84V51.25H329.547V47.7695H331.814ZM318.771 50.9688V49.1582H326.014V55.3984H321.039V58.5801C323.043 58.5625 324.801 58.4746 326.84 58.1758L327.016 60.0215C324.625 60.3906 322.551 60.4434 320.072 60.4434H318.789V53.623H323.781V50.9688H318.771ZM348.679 60.3027V62.1484H333.966V60.3027H337.218V56.2773C335.987 55.5215 335.249 54.3789 335.249 52.9551C335.249 50.3008 337.816 48.5957 341.296 48.5957C344.794 48.5957 347.361 50.3008 347.361 52.9551C347.361 54.3789 346.622 55.5215 345.392 56.2773V60.3027H348.679ZM337.482 52.9551C337.482 54.5723 339.011 55.5391 341.296 55.5391C343.599 55.5391 345.128 54.5723 345.128 52.9551C345.128 51.3203 343.599 50.3711 341.296 50.3711C339.011 50.3711 337.482 51.3203 337.482 52.9551ZM339.486 60.3027H343.124V57.1211C342.562 57.2441 341.946 57.2969 341.296 57.2969C340.663 57.2969 340.048 57.2441 339.486 57.1387V60.3027ZM350.461 58.5449L349.67 49.5625H352.782L351.991 58.5449H350.461ZM349.846 62.5V59.7754H352.571V62.5H349.846Z" fill="#121212"/>
<path d="M100.736 47.8047V59.4941H98.4508V47.8047H100.736ZM87.482 52.9551C87.482 50.5469 89.4156 48.8418 91.8941 48.8418C94.3902 48.8418 96.3062 50.5469 96.3062 52.9551C96.3062 55.3281 94.3902 57.0684 91.8941 57.0684C89.4156 57.0684 87.482 55.3281 87.482 52.9551ZM89.7144 52.9551C89.7144 54.2734 90.6637 55.082 91.8941 55.082C93.1422 55.082 94.0914 54.2734 94.0914 52.9551C94.0914 51.6016 93.1422 50.793 91.8941 50.793C90.6637 50.793 89.7144 51.6016 89.7144 52.9551ZM89.943 63.748V58.3164H92.2105V61.9375H101.158V63.748H89.943ZM116.159 49.2285V51.1094C116.159 53.4824 116.159 55.7324 115.403 59.248L113.153 59.0547C113.47 57.7012 113.663 56.5059 113.768 55.3984L104.452 55.8555L104.171 54.0273L113.891 53.6934C113.927 52.7969 113.927 51.9531 113.927 51.1094V51.0391H104.628V49.2285H116.159ZM102.975 62.0957V60.25H117.671V62.0957H102.975ZM131.705 48.3145V53.1133H122.705V54.502H132.092V56.2949H120.402V51.4082H129.402V50.1074H120.385V48.3145H131.705ZM118.697 59.3535V57.5254H133.41V59.3535H127.152V64.0645H124.885V59.3535H118.697ZM147.55 56.1895V57.9824H136.142V48.9824H147.427V50.8105H138.462V52.5684H147.058V54.3262H138.462V56.1895H147.55ZM134.419 62.166V60.3203H149.132V62.166H134.419ZM167.252 47.8047V59.4941H164.966V47.8047H167.252ZM153.998 52.9551C153.998 50.5469 155.931 48.8418 158.41 48.8418C160.906 48.8418 162.822 50.5469 162.822 52.9551C162.822 55.3281 160.906 57.0684 158.41 57.0684C155.931 57.0684 153.998 55.3281 153.998 52.9551ZM156.23 52.9551C156.23 54.2734 157.179 55.082 158.41 55.082C159.658 55.082 160.607 54.2734 160.607 52.9551C160.607 51.6016 159.658 50.793 158.41 50.793C157.179 50.793 156.23 51.6016 156.23 52.9551ZM156.459 63.748V58.3164H158.726V61.9375H167.673V63.748H156.459ZM178.755 48.7012V50.5117H175.573C175.591 52.4102 176.733 54.3789 179.264 55.2402L178.157 57.0156C176.382 56.418 175.151 55.2402 174.448 53.7812C173.745 55.3984 172.462 56.6992 170.546 57.332L169.403 55.5391C172.04 54.6602 173.253 52.5508 173.27 50.5117H170.036V48.7012H178.755ZM172.005 60.0215V58.2109H183.061V64.0469H180.776V60.0215H172.005ZM178.315 53.5352V51.6895H180.776V47.8047H183.061V57.4551H180.776V53.5352H178.315ZM191.312 50.002C191.312 52.1816 192.402 54.1855 194.951 55.0117L193.791 56.7871C192.068 56.1895 190.891 55.0645 190.205 53.623C189.484 55.293 188.184 56.6113 186.25 57.2617L185.072 55.4512C187.814 54.5547 188.992 52.3574 188.992 50.1074V48.6484H191.312V50.002ZM187.744 60.8828C187.744 58.8965 189.854 57.7363 193.299 57.7363C196.727 57.7363 198.836 58.8965 198.836 60.8828C198.836 62.8867 196.727 64.0469 193.299 64.0469C189.854 64.0469 187.744 62.8867 187.744 60.8828ZM189.994 60.8828C189.994 61.832 191.154 62.2891 193.299 62.2891C195.426 62.2891 196.586 61.832 196.586 60.8828C196.586 59.9512 195.426 59.4941 193.299 59.4941C191.154 59.4941 189.994 59.9512 189.994 60.8828ZM193.51 52.6211V50.7754H196.498V47.8047H198.783V57.3145H196.498V52.6211H193.51ZM209.284 48.7188C209.284 53.0078 206.63 55.9434 201.884 57.2441L201.005 55.4863C204.521 54.5195 206.507 52.7441 206.859 50.5293H201.884V48.7188H209.284ZM203.818 63.8535V57.543H214.505V63.8535H203.818ZM206.05 62.0605H212.273V59.3359H206.05V62.0605ZM209.372 53.5V51.6543H212.22V47.7871H214.505V56.8926H212.22V53.5H209.372ZM222.598 51.4609C222.598 54.3613 223.793 57.332 226.377 58.5801L225.006 60.4082C223.301 59.5293 222.141 57.9297 221.473 55.9785C220.77 58.0703 219.522 59.793 217.694 60.6895L216.323 58.8613C219.03 57.5957 220.33 54.4668 220.33 51.4609V49.0527H222.598V51.4609ZM227.08 64.0469V47.8047H229.366V54.0625H231.739V55.9434H229.366V64.0469H227.08ZM250.684 55.3984V57.1914H235.989V55.3984H250.684ZM237.466 51.3203C237.466 49.3516 239.786 48.1387 243.337 48.1387C246.905 48.1387 249.208 49.3516 249.208 51.3203C249.208 53.2891 246.905 54.502 243.337 54.502C239.786 54.502 237.466 53.2891 237.466 51.3203ZM237.677 61.0762C237.677 59.1777 239.804 58.1055 243.302 58.1055C246.817 58.1055 248.944 59.1777 248.944 61.0762C248.944 62.9746 246.817 64.0469 243.302 64.0469C239.804 64.0469 237.677 62.9746 237.677 61.0762ZM239.821 51.3203C239.821 52.2695 241.104 52.7441 243.337 52.7441C245.587 52.7441 246.87 52.2695 246.87 51.3203C246.87 50.3711 245.587 49.8789 243.337 49.8789C241.104 49.8789 239.821 50.3711 239.821 51.3203ZM239.962 61.0762C239.962 61.9375 241.104 62.3242 243.302 62.3242C245.516 62.3242 246.641 61.9375 246.641 61.0762C246.641 60.2324 245.516 59.8281 243.302 59.8281C241.104 59.8281 239.962 60.2324 239.962 61.0762ZM257.986 51.4609C257.986 54.4668 259.322 57.4375 262.064 58.6152L260.746 60.4609C258.9 59.5996 257.617 57.9824 256.879 55.9785C256.158 58.1582 254.84 59.916 252.871 60.8301L251.518 58.9668C254.312 57.7363 255.701 54.6074 255.701 51.4609V49.0527H257.986V51.4609ZM262.908 64.0645V47.7695H265.193V64.0645H262.908ZM281.214 47.7871V60.0215H278.929V58.2285H275.765V56.4707H278.929V47.7871H281.214ZM267.327 53.957C269.243 53.9395 271.581 53.9219 273.937 53.7812C274.165 52.375 274.236 51.2676 274.271 50.4062H268.804V48.6133H276.538V49.1758C276.538 50.0371 276.538 51.5488 276.222 53.5879C276.749 53.5352 277.277 53.4824 277.786 53.4121L277.927 55.0117C276.609 55.2578 275.237 55.416 273.884 55.5215V59.0195H271.827V61.9375H281.583V63.748H269.56V58.8086H271.616V55.6621C270.175 55.7148 268.821 55.75 267.609 55.75L267.327 53.957Z" fill="#FF460A"/>
<g filter="url(#filter0_di_89_52)">
<mask id="path-3-inside-1_89_52" fill="white">
<path fill-rule="evenodd" clip-rule="evenodd" d="M79.5 83.5C75.0817 83.5 71.5 87.0817 71.5 91.5V205.5C71.5 209.918 75.0817 213.5 79.5 213.5H126.5C130.918 213.5 134.5 209.918 134.5 205.5C134.5 209.918 138.082 213.5 142.5 213.5H337.5C341.918 213.5 345.5 209.918 345.5 205.5V91.5C345.5 87.0817 341.918 83.5 337.5 83.5H142.5C138.082 83.5 134.5 87.0817 134.5 91.5C134.5 87.0817 130.918 83.5 126.5 83.5H79.5Z"/>
</mask>
<path fill-rule="evenodd" clip-rule="evenodd" d="M79.5 83.5C75.0817 83.5 71.5 87.0817 71.5 91.5V205.5C71.5 209.918 75.0817 213.5 79.5 213.5H126.5C130.918 213.5 134.5 209.918 134.5 205.5C134.5 209.918 138.082 213.5 142.5 213.5H337.5C341.918 213.5 345.5 209.918 345.5 205.5V91.5C345.5 87.0817 341.918 83.5 337.5 83.5H142.5C138.082 83.5 134.5 87.0817 134.5 91.5C134.5 87.0817 130.918 83.5 126.5 83.5H79.5Z" fill="white"/>
<path d="M72.5 91.5C72.5 87.634 75.634 84.5 79.5 84.5V82.5C74.5294 82.5 70.5 86.5294 70.5 91.5H72.5ZM72.5 205.5V91.5H70.5V205.5H72.5ZM79.5 212.5C75.634 212.5 72.5 209.366 72.5 205.5H70.5C70.5 210.471 74.5294 214.5 79.5 214.5V212.5ZM126.5 212.5H79.5V214.5H126.5V212.5ZM133.5 205.5C133.5 209.366 130.366 212.5 126.5 212.5V214.5C131.471 214.5 135.5 210.471 135.5 205.5H133.5ZM142.5 212.5C138.634 212.5 135.5 209.366 135.5 205.5H133.5C133.5 210.471 137.529 214.5 142.5 214.5V212.5ZM337.5 212.5H142.5V214.5H337.5V212.5ZM344.5 205.5C344.5 209.366 341.366 212.5 337.5 212.5V214.5C342.471 214.5 346.5 210.471 346.5 205.5H344.5ZM344.5 91.5V205.5H346.5V91.5H344.5ZM337.5 84.5C341.366 84.5 344.5 87.634 344.5 91.5H346.5C346.5 86.5294 342.471 82.5 337.5 82.5V84.5ZM142.5 84.5H337.5V82.5H142.5V84.5ZM135.5 91.5C135.5 87.634 138.634 84.5 142.5 84.5V82.5C137.529 82.5 133.5 86.5294 133.5 91.5H135.5ZM126.5 84.5C130.366 84.5 133.5 87.634 133.5 91.5H135.5C135.5 86.5294 131.471 82.5 126.5 82.5V84.5ZM79.5 84.5H126.5V82.5H79.5V84.5Z" fill="white" mask="url(#path-3-inside-1_89_52)"/>
</g>
<rect x="71.5" y="83.5" width="63" height="130" rx="8" fill="url(#paint0_linear_89_52)"/>
<path d="M188.794 110.805V122.494H186.509V110.805H188.794ZM175.54 115.955C175.54 113.547 177.474 111.842 179.952 111.842C182.448 111.842 184.364 113.547 184.364 115.955C184.364 118.328 182.448 120.068 179.952 120.068C177.474 120.068 175.54 118.328 175.54 115.955ZM177.773 115.955C177.773 117.273 178.722 118.082 179.952 118.082C181.2 118.082 182.15 117.273 182.15 115.955C182.15 114.602 181.2 113.793 179.952 113.793C178.722 113.793 177.773 114.602 177.773 115.955ZM178.001 126.748V121.316H180.269V124.938H189.216V126.748H178.001ZM200.297 111.701V113.512H197.116C197.133 115.41 198.276 117.379 200.807 118.24L199.7 120.016C197.924 119.418 196.694 118.24 195.991 116.781C195.288 118.398 194.004 119.699 192.088 120.332L190.946 118.539C193.582 117.66 194.795 115.551 194.813 113.512H191.579V111.701H200.297ZM193.547 123.021V121.211H204.604V127.047H202.319V123.021H193.547ZM199.858 116.535V114.689H202.319V110.805H204.604V120.455H202.319V116.535H199.858ZM212.855 113.002C212.855 115.182 213.945 117.186 216.494 118.012L215.334 119.787C213.611 119.189 212.433 118.064 211.748 116.623C211.027 118.293 209.726 119.611 207.793 120.262L206.615 118.451C209.357 117.555 210.535 115.357 210.535 113.107V111.648H212.855V113.002ZM209.287 123.883C209.287 121.896 211.396 120.736 214.841 120.736C218.269 120.736 220.379 121.896 220.379 123.883C220.379 125.887 218.269 127.047 214.841 127.047C211.396 127.047 209.287 125.887 209.287 123.883ZM211.537 123.883C211.537 124.832 212.697 125.289 214.841 125.289C216.968 125.289 218.129 124.832 218.129 123.883C218.129 122.951 216.968 122.494 214.841 122.494C212.697 122.494 211.537 122.951 211.537 123.883ZM215.052 115.621V113.775H218.041V110.805H220.326V120.314H218.041V115.621H215.052ZM230.827 111.719C230.827 116.008 228.173 118.943 223.427 120.244L222.548 118.486C226.063 117.52 228.05 115.744 228.401 113.529H223.427V111.719H230.827ZM225.36 126.854V120.543H236.048V126.854H225.36ZM227.593 125.061H233.815V122.336H227.593V125.061ZM230.915 116.5V114.654H233.763V110.787H236.048V119.893H233.763V116.5H230.915ZM244.141 114.461C244.141 117.361 245.336 120.332 247.92 121.58L246.549 123.408C244.844 122.529 243.684 120.93 243.016 118.979C242.313 121.07 241.064 122.793 239.236 123.689L237.865 121.861C240.572 120.596 241.873 117.467 241.873 114.461V112.053H244.141V114.461ZM248.623 127.047V110.805H250.908V117.062H253.281V118.943H250.908V127.047H248.623ZM272.227 118.398V120.191H257.532V118.398H272.227ZM259.008 114.32C259.008 112.352 261.329 111.139 264.879 111.139C268.448 111.139 270.75 112.352 270.75 114.32C270.75 116.289 268.448 117.502 264.879 117.502C261.329 117.502 259.008 116.289 259.008 114.32ZM259.219 124.076C259.219 122.178 261.346 121.105 264.844 121.105C268.36 121.105 270.487 122.178 270.487 124.076C270.487 125.975 268.36 127.047 264.844 127.047C261.346 127.047 259.219 125.975 259.219 124.076ZM261.364 114.32C261.364 115.27 262.647 115.744 264.879 115.744C267.129 115.744 268.413 115.27 268.413 114.32C268.413 113.371 267.129 112.879 264.879 112.879C262.647 112.879 261.364 113.371 261.364 114.32ZM261.504 124.076C261.504 124.938 262.647 125.324 264.844 125.324C267.059 125.324 268.184 124.938 268.184 124.076C268.184 123.232 267.059 122.828 264.844 122.828C262.647 122.828 261.504 123.232 261.504 124.076ZM279.529 114.461C279.529 117.467 280.865 120.438 283.607 121.615L282.289 123.461C280.443 122.6 279.16 120.982 278.421 118.979C277.701 121.158 276.382 122.916 274.414 123.83L273.06 121.967C275.855 120.736 277.244 117.607 277.244 114.461V112.053H279.529V114.461ZM284.451 127.064V110.77H286.736V127.064H284.451ZM302.757 110.787V123.021H300.471V121.229H297.307V119.471H300.471V110.787H302.757ZM288.87 116.957C290.786 116.939 293.124 116.922 295.479 116.781C295.708 115.375 295.778 114.268 295.813 113.406H290.346V111.613H298.081V112.176C298.081 113.037 298.081 114.549 297.764 116.588C298.292 116.535 298.819 116.482 299.329 116.412L299.47 118.012C298.151 118.258 296.78 118.416 295.427 118.521V122.02H293.37V124.938H303.126V126.748H291.102V121.809H293.159V118.662C291.718 118.715 290.364 118.75 289.151 118.75L288.87 116.957Z" fill="#454545"/>
<path d="M212.479 149.5V148.461H214.693V140.873L212.889 142.008L212.369 141.133L215.049 139.438H215.938V148.461H218.166V149.5H212.479ZM223.662 149.623C222.445 149.623 221.188 149.158 220.354 148.365L220.791 147.449C221.775 148.229 222.705 148.625 223.662 148.625C225.07 148.625 225.904 147.777 225.904 146.383C225.904 145.029 225.057 144.154 223.744 144.154C222.801 144.154 222.021 144.359 221.461 144.688H220.627L221.092 139.438H226.697V140.381H222.158L221.898 143.525C222.432 143.307 223.143 143.184 223.963 143.184C225.836 143.184 227.094 144.428 227.094 146.342C227.094 148.324 225.74 149.623 223.662 149.623ZM228.297 152.07L229.008 148.092H230.279L229.145 152.07H228.297ZM235.311 149.623C233.027 149.623 231.77 147.791 231.77 144.469C231.77 141.146 233.027 139.301 235.311 139.301C237.594 139.301 238.852 141.146 238.852 144.469C238.852 147.791 237.594 149.623 235.311 149.623ZM232.973 144.469C232.973 147.244 233.725 148.557 235.311 148.557C236.896 148.557 237.648 147.244 237.648 144.469C237.648 141.68 236.896 140.381 235.311 140.381C233.725 140.381 232.973 141.68 232.973 144.469ZM243.896 149.623C241.613 149.623 240.355 147.791 240.355 144.469C240.355 141.146 241.613 139.301 243.896 139.301C246.18 139.301 247.438 141.146 247.438 144.469C247.438 147.791 246.18 149.623 243.896 149.623ZM241.559 144.469C241.559 147.244 242.311 148.557 243.896 148.557C245.482 148.557 246.234 147.244 246.234 144.469C246.234 141.68 245.482 140.381 243.896 140.381C242.311 140.381 241.559 141.68 241.559 144.469ZM252.482 149.623C250.199 149.623 248.941 147.791 248.941 144.469C248.941 141.146 250.199 139.301 252.482 139.301C254.766 139.301 256.023 141.146 256.023 144.469C256.023 147.791 254.766 149.623 252.482 149.623ZM250.145 144.469C250.145 147.244 250.896 148.557 252.482 148.557C254.068 148.557 254.82 147.244 254.82 144.469C254.82 141.68 254.068 140.381 252.482 140.381C250.896 140.381 250.145 141.68 250.145 144.469ZM267.562 138.207V147.6H266.455V146.314H263.939V145.508H266.455V138.207H267.562ZM257.404 143.922C259.674 143.922 262.736 143.895 265.361 143.553L265.443 144.359C264.35 144.537 263.201 144.646 262.08 144.715V147.162H260.973V144.783C259.742 144.824 258.566 144.838 257.541 144.838L257.404 143.922ZM258.375 140.859C258.375 139.561 259.605 138.713 261.41 138.713C263.215 138.713 264.445 139.561 264.445 140.859C264.445 142.172 263.215 143.006 261.41 143.006C259.605 143.006 258.375 142.172 258.375 140.859ZM259.154 150.279V146.684H260.262V149.363H267.863V150.279H259.154ZM259.428 140.859C259.428 141.652 260.234 142.172 261.41 142.172C262.586 142.172 263.393 141.652 263.393 140.859C263.393 140.053 262.586 139.533 261.41 139.533C260.234 139.533 259.428 140.053 259.428 140.859Z" fill="#999999"/>
<line x1="209.5" y1="144" x2="271.5" y2="144" stroke="#999999"/>
<path d="M238.406 174.188V178.188H227.531V187.469H222.5V178.188H211.875V174.188H238.406ZM214.75 171.5V159.469H235.375V171.5H214.75ZM219.719 167.562H230.438V163.406H219.719V167.562ZM267.156 180.375V184.438H240.625V180.375H246.969V176.469H243.531V166.156H259.344V163.844H243.5V159.875H264.344V170.062H248.531V172.469H265V176.469H261.125V180.375H267.156ZM251.906 180.375H256.188V176.469H251.906V180.375Z" fill="#355DDC"/>
<path d="M98.875 190.152L98.875 184.422L100.164 184.422L100.164 188.43L102.637 188.43L102.637 184.668L103.926 184.668L103.926 188.43L107.5 188.43L107.5 190.152L98.875 190.152ZM107.5 183.18L98.875 183.18L98.875 179.664C98.875 177.789 99.9297 176.629 101.582 176.629C102.672 176.629 103.492 177.168 103.902 178.094L107.5 176.149L107.5 177.977L104.207 179.746L104.207 181.457L107.5 181.457L107.5 183.18ZM102.918 181.457L102.918 179.664C102.918 178.797 102.437 178.281 101.582 178.281C100.785 178.281 100.34 178.809 100.34 179.664L100.34 181.457L102.918 181.457ZM98.875 175.047L98.875 169.317L100.164 169.317L100.164 173.324L102.496 173.324L102.496 169.563L103.785 169.563L103.785 173.324L106.211 173.324L106.211 169.281L107.5 169.281L107.5 175.047L98.875 175.047ZM98.875 167.793L98.875 162.063L100.164 162.063L100.164 166.07L102.496 166.07L102.496 162.309L103.785 162.309L103.785 166.07L106.211 166.07L106.211 162.027L107.5 162.027L107.5 167.793L98.875 167.793ZM106.633 148.539C107.242 149.102 107.629 150.18 107.629 151.328C107.629 153.777 105.895 155.348 103.187 155.348C100.48 155.348 98.7461 153.777 98.7461 151.328C98.7461 150.18 99.1328 149.102 99.7422 148.539L101.09 149.078C100.527 149.735 100.211 150.567 100.211 151.328C100.211 152.711 101.301 153.52 103.187 153.52C105.074 153.52 106.164 152.711 106.164 151.328C106.164 150.567 105.848 149.735 105.285 149.078L106.633 148.539ZM107.629 143.641C107.629 146.102 105.906 147.672 103.187 147.672C100.469 147.672 98.7461 146.102 98.7461 143.641C98.7461 141.18 100.469 139.621 103.187 139.621C105.906 139.621 107.629 141.18 107.629 143.641ZM103.187 145.844C105.074 145.844 106.164 145.035 106.164 143.641C106.164 142.258 105.074 141.449 103.187 141.449C101.301 141.449 100.211 142.258 100.211 143.641C100.211 145.035 101.301 145.844 103.187 145.844ZM103.996 136.422C105.367 136.422 106.164 135.766 106.164 134.606C106.164 133.457 105.367 132.789 103.996 132.789L98.875 132.789L98.875 131.067L103.996 131.067C106.223 131.067 107.629 132.438 107.629 134.606C107.629 136.774 106.223 138.145 103.996 138.145L98.875 138.145L98.875 136.422L103.996 136.422ZM98.875 125.817C98.875 123.942 99.9648 122.781 101.676 122.781C103.398 122.781 104.477 123.965 104.477 125.817L104.477 127.61L107.5 127.61L107.5 129.332L98.875 129.332L98.875 125.817ZM103.012 127.61L103.012 125.817C103.012 124.938 102.52 124.434 101.676 124.434C100.82 124.434 100.34 124.949 100.34 125.817L100.34 127.61L103.012 127.61ZM107.629 117.883C107.629 120.344 105.906 121.914 103.187 121.914C100.469 121.914 98.7461 120.344 98.7461 117.883C98.7461 115.422 100.469 113.863 103.187 113.863C105.906 113.863 107.629 115.422 107.629 117.883ZM103.187 120.086C105.074 120.086 106.164 119.277 106.164 117.883C106.164 116.5 105.074 115.692 103.187 115.692C101.301 115.692 100.211 116.5 100.211 117.883C100.211 119.277 101.301 120.086 103.187 120.086ZM98.875 111.063L104.617 106.949L98.875 106.949L98.875 105.344L107.5 105.344L107.5 106.668L101.758 110.77L107.5 110.77L107.5 112.387L98.875 112.387L98.875 111.063Z" fill="white"/>
<g filter="url(#filter1_dii_89_52)">
<circle cx="342" cy="138" r="24.5" fill="url(#paint1_linear_89_52)"/>
</g>
<g filter="url(#filter2_d_89_52)">
<path fill-rule="evenodd" clip-rule="evenodd" d="M354.632 130.487C355.275 131.149 355.259 132.206 354.597 132.849L339.446 147.549C338.798 148.178 337.767 148.178 337.119 147.549L329.404 140.063C328.741 139.421 328.725 138.363 329.368 137.701C330.01 137.039 331.068 137.023 331.73 137.665L338.282 144.023L352.27 130.451C352.932 129.809 353.99 129.825 354.632 130.487Z" fill="white"/>
<path d="M329.009 137.353L329.366 137.7L329.009 137.353C328.174 138.213 328.195 139.588 329.055 140.422L336.771 147.908C337.613 148.725 338.952 148.725 339.794 147.908L354.945 133.208C355.805 132.373 355.826 130.999 354.991 130.139C354.156 129.278 352.782 129.258 351.922 130.092L352.27 130.451L351.922 130.092L338.282 143.326L332.078 137.307C331.218 136.472 329.844 136.493 329.009 137.353Z" stroke="white" stroke-linecap="round" stroke-linejoin="round"/>
</g>
<defs>
<filter id="filter0_di_89_52" x="59.5" y="71.5" width="298" height="154" filterUnits="userSpaceOnUse" color-interpolation-filters="sRGB">
<feFlood flood-opacity="0" result="BackgroundImageFix"/>
<feColorMatrix in="SourceAlpha" type="matrix" values="0 0 0 0 0 0 0 0 0 0 0 0 0 0 0 0 0 0 127 0" result="hardAlpha"/>
<feOffset/>
<feGaussianBlur stdDeviation="6"/>
<feComposite in2="hardAlpha" operator="out"/>
<feColorMatrix type="matrix" values="0 0 0 0 0.214844 0 0 0 0 0.288135 0 0 0 0 0.520833 0 0 0 0.15 0"/>
<feBlend mode="normal" in2="BackgroundImageFix" result="effect1_dropShadow_89_52"/>
<feBlend mode="normal" in="SourceGraphic" in2="effect1_dropShadow_89_52" result="shape"/>
<feColorMatrix in="SourceAlpha" type="matrix" values="0 0 0 0 0 0 0 0 0 0 0 0 0 0 0 0 0 0 127 0" result="hardAlpha"/>
<feOffset dx="-2" dy="-2"/>
<feGaussianBlur stdDeviation="2"/>
<feComposite in2="hardAlpha" operator="arithmetic" k2="-1" k3="1"/>
<feColorMatrix type="matrix" values="0 0 0 0 0.933333 0 0 0 0 0.933333 0 0 0 0 0.933333 0 0 0 1 0"/>
<feBlend mode="normal" in2="shape" result="effect2_innerShadow_89_52"/>
</filter>
<filter id="filter1_dii_89_52" x="313.5" y="109.5" width="57" height="57" filterUnits="userSpaceOnUse" color-interpolation-filters="sRGB">
<feFlood flood-opacity="0" result="BackgroundImageFix"/>
<feColorMatrix in="SourceAlpha" type="matrix" values="0 0 0 0 0 0 0 0 0 0 0 0 0 0 0 0 0 0 127 0" result="hardAlpha"/>
<feOffset/>
<feGaussianBlur stdDeviation="2"/>
<feComposite in2="hardAlpha" operator="out"/>
<feColorMatrix type="matrix" values="0 0 0 0 0.4 0 0 0 0 0.4 0 0 0 0 0.4 0 0 0 0.15 0"/>
<feBlend mode="normal" in2="BackgroundImageFix" result="effect1_dropShadow_89_52"/>
<feBlend mode="normal" in="SourceGraphic" in2="effect1_dropShadow_89_52" result="shape"/>
<feColorMatrix in="SourceAlpha" type="matrix" values="0 0 0 0 0 0 0 0 0 0 0 0 0 0 0 0 0 0 127 0" result="hardAlpha"/>
<feOffset dx="-1" dy="-1"/>
<feGaussianBlur stdDeviation="1"/>
<feComposite in2="hardAlpha" operator="arithmetic" k2="-1" k3="1"/>
<feColorMatrix type="matrix" values="0 0 0 0 0.207843 0 0 0 0 0.364706 0 0 0 0 0.862745 0 0 0 1 0"/>
<feBlend mode="normal" in2="shape" result="effect2_innerShadow_89_52"/>
<feColorMatrix in="SourceAlpha" type="matrix" values="0 0 0 0 0 0 0 0 0 0 0 0 0 0 0 0 0 0 127 0" result="hardAlpha"/>
<feOffset dx="1" dy="1"/>
<feGaussianBlur stdDeviation="1"/>
<feComposite in2="hardAlpha" operator="arithmetic" k2="-1" k3="1"/>
<feColorMatrix type="matrix" values="0 0 0 0 0.822257 0 0 0 0 0.895142 0 0 0 0 0.991667 0 0 0 0.75 0"/>
<feBlend mode="normal" in2="effect2_innerShadow_89_52" result="effect3_innerShadow_89_52"/>
</filter>
<filter id="filter2_d_89_52" x="326.896" y="127.98" width="32.2076" height="24.0409" filterUnits="userSpaceOnUse" color-interpolation-filters="sRGB">
<feFlood flood-opacity="0" result="BackgroundImageFix"/>
<feColorMatrix in="SourceAlpha" type="matrix" values="0 0 0 0 0 0 0 0 0 0 0 0 0 0 0 0 0 0 127 0" result="hardAlpha"/>
<feOffset dx="1" dy="1"/>
<feGaussianBlur stdDeviation="1"/>
<feComposite in2="hardAlpha" operator="out"/>
<feColorMatrix type="matrix" values="0 0 0 0 0 0 0 0 0 0 0 0 0 0 0 0 0 0 0.25 0"/>
<feBlend mode="normal" in2="BackgroundImageFix" result="effect1_dropShadow_89_52"/>
<feBlend mode="normal" in="SourceGraphic" in2="effect1_dropShadow_89_52" result="shape"/>
</filter>
<linearGradient id="paint0_linear_89_52" x1="71.5" y1="86.7816" x2="127.93" y2="216.8" gradientUnits="userSpaceOnUse">
<stop stop-color="#95BAEB"/>
<stop offset="1" stop-color="#355DDC"/>
</linearGradient>
<linearGradient id="paint1_linear_89_52" x1="326.409" y1="122.409" x2="361.489" y2="154.148" gradientUnits="userSpaceOnUse">
<stop stop-color="#355DDC"/>
<stop offset="1" stop-color="#95BAEB"/>
</linearGradient>
</defs>
</svg>
