<svg xmlns="http://www.w3.org/2000/svg" width="14" height="14" viewBox="0 0 14 14"><g transform="translate(-167 -623)"><g transform="translate(167 623)" fill="#fff" stroke="#707070" stroke-width="1"><circle cx="7" cy="7" r="7" stroke="none"/><circle cx="7" cy="7" r="6.5" fill="none"/></g><path d="M-.483-2.637V-2.2h.83l.059-.3a2.126,2.126,0,0,1,.83-1.348,2.162,2.162,0,0,0,.918-1.719c0-1.045-.85-1.729-2.119-1.729a3.55,3.55,0,0,0-2.285.82L-1.792-5.4a2.523,2.523,0,0,1,1.7-.693c.537,0,.82.244.82.684a1.641,1.641,0,0,1-.5,1.064A2.44,2.44,0,0,0-.483-2.637ZM-.825,0H.688V-1.514H-.825Z" transform="translate(174 634)" fill="#666"/></g></svg>