<svg width="16" height="16" viewBox="0 0 16 16" fill="none" xmlns="http://www.w3.org/2000/svg">
<path d="M8 15C11.866 15 15 11.866 15 8C15 4.13401 11.866 1 8 1C4.13401 1 1 4.13401 1 8C1 11.866 4.13401 15 8 15Z" stroke="#5832B1"/>
<path d="M7.32 9.28C7.32 8.06 7.65 7.69 8.24 7.32C8.66 7.05 8.98 6.75 8.98 6.3C8.98 5.8 8.6 5.49 8.12 5.48C7.67 5.49 7.25 5.79 7.22 6.36H5.84C5.87 4.99 6.89 4.33 8.14 4.34C9.5 4.33 10.46 5.04 10.46 6.24C10.46 7.05 10.05 7.56 9.4 7.94C8.86 8.27 8.61 8.59 8.6 9.28V9.38H7.32V9.28ZM7.18 10.76C7.16 10.32 7.54 9.95 8 9.96C8.43 9.95 8.81 10.32 8.82 10.76C8.81 11.22 8.43 11.59 8 11.58C7.54 11.59 7.16 11.22 7.18 10.76Z" fill="#5832B1"/>
</svg>
