<svg xmlns="http://www.w3.org/2000/svg" xmlns:xlink="http://www.w3.org/1999/xlink" width="640" height="120" viewBox="0 0 640 120"><defs><clipPath id="a"><path d="M69.719,45.749,54.258,61.211l6.811,6.811L76.531,52.561a3.02,3.02,0,0,0,0-4.27l-2.542-2.542a3.02,3.02,0,0,0-4.27,0" transform="translate(-54.258 -44.865)" fill="#ff460a" stroke="#707070" stroke-width="1.5"/></clipPath><clipPath id="b"><path d="M3.639,4.4A3.148,3.148,0,0,0,.5,7.54V47.417a3.148,3.148,0,0,0,3.139,3.137h48.02A3.148,3.148,0,0,0,54.8,47.417V18.528a3.148,3.148,0,0,0-3.138-3.14H26.822L21.1,6.993A6.671,6.671,0,0,0,16.192,4.4Z" transform="translate(-0.5 -4.399)" fill="none"/></clipPath><clipPath id="c"><path d="M11.62,20.947A3.279,3.279,0,0,0,8.443,24.3V54.9c-.218,1.846-1.695,4.2-3.5,4.2H3.874C2.279,59.1.947,57.07.5,55.542v.643C.486,57.4,2.448,59.511,3.677,59.538H52.285a3.279,3.279,0,0,0,3.176-3.353V24.3a3.278,3.278,0,0,0-3.176-3.354Z" transform="translate(-0.5 -20.947)" fill="none"/></clipPath><clipPath id="d"><rect width="58.662" height="52.927" rx="5" transform="translate(0 0)" fill="none" stroke="#707070" stroke-width="1.5"/></clipPath><clipPath id="e"><rect width="53.983" height="61.573" fill="none"/></clipPath></defs><g transform="translate(-900 -752)"><g transform="translate(-110 239)"><rect width="120" height="120" rx="60" transform="translate(1010 513)" fill="#fff6f3"/><g transform="translate(882 196)"><g transform="translate(43.276 -300.464)"><path d="M51.783.5V43.828H.5V.5Z" transform="translate(117.224 652.964)" fill="#fff"/><path d="M.5-.25H51.783a.75.75,0,0,1,.75.75V43.828a.75.75,0,0,1-.75.75H.5a.75.75,0,0,1-.75-.75V.5A.75.75,0,0,1,.5-.25Zm50.533,1.5H1.25V43.078H51.033Z" transform="translate(117.224 652.964)" fill="#515151"/><rect width="12" height="12" rx="6" transform="translate(124.724 660.464)" fill="#ffb59d"/><rect width="12" height="12" rx="6" transform="translate(124.724 678.464)" fill="#ffb59d"/><path d="M16.2,44.8a.75.75,0,0,1-.53-.22L13.681,42.6a.75.75,0,1,1,1.061-1.061L16.2,42.994l3.44-3.442a.75.75,0,0,1,1.061,1.06l-3.971,3.972A.75.75,0,0,1,16.2,44.8Z" transform="translate(113.534 624.382)" fill="#fff"/><path d="M21.69.75H0A.75.75,0,0,1-.75,0,.75.75,0,0,1,0-.75H21.69a.75.75,0,0,1,.75.75A.75.75,0,0,1,21.69.75Z" transform="translate(140.401 664.346)" fill="#515151"/><path d="M12.852.75H0A.75.75,0,0,1-.75,0,.75.75,0,0,1,0-.75H12.852A.75.75,0,0,1,13.6,0,.75.75,0,0,1,12.852.75Z" transform="translate(140.492 667.965)" fill="#515151"/><path d="M16.2,66.842a.748.748,0,0,1-.53-.219l-1.986-1.985a.75.75,0,0,1,1.06-1.061L16.2,65.031l3.44-3.441A.75.75,0,1,1,20.7,62.65l-3.971,3.972A.748.748,0,0,1,16.2,66.842Z" transform="translate(113.534 620.066)" fill="#fff"/><path d="M21.69.75H0A.75.75,0,0,1-.75,0,.75.75,0,0,1,0-.75H21.69a.75.75,0,0,1,.75.75A.75.75,0,0,1,21.69.75Z" transform="translate(140.401 682.083)" fill="#515151"/><path d="M12.852.75H0A.75.75,0,0,1-.75,0,.75.75,0,0,1,0-.75H12.852A.75.75,0,0,1,13.6,0,.75.75,0,0,1,12.852.75Z" transform="translate(140.492 685.704)" fill="#515151"/><g transform="translate(153.143 679.353)"><g transform="translate(3.099)"><g transform="translate(0)" clip-path="url(#a)"><rect width="32.958" height="32.958" transform="translate(-11.579 11.578) rotate(-45)" fill="#ff460a"/><path d="M-.75-.75H33.708V33.708H-.75ZM32.208.75H.75V32.208H32.208Z" transform="translate(-11.579 11.578) rotate(-45)" fill="#707070"/></g></g><path d="M72.346,44.239h0a3.7,3.7,0,0,1,2.637,1.092L77.6,47.944a3.729,3.729,0,0,1,0,5.274L61.7,69.111a.625.625,0,0,1-.442.183h0a.625.625,0,0,1-.442-.183l-7-7a.625.625,0,0,1,0-.884L69.709,45.331A3.706,3.706,0,0,1,72.346,44.239ZM61.259,67.785,76.711,52.334a2.479,2.479,0,0,0,0-3.506L74.1,46.215a2.463,2.463,0,0,0-1.753-.726h0a2.464,2.464,0,0,0-1.753.726L55.142,61.667Z" transform="translate(-51.482 -44.864)" fill="#ff460a"/><path d="M53.273,68.037l-2.435,9.309,9.309-2.435L56.71,71.474Z" transform="translate(-50.838 -50.742)" fill="#fff"/><path d="M53.273,67.412a.625.625,0,0,1,.442.183l6.874,6.874a.625.625,0,0,1-.284,1.047L51,77.951a.625.625,0,0,1-.763-.763l2.435-9.309a.625.625,0,0,1,.6-.467Zm5.661,7.171L53.6,69.25l-1.889,7.222Z" transform="translate(-50.838 -50.742)" fill="#515151"/></g></g><rect width="70" height="70" transform="translate(153 344)" fill="none"/></g></g><g transform="translate(410 239)"><rect width="120" height="120" rx="60" transform="translate(1010 513)" fill="#f7f7f7"/><g transform="translate(882 191)"><g transform="translate(8.118 5.52)"><g transform="translate(153.151 353.614)" clip-path="url(#b)"><path d="M.3.3,73.608,2.092l1.717,68.556L2.018,68.86Z" transform="matrix(0.857, -0.514, 0.514, 0.857, -23.528, 13.826)" fill="#e1e1e1"/></g><g transform="translate(152.639 350.493)"><path d="M3.668,3.648H16.34a7.465,7.465,0,0,1,5.572,2.918l5.552,8.071H52.141a3.909,3.909,0,0,1,3.918,3.891V47.416A3.907,3.907,0,0,1,52.141,51.3H3.668A3.908,3.908,0,0,1-.25,47.416V7.539A3.909,3.909,0,0,1,3.668,3.648ZM52.141,49.8a2.406,2.406,0,0,0,2.418-2.388V18.527a2.407,2.407,0,0,0-2.418-2.391H26.675l-6-8.72A5.991,5.991,0,0,0,16.34,5.148H3.668A2.407,2.407,0,0,0,1.25,7.539V47.416A2.406,2.406,0,0,0,3.668,49.8Z" transform="translate(-0.5 -1.277)" fill="#515151"/><path d="M0,37.018H42.045v1H0Z" transform="translate(8.275 -7.023)" fill="#050505"/></g><g transform="translate(152.639 361.555)" clip-path="url(#c)"><rect width="69.584" height="62.929" transform="matrix(0.857, -0.514, 0.514, 0.857, -17.025, 10.215)" fill="#fff"/></g><g transform="translate(152.304 347.553)" clip-path="url(#d)"><path d="M12.233,20.2H51.846a4.108,4.108,0,0,1,4.1,4.1V56.185a4.107,4.107,0,0,1-4.1,4.1H3.852a4.107,4.107,0,0,1-4.1-4.1v-.644l1.467-.221c.392,1.27,1.6,3.03,2.844,3.03H5.183c1.378,0,2.728-1.9,2.948-3.5V24.3A4.108,4.108,0,0,1,12.233,20.2ZM51.846,58.788a2.605,2.605,0,0,0,2.6-2.6V24.3a2.606,2.606,0,0,0-2.6-2.6H12.233a2.606,2.606,0,0,0-2.6,2.6V54.95L9.625,55a6.613,6.613,0,0,1-1.379,3.167,5.61,5.61,0,0,1-.582.625Z" transform="translate(-0.166 -6.945)" fill="#515151"/></g><g transform="translate(176.185 371.925)"><circle cx="8.926" cy="8.926" r="8.926" transform="translate(0)" fill="#e1e1e1"/><path d="M1.964-8.288a2.058,2.058,0,0,1-.151.8,2.635,2.635,0,0,1-.4.664,4.22,4.22,0,0,1-.576.57q-.326.268-.664.512a2.476,2.476,0,0,0-.338.285.88.88,0,0,0-.186.279,1.2,1.2,0,0,0-.076.338q-.017.192-.017.448a.67.67,0,0,1-.041.221.623.623,0,0,1-.14.221.705.705,0,0,1-.268.169,1.21,1.21,0,0,1-.425.064,1.233,1.233,0,0,1-.687-.169.638.638,0,0,1-.256-.576,3.213,3.213,0,0,1,.081-.763,2.137,2.137,0,0,1,.239-.594,1.922,1.922,0,0,1,.4-.472,4.322,4.322,0,0,1,.57-.407,3.808,3.808,0,0,0,.4-.3,2.862,2.862,0,0,0,.338-.349A1.538,1.538,0,0,0,0-7.753a1.321,1.321,0,0,0,.087-.489,1.461,1.461,0,0,0-.058-.425A.783.783,0,0,0-.167-9a.915.915,0,0,0-.384-.215,2.123,2.123,0,0,0-.617-.076,1.694,1.694,0,0,0-.483.058,1.3,1.3,0,0,0-.32.14,1.073,1.073,0,0,0-.21.169,1.7,1.7,0,0,1-.151.146,1.158,1.158,0,0,1-.332.2,1.36,1.36,0,0,1-.361.087,1.162,1.162,0,0,1-.349-.017.759.759,0,0,1-.3-.128.684.684,0,0,1-.32-.466.6.6,0,0,1,.146-.466,2.313,2.313,0,0,1,.4-.373,2.946,2.946,0,0,1,.582-.338,3.651,3.651,0,0,1,.768-.239,4.95,4.95,0,0,1,.978-.087,4.44,4.44,0,0,1,1.385.192,2.854,2.854,0,0,1,.96.512,2,2,0,0,1,.559.739A2.186,2.186,0,0,1,1.964-8.288ZM-2.484-2.153a.868.868,0,0,0,.332.739,1.324,1.324,0,0,0,.821.25A1.349,1.349,0,0,0-.5-1.414a.862.862,0,0,0,.338-.739A.878.878,0,0,0-.5-2.9a1.328,1.328,0,0,0-.827-.256,1.3,1.3,0,0,0-.821.256A.884.884,0,0,0-2.484-2.153Z" transform="translate(10.043 14.763)" fill="#a5a5a5"/></g></g><rect width="70" height="70" transform="translate(153 344)" fill="none"/></g></g><g transform="translate(19 269)"><rect width="120" height="120" rx="60" transform="translate(1011 483)" fill="#fff6f3"/><g transform="translate(883 230)"><g transform="translate(161 282)"><g transform="translate(0 0)"><g clip-path="url(#e)"><path d="M46.066,86.943H25.175l3.3-11.969H42.766Z" transform="translate(-8.629 -25.699)" fill="#ff460a"/><path d="M47.051,87.693H24.19L27.9,74.225H43.337Zm-20.891-1.5H45.081L42.2,75.725H29.046Z" transform="translate(-8.629 -25.699)" fill="#ff460a"/></g></g><g transform="translate(0 0)"><rect width="53.326" height="40.73" rx="1" transform="translate(0.329 10.37)" fill="#fff"/><path d="M1-.75H52.326A1.752,1.752,0,0,1,54.076,1V39.73a1.752,1.752,0,0,1-1.75,1.75H1A1.752,1.752,0,0,1-.75,39.73V1A1.752,1.752,0,0,1,1-.75ZM52.326,39.98a.25.25,0,0,0,.25-.25V1a.25.25,0,0,0-.25-.25H1A.25.25,0,0,0,.75,1V39.73a.25.25,0,0,0,.25.25Z" transform="translate(0.329 10.37)" fill="#515151"/><line x2="9.212" y2="9.212" transform="translate(27.431 21.379)" fill="#fff"/><path d="M9.212,9.712a.5.5,0,0,1-.354-.146L-.354.354a.5.5,0,0,1,0-.707.5.5,0,0,1,.707,0L9.566,8.858a.5.5,0,0,1-.354.854Z" transform="translate(27.431 21.379)" fill="#020202"/><path d="M48.049,42.178l-9.212-9.21a2.36,2.36,0,0,1,3.338-3.336l9.212,9.209a2.36,2.36,0,0,1-3.337,3.337" transform="translate(-13.076 -9.919)" fill="#fff"/><path d="M49.719,43.494a2.969,2.969,0,0,1-2.112-.873L38.4,33.409a2.985,2.985,0,0,1,4.222-4.22L51.829,38.4a2.984,2.984,0,0,1-2.109,5.1ZM40.506,29.565a1.735,1.735,0,0,0-1.227,2.961l9.212,9.21a1.735,1.735,0,0,0,2.453-2.454l-9.211-9.209A1.725,1.725,0,0,0,40.506,29.565Z" transform="translate(-13.076 -9.919)" fill="#515151"/><path d="M44.882,41.257,55.837,52.213a3.95,3.95,0,0,0,5.584-5.586L50.468,35.672Z" transform="translate(-15.384 -12.227)" fill="#ffb59d"/><path d="M50.468,35.047h0a.625.625,0,0,1,.442.183L61.863,46.185a4.575,4.575,0,1,1-6.468,6.47L44.44,41.7a.625.625,0,0,1,0-.884l5.586-5.585A.625.625,0,0,1,50.468,35.047Zm8.161,17.7a3.325,3.325,0,0,0,2.35-5.676L50.468,36.556l-4.7,4.7L56.279,51.771A3.3,3.3,0,0,0,58.629,52.745Z" transform="translate(-15.384 -12.227)" fill="#515151"/><path d="M31.774,4.286a12.926,12.926,0,1,1-18.28,0,12.924,12.924,0,0,1,18.28,0" transform="translate(-3.327 -0.171)" fill="#fff"/><path d="M22.634,26.976A13.55,13.55,0,0,1,13.051,3.844,13.551,13.551,0,1,1,32.215,23.007,13.46,13.46,0,0,1,22.634,26.976Zm0-25.851a12.3,12.3,0,0,0-8.7,21,12.3,12.3,0,1,0,17.4-17.395A12.221,12.221,0,0,0,22.633,1.125Z" transform="translate(-3.327 -0.171)" fill="#515151"/><rect width="53.983" height="61.573" fill="none"/></g></g><path d="M3.343-7.752a2.534,2.534,0,0,1-.186.989,3.245,3.245,0,0,1-.495.817,5.2,5.2,0,0,1-.71.7q-.4.33-.817.631a3.049,3.049,0,0,0-.416.351,1.083,1.083,0,0,0-.229.344A1.479,1.479,0,0,0,.4-3.5q-.022.237-.022.552a.825.825,0,0,1-.05.272A.768.768,0,0,1,.153-2.4a.868.868,0,0,1-.33.208A1.49,1.49,0,0,1-.7-2.118a1.518,1.518,0,0,1-.846-.208.786.786,0,0,1-.315-.71,3.956,3.956,0,0,1,.1-.939,2.632,2.632,0,0,1,.294-.731,2.367,2.367,0,0,1,.495-.581,5.323,5.323,0,0,1,.7-.5,4.689,4.689,0,0,0,.487-.373,3.524,3.524,0,0,0,.416-.43,1.894,1.894,0,0,0,.294-.5,1.627,1.627,0,0,0,.108-.6,1.8,1.8,0,0,0-.072-.523.964.964,0,0,0-.244-.409,1.127,1.127,0,0,0-.473-.265,2.614,2.614,0,0,0-.76-.093,2.087,2.087,0,0,0-.595.072,1.6,1.6,0,0,0-.394.172,1.322,1.322,0,0,0-.258.208,2.1,2.1,0,0,1-.186.179,1.426,1.426,0,0,1-.409.244A1.675,1.675,0,0,1-2.8-8a1.431,1.431,0,0,1-.43-.022A.935.935,0,0,1-3.6-8.182a.842.842,0,0,1-.394-.573.735.735,0,0,1,.179-.573,2.849,2.849,0,0,1,.487-.459,3.628,3.628,0,0,1,.717-.416,4.5,4.5,0,0,1,.946-.294,6.1,6.1,0,0,1,1.2-.108,5.467,5.467,0,0,1,1.706.237,3.515,3.515,0,0,1,1.183.631,2.463,2.463,0,0,1,.688.91A2.692,2.692,0,0,1,3.343-7.752ZM-2.134-.2a1.069,1.069,0,0,0,.409.91,1.63,1.63,0,0,0,1.011.308A1.661,1.661,0,0,0,.3.713,1.062,1.062,0,0,0,.719-.2,1.081,1.081,0,0,0,.3-1.114,1.635,1.635,0,0,0-.714-1.43a1.6,1.6,0,0,0-1.011.315A1.089,1.089,0,0,0-2.134-.2Z" transform="translate(180.657 300.115)" fill="#ff460a"/><path d="M-.456-10.855a5.739,5.739,0,0,1,1.784.249,3.778,3.778,0,0,1,1.266.677,2.722,2.722,0,0,1,.756,1,2.953,2.953,0,0,1,.243,1.174,2.794,2.794,0,0,1-.206,1.086,3.51,3.51,0,0,1-.532.88,5.471,5.471,0,0,1-.744.736c-.27.222-.549.437-.829.64A2.821,2.821,0,0,0,.9-4.088a.841.841,0,0,0-.178.264,1.239,1.239,0,0,0-.076.346c-.014.149-.02.328-.02.529a1.077,1.077,0,0,1-.064.355,1.019,1.019,0,0,1-.226.361,1.118,1.118,0,0,1-.423.27,1.716,1.716,0,0,1-.612.1,1.765,1.765,0,0,1-.983-.249,1.022,1.022,0,0,1-.428-.918,4.222,4.222,0,0,1,.108-1,2.893,2.893,0,0,1,.322-.8,2.627,2.627,0,0,1,.546-.642A5.588,5.588,0,0,1-.4-6a4.46,4.46,0,0,0,.457-.35,3.289,3.289,0,0,0,.386-.4,1.654,1.654,0,0,0,.255-.436,1.386,1.386,0,0,0,.09-.51,1.559,1.559,0,0,0-.061-.451.711.711,0,0,0-.181-.3.889.889,0,0,0-.37-.2,2.385,2.385,0,0,0-.686-.082,1.855,1.855,0,0,0-.522.061,1.361,1.361,0,0,0-.333.144,1.081,1.081,0,0,0-.21.168,2.357,2.357,0,0,1-.209.2,1.679,1.679,0,0,1-.478.285,1.932,1.932,0,0,1-.511.123,1.689,1.689,0,0,1-.5-.026,1.188,1.188,0,0,1-.462-.2,1.081,1.081,0,0,1-.5-.747A.98.98,0,0,1-4-9.489a3.1,3.1,0,0,1,.528-.5,3.894,3.894,0,0,1,.766-.445,4.765,4.765,0,0,1,1-.311A6.372,6.372,0,0,1-.456-10.855ZM-.7-2.368a1.255,1.255,0,0,0,.435-.063.628.628,0,0,0,.237-.146A.525.525,0,0,0,.089-2.76a.581.581,0,0,0,.036-.19c0-.217.008-.41.023-.575a1.734,1.734,0,0,1,.11-.486,1.336,1.336,0,0,1,.281-.424,3.31,3.31,0,0,1,.45-.381c.271-.2.542-.406.8-.621a4.971,4.971,0,0,0,.676-.669,3.01,3.01,0,0,0,.457-.755,2.3,2.3,0,0,0,.167-.893,2.455,2.455,0,0,0-.2-.976,2.227,2.227,0,0,0-.62-.818,3.284,3.284,0,0,0-1.1-.584,5.247,5.247,0,0,0-1.628-.224,5.876,5.876,0,0,0-1.155.1,4.267,4.267,0,0,0-.894.277,3.4,3.4,0,0,0-.668.386,2.615,2.615,0,0,0-.445.418.487.487,0,0,0-.125.388.614.614,0,0,0,.292.4.683.683,0,0,0,.27.116,1.188,1.188,0,0,0,.355.017,1.432,1.432,0,0,0,.378-.092,1.183,1.183,0,0,0,.337-.2A1.864,1.864,0,0,0-1.944-8.7a1.575,1.575,0,0,1,.307-.248,1.853,1.853,0,0,1,.456-.2,2.307,2.307,0,0,1,.667-.082,2.83,2.83,0,0,1,.834.1A1.377,1.377,0,0,1,.9-8.8a1.216,1.216,0,0,1,.306.513,2.057,2.057,0,0,1,.082.6A1.882,1.882,0,0,1,1.16-7a2.153,2.153,0,0,1-.332.568,3.792,3.792,0,0,1-.445.461,4.962,4.962,0,0,1-.513.393l-.009.006A5.1,5.1,0,0,0-.81-5.1a2.128,2.128,0,0,0-.443.519,2.4,2.4,0,0,0-.265.662,3.727,3.727,0,0,0-.093.879c0,.367.153.468.2.5A1.286,1.286,0,0,0-.7-2.368Zm-.014.688a1.886,1.886,0,0,1,1.169.366A1.323,1.323,0,0,1,.969-.2,1.3,1.3,0,0,1,.452.914a1.913,1.913,0,0,1-1.167.357A1.881,1.881,0,0,1-1.876.913,1.311,1.311,0,0,1-2.384-.2a1.331,1.331,0,0,1,.506-1.115A1.855,1.855,0,0,1-.714-1.68Zm0,2.451A1.406,1.406,0,0,0,.155.513.819.819,0,0,0,.469-.2.838.838,0,0,0,.152-.915,1.38,1.38,0,0,0-.714-1.18a1.351,1.351,0,0,0-.858.263.845.845,0,0,0-.311.72.826.826,0,0,0,.309.711A1.376,1.376,0,0,0-.714.772Z" transform="translate(180.657 300.115)" fill="#ffb59d"/></g><rect width="70" height="70" transform="translate(1036 508)" fill="none"/></g><g transform="translate(150 279)"><rect width="120" height="120" rx="60" transform="translate(1010 473)" fill="#fff6f3"/><g transform="translate(896 234)"><path d="M12.586.5.5,12.585v36.57H43.716V.5Z" transform="translate(151.007 274.466)" fill="#fff"/><path d="M12.586-.25h31.13a.75.75,0,0,1,.75.75V49.155a.75.75,0,0,1-.75.75H.5a.75.75,0,0,1-.75-.75V12.585a.75.75,0,0,1,.22-.53L12.056-.03A.75.75,0,0,1,12.586-.25Zm30.38,1.5H12.9L1.25,12.9V48.4H42.966Z" transform="translate(151.007 274.466)" fill="#515151"/><path d="M.5,12.586H12.586V.5Z" transform="translate(151.007 274.466)" fill="#fff"/><path d="M12.586,13.336H.5a.75.75,0,0,1-.53-1.28L12.056-.031a.75.75,0,0,1,1.28.53V12.586A.75.75,0,0,1,12.586,13.336Zm-10.275-1.5h9.525V2.31Z" transform="translate(151.007 274.466)" fill="#515151"/><path d="M12.586,13.336H.5a.75.75,0,0,1-.53-1.28L12.056-.03a.75.75,0,0,1,1.28.53V12.586A.75.75,0,0,1,12.586,13.336Zm-10.275-1.5h9.525V2.311Z" transform="translate(151.007 274.466)" fill="#515151"/><path d="M36.764,30.375,26.056,41.085a6.02,6.02,0,0,1-8.513-8.513l.008-.015L30.672,19.434a3.94,3.94,0,1,1,5.571,5.574l-13.12,13.12-.02.015a2.075,2.075,0,1,1-2.933-2.936L32.21,23.165" transform="translate(146.902 269.688)" fill="#fff"/><path d="M21.8,43.593a6.764,6.764,0,0,1-4.87-11.467l.01-.019,13.2-13.2a4.69,4.69,0,1,1,6.631,6.635L23.62,38.692l-.023.018a2.825,2.825,0,0,1-3.957-4.032L31.68,22.635,32.741,23.7,20.7,35.739a1.325,1.325,0,0,0,0,1.875,1.326,1.326,0,0,0,1.873,0l.033-.033.02-.015L35.713,24.478a3.19,3.19,0,1,0-4.51-4.513L18.163,33.005l-.008.015-.081.081a5.27,5.27,0,1,0,7.452,7.453L36.234,29.845l1.061,1.061L26.587,41.615A6.75,6.75,0,0,1,21.8,43.593Z" transform="translate(146.902 269.688)" fill="#515151"/><path d="M21.8,43.593a6.765,6.765,0,0,1-4.84-11.5.751.751,0,0,1,.061-.069L30.142,18.9a4.69,4.69,0,1,1,6.631,6.635l-13.12,13.12q-.026.026-.054.049a2.825,2.825,0,0,1-3.959-4.03L31.68,22.635A.75.75,0,0,1,32.741,23.7L20.7,35.739a1.325,1.325,0,0,0,0,1.875,1.326,1.326,0,0,0,1.873,0q.024-.024.05-.046L35.713,24.478a3.19,3.19,0,1,0-4.51-4.513L18.132,33.036a.75.75,0,0,1-.058.065,5.27,5.27,0,1,0,7.452,7.453L36.234,29.845a.75.75,0,1,1,1.061,1.061L26.587,41.615A6.75,6.75,0,0,1,21.8,43.593Z" transform="translate(146.902 269.688)" fill="#ffb59d"/><g transform="translate(182.068 309.976)"><circle cx="11.042" cy="11.042" r="11.042" transform="translate(0)" fill="#ff460a"/><path d="M3.377-7.739a2.546,2.546,0,0,1-.187.994,3.26,3.26,0,0,1-.5.821,5.221,5.221,0,0,1-.713.706q-.4.331-.821.634a3.063,3.063,0,0,0-.418.353,1.088,1.088,0,0,0-.23.346,1.486,1.486,0,0,0-.094.418Q.4-3.231.4-2.914a.829.829,0,0,1-.05.274.771.771,0,0,1-.173.274.872.872,0,0,1-.331.209,1.5,1.5,0,0,1-.526.079,1.525,1.525,0,0,1-.85-.209A.789.789,0,0,1-1.851-3a3.974,3.974,0,0,1,.1-.943,2.644,2.644,0,0,1,.3-.735,2.378,2.378,0,0,1,.5-.583,5.347,5.347,0,0,1,.706-.5,4.71,4.71,0,0,0,.49-.374,3.541,3.541,0,0,0,.418-.432,1.9,1.9,0,0,0,.3-.5,1.634,1.634,0,0,0,.108-.6,1.808,1.808,0,0,0-.072-.526.968.968,0,0,0-.245-.41,1.132,1.132,0,0,0-.475-.266A2.626,2.626,0,0,0-.5-8.978a2.1,2.1,0,0,0-.6.072,1.607,1.607,0,0,0-.4.173,1.328,1.328,0,0,0-.259.209,2.1,2.1,0,0,1-.187.18,1.432,1.432,0,0,1-.41.245,1.682,1.682,0,0,1-.446.108,1.438,1.438,0,0,1-.432-.022.939.939,0,0,1-.367-.158.846.846,0,0,1-.4-.576.739.739,0,0,1,.18-.576,2.862,2.862,0,0,1,.49-.461A3.644,3.644,0,0,1-2.6-10.2a4.516,4.516,0,0,1,.951-.3,6.123,6.123,0,0,1,1.21-.108,5.492,5.492,0,0,1,1.714.238,3.531,3.531,0,0,1,1.188.634,2.474,2.474,0,0,1,.691.915A2.7,2.7,0,0,1,3.377-7.739Zm-5.5,7.59a1.074,1.074,0,0,0,.41.915A1.638,1.638,0,0,0-.7,1.075,1.669,1.669,0,0,0,.323.766,1.067,1.067,0,0,0,.741-.149a1.086,1.086,0,0,0-.418-.922A1.643,1.643,0,0,0-.7-1.387a1.612,1.612,0,0,0-1.015.317A1.094,1.094,0,0,0-2.125-.149Z" transform="translate(11.477 15.749)" fill="#fff"/></g></g></g><g transform="translate(280 279)"><rect width="120" height="120" rx="60" transform="translate(1010 473)" fill="#fff6f3"/><g transform="translate(894.113 233.496)"><rect width="45.19" height="24.933" transform="translate(154.494 292.185)" fill="#ffb59d"/><path d="M0-.75H45.19a.75.75,0,0,1,.75.75V24.933a.75.75,0,0,1-.75.75H0a.75.75,0,0,1-.75-.75V0A.75.75,0,0,1,0-.75ZM44.44.75H.75V24.183H44.44Z" transform="translate(154.494 292.185)" fill="#ffb59d"/><path d="M43.633,16.887H13.323V60.752h30.31Z" transform="translate(148.611 256.366)" fill="#fff"/><path d="M13.323,16.137h30.31a.75.75,0,0,1,.75.75V60.752a.75.75,0,0,1-.75.75H13.323a.75.75,0,0,1-.75-.75V16.887A.75.75,0,0,1,13.323,16.137Zm29.56,1.5H14.073V60h28.81Z" transform="translate(148.611 256.366)" fill="#020202"/><rect width="4.46" height="4.46" transform="translate(166.682 288.725)" fill="#ffb59d"/><rect width="4.46" height="4.46" transform="translate(166.682 280.79)" fill="#ffb59d"/><rect width="4.46" height="4.46" transform="translate(174.858 288.725)" fill="#ffb59d"/><rect width="4.46" height="4.46" transform="translate(174.858 280.79)" fill="#ffb59d"/><rect width="4.461" height="4.46" transform="translate(183.035 288.725)" fill="#ffb59d"/><rect width="4.461" height="4.46" transform="translate(183.035 280.79)" fill="#ffb59d"/></g><g transform="translate(910.023 218.716)"><path d="M36.864,10.4,24.482.505h-.1V19.572H49.34V.505h-.095Z" transform="translate(109.636 321.86)" fill="#fff"/><path d="M49.34,20.322H24.387a.75.75,0,0,1-.75-.75V.506a.75.75,0,0,1,.743-.75h.1a.75.75,0,0,1,.475.164l11.913,9.52L48.777-.08a.75.75,0,0,1,.461-.164h.095a.75.75,0,0,1,.757.75V19.572A.75.75,0,0,1,49.34,20.322Zm-24.2-1.5H48.59V1.99l-11.258,9a.75.75,0,0,1-.936,0l-11.259-9Z" transform="translate(109.636 321.86)" fill="#515151"/><path d="M49.34,20.322H24.387a.75.75,0,0,1-.75-.75V.506a.75.75,0,0,1,.743-.75h.1a.75.75,0,0,1,.475.164l11.913,9.52L48.777-.08a.75.75,0,0,1,.461-.164h.095a.75.75,0,0,1,.757.75V19.572A.75.75,0,0,1,49.34,20.322Zm-24.2-1.5H48.59V1.99l-11.258,9a.75.75,0,0,1-.936,0l-11.259-9Z" transform="translate(109.636 321.86)" fill="#515151"/><path d="M24.49-.245H49.252a.75.75,0,0,1,.507,1.3L37.378,12.413a.75.75,0,0,1-1.014,0L23.983,1.058a.75.75,0,0,1,.507-1.3Zm22.835,1.5H26.417l10.454,9.588Z" transform="translate(109.629 321.86)" fill="#515151"/><path d="M49.252.506H24.49L36.871,11.861Z" transform="translate(109.629 321.86)" fill="#ff460a"/><path d="M24.49-.245H49.252a.75.75,0,0,1,.507,1.3L37.378,12.413a.75.75,0,0,1-1.014,0L23.983,1.058a.75.75,0,0,1,.507-1.3Zm22.835,1.5H26.417l10.454,9.588Z" transform="translate(109.629 321.86)" fill="#ff460a"/></g></g></g></svg>