<svg xmlns="http://www.w3.org/2000/svg" xmlns:xlink="http://www.w3.org/1999/xlink" width="380" height="120" viewBox="0 0 380 120"><defs><clipPath id="a"><rect width="120" height="120" rx="60" transform="translate(900 484)" fill="#fff6f3"/></clipPath><clipPath id="b"><rect width="89.619" height="77.75" transform="translate(-7 -5)" fill="#ffdace"/></clipPath><clipPath id="c"><rect width="46.082" height="42.684" fill="none" stroke="#515151" stroke-width="1"/></clipPath><clipPath id="d"><rect width="21.906" height="21.906" fill="#ff460a"/></clipPath><clipPath id="e"><rect width="10.413" height="10.413" fill="#ff460a"/></clipPath><clipPath id="f"><rect width="11.533" height="4.378" fill="#ffb59d"/></clipPath></defs><g transform="translate(-900 -968)"><g transform="translate(827 518)"><rect width="120" height="120" rx="60" transform="translate(73 450)" fill="#fff6f3"/><g transform="translate(-827 -34)" clip-path="url(#a)"><g transform="translate(920.563 551.75)" clip-path="url(#b)"><path d="M78.6,74.1c-.039-1.138-.108-2.256-.215-3.364-.088-.846-.186-1.682-.3-2.518-.186-1.381-.421-2.751-.734-4.113A46.707,46.707,0,0,0,72.618,51.34c-2.251-4.054,22.769-3.038,19.07-6.072-2.84-2.276,11.449-4.39,12.084-5.333.223.125-9.157,1.95-10.084,1.583-8.1-3.179-58.047-12.248-66.1-13.444-4.031-.593-8.043-1.069-11.947-1.6-1.947-.272-3.885-.554-5.685-.924-.665-.146-1.311-.3-1.9-.467.1-.078.205-.146.313-.224a25.609,25.609,0,0,1,4.746-2.343,92.445,92.445,0,0,1,11.135-3.325c7.671-1.857,15.548-3.267,23.425-4.735,3.943-.749,7.9-1.478,11.849-2.363,1.986-.447,3.963-.924,5.949-1.565A17.763,17.763,0,0,0,68.5,9.281a4.25,4.25,0,0,0,1.624-1.429,2.413,2.413,0,0,0,.294-.8,1.967,1.967,0,0,0-.068-.9A2.653,2.653,0,0,0,69.614,5a8.051,8.051,0,0,0-1.458-1,11.33,11.33,0,0,0-1.389-.758A30.671,30.671,0,0,0,63.9,2.009,53.255,53.255,0,0,0,58.019.3C57.774.239,45.182-2.076,44.938-2.125c-2.73-.078-1.7.733-4.5.7C43.344-.915,54.78,1.143,57.578,1.96a49.764,49.764,0,0,1,5.538,1.974c.871.418,1.761.807,2.573,1.3a10.69,10.69,0,0,1,1.194.749,8.642,8.642,0,0,1,.9.661,2.354,2.354,0,0,1-.528.311,14.864,14.864,0,0,1-2.583.865c-1.859.476-3.806.826-5.754,1.138-3.914.632-7.877,1.118-11.849,1.614-7.945.992-15.93,1.915-23.944,3.335a96.967,96.967,0,0,0-12.065,2.829,31.18,31.18,0,0,0-6.155,2.606,13.82,13.82,0,0,0-3.1,2.4A6.872,6.872,0,0,0,.268,24.166a7.3,7.3,0,0,0-.235,1.04,5.607,5.607,0,0,0,0,1.215A5.016,5.016,0,0,0,.875,28.6a7.021,7.021,0,0,0,2.241,2.022,15.831,15.831,0,0,0,1.849.894,32.636,32.636,0,0,0,3.278,1.06c2.094.564,5.4,2.084,7.4,2.492,3.992.8,8.092,2.965,11.947,3.771,8.422,2.486,6.45,2.029,20.088,6.429,3.063,1.431,11.1,4.782,14.189,7.143a20.337,20.337,0,0,1,3.58-1.072c2.339,2.188-4.325,2.188-2.906,5.2a35.449,35.449,0,0,1,2.906,9.79c.137.846.245,1.7.323,2.557.078.885.127,1.769.166,2.644s.02,1.74,0,2.606c-.02.418-.029.856-.068,1.264-.02.379-.068.885-.1,1.06l12.779,1.274c.059-.817.059-1.3.068-1.915.01-.593-.01-1.147-.02-1.721" transform="translate(0 -0.018)" fill="#ffdace"/><path d="M79.471,78.833,64.6,77.352l.177-1.055c.021-.124.067-.586.085-.946l0-.044c.026-.276.039-.585.051-.883,0-.107.009-.214.014-.32.017-.752.03-1.64,0-2.533-.047-1.051-.1-1.852-.163-2.595-.076-.833-.182-1.67-.314-2.485v-.008a34.426,34.426,0,0,0-2.821-9.514,2.53,2.53,0,0,1,.364-2.9A6.417,6.417,0,0,1,63.777,52.8c-.669.22-1.32.45-1.5.525a1,1,0,0,0,.565-.689l-.868-.2-.713.771c-2.383-1.818-7.952-4.311-11.637-5.96-.91-.407-1.7-.761-2.312-1.046-5.284-1.7-8.2-2.671-10.324-3.377-3.309-1.1-4.553-1.511-9.643-3.014a43.361,43.361,0,0,1-5.885-1.87,41.327,41.327,0,0,0-6.014-1.891A31.916,31.916,0,0,1,11.2,34.656c-1.145-.43-2.328-.875-3.217-1.115l-.008,0A33.512,33.512,0,0,1,4.6,32.447l-.015-.006a16.7,16.7,0,0,1-1.964-.95l-.03-.018A7.955,7.955,0,0,1,.061,29.181l0,0A6.032,6.032,0,0,1-.959,26.549v-.009a6.562,6.562,0,0,1,0-1.432l0-.041a8.258,8.258,0,0,1,.266-1.186l.02-.061A7.653,7.653,0,0,1,.963,21.187l.116-.131A14.974,14.974,0,0,1,4.4,18.482l.007,0a31.774,31.774,0,0,1,6.345-2.691l.008,0a98.4,98.4,0,0,1,12.188-2.86c7.011-1.242,14.084-2.116,20.924-2.962l3.075-.381.631-.079c3.684-.459,7.494-.935,11.183-1.53,1.606-.257,3.7-.615,5.665-1.119.517-.131.973-.263,1.374-.4-.2-.126-.387-.237-.577-.338l-.052-.03a20.208,20.208,0,0,0-1.926-.99q-.27-.127-.54-.256a48.575,48.575,0,0,0-5.409-1.925C54.558,2.12,42.984.037,40.266-.436l.182-1.985h.134a3.527,3.527,0,0,0,1.726-.285,4.893,4.893,0,0,1,2.277-.425c.121,0,.249,0,.381.006l.084,0,.082.016c.1.019,1.693.313,3.541.654,7.2,1.327,9.434,1.742,9.577,1.776a54.239,54.239,0,0,1,5.989,1.743l.028.011.275.108A28.631,28.631,0,0,1,67.2,2.342a12.26,12.26,0,0,1,1.486.812l0,0c.1.065.208.127.319.192a6.715,6.715,0,0,1,1.282.919l.043.042a3.627,3.627,0,0,1,.96,1.52,2.94,2.94,0,0,1,.113,1.345L71.4,7.22a3.389,3.389,0,0,1-.42,1.143L70.96,8.4a4.969,4.969,0,0,1-1.8,1.65l-.144.087-.044.025a18.73,18.73,0,0,1-3.187,1.315l-.007,0c-2.065.667-4.122,1.158-6.037,1.589-3.494.782-7.034,1.452-10.458,2.1l-1.425.27-2.539.472c-6.89,1.279-14.015,2.6-20.837,4.252a92.939,92.939,0,0,0-11.007,3.285c-1.064.418-1.989.826-2.789,1.228,1.643.317,3.409.572,5.089.807,1.508.207,3.068.409,4.577.6,2.41.313,4.9.636,7.378,1,3.956.587,18.452,3.149,33.077,5.986,12.651,2.454,28.644,5.74,33.179,7.492.027,0,.074,0,.149,0a68.743,68.743,0,0,0,8.988-1.463l.332-.493.8.453a1.006,1.006,0,0,1,.136,1.662c-.476.431-1.46.718-4.513,1.5-1.623.414-3.462.883-4.972,1.384A10.05,10.05,0,0,0,92.5,44.651,1.528,1.528,0,0,1,93,46.233c-.427,1.447-2.751,1.836-9.284,2.578-2.422.275-4.926.56-6.925.952a15.124,15.124,0,0,0-2.439.649,2.635,2.635,0,0,0-.852.463A47.757,47.757,0,0,1,78.32,63.887c.3,1.3.543,2.67.749,4.195.109.774.209,1.608.307,2.551v.007c.106,1.089.177,2.21.219,3.426v.017c0,.143.006.285.009.427.009.425.019.865.011,1.328l0,.229c-.007.515-.014,1-.068,1.742ZM66.858,75.566,77.6,76.637c.005-.2.008-.4.011-.6l0-.233c.007-.425,0-.827-.011-1.252,0-.142-.006-.284-.009-.427-.04-1.17-.109-2.246-.21-3.289-.1-.919-.193-1.73-.3-2.48v-.006c-.2-1.466-.432-2.782-.717-4.022l0-.011a45.757,45.757,0,0,0-4.623-12.493,1.873,1.873,0,0,1-.066-1.814c.511-.992,1.9-1.65,4.66-2.2,2.092-.416,4.667-.708,7.157-.991,1.917-.218,3.728-.423,5.175-.669a13.909,13.909,0,0,0,2.03-.462,1.582,1.582,0,0,1-.35-1.362c.172-.8.9-1.427,2.449-2.075-3.934-1.372-15.346-3.919-32.369-7.222-14.6-2.832-29.052-5.386-32.988-5.971-2.458-.362-4.941-.684-7.343-1-1.512-.2-3.076-.4-4.593-.607-1.9-.265-3.9-.556-5.75-.935l-.013,0c-.75-.164-1.39-.322-1.955-.481L5.9,25.513,7.435,24.3c.088-.07.173-.129.248-.18l.1-.071.029-.02a26.143,26.143,0,0,1,4.936-2.443l.007,0a94.778,94.778,0,0,1,11.257-3.363c6.877-1.665,14.028-2.992,20.945-4.275l2.535-.471,1.423-.269c3.407-.645,6.931-1.311,10.392-2.086,1.867-.42,3.869-.9,5.857-1.54A17.038,17.038,0,0,0,68,8.414l.136-.082a3.028,3.028,0,0,0,1.137-1.007,1.44,1.44,0,0,0,.154-.416.957.957,0,0,0-.016-.41l-.019-.056a1.659,1.659,0,0,0-.476-.724A4.859,4.859,0,0,0,68,5.074c-.12-.071-.245-.144-.375-.226a10.247,10.247,0,0,0-1.264-.692l-.052-.025a26.449,26.449,0,0,0-2.5-1.084l-.262-.1q-.593-.214-1.219-.418.607.24,1.185.489l.037.017q.272.13.545.258a22.281,22.281,0,0,1,2.091,1.077,11.743,11.743,0,0,1,1.275.8l.231.159a5.882,5.882,0,0,1,.8.609l.813.808-.911.7a3.343,3.343,0,0,1-.732.432,15.665,15.665,0,0,1-2.741.919c-2.042.523-4.195.893-5.842,1.156-3.723.6-7.551,1.078-11.253,1.54l-.631.079-3.077.382c-6.815.842-13.861,1.714-20.816,2.945a96.6,96.6,0,0,0-11.932,2.8A29.977,29.977,0,0,0,5.41,20.208,12.683,12.683,0,0,0,2.543,22.42l-.077.088a5.7,5.7,0,0,0-1.248,1.974,6.266,6.266,0,0,0-.191.844,4.576,4.576,0,0,0,0,.974A4.027,4.027,0,0,0,1.69,28.02a5.99,5.99,0,0,0,1.936,1.741,14.761,14.761,0,0,0,1.712.827,31.763,31.763,0,0,0,3.169,1.023c.982.265,2.155.706,3.4,1.173a30.91,30.91,0,0,0,3.937,1.3,42.782,42.782,0,0,1,6.312,1.976,40.954,40.954,0,0,0,5.64,1.8l.039.008.039.011c5.154,1.521,6.4,1.936,9.745,3.045,2.133.708,5.053,1.677,10.367,3.391l.06.019.057.027c.6.283,1.409.642,2.339,1.059C54,47.015,59.28,49.378,62.018,51.286c.2-.073.609-.215,1.1-.377a7.72,7.72,0,0,1,2.261-.585,1.078,1.078,0,0,1,.747.278l.007.007a2.1,2.1,0,0,1,.806,1.8c-.131,1.02-1.1,1.547-2.039,2.056-1.629.884-1.691,1.141-1.451,1.65a36.413,36.413,0,0,1,2.989,10.06c.139.86.25,1.742.331,2.622.088,1,.137,1.961.17,2.691V71.5c.032.949.018,1.878,0,2.662v.024c0,.105-.009.212-.014.319-.013.319-.026.648-.056.972C66.862,75.506,66.86,75.536,66.858,75.566Z" transform="translate(0 -0.018)" fill="#ffdace"/></g></g><g transform="translate(-827.775 -38.569)"><path d="M-17875.875-5418.893l13.357,37.189,6.824-12.2,14.373,1.888v-15.245l9.438-10.018Z" transform="translate(18816.121 5954.605)" fill="#fff"/><path d="M-18051.416-5460.7h0l32.813,26.008-.516-14.577-32.3-11.815" transform="translate(18993.502 5996.952)" fill="#ff460a"/><g transform="matrix(0.978, -0.208, 0.208, 0.978, 937.775, 533.484)"><g transform="translate(0 0)"><g clip-path="url(#c)"><path d="M0-.75a.749.749,0,0,1,.205.029L43.57,11.615a.75.75,0,0,1,.239,1.326L32.624,21.163,29.767,35.341a.75.75,0,0,1-1,.552L15.028,30.606,6.02,40.471a.75.75,0,0,1-1.3-.4L-.743.1A.75.75,0,0,1-.492-.566.75.75,0,0,1,0-.75ZM41.687,12.638.9,1.035,5.992,38.277l8.274-9.061a.75.75,0,0,1,.823-.194l13.383,5.152,2.739-13.591a.75.75,0,0,1,.291-.456Z" transform="translate(1.358 1.359)" fill="#515151"/><path d="M31.842,20.423-.392.639.392-.639,32.627,19.144Z" transform="translate(1.45 2.027)" fill="#515151"/><path d="M27.719,34.608-.577.479.577-.479l28.3,34.129Z" transform="translate(2.093 2.423)" fill="#515151"/></g></g><path d="M.564,7.392-.564,6.4l6.036-6.9L6.6.494Z" transform="translate(14.945 25.476)" fill="#515151"/></g></g></g><g transform="translate(827 518)"><rect width="120" height="120" rx="60" transform="translate(203 450)" fill="#fff6f3"/><path d="M-16418-2431.167l4.334-4.333,1.334.546h28.5v.454l5.166,3.333v25.833H-16418Z" transform="translate(16660.543 2939.079)" fill="#fff"/><g transform="translate(-697.375 41.52)"><path d="M20.585,200.345a.5.5,0,0,1-.271-.081L.224,187.11a.495.495,0,1,1,.542-.828l19.819,12.977L40.4,186.282a.495.495,0,1,1,.542.828l-20.09,13.155a.5.5,0,0,1-.271.081" transform="translate(939 280.226)" fill="#515151"/><path d="M20.585,200.6a.743.743,0,0,1-.408-.122L.087,187.319A.745.745,0,1,1,.9,186.073L20.585,198.96l19.682-12.888a.745.745,0,0,1,.816,1.246l-20.09,13.155A.744.744,0,0,1,20.585,200.6ZM.5,186.451a.245.245,0,0,0-.135.45l20.09,13.155a.249.249,0,0,0,.268,0L40.809,186.9a.245.245,0,1,0-.268-.41L20.585,199.558.629,186.491A.243.243,0,0,0,.5,186.451Z" transform="translate(939 280.226)" fill="#515151"/><path d="M40.676,183.372H.5A.5.5,0,0,1,0,182.877V156.725a.5.5,0,0,1,.19-.39L5.6,152.1a.495.495,0,1,1,.609.78L.991,156.967v25.415H40.181V156.967l-5.223-4.082a.495.495,0,0,1,.609-.78l5.413,4.231a.494.494,0,0,1,.19.39v26.152a.5.5,0,0,1-.495.495" transform="translate(939 310.197)" fill="#515151"/><path d="M40.676,183.622H.5a.746.746,0,0,1-.745-.745V156.725a.741.741,0,0,1,.286-.587l5.414-4.231a.745.745,0,0,1,1.046.128.745.745,0,0,1-.128,1.045l-5.127,4.007v25.044H39.931V157.088L34.8,153.081a.745.745,0,1,1,.917-1.174l5.413,4.231a.74.74,0,0,1,.286.587v26.152A.746.746,0,0,1,40.676,183.622ZM5.909,152.25a.242.242,0,0,0-.15.052L.345,156.532a.243.243,0,0,0-.094.193v26.152a.245.245,0,0,0,.245.245h40.18a.245.245,0,0,0,.245-.245V156.725a.243.243,0,0,0-.094-.193L35.414,152.3a.245.245,0,0,0-.3.386l5.319,4.157v25.787H.741V156.845l5.319-4.157a.245.245,0,0,0-.151-.438Z" transform="translate(939 310.197)" fill="#515151"/><path d="M9.856,313.622a.495.495,0,0,1-.3-.892l15.122-11.272a.495.495,0,1,1,.591.793L10.151,313.524a.493.493,0,0,1-.3.1" transform="translate(930.797 179.313)" fill="#515151"/><path d="M9.856,313.872a.745.745,0,0,1-.446-1.342l15.122-11.272a.739.739,0,0,1,.445-.148.745.745,0,0,1,.445,1.342L10.3,313.725A.74.74,0,0,1,9.856,313.872ZM24.977,301.61a.243.243,0,0,0-.146.049L9.709,312.931a.245.245,0,1,0,.293.392l15.122-11.272a.245.245,0,0,0-.147-.441Z" transform="translate(930.797 179.313)" fill="#515151"/><path d="M208.816,313.623a.493.493,0,0,1-.3-.1L193.4,302.252a.495.495,0,0,1,.591-.793l15.122,11.272a.495.495,0,0,1-.3.892" transform="translate(769.699 179.312)" fill="#515151"/><path d="M208.816,313.873a.739.739,0,0,1-.445-.148l-15.122-11.272a.745.745,0,0,1-.152-1.042.748.748,0,0,1,.6-.3.739.739,0,0,1,.445.148l15.122,11.272a.745.745,0,0,1-.446,1.342Zm-15.121-12.262a.245.245,0,0,0-.147.441l15.122,11.272a.245.245,0,0,0,.343-.05.245.245,0,0,0-.05-.343l-15.122-11.272A.243.243,0,0,0,193.695,301.611Z" transform="translate(769.699 179.312)" fill="#515151"/><path d="M0,0H41.17V50.175H0Z" transform="translate(939 443.393)" fill="none"/></g><line x2="18.514" transform="translate(262.213 502.314)" fill="#fff"/><rect width="30.616" height="21.906" transform="translate(251.26 491.361)" fill="none"/><rect width="30.616" height="21.906" transform="translate(251.26 491.361)" fill="none"/><path d="M-16412.281-2424.2c0-.34-.031-25.3-.031-25.3l29.125.34.016,24.6" transform="translate(16660.211 2935.969)" fill="#fff"/><path d="M-16412.281-2423.453a.75.75,0,0,1-.75-.75c0-.335-.031-25.046-.031-25.3a.751.751,0,0,1,.223-.534.75.75,0,0,1,.527-.217h.008l29.126.34a.75.75,0,0,1,.741.75l.016,24.6a.75.75,0,0,1-.75.75h0a.75.75,0,0,1-.75-.75l-.016-23.86-27.625-.322c.006,4.188.031,24.235.031,24.538A.75.75,0,0,1-16412.281-2423.453Z" transform="translate(16660.211 2935.969)" fill="#515151"/><g transform="translate(248.658 496.322) rotate(-18)" style="mix-blend-mode:darken;isolation:isolate"><g transform="translate(0 0)"><g clip-path="url(#d)"><path d="M10.953,21.906A10.953,10.953,0,1,1,21.906,10.953,10.966,10.966,0,0,1,10.953,21.906" transform="translate(0 0)" fill="#ff460a"/></g></g></g><path d="M18.08,26.16a8.08,8.08,0,1,1,8.08-8.08,8.089,8.089,0,0,1-8.08,8.08" transform="translate(239.678 491.746) rotate(-18)" fill="#fff"/><g transform="translate(255.898 500.012) rotate(-18)" style="mix-blend-mode:darken;isolation:isolate"><g clip-path="url(#e)"><path d="M25.207,30.413a5.207,5.207,0,1,1,5.207-5.207,5.213,5.213,0,0,1-5.207,5.207" transform="translate(-20 -20)" fill="#ff460a"/></g></g><path d="M34.666,32.333A2.333,2.333,0,1,1,32.333,30a2.333,2.333,0,0,1,2.333,2.333" transform="translate(221.717 482.596) rotate(-18)" fill="#fff"/><g transform="translate(271.469 494.998) rotate(-18)"><g clip-path="url(#f)"><path d="M2.74,0h8.794L8.794,4.378H0Z" transform="translate(0 0)" fill="#ffb59d"/></g></g><g transform="translate(272.846 499.992) rotate(-18)"><g clip-path="url(#f)"><path d="M2.74,4.378h8.794L8.794,0H0Z" transform="translate(0 0)" fill="#ffb59d"/></g></g><path d="M0,7.6a.75.75,0,0,1-.71-.51.75.75,0,0,1,.47-.951L20.012-.71a.75.75,0,0,1,.951.47.75.75,0,0,1-.47.951L.24,7.565A.749.749,0,0,1,0,7.6Z" transform="translate(262.459 496.5)" fill="#515151"/></g><rect width="120" height="120" rx="60" transform="translate(1160 968)" fill="#fff6f3"/><g transform="translate(991 842)"><rect width="42" height="51" rx="1" transform="translate(208 161)" fill="#fff"/><path d="M1.5,1.5v48h39V1.5H1.5M1,0H41a1,1,0,0,1,1,1V50a1,1,0,0,1-1,1H1a1,1,0,0,1-1-1V1A1,1,0,0,1,1,0Z" transform="translate(208 161)" fill="#515151"/><ellipse cx="3.202" cy="3.202" rx="3.202" ry="3.202" transform="translate(224.641 172.51)" fill="#ff460a"/><path d="M9336.115,5946.933H9333v-4h.02c.258-2.2,3.017-3.931,6.383-3.931,3.535,0,6.4,1.909,6.4,4.269a2.869,2.869,0,0,1-.047.519v3.145h-3.069a9.228,9.228,0,0,1-6.575,0Z" transform="translate(-9111.359 -5759.02)" fill="#ff460a"/><g transform="translate(217.047 168.25)"><ellipse cx="11.11" cy="10.972" rx="11.11" ry="10.972" fill="rgba(0,0,0,0)"/><path d="M11.11,3A8.051,8.051,0,0,0,3,10.972a8.051,8.051,0,0,0,8.11,7.972,8.051,8.051,0,0,0,8.11-7.972A8.051,8.051,0,0,0,11.11,3m0-3a11.041,11.041,0,0,1,11.11,10.972A11.041,11.041,0,0,1,11.11,21.944,11.041,11.041,0,0,1,0,10.972,11.041,11.041,0,0,1,11.11,0Z" fill="#ffb59d"/><path d="M15.715,19.18l6.244,6.166" transform="translate(1.948 0.154)" fill="rgba(0,0,0,0)"/><path d="M20.9,26.414l-6.244-6.166,2.108-2.135,6.244,6.166Z" transform="translate(1.948 0.154)" fill="#ffb59d"/></g><path d="M25,.75H0A.75.75,0,0,1-.75,0,.75.75,0,0,1,0-.75H25a.75.75,0,0,1,.75.75A.75.75,0,0,1,25,.75Z" transform="translate(216.5 198.5)" fill="#515151"/><path d="M25,.75H0A.75.75,0,0,1-.75,0,.75.75,0,0,1,0-.75H25a.75.75,0,0,1,.75.75A.75.75,0,0,1,25,.75Z" transform="translate(216.5 203.5)" fill="#515151"/></g></g></svg>