<svg xmlns="http://www.w3.org/2000/svg" width="24" height="24" viewBox="0 0 24 24"><g transform="translate(-908 -746)"><rect width="14.165" height="12.548" transform="translate(912.917 751.603)" fill="#fff"/><path d="M1-.5H13.169a1.5,1.5,0,0,1,1.5,1.5V12a1.5,1.5,0,0,1-1.5,1.5H1A1.5,1.5,0,0,1-.5,12V1A1.5,1.5,0,0,1,1-.5Zm12.169,13a.5.5,0,0,0,.5-.5V1a.5.5,0,0,0-.5-.5H1A.5.5,0,0,0,.5,1V12a.5.5,0,0,0,.5.5Z" transform="translate(912.916 751.603)" fill="#a5a5a5"/><rect width="15" height="12.562" transform="translate(912.5 750.006)" fill="none"/><path d="M5.779,0Z" transform="translate(909.924 750.006)" fill="#fff"/><path d="M0,3.125A.625.625,0,0,1-.625,2.5V0A.625.625,0,0,1,0-.625.625.625,0,0,1,.625,0V2.5A.625.625,0,0,1,0,3.125Z" transform="translate(916.702 750.5)" fill="#a5a5a5"/><rect width="15" height="12.562" transform="translate(912.5 750.006)" fill="none"/><path d="M10.948,0Z" transform="translate(907.619 750.006)" fill="#fff"/><rect width="15" height="12.562" transform="translate(912.5 750.006)" fill="none"/><path d="M16.117,0Z" transform="translate(905.315 750.006)" fill="#fff"/><rect width="15" height="12.562" transform="translate(912.5 750.006)" fill="none"/><path d="M21.287,0Z" transform="translate(903.011 750.006)" fill="#fff"/><path d="M0,3.125A.625.625,0,0,1-.625,2.5V0A.625.625,0,0,1,0-.625.625.625,0,0,1,.625,0V2.5A.625.625,0,0,1,0,3.125Z" transform="translate(923.298 750.5)" fill="#a5a5a5"/><rect width="15" height="12.562" transform="translate(912.5 750.006)" fill="none"/><path d="M5.779,10.8Z" transform="translate(909.922 745.218)" fill="#fff"/><path d="M2,.75H0V-.75H2Z" transform="translate(915.09 758.103)" fill="#a5a5a5"/><path d="M12.2,10.8Z" transform="translate(907.057 745.218)" fill="#fff"/><path d="M2,.75H0V-.75H2Z" transform="translate(919.09 758.103)" fill="#a5a5a5"/><path d="M18.63,10.8Z" transform="translate(904.19 745.218)" fill="#fff"/><path d="M2,.75H0V-.75H2Z" transform="translate(922.91 758.103)" fill="#a5a5a5"/><path d="M5.779,16.038Z" transform="translate(909.922 742.895)" fill="#fff"/><path d="M2,.75H0V-.75H2Z" transform="translate(915.09 761.02)" fill="#a5a5a5"/><path d="M12.2,16.038Z" transform="translate(907.057 742.895)" fill="#fff"/><path d="M2,.75H0V-.75H2Z" transform="translate(919.09 761.02)" fill="#a5a5a5"/><path d="M18.63,16.038Z" transform="translate(904.19 742.895)" fill="#fff"/><path d="M2,.75H0V-.75H2Z" transform="translate(922.91 761.02)" fill="#a5a5a5"/><path d="M15,.5H0v-1H15Z" transform="translate(912.5 754.5)" fill="#a5a5a5"/><rect width="24" height="24" transform="translate(908 746)" fill="none"/></g></svg>