<svg xmlns="http://www.w3.org/2000/svg" width="250" height="120" viewBox="0 0 250 120"><g transform="translate(-900 -1400)"><g transform="translate(210 896)"><circle cx="60" cy="60" r="60" transform="translate(690 504)" fill="#fff6f3"/><path d="M-19856,60.587h-42a1,1,0,0,1-1-1v-50a1,1,0,0,1,1-1h27.477L-19855,24.106V59.588A1,1,0,0,1-19856,60.587Z" transform="translate(20627 526.684)" fill="#fff"/><path d="M-19856,61.337h-42a1.752,1.752,0,0,1-1.75-1.75v-50a1.752,1.752,0,0,1,1.75-1.75h27.787l.219.22,15.744,15.739V59.588A1.752,1.752,0,0,1-19856,61.337Zm-42-52a.25.25,0,0,0-.25.25v50a.25.25,0,0,0,.25.25h42a.249.249,0,0,0,.25-.249V24.417l-15.084-15.08Z" transform="translate(20627 526.684)" fill="#515151"/><path d="M14.338.75H0A.75.75,0,0,1-.75,0,.75.75,0,0,1,0-.75H14.338a.75.75,0,0,1,.75.75A.75.75,0,0,1,14.338.75Z" transform="translate(736.162 564.021)" fill="#515151"/><path d="M18.338.75H0A.75.75,0,0,1-.75,0,.75.75,0,0,1,0-.75H18.338a.75.75,0,0,1,.75.75A.75.75,0,0,1,18.338.75Z" transform="translate(736.162 571.021)" fill="#515151"/><path d="M21.338.75H0A.75.75,0,0,1-.75,0,.75.75,0,0,1,0-.75H21.338a.75.75,0,0,1,.75.75A.75.75,0,0,1,21.338.75Z" transform="translate(736.162 578.021)" fill="#515151"/><path d="M10.948,0,21.9,10.941H0Z" transform="translate(764.14 558.733) rotate(-135)" fill="#ffb59d"/><path d="M10.948-.75a.748.748,0,0,1,.53.219L22.43,10.41a.75.75,0,0,1-.53,1.281H0a.75.75,0,0,1-.693-.463A.75.75,0,0,1-.53,10.41L10.418-.531A.748.748,0,0,1,10.948-.75Zm9.14,10.941L10.948,1.06,1.811,10.191Z" transform="translate(764.14 558.733) rotate(-135)" fill="#515151"/><path d="M25.462.75H0A.75.75,0,0,1-.75,0,.75.75,0,0,1,0-.75H25.462a.75.75,0,0,1,.75.75A.75.75,0,0,1,25.462.75Z" transform="translate(736.162 557.021)" fill="#515151"/><rect width="10" height="26" rx="1" transform="matrix(0.829, -0.559, 0.559, 0.829, 758.318, 571.172)" fill="#ff460a"/><path d="M1.5,1.5v23h7V1.5h-7M1,0H9a1,1,0,0,1,1,1V25a1,1,0,0,1-1,1H1a1,1,0,0,1-1-1V1A1,1,0,0,1,1,0Z" transform="matrix(0.829, -0.559, 0.559, 0.829, 758.318, 571.172)" fill="#515151"/><path d="M571.942,462.455l-4.336,7.306h8.467Z" transform="matrix(0.829, -0.559, 0.559, 0.829, 26.117, 499.331)" fill="#fff"/><path d="M571.942,461.7h.008a.75.75,0,0,1,.645.381l4.131,7.306a.75.75,0,0,1-.653,1.119h-8.467a.75.75,0,0,1-.645-1.133l4.336-7.306A.75.75,0,0,1,571.942,461.7Zm2.845,7.306-2.861-5.06-3,5.06Z" transform="matrix(0.829, -0.559, 0.559, 0.829, 26.117, 499.331)" fill="#515151"/></g><g transform="translate(-80 896)"><circle cx="60" cy="60" r="60" transform="translate(1110 504)" fill="#fff6f3"/><rect width="48.242" height="41.729" rx="1" transform="translate(1143.879 542.5)" fill="#fff"/><path d="M1-.75H47.242A1.752,1.752,0,0,1,48.992,1V40.729a1.752,1.752,0,0,1-1.75,1.75H1a1.752,1.752,0,0,1-1.75-1.75V1A1.752,1.752,0,0,1,1-.75ZM47.242,40.979a.25.25,0,0,0,.25-.25V1a.25.25,0,0,0-.25-.25H1A.25.25,0,0,0,.75,1V40.729a.25.25,0,0,0,.25.25Z" transform="translate(1143.879 542.5)" fill="#515151"/><rect width="48.242" height="10.521" rx="1" transform="translate(1143.879 542.5)" fill="#ffb59d"/><path d="M1-.75H47.242A1.752,1.752,0,0,1,48.992,1V9.521a1.752,1.752,0,0,1-1.75,1.75H1A1.752,1.752,0,0,1-.75,9.521V1A1.752,1.752,0,0,1,1-.75ZM47.242,9.771a.25.25,0,0,0,.25-.25V1a.25.25,0,0,0-.25-.25H1A.25.25,0,0,0,.75,1V9.521a.25.25,0,0,0,.25.25Z" transform="translate(1143.879 542.5)" fill="#515151"/><rect width="6.127" height="6.127" transform="translate(1153.703 570.9)" fill="#ffb59d"/><rect width="6.127" height="6.127" transform="translate(1153.703 560)" fill="#ffb59d"/><rect width="6.127" height="6.127" transform="translate(1164.936 570.9)" fill="#ffb59d"/><rect width="6.127" height="6.127" transform="translate(1164.936 560)" fill="#ffb59d"/><rect width="6.128" height="6.127" transform="translate(1176.169 570.9)" fill="#ffb59d"/><rect width="6.128" height="6.127" transform="translate(1176.169 560)" fill="#ffb59d"/><path d="M0,6.977a.75.75,0,0,1-.75-.75V0A.75.75,0,0,1,0-.75.75.75,0,0,1,.75,0V6.227A.75.75,0,0,1,0,6.977Z" transform="translate(1156.767 539.386)" fill="#515151"/><path d="M0,6.977a.75.75,0,0,1-.75-.75V0A.75.75,0,0,1,0-.75.75.75,0,0,1,.75,0V6.227A.75.75,0,0,1,0,6.977Z" transform="translate(1179.233 539.386)" fill="#515151"/><path d="M13.075,0A13.075,13.075,0,1,1,0,13.075,13.075,13.075,0,0,1,13.075,0Z" transform="translate(1179.046 566.127)" fill="#ff460a"/><path d="M979.714,480.527a1.1,1.1,0,0,1-.793-.338l-.44-.458-.016-.017-4.516-4.9a1.1,1.1,0,1,1,1.618-1.491l4.078,4.425,5.329-6.69a1.1,1.1,0,0,1,1.721,1.371l-6.12,7.683a1.1,1.1,0,0,1-.809.413Z" transform="translate(211.981 104.206)" fill="#fff"/></g></g></svg>