<svg xmlns="http://www.w3.org/2000/svg" width="250" height="120" viewBox="0 0 250 120"><g transform="translate(-900 -1184)"><g transform="translate(827 498)"><rect width="120" height="120" rx="60" transform="translate(73 686)" fill="#fff6f3"/><path d="M51.5,4.781A3.281,3.281,0,0,0,48.22,1.5H10.807A3.28,3.28,0,0,0,7.526,4.781V37.6H51.5Z" transform="translate(103.738 726.946)" fill="#fff"/><path d="M10.807.75H48.22a4.036,4.036,0,0,1,4.031,4.031V38.349H6.776V4.781A4.036,4.036,0,0,1,10.807.75Zm39.944,36.1V4.781A2.534,2.534,0,0,0,48.22,2.25H10.807A2.534,2.534,0,0,0,8.276,4.781V36.849Z" transform="translate(103.738 726.946)" fill="#515151"/><path d="M36.937,33.389a3.488,3.488,0,0,1-3.354,2.537H25.444a3.486,3.486,0,0,1-3.354-2.537H1.5v1.585c0,2.626,2.13,6.181,4.756,6.181H52.77c2.626,0,4.757-3.555,4.757-6.181V33.389Z" transform="translate(103.738 726.946)" fill="#fff"/><path d="M36.937,33.389a3.488,3.488,0,0,1-3.354,2.537H25.444a3.486,3.486,0,0,1-3.354-2.537H1.5v1.585c0,2.626,2.13,6.181,4.756,6.181H52.77c2.626,0,4.757-3.555,4.757-6.181V33.389Z" transform="translate(103.738 726.946)" fill="#ffb59d"/><path d="M.75,32.639H22.658l.154.546a2.745,2.745,0,0,0,2.632,1.991h8.139a2.748,2.748,0,0,0,2.632-1.992l.155-.545H58.277v2.335a8.174,8.174,0,0,1-1.531,4.508A5.016,5.016,0,0,1,52.77,41.9H6.256a5.015,5.015,0,0,1-3.975-2.423A8.175,8.175,0,0,1,.75,34.974Zm20.814,1.5H2.25v.835c0,2.371,1.943,5.431,4.006,5.431H52.77c2.064,0,4.007-3.06,4.007-5.431v-.835H37.462a4.256,4.256,0,0,1-3.879,2.537H25.444A4.254,4.254,0,0,1,21.564,34.139Z" transform="translate(103.738 726.946)" fill="#515151"/><rect width="59.026" height="42.654" transform="translate(103.486 722.946)" fill="none"/><path d="M13.075,0A13.075,13.075,0,1,1,0,13.075,13.075,13.075,0,0,1,13.075,0Z" transform="translate(146 747.425)" fill="#ff460a"/><path d="M979.714,480.524a1.1,1.1,0,0,1-.793-.338l-.44-.458-.015-.016-4.516-4.9a1.1,1.1,0,1,1,1.617-1.492l4.078,4.421,5.329-6.69a1.1,1.1,0,1,1,1.721,1.371l-6.12,7.683a1.1,1.1,0,0,1-.809.413Z" transform="translate(-821.064 285.504)" fill="#fff"/><path d="M265.457,288.867l-1.647,5.881h-2l-1.706-5.881H257.87l-1.686,5.881h-2.039l-1.667-5.881H250.5v-2.2h1.353l-1.471-5.235h2.314l1.392,5.235h2.294l1.49-5.235h2.235l1.49,5.235h2.334l1.392-5.235h2.235l-1.47,5.235h1.569v2.2Zm-10.8,0,.529,2.039.588-2.039Zm4.333-3.9-.49,1.706h.98Zm3.235,3.9.588,2.039.53-2.039Z" transform="translate(-126.018 458.182)" fill="#ff460a"/></g><g transform="translate(827 495)"><rect width="120" height="120" rx="60" transform="translate(203 689)" fill="#f7f7f7"/><path d="M51.5,4.781A3.281,3.281,0,0,0,48.22,1.5H10.807A3.28,3.28,0,0,0,7.526,4.781V37.6H51.5Z" transform="translate(233.738 729.946)" fill="#fff"/><path d="M10.807.75H48.22a4.036,4.036,0,0,1,4.031,4.031V38.349H6.776V4.781A4.036,4.036,0,0,1,10.807.75Zm39.944,36.1V4.781A2.534,2.534,0,0,0,48.22,2.25H10.807A2.534,2.534,0,0,0,8.276,4.781V36.849Z" transform="translate(233.738 729.946)" fill="#515151"/><path d="M36.937,33.389a3.488,3.488,0,0,1-3.354,2.537H25.444a3.486,3.486,0,0,1-3.354-2.537H1.5v1.585c0,2.626,2.13,6.181,4.756,6.181H52.77c2.626,0,4.757-3.555,4.757-6.181V33.389Z" transform="translate(233.738 729.946)" fill="#fff"/><path d="M36.937,33.389a3.488,3.488,0,0,1-3.354,2.537H25.444a3.486,3.486,0,0,1-3.354-2.537H1.5v1.585c0,2.626,2.13,6.181,4.756,6.181H52.77c2.626,0,4.757-3.555,4.757-6.181V33.389Z" transform="translate(233.738 729.946)" fill="#e1e1e1"/><path d="M.75,32.639H22.658l.154.546a2.745,2.745,0,0,0,2.632,1.991h8.139a2.748,2.748,0,0,0,2.632-1.992l.155-.545H58.277v2.335a8.174,8.174,0,0,1-1.531,4.508A5.016,5.016,0,0,1,52.77,41.9H6.256a5.015,5.015,0,0,1-3.975-2.423A8.175,8.175,0,0,1,.75,34.974Zm20.814,1.5H2.25v.835c0,2.371,1.943,5.431,4.006,5.431H52.77c2.064,0,4.007-3.06,4.007-5.431v-.835H37.462a4.256,4.256,0,0,1-3.879,2.537H25.444A4.254,4.254,0,0,1,21.564,34.139Z" transform="translate(233.738 729.946)" fill="#515151"/><rect width="59.026" height="42.654" transform="translate(233.486 725.946)" fill="none"/><path d="M13.075,0A13.075,13.075,0,1,1,0,13.075,13.075,13.075,0,0,1,13.075,0Z" transform="translate(276 750.425)" fill="#a5a5a5"/><path d="M265.457,288.867l-1.647,5.881h-2l-1.706-5.881H257.87l-1.686,5.881h-2.039l-1.667-5.881H250.5v-2.2h1.353l-1.471-5.235h2.314l1.392,5.235h2.294l1.49-5.235h2.235l1.49,5.235h2.334l1.392-5.235h2.235l-1.47,5.235h1.569v2.2Zm-10.8,0,.529,2.039.588-2.039Zm4.333-3.9-.49,1.706h.98Zm3.235,3.9.588,2.039.53-2.039Z" transform="translate(3.982 461.182)" fill="#a5a5a5"/><path d="M17234.074,2480.968a1.1,1.1,0,0,1-1.1-1.1v-7.937a1.1,1.1,0,1,1,2.2,0v7.938A1.1,1.1,0,0,1,17234.074,2480.968Z" transform="translate(-16945 -1715)" fill="#e1e1e1"/><circle cx="1.25" cy="1.25" r="1.25" transform="translate(287.826 768)" fill="#e1e1e1"/></g></g></svg>