<svg xmlns="http://www.w3.org/2000/svg" width="145" height="62" viewBox="0 0 145 62"><g transform="translate(7904 8931)"><g transform="translate(-9264 -9168)"><g transform="translate(1360 237)"><rect width="24" height="24" fill="#fff"/><path d="M1,0H13a1,1,0,0,1,1,1V17a1,1,0,0,1-1,1H1a1,1,0,0,1-1-1V1A1,1,0,0,1,1,0Z" transform="translate(3 3)" fill="#fff"/><path d="M1,1V17H13V1H1M1,0H13a1,1,0,0,1,1,1V17a1,1,0,0,1-1,1H1a1,1,0,0,1-1-1V1A1,1,0,0,1,1,0Z" transform="translate(3 3)" fill="#747474"/><path d="M0,0H8V1H0Z" transform="translate(6 7)" fill="#fff"/><path d="M0,0H8V1H0Z" transform="translate(6 7)" fill="#747474"/><rect width="6" height="1" transform="translate(6 10)" fill="#707070"/><path d="M0,0H6V1H0Z" transform="translate(6 10)" fill="#747474"/><rect width="5" height="1" transform="translate(6 13)" fill="#fff"/><path d="M0,0H5V1H0Z" transform="translate(6 13)" fill="#747474"/><path d="M0,0H1V5H0Z" transform="translate(17 16.707) rotate(-45)" fill="#fff"/><path d="M0,0H1V5H0Z" transform="translate(17 16.707) rotate(-45)" fill="#747474"/><g transform="translate(13 12)" fill="#fff"><path d="M 3.5 6.5 C 1.845790028572083 6.5 0.5 5.154210090637207 0.5 3.5 C 0.5 1.845790028572083 1.845790028572083 0.5 3.5 0.5 C 5.154210090637207 0.5 6.5 1.845790028572083 6.5 3.5 C 6.5 5.154210090637207 5.154210090637207 6.5 3.5 6.5 Z" stroke="none"/><path d="M 3.5 1 C 2.121500015258789 1 1 2.121500015258789 1 3.5 C 1 4.878499984741211 2.121500015258789 6 3.5 6 C 4.878499984741211 6 6 4.878499984741211 6 3.5 C 6 2.121500015258789 4.878499984741211 1 3.5 1 M 3.5 0 C 5.433000087738037 0 7 1.566999912261963 7 3.5 C 7 5.433000087738037 5.433000087738037 7 3.5 7 C 1.566999912261963 7 0 5.433000087738037 0 3.5 C 0 1.566999912261963 1.566999912261963 0 3.5 0 Z" stroke="none" fill="#747474"/></g><rect width="5" height="1" transform="translate(6 16)" fill="#707070"/><path d="M0,0H5V1H0Z" transform="translate(6 16)" fill="#707070"/></g></g><g transform="translate(-9224 -9223)"><g transform="translate(1360 292)"><rect width="24" height="24" fill="#fff"/><g transform="translate(3 3)" fill="#fff" stroke="#747474" stroke-width="1"><rect width="14" height="18" rx="1" stroke="none"/><rect x="0.5" y="0.5" width="13" height="17" rx="0.5" fill="none"/></g><rect width="8" height="1" transform="translate(6 7)" fill="#fff"/><path d="M0,0H8V1H0Z" transform="translate(6 7)" fill="#747474"/><rect width="6" height="1" transform="translate(6 10)" fill="#707070"/><path d="M0,0H6V1H0Z" transform="translate(6 10)" fill="#707070"/><rect width="5" height="1" transform="translate(6 13)" fill="#707070"/><path d="M0,0H5V1H0Z" transform="translate(6 13)" fill="#707070"/><rect width="5" height="1" transform="translate(6 16)" fill="#707070"/><path d="M0,0H5V1H0Z" transform="translate(6 16)" fill="#707070"/><g transform="translate(13 12)" fill="#fff" stroke-linecap="round" stroke-linejoin="round"><path d="M 6.01338005065918 8.293303489685059 L 0.5 2.781564474105835 L 0.5 0.5003080368041992 L 2.806900024414062 0.5003080368041992 L 8.293689727783203 6.013673305511475 L 6.01338005065918 8.293303489685059 Z" stroke="none"/><path d="M 1 1.000308036804199 L 1 2.574420928955078 L 6.013379096984863 7.586307525634766 L 7.587389945983887 6.012760162353516 L 2.599090576171875 1.000308036804199 L 1 1.000308036804199 M 0 0.0003080368041992188 L 3.01471996307373 0.0003080368041992188 L 9 6.014568328857422 L 6.01338005065918 9.000308036804199 L 0 2.988718032836914 L 0 0.0003080368041992188 Z" stroke="none" fill="#747474"/></g></g></g><g transform="translate(-9183 -9278)"><g transform="translate(1360 347)"><rect width="24" height="24" fill="#fff"/><g transform="translate(13 10)" fill="#fff" stroke="#747474" stroke-width="1"><rect width="8" height="11" rx="1" stroke="none"/><rect x="0.5" y="0.5" width="7" height="10" rx="0.5" fill="none"/></g><g transform="translate(3 3)" fill="#fff" stroke="#747474" stroke-width="1"><rect width="13" height="18" rx="1" stroke="none"/><rect x="0.5" y="0.5" width="12" height="17" rx="0.5" fill="none"/></g><rect width="3" height="1" transform="translate(6 6)" fill="#707070"/><path d="M0,0H3V1H0Z" transform="translate(6 6)" fill="#707070"/><rect width="3" height="1" transform="translate(10 6)" fill="#707070"/><path d="M0,0H3V1H0Z" transform="translate(10 6)" fill="#707070"/><rect width="3" height="1" transform="translate(6 9)" fill="#707070"/><path d="M0,0H3V1H0Z" transform="translate(6 9)" fill="#707070"/><rect width="3" height="1" transform="translate(10 9)" fill="#707070"/><path d="M0,0H3V1H0Z" transform="translate(10 9)" fill="#707070"/><rect width="3" height="1" transform="translate(6 12)" fill="#707070"/><path d="M0,0H3V1H0Z" transform="translate(6 12)" fill="#707070"/><rect width="3" height="1" transform="translate(10 12)" fill="#707070"/><path d="M0,0H3V1H0Z" transform="translate(10 12)" fill="#707070"/><g transform="translate(7 15)" fill="#fff" stroke="#707070" stroke-linejoin="round" stroke-width="1"><rect width="5" height="6" stroke="none"/><rect x="0.5" y="0.5" width="4" height="5" fill="none"/></g><rect width="2" height="1" transform="translate(17 12)" fill="#fff"/><path d="M0,0H2V1H0Z" transform="translate(17 12)" fill="#747474"/><rect width="2" height="1" transform="translate(17 14)" fill="#fff"/><path d="M0,0H2V1H0Z" transform="translate(17 14)" fill="#747474"/><rect width="2" height="1" transform="translate(17 16)" fill="#fff"/><path d="M0,0H2V1H0Z" transform="translate(17 16)" fill="#747474"/></g></g><g transform="translate(-9144 -9330)"><g transform="translate(1361 399)"><rect width="24" height="24" fill="#fff"/><g transform="translate(3 3)" fill="#fff" stroke="#747474" stroke-width="1"><rect width="14" height="18" rx="1" stroke="none"/><rect x="0.5" y="0.5" width="13" height="17" rx="0.5" fill="none"/></g><rect width="8" height="1" transform="translate(6 7)" fill="#707070"/><path d="M0,0H8V1H0Z" transform="translate(6 7)" fill="#707070"/><rect width="6" height="1" transform="translate(6 10)" fill="#707070"/><path d="M0,0H6V1H0Z" transform="translate(6 10)" fill="#707070"/><rect width="5" height="1" transform="translate(6 13)" fill="#707070"/><path d="M0,0H5V1H0Z" transform="translate(6 13)" fill="#707070"/><rect width="5" height="1" transform="translate(6 16)" fill="#707070"/><path d="M0,0H5V1H0Z" transform="translate(6 16)" fill="#707070"/><g transform="translate(13 9)" fill="#fff" stroke="#747474" stroke-width="1"><circle cx="5" cy="5" r="5" stroke="none"/><circle cx="5" cy="5" r="4.5" fill="none"/></g><rect width="1" height="3" transform="translate(15.172 14.121) rotate(-45)" fill="#707070"/><path d="M0,0H1V3H0Z" transform="translate(15.172 14.121) rotate(-45)" fill="#707070"/><rect width="1" height="5" transform="translate(20.121 12) rotate(45)" fill="#707070"/><path d="M0,0H1V5H0Z" transform="translate(20.121 12) rotate(45)" fill="#707070"/></g></g><g transform="translate(0 38)"><g transform="translate(-9264 -9168)"><g transform="translate(1360 237)"><rect width="24" height="24" fill="#fff"/><g transform="translate(3 3)" fill="#fff" stroke="#ff460a" stroke-width="1"><rect width="14" height="18" rx="1" stroke="none"/><rect x="0.5" y="0.5" width="13" height="17" rx="0.5" fill="none"/></g><rect width="8" height="1" transform="translate(6 7)" fill="#ff460a"/><path d="M0,0H8V1H0Z" transform="translate(6 7)" fill="#ff460a"/><rect width="6" height="1" transform="translate(6 10)" fill="#ff460a"/><path d="M0,0H6V1H0Z" transform="translate(6 10)" fill="#ff460a"/><rect width="5" height="1" transform="translate(6 13)" fill="#ff460a"/><path d="M0,0H5V1H0Z" transform="translate(6 13)" fill="#ff460a"/><rect width="1" height="5" transform="translate(17 16.707) rotate(-45)" fill="#fff"/><path d="M0,0H1V5H0Z" transform="translate(17 16.707) rotate(-45)" fill="#ff460a"/><circle cx="3.5" cy="3.5" r="3.5" transform="translate(13 12)" fill="#fff"/><path d="M3.5,1A2.5,2.5,0,1,0,6,3.5,2.5,2.5,0,0,0,3.5,1m0-1A3.5,3.5,0,1,1,0,3.5,3.5,3.5,0,0,1,3.5,0Z" transform="translate(13 12)" fill="#ff460a"/><rect width="5" height="1" transform="translate(6 16)" fill="#ff460a"/><path d="M0,0H5V1H0Z" transform="translate(6 16)" fill="#ff460a"/></g></g><g transform="translate(-9224 -9223)"><g transform="translate(1360 292)"><rect width="24" height="24" fill="#fff"/><g transform="translate(3 3)" fill="#fff" stroke="#ff460a" stroke-width="1"><rect width="14" height="18" rx="1" stroke="none"/><rect x="0.5" y="0.5" width="13" height="17" rx="0.5" fill="none"/></g><rect width="8" height="1" transform="translate(6 7)" fill="#ff460a"/><path d="M0,0H8V1H0Z" transform="translate(6 7)" fill="#ff460a"/><rect width="6" height="1" transform="translate(6 10)" fill="#ff460a"/><path d="M0,0H6V1H0Z" transform="translate(6 10)" fill="#ff460a"/><rect width="5" height="1" transform="translate(6 13)" fill="#ff460a"/><path d="M0,0H5V1H0Z" transform="translate(6 13)" fill="#ff460a"/><rect width="5" height="1" transform="translate(6 16)" fill="#ff460a"/><path d="M0,0H5V1H0Z" transform="translate(6 16)" fill="#ff460a"/><g transform="translate(13 12)" fill="#fff" stroke-linecap="round" stroke-linejoin="round"><path d="M 6.01338005065918 8.293303489685059 L 0.5 2.781564474105835 L 0.5 0.5003080368041992 L 2.806900024414062 0.5003080368041992 L 8.293689727783203 6.013673305511475 L 6.01338005065918 8.293303489685059 Z" stroke="none"/><path d="M 1 1.000308036804199 L 1 2.574420928955078 L 6.013379096984863 7.586307525634766 L 7.587389945983887 6.012760162353516 L 2.599090576171875 1.000308036804199 L 1 1.000308036804199 M 0 0.0003080368041992188 L 3.01471996307373 0.0003080368041992188 L 9 6.014568328857422 L 6.01338005065918 9.000308036804199 L 0 2.988718032836914 L 0 0.0003080368041992188 Z" stroke="none" fill="#ff460a"/></g></g></g><g transform="translate(-9183 -9278)"><g transform="translate(1360 347)"><rect width="24" height="24" fill="#fff"/><g transform="translate(13 10)" fill="#fff" stroke="#ff460a" stroke-width="1"><rect width="8" height="11" rx="1" stroke="none"/><rect x="0.5" y="0.5" width="7" height="10" rx="0.5" fill="none"/></g><g transform="translate(3 3)" fill="#fff" stroke="#ff460a" stroke-width="1"><rect width="13" height="18" rx="1" stroke="none"/><rect x="0.5" y="0.5" width="12" height="17" rx="0.5" fill="none"/></g><rect width="3" height="1" transform="translate(6 6)" fill="#fff"/><path d="M0,0H3V1H0Z" transform="translate(6 6)" fill="#ff460a"/><rect width="3" height="1" transform="translate(10 6)" fill="#ff460a"/><path d="M0,0H3V1H0Z" transform="translate(10 6)" fill="#ff460a"/><rect width="3" height="1" transform="translate(6 9)" fill="#fff"/><path d="M0,0H3V1H0Z" transform="translate(6 9)" fill="#ff460a"/><rect width="3" height="1" transform="translate(10 9)" fill="#fff"/><path d="M0,0H3V1H0Z" transform="translate(10 9)" fill="#ff460a"/><rect width="3" height="1" transform="translate(6 12)" fill="#fff"/><path d="M0,0H3V1H0Z" transform="translate(6 12)" fill="#ff460a"/><rect width="3" height="1" transform="translate(10 12)" fill="#fff"/><path d="M0,0H3V1H0Z" transform="translate(10 12)" fill="#ff460a"/><g transform="translate(7 15)" fill="#fff" stroke="#ff460a" stroke-linejoin="round" stroke-width="1"><rect width="5" height="6" stroke="none"/><rect x="0.5" y="0.5" width="4" height="5" fill="none"/></g><rect width="2" height="1" transform="translate(17 12)" fill="#fff"/><path d="M0,0H2V1H0Z" transform="translate(17 12)" fill="#ff460a"/><rect width="2" height="1" transform="translate(17 14)" fill="#fff"/><path d="M0,0H2V1H0Z" transform="translate(17 14)" fill="#ff460a"/><rect width="2" height="1" transform="translate(17 16)" fill="#fff"/><path d="M0,0H2V1H0Z" transform="translate(17 16)" fill="#ff460a"/></g></g><g transform="translate(-9144 -9330)"><g transform="translate(1361 399)"><rect width="24" height="24" fill="#fff"/><g transform="translate(3 3)" fill="#fff" stroke="#ff460a" stroke-width="1"><rect width="14" height="18" rx="1" stroke="none"/><rect x="0.5" y="0.5" width="13" height="17" rx="0.5" fill="none"/></g><rect width="8" height="1" transform="translate(6 7)" fill="#fff"/><path d="M0,0H8V1H0Z" transform="translate(6 7)" fill="#ff460a"/><rect width="6" height="1" transform="translate(6 10)" fill="#fff"/><path d="M0,0H6V1H0Z" transform="translate(6 10)" fill="#ff460a"/><rect width="5" height="1" transform="translate(6 13)" fill="#fff"/><path d="M0,0H5V1H0Z" transform="translate(6 13)" fill="#ff460a"/><rect width="5" height="1" transform="translate(6 16)" fill="#fff"/><path d="M0,0H5V1H0Z" transform="translate(6 16)" fill="#ff460a"/><g transform="translate(13 9)" fill="#fff" stroke="#ff460a" stroke-width="1"><circle cx="5" cy="5" r="5" stroke="none"/><circle cx="5" cy="5" r="4.5" fill="none"/></g><rect width="1" height="3" transform="translate(15.172 14.121) rotate(-45)" fill="#fff"/><path d="M0,0H1V3H0Z" transform="translate(15.172 14.121) rotate(-45)" fill="#ff460a"/><rect width="1" height="5" transform="translate(20.121 12) rotate(45)" fill="#fff"/><path d="M0,0H1V5H0Z" transform="translate(20.121 12) rotate(45)" fill="#ff460a"/></g></g></g></g></svg>