<svg xmlns="http://www.w3.org/2000/svg" width="241" height="60.015" viewBox="0 0 241 60.015"><g transform="translate(-1139 -714)"><g transform="translate(1282 -474)"><path d="M17.935-.085a3.236,3.236,0,0,1,2.3.954l2.826,2.826a3.262,3.262,0,0,1,0,4.607L21.1,10.266h0L7.076,24.291l-5.715.631a2.158,2.158,0,0,1-.236.013A2.129,2.129,0,0,1-.988,22.571l.636-5.718L12.267,4.235h0L15.631.869A3.236,3.236,0,0,1,17.935-.085ZM19.7,8.839,21.65,6.887a1.259,1.259,0,0,0,0-1.778L18.824,2.283a1.258,1.258,0,0,0-1.778,0L15.094,4.234Zm-1.426,1.428-4.6-4.6L1.559,17.771,1,22.792a.121.121,0,0,0,.031.1.128.128,0,0,0,.11.042l5.017-.554Z" transform="translate(71.501 1190.585)" fill="#fff"/><rect width="30" height="30" transform="translate(68 1188)" fill="none"/></g><g transform="translate(-3976 1802.008)"><path d="M63.8,60.164,47.109,43.321A23.781,23.781,0,1,0,43.5,46.977L60.077,63.711A2.568,2.568,0,0,0,63.7,63.8,2.585,2.585,0,0,0,63.8,60.164ZM28.422,47.18A18.778,18.778,0,1,1,41.7,41.68,18.662,18.662,0,0,1,28.422,47.18Z" transform="translate(5250.5 -1092.5)" fill="#fff"/><g transform="translate(4485.833 -1422)"><path d="M1.5,18h-3V0h3Z" transform="translate(793.5 349.5)" fill="#fff"/><path d="M1.5,18h-3V0h3Z" transform="translate(802.5 358.5) rotate(90)" fill="#fff"/></g></g><g transform="translate(1135.5 710.5)"><path d="M19.611,29.167H6.389A2.892,2.892,0,0,1,3.5,26.278V22.5h2v3.778a.89.89,0,0,0,.889.889H19.611a.89.89,0,0,0,.889-.889V22.5h2v3.778A2.892,2.892,0,0,1,19.611,29.167Z" transform="translate(0 -6.667)" fill="#4a4a4a"/><path d="M15.222,21.136,9.793,15.707a1,1,0,0,1,1.414-1.414l4.015,4.015,4.015-4.015a1,1,0,1,1,1.414,1.414Z" transform="translate(-2.222 -3.889)" fill="#4a4a4a"/><path d="M18,16.833a1,1,0,0,1-1-1V4.5a1,1,0,1,1,2,0V15.833A1,1,0,0,1,18,16.833Z" transform="translate(-5)" fill="#4a4a4a"/></g><rect width="18" height="18" rx="3" transform="translate(1167 714)" fill="#2b579a"/><path d="M10.79.1H9.5L7.254-7.111,5.135.1h-1.3L.91-9.49H2.353L4.485-2.366,6.513-9.477H7.982l2.08,7.111,1.95-7.124h1.443Z" transform="translate(1169 728)" fill="#fff"/><g transform="translate(950 272)"><rect width="18" height="18" rx="3" transform="translate(245 442)" fill="#b7472a"/><path d="M4.537-4.706a1.712,1.712,0,0,0,1.274-.5A1.763,1.763,0,0,0,6.305-6.5a1.734,1.734,0,0,0-.5-1.281,1.734,1.734,0,0,0-1.281-.5H2.418v3.575ZM1.04-9.49H4.576a3.281,3.281,0,0,1,1.6.383,2.809,2.809,0,0,1,1.1,1.06A3,3,0,0,1,7.67-6.5a3,3,0,0,1-.4,1.547,2.808,2.808,0,0,1-1.1,1.06,3.281,3.281,0,0,1-1.6.383H2.418V.1H1.04Z" transform="translate(250 456)" fill="#fff"/></g><g transform="translate(955 272)"><rect width="18" height="18" rx="3" transform="translate(268 442)" fill="#217346"/><path d="M5.811-4.706,9.087.1H7.371L4.953-3.523,2.535.1H.819l3.276-4.81L.819-9.49H2.535L4.953-5.876l2.418-3.6L9.087-9.49Z" transform="translate(272 456)" fill="#fff"/></g><g transform="translate(961 272)"><rect width="18" height="18" rx="3" transform="translate(290 442)" fill="#148fd0"/><path d="M5.418-7.91V-9.492h1.54V-7.91H10.29v1.26H2.044V-7.91ZM3-3.542a1.961,1.961,0,0,1,.413-1.225,2.7,2.7,0,0,1,1.141-.84,4.251,4.251,0,0,1,1.638-.3,4.2,4.2,0,0,1,1.631.3,2.7,2.7,0,0,1,1.134.84,1.961,1.961,0,0,1,.413,1.225,1.961,1.961,0,0,1-.413,1.225,2.754,2.754,0,0,1-1.134.847,4.115,4.115,0,0,1-1.631.308A4.166,4.166,0,0,1,4.55-1.47a2.747,2.747,0,0,1-1.141-.847A1.961,1.961,0,0,1,3-3.542Zm1.582,0a.894.894,0,0,0,.448.791,2.122,2.122,0,0,0,1.162.287,2.13,2.13,0,0,0,1.155-.287A.891.891,0,0,0,7.8-3.542a.891.891,0,0,0-.455-.791A2.13,2.13,0,0,0,6.188-4.62a2.122,2.122,0,0,0-1.162.287A.894.894,0,0,0,4.578-3.542Z" transform="translate(293 456)" fill="#fff"/></g></g></svg>