<svg xmlns="http://www.w3.org/2000/svg" xmlns:xlink="http://www.w3.org/1999/xlink" width="244" height="92" viewBox="0 0 244 92"><defs><clipPath id="a"><rect width="24" height="24" fill="none"/></clipPath></defs><g transform="translate(8528 9100)"><g transform="translate(-8528 -9100)"><path d="M0,0H24V24H0Z" fill="none"/><path d="M3,7,3,9A2,2,0,0,1,5,7H19a2,2,0,0,1,2,2v9a2,2,0,0,1-2,2H5a2,2,0,0,1-2-2Z" fill="none" stroke="#000" stroke-linecap="round" stroke-linejoin="round" stroke-width="1"/><path d="M8,7V5a2,2,0,0,1,2-2h4a2,2,0,0,1,2,2V7" fill="none" stroke="#000" stroke-linecap="round" stroke-linejoin="round" stroke-width="1"/><path d="M12,12v.01" stroke="#000" stroke-linecap="round" stroke-linejoin="round" stroke-width="2"/><path d="M3,13a20,20,0,0,0,18,0" fill="none" stroke="#000" stroke-linecap="round" stroke-linejoin="round" stroke-width="1"/></g><g transform="translate(-8484 -9100)"><path d="M0,0H24V24H0Z" fill="none"/><path d="M10,19.5A5.5,5.5,0,1,1,15.5,14,5.506,5.506,0,0,1,10,19.5ZM5.5,14a4.5,4.5,0,1,0,1.318-3.182A4.505,4.505,0,0,0,5.5,14Z"/><path d="M13.6,10.9a.5.5,0,0,1-.354-.854l5.4-5.4a.5.5,0,0,1,.707.707l-5.4,5.4A.5.5,0,0,1,13.6,10.9Z"/><path d="M19,5.5H14a.5.5,0,0,1,0-1h5a.5.5,0,0,1,0,1Z"/><path d="M19,10.5a.5.5,0,0,1-.5-.5V5a.5.5,0,0,1,1,0v5A.5.5,0,0,1,19,10.5Z"/></g><g transform="translate(-8440 -9100)"><path d="M0,0H24V24H0Z" fill="none"/><path d="M10,19.5A5.5,5.5,0,1,1,15.5,14,5.506,5.506,0,0,1,10,19.5ZM5.5,14a4.5,4.5,0,1,0,1.318-3.182A4.505,4.505,0,0,0,5.5,14Z" transform="translate(28.971 12) rotate(135)"/><path d="M18.331,5,13.6,9.73" transform="translate(28.497 11.527) rotate(135)" fill="none" stroke="#000" stroke-linecap="round" stroke-linejoin="round" stroke-width="1"/><path d="M20,5H14" transform="translate(-5 13)" fill="none" stroke="#000" stroke-linecap="round" stroke-linejoin="round" stroke-width="1"/></g><g transform="translate(-8396 -9100)"><path d="M0,0H24V24H0Z" fill="none"/><path d="M27.9,16.518V32.127H16.5V16.8" transform="translate(-10.198 -10.104)" fill="none" stroke="#000" stroke-linecap="round" stroke-linejoin="round" stroke-width="1"/><path d="M16.578,35.989h3.851a.581.581,0,0,1,.581.581v8.969a.581.581,0,0,1-.581.581H1.331a.581.581,0,0,1-.581-.581V36.57a.581.581,0,0,1,.581-.581H5.182" transform="translate(1.12 -24.096)" fill="none" stroke="#000" stroke-linecap="round" stroke-linejoin="round" stroke-width="1"/><line x1="7.376" y2="5.517" transform="translate(4.62 1.977)" fill="none" stroke="#000" stroke-linecap="round" stroke-linejoin="round" stroke-width="1"/><line x1="7.72" y1="5.517" transform="translate(11.996 1.977)" fill="none" stroke="#000" stroke-linecap="round" stroke-linejoin="round" stroke-width="1"/><rect width="5.628" height="7.879" transform="translate(9.186 14.144)" fill="none" stroke="#000" stroke-linecap="round" stroke-linejoin="round" stroke-width="1"/><ellipse cx="2.251" cy="2.251" rx="2.251" ry="2.251" transform="translate(9.749 6.679)" fill="none" stroke="#000" stroke-linecap="round" stroke-linejoin="round" stroke-width="1"/></g><g transform="translate(-8352 -9100)"><path d="M0,0H24V24H0Z" fill="none"/><path d="M3,19a9,9,0,0,1,9,0,9,9,0,0,1,9,0" fill="none" stroke="#000" stroke-linecap="round" stroke-linejoin="round" stroke-width="1"/><path d="M3,6a9,9,0,0,1,9,0,9,9,0,0,1,9,0" fill="none" stroke="#000" stroke-linecap="round" stroke-linejoin="round" stroke-width="1"/><path d="M3,6V19" fill="none" stroke="#000" stroke-linecap="round" stroke-linejoin="round" stroke-width="1"/><path d="M12,6V19" fill="none" stroke="#000" stroke-linecap="round" stroke-linejoin="round" stroke-width="1"/><path d="M21,6V19" fill="none" stroke="#000" stroke-linecap="round" stroke-linejoin="round" stroke-width="1"/></g><g transform="translate(-8308 -9100)"><path d="M0,0H24V24H0Z" fill="none"/><path d="M22.126,6.861,11.438,12.972.75,6.861,11.438.75Z" transform="translate(0.562 3)" fill="none" stroke="#000" stroke-linecap="round" stroke-linejoin="round" stroke-width="1"/><path d="M17.495,9.861v5.52a7.911,7.911,0,0,1-11.745,0V9.861" transform="translate(0.378 3)" fill="none" stroke="#000" stroke-linecap="round" stroke-linejoin="round" stroke-width="1"/><path d="M12.217,5.773l8.076,2.416v3.331" transform="translate(0.237 3)" fill="none" stroke="#000" stroke-linecap="round" stroke-linejoin="round" stroke-width="1"/></g><g transform="translate(-8528 -9066)"><path d="M0,0H24V24H0Z" fill="none"/><path d="M3,16V10a2,2,0,1,1,4,0v6" fill="none" stroke="#000" stroke-linecap="round" stroke-linejoin="round" stroke-width="1"/><path d="M3,13H7" fill="none" stroke="#000" stroke-linecap="round" stroke-linejoin="round" stroke-width="1"/><path d="M10,8v6a2,2,0,0,0,4,0V13a2,2,0,0,0-4,0v1" fill="none" stroke="#000" stroke-linecap="round" stroke-linejoin="round" stroke-width="1"/><path d="M20.732,12A2,2,0,0,0,17,13v1a2,2,0,0,0,3.726,1.01" fill="none" stroke="#000" stroke-linecap="round" stroke-linejoin="round" stroke-width="1"/></g><g transform="translate(-8484 -9066)"><g clip-path="url(#a)"><line y1="0.01" transform="translate(5 3.99)" fill="none" stroke="#000" stroke-linecap="round" stroke-linejoin="round" stroke-width="2"/><path d="M14.986,18.466a4,4,0,0,0,.738-5.608" fill="none" stroke="#000" stroke-linecap="round" stroke-linejoin="round" stroke-width="1"/><path d="M17.422,21.64A8,8,0,0,0,18.9,10.423h0" fill="none" stroke="#000" stroke-linecap="round" stroke-linejoin="round" stroke-width="1"/><path d="M9.762,2.347l3.678,8-3.678.74s.113,5.055-.6,7.264c-.372,1.153-1,1.6-4.5,1.8" fill="none" stroke="#000" stroke-linecap="round" stroke-linejoin="round" stroke-width="1"/></g></g><g transform="translate(-8440 -9066)"><path d="M0,0H24V24H0Z" fill="none"/><path d="M12,15.5A6.5,6.5,0,1,1,18.5,9,6.507,6.507,0,0,1,12,15.5ZM6.5,9A5.5,5.5,0,1,0,8.111,5.111,5.506,5.506,0,0,0,6.5,9Z"/><path d="M12,15l3.4,5.89L17,17.657l3.6.232L17.2,12" fill="none" stroke="#000" stroke-linecap="round" stroke-linejoin="round" stroke-width="1"/><path d="M6.8,12,3.4,17.89,7,17.657l1.6,3.232L12,15" fill="none" stroke="#000" stroke-linecap="round" stroke-linejoin="round" stroke-width="1"/></g><g transform="translate(-8396 -9066)"><path d="M0,0H24V24H0Z" fill="none"/><path d="M12,17v2.67" transform="translate(0 -1)" fill="none" stroke="#000" stroke-linecap="round" stroke-linejoin="round" stroke-width="1"/><path d="M7,4H17" transform="translate(0 -1)" fill="none" stroke="#000" stroke-linecap="round" stroke-linejoin="round" stroke-width="1"/><path d="M17.471,4v8a5.122,5.122,0,0,1-5.235,5A5.122,5.122,0,0,1,7,12V4" transform="translate(-0.235 -1)" fill="none" stroke="#000" stroke-linecap="round" stroke-linejoin="round" stroke-width="1"/><path d="M17,7.629h3.454s1.1,5.146-3.454,5.516" transform="translate(0.235 -2)" fill="none" stroke="#111" stroke-linecap="round" stroke-linejoin="round" stroke-width="1"/><path d="M20.571,7.629H17.117s-1.1,5.146,3.454,5.516" transform="translate(-13.807 -2)" fill="none" stroke="#111" stroke-linecap="round" stroke-linejoin="round" stroke-width="1"/><g transform="translate(8 18)" fill="none" stroke="#111" stroke-linecap="round" stroke-linejoin="round" stroke-width="1"><path d="M3,0H5A3,3,0,0,1,8,3V5A0,0,0,0,1,8,5H0A0,0,0,0,1,0,5V3A3,3,0,0,1,3,0Z" stroke="none"/><path d="M3,.5H5A2.5,2.5,0,0,1,7.5,3V4.5a0,0,0,0,1,0,0H.5a0,0,0,0,1,0,0V3A2.5,2.5,0,0,1,3,.5Z" fill="none"/></g></g><g transform="translate(-8352 -9066)"><g clip-path="url(#a)"><path d="M6,8.667A2.62,2.62,0,0,1,8.571,6h6.858A2.62,2.62,0,0,1,18,8.667V19.334A2.62,2.62,0,0,1,15.429,22H8.571A2.62,2.62,0,0,1,6,19.334Z" fill="none" stroke="#000" stroke-linecap="round" stroke-linejoin="round" stroke-width="1"/><line x2="4" transform="translate(10 18)" fill="none" stroke="#000" stroke-linecap="round" stroke-linejoin="round" stroke-width="1"/><line x2="2" y2="4" transform="translate(9 2)" fill="none" stroke="#000" stroke-linecap="round" stroke-linejoin="round" stroke-width="1"/><line y1="4" x2="2" transform="translate(13 2)" fill="none" stroke="#000" stroke-linecap="round" stroke-linejoin="round" stroke-width="1"/><rect width="4" height="5" rx="0.979" transform="translate(10 10.5)" fill="none" stroke="#000" stroke-linecap="round" stroke-linejoin="round" stroke-width="1"/></g></g><g transform="translate(-8308 -9066)"><path d="M0,0H24V24H0Z" fill="none"/><path d="M16,10h4a2,2,0,0,1,0,4H16l-4,7H9l2-7H7L5,16H2l2-4L2,8H5l2,2h4L9,3h3Z" fill="none" stroke="#000" stroke-linecap="round" stroke-linejoin="round" stroke-width="1"/></g><g transform="translate(-8528 -9032)"><path d="M0,0H24V24H0Z" fill="none"/><path d="M13,5h8" fill="none" stroke="#000" stroke-linecap="round" stroke-linejoin="round" stroke-width="1"/><path d="M13,9h5" fill="none" stroke="#000" stroke-linecap="round" stroke-linejoin="round" stroke-width="1"/><path d="M13,15h8" fill="none" stroke="#000" stroke-linecap="round" stroke-linejoin="round" stroke-width="1"/><path d="M13,19h5" fill="none" stroke="#000" stroke-linecap="round" stroke-linejoin="round" stroke-width="1"/><path d="M3,4,3,5A1,1,0,0,1,4,4H8A1,1,0,0,1,9,5V9a1,1,0,0,1-1,1H4A1,1,0,0,1,3,9Z" fill="none" stroke="#000" stroke-linecap="round" stroke-linejoin="round" stroke-width="1"/><path d="M3,14m0,1a1,1,0,0,1,1-1H8a1,1,0,0,1,1,1v4a1,1,0,0,1-1,1H4a1,1,0,0,1-1-1Z" fill="none" stroke="#000" stroke-linecap="round" stroke-linejoin="round" stroke-width="1"/></g></g></svg>