<svg width="36" height="36" viewBox="0 0 36 36" fill="none" xmlns="http://www.w3.org/2000/svg">
<g id="&#240;&#159;&#166;&#134; emoji &#34;briefcase&#34;">
<path id="Vector" d="M35.9997 32.1403C35.9997 34.3022 30.5991 34.1821 30.5991 34.1821L15.5374 30.3987C14.4573 30.1585 13.6172 29.0175 13.6172 27.8164V14.9648L35.9997 16.226V32.1403Z" fill="#5F6262"/>
<path id="Vector_2" d="M34.918 6.79784L34.0779 6.67773L29.8774 8.71957L29.2773 35.2034C32.7577 32.2607 35.9981 32.2007 35.9981 32.2007V9.13995C35.9981 8.17908 35.5781 7.33833 34.918 6.79784Z" fill="#343434"/>
<path id="Vector_3" d="M30.1176 32.8017C30.1176 34.9636 28.5574 36.3449 26.6972 35.9245L3.17458 30.1593C1.79443 29.799 0.654297 28.0574 0.654297 26.2558V6.8584L30.1176 8.78013V32.8017Z" fill="#5F6262"/>
<path id="Vector_4" d="M30.5387 18.3301C30.5387 20.4921 28.7385 22.1135 26.8783 21.7532L3.29567 17.8497C1.91552 17.6095 0.775391 15.928 0.775391 14.1263L1.55548 6.19922L30.6588 8.54132L30.5387 18.3301Z" fill="#343434"/>
<path id="Vector_5" d="M1.55564 5.65723C-0.664606 7.15858 -0.664606 16.4069 2.57576 16.4069L26.1584 20.0702C28.0186 20.3704 29.5788 18.809 29.5788 16.6471C29.5788 16.6471 28.8587 9.62079 30.1789 8.71998L31.259 8.23955L1.55564 5.65723Z" fill="#5F6262"/>
<path id="Vector_6" d="M17.3973 14.7255L11.0366 13.8848L9.89648 18.3288L11.0366 21.6317L17.3973 22.7728V14.7255Z" fill="#65562D"/>
<path id="Vector_7" d="M11.0366 13.8848L9.89648 18.3288L16.2572 19.2896L17.3973 14.7255L11.0366 13.8848Z" fill="#F8ECC5"/>
<path id="Vector_8" d="M11.0366 21.6311L17.3973 22.7721L16.2572 19.289L9.89648 18.3281L11.0366 21.6311Z" fill="#BFAE6E"/>
<path id="Vector_9" d="M32.8197 6.07798L11.2773 4.15625L3.11638 5.11711L2.75634 5.17717C2.33629 5.23722 1.91624 5.41738 1.61621 5.6576L30.2394 8.78041L33.2398 7.45922C35.7001 6.25814 36.0001 8.42008 36.0001 8.42008C35.6401 6.49835 33.8999 6.19808 32.8197 6.07798Z" fill="#919193"/>
<path id="Vector_10" d="M10.0167 4.87663C10.0167 2.29431 12.0569 2.1742 12.537 1.99404C12.957 1.87393 13.257 1.45355 13.137 1.09323C13.017 0.732906 12.597 0.672852 12.1769 0.672852C10.7968 0.672852 8.39648 1.27339 8.39648 4.87663C8.45649 5.29701 10.0167 5.29701 10.0167 4.87663Z" fill="#BFAE6E"/>
<path id="Vector_11" d="M9.71617 4.69754C9.65617 4.33721 9.65617 3.97689 9.77618 3.61657C9.83619 3.25624 10.0162 2.89592 10.2562 2.6557C10.4963 2.35543 10.8563 2.17527 11.1563 2.05516C11.5164 1.93505 11.8764 1.875 12.2365 1.875C11.8764 1.99511 11.5764 2.11522 11.2763 2.23532C10.9763 2.41549 10.6763 2.59565 10.4963 2.83586C10.0162 3.3163 9.83619 3.97689 9.71617 4.69754Z" fill="#65562D"/>
<path id="Vector_12" d="M25.02 2.8948C24.96 3.91572 24.0599 4.69642 23.0397 4.57632L11.9385 3.67551C10.9184 3.61545 10.1383 2.71464 10.2583 1.69373C10.3183 0.672808 11.2184 -0.107894 12.2385 0.0122141L23.2798 0.913024C24.3599 0.973077 25.14 1.87389 25.02 2.8948Z" fill="#5F6262"/>
<path id="Vector_13" d="M25.0169 2.89516C24.9569 3.55576 24.1168 3.97613 23.0966 3.85603L11.9954 2.95522C10.9753 2.89516 10.1952 2.29462 10.2552 1.63403C10.3152 0.973436 11.1553 0.553058 12.1754 0.613112L23.2167 1.51392C24.2968 1.69408 25.0769 2.23457 25.0169 2.89516Z" fill="#343434"/>
<path id="Vector_14" d="M25.1997 6.61852C25.1997 5.05712 24.0596 4.09625 23.3995 3.79598C22.3794 3.37561 23.2195 1.57399 24.1796 2.05442C25.3797 2.5949 26.9999 4.27642 26.9999 6.61852C27.0599 7.15901 25.1997 7.15901 25.1997 6.61852Z" fill="#BFAE6E"/>
<path id="Vector_15" d="M25.4386 6.61595C25.3186 5.8953 25.1385 5.23471 24.7185 4.69422C24.3584 4.15374 23.8784 3.61325 23.2783 3.25293C23.6384 3.31298 23.9384 3.49315 24.2384 3.73336C24.5385 3.97358 24.7785 4.21379 24.9585 4.51406C25.3786 5.17466 25.5586 5.8953 25.4386 6.61595Z" fill="#65562D"/>
</g>
</svg>
