<svg width="32" height="31" viewBox="0 0 32 31" fill="none" xmlns="http://www.w3.org/2000/svg">
<g id="&#240;&#159;&#166;&#134; emoji &#34;earth globe europe-africa&#34;">
<path id="Vector" d="M29.3856 10.497L30.1969 20.639C28.0671 26.3692 22.489 30.426 15.9981 30.426C7.58029 30.426 0.785156 23.6308 0.785156 15.213C0.785156 6.79514 7.58029 0 15.9981 0C19.0407 0 21.8805 0.91278 24.2639 2.43408L29.3856 10.497Z" fill="#008DB3"/>
<g id="Group">
<path id="Vector_2" d="M24.2666 2.43259C24.4187 2.93969 24.5709 3.4975 24.0638 3.24395C23.2017 2.78756 22.0861 2.28046 22.441 2.63543C22.796 2.9904 22.9481 3.39608 22.3903 3.34537C21.8325 3.29466 20.8183 3.14253 20.3619 3.80176C19.9056 4.46099 19.297 4.30886 19.1449 4.56241C18.9928 4.81596 18.7392 5.88087 18.2828 5.5259C17.8264 5.22164 16.9137 4.05531 17.6743 4.35957C18.435 4.66383 19.297 4.30886 18.5871 3.4975C17.8772 2.68614 17.1672 2.9904 16.863 2.53401C16.5587 2.07762 15.5445 1.51981 14.7838 2.63543C14.0739 3.75105 13.4147 5.22164 13.009 5.5259C12.6033 5.83016 11.7412 6.38797 11.8934 6.84435C11.9948 7.30074 12.0455 8.36565 12.5019 8.06139C12.9583 7.75713 13.2118 7.605 13.4147 7.90926C13.5668 8.21352 13.5161 8.82204 13.8711 8.82204C13.8711 8.82204 14.581 8.31494 14.6317 7.85855C14.6824 7.40216 14.1246 7.14861 14.5303 6.48939C14.936 5.83016 15.8488 4.56241 15.6459 5.22164C15.4431 5.83016 14.9867 6.74294 15.3417 7.14861C15.6459 7.55429 17.4208 7.04719 16.6094 7.45287C15.798 7.85855 15.3924 8.16281 15.2402 8.66991C15.0881 9.17701 14.936 9.58269 14.5303 9.37985C14.1246 9.17701 13.6175 9.27843 13.4147 9.27843C13.2118 9.27843 13.1104 8.36565 12.7554 8.56849C12.4512 8.77133 12.8569 9.43056 12.5019 9.48127C12.1469 9.53198 12.0962 9.93766 11.6905 10.2419C11.2849 10.5462 10.727 11.1547 10.3721 11.2054C10.0171 11.2561 10.9299 11.7125 10.7778 12.1182C10.6256 12.5746 9.81427 12.5239 9.51001 12.5746C9.20575 12.6253 9.4593 13.2338 9.30717 13.5888C9.15504 13.9438 9.4593 14.2987 9.9664 14.2987C10.4735 14.2987 10.9806 14.1973 11.0313 13.7409C11.082 13.2845 11.5384 12.5239 11.8934 12.676C12.1976 12.8281 12.9583 12.3717 13.1104 12.6253C13.2625 12.8788 14.226 13.7409 14.1246 13.8423C14.0232 13.9438 13.4654 14.1973 13.6682 14.2987C13.6682 14.2987 13.8204 14.5523 13.9218 14.5016C14.0232 14.4509 14.2767 13.7916 14.4289 13.6902C14.581 13.5888 14.581 13.2338 14.3782 13.0817C14.1246 12.9296 13.2625 12.321 13.4654 12.0168C13.6682 11.7125 14.1246 12.3717 14.3275 12.5746C14.5303 12.7774 14.8346 13.031 14.8346 13.4874C14.8346 13.9438 15.1388 13.9438 15.1388 14.1466C15.1895 14.4001 15.2909 14.4509 15.5445 14.4509C15.798 14.4001 15.8995 13.8423 15.798 13.6902C15.6459 13.5381 15.6459 13.2338 15.9502 13.2338C16.2544 13.2338 16.6094 12.9803 16.6094 12.8281C16.6094 12.676 16.9137 11.7632 17.1165 11.7632C17.3193 11.7632 17.4715 12.1182 17.5222 12.321C17.6236 12.5239 18.1307 12.1689 18.0293 11.9661C17.9279 11.7632 18.08 11.7125 18.2321 11.7125C18.3843 11.7125 18.2828 12.1182 18.3843 12.2196C18.5364 12.321 19.2463 12.7774 18.9928 13.031C18.7392 13.2845 18.3843 13.1324 18.1307 12.9296C17.8772 12.7267 17.2179 12.8281 17.0151 13.031C16.863 13.2338 16.7108 13.3352 16.4066 13.3352C16.1023 13.3352 16.153 13.893 16.4066 14.0959C16.6601 14.3494 17.0151 14.1466 17.2686 14.2987C17.5222 14.4509 17.9279 14.0959 17.9786 14.3494C18.0293 14.603 17.9279 15.3636 17.6743 15.4143C17.4208 15.4651 16.6094 15.6172 16.0516 15.3636C15.4431 15.1101 14.8853 15.0087 14.8346 15.2622C14.7838 15.5665 14.7838 15.7693 14.3782 15.5158C13.9725 15.2622 13.6175 15.1101 13.364 15.1101C13.1104 15.1101 13.1104 14.6537 13.1611 14.2987C13.2118 13.9438 12.5526 14.0452 12.1469 14.1466C11.7412 14.248 10.9299 14.5016 10.4228 14.5016C9.91569 14.5016 9.71285 14.603 9.61143 14.8058C9.51001 15.0087 9.05362 15.0087 9.05362 15.4143C9.05362 15.82 9.10433 15.9214 8.69865 16.1243C8.24226 16.2764 8.14084 17.0878 7.938 17.2906C7.73516 17.4934 8.14084 18.0005 7.938 18.3048C7.73516 18.5584 7.53232 19.2683 7.88729 19.4204C8.24226 19.5726 8.59723 20.2825 8.74936 20.536C8.90149 20.7896 9.4593 21.0431 10.0171 20.9417C10.5749 20.8403 11.5891 20.536 12.1469 20.7896C12.7047 21.0431 13.2625 20.9924 13.009 21.4995C12.7047 22.0066 13.1611 22.6659 13.5161 23.0208C13.8711 23.3758 13.7696 24.2886 13.5668 24.5421C13.364 24.8464 13.4147 25.3535 13.6175 25.607C13.8204 25.8606 13.9218 26.4691 13.9218 26.672C13.9218 26.9255 14.3275 27.3819 14.3782 27.8383C14.4289 28.3454 14.0739 28.9032 14.5303 28.9032C14.9867 28.9032 16.153 28.9539 16.2544 28.7511C16.3559 28.5482 17.2686 27.7369 17.5222 27.3819C17.7757 27.0269 18.2828 26.4184 18.1307 26.0634C17.8264 25.8099 18.0293 25.5563 18.5364 25.3535C19.0435 25.1507 19.0435 23.7308 18.7899 23.3758C18.5364 23.0208 18.9928 22.1588 19.5506 21.9052C20.1084 21.6517 21.4269 19.319 21.0212 19.5218C20.5648 19.7247 19.7027 19.8768 19.3985 19.674C19.0942 19.4711 17.3193 16.4285 17.5729 16.2257C17.8264 16.0229 19.2463 19.0147 19.4999 19.3697C19.7534 19.7754 22.1368 18.3048 22.441 17.9498C22.6946 17.5949 22.2889 17.2399 22.1368 17.2399C21.9847 17.2399 21.4269 16.8849 21.2747 17.0878C21.1226 17.2906 20.1084 15.6172 20.4634 15.7693C20.8183 15.9214 21.579 16.4285 22.2889 16.8342C22.9989 17.2399 23.8102 16.5807 24.2666 17.3413C24.7737 18.102 25.078 17.5949 25.0273 17.9498C24.9765 18.3048 25.6358 19.7754 25.8893 20.2318C26.0922 20.6882 26.5486 20.0289 26.5993 19.5218C26.65 18.964 27.7149 18.102 28.1206 17.7977C28.4755 17.4934 29.1855 17.9498 29.2869 18.5584C29.3883 19.1669 29.8954 18.4569 29.8954 18.9133C29.8954 19.4204 29.794 20.0797 30.149 20.6882C30.8589 18.9133 31.2139 17.1385 31.2139 15.2115C31.2139 9.83624 28.4248 5.12022 24.2666 2.43259ZM8.09013 4.35957C7.78587 4.46099 7.48161 4.81596 7.07593 4.61312C6.67025 4.41028 5.80818 4.71454 6.36599 5.17093C6.87309 5.67803 6.67025 5.98229 7.17735 6.033C7.68445 6.08371 7.98871 5.37377 8.34368 5.42448C8.69865 5.47519 8.4451 4.25815 8.09013 4.35957Z" fill="#FFC942"/>
<path id="Vector_3" d="M20.4125 24.1869C20.0575 24.2376 20.1589 24.9475 19.7533 25.0489C19.3983 25.1504 19.7025 25.4546 19.4997 25.7082C19.3476 25.9617 19.2462 26.5702 19.4997 26.8745C19.7533 27.2295 19.8547 27.2295 20.1589 26.6717C20.4632 26.1646 21.1731 24.1362 20.4125 24.1869ZM10.2198 7.75684C10.0677 7.75684 9.91552 7.85826 9.76339 7.85826C9.61126 7.90897 9.50984 8.11181 9.50984 8.31465C9.50984 8.5682 9.91552 8.61891 9.76339 8.77104C9.61126 8.92317 8.7999 9.0753 8.90132 9.32885C9.00274 9.5824 9.15487 9.78523 9.00274 10.0388C8.85061 10.2923 9.15487 10.343 9.45913 10.2416C9.76339 10.1402 9.96623 9.78524 9.91552 9.5824C9.86481 9.32885 10.3719 9.27814 10.2198 9.48098C10.0677 9.68382 9.8141 10.1909 9.96623 10.343C10.1184 10.4952 9.56055 10.7487 9.76339 10.8501C9.96623 10.9516 10.524 10.4445 10.8283 10.5459C11.1326 10.6473 11.234 10.4445 11.2847 10.1909C11.3354 9.88666 10.879 9.53169 10.7269 9.17672C10.5748 8.77104 10.6762 7.75684 10.2198 7.75684Z" fill="#FFC942"/>
</g>
</g>
</svg>
