<svg width="37" height="39" viewBox="0 0 37 39" fill="none" xmlns="http://www.w3.org/2000/svg">
<g id="&#240;&#159;&#166;&#134; emoji &#34;clapping hands sign tone 1&#34;">
<path id="Vector" d="M28.2378 16.3494C28.2378 16.3494 25.3298 13.9584 23.7789 11.632C23.1973 10.7919 21.3233 10.9212 20.6771 12.5367L10.5961 16.414L3.94004 12.8598C2.90609 12.2136 1.54903 12.666 0.967436 13.8938C0.38584 15.057 0.708949 16.5433 1.80752 17.1895L2.84147 17.7711C1.93676 17.6418 0.967436 18.0942 0.515084 18.9989C-0.0665119 20.1621 0.256597 21.6484 1.35517 22.2946L3.68155 23.6517C2.6476 23.0054 1.29054 23.4578 0.708949 24.6856C0.127353 25.8488 0.450462 27.3351 1.54903 27.9813C1.54903 27.9813 13.2456 35.219 17.2521 37.3515C20.4186 39.0963 26.6869 39.9363 30.6288 35.1543C31.9212 33.4742 28.2378 16.3494 28.2378 16.3494Z" fill="#E0A372"/>
<g id="Group">
<path id="Vector_2" d="M33.0872 16.3485C31.0193 14.9268 29.5976 13.0528 28.5637 10.2095C28.1759 9.24013 26.7542 9.04627 25.9142 10.6618C24.6864 12.9882 25.8495 14.8622 26.4958 15.7023L26.8189 16.09C26.8189 16.09 27.0127 16.8009 27.3358 17.641C25.5911 17.2532 23.6524 18.2226 22.2953 20.032C20.8737 21.906 17.5133 25.1371 16.0917 27.0111C14.3469 29.2729 14.7992 32.504 16.7379 33.9256C16.7379 33.9256 26.8835 41.3571 33.6042 32.2455C38.9031 25.1371 35.1551 17.7702 33.0872 16.3485Z" fill="#FFE1BD"/>
<path id="Vector_3" d="M29.6607 19.0632C30.6947 19.8387 30.9532 21.325 30.1777 22.4882C29.4669 23.6514 27.9806 23.9745 26.9466 23.199L10.8558 11.6317C9.82185 10.8562 9.56337 9.36995 10.3388 8.20676C11.0497 7.04357 12.536 6.72046 13.5699 7.49592L29.6607 19.0632Z" fill="#FFE1BD"/>
</g>
<path id="Vector_4" d="M21.3233 17.7707L11.0485 10.3392C10.4669 9.95148 10.0791 9.30526 10.273 8.33594C9.56215 9.62837 10.0145 10.9208 10.8546 11.567L21.1294 18.9985C22.1634 19.774 22.3573 18.5462 21.3233 17.7707Z" fill="#E6B796"/>
<path id="Vector_5" d="M24.4262 21.3251C25.4602 22.1006 25.7187 23.5869 24.9432 24.75C24.2324 25.9132 22.7461 26.2363 21.7121 25.4609L5.6213 13.829C4.58736 13.0535 4.32887 11.5672 5.10433 10.404C5.81517 9.24083 7.30147 8.91772 8.33542 9.69318L24.4262 21.3251Z" fill="#FFE1BD"/>
<path id="Vector_6" d="M18.2215 21.5834L5.8141 12.6009C5.2325 12.2132 4.84477 11.4377 5.03863 10.5977C4.3278 11.8901 4.71553 13.3118 5.62023 13.958L18.0922 22.8112C19.0616 23.5866 19.2554 22.2942 18.2215 21.5834Z" fill="#E6B796"/>
<path id="Vector_7" d="M23.3906 26.495C24.4245 27.2705 24.683 28.7568 23.9076 29.92C23.1967 31.0832 21.7104 31.4063 20.6765 30.6308L4.58566 18.9989C3.55171 18.2234 3.29322 16.7371 4.06869 15.5739C4.77952 14.4108 6.26582 14.0876 7.29977 14.8631L23.3906 26.495Z" fill="#FFE1BD"/>
<path id="Vector_8" d="M15.7665 25.7197L4.78084 17.8358C4.19925 17.4481 3.81152 16.5434 4.07 15.6387C3.22992 16.8665 3.55303 18.482 4.45773 19.1282L15.5727 26.9475C16.6066 27.7229 16.8005 26.4951 15.7665 25.7197Z" fill="#E6B796"/>
<path id="Vector_9" d="M22.9386 32.3113C23.9726 33.0867 16.6057 33.8622 15.5718 33.0867L4.19833 24.8798C3.16438 24.1043 2.9059 22.618 3.68136 21.4548C4.3922 20.2916 5.8785 19.9685 6.91244 20.744L22.9386 32.3113Z" fill="#FFE1BD"/>
<path id="Vector_10" d="M36.2511 25.5902C36.2511 25.5902 35.1525 31.2769 30.629 34.7019C26.6224 37.7391 20.4187 35.0896 17.4461 33.1509C14.3443 31.0184 12.7934 29.9845 5.29725 24.2978C3.87557 23.1992 3.48784 22.4884 3.68171 21.3252C2.58314 22.4884 3.16473 24.2978 4.06944 24.944L4.8449 25.461C4.8449 25.461 13.8273 32.0524 16.8645 34.1203C19.6433 36.0589 26.8163 39.0961 31.3398 35.4773C36.4449 31.5354 36.2511 25.5902 36.2511 25.5902ZM28.5611 18.1587C27.2686 16.8016 27.204 14.863 27.204 14.863L26.8809 14.4753C26.3639 13.829 25.5239 12.472 25.847 10.8564C24.6192 13.1182 25.847 14.9276 26.4286 15.7031L26.7517 16.0908C26.7517 16.0908 26.687 16.6724 27.0102 17.1248L28.5611 18.1587Z" fill="#E6B796"/>
<path id="Vector_11" d="M21.9682 0L23.9068 7.88385L27.7195 0.581596L21.9682 0ZM31.5322 2.32638L28.6242 8.85318L35.4095 7.10839L31.5322 2.32638ZM17.0569 0.969326L18.8663 8.07772L12.9211 4.26504L17.0569 0.969326Z" fill="#42ADE2"/>
</g>
</svg>
