<svg width="37" height="34" viewBox="0 0 37 34" fill="none" xmlns="http://www.w3.org/2000/svg">
<g id="&#240;&#159;&#166;&#134; emoji &#34;memo&#34;">
<path id="Vector" d="M0.834961 10.8025C0.834961 10.8025 16.6912 26.6743 18.378 33.9998C18.378 33.9998 22.9325 24.4979 36.8207 20.5167C36.8207 20.5167 31.8727 9.58159 18.7154 0.875977C18.7154 0.875977 5.27696 4.69795 0.834961 10.8025Z" fill="#EFD8B1"/>
<path id="Vector_2" d="M2.63428 4.22071C2.63428 4.22071 15.0044 24.4984 15.2293 32.0893C15.2293 32.0893 21.4144 24.233 35.6962 24.6577C35.6962 24.6577 32.9973 12.5017 21.8642 0.0802383C21.8642 0.0271553 8.08837 -0.397509 2.63428 4.22071Z" fill="#FFF6D7"/>
<g id="Group">
<path id="Vector_3" d="M12.0241 5.01535C11.8554 5.22769 12.1366 4.80302 12.0241 5.01535V5.01535ZM12.0241 5.01535C12.1366 4.85611 12.1928 4.59069 12.3615 4.43144C12.5864 4.27219 12.8113 4.37836 13.0362 4.21911C13.486 3.90061 13.7109 3.36978 14.1045 2.9982C14.5544 2.57354 15.1166 2.30812 15.7351 2.14887C16.3536 1.93654 16.9722 1.51188 17.5907 1.51188C17.3095 2.30812 16.7472 2.9982 16.6348 3.90061C16.5786 4.37836 16.6348 4.85611 16.691 5.33385C16.8035 4.96227 16.9159 4.59069 17.0284 4.27219C17.2533 3.79445 17.7593 3.84753 18.2092 3.68828C18.659 3.47595 19.0526 3.10437 19.4462 2.78587C19.6149 3.05128 20.2334 2.62662 20.3458 2.9982C20.402 3.15745 21.9202 2.94512 22.0327 2.89203C21.6953 2.89203 20.5145 2.94512 20.4583 2.6797C20.2896 2.62662 19.9522 2.57354 19.7273 2.57354V2.20195C19.3899 2.41429 19.0526 2.6797 18.7152 2.94512C18.2092 3.3167 17.5907 3.21053 17.0846 3.58211C17.2533 3.05128 17.5907 2.57354 17.8156 2.04271C17.928 1.83037 17.9843 1.56496 18.0405 1.35263C18.0967 1.14029 18.0405 1.24646 17.8718 1.14029C17.0846 0.927962 16.2974 1.51188 15.6227 1.77729C15.0042 2.04271 14.4419 2.3612 13.9921 2.78587C13.7109 3.05128 13.2611 4.00678 12.8675 4.11294C12.0803 4.11294 12.3615 4.80302 11.8554 5.01535C11.5743 5.12152 11.4056 5.12152 11.1245 5.28077C10.8433 5.4931 10.4497 5.86468 9.99991 5.8116C9.99991 5.4931 9.99991 5.1746 9.88745 4.85611C9.43763 5.06844 9.26894 5.44002 8.87535 5.70543C8.98781 4.85611 9.3814 4.16603 9.3814 3.26361C8.87535 3.58211 8.59421 3.95369 8.31307 4.43144C7.97571 5.01535 7.69457 5.97085 7.01983 6.28935C7.01983 5.4931 7.41343 4.69686 7.30097 3.84753C7.13229 4.27219 7.13229 4.80302 7.01983 5.1746C6.90738 5.65235 6.79492 6.1301 6.79492 6.66093C8.03193 6.50168 8.25684 4.80302 8.98781 4.05986C8.81912 4.80302 8.53798 5.4931 8.59421 6.28935C9.10026 6.02393 9.32517 5.4931 9.77499 5.1746C9.94368 5.65235 9.55008 6.28935 10.3935 5.91777C10.7309 5.75852 11.012 5.4931 11.3494 5.28077C11.5181 5.1746 11.8554 5.28077 12.0241 5.01535ZM24.1131 7.35101C23.8882 7.13868 23.4946 7.08559 23.2134 6.87326C22.8761 6.60784 22.3138 6.71401 21.9764 6.82018C21.0768 7.03251 20.4583 7.24484 19.6149 6.82018C19.6149 7.08559 19.6711 8.14725 19.2213 8.09417C18.8277 8.09417 18.9401 6.97943 18.8839 6.60784C18.659 6.92634 18.4903 7.19176 18.4903 7.56334C18.4903 7.82875 18.6028 7.988 18.3778 8.25342C18.0405 8.51883 17.5344 8.46575 17.1408 8.41267C17.0284 7.82875 17.1971 7.13868 17.2533 6.50168C17.1408 7.03251 16.9722 7.56334 16.8597 8.14725C16.7472 8.57192 16.3536 8.625 16.0163 8.51883C15.9601 8.41267 16.0725 7.988 16.0725 7.88184C15.7351 8.46575 15.5102 9.20891 15.0604 9.73974C14.8355 10.0052 14.3294 10.2706 14.1045 9.84591C13.9359 9.58049 14.0483 9.20891 14.1045 8.89042C13.8234 9.20891 13.5423 10.1113 13.0924 10.1113C13.1487 9.89899 13.3173 9.68666 13.0362 9.58049C12.9238 9.79283 12.8113 10.0582 12.6426 10.3237C12.7551 10.0052 12.8675 9.63358 12.9238 9.262C12.1928 9.68666 11.743 10.2706 11.3494 10.9607C11.3494 10.8545 11.4056 10.5891 11.4056 10.4829C11.3494 10.6952 10.8995 11.4915 11.1807 11.6507C11.5743 11.0668 11.9117 10.4298 12.4739 9.95208C12.1928 10.7483 11.8554 11.4384 11.6867 12.2346C12.0241 11.8631 12.3615 11.4384 12.6426 11.0137C12.6988 10.8545 12.8113 10.6952 12.8675 10.536C13.0362 10.1113 13.0362 10.4298 13.3736 10.2175C13.6547 10.0052 13.8234 9.63358 13.9921 9.31508C13.9359 10.2706 14.7793 10.4298 15.3415 9.68666C15.5665 9.36816 15.7351 9.04966 15.9038 8.73117L16.3536 8.83733C16.5786 8.83733 16.7472 8.83733 16.9159 8.73117C17.5344 8.9435 18.4903 8.99658 18.8839 8.3065C19.5586 8.99658 20.0085 7.93492 20.0647 7.40409C20.7394 7.66951 21.3579 7.35101 22.0327 7.13867C22.4262 7.03251 23.1572 6.71401 23.4383 7.13867C23.5508 7.29792 23.8319 7.29792 24.1131 7.35101ZM18.1529 12.8186C18.1529 12.6062 17.9843 12.5001 17.7593 12.6593C17.4782 12.8716 17.6469 12.5001 17.6469 12.2877C17.6469 12.0223 17.7031 11.81 17.7031 11.5446C17.5907 11.7569 17.422 11.9692 17.3095 12.1816C17.0846 12.5531 17.1408 13.2432 16.5786 13.2963C16.691 13.0309 16.7472 12.7655 16.8035 12.5001C16.5223 12.7655 16.185 12.9247 16.185 13.3494C16.185 13.8802 15.6227 15.1542 14.8917 14.995C14.948 13.9333 15.5665 12.9778 15.8476 11.9692C14.723 12.6062 13.7672 14.1987 13.6547 15.3665C14.217 14.4641 14.6106 13.4556 15.3978 12.7124C15.1729 13.5086 14.8917 14.2518 14.8355 15.048C14.8355 15.2073 15.2853 15.1011 15.3415 15.1011C15.7351 14.995 16.0163 14.6234 16.185 14.3049C16.2412 14.1987 16.3536 14.0395 16.4099 13.9333C16.5786 13.6148 16.6348 13.8271 16.9159 13.6679C17.3095 13.5086 17.3095 13.0309 17.7031 13.084C18.0967 13.1371 18.9401 13.0309 19.2213 12.8716C18.8839 12.8716 18.5465 12.9247 18.1529 12.8186ZM17.8718 12.6062L17.9843 12.7124C17.928 12.7124 17.8718 12.6593 17.8718 12.6062ZM25.6312 22.5328C25.5188 22.4797 25.9124 22.1612 25.6312 22.5328V22.5328Z" fill="#7D8B91"/>
<path id="Vector_4" d="M33.672 21.0981C32.6599 20.408 31.4791 19.9833 30.3546 19.3994C30.5795 19.7179 30.9168 20.0895 31.0855 20.4611C30.5233 20.5142 30.5795 21.4697 30.5233 21.4697C30.2421 21.3104 29.4549 21.4697 29.1176 21.5227C29.1176 21.4697 29.1176 21.4166 29.1738 21.3635C28.1617 22.0005 27.3183 22.956 25.9688 22.6906C26.5873 21.7882 27.0934 20.7796 27.0371 19.6648C26.025 19.9833 25.4627 20.8857 25.0129 21.7351C24.9005 21.4166 24.4506 21.1512 24.1695 21.4166C23.8321 21.682 23.6635 22.2128 23.551 22.5844C23.3823 23.0621 23.3261 23.593 23.2699 24.0707C23.2699 24.4423 23.2136 24.4954 23.6072 24.4954C24.5631 24.4954 25.4065 23.4337 25.8563 22.7967C27.0934 23.1152 27.8243 22.5844 28.7802 21.9474C28.7802 22.3721 29.1176 22.6375 29.5674 22.5313C30.0172 22.4251 30.2421 21.8943 30.5795 21.8943C30.8606 21.8943 31.0293 22.0005 31.3104 22.0005C31.5916 22.0005 31.9289 21.9474 32.2101 21.8943C31.8727 21.5227 31.7603 21.2573 31.6478 20.7796C32.3225 20.9388 32.941 21.0981 33.672 21.0981ZM24.5631 23.6991C24.6756 23.593 24.7318 23.5399 24.5631 23.6991C24.3944 23.8053 24.4506 23.8053 24.5069 23.7522C24.2257 23.9646 23.8884 24.23 23.4948 24.23C23.4948 23.4337 23.6072 22.4782 24.0008 21.7881C24.2257 21.4697 24.5069 21.3635 24.8442 21.6289C25.0692 21.8412 24.788 22.0536 24.788 22.2659C24.8442 22.1597 24.9005 22.0536 24.9567 22.0005C25.0129 22.319 25.1816 22.5313 25.519 22.6906C25.2378 23.0091 24.9567 23.3806 24.5631 23.6991ZM25.6314 22.5313C24.282 22.0005 26.025 20.3549 26.8122 20.0364C26.6998 20.9388 26.1937 21.7882 25.6314 22.5313ZM29.5112 22.1066C29.0613 22.2128 29.0613 21.7881 29.1176 21.5227C29.3987 21.6289 29.6798 21.7351 30.0172 21.7881C29.9047 21.9474 29.7361 22.1066 29.5112 22.1066ZM31.1418 21.4166C31.198 21.3635 31.198 21.2573 31.198 21.2042C31.0293 21.2573 30.9168 21.3104 30.7482 21.3635C30.7482 21.2042 30.6919 20.7796 30.9168 20.7265C31.3667 20.5142 31.3667 21.2042 31.4229 21.4697C31.3104 21.4697 31.198 21.4697 31.1418 21.4166ZM31.6478 20.4611H31.5353C31.4791 20.408 31.5354 20.408 31.6478 20.4611Z" fill="#7D8B91"/>
</g>
<path id="Vector_5" d="M20.8848 11.0667L29.9509 2.50977L34.2046 6.52656L25.1384 15.0835L20.8848 11.0667Z" fill="#FFCE31"/>
<path id="Vector_6" d="M36.0336 1.24745L35.4713 0.716621C34.4592 -0.238874 32.7724 -0.238874 31.7603 0.716621L29.9048 2.46836L34.1781 6.50267L36.0336 4.75093C37.1019 3.79544 37.1019 2.25603 36.0336 1.24745Z" fill="#ED4C5C"/>
<path id="Vector_7" d="M28.7822 3.5716L29.9349 2.4834L34.1891 6.50019L33.0359 7.58839L28.7822 3.5716Z" fill="#93A2AA"/>
<path id="Vector_8" d="M29.2593 4.02277L30.4119 2.93457L33.7519 6.08717L32.5992 7.17537L29.2593 4.02277Z" fill="#C7D3D8"/>
<path id="Vector_9" d="M20.8521 11.0674L18.9966 15.6325L20.2898 16.8534L25.1254 15.1017L20.8521 11.0674Z" fill="#FED0AC"/>
<path id="Vector_10" d="M18.715 16.4297C18.4338 17.0667 18.8274 17.3852 19.4459 17.1198L21.8075 16.2704L19.6146 14.2002L18.715 16.4297Z" fill="#333333"/>
<path id="Vector_11" d="M20.8926 11.0782L28.805 3.60938L30.236 4.96034L22.3241 12.4296L20.8926 11.0782Z" fill="#FFDF85"/>
<path id="Vector_12" d="M23.6948 13.759L31.6061 6.28809L33.0371 7.63958L25.1258 15.11L23.6948 13.759Z" fill="#FF8736"/>
</g>
</svg>
