<svg xmlns="http://www.w3.org/2000/svg" width="57" height="57" viewBox="0 0 57 57"><g transform="translate(-158 -161)"><circle cx="28.5" cy="28.5" r="28.5" transform="translate(158 161)" fill="#fff"/><path d="M28.5,3a25.508,25.508,0,0,0-9.925,49A25.507,25.507,0,0,0,38.425,5,25.338,25.338,0,0,0,28.5,3m0-3A28.5,28.5,0,1,1,0,28.5,28.5,28.5,0,0,1,28.5,0Z" transform="translate(158 161)" fill="#ff460a"/><path d="M185.11,199.733h0a1.5,1.5,0,0,1-1.113-.495L174.2,188.387a1.5,1.5,0,1,1,2.227-2.01L185.111,196l13.348-14.761a1.5,1.5,0,1,1,2.225,2.012l-14.461,15.993A1.5,1.5,0,0,1,185.11,199.733Z" transform="translate(0.529 1.049)" fill="#ff460a"/></g></svg>