<svg width="24" height="25" viewBox="0 0 24 25" fill="none" xmlns="http://www.w3.org/2000/svg">
<path d="M15.6545 4.10101C16.075 4.08634 16.484 4.23938 16.7922 4.52582L17.1301 4.86176L20.1018 7.83246C20.1085 7.83912 20.1149 7.84606 20.1213 7.85297C20.4074 8.16163 20.5595 8.57108 20.5442 8.99164C20.529 9.40714 20.3521 9.80021 20.051 10.0864L17.7151 12.4223C17.7115 12.4259 17.707 12.4286 17.7034 12.4321L10.136 20.0004C10.0237 20.1127 9.87881 20.1868 9.72192 20.2114L4.46606 21.0346C4.22929 21.0717 3.98901 20.9932 3.81958 20.8237C3.6502 20.6542 3.57148 20.4139 3.60864 20.1772L4.43286 14.9223C4.45748 14.7655 4.53156 14.6205 4.6438 14.5082L14.5588 4.5932C14.8454 4.29238 15.2389 4.11559 15.6545 4.10101ZM5.8772 15.3959L5.25024 19.393L9.24829 18.767L16.1233 11.8911L12.7522 8.51996L5.8772 15.3959ZM15.7073 5.60004C15.6835 5.60087 15.6601 5.61096 15.6438 5.62836C15.6381 5.63441 15.6331 5.64105 15.6272 5.64691L13.8137 7.45941L17.1848 10.8305L18.9983 9.01801C19.0045 9.01184 19.0105 9.0054 19.0168 8.99945C19.0342 8.98321 19.0443 8.96073 19.0452 8.93695C19.0459 8.91554 19.0388 8.89505 19.0256 8.87836L15.7717 5.62445C15.7544 5.60833 15.7309 5.59932 15.7073 5.60004Z" fill="white"/>
</svg>
