<svg xmlns="http://www.w3.org/2000/svg" width="169" height="28" viewBox="0 0 169 28"><g transform="translate(-900 -449)"><g transform="translate(-536 219)"><rect width="28" height="28" rx="5" transform="translate(1436 230)" fill="#fa0"/><path d="M10.36,9.69,13,10.872l-.58.785L9.954,10.535a.934.934,0,0,1-.56-.735.91.91,0,0,1,.365-.839,4.665,4.665,0,0,0,1.434-3.388V3.25c0-.992-1.753-2.321-3.407-2.321s-3.41,1.35-3.41,2.321V5.572A4.818,4.818,0,0,0,5.858,8.958a.909.909,0,0,1,.357.838.933.933,0,0,1-.559.731L1.38,12.452a.566.566,0,0,0-.406.536v.943h8.94l.791.929H.973A.952.952,0,0,1,0,13.931V12.537c0-.515.973-.929.973-.929L5.249,9.682A5.685,5.685,0,0,1,3.4,5.572V3.25C3.4,1.712,5.635,0,7.785,0s4.38,1.712,4.38,3.25V5.572A5.493,5.493,0,0,1,10.36,9.69Z" transform="translate(1441 236)" fill="#fff"/><path d="M11.03,15.01H.973A1.1,1.1,0,0,1-.15,13.931V12.537c0-.6.955-1.02,1.064-1.067L4.967,9.645A5.992,5.992,0,0,1,3.252,5.572V3.25c0-1.652,2.33-3.4,4.533-3.4s4.53,1.748,4.53,3.4V5.572a5.832,5.832,0,0,1-1.671,4.081l2.589,1.158-.763,1.033L9.892,10.671a1.089,1.089,0,0,1-.647-.853,1.066,1.066,0,0,1,.423-.978,4.5,4.5,0,0,0,1.374-3.269V3.25c0-.9-1.684-2.171-3.257-2.171-1.543,0-3.26,1.294-3.26,2.171V5.572A4.649,4.649,0,0,0,5.949,8.839a1.065,1.065,0,0,1,.414.976,1.09,1.09,0,0,1-.648.849L1.43,12.594a.41.41,0,0,0-.306.394v.793h8.86ZM7.785.15c-2.018,0-4.233,1.623-4.233,3.1V5.572A5.52,5.52,0,0,0,5.34,9.563l.2.153-4.5,2.029c-.232.1-.885.454-.885.792v1.394a.8.8,0,0,0,.823.779H10.38l-.536-.629H.824V12.988a.7.7,0,0,1,.486-.669l.01,0L5.594,10.39a.789.789,0,0,0,.472-.613.754.754,0,0,0-.3-.7,4.987,4.987,0,0,1-1.541-3.5V3.25c0-1.033,1.794-2.471,3.56-2.471A4.306,4.306,0,0,1,10.2,1.6,2.315,2.315,0,0,1,11.342,3.25V5.572A4.828,4.828,0,0,1,9.848,9.08a.755.755,0,0,0-.306.7.779.779,0,0,0,.472.616l2.36,1.072.4-.537-2.7-1.209.2-.153a5.361,5.361,0,0,0,1.745-4V3.25C12.015,1.773,9.8.15,7.785.15Z" transform="translate(1441 236)" fill="#fff"/><circle cx="4" cy="4" r="4" transform="translate(1450.002 241.167)" fill="#fa0"/><path d="M4,1.2A2.8,2.8,0,1,0,6.8,4,2.8,2.8,0,0,0,4,1.2M4,0A4,4,0,1,1,0,4,4,4,0,0,1,4,0Z" transform="translate(1450.002 241.167)" fill="#fff"/><path d="M.711,0H3.944a.664.664,0,0,1,.711.6.664.664,0,0,1-.711.6H.711A.664.664,0,0,1,0,.6.664.664,0,0,1,.711,0Z" transform="translate(1456.879 247) rotate(45)" fill="#fff"/><path d="M.71,0H3.944a.664.664,0,0,1,.711.6.664.664,0,0,1-.711.6H.711A.664.664,0,0,1,0,.6.664.664,0,0,1,.71,0Z" transform="translate(1456.879 247) rotate(45)" fill="#fff"/></g><g transform="translate(-499 156)"><rect width="28" height="28" rx="5" transform="translate(1446 293)" fill="#3a85e3"/><g transform="translate(1453.388 297.7)"><path d="M12.255,165.7a31.532,31.532,0,0,0-1.037-4.229.251.251,0,0,0-.328-.17.291.291,0,0,0-.155.362,32.85,32.85,0,0,1,.946,3.736.066.066,0,0,1-.012.047.054.054,0,0,1-.04.022h-.678a.27.27,0,0,0-.256.283v2.98a.521.521,0,0,1-.146.373.538.538,0,0,1-.436.157,5.832,5.832,0,0,1-2.854-1.082,18.29,18.29,0,0,0-4.485-2.268.574.574,0,0,0-.7.286h0L.1,169.769a.78.78,0,0,0-.027.7.654.654,0,0,0,.521.393,40.873,40.873,0,0,1,10.127,2.717.453.453,0,0,0,.521-.15.57.57,0,0,0,.072-.584A10.6,10.6,0,0,0,9,169.629a5.843,5.843,0,0,0,1.07.2q.043,0,.087,0a1.028,1.028,0,0,0,.736-.31,1.115,1.115,0,0,0,.31-.787v-2.639a.059.059,0,0,1,.056-.061H12a.24.24,0,0,0,.116-.028.292.292,0,0,0,.141-.3m-1.438,7.309A41.225,41.225,0,0,0,.637,170.291a.135.135,0,0,1-.111-.083.164.164,0,0,1,.006-.148l1.982-3.572a.085.085,0,0,1,.1-.043,16.964,16.964,0,0,1,5.431,3.035,10.562,10.562,0,0,1,2.769,3.529" transform="translate(0 -155.055)" fill="#fff"/><path d="M10.875,173.8a.637.637,0,0,1-.23-.043,40.661,40.661,0,0,0-10.076-2.7.848.848,0,0,1-.683-.509.977.977,0,0,1,.035-.875L1.9,166.1a.769.769,0,0,1,.937-.377,18.493,18.493,0,0,1,4.532,2.292,5.655,5.655,0,0,0,2.76,1.047.342.342,0,0,0,.276-.1.319.319,0,0,0,.087-.228v-2.983a.471.471,0,0,1,.456-.483h.5a32.764,32.764,0,0,0-.907-3.545.488.488,0,0,1,.272-.608.432.432,0,0,1,.346.011.475.475,0,0,1,.246.283,31.814,31.814,0,0,1,1.044,4.254v0a.489.489,0,0,1-.244.509.439.439,0,0,1-.214.052h-.588v2.5a1.318,1.318,0,0,1-.368.927,1.224,1.224,0,0,1-.881.37c-.032,0-.067,0-.1,0q-.217-.019-.432-.054a10.837,10.837,0,0,1,1.868,2.785.771.771,0,0,1-.1.795A.666.666,0,0,1,10.875,173.8Zm-8.284-7.721a.39.39,0,0,0-.338.213L.27,169.866a.583.583,0,0,0-.02.515.452.452,0,0,0,.359.277,41.067,41.067,0,0,1,10.179,2.73.255.255,0,0,0,.293-.088.371.371,0,0,0,.046-.378,10.344,10.344,0,0,0-2.262-3.147l.192-.338a5.658,5.658,0,0,0,1.033.19c.025,0,.051,0,.076,0a.828.828,0,0,0,.588-.251.915.915,0,0,0,.252-.645v-2.64a.259.259,0,0,1,.256-.261H12a.045.045,0,0,0,.023,0,.093.093,0,0,0,.037-.094,31.408,31.408,0,0,0-1.03-4.2.073.073,0,0,0-.035-.044.034.034,0,0,0-.029,0,.093.093,0,0,0-.038.114,33.179,33.179,0,0,1,.952,3.76l0,.014a.264.264,0,0,1-.051.191.254.254,0,0,1-.186.1h-.691c-.027,0-.056.034-.056.083v2.98a.721.721,0,0,1-.2.514.74.74,0,0,1-.6.215,6.049,6.049,0,0,1-2.95-1.118A18.093,18.093,0,0,0,2.708,166.1.352.352,0,0,0,2.591,166.083Zm8.154,7.114A41.017,41.017,0,0,0,.617,170.49a.334.334,0,0,1-.274-.2.361.361,0,0,1,.014-.327l1.981-3.57a.285.285,0,0,1,.339-.136,17.114,17.114,0,0,1,5.5,3.07,10.833,10.833,0,0,1,2.821,3.6l-.178.087ZM.738,170.1a41.018,41.018,0,0,1,9.656,2.536,10.368,10.368,0,0,0-2.476-3,16.726,16.726,0,0,0-5.275-2.969Z" transform="translate(0 -155.055)" fill="#fff"/><path d="M87.3,142.117a.266.266,0,0,1-.054-.006.262.262,0,0,1-.2-.31l.189-.9a1.71,1.71,0,0,1-.924-1.222,1.891,1.891,0,0,1,.511-1.846,1.487,1.487,0,0,1,1.594-.3c.209-.618.463-1.342.609-1.7a.262.262,0,0,1,.484.2c-.166.4-.5,1.452-.7,1.984a.249.249,0,0,1-.1.126.26.26,0,0,1-.294-.023,1.034,1.034,0,0,0-1.264.108,1.39,1.39,0,0,0-.334,1.329,1.2,1.2,0,0,0,.781.913.269.269,0,0,1,.191.307l-.236,1.126a.262.262,0,0,1-.256.208" transform="translate(-82.351 -129.81)" fill="#fff"/><path d="M87.3,142.317a.467.467,0,0,1-.095-.01.462.462,0,0,1-.357-.547L87,141a1.92,1.92,0,0,1-.893-1.282,2.092,2.092,0,0,1,.567-2.034,1.69,1.69,0,0,1,1.608-.407c.147-.43.4-1.148.55-1.52a.462.462,0,0,1,.854.352c-.094.228-.247.68-.4,1.116-.111.327-.216.636-.3.861a.449.449,0,0,1-.175.224l-.01.006a.462.462,0,0,1-.51-.032.833.833,0,0,0-1.008.088,1.2,1.2,0,0,0-.281,1.133l0,.016a1.007,1.007,0,0,0,.646.76.467.467,0,0,1,.326.533v.005l-.236,1.126a.464.464,0,0,1-.452.367v-.4a.062.062,0,0,0,.06-.049l.235-1.123a.069.069,0,0,0-.05-.077l-.012,0a1.408,1.408,0,0,1-.909-1.057,1.6,1.6,0,0,1,.384-1.512l.009-.009a1.233,1.233,0,0,1,1.508-.129l.017.012a.06.06,0,0,0,.062.008.05.05,0,0,0,.015-.021c.083-.224.187-.531.3-.855.15-.443.306-.9.4-1.14a.062.062,0,0,0-.115-.047c-.121.294-.347.924-.6,1.685l-.068.2-.2-.082a1.288,1.288,0,0,0-1.38.257,1.691,1.691,0,0,0-.456,1.65l0,.015a1.516,1.516,0,0,0,.816,1.079l.139.069-.22,1.054a.062.062,0,0,0,.048.073H87.3Z" transform="translate(-82.351 -129.81)" fill="#fff"/><path d="M47.9,225.872a.231.231,0,0,1-.236-.193,3.89,3.89,0,0,0-.409-1.267.231.231,0,0,1,.394-.242,4.243,4.243,0,0,1,.471,1.434.231.231,0,0,1-.19.266l-.031,0" transform="translate(-45.047 -214.678)" fill="#fff"/><path d="M17.877,25.284c-.821-3.008-3.6-4.778-6.208-3.954l-.053.019-.079-.007c-.027.02-.053.041-.078.062-2.473.922-3.822,3.943-3.026,6.867a14.864,14.864,0,0,1-.91,2.564,3.958,3.958,0,0,0,3.4-3.346h0l3.818-1.212h0c3.328,2.784,5.627.633,5.627.633s-1.4-.866-2.494-1.625" transform="translate(-6.255 -20.116)" fill="#3a85e3"/><path d="M88.417,1.459a.281.281,0,0,1-.169-.056L87.524.861a.289.289,0,0,1-.071-.393.281.281,0,0,1,.4-.061l.324.244A.106.106,0,0,0,88.338.6L88.5.191a.289.289,0,0,1,.359-.174.281.281,0,0,1,.168.365l-.345.9a.281.281,0,0,1-.262.179" transform="translate(-83.282 -0.003)" fill="#fff"/><path d="M88.417,1.659a.484.484,0,0,1-.288-.1L87.4,1.021a.487.487,0,0,1-.118-.663l0-.006a.481.481,0,0,1,.682-.1L88.2.416l.115-.3a.487.487,0,0,1,.607-.292l.005,0a.481.481,0,0,1,.288.626l-.345.9a.479.479,0,0,1-.448.307v-.4a.081.081,0,0,0,.076-.052l.344-.9a.081.081,0,0,0-.046-.1.088.088,0,0,0-.107.054l-.161.415a.306.306,0,0,1-.469.134L87.731.567a.081.081,0,0,0-.113.014A.088.088,0,0,0,87.641.7l.727.544a.083.083,0,0,0,.049.016v.4Z" transform="translate(-83.282 -0.003)" fill="#fff"/><path d="M15.093,21.1a.273.273,0,0,0-.126-.209c-.014-.008-1.3-.8-2.379-1.529a.4.4,0,0,1-.157-.213c-.965-3.092-3.909-4.888-6.668-4.02l-.016.005H5.73a.243.243,0,0,0-.192.059l-.033.029C2.9,16.2,1.452,19.328,2.189,22.4a.5.5,0,0,1-.012.269c-.145.449-.5,1.512-.861,2.39a.3.3,0,0,0-.008.215.255.255,0,0,0,.236.176h.016a4.467,4.467,0,0,0,3.794-3.528l3.606-1.134c3.512,2.838,6.018.582,6.042.558a.281.281,0,0,0,.086-.231M7.179,15.449a5.186,5.186,0,0,1,4.719,3.7.13.13,0,0,1-.006.1.116.116,0,0,1-.069.061l-2.534.8a.076.076,0,0,1-.063-.008.085.085,0,0,1-.038-.054,12.846,12.846,0,0,0-.667-2.085A5.252,5.252,0,0,0,6.668,15.48a4.215,4.215,0,0,1,.51-.032m-1.9,5.832c-.3-.973-1.062-3.969.393-5.494a.241.241,0,0,1,.241-.069c1.746.5,2.566,3.492,2.792,4.486a.087.087,0,0,1-.055.1L5.373,21.336a.079.079,0,0,1-.1-.055M4.757,16.2a5.655,5.655,0,0,0-.414,3.076,11.447,11.447,0,0,0,.442,2.152.091.091,0,0,1-.006.067.081.081,0,0,1-.049.042l-1.95.611a.107.107,0,0,1-.089-.012.121.121,0,0,1-.053-.078A5.688,5.688,0,0,1,4.757,16.2m-2.8,8.617c.281-.729.537-1.491.671-1.9a.34.34,0,0,1,.22-.224l1.936-.609A3.82,3.82,0,0,1,1.959,24.82m7.62-4.243,2.333-.734a.664.664,0,0,1,.572.085c.7.47,1.454.947,1.882,1.214-.683.422-2.444,1.15-4.787-.565" transform="translate(-0.501 -14.252)" fill="#fff"/><path d="M1.572,25.646H1.545a.456.456,0,0,1-.425-.311.5.5,0,0,1,.014-.36c.364-.883.718-1.953.854-2.372a.3.3,0,0,0,.007-.161,6.906,6.906,0,0,1,.418-4.5,5.523,5.523,0,0,1,2.987-2.9l.006,0a.445.445,0,0,1,.314-.111,4.914,4.914,0,0,1,1.458-.222,5.355,5.355,0,0,1,3.309,1.2,6.508,6.508,0,0,1,2.134,3.178.2.2,0,0,0,.078.107c1.075.728,2.359,1.517,2.371,1.524a.464.464,0,0,1,.219.378.483.483,0,0,1-.149.391h0a4.143,4.143,0,0,1-2.65.927h0A5.783,5.783,0,0,1,8.92,21.006l-3.4,1.068a4.667,4.667,0,0,1-3.94,3.57ZM5.7,15.331a.044.044,0,0,0-.029.012l-.059.052-.035.013c-2.5.943-3.9,3.992-3.193,6.94a.7.7,0,0,1-.016.378c-.137.423-.495,1.5-.866,2.4a.1.1,0,0,0,0,.074.056.056,0,0,0,.048.041h0a4.278,4.278,0,0,0,3.61-3.373l.026-.112L9,20.561l.083.067a5.457,5.457,0,0,0,3.4,1.386h0a3.75,3.75,0,0,0,2.377-.818h0a.082.082,0,0,0,.023-.066V21.12a.071.071,0,0,0-.028-.059c-.009-.005-1.3-.8-2.387-1.534a.6.6,0,0,1-.236-.318,5.492,5.492,0,0,0-5.062-4.1,4.513,4.513,0,0,0-1.356.209l-.045.015-.073,0Zm-4.06,9.762.133-.345c.282-.729.539-1.5.668-1.892a.541.541,0,0,1,.35-.353l2.29-.72-.1.357A4.015,4.015,0,0,1,2,25.016Zm2.83-2.7-1.56.49a.141.141,0,0,0-.089.094c-.108.332-.307.928-.536,1.544A3.617,3.617,0,0,0,4.469,22.395Zm-1.721-.038a.308.308,0,0,1-.163-.047.323.323,0,0,1-.143-.205,5.912,5.912,0,0,1,2.2-6.063l.6-.429-.3.672a5.435,5.435,0,0,0-.4,2.967v.007a11.269,11.269,0,0,0,.434,2.114.29.29,0,0,1-.018.216.282.282,0,0,1-.171.144l-1.947.61A.306.306,0,0,1,2.748,22.356Zm1.568-5.521a5.566,5.566,0,0,0-1.5,5.1l1.749-.548A11.678,11.678,0,0,1,4.145,19.3,5.855,5.855,0,0,1,4.315,16.835ZM12.5,21.862A5.169,5.169,0,0,1,9.46,20.739l-.319-.234,2.71-.853a.871.871,0,0,1,.744.109c.713.479,1.482.964,1.876,1.211l.273.17-.274.169A3.729,3.729,0,0,1,12.5,21.862Zm-2.473-1.217a4.554,4.554,0,0,0,2.473.817,3.357,3.357,0,0,0,1.468-.331c-.423-.267-1.028-.654-1.6-1.037a.468.468,0,0,0-.4-.06Zm-4.678.894a.28.28,0,0,1-.267-.2,10.763,10.763,0,0,1-.471-2.591,4.079,4.079,0,0,1,.909-3.1.448.448,0,0,1,.44-.123c1.812.521,2.655,3.414,2.933,4.634a.288.288,0,0,1-.189.338L5.433,21.527A.275.275,0,0,1,5.35,21.539Zm.493-5.63a.045.045,0,0,0-.032.015c-1.335,1.4-.674,4.19-.38,5.184l3.051-.959c-.238-1-1.036-3.78-2.629-4.239Zm3.421,4.4a.276.276,0,0,1-.145-.041.287.287,0,0,1-.128-.179,12.68,12.68,0,0,0-.657-2.053l0-.009a5.029,5.029,0,0,0-1.78-2.384l-.414-.3.507-.063a4.43,4.43,0,0,1,.534-.033h.006a5.1,5.1,0,0,1,3.017,1.1,5.665,5.665,0,0,1,1.886,2.735.326.326,0,0,1-.016.244.317.317,0,0,1-.19.166l-2.534.8A.275.275,0,0,1,9.265,20.308Zm-.559-2.423a13.077,13.077,0,0,1,.647,1.989l2.331-.733A5.009,5.009,0,0,0,7.2,15.649,5.475,5.475,0,0,1,8.706,17.885Z" transform="translate(-0.501 -14.252)" fill="#fff"/></g></g><g transform="translate(1001 386.862)"><rect width="28" height="28" rx="5" transform="translate(-7 62.138)" fill="#245eb9"/><path d="M979.687,791.789a.468.468,0,1,1,0-.937h3.344v-2.875h.937v2.875h3.344a.468.468,0,0,1,0,.937Zm-2.75-3.966a.94.94,0,0,1-.938-.937v-7.971a.941.941,0,0,1,.938-.938h13.125a.941.941,0,0,1,.938.938v7.971a.94.94,0,0,1-.938.937Zm0-.937h13.125v-1.972H976.937Zm13.125-2.909v-5.062H976.937v5.063Z" transform="translate(-976.315 -708.838)" fill="#fff"/><path d="M987.313,791.888h-7.626a.568.568,0,1,1,0-1.137h3.244v-2.829h-5.994a1.038,1.038,0,0,1-1.038-1.037v-7.971a1.039,1.039,0,0,1,1.038-1.038h13.125a1.039,1.039,0,0,1,1.038,1.038v7.971a1.038,1.038,0,0,1-1.038,1.037h-5.994v2.829h3.244a.568.568,0,0,1,0,1.137Zm-7.626-.937a.368.368,0,1,0,0,.737h7.626a.368.368,0,0,0,0-.737h-3.444v-2.875h-.737v2.875Zm-2.75-12.875a.839.839,0,0,0-.838.838v7.971a.838.838,0,0,0,.838.837h13.125a.838.838,0,0,0,.838-.837v-7.971a.839.839,0,0,0-.838-.838Zm13.225,8.909H976.837v-2.172h13.325Zm-13.125-.2h12.925v-1.772H977.037Zm13.125-2.709H976.837v-5.262h13.325Zm-13.125-.2h12.925v-4.863H977.037Z" transform="translate(-976.315 -708.838)" fill="#fff"/></g><g transform="translate(-405 24)"><rect width="28" height="28" rx="5" transform="translate(1446 425)" fill="#ff8a16"/><g transform="translate(1449 432)"><path d="M14.1,12.668h0a.723.723,0,0,1-.708-.62.746.746,0,0,1-.008-.111v-3a.424.424,0,0,0-.418-.427h-.234a.422.422,0,0,0-.418.424V10a1.279,1.279,0,0,1-1.258,1.291h-.148A1.272,1.272,0,0,1,9.647,10V8.116a.425.425,0,0,0-.42-.428h-.21a.42.42,0,0,0-.418.424V9.979a1.276,1.276,0,0,1-1.317,1.288q-.054,0-.108-.009A1.308,1.308,0,0,1,6.08,9.938V9.913a.435.435,0,0,0-.011-.1.419.419,0,0,0-.408-.329H5.6a.419.419,0,0,0-.414.425V11.8l0,.14a.722.722,0,0,1-.712.726H4.426l-.138-.005c-.044,0-.091-.007-.135-.011l-.018,0a3.975,3.975,0,0,1-.5-.075,4.39,4.39,0,0,1-1.11-.4A4.706,4.706,0,0,1,4.157,3.327,4.6,4.6,0,0,1,8.537,0L8.7,0a4.558,4.558,0,0,1,3.888,2.5c.1-.009.194-.014.291-.014a3.558,3.558,0,0,1,1.764.466q.07.039.138.081a3.649,3.649,0,0,1,1.113,1.079,3.825,3.825,0,0,1,.541,1.238A3.734,3.734,0,0,1,19,8.934q0,.1-.006.2a3.751,3.751,0,0,1-3.741,3.529Zm1.247-.86a2.885,2.885,0,0,0,.342-5.739A2.9,2.9,0,0,0,15.2,4.6a2.8,2.8,0,0,0-.962-.893,2.758,2.758,0,0,0-2.16-.239,3.715,3.715,0,0,0-7.241.708l-.023,0c-.087-.006-.174-.009-.26-.009A3.676,3.676,0,0,0,1.065,6.655,4.172,4.172,0,0,0,.841,8,3.831,3.831,0,0,0,2.9,11.4a3.679,3.679,0,0,0,.908.326,3.764,3.764,0,0,0,.525.069V9.913A1.276,1.276,0,0,1,5.6,8.626h.068A1.272,1.272,0,0,1,6.921,9.88q0,.017,0,.033v.066a.422.422,0,0,0,.49.422.444.444,0,0,0,.346-.446V8.113A1.274,1.274,0,0,1,9.017,6.826h.212l.065,0a1.275,1.275,0,0,1,1.194,1.285V10a.422.422,0,0,0,.418.425h.148A.422.422,0,0,0,11.47,10V8.937A1.274,1.274,0,0,1,12.729,7.65h.234a1.277,1.277,0,0,1,1.261,1.29v2.867ZM5,7.053a.711.711,0,1,1,.712.739A.724.724,0,0,1,5,7.053Zm7.245-.86a.711.711,0,1,1,.709.735A.724.724,0,0,1,12.249,6.194ZM8.473,4.971a.711.711,0,1,1,.709.738A.721.721,0,0,1,8.473,4.971Z" transform="translate(1.5 0.667)" fill="#fff"/><path d="M15.253,12.868H14.1a.927.927,0,0,1-.907-.79.949.949,0,0,1-.01-.141v-3a.225.225,0,0,0-.218-.227h-.234a.221.221,0,0,0-.218.224V10a1.476,1.476,0,0,1-1.458,1.491h-.148A1.475,1.475,0,0,1,9.447,10V8.116a.224.224,0,0,0-.22-.227h-.21a.221.221,0,0,0-.218.224V9.979a1.475,1.475,0,0,1-1.526,1.488c-.042,0-.084-.006-.125-.011A1.5,1.5,0,0,1,5.88,9.938V9.913a.235.235,0,0,0-.006-.052.218.218,0,0,0-.213-.173H5.6a.22.22,0,0,0-.214.225V11.8l0,.14a.923.923,0,0,1-.912.92h-.05l-.134-.005c-.044,0-.09-.006-.148-.012l-.019,0a4.108,4.108,0,0,1-.518-.078,4.6,4.6,0,0,1-1.158-.414A4.864,4.864,0,0,1-.2,7.989a4.928,4.928,0,0,1,1.257-3.3A4.725,4.725,0,0,1,4,3.142,4.815,4.815,0,0,1,8.537-.2l.168,0a4.767,4.767,0,0,1,4,2.492c.06,0,.118-.005.175-.005a3.747,3.747,0,0,1,1.864.493c.047.026.1.055.144.085a3.858,3.858,0,0,1,1.174,1.138A4.026,4.026,0,0,1,16.6,5.2a3.824,3.824,0,0,1,1.844,1.382A3.976,3.976,0,0,1,19.2,8.935c0,.071,0,.143-.006.215A3.939,3.939,0,0,1,15.253,12.868ZM12.729,8.313h.234a.623.623,0,0,1,.618.627v3a.548.548,0,0,0,.006.081.525.525,0,0,0,.51.45h1.157a3.539,3.539,0,0,0,3.542-3.34c0-.064.005-.129.005-.194a3.556,3.556,0,0,0-2.427-3.389l-.108-.034-.026-.11a3.626,3.626,0,0,0-.513-1.174,3.456,3.456,0,0,0-1.052-1.02c-.043-.027-.087-.052-.131-.077a3.348,3.348,0,0,0-1.667-.441c-.086,0-.175,0-.272.014l-.135.013L12.409,2.6A4.37,4.37,0,0,0,8.691.2L8.537.2A4.415,4.415,0,0,0,4.349,3.384l-.038.13-.135.012A4.506,4.506,0,0,0,2.621,12a4.2,4.2,0,0,0,1.06.379,3.758,3.758,0,0,0,.474.071l.02,0c.05.005.09.009.124.011l.135.005h.031a.523.523,0,0,0,.512-.527l0-.141V9.913A.62.62,0,0,1,5.6,9.289h.067a.616.616,0,0,1,.6.485.636.636,0,0,1,.016.14v.024A1.1,1.1,0,0,0,7.2,11.06c.03,0,.061.007.091.008A1.074,1.074,0,0,0,8.4,9.979V8.113a.621.621,0,0,1,.618-.624h.21a.625.625,0,0,1,.62.628V10a1.075,1.075,0,0,0,1.058,1.088h.148A1.076,1.076,0,0,0,12.111,10V8.937A.621.621,0,0,1,12.729,8.313Zm-8.192,3.7L4.324,12a3.937,3.937,0,0,1-.553-.073,3.9,3.9,0,0,1-.959-.344A4.009,4.009,0,0,1,.641,8a4.376,4.376,0,0,1,.234-1.41A3.869,3.869,0,0,1,4.553,3.968l.112,0A3.911,3.911,0,0,1,12.2,3.23a2.961,2.961,0,0,1,2.132.307,3.017,3.017,0,0,1,1.029.955,3.109,3.109,0,0,1,.507,1.4,3.086,3.086,0,0,1-.529,6.113h-1.32V8.94a1.077,1.077,0,0,0-1.061-1.09h-.234a1.074,1.074,0,0,0-1.058,1.087V10a.622.622,0,0,1-.618.625h-.148A.622.622,0,0,1,10.288,10V8.113a1.074,1.074,0,0,0-1-1.086H9.017A1.075,1.075,0,0,0,7.956,8.113V9.955a.646.646,0,0,1-.511.643.622.622,0,0,1-.724-.619V9.913q0-.014,0-.028a1.066,1.066,0,0,0-1.058-1.06H5.6A1.075,1.075,0,0,0,4.537,9.913Zm9.886-.405h.92a2.685,2.685,0,0,0,.317-5.341L15.5,6.246l-.009-.167a2.711,2.711,0,0,0-.453-1.364,2.617,2.617,0,0,0-.893-.829,2.558,2.558,0,0,0-2-.223l-.188.057-.061-.187A3.515,3.515,0,0,0,5.034,4.2l-.025.2-.215-.026c-.08-.006-.161-.008-.241-.008a3.469,3.469,0,0,0-3.3,2.351A3.977,3.977,0,0,0,1.041,8,3.611,3.611,0,0,0,3,11.226a3.5,3.5,0,0,0,.859.308c.09.019.183.034.282.046V9.913A1.475,1.475,0,0,1,5.6,8.426h.067a1.464,1.464,0,0,1,1.459,1.45q0,.019,0,.038v.066a.223.223,0,0,0,.256.225.247.247,0,0,0,.179-.249V8.113A1.476,1.476,0,0,1,9.017,6.626h.212l.075,0a1.474,1.474,0,0,1,1.384,1.485V10a.222.222,0,0,0,.218.225h.148A.222.222,0,0,0,11.271,10V8.937A1.474,1.474,0,0,1,12.729,7.45h.234a1.477,1.477,0,0,1,1.461,1.49ZM5.716,7.992a.938.938,0,1,1,.909-.939A.927.927,0,0,1,5.716,7.992Zm0-1.474a.538.538,0,1,0,.509.535A.525.525,0,0,0,5.716,6.518Zm7.242.611a.937.937,0,1,1,.912-.935A.924.924,0,0,1,12.958,7.129Zm0-1.474a.538.538,0,1,0,.512.539A.525.525,0,0,0,12.958,5.655Zm-3.776.254a.937.937,0,1,1,.912-.938A.925.925,0,0,1,9.182,5.909Zm0-1.473a.537.537,0,1,0,.512.535A.523.523,0,0,0,9.182,4.435Z" transform="translate(1.5 0.667)" fill="#fff"/></g></g></g></svg>