<svg xmlns="http://www.w3.org/2000/svg" width="15" height="15" viewBox="0 0 15 15"><g transform="translate(-4 -4)"><path d="M16.944,27.667H6.056A2.056,2.056,0,0,1,4,25.611V22.5H5v3.111a1.056,1.056,0,0,0,1.056,1.056H16.944A1.057,1.057,0,0,0,18,25.611V22.5h1v3.111a2.058,2.058,0,0,1-2.056,2.056Z" transform="translate(0 -8.667)" fill="#fff"/><path d="M14.389,19.6l-4.243-4.243a.5.5,0,1,1,.707-.707l3.535,3.535,3.535-3.535a.5.5,0,1,1,.707.707Z" transform="translate(-2.889 -5.056)" fill="#fff"/><path d="M18,14.333a.5.5,0,0,1-.5-.5V4.5a.5.5,0,0,1,1,0v9.333A.5.5,0,0,1,18,14.333Z" transform="translate(-6.5)" fill="#fff"/></g></svg>