<svg xmlns="http://www.w3.org/2000/svg" xmlns:xlink="http://www.w3.org/1999/xlink" width="51" height="21" viewBox="0 0 51 21"><defs><clipPath id="a"><rect width="21" height="21" transform="translate(679 4100.998)" fill="red" opacity="0.5"/></clipPath><clipPath id="b"><rect width="21" height="21" transform="translate(709 4100.998)" fill="red" opacity="0.5"/></clipPath></defs><g transform="translate(-679 -4100.998)"><g clip-path="url(#a)"><path d="M10.5,18,9.268,16.921C4.89,13.1,2,10.586,2,7.5A4.543,4.543,0,0,1,6.675,3,5.175,5.175,0,0,1,10.5,4.708,5.175,5.175,0,0,1,14.325,3,4.543,4.543,0,0,1,19,7.5c0,3.09-2.89,5.608-7.267,9.433Z" transform="translate(679 4101)" fill="#fff"/><path d="M10.5,16.673l.606-.526C15.258,12.52,18,10.124,18,7.5A3.551,3.551,0,0,0,14.325,4a4.161,4.161,0,0,0-3.076,1.371h-1.5A4.161,4.161,0,0,0,6.675,4,3.551,3.551,0,0,0,3,7.5c0,2.633,2.751,5.031,6.914,8.662l.589.515M10.5,18,9.267,16.921C4.89,13.1,2,10.586,2,7.5A4.543,4.543,0,0,1,6.675,3,5.175,5.175,0,0,1,10.5,4.708,5.175,5.175,0,0,1,14.325,3,4.543,4.543,0,0,1,19,7.5c0,3.09-2.89,5.608-7.267,9.433Z" transform="translate(679 4101)" fill="#999"/></g><g clip-path="url(#b)"><path d="M10.5,18,9.268,16.921C4.89,13.1,2,10.586,2,7.5A4.543,4.543,0,0,1,6.675,3,5.175,5.175,0,0,1,10.5,4.708,5.175,5.175,0,0,1,14.325,3,4.543,4.543,0,0,1,19,7.5c0,3.09-2.89,5.608-7.267,9.433Z" transform="translate(709 4101)" fill="#ef4a15"/><path d="M10.5,16.673l.606-.526C15.258,12.52,18,10.124,18,7.5A3.551,3.551,0,0,0,14.325,4a4.161,4.161,0,0,0-3.076,1.371h-1.5A4.161,4.161,0,0,0,6.675,4,3.551,3.551,0,0,0,3,7.5c0,2.633,2.751,5.031,6.914,8.662l.589.515M10.5,18,9.267,16.921C4.89,13.1,2,10.586,2,7.5A4.543,4.543,0,0,1,6.675,3,5.175,5.175,0,0,1,10.5,4.708,5.175,5.175,0,0,1,14.325,3,4.543,4.543,0,0,1,19,7.5c0,3.09-2.89,5.608-7.267,9.433Z" transform="translate(709 4101)" fill="#ef4a15"/></g></g></svg>