<svg xmlns="http://www.w3.org/2000/svg" width="24" height="24" viewBox="0 0 24 24"><g transform="translate(-15391.822 102.971)"><path d="M18.165,56.228H1.631a.631.631,0,0,1-.6-.83l.409-1.229a2.522,2.522,0,0,1,2.393-1.724H15.961a2.522,2.522,0,0,1,2.392,1.724l.409,1.229A.63.63,0,0,1,18.165,56.228Z" transform="translate(15393.822 -137.199)" fill="none" stroke="#525252" stroke-linecap="round" stroke-linejoin="round" stroke-width="1"/><path d="M9.227,24.712V18.25a6.3,6.3,0,0,1,12.609,0v6.462" transform="translate(15388.187 -109.466)" fill="none" stroke="#525252" stroke-linecap="round" stroke-linejoin="round" stroke-width="1"/><line y2="1.617" transform="translate(15403.63 -100.971)" fill="none" stroke="#525252" stroke-linecap="round" stroke-linejoin="round" stroke-width="1"/><line x2="0.866" y2="1.181" transform="translate(15398.308 -99.55)" fill="none" stroke="#525252" stroke-linecap="round" stroke-linejoin="round" stroke-width="1"/><line x1="0.866" y2="1.181" transform="translate(15407.878 -99.55)" fill="none" stroke="#525252" stroke-linecap="round" stroke-linejoin="round" stroke-width="1"/></g><rect width="24" height="24" fill="none"/></svg>