<svg xmlns="http://www.w3.org/2000/svg" xmlns:xlink="http://www.w3.org/1999/xlink" width="52" height="21" viewBox="0 0 52 21"><defs><clipPath id="a"><rect width="21" height="21" transform="translate(133.997 490)" fill="red" opacity="0.5"/></clipPath><clipPath id="b"><rect width="21" height="21" transform="translate(164.997 490)" fill="red" opacity="0.5"/></clipPath></defs><g transform="translate(-133.997 -490)"><g clip-path="url(#a)"><path d="M14.156,6.075l4.159.6a1.458,1.458,0,0,1,.777,2.467L16.05,12.2a1.476,1.476,0,0,0-.4,1.29l.74,4.329a1.4,1.4,0,0,1-2.031,1.523l-3.681-2.059a1.345,1.345,0,0,0-1.32,0L5.675,19.342a1.4,1.4,0,0,1-2.03-1.524l.74-4.328a1.479,1.479,0,0,0-.4-1.29L.942,9.142a1.458,1.458,0,0,1,.777-2.467l4.159-.6a1.4,1.4,0,0,0,1.062-.8L8.763,1.337a1.369,1.369,0,0,1,2.508,0L13.094,5.27a1.4,1.4,0,0,0,1.062.805Z" transform="translate(134.482 490.482)" fill="#fff"/><path d="M10.017.518a1.371,1.371,0,0,0-1.254.819L6.94,5.27a1.4,1.4,0,0,1-1.062.8l-4.159.6A1.458,1.458,0,0,0,.942,9.142L3.984,12.2a1.479,1.479,0,0,1,.4,1.29l-.74,4.328a1.4,1.4,0,0,0,2.03,1.524l3.681-2.059a1.345,1.345,0,0,1,1.32,0l3.681,2.059a1.4,1.4,0,0,0,2.031-1.523l-.74-4.329a1.476,1.476,0,0,1,.4-1.29l3.042-3.058a1.458,1.458,0,0,0-.777-2.467l-4.159-.6a1.4,1.4,0,0,1-1.062-.8L11.27,1.337A1.371,1.371,0,0,0,10.017.518m0-1a2.368,2.368,0,0,1,2.161,1.4L14,4.849a.4.4,0,0,0,.3.236l4.159.6a2.392,2.392,0,0,1,1.929,1.629A2.463,2.463,0,0,1,19.8,9.848l-3.041,3.058a.474.474,0,0,0-.125.416l.74,4.329a2.466,2.466,0,0,1-.54,2.011,2.345,2.345,0,0,1-2.965.553l-3.682-2.059a.346.346,0,0,0-.343,0L6.163,20.214A2.344,2.344,0,0,1,3.2,19.661a2.466,2.466,0,0,1-.538-2.012l.74-4.327a.483.483,0,0,0-.126-.416L.233,9.847A2.462,2.462,0,0,1-.353,7.315a2.392,2.392,0,0,1,1.929-1.63l4.159-.6a.4.4,0,0,0,.3-.237L7.855.916a2.368,2.368,0,0,1,2.162-1.4Z" transform="translate(134.482 490.482)" fill="#999"/></g><g clip-path="url(#b)"><path d="M14.156,6.075l4.159.6a1.458,1.458,0,0,1,.777,2.467L16.05,12.2a1.476,1.476,0,0,0-.4,1.29l.74,4.329a1.4,1.4,0,0,1-2.031,1.523l-3.681-2.059a1.345,1.345,0,0,0-1.32,0L5.675,19.342a1.4,1.4,0,0,1-2.03-1.524l.74-4.328a1.479,1.479,0,0,0-.4-1.29L.942,9.142a1.458,1.458,0,0,1,.777-2.467l4.159-.6a1.4,1.4,0,0,0,1.062-.8L8.763,1.337a1.369,1.369,0,0,1,2.508,0L13.094,5.27a1.4,1.4,0,0,0,1.062.805Z" transform="translate(165.482 490.482)" fill="#ffd84e"/><path d="M10.017.518a1.371,1.371,0,0,0-1.254.819L6.94,5.27a1.4,1.4,0,0,1-1.062.8l-4.159.6A1.458,1.458,0,0,0,.942,9.142L3.984,12.2a1.479,1.479,0,0,1,.4,1.29l-.74,4.328a1.4,1.4,0,0,0,2.03,1.524l3.681-2.059a1.345,1.345,0,0,1,1.32,0l3.681,2.059a1.4,1.4,0,0,0,2.031-1.523l-.74-4.329a1.476,1.476,0,0,1,.4-1.29l3.042-3.058a1.458,1.458,0,0,0-.777-2.467l-4.159-.6a1.4,1.4,0,0,1-1.062-.8L11.27,1.337A1.371,1.371,0,0,0,10.017.518m0-1a2.368,2.368,0,0,1,2.161,1.4L14,4.849a.4.4,0,0,0,.3.236l4.159.6a2.392,2.392,0,0,1,1.929,1.629A2.463,2.463,0,0,1,19.8,9.848l-3.041,3.058a.474.474,0,0,0-.125.416l.74,4.329a2.466,2.466,0,0,1-.54,2.011,2.345,2.345,0,0,1-2.965.553l-3.682-2.059a.346.346,0,0,0-.343,0L6.163,20.214A2.344,2.344,0,0,1,3.2,19.661a2.466,2.466,0,0,1-.538-2.012l.74-4.327a.483.483,0,0,0-.126-.416L.233,9.847A2.462,2.462,0,0,1-.353,7.315a2.392,2.392,0,0,1,1.929-1.63l4.159-.6a.4.4,0,0,0,.3-.237L7.855.916a2.368,2.368,0,0,1,2.162-1.4Z" transform="translate(165.482 490.482)" fill="#ffd84e"/></g></g></svg>