<svg xmlns="http://www.w3.org/2000/svg" width="10.4" height="19.402" viewBox="0 0 10.4 19.402"><g transform="translate(-209.8 -398.798)"><path d="M43.07,45.326H46.4V37.443h2.671l.429-3.114s.061-.039-.245-.039H46.4V31.4a1.338,1.338,0,0,1,1.461-1.05h1.562L49.4,27.607a7.936,7.936,0,0,0-3.515-.172,3.371,3.371,0,0,0-2.2,1.392,2.691,2.691,0,0,0-.6,1.718V34.29H40.5v3.153h2.57Z" transform="translate(170 372.174)" fill="#fff"/><path d="M46.9,45.826H42.57V37.943H40V33.79h2.57V30.518a3.23,3.23,0,0,1,.721-2.015,3.89,3.89,0,0,1,2.523-1.565,9.932,9.932,0,0,1,1.48-.113,7.42,7.42,0,0,1,2.264.308l.332.116.033,3.6H47.856c-.775,0-.933.476-.961.595V33.79H49.25c.215,0,.616,0,.73.389a.5.5,0,0,1,0,.267l-.482,3.5H46.9Zm-3.325-1H45.9V36.943h2.73l.3-2.153H45.9V31.362l.005-.035a1.837,1.837,0,0,1,1.956-1.478h1.057L48.9,27.991a7.469,7.469,0,0,0-1.6-.165,8.933,8.933,0,0,0-1.34.1h-.032a2.876,2.876,0,0,0-1.847,1.193l-.027.037-.019.018a2.275,2.275,0,0,0-.459,1.379V34.79H41v2.153h2.57Z" transform="translate(170 372.174)" fill="#ff460a"/><path d="M47.1,46.026H42.37V38.143H39.8V33.59h2.57V30.507a3.441,3.441,0,0,1,.767-2.132,4.064,4.064,0,0,1,2.651-1.636,10.133,10.133,0,0,1,1.506-.114,7.641,7.641,0,0,1,2.33.32l.464.162.036,3.941H47.856c-.581,0-.726.3-.761.42V33.59H49.25a.84.84,0,0,1,.922.533.7.7,0,0,1,.009.361l-.5,3.659H47.1Zm-4.325-.4H46.7V37.743h2.632L49.79,34.4a.3.3,0,0,0,0-.161c-.06-.206-.236-.245-.538-.245H46.7V31.4a1.053,1.053,0,0,1,1.156-.75h1.865l-.03-3.256-.2-.07a7.2,7.2,0,0,0-2.2-.3,9.732,9.732,0,0,0-1.45.11h-.007a3.706,3.706,0,0,0-2.386,1.487l-.012.014a3.019,3.019,0,0,0-.668,1.885v3.47H40.2v3.753h2.57Zm3.325-.6H43.37V37.143H40.8V34.59h2.57V30.547a2.449,2.449,0,0,1,.51-1.5l.019-.018.016-.021A3.086,3.086,0,0,1,45.9,27.733h.026a9.131,9.131,0,0,1,1.367-.1,7.658,7.658,0,0,1,1.646.17l.155.035.02,2.219H47.856a1.641,1.641,0,0,0-1.756,1.3V34.59h3.061L48.8,37.143H46.1Zm-2.325-.4H45.7V36.743h2.761L48.7,34.99h-3V31.3a2.034,2.034,0,0,1,2.154-1.65h.856l-.01-1.5a7.435,7.435,0,0,0-1.4-.128,8.731,8.731,0,0,0-1.31.1h-.038a2.66,2.66,0,0,0-1.71,1.114l-.042.06-.025.023a2.135,2.135,0,0,0-.4,1.244V34.99H41.2v1.753h2.57Z" transform="translate(170 372.174)" fill="#ff460a"/></g></svg>