<svg xmlns="http://www.w3.org/2000/svg" width="170" height="30" viewBox="0 0 170 30"><g transform="translate(-484 -1661)"><g transform="translate(554 1661)"><g fill="#fff" stroke="#ff460a" stroke-width="1"><circle cx="15" cy="15" r="15" stroke="none"/><circle cx="15" cy="15" r="14.5" fill="none"/></g><circle cx="2" cy="2" r="2" transform="translate(8 8)" fill="#ff460a"/><circle cx="2" cy="2" r="2" transform="translate(18 8)" fill="#ff460a"/><path d="M764.686,1912.943s3.378.092,6.766.093,6.783-.088,6.783-.088" transform="translate(-756 -1893.785)" fill="none" stroke="#ff460a" stroke-width="1"/></g><g transform="translate(589 1661)"><g fill="#fff" stroke="#ff460a" stroke-width="1"><circle cx="15" cy="15" r="15" stroke="none"/><circle cx="15" cy="15" r="14.5" fill="none"/></g><circle cx="2" cy="2" r="2" transform="translate(8 8)" fill="#ff460a"/><circle cx="2" cy="2" r="2" transform="translate(18 8)" fill="#ff460a"/><path d="M764.686,1912.945a16.168,16.168,0,0,0,6.8,2,15.607,15.607,0,0,0,6.75-1.868" transform="translate(-756.234 -1894.109)" fill="none" stroke="#ff460a" stroke-width="1"/></g><g transform="translate(519 1661)"><g fill="#fff" stroke="#ff460a" stroke-width="1"><circle cx="15" cy="15" r="15" stroke="none"/><circle cx="15" cy="15" r="14.5" fill="none"/></g><circle cx="2" cy="2" r="2" transform="translate(8 8)" fill="#ff460a"/><circle cx="2" cy="2" r="2" transform="translate(18 8)" fill="#ff460a"/><path d="M764.686,1912.945a16.821,16.821,0,0,0,6.666,1.753,18.307,18.307,0,0,0,6.883-1.624" transform="translate(786.686 1934.198) rotate(180)" fill="none" stroke="#ff460a" stroke-width="1"/></g><g transform="translate(484 1661)"><g fill="#fff" stroke="#ff460a" stroke-width="1"><circle cx="15" cy="15" r="15" stroke="none"/><circle cx="15" cy="15" r="14.5" fill="none"/></g><circle cx="2" cy="2" r="2" transform="translate(8 8)" fill="#ff460a"/><circle cx="2" cy="2" r="2" transform="translate(18 8)" fill="#ff460a"/><path d="M764.686,1912.945s3.443,4.545,6.83,4.576,6.719-4.447,6.719-4.447" transform="translate(786.686 1935.085) rotate(180)" fill="none" stroke="#ff460a" stroke-width="1"/></g><g transform="translate(624 1661)"><g fill="#fff" stroke="#ff460a" stroke-width="1"><circle cx="15" cy="15" r="15" stroke="none"/><circle cx="15" cy="15" r="14.5" fill="none"/></g><circle cx="2" cy="2" r="2" transform="translate(8 8)" fill="#ff460a"/><circle cx="2" cy="2" r="2" transform="translate(18 8)" fill="#ff460a"/><path d="M764.686,1912.945s3.412,4.133,6.8,4.164,6.75-4.035,6.75-4.035" transform="translate(-756.234 -1894.109)" fill="none" stroke="#ff460a" stroke-width="1"/></g></g></svg>