<svg xmlns="http://www.w3.org/2000/svg" width="24" height="24" viewBox="0 0 24 24"><g transform="translate(-15373 106)"><g transform="translate(-18.822 -3.029)"><path d="M18.165,56.728H1.631A1.131,1.131,0,0,1,.558,55.24l.41-1.229a3.018,3.018,0,0,1,2.867-2.066H15.961a3.018,3.018,0,0,1,2.867,2.066l.409,1.229a1.13,1.13,0,0,1-1.072,1.488ZM3.835,52.945a2.019,2.019,0,0,0-1.918,1.382l-.409,1.229a.131.131,0,0,0,.124.172H18.165a.13.13,0,0,0,.124-.172l-.409-1.229a2.019,2.019,0,0,0-1.918-1.382Z" transform="translate(15393.822 -137.199)" fill="#979797"/><path d="M21.836,25.212a.5.5,0,0,1-.5-.5V18.25a5.8,5.8,0,1,0-11.609,0v6.462a.5.5,0,0,1-1,0V18.25a6.8,6.8,0,1,1,13.609,0v6.462A.5.5,0,0,1,21.836,25.212Z" transform="translate(15388.187 -109.466)" fill="#979797"/><path d="M0,2.117a.5.5,0,0,1-.5-.5V0A.5.5,0,0,1,0-.5.5.5,0,0,1,.5,0V1.617A.5.5,0,0,1,0,2.117Z" transform="translate(15403.63 -100.971)" fill="#979797"/><path d="M.867,1.682a.5.5,0,0,1-.4-.2L-.4.3A.5.5,0,0,1-.3-.4.5.5,0,0,1,.4-.3L1.269.886a.5.5,0,0,1-.4.8Z" transform="translate(15398.308 -99.55)" fill="#979797"/><path d="M0,1.682a.5.5,0,0,1-.3-.1A.5.5,0,0,1-.4.886L.463-.3a.5.5,0,0,1,.7-.108.5.5,0,0,1,.108.7L.4,1.477A.5.5,0,0,1,0,1.682Z" transform="translate(15407.878 -99.55)" fill="#979797"/></g><rect width="24" height="24" transform="translate(15373 -106)" fill="none"/></g></svg>