<svg width="34" height="34" viewBox="0 0 34 34" fill="none" xmlns="http://www.w3.org/2000/svg">
<circle cx="17" cy="17" r="17" fill="#FF460A"/>
<path d="M15.9237 19.3662C16.1654 19.6517 16.5623 19.8307 16.9684 19.8307H16.9912C17.2832 19.8307 17.5478 19.7625 17.7713 19.6346C18.0405 19.4855 18.2549 19.2255 18.3416 18.9443C18.4374 18.6545 18.4739 18.3349 18.4967 17.8832C18.5149 17.4997 18.5834 16.3235 18.7065 14.3632C18.8297 12.3305 18.889 11.1288 18.889 10.5918C18.8936 10.1657 18.7202 9.74382 18.41 9.41142C18.077 9.04068 17.5706 8.81482 17.014 8.81482C16.5122 8.81482 16.024 8.9938 15.691 9.29636C15.3215 9.61171 15.1025 10.0719 15.1116 10.5705L15.5952 18.4926C15.618 18.8463 15.7275 19.1361 15.9282 19.3662H15.9237ZM16.9501 20.602C16.4985 20.602 16.0514 20.7725 15.732 21.0665C15.3808 21.3776 15.1846 21.8037 15.1937 22.2299C15.1937 22.6688 15.3945 23.1035 15.7503 23.4188C16.097 23.7427 16.5578 23.9259 17.0186 23.9259H17.0414C17.4839 23.9259 17.9127 23.7768 18.2366 23.5126C18.6199 23.2185 18.8434 22.7753 18.8388 22.3407C18.8434 21.8293 18.6381 21.3563 18.2731 21.0494C17.9355 20.7554 17.4748 20.5935 16.9501 20.5935V20.602Z" fill="white"/>
</svg>
