<svg width="18" height="18" viewBox="0 0 18 18" fill="none" xmlns="http://www.w3.org/2000/svg">
<path d="M14.7943 7.17005L14.3902 6.18873C14.3902 6.18873 15.3289 4.02395 15.2447 3.93972L14.0029 2.69729C13.9145 2.61306 11.7972 3.59858 11.7972 3.59858L10.8206 3.19426C10.8206 3.19426 9.95764 1 9.83978 1H8.08445C7.96238 1 7.16259 3.20268 7.16259 3.20268L6.186 3.607C6.186 3.607 4.02236 2.66781 3.93817 2.75204L2.6964 3.99447C2.61221 4.07871 3.59721 6.20137 3.59721 6.20137L3.19311 7.17847C3.19311 7.17847 1 8.04185 1 8.15978V9.91603C1 10.0382 3.20153 10.8384 3.20153 10.8384L3.60563 11.8155C3.60563 11.8155 2.66693 13.9803 2.74691 14.0645L3.98869 15.3069C4.07288 15.3912 6.19442 14.4014 6.19442 14.4014L7.17522 14.8057C7.17522 14.8057 8.03815 17 8.16022 17H9.91555C10.0376 17 10.8374 14.7973 10.8374 14.7973L11.8182 14.393C11.8182 14.393 13.9776 15.3322 14.0618 15.2522L15.3036 14.0097C15.3878 13.9255 14.3986 11.8028 14.3986 11.8028L14.8027 10.8257C14.8027 10.8257 17 9.95815 17 9.84022V8.08397C17 7.96183 14.8027 7.16583 14.8027 7.16583L14.7943 7.17005ZM11.5572 9.00632C11.5572 10.4214 10.408 11.5712 8.99369 11.5712C7.57932 11.5712 6.43015 10.4214 6.43015 9.00632C6.43015 7.59121 7.58353 6.44564 8.99369 6.44564C10.408 6.44564 11.5572 7.59542 11.5572 9.00632Z" stroke="#FF6B3B" stroke-miterlimit="10"/>
</svg>
