<svg width="20" height="20" viewBox="0 0 20 20" fill="none" xmlns="http://www.w3.org/2000/svg">
<path d="M16.9931 14.4023C16.9654 14.6189 16.8626 14.841 16.7238 14.9771L15.7046 15.9962C12.2334 18.9037 7.82634 14.5744 7.78191 14.53L5.47702 12.2223C5.43259 12.1779 1.10328 7.77084 3.99411 4.31351L5.02992 3.2777C5.166 3.14163 5.38815 3.03888 5.60476 3.00833C5.64641 3.00278 5.68807 3 5.72695 3C5.88801 3 6.01853 3.04443 6.09351 3.11941L8.24844 5.6048C8.5067 5.86306 8.5067 6.28238 8.24844 6.54064L7.46255 7.32653C7.27094 7.5348 7.13209 7.73196 7.04601 7.92913C6.87384 8.39844 6.60169 9.63141 7.78191 10.9033L9.10652 12.2279C10.3728 13.4025 11.6002 13.1304 12.0862 12.9499C12.2667 12.8694 12.4639 12.7333 12.6805 12.5334L13.458 11.753C13.708 11.5031 14.1301 11.4892 14.4078 11.7669L16.8682 13.9024C16.9709 14.0107 17.0126 14.1912 16.9876 14.4023H16.9931Z" stroke="#999999" stroke-miterlimit="10"/>
</svg>
