<svg xmlns="http://www.w3.org/2000/svg" width="45" height="20" viewBox="0 0 45 20"><g transform="translate(-230 -925)"><g transform="translate(-361 128)"><rect width="20" height="20" transform="translate(591 797)" fill="#fff"/><g transform="translate(588 795)"><path d="M19.01,2H6.947A2.851,2.851,0,0,0,4,4.738V20.382a1.6,1.6,0,0,0,1.056,1.474A1.791,1.791,0,0,0,6.894,21.6l5.651-4.538a.789.789,0,0,1,.908,0L19.105,21.6a1.815,1.815,0,0,0,1.838.258A1.6,1.6,0,0,0,22,20.382V4.738A2.583,2.583,0,0,0,21.135,2.8,3.151,3.151,0,0,0,19.01,2ZM20.9,20.382a.639.639,0,0,1-.412.6.7.7,0,0,1-.708-.1L14.13,16.361a1.928,1.928,0,0,0-2.3,0L6.176,20.889a.7.7,0,0,1-.708.1.639.639,0,0,1-.412-.6V4.738A1.841,1.841,0,0,1,6.947,2.957H19.01A1.841,1.841,0,0,1,20.9,4.738Z" transform="translate(0 0)" fill="#999"/></g></g><g transform="translate(-336 128)"><rect width="20" height="20" transform="translate(591 797)" fill="#fff"/><g transform="translate(588 795)"><path d="M19.01,2H6.947A2.851,2.851,0,0,0,4,4.738V20.382a1.6,1.6,0,0,0,1.056,1.474A1.791,1.791,0,0,0,6.894,21.6l5.651-4.538a.789.789,0,0,1,.908,0L19.105,21.6a1.815,1.815,0,0,0,1.838.258A1.6,1.6,0,0,0,22,20.382V4.738A2.583,2.583,0,0,0,21.135,2.8,3.151,3.151,0,0,0,19.01,2Z" transform="translate(0 0)" fill="#ffd84e"/></g></g></g></svg>