<svg xmlns="http://www.w3.org/2000/svg" width="20" height="20" viewBox="0 0 20 20">
  <g id="그룹_5641" data-name="그룹 5641" transform="translate(-910 -748)">
    <rect id="사각형_1501" data-name="사각형 1501" width="14.165" height="12.548" transform="translate(912.917 751.603)" fill="#fff"/>
    <rect id="사각형_1502" data-name="사각형 1502" width="14.169" height="13" rx="1" transform="translate(912.916 751.603)" fill="none" stroke="#a5a5a5" stroke-linecap="round" stroke-linejoin="round" stroke-width="1"/>
    <rect id="사각형_1503" data-name="사각형 1503" width="15" height="12.562" transform="translate(912.5 750.006)" fill="none"/>
    <path id="패스_3677" data-name="패스 3677" d="M5.779,0V0Z" transform="translate(909.924 750.006)" fill="#fff"/>
    <line id="선_396" data-name="선 396" y2="2.5" transform="translate(916.702 750.5)" fill="none" stroke="#a5a5a5" stroke-linecap="round" stroke-linejoin="bevel" stroke-width="1.25"/>
    <rect id="사각형_1504" data-name="사각형 1504" width="15" height="12.562" transform="translate(912.5 750.006)" fill="none"/>
    <path id="패스_3678" data-name="패스 3678" d="M10.948,0V0Z" transform="translate(907.619 750.006)" fill="#fff"/>
    <rect id="사각형_1505" data-name="사각형 1505" width="15" height="12.562" transform="translate(912.5 750.006)" fill="none"/>
    <path id="패스_3679" data-name="패스 3679" d="M16.117,0V0Z" transform="translate(905.315 750.006)" fill="#fff"/>
    <rect id="사각형_1506" data-name="사각형 1506" width="15" height="12.562" transform="translate(912.5 750.006)" fill="none"/>
    <path id="패스_3680" data-name="패스 3680" d="M21.287,0V0Z" transform="translate(903.011 750.006)" fill="#fff"/>
    <line id="선_399" data-name="선 399" y2="2.5" transform="translate(923.298 750.5)" fill="none" stroke="#a5a5a5" stroke-linecap="round" stroke-linejoin="bevel" stroke-width="1.25"/>
    <rect id="사각형_1507" data-name="사각형 1507" width="15" height="12.562" transform="translate(912.5 750.006)" fill="none"/>
    <path id="패스_3681" data-name="패스 3681" d="M5.779,10.8h0Z" transform="translate(909.922 745.218)" fill="#fff"/>
    <line id="선_400" data-name="선 400" x2="2" transform="translate(915.09 758.103)" fill="none" stroke="#a5a5a5" stroke-linejoin="bevel" stroke-width="1.5"/>
    <path id="패스_3682" data-name="패스 3682" d="M12.2,10.8h0Z" transform="translate(907.057 745.218)" fill="#fff"/>
    <line id="선_401" data-name="선 401" x2="2" transform="translate(919.09 758.103)" fill="none" stroke="#a5a5a5" stroke-linejoin="bevel" stroke-width="1.5"/>
    <path id="패스_3683" data-name="패스 3683" d="M18.63,10.8h0Z" transform="translate(904.19 745.218)" fill="#fff"/>
    <line id="선_402" data-name="선 402" x2="2" transform="translate(922.91 758.103)" fill="none" stroke="#a5a5a5" stroke-linejoin="bevel" stroke-width="1.5"/>
    <path id="패스_3684" data-name="패스 3684" d="M5.779,16.038h0Z" transform="translate(909.922 742.895)" fill="#fff"/>
    <line id="선_403" data-name="선 403" x2="2" transform="translate(915.09 761.02)" fill="none" stroke="#a5a5a5" stroke-linejoin="bevel" stroke-width="1.5"/>
    <path id="패스_3685" data-name="패스 3685" d="M12.2,16.038h0Z" transform="translate(907.057 742.895)" fill="#fff"/>
    <line id="선_404" data-name="선 404" x2="2" transform="translate(919.09 761.02)" fill="none" stroke="#a5a5a5" stroke-linejoin="bevel" stroke-width="1.5"/>
    <path id="패스_3686" data-name="패스 3686" d="M18.63,16.038h0Z" transform="translate(904.19 742.895)" fill="#fff"/>
    <line id="선_405" data-name="선 405" x2="2" transform="translate(922.91 761.02)" fill="none" stroke="#a5a5a5" stroke-linejoin="bevel" stroke-width="1.5"/>
    <rect id="사각형_1217" data-name="사각형 1217" width="20" height="20" transform="translate(910 748)" fill="none"/>
    <line id="선_406" data-name="선 406" x2="15" transform="translate(912.5 754.5)" fill="none" stroke="#a5a5a5" stroke-width="1"/>
  </g>
</svg>
