<svg xmlns="http://www.w3.org/2000/svg" xmlns:xlink="http://www.w3.org/1999/xlink" width="23.997" height="23.997" viewBox="0 0 23.997 23.997"><defs><clipPath id="a"><path d="M9.174,0A9.35,9.35,0,0,0,4.6,1.2,8.917,8.917,0,0,0,0,8.959v.006a8.74,8.74,0,0,0,1.234,4.478A9.336,9.336,0,0,0,13.8,16.723,8.834,8.834,0,0,0,17.17,4.482,9.245,9.245,0,0,0,9.214,0Z" transform="translate(0)" fill="#ffb59d"/></clipPath><clipPath id="b"><path d="M42.3,62.068l-1.436,3.357-.294-5.27,16.235-6.071Z" transform="translate(-40.571 -54.084)" fill="#ff7d53"/></clipPath></defs><g transform="translate(0 1.36)"><g transform="translate(5.592 1.36)" clip-path="url(#a)"><path d="M0,0,26.751.3l.3,26.4L.3,26.4Z" transform="translate(-8.536 4.8) rotate(-30.001)" fill="#ffb59d"/></g><path d="M151.656,126.76l1.448-2.783,1.161,1.073-2.763,1.966Z" transform="translate(-147.876 -109.636)" fill="#fff"/><path d="M54.549,54.084,46.508,68.519l-5.937-6.451Z" transform="translate(-35.418 -48.14)" fill="#fff"/><path d="M59.754,54.084l-19.182,2.81,2.948,3.26Z" transform="translate(-40.096 -47.862)" fill="#fff"/><rect width="23.949" height="20.855" fill="none"/><g transform="translate(0 5.469)"><path d="M43.207,65.47a.5.5,0,0,0,.057,0,.475.475,0,0,0,.355-.234L51.963,50.8a.475.475,0,0,0-.64-.654l-14.5,7.984a.475.475,0,0,0-.115.744l6.161,6.451a.475.475,0,0,0,.344.147M50.286,51.8l-7.173,12.41-5.3-5.546Z" transform="translate(-31.894 -50.084)" fill="#515151"/><path d="M39.994,57.105a.474.474,0,0,0,.166-.03L56.395,51a.475.475,0,0,0-.235-.915L36.977,52.9a.475.475,0,0,0-.283.789l2.948,3.26a.475.475,0,0,0,.353.156m11.893-5.429-11.757,4.4-2.134-2.361Z" transform="translate(-36.571 -50.084)" fill="#515151"/><g transform="translate(3.423 0.475)" clip-path="url(#b)"><rect width="16.235" height="11.341" transform="translate(0)" fill="#ff7d53"/></g><path d="M37.341,62.375a.475.475,0,0,0,.437-.288l1.371-3.206L53.51,50.975a.475.475,0,0,0-.4-.861L36.88,56.184a.475.475,0,0,0-.308.471l.294,5.27a.476.476,0,0,0,.475.449m9.994-9.086-8.788,4.837a.476.476,0,0,0-.208.23L37.7,59.847l-.162-2.895Z" transform="translate(-33.624 -50.084)" fill="#515151"/><path d="M147.978,131.925a.473.473,0,0,0,.275-.088l2.763-1.966a.475.475,0,0,0-.551-.774l-2.763,1.966a.475.475,0,0,0,.276.862" transform="translate(-144.261 -119.634)" fill="#515151"/></g></g><rect width="23.949" height="23.997" transform="translate(0)" fill="none"/></svg>