<svg xmlns="http://www.w3.org/2000/svg" xmlns:xlink="http://www.w3.org/1999/xlink" width="858" height="24" viewBox="0 0 858 24"><defs><clipPath id="a"><rect width="20" height="20" transform="translate(1044 677)" fill="#fff" stroke="#707070" stroke-width="1"/></clipPath><clipPath id="b"><rect width="20" height="20" fill="#fff" stroke="#707070" stroke-width="1"/></clipPath><clipPath id="e"><rect width="20" height="20" transform="translate(1044 677)" fill="#ff460a" stroke="#707070" stroke-width="1"/></clipPath><clipPath id="f"><rect width="20" height="20" fill="#ff460a" stroke="#707070" stroke-width="1"/></clipPath><clipPath id="h"><rect width="20" height="20" fill="none" stroke="#ff460a" stroke-width="1"/></clipPath></defs><g transform="translate(-70 -797)"><g transform="translate(-974 122)" clip-path="url(#a)"><path d="M-23891.1-17647l4.5,4.5,4.5-4.5" transform="translate(18698.75 -23199.623) rotate(-90)" fill="none" stroke="#999" stroke-linecap="round" stroke-linejoin="round" stroke-width="1"/></g><g transform="translate(100 799)" clip-path="url(#b)"><path d="M0,4.5,4.5,0,9,4.5" transform="translate(7.75 14.5) rotate(-90)" fill="none" stroke="#999" stroke-linecap="round" stroke-linejoin="round" stroke-width="1"/></g><g transform="translate(150 799) rotate(90)" clip-path="url(#b)"><path d="M0,0,4.5,4.5,9,0" transform="translate(7.75 14.5) rotate(-90)" fill="none" stroke="#999" stroke-linecap="round" stroke-linejoin="round" stroke-width="1"/></g><g transform="translate(160 819) rotate(-90)" clip-path="url(#b)"><path d="M0,4.5,4.5,0,9,4.5" transform="translate(12.25 5.5) rotate(90)" fill="none" stroke="#999" stroke-linecap="round" stroke-linejoin="round" stroke-width="1"/></g><g transform="translate(125 2456) rotate(-90)"><path d="M7.1,8.778a1,1,0,0,1-.736-.292L.707,2.829A1,1,0,0,1,2.121,1.414L7.1,6.393l4.978-4.979a1,1,0,1,1,1.415,1.415L7.835,8.485a1,1,0,0,1-.707.293Z" transform="translate(1639.886 92.279)" fill="#a9a9a9"/><rect width="24" height="24" transform="translate(1635 85)" fill="none"/></g><g transform="translate(244 821) rotate(-90)"><path d="M11.664,7.364,6.686,2.385,1.707,7.364A1,1,0,1,1,.293,5.95L5.95.293a1.072,1.072,0,0,1,1.471,0L13.078,5.95a1,1,0,1,1-1.414,1.414Z" transform="translate(5.3 7.943)" fill="#a9a9a9"/><rect width="24" height="24" fill="none"/></g><g transform="translate(302 821) rotate(180)"><path d="M11.664,7.364,6.686,2.385,1.707,7.364A1,1,0,1,1,.293,5.95L5.95.293a1.072,1.072,0,0,1,1.471,0L13.078,5.95a1,1,0,1,1-1.414,1.414Z" transform="translate(5.3 7.943)" fill="#a9a9a9"/><rect width="24" height="24" fill="none"/></g><g transform="translate(336 821) rotate(180)"><path d="M6.686,7.656a1,1,0,0,1-.736-.292L.293,1.707A1,1,0,1,1,1.707.293L6.686,5.272,11.664.293a1,1,0,1,1,1.415,1.415L7.421,7.364a1,1,0,0,1-.707.293Z" transform="translate(5.3 8.4)" fill="#a9a9a9"/><rect width="24" height="24" fill="none"/></g><g transform="translate(-553 1147) rotate(-90)"><path d="M1424.84,5992.03l-6.8-6.825a1,1,0,1,1,1.417-1.411l5.383,5.4.442-.443,4.963-4.963a1,1,0,0,1,1.414,1.414Z" transform="translate(-1086.746 -5056.495)" fill="#666"/><rect width="24" height="24" transform="translate(326 943) rotate(-90)" fill="none"/></g><g transform="translate(1343 471) rotate(90)"><path d="M1424.84,5992.03l-6.8-6.825a1,1,0,1,1,1.417-1.411l5.383,5.4.442-.443,4.963-4.963a1,1,0,0,1,1.414,1.414Z" transform="translate(-1086.746 -5056.495)" fill="#666"/><rect width="24" height="24" transform="translate(326 943) rotate(-90)" fill="none"/></g><g transform="translate(108 -122)"><path d="M1424.84,5992.03l-6.8-6.825a1,1,0,1,1,1.417-1.411l5.383,5.4.442-.443,4.963-4.963a1,1,0,0,1,1.414,1.414Z" transform="translate(-1086.746 -5056.495)" fill="#666"/><rect width="24" height="24" transform="translate(326 943) rotate(-90)" fill="none"/></g><g transform="translate(468 797)"><path d="M1424.84,5983.5l-6.8,6.825a1,1,0,1,0,1.417,1.411l5.383-5.4.442.443,4.963,4.963a1,1,0,0,0,1.414-1.414Z" transform="translate(-1412.746 -5976.03)" fill="#666"/><rect width="24" height="24" transform="translate(24) rotate(90)" fill="none"/></g><g transform="translate(-522 122)" clip-path="url(#e)"><path d="M-23891.1-17647l4.5,4.5,4.5-4.5" transform="translate(18698.75 -23199.623) rotate(-90)" fill="none" stroke="#ff460a" stroke-linecap="round" stroke-linejoin="round" stroke-width="1"/></g><g transform="translate(552 799)" clip-path="url(#f)"><path d="M0,4.5,4.5,0,9,4.5" transform="translate(7.75 14.5) rotate(-90)" fill="none" stroke="#ff460a" stroke-linecap="round" stroke-linejoin="round" stroke-width="1"/></g><g transform="translate(602 799) rotate(90)" clip-path="url(#f)"><path d="M0,0,4.5,4.5,9,0" transform="translate(7.75 14.5) rotate(-90)" fill="none" stroke="#ff460a" stroke-linecap="round" stroke-linejoin="round" stroke-width="1"/></g><g transform="translate(612 819) rotate(-90)" clip-path="url(#h)"><path d="M0,4.5,4.5,0,9,4.5" transform="translate(12.25 5.5) rotate(90)" fill="none" stroke="#ff460a" stroke-linecap="round" stroke-linejoin="round" stroke-width="1"/></g><g transform="translate(577 2456) rotate(-90)"><path d="M7.1,8.778a1,1,0,0,1-.736-.292L.707,2.829A1,1,0,0,1,2.121,1.414L7.1,6.393l4.978-4.979a1,1,0,1,1,1.415,1.415L7.835,8.485a1,1,0,0,1-.707.293Z" transform="translate(1639.886 92.279)" fill="#ff460a"/><rect width="24" height="24" transform="translate(1635 85)" fill="none"/></g><g transform="translate(696 821) rotate(-90)"><path d="M11.664,7.364,6.686,2.385,1.707,7.364A1,1,0,1,1,.293,5.95L5.95.293a1.072,1.072,0,0,1,1.471,0L13.078,5.95a1,1,0,1,1-1.414,1.414Z" transform="translate(5.3 7.943)" fill="#ff460a"/><rect width="24" height="24" fill="none"/></g><g transform="translate(754 821) rotate(180)"><path d="M11.664,7.364,6.686,2.385,1.707,7.364A1,1,0,1,1,.293,5.95L5.95.293a1.072,1.072,0,0,1,1.471,0L13.078,5.95a1,1,0,1,1-1.414,1.414Z" transform="translate(5.3 7.943)" fill="#ff460a"/><rect width="24" height="24" fill="none"/></g><g transform="translate(788 821) rotate(180)"><path d="M6.686,7.656a1,1,0,0,1-.736-.292L.293,1.707A1,1,0,1,1,1.707.293L6.686,5.272,11.664.293a1,1,0,1,1,1.415,1.415L7.421,7.364a1,1,0,0,1-.707.293Z" transform="translate(5.3 8.4)" fill="#ff460a"/><rect width="24" height="24" fill="none"/></g><g transform="translate(-226 122)" clip-path="url(#a)"><path d="M-23891.1-17647l4.5,4.5,4.5-4.5" transform="translate(18698.75 -23199.623) rotate(-90)" fill="none" stroke="#121212" stroke-linecap="round" stroke-linejoin="round" stroke-width="1"/></g><g transform="translate(848 799)" clip-path="url(#b)"><path d="M0,4.5,4.5,0,9,4.5" transform="translate(7.75 14.5) rotate(-90)" fill="none" stroke="#121212" stroke-linecap="round" stroke-linejoin="round" stroke-width="1"/></g><g transform="translate(898 799) rotate(90)" clip-path="url(#b)"><path d="M0,0,4.5,4.5,9,0" transform="translate(7.75 14.5) rotate(-90)" fill="none" stroke="#121212" stroke-linecap="round" stroke-linejoin="round" stroke-width="1"/></g><g transform="translate(908 819) rotate(-90)" clip-path="url(#b)"><path d="M0,4.5,4.5,0,9,4.5" transform="translate(12.25 5.5) rotate(90)" fill="none" stroke="#121212" stroke-linecap="round" stroke-linejoin="round" stroke-width="1"/></g></g></svg>