<svg xmlns="http://www.w3.org/2000/svg" width="17.4" height="13.4" viewBox="0 0 17.4 13.4"><g transform="translate(0.7 0.7)"><path d="M17,1H1L9,7Z" transform="translate(-1 -1)" fill="#fff"/><path d="M1,.5H17a.5.5,0,0,1,.3.9l-8,6a.5.5,0,0,1-.6,0l-8-6A.5.5,0,0,1,1,.5Zm14.5,1H2.5L9,6.375Z" transform="translate(-1 -1)" fill="#666"/><path d="M1,.5a.5.5,0,0,0-.3.9l8,6a.5.5,0,0,0,.6,0l8-6A.5.5,0,0,0,17,.5H1M9,6.375,2.5,1.5h13L9,6.375M1,.3H17a.7.7,0,0,1,.42,1.26l-8,6a.7.7,0,0,1-.84,0l-8-6A.7.7,0,0,1,1,.3ZM14.9,1.7H3.1L9,6.125Z" transform="translate(-1 -1)" fill="#666"/><path d="M0-.5H16a.5.5,0,0,1,.5.5V12a.5.5,0,0,1-.5.5H0A.5.5,0,0,1-.5,12V0A.5.5,0,0,1,0-.5ZM15.5.5H.5v11h15Z" fill="#666"/><path d="M0-.5A.5.5,0,0,0-.5,0V12a.5.5,0,0,0,.5.5H16a.5.5,0,0,0,.5-.5V0A.5.5,0,0,0,16-.5H0m15.5,12H.5V.5h15v11M0-.7H16a.7.7,0,0,1,.7.7V12a.7.7,0,0,1-.7.7H0A.7.7,0,0,1-.7,12V0A.7.7,0,0,1,0-.7ZM15.3.7H.7V11.3H15.3Z" fill="#666"/></g></svg>