<svg width="22" height="21" viewBox="0 0 22 21" fill="none" xmlns="http://www.w3.org/2000/svg">
<g clip-path="url(#clip0_72_286)">
<path d="M18.2 2.51953H3.7999C2.91627 2.51953 2.19995 3.20329 2.19995 4.04676V17.2831C2.19995 18.1265 2.91627 18.8103 3.7999 18.8103H18.2C19.0836 18.8103 19.8 18.1265 19.8 17.2831V4.04676C19.8 3.20329 19.0836 2.51953 18.2 2.51953Z" fill="#E5E9EE"/>
<path d="M6.05005 10.2129C6.05005 9.97506 6.1782 9.75351 6.38995 9.62751L8.0449 8.63946C8.21375 8.53866 8.409 8.48511 8.6081 8.48511C9.1944 8.48511 9.67015 8.93871 9.67015 9.49888V15.3547C9.67015 15.8162 9.278 16.1905 8.79455 16.1905C8.3111 16.1905 7.91895 15.8162 7.91895 15.3547V10.3504L7.15445 10.8009C6.67265 11.0849 6.05115 10.7542 6.05115 10.2134L6.05005 10.2129Z" fill="#EF4452"/>
<path d="M10.5793 9.26469C10.5793 8.89036 10.8972 8.58691 11.2894 8.58691H15.3115C15.6641 8.58691 15.9501 8.85991 15.9501 9.19644C15.9501 9.58809 15.8659 9.97501 15.702 10.3341L13.2688 15.6776C13.1269 15.9889 12.8052 16.1905 12.4493 16.1905C11.8014 16.1905 11.3691 15.5537 11.6331 14.9893L13.9965 9.94299H11.2899C10.8978 9.94299 10.5799 9.63954 10.5799 9.26521L10.5793 9.26469Z" fill="#EF4452"/>
<path d="M3.7999 2.51953H18.2C19.0833 2.51953 19.8 3.20413 19.8 4.04676V6.50691H2.19995V4.04676C2.19995 3.20361 2.91715 2.51953 3.7999 2.51953Z" fill="#FDAEB3"/>
<path d="M5.6666 3.79203C5.2981 3.79203 5 3.50748 5 3.15573V1.88313C5 1.53138 5.2981 1.24683 5.6666 1.24683C6.0351 1.24683 6.3332 1.53138 6.3332 1.88313V3.15573C6.3332 3.50748 6.0351 3.79203 5.6666 3.79203Z" fill="#4B596A"/>
<path d="M9.22226 3.79203C8.85376 3.79203 8.55566 3.50748 8.55566 3.15573V1.88313C8.55566 1.53138 8.85376 1.24683 9.22226 1.24683C9.59076 1.24683 9.88886 1.53138 9.88886 1.88313V3.15573C9.88886 3.50748 9.59076 3.79203 9.22226 3.79203Z" fill="#4B596A"/>
<path d="M12.7774 3.79203C12.4089 3.79203 12.1108 3.50748 12.1108 3.15573V1.88313C12.1108 1.53138 12.4089 1.24683 12.7774 1.24683C13.1459 1.24683 13.444 1.53138 13.444 1.88313V3.15573C13.444 3.50748 13.1459 3.79203 12.7774 3.79203Z" fill="#4B596A"/>
<path d="M16.3333 3.79203C15.9648 3.79203 15.6667 3.50748 15.6667 3.15573V1.88313C15.6667 1.53138 15.9648 1.24683 16.3333 1.24683C16.7018 1.24683 16.9999 1.53138 16.9999 1.88313V3.15573C16.9999 3.50748 16.7018 3.79203 16.3333 3.79203Z" fill="#4B596A"/>
</g>
<defs>
<clipPath id="clip0_72_286">
<rect width="22" height="21" fill="white"/>
</clipPath>
</defs>
</svg>
