<svg xmlns="http://www.w3.org/2000/svg" width="40" height="40" viewBox="0 0 40 40"><g transform="translate(0 -0.309)"><circle cx="20" cy="20" r="20" transform="translate(0 0.309)" fill="#1d9bf0"/><path d="M22.862,6.42c.015.215.015.429.015.646A14.121,14.121,0,0,1,8.659,21.283v0A14.145,14.145,0,0,1,1,19.039a10.164,10.164,0,0,0,1.189.072A10.033,10.033,0,0,0,8.4,16.968,5,5,0,0,1,3.727,13.5a4.981,4.981,0,0,0,2.256-.086,5,5,0,0,1-4.008-4.9V8.451a4.965,4.965,0,0,0,2.268.625A5,5,0,0,1,2.7,2.4a14.182,14.182,0,0,0,10.3,5.22,5,5,0,0,1,8.515-4.557,10.027,10.027,0,0,0,3.173-1.213,5.015,5.015,0,0,1-2.2,2.764,9.937,9.937,0,0,0,2.869-.787A10.151,10.151,0,0,1,22.862,6.42Z" transform="translate(6.752 9.39)" fill="#fff"/></g></svg>