<svg xmlns="http://www.w3.org/2000/svg" xmlns:xlink="http://www.w3.org/1999/xlink" width="40" height="40" viewBox="0 0 40 40"><defs><style>.a{fill:none;}.b{fill:#fff;stroke:#e1e1e1;}.c{clip-path:url(#a);}.d{fill:#3e82f1;}.d,.e,.f,.g{fill-rule:evenodd;}.e{fill:#32a753;}.f{fill:#f9bb00;}.g{fill:#e74133;}.h{stroke:none;}</style><clipPath id="a"><rect class="a" width="19.048" height="19.436"/></clipPath></defs><g transform="translate(-801 -771)"><g transform="translate(606 383)"><g class="b" transform="translate(195 388)"><circle class="h" cx="20" cy="20" r="20"/><circle class="a" cx="20" cy="20" r="19.5"/></g><g transform="translate(205.476 398.476)"><g class="c"><path class="d" d="M115.478,88.838a11.16,11.16,0,0,0-.177-1.988h-9.153v3.759h5.23a4.471,4.471,0,0,1-1.939,2.933v2.438h3.141a9.478,9.478,0,0,0,2.9-7.143" transform="translate(-96.431 -78.899)"/><path class="e" d="M19.975,134.189a9.278,9.278,0,0,0,6.432-2.354L23.265,129.4a5.863,5.863,0,0,1-8.729-3.079H11.29v2.518a9.715,9.715,0,0,0,8.685,5.354" transform="translate(-10.256 -114.752)"/><path class="f" d="M4.28,64.69A5.746,5.746,0,0,1,4.28,61V58.479H1.034a9.73,9.73,0,0,0,0,8.729Z" transform="translate(0 -53.125)"/><path class="g" d="M19.975,3.866A5.25,5.25,0,0,1,23.69,5.319l2.787-2.787A9.339,9.339,0,0,0,19.975,0,9.715,9.715,0,0,0,11.29,5.355l3.247,2.518a5.792,5.792,0,0,1,5.438-4.007" transform="translate(-10.256 -0.001)"/></g></g></g></g></svg>