<svg xmlns="http://www.w3.org/2000/svg" width="20" height="20" viewBox="0 0 20 20"><g transform="translate(0 -0.309)"><circle cx="10" cy="10" r="10" transform="translate(0 0.309)" fill="#1d9bf0"/><path d="M11.9,3.948c.007.107.007.214.007.322a7.038,7.038,0,0,1-7.086,7.086v0A7.05,7.05,0,0,1,1,10.237a5.066,5.066,0,0,0,.593.036A5,5,0,0,0,4.686,9.205,2.493,2.493,0,0,1,2.359,7.476a2.482,2.482,0,0,0,1.124-.043,2.49,2.49,0,0,1-2-2.441V4.961a2.474,2.474,0,0,0,1.13.312,2.493,2.493,0,0,1-.771-3.325,7.068,7.068,0,0,0,5.132,2.6,2.493,2.493,0,0,1,4.244-2.271,5,5,0,0,0,1.581-.6A2.5,2.5,0,0,1,11.708,3.05a4.952,4.952,0,0,0,1.43-.392A5.059,5.059,0,0,1,11.9,3.948Z" transform="translate(2.863 4.086)" fill="#fff"/></g></svg>