<svg xmlns="http://www.w3.org/2000/svg" xmlns:xlink="http://www.w3.org/1999/xlink" width="20" height="20" viewBox="0 0 20 20"><defs><clipPath id="a"><path d="M0,9.925c0,4.929,4.349,8.925,9.713,8.925s9.713-4,9.713-8.925S15.078,1,9.713,1,0,5,0,9.925" transform="translate(0 -1)" fill="none"/></clipPath></defs><g transform="translate(0.001 0.245)"><circle cx="10" cy="10" r="10" transform="translate(-0.001 -0.245)" fill="#1977f3"/><g transform="translate(0 1.905)"><g clip-path="url(#a)"><path d="M42.884,41.882H45.97V35.508h2.478l.4-2.518s.057-.032-.228-.032H45.97V30.619s.14-.849,1.356-.849h1.449l-.023-2.218a8.4,8.4,0,0,0-3.261-.139,3.265,3.265,0,0,0-2.045,1.126,2.041,2.041,0,0,0-.561,1.39v3.029H40.5v2.55h2.384Z" transform="translate(-34.819 -23.969)" fill="#fff"/></g></g></g></svg>