<svg xmlns="http://www.w3.org/2000/svg" xmlns:xlink="http://www.w3.org/1999/xlink" width="39.999" height="40.004" viewBox="0 0 39.999 40.004"><defs><clipPath id="a"><path d="M0,19.926C0,30.379,8.826,38.852,19.713,38.852s19.713-8.474,19.713-18.926S30.6,1,19.713,1,0,9.474,0,19.926" transform="translate(0 -1)" fill="none"/></clipPath></defs><g transform="translate(0 0.247)"><circle cx="19.999" cy="19.999" r="19.999" transform="translate(0 -0.247)" fill="#1977f3"/><g transform="translate(0 1.905)"><g clip-path="url(#a)"><path d="M45.339,58.2H51.6V44.677h5.03l.808-5.34s.115-.067-.462-.067H51.6V34.31s.285-1.8,2.752-1.8H57.3l-.047-4.7a16.347,16.347,0,0,0-6.619-.295A6.524,6.524,0,0,0,46.478,29.9a4.411,4.411,0,0,0-1.139,2.947v6.423H40.5v5.407h4.839Z" transform="translate(-28.971 -20.208)" fill="#fff"/></g></g></g></svg>