<svg xmlns="http://www.w3.org/2000/svg" xmlns:xlink="http://www.w3.org/1999/xlink" width="20" height="20" viewBox="0 0 20 20"><defs><clipPath id="a"><rect width="11.413" height="11.646" fill="none"/></clipPath></defs><g transform="translate(-70 -1718)"><circle cx="10" cy="10" r="10" transform="translate(70 1718)" fill="#fff"/><path d="M10,1a9,9,0,1,0,9,9,9.01,9.01,0,0,0-9-9m0-1A10,10,0,1,1,0,10,10,10,0,0,1,10,0Z" transform="translate(70 1718)" fill="#ccc"/><g transform="translate(74.226 1722.441)" clip-path="url(#a)"><path d="M111.739,88.041a6.689,6.689,0,0,0-.106-1.191h-5.484V89.1h3.134a2.679,2.679,0,0,1-1.162,1.758v1.461H110a5.679,5.679,0,0,0,1.736-4.28" transform="translate(-100.326 -82.086)" fill="#3e82f1" fill-rule="evenodd"/><path d="M16.494,131.034a5.559,5.559,0,0,0,3.854-1.411l-1.882-1.461a3.513,3.513,0,0,1-5.23-1.845H11.29v1.509a5.821,5.821,0,0,0,5.2,3.208" transform="translate(-10.671 -119.388)" fill="#32a753" fill-rule="evenodd"/><path d="M2.565,62.2a3.443,3.443,0,0,1,0-2.213V58.479H.619a5.83,5.83,0,0,0,0,5.23Z" transform="translate(0 -55.271)" fill="#f9bb00" fill-rule="evenodd"/><path d="M16.494,2.317a3.146,3.146,0,0,1,2.226.871l1.67-1.67A5.6,5.6,0,0,0,16.494,0a5.821,5.821,0,0,0-5.2,3.208l1.945,1.509a3.47,3.47,0,0,1,3.258-2.4" transform="translate(-10.671 -0.001)" fill="#e74133" fill-rule="evenodd"/></g></g></svg>