<svg xmlns="http://www.w3.org/2000/svg" width="20" height="20" viewBox="0 0 20 20"><g transform="translate(0)"><circle cx="10" cy="10" r="10" transform="translate(0 0)" fill="#df1920"/><g transform="translate(6.663 5.52)"><path d="M472.45,892.14a1.1,1.1,0,0,1,1.113-1.113h3.022c2.415,0,3.875,1.431,3.875,3.5v.029c0,2.342-1.822,3.557-4.092,3.557h-1.691v2.1a1.113,1.113,0,0,1-2.227,0Zm3.991,3.991a1.567,1.567,0,0,0,1.764-1.532v-.029c0-1-.694-1.532-1.808-1.532h-1.721v3.094Z" transform="translate(-472.45 -891.027)" fill="#fff"/></g></g></svg>