<svg xmlns="http://www.w3.org/2000/svg" xmlns:xlink="http://www.w3.org/1999/xlink" width="20" height="20" viewBox="0 0 20 20"><defs><clipPath id="a"><rect width="9.442" height="11.605" fill="#fff"/></clipPath></defs><g transform="translate(-70.001 -1823.999)"><circle cx="10" cy="10" r="10" transform="translate(70.001 1823.999)" fill="#121212"/><g transform="translate(75.211 1827.529)"><g transform="translate(0 0)" clip-path="url(#a)"><path d="M42.527,1.86a2.612,2.612,0,0,0,.6-1.86,2.578,2.578,0,0,0-1.715.888A2.437,2.437,0,0,0,40.8,2.677a2.163,2.163,0,0,0,1.73-.816" transform="translate(-36.1 0)" fill="#fff"/><path d="M7.019,24.389c-.955-.056-1.767.542-2.224.542s-1.156-.512-1.911-.5a2.819,2.819,0,0,0-2.4,1.454c-1.027,1.77-.271,4.394.728,5.834.485.713,1.07,1.5,1.838,1.47.728-.028,1.013-.472,1.9-.472s1.14.472,1.911.459c.8-.015,1.3-.713,1.783-1.427a6.358,6.358,0,0,0,.8-1.641,2.593,2.593,0,0,1-1.554-2.354,2.643,2.643,0,0,1,1.255-2.21,2.731,2.731,0,0,0-2.124-1.155" transform="translate(0 -21.586)" fill="#fff"/></g></g></g></svg>