<svg xmlns="http://www.w3.org/2000/svg" xmlns:xlink="http://www.w3.org/1999/xlink" width="40" height="40" viewBox="0 0 40 40"><defs><style>.a{fill:none;}.b{fill:#fa2828;}.c{clip-path:url(#a);}.d{fill:#fff;}</style><clipPath id="a"><rect class="a" width="12.687" height="16.306" transform="translate(0 0)"/></clipPath></defs><g transform="translate(-621 -771)"><g transform="translate(597 383)"><circle class="b" cx="20" cy="20" r="20" transform="translate(24 388)"/><g transform="translate(38.656 399.847)"><g class="c"><path class="d" d="M0,1.763A1.749,1.749,0,0,1,1.763,0H6.55c3.825,0,6.137,2.267,6.137,5.542v.046c0,3.71-2.885,5.634-6.481,5.634H3.527v3.321a1.75,1.75,0,0,1-1.764,1.763A1.749,1.749,0,0,1,0,14.543ZM6.321,8.084c1.763,0,2.794-1.053,2.794-2.427V5.611c0-1.58-1.1-2.427-2.863-2.427H3.527v4.9Z"/></g></g></g></g></svg>