<svg xmlns="http://www.w3.org/2000/svg" width="10.005" height="10.002" viewBox="0 0 10.005 10.002"><path d="M6036.192,13703.784l-3.191-3.152-3.191,3.152a.76.76,0,0,1-1.063,0l-.525-.525a.726.726,0,0,1,0-1.045l3.262-3.215-3.262-3.215a.731.731,0,0,1,0-1.049l.525-.52a.76.76,0,0,1,1.063,0l3.191,3.15,3.191-3.15a.76.76,0,0,1,1.063,0l.525.52a.741.741,0,0,1,0,1.049l-3.262,3.215,3.262,3.215a.724.724,0,0,1,0,1.045l-.525.525a.76.76,0,0,1-1.063,0Z" transform="translate(-6027.999 -13693.999)" fill="#bbbbbc"/></svg>