<svg xmlns="http://www.w3.org/2000/svg" xmlns:xlink="http://www.w3.org/1999/xlink" width="255" height="256" viewBox="0 0 255 256"><defs><clipPath id="a"><circle cx="127.5" cy="127.5" r="127.5" transform="translate(473 593)" fill="#fff" stroke="#707070" stroke-width="1"/></clipPath><clipPath id="b"><rect width="189.367" height="262.638" fill="none"/></clipPath><clipPath id="d"><rect width="12.785" height="13.948" fill="none"/></clipPath><clipPath id="f"><rect width="17.451" height="15.68" fill="none"/></clipPath><clipPath id="g"><rect width="17.451" height="12.008" fill="none"/></clipPath></defs><g transform="translate(-842 -598)"><g transform="translate(9.218 20.145)"><g transform="translate(832.782 578.855)" fill="#fff" stroke="#707070" stroke-width="1"><circle cx="127.5" cy="127.5" r="127.5" stroke="none"/><circle cx="127.5" cy="127.5" r="127" fill="none"/></g></g><g transform="translate(369 5)" clip-path="url(#a)"><g transform="translate(525.079 650.688)"><g transform="translate(-12 -9)" clip-path="url(#b)"><g clip-path="url(#b)"><path d="M121.272,137.713c-3.417,2.769-6.225,6.919-8.274,13.121-.42,1.272-.889,2.675-1.393,4.172,8.528.424,19.444,5.068,25.828,23.618.926-4.607,2.759-7.437,5.1-9.213-3.184-19.719-13.255-28.12-21.259-31.7" transform="translate(19.225 23.722)" fill="#79371e"/><path d="M121.272,137.713c-3.417,2.769-6.225,6.919-8.274,13.121-.42,1.272-.889,2.675-1.393,4.172,8.528.424,19.444,5.068,25.828,23.618.926-4.607,2.759-7.437,5.1-9.213C139.348,149.692,129.277,141.291,121.272,137.713Z" transform="translate(19.225 23.722)" fill="none" stroke="#231815" stroke-linecap="round" stroke-linejoin="round" stroke-width="0.035"/><path d="M107.356,167.256c-2.155,6.235-4.192,12.081-5.5,15.821,8.747,1.49,20.945,6.888,27.88,24.458,3.065-3.035,5.353-7.426,6.839-13.533-6.375-18.476-19.333-24.752-29.221-26.746" transform="translate(17.546 28.811)" fill="#79371e"/><path d="M107.356,167.256c-2.155,6.235-4.192,12.081-5.5,15.821,8.747,1.49,20.945,6.888,27.88,24.458,3.065-3.035,5.353-7.426,6.839-13.533C130.2,175.526,117.244,169.25,107.356,167.256Z" transform="translate(17.546 28.811)" fill="none" stroke="#231815" stroke-linecap="round" stroke-linejoin="round" stroke-width="0.035"/><path d="M112.478,152.465c-1.733,5.151-3.885,11.42-5.929,17.339,9.887,1.994,22.845,8.27,29.22,26.746a79.038,79.038,0,0,0,1.923-15.1,34.989,34.989,0,0,1,.615-5.368c-6.384-18.55-17.3-23.193-25.828-23.618" transform="translate(18.354 26.264)" fill="#dc6e34"/><path d="M149.615,135.415a35.1,35.1,0,0,0-12.708-2.292c-1.445.03-2.857.095-4.232.206,7.681,6.736,16.165,17.838,15.738,33.821,2.776-.286,5.583-.38,8.089-.878.373-14.05-3.174-24.181-6.886-30.857" transform="translate(22.855 22.931)" fill="#79371e"/><path d="M149.615,135.415a35.1,35.1,0,0,0-12.708-2.292c-1.445.03-2.857.095-4.232.206,7.681,6.736,16.165,17.838,15.738,33.821,2.776-.286,5.583-.38,8.089-.878C156.874,152.223,153.327,142.091,149.615,135.415Z" transform="translate(22.855 22.931)" fill="none" stroke="#231815" stroke-linecap="round" stroke-linejoin="round" stroke-width="0.035"/><path d="M102.588,180.752c-.856,2.452-1.4,4-1.452,4.154,0,0-11.6,24.045,7.343,25.8,9.464.876,16.829-.387,21.988-5.494-6.934-17.57-19.132-22.967-27.879-24.457" transform="translate(16.816 31.136)" fill="#dc6e34"/><path d="M134.883,133.3c-5.744.467-10.845,1.783-15.031,5.176,8,3.578,18.075,11.979,21.259,31.7,2.7-2.055,6.083-2.7,9.511-3.051.427-15.983-8.057-27.085-15.739-33.821" transform="translate(20.646 22.962)" fill="#dc6e34"/><path d="M147.126,135.077c3.711,6.676,7.259,16.808,6.886,30.857,3.973-.79,7.186-2.6,8.308-7.8,2.554-11.836-5.734-19.51-15.194-23.062" transform="translate(25.344 23.268)" fill="#dc6e34"/><path d="M101.135,193.293c.24-.686,9.887-28.207,14.272-41.486,5.159-15.619,15.13-18.236,27.536-18.5s31.618,8.141,27.9,25.354S140.5,155.9,139.228,184.964s-11.808,35.877-30.75,34.126S101.135,193.293,101.135,193.293Z" transform="translate(16.816 22.962)" fill="none" stroke="#231815" stroke-linecap="round" stroke-linejoin="round" stroke-width="2.108"/><path d="M80.922,111.494s-34.17-3.875-35.579,78.555,35.228,33.114,37.164,29.238,9.512-10.392,15.677-.176,10.039,15.324,19.727,14.8,12.857-8.983,13.915-17.437,2.465-110.965-50.9-104.976" transform="translate(7.804 19.162)" fill="#e77032"/><path d="M109.811,179.312c-5.69-42.8-38.986-46.5-50.492-7.75-9.028,30.4-3.17,52.121-.225,60.075,9.775-.892,20.791-16.034,21.83-18.113,1.937-3.874,9.512-10.392,15.675-.176,5.581,9.247,9.284,14.309,17.123,14.793,1.008-13.711-1.556-31.087-3.912-48.829" transform="translate(9.387 24.926)" fill="#fff4ea"/><path d="M80.922,111.494s-34.17-3.875-35.579,78.555,35.228,33.114,37.164,29.238,9.512-10.392,15.677-.176,10.039,14.17,19.727,13.642,12.857-7.83,13.915-16.284S134.29,105.505,80.922,111.494Z" transform="translate(7.804 19.162)" fill="none" stroke="#231815" stroke-linecap="round" stroke-linejoin="round" stroke-width="2.108"/><path d="M59.016,127.618S40.033,133.925,41.7,156.246s-.735,30.991,10.312,31.308,8.664-6.183,7.866-11.156a84.724,84.724,0,0,1-1.335-23.062" transform="translate(7.165 21.983)" fill="#dc6e34"/><path d="M59.016,127.618S40.033,133.925,41.7,156.246s-.735,30.991,10.312,31.308,8.664-6.183,7.866-11.156a84.724,84.724,0,0,1-1.335-23.062" transform="translate(7.165 21.983)" fill="none" stroke="#231815" stroke-linecap="round" stroke-linejoin="round" stroke-width="2.108"/><path d="M51.041,93.239C55.8,109.884,67.61,145.6,85.226,159.44a2.828,2.828,0,0,0,.594.057,1.275,1.275,0,0,0,.074-.664c-3.3-1.093-9.847-12.848-13.62-21.955C64.034,117,54.091,87.244,52.136,81.365a55.267,55.267,0,0,0-.8,6.464c-.137,1.9-.3,5.41-.3,5.41" transform="translate(8.792 14.016)" fill="#171818"/><path d="M90.653,150.528H73.182a.941.941,0,0,0-.938.938v24.41a.941.941,0,0,0,.938.938H90.653a.941.941,0,0,0,.938-.938v-24.41a.941.941,0,0,0-.938-.938" transform="translate(12.445 25.93)" fill="#fff"/><rect width="15.072" height="0.675" transform="translate(86.827 194.008)" fill="#2463a0"/></g><g transform="translate(87.97 178.598)"><g clip-path="url(#d)"><rect width="12.785" height="13.948" fill="#98bede"/></g></g><g clip-path="url(#b)"><path d="M77.006,169.124c-.252.047-.509.079-.761.1v1.007h-.585v-.979c-.26.011-.505.011-.729.011l-.064-.465a17.343,17.343,0,0,0,2.1-.093Zm-2.057-.864c.513-.086.7-.317.719-.558h-.617v-.444h.62v-.3h.585v.3h.617v.444H76.26c.022.224.205.429.7.505l-.224.447a1.155,1.155,0,0,1-.761-.4,1.161,1.161,0,0,1-.795.46Zm2.769,2.073h-.585v-3.385h.585Z" transform="translate(12.897 28.758)" fill="#231815"/><path d="M80.536,166.95v1.823h-.585v-.646h-.462a.87.87,0,0,1-.873.6.825.825,0,1,1,0-1.642.874.874,0,0,1,.87.581h.465v-.712Zm-.578,1.956h.578V170.3H78.243v-1.393h.578v.264h1.137Zm-.993-1.007a.35.35,0,1,0-.349.342.319.319,0,0,0,.349-.342m.993,1.71H78.821v.231h1.137Z" transform="translate(13.386 28.759)" fill="#231815"/><path d="M82.121,168.91a8.255,8.255,0,0,1-1.581.12l-.057-.465h.22V167.7h-.166v-.458h1.537v.458h-.165v.808l.181-.021Zm1.372.917v.458H81.078v-1.071h.584v.613Zm-2.271-1.274.165-.007V167.7h-.165Zm1.52.852H82.2v-2.4h.543v.894h.125v-.953h.552v2.563h-.552V168.37h-.125Z" transform="translate(13.864 28.759)" fill="#231815"/><path d="M84.026,169.063a7.388,7.388,0,0,0,1.205-.1l.055.477a8.5,8.5,0,0,1-1.545.1h-.3v-2.3H85.03v.465h-1Zm2.432-.434H86v1.715H85.42v-3.4H86v1.209h.455Z" transform="translate(14.374 28.758)" fill="#231815"/><path d="M90.851,149.73h-5.97a2.792,2.792,0,0,0-5.531,0H73.38a2.289,2.289,0,0,0-2.287,2.287v24.41a2.289,2.289,0,0,0,2.287,2.287H90.851a2.289,2.289,0,0,0,2.287-2.287v-24.41a2.289,2.289,0,0,0-2.287-2.287m-8.736-1.748a.712.712,0,1,1-.712.712.712.712,0,0,1,.712-.712m9.673,28.445a.941.941,0,0,1-.938.938H73.38a.941.941,0,0,1-.938-.938v-24.41a.941.941,0,0,1,.938-.938H90.851a.941.941,0,0,1,.938.938Z" transform="translate(12.246 25.378)" fill="#090909"/><path d="M76.686,156.963s-.835-1.877-.209-2.383,2.472.476,2.741,1.013-1.913,2.778-2.532,1.37" transform="translate(13.134 26.604)" fill="#fff4ea"/><path d="M76.686,156.963s-.835-1.877-.209-2.383,2.472.476,2.741,1.013S77.3,158.371,76.686,156.963Z" transform="translate(13.134 26.604)" fill="none" stroke="#231815" stroke-miterlimit="10" stroke-width="0.138"/><path d="M77.136,156.331s-.388-.873-.1-1.109,1.151.222,1.277.471-.778,1.552-1.179.638" transform="translate(13.252 26.727)" fill="#79371e"/><path d="M77.136,156.331s-.388-.873-.1-1.109,1.151.222,1.277.471S77.537,157.245,77.136,156.331Z" transform="translate(13.252 26.727)" fill="none" stroke="#231815" stroke-linecap="round" stroke-linejoin="round" stroke-width="0.002"/><path d="M82.133,155.32s1.5-1.4,2.185-.973.355,2.493-.064,2.921-3.166-.045-2.121-1.948" transform="translate(14.108 26.574)" fill="#fff4ea"/><path d="M82.133,155.32s1.5-1.4,2.185-.973.355,2.493-.064,2.921S81.087,157.224,82.133,155.32Z" transform="translate(14.108 26.574)" fill="none" stroke="#231815" stroke-miterlimit="10" stroke-width="0.138"/><path d="M82.683,155.553s.7-.652,1.018-.452.165,1.161-.03,1.36-1.474-.021-.987-.907" transform="translate(14.224 26.711)" fill="#79371e"/><path d="M82.683,155.553s.7-.652,1.018-.452.165,1.161-.03,1.36S82.2,156.439,82.683,155.553Z" transform="translate(14.224 26.711)" fill="none" stroke="#231815" stroke-linecap="round" stroke-linejoin="round" stroke-width="0.002"/><path d="M76.48,158.684s.638-2.561,2.485-3.217a7.778,7.778,0,0,1,5.273.178c1.544.781,2.563,3.754,2.176,5.452,0,0,.7.334.308.411-.089.018-.631-.046-.488.006.216.077.606.1.546.238s-.155.095-.7.129a3.925,3.925,0,0,1,.477.139c.1.049.218.169-.537.169,0,0-.914,1.4-4.772,1.4s-4.731-1.464-4.731-1.464-.56.142-.6-.067c-.019-.113.415-.157.415-.157s-.513.1-.59-.035c-.1-.179.59-.434.59-.434s-.576.291-.652,0,.542-.424.542-.424a5.858,5.858,0,0,1,.249-2.325" transform="translate(13.037 26.716)" fill="#e77032"/><path d="M79.24,157.861a1.238,1.238,0,0,0,.341.381c.169.09.506.249.5-.049s-.1-1.06-.671-.773a.3.3,0,0,0-.168.441" transform="translate(13.642 27.106)" fill="#fff4ea"/><path d="M80.525,158.071s.42-.959.857-.808c.469.162.163.55-.127.722-.223.132-.54.4-.66.32a.166.166,0,0,1-.07-.234" transform="translate(13.867 27.087)" fill="#fff4ea"/><path d="M77.292,162.21s1.264.36,1.561.4a4.368,4.368,0,0,1-.189-2.512c.244-.937.472-.809-.189-.873-.573-.057-.864-.159-1,.307a5.376,5.376,0,0,0-.182,2.68" transform="translate(13.298 27.419)" fill="#fff4ea"/><path d="M81.85,162.8a3.881,3.881,0,0,0,.679-2.347,1.5,1.5,0,0,0-.4-1.053c-.247-.268.716-.367.894-.377s.556-.06.754.795a4.005,4.005,0,0,1-.281,2.565,5.446,5.446,0,0,1-1.648.417" transform="translate(14.099 27.392)" fill="#fff4ea"/><path d="M77.814,158.69a1.77,1.77,0,0,1,1.6,0" transform="translate(13.404 27.302)" fill="none" stroke="#231815" stroke-linecap="round" stroke-linejoin="round" stroke-width="0.129"/><path d="M81.329,158.7a2.08,2.08,0,0,1,1.757-.149" transform="translate(14.01 27.289)" fill="none" stroke="#231815" stroke-linecap="round" stroke-linejoin="round" stroke-width="0.129"/><path d="M79.207,159.791s.437-1.064,1.122-1.062a1.7,1.7,0,0,1,.635,3.237c-1.053.338-2.482-.307-1.757-2.175" transform="translate(13.61 27.343)" fill="#fff4ea"/><path d="M79.827,159.347a.442.442,0,0,1,.4-.318c.328-.023.564.294.408.489-.091.114-.907.148-.809-.171" transform="translate(13.75 27.394)" fill="#262727"/><path d="M79.766,160.17s-.022,1.1.618,1.1.551-1.21.551-1.21a.309.309,0,0,1-.331,0,.675.675,0,0,1-.307-.576.668.668,0,0,1-.531.683" transform="translate(13.74 27.473)" fill="#d97978"/><path d="M79.766,160.17s-.022,1.1.618,1.1.551-1.21.551-1.21a.309.309,0,0,1-.331,0,.675.675,0,0,1-.307-.576A.668.668,0,0,1,79.766,160.17Z" transform="translate(13.74 27.473)" fill="none" stroke="#262727" stroke-linecap="round" stroke-linejoin="round" stroke-width="0.06"/><path d="M79.851,160.589a1.122,1.122,0,0,1,1.066-.03V160.1s-.372-.02-.452-.163-.166-.283-.166-.283-.159.4-.389.486l-.158-.027v.285Z" transform="translate(13.738 27.502)" fill="#fff"/><path d="M79.766,160.17s-.022,1.1.618,1.1.551-1.21.551-1.21a.309.309,0,0,1-.331,0,.675.675,0,0,1-.307-.576A.668.668,0,0,1,79.766,160.17Z" transform="translate(13.74 27.473)" fill="none" stroke="#262727" stroke-linecap="round" stroke-linejoin="round" stroke-width="0.095"/><path d="M79.48,160s.73.522.871-.551c0,0,.053.984.812.529" transform="translate(13.691 27.467)" fill="none" stroke="#262727" stroke-linecap="round" stroke-linejoin="round" stroke-width="0.12"/><path d="M76.437,158.734s.681-2.611,2.529-3.266a7.741,7.741,0,0,1,5.273.178c1.5.651,2.563,3.754,2.176,5.452,0,0,.7.334.308.411-.089.018-.631-.046-.488.006.216.076.606.1.546.238s-.155.095-.7.129a3.925,3.925,0,0,1,.477.139c.1.049.218.169-.537.169,0,0-.914,1.4-4.772,1.4s-4.731-1.464-4.731-1.464-.56.142-.6-.068c-.019-.111.415-.156.415-.156s-.513.1-.59-.035c-.1-.179.59-.434.59-.434s-.576.291-.652,0,.542-.424.542-.424A5.434,5.434,0,0,1,76.437,158.734Z" transform="translate(13.037 26.715)" fill="none" stroke="#231815" stroke-linecap="round" stroke-linejoin="round" stroke-width="0.138"/><path d="M106.164,75.15s-5.17,40.936-14.595,64.418a93.166,93.166,0,0,1-10.909,20.617,1.368,1.368,0,0,1-.215.211c-.059.05-.272.1-.243.115a1.735,1.735,0,0,0,1.485-.123,15.316,15.316,0,0,0,2.186-1.776c15-19.835,19.181-39.463,24.554-68.4,0,0-.3-5.308-.719-7.792-.572-3.4-1.546-7.269-1.546-7.269" transform="translate(13.815 12.945)" fill="#171818"/><g transform="translate(85.683 180.422)" opacity="0.5"><g clip-path="url(#f)"><path d="M90.543,153.91,73.092,164.488l.026,5.1L90.5,159.19Z" transform="translate(-73.092 -153.91)" fill="#fff"/></g></g><g transform="translate(85.766 186.506)" opacity="0.5"><g clip-path="url(#g)"><path d="M90.615,159.1,73.163,169.678l.055,1.43,17.379-10.4Z" transform="translate(-73.163 -159.1)" fill="#fff"/></g></g><path d="M17.5,45.2S3.877,14.535,14.1,6.261s40.4,7.787,44.776,16.548S27.607,68.19,17.5,45.2" transform="translate(1.774 0.682)" fill="#fff4ea"/><path d="M17.5,45.2S3.877,14.535,14.1,6.261s40.4,7.787,44.776,16.548S27.607,68.19,17.5,45.2Z" transform="translate(1.774 0.682)" fill="none" stroke="#231815" stroke-miterlimit="10" stroke-width="2.248"/><path d="M24.855,34.864s-6.343-14.272-1.586-18.124,18.8,3.625,20.843,7.7S31.4,49.792,24.855,34.864" transform="translate(3.704 2.699)" fill="#79371e"/><path d="M24.855,34.864s-6.343-14.272-1.586-18.124,18.8,3.625,20.843,7.7S31.4,49.792,24.855,34.864Z" transform="translate(3.704 2.699)" fill="none" stroke="#231815" stroke-linecap="round" stroke-linejoin="round" stroke-width="0.035"/><path d="M106.489,18.341S131.045-4.525,142.2,2.445s5.787,40.73-1.07,47.724S89.4,49.446,106.489,18.341" transform="translate(17.68 0.194)" fill="#fff4ea"/><path d="M106.489,18.341S131.045-4.525,142.2,2.445s5.787,40.73-1.07,47.724S89.4,49.446,106.489,18.341Z" transform="translate(17.68 0.194)" fill="none" stroke="#231815" stroke-miterlimit="10" stroke-width="2.248"/><path d="M115.472,22.165s11.431-10.644,16.62-7.4,2.694,18.959-.5,22.214-24.076-.336-16.122-14.815" transform="translate(19.582 2.437)" fill="#79371e"/><path d="M115.472,22.165s11.431-10.644,16.62-7.4,2.694,18.959-.5,22.214S107.518,36.643,115.472,22.165Z" transform="translate(19.582 2.437)" fill="none" stroke="#231815" stroke-linecap="round" stroke-linejoin="round" stroke-width="0.035"/><path d="M14.137,73.3s10.426-41.847,40.6-52.555,68.854-5.824,86.146,2.92c25.221,12.754,41.856,61.324,35.529,89.066,0,0,11.358,5.458,5.049,6.715-1.459.291-10.305-.739-7.969.1,3.513,1.259,9.9,1.622,8.922,3.894s-2.522,1.557-11.356,2.109a65.724,65.724,0,0,1,7.786,2.271c1.622.811,3.57,2.758-8.76,2.758,0,0-14.936,22.874-77.958,22.874s-77.3-23.929-77.3-23.929-9.157,2.32-9.731-1.095c-.306-1.822,6.778-2.554,6.778-2.554s-8.38,1.682-9.641-.57c-1.646-2.942,9.641-7.1,9.641-7.1s-9.406,4.745-10.648,0,8.855-6.936,8.855-6.936S7.77,90.008,14.137,73.3" transform="translate(0.194 2.52)" fill="#e77032"/><path d="M59.229,59.859s2.818,4.772,5.576,6.233,8.274,4.055,8.111-.811-1.7-17.314-10.95-12.63c-4.164,2.109-3.812,4.941-2.737,7.208" transform="translate(10.082 8.891)" fill="#fff4ea"/><path d="M80.234,63.3S87.1,47.639,94.226,50.1c7.676,2.648,2.677,8.976-2.068,11.8-3.633,2.16-8.819,6.579-10.768,5.233-2.556-1.765-1.156-3.833-1.156-3.833" transform="translate(13.755 8.585)" fill="#fff4ea"/><path d="M27.4,130.923s20.649,5.87,25.517,6.519c0,0-8.518-20.076-3.083-41.044,3.969-15.311,7.706-13.211-3.082-14.277-9.377-.925-14.114-2.6-16.386,5.029s-6.859,22.683-2.966,43.773" transform="translate(4.46 14.004)" fill="#fff4ea"/><path d="M101.858,140.5s13.174-18.287,11.1-38.34c-.973-9.409-2.434-12.816-6.49-17.2s11.68-6,14.6-6.165,9.085-.973,12.329,12.978.743,34.284-4.611,41.909a89.006,89.006,0,0,1-26.93,6.813" transform="translate(17.546 13.562)" fill="#fff4ea"/><path d="M35.927,73.4s13.628-7.3,26.119,0" transform="translate(6.189 12.085)" fill="none" stroke="#231815" stroke-linecap="round" stroke-linejoin="round" stroke-width="2.108"/><path d="M93.36,73.61s13.789-8.6,28.715-2.434" transform="translate(16.082 11.877)" fill="none" stroke="#231815" stroke-linecap="round" stroke-linejoin="round" stroke-width="2.108"/><path d="M58.681,91.392S65.819,74,77.013,74.033c12.854.038,20.6,6.165,24.821,19.306s2.758,28.066-14.439,33.582-40.558-5.029-28.715-35.529" transform="translate(9.553 12.753)" fill="#fff4ea"/><path d="M68.829,84.137a7.219,7.219,0,0,1,6.547-5.186c5.363-.383,9.209,4.807,6.665,7.975-1.491,1.858-14.824,2.428-13.213-2.789" transform="translate(11.833 13.597)" fill="#262727"/><path d="M67.826,97.591s-.365,18.008,10.1,18.008,8.987-19.761,8.987-19.761-3.136,1.884-5.39,0-5.116-4.287-5.025-9.419c0,0,.212,9.833-8.67,11.172" transform="translate(11.683 14.886)" fill="#d97978"/><path d="M67.826,97.591s-.365,18.008,10.1,18.008,8.987-19.761,8.987-19.761-3.136,1.884-5.39,0-5.116-4.287-5.025-9.419C76.5,86.419,76.708,96.252,67.826,97.591Z" transform="translate(11.683 14.886)" fill="none" stroke="#262727" stroke-linecap="round" stroke-linejoin="round" stroke-width="0.984"/><path d="M69.209,104.424a18.345,18.345,0,0,1,17.4-.495V96.4s-6.056-.312-7.392-2.648-2.707-4.623-2.707-4.623-2.616,6.51-6.358,7.939l-2.585-.426v4.654Z" transform="translate(11.639 15.352)" fill="#fff"/><path d="M67.826,97.591s-.365,18.008,10.1,18.008,8.987-19.761,8.987-19.761-3.136,1.884-5.39,0-5.116-4.287-5.025-9.419C76.5,86.419,76.708,96.252,67.826,97.591Z" transform="translate(11.683 14.886)" fill="none" stroke="#262727" stroke-linecap="round" stroke-linejoin="round" stroke-width="1.546"/><path d="M63.156,94.884s11.924,8.518,14.236-9c0,0,.852,16.061,13.263,8.64" transform="translate(10.879 14.794)" fill="none" stroke="#262727" stroke-linecap="round" stroke-linejoin="round" stroke-width="1.967"/><path d="M13.428,74.121S24.563,31.467,54.738,20.76s65.384-6.117,86.145,2.92C165.31,34.312,182.74,85,176.412,112.744c0,0,11.358,5.458,5.05,6.716-1.461.291-10.307-.739-7.97.1,3.514,1.259,9.9,1.622,8.923,3.893s-2.522,1.558-11.357,2.109a65.845,65.845,0,0,1,7.787,2.272c1.622.811,3.57,2.758-8.76,2.758,0,0-14.936,22.874-77.958,22.874s-77.3-23.929-77.3-23.929-9.157,2.32-9.73-1.095c-.307-1.823,6.777-2.556,6.777-2.556s-8.379,1.683-9.641-.57c-1.646-2.941,9.641-7.1,9.641-7.1s-9.405,4.745-10.646,0,8.854-6.935,8.854-6.935S7.208,94.681,13.428,74.121Z" transform="translate(0.194 2.507)" fill="none" stroke="#231815" stroke-linecap="round" stroke-linejoin="round" stroke-width="2.248"/><path d="M97.64,223.246s-3.551-6.085,4.2-11.669,15.709-.006,17.45,1.563c1.435,1.293,5.845,10.8-1.844,11.9s-8.1-3.132-15.412-.022a3.165,3.165,0,0,1-4.4-1.776" transform="translate(16.68 36.028)" fill="#dc6e34"/><path d="M97.64,223.246s-3.551-6.085,4.2-11.669,15.709-.006,17.45,1.563c1.435,1.293,5.845,10.8-1.844,11.9s-8.1-3.132-15.412-.022A3.165,3.165,0,0,1,97.64,223.246Z" transform="translate(16.68 36.028)" fill="none" stroke="#231815" stroke-linecap="round" stroke-linejoin="round" stroke-width="2.108"/><path d="M50.536,223.246s-3.551-6.085,4.2-11.669,15.709-.006,17.45,1.563c1.435,1.293,5.845,10.8-1.844,11.9s-8.1-3.132-15.412-.022a3.165,3.165,0,0,1-4.4-1.776" transform="translate(8.566 36.028)" fill="#dc6e34"/><path d="M50.536,223.246s-3.551-6.085,4.2-11.669,15.709-.006,17.45,1.563c1.435,1.293,5.845,10.8-1.844,11.9s-8.1-3.132-15.412-.022A3.165,3.165,0,0,1,50.536,223.246Z" transform="translate(8.566 36.028)" fill="none" stroke="#231815" stroke-linecap="round" stroke-linejoin="round" stroke-width="2.108"/><path d="M60.477,163.177a39.8,39.8,0,0,0-1.237-8.609,4.937,4.937,0,0,0-1.189-2.609,3.313,3.313,0,0,0-1.443-.724,10.033,10.033,0,0,0-4.4.164,62.141,62.141,0,0,0-9.434,2.594,2,2,0,0,0-1.68,2.255,37.632,37.632,0,0,0,1,8.06q.622,3.156,1.246,6.311" transform="translate(7.078 26.02)" fill="#d1d1d1"/><path d="M55.094,150.657a6.729,6.729,0,0,1,1.669.2,3.687,3.687,0,0,1,1.617.819,5.271,5.271,0,0,1,1.326,2.849,40.6,40.6,0,0,1,1.251,8.719.441.441,0,0,1-.415.463h0a.44.44,0,0,1-.417-.456,39.672,39.672,0,0,0-1.223-8.5,4.53,4.53,0,0,0-1.054-2.369,2.906,2.906,0,0,0-1.267-.63,9.749,9.749,0,0,0-4.232.169,61.41,61.41,0,0,0-9.377,2.577,2.288,2.288,0,0,0-1.173.727,2.191,2.191,0,0,0-.22,1.1,37.379,37.379,0,0,0,.987,7.953l1.246,6.311a.46.46,0,0,1-.319.546.417.417,0,0,1-.5-.352l-1.247-6.311a38.039,38.039,0,0,1-1.007-8.169,3.028,3.028,0,0,1,.372-1.61,2.945,2.945,0,0,1,1.594-1.071,62.1,62.1,0,0,1,9.493-2.611,15.139,15.139,0,0,1,2.9-.355" transform="translate(7.017 25.952)" fill="#df9669"/><path d="M55.094,150.657a6.729,6.729,0,0,1,1.669.2,3.687,3.687,0,0,1,1.617.819,5.271,5.271,0,0,1,1.326,2.849,40.6,40.6,0,0,1,1.251,8.719.441.441,0,0,1-.415.463h0a.44.44,0,0,1-.417-.456,39.672,39.672,0,0,0-1.223-8.5,4.53,4.53,0,0,0-1.054-2.369,2.906,2.906,0,0,0-1.267-.63,9.749,9.749,0,0,0-4.232.169,61.41,61.41,0,0,0-9.377,2.577,2.288,2.288,0,0,0-1.173.727,2.191,2.191,0,0,0-.22,1.1,37.379,37.379,0,0,0,.987,7.953l1.246,6.311a.46.46,0,0,1-.319.546.417.417,0,0,1-.5-.352l-1.247-6.311a38.039,38.039,0,0,1-1.007-8.169,3.028,3.028,0,0,1,.372-1.61,2.945,2.945,0,0,1,1.594-1.071,62.1,62.1,0,0,1,9.493-2.611A15.139,15.139,0,0,1,55.094,150.657Z" transform="translate(7.017 25.952)" fill="none" stroke="#231815" stroke-linecap="round" stroke-linejoin="round" stroke-width="1.124"/><path d="M72.473,173.3a11.3,11.3,0,0,1,2.271,7.443c-.268,2.667-2.129,5.228-4.554,5.5a31.013,31.013,0,0,1,2.253,6.767,6.365,6.365,0,0,1-.012,3.565,5.5,5.5,0,0,1-1.19,1.722c-4.589,4.892-11.3,6.7-17.684,6.609a13.453,13.453,0,0,1-4.315-.625c-3.818-1.35-6.425-5.422-7.446-9.69s-.721-8.767-.414-13.169q.468-6.685.934-13.37a9.615,9.615,0,0,1,.49-2.856c1.061-2.7,4.126-3.52,6.777-3.9q4.313-.614,8.657-.884c3.112-.193,4.641,4.3,6.592,6.4,2.361,2.536,5.513,3.463,7.641,6.486" transform="translate(7.078 27.632)" fill="#e56367"/><path d="M58.5,160.018c2.284,0,3.748,2.257,5.043,4.256a17.159,17.159,0,0,0,1.646,2.275,18.412,18.412,0,0,0,3.3,2.636,15.624,15.624,0,0,1,4.375,3.9,11.731,11.731,0,0,1,2.355,7.774c-.286,2.843-2.105,5.222-4.343,5.8a31.443,31.443,0,0,1,2.034,6.315,6.862,6.862,0,0,1-.035,3.85,5.9,5.9,0,0,1-1.284,1.87c-4.178,4.456-10.566,6.854-17.979,6.739a13.888,13.888,0,0,1-4.438-.647c-3.589-1.27-6.548-5.105-7.721-10.011-1.05-4.388-.734-8.929-.427-13.32l.933-13.37a10.133,10.133,0,0,1,.524-3c1.178-3,4.62-3.817,7.106-4.171,2.871-.408,5.793-.707,8.686-.887.074,0,.148-.006.219-.006M72.2,173.647a14.726,14.726,0,0,0-4.152-3.677,19.323,19.323,0,0,1-3.45-2.761,17.786,17.786,0,0,1-1.742-2.4c-1.271-1.96-2.58-4-4.534-3.865-2.874.178-5.777.475-8.627.88-2.478.353-5.45,1.083-6.447,3.623a9.3,9.3,0,0,0-.458,2.709l-.933,13.37c-.3,4.315-.612,8.778.4,13.017.863,3.608,3.2,7.964,7.168,9.369a13.165,13.165,0,0,0,4.193.6c7.2.11,13.368-2.2,17.388-6.48a5.082,5.082,0,0,0,1.1-1.572,5.9,5.9,0,0,0-.011-3.281,30.518,30.518,0,0,0-2.218-6.661l-.28-.6.61-.069c2.322-.261,3.949-2.8,4.18-5.1a10.759,10.759,0,0,0-2.185-7.11" transform="translate(7.016 27.565)" fill="#df9669"/><path d="M58.5,160.018c2.284,0,3.748,2.257,5.043,4.256a17.159,17.159,0,0,0,1.646,2.275,18.412,18.412,0,0,0,3.3,2.636,15.624,15.624,0,0,1,4.375,3.9,11.731,11.731,0,0,1,2.355,7.774c-.286,2.843-2.105,5.222-4.343,5.8a31.443,31.443,0,0,1,2.034,6.315,6.862,6.862,0,0,1-.035,3.85,5.9,5.9,0,0,1-1.284,1.87c-4.178,4.456-10.566,6.854-17.979,6.739a13.888,13.888,0,0,1-4.438-.647c-3.589-1.27-6.548-5.105-7.721-10.011-1.05-4.388-.734-8.929-.427-13.32l.933-13.37a10.133,10.133,0,0,1,.524-3c1.178-3,4.62-3.817,7.106-4.171,2.871-.408,5.793-.707,8.686-.887C58.351,160.019,58.425,160.018,58.5,160.018ZM72.2,173.647a14.726,14.726,0,0,0-4.152-3.677,19.323,19.323,0,0,1-3.45-2.761,17.786,17.786,0,0,1-1.742-2.4c-1.271-1.96-2.58-4-4.534-3.865-2.874.178-5.777.475-8.627.88-2.478.353-5.45,1.083-6.447,3.623a9.3,9.3,0,0,0-.458,2.709l-.933,13.37c-.3,4.315-.612,8.778.4,13.017.863,3.608,3.2,7.964,7.168,9.369a13.165,13.165,0,0,0,4.193.6c7.2.11,13.368-2.2,17.388-6.48a5.082,5.082,0,0,0,1.1-1.572,5.9,5.9,0,0,0-.011-3.281,30.518,30.518,0,0,0-2.218-6.661l-.28-.6.61-.069c2.322-.261,3.949-2.8,4.18-5.1A10.759,10.759,0,0,0,72.2,173.647Z" transform="translate(7.016 27.565)" fill="none" stroke="#231815" stroke-linecap="round" stroke-linejoin="round" stroke-width="1.124"/><path d="M61.505,173.284h.008a.441.441,0,0,1,.409.469,6.621,6.621,0,0,0,.967,3.425,16.911,16.911,0,0,0,1.022,1.5c.156.211.311.422.463.637a43.528,43.528,0,0,1,4.444,8.941.481.481,0,0,1-.211.607.4.4,0,0,1-.552-.233,42.835,42.835,0,0,0-4.341-8.75c-.148-.21-.3-.416-.451-.622a17.666,17.666,0,0,1-1.077-1.578,7.607,7.607,0,0,1-1.1-3.941.439.439,0,0,1,.417-.45" transform="translate(10.523 29.85)" fill="#df9669"/><path d="M61.505,173.284h.008a.441.441,0,0,1,.409.469,6.621,6.621,0,0,0,.967,3.425,16.911,16.911,0,0,0,1.022,1.5c.156.211.311.422.463.637a43.528,43.528,0,0,1,4.444,8.941.481.481,0,0,1-.211.607.4.4,0,0,1-.552-.233,42.835,42.835,0,0,0-4.341-8.75c-.148-.21-.3-.416-.451-.622a17.666,17.666,0,0,1-1.077-1.578,7.607,7.607,0,0,1-1.1-3.941A.439.439,0,0,1,61.505,173.284Z" transform="translate(10.523 29.85)" fill="none" stroke="#231815" stroke-linecap="round" stroke-linejoin="round" stroke-width="1.124"/><path d="M59.954,157.007a.462.462,0,0,1,0,.919,44.323,44.323,0,0,0-17.791,4.082.4.4,0,0,1-.553-.227.48.48,0,0,1,.207-.61A44.479,44.479,0,0,1,59.954,157.007Z" transform="translate(7.161 27.046)" fill="#df9669"/><path d="M59.954,157.007a.462.462,0,0,1,0,.919,44.323,44.323,0,0,0-17.791,4.082.4.4,0,0,1-.553-.227.48.48,0,0,1,.207-.61A44.479,44.479,0,0,1,59.954,157.007Z" transform="translate(7.161 27.046)" fill="none" stroke="#231815" stroke-linecap="round" stroke-linejoin="round" stroke-width="1.124"/><path d="M56.889,153.64q1.088,0,2.178.076a.445.445,0,0,1,.39.488.437.437,0,0,1-.443.43,31.153,31.153,0,0,0-17.178,3.824.4.4,0,0,1-.56-.206.482.482,0,0,1,.188-.617,32.039,32.039,0,0,1,15.426-4" transform="translate(7.103 26.466)" fill="#df9669"/><path d="M56.889,153.64q1.088,0,2.178.076a.445.445,0,0,1,.39.488.437.437,0,0,1-.443.43,31.153,31.153,0,0,0-17.178,3.824.4.4,0,0,1-.56-.206.482.482,0,0,1,.188-.617A32.039,32.039,0,0,1,56.889,153.64Z" transform="translate(7.103 26.466)" fill="none" stroke="#231815" stroke-linecap="round" stroke-linejoin="round" stroke-width="1.124"/><path d="M108.3,160.881s17.579-2.88,21.057-24.963c3.544-22.5,7.4-31.57-3.409-33.789s-9.991,5.591-10.065,10.622-5.63,13.441-8.434,24.445" transform="translate(18.509 17.526)" fill="#dc6e34"/><path d="M108.3,160.881s17.579-2.88,21.057-24.963c3.544-22.5,7.4-31.57-3.409-33.789s-9.991,5.591-10.065,10.622-5.63,13.441-8.434,24.445" transform="translate(18.509 17.526)" fill="none" stroke="#231815" stroke-linecap="round" stroke-linejoin="round" stroke-width="2.108"/><path d="M112.877,115.062a42.611,42.611,0,0,0-2.541,9.079,5.283,5.283,0,0,0,.045,3.109,3.631,3.631,0,0,0,1.127,1.355,11.088,11.088,0,0,0,4.478,1.774,68.777,68.777,0,0,0,10.589,1.583,2.852,2.852,0,0,0,1.781-.283,2.8,2.8,0,0,0,.892-1.214,40.48,40.48,0,0,0,2.543-8.43l1.523-6.8" transform="translate(18.969 19.821)" fill="#d1d1d1"/><path d="M112.87,130.01a7.4,7.4,0,0,1-1.586-.93,4.035,4.035,0,0,1-1.259-1.525,5.677,5.677,0,0,1-.077-3.408,43.5,43.5,0,0,1,2.578-9.193.481.481,0,0,1,.619-.277h0a.476.476,0,0,1,.217.637,42.544,42.544,0,0,0-2.506,8.964,4.874,4.874,0,0,0,.013,2.812,3.191,3.191,0,0,0,.994,1.183,10.787,10.787,0,0,0,4.313,1.7,67.918,67.918,0,0,0,10.523,1.572,2.5,2.5,0,0,0,1.495-.2,2.355,2.355,0,0,0,.706-1,40.223,40.223,0,0,0,2.5-8.318l1.523-6.8a.5.5,0,0,1,.559-.4.457.457,0,0,1,.343.567l-1.522,6.806a40.989,40.989,0,0,1-2.581,8.541,3.273,3.273,0,0,1-1.078,1.433,3.229,3.229,0,0,1-2.067.36,68.466,68.466,0,0,1-10.655-1.592,16.621,16.621,0,0,1-3.058-.923" transform="translate(18.901 19.748)" fill="#df9669"/><path d="M112.87,130.01a7.4,7.4,0,0,1-1.586-.93,4.035,4.035,0,0,1-1.259-1.525,5.677,5.677,0,0,1-.077-3.408,43.5,43.5,0,0,1,2.578-9.193.481.481,0,0,1,.619-.277h0a.476.476,0,0,1,.217.637,42.544,42.544,0,0,0-2.506,8.964,4.874,4.874,0,0,0,.013,2.812,3.191,3.191,0,0,0,.994,1.183,10.787,10.787,0,0,0,4.313,1.7,67.918,67.918,0,0,0,10.523,1.572,2.5,2.5,0,0,0,1.495-.2,2.355,2.355,0,0,0,.706-1,40.223,40.223,0,0,0,2.5-8.318l1.523-6.8a.5.5,0,0,1,.559-.4.457.457,0,0,1,.343.567l-1.522,6.806a40.989,40.989,0,0,1-2.581,8.541,3.273,3.273,0,0,1-1.078,1.433,3.229,3.229,0,0,1-2.067.36,68.466,68.466,0,0,1-10.655-1.592A16.621,16.621,0,0,1,112.87,130.01Z" transform="translate(18.901 19.748)" fill="none" stroke="#231815" stroke-linecap="round" stroke-linejoin="round" stroke-width="1.124"/><path d="M106.664,104.437a12.138,12.138,0,0,1,.994-8.377c1.441-2.526,4.429-4.247,6.978-3.45a33.309,33.309,0,0,1,.715-7.7,6.853,6.853,0,0,1,1.578-3.528,5.968,5.968,0,0,1,1.948-1.182c6.744-2.83,14.257-1.673,20.613,1.232a14.826,14.826,0,0,1,4.048,2.519c3.231,3.02,4.054,8.2,3.2,12.884s-3.128,9.009-5.369,13.236l-6.806,12.843a10.417,10.417,0,0,1-1.746,2.614c-2.248,2.211-5.678,1.673-8.5.88q-4.589-1.291-9.059-2.934c-3.2-1.179-2.759-6.308-3.793-9.243-1.251-3.552-4-5.86-4.8-9.793" transform="translate(18.32 13.535)" fill="#e56367"/><path d="M114.93,123.92c-2.287-1.006-2.762-3.887-3.182-6.439a18.559,18.559,0,0,0-.648-2.981,20.073,20.073,0,0,0-2.152-4.069,16.969,16.969,0,0,1-2.669-5.789,12.6,12.6,0,0,1,1.055-8.744c1.536-2.693,4.4-4.251,6.9-3.839a33.868,33.868,0,0,1,.736-7.155,7.37,7.37,0,0,1,1.726-3.8,6.431,6.431,0,0,1,2.107-1.289c6.143-2.577,13.592-2.143,20.968,1.234a15.332,15.332,0,0,1,4.16,2.6c3.037,2.839,4.316,7.944,3.336,13.323-.876,4.813-3.187,9.175-5.423,13.393L135.035,123.2a10.929,10.929,0,0,1-1.844,2.747c-2.5,2.455-6.3,1.749-8.949,1-3.055-.858-6.112-1.849-9.09-2.944-.076-.028-.15-.059-.223-.09m-7.743-19.545a16.009,16.009,0,0,0,2.544,5.473,21.016,21.016,0,0,1,2.243,4.256,19.2,19.2,0,0,1,.69,3.145c.411,2.5.83,5.1,2.845,5.828,2.956,1.088,5.994,2.073,9.026,2.925,2.636.741,5.934,1.326,8.049-.754a9.966,9.966,0,0,0,1.648-2.483l6.806-12.843c2.2-4.145,4.469-8.432,5.315-13.08.72-3.958.293-9.3-3.067-12.444a14.5,14.5,0,0,0-3.934-2.444c-7.159-3.278-14.353-3.709-20.261-1.231A5.54,5.54,0,0,0,117.3,81.8a6.338,6.338,0,0,0-1.43,3.258,32.775,32.775,0,0,0-.7,7.579l.018.717-.64-.2c-2.442-.763-5.185,1.033-6.425,3.211a11.561,11.561,0,0,0-.934,8.01" transform="translate(18.252 13.463)" fill="#df9669"/><path d="M114.93,123.92c-2.287-1.006-2.762-3.887-3.182-6.439a18.559,18.559,0,0,0-.648-2.981,20.073,20.073,0,0,0-2.152-4.069,16.969,16.969,0,0,1-2.669-5.789,12.6,12.6,0,0,1,1.055-8.744c1.536-2.693,4.4-4.251,6.9-3.839a33.868,33.868,0,0,1,.736-7.155,7.37,7.37,0,0,1,1.726-3.8,6.431,6.431,0,0,1,2.107-1.289c6.143-2.577,13.592-2.143,20.968,1.234a15.332,15.332,0,0,1,4.16,2.6c3.037,2.839,4.316,7.944,3.336,13.323-.876,4.813-3.187,9.175-5.423,13.393L135.035,123.2a10.929,10.929,0,0,1-1.844,2.747c-2.5,2.455-6.3,1.749-8.949,1-3.055-.858-6.112-1.849-9.09-2.944C115.076,123.982,115,123.952,114.93,123.92Zm-7.743-19.545a16.009,16.009,0,0,0,2.544,5.473,21.016,21.016,0,0,1,2.243,4.256,19.2,19.2,0,0,1,.69,3.145c.411,2.5.83,5.1,2.845,5.828,2.956,1.088,5.994,2.073,9.026,2.925,2.636.741,5.934,1.326,8.049-.754a9.966,9.966,0,0,0,1.648-2.483l6.806-12.843c2.2-4.145,4.469-8.432,5.315-13.08.72-3.958.293-9.3-3.067-12.444a14.5,14.5,0,0,0-3.934-2.444c-7.159-3.278-14.353-3.709-20.261-1.231A5.54,5.54,0,0,0,117.3,81.8a6.338,6.338,0,0,0-1.43,3.258,32.775,32.775,0,0,0-.7,7.579l.018.717-.64-.2c-2.442-.763-5.185,1.033-6.425,3.211A11.561,11.561,0,0,0,107.187,104.375Z" transform="translate(18.252 13.463)" fill="none" stroke="#231815" stroke-linecap="round" stroke-linejoin="round" stroke-width="1.124"/><path d="M113.992,104.325l-.008,0a.479.479,0,0,1-.2-.645,7.113,7.113,0,0,0,.536-3.822,18.16,18.16,0,0,0-.367-1.933c-.063-.278-.127-.556-.184-.833a46.968,46.968,0,0,1-.525-10.82.519.519,0,0,1,.479-.509.442.442,0,0,1,.45.474,46.148,46.148,0,0,0,.5,10.584c.056.273.118.544.179.816a19.179,19.179,0,0,1,.386,2.039,8.171,8.171,0,0,1-.63,4.39.481.481,0,0,1-.617.263" transform="translate(19.494 14.773)" fill="#df9669"/><path d="M113.992,104.325l-.008,0a.479.479,0,0,1-.2-.645,7.113,7.113,0,0,0,.536-3.822,18.16,18.16,0,0,0-.367-1.933c-.063-.278-.127-.556-.184-.833a46.968,46.968,0,0,1-.525-10.82.519.519,0,0,1,.479-.509.442.442,0,0,1,.45.474,46.148,46.148,0,0,0,.5,10.584c.056.273.118.544.179.816a19.179,19.179,0,0,1,.386,2.039,8.171,8.171,0,0,1-.63,4.39A.481.481,0,0,1,113.992,104.325Z" transform="translate(19.494 14.773)" fill="none" stroke="#231815" stroke-linecap="round" stroke-linejoin="round" stroke-width="1.124"/><path d="M110.959,119.716a.5.5,0,0,1,.4-.912,48.929,48.929,0,0,0,19.613,3.786.442.442,0,0,1,.454.47.52.52,0,0,1-.475.512,49.131,49.131,0,0,1-20-3.857" transform="translate(19.068 20.459)" fill="#df9669"/><path d="M110.959,119.716a.5.5,0,0,1,.4-.912,48.929,48.929,0,0,0,19.613,3.786.442.442,0,0,1,.454.47.52.52,0,0,1-.475.512A49.131,49.131,0,0,1,110.959,119.716Z" transform="translate(19.068 20.459)" fill="none" stroke="#231815" stroke-linecap="round" stroke-linejoin="round" stroke-width="1.124"/><path d="M112.46,124.377q-1.09-.48-2.149-1.034a.485.485,0,0,1-.177-.655.478.478,0,0,1,.633-.231,34.415,34.415,0,0,0,18.886,3.771.44.44,0,0,1,.47.451.521.521,0,0,1-.458.529,35.378,35.378,0,0,1-17.205-2.831" transform="translate(18.962 21.086)" fill="#df9669"/><path d="M112.46,124.377q-1.09-.48-2.149-1.034a.485.485,0,0,1-.177-.655.478.478,0,0,1,.633-.231,34.415,34.415,0,0,0,18.886,3.771.44.44,0,0,1,.47.451.521.521,0,0,1-.458.529A35.378,35.378,0,0,1,112.46,124.377Z" transform="translate(18.962 21.086)" fill="none" stroke="#231815" stroke-linecap="round" stroke-linejoin="round" stroke-width="1.124"/></g></g></g></g></g></svg>