<svg xmlns="http://www.w3.org/2000/svg" width="16" height="18" viewBox="0 0 16 18"><path d="M17.342,2H6.62A2.548,2.548,0,0,0,4,4.464V18.543a1.439,1.439,0,0,0,.939,1.327,1.577,1.577,0,0,0,1.634-.233L11.6,15.554a.694.694,0,0,1,.807,0l5.023,4.084a1.6,1.6,0,0,0,1.634.233A1.439,1.439,0,0,0,20,18.543V4.464a2.338,2.338,0,0,0-.768-1.741A2.782,2.782,0,0,0,17.342,2Zm1.681,16.543a.575.575,0,0,1-.366.543A.613.613,0,0,1,18.028,19L13,14.925a1.7,1.7,0,0,0-2.047,0L5.934,19a.613.613,0,0,1-.629.086.575.575,0,0,1-.366-.543V4.464a1.646,1.646,0,0,1,1.681-1.6H17.342a1.646,1.646,0,0,1,1.681,1.6Z" transform="translate(-4 -2)" fill="#999"/></svg>