<svg xmlns="http://www.w3.org/2000/svg" xmlns:xlink="http://www.w3.org/1999/xlink" width="18" height="20" viewBox="0 0 18 20">
  <defs>
    <clipPath id="clip-path">
      <rect id="사각형_3951" data-name="사각형 3951" width="18" height="20" transform="translate(592 797)" fill="red" opacity="0.5"/>
    </clipPath>
  </defs>
  <g id="bookmark-on" transform="translate(-592 -797)" clip-path="url(#clip-path)">
    <rect id="사각형_3927" data-name="사각형 3927" width="20" height="20" transform="translate(591 797)" fill="#fff"/>
    <g id="Layer_21" data-name="Layer 21" transform="translate(588 795)">
      <path id="패스_6678" data-name="패스 6678" d="M19.01,2H6.947A2.851,2.851,0,0,0,4,4.738V20.382a1.6,1.6,0,0,0,1.056,1.474A1.791,1.791,0,0,0,6.894,21.6l5.651-4.538a.789.789,0,0,1,.908,0L19.105,21.6a1.815,1.815,0,0,0,1.838.258A1.6,1.6,0,0,0,22,20.382V4.738A2.583,2.583,0,0,0,21.135,2.8,3.151,3.151,0,0,0,19.01,2Z" transform="translate(0 0)" fill="#ffd84e"/>
    </g>
  </g>
</svg>
