<svg id="building" xmlns="http://www.w3.org/2000/svg" width="28" height="28" viewBox="0 0 28 28">
  <g id="그룹_9614" data-name="그룹 9614">
    <g id="그룹_9613" data-name="그룹 9613">
      <path id="패스_6679" data-name="패스 6679" d="M132.517,477.867h-12.6a.468.468,0,0,0-.45.483v.967a.451.451,0,1,0,.9,0v-.483h12.15a.485.485,0,0,0,0-.967Z" transform="translate(-112.7 -451.8)" fill="#7c89f2"/>
      <path id="패스_6680" data-name="패스 6680" d="M187.733,156.983a.484.484,0,0,0,.483.483h1.933a.484.484,0,0,0,.483-.483v-2.9a.484.484,0,0,0-.483-.483h-1.933a.484.484,0,0,0-.483.483v2.9Zm.967-2.417h.967V156.5H188.7Z" transform="translate(-177.507 -145.246)" fill="#7c89f2"/>
      <path id="패스_6681" data-name="패스 6681" d="M6.283,102.4H.483a.484.484,0,0,0-.483.483v9.667a.483.483,0,1,0,.967,0v-9.183H6.283a.483.483,0,0,0,0-.967Z" transform="translate(0 -96.916)" fill="#7c89f2"/>
      <path id="패스_6682" data-name="패스 6682" d="M409.6,361.783a.484.484,0,0,0,.483.483h1.933a.484.484,0,0,0,.483-.483v-2.9a.483.483,0,0,0-.483-.483h-1.933a.484.484,0,0,0-.483.483Zm.967-2.417h.967V361.3h-.967Z" transform="translate(-387.4 -338.908)" fill="#7c89f2"/>
      <path id="패스_6683" data-name="패스 6683" d="M2.417,307.2C.028,307.2,0,313.421,0,313.483a2.421,2.421,0,0,0,1.933,2.368v2.466a.483.483,0,1,0,.967,0v-2.466a2.421,2.421,0,0,0,1.933-2.368C4.833,313.421,4.806,307.2,2.417,307.2Zm0,7.733a1.452,1.452,0,0,1-1.45-1.45c0-2.408.647-5.317,1.45-5.317s1.45,2.909,1.45,5.317A1.452,1.452,0,0,1,2.417,314.933Z" transform="translate(0 -290.8)" fill="#7c89f2"/>
      <path id="패스_6684" data-name="패스 6684" d="M53.617,256H51.683a.484.484,0,0,0-.483.483v.967a.483.483,0,0,0,.967,0v-.483h.967v2.417a.483.483,0,1,0,.967,0v-2.9A.483.483,0,0,0,53.617,256Z" transform="translate(-48.3 -242.077)" fill="#7c89f2"/>
      <path id="패스_6685" data-name="패스 6685" d="M410.083,157.468h1.933a.484.484,0,0,0,.483-.483v-2.9a.483.483,0,0,0-.483-.483h-1.933a.484.484,0,0,0-.483.483v2.9A.484.484,0,0,0,410.083,157.468Zm.483-2.9h.967V156.5h-.967Z" transform="translate(-387.4 -145.247)" fill="#7c89f2"/>
      <path id="패스_6686" data-name="패스 6686" d="M53.617,153.6H51.683a.483.483,0,0,0-.483.483v2.9a.484.484,0,0,0,.483.483h1.933a.484.484,0,0,0,.483-.483v-2.9A.483.483,0,0,0,53.617,153.6Zm-.483,2.9h-.967v-1.933h.967V156.5Z" transform="translate(-48.3 -145.246)" fill="#7c89f2"/>
      <path id="패스_6687" data-name="패스 6687" d="M273.067,156.983a.484.484,0,0,0,.483.483h1.933a.483.483,0,0,0,.483-.483v-2.9a.483.483,0,0,0-.483-.483H273.55a.484.484,0,0,0-.483.483Zm.967-2.417H275V156.5h-.967v-1.933Z" transform="translate(-258.193 -145.246)" fill="#7c89f2"/>
      <path id="패스_6688" data-name="패스 6688" d="M398.817,102.4h-5.8a.483.483,0,0,0,0,.967h5.317v19.422a1.381,1.381,0,0,0-.732-.067,1.93,1.93,0,0,0-3.37,0,1.421,1.421,0,0,0-.248-.022,1.45,1.45,0,0,0,0,2.9h3.867a1.452,1.452,0,0,0,1.45-1.45V102.883A.484.484,0,0,0,398.817,102.4Zm-.967,22.233h-3.867a.483.483,0,1,1,0-.967.478.478,0,0,1,.262.079.483.483,0,0,0,.733-.3.963.963,0,0,1,1.877,0,.483.483,0,0,0,.733.3.493.493,0,0,1,.745.4A.484.484,0,0,1,397.851,124.633Z" transform="translate(-371.301 -97.6)" fill="#7c89f2"/>
      <path id="패스_6689" data-name="패스 6689" d="M273.55,55.068h1.933a.484.484,0,0,0,.483-.483v-2.9a.484.484,0,0,0-.483-.483H273.55a.483.483,0,0,0-.483.483v2.9A.483.483,0,0,0,273.55,55.068Zm.483-2.9H275V54.1h-.967Z" transform="translate(-258.193 -48.301)" fill="#7c89f2"/>
      <path id="패스_6690" data-name="패스 6690" d="M273.067,259.383a.484.484,0,0,0,.483.483h1.933a.483.483,0,0,0,.483-.483v-2.9a.483.483,0,0,0-.483-.483H273.55a.484.484,0,0,0-.483.483Zm.967-2.417H275V258.9h-.967v-1.933Z" transform="translate(-258.193 -242.077)" fill="#7c89f2"/>
      <path id="패스_6691" data-name="패스 6691" d="M188.217,55.068h1.933a.484.484,0,0,0,.483-.483v-2.9a.484.484,0,0,0-.483-.483h-1.933a.483.483,0,0,0-.483.483v2.9A.483.483,0,0,0,188.217,55.068Zm.483-2.9h.967V54.1H188.7Z" transform="translate(-177.508 -48.301)" fill="#7c89f2"/>
      <path id="패스_6692" data-name="패스 6692" d="M247.606,409.841a.483.483,0,1,0,.686,0A.508.508,0,0,0,247.606,409.841Z" transform="translate(-233.949 -387.5)" fill="#7c89f2"/>
      <path id="패스_6693" data-name="패스 6693" d="M187.733,259.383a.484.484,0,0,0,.483.483h1.933a.484.484,0,0,0,.483-.483v-2.9a.484.484,0,0,0-.483-.483h-1.933a.484.484,0,0,0-.483.483v2.9Zm.967-2.417h.967V258.9H188.7Z" transform="translate(-177.507 -242.077)" fill="#7c89f2"/>
      <path id="패스_6694" data-name="패스 6694" d="M170.667,358.883a.483.483,0,0,0,.483.483h1.45v4.35a.483.483,0,0,0,.967,0v-4.35h3.867v4.35a.483.483,0,0,0,.967,0v-4.35h1.45a.483.483,0,1,0,0-.967h-8.7A.484.484,0,0,0,170.667,358.883Z" transform="translate(-161.5 -339.1)" fill="#7c89f2"/>
      <path id="패스_6695" data-name="패스 6695" d="M409.6,259.383a.484.484,0,0,0,.483.483h1.933a.483.483,0,0,0,.483-.483v-2.9a.483.483,0,0,0-.483-.483h-1.933a.484.484,0,0,0-.483.483Zm.967-2.417h.967V258.9h-.967Z" transform="translate(-387.4 -242.077)" fill="#7c89f2"/>
      <path id="패스_6696" data-name="패스 6696" d="M149.584,0H137.017a.475.475,0,0,0-.483.465v24.17a.484.484,0,0,0,.967,0V.93h11.6V24.635a.484.484,0,0,0,.967,0V.465A.474.474,0,0,0,149.584,0Z" transform="translate(-129.301)" fill="#7c89f2"/>
    </g>
  </g>
</svg>
