<svg xmlns="http://www.w3.org/2000/svg" xmlns:xlink="http://www.w3.org/1999/xlink" width="87.979" height="122.021" viewBox="0 0 87.979 122.021"><defs><clipPath id="a"><rect width="87.979" height="122.021" fill="none"/></clipPath><clipPath id="c"><rect width="5.94" height="6.48" fill="none"/></clipPath><clipPath id="e"><rect width="8.108" height="7.285" fill="none"/></clipPath><clipPath id="f"><rect width="8.108" height="5.579" fill="none"/></clipPath></defs><g clip-path="url(#a)"><g clip-path="url(#a)"><path d="M73.454,85.094a12.6,12.6,0,0,0-3.844,6.1c-.2.591-.412,1.243-.647,1.938,3.962.2,9.034,2.355,12,10.973a6.716,6.716,0,0,1,2.368-4.28c-1.479-9.161-6.158-13.064-9.877-14.726" transform="translate(-8.179 -10.092)" fill="#79371e"/><path d="M73.454,85.094a12.6,12.6,0,0,0-3.844,6.1c-.2.591-.412,1.243-.647,1.938,3.962.2,9.034,2.355,12,10.973a6.716,6.716,0,0,1,2.368-4.28C81.852,90.659,77.172,86.756,73.454,85.094Z" transform="translate(-8.179 -10.092)" fill="none" stroke="#231815" stroke-linecap="round" stroke-linejoin="round" stroke-width="0.022"/><path d="M65.493,103.349c-1,2.9-1.947,5.613-2.554,7.35,4.064.692,9.731,3.2,12.953,11.363a12.865,12.865,0,0,0,3.177-6.287c-2.962-8.584-8.982-11.5-13.576-12.426" transform="translate(-7.464 -12.257)" fill="#79371e"/><path d="M65.493,103.349c-1,2.9-1.947,5.613-2.554,7.35,4.064.692,9.731,3.2,12.953,11.363a12.865,12.865,0,0,0,3.177-6.287C76.107,107.191,70.087,104.275,65.493,103.349Z" transform="translate(-7.464 -12.257)" fill="none" stroke="#231815" stroke-linecap="round" stroke-linejoin="round" stroke-width="0.022"/><path d="M68.592,94.209c-.8,2.393-1.8,5.305-2.755,8.055,4.594.926,10.614,3.843,13.576,12.427a36.8,36.8,0,0,0,.893-7.015,16.207,16.207,0,0,1,.286-2.494c-2.966-8.618-8.038-10.776-12-10.973" transform="translate(-7.808 -11.173)" fill="#dc6e34"/><path d="M89.851,83.321a16.313,16.313,0,0,0-5.9-1.065c-.672.014-1.327.044-1.966.1,3.569,3.129,7.511,8.287,7.312,15.713,1.289-.133,2.594-.176,3.757-.408a27.569,27.569,0,0,0-3.2-14.336" transform="translate(-9.723 -9.755)" fill="#79371e"/><path d="M89.851,83.321a16.313,16.313,0,0,0-5.9-1.065c-.672.014-1.327.044-1.966.1,3.569,3.129,7.511,8.287,7.312,15.713,1.289-.133,2.594-.176,3.757-.408A27.569,27.569,0,0,0,89.851,83.321Z" transform="translate(-9.723 -9.755)" fill="none" stroke="#231815" stroke-linecap="round" stroke-linejoin="round" stroke-width="0.022"/><path d="M62.628,111.688c-.4,1.139-.65,1.858-.675,1.93,0,0-5.389,11.171,3.412,11.985,4.4.406,7.818-.18,10.215-2.553-3.222-8.164-8.889-10.671-12.952-11.363" transform="translate(-7.154 -13.246)" fill="#dc6e34"/><path d="M81.041,82.366a12.238,12.238,0,0,0-6.983,2.4c3.719,1.662,8.4,5.565,9.877,14.726a8.542,8.542,0,0,1,4.418-1.418c.2-7.426-3.743-12.583-7.312-15.713" transform="translate(-8.783 -9.768)" fill="#dc6e34"/><path d="M90.91,83.465a27.569,27.569,0,0,1,3.2,14.336,4.329,4.329,0,0,0,3.861-3.622c1.186-5.5-2.664-9.064-7.059-10.714" transform="translate(-10.782 -9.899)" fill="#dc6e34"/><path d="M61.953,110.239c.112-.318,4.593-13.1,6.631-19.275,2.4-7.257,7.029-8.472,12.794-8.6s14.689,3.783,12.964,11.78-14.1-1.283-14.69,12.222-5.486,16.668-14.286,15.855S61.953,110.239,61.953,110.239Z" transform="translate(-7.154 -9.768)" fill="none" stroke="#231815" stroke-linecap="round" stroke-linejoin="round" stroke-width="1.302"/><path d="M44.541,68.854s-15.875-1.8-16.53,36.5,16.366,15.384,17.267,13.583,4.418-4.827,7.283-.081,4.664,7.119,9.165,6.874,5.973-4.174,6.464-8.1,1.146-51.553-23.649-48.772" transform="translate(-3.32 -8.152)" fill="#e77032"/><path d="M59.372,105.493c-2.643-19.886-18.112-21.6-23.459-3.6-4.194,14.123-1.472,24.215-.1,27.911,4.542-.414,9.659-7.45,10.142-8.415.9-1.8,4.418-4.828,7.283-.082,2.592,4.3,4.314,6.648,7.955,6.873.469-6.371-.722-14.444-1.817-22.686" transform="translate(-3.993 -10.604)" fill="#fff4ea"/><path d="M44.541,68.854s-15.875-1.8-16.53,36.5,16.366,15.384,17.267,13.583,4.418-4.827,7.283-.081,4.664,6.583,9.165,6.337,5.973-3.638,6.464-7.565S69.336,66.073,44.541,68.854Z" transform="translate(-3.32 -8.152)" fill="none" stroke="#231815" stroke-linecap="round" stroke-linejoin="round" stroke-width="1.302"/><path d="M31.539,55.793c2.211,7.733,7.7,24.324,15.882,30.757a1.277,1.277,0,0,0,.277.026.6.6,0,0,0,.034-.308C46.2,85.76,43.157,80.3,41.4,76.068c-3.828-9.235-8.447-23.06-9.356-25.792a25.553,25.553,0,0,0-.371,3c-.063.883-.138,2.514-.138,2.514" transform="translate(-3.74 -5.963)" fill="#171818"/><path d="M53.193,93.013H45.076a.436.436,0,0,0-.435.435v11.341a.436.436,0,0,0,.435.435h8.117a.436.436,0,0,0,.435-.435V93.448a.436.436,0,0,0-.435-.435" transform="translate(-5.294 -11.031)" fill="#fff"/><rect width="7.003" height="0.314" transform="translate(40.339 90.136)" fill="#2463a0"/></g><g transform="translate(40.871 82.976)"><g clip-path="url(#c)"><rect width="5.94" height="6.48" transform="translate(0)" fill="#98bede"/></g></g><g clip-path="url(#a)"><path d="M53.109,92.152H50.335a1.3,1.3,0,0,0-2.57,0H44.992a1.063,1.063,0,0,0-1.063,1.062v11.341a1.064,1.064,0,0,0,1.063,1.063h8.117a1.063,1.063,0,0,0,1.062-1.063V93.214a1.063,1.063,0,0,0-1.062-1.062m-4.059-.813a.331.331,0,1,1-.331.331.331.331,0,0,1,.331-.331m4.494,13.216a.436.436,0,0,1-.435.435H44.992a.437.437,0,0,1-.436-.435V93.214a.437.437,0,0,1,.436-.435h8.117a.436.436,0,0,1,.435.435Z" transform="translate(-5.21 -10.796)" fill="#090909"/><path d="M47.317,96.6s-.388-.872-.1-1.107,1.148.221,1.274.471-.889,1.29-1.177.636" transform="translate(-5.587 -11.318)" fill="#fff4ea"/><path d="M47.317,96.6s-.388-.872-.1-1.107,1.148.221,1.274.471S47.6,97.256,47.317,96.6Z" transform="translate(-5.587 -11.318)" fill="none" stroke="#231815" stroke-miterlimit="10" stroke-width="0.085"/><path d="M47.631,96.419s-.181-.406-.045-.516.535.1.592.219-.361.721-.547.3" transform="translate(-5.638 -11.37)" fill="#79371e"/><path d="M47.631,96.419s-.181-.406-.045-.516.535.1.592.219S47.817,96.843,47.631,96.419Z" transform="translate(-5.638 -11.37)" fill="none" stroke="#231815" stroke-linecap="round" stroke-linejoin="round" stroke-width="0.001"/><path d="M50.714,95.812s.7-.65,1.015-.452.165,1.158-.03,1.357-1.471-.02-.985-.905" transform="translate(-6.002 -11.305)" fill="#fff4ea"/><path d="M50.714,95.812s.7-.65,1.015-.452.165,1.158-.03,1.357S50.229,96.7,50.714,95.812Z" transform="translate(-6.002 -11.305)" fill="none" stroke="#231815" stroke-miterlimit="10" stroke-width="0.085"/><path d="M51.073,96.043s.325-.3.472-.211.077.539-.014.632-.685-.01-.458-.421" transform="translate(-6.051 -11.363)" fill="#79371e"/><path d="M51.073,96.043s.325-.3.472-.211.077.539-.014.632S50.847,96.455,51.073,96.043Z" transform="translate(-6.051 -11.363)" fill="none" stroke="#231815" stroke-linecap="round" stroke-linejoin="round" stroke-width="0.001"/><path d="M47.135,97.5s.3-1.19,1.155-1.495a3.61,3.61,0,0,1,2.45.084,2.686,2.686,0,0,1,1.01,2.532s.323.155.144.191c-.041.008-.294-.021-.227,0,.1.036.281.046.254.111s-.072.044-.323.06a1.872,1.872,0,0,1,.221.064c.047.023.1.078-.249.078,0,0-.425.65-2.218.65s-2.2-.68-2.2-.68-.26.066-.277-.031c-.009-.052.193-.073.193-.073s-.238.048-.274-.016c-.047-.084.274-.2.274-.2s-.267.135-.3,0,.251-.2.251-.2a2.723,2.723,0,0,1,.115-1.08" transform="translate(-5.546 -11.365)" fill="#e77032"/><path d="M48.956,97.466a.577.577,0,0,0,.159.177c.078.041.235.115.231-.023s-.048-.493-.312-.36a.138.138,0,0,0-.078.205" transform="translate(-5.804 -11.531)" fill="#fff4ea"/><path d="M49.754,97.547s.195-.445.4-.375c.219.076.077.256-.058.336-.1.062-.251.187-.307.149a.078.078,0,0,1-.033-.109" transform="translate(-5.899 -11.523)" fill="#fff4ea"/><path d="M47.745,99.766s.587.167.725.185a2.02,2.02,0,0,1-.087-1.167c.113-.435.219-.375-.088-.406-.266-.026-.4-.073-.465.144a2.485,2.485,0,0,0-.085,1.245" transform="translate(-5.657 -11.665)" fill="#fff4ea"/><path d="M50.576,100.015a1.807,1.807,0,0,0,.316-1.09.7.7,0,0,0-.185-.489c-.115-.124.333-.171.415-.175s.258-.027.352.369a1.853,1.853,0,0,1-.132,1.192,2.52,2.52,0,0,1-.765.194" transform="translate(-5.998 -11.653)" fill="#fff4ea"/><path d="M48.082,98.026a.821.821,0,0,1,.743,0" transform="translate(-5.702 -11.615)" fill="none" stroke="#231815" stroke-linecap="round" stroke-linejoin="round" stroke-width="0.08"/><path d="M50.254,98.02a.969.969,0,0,1,.816-.07" transform="translate(-5.96 -11.609)" fill="none" stroke="#231815" stroke-linecap="round" stroke-linejoin="round" stroke-width="0.08"/><path d="M48.912,98.574s.2-.494.522-.494a.792.792,0,0,1,.3,1.5c-.488.157-1.154-.143-.817-1.01" transform="translate(-5.79 -11.632)" fill="#fff4ea"/><path d="M49.324,98.413a.2.2,0,0,1,.186-.147c.152-.011.262.137.19.227-.042.053-.421.069-.375-.079" transform="translate(-5.849 -11.654)" fill="#262727"/><path d="M49.288,98.866s-.011.512.287.512.256-.562.256-.562a.144.144,0,0,1-.153,0,.313.313,0,0,1-.143-.267.31.31,0,0,1-.247.317" transform="translate(-5.845 -11.688)" fill="#d97978"/><path d="M49.288,98.866s-.011.512.287.512.256-.562.256-.562a.144.144,0,0,1-.153,0,.313.313,0,0,1-.143-.267A.31.31,0,0,1,49.288,98.866Z" transform="translate(-5.845 -11.688)" fill="none" stroke="#262727" stroke-linecap="round" stroke-linejoin="round" stroke-width="0.037"/><path d="M49.325,99.085a.522.522,0,0,1,.494-.014v-.214s-.172-.009-.21-.075-.077-.132-.077-.132-.075.185-.182.226l-.073-.011V99Z" transform="translate(-5.844 -11.7)" fill="#fff"/><path d="M49.288,98.866s-.011.512.287.512.256-.562.256-.562a.144.144,0,0,1-.153,0,.313.313,0,0,1-.143-.267A.31.31,0,0,1,49.288,98.866Z" transform="translate(-5.845 -11.688)" fill="none" stroke="#262727" stroke-linecap="round" stroke-linejoin="round" stroke-width="0.058"/><path d="M49.112,98.784s.339.242.4-.256c0,0,.025.457.377.246" transform="translate(-5.825 -11.685)" fill="none" stroke="#262727" stroke-linecap="round" stroke-linejoin="round" stroke-width="0.074"/><path d="M47.115,97.524s.316-1.213,1.175-1.518a3.6,3.6,0,0,1,2.449.083,2.681,2.681,0,0,1,1.011,2.533s.323.155.144.191c-.041.008-.294-.021-.227,0,.1.036.281.046.253.111s-.071.044-.323.06a1.872,1.872,0,0,1,.221.064c.047.023.1.078-.249.078,0,0-.425.65-2.218.65s-2.2-.68-2.2-.68-.26.066-.277-.031c-.009-.052.193-.073.193-.073s-.238.048-.274-.016c-.047-.084.274-.2.274-.2s-.268.135-.3,0,.252-.2.252-.2A2.519,2.519,0,0,1,47.115,97.524Z" transform="translate(-5.546 -11.365)" fill="none" stroke="#231815" stroke-linecap="round" stroke-linejoin="round" stroke-width="0.085"/><path d="M61.619,46.436s-2.4,19.019-6.781,29.928a43.276,43.276,0,0,1-5.068,9.578.659.659,0,0,1-.1.1c-.027.023-.127.048-.113.053a.805.805,0,0,0,.689-.056,7.131,7.131,0,0,0,1.016-.826C58.234,76,60.175,66.878,62.671,53.433c0,0-.139-2.466-.334-3.621-.266-1.579-.718-3.377-.718-3.377" transform="translate(-5.877 -5.507)" fill="#171818"/><g transform="translate(39.808 83.824)" opacity="0.5"><g clip-path="url(#e)"><path d="M53.272,95.1l-8.108,4.915.012,2.37,8.074-4.832Z" transform="translate(-45.164 -95.102)" fill="#fff"/></g></g><g transform="translate(39.847 86.65)" opacity="0.5"><g clip-path="url(#f)"><path d="M53.316,98.309l-8.108,4.915.026.665,8.075-4.832Z" transform="translate(-45.208 -98.309)" fill="#fff"/></g></g><path d="M9.711,21.606S3.38,7.361,8.128,3.517,26.9,7.135,28.931,11.2,14.4,32.289,9.711,21.606" transform="translate(-0.755 -0.29)" fill="#fff4ea"/><path d="M9.711,21.606S3.38,7.361,8.128,3.517,26.9,7.135,28.931,11.2,14.4,32.289,9.711,21.606Z" transform="translate(-0.755 -0.29)" fill="none" stroke="#231815" stroke-miterlimit="10" stroke-width="1.389"/><path d="M14.843,18.6s-2.947-6.631-.737-8.42,8.736,1.683,9.683,3.578S17.882,25.536,14.843,18.6" transform="translate(-1.575 -1.148)" fill="#79371e"/><path d="M14.843,18.6s-2.947-6.631-.737-8.42,8.736,1.683,9.683,3.578S17.882,25.536,14.843,18.6Z" transform="translate(-1.575 -1.148)" fill="none" stroke="#231815" stroke-linecap="round" stroke-linejoin="round" stroke-width="0.022"/><path d="M65.21,8.694S76.618-1.93,81.8,1.308s2.688,18.923-.5,22.173S57.271,23.144,65.21,8.694" transform="translate(-7.521 -0.082)" fill="#fff4ea"/><path d="M65.21,8.694S76.618-1.93,81.8,1.308s2.688,18.923-.5,22.173S57.271,23.144,65.21,8.694Z" transform="translate(-7.521 -0.082)" fill="none" stroke="#231815" stroke-miterlimit="10" stroke-width="1.389"/><path d="M71.076,12.468s5.31-4.946,7.722-3.437,1.252,8.808-.232,10.32-11.185-.156-7.49-6.883" transform="translate(-8.331 -1.037)" fill="#79371e"/><path d="M71.076,12.468s5.31-4.946,7.722-3.437,1.252,8.808-.232,10.32S67.381,19.195,71.076,12.468Z" transform="translate(-8.331 -1.037)" fill="none" stroke="#231815" stroke-linecap="round" stroke-linejoin="round" stroke-width="0.022"/><path d="M6.741,36.3S11.585,16.856,25.6,11.882s31.99-2.706,40.023,1.356c11.718,5.926,19.446,28.491,16.507,41.379,0,0,5.277,2.536,2.345,3.12-.678.135-4.788-.343-3.7.046,1.632.585,4.6.754,4.145,1.809s-1.171.724-5.276.98a30.661,30.661,0,0,1,3.617,1.055c.754.377,1.659,1.282-4.069,1.282,0,0-6.939,10.627-36.22,10.627S7.062,62.419,7.062,62.419,2.809,63.5,2.542,61.91c-.143-.847,3.149-1.187,3.149-1.187S1.8,61.5,1.212,60.458c-.765-1.367,4.479-3.3,4.479-3.3s-4.37,2.2-4.946,0S4.858,53.94,4.858,53.94,3.783,44.061,6.741,36.3" transform="translate(-0.082 -1.072)" fill="#e77032"/><path d="M36.49,35.724a9.418,9.418,0,0,0,2.59,2.9c1.282.679,3.844,1.884,3.769-.376s-.791-8.045-5.087-5.868c-1.935.98-1.772,2.3-1.272,3.349" transform="translate(-4.289 -3.782)" fill="#fff4ea"/><path d="M49.519,37.048s3.189-7.274,6.5-6.131c3.565,1.23,1.244,4.17-.962,5.481-1.687,1-4.1,3.057-5,2.431a1.258,1.258,0,0,1-.537-1.78" transform="translate(-5.852 -3.652)" fill="#fff4ea"/><path d="M16.7,73.29s9.594,2.727,11.854,3.029c0,0-3.957-9.327-1.432-19.069,1.845-7.113,3.58-6.138-1.432-6.633-4.356-.43-6.556-1.206-7.612,2.337A40.8,40.8,0,0,0,16.7,73.29" transform="translate(-1.897 -5.957)" fill="#fff4ea"/><path d="M62.939,77.345s6.12-8.5,5.157-17.812c-.452-4.372-1.131-5.954-3.015-7.989s5.427-2.79,6.784-2.864,4.22-.452,5.728,6.029.345,15.928-2.143,19.47a41.346,41.346,0,0,1-12.512,3.166" transform="translate(-7.464 -5.77)" fill="#fff4ea"/><path d="M22.2,44.859s6.331-3.392,12.135,0" transform="translate(-2.633 -5.141)" fill="none" stroke="#231815" stroke-linecap="round" stroke-linejoin="round" stroke-width="1.302"/><path d="M57.688,44.771s6.407-3.995,13.341-1.131" transform="translate(-6.842 -5.053)" fill="none" stroke="#231815" stroke-linecap="round" stroke-linejoin="round" stroke-width="1.302"/><path d="M35.766,53.811s3.317-8.08,8.517-8.065c5.972.018,9.572,2.865,11.532,8.969s1.281,13.039-6.708,15.6S30.263,67.981,35.766,53.811" transform="translate(-4.064 -5.425)" fill="#fff4ea"/><path d="M42.51,51.192a3.353,3.353,0,0,1,3.042-2.409c2.492-.179,4.278,2.233,3.1,3.7-.693.863-6.888,1.128-6.139-1.3" transform="translate(-5.034 -5.784)" fill="#262727"/><path d="M41.91,58.59s-.169,8.366,4.692,8.366,4.176-9.181,4.176-9.181a2.351,2.351,0,0,1-2.5,0A5.153,5.153,0,0,1,45.938,53.4s.1,4.569-4.028,5.191" transform="translate(-4.97 -6.333)" fill="#d97978"/><path d="M41.91,58.59s-.169,8.366,4.692,8.366,4.176-9.181,4.176-9.181a2.351,2.351,0,0,1-2.5,0A5.153,5.153,0,0,1,45.938,53.4S46.037,57.968,41.91,58.59Z" transform="translate(-4.97 -6.333)" fill="none" stroke="#262727" stroke-linecap="round" stroke-linejoin="round" stroke-width="0.608"/><path d="M42.513,62.18A8.52,8.52,0,0,1,50.6,61.95v-3.5s-2.813-.145-3.434-1.23S45.9,55.071,45.9,55.071,44.689,58.1,42.951,58.76l-1.2-.2v2.163Z" transform="translate(-4.951 -6.531)" fill="#fff"/><path d="M41.91,58.59s-.169,8.366,4.692,8.366,4.176-9.181,4.176-9.181a2.351,2.351,0,0,1-2.5,0A5.153,5.153,0,0,1,45.938,53.4S46.037,57.968,41.91,58.59Z" transform="translate(-4.97 -6.333)" fill="none" stroke="#262727" stroke-linecap="round" stroke-linejoin="round" stroke-width="0.955"/><path d="M39.024,57.25s5.54,3.957,6.614-4.183c0,0,.4,7.462,6.162,4.014" transform="translate(-4.628 -6.294)" fill="none" stroke="#262727" stroke-linecap="round" stroke-linejoin="round" stroke-width="1.216"/><path d="M6.411,36.668S11.584,16.852,25.6,11.877,55.98,9.036,65.626,13.234c11.348,4.939,19.446,28.49,16.506,41.379,0,0,5.277,2.536,2.346,3.12-.679.135-4.788-.343-3.7.046,1.632.584,4.6.754,4.145,1.809s-1.171.724-5.276.98a30.492,30.492,0,0,1,3.618,1.055c.754.376,1.658,1.282-4.07,1.282,0,0-6.939,10.627-36.219,10.627S7.062,62.414,7.062,62.414s-4.255,1.078-4.521-.509C2.4,61.059,5.69,60.718,5.69,60.718S1.8,61.5,1.211,60.454c-.765-1.367,4.478-3.3,4.478-3.3s-4.37,2.2-4.946,0,4.114-3.222,4.114-3.222A41.223,41.223,0,0,1,6.411,36.668Z" transform="translate(-0.082 -1.067)" fill="none" stroke="#231815" stroke-linecap="round" stroke-linejoin="round" stroke-width="1.389"/><path d="M60.208,135.785s-1.65-2.827,1.953-5.422,7.3,0,8.107.726c.667.6,2.716,5.016-.857,5.531s-3.76-1.455-7.16-.011a1.47,1.47,0,0,1-2.044-.825" transform="translate(-7.096 -15.327)" fill="#dc6e34"/><path d="M60.208,135.785s-1.65-2.827,1.953-5.422,7.3,0,8.107.726c.667.6,2.716,5.016-.857,5.531s-3.76-1.455-7.16-.011A1.47,1.47,0,0,1,60.208,135.785Z" transform="translate(-7.096 -15.327)" fill="none" stroke="#231815" stroke-linecap="round" stroke-linejoin="round" stroke-width="1.302"/><path d="M31.1,135.785s-1.65-2.827,1.953-5.422,7.3,0,8.107.726c.667.6,2.716,5.016-.857,5.531s-3.76-1.455-7.16-.011a1.47,1.47,0,0,1-2.044-.825" transform="translate(-3.644 -15.327)" fill="#dc6e34"/><path d="M31.1,135.785s-1.65-2.827,1.953-5.422,7.3,0,8.107.726c.667.6,2.716,5.016-.857,5.531s-3.76-1.455-7.16-.011A1.47,1.47,0,0,1,31.1,135.785Z" transform="translate(-3.644 -15.327)" fill="none" stroke="#231815" stroke-linecap="round" stroke-linejoin="round" stroke-width="1.302"/><path d="M66.789,90.343s8.167-1.338,9.783-11.6c1.646-10.453,3.44-14.667-1.583-15.7s-4.642,2.6-4.677,4.935S67.7,74.226,66.393,79.339" transform="translate(-7.874 -7.456)" fill="#dc6e34"/><path d="M66.789,90.343s8.167-1.338,9.783-11.6c1.646-10.453,3.44-14.667-1.583-15.7s-4.642,2.6-4.677,4.935S67.7,74.226,66.393,79.339" transform="translate(-7.874 -7.456)" fill="none" stroke="#231815" stroke-linecap="round" stroke-linejoin="round" stroke-width="1.302"/><path d="M69.325,71.1a19.806,19.806,0,0,0-1.181,4.218,2.463,2.463,0,0,0,.021,1.445,1.664,1.664,0,0,0,.524.628,5.149,5.149,0,0,0,2.08.825,31.938,31.938,0,0,0,4.92.735,1.324,1.324,0,0,0,.827-.131,1.3,1.3,0,0,0,.415-.564,18.877,18.877,0,0,0,1.181-3.917q.353-1.58.707-3.162" transform="translate(-8.07 -8.432)" fill="#d1d1d1"/><path d="M69.261,77.978a3.463,3.463,0,0,1-.737-.432,1.882,1.882,0,0,1-.585-.709,2.633,2.633,0,0,1-.035-1.583,20.209,20.209,0,0,1,1.2-4.271.224.224,0,0,1,.287-.129h0a.221.221,0,0,1,.1.3,19.762,19.762,0,0,0-1.164,4.166,2.262,2.262,0,0,0,.006,1.306,1.48,1.48,0,0,0,.462.55,5.006,5.006,0,0,0,2,.787,31.38,31.38,0,0,0,4.888.731,1.165,1.165,0,0,0,.7-.094,1.091,1.091,0,0,0,.327-.464,18.627,18.627,0,0,0,1.163-3.864l.708-3.162a.233.233,0,0,1,.26-.187.211.211,0,0,1,.16.264l-.707,3.162a19.069,19.069,0,0,1-1.2,3.969,1.527,1.527,0,0,1-.5.665,1.5,1.5,0,0,1-.961.167,31.833,31.833,0,0,1-4.95-.739,7.771,7.771,0,0,1-1.421-.429" transform="translate(-8.041 -8.401)" fill="#df9669"/><path d="M69.261,77.978a3.463,3.463,0,0,1-.737-.432,1.882,1.882,0,0,1-.585-.709,2.633,2.633,0,0,1-.035-1.583,20.209,20.209,0,0,1,1.2-4.271.224.224,0,0,1,.287-.129h0a.221.221,0,0,1,.1.3,19.762,19.762,0,0,0-1.164,4.166,2.262,2.262,0,0,0,.006,1.306,1.48,1.48,0,0,0,.462.55,5.006,5.006,0,0,0,2,.787,31.38,31.38,0,0,0,4.888.731,1.165,1.165,0,0,0,.7-.094,1.091,1.091,0,0,0,.327-.464,18.627,18.627,0,0,0,1.163-3.864l.708-3.162a.233.233,0,0,1,.26-.187.211.211,0,0,1,.16.264l-.707,3.162a19.069,19.069,0,0,1-1.2,3.969,1.527,1.527,0,0,1-.5.665,1.5,1.5,0,0,1-.961.167,31.833,31.833,0,0,1-4.95-.739A7.771,7.771,0,0,1,69.261,77.978Z" transform="translate(-8.041 -8.401)" fill="none" stroke="#231815" stroke-linecap="round" stroke-linejoin="round" stroke-width="0.695"/><path d="M65.86,60.567a5.641,5.641,0,0,1,.462-3.892,3,3,0,0,1,3.242-1.6,15.514,15.514,0,0,1,.332-3.578,3.19,3.19,0,0,1,.733-1.64,2.788,2.788,0,0,1,.905-.549,12,12,0,0,1,9.577.573,6.888,6.888,0,0,1,1.88,1.171c1.5,1.4,1.884,3.811,1.488,5.986a21.834,21.834,0,0,1-2.494,6.15l-3.162,5.967a4.85,4.85,0,0,1-.811,1.215c-1.044,1.027-2.639.777-3.949.409q-2.133-.6-4.209-1.364c-1.488-.547-1.282-2.931-1.763-4.294-.581-1.65-1.859-2.723-2.232-4.55" transform="translate(-7.794 -5.758)" fill="#e56367"/><path d="M69.64,69.554c-1.062-.467-1.282-1.806-1.478-2.991a8.624,8.624,0,0,0-.3-1.385,9.325,9.325,0,0,0-1-1.891,7.87,7.87,0,0,1-1.24-2.689,5.858,5.858,0,0,1,.49-4.062,3.3,3.3,0,0,1,3.2-1.784,15.751,15.751,0,0,1,.342-3.324,3.428,3.428,0,0,1,.8-1.766,2.965,2.965,0,0,1,.978-.6,12.108,12.108,0,0,1,9.741.574,7.085,7.085,0,0,1,1.933,1.2,6.83,6.83,0,0,1,1.55,6.19,21.907,21.907,0,0,1-2.519,6.222l-3.162,5.967a5.089,5.089,0,0,1-.857,1.276c-1.16,1.141-2.928.813-4.158.467-1.419-.4-2.84-.859-4.223-1.368-.035-.013-.071-.027-.1-.042m-3.6-9.08a7.44,7.44,0,0,0,1.182,2.543,9.773,9.773,0,0,1,1.042,1.977,8.842,8.842,0,0,1,.321,1.462c.191,1.163.385,2.367,1.321,2.708,1.374.505,2.785.962,4.194,1.358,1.225.345,2.757.616,3.74-.35a4.623,4.623,0,0,0,.766-1.154l3.162-5.967a21.575,21.575,0,0,0,2.469-6.076c.334-1.839.136-4.323-1.424-5.781a6.755,6.755,0,0,0-1.828-1.136,11.713,11.713,0,0,0-9.413-.571,2.553,2.553,0,0,0-.83.5,2.947,2.947,0,0,0-.665,1.513,15.284,15.284,0,0,0-.328,3.521l.009.334-.3-.093a2.8,2.8,0,0,0-2.985,1.492,5.37,5.37,0,0,0-.434,3.721" transform="translate(-7.765 -5.727)" fill="#df9669"/><path d="M69.64,69.554c-1.062-.467-1.282-1.806-1.478-2.991a8.624,8.624,0,0,0-.3-1.385,9.325,9.325,0,0,0-1-1.891,7.87,7.87,0,0,1-1.24-2.689,5.858,5.858,0,0,1,.49-4.062,3.3,3.3,0,0,1,3.2-1.784,15.751,15.751,0,0,1,.342-3.324,3.428,3.428,0,0,1,.8-1.766,2.965,2.965,0,0,1,.978-.6,12.108,12.108,0,0,1,9.741.574,7.085,7.085,0,0,1,1.933,1.2,6.83,6.83,0,0,1,1.55,6.19,21.907,21.907,0,0,1-2.519,6.222l-3.162,5.967a5.089,5.089,0,0,1-.857,1.276c-1.16,1.141-2.928.813-4.158.467-1.419-.4-2.84-.859-4.223-1.368C69.709,69.583,69.673,69.569,69.64,69.554Zm-3.6-9.08a7.44,7.44,0,0,0,1.182,2.543,9.773,9.773,0,0,1,1.042,1.977,8.842,8.842,0,0,1,.321,1.462c.191,1.163.385,2.367,1.321,2.708,1.374.505,2.785.962,4.194,1.358,1.225.345,2.757.616,3.74-.35a4.623,4.623,0,0,0,.766-1.154l3.162-5.967a21.575,21.575,0,0,0,2.469-6.076c.334-1.839.136-4.323-1.424-5.781a6.755,6.755,0,0,0-1.828-1.136,11.713,11.713,0,0,0-9.413-.571,2.553,2.553,0,0,0-.83.5,2.947,2.947,0,0,0-.665,1.513,15.284,15.284,0,0,0-.328,3.521l.009.334-.3-.093a2.8,2.8,0,0,0-2.985,1.492A5.37,5.37,0,0,0,66.043,60.474Z" transform="translate(-7.765 -5.727)" fill="none" stroke="#231815" stroke-linecap="round" stroke-linejoin="round" stroke-width="0.695"/><path d="M70.31,61.617l0,0a.223.223,0,0,1-.1-.3,3.308,3.308,0,0,0,.249-1.775,8.593,8.593,0,0,0-.171-.9c-.029-.129-.058-.258-.085-.388a21.765,21.765,0,0,1-.243-5.027.241.241,0,0,1,.222-.236.205.205,0,0,1,.209.22,21.441,21.441,0,0,0,.234,4.917c.026.127.055.253.084.379a8.9,8.9,0,0,1,.179.947,3.805,3.805,0,0,1-.293,2.04.223.223,0,0,1-.286.123" transform="translate(-8.293 -6.285)" fill="#df9669"/><path d="M70.31,61.617l0,0a.223.223,0,0,1-.1-.3,3.308,3.308,0,0,0,.249-1.775,8.593,8.593,0,0,0-.171-.9c-.029-.129-.058-.258-.085-.388a21.765,21.765,0,0,1-.243-5.027.241.241,0,0,1,.222-.236.205.205,0,0,1,.209.22,21.441,21.441,0,0,0,.234,4.917c.026.127.055.253.084.379a8.9,8.9,0,0,1,.179.947,3.805,3.805,0,0,1-.293,2.04A.223.223,0,0,1,70.31,61.617Z" transform="translate(-8.293 -6.285)" fill="none" stroke="#231815" stroke-linecap="round" stroke-linejoin="round" stroke-width="0.695"/><path d="M68.522,73.829a.221.221,0,0,1-.1-.3.224.224,0,0,1,.288-.127,22.72,22.72,0,0,0,9.112,1.759.205.205,0,0,1,.211.219.241.241,0,0,1-.221.238,22.829,22.829,0,0,1-9.289-1.792" transform="translate(-8.112 -8.704)" fill="#df9669"/><path d="M68.522,73.829a.221.221,0,0,1-.1-.3.224.224,0,0,1,.288-.127,22.72,22.72,0,0,0,9.112,1.759.205.205,0,0,1,.211.219.241.241,0,0,1-.221.238A22.829,22.829,0,0,1,68.522,73.829Z" transform="translate(-8.112 -8.704)" fill="none" stroke="#231815" stroke-linecap="round" stroke-linejoin="round" stroke-width="0.695"/><path d="M69.125,76.552q-.506-.222-1-.48a.226.226,0,0,1-.082-.3.222.222,0,0,1,.294-.107,15.988,15.988,0,0,0,8.774,1.752.2.2,0,0,1,.219.21.243.243,0,0,1-.213.245,16.44,16.44,0,0,1-7.993-1.315" transform="translate(-8.067 -8.97)" fill="#df9669"/><path d="M69.125,76.552q-.506-.222-1-.48a.226.226,0,0,1-.082-.3.222.222,0,0,1,.294-.107,15.988,15.988,0,0,0,8.774,1.752.2.2,0,0,1,.219.21.243.243,0,0,1-.213.245A16.44,16.44,0,0,1,69.125,76.552Z" transform="translate(-8.067 -8.97)" fill="none" stroke="#231815" stroke-linecap="round" stroke-linejoin="round" stroke-width="0.695"/><path d="M37.708,88.2,17.24,94.95,6.363,61.942,26.83,55.2a3.041,3.041,0,0,1,3.841,1.937l8.974,27.23A3.043,3.043,0,0,1,37.708,88.2" transform="translate(-0.755 -6.528)" fill="#141f3f"/><path d="M37.708,88.2,17.24,94.95,6.363,61.942,26.83,55.2a3.041,3.041,0,0,1,3.841,1.937l8.974,27.23A3.043,3.043,0,0,1,37.708,88.2Z" transform="translate(-0.755 -6.528)" fill="none" stroke="#141f3f" stroke-linecap="round" stroke-linejoin="round" stroke-width="0.627"/><path d="M35.96,88.782,15.492,95.527,4.615,62.519l20.467-6.745a3.041,3.041,0,0,1,3.841,1.937L37.9,84.941a3.043,3.043,0,0,1-1.937,3.841" transform="translate(-0.547 -6.596)" fill="#00996a"/><path d="M35.96,88.782,15.492,95.527,4.615,62.519l20.467-6.745a3.041,3.041,0,0,1,3.841,1.937L37.9,84.941A3.043,3.043,0,0,1,35.96,88.782Z" transform="translate(-0.547 -6.596)" fill="none" stroke="#141f3f" stroke-linecap="round" stroke-linejoin="round" stroke-width="0.627"/><rect width="2.623" height="34.755" transform="translate(4.069 55.921) rotate(-18.234)" fill="#687ab5"/><rect width="2.623" height="34.755" transform="translate(4.069 55.921) rotate(-18.234)" fill="none" stroke="#141f3f" stroke-linecap="round" stroke-linejoin="round" stroke-width="0.627"/><path d="M29.068,67.214c.741,2.248-1.761,5.095-5.588,6.356s-7.532.461-8.272-1.788,1.76-5.095,5.588-6.356,7.531-.46,8.272,1.788" transform="translate(-1.788 -7.688)" fill="#f3b411"/><path d="M29.068,67.214c.741,2.248-1.761,5.095-5.588,6.356s-7.532.461-8.272-1.788,1.76-5.095,5.588-6.356S28.326,64.966,29.068,67.214Z" transform="translate(-1.788 -7.688)" fill="none" stroke="#141f3f" stroke-linecap="round" stroke-linejoin="round" stroke-width="0.627"/><path d="M23.191,72.247a8.835,8.835,0,0,1-4.442.377c-.949-.205-1.615-.628-1.78-1.132-.34-1.032,1.265-3.222,4.555-4.307a8.824,8.824,0,0,1,4.442-.377c.948.2,1.614.628,1.78,1.132.34,1.032-1.266,3.222-4.555,4.307" transform="translate(-2.007 -7.907)" fill="#fff"/><path d="M23.191,72.247a8.835,8.835,0,0,1-4.442.377c-.949-.205-1.615-.628-1.78-1.132-.34-1.032,1.265-3.222,4.555-4.307a8.824,8.824,0,0,1,4.442-.377c.948.2,1.614.628,1.78,1.132C28.086,68.972,26.48,71.163,23.191,72.247Z" transform="translate(-2.007 -7.907)" fill="none" stroke="#141f3f" stroke-linecap="round" stroke-linejoin="round" stroke-width="0.627"/><line y1="1.82" x2="5.522" transform="translate(17.394 60.31)" fill="#fff"/><line y1="1.82" x2="5.522" transform="translate(17.394 60.31)" fill="none" stroke="#141f3f" stroke-linecap="round" stroke-linejoin="round" stroke-width="0.627"/><line x1="5.522" y2="1.82" transform="translate(17.783 61.489)" fill="#fff"/><line x1="5.522" y2="1.82" transform="translate(17.783 61.489)" fill="none" stroke="#141f3f" stroke-linecap="round" stroke-linejoin="round" stroke-width="0.627"/><path d="M63.328,52.186l-2.856,4.2-3.507-4.1-1.557-1.818.559-.822,2.263.782Z" transform="translate(-6.571 -5.888)" fill="#fff"/><path d="M63.328,52.186l-2.856,4.2-3.507-4.1-1.557-1.818.559-.822,2.263.782Z" transform="translate(-6.571 -5.888)" fill="none" stroke="#141f3f" stroke-linecap="round" stroke-linejoin="round" stroke-width="0.914"/><rect width="5.077" height="28.059" transform="matrix(0.563, -0.827, 0.827, 0.563, 53.901, 50.495)" fill="#687ab5"/><rect width="5.077" height="28.059" transform="matrix(0.563, -0.827, 0.827, 0.563, 53.901, 50.495)" fill="none" stroke="#141f3f" stroke-linecap="round" stroke-linejoin="round" stroke-width="0.914"/><path d="M58.23,50.427l-1.266,1.86-1.557-1.819.56-.822Z" transform="translate(-6.571 -5.888)" fill="#141f3f"/><path d="M58.23,50.427l-1.266,1.86-1.557-1.819.56-.822Z" transform="translate(-6.571 -5.888)" fill="none" stroke="#141f3f" stroke-linecap="round" stroke-linejoin="round" stroke-width="0.914"/><rect width="5.077" height="1.799" transform="translate(77.097 66.283) rotate(-55.761)" fill="#f3b411"/><rect width="5.077" height="1.799" transform="translate(77.097 66.283) rotate(-55.761)" fill="none" stroke="#141f3f" stroke-linecap="round" stroke-linejoin="round" stroke-width="0.914"/><path d="M94.371,74.619l-1.528,2.246a1.18,1.18,0,0,1-1.64.312l-2.045-1.392,2.857-4.2,2.045,1.392a1.18,1.18,0,0,1,.312,1.639" transform="translate(-10.574 -8.49)" fill="#00996a"/><path d="M94.371,74.619l-1.528,2.246a1.18,1.18,0,0,1-1.64.312l-2.045-1.392,2.857-4.2,2.045,1.392A1.18,1.18,0,0,1,94.371,74.619Z" transform="translate(-10.574 -8.49)" fill="none" stroke="#141f3f" stroke-linecap="round" stroke-linejoin="round" stroke-width="0.914"/><path d="M47.106,104.221a3.894,3.894,0,0,1-.39.051v.516h-.3v-.5c-.133.005-.258.005-.374.005l-.033-.238a8.672,8.672,0,0,0,1.075-.048Zm-1.053-.442c.263-.044.359-.162.368-.286H46.1v-.227h.317v-.155h.3v.155h.316v.227h-.315c.011.115.106.22.359.259l-.115.229a.6.6,0,0,1-.39-.207.594.594,0,0,1-.407.234Zm1.418,1.061h-.3v-1.734h.3Z" transform="translate(-5.457 -12.228)" fill="#231815"/><path d="M49.394,103.108v.933h-.3v-.331h-.236a.446.446,0,0,1-.448.3.423.423,0,1,1,0-.842.449.449,0,0,1,.446.3h.238v-.364Zm-.3,1h.3v.713H48.22v-.713h.3v.135H49.1Zm-.509-.516a.179.179,0,1,0-.179.175.164.164,0,0,0,.179-.175m.509.876h-.583v.118H49.1Z" transform="translate(-5.686 -12.228)" fill="#231815"/><path d="M50.674,104.112a4.237,4.237,0,0,1-.809.061l-.03-.239h.113v-.442h-.085v-.234h.787v.234h-.085v.414l.092-.011Zm.7.469v.235H50.14v-.549h.3v.314Zm-1.163-.652.085,0v-.433h-.085Zm.778.436h-.278v-1.228h.278v.458h.064v-.487h.283v1.312h-.283v-.586h-.064Z" transform="translate(-5.91 -12.228)" fill="#231815"/><path d="M52.152,104.189a3.833,3.833,0,0,0,.617-.05l.028.244a4.393,4.393,0,0,1-.792.054h-.152v-1.176h.811v.239h-.513Zm1.245-.222h-.233v.878h-.3V103.1h.3v.619H53.4Z" transform="translate(-6.15 -12.228)" fill="#231815"/></g></g></svg>