<svg xmlns="http://www.w3.org/2000/svg" xmlns:xlink="http://www.w3.org/1999/xlink" width="50" height="100" viewBox="0 0 50 100"><defs><clipPath id="a"><path d="M6,0H50a0,0,0,0,1,0,0V50a0,0,0,0,1,0,0H0a0,0,0,0,1,0,0V6A6,6,0,0,1,6,0Z" fill="#444"/></clipPath><clipPath id="b"><path d="M6,0H50a0,0,0,0,1,0,0V50a0,0,0,0,1,0,0H0a0,0,0,0,1,0,0V6A6,6,0,0,1,6,0Z" transform="translate(1870 737)" fill="#444"/></clipPath></defs><g transform="translate(-1766 -444)"><g transform="translate(1766 444)"><g clip-path="url(#a)"><g transform="translate(-1870 -240)"><g transform="translate(940.646 -42.767)"><line y2="12.003" transform="translate(954.427 303.523) rotate(45)" fill="none" stroke="#fff" stroke-linecap="round" stroke-width="1.5"/><line y1="12.003" transform="translate(962.915 312.011) rotate(135)" fill="none" stroke="#fff" stroke-linecap="round" stroke-width="1.5"/></g></g></g></g><g transform="translate(-104 -243)"><g clip-path="url(#b)"><path d="M-12.307-10.062V-9h3.432V0h1.23V-9h3.432v-1.066ZM-.506.123c2.734,0,4.43-1.969,4.43-5.154S2.229-10.2-.506-10.2s-4.43,1.982-4.43,5.168S-3.227.123-.506.123ZM-3.623-5.031c0-2.6,1.135-4.088,3.117-4.088s3.117,1.49,3.117,4.088S1.49-.943-.506-.943-3.623-2.434-3.623-5.031ZM8.63-10.062H4.884V0h1.23V-3.842H8.63a2.985,2.985,0,0,0,3.322-3.1C11.952-8.859,10.721-10.062,8.63-10.062ZM6.114-4.908V-9H8.63a1.9,1.9,0,0,1,2.119,2.051A1.894,1.894,0,0,1,8.63-4.908Z" transform="translate(1895 766)" fill="#fff"/></g></g></g></svg>