<svg xmlns="http://www.w3.org/2000/svg" width="17.947" height="19.5" viewBox="0 0 17.947 19.5"><g transform="translate(18311 19198)"><g transform="translate(-18309 -19196.5)" fill="none"><path d="M0,15V7H0A7,7,0,1,1,14,7h0v8Z" stroke="none"/><path d="M 11.99770069122314 13.00030040740967 L 11.99770069122314 6.999300003051758 C 11.99770069122314 4.242680072784424 9.755430221557617 2.000000238418579 6.999300479888916 2.000000238418579 C 4.242680549621582 2.000000238418579 2.000000238418579 4.242680072784424 2.000000238418579 7.000200271606445 L 2.000000238418579 13.00030040740967 L 11.99770069122314 13.00030040740967 M 13.99770069122314 15.00030040740967 L 3.45611567809101e-07 15.00030040740967 L 3.45611567809101e-07 7.000200271606445 C 3.45611567809101e-07 6.999960422515869 3.45611567809101e-07 6.999540328979492 3.45611567809101e-07 6.999300003051758 C 3.45611567809101e-07 3.133800268173218 3.133800268173218 2.037048290048915e-07 6.999300479888916 2.037048290048915e-07 C 10.86480045318604 2.037048290048915e-07 13.99770069122314 3.133800268173218 13.99770069122314 6.999300003051758 C 13.99770069122314 6.999540328979492 13.99770069122314 6.999960422515869 13.99770069122314 7.000200271606445 L 13.99770069122314 15.00030040740967 Z" stroke="none" fill="#121212"/></g><path d="M-23036.164-19138.2l3.9,4.8h-3.9Z" transform="translate(4739.213 -48.105)" fill="#121212"/><g transform="translate(-18304 -19181.5)"><path d="M4,1A2,2,0,0,1,0,1Z" fill="#121212"/></g><g transform="translate(-18300 -19195) rotate(180)"><path d="M4,1A2,2,0,0,1,0,1Z" fill="#121212"/></g><path d="M-23032.266-19138.2l-3.9,4.8h3.9Z" transform="translate(4725.164 -48.105)" fill="#121212"/></g></svg>