<svg xmlns="http://www.w3.org/2000/svg" xmlns:xlink="http://www.w3.org/1999/xlink" width="50" height="100" viewBox="0 0 50 100"><defs><clipPath id="a"><rect width="50" height="50" transform="translate(1870 981)" fill="#fff"/></clipPath><clipPath id="b"><rect width="16" height="23.54" transform="translate(0 0)" fill="none" stroke="#666" stroke-width="1.5"/></clipPath><clipPath id="c"><rect width="50" height="50" transform="translate(1870 786)" fill="#444"/></clipPath></defs><g transform="translate(-1870 -981)"><g clip-path="url(#a)"><g transform="translate(-7715.376 -1290.77)"><g transform="translate(9602.35 2285)" clip-path="url(#b)"><path d="M12.615,18.76l1.044-4.426a7.037,7.037,0,1,0-9.244,0L5.459,18.76" transform="translate(-1.037 -1.037)" fill="none" stroke="#666" stroke-linejoin="round" stroke-width="1.5"/><line x2="7.156" transform="translate(4.422 19.73)" fill="none" stroke="#666" stroke-linecap="round" stroke-linejoin="round" stroke-width="1.5"/><line x2="7.156" transform="translate(4.422 22.577)" fill="none" stroke="#666" stroke-linecap="round" stroke-linejoin="round" stroke-width="1.5"/></g><path d="M.77-1.9a.522.522,0,0,1-.082.292.737.737,0,0,1-.2.209.864.864,0,0,1-.264.121.988.988,0,0,1-.253.039A1.009,1.009,0,0,1-.61-1.4a.585.585,0,0,1-.248-.5L-1.023-6.71A.834.834,0,0,1-.8-7.321a.992.992,0,0,1,.765-.258.982.982,0,0,1,.742.258.853.853,0,0,1,.248.611ZM-1.111.2A.82.82,0,0,0-.8.9a1.251,1.251,0,0,0,.776.237A1.275,1.275,0,0,0,.759.9.815.815,0,0,0,1.078.2a.83.83,0,0,0-.319-.7A1.255,1.255,0,0,0-.022-.748,1.231,1.231,0,0,0-.8-.506.835.835,0,0,0-1.111.2Z" transform="translate(9610.222 2297.262)" fill="#666"/></g></g><g transform="translate(0 245)" clip-path="url(#c)"><path d="M.984-10.623H-4.881v5.8h1a33.566,33.566,0,0,0,5.988-.355l-.123-.9a31.057,31.057,0,0,1-5.77.355V-7.314H.643v-.9h-4.43v-1.5H.984ZM-3.418.889h7.93v-4.7H3.418V-2.42H-2.338V-3.814h-1.08Zm1.08-.9V-1.531H3.418V-.014ZM3.4-4.416H4.512v-6.877H3.4Z" transform="translate(1895 815)" fill="#666"/></g></g></svg>