<svg xmlns="http://www.w3.org/2000/svg" xmlns:xlink="http://www.w3.org/1999/xlink" width="50" height="100" viewBox="0 0 50 100"><defs><clipPath id="a"><rect width="50" height="50" fill="#444"/></clipPath><clipPath id="b"><rect width="50" height="50" transform="translate(1870 835)" fill="#444"/></clipPath></defs><g transform="translate(-1691 -542)"><g transform="translate(1691 542)"><g clip-path="url(#a)"><g transform="translate(-1621.456 -999.306)"><g transform="translate(1636.456 1015.567)"><path d="M36.7,11.736v5.775h4.812" transform="translate(-26.831 -7.141)" fill="none" stroke="#fff" stroke-linecap="round" stroke-linejoin="round" stroke-width="1.5"/><path d="M11.63,19.739a9.37,9.37,0,1,0-9.369-9.37L1,8.656" transform="translate(-1 -1)" fill="none" stroke="#fff" stroke-linecap="round" stroke-linejoin="round" stroke-width="1.5"/></g><line x1="2.357" y2="2.008" transform="translate(1638.03 1023.147)" fill="none" stroke="#fff" stroke-linecap="round" stroke-linejoin="round" stroke-width="1.5"/></g></g></g><g transform="translate(-179 -243)" clip-path="url(#b)"><path d="M-6.707-4.771H-7.815v2.311c-1.258.041-2.461.041-3.486.041l.15.93a44.618,44.618,0,0,0,8.012-.533l-.1-.82c-1.121.164-2.3.273-3.473.328Zm-4.211-.451.52.861A4.869,4.869,0,0,0-7.254-7.123,4.916,4.916,0,0,0-4.1-4.5l.52-.861A3.911,3.911,0,0,1-6.707-8.777h2.871v-.9H-6.707v-1.531H-7.815V-9.68h-2.816v.9h2.816A3.967,3.967,0,0,1-10.918-5.223Zm8.5,6.289h1.107V-11.307H-2.414ZM9.907-10.568H1.594v.916H8.813v.041a19.176,19.176,0,0,1-.328,3.992H.159V-4.7h11.2v-.916H9.592a19.99,19.99,0,0,0,.314-3.992ZM1.635.779h8.641V-.137H2.743V-3.309H1.635Z" transform="translate(1895 866)" fill="#fff"/></g></g></svg>