<svg xmlns="http://www.w3.org/2000/svg" xmlns:xlink="http://www.w3.org/1999/xlink" width="50" height="50" viewBox="0 0 50 50"><defs><clipPath id="a"><rect width="50" height="50" transform="translate(1 2)" fill="none"/></clipPath></defs><g transform="translate(-1 -2)"><g clip-path="url(#a)"><path d="M.082-8.625v.914H3.023V0H4.078V-7.711H7.02v-.914ZM10.618.105c2.344,0,3.8-1.687,3.8-4.418s-1.453-4.43-3.8-4.43-3.8,1.7-3.8,4.43S8.286.105,10.618.105ZM7.946-4.312c0-2.227.973-3.5,2.672-3.5s2.672,1.277,2.672,3.5-.961,3.5-2.672,3.5S7.946-2.086,7.946-4.312Zm11.4-4.312H16.137V0h1.055V-3.293h2.156A2.559,2.559,0,0,0,22.2-5.953,2.55,2.55,0,0,0,19.348-8.625ZM17.192-4.207v-3.5h2.156a1.632,1.632,0,0,1,1.816,1.758,1.623,1.623,0,0,1-1.816,1.746Z" transform="translate(14.861 31.318)" fill="#ff460a"/></g></g></svg>