<svg width="32" height="32" viewBox="0 0 32 32" fill="none" xmlns="http://www.w3.org/2000/svg">
<path d="M7.0932 19.4897L1 19.0237L6.58284 13.4364L15.6583 12.5977L7.0932 19.4897Z" fill="#FF7D53" stroke="#FF7D53" stroke-linejoin="round"/>
<path d="M12.623 25.0202L13.089 31.1134L18.6719 25.5305L19.5106 16.4551L12.623 25.0202Z" fill="#FF7D53" stroke="#FF7D53" stroke-linejoin="round"/>
<path d="M23.394 17.8476C19.7372 21.5044 15.7831 24.0518 12.6278 25.0237L7.09375 19.4896C8.06564 16.3343 10.613 12.3802 14.2698 8.72337C16.329 6.6642 18.752 5.23521 21.0864 4.24112C25.8038 2.22189 30.113 2 30.113 2C30.113 2 29.8955 6.31361 27.8719 11.0266C26.8778 13.3609 25.4532 15.7885 23.394 17.8476Z" fill="white" stroke="#444444" stroke-linejoin="round"/>
<path d="M27.8714 11.0266L21.0859 4.24112C25.8034 2.22189 30.1126 2 30.1126 2C30.1126 2 29.8951 6.31361 27.8714 11.0266Z" fill="#FF7D53" stroke="#FF7D53" stroke-linejoin="round"/>
<path d="M20.1897 14.6489C21.6946 14.6489 22.9145 13.429 22.9145 11.9241C22.9145 10.4192 21.6946 9.19922 20.1897 9.19922C18.6848 9.19922 17.4648 10.4192 17.4648 11.9241C17.4648 13.429 18.6848 14.6489 20.1897 14.6489Z" fill="white" stroke="#444444" stroke-linejoin="round"/>
<path d="M14.9771 18.5035C15.3549 18.1256 15.3549 17.5131 14.9771 17.1353C14.5992 16.7575 13.9867 16.7575 13.6089 17.1353L7.04094 23.7032C6.66313 24.081 6.66313 24.6936 7.04094 25.0714C7.41876 25.4492 8.03131 25.4492 8.40913 25.0714L14.9771 18.5035Z" fill="white" stroke="#444444" stroke-linejoin="round"/>
<path d="M3.78748 24.7314L1.59961 26.9193" stroke="#444444" stroke-linejoin="round"/>
<path d="M5.58467 26.5283L2.46484 29.6481" stroke="#444444" stroke-linejoin="round"/>
<path d="M7.38123 28.3213L5.19336 30.5092" stroke="#444444" stroke-linejoin="round"/>
</svg>
