<svg width="32" height="32" viewBox="0 0 32 32" fill="none" xmlns="http://www.w3.org/2000/svg">
<path d="M7.81832 16.3028C9.05349 14.2039 11.0449 15.8247 11.0449 15.8247L15.0812 18.3985C15.0812 18.3985 16.0832 23.2421 15.5003 23.2421C14.9174 23.2421 6.46973 20.1333 6.46973 19.8801C6.46973 19.6268 7.81832 16.2964 7.81832 16.2964V16.3028Z" fill="white" stroke="#444444" stroke-linecap="round" stroke-linejoin="round"/>
<path d="M4.25781 17.0658C5.5875 14.8244 7.81836 16.3028 7.81836 16.3028L12.1856 19.2596C12.1856 19.2596 13.2411 23.8342 12.9071 23.7487C12.5731 23.6664 4.37755 19.3799 4.37755 19.3799L4.25781 17.0658Z" fill="white" stroke="#444444" stroke-linecap="round" stroke-linejoin="round"/>
<path d="M23.6929 6.07107C21.3581 3.48781 17.3816 3.2947 14.8105 5.64053L14.5868 5.84314L14.363 5.64053C11.7982 3.2947 7.82171 3.48781 5.48687 6.07107C3.34424 8.43906 3.33479 11.9942 5.33248 14.378C5.51208 14.5933 5.70113 14.7991 5.91225 14.9922L14.5899 22.9097L23.2676 14.9922C23.4787 14.7991 23.6677 14.5901 23.8473 14.378C25.845 11.9942 25.8356 8.43906 23.6929 6.07107Z" fill="#FF7D53"/>
<path d="M19.0391 6.14389C19.6251 6.14389 20.1955 6.26735 20.7217 6.50162C21.2447 6.73589 21.7237 7.07779 22.1144 7.5115C22.8107 8.28078 23.1668 9.25583 23.1857 10.2372" stroke="white" stroke-linecap="round" stroke-linejoin="round"/>
<path d="M30.3667 28.3675L25.8105 26.1736C25.8105 26.1736 24.0145 24.9833 21.9664 25.9837C19.9939 26.9461 17.741 27.6521 17.741 27.6521C17.741 27.6521 15.7464 28.893 13.421 27.6521C11.0957 26.4111 1.7437 20.4025 1.7437 20.4025C1.7437 20.4025 0.319483 18.9241 1.41286 17.4456C2.50308 15.9672 4.35582 17.0151 5.82731 18.0661C7.29879 19.1172 10.1472 20.928 10.1472 20.928C10.1472 20.928 10.1472 19.6395 12.4254 19.2121C14.7035 18.7816 17.5645 17.9838 19.3669 16.7903C21.1723 15.5968 24.7455 14.8497 29.5381 17.5438" fill="white"/>
<path d="M30.3667 28.3675L25.8105 26.1736C25.8105 26.1736 24.0145 24.9833 21.9664 25.9837C19.9939 26.9461 17.741 27.6521 17.741 27.6521C17.741 27.6521 15.7464 28.893 13.421 27.6521C11.0957 26.4111 1.7437 20.4025 1.7437 20.4025C1.7437 20.4025 0.319483 18.9241 1.41286 17.4456C2.50308 15.9672 4.35582 17.0151 5.82731 18.0661C7.29879 19.1172 10.1472 20.928 10.1472 20.928C10.1472 20.928 10.1472 19.6395 12.4254 19.2121C14.7035 18.7816 17.5645 17.9838 19.3669 16.7903C21.1723 15.5968 24.7455 14.8497 29.5381 17.5438" stroke="#444444" stroke-linecap="round" stroke-linejoin="round"/>
<path d="M10.1445 20.928C10.1445 20.928 10.1603 22.495 12.9615 22.7831C15.7626 23.068 18.3842 22.0328 19.6162 21.2699" fill="white"/>
<path d="M10.1445 20.928C10.1445 20.928 10.1603 22.495 12.9615 22.7831C15.7626 23.068 18.3842 22.0328 19.6162 21.2699" stroke="#444444" stroke-linecap="round" stroke-linejoin="round"/>
</svg>
