<svg width="32" height="32" viewBox="0 0 32 32" fill="none" xmlns="http://www.w3.org/2000/svg">
<path d="M16.2218 13.9172C16.2892 13.9172 16.3566 13.9172 16.424 13.9209L16.2218 13.5614L16.0195 13.9209C16.0869 13.9209 16.1544 13.9172 16.2218 13.9172Z" fill="#FF7D53" stroke="#444444" stroke-linecap="round" stroke-linejoin="round"/>
<path d="M16.2171 13.5654L12.1647 6.37447L9.13854 1L6 6.37073L11.1947 15.5916C12.543 14.5766 14.2096 13.9661 16.0149 13.9212L16.2171 13.5617V13.5654Z" fill="#FF7D53" stroke="#444444" stroke-linecap="round" stroke-linejoin="round"/>
<path d="M21.243 15.5953L26.4377 6.37447L23.2991 1L20.2692 6.37073L16.2168 13.5617L16.419 13.9212C18.2243 13.9624 19.8909 14.5766 21.2392 15.5916L21.243 15.5953Z" fill="#FF7D53" stroke="#444444" stroke-linecap="round" stroke-linejoin="round"/>
<path d="M16.424 13.9251C16.3566 13.9251 16.2892 13.9214 16.2218 13.9214C16.1544 13.9214 16.0869 13.9214 16.0195 13.9251" fill="#FF7D53"/>
<path d="M16.424 13.9251C16.3566 13.9251 16.2892 13.9214 16.2218 13.9214C16.1544 13.9214 16.0869 13.9214 16.0195 13.9251" stroke="#444444" stroke-linecap="round" stroke-linejoin="round"/>
<path d="M16.0155 13.925C14.2103 13.97 12.5436 14.5805 11.1953 15.5954L16.0155 13.925Z" fill="#FF7D53"/>
<path d="M16.0155 13.925C14.2103 13.97 12.5436 14.5805 11.1953 15.5954" stroke="#444444" stroke-linecap="round" stroke-linejoin="round"/>
<path d="M21.244 15.5954C19.8957 14.5805 18.2291 13.97 16.4238 13.925L21.244 15.5954Z" fill="#FF7D53"/>
<path d="M21.244 15.5954C19.8957 14.5805 18.2291 13.97 16.4238 13.925" stroke="#444444" stroke-linecap="round" stroke-linejoin="round"/>
<path d="M9.13867 1L12.1649 6.37073H20.2696L23.2958 1H9.13867Z" fill="#FF7D53" stroke="#444444" stroke-linecap="round" stroke-linejoin="round"/>
<path d="M25.4452 21.7754C25.4452 26.8727 21.3141 31 16.2168 31C11.1195 31 6.99219 26.8689 6.99219 21.7754C6.99219 16.6818 11.1232 12.547 16.2206 12.547C21.3179 12.547 25.4489 16.678 25.4489 21.7754H25.4452Z" fill="white" stroke="#444444" stroke-linecap="round" stroke-linejoin="round"/>
<path d="M20.6816 25.255C21.4307 24.2962 21.8839 23.0902 21.8839 21.7756C21.8839 20.461 21.4307 19.2551 20.6816 18.2963" fill="white"/>
<path d="M20.6816 25.255C21.4307 24.2962 21.8839 23.0902 21.8839 21.7756C21.8839 20.461 21.4307 19.2551 20.6816 18.2963" stroke="#444444" stroke-linecap="round" stroke-linejoin="round"/>
<path d="M11.753 18.2961C11.004 19.2587 10.5508 20.4647 10.5508 21.7755C10.5508 23.0864 11.004 24.2961 11.753 25.2549" fill="white"/>
<path d="M11.753 18.2961C11.004 19.2587 10.5508 20.4647 10.5508 21.7755C10.5508 23.0864 11.004 24.2961 11.753 25.2549" stroke="#444444" stroke-linecap="round" stroke-linejoin="round"/>
<path d="M14.9766 20.3593L16.5608 18.5316V24.9323" fill="white"/>
<path d="M14.9766 20.3593L16.5608 18.5316V24.9323" stroke="#444444" stroke-linecap="round" stroke-linejoin="round"/>
<path d="M15.2207 25.052H17.7787" stroke="#444444" stroke-linecap="round" stroke-linejoin="round"/>
</svg>
