<svg width="32" height="32" viewBox="0 0 32 32" fill="none" xmlns="http://www.w3.org/2000/svg">
<g clip-path="url(#clip0_421_1528)">
<path d="M14.1984 26.9612C6.91903 26.9612 1 21.1381 1 13.9846C1 6.83112 6.91903 1 14.1984 1C21.4777 1 27.3968 6.82315 27.3968 13.9846C27.3968 21.146 21.4777 26.9692 14.1984 26.9692V26.9612ZM14.1984 2.1949C7.59109 2.1949 2.21457 7.48433 2.21457 13.9846C2.21457 20.4849 7.59109 25.7743 14.1984 25.7743C20.8057 25.7743 26.1822 20.4849 26.1822 13.9846C26.1822 7.48433 20.7976 2.1949 14.1984 2.1949Z" fill="#444444"/>
<path d="M28.781 31C28.2142 31 27.6474 30.7849 27.2101 30.3627L22.4652 25.6946C22.2304 25.4636 22.2304 25.0813 22.4652 24.8502C22.7 24.6192 23.0887 24.6192 23.3235 24.8502L28.0684 29.5183C28.4571 29.9007 29.0968 29.9007 29.4854 29.5183C29.8741 29.136 29.8741 28.5066 29.4854 28.1243L24.8215 23.5358C24.5866 23.3048 24.5866 22.9225 24.8215 22.6914C25.0563 22.4604 25.4449 22.4604 25.6798 22.6914L30.3437 27.2799C31.2101 28.1243 31.2101 29.5104 30.3437 30.3627C29.9146 30.7849 29.3397 31 28.7729 31H28.781Z" fill="#444444"/>
<path d="M14.1983 4.84753C9.07279 4.84753 4.91895 8.9341 4.91895 13.9766C4.91895 19.0191 9.07279 23.1056 14.1983 23.1056C19.3238 23.1056 23.4776 19.0191 23.4776 13.9766C23.4776 8.9341 19.3238 4.84753 14.1983 4.84753ZM21.2995 15.6574C21.2995 15.6574 21.2347 15.6574 21.2023 15.6574C20.757 15.6096 20.4412 15.2113 20.4898 14.7732C20.5141 14.5581 20.5303 14.3351 20.5303 14.104C20.5303 11.8098 19.1376 9.74663 16.9837 8.84647C16.5708 8.67919 16.3764 8.20919 16.5546 7.80292C16.7246 7.39666 17.2023 7.20547 17.6153 7.38073C20.3683 8.52783 22.1497 11.1646 22.1497 14.104C22.1497 14.3908 22.1335 14.6776 22.1011 14.9564C22.0525 15.3627 21.7044 15.6574 21.2995 15.6574Z" fill="#FF7D53"/>
</g>
<defs>
<clipPath id="clip0_421_1528">
<rect width="30" height="30" fill="white" transform="translate(1 1)"/>
</clipPath>
</defs>
</svg>
