<svg width="32" height="32" viewBox="0 0 32 32" fill="none" xmlns="http://www.w3.org/2000/svg">
<path d="M15.4574 31C10.2332 31 5.9834 26.673 5.9834 21.3538C5.9834 16.0347 10.2332 11.7077 15.4574 11.7077C20.6816 11.7077 24.9314 16.0347 24.9314 21.3538C24.9314 26.673 20.6816 31 15.4574 31Z" stroke="#444444" stroke-linecap="round" stroke-linejoin="round"/>
<path d="M15.3854 5.44183L11.0228 1C11.0228 1 2.16241 1.16536 2 1L11.0228 10.1868" stroke="#444444" stroke-linecap="round" stroke-linejoin="round"/>
<path d="M11.0225 10.1868L19.4453 1C19.4453 1 29.2441 1 28.9193 1L19.8964 10.1868" stroke="#444444" stroke-linecap="round" stroke-linejoin="round"/>
<path d="M10.9463 12.5621L11.023 10.1873" stroke="#444444" stroke-linecap="round" stroke-linejoin="round"/>
<path d="M19.8965 10.1873L19.9687 12.5621" stroke="#444444" stroke-linecap="round" stroke-linejoin="round"/>
<path d="M16.7432 18.9889C16.8139 19.1381 16.9538 19.2428 17.1169 19.2686L19.1233 19.586C19.5298 19.6503 19.6889 20.1509 19.394 20.4381L17.9169 21.8763C17.8006 21.9896 17.7465 22.1523 17.7719 22.3127L18.0954 24.3573C18.1604 24.7678 17.7253 25.0737 17.361 24.8738L15.5935 23.9039C15.4467 23.8233 15.2692 23.8216 15.1209 23.8993L13.3333 24.836C12.9652 25.0289 12.5362 24.7147 12.6089 24.3056L12.9717 22.2658C13.0001 22.106 12.9492 21.9424 12.8351 21.8269L11.3862 20.3602C11.0968 20.0673 11.2657 19.5698 11.6735 19.5135L13.684 19.236C13.8481 19.2134 13.9903 19.111 14.0638 18.9625L14.9682 17.1348C15.1535 16.7603 15.6892 16.7648 15.8682 17.1425L16.7432 18.9889Z" fill="#FF7D53"/>
<path d="M11.0225 10.1869H19.8964" stroke="#444444" stroke-linecap="round" stroke-linejoin="round"/>
<path d="M15.458 10.1872L23.4793 1.15198" stroke="#444444" stroke-linecap="round" stroke-linejoin="round"/>
</svg>
