<svg width="34" height="32" viewBox="0 0 34 32" fill="none" xmlns="http://www.w3.org/2000/svg">
<path d="M17 27L33 27V6L17 6V27Z" fill="#FF7D53" stroke="#444444" stroke-linecap="round" stroke-linejoin="round"/>
<path d="M17 6H1V27H17V6Z" fill="#FF7D53" stroke="#444444" stroke-linecap="round" stroke-linejoin="round"/>
<path d="M16.9975 6.05826V26.2844C16.3957 26.0199 15.7825 25.7861 15.1654 25.5753C14.1765 25.2342 13.1684 24.9582 12.1489 24.7474C10.4893 24.4024 8.79129 24.2261 7.08566 24.2261H3.9082V4H7.08566C9.83767 4 12.5705 4.45995 15.1654 5.34917C15.7825 5.55998 16.3957 5.79762 16.9975 6.05826Z" fill="white" stroke="#444444" stroke-linecap="round" stroke-linejoin="round"/>
<path d="M6.99414 9.65845H7.0823C9.42035 9.65845 11.7086 10.0264 13.9087 10.7547" fill="white"/>
<path d="M6.99414 9.65845H7.0823C9.42035 9.65845 11.7086 10.0264 13.9087 10.7547" stroke="#FFC7B6" stroke-linecap="round" stroke-linejoin="round"/>
<path d="M6.99414 13.4412H7.0823C9.42035 13.4412 11.7086 13.8091 13.9087 14.5374" fill="white"/>
<path d="M6.99414 13.4412H7.0823C9.42035 13.4412 11.7086 13.8091 13.9087 14.5374" stroke="#FFC7B6" stroke-linecap="round" stroke-linejoin="round"/>
<path d="M16.998 6.05826V26.2844C17.5998 26.0199 18.2131 25.7861 18.8302 25.5753C19.819 25.2342 20.8271 24.9582 21.8466 24.7474C23.5063 24.4024 25.2042 24.2261 26.9099 24.2261H30.0873V4H26.9099C24.1579 4 21.425 4.45995 18.8302 5.34917C18.2131 5.55998 17.5998 5.79762 16.998 6.05826Z" fill="white" stroke="#444444" stroke-linecap="round" stroke-linejoin="round"/>
<path d="M27.0024 9.65845H26.9143C24.5762 9.65845 22.288 10.0264 20.0879 10.7547" fill="white"/>
<path d="M27.0024 9.65845H26.9143C24.5762 9.65845 22.288 10.0264 20.0879 10.7547" stroke="#FFC7B6" stroke-linecap="round" stroke-linejoin="round"/>
<path d="M27.0024 13.4412H26.9143C24.5762 13.4412 22.288 13.8091 20.0879 14.5374" fill="white"/>
<path d="M27.0024 13.4412H26.9143C24.5762 13.4412 22.288 13.8091 20.0879 14.5374" stroke="#FFC7B6" stroke-linecap="round" stroke-linejoin="round"/>
<path d="M6.99414 17.4412H7.0823C9.42035 17.4412 11.7086 17.8091 13.9087 18.5374" fill="white"/>
<path d="M6.99414 17.4412H7.0823C9.42035 17.4412 11.7086 17.8091 13.9087 18.5374" stroke="#FFC7B6" stroke-linecap="round" stroke-linejoin="round"/>
<path d="M27.0024 17.4412H26.9143C24.5762 17.4412 22.288 17.8091 20.0879 18.5374" fill="white"/>
<path d="M27.0024 17.4412H26.9143C24.5762 17.4412 22.288 17.8091 20.0879 18.5374" stroke="#FFC7B6" stroke-linecap="round" stroke-linejoin="round"/>
</svg>
