<svg width="32" height="32" viewBox="0 0 32 32" fill="none" xmlns="http://www.w3.org/2000/svg">
<path d="M9.87846 8.28625H8.17249C7.68135 8.28625 7.2832 8.6847 7.2832 9.1762C7.2832 9.6677 7.68135 10.0661 8.17249 10.0661H9.87846C10.3696 10.0661 10.7677 9.6677 10.7677 9.1762C10.7677 8.6847 10.3696 8.28625 9.87846 8.28625Z" fill="white"/>
<path d="M9.878 10.6109H8.17202C7.38074 10.6109 6.73828 9.96801 6.73828 9.17614C6.73828 8.38427 7.38074 7.74133 8.17202 7.74133H9.878C10.6693 7.74133 11.3117 8.38427 11.3117 9.17614C11.3117 9.96801 10.6693 10.6109 9.878 10.6109ZM8.17202 8.83106C7.98328 8.83106 7.8272 8.99089 7.8272 9.17614C7.8272 9.36139 7.98691 9.52122 8.17202 9.52122H9.878C10.0667 9.52122 10.2228 9.36139 10.2228 9.17614C10.2228 8.99089 10.0631 8.83106 9.878 8.83106H8.17202Z" fill="#444444"/>
<path d="M16.2163 26.772C12.1655 26.772 8.85156 23.4556 8.85156 19.4018L9.9187 8.54088C9.9187 4.69414 12.7535 1.54846 16.2163 1.54846C19.679 1.54846 22.5139 4.69414 22.5139 8.54088L23.581 19.4018C23.581 23.4556 20.2671 26.772 16.2163 26.772Z" fill="white"/>
<path d="M16.2119 27.3169C11.849 27.3169 8.30273 23.7644 8.30273 19.4019C8.30273 19.3837 8.30273 19.3655 8.30273 19.3474L9.36625 8.51185C9.38076 4.36726 12.4443 1 16.2083 1C19.9723 1 23.0394 4.36726 23.0503 8.51185L24.1138 19.3474C24.1138 19.3474 24.1138 19.3837 24.1138 19.4019C24.1138 23.768 20.564 27.3169 16.2047 27.3169H16.2119ZM9.39165 19.4273C9.40617 23.1796 12.4588 26.2272 16.2119 26.2272C19.9651 26.2272 23.0177 23.1796 23.0322 19.4273L21.9687 8.59177C21.9687 8.59177 21.9687 8.55544 21.9687 8.53728C21.9687 4.98114 19.3879 2.08973 16.2155 2.08973C13.0432 2.08973 10.4624 4.98114 10.4624 8.53728C10.4624 8.55544 10.4624 8.5736 10.4624 8.59177L9.39891 19.4273H9.39165Z" fill="#444444"/>
<path d="M22.3027 8.53722C22.3027 4.69048 19.4679 1.5448 16.0051 1.5448C15.6784 1.5448 15.359 1.58112 15.0469 1.63561C18.0596 2.15505 20.3862 5.05372 20.3862 8.53722L21.4533 19.3982C21.4533 23.125 18.6476 26.2235 15.0469 26.6993C15.3627 26.7393 15.6821 26.7684 16.0051 26.7684C20.0559 26.7684 23.3698 23.4519 23.3698 19.3982L22.3027 8.53722Z" fill="white"/>
<path d="M10.7681 19.3982L11.8352 8.53722C11.8352 5.05372 14.1619 2.15141 17.1745 1.63561C16.8624 1.58112 16.543 1.5448 16.2163 1.5448C12.7535 1.5448 9.9187 4.69048 9.9187 8.53722L8.85156 19.3982C8.85156 23.4519 12.1655 26.7684 16.2163 26.7684C16.543 26.7684 16.8624 26.7393 17.1745 26.6993C13.5738 26.2235 10.7681 23.125 10.7681 19.3982Z" fill="white"/>
<path d="M16.2119 27.3169C11.849 27.3169 8.30273 23.7644 8.30273 19.4019C8.30273 19.3837 8.30273 19.3655 8.30273 19.3474L9.36625 8.51185C9.38076 4.36726 12.4443 1 16.2083 1C19.9723 1 23.0394 4.36726 23.0503 8.51185L24.1138 19.3474C24.1138 19.3474 24.1138 19.3837 24.1138 19.4019C24.1138 23.768 20.564 27.3169 16.2047 27.3169H16.2119ZM9.39165 19.4273C9.40617 23.1796 12.4588 26.2272 16.2119 26.2272C19.9651 26.2272 23.0177 23.1796 23.0322 19.4273L21.9687 8.59177C21.9687 8.59177 21.9687 8.55544 21.9687 8.53728C21.9687 4.98114 19.3879 2.08973 16.2155 2.08973C13.0432 2.08973 10.4624 4.98114 10.4624 8.53728C10.4624 8.55544 10.4624 8.5736 10.4624 8.59177L9.39891 19.4273H9.39165Z" fill="#444444"/>
<path d="M26.3248 15.686L23.8094 18.1996L19.8748 14.2439L15.9656 18.1996L11.9802 14.2439L8.02012 18.1996L5.57731 15.7441C5.55553 16.1437 5.54102 16.5505 5.54102 16.9573C5.54102 25.2247 9.57365 30.4554 15.9511 30.4554C22.3285 30.4554 26.3611 25.2247 26.3611 16.9573C26.3611 16.5287 26.3466 16.1073 26.3212 15.686H26.3248Z" fill="#FF7D53"/>
<path d="M15.9545 31.0002C9.2976 31.0002 5 25.4862 5 16.9573C5 16.5759 5.01089 16.1691 5.0363 15.715C5.04719 15.5007 5.18512 15.3118 5.38475 15.2355C5.58439 15.1592 5.81306 15.2065 5.96551 15.359L8.02357 17.4295L11.5952 13.8625C11.8057 13.6518 12.1506 13.6518 12.3647 13.8625L15.9618 17.4331L19.4863 13.8661C19.5879 13.7644 19.7258 13.7063 19.871 13.7026C20.0162 13.7026 20.1541 13.7608 20.2558 13.8625L23.8056 17.4295L25.9363 15.3009C26.0887 15.1483 26.3138 15.1011 26.5134 15.1774C26.713 15.2537 26.851 15.4389 26.8619 15.6532C26.8909 16.1255 26.9018 16.5505 26.9018 16.9573C26.9018 25.4899 22.6006 31.0002 15.9473 31.0002H15.9545ZM6.08892 17.0263C6.1107 24.9777 9.88562 29.9141 15.9545 29.9141C22.0234 29.9141 25.8201 24.9523 25.8201 16.9609L24.194 18.5846C24.0924 18.6863 23.9544 18.7444 23.8093 18.7444C23.6641 18.7444 23.5261 18.6863 23.4245 18.5846L19.8783 15.0212L16.3538 18.5846C16.2522 18.6863 16.1142 18.7444 15.969 18.7481C15.8239 18.7481 15.6859 18.69 15.5843 18.5919L11.9836 15.0212L8.40832 18.5919C8.30668 18.6936 8.16875 18.7517 8.02357 18.7517C7.87838 18.7517 7.74045 18.6936 7.63881 18.5919L6.08892 17.0336V17.0263Z" fill="#444444"/>
<path d="M9.02946 17.1937L8.02403 18.1999L5.58122 15.7444C5.55944 16.144 5.54492 16.5508 5.54492 16.9576C5.54492 25.225 9.57755 30.4557 15.955 30.4557C16.5575 30.4557 17.1383 30.4085 17.6973 30.3177C12.3942 29.4495 9.10206 24.5494 9.02946 17.1937Z" fill="white"/>
<path d="M26.3253 15.6858L23.8099 18.1994L22.8771 17.2623C22.7863 24.578 19.5014 29.4527 14.2129 30.3172C14.7719 30.408 15.3526 30.4552 15.9552 30.4552C22.3326 30.4552 26.3652 25.2245 26.3652 16.9571C26.3652 16.5285 26.3507 16.1072 26.3253 15.6858Z" fill="#FF7D53"/>
<path d="M15.9545 31C9.2976 31 5 25.486 5 16.957C5 16.5756 5.01089 16.1688 5.0363 15.7148C5.04719 15.5004 5.18512 15.3116 5.38475 15.2353C5.58439 15.159 5.81306 15.2062 5.96551 15.3588L8.02357 17.4293L11.5952 13.8622C11.8057 13.6515 12.1506 13.6515 12.3647 13.8622L15.9618 17.4329L19.4863 13.8659C19.5879 13.7641 19.7258 13.706 19.871 13.7024C20.0162 13.7024 20.1541 13.7605 20.2558 13.8622L23.8056 17.4293L25.9363 15.3007C26.0887 15.1481 26.3138 15.1009 26.5134 15.1772C26.713 15.2534 26.851 15.4387 26.8619 15.653C26.8909 16.1252 26.9018 16.5502 26.9018 16.957C26.9018 25.4896 22.6006 31 15.9473 31H15.9545ZM6.08892 17.0261C6.1107 24.9774 9.88562 29.9139 15.9545 29.9139C22.0234 29.9139 25.8201 24.952 25.8201 16.9607L24.194 18.5844C24.0924 18.6861 23.9544 18.7442 23.8093 18.7442C23.6641 18.7442 23.5261 18.6861 23.4245 18.5844L19.8783 15.021L16.3538 18.5844C16.2522 18.6861 16.1142 18.7442 15.969 18.7478C15.8239 18.7478 15.6859 18.6897 15.5843 18.5916L11.9836 15.021L8.40832 18.5916C8.30668 18.6933 8.16875 18.7515 8.02357 18.7515C7.87838 18.7515 7.74045 18.6933 7.63881 18.5916L6.08892 17.0333V17.0261Z" fill="#444444"/>
<path d="M12.4523 8.28697C12.8692 8.28697 13.2072 7.9487 13.2072 7.53142C13.2072 7.11415 12.8692 6.77588 12.4523 6.77588C12.0353 6.77588 11.6973 7.11415 11.6973 7.53142C11.6973 7.9487 12.0353 8.28697 12.4523 8.28697Z" fill="#444444"/>
</svg>
