<svg width="32" height="32" viewBox="0 0 32 32" fill="none" xmlns="http://www.w3.org/2000/svg">
<rect x="18.8799" y="12.6398" width="11.52" height="14.976" fill="#FF7D53" stroke="#FF7D53" stroke-linejoin="round"/>
<path d="M19.4556 4H1.59961V27.616H19.4556V4Z" fill="white"/>
<path d="M19.4556 4H1.59961V27.616H19.4556V4Z" stroke="#3A3A3A" stroke-linecap="round" stroke-linejoin="round"/>
<path d="M19.4556 4H1.59961V27.616H19.4556V4Z" stroke="black" stroke-opacity="0.2" stroke-linecap="round" stroke-linejoin="round"/>
<path d="M7.64826 7.93979H5.09082V10.4972H7.64826V7.93979Z" fill="#3A3A3A"/>
<path d="M11.9041 7.93979H9.34668V10.4972H11.9041V7.93979Z" fill="#3A3A3A"/>
<path d="M16.1619 7.93979H13.6045V10.4972H16.1619V7.93979Z" fill="#3A3A3A"/>
<path d="M7.64826 12.7665H5.09082V15.3239H7.64826V12.7665Z" fill="#3A3A3A"/>
<path d="M11.9051 12.7664H9.34766V15.3238H11.9051V12.7664Z" fill="#3A3A3A"/>
<path d="M16.1619 12.7664H13.6045V15.3238H16.1619V12.7664Z" fill="#3A3A3A"/>
<path d="M13.4768 19.5521H7.77441V27.4433H13.4768V19.5521Z" stroke="#3A3A3A" stroke-linecap="round" stroke-linejoin="round"/>
</svg>
