<svg width="32" height="32" viewBox="0 0 32 32" fill="none" xmlns="http://www.w3.org/2000/svg">
<path d="M13.1494 10.0251C15.6776 12.5887 14.8168 17.6245 14.8168 17.6245C14.8168 17.6245 9.85057 18.5019 7.32236 15.9337C4.79416 13.3702 5.65492 8.33436 5.65492 8.33436C5.65492 8.33436 10.6212 7.45698 13.1494 10.0251Z" fill="#FF7D53" stroke="#444444" stroke-linecap="round" stroke-linejoin="round"/>
<path d="M5.6543 8.33893L16.4386 19.2742" stroke="#444444" stroke-linecap="round" stroke-linejoin="round"/>
<path d="M19.7833 10.0251C17.2551 12.5887 18.1159 17.6245 18.1159 17.6245C18.1159 17.6245 23.0821 18.5019 25.6103 15.9337C28.1385 13.3702 27.2778 8.33436 27.2778 8.33436C27.2778 8.33436 22.3115 7.45698 19.7833 10.0251Z" fill="#FF7D53" stroke="#444444" stroke-linecap="round" stroke-linejoin="round"/>
<path d="M27.283 8.33893L16.4941 19.2742V26.805" stroke="#444444" stroke-linecap="round" stroke-linejoin="round"/>
<path d="M16.4661 26.8051C12.2569 26.8051 8.71019 28.2902 7.60156 30.3146H25.3305C24.2219 28.2856 20.6752 26.8051 16.4661 26.8051Z" fill="white" stroke="#444444" stroke-linecap="round" stroke-linejoin="round"/>
<g style="mix-blend-mode:darken">
<path d="M5.0735 19.5667L5.19969 20.2704C5.24476 20.5309 5.44755 20.7365 5.70443 20.7822L6.39845 20.9101C7.08345 21.0381 7.08345 22.0343 6.39845 22.1622L5.70443 22.2902C5.44755 22.3359 5.24476 22.5415 5.19969 22.802L5.0735 23.5057C4.94732 24.2003 3.96488 24.2003 3.83869 23.5057L3.71251 22.802C3.66744 22.5415 3.46465 22.3359 3.20777 22.2902L2.51375 22.1622C1.82875 22.0343 1.82875 21.0381 2.51375 20.9101L3.20777 20.7822C3.46465 20.7365 3.66744 20.5309 3.71251 20.2704L3.83869 19.5667C3.96488 18.8721 4.94732 18.8721 5.0735 19.5667Z" fill="#FFC7B6"/>
</g>
<g style="mix-blend-mode:darken">
<path d="M27.9168 19.5667L27.7906 20.2704C27.7456 20.5309 27.5428 20.7365 27.2859 20.7822L26.5919 20.9101C25.9069 21.0381 25.9069 22.0343 26.5919 22.1622L27.2859 22.2902C27.5428 22.3359 27.7456 22.5415 27.7906 22.802L27.9168 23.5057C28.043 24.2003 29.0254 24.2003 29.1516 23.5057L29.2778 22.802C29.3229 22.5415 29.5257 22.3359 29.7826 22.2902L30.4766 22.1622C31.1616 22.0343 31.1616 21.0381 30.4766 20.9101L29.7826 20.7822C29.5257 20.7365 29.3229 20.5309 29.2778 20.2704L29.1516 19.5667C29.0254 18.8721 28.043 18.8721 27.9168 19.5667Z" fill="#FFC7B6"/>
</g>
<g style="mix-blend-mode:darken">
<path d="M17.1106 1.52094L17.2368 2.22468C17.2819 2.48515 17.4847 2.69078 17.7415 2.73648L18.4356 2.86443C19.1206 2.99238 19.1206 3.98858 18.4356 4.11653L17.7415 4.24448C17.4847 4.29018 17.2819 4.49581 17.2368 4.75628L17.1106 5.46002C16.9844 6.15461 16.002 6.15461 15.8758 5.46002L15.7496 4.75628C15.7046 4.49581 15.5018 4.29018 15.2449 4.24448L14.5509 4.11653C13.8659 3.98858 13.8659 2.99238 14.5509 2.86443L15.2449 2.73648C15.5018 2.69078 15.7046 2.48515 15.7496 2.22468L15.8758 1.52094C16.002 0.826352 16.9844 0.826352 17.1106 1.52094Z" fill="#FFC7B6"/>
</g>
</svg>
