<svg width="32" height="32" viewBox="0 0 32 32" fill="none" xmlns="http://www.w3.org/2000/svg">
<path d="M12.959 30.9659V27.9786C12.959 26.322 14.358 24.9639 16.0673 24.9639C17.7765 24.9639 19.1756 26.322 19.1756 27.9786V30.9659" stroke="#444444" stroke-linecap="round" stroke-linejoin="round"/>
<path d="M1 30.9659V20.6615H31V30.9659" stroke="#444444" stroke-linecap="round" stroke-linejoin="round"/>
<path d="M3.08398 20.6614V16.997H29.0567V20.6614" stroke="#444444" stroke-linecap="round" stroke-linejoin="round"/>
<path d="M7.65625 16.9971C7.65625 12.3493 11.426 8.57953 16.068 8.57953C20.7099 8.57953 24.4797 12.3493 24.4797 16.9971" fill="#FF7D53"/>
<path d="M16.1426 8.58537V2H22.9504V6.02732H16.1426" stroke="#444444" stroke-linecap="round" stroke-linejoin="round"/>
<path d="M1.36328 30.9053H12.9594" stroke="#444444" stroke-linecap="round" stroke-linejoin="round"/>
<path d="M19.293 30.9053H30.5455" stroke="#444444" stroke-linecap="round" stroke-linejoin="round"/>
<path d="M3.92773 23.5883V28.16" stroke="#444444" stroke-linecap="round" stroke-linejoin="round"/>
<path d="M6.67188 23.5883V28.16" stroke="#444444" stroke-linecap="round" stroke-linejoin="round"/>
<path d="M9.41797 23.5883V28.16" stroke="#444444" stroke-linecap="round" stroke-linejoin="round"/>
<path d="M22.2188 23.5883V28.16" stroke="#444444" stroke-linecap="round" stroke-linejoin="round"/>
<path d="M24.9648 23.5883V28.16" stroke="#444444" stroke-linecap="round" stroke-linejoin="round"/>
<path d="M27.7051 23.5883V27.3347" stroke="#444444" stroke-linecap="round" stroke-linejoin="round"/>
</svg>
