<svg width="32" height="32" viewBox="0 0 32 32" fill="none" xmlns="http://www.w3.org/2000/svg">
<g clip-path="url(#clip0_421_1516)">
<path d="M10.394 22.8474L6.54508 18.9529H4.92263C3.13182 18.9529 1.67773 17.5029 1.67773 15.7182V5.91095C1.67773 4.12514 3.13182 2.67395 4.92263 2.67395H17.3924C19.1809 2.67395 20.6361 4.12632 20.6361 5.91095V15.7182C20.6361 17.504 19.1809 18.9529 17.3924 18.9529H10.3952V22.8474H10.394Z" fill="white"/>
<path d="M22.7684 29.3249L26.1039 25.9481H27.5086C29.0627 25.9481 30.3225 24.6942 30.3225 23.1456V14.6439C30.3225 13.0976 29.0627 11.8378 27.5086 11.8378H16.7001C15.1483 11.8378 13.8896 13.0976 13.8896 14.6439V23.1456C13.8896 24.6942 15.1483 25.9481 16.7001 25.9481H22.7672V29.3249H22.7684Z" fill="white"/>
<path d="M22.3082 23.1103H22.1599C14.1406 18.4797 18.9562 13.3101 22.1599 16.2454H22.3082C25.5119 13.3101 30.3274 18.4797 22.3082 23.1103Z" fill="#FF7D53"/>
<path d="M22.8418 29.9977C22.7947 30.0012 22.7453 30.0012 22.6982 29.9977C22.3779 29.9613 22.0918 29.7018 22.0918 29.3261V26.6245H16.7017C14.7755 26.6245 13.2131 25.0699 13.2131 23.1468V19.628H11.0703V22.8485C11.0703 23.3006 10.6546 23.5824 10.2708 23.5131C10.1425 23.492 10.0177 23.4286 9.91052 23.3205L6.26177 19.628H4.9219C2.75667 19.628 1 17.8762 1 15.7182V5.91094C1 3.75411 2.75667 2 4.9219 2H17.3917C19.5546 2 21.3112 3.75411 21.3112 5.91094V11.165H27.5102C29.4364 11.165 31 12.7243 31 14.6451V23.1468C31 25.0688 29.4364 26.6245 27.5102 26.6245H26.3881L23.2492 29.8004C23.1291 29.9225 22.9878 29.9847 22.8418 29.9988V29.9977ZM23.4447 27.6823L25.6205 25.4785C25.7512 25.347 25.9231 25.2742 26.1044 25.2742H27.509C28.6888 25.2742 29.6472 24.3197 29.6472 23.1456V14.6439C29.6472 13.4686 28.6888 12.5129 27.509 12.5129H16.7006C15.5208 12.5129 14.5648 13.4686 14.5648 14.6439V23.1456C14.5648 24.3197 15.5208 25.2742 16.7006 25.2742H22.7677C23.1397 25.2742 23.4435 25.5772 23.4435 25.9482V27.6823H23.4447ZM9.71743 21.2036V18.9529C9.71743 18.5819 10.02 18.2789 10.3932 18.2789H13.2119V14.8729L12.741 15.0548C12.2983 15.1723 11.8473 15.2368 11.394 15.2392C11.095 15.2404 10.7912 15.218 10.4851 15.1687C9.26884 14.9586 8.10204 14.3175 6.98116 13.2526C6.71272 12.9955 6.70212 12.5693 6.95761 12.2992C7.21429 12.028 7.64168 12.0186 7.9113 12.2746C8.89443 13.2045 9.82692 13.687 10.7147 13.8373C11.5954 13.9864 12.4984 13.822 13.4439 13.3442L13.4686 13.3371L13.4863 13.2913C14.0161 12.0444 15.2559 11.165 16.7006 11.165H19.9572V5.91094C19.9572 4.49849 18.8069 3.34787 17.3905 3.34787H4.9219C3.50314 3.34787 2.35283 4.49849 2.35283 5.91094V15.7182C2.35283 17.133 3.50314 18.2789 4.9219 18.2789H6.54435C6.72331 18.2789 6.89874 18.3517 7.02355 18.4797L9.71743 21.2036ZM8.46232 9.46142C7.89835 9.46142 7.43917 9.00352 7.43917 8.4423C7.43917 7.88108 7.89835 7.41966 8.46232 7.41966C9.02629 7.41966 9.48548 7.87638 9.48548 8.4423C9.48548 9.00822 9.02865 9.46142 8.46232 9.46142ZM13.9396 9.46142C13.3732 9.46142 12.9141 9.00352 12.9141 8.4423C12.9141 7.88108 13.3744 7.41966 13.9396 7.41966C14.5047 7.41966 14.9615 7.87638 14.9615 8.4423C14.9615 9.00822 14.5035 9.46142 13.9396 9.46142Z" fill="#444444"/>
<path d="M17.4482 16.7221C16.6958 18.603 17.8061 21.2036 21.7421 23.4767L22.0424 23.5565H22.1848L22.4839 23.4767C26.4423 21.1907 27.5243 18.5877 26.7779 16.7221M22.8418 29.9977C22.7947 30.0012 22.7453 30.0012 22.6982 29.9977C22.3779 29.9613 22.0918 29.7018 22.0918 29.3261V26.6245H16.7017C14.7755 26.6245 13.2131 25.0699 13.2131 23.1468V19.628H11.0703V22.8485C11.0703 23.3006 10.6546 23.5824 10.2708 23.5131C10.1425 23.492 10.0177 23.4285 9.91052 23.3205L6.26177 19.628H4.9219C2.75667 19.628 1 17.8762 1 15.7182V5.91094C1 3.75411 2.75667 2 4.9219 2H17.3917C19.5546 2 21.3112 3.75411 21.3112 5.91094V11.165H27.5102C29.4364 11.165 31 12.7243 31 14.6451V23.1468C31 25.0688 29.4364 26.6245 27.5102 26.6245H26.3881L23.2492 29.8004C23.1291 29.9225 22.9878 29.9847 22.8418 29.9988V29.9977ZM23.4447 27.6823L25.6205 25.4785C25.7512 25.347 25.9231 25.2742 26.1044 25.2742H27.509C28.6888 25.2742 29.6472 24.3197 29.6472 23.1456V14.6439C29.6472 13.4686 28.6888 12.5129 27.509 12.5129H16.7006C15.5208 12.5129 14.5648 13.4686 14.5648 14.6439V23.1456C14.5648 24.3197 15.5208 25.2742 16.7006 25.2742H22.7677C23.1397 25.2742 23.4435 25.5772 23.4435 25.9482V27.6823H23.4447ZM9.71743 21.2036V18.9529C9.71743 18.5819 10.02 18.2789 10.3932 18.2789H13.2119V14.8729L12.741 15.0548C12.2983 15.1723 11.8473 15.2368 11.394 15.2392C11.095 15.2404 10.7912 15.218 10.4851 15.1687C9.26884 14.9586 8.10204 14.3175 6.98116 13.2526C6.71272 12.9955 6.70212 12.5693 6.95761 12.2992C7.21429 12.028 7.64168 12.0186 7.9113 12.2746C8.89443 13.2045 9.82692 13.687 10.7147 13.8373C11.5954 13.9864 12.4984 13.822 13.4439 13.3442L13.4686 13.3371L13.4863 13.2913C14.0161 12.0444 15.2559 11.165 16.7006 11.165H19.9572V5.91094C19.9572 4.49849 18.8069 3.34787 17.3905 3.34787H4.9219C3.50314 3.34787 2.35283 4.49849 2.35283 5.91094V15.7182C2.35283 17.133 3.50314 18.2789 4.9219 18.2789H6.54435C6.72331 18.2789 6.89874 18.3517 7.02355 18.4797L9.71743 21.2036ZM8.46232 9.46142C7.89835 9.46142 7.43917 9.00352 7.43917 8.4423C7.43917 7.88108 7.89835 7.41966 8.46232 7.41966C9.02629 7.41966 9.48548 7.87638 9.48548 8.4423C9.48548 9.00822 9.02865 9.46142 8.46232 9.46142ZM13.9396 9.46142C13.3732 9.46142 12.9141 9.00352 12.9141 8.4423C12.9141 7.88108 13.3744 7.41966 13.9396 7.41966C14.5047 7.41966 14.9615 7.87638 14.9615 8.4423C14.9615 9.00822 14.5035 9.46142 13.9396 9.46142Z" stroke="white" stroke-width="0.25"/>
</g>
<defs>
<clipPath id="clip0_421_1516">
<rect width="30" height="28" fill="white" transform="translate(1 2)"/>
</clipPath>
</defs>
</svg>
