<svg width="32" height="32" viewBox="0 0 32 32" fill="none" xmlns="http://www.w3.org/2000/svg">
<path d="M14.9541 1.90738C15.5514 1.36447 16.4477 1.36431 17.0449 1.90738L20.8486 5.36636L21.6855 6.12711V2.62613C21.6855 2.50733 21.7782 2.42398 21.876 2.42398H25.8145C25.9121 2.42408 26.0049 2.50735 26.0049 2.62613V10.0548L26.168 10.2033L29.4766 13.2121L30.4316 14.0822C30.4923 14.1374 30.5157 14.2285 30.4854 14.3097C30.4552 14.39 30.3815 14.4377 30.3076 14.4377H27.1006V30.298C27.1006 30.4167 27.0079 30.5 26.9102 30.5002H20.084C19.9864 30.4999 19.8936 30.4167 19.8936 30.298V22.0744C19.8936 21.4196 19.3681 20.8722 18.7031 20.8722H13.2949C12.6314 20.8724 12.1045 21.4184 12.1045 22.0744V30.298C12.1045 30.4168 12.0119 30.5002 11.9141 30.5002H5.08691C4.98931 30.4999 4.89648 30.4167 4.89648 30.298V14.4377H1.69043C1.63479 14.4376 1.57966 14.4108 1.54297 14.3634L1.51367 14.3097C1.48323 14.2277 1.50599 14.1373 1.56641 14.0822L14.9531 1.90738H14.9541Z" stroke="#444444"/>
<path d="M11 18C11 17.4477 11.4477 17 12 17H20C20.5523 17 21 17.4477 21 18V30H11V18Z" fill="#FF7D53"/>
<line x1="9" y1="30.5" x2="24" y2="30.5" stroke="#444444"/>
</svg>
