<svg width="32" height="32" viewBox="0 0 32 32" fill="none" xmlns="http://www.w3.org/2000/svg">
<path d="M19.3876 23.8533H10.5445C8.48764 23.8533 6.78153 22.2652 6.63484 20.2147L5.54102 5H24.3943L23.3005 20.2115C23.1538 22.262 21.4445 23.8501 19.3908 23.8501L19.3876 23.8533Z" fill="white" stroke="#444444" stroke-linecap="round" stroke-linejoin="round"/>
<path d="M12.2832 8.49832V5" stroke="#444444" stroke-linecap="round" stroke-linejoin="round"/>
<path d="M30.1511 11.4067C30.6194 9.76376 29.6672 8.05224 28.0243 7.58392C26.3813 7.11561 24.6698 8.06783 24.2015 9.71078C23.7332 11.3537 24.6854 13.0653 26.3283 13.5336C27.9713 14.0019 29.6828 13.0497 30.1511 11.4067Z" stroke="#444444" stroke-linecap="round" stroke-linejoin="round"/>
<path d="M24.573 27.7821H5.35935C2.95166 27.7821 1 26.2259 1 23.8214H28.9324C28.9324 26.2291 26.9807 27.7821 24.573 27.7821Z" fill="white" stroke="#444444" stroke-linecap="round" stroke-linejoin="round"/>
<path d="M10.6014 8.5H14.3942L15.5 10.078V14.5H9.5V10.0408L10.6014 8.5Z" fill="#FF7D53"/>
</svg>
