<svg width="32" height="32" viewBox="0 0 32 32" fill="none" xmlns="http://www.w3.org/2000/svg">
<path d="M10.3077 9.28092C10.3077 9.28092 4.188 12.5655 5.09092 21.1634C5.09092 21.1634 5.43993 27.0834 11.5548 29.5942C14.7002 30.8858 18.2611 30.8263 21.2827 29.2616C22.9438 28.4014 24.6285 27.0038 25.6648 24.7339C26.5699 22.7515 26.7352 20.5023 26.2203 18.3821C26.077 17.7922 25.876 17.1776 25.5946 16.5981C24.9363 15.2428 23.6342 14.0182 23.6342 14.0182C23.6342 14.0182 23.864 15.3045 23.375 16.8644C23.375 16.8644 21.4188 14.4675 23.2246 11.348C25.0305 8.22831 23.0365 5.52722 22.3217 5.07069C22.3217 5.07069 22.7354 8.79903 20.2525 9.90234C20.2525 9.90234 22.0407 3.51084 16.1806 1C16.1806 1 18.334 4.5381 14.4589 7.58175C10.5839 10.6254 10.0195 12.8699 10.0195 12.8699C10.0195 12.8699 9.46777 10.9424 10.3079 9.28114L10.3077 9.28092Z" fill="#FF7D53"/>
<path d="M15.9179 19.0991C15.3705 18.0397 14.2736 17.3164 13.0097 17.3164C11.1986 17.3164 9.73064 18.8011 9.73064 20.6323C9.73064 20.6323 9.60769 25.6425 15.9434 27.5864" fill="white"/>
<path d="M15.9179 19.0991C15.3705 18.0397 14.2736 17.3164 13.0097 17.3164C11.1986 17.3164 9.73064 18.8011 9.73064 20.6323C9.73064 20.6323 9.60769 25.6425 15.9434 27.5864" stroke="#333333" stroke-linecap="round" stroke-linejoin="round"/>
<path d="M15.9643 19.0991C16.5117 18.0397 17.6086 17.3164 18.8725 17.3164C20.6836 17.3164 22.1516 18.8011 22.1516 20.6323C22.1516 20.6323 22.2743 25.639 15.9453 27.5842" fill="white"/>
<path d="M15.9643 19.0991C16.5117 18.0397 17.6086 17.3164 18.8725 17.3164C20.6836 17.3164 22.1516 18.8011 22.1516 20.6323C22.1516 20.6323 22.2743 25.639 15.9453 27.5842" stroke="#333333" stroke-linecap="round" stroke-linejoin="round"/>
</svg>
