<svg width="32" height="32" viewBox="0 0 32 32" fill="none" xmlns="http://www.w3.org/2000/svg">
<path d="M21.856 4H4V27.616H21.856V4Z" fill="white"/>
<path d="M21.856 4H4V27.616H21.856V4Z" stroke="#3A3A3A" stroke-linecap="round" stroke-linejoin="round"/>
<path d="M21.856 4H4V27.616H21.856V4Z" stroke="black" stroke-opacity="0.2" stroke-linecap="round" stroke-linejoin="round"/>
<path d="M10.0477 7.93982H7.49023V10.4973H10.0477V7.93982Z" fill="#3A3A3A"/>
<path d="M14.3035 7.93982H11.7461V10.4973H14.3035V7.93982Z" fill="#3A3A3A"/>
<path d="M18.5613 7.93982H16.0039V10.4973H18.5613V7.93982Z" fill="#3A3A3A"/>
<path d="M10.0477 12.7665H7.49023V15.3239H10.0477V12.7665Z" fill="#3A3A3A"/>
<path d="M14.3035 12.7664H11.7461V15.3238H14.3035V12.7664Z" fill="#3A3A3A"/>
<path d="M18.5613 12.7664H16.0039V15.3238H18.5613V12.7664Z" fill="#3A3A3A"/>
<path d="M15.8762 19.5521H10.1738V27.4433H15.8762V19.5521Z" stroke="#3A3A3A" stroke-linecap="round" stroke-linejoin="round"/>
<path d="M27.9969 18.9619C27.9969 15.7235 25.1981 13.1384 21.8885 13.4975C19.3808 13.7669 17.3529 15.7669 17.0433 18.2684C16.8637 19.7174 17.2538 21.0672 18.0123 22.1353L21.7182 27.9217C22.1021 28.4573 22.8978 28.4573 23.2817 27.9217L26.9876 22.1353C27.6223 21.2375 28 20.1446 28 18.9619H27.9969Z" fill="#FF7D53"/>
<path d="M22.4988 21.191C23.8615 21.191 24.9663 20.0863 24.9663 18.7235C24.9663 17.3607 23.8615 16.256 22.4988 16.256C21.136 16.256 20.0312 17.3607 20.0312 18.7235C20.0312 20.0863 21.136 21.191 22.4988 21.191Z" fill="white"/>
</svg>
