<svg width="33" height="32" viewBox="0 0 33 32" fill="none" xmlns="http://www.w3.org/2000/svg">
<path d="M13.9238 2.6145C21.3259 2.61463 27.3516 8.63581 27.3516 16.0383C27.3515 19.6258 25.9524 22.9952 23.417 25.5266L23.418 25.5276C20.8825 28.0631 17.5074 29.4621 13.9238 29.4622C6.52152 29.4622 0.50013 23.4406 0.5 16.0383C0.5 8.63594 6.52144 2.6145 13.9238 2.6145Z" fill="white" stroke="#444444"/>
<path d="M12.8857 17.0764V1.03821H13.9239C22.1964 1.03821 28.9281 7.76578 28.9281 16.0382V17.0764H12.8857Z" fill="#FF7D53"/>
<path d="M13.9241 2.07641C21.6359 2.07641 27.89 8.32641 27.89 16.0382H13.9241V2.07641ZM13.9241 0H11.8477V18.1146H29.9664V16.0382C29.9664 7.19269 22.7696 0 13.9241 0Z" fill="white"/>
<path d="M11.415 15H28.9275V16.0382C28.9275 20.0498 27.366 23.8164 24.5255 26.6445L23.7905 27.3754L11.415 15Z" fill="#FFC7B6"/>
<path d="M27.8895 16.0383C27.8895 19.8963 26.3239 23.3888 23.7949 25.9096L13.9236 16.0383H27.8895ZM29.966 13.9619H8.91113L12.4576 17.5084L22.3289 27.3797L23.7949 28.8456L25.265 27.3838C28.3007 24.3606 29.9701 20.3323 29.9701 16.0425V13.9661L29.966 13.9619Z" fill="white"/>
</svg>
