<svg width="32" height="32" viewBox="0 0 32 32" fill="none" xmlns="http://www.w3.org/2000/svg">
<path d="M23.1467 4.34236C23.1468 4.34236 23.1469 4.3424 23.147 4.34248L24.1428 5.17299C24.3592 5.35339 24.3822 5.6795 24.1909 5.8863C17.1061 13.5477 7.08689 13.6686 4.09248 13.5158C3.80094 13.5009 3.55469 13.7307 3.55469 14.0227V14.9591C3.55469 15.2197 3.75329 15.437 4.01337 15.453C10.4578 15.8495 19.4783 13.8708 25.6946 7.10389C25.8778 6.9044 26.1867 6.87945 26.3946 7.05304L26.7592 7.35733C27.042 7.5934 27.4743 7.45297 27.5644 7.09577L28.6541 2.77551C28.7562 2.371 28.3472 2.02679 27.966 2.19642L23.1465 4.34137C23.1459 4.34159 23.1461 4.34236 23.1467 4.34236Z" fill="#FF7D53"/>
<rect x="4.94336" y="20.9449" width="5.22222" height="8.77778" stroke="#444444" stroke-linejoin="round"/>
<rect x="13.832" y="17.3893" width="5.22222" height="12.3333" stroke="#444444" stroke-linejoin="round"/>
<rect x="22.7207" y="13.8338" width="5.22222" height="15.8889" stroke="#444444" stroke-linejoin="round"/>
</svg>
