<svg width="32" height="32" viewBox="0 0 32 32" fill="none" xmlns="http://www.w3.org/2000/svg">
<path d="M12.0236 21.3105H19.2604C19.672 21.3105 20.0405 21.5761 20.1698 21.9719L21.8641 29.0347H9.41992L11.1142 21.9719C11.2435 21.5761 11.612 21.3105 12.0236 21.3105Z" stroke="#444444" stroke-linecap="round" stroke-linejoin="round"/>
<path d="M13.401 21.2524L14.0998 17.3131C14.229 16.5841 13.7935 15.8648 13.0803 15.6669C8.4042 14.3779 4.86719 9.79655 4.86719 4.33655C4.86719 3.53517 4.94377 2.7531 5.08257 2H26.2041C26.3477 2.7531 26.4195 3.53517 26.4195 4.33655C26.4195 9.76276 23.0117 14.3248 18.3882 15.6428C17.6799 15.8455 17.2443 16.5648 17.3831 17.2986L18.1202 21.2476" stroke="#444444" stroke-linecap="round" stroke-linejoin="round"/>
<path d="M4.58055 3.9021H1.01482C1.01482 3.9021 0.325605 12.1959 8.3473 13.3304C8.3473 14.4166 8.28508 15.6959 6.62426 15.7345" stroke="#444444" stroke-linecap="round" stroke-linejoin="round"/>
<path d="M26.4679 3.9021H30.0337C30.0337 3.9021 30.7229 12.1959 22.7012 13.3304C22.7012 14.4166 22.7634 15.6959 24.4242 15.7345" stroke="#444444" stroke-linecap="round" stroke-linejoin="round"/>
<path d="M15.068 4.99382C15.2472 4.60795 15.7958 4.60795 15.975 4.99382L16.8209 6.81531C16.8937 6.97218 17.0425 7.08026 17.2142 7.10107L19.2079 7.34271C19.6303 7.3939 19.7998 7.91562 19.4882 8.20529L18.0173 9.57267C17.8906 9.69043 17.8338 9.86531 17.867 10.035L18.2533 12.0059C18.3352 12.4234 17.8914 12.7458 17.5196 12.539L15.7646 11.5626C15.6134 11.4785 15.4295 11.4785 15.2784 11.5626L13.5234 12.539C13.1516 12.7458 12.7078 12.4234 12.7896 12.0059L13.1759 10.035C13.2092 9.86531 13.1524 9.69043 13.0257 9.57267L11.5548 8.20529C11.2432 7.91562 11.4127 7.3939 11.835 7.34271L13.8288 7.10107C14.0005 7.08026 14.1492 6.97218 14.2221 6.81531L15.068 4.99382Z" fill="#FF7D53"/>
</svg>
