<svg width="32" height="32" viewBox="0 0 32 32" fill="none" xmlns="http://www.w3.org/2000/svg">
<path d="M20.0176 8.3621L22.3417 1" stroke="#444444" stroke-miterlimit="10"/>
<path d="M20.5611 17.7637C23.024 15.3008 23.024 11.3076 20.5611 8.84469C18.0982 6.38178 14.105 6.38178 11.6421 8.8447C9.1792 11.3076 9.1792 15.3008 11.6421 17.7637C14.105 20.2266 18.0982 20.2266 20.5611 17.7637Z" fill="white" stroke="#444444" stroke-linejoin="bevel"/>
<path d="M21.4853 31H10.7142L9.85742 13.3044H22.3421L21.4853 31Z" fill="white" stroke="#444444" stroke-linejoin="bevel"/>
<path d="M12.2917 29.3452L11.5967 14.9594H20.6062L19.9112 29.3452H12.2917Z" fill="#FF7D53"/>
<path d="M19.6394 15.8786L19.0327 28.4295H13.1673L12.5605 15.8786H19.6431M21.5701 14.0399H10.6299L10.7218 15.9669L11.3286 28.5177L11.4132 30.2682H20.7831L20.8677 28.5177L21.4745 15.9669L21.5664 14.0399H21.5701Z" fill="white"/>
<path d="M7 13.3044H25.1993" stroke="#444444" stroke-linejoin="bevel"/>
</svg>
