<svg width="75" height="26" viewBox="0 0 75 26" fill="none" xmlns="http://www.w3.org/2000/svg">
<g clip-path="url(#clip0_421_1915)">
<path d="M15.0635 16.5099V16.7208C15.0635 17.0447 15.0861 17.4664 15.2557 17.8656C15.5762 18.6188 16.4017 19.6394 18.5051 20.2269C18.4448 20.3511 18.0452 21.1608 18.0037 21.2437C16.79 21.0328 15.4706 20.2683 14.9203 19.79C14.5471 19.4699 14.3661 19.2515 14.2907 19.1498L14.238 19.0783L14.1852 19.1498C14.1098 19.2477 13.9289 19.4661 13.5557 19.79C13.0053 20.2683 11.6822 21.0328 10.4722 21.2437C10.4307 21.1608 10.0349 20.3511 9.97461 20.2269C12.0818 19.6356 12.9035 18.6188 13.224 17.8656C13.3936 17.4627 13.4162 17.0409 13.4162 16.7208V16.5099H15.0673H15.0635Z" fill="#7D7D7D"/>
<path d="M18.7311 23.4994V24.5727H10.0762V23.4994H18.7311Z" fill="#7D7D7D"/>
<path d="M62.2393 21.8123V24.9493C62.2393 25.1978 62.0772 25.6121 61.4703 25.6121H56.3588C55.7519 25.6121 55.5898 25.1978 55.5898 24.9493V21.8123H57.026V22.5617H60.8069V21.8123H62.2431H62.2393ZM57.0223 23.6237V24.5426H60.8031V23.6237H57.0223Z" fill="#7D7D7D"/>
<path d="M62.2277 16.3291V20.9838H60.8066V18.9314H59.5815V19.6507C59.5815 20.2796 59.0802 20.7691 58.4431 20.7691H55.0467C54.4097 20.7691 53.9121 20.2758 53.9121 19.6507V16.5023H55.3445V17.4325H58.1491V16.5023H59.5853V17.8957H60.8104V16.3291H62.2315H62.2277ZM58.0775 18.4945H55.3408V19.6958H58.1453V18.4945H58.0775Z" fill="#7D7D7D"/>
<path d="M3.44537 21.3792V23.5107H8.22515V24.5727H0V23.5107H1.9677V21.3792H3.44537Z" fill="#7D7D7D"/>
<path d="M6.82644 16.6116C7.32779 16.6116 7.58411 16.845 7.58411 17.3083C7.58411 17.3083 7.58411 21.56 7.58411 21.6918H5.98583C5.98583 21.5638 5.98583 19.2063 5.98583 19.2063C5.98583 19.2063 5.25076 20.1214 5.21307 20.1704H0.568985V19.0895H5.98206V17.7112H0.478516V16.6078H6.8302L6.82644 16.6116Z" fill="#7D7D7D"/>
<path d="M27.1604 22.3019C27.6618 22.3019 27.9181 22.5354 27.9181 22.9948C27.9181 22.9948 27.9181 25.5368 27.9181 25.6686H26.3952V23.3676H21.0273V22.2981H27.1604V22.3019Z" fill="#7D7D7D"/>
<path d="M27.8157 16.3215V17.7827H29.1765V18.8974H27.8157V21.6051H26.3117V20.159C26.3117 20.159 25.5955 21.0515 25.5578 21.0967H20.8609C20.1711 21.0967 20.0957 20.641 20.0957 20.4414V16.491H25.0263V17.6057H21.6111V20.0234H26.3117V16.3177H27.8157V16.3215Z" fill="#7D7D7D"/>
<path d="M67.4604 22.2454V24.5463H73.0808V25.6159H67.1211C66.3258 25.6159 65.9375 25.3071 65.9375 24.6706C65.9375 24.6706 65.9375 22.5843 65.9375 22.2491H67.4566L67.4604 22.2454Z" fill="#7D7D7D"/>
<path d="M64.4629 18.4983C64.4629 17.1651 65.6918 16.073 67.1996 16.073C68.7074 16.073 69.9325 17.1614 69.9363 18.5058C69.9363 19.8465 68.7074 20.9348 67.1996 20.9348C65.6918 20.9348 64.4629 19.8427 64.4629 18.4983ZM65.8916 18.5058C65.8916 19.21 66.4796 19.7824 67.1996 19.7824C67.9196 19.7824 68.5038 19.21 68.5038 18.5058C68.5038 17.8016 67.9196 17.2254 67.1996 17.2254C66.4796 17.2254 65.8916 17.7978 65.8916 18.5058Z" fill="#7D7D7D"/>
<path d="M72.9223 16.3065C72.9223 16.4383 72.9223 21.3868 72.9223 21.5148H71.4258V16.3065H72.9223Z" fill="#7D7D7D"/>
<path d="M33.5078 23.6388C33.5078 22.347 34.8686 21.2888 36.5385 21.2888C38.2084 21.2888 39.5655 22.347 39.5692 23.6463C39.5655 24.9455 38.2084 26.0038 36.5385 26.0038C34.8686 26.0038 33.5078 24.9455 33.5078 23.6425V23.6388ZM35.0458 23.6388C35.0458 24.3468 35.7168 24.9267 36.5385 24.9267C37.3603 24.9267 38.0275 24.3468 38.0275 23.6388C38.0275 22.9308 37.3603 22.347 36.5385 22.347C35.7168 22.347 35.0458 22.927 35.0458 23.6388Z" fill="#7D7D7D"/>
<path d="M39.5611 16.3215V17.7827H40.7862V18.8974H39.5611V20.9122H38.1211V16.3215H39.5611Z" fill="#7D7D7D"/>
<path d="M34.8944 16.3555C34.8944 16.4233 34.8906 16.5136 34.8906 16.5136C34.8906 18.0652 35.9574 19.3569 37.5482 19.7636C37.4879 19.8804 37.0958 20.6938 37.0506 20.7842C35.867 20.4679 34.7738 19.7599 34.1933 18.9163C34.1933 18.9163 34.1669 18.9351 34.1443 18.954C34.1217 18.9351 34.0953 18.9201 34.0953 18.9201C33.511 19.7636 32.4216 20.4716 31.238 20.788C31.1927 20.6976 30.8007 19.8841 30.7441 19.7674C32.3349 19.3607 33.4017 18.0652 33.4017 16.5174C33.4017 16.5174 33.4017 16.427 33.3979 16.3592H34.8982L34.8944 16.3555Z" fill="#7D7D7D"/>
<path d="M44.7891 23.6388C44.7891 22.347 46.1499 21.2888 47.8198 21.2888C49.4897 21.2888 50.8467 22.347 50.8505 23.6463C50.8467 24.9455 49.4859 26.0038 47.8198 26.0038C46.1536 26.0038 44.7891 24.9455 44.7891 23.6425V23.6388ZM46.3233 23.6388C46.3233 24.3468 46.9942 24.9267 47.816 24.9267C48.6378 24.9267 49.305 24.3468 49.305 23.6388C49.305 22.9308 48.634 22.347 47.816 22.347C46.998 22.347 46.3233 22.927 46.3233 23.6388Z" fill="#7D7D7D"/>
<path d="M50.8405 16.3215V17.7827H52.0656V18.8974H50.8405V21.0365H49.4043V16.3177H50.8405V16.3215Z" fill="#7D7D7D"/>
<path d="M48.1597 16.4948V17.5417H46.1732L46.2033 17.6321C46.5237 18.63 47.4322 19.4171 48.6309 19.7598C48.5744 19.8728 48.1786 20.6938 48.1333 20.7841C47.0477 20.4866 46.0186 19.8314 45.5663 19.1271L45.506 19.0368L45.4494 19.1271C45.0008 19.8314 43.9717 20.4866 42.8823 20.7841C42.8371 20.69 42.4413 19.8728 42.3848 19.7598C43.5835 19.4171 44.4919 18.63 44.8124 17.6321L44.8425 17.5417H42.856V16.4948H48.1635H48.1597Z" fill="#7D7D7D"/>
<path d="M11.2476 0.0414253H7.55724L3.07902 4.15759V0H0.195312V11.1735H3.07902V6.40585L7.65525 11.1735H11.2891L5.57069 5.24971L11.2476 0.0414253Z" fill="#E94709"/>
<path d="M59.4407 1.86033C59.1202 0.523421 58.0421 0.0413818 56.9226 0.0413818H54.6345C53.5112 0.0413818 52.4444 0.568612 52.1126 1.86033L49.7793 11.1735H52.8402L53.9145 6.87655L55.1509 8.63147H58.0761L58.7169 11.1735H61.7778L59.4407 1.86033ZM53.9974 6.55645L55.0831 2.18043H56.474L57.5596 6.55645H53.9974Z" fill="#E94709"/>
<path d="M19.8004 9.04198H14.9302V2.18045H19.8004V9.04198ZM20.4337 11.1773C21.6777 11.1773 22.6841 10.1718 22.6841 8.93277V2.29343C22.6841 1.05444 21.6777 0.045166 20.4337 0.045166H14.2856C13.0454 0.045166 12.0352 1.05067 12.0352 2.29343V8.929C12.0352 10.1718 13.0416 11.1735 14.2856 11.1735H20.4337V11.1773Z" fill="#E94709"/>
<path d="M25.1346 5.06892L28.0786 7.36237V2.18798H34.5321L36.3641 0.045166H27.3813C26.1373 0.045166 25.1309 1.05444 25.1309 2.29343V5.06892H25.1346Z" fill="#E94709"/>
<path d="M35.7471 6.14221L32.803 3.84875V9.02315H26.3496L24.5176 11.1697H33.5004C34.7444 11.1697 35.7508 10.1605 35.7508 8.92147V6.14597L35.7471 6.14221Z" fill="#F08300"/>
<path d="M70.2071 9.04198H65.9437V2.18045H70.2071V9.04198ZM73.0945 7.57327V2.29343C73.0908 1.05444 72.0843 0.045166 70.8403 0.045166H65.2953C64.0514 0.045166 63.0449 1.05067 63.0449 2.29343V8.929C63.0449 10.1718 64.0514 11.1735 65.2953 11.1735H73.9992V9.03445H71.0477L73.0908 7.57327H73.0945Z" fill="#E94709"/>
<path d="M45.476 9.04198H41.1372V2.18045H45.476V9.04198ZM38.2422 11.1773H46.1243C47.3645 11.1773 48.371 10.1718 48.371 8.93277V2.29343C48.371 1.05444 47.3645 0.045166 46.1243 0.045166H38.2422V11.1773Z" fill="#E94709"/>
</g>
<defs>
<clipPath id="clip0_421_1915">
<rect width="74" height="26" fill="white"/>
</clipPath>
</defs>
</svg>
