<svg width="32" height="32" viewBox="0 0 32 32" fill="none" xmlns="http://www.w3.org/2000/svg">
<mask id="mask0_421_1684" style="mask-type:alpha" maskUnits="userSpaceOnUse" x="0" y="0" width="32" height="32">
<rect width="32" height="32" fill="#D9D9D9"/>
</mask>
<g mask="url(#mask0_421_1684)">
<circle cx="16.3965" cy="16.636" r="11.5" fill="#FF7D53"/>
<circle cx="16.3965" cy="16.636" r="8.5" fill="white"/>
<path d="M9.10295 29.7648L6.8066 29.7648V13.87C6.8094 13.5191 6.66623 13.2018 6.43323 12.9688C6.20023 12.7358 5.88581 12.5955 5.53209 12.5955C4.82747 12.5983 4.25478 12.0256 4.25759 11.321L4.25759 5.30215C4.25478 4.90071 4.4176 4.54138 4.67868 4.2803C4.93976 4.01923 5.3019 3.8536 5.70334 3.85641L5.70053 8.62036L7.2333 8.62036L7.2333 4.57788C7.23611 4.37856 7.31471 4.19889 7.44385 4.06976C7.57298 3.94062 7.75826 3.85641 7.95477 3.85641C8.35341 3.85641 8.67624 4.17924 8.67624 4.57788L8.67624 8.62036L10.209 8.62036L10.2146 3.8536C11.0119 3.8536 11.6576 4.49927 11.6576 5.29654L11.6576 11.3153C11.6576 11.6691 11.5172 11.9891 11.287 12.2193C11.0568 12.4495 10.734 12.5927 10.3803 12.5927C9.67844 12.5927 9.10576 13.1653 9.10576 13.8672L9.10576 29.762L9.10295 29.7648Z" fill="white" stroke="#444444" stroke-linecap="round" stroke-linejoin="round"/>
<path d="M23.4661 1.67982L23.4661 16.854L23.4692 29.7558L25.9577 29.7558L25.9577 16.8571L27.9959 16.8571L26.8855 7.14351C26.6452 5.02922 25.0694 3.08225 23.4661 1.67982Z" fill="white" stroke="#444444" stroke-linecap="round" stroke-linejoin="round"/>
</g>
</svg>
