<svg width="32" height="32" viewBox="0 0 32 32" fill="none" xmlns="http://www.w3.org/2000/svg">
<path d="M29.2124 7.9675C29.2124 5.22331 26.989 3 24.2448 3C21.5007 3 19.2773 5.22331 19.2773 7.9675V15.3108H29.2124V7.9675Z" fill="#FF7D53" stroke="#444444" stroke-linecap="round" stroke-linejoin="round"/>
<path d="M19.2773 15.3065V22.6498C19.2773 25.394 21.5007 27.6173 24.2448 27.6173C26.989 27.6173 29.2124 25.394 29.2124 22.6498V15.3065H19.2773Z" fill="white" stroke="#444444" stroke-linecap="round" stroke-linejoin="round"/>
<path d="M29.2124 7.9675C29.2124 5.22331 26.989 3 24.2448 3C21.5007 3 19.2773 5.22331 19.2773 7.9675V15.3108H29.2124V7.9675Z" fill="#FF7D53" stroke="#444444" stroke-linecap="round" stroke-linejoin="round"/>
<path d="M14.8384 27.5453C16.778 29.4849 19.9245 29.4849 21.8641 27.5453C23.8037 25.6057 23.8037 22.4592 21.8641 20.5197L16.6721 15.3277L9.64648 22.3534L14.8384 27.5453Z" fill="#FF7D53" stroke="#444444" stroke-linecap="round" stroke-linejoin="round"/>
<path d="M16.6723 15.332L11.4803 10.14C9.54076 8.20047 6.39425 8.20047 4.45468 10.14C2.51511 12.0796 2.51511 15.2261 4.45468 17.1657L9.64663 22.3576L16.6723 15.332Z" fill="white" stroke="#444444" stroke-linecap="round" stroke-linejoin="round"/>
<path d="M14.8384 27.5453C16.778 29.4849 19.9245 29.4849 21.8641 27.5453C23.8037 25.6057 23.8037 22.4592 21.8641 20.5197L16.6721 15.3277L9.64648 22.3534L14.8384 27.5453Z" fill="#FF7D53" stroke="#444444" stroke-linecap="round" stroke-linejoin="round"/>
</svg>
