<svg width="64" height="18" viewBox="0 0 64 18" fill="none" xmlns="http://www.w3.org/2000/svg">
<path d="M59.2852 1.3927H63.1696V17.5852H59.2852V1.3927Z" fill="#FF3C3C"/>
<path d="M44.7295 1.3927H50.9053C53.1167 1.3927 54.8043 1.89462 55.9682 2.89847C57.1466 3.90232 57.7359 5.29897 57.7359 7.08844C57.7359 7.83041 57.5904 8.54329 57.2994 9.22707C57.0084 9.8963 56.5938 10.4855 56.0555 10.9947C55.5027 11.5039 54.8262 11.9113 54.026 12.2168C53.2404 12.5078 52.3456 12.6532 51.3418 12.6532H48.5921V17.5852H44.7295V1.3927ZM48.5921 9.18342H51.5164C52.3456 9.18342 52.9567 8.95792 53.3495 8.50692C53.7568 8.04137 53.9605 7.53944 53.9605 7.00115C53.9605 6.41921 53.7496 5.92456 53.3277 5.5172C52.9203 5.0953 52.3311 4.88434 51.56 4.88434H48.5921V9.18342Z" fill="#FF3C3C"/>
<path d="M39.3275 17.6726C38.5419 17.8908 37.6544 17.9999 36.6651 17.9999C35.6758 17.9999 34.7011 17.8617 33.7409 17.5853C33.4644 17.498 33.1516 17.3743 32.8025 17.2143C32.4679 17.0397 32.126 16.8433 31.7768 16.6251C31.4276 16.4069 31.0858 16.1741 30.7511 15.9268C30.4311 15.6649 30.1547 15.3957 29.9219 15.1193L32.497 12.326C33.5881 13.0971 34.5556 13.6427 35.3994 13.9627C36.2577 14.2828 36.9997 14.3628 37.6253 14.2028C37.9017 14.1446 38.12 14.0282 38.28 13.8536C38.4546 13.6645 38.5637 13.4535 38.6073 13.2207C38.651 13.0025 38.6219 12.7843 38.52 12.5661C38.4182 12.3333 38.2509 12.1369 38.0181 11.9768C37.7271 11.7877 37.4362 11.6277 37.1452 11.4967C36.8688 11.3513 36.5633 11.2058 36.2287 11.0603C35.894 10.9294 35.5303 10.7766 35.1375 10.602C34.7447 10.4129 34.3083 10.1874 33.8282 9.92551C32.4315 9.15444 31.544 8.23788 31.1658 7.17584C30.7875 6.1138 30.8384 5.10995 31.3185 4.1643C31.7986 3.13136 32.5333 2.34574 33.5226 1.80744C34.5265 1.26915 35.654 1 36.9052 1C38.1272 1 39.2402 1.21823 40.244 1.65468C41.2624 2.09114 42.1281 2.68763 42.8409 3.44415L40.3095 6.25929C39.7712 5.80828 39.1456 5.43729 38.4328 5.14633C37.7344 4.84081 37.1234 4.68805 36.5996 4.68805C36.2941 4.68805 36.0177 4.78261 35.7704 4.97174C35.5231 5.14632 35.3994 5.4082 35.3994 5.75736C35.3994 6.10653 35.6394 6.45569 36.1195 6.80485C36.5996 7.13947 37.4289 7.59047 38.6073 8.15787C40.0913 8.84165 41.146 9.5327 41.7716 10.231C42.4118 10.9294 42.79 11.6859 42.9064 12.5006C43.0955 13.679 42.8846 14.7411 42.2736 15.6867C41.6625 16.6324 40.6805 17.2943 39.3275 17.6726Z" fill="#FF3C3C"/>
<path d="M22.0133 18.0001C20.7913 18.0001 19.7001 17.8037 18.7399 17.4109C17.7797 17.0181 16.9723 16.4579 16.3176 15.7305C15.6484 15.0031 15.1392 14.1156 14.79 13.0681C14.4554 12.0061 14.2881 10.8204 14.2881 9.51103C14.2881 8.20166 14.4554 7.02323 14.79 5.97574C15.1392 4.92825 15.6484 4.04079 16.3176 3.31336C16.9723 2.58594 17.7797 2.02582 18.7399 1.63301C19.7001 1.22565 20.7913 1.02197 22.0133 1.02197C23.2354 1.02197 24.3266 1.22565 25.2868 1.63301C26.2615 2.02582 27.0835 2.58594 27.7527 3.31336C28.422 4.04079 28.9312 4.92825 29.2803 5.97574C29.644 7.02323 29.8259 8.20166 29.8259 9.51103C29.8259 10.8204 29.644 12.0061 29.2803 13.0681C28.9312 14.1156 28.422 15.0031 27.7527 15.7305C27.0835 16.4579 26.2615 17.0181 25.2868 17.4109C24.3266 17.8037 23.2354 18.0001 22.0133 18.0001ZM22.057 14.2902C23.1918 14.2902 24.1156 13.861 24.8285 13.0027C25.5414 12.1443 25.8978 10.9804 25.8978 9.51103C25.8978 8.82725 25.796 8.19439 25.5923 7.61245C25.4031 7.0305 25.1413 6.52131 24.8067 6.08485C24.472 5.66295 24.0647 5.3356 23.5846 5.10283C23.119 4.8555 22.6098 4.73184 22.057 4.73184C21.4896 4.73184 20.9658 4.8555 20.4857 5.10283C20.0202 5.3356 19.6201 5.66295 19.2855 6.08485C18.9509 6.52131 18.689 7.0305 18.4999 7.61245C18.3107 8.19439 18.2162 8.82725 18.2162 9.51103C18.2162 10.9804 18.5653 12.1443 19.2637 13.0027C19.9766 13.861 20.9077 14.2902 22.057 14.2902Z" fill="#FF3C3C"/>
<path d="M4.81898 14.3118V17.5852H1V1.3927H4.81898V8.61603L9.99098 1.3927H14.2246L9.37994 8.26687L14.3992 17.5852H10.2529L6.87032 11.5403L4.81898 14.3118Z" fill="#FF3C3C"/>
</svg>
