<svg width="32" height="32" viewBox="0 0 32 32" fill="none" xmlns="http://www.w3.org/2000/svg">
<path d="M1 24.2005L3.61152 21.589C3.32664 20.4494 3.3742 18.7872 5.29729 16.8641L6.15288 16.0085L8.11082 14.0506C8.52378 13.6376 9.19338 13.6376 9.60681 14.0506C10.0198 14.4635 10.0198 15.1331 9.60681 15.5466L11.2808 13.8726C11.6938 13.4596 12.3634 13.4596 12.7768 13.8726C13.1898 14.2856 13.1898 14.9552 12.7768 15.3686L13.5246 14.6208C13.9375 14.2079 14.6071 14.2079 15.0206 14.6208C15.4335 15.0338 15.4335 15.7034 15.0206 16.1168L14.2728 16.8646C14.6858 16.4516 15.3554 16.4516 15.7688 16.8646C16.1818 17.2776 16.1818 17.9471 15.7688 18.3606L12.1835 21.9459L13.7205 21.1958C14.2455 20.9396 14.8788 21.1576 15.135 21.6827C15.3911 22.2077 15.1731 22.841 14.6481 23.0972L10.9055 24.9233C10.9055 24.9233 9.12086 25.7685 7.41155 25.3885L4.80003 28" stroke="#444444" stroke-linecap="round" stroke-linejoin="round"/>
<path d="M9.60697 15.5461L8.43164 16.7214" stroke="#444444" stroke-linecap="round" stroke-linejoin="round"/>
<path d="M12.7766 15.3681L9.92773 18.2169" stroke="#444444" stroke-linecap="round" stroke-linejoin="round"/>
<path d="M14.2731 16.8638L11.4238 19.7131" stroke="#444444" stroke-linecap="round" stroke-linejoin="round"/>
<path d="M4.60764 17.6411L3.64563 16.6791C2.98827 16.0218 2.98827 14.9552 3.64563 14.2979C4.30298 13.6405 5.36906 13.6405 6.02689 14.2979L3.36216 11.6331C2.7048 10.9758 2.7048 9.9097 3.36216 9.25187C4.01951 8.59452 5.08559 8.59452 5.74341 9.25187L4.55302 8.06148C3.89567 7.40412 3.89567 6.33757 4.55302 5.68022C5.21037 5.02286 6.27693 5.02286 6.93428 5.68022L8.12467 6.87061C7.46732 6.21326 7.46732 5.14671 8.12467 4.48935C8.78203 3.832 9.84858 3.832 10.5059 4.48935L16.2135 10.1969L15.0198 7.75022C14.612 6.9144 14.9591 5.90624 15.7949 5.49846C16.6307 5.09067 17.6389 5.43771 18.0467 6.27353L20.9539 12.2316C20.9539 12.2316 22.2992 15.0725 21.6946 17.7942L25.8525 21.9521" stroke="#444444" stroke-linecap="round" stroke-linejoin="round"/>
<path d="M19.8038 27.9991L15.6459 23.8412C14.8605 24.0375 13.9192 24.1345 12.8555 23.9335" stroke="#444444" stroke-linecap="round" stroke-linejoin="round"/>
<path d="M6.02734 14.2978L6.94604 15.2165" stroke="#444444" stroke-linecap="round" stroke-linejoin="round"/>
<path d="M5.74414 9.25183L10.2802 13.7874" stroke="#444444" stroke-linecap="round" stroke-linejoin="round"/>
<path d="M8.125 6.87054L12.661 11.4061" stroke="#444444" stroke-linecap="round" stroke-linejoin="round"/>
<path d="M30.7191 7.65902C30.8883 7.25768 30.9874 6.8109 30.9989 6.3395C31.0427 4.51357 29.7609 3 28.1681 3C27.3576 3 26.6264 3.39093 26.1106 4.01662C26.0503 4.0895 25.9497 4.0895 25.8894 4.01662C25.3736 3.39093 24.6424 3 23.8319 3C22.2391 3 20.9573 4.51357 21.0011 6.3395C21.0126 6.81184 21.1117 7.25862 21.2809 7.65902C21.2809 7.65902 21.2817 7.66092 21.2825 7.66186C21.4443 8.04523 21.6704 8.38599 21.9436 8.66712C22.7293 9.66102 24.143 11.0705 26 12C27.7431 11.1273 29.0941 9.8333 29.9037 8.85644C29.9838 8.75989 30.063 8.66428 30.1464 8.57152C30.3799 8.31027 30.5739 8.00263 30.7183 7.66186C30.7183 7.66092 30.7191 7.65997 30.72 7.65902H30.7191Z" fill="#FF7D53"/>
</svg>
