<svg width="33" height="32" viewBox="0 0 33 32" fill="none" xmlns="http://www.w3.org/2000/svg">
<path d="M9.04133 19.1333C7.33028 17.1053 6.29493 14.4767 6.29493 11.6001C6.28948 5.19111 11.4281 0 17.7655 0C24.1029 0 29.2361 5.19111 29.2361 11.6001C29.2361 17.1659 25.3672 21.8115 20.2013 22.9412" fill="#FF7D53"/>
<path d="M12.6406 8.347L15.3545 14.869L17.8166 8.347L20.4594 14.869L22.8832 8.347" fill="#FF7D53"/>
<path d="M12.6406 8.347L15.3545 14.869L17.8166 8.347L20.4594 14.869L22.8832 8.347" stroke="white" stroke-linecap="round" stroke-linejoin="round"/>
<path d="M11.875 10.9842H23.9451" stroke="white" stroke-linecap="round" stroke-linejoin="round"/>
<path d="M13.8382 22.3527L18.5007 23.8863C19.3582 24.1996 20.3023 23.7544 20.6156 22.901C20.9289 22.0436 20.4837 21.0995 19.6303 20.7862L11.9253 18.1643C10.7628 17.7768 9.50132 17.8345 8.38 18.3251L4.89648 19.8751" fill="white"/>
<path d="M13.8382 22.3527L18.5007 23.8863C19.3582 24.1996 20.3023 23.7544 20.6156 22.901C20.9289 22.0436 20.4837 21.0995 19.6303 20.7862L11.9253 18.1643C10.7628 17.7768 9.50132 17.8345 8.38 18.3251L4.89648 19.8751" stroke="#444444" stroke-linecap="round" stroke-linejoin="round"/>
<path d="M20.5616 23.1319L25.4632 21.1366C26.2877 20.7532 27.2689 21.1078 27.6564 21.9323C28.0398 22.7568 27.6853 23.7379 26.8608 24.1254L19.3867 27.609L19.0734 27.7409C17.6717 28.3428 16.0681 28.2603 14.7324 27.5224L11.7683 25.8857C10.4244 25.1437 8.80833 25.0654 7.39844 25.6796" stroke="#444444" stroke-linecap="round" stroke-linejoin="round"/>
<path d="M1 20.2874L3.59305 19.096C4.0053 18.9022 4.49588 19.0754 4.68964 19.4876L7.41874 25.9146C7.61249 26.3269 7.43935 26.8174 7.0271 27.0112L1.00412 30" stroke="#444444" stroke-linecap="round" stroke-linejoin="round"/>
<path d="M2.90444 23.1319C3.13212 23.1319 3.31669 22.9473 3.31669 22.7197C3.31669 22.492 3.13212 22.3074 2.90444 22.3074C2.67676 22.3074 2.49219 22.492 2.49219 22.7197C2.49219 22.9473 2.67676 23.1319 2.90444 23.1319Z" stroke="#444444" stroke-linecap="round" stroke-linejoin="round"/>
</svg>
