<svg xmlns="http://www.w3.org/2000/svg" xmlns:xlink="http://www.w3.org/1999/xlink" width="1920" height="369" viewBox="0 0 1920 369"><defs><style>.a{fill:#d7d9d8;}.ad,.ag,.aj,.ak,.ao,.b{fill:none;}.c{clip-path:url(#a);}.d{fill:#fff;}.e{fill:#efa2a0;}.f{fill:#e27171;}.g{clip-path:url(#b);}.h{fill:#231b3e;}.i{fill:#e6e6e6;}.j{fill:#767583;}.k{fill:#29283d;}.l{fill:#363551;}.m{fill:#f16f89;}.n{fill:#736357;}.o{fill:#8f8279;}.p{fill:#d9d9d9;}.q{fill:#f2f2f2;}.r{fill:#53bca8;}.s{fill:#545364;}.t{fill:#2a5e54;}.u{fill:#e2e1da;}.v{fill:#3e8d7e;}.w{clip-path:url(#c);}.x{fill:#899bd2;}.y{fill:#2d3147;}.z{fill:#575a6c;}.aa{fill:#d1d1d1;}.ab{fill:#b0d0fe;}.ac{clip-path:url(#d);}.ad{stroke:#b0d0fe;stroke-miterlimit:10;stroke-width:2px;}.ae{clip-path:url(#e);}.af{fill:#ff8b5e;}.ag{stroke:#500a02;}.ag,.aj,.ak,.ao{stroke-linecap:round;stroke-linejoin:round;}.ah{fill:#acc6ff;}.ai{clip-path:url(#f);}.aj,.ak,.ao{stroke:#fff;stroke-width:3px;}.ak{stroke-dasharray:1.008 10.076;}.al{clip-path:url(#g);}.am{fill:#e4702b;}.an{clip-path:url(#h);}.ao{stroke-dasharray:1 10;}</style><clipPath id="a"><rect class="a" width="1920" height="369" transform="translate(0 4163)"/></clipPath><clipPath id="b"><rect class="b" width="225.857" height="230.224"/></clipPath><clipPath id="c"><rect class="b" width="174.115" height="238.507"/></clipPath><clipPath id="d"><rect class="b" width="104.077" height="38.465"/></clipPath><clipPath id="e"><rect class="b" width="70.701" height="62.68"/></clipPath><clipPath id="f"><rect class="b" width="71.4" height="23.074"/></clipPath><clipPath id="g"><rect class="b" width="47.236" height="52.957"/></clipPath><clipPath id="h"><rect class="b" width="99.94" height="39.849"/></clipPath></defs><g class="c" transform="translate(0 -4163)"><g transform="translate(315.437 4268.621)"><path class="d" d="M80.343,0,54.086,13.343,71.561,48.3,97.819,34.956Z" transform="translate(-27.118 0)"/></g><g transform="translate(459.927 4327.521)"><path class="e" d="M285.126,93.8l6.687-11.745,10.5,5.724-6.746,12.454Z" transform="translate(-148.351 -42.694)"/><path class="f" d="M312.356,89.742l-7.187-3.917-.746,2.713,3.235,9.877Z" transform="translate(-158.392 -44.655)"/><g transform="translate(0)"><g class="g"><path class="h" d="M315.94,54.409c-1.784-2.237-4.625-3.873-9.134-2.986a6.354,6.354,0,0,0-4.375-.763c-2.578.453-6.012,2.762-6.686,9.961l16.4,1.036a4.479,4.479,0,0,0,3.8-7.248" transform="translate(-153.876 -26.306)"/><path class="e" d="M299.109,67.232c-.269,5.606,3.436,10.338,8.274,10.57s8.977-4.125,9.246-9.731-3.436-10.338-8.274-10.57-8.977,4.125-9.246,9.731" transform="translate(-155.619 -29.913)"/><path class="h" d="M320.7,78.689a.24.24,0,0,1-.053-.474c.611-.138.53-1.3.529-1.312a.251.251,0,0,1,0-.032l.073-1.521a.24.24,0,0,1,.479.023l-.072,1.506c.012.181.076,1.581-.9,1.8A.24.24,0,0,1,320.7,78.689Z" transform="translate(-166.736 -39.086)"/><path class="h" d="M314.84,76.175a.417.417,0,1,0,.436-.4.417.417,0,0,0-.436.4" transform="translate(-163.811 -39.427)"/><path class="h" d="M315,75.278h.032a.657.657,0,1,1-.032,0Zm0,.834a.179.179,0,1,0-.009,0Z" transform="translate(-163.551 -39.167)"/><path class="h" d="M327.582,76.785a.417.417,0,1,0,.437-.4.417.417,0,0,0-.437.4" transform="translate(-170.441 -39.745)"/><path class="h" d="M327.738,75.888h.032a.657.657,0,1,1-.032,0Zm0,.834a.178.178,0,1,0-.009,0Z" transform="translate(-170.181 -39.484)"/><path class="h" d="M314.514,59.784c-.588-.61-7.329-3.308-8.164.29-.767,3.305-5.348,3.293-7.254,2.95s1.555-4.43,1.555-4.43l3.146-3.877,3.606.173,2.836-.372,5.877,3.518Z" transform="translate(-155.322 -28.366)"/><path class="e" d="M292.178,73.1a3.355,3.355,0,1,0,3.511-3.19,3.354,3.354,0,0,0-3.511,3.19" transform="translate(-152.018 -36.374)"/><path class="h" d="M297.108,75.976a.24.24,0,0,1-.064-.009,2.436,2.436,0,0,1-1.579-1.119,1.605,1.605,0,0,1-.215-.781.24.24,0,0,1,.479.016c0,.043,0,1.019,1.443,1.421a.24.24,0,0,1-.064.471Z" transform="translate(-153.618 -38.417)"/><path class="d" d="M314.432,82.934l2.936,1.839a7.4,7.4,0,0,1-2.519,1.439c-1.005.16-.949-1.839-.417-3.278" transform="translate(-163.404 -43.151)"/><path class="h" d="M327.671,66.362a5.823,5.823,0,0,0,.072,5.95l35.386,5.153-.963-15.194Z" transform="translate(-170.081 -32.4)"/><path class="h" d="M352.32,66.909l.068,5.556,33.044,4.812-.9-14.188Z" transform="translate(-183.312 -32.825)"/><path class="d" d="M260.7,104.665s3.957-.209,8.379,3.355c4.539,3.657,15.487,10.935,15.487,10.935l4.659-23.181,11.474,3.7-5.016,34.079c-1.879,5.549-7.357,6.572-13.327,4.174L264.542,129.7l-16.348,26.633-33.053-7.085,4.741-17.93,4.49-27.231s8.278-3.881,24.678-3.743L255.822,105Z" transform="translate(-111.938 -49.831)"/><path class="e" d="M368,87.783l-1.366-5.617s-.648-2.636,1.571-1.437a17.473,17.473,0,0,1,3.091,2.14l3.519.432s5.907,1.523,4.66,8.179Z" transform="translate(-190.714 -41.84)"/><path class="h" d="M420.638,69.55c.051,4.211-1.72,7.646-3.956,7.674s-4.09-3.364-4.141-7.575S414.26,62,416.5,61.975s4.09,3.365,4.141,7.575" transform="translate(-214.644 -32.245)"/><path class="d" d="M420.71,71.314c.04,3.319-1.356,6.026-3.118,6.048s-3.223-2.651-3.264-5.97,1.356-6.026,3.118-6.048,3.224,2.651,3.264,5.97" transform="translate(-215.575 -33.998)"/><path class="h" d="M401.676,69.191c.055,4.509-1.842,8.188-4.236,8.218s-4.38-3.6-4.435-8.112,1.842-8.188,4.236-8.218,4.38,3.6,4.435,8.112" transform="translate(-204.48 -31.779)"/><path class="d" d="M401.753,71.08c.043,3.554-1.452,6.453-3.338,6.476s-3.452-2.839-3.5-6.393,1.452-6.453,3.338-6.476,3.452,2.839,3.5,6.393" transform="translate(-205.476 -33.656)"/><path class="i" d="M378.827,110.661l-2.093-.623-.339-2.217-.937,1.972L367,107.242l.139-.459,8.063,2.432,1.431-3.011.53,3.462,1.8.537Z" transform="translate(-190.95 -55.258)"/><path class="e" d="M184.368,243.45l-.1,4.138s1.268,4.854-.02,5.56-2.121-2.808-2.121-2.808.223,7.444-1.247,7.37c-.494-.025-.827-.492-1.055-1.1-.136,1.153-.435,2.151-1.063,2.119-.678-.034-1.056-.9-1.269-1.818-.2.791-.512,1.368-1,1.324-.85-.077-1.175-1.441-1.3-2.573-.2.828-.516,1.441-1.014,1.395-1.465-.134-1.376-4.1-1.376-4.1l-.159-7.113-.035-3.108Z" transform="translate(-89.812 -126.299)"/><path class="f" d="M-.11,3.833A.24.24,0,0,1-.349,3.6L-.5-.251A.24.24,0,0,1-.27-.5.24.24,0,0,1-.02-.27L.13,3.584a.24.24,0,0,1-.23.249Z" transform="translate(90.123 126.72)"/><path class="f" d="M-.121,4.221a.24.24,0,0,1-.24-.232L-.5-.252A.24.24,0,0,1-.268-.5.24.24,0,0,1-.02-.268L.119,3.973a.24.24,0,0,1-.232.248Z" transform="translate(87.803 126.633)"/><path class="f" d="M.034,4.072a.24.24,0,0,1-.239-.223L-.5-.243A.24.24,0,0,1-.277-.5a.24.24,0,0,1,.256.222L.273,3.815a.24.24,0,0,1-.222.256Z" transform="translate(85.352 125.533)"/><path class="d" d="M200.294,113.108s-27.352,23.182-28.312,30.138-3.118,32.859-3.118,32.859h13.671s3.184-25.256,4.518-27.342c1.958-3.062,8.75-8.424,8.75-8.424Z" transform="translate(-87.86 -58.85)"/><path class="i" d="M172.64,234.869l-1.081-3.965h-1.543v-.48h1.91l.718,2.631.728-2.64,9.415.428-.022.479-9.032-.411Z" transform="translate(-88.459 -119.885)"/><path class="i" d="M-.02,18.075l-.466-.116L4-.121,4.47,0Z" transform="translate(108.197 63.471)"/><path class="j" d="M325.86,438.647l-.042,2.4-7.3,4.837-5.834-4.433.367-2.806Z" transform="translate(-162.688 -228.228)"/><path class="k" d="M324.583,443.594s6.532,7.415,5.441,8.357-19.437,1.141-19.685,0S311.447,444,311.447,444s3.652-.079,4.4.466a1.82,1.82,0,0,1,.413.488,1.346,1.346,0,0,0,2.125.178c.921-.99,2.716-1.819,6.2-1.537" transform="translate(-161.453 -230.773)"/><path class="l" d="M270.8,313.614H253.189s8.006-47.26,5.488-51.15-25.4-21.049-25.4-21.049l-8.006,80.379H209.33l-2.586-84.955s-.662-23.808,3.8-35.718a19.794,19.794,0,0,1,1.358-2.945l31.9,11.441.643,3.214.5,2.5s35.229,29.972,36.831,35.92-10.98,62.361-10.98,62.361" transform="translate(-107.551 -103.11)"/><path class="j" d="M231.121,455.871l-.042,2.4-7.3,4.837-5.834-4.433.367-2.806Z" transform="translate(-113.396 -237.19)"/><path class="k" d="M229.844,460.819s6.532,7.415,5.441,8.357-19.437,1.141-19.685,0,1.108-7.953,1.108-7.953,3.652-.079,4.4.466a2.877,2.877,0,0,1,.679.964.889.889,0,0,0,1.531.11c.794-1.153,2.572-2.265,6.53-1.944" transform="translate(-112.161 -239.735)"/><path class="i" d="M279.536,102.716l4.389-2.428,5.4,7.066-6.754,2.741Z" transform="translate(-145.443 -52.18)"/><path class="i" d="M299.948,113.484l1.921,5.222,3.947-5.508-.486-1.127Z" transform="translate(-156.063 -58.31)"/><path class="k" d="M248.612,212.829l-33.9-11.709a19.794,19.794,0,0,1,1.358-2.945l31.9,11.441Z" transform="translate(-111.715 -103.11)"/><path class="i" d="M-.02,9.591l-.47-.1L1.51-.1l.47.1Z" transform="translate(170.915 69.249)"/><path class="k" d="M-.02,18.216-.5,18.155,1.85-.064,2.326,0Z" transform="translate(125.988 120.118)"/><path class="m" d="M283.431,115.017l-4.9,1.987,1.178,3.714-11.51,35.9,3.038,9.8,7.835-7.2,3.15-37.686,2.493-3.013Z" transform="translate(-139.546 -59.843)"/><path class="d" d="M28.407,158.777,30,171.6H67.382l2.585-24.382Z" transform="translate(-14.78 -76.595)"/><path class="d" d="M76.992,108.364c1.873,10.025-2.944,14.461-11.972,10.732l-6.362-8.814-2.99-4.352-.422,4.725-33.778,4.791L.918,116.565l6.125-31.4s4.92-13.236,17.049-15.507l12.48,3.229,9.358-5.019s10.34.935,16.394,13.3,14.667,27.191,14.667,27.191" transform="translate(-0.478 -35.312)"/><path class="i" d="M49.228,67.354l4.424-3.911,8.057,7.143L57.831,75.6Z" transform="translate(-25.613 -33.009)"/><path class="e" d="M58.451,45.649l8.057,7.143,4.679-7.143v-16.4H58.451Z" transform="translate(-30.412 -15.216)"/><path class="f" d="M72.323,51.975,60.634,43.193H72.323Z" transform="translate(-31.548 -22.473)"/><path class="h" d="M69.326,17.365H57.681l-4.291-1.9A12.868,12.868,0,0,1,55.1,9.315,8.785,8.785,0,0,1,60.4,5.231a4.31,4.31,0,0,1,3.213.863c4.3-1.062,5.641,1.085,7.6,3.026,4.651,4.618,1.849,8.3-1.885,8.245" transform="translate(-27.779 -2.683)"/><path class="h" d="M62.187,18.2l-.4,3.671H57.681l-4.291-1.9A12.872,12.872,0,0,1,55.1,13.826,14.859,14.859,0,0,0,62.187,18.2" transform="translate(-27.779 -7.194)"/><path class="e" d="M73.837,22.73c0,5.409-3.786,9.8-8.455,9.8s-8.451-4.387-8.451-9.8a11.033,11.033,0,0,1,.2-2.132.662.662,0,0,0,.525.334c1.854.242,4.574-.808,5.154-4.487a3.457,3.457,0,0,1,2.894-2.663,2.164,2.164,0,0,1,2.417,1.046l.5.9a1.772,1.772,0,0,0,1.315.9c3.516.451,3.9,1.347,3.9,6.1" transform="translate(-29.621 -7.137)"/><path class="h" d="M79.341,33.637a.24.24,0,0,1-.064-.471c.572-.159.444-1.267.442-1.278a.246.246,0,0,1,0-.031V30.389a.24.24,0,1,1,.48,0v1.453c.021.177.146,1.526-.792,1.786A.24.24,0,0,1,79.341,33.637Z" transform="translate(-41.156 -15.687)"/><path class="h" d="M73.457,30.858a.4.4,0,1,0,.4-.4.4.4,0,0,0-.4.4" transform="translate(-38.22 -15.846)"/><path class="h" d="M.142-.5A.643.643,0,0,1,.784.142.643.643,0,0,1,.142.784.643.643,0,0,1-.5.142.643.643,0,0,1,.142-.5Zm0,.8A.162.162,0,1,0-.02.142.162.162,0,0,0,.142.3Z" transform="translate(35.498 14.87)"/><path class="h" d="M85.752,32.127a.4.4,0,1,0,.4-.4.4.4,0,0,0-.4.4" transform="translate(-44.617 -16.507)"/><path class="h" d="M.142-.5A.643.643,0,0,1,.784.142.643.643,0,0,1,.142.784.643.643,0,0,1-.5.142.643.643,0,0,1,.142-.5Zm0,.8A.162.162,0,1,0-.02.142.162.162,0,0,0,.142.3Z" transform="translate(41.395 15.479)"/><path class="h" d="M85.175,27.207a1.435,1.435,0,0,1,.4-.1,2.2,2.2,0,0,1,.4,0,1.648,1.648,0,0,1,.763.282.246.246,0,0,1-.174.441l-.02,0c-.224-.024-.425-.074-.641-.088-.106-.018-.214-.024-.323-.034s-.224-.016-.32-.033l-.045-.008a.242.242,0,0,1-.05-.462" transform="translate(-44.238 -14.1)"/><path class="h" d="M73.207,25.291a1.37,1.37,0,0,1,.415-.053,1.889,1.889,0,0,1,.4.051,1.4,1.4,0,0,1,.713.4.25.25,0,0,1-.222.413l-.029,0c-.116-.017-.215-.052-.32-.075s-.2-.056-.307-.083-.207-.05-.312-.082-.219-.052-.312-.086l-.047-.017a.243.243,0,0,1,.015-.462" transform="translate(-37.998 -13.131)"/><path class="h" d="M77.192,40.774a2.991,2.991,0,0,1-2.261-.862,2.31,2.31,0,0,1-.542-.89.24.24,0,0,1,.462-.129h0a2.225,2.225,0,0,0,2.341,1.4.24.24,0,1,1,0,.48Z" transform="translate(-38.7 -20.145)"/><path class="e" d="M50.19,28.137A3.233,3.233,0,1,0,53.423,24.9a3.233,3.233,0,0,0-3.233,3.233" transform="translate(-26.114 -12.958)"/><path class="h" d="M54.9,30.834a.24.24,0,0,1-.054-.006,2.358,2.358,0,0,1-1.577-1.008,1.556,1.556,0,0,1-.244-.746.24.24,0,0,1,.48-.007c0,.041.046.974,1.448,1.294a.24.24,0,0,1-.053.474Z" transform="translate(-27.587 -15.001)"/><path class="n" d="M76.447,124.248l-1.758,3.368L72.9,131.048,70.581,135l-1.467-1.318L68.1,132.449,65.772,129.6l-1.018-1.245-1.631-2,.175-1.443.238-1.969.557-4.613.247-2.02.561-4.649.254-2.072.565-4.693.259-2.12.572-4.749.271-2.2.577-4.776.274-2.283.454-3.726-.191-.255-.951-1.261L65.968,82.17l2.971-3.838L71,79.732l1.32.9.911.616-1.762,3.241.088.716.247,1.965.485,3.862.243,1.953.485,3.877.243,1.937.485,3.877.242,1.933.485,3.877.242,1.929.485,3.89.238,1.913.489,3.889.239,1.913Z" transform="translate(-32.843 -40.756)"/><path class="o" d="M76.511,82.145c-1.4,1.455-2.863,2.844-4.386,4.16l-.951-1.261q2.088-1.808,4.017-3.794Z" transform="translate(-37.032 -42.274)"/><path class="o" d="M76.444,94.615q-2.118,2.046-4.407,3.886l.274-2.283c1.344-1.129,2.641-2.323,3.886-3.568Z" transform="translate(-37.481 -48.206)"/><path class="o" d="M76.252,106.749a66.319,66.319,0,0,1-5.981,5.051l.27-2.2a63.766,63.766,0,0,0,5.469-4.8Z" transform="translate(-36.562 -54.525)"/><path class="o" d="M76.078,118.887a66.159,66.159,0,0,1-7.54,6.1l.259-2.12a66.2,66.2,0,0,0,7.039-5.922Z" transform="translate(-35.66 -60.849)"/><path class="o" d="M75.917,131a67.005,67.005,0,0,1-9.088,7.059l.255-2.072a65.293,65.293,0,0,0,8.59-6.92Z" transform="translate(-34.771 -67.156)"/><path class="o" d="M75.769,143.114a67.272,67.272,0,0,1-10.623,7.922l.247-2.02a65.153,65.153,0,0,0,10.134-7.831Z" transform="translate(-33.895 -73.459)"/><path class="o" d="M75.63,155.227a67.452,67.452,0,0,1-12.142,8.7l.239-1.969a65.813,65.813,0,0,0,11.665-8.646Z" transform="translate(-33.033 -79.769)"/><path class="o" d="M77.937,167.323a67.541,67.541,0,0,1-10.4,7.584l-1.018-1.245A65.576,65.576,0,0,0,77.7,165.41Z" transform="translate(-34.612 -86.063)"/><path class="o" d="M80.085,181.072,78.292,184.5q-1.843,1.384-3.782,2.637L73.495,185.9a64.79,64.79,0,0,0,6.59-4.832" transform="translate(-38.239 -94.212)"/><path class="p" d="M19.839,150.24a.239.239,0,0,1-.166-.067A9.478,9.478,0,0,0,16.239,148a7.905,7.905,0,0,0-3.017-.431,7.66,7.66,0,0,0-2.96.73.24.24,0,0,1-.228-.422,8.036,8.036,0,0,1,3.163-.787,8.382,8.382,0,0,1,3.2.458,9.952,9.952,0,0,1,3.609,2.285.24.24,0,0,1-.166.413Z" transform="translate(-5.155 -76.522)"/><path class="p" d="M22.5,146.642a.24.24,0,0,1-.2-.108,8.3,8.3,0,0,0-2.276-2.353,7.3,7.3,0,0,0-2.279-1.026,6.681,6.681,0,0,0-2.446-.194.24.24,0,1,1-.075-.474,7.073,7.073,0,0,1,2.641.2,7.778,7.778,0,0,1,2.429,1.093A8.777,8.777,0,0,1,22.7,146.27a.24.24,0,0,1-.2.371Z" transform="translate(-7.815 -74.113)"/><path class="e" d="M148.053,86.125l-1.316,28.559a7.854,7.854,0,0,1-7.847,7.727c-.127,0-.254,0-.382-.008a7.859,7.859,0,0,1-7.394-9.056c1.671-10.746,5.067-26.229,4.757-27.124a17.891,17.891,0,0,1-.943-7c.354-2.294,6.8-6.28,6.8-6.28s.895-.5,1.853-.9c.008,0,.012,0,.02-.008h.008a3.062,3.062,0,0,1,3.21.879c0,.008.012.012.016.02.083.115.167.235.247.358.008.012.016.024.028.04v0a39.246,39.246,0,0,1,2.14,3.882c1.2,2.4-1.2,8.9-1.2,8.9" transform="translate(-68.17 -37.411)"/><path class="k" d="M31.723,198.041v4.507H69.091l.017-4.507Z" transform="translate(-16.506 -103.041)"/><path class="l" d="M79.728,267.718l-21.582,5.123-9.512-28.772L48.355,271.4H24.38s-4.082-25.75-3.876-39a72.32,72.32,0,0,1,5.377-24.964H63.25l15.23,53.453.01.048a.685.685,0,0,1,.029.1c.149.609.715,3.065,1.209,6.682" transform="translate(-10.664 -107.928)"/><path class="p" d="M-.26,11.044l-.036,0a.24.24,0,0,1-.2-.273L1.186-.3A.24.24,0,0,1,1.46-.5a.24.24,0,0,1,.2.273L-.023,10.84A.24.24,0,0,1-.26,11.044Z" transform="translate(17.125 62.176)"/><path class="q" d="M30,181.916,28.407,169.1l7.362-2.048s4.235,10.36,6.522,14.867Z" transform="translate(-14.78 -86.916)"/><path class="i" d="M75.247,70.586l5.469,3.706L84.6,65.567l-4.679-2.125Z" transform="translate(-39.151 -33.009)"/><path class="r" d="M83.9,117.662H56.878a2.355,2.355,0,0,1-2.314-2.793l6.864-36.277a2.355,2.355,0,0,1,2.314-1.917H90.766a2.355,2.355,0,0,1,2.314,2.793l-6.864,36.277a2.355,2.355,0,0,1-2.314,1.917" transform="translate(-28.368 -39.894)"/><path class="e" d="M35.132,103.863c.4,1.54,1.37,6.475,1.78,8.595a10.141,10.141,0,0,1,.184,1.978c0,.78-.913,5.344-6.029,9L13.955,143.252a7.947,7.947,0,0,1-12.746-.973c-.113-.183-.222-.368-.321-.559a7.955,7.955,0,0,1,2.26-9.989l20.394-17.274s2.207-7.18,4.017-8.424,7.055-4.15,7.573-2.169" transform="translate(0 -53.69)"/><path class="e" d="M57.451,104.276l3.764-4.462-.693,3.785Z" transform="translate(-29.892 -51.933)"/><path class="e" d="M71.731,102.651a1.561,1.561,0,0,1-.788,1.356l-5.23,2.983L64.5,103.013l5.154-1.822a1.554,1.554,0,0,1,2.076,1.46" transform="translate(-33.559 -52.603)"/><path class="e" d="M76.2,107.508a1.561,1.561,0,0,1-.788,1.356l-5.23,2.983-1.213-3.977,5.154-1.821a1.554,1.554,0,0,1,2.076,1.46" transform="translate(-35.884 -55.13)"/><path class="e" d="M76.935,114.6a1.562,1.562,0,0,1-.738,1.384l-5.118,3.171-1.357-3.93,5.084-2.008a1.554,1.554,0,0,1,2.128,1.383" transform="translate(-36.277 -58.848)"/><path class="e" d="M77.8,121.563a1.561,1.561,0,0,1-.612,1.444l-4.817,3.612-1.7-3.795,4.887-2.45a1.554,1.554,0,0,1,2.242,1.189" transform="translate(-36.772 -62.544)"/><path class="f" d="M-.26,2.579a.24.24,0,0,1-.218-.139.24.24,0,0,1,.117-.318l5.627-2.6a.24.24,0,0,1,.318.117.24.24,0,0,1-.117.318L-.16,2.557A.239.239,0,0,1-.26,2.579Z" transform="translate(32.414 51.34)"/><path class="f" d="M-.26,2.406a.24.24,0,0,1-.219-.142.24.24,0,0,1,.121-.317L5.059-.479a.24.24,0,0,1,.317.121.24.24,0,0,1-.121.317L-.162,2.385A.239.239,0,0,1-.26,2.406Z" transform="translate(33.011 54.769)"/><path class="f" d="M-.26,2.714a.24.24,0,0,1-.214-.131.24.24,0,0,1,.1-.323L4.974-.474a.24.24,0,0,1,.323.1.24.24,0,0,1-.1.323L-.151,2.688A.239.239,0,0,1-.26,2.714Z" transform="translate(33.706 58.09)"/><path class="f" d="M143.79,85.232a.24.24,0,0,1-.218-.139l-.364-.788-.006-.015c-.518-1.361-1.371-1.319-1.407-1.317h0l-.044-.478c.05,0,1.24-.093,1.894,1.616l.361.781a.24.24,0,0,1-.218.34Z" transform="translate(-73.754 -42.92)"/><path class="f" d="M150.153,80.035a.24.24,0,0,1-.218-.139l-.365-.788-.006-.015c-.518-1.361-1.371-1.319-1.407-1.317h0l-.044-.478c.05,0,1.239-.093,1.893,1.616l.361.781a.24.24,0,0,1-.218.341Z" transform="translate(-77.065 -40.216)"/><path class="f" d="M156.676,75.682a.24.24,0,0,1-.218-.139l-.365-.788-.006-.015c-.518-1.361-1.371-1.319-1.407-1.317h0l-.044-.478c.05,0,1.239-.093,1.893,1.616l.361.781a.24.24,0,0,1-.218.341Z" transform="translate(-80.459 -37.952)"/><path class="l" d="M52.661,395.232h-19.8l-4.274-54.451h23.98Z" transform="translate(-14.875 -177.308)"/><path class="l" d="M122.871,391.239H105.362l-6.38-53.012,21.582-5.123c.269,2,.518,4.351.652,6.946Z" transform="translate(-51.5 -173.314)"/><path class="e" d="M133.531,454.291l.569,2.56-7.782,5.155-6.217-4.725.391-2.99Z" transform="translate(-62.489 -236.368)"/><path class="k" d="M132.785,459.564s6.961,7.9,5.8,8.906-20.714,1.216-20.978,0,1.181-8.476,1.181-8.476,3.892-.084,4.684.5,1.691,3.487,1.691,3.487-.553-5.078,7.623-4.415" transform="translate(-61.173 -239.08)"/><path class="e" d="M62.2,454.291l.569,2.56-10.062,6.665-3.937-6.234.391-2.99Z" transform="translate(-25.374 -236.368)"/><path class="k" d="M61.452,459.36s6.961,7.9,5.8,8.906-20.714,1.216-20.978,0,1.181-8.476,1.181-8.476a2.457,2.457,0,0,1,1.924.248c.792.581,1.691,3.487,1.691,3.487s1.007-5.646,10.384-4.165" transform="translate(-24.059 -238.876)"/><path class="s" d="M73.9,463.06a.24.24,0,0,1-.14-.435,3.6,3.6,0,0,1,2.383-.8.24.24,0,0,1-.062.476h0a3.215,3.215,0,0,0-2.042.712A.239.239,0,0,1,73.9,463.06Z" transform="translate(-38.324 -240.284)"/><path class="s" d="M76.2,466.061a.24.24,0,0,1-.14-.435,3.6,3.6,0,0,1,2.383-.8.24.24,0,0,1-.062.476h0a3.215,3.215,0,0,0-2.042.712A.239.239,0,0,1,76.2,466.061Z" transform="translate(-39.524 -241.845)"/><path class="s" d="M78.509,469.061a.24.24,0,0,1-.14-.435,3.6,3.6,0,0,1,2.383-.8.24.24,0,0,1-.062.476h0a3.214,3.214,0,0,0-2.042.712A.239.239,0,0,1,78.509,469.061Z" transform="translate(-40.723 -243.406)"/><path class="s" d="M145.066,463.854a.24.24,0,0,1-.14-.435,3.6,3.6,0,0,1,2.382-.8.24.24,0,0,1-.062.476h0a3.215,3.215,0,0,0-2.042.712A.239.239,0,0,1,145.066,463.854Z" transform="translate(-75.353 -240.698)"/><path class="s" d="M147.371,466.855a.24.24,0,0,1-.14-.435,3.6,3.6,0,0,1,2.383-.8.24.24,0,0,1-.062.476h0a3.215,3.215,0,0,0-2.042.712A.239.239,0,0,1,147.371,466.855Z" transform="translate(-76.552 -242.258)"/><path class="s" d="M149.676,469.855a.24.24,0,0,1-.14-.435,3.6,3.6,0,0,1,2.383-.8.24.24,0,0,1-.062.476h0a3.215,3.215,0,0,0-2.042.712A.239.239,0,0,1,149.676,469.855Z" transform="translate(-77.752 -243.819)"/><path class="h" d="M71.126,3.651a.24.24,0,0,1-.239-.227,2.887,2.887,0,0,0-1.471-2.35,4.833,4.833,0,0,0-1.4-.6.24.24,0,0,1,.1-.469,5.27,5.27,0,0,1,1.557.663A3.385,3.385,0,0,1,71.366,3.4a.24.24,0,0,1-.227.252Z" transform="translate(-35.29 0)"/><path class="h" d="M71.256,6.507a.24.24,0,0,1-.123-.446c1.7-1.012,2.349-4.089,2.355-4.12a.24.24,0,0,1,.47.1,10.659,10.659,0,0,1-.568,1.778,5.383,5.383,0,0,1-2.011,2.657A.239.239,0,0,1,71.256,6.507Z" transform="translate(-36.95 -0.911)"/><path class="k" d="M-.02,21.089-.5,21.048,1.306-.043,1.784,0Z" transform="translate(38.229 115.07)"/><path class="t" d="M78.091,84.591a1.01,1.01,0,1,1-1.01-1.01,1.01,1.01,0,0,1,1.01,1.01" transform="translate(-39.58 -43.487)"/><path class="u" d="M77.639,90.177a.668.668,0,1,1-.668-.668.668.668,0,0,1,.668.668" transform="translate(-39.701 -46.572)"/><path class="u" d="M75.692,87.547A1.69,1.69,0,0,1,74.021,85.6l.367-2.416a1.69,1.69,0,1,1,3.342.508l-.367,2.416a1.69,1.69,0,0,1-1.671,1.436Zm.367-5.556a1.45,1.45,0,0,0-1.434,1.232l-.367,2.416a1.45,1.45,0,1,0,2.867.436l.367-2.416a1.45,1.45,0,0,0-1.434-1.668Z" transform="translate(-38.503 -42.535)"/><path class="v" d="M84.012,154.71a.345.345,0,1,1-.345-.345.345.345,0,0,1,.345.345" transform="translate(-43.353 -80.316)"/><path class="v" d="M87.8,154.71a.345.345,0,1,1-.345-.345.345.345,0,0,1,.345.345" transform="translate(-45.326 -80.316)"/><path class="v" d="M91.6,154.71a.345.345,0,1,1-.344-.345.344.344,0,0,1,.344.345" transform="translate(-47.298 -80.316)"/></g></g></g><g transform="translate(1282.762 4337.243)"><g class="w" transform="translate(0)"><path class="n" d="M244.267,34.023a8.03,8.03,0,0,0-2.313,2.568,8.907,8.907,0,0,0-1.208,2.876c-.516,2.585.583,5.45-.589,7.811a10.411,10.411,0,0,0-.857,1.685,8.091,8.091,0,0,0,.134,2.87A9.2,9.2,0,0,1,238,57.025c-.9,1.587-2.011,3.053-2.813,4.691a1.981,1.981,0,0,0-.251.814,1.571,1.571,0,0,0,.317.893,4.449,4.449,0,0,0,3.538,1.624c3,.134,5.854-1.318,8.23-3.15a11.6,11.6,0,0,0,4.221-5.327c.737-2.267.344-4.722.367-7.105.025-2.61.543-5.332-.421-7.758-.723-1.821-2.254-3.377-2.348-5.334-.049-1.023.41-2.931-.962-3.289a5.807,5.807,0,0,0-3.606.939" transform="translate(-117.249 -16.482)"/><path class="e" d="M85.122,62.045S64.24,54.135,65.695,57.281s6.206,5.1,6.206,5.1-2.539,1.746-1.7,3.274a3.3,3.3,0,0,0-.75,2.957,2.017,2.017,0,0,0-.44,2.606c.91,1.505,12.246,4.558,12.246,4.558Z" transform="translate(-32.751 -28.219)"/><path class="f" d="M82.391,79.573a.25.25,0,0,1-.2-.1,6.108,6.108,0,0,1-1.044-3.449,8.994,8.994,0,0,1,.088-1.524,13.7,13.7,0,0,1-1.525-.152,3.642,3.642,0,0,1-2.513-1.127.792.792,0,0,1-.089-.709c.167-.494.787-1,1.894-1.553a15.246,15.246,0,0,1,1.538-.657.25.25,0,0,1,.167.472c-1.09.385-2.9,1.24-3.125,1.9a.292.292,0,0,0,.034.275c.555.848,3.015,1.054,3.917,1.061a.25.25,0,0,1,.243.3,8.069,8.069,0,0,0-.127,1.712,5.709,5.709,0,0,0,.948,3.155.25.25,0,0,1-.2.4Z" transform="translate(-38.459 -35.078)"/><path class="e" d="M269.331,75.668,263,93.857l-6.187-18.189V64.411h12.518Z" transform="translate(-128.17 -32.146)"/><path class="f" d="M256.813,64.411l9.59,2.423-9.59,8.834Z" transform="translate(-128.17 -32.146)"/><path class="e" d="M266.833,47.24c0,5.492-3.843,9.944-8.582,9.944s-8.582-4.452-8.582-9.944,3.843-9.944,8.582-9.944,8.582,4.452,8.582,9.944" transform="translate(-124.604 -18.614)"/><path class="h" d="M257.754,56.752a.251.251,0,0,1-.072-.011c-.981-.294-.821-1.713-.8-1.9l.031-1.533a.25.25,0,0,1,.5.01l-.031,1.548a.25.25,0,0,1,0,.033c0,.011-.16,1.179.442,1.359a.251.251,0,0,1-.072.49Z" transform="translate(-128.195 -26.484)"/><path class="h" d="M264.97,53.733a.424.424,0,1,1-.415-.432.424.424,0,0,1,.415.432" transform="translate(-131.818 -26.601)"/><path class="h" d="M264.3,54.149h-.015a.674.674,0,1,1,.015,0Zm0-.848a.173.173,0,0,0,0,.347h0a.173.173,0,0,0,.124-.294.171.171,0,0,0-.121-.053Z" transform="translate(-131.569 -26.352)"/><path class="h" d="M253.374,54.916a.424.424,0,1,1-.415-.432.424.424,0,0,1,.415.432" transform="translate(-126.031 -27.192)"/><path class="h" d="M252.7,55.332h-.015a.674.674,0,1,1,.015,0Zm0-.848a.173.173,0,0,0,0,.347h0a.173.173,0,0,0,.125-.294.172.172,0,0,0-.121-.053Z" transform="translate(-125.781 -26.942)"/><path class="f" d="M260.612,61.553l-3.709.877a2.892,2.892,0,0,0,2.379,1.961c2.022.409,1.329-2.838,1.329-2.838" transform="translate(-128.215 -30.72)"/><path class="x" d="M179.262,78.782s-45.139-5.583-49.18-5.808-30.39-6.188-30.39-6.188L95.736,80.831s18.407,6.51,25.142,7.857S164,98.986,164,98.986l-7.857,36.142,8.755,1.571,10.551-23.346Z" transform="translate(-47.78 -33.332)"/><path class="d" d="M234.248,136.985l4.714-17.959a52.874,52.874,0,0,1,2.694-18.407,52.914,52.914,0,0,0,3.033-12.367l5.316,1.3,6.917-2.852,3.9.953-.108,4.82s4.346,11.989,5.409,17.685c1.571,8.418,2.02,26.826,2.02,26.826Z" transform="translate(-116.909 -43.271)"/><path class="y" d="M319.949,428.777s2.578,5.056,2.354,7.028a10.107,10.107,0,0,0,.93,4.445L321,441.656l-1.636-2.73s-5.354,7.5-8.757,10.534-8.059,4.545-7.815.938,1.177-9.963,1.177-9.963Z" transform="translate(-151.112 -213.994)"/><path class="e" d="M302.872,423.669l1.861,6.4s-2.03,10.1.41,10.17,14.852-16.627,14.852-16.627l-2.944-5.19Z" transform="translate(-151.158 -208.824)"/><path class="e" d="M301.966,355.132l-13.329,8.095-14.472-48.544-1.518-5.094,8.375-9.147,8.08-8.831c.691,1.934,1.367,4.1,2.029,6.432,1.372,4.844,2.68,10.4,3.877,16.115,4.113,19.616,6.958,40.975,6.958,40.975" transform="translate(-136.073 -145.537)"/><path class="e" d="M203.611,312.42c-.14.666-.291,1.357-.456,2.064-1.012,4.333-2.52,9.377-4.278,14.652-6.772,20.382-17.242,44.251-17.242,44.251h-15.6l14.176-54.144Z" transform="translate(-82.866 -155.923)"/><path class="y" d="M170.523,446.04s-.421,5.66-1.636,7.229a10.1,10.1,0,0,0-1.512,4.283l-2.64.04.019-3.183s-8.47,3.631-12.953,4.458-9.247-.3-7.167-3.255,6.178-7.9,6.178-7.9Z" transform="translate(-71.933 -222.61)"/><path class="e" d="M160.528,428.4l-1.729,6.432s-6.98,7.583-4.928,8.906,21.325-6.5,21.325-6.5l.177-5.964Z" transform="translate(-76.606 -213.807)"/><path class="f" d="M295.008,320.565c-13.885,1.613-20.838.526-20.838.526h-.005L272.647,316l8.375-9.147.065-.045,10.043-2.354c1.372,4.844,2.68,10.4,3.877,16.115" transform="translate(-136.073 -151.945)"/><path class="f" d="M217.279,316.54c-1.012,4.333-2.52,9.377-4.278,14.652a43.535,43.535,0,0,1-18.664-9.893Z" transform="translate(-96.99 -157.979)"/><path class="k" d="M214.331,187.085l-1.912,6.865-18.078,62.742s7.867,6.646,35.437,5.051,25.975-3.988,25.975-3.988-3.988-20.471-3.988-27.117.1-26.491-3.537-43.552Z" transform="translate(-96.992 -93.37)"/><path class="x" d="M229.47,84.651l-27.142-.911,26.24,3.6Z" transform="translate(-100.978 -41.793)"/><path class="q" d="M255.8,85.558l4.6,3.424-3.356,3.86-1.96-5.161Z" transform="translate(-127.311 -42.7)"/><path class="z" d="M240.459,107.319l-.5-.023.441-9.777,2.773-2.857-2.247-2.247,4.753-6.362.4.3-4.493,6.014,2.289,2.289-2.984,3.075Z" transform="translate(-119.759 -42.948)"/><path class="q" d="M265.7,87.677l4.1,3.86,4.1-4.664-.126-3.93Z" transform="translate(-132.607 -41.396)"/><path class="aa" d="M255.937,120.548v39.794l-23.2-3.816V132.4l.178-15.656Z" transform="translate(-116.153 -58.264)"/><path class="e" d="M243.889,136.907l-.953,14.911s-4.337-2.97-7.367-4.541a48.515,48.515,0,0,1-6.945-4.861v1.8a6.389,6.389,0,0,1-2.772-2.549,1,1,0,0,1,.244-.959,1.323,1.323,0,0,1-1.052-.88c-.014-.043-.021-.067-.021-.067-.094-.31-.175-.624-.24-.938a1.421,1.421,0,0,1,.339-1.176c-.474-.121-.582-.743-.6-.972a.112.112,0,0,1,0-.025c-.014-.26-.018-.516-.018-.765l0,0a2,2,0,0,1,.382-1.059c-.305-.119-.281-.745-.276-.806v0a12.191,12.191,0,0,1,.2-1.248c.449-2.02,6.7-4.489,6.7-4.489l.471-.164-.44-1.969a1.714,1.714,0,0,1,.785-1.8c2.244-.449,7.929,9.653,7.929,9.653Z" transform="translate(-112.043 -62.053)"/><path class="f" d="M-.249,2.467a.25.25,0,0,1-.226-.142.25.25,0,0,1,.118-.334L4.787-.475a.25.25,0,0,1,.334.118A.25.25,0,0,1,5-.024L-.141,2.442A.249.249,0,0,1-.249,2.467Z" transform="translate(113.089 70.554)"/><path class="f" d="M-.25,2.017a.251.251,0,0,1-.232-.155.25.25,0,0,1,.136-.327L4.56-.481a.25.25,0,0,1,.327.136.25.25,0,0,1-.136.327L-.154,2A.25.25,0,0,1-.25,2.017Z" transform="translate(113.33 73.823)"/><path class="f" d="M-.25,1.767a.251.251,0,0,1-.232-.155.25.25,0,0,1,.136-.327l4.3-1.766a.25.25,0,0,1,.327.136.25.25,0,0,1-.136.327l-4.3,1.766A.25.25,0,0,1-.25,1.767Z" transform="translate(114.304 77.134)"/><path class="f" d="M.05,1.365a.251.251,0,0,1-.244-.2L-.494-.2A.25.25,0,0,1-.3-.494.25.25,0,0,1,0-.3L.3,1.061a.251.251,0,0,1-.245.3Z" transform="translate(120.188 66.309)"/><path class="x" d="M272.09,88.442s-3.145,7.574-1.293,13.972,9.092,25.254,9.092,25.254l-19.866-8.755-3.2,17.173s36.7,27.387,43.606,13.02-7.613-43.816-7.613-43.816-5.861-18.94-20.725-16.848" transform="translate(-128.175 -44.059)"/><path class="x" d="M284.611,87.48l-2.7-1.127,3.988,63.261,12.406-2.482Z" transform="translate(-140.697 -43.097)"/><path class="z" d="M288.812,124.691l-.479-.145,5.01-16.517-4.585-4.988,3.667-3.648-1.94-5.589.473-.164L293,99.526l-3.549,3.53L293.9,107.9Z" transform="translate(-143.901 -46.734)"/><path class="z" d="M22.464,10.309-.207,0,0-.455,22.671,9.853Z" transform="translate(143.106 79.997)"/><path class="z" d="M4.733,13.809-.468,0,0-.176,5.2,13.633Z" transform="translate(153.811 73.462)"/><path class="n" d="M258.364,32.383c-.353,1.4-.668,3.008.187,4.165,1.068,1.446,3.235,1.291,4.914,1.93a5.156,5.156,0,0,1,3.19,3.9c.128.767.077,1.557.217,2.322.362,1.972,1.924,3.514,2.543,5.421.643,1.983.206,4.132.234,6.217a4.65,4.65,0,0,0,.576,2.467c1.152,1.8,4.114,1.97,4.882,3.964a5.592,5.592,0,0,1,.225,1.87,15.732,15.732,0,0,0,.953,4.984,3.625,3.625,0,0,0,.972,1.6,4.1,4.1,0,0,0,1.809.7c1.463.312,3.076.6,4.382-.123a17.463,17.463,0,0,1,1.524-.975,6.278,6.278,0,0,1,2.686-.165,2.65,2.65,0,0,0,2.418-.925c2.741-2.648,1.569-6.22,1.407-6.811-.623-2.266-2.569-3.875-4.38-5.372s-3.7-3.222-4.118-5.534a9.105,9.105,0,0,0-.56-2.852c-.613-1.112-1.95-1.553-3.025-2.227a11.336,11.336,0,0,1-3.343-3.663,33.716,33.716,0,0,1-2.694-5.166A19.435,19.435,0,0,0,271.917,35a10.429,10.429,0,0,0-6.081-4.083,16.389,16.389,0,0,0-3.775-.595,4.628,4.628,0,0,0-2.967.655,1.957,1.957,0,0,0-.526,2.706" transform="translate(-128.764 -15.128)"/><path class="e" d="M279.067,51.452a3.283,3.283,0,1,1-3.283-3.283,3.283,3.283,0,0,1,3.283,3.283" transform="translate(-136 -24.04)"/><path class="h" d="M277.82,54.116a.25.25,0,0,1-.055-.495c1.42-.324,1.464-1.267,1.465-1.307a.25.25,0,0,1,.5.008,1.588,1.588,0,0,1-.249.761,2.4,2.4,0,0,1-1.605,1.027A.251.251,0,0,1,277.82,54.116Z" transform="translate(-138.53 -25.986)"/><path class="h" d="M262.65,48.545a2.354,2.354,0,0,1,.6-.17,3.325,3.325,0,0,1,.606-.054,3.561,3.561,0,0,1,1.19.219.251.251,0,0,1-.14.48H264.9a4.639,4.639,0,0,0-1.045-.113,4.7,4.7,0,0,0-.524.025c-.17.021-.354.053-.5.083l-.025.006a.25.25,0,0,1-.151-.474" transform="translate(-131.009 -24.115)"/><path class="h" d="M253.663,49.986c-.151-.019-.338-.036-.508-.044a4.824,4.824,0,0,0-.524.017,4.635,4.635,0,0,0-1.032.194l-.006,0a.251.251,0,0,1-.177-.468,3.567,3.567,0,0,1,1.169-.312,3.372,3.372,0,0,1,.608.006,2.378,2.378,0,0,1,.611.123.25.25,0,0,1-.113.485Z" transform="translate(-125.406 -24.637)"/><path class="ab" d="M39.673,64.275,23.645,100.25,13.627,50.682,29.654,14.707Z" transform="translate(-6.801 -7.34)"/><path class="ab" d="M10.189,87.179,0,36.764l.033-.073L16.379,0l10.19,50.415-.033.073ZM.522,36.822,10.37,85.543,26.045,50.358,16.2,1.636Z" transform="translate(0 0)"/><path class="q" d="M264.7,106.919c.562,0,1,.612,1,1.394s-.44,1.394-1,1.394-1-.612-1-1.394S264.142,106.919,264.7,106.919Zm0,2.286c.237,0,.5-.367.5-.893s-.264-.893-.5-.893-.5.367-.5.893S264.467,109.205,264.7,109.205Z" transform="translate(-131.609 -53.361)"/><path class="d" d="M2.432,12.2a.251.251,0,0,1-.244-.2L-.494-.2A.25.25,0,0,1-.3-.494.25.25,0,0,1,0-.3L2.677,11.9a.251.251,0,0,1-.245.3Z" transform="translate(15.474 69.15)"/><path class="d" d="M3.332,16.293a.251.251,0,0,1-.244-.2L-.494-.2A.25.25,0,0,1-.3-.494.25.25,0,0,1,0-.3L3.577,15.989a.251.251,0,0,1-.245.3Z" transform="translate(15.774 62.105)"/><path class="d" d="M3.632,17.658a.251.251,0,0,1-.244-.2L-.494-.2A.25.25,0,0,1-.3-.494.25.25,0,0,1,0-.3L3.877,17.354a.251.251,0,0,1-.245.3Z" transform="translate(16.674 57.788)"/><path class="d" d="M4.493,21.574a.251.251,0,0,1-.244-.2L-.494-.2A.25.25,0,0,1-.3-.494.25.25,0,0,1,0-.3L4.738,21.27a.251.251,0,0,1-.245.3Z" transform="translate(17.013 50.921)"/><path class="d" d="M3.632,17.658a.251.251,0,0,1-.244-.2L-.494-.2A.25.25,0,0,1-.3-.494.25.25,0,0,1,0-.3L3.877,17.354a.251.251,0,0,1-.245.3Z" transform="translate(19.075 51.885)"/><path class="d" d="M4.676,22.4a.251.251,0,0,1-.244-.2L-.494-.2A.25.25,0,0,1-.3-.494.25.25,0,0,1,0-.3L4.921,22.1a.251.251,0,0,1-.245.3Z" transform="translate(19.231 44.188)"/><path class="d" d="M3.632,17.658a.251.251,0,0,1-.244-.2L-.494-.2A.25.25,0,0,1-.3-.494.25.25,0,0,1,0-.3L3.877,17.354a.251.251,0,0,1-.245.3Z" transform="translate(21.475 45.982)"/><path class="d" d="M5.469,26.014a.251.251,0,0,1-.244-.2L-.494-.2A.25.25,0,0,1-.3-.494.25.25,0,0,1,0-.3L5.714,25.71a.251.251,0,0,1-.245.3Z" transform="translate(20.838 34.675)"/><path class="d" d="M4.594,22.031a.251.251,0,0,1-.244-.2L-.494-.2A.25.25,0,0,1-.3-.494.25.25,0,0,1,0-.3l4.843,22.03a.251.251,0,0,1-.245.3Z" transform="translate(22.914 35.707)"/><path class="d" d="M3.632,17.658a.251.251,0,0,1-.244-.2L-.494-.2A.25.25,0,0,1-.3-.494.25.25,0,0,1,0-.3L3.877,17.354a.251.251,0,0,1-.245.3Z" transform="translate(25.076 37.128)"/></g></g><g transform="translate(1147.561 4456.497)"><g class="ac" transform="translate(0 0)"><path class="ab" d="M5.414,60.883a2.707,2.707,0,1,1-2.707-2.707,2.707,2.707,0,0,1,2.707,2.707" transform="translate(0 -25.125)"/><path class="ab" d="M48.832,15.839a2.707,2.707,0,1,1-2.707-2.707,2.707,2.707,0,0,1,2.707,2.707" transform="translate(-18.751 -5.671)"/><path class="ab" d="M92.249,53.392a2.707,2.707,0,1,1-2.707-2.707,2.707,2.707,0,0,1,2.707,2.707" transform="translate(-37.503 -21.89)"/><path class="ab" d="M135.666,15.839a2.707,2.707,0,1,1-2.707-2.707,2.707,2.707,0,0,1,2.707,2.707" transform="translate(-56.255 -5.671)"/><path class="ab" d="M179.083,2.707A2.707,2.707,0,1,1,176.376,0a2.707,2.707,0,0,1,2.707,2.707" transform="translate(-75.006 0)"/><path class="ad" d="M4.765,37.816l24.666-25.59L54.1,33.559,78.762,12.226l24.666-7.46" transform="translate(-2.058 -2.058)"/></g></g><g transform="translate(315.437 4268.621)"><g class="ae"><path class="af" d="M79.223,2.843l-.775.387-.432-.865a2.108,2.108,0,0,0-2.827-.943L52.227,12.9a2.107,2.107,0,0,0-.942,2.828L67.819,48.8a2.106,2.106,0,0,0,2.827.943l22.962-11.48a2.108,2.108,0,0,0,.941-2.828L85.662,17.66l.775-.387a2.108,2.108,0,0,0,.943-2.828L82.051,3.785a2.108,2.108,0,0,0-2.828-.942" transform="translate(-25.601 -0.601)"/><path class="d" d="M84.1,20.515l1.921,3.841L71.36,31.686h0l-1.921-3.841a2.105,2.105,0,0,1,.943-2.826L81.27,19.573a2.108,2.108,0,0,1,2.828.942" transform="translate(-34.703 -9.702)"/><rect class="d" width="28.84" height="38.044" transform="translate(0 42.127) rotate(-57.3)"/><line class="ag" y1="18.847" x2="12.099" transform="translate(10.419 25.892)"/><line class="ag" y1="18.847" x2="12.099" transform="translate(14.981 28.822)"/><line class="ag" y1="18.847" x2="12.099" transform="translate(19.546 31.752)"/><line class="ag" y1="18.847" x2="12.099" transform="translate(24.109 34.682)"/><line class="ag" y1="18.847" x2="12.099" transform="translate(28.673 37.611)"/><rect class="ah" width="9.943" height="4.568" transform="matrix(0.54, -0.842, 0.842, 0.54, 3.323, 32.865)"/></g></g><g transform="translate(443.599 4354.865) rotate(-176)"><g class="ai" transform="translate(0 0)"><path class="aj" d="M0,0,.032.084" transform="translate(0.247 0.274)"/><path class="ak" d="M0,.692A14.29,14.29,0,0,0,1.734,2.344C6,5.955,10.451,9.666,15.7,10.888a16.851,16.851,0,0,0,13.78-2.965c1.943-1.444,3.618-3.3,5.57-4.724A16.476,16.476,0,0,1,49.375.654,18.933,18.933,0,0,1,60.731,10.682c1.136,2.36,1.855,4.969,3.208,7.184,1.18,1.932,3.045,3.58,5.093,3.753" transform="translate(1.208 1.18)"/><path class="aj" d="M0,.01.082,0" transform="translate(71.071 22.777)"/></g></g><g transform="translate(1563.827 4251.076)"><rect class="d" width="38.028" height="29.101" transform="matrix(0.24, -0.971, 0.971, 0.24, 9.867, 36.919)"/><g class="al"><path class="am" d="M56.854,17.3a2.045,2.045,0,1,1-1.5-2.476,2.046,2.046,0,0,1,1.5,2.476" transform="translate(-29.306 -8.19)"/><path class="am" d="M50.88,30.387l-2.032-.5a2.283,2.283,0,1,1,1.095-4.433l2.032.5a2.283,2.283,0,0,1-1.095,4.433" transform="translate(-26.138 -14.084)"/><path class="h" d="M81.025,24.141l-8.443-2.085a.47.47,0,0,1,.226-.914l8.443,2.084a.471.471,0,0,1-.226.914" transform="translate(-40.07 -11.723)"/><path class="h" d="M79.417,30.653l-8.443-2.085a.471.471,0,0,1,.226-.914l8.443,2.085a.471.471,0,1,1-.226.914" transform="translate(-39.178 -15.335)"/><path class="h" d="M77.809,37.166l-8.443-2.085a.471.471,0,0,1,.226-.914l8.443,2.085a.471.471,0,1,1-.226.914" transform="translate(-38.286 -18.949)"/><path class="h" d="M52.739,44.833,44.3,42.748a.47.47,0,0,1,.226-.914l8.443,2.085a.471.471,0,1,1-.226.914" transform="translate(-24.377 -23.203)"/><path class="h" d="M60.734,54.24,42.565,49.754a.47.47,0,1,1,.226-.914l18.169,4.486a.471.471,0,0,1-.226.914" transform="translate(-23.417 -27.09)"/><path class="h" d="M56.624,60.659l-15.79-3.9a.47.47,0,0,1,.225-.914l15.79,3.9a.471.471,0,0,1-.226.914" transform="translate(-22.457 -30.977)"/><path class="h" d="M50.537,66.589,39.1,63.766a.47.47,0,0,1,.225-.914l11.433,2.823a.47.47,0,0,1-.226.914" transform="translate(-21.497 -34.864)"/><path class="h" d="M50.272,73.957l-12.9-3.184a.471.471,0,1,1,.226-.914l12.9,3.184a.471.471,0,0,1-.226.914" transform="translate(-20.538 -38.751)"/><rect class="q" width="29.101" height="38.028" transform="translate(1.91 12.831)"/><rect class="d" width="29.101" height="38.028" transform="translate(0 14.929)"/><path class="am" d="M18.482,46.235a2.045,2.045,0,1,1-2.045-2.045,2.045,2.045,0,0,1,2.045,2.045" transform="translate(-7.984 -24.517)"/><path class="am" d="M15.882,60.3H13.789a2.283,2.283,0,1,1,0-4.566h2.093a2.283,2.283,0,1,1,0,4.566" transform="translate(-6.384 -30.92)"/><path class="h" d="M43.175,47.611h-8.7a.471.471,0,0,1,0-.941h8.7a.471.471,0,1,1,0,.941" transform="translate(-18.868 -25.893)"/><path class="h" d="M43.175,54.32h-8.7a.471.471,0,0,1,0-.941h8.7a.471.471,0,1,1,0,.941" transform="translate(-18.868 -29.615)"/><path class="h" d="M43.175,61.028h-8.7a.471.471,0,0,1,0-.941h8.7a.471.471,0,1,1,0,.941" transform="translate(-18.868 -33.337)"/><path class="h" d="M20.674,74.482h-8.7a.471.471,0,1,1,0-.941h8.7a.471.471,0,0,1,0,.941" transform="translate(-6.384 -40.801)"/><path class="h" d="M30.691,81.7H11.977a.471.471,0,1,1,0-.941H30.691a.471.471,0,1,1,0,.941" transform="translate(-6.384 -44.805)"/><path class="h" d="M28.241,88.914H11.977a.471.471,0,0,1,0-.941H28.241a.471.471,0,0,1,0,.941" transform="translate(-6.384 -48.808)"/><path class="h" d="M23.753,96.131H11.978a.471.471,0,1,1,0-.941H23.753a.471.471,0,1,1,0,.941" transform="translate(-6.384 -52.812)"/><path class="h" d="M25.261,103.347H11.977a.471.471,0,0,1,0-.941H25.261a.471.471,0,0,1,0,.941" transform="translate(-6.384 -56.816)"/></g></g><g transform="matrix(0.883, -0.469, 0.469, 0.883, 1456.877, 4325.289)"><g class="an" transform="translate(0 0)"><path class="ao" d="M1.5,39.984c18.1,1.323,37.364-7.071,46.187-22.934A16.886,16.886,0,0,0,50.17,9.356a7.881,7.881,0,0,0-3.454-6.981c-3.209-1.9-7.439-.457-10.3,1.93a17.62,17.62,0,0,0-6.324,13.544,16.3,16.3,0,0,0,7,13.107,25.523,25.523,0,0,0,9.062,3.393A73.3,73.3,0,0,0,100.21,24.48" transform="translate(-0.885 -0.885)"/></g></g></g></svg>