<svg xmlns="http://www.w3.org/2000/svg" width="123.532" height="123.616" viewBox="0 0 123.532 123.616"><defs><style>.a{fill:#e7e7e7;}.b{fill:#ffc121;}.c{fill:#ffcf21;}.d{fill:#e9a80a;}.e{fill:#f8bd1f;}.f{fill:#fff;}.g{fill:#e5fafb;}.h{fill:#ffd4c2;}.i{fill:#3e99ff;}.j{fill:#5b2f2f;}.k{fill:#6b413f;}.l{fill:#f6b49f;}.m{fill:#afecff;}.n{fill:none;}</style></defs><g transform="translate(-1204.102 -1760.044)"><g transform="translate(0 14)"><path class="a" d="M49.366,105.346l-.062,0a52.578,52.578,0,0,1-7.118-.943.96.96,0,0,1,.381-1.882,51.139,51.139,0,0,0,6.86.911.96.96,0,0,1-.061,1.917m7.05-.023a.96.96,0,0,1-.066-1.918,50.82,50.82,0,0,0,6.854-.953.96.96,0,0,1,.393,1.878,52.681,52.681,0,0,1-7.113.99l-.068,0m13.769-2.887a.96.96,0,0,1-.324-1.865A50.778,50.778,0,0,0,76.2,97.8a.96.96,0,0,1,.888,1.7,52.533,52.533,0,0,1-6.581,2.881.968.968,0,0,1-.324.057M82.66,95.927a.96.96,0,0,1-.556-1.742,51.347,51.347,0,0,0,5.357-4.379.96.96,0,1,1,1.314,1.4,53.4,53.4,0,0,1-5.559,4.544.958.958,0,0,1-.555.177m10.265-9.622a.96.96,0,0,1-.744-1.565,51.1,51.1,0,0,0,3.99-5.657.96.96,0,1,1,1.641,1,53.244,53.244,0,0,1-4.142,5.87.956.956,0,0,1-.745.355m7.31-12.027a.961.961,0,0,1-.879-1.342,50.771,50.771,0,0,0,2.313-6.527.96.96,0,1,1,1.85.517,52.738,52.738,0,0,1-2.4,6.774.959.959,0,0,1-.882.578M1.477,61.051a.959.959,0,0,1-.949-.825A53.26,53.26,0,0,1,0,53.065.96.96,0,0,1,.954,52.1H.96a.961.961,0,0,1,.96.954,51.552,51.552,0,0,0,.509,6.9.96.96,0,0,1-.814,1.086,1.066,1.066,0,0,1-.137.009m102.542-.33a.958.958,0,0,1-.952-1.089,51.411,51.411,0,0,0,.465-6.906l-.005-.653a.96.96,0,0,1,.95-.97h.011a.96.96,0,0,1,.96.949l.005.671a53.447,53.447,0,0,1-.484,7.168.959.959,0,0,1-.95.83M1.389,46.982a.884.884,0,0,1-.125-.008A.959.959,0,0,1,.436,45.9a52.9,52.9,0,0,1,1.4-7.043.96.96,0,0,1,1.853.5A50.9,50.9,0,0,0,2.34,46.146a.96.96,0,0,1-.951.836m102.535-.987a.959.959,0,0,1-.948-.819,50.82,50.82,0,0,0-1.487-6.759.96.96,0,0,1,1.843-.54,52.7,52.7,0,0,1,1.542,7.016.959.959,0,0,1-.808,1.09.877.877,0,0,1-.142.011M5.083,33.4a.941.941,0,0,1-.376-.077A.958.958,0,0,1,4.2,32.064a52.408,52.408,0,0,1,3.264-6.4.959.959,0,0,1,1.646.987,50.611,50.611,0,0,0-3.146,6.168.958.958,0,0,1-.883.584m7.233-12.074a.96.96,0,0,1-.748-1.561,53.21,53.21,0,0,1,4.863-5.286.96.96,0,1,1,1.321,1.392,51.348,51.348,0,0,0-4.686,5.095.958.958,0,0,1-.75.36M22.523,11.64a.961.961,0,0,1-.562-1.74,53.113,53.113,0,0,1,6.1-3.787.96.96,0,1,1,.9,1.7,51.094,51.094,0,0,0-5.876,3.65.96.96,0,0,1-.56.181M34.951,5.052a.96.96,0,0,1-.33-1.862,52.48,52.48,0,0,1,6.9-2,.96.96,0,0,1,.407,1.876,50.574,50.574,0,0,0-6.647,1.925.962.962,0,0,1-.33.059M69.564,4.72a.963.963,0,0,1-.312-.053,50.554,50.554,0,0,0-6.688-1.8A.96.96,0,0,1,62.933.987a52.368,52.368,0,0,1,6.943,1.865.96.96,0,0,1-.312,1.868M48.7,2.074A.96.96,0,0,1,48.628.157a53.858,53.858,0,0,1,7.18-.069.961.961,0,0,1,.9,1.014A.95.95,0,0,1,55.7,2a51.72,51.72,0,0,0-6.922.066l-.075,0" transform="translate(1307.512 1746.044) rotate(79)"/><path class="b" d="M29.652,53.8A28.026,28.026,0,0,1,1.638,26.466,28.03,28.03,0,1,0,57.2,31.706c0-.234-.012-.464-.018-.7A28.034,28.034,0,0,1,29.652,53.8" transform="translate(1205.886 1748.62)"/><path class="c" d="M29.707,51.267a28.034,28.034,0,0,0,27.534-22.79A28.025,28.025,0,0,0,1.693,23.933,28.026,28.026,0,0,0,29.707,51.267" transform="translate(1205.831 1753.409)"/><path d="M29.059,58.118A29.06,29.06,0,0,1,7.392,9.693a1.028,1.028,0,0,1,1.533,1.372,26.977,26.977,0,1,0,4.832-4.257A1.029,1.029,0,1,1,12.59,5.113,29.061,29.061,0,1,1,29.059,58.118" transform="translate(1206 1753.413)"/><path class="d" d="M47.007,15.616A22.728,22.728,0,0,1,9.854,40.177c-.346-.346-.673-.7-.992-1.064a22.725,22.725,0,1,0,38.145-23.5" transform="translate(1205.114 1750.739)"/><path class="e" d="M41.81,39.32a22.732,22.732,0,0,0,5.015-24.561c-.319-.363-.646-.719-.993-1.066A22.729,22.729,0,0,0,8.679,38.256c.319.362.646.719.993,1.065a22.725,22.725,0,0,0,32.138,0" transform="translate(1205.296 1752.497)"/><path d="M24.4,43.438a1.029,1.029,0,0,1-.965-.672L16.65,24.378a1.028,1.028,0,0,1,1.93-.712l5.75,15.591,5.189-16.125a1.029,1.029,0,1,1,1.958.631l-6.1,18.962a1.027,1.027,0,0,1-.958.713Z" transform="translate(1204.341 1749.846)"/><path d="M38.1,43.438h-.022a1.028,1.028,0,0,1-.958-.713l-6.1-18.962a1.029,1.029,0,1,1,1.958-.631l5.189,16.125,5.75-15.591a1.028,1.028,0,0,1,1.93.712L39.06,42.766a1.028,1.028,0,0,1-.965.672" transform="translate(1202.903 1749.846)"/><path d="M25.149,43.439a1.031,1.031,0,0,1-.979-1.345l6.1-18.963a1.029,1.029,0,0,1,1.958.632l-6.1,18.962a1.03,1.03,0,0,1-.979.714" transform="translate(1203.588 1749.846)"/><path d="M48.335,33.734H43.129a1.028,1.028,0,1,1,0-2.056h5.206a1.028,1.028,0,1,1,0,2.056" transform="translate(1201.789 1748.539)"/><path d="M20.247,33.734H15.009a1.028,1.028,0,1,1,0-2.056h5.238a1.028,1.028,0,1,1,0,2.056" transform="translate(1204.602 1748.539)"/><path class="f" d="M105.682,52.692H79.159c-7.239,0-13.107,7-13.107,15.645l-4.829,3.368h-9.66c-.472,0-.854.642-.854,1.433V85.729c0,.791.382,1.432.854,1.432H66.052v.019h6.112l5.794-4.07.173,4.07h40.659V68.337c0-8.641-5.869-15.645-13.107-15.645" transform="translate(1200.928 1753.643)"/><path d="M118.673,88.1H78.016a1.036,1.036,0,0,1-1.034-.992l-.092-2.18-4.246,2.983a1.044,1.044,0,0,1-.595.188H65.937a1.047,1.047,0,0,1-.2-.02H51.447c-1.076,0-1.889-1.06-1.889-2.467V73.023c0-1.408.813-2.468,1.889-2.468h9.336l4.126-2.878c.244-8.946,6.492-16.135,14.134-16.135h26.523c7.8,0,14.142,7.482,14.142,16.68V87.064a1.037,1.037,0,0,1-1.036,1.036M79.008,86.029h38.63V68.222c0-8.056-5.415-14.61-12.071-14.61H79.043c-6.656,0-12.072,6.555-12.072,14.61a1.038,1.038,0,0,1-.443.849L61.7,72.439a1.036,1.036,0,0,1-.593.186H51.693a1.151,1.151,0,0,0-.064.4V85.614a1.15,1.15,0,0,0,.064.4H65.937a1.045,1.045,0,0,1,.2.019h5.584l5.527-3.883a1.036,1.036,0,0,1,1.629.8Z" transform="translate(1201.043 1753.796)"/><path class="g" d="M105.682,52.692H79.159c-7.239,0-13.107,7-13.107,15.645l-4.829,3.368h-9.66c-.472,0-.854.642-.854,1.433V85.729c0,.791.382,1.432.854,1.432H66.052v.019h6.112l5.794-4.07.173,4.07h40.659V68.337c0-8.641-5.869-15.645-13.107-15.645" transform="translate(1200.928 1753.643)"/><path d="M118.673,88.1H78.016a1.036,1.036,0,0,1-1.034-.992l-.092-2.18-4.246,2.983a1.044,1.044,0,0,1-.595.188H65.937a1.047,1.047,0,0,1-.2-.02H51.447c-1.076,0-1.889-1.06-1.889-2.467V73.023c0-1.408.813-2.468,1.889-2.468h9.336l4.126-2.878c.244-8.946,6.492-16.135,14.134-16.135h26.523c7.8,0,14.142,7.482,14.142,16.68V87.064a1.037,1.037,0,0,1-1.036,1.036M79.008,86.029h38.63V68.222c0-8.056-5.415-14.61-12.071-14.61H79.043c-6.656,0-12.072,6.555-12.072,14.61a1.038,1.038,0,0,1-.443.849L61.7,72.439a1.036,1.036,0,0,1-.593.186H51.693a1.151,1.151,0,0,0-.064.4V85.614a1.15,1.15,0,0,0,.064.4H65.937a1.045,1.045,0,0,1,.2.019h5.584l5.527-3.883a1.036,1.036,0,0,1,1.629.8Z" transform="translate(1201.043 1753.796)"/><path class="h" d="M23.847,78.153a2.06,2.06,0,0,1,2.035.067l.3.22,1.039.733a2.342,2.342,0,0,1,.294.146L30.4,80.479a1.729,1.729,0,0,1,.186-.085l6.056-2.282-1.956.237-.358.04A2.385,2.385,0,0,1,32.4,77.235a4.563,4.563,0,0,1-.886-3.7c.266-.692.678-1.1,1.2-1.16l6.279-.723,1.181-.129a5.616,5.616,0,0,1,2.824.388c1.507.342,3.674,2.036,5.4,3.576v12.2A6.19,6.19,0,0,0,45.45,86.5c-2.8.165-10.735.64-13.845.915a1.45,1.45,0,0,1-1.338-.161A2.371,2.371,0,0,1,29.584,87l-3-1.847a2.047,2.047,0,0,1-.548-.483l-.889-.642L22.717,82.3a1.984,1.984,0,0,1-.722-1.581,3.091,3.091,0,0,1,1.852-2.569" transform="translate(1203.8 1750.541)"/><path d="M40.848,73.558a3.51,3.51,0,0,1,1.359.273,2.139,2.139,0,0,0,.328.1c.29.066,1.368.437,3.787,2.5v8.139c-.148-.034-.3-.067-.461-.1a2.1,2.1,0,0,0-.411-.041c-.04,0-.081,0-.121,0-3.152.185-10.816.646-13.907.921a2.016,2.016,0,0,0-.253.038,2.077,2.077,0,0,0-.454-.158.706.706,0,0,1-.093-.026l-2.977-1.841a2.05,2.05,0,0,0-.4-.374l-.9-.652-2.274-1.613-.005-.045a1.4,1.4,0,0,1,.687-.668.376.376,0,0,1,.049-.021l.19.138,1.039.733a2.089,2.089,0,0,0,.4.22.261.261,0,0,1,.042.021,2.049,2.049,0,0,0,.275.134L29.624,82.4a2.036,2.036,0,0,0,.76.145,2.16,2.16,0,0,0,.958-.224l6.026-2.272a2.07,2.07,0,0,0-.728-4.007,2.133,2.133,0,0,0-.25.015l-1.932.234-.124.014a1.142,1.142,0,0,1-.249-.268,3.381,3.381,0,0,1-.634-1.658l5.762-.663,1.2-.13a3.814,3.814,0,0,1,.438-.026m-7.344.6h0M31.361,82.31h0m9.487-10.822a5.843,5.843,0,0,0-.679.04l-1.181.13-6.279.723c-.519.057-.931.468-1.2,1.159a4.562,4.562,0,0,0,.886,3.7,2.392,2.392,0,0,0,1.908,1.152h.019l.357-.039,1.957-.238-6.056,2.283a1.489,1.489,0,0,0-.185.085l-2.88-1.159a2.4,2.4,0,0,0-.293-.146l-1.039-.733-.3-.22a2.025,2.025,0,0,0-1.059-.3,2.218,2.218,0,0,0-.976.236,3.092,3.092,0,0,0-1.852,2.569,1.982,1.982,0,0,0,.722,1.581l2.432,1.725.889.643a2.058,2.058,0,0,0,.548.482l3,1.847a2.371,2.371,0,0,0,.683.256,1.523,1.523,0,0,0,.827.256,1.454,1.454,0,0,0,.511-.1c3.11-.276,11.047-.751,13.845-.916a6.19,6.19,0,0,1,2.942,1.186v-12.2c-1.725-1.539-3.892-3.234-5.4-3.576a5.6,5.6,0,0,0-2.146-.427" transform="translate(1203.8 1750.541)"/><line class="f" y1="4.333" transform="translate(1256.452 1825.263)"/><path d="M55.934,80.251a1.125,1.125,0,0,1-1.124-1.124V74.793a1.124,1.124,0,0,1,2.248,0v4.333a1.125,1.125,0,0,1-1.124,1.124" transform="translate(1200.518 1750.503)"/><line class="f" y2="6.386" transform="translate(1278.886 1843.899)"/><path d="M80.871,91.223a1.036,1.036,0,0,1-1.035-1.035V83.8a1.035,1.035,0,1,1,2.07,0v6.386a1.036,1.036,0,0,1-1.035,1.035" transform="translate(1198.015 1748.579)"/><line class="f" y1="4.071" x2="6.011" transform="translate(1272.875 1834.507)"/><path d="M74.194,91.481a1.036,1.036,0,0,1-.581-1.893l6.011-4.07a1.035,1.035,0,1,1,1.16,1.714L74.773,91.3a1.03,1.03,0,0,1-.58.178" transform="translate(1198.683 1748.16)"/><path class="i" d="M104.221,88.671,96.6,92.922l-7.62-4.251,5.25-26.7h4.741Z" transform="translate(1197.101 1751.865)"/><path d="M96.485,93.842a1.032,1.032,0,0,1-.5-.132l-7.62-4.25a1.036,1.036,0,0,1-.51-1.1l5.25-26.7a1.034,1.034,0,0,1,1.015-.836h4.742a1.035,1.035,0,0,1,1.015.836l5.249,26.7a1.034,1.034,0,0,1-.511,1.1l-7.62,4.25a1.026,1.026,0,0,1-.5.132m-6.459-5.824,6.459,3.6,6.459-3.6L98,62.889H94.966Z" transform="translate(1197.216 1752.015)"/><path class="i" d="M91.782,53.352h10.2l-2.729,7.754H94.51Z" transform="translate(1196.82 1743.972)"/><path d="M99.137,62.027H94.4a1.035,1.035,0,0,1-.976-.692l-2.73-7.754a1.036,1.036,0,0,1,.976-1.379h10.2a1.035,1.035,0,0,1,.976,1.379l-2.728,7.754a1.036,1.036,0,0,1-.976.692m-4.009-2.071H98.4l2-5.684H93.128Z" transform="translate(1196.936 1744.133)"/><path class="j" d="M99.419,9.126h-8.99A14.183,14.183,0,0,0,76.246,23.309v7.883A14.183,14.183,0,0,0,90.429,45.375h8.99A14.183,14.183,0,0,0,113.6,31.192V23.309A14.183,14.183,0,0,0,99.419,9.126" transform="translate(1198.374 1762.66)"/><path class="k" d="M90.482,28.338a11.565,11.565,0,0,0,8.7-19.212H90.429A14.183,14.183,0,0,0,76.247,23.309v4.807a11.537,11.537,0,0,0,2.237.222Z" transform="translate(1198.374 1763.195)"/><path d="M99.419,11.2a12.127,12.127,0,0,1,12.113,12.113v7.883A12.127,12.127,0,0,1,99.419,43.3h-8.99A12.13,12.13,0,0,1,78.316,31.176V23.309A12.127,12.127,0,0,1,90.429,11.2Zm0-2.07h-8.99A14.183,14.183,0,0,0,76.246,23.309v7.883A14.183,14.183,0,0,0,90.429,45.375h8.99A14.183,14.183,0,0,0,113.6,31.192V23.309A14.183,14.183,0,0,0,99.419,9.126" transform="translate(1198.374 1762.66)"/><path class="l" d="M108.21,31.564a5.948,5.948,0,0,0-.638-2.573V35.15c0,6.275-4.446,11.361-9.93,11.361H89.9a9.089,9.089,0,0,1-5.916-2.251,9.036,9.036,0,0,0,8.2,6.061h7.022c4.974,0,9.007-4.614,9.007-10.306V31.564Z" transform="translate(1197.6 1759.049)"/><path class="h" d="M97.553,46.2c5.485,0,9.93-5.086,9.93-11.361V28.685a4.819,4.819,0,0,0-4.244-2.766H87.981A5.187,5.187,0,0,0,83.1,31.258h-.006v8.452a11.509,11.509,0,0,0,.806,4.243A9.084,9.084,0,0,0,89.813,46.2Z" transform="translate(1197.689 1759.716)"/><path class="h" d="M80.177,33.01h0c-1.533,0-2.775,1.624-2.775,3.629v1.075c0,2,1.242,3.628,2.775,3.628h2.345V33.01Z" transform="translate(1198.259 1758.675)"/><path class="h" d="M113.254,41.342h0c1.533,0,2.775-1.624,2.775-3.629V36.638c0-2-1.242-3.628-2.775-3.628h-2.345v8.332Z" transform="translate(1194.907 1758.675)"/><path d="M99,50.935H91.983c-5.538,0-10.043-5.087-10.043-11.34V31.143A.963.963,0,0,1,81.951,31a6.165,6.165,0,0,1,5.914-6.229h15.257A6.166,6.166,0,0,1,109.037,31a1.1,1.1,0,0,1,.01.145V39.6c0,6.253-4.505,11.34-10.043,11.34M84.011,31.256V39.6c0,5.111,3.577,9.269,7.972,9.269H99c4.4,0,7.973-4.158,7.973-9.269v-8.34c0-.03-.005-.059-.005-.09a4.184,4.184,0,0,0-3.849-4.325H87.865a4.184,4.184,0,0,0-3.848,4.325c0,.031,0,.061-.005.091" transform="translate(1197.805 1759.751)"/><path d="M82.406,42.262H80.062c-2.1,0-3.81-2.092-3.81-4.664V36.523c0-2.571,1.709-4.664,3.81-4.664h2.344a1.037,1.037,0,0,1,1.036,1.036v8.332a1.036,1.036,0,0,1-1.036,1.035M80.062,33.93c-.943,0-1.74,1.187-1.74,2.593V37.6c0,1.406.8,2.593,1.74,2.593h1.309V33.93Z" transform="translate(1198.374 1758.839)"/><path d="M113.139,42.262h-2.344a1.037,1.037,0,0,1-1.036-1.036V32.895a1.037,1.037,0,0,1,1.036-1.036h2.344c2.1,0,3.81,2.092,3.81,4.664V37.6c0,2.572-1.709,4.664-3.81,4.664m-1.309-2.071h1.309c.943,0,1.74-1.187,1.74-2.593V36.523c0-1.406-.8-2.593-1.74-2.593H111.83Z" transform="translate(1195.022 1758.839)"/><line class="m" y2="2.198" transform="translate(1287.863 1795.444)"/><path d="M90.845,40.58a1.036,1.036,0,0,1-1.035-1.035v-2.2a1.035,1.035,0,0,1,2.07,0v2.2a1.036,1.036,0,0,1-1.035,1.035" transform="translate(1197.018 1758.145)"/><line class="m" y2="2.198" transform="translate(1298.804 1795.319)"/><path d="M103,40.424a1.036,1.036,0,0,1-1.035-1.035v-2.2a1.035,1.035,0,1,1,2.07,0v2.2A1.036,1.036,0,0,1,103,40.424" transform="translate(1195.802 1758.176)"/><path class="m" d="M95.448,41.255a2.193,2.193,0,0,0,3.154,0" transform="translate(1196.454 1757.271)"/><path d="M96.892,42.845a3.242,3.242,0,0,1-2.316-1,1.035,1.035,0,0,1,1.507-1.419,1.145,1.145,0,0,0,1.725-.067,1.035,1.035,0,1,1,1.358,1.561,3.425,3.425,0,0,1-2.274.925" transform="translate(1196.569 1757.431)"/><rect class="n" width="114.753" height="87.759" transform="translate(1206 1752.458)"/></g></g></svg>