<svg xmlns="http://www.w3.org/2000/svg" xmlns:xlink="http://www.w3.org/1999/xlink" width="123.731" height="121.793" viewBox="0 0 123.731 121.793"><defs><style>.a{fill:none;}.b{clip-path:url(#a);}.c{fill:#e7e7e7;}.d{clip-path:url(#b);}.e{fill:#5b2f2f;}.f{fill:#6b413f;}.g{fill:#acfaff;}.h{fill:#fff;}.i{fill:#f6b49f;}.j{fill:#ffd4c2;}.k{clip-path:url(#d);}.l{fill:#e5fafb;}.m{fill:#3e99ff;}</style><clipPath id="a"><rect class="a" width="123.731" height="121.793"/></clipPath><clipPath id="b"><circle class="a" cx="21.285" cy="21.285" r="21.285"/></clipPath><clipPath id="d"><path class="a" d="M0,102.613A23.846,23.846,0,1,0,23.846,78.767,23.847,23.847,0,0,0,0,102.613" transform="translate(0 -78.767)"/></clipPath></defs><g transform="translate(-614 -1760.52)"><g transform="translate(614 1760.52)"><g transform="translate(0 0)"><g class="b"><path class="c" d="M59.985,117.167l-.062,0a52.578,52.578,0,0,1-7.118-.943.96.96,0,0,1,.381-1.882,51.139,51.139,0,0,0,6.86.911.96.96,0,0,1-.061,1.917m7.05-.023a.96.96,0,0,1-.066-1.918,50.82,50.82,0,0,0,6.854-.953.96.96,0,0,1,.393,1.878,52.681,52.681,0,0,1-7.113.99l-.068,0m13.769-2.887a.96.96,0,0,1-.324-1.865,50.777,50.777,0,0,0,6.34-2.775.96.96,0,0,1,.888,1.7,52.533,52.533,0,0,1-6.581,2.881.968.968,0,0,1-.324.057m12.474-6.508a.96.96,0,0,1-.556-1.742,51.349,51.349,0,0,0,5.357-4.379.96.96,0,1,1,1.314,1.4,53.4,53.4,0,0,1-5.559,4.544.958.958,0,0,1-.555.177m10.265-9.622a.96.96,0,0,1-.744-1.565,51.1,51.1,0,0,0,3.99-5.657.96.96,0,1,1,1.641,1,53.245,53.245,0,0,1-4.142,5.87.956.956,0,0,1-.745.355m7.31-12.027a.961.961,0,0,1-.879-1.342,50.771,50.771,0,0,0,2.313-6.527.96.96,0,1,1,1.85.517,52.738,52.738,0,0,1-2.4,6.774.959.959,0,0,1-.882.578M12.1,72.872a.959.959,0,0,1-.949-.825,53.26,53.26,0,0,1-.529-7.161.96.96,0,0,1,.954-.966h.006a.961.961,0,0,1,.96.954,51.552,51.552,0,0,0,.509,6.9.96.96,0,0,1-.814,1.086,1.066,1.066,0,0,1-.137.009m102.542-.33a.958.958,0,0,1-.952-1.089,51.411,51.411,0,0,0,.465-6.906l-.005-.653a.96.96,0,0,1,.95-.97h.011a.96.96,0,0,1,.96.949l.005.671a53.446,53.446,0,0,1-.484,7.168.959.959,0,0,1-.95.83M12.008,58.8a.884.884,0,0,1-.125-.008.959.959,0,0,1-.827-1.075,52.9,52.9,0,0,1,1.4-7.043.96.96,0,0,1,1.853.5,50.9,50.9,0,0,0-1.354,6.787.96.96,0,0,1-.951.836m102.535-.987a.959.959,0,0,1-.948-.819,50.82,50.82,0,0,0-1.487-6.759.96.96,0,0,1,1.843-.54,52.7,52.7,0,0,1,1.542,7.016.959.959,0,0,1-.808,1.09.877.877,0,0,1-.142.011M15.7,45.222a.941.941,0,0,1-.376-.077.958.958,0,0,1-.505-1.259,52.408,52.408,0,0,1,3.264-6.4.959.959,0,0,1,1.646.987,50.611,50.611,0,0,0-3.146,6.168.958.958,0,0,1-.883.584m7.233-12.074a.96.96,0,0,1-.748-1.561A53.21,53.21,0,0,1,27.05,26.3a.96.96,0,0,1,1.321,1.392,51.348,51.348,0,0,0-4.686,5.095.958.958,0,0,1-.75.36m10.207-9.687a.961.961,0,0,1-.562-1.74,53.113,53.113,0,0,1,6.1-3.787.96.96,0,1,1,.9,1.7A51.094,51.094,0,0,0,33.7,23.28a.96.96,0,0,1-.56.181M45.57,16.873a.96.96,0,0,1-.33-1.862,52.48,52.48,0,0,1,6.9-2,.96.96,0,0,1,.407,1.876A50.574,50.574,0,0,0,45.9,16.815a.962.962,0,0,1-.33.059m34.612-.332a.963.963,0,0,1-.312-.053,50.554,50.554,0,0,0-6.688-1.8.96.96,0,0,1,.369-1.884A52.368,52.368,0,0,1,80.5,14.673a.96.96,0,0,1-.312,1.868M59.32,13.895a.96.96,0,0,1-.073-1.917,53.858,53.858,0,0,1,7.18-.069.961.961,0,0,1,.9,1.014.95.95,0,0,1-1.014.9,51.72,51.72,0,0,0-6.922.066l-.075,0" transform="translate(-1.478 -1.645)"/></g></g><g transform="translate(80.543 0)"><g class="d"><path class="e" d="M118.052.8H114.03a9.888,9.888,0,0,0-10.157,9.6V32.74h24.336V10.39A9.888,9.888,0,0,0,118.052.8" transform="translate(-94.997 -0.111)"/><path class="f" d="M113.706,23.989a7.968,7.968,0,0,0,7.944-7.944V6.061A7.9,7.9,0,0,0,119.763.941,10.758,10.758,0,0,0,118.052.8H114.03a9.888,9.888,0,0,0-10.157,9.6V23.971c.12.005.238.018.359.018Z" transform="translate(-94.997 -0.111)"/><path d="M118.052,2.775a7.92,7.92,0,0,1,8.177,7.615V30.76H105.853V10.39a7.92,7.92,0,0,1,8.177-7.615Zm0-1.98H114.03a9.888,9.888,0,0,0-10.157,9.6V32.74h24.336V10.39A9.888,9.888,0,0,0,118.052.8" transform="translate(-94.997 -0.111)"/><path class="g" d="M135.742,39.745c0-6.5-4.707-11.769-10.514-11.769H103.951c-5.806,0-10.514,5.269-10.514,11.769v9.462h42.3Z" transform="translate(-93.545 -3.893)"/><path d="M135.582,50.037h-42.3a.992.992,0,0,1-.991-.991V39.585c0-7.035,5.161-12.759,11.505-12.759h21.276c6.344,0,11.505,5.724,11.505,12.759v9.462a.992.992,0,0,1-.991.991M94.267,48.056h40.325V39.585c0-5.943-4.272-10.778-9.524-10.778H103.791c-5.252,0-9.524,4.835-9.524,10.778Z" transform="translate(-93.384 -3.733)"/><line class="h" y2="1.389" transform="translate(21.045 32.486)"/><path d="M117.848,39.955a.99.99,0,0,1-.99-.989V37.577a.99.99,0,0,1,1.98,0v1.389a.99.99,0,0,1-.99.989" transform="translate(-96.804 -5.091)"/><line class="h" y2="1.389" transform="translate(21.045 37.952)"/><path d="M117.848,46.3a.991.991,0,0,1-.99-.99V43.926a.99.99,0,1,1,1.98,0v1.389a.991.991,0,0,1-.99.99" transform="translate(-96.804 -5.974)"/><path class="h" d="M118.829,28.606l.268,0c2.341,0,3.981-.446,4.891-1.325l3.635.876a17.226,17.226,0,0,1-6.243,4.69Z" transform="translate(-97.078 -3.797)"/><path d="M123.943,28.178l1.519.367a16.006,16.006,0,0,1-3.986,2.866l-1.236-2.057a7.393,7.393,0,0,0,3.7-1.176M123.319,26c-.674,1.2-2.848,1.444-4.516,1.444a18,18,0,0,1-2.077-.119l3.946,6.563a17.973,17.973,0,0,0,8.355-6.512Z" transform="translate(-96.785 -3.618)"/><path class="h" d="M113.215,32.85a17.183,17.183,0,0,1-6.243-4.69l3.635-.876c.912.88,2.552,1.325,4.892,1.325l.268,0Z" transform="translate(-95.428 -3.797)"/><path d="M110.085,28.178a7.39,7.39,0,0,0,3.7,1.176l-1.236,2.057a16,16,0,0,1-3.987-2.867ZM110.709,26,105,27.379a17.963,17.963,0,0,0,8.354,6.511l3.946-6.562a18,18,0,0,1-2.077.119c-1.668,0-3.841-.245-4.515-1.444m6.592,1.325h0Z" transform="translate(-95.154 -3.618)"/><path class="i" d="M124.358,15.085a3.562,3.562,0,0,0-.381-1.538V17.23c0,3.752-2.658,6.793-5.937,6.793h-4.628a5.432,5.432,0,0,1-3.537-1.346,5.4,5.4,0,0,0,4.9,3.624h4.2c2.974,0,5.385-2.758,5.385-6.161V15.085Z" transform="translate(-95.832 -1.885)"/><path class="j" d="M117.96,23.755c3.279,0,5.937-3.041,5.937-6.793V13.28a2.881,2.881,0,0,0-2.538-1.654h-9.122a3.1,3.1,0,0,0-2.92,3.192h0v5.054a6.887,6.887,0,0,0,.481,2.537,5.433,5.433,0,0,0,3.537,1.346Z" transform="translate(-95.754 -1.618)"/><path d="M118.737,26.864h-4.2c-3.516,0-6.375-3.208-6.375-7.152V14.659a.992.992,0,0,1,.009-.125,4.049,4.049,0,0,1,3.906-4.057H121.2a4.054,4.054,0,0,1,3.907,4.068,1.01,1.01,0,0,1,.007.114v5.053c0,3.944-2.861,7.152-6.376,7.152M110.144,14.75v4.962c0,2.851,1.971,5.171,4.395,5.171h4.2c2.424,0,4.4-2.32,4.4-5.171V14.741c0-.021,0-.04,0-.06a2.132,2.132,0,0,0-1.93-2.224h-9.122a2.131,2.131,0,0,0-1.93,2.223c0,.024,0,.047,0,.071" transform="translate(-95.594 -1.458)"/><path class="h" d="M107.417,16.059h0a1.966,1.966,0,0,0-1.659,2.169v.643a1.966,1.966,0,0,0,1.659,2.169h1.4V16.059Z" transform="translate(-95.259 -2.235)"/><path d="M108.659,21.872h-1.4a2.907,2.907,0,0,1-2.649-3.16v-.642a2.907,2.907,0,0,1,2.649-3.16h1.4a.99.99,0,0,1,.99.99v4.982a.991.991,0,0,1-.99.991m-1.4-4.983c-.309,0-.668.516-.668,1.18v.642c0,.664.359,1.179.668,1.179h.412v-3Z" transform="translate(-95.099 -2.075)"/><path class="h" d="M128.105,21.041h0a1.966,1.966,0,0,0,1.659-2.169v-.643a1.966,1.966,0,0,0-1.659-2.169h-1.4v4.982Z" transform="translate(-98.174 -2.235)"/><path d="M127.945,21.872h-1.4a.992.992,0,0,1-.991-.991V15.9a.991.991,0,0,1,.991-.99h1.4a2.943,2.943,0,0,1,2.65,3.16v.642a2.907,2.907,0,0,1-2.65,3.16m-.412-1.981h.412c.309,0,.669-.516.669-1.179v-.642c0-.665-.36-1.18-.669-1.18h-.412Z" transform="translate(-98.013 -2.075)"/><path class="j" d="M107.417,16.059h0a1.966,1.966,0,0,0-1.659,2.169v.643a1.966,1.966,0,0,0,1.659,2.169h1.4V16.059Z" transform="translate(-95.259 -2.235)"/><path d="M108.659,21.872h-1.4a2.907,2.907,0,0,1-2.649-3.16v-.642a2.907,2.907,0,0,1,2.649-3.16h1.4a.99.99,0,0,1,.99.99v4.982a.991.991,0,0,1-.99.991m-1.4-4.983c-.309,0-.668.516-.668,1.18v.642c0,.664.359,1.179.668,1.179h.412v-3Z" transform="translate(-95.099 -2.075)"/><path class="j" d="M128.105,21.041h0a1.966,1.966,0,0,0,1.659-2.169v-.643a1.966,1.966,0,0,0-1.659-2.169h-1.4v4.982Z" transform="translate(-98.174 -2.235)"/><path d="M127.945,21.872h-1.4a.992.992,0,0,1-.991-.991V15.9a.991.991,0,0,1,.991-.99h1.4a2.943,2.943,0,0,1,2.65,3.16v.642a2.907,2.907,0,0,1-2.65,3.16m-.412-1.981h.412c.309,0,.669-.516.669-1.179v-.642c0-.665-.36-1.18-.669-1.18h-.412Z" transform="translate(-98.013 -2.075)"/></g></g><g transform="translate(0 0)"><g class="b"><path d="M66.705,99.843A31.934,31.934,0,1,1,98.639,67.909,31.971,31.971,0,0,1,66.705,99.843m0-61.949A30.014,30.014,0,1,0,96.719,67.909,30.048,30.048,0,0,0,66.705,37.895" transform="translate(-4.838 -5.006)"/><path d="M68.87,99.843c-10.223,0-18.541-14.326-18.541-31.934S58.647,35.975,68.87,35.975,87.411,50.3,87.411,67.909,79.093,99.843,68.87,99.843m0-61.949c-9.165,0-16.621,13.465-16.621,30.014S59.705,97.924,68.87,97.924,85.491,84.459,85.491,67.909,78.035,37.895,68.87,37.895" transform="translate(-7.003 -5.006)"/><path d="M91.5,96.128a.954.954,0,0,1-.441-.108c-5.768-2.985-14.207-4.7-23.153-4.7-8.9,0-17.316,1.7-23.082,4.662a.96.96,0,1,1-.877-1.708c6.028-3.1,14.76-4.873,23.959-4.873,9.243,0,18,1.791,24.036,4.913a.96.96,0,0,1-.442,1.812" transform="translate(-6.043 -12.44)"/><path d="M67.984,56.263c-9.241,0-18-1.791-24.036-4.913a.96.96,0,0,1,.882-1.7c5.77,2.985,14.208,4.7,23.153,4.7,8.9,0,17.316-1.7,23.081-4.662a.961.961,0,0,1,.878,1.709c-6.028,3.1-14.76,4.873-23.959,4.873" transform="translate(-6.043 -6.893)"/><path d="M71.712,99.7a.96.96,0,0,1-.96-.96v-61.8a.96.96,0,1,1,1.92,0v61.8a.96.96,0,0,1-.96.96" transform="translate(-9.845 -5.006)"/><path d="M97.619,73.791h-61.8a.96.96,0,1,1,0-1.92h61.8a.96.96,0,0,1,0,1.92" transform="translate(-4.85 -10.001)"/></g></g><g transform="translate(0 67.807)"><g class="k"><path class="l" d="M43.551,125.422c0-5.81-4.208-10.519-9.4-10.519H15.136c-5.191,0-9.4,4.709-9.4,10.519v8.967H43.551Z" transform="translate(-0.798 -83.795)"/><path d="M43.391,135.218H5.578a.992.992,0,0,1-.991-.991v-8.967c0-6.346,4.661-11.51,10.389-11.51H33.993c5.728,0,10.389,5.163,10.389,11.51v8.967a.992.992,0,0,1-.991.991M6.568,133.237H42.4v-7.977c0-5.254-3.771-9.529-8.408-9.529H14.976c-4.637,0-8.408,4.275-8.408,9.529Z" transform="translate(-0.638 -83.635)"/><path class="e" d="M28.59,87.451H23.172A8.547,8.547,0,0,0,14.625,96v4.751a8.547,8.547,0,0,0,8.547,8.547H28.59a8.548,8.548,0,0,0,8.547-8.547V96a8.548,8.548,0,0,0-8.547-8.548" transform="translate(-2.035 -79.975)"/><path class="f" d="M23.2,99.03a6.97,6.97,0,0,0,5.245-11.579H23.172A8.547,8.547,0,0,0,14.625,96v2.9a6.891,6.891,0,0,0,1.348.134Z" transform="translate(-2.035 -79.975)"/><path d="M28.59,89.431A6.576,6.576,0,0,1,35.158,96v4.751a6.576,6.576,0,0,1-6.568,6.567H23.171A6.577,6.577,0,0,1,16.6,100.74V96a6.575,6.575,0,0,1,6.567-6.568Zm0-1.98H23.171A8.548,8.548,0,0,0,14.624,96v4.751a8.548,8.548,0,0,0,8.547,8.547H28.59a8.548,8.548,0,0,0,8.548-8.547V96a8.548,8.548,0,0,0-8.548-8.548" transform="translate(-2.035 -79.975)"/><path class="i" d="M34.1,101.519a3.578,3.578,0,0,0-.385-1.55v3.712c0,3.782-2.679,6.847-5.985,6.847H23.066a5.473,5.473,0,0,1-3.565-1.358,5.445,5.445,0,0,0,4.943,3.653h4.231c3,0,5.429-2.781,5.429-6.211v-5.094Z" transform="translate(-2.714 -81.717)"/><path class="j" d="M27.652,110.259c3.3,0,5.985-3.065,5.985-6.847V99.7a2.9,2.9,0,0,0-2.558-1.667h-9.2a3.125,3.125,0,0,0-2.942,3.217h0v5.095a6.924,6.924,0,0,0,.486,2.558,5.472,5.472,0,0,0,3.565,1.357Z" transform="translate(-2.635 -81.448)"/><path class="j" d="M17.025,102.5h0a1.982,1.982,0,0,0-1.673,2.187v.648a1.983,1.983,0,0,0,1.673,2.187h1.414V102.5Z" transform="translate(-2.136 -82.069)"/><path class="j" d="M37.878,107.522h0a1.982,1.982,0,0,0,1.673-2.187v-.648a1.983,1.983,0,0,0-1.673-2.187H36.464v5.022Z" transform="translate(-5.074 -82.069)"/><path d="M43.391,135.218H5.578a.992.992,0,0,1-.991-.991v-8.967c0-6.346,4.661-11.51,10.389-11.51H33.993c5.728,0,10.389,5.163,10.389,11.51v8.967a.992.992,0,0,1-.991.991M6.568,133.237H42.4v-7.977c0-5.254-3.771-9.529-8.408-9.529H14.976c-4.637,0-8.408,4.275-8.408,9.529Z" transform="translate(-0.638 -83.635)"/><path class="m" d="M31.313,135.1,27,137.5,22.7,135.1,25.663,120h2.682Z" transform="translate(-3.158 -84.504)"/><path d="M26.844,138.33a.985.985,0,0,1-.483-.127l-4.309-2.4a.988.988,0,0,1-.488-1.055l2.968-15.1a.99.99,0,0,1,.971-.8h2.682a.989.989,0,0,1,.971.8l2.969,15.1a.988.988,0,0,1-.489,1.055l-4.309,2.4a.981.981,0,0,1-.482.127m-3.2-3.908,3.2,1.785,3.2-1.785-2.674-13.6H26.318Z" transform="translate(-2.998 -84.344)"/><path class="m" d="M24.351,114.9h5.767l-1.543,4.385H25.893Z" transform="translate(-3.388 -83.795)"/><path d="M28.415,120.117H25.734a.99.99,0,0,1-.934-.662l-1.543-4.385a.99.99,0,0,1,.934-1.319h5.767a.991.991,0,0,1,.934,1.319l-1.543,4.385a.991.991,0,0,1-.934.662m-1.981-1.981h1.279l.846-2.4H25.589Z" transform="translate(-3.228 -83.635)"/><path d="M28.436,113.386H24.2c-3.539,0-6.419-3.231-6.419-7.2V101.09a.982.982,0,0,1,.007-.114,4.078,4.078,0,0,1,3.931-4.093h9.195a4.078,4.078,0,0,1,3.931,4.093c0,.037.006.075.006.114v5.094c0,3.971-2.879,7.2-6.419,7.2m-8.67-12.214v5.012c0,2.879,1.991,5.221,4.438,5.221h4.232c2.447,0,4.439-2.342,4.439-5.221v-5.012q0-.03,0-.059a2.158,2.158,0,0,0-1.954-2.249H21.724a2.157,2.157,0,0,0-1.954,2.249c0,.02,0,.04,0,.059" transform="translate(-2.475 -81.288)"/><path d="M18.278,108.353H16.865a2.923,2.923,0,0,1-2.663-3.177v-.648a2.923,2.923,0,0,1,2.663-3.177h1.414a.991.991,0,0,1,.99.991v5.022a.991.991,0,0,1-.99.99m-1.414-5.022c-.315,0-.682.522-.682,1.2v.648c0,.674.367,1.2.682,1.2h.423v-3.041Z" transform="translate(-1.976 -81.909)"/><path d="M37.716,108.353H36.3a.992.992,0,0,1-.991-.991V102.34a.991.991,0,0,1,.991-.99h1.413a2.957,2.957,0,0,1,2.663,3.177v.648a2.959,2.959,0,0,1-2.663,3.178m-.423-1.981h.423c.316,0,.683-.523.683-1.2v-.648c0-.674-.367-1.2-.683-1.2h-.423Z" transform="translate(-4.914 -81.909)"/></g></g></g></g></svg>