<svg width="274" height="304" viewBox="0 0 274 304" fill="none" xmlns="http://www.w3.org/2000/svg">
<g clip-path="url(#clip0_21141_45)">
<path d="M0 1.08984C32.6531 1.08984 59.1299 36.3792 59.1299 79.9095V256.211C59.1299 282.002 80.1087 302.91 105.988 302.91H257.848V201.206" stroke="#00BC31" stroke-width="3" stroke-miterlimit="10"/>
<path d="M244.614 171.476C244.789 171.185 244.475 170.851 244.176 171.004C241.449 172.348 233.982 176.534 232.451 182.471C231.415 186.49 230.117 188.437 229.162 189.382C228.63 189.905 228.739 190.785 229.381 191.17L231.991 192.711L244.614 171.476Z" fill="white" stroke="#00BC31" stroke-width="3" stroke-miterlimit="10"/>
<path d="M264.754 182.1C264.047 174.288 261.823 166.156 254.079 163.547C247.392 161.302 247.8 167.472 249.04 172.82L246.736 171.461L233.545 193.641L242.747 199.077L224.794 203.546C223.416 201.824 221.221 200.886 218.983 201.148C218.706 201.126 218.443 201.14 218.173 201.213C218.035 201.257 217.911 201.337 217.787 201.402C217.765 201.409 217.743 201.402 217.714 201.417V201.431C216.161 202.34 215.614 205.312 216.518 208.48C216.97 210.057 217.692 211.467 218.567 212.448C219.595 213.611 220.733 214.091 221.776 213.793C222.082 213.705 222.359 213.553 222.614 213.342C224.867 212.23 226.231 209.948 226.202 207.499L247.881 202.107L259.307 208.851L272.498 186.672L264.754 182.1ZM221.214 212.048C220.893 212.085 220.405 211.787 219.938 211.256C219.253 210.479 218.655 209.287 218.275 207.986C217.656 205.828 217.845 204.076 218.297 203.321C218.305 203.299 218.327 203.284 218.334 203.27L221.214 212.063V212.048ZM262.946 181.032L251.235 174.114C250.929 173.031 250.637 171.956 250.389 170.858C250.046 169.31 249.813 167.69 250.09 166.113C250.673 162.763 255.894 166.505 257.017 167.406C260.999 170.626 262.413 175.778 262.953 181.039L262.946 181.032Z" fill="white" stroke="#00BC31" stroke-width="3" stroke-miterlimit="10"/>
<path d="M187.234 252.658C187.234 252.658 182.1 253.595 177.237 263.449C172.373 273.304 165.723 255.194 155.113 252.963C155.113 252.963 158.052 255.47 161.559 259.438C170.076 269.074 173.78 282.162 171.082 294.72C170.521 297.336 169.675 299.974 168.45 302.496H186.65C186.65 302.496 173.817 274.045 187.234 252.658Z" fill="white" stroke="#00BC31" stroke-width="3" stroke-miterlimit="10"/>
<path d="M189.261 251.625C189.261 251.625 188.575 230.18 209.715 227.229C209.715 227.229 211.297 245.317 189.261 251.625Z" fill="#E2FF70" stroke="#00BC31" stroke-width="3" stroke-miterlimit="10"/>
<path d="M186.475 250.652C186.475 250.652 174.903 242.52 181.721 230.289C181.721 230.289 191.879 236.626 186.475 250.652Z" fill="white" stroke="#00BC31" stroke-width="3" stroke-miterlimit="10"/>
<path d="M189.786 235.333C189.786 235.333 181.48 223.902 191.9 214.534C191.9 214.534 199.455 223.807 189.786 235.333Z" fill="white" stroke="#00BC31" stroke-width="3" stroke-miterlimit="10"/>
<path d="M152.225 235.972C152.225 235.972 139.603 229.584 144.584 216.503C144.584 216.503 155.551 221.314 152.225 235.972Z" fill="white" stroke="#00BC31" stroke-width="3" stroke-miterlimit="10"/>
<path d="M139.931 251.952C139.931 251.952 131.524 258.289 124.363 250.695C124.363 250.695 131.174 244.954 139.931 251.952Z" fill="white" stroke="#00BC31" stroke-width="3" stroke-miterlimit="10"/>
<path d="M224.058 252.04C224.058 252.04 212.478 260.157 203.218 249.642C203.218 249.642 212.624 242.244 224.058 252.04Z" fill="white" stroke="#00BC31" stroke-width="3" stroke-miterlimit="10"/>
<path d="M174.101 263.362C174.101 263.362 163.273 251.393 172.993 240.943C172.993 240.943 182.662 250.623 174.101 263.362Z" fill="white" stroke="#00BC31" stroke-width="3" stroke-miterlimit="10"/>
<path d="M210.094 259.212C210.094 259.212 197.844 266.291 189.545 255.005C189.545 255.005 199.572 248.457 210.094 259.212Z" fill="white" stroke="#00BC31" stroke-width="3" stroke-miterlimit="10"/>
<path d="M155.762 252.839C155.762 252.839 134.236 253.253 131.538 232.157C131.538 232.157 149.71 230.805 155.762 252.839Z" fill="#E2FF70" stroke="#00BC31" stroke-width="3" stroke-miterlimit="10"/>
<path d="M155.405 255.405C155.405 255.405 147.099 266.836 134.915 259.888C134.915 259.888 141.397 249.845 155.405 255.405Z" fill="white" stroke="#00BC31" stroke-width="3" stroke-miterlimit="10"/>
<path d="M165.978 221.481C165.978 221.481 176.558 240.216 159.153 252.592C159.153 252.592 149.338 237.251 165.978 221.481Z" fill="#E2FF70" stroke="#00BC31" stroke-width="3" stroke-miterlimit="10"/>
</g>
<defs>
<clipPath id="clip0_21141_45">
<rect width="274" height="304" fill="white"/>
</clipPath>
</defs>
</svg>
