<svg xmlns="http://www.w3.org/2000/svg" xmlns:xlink="http://www.w3.org/1999/xlink" width="335" height="299" viewBox="0 0 335 299"><defs><clipPath id="a"><rect width="153" height="40" fill="none"/></clipPath><clipPath id="b"><rect width="208.789" height="30.582" fill="none"/></clipPath></defs><g transform="translate(-334 -1202.212)"><rect width="335" height="248" rx="10" transform="translate(334 1253.212)" fill="#03396e"/><rect width="335" height="272" rx="10" transform="translate(334 1219.212)" fill="#fff"/><rect width="290" height="7" transform="translate(358 1434)" fill="#d2e9ff"/><text transform="translate(503 1371)" fill="#121212" font-size="20" font-family="NotoSansKR-Regular, Noto Sans KR" letter-spacing="-0.05em"><tspan x="0" y="0"></tspan><tspan x="0" y="32"></tspan><tspan fill="#0060be" font-family="NotoSansKR-Bold, Noto Sans KR" font-weight="700"><tspan x="-145.46" y="64">&apos;건설·산업안전&apos; 분야 특화전문전시회</tspan></tspan></text><text transform="translate(503 1371)" fill="#121212" font-size="20" font-family="NotoSansKR-Regular, Noto Sans KR" letter-spacing="-0.05em"><tspan x="0" y="0"></tspan><tspan x="-120.56" y="32">안전 강화 정책 수용에 부응하는</tspan><tspan x="0" y="64"></tspan></text><text transform="translate(503 1371)" fill="#121212" font-size="20" font-family="NotoSansKR-Regular, Noto Sans KR" letter-spacing="-0.05em"><tspan x="-99.68" y="0">중대재해처벌법 등 정부의</tspan></text><g transform="translate(426 1202.212)"><g transform="translate(0 0)" clip-path="url(#a)"><path d="M144.629,38.488H9.33A6.882,6.882,0,0,1,2.3,31.775V6.714A6.883,6.883,0,0,1,9.33,0h135.3a6.882,6.882,0,0,1,7.026,6.712V31.775a6.882,6.882,0,0,1-7.026,6.714M9.33,5.289A1.46,1.46,0,0,0,7.84,6.714V31.775A1.46,1.46,0,0,0,9.33,33.2h135.3a1.46,1.46,0,0,0,1.491-1.425V6.714a1.46,1.46,0,0,0-1.491-1.425Z" transform="translate(-0.721 0)" fill="#92a1b7"/><path d="M18.721,50.166H8.61A8.434,8.434,0,0,1,0,41.942V32.957H8.7v8.9H18.721Z" transform="translate(0 -10.167)" fill="#545a63"/><path d="M195.426,50.167h10.108a8.435,8.435,0,0,0,8.611-8.225V32.957h-8.7v8.9H195.426Z" transform="translate(-61.145 -10.167)" fill="#545a63"/></g></g><g transform="translate(398 1284.294)"><g clip-path="url(#b)"><path d="M5.54,36.242c0-.58-.29-1.05-.869-1.05s-.869.471-.869,1.05v1.321H.181V36.242c0-2.571,1.937-3.947,4.49-3.947s4.671,1.376,4.671,3.947v.724c0,2.245-.905,3.367-2.842,5.449-1.955,2.1-2.516,2.5-2.516,3.386v.325H9.342v2.9H0V45.8c0-1.322.127-2.317,3.295-5.105,1.937-1.684,2.245-2.571,2.245-3.729Z" transform="translate(0 -18.893)" fill="#0f3119"/><path d="M25.128,36.242c0-2.571,2.118-3.947,4.671-3.947s4.671,1.376,4.671,3.947v9.287c0,2.571-2.118,3.946-4.671,3.946s-4.671-1.376-4.671-3.946Zm3.621,9.287a1.05,1.05,0,0,0,2.1,0V36.242a1.05,1.05,0,1,0-2.1,0Z" transform="translate(-14.7 -18.893)" fill="#0f3119"/><path d="M55.8,36.242c0-.58-.29-1.05-.869-1.05s-.869.471-.869,1.05v1.321H50.437V36.242c0-2.571,1.937-3.947,4.49-3.947S59.6,33.671,59.6,36.242v.724c0,2.245-.905,3.367-2.842,5.449-1.955,2.1-2.516,2.5-2.516,3.386v.325H59.6v2.9H50.256V45.8c0-1.322.127-2.317,3.295-5.105,1.937-1.684,2.245-2.571,2.245-3.729Z" transform="translate(-29.401 -18.893)" fill="#0f3119"/><path d="M78.515,38.795l1.195-.09a1.2,1.2,0,0,0,1.141-1.051V36.061a1.05,1.05,0,0,0-2.1,0v1.321H75.13v-1.14c0-2.571,2.118-3.946,4.671-3.946s4.671,1.376,4.671,3.946v1.23a2.946,2.946,0,0,1-1.412,2.752,2.946,2.946,0,0,1,1.593,2.788V45.53c0,2.571-2.3,3.946-4.851,3.946S74.949,48.1,74.949,45.53V43.556h3.8V45.53a1.05,1.05,0,0,0,2.1,0v-2.7a1.221,1.221,0,0,0-1.232-1.05l-1.1-.09Z" transform="translate(-43.847 -18.894)" fill="#0f3119"/><path d="M114.908,33.162h3.168v-1.3h4.164v1.3h3.168v2.625h-10.5Zm2.788,9.432a2.933,2.933,0,0,1-2.607-3.132,2.95,2.95,0,0,1,2.607-3.15h4.96a2.95,2.95,0,0,1,2.607,3.15,2.933,2.933,0,0,1-2.607,3.132ZM131.02,49.04H115.85V43.463h4.037v2.607H131.02ZM118.873,40.06h2.679c.29,0,.471-.326.471-.6,0-.344-.181-.615-.471-.615h-2.679c-.29,0-.489.271-.489.615,0,.271.2.6.489.6m7.8-7.839h3.983v4.11h1.883v3.276h-1.883V44.64h-3.983Z" transform="translate(-67.224 -18.638)" fill="#0f3119"/><path d="M158.1,38.851h16.656v2.842h-6.463v1.937h5.83v6.1h-3.91V46.418H158.64V43.631H164.4V41.693h-6.3Zm.543-6.119h15.569l-.489,5.667H169.9l.235-2.9h-11.5Z" transform="translate(-92.49 -19.149)" fill="#0f3119"/><path d="M214.579,40.19H210.6c-1.919,1.974-5.051,2.734-8.219,2.734v-2.9c4.472,0,6.518-2.046,6.518-4.128h-6.427V33h10.1v1.991a8.7,8.7,0,0,1-.254,2.118h2.263V32.732h4v12.4h-4Zm4.273,9.36H203.228V43.613h4.037v2.969h11.587Z" transform="translate(-118.395 -19.149)" fill="#0f3119"/><path d="M245.784,38.507c2.372-.526,3.367-1.828,3.421-4.055v-1.63h3.946v1.467c0,2.317.978,3.656,3.421,4.218v2.915a7.575,7.575,0,0,1-5.395-2.77,7.581,7.581,0,0,1-5.395,2.77Zm.941,3.548h15.352v4.6H250.726v.706h11.623V49.55H246.725V44.788h11.369v-.615H246.725Zm8.038-7.35h3.331V32.732h3.983V41.6h-3.983V37.565h-3.331Z" transform="translate(-143.789 -19.149)" fill="#0f3119"/><path d="M289.845,36.788c0-2.662,2.172-4.056,4.834-4.056s4.834,1.394,4.834,4.056v2.045c0,2.662-2.172,4.019-4.834,4.019s-4.834-1.357-4.834-4.019ZM305.776,49.55H290.605V43.794h4.037v2.788h11.134ZM293.484,38.923a1.128,1.128,0,0,0,1.231,1.14,1.143,1.143,0,0,0,1.249-1.14V36.679a1.157,1.157,0,0,0-1.249-1.159,1.142,1.142,0,0,0-1.231,1.159Zm7.948-6.191h3.983v4.11H307.3v3.276h-1.883V44.97h-3.983Z" transform="translate(-169.565 -19.149)" fill="#0f3119"/><path d="M343.825,43.322c-2.408-.344-4.236-1.123-5.395-2.716-1.177,1.593-3.006,2.372-5.4,2.716v-3.1c2.1-.29,3.6-1.466,3.6-3.765v-.4h-3.422V33h10.428v3.06h-3.422v.561c.054,2.172,1.539,3.313,3.6,3.6Zm5.775,6.227H333.976V43.793h4.037v2.788H349.6ZM342.214,36.7h3.114V32.731h4V45.223h-4V39.411h-3.114Z" transform="translate(-194.833 -19.148)" fill="#0f3119"/><path d="M377.1,32.913h3.82v1.612h2.118V32.913h3.748v9.323H377.1Zm.58,10.355h14.99v6.463H388.5V46.256H377.676Zm3.241-3.91h2.118V37.4h-2.118Zm7.766-6.626h3.983v3.114h1.883v3.187h-1.883v3.783h-3.983Z" transform="translate(-220.609 -19.149)" fill="#0f3119"/><path d="M420.721,33h9.668v5.757h-5.847v1.032l7.3-.507v2.661l-11.116.742v-6.3h5.83v-.815h-5.83Zm.76,10.1h14.809V49.55h-4V49.08l-10.808.471Zm4.02,3.639,6.789-.254v-.76H425.5Zm6.807-14.013h3.983v3.2h1.883V39.1h-1.883v3.6h-3.983Z" transform="translate(-246.131 -19.149)" fill="#0f3119"/><path d="M463.475,45.962l3.8-.217V43.463h4.092v2.028l4.037-.254v3.077l-11.93.724Zm.181-12.8h3.53v-1.3h4.237v1.3h3.53v2.806h-11.3Zm2.843,9.758a3.047,3.047,0,0,1-2.662-3.241c0-1.81,1.267-3.258,2.662-3.258h5.648c1.394,0,2.661,1.448,2.661,3.258a3.047,3.047,0,0,1-2.661,3.241Zm1.159-2.625h3.4a.6.6,0,0,0,.507-.616.578.578,0,0,0-.507-.634h-3.4a.591.591,0,0,0-.525.634.611.611,0,0,0,.525.616m8.2-8.074h4.073V49.04h-4.073Z" transform="translate(-271.143 -18.638)" fill="#0f3119"/><path d="M6.908.489,3.734,4.632H5.355L7.1,8.978H4.535L3.107,5.444l-.9,1.178V8.978H.058V.489H2.209V3.342L4.371.489Z" transform="translate(-0.034 -0.286)" fill="#0f3119"/><rect width="5.403" height="1.99" transform="translate(7.598 3.229)" fill="#0f3119"/><path d="M34.757,4.447c0,1.726.724,2.458,1.852,2.458a1.607,1.607,0,0,0,1.775-1.544h2.171c0,1.868-1.245,3.534-3.946,3.534-2.653,0-4-1.665-4-4.447S33.956,0,36.609,0c2.7,0,3.946,1.665,3.946,3.533H38.384A1.607,1.607,0,0,0,36.609,1.99c-1.128,0-1.852.731-1.852,2.457" transform="translate(-19.075 0)" fill="#0f3119"/><path d="M52.111,4.447c0-2.782,1.351-4.447,4-4.447s4,1.665,4,4.447-1.351,4.447-4,4.447-4-1.665-4-4.447m2.152,0c0,1.726.724,2.458,1.852,2.458s1.852-.731,1.852-2.458S57.244,1.99,56.115,1.99s-1.852.731-1.852,2.457" transform="translate(-30.486 0)" fill="#0f3119"/><path d="M72.223,8.977V.489h2.441l2.644,5.219V.489h2.151V8.977H77.018L74.375,3.951V8.977Z" transform="translate(-42.252 -0.286)" fill="#0f3119"/><path d="M90.473,2.741c0-1.7.974-2.741,3.473-2.741S97.42,1.046,97.42,2.741H95.249c0-.619-.318-.8-1.3-.8-1.071,0-1.3.274-1.3.752,0,.548.318.761,1.4.761,2.6,0,3.57,1.005,3.57,2.7s-.974,2.742-3.57,2.742-3.57-1.046-3.57-2.742h2.171c0,.62.318.8,1.4.8,1.168,0,1.4-.274,1.4-.751,0-.549-.319-.761-1.4-.761-2.6,0-3.57-1.005-3.57-2.7" transform="translate(-52.929 0)" fill="#0f3119"/><path d="M114.017,1.505l2.209,7.473h-2.248L113.516,7.4h-2.778l-.463,1.574h-2.248L110.535.49h2.229l-.3,1.015Zm-2.7,3.929h1.621l-.81-2.772Z" transform="translate(-63.197 -0.287)" fill="#0f3119"/><path d="M134.409,5.932h-3.657V8.978H128.6V.49h6.184V2.48h-4.033V3.942h3.657Z" transform="translate(-75.234 -0.287)" fill="#0f3119"/><path d="M150.688,5.678h-3.753v1.31h4.129v1.99h-6.281V.49h6.281V2.48h-4.129v1.31h3.753Z" transform="translate(-84.701 -0.287)" fill="#0f3119"/><path d="M163.637,8.977v-6.5H161.2V.489h7.043v1.99h-2.451v6.5Z" transform="translate(-94.303 -0.286)" fill="#0f3119"/><path d="M181.9,8.977V6.043L178.981.489h2.392l1.611,3.361L184.6.489h2.393l-2.933,5.554V8.977Z" transform="translate(-104.708 -0.286)" fill="#0f3119"/><path d="M210.926,5.678h-3.753v1.31H211.3v1.99h-6.281V.49H211.3V2.48h-4.129v1.31h3.753Z" transform="translate(-119.942 -0.287)" fill="#0f3119"/><path d="M224.876,6.023l-1.563,2.955h-2.344l2.161-4.244L220.969.489h2.344l1.563,2.955L226.44.489h2.344l-2.161,4.244,2.161,4.244H226.44Z" transform="translate(-129.272 -0.286)" fill="#0f3119"/><path d="M240.614,8.977V.489h3.425c2.557,0,3.715,1.056,3.715,3.178s-1.158,3.178-3.715,3.178h-1.273V8.977Zm3.425-4.122c.984,0,1.563-.223,1.563-1.188s-.579-1.188-1.563-1.188h-1.273V4.855Z" transform="translate(-140.764 -0.286)" fill="#0f3119"/><path d="M258.166,4.447c0-2.782,1.351-4.447,4-4.447s4,1.665,4,4.447-1.351,4.447-4,4.447-4-1.665-4-4.447m2.152,0c0,1.726.724,2.458,1.852,2.458s1.852-.731,1.852-2.458S263.3,1.99,262.17,1.99s-1.852.731-1.852,2.457" transform="translate(-151.033 0)" fill="#0f3119"/></g></g></g></svg>