<svg xmlns="http://www.w3.org/2000/svg" width="198.106" height="43.906" viewBox="0 0 198.106 43.906"><g transform="translate(-1021.431 -969.614)"><path d="M176.609,431.584H22.5a21.953,21.953,0,1,1,0-43.906H176.609a21.953,21.953,0,1,1,0,43.906" transform="translate(1020.931 581.936)" fill="#002477"/><path d="M45.753,409.848H65.92v2.909H57.776v5.767H53.9v-5.767H45.753Zm5.335-10.563h9.471V396.5h3.778v11.457H50.627a3.067,3.067,0,0,1-3.318-3.394V396.5h3.778Zm9.471,5.843v-3.012H51.088v1.965c0,.792.229,1.047,1,1.047Z" transform="translate(1031.718 584.018)" fill="#fff"/><path d="M83.063,418.553h-3.5v-11.38H77.753V418.3h-3.5v-2.909a4.525,4.525,0,0,1-2.936.946H67.337c-2.119,0-3.548-.894-3.548-3.5V396.89h9.139v2.883H67.414V412.48c0,.792.23,1,.791,1h3.371c1.761,0,2.68-.843,2.68-2.169V396.38h3.5v7.756h1.813V396.38h3.5Z" transform="translate(1036.018 583.989)" fill="#fff"/><path d="M80.753,397.9H84.48v-2.042h3.625V397.9h3.446v2.679h-10.8Zm5.565,3.164c3.345,0,5.132,2.042,5.132,4.67,0,2.6-1.787,4.668-5.132,4.668s-5.131-2.066-5.131-4.668c0-2.629,1.787-4.67,5.131-4.67m0,6.941a2.035,2.035,0,0,0,1.965-2.27,2.058,2.058,0,0,0-1.965-2.3,2.092,2.092,0,0,0-1.991,2.3,2.069,2.069,0,0,0,1.991,2.27m6.357,2.6c5.209,0,8.323,1.353,8.323,4.363,0,2.986-3.115,4.338-8.323,4.338-5.181,0-8.271-1.352-8.271-4.338,0-3.009,3.09-4.363,8.271-4.363m0,6.2c3.013,0,4.7-.46,4.7-1.839,0-1.4-1.684-1.836-4.7-1.836-2.987,0-4.646.435-4.646,1.836,0,1.379,1.659,1.839,4.646,1.839m8.3-6.354H97.526v-5.69H95.918v5.051H92.47V396.5h3.448v5.358h1.607V396.5h3.446Z" transform="translate(1040.061 583.867)" fill="#fff"/><path d="M110.666,415.9a17.759,17.759,0,0,1-5.258-6.329,14.613,14.613,0,0,1-5.311,6.789l-2.4-2.042a13.708,13.708,0,0,0,5.667-11.38v-6.226h3.727v6.328c0,4.033,2.655,8.218,5.973,10.744Zm7.071-11.763h2.4v3.037h-2.4v11.38h-3.625V396.381h3.625Z" transform="translate(1044.101 583.989)" fill="#fff"/></g></svg>