<svg xmlns="http://www.w3.org/2000/svg" xmlns:xlink="http://www.w3.org/1999/xlink" width="615" height="407" viewBox="0 0 615 407"><defs><clipPath id="a"><rect width="222.669" height="57.845" transform="translate(0 0)" fill="none"/></clipPath><clipPath id="b"><rect width="273.703" height="51.35" transform="translate(0 0)" fill="none"/></clipPath></defs><g transform="translate(-330 -1199)"><rect width="615" height="376" rx="10" transform="translate(330 1230)" fill="#03396e"/><rect width="615" height="376" rx="10" transform="translate(330 1220)" fill="#fff"/><rect width="283" height="7" transform="translate(474 1444)" fill="#d2e9ff"/><path d="M-95.732-10.218V-11.96h-3.3a30.236,30.236,0,0,0,.572-6.63v-1.69h-15.73v1.716h13.624a27.8,27.8,0,0,1-.624,6.6h-15.7v1.742h9.49v4.264h-7.254v1.716h14.2V1.9h2.132V-5.954h-6.942v-4.264ZM-91-18.564h-2.132v14.43h1.482A43.149,43.149,0,0,0-83.3-4.862l-.208-1.846A40.543,40.543,0,0,1-91-5.98ZM-76.544-21.4v9.49h-3.3v-8.97h-2V.728h2V-10.14h3.3V1.9h2.054V-21.4Zm11.232,13.1a9.305,9.305,0,0,0,5.954-5.174A9.36,9.36,0,0,0-53.4-8.554l.988-1.638c-3.406-1.014-5.85-3.484-5.9-6.448h5.382v-1.716h-5.382v-2.886H-60.45v2.886h-5.3v1.716h5.3C-60.5-13.572-62.868-11-66.3-9.958Zm6.994-.78H-60.45v4.342c-2.366.078-4.628.078-6.552.078l.286,1.794A88.474,88.474,0,0,0-51.61-3.874l-.182-1.586c-2.08.338-4.342.494-6.526.624Zm8.06-12.324V1.95h2.132V-21.4Zm8.684,4.576H-35v-1.742H-43.68V-3.822h1.534a38.292,38.292,0,0,0,8.632-.7L-33.7-6.292a36.682,36.682,0,0,1-7.878.7Zm14.82-4.576v9.36h-3.3v-8.84h-2V.754h2V-10.3h3.3V1.924H-24.7V-21.4Zm12.4,4.056h6.526V-5.72h-6.526ZM-16.432-4H-5.746V-19.058H-16.432ZM4.42-12.09H.572v-9.282H-1.56v23.3H.572V-10.3H4.42Zm20.592-9.282H22.984V-5.564h2.028Zm-6.63,8.528v5.2h2V-20.982h-2v6.422h-3.51a15.6,15.6,0,0,0,.728-4.862H6.552v1.742h6.942A12.853,12.853,0,0,1,12.974-15l-7.514.494L5.8-12.766l6.474-.676C11.05-11.18,8.866-9.282,5.486-7.826l1.04,1.56c3.77-1.664,6.214-3.874,7.618-6.578Zm-.13,5.928H16.12v.728c0,3.12-3.822,5.694-7.93,6.344l.832,1.69c3.51-.624,6.734-2.444,8.164-5.07,1.43,2.626,4.706,4.446,8.19,5.07l.858-1.69c-4.134-.65-7.982-3.224-7.982-6.344Zm23.036-7.67h-5.8v-4.446h5.8Zm-7.93,0H29.9v1.638H46.852v-1.638H43.42v-4.446h3.51V-20.67H29.822v1.638h3.536ZM32.552-2.132h13.7V-7.254H30.394v1.586H44.148v2H30.472v5.33H46.956V.052h-14.4ZM27.846-11v1.69H48.958V-11Zm25.48.26h6.24v-8.086H51.194v1.742h6.318v4.654h-6.24V-3.8h1.534a50.482,50.482,0,0,0,8.866-.676L61.49-6.214a45.392,45.392,0,0,1-8.164.624Zm10.218-2.288H60.658v1.768h2.886V.7h2V-20.826h-2ZM68.25-21.4V1.924H70.3V-21.4Zm21.814,0V1.976H92.2V-21.4ZM79.9-19.6c-3.458,0-5.928,3.172-5.928,8.138S76.44-3.328,79.9-3.328s5.928-3.172,5.928-8.138S83.356-19.6,79.9-19.6Zm0,1.924c2.262,0,3.874,2.444,3.874,6.214,0,3.8-1.612,6.24-3.874,6.24-2.288,0-3.9-2.444-3.9-6.24C76-15.236,77.61-17.68,79.9-17.68ZM115.83-9.672c-4.082-.78-8.5-4.316-8.5-8.294V-19.76h-2.236v1.794c0,3.978-4.394,7.488-8.476,8.294L97.578-7.9c3.51-.832,7.15-3.328,8.632-6.734,1.482,3.432,5.122,5.928,8.658,6.734Zm-20.1,6.708V-1.2H116.87V-2.964Z" transform="translate(638 1486)" fill="#121212"/><path d="M-15.054-5.044a3.5,3.5,0,0,1-3.64-3.588,3.5,3.5,0,0,1,3.64-3.614,3.51,3.51,0,0,1,3.666,3.614A3.5,3.5,0,0,1-15.054-5.044Zm0-8.97A5.316,5.316,0,0,0-20.7-8.632c0,3.172,2.366,5.356,5.642,5.356,3.328,0,5.694-2.184,5.694-5.356C-9.36-11.778-11.726-14.014-15.054-14.014Zm1.04-7.1h-2.132v3.458h-5.876v1.716H-8.268v-1.716h-5.746ZM-.1-11.8H-3.926v-9.568H-6.058v23.3h2.132V-10.01H-.1Zm19.526-2.574H5.694V-20.54H3.562v7.9h15.86ZM5.538-5.46H3.406V1.352H19.552V-.39H5.538ZM.7-9.516V-7.8H21.84V-9.516Z" transform="translate(778 1446)" fill="#121212"/><path d="M-133.978-2.21h13.208V-8.944h-16.666v2.652H-124.2v1.56H-137.41V2.054h17.238V-.6h-13.806Zm12.818-11.076a30.049,30.049,0,0,0,.442-5.85v-1.638h-16.458v2.73H-124.1a25.208,25.208,0,0,1-.494,4.758h-15.262v2.7h21.684v-2.7ZM-104.7-3.2V-6.76h7.254V-9.516h-13.884v-2.678h13.338v-7.982h-16.77v2.73h13.39v2.574h-13.364V-6.76h6.6V-3.2h-9.1V-.39H-95.55V-3.2Zm19.058-9.62h-4.55v-2.548h4.55Zm3.354-1.326h4.264v4.628h3.432V-21.71h-3.432v4.836H-82.29v-3.848h-3.354v2.756h-4.55v-2.756H-93.6v10.608h11.31ZM-86.97-.7v-1.43h12.376V-8.58H-90.4v2.652H-78V-4.6H-90.35V1.95h16.432V-.7Zm37.05-21.034v9.178h-1.95v-8.788h-3.2v15.5C-58.6-7.7-59.8-11.674-59.8-15.86v-.65h3.588v-2.782H-67.054v2.782h3.926v.65c0,4.6-1.144,8.84-4.706,10.92l2.054,2.6a10.343,10.343,0,0,0,4.42-6.344,9.414,9.414,0,0,0,4.368,5.46L-55.068-5.8V1.144h3.2V-9.75h1.95V2.21h3.25V-21.736Zm18.72,9.568a50.89,50.89,0,0,1-9.178.936v-8.892H-43.81V-8.372h2.054a53.967,53.967,0,0,0,10.972-1.04Zm-6.708,6.084H-41.34v7.9h16.2V-.91H-37.908ZM-25.922-15V-21.71h-3.432V-4.5h3.432v-7.618h3.172V-15Zm7.306.91a2.967,2.967,0,0,1,3.146-3.12,2.981,2.981,0,0,1,3.146,3.12,2.981,2.981,0,0,1-3.146,3.12A2.967,2.967,0,0,1-18.616-14.092Zm9.62,0a6.139,6.139,0,0,0-6.474-6.084c-3.666,0-6.5,2.548-6.5,6.084,0,3.51,2.834,6.084,6.5,6.084A6.155,6.155,0,0,0-9-14.092Zm-6.318,8.008h-3.432v7.9h16.3V-.91h-12.87ZM-3.3-14.846V-21.71H-6.734V-4.29H-3.3v-7.748H-.13v-2.808Zm16.614-.676v2.782h3.744v8.5h3.432V-21.71H17.056v6.188ZM14.9-10.01A7.37,7.37,0,0,1,9.49-17.056v-.312h4.654V-20.1H1.274v2.73H5.98v.338A7.7,7.7,0,0,1,.338-9.594L2.08-6.864a9.411,9.411,0,0,0,5.72-5.2,8.929,8.929,0,0,0,5.434,4.732ZM8.138-.91V-5.694H4.706V1.82H21.034V-.91Zm29.276-9.438a7.419,7.419,0,0,1-5.486-7.306v-2.6H28.444v2.574a7.837,7.837,0,0,1-5.72,7.774l1.82,2.678A9.315,9.315,0,0,0,30.238-12.4,8.95,8.95,0,0,0,35.646-7.67Zm-7.462,4.5H26.52V1.82H42.77V-.91H29.952Zm11.986-8.918V-21.71H38.506V-4.186h3.432v-7.748H45.11v-2.834ZM62.322-.78H53.274V-2.912h9.048Zm0-4.732H53.274V-7.8H49.868V1.95h15.86V-7.8H62.322Zm-10.01-6.63A2.772,2.772,0,0,1,49.3-15a2.772,2.772,0,0,1,3.016-2.86A2.78,2.78,0,0,1,55.354-15,2.78,2.78,0,0,1,52.312-12.142ZM62.3-21.71v5.278H58.474a6.093,6.093,0,0,0-6.162-4.29c-3.588,0-6.292,2.392-6.292,5.72s2.7,5.72,6.292,5.72A6.064,6.064,0,0,0,58.5-13.65h3.8v4.81h3.432V-21.71Zm16.848,2.86c3.484,0,5.122.494,5.122,1.56,0,1.118-1.638,1.586-5.122,1.586-3.458,0-5.1-.468-5.1-1.586C74.048-18.356,75.686-18.85,79.144-18.85Zm0,5.642c5.486,0,8.684-1.43,8.684-4.082,0-2.626-3.2-4.082-8.684-4.082-5.46,0-8.658,1.456-8.658,4.082C70.486-14.638,73.684-13.208,79.144-13.208ZM74.23-1.872h13.1V-8.034H70.8v2.522H83.954v1.274H70.824V2.054H87.958V-.52H74.23Zm-5.9-10.192v2.678H89.96v-2.678Zm43.81,8.034h3.432V-21.71h-3.432v5.1h-4.394v2.782h4.394Zm-2.288-6.136a7.657,7.657,0,0,1-5.356-7.488v-2.6H101.01v2.574a8.079,8.079,0,0,1-5.616,8.06l1.794,2.678a9.411,9.411,0,0,0,5.642-5.434,8.9,8.9,0,0,0,5.2,4.862ZM103.194-.91V-5.8H99.762V1.82H116.09V-.91ZM130.7-3.276V-8.268h6.838v-2.756H124.15v-6.292h13.208v-2.756H120.692v11.8h6.578v4.992h-9.1V-.468h21.684V-3.276Z" transform="translate(615 1446)" fill="#0060be"/><g transform="translate(526 1199)"><g clip-path="url(#a)"><path d="M209.437,55.659H12.53A9.988,9.988,0,0,1,2.3,45.95V9.709A9.989,9.989,0,0,1,12.53,0L209.437,0a9.986,9.986,0,0,1,10.225,9.707V45.95a9.987,9.987,0,0,1-10.225,9.709M12.53,7.648a2.118,2.118,0,0,0-2.169,2.061V45.95a2.118,2.118,0,0,0,2.169,2.061H209.437a2.119,2.119,0,0,0,2.17-2.061V9.709a2.119,2.119,0,0,0-2.17-2.061Z" fill="#92a1b7"/><path d="M27.246,57.844H12.53C5.622,57.844,0,52.509,0,45.95V32.957H12.662V45.826H27.246Z" fill="#545a63"/><path d="M195.426,57.845h14.713c6.907,0,12.53-5.335,12.53-11.9V32.957H210.005V45.826H195.426Z" fill="#545a63"/></g></g><g transform="translate(501 1327.566)"><g clip-path="url(#b)"><path d="M15.373,0A15.373,15.373,0,1,0,30.746,15.373,15.39,15.39,0,0,0,15.373,0m0,22.317a6.944,6.944,0,1,1,6.943-6.944,6.952,6.952,0,0,1-6.943,6.944" fill="#001c2f"/><path d="M50.4,11.285H44.786V.72H36.358V30.279h8.429V19.714H50.4Z" fill="#001c2f"/><rect width="31.579" height="8.429" transform="translate(54.569 0.802)" fill="#b20021"/><path d="M81.392,29.228,70.359,18.2,59.327,29.228l-5.961-5.96L70.359,6.275,87.352,23.268Z" fill="#b20021"/><path d="M86.148,51.35H1.863V34.508h8.429V42.92H77.719V34.508h8.429Z" fill="#001c2f"/><rect width="4.256" height="15.944" transform="translate(107.865 30.071)" fill="#b20021"/><path d="M122.218,32.472l-5.57,5.569,5.57,5.573-3.009,3.008-8.58-8.581,8.58-8.579Z" fill="#b20021"/><path d="M137.527,34.622a6.629,6.629,0,0,0-3.737-1.307c-1.165,0-1.747.56-1.747,1.327,0,.7.512,1.142,2.026,1.329l.838.116c3.471.489,5.24,2.025,5.24,5.031,0,2.934-2.235,5.075-6.474,5.075a10.339,10.339,0,0,1-6.584-2.435l2.431-2.838a6.456,6.456,0,0,0,4.2,1.734c1.467,0,2.236-.6,2.236-1.49,0-.676-.443-1.117-2-1.327l-.839-.116c-3.424-.491-5.286-2.028-5.286-4.985s2.3-4.936,5.891-4.936a9.848,9.848,0,0,1,5.862,1.884Z" fill="#003971"/><path d="M150.613,30.079H146.38L140.729,46.02h4.277l.847-2.784H151l.842,2.784h4.3ZM146.9,39.837l1.571-5.054,1.5,5.054Z" fill="#003971"/><path d="M200.255,46.009h4.1V39.78l4.923-9.711h-4.154L202.4,35.7h-.071l-2.78-5.634h-4.226l4.934,9.711Z" fill="#003971"/><path d="M174.521,39.826h5.589v-3.4h-5.589V33.54h6.73V30.069H170.422V46.01h10.829V42.54h-6.73Z" fill="#003971"/><path d="M161.666,46.009h-4.1V30.069H168.4v3.469h-6.731v2.889h5.59v3.4h-5.59Z" fill="#003971"/><path d="M195.015,30.069H182.393V33.54h4.262V46.008h4.1V33.54h4.262Z" fill="#003971"/><path d="M226.588,39.577h-5.714V42.5h6.4V46H216.6V30.086h10.342V33.58h-6.069v2.55h5.714Z" fill="#003971"/><path d="M237.846,46l-1.156-2.6c-.472-1.013-.826-1.839-1.228-2.76h-.047c-.284.921-.661,1.747-1.039,2.738L233.314,46h-4.84l4.485-8.051-4.319-7.861h4.886l1.087,2.525c.4.946.708,1.725,1.061,2.646h.048c.354-1.038.613-1.747.944-2.62l.968-2.551H242.5l-4.32,7.766,4.6,8.146Z" fill="#003971"/><path d="M244.525,30.32a32.99,32.99,0,0,1,5.241-.353,8.194,8.194,0,0,1,5.053,1.276,4.716,4.716,0,0,1,1.818,3.822,5.165,5.165,0,0,1-1.559,3.919,7.833,7.833,0,0,1-5.288,1.655c-.425,0-.779-.048-1.038-.048V46h-4.227Zm4.227,7.013a9.432,9.432,0,0,0,.967.047c1.653,0,2.692-.85,2.692-2.219,0-1.182-.779-1.983-2.408-1.983a6.635,6.635,0,0,0-1.251.093Z" fill="#003971"/><path d="M265.724,46.258c-4.933,0-7.649-3.707-7.649-8.122,0-4.627,3.022-8.312,7.909-8.312,5.123,0,7.72,3.8,7.72,8.052,0,5.123-3.069,8.382-7.956,8.382Zm.213-3.377c2.054,0,3.257-1.982,3.257-4.862,0-2.741-1.227-4.818-3.3-4.818-2.054,0-3.306,2.077-3.306,4.841-.024,2.857,1.252,4.839,3.306,4.839Z" fill="#003971"/><path d="M219.56.81V13.342H207.055V.81h4.134V3.756h4.263V.81Zm6.692,14v8.092h-4.418V18.768H207.049V14.814ZM211.189,9.828h4.265V7.245h-4.265Zm17.274-4.651V9.518h-2.211v4.393h-4.418V.818h4.418V5.177Z" fill="#003971"/><path d="M243.7,10.371v3.281H230.3V5.591h9.2V4.118h-9.2V.811H243.7V8.846h-9.205v1.525ZM249.5,22.9h-19.2V14.789h19.2Zm-14.781-3.41h10.36V18.174h-10.36Zm16.97-14.263V9.543H249.5v4.548h-4.419V.818H249.5V5.229Z" fill="#003971"/><path d="M267.69,18.851v4.056H252.833V18.851H258.1V17.1h4.418v1.753ZM267.2,1.856V5.4H253.092V1.856h4.728V.2h4.6V1.856Zm-7.311,4.378h.722c3.773,0,6.073,2.068,6.073,4.987s-2.3,4.987-6.073,4.987h-.722c-3.773,0-6.074-2.067-6.074-4.987s2.3-4.987,6.074-4.987m.722,3.281h-.722a1.71,1.71,0,1,0,0,3.411h.722a1.708,1.708,0,1,0,0-3.411M273.246,22.9h-4.419V.824h4.419Z" fill="#003971"/><path d="M126.864,18.892V22.9h-19V15.313h4.371v3.579Z" fill="#003971"/><path d="M150.344,18.892V22.9h-19V15.313h4.371v3.579Z" fill="#003971"/><path d="M172.87,18.892V22.9h-19V15.313h4.371v3.579Z" fill="#003971"/><path d="M107.152,7.772V6.826c0-3.5,2.658-6.007,6.492-6.007s6.493,2.506,6.493,6.007v.946c0,3.5-2.659,6.007-6.493,6.007s-6.492-2.505-6.492-6.007m4.319-.946v.946a2.189,2.189,0,1,0,4.346,0V6.826a2.189,2.189,0,1,0-4.346,0m17.641-.562v4.269H126.86v6.314h-4.371V.819h4.371V6.264Z" fill="#003971"/><path d="M130.874,4.4V.821h12.013V4.4h-4.116a10.837,10.837,0,0,1-.307,2.2,20.045,20.045,0,0,0,5.6,5.01l-2.633,3.042a22.621,22.621,0,0,1-4.5-3.885,12.481,12.481,0,0,1-3.731,4.268L129.926,12.4a10.425,10.425,0,0,0,4.526-8ZM145.98,5.472V.82h4.37V17.077h-4.37V9.23H142.9V5.472Z" fill="#003971"/><path d="M157.482.819h4.371a23.393,23.393,0,0,1-.512,4.959,17.778,17.778,0,0,0,5.931,5.368l-2.607,3.2a19.626,19.626,0,0,1-4.908-4.09A12.317,12.317,0,0,1,155.82,14.7l-3.144-2.812c3.119-2.275,4.806-5.777,4.806-11.069m17.632,5.445v4.269H172.87v6.314H168.5V.819h4.371V6.264Z" fill="#003971"/><path d="M176.167,6.7c0-3.374,2.582-5.879,6.365-5.879,3.809,0,6.364,2.5,6.364,5.879s-2.555,5.88-6.364,5.88c-3.783,0-6.365-2.506-6.365-5.88m20.194,6.493V22.9H177.624V13.191h4.32v1.585h10.1V13.191ZM180.487,6.7a2.062,2.062,0,1,0,4.09,0,2.062,2.062,0,1,0-4.09,0m1.457,12.832h10.1V18.1h-10.1ZM196.361.819V12.271H191.99V8.615h-2.22V4.6h2.22V.819Z" fill="#003971"/></g></g></g></svg>