<svg xmlns="http://www.w3.org/2000/svg" width="198.106" height="43.906" viewBox="0 0 198.106 43.906"><g transform="translate(-1019.998 -844.757)"><path d="M176.609,342.774H22.5a21.953,21.953,0,1,1,0-43.906H176.609a21.953,21.953,0,1,1,0,43.906" transform="translate(1019.498 545.889)" fill="#002477"/><path d="M46.067,309.3h4.544v-2.27h3.7v2.27h4.825v2.857h-4.7c.536,2.73,2.578,4.441,5.336,5.716l-2.068,2.22a12.28,12.28,0,0,1-5.183-4.209,11.687,11.687,0,0,1-5.462,4.873l-2.093-2.246c2.935-1.251,5.028-3.291,5.513-6.354H46.067Zm18.457,11.966v8.6H51.53c-1.965,0-2.91-1.047-2.91-2.986v-5.613ZM60.9,327.135V324H52.245v2.194c0,.791.126.944.867.944Zm3.625-14.875h2.4V315.3h-2.4v4.872H60.9V307.694h3.625Z" transform="translate(1030.097 547.814)" fill="#fff"/><path d="M82.747,329.768H79.122v-6.046H75.37c-.945,2.755-2.732,4.21-5.361,4.21-4.162,0-6.178-3.624-6.178-10.233s2.016-10.255,6.178-10.255a5.284,5.284,0,0,1,5.131,3.6h3.983V307.6h3.625ZM70.009,325.15c1.684,0,2.6-2.7,2.6-7.451s-.919-7.475-2.6-7.475c-1.711,0-2.6,2.73-2.6,7.475s.893,7.451,2.6,7.451m6-4.49h3.115V314.1H75.931a22.173,22.173,0,0,1,.256,3.6,25.832,25.832,0,0,1-.18,2.961" transform="translate(1034.594 547.911)" fill="#fff"/><path d="M81.789,308.076H93.583v5.742c0,5.256-2.348,10.844-10.594,13.854l-1.864-2.5c6.791-2.45,8.809-6.788,8.809-10.462v-3.751H81.789Zm18.535,21.663H96.7V307.567h3.625Z" transform="translate(1038.716 547.941)" fill="#fff"/><path d="M105.126,307.339c3.4,0,5.565,1.735,6.229,4.287h3.37v-4.006h3.625v11.761h-3.625v-4.72h-3.268c-.536,2.731-2.783,4.618-6.331,4.618-4.136,0-6.459-2.551-6.459-5.945,0-3.446,2.323-6,6.459-6m0,9.312c1.812,0,2.961-1.326,2.961-3.316s-1.149-3.342-2.961-3.342c-1.838,0-2.987,1.351-2.987,3.342s1.149,3.316,2.987,3.316m.689,5.538h8.91v-1.94h3.625v9.544H105.1c-1.965,0-2.91-1.047-2.91-2.986v-6.558h3.625Zm8.91,4.873V324.92h-8.91v1.2c0,.791.128.944.868.944Z" transform="translate(1042.898 547.887)" fill="#fff"/></g></svg>