<svg xmlns="http://www.w3.org/2000/svg" xmlns:xlink="http://www.w3.org/1999/xlink" width="335" height="269" viewBox="0 0 335 269"><defs><clipPath id="a"><rect width="153" height="40" fill="none"/></clipPath><clipPath id="b"><rect width="208.789" height="39.171" fill="none"/></clipPath></defs><g transform="translate(-334 -1202.212)"><rect width="335" height="248" rx="10" transform="translate(334 1223.212)" fill="#03396e"/><rect width="335" height="242" rx="10" transform="translate(334 1219.212)" fill="#fff"/><rect width="219" height="7" transform="translate(377 1369)" fill="#d2e9ff"/><path d="M-73.64,24.14V22.8h-2.54a23.259,23.259,0,0,0,.44-5.1V16.4h-12.1v1.32h10.48a21.388,21.388,0,0,1-.48,5.08H-89.92v1.34h7.3v3.28H-88.2v1.32h10.92v4.72h1.64V27.42h-5.34V24.14ZM-70,17.72h-1.64v11.1h1.14a33.191,33.191,0,0,0,6.42-.56l-.16-1.42A31.187,31.187,0,0,1-70,27.4Zm11.12-2.18v7.3h-2.54v-6.9h-1.54V32.56h1.54V24.2h2.54v9.26h1.58V15.54Zm8.64,10.08a7.158,7.158,0,0,0,4.58-3.98,7.2,7.2,0,0,0,4.58,3.78l.76-1.26c-2.62-.78-4.5-2.68-4.54-4.96h4.14V17.88h-4.14V15.66H-46.5v2.22h-4.08V19.2h4.08c-.04,2.36-1.86,4.34-4.5,5.14Zm5.38-.6H-46.5v3.34c-1.82.06-3.56.06-5.04.06l.22,1.38a68.057,68.057,0,0,0,11.62-.78l-.14-1.22c-1.6.26-3.34.38-5.02.48Zm6.2-9.48V33.5h1.64V15.54Zm6.68,3.52h5.06V17.72H-33.6V29.06h1.18a29.456,29.456,0,0,0,6.64-.54l-.14-1.36a28.217,28.217,0,0,1-6.06.54Zm11.4-3.52v7.2h-2.54v-6.8h-1.54V32.58h1.54v-8.5h2.54v9.4H-19V15.54Zm9.54,3.12h5.02V27.6h-5.02Zm-1.6,10.26h8.22V17.34h-8.22ZM3.4,22.7H.44V15.56H-1.2V33.48H.44v-9.4H3.4Zm15.84-7.14H17.68V27.72h1.56Zm-5.1,6.56v4h1.54V15.86H14.14V20.8h-2.7A12,12,0,0,0,12,17.06H5.04V18.4h5.34a9.887,9.887,0,0,1-.4,2.06l-5.78.38.26,1.34,4.98-.52a10.161,10.161,0,0,1-5.22,4.32l.8,1.2a11.4,11.4,0,0,0,5.86-5.06Zm-.1,4.56H12.4v.56c0,2.4-2.94,4.38-6.1,4.88l.64,1.3c2.7-.48,5.18-1.88,6.28-3.9,1.1,2.02,3.62,3.42,6.3,3.9l.66-1.3c-3.18-.5-6.14-2.48-6.14-4.88Zm17.72-5.9H27.3V17.36h4.46Zm-6.1,0H23v1.26H36.04V20.78H33.4V17.36h2.7V16.1H22.94v1.26h2.72Zm-.62,9.58H35.58V26.42H23.38v1.22H33.96v1.54H23.44v4.1H36.12V32.04H25.04Zm-3.62-6.82v1.3H37.66v-1.3Zm19.6.2h4.8V17.52H39.38v1.34h4.86v3.58h-4.8v6.64h1.18a38.832,38.832,0,0,0,6.82-.52l-.14-1.34a34.917,34.917,0,0,1-6.28.48Zm7.86-1.76H46.66v1.36h2.22v9.2h1.54V15.98H48.88Zm3.62-6.44V33.48h1.58V15.54Zm16.78,0V33.52h1.64V15.54Zm-7.82,1.38c-2.66,0-4.56,2.44-4.56,6.26s1.9,6.26,4.56,6.26,4.56-2.44,4.56-6.26S64.12,16.92,61.46,16.92Zm0,1.48c1.74,0,2.98,1.88,2.98,4.78,0,2.92-1.24,4.8-2.98,4.8-1.76,0-3-1.88-3-4.8C58.46,20.28,59.7,18.4,61.46,18.4ZM89.1,24.56c-3.14-.6-6.54-3.32-6.54-6.38V16.8H80.84v1.38c0,3.06-3.38,5.76-6.52,6.38l.74,1.36a9.851,9.851,0,0,0,6.64-5.18,9.734,9.734,0,0,0,6.66,5.18ZM73.64,29.72v1.36H89.9V29.72Z" transform="translate(503 1371)" fill="#121212"/><path d="M-11.58-3.88a2.69,2.69,0,0,1-2.8-2.76,2.7,2.7,0,0,1,2.8-2.78A2.7,2.7,0,0,1-8.76-6.64,2.7,2.7,0,0,1-11.58-3.88Zm0-6.9a4.089,4.089,0,0,0-4.34,4.14,4.062,4.062,0,0,0,4.34,4.12A4.074,4.074,0,0,0-7.2-6.64,4.1,4.1,0,0,0-11.58-10.78Zm.8-5.46h-1.64v2.66h-4.52v1.32H-6.36v-1.32h-4.42ZM-.08-9.08H-3.02v-7.36H-4.66V1.48h1.64V-7.7H-.08Zm15.02-1.98H4.38V-15.8H2.74v6.08h12.2ZM4.26-4.2H2.62V1.04H15.04V-.3H4.26ZM.54-7.32V-6H16.8V-7.32Z" transform="translate(611 1371)" fill="#121212"/><path d="M-103.06-1.7H-92.9V-6.88h-12.82v2.04h10.18v1.2H-105.7V1.58h13.26V-.46h-10.62Zm9.86-8.52a23.115,23.115,0,0,0,.34-4.5v-1.26h-12.66v2.1h10.06a19.391,19.391,0,0,1-.38,3.66h-11.74v2.08H-90.9v-2.08Zm12.66,7.76V-5.2h5.58V-7.32H-85.64V-9.38h10.26v-6.14h-12.9v2.1h10.3v1.98H-88.26V-5.2h5.08v2.74h-7V-.3H-73.5V-2.46Zm14.66-7.4h-3.5v-1.96h3.5Zm2.58-1.02h3.28v3.56h2.64V-16.7h-2.64v3.72H-63.3v-2.96h-2.58v2.12h-3.5v-2.12H-72v8.16h8.7ZM-66.9-.54v-1.1h9.52V-6.6H-69.54v2.04H-60v1.02h-9.5V1.5h12.64V-.54Zm28.5-16.18v7.06h-1.5v-6.76h-2.46V-4.5C-45.08-5.92-46-8.98-46-12.2v-.5h2.76v-2.14h-8.34v2.14h3.02v.5c0,3.54-.88,6.8-3.62,8.4l1.58,2a7.956,7.956,0,0,0,3.4-4.88,7.242,7.242,0,0,0,3.36,4.2l1.48-1.98V.88h2.46V-7.5h1.5V1.7h2.5V-16.72ZM-24-9.36a39.146,39.146,0,0,1-7.06.72v-6.84H-33.7v9.04h1.58a41.513,41.513,0,0,0,8.44-.8Zm-5.16,4.68H-31.8V1.4h12.46V-.7h-9.82Zm9.22-6.86V-16.7h-2.64V-3.46h2.64V-9.32h2.44v-2.22Zm5.62.7a2.283,2.283,0,0,1,2.42-2.4,2.293,2.293,0,0,1,2.42,2.4,2.293,2.293,0,0,1-2.42,2.4A2.283,2.283,0,0,1-14.32-10.84Zm7.4,0a4.722,4.722,0,0,0-4.98-4.68,4.728,4.728,0,0,0-5,4.68,4.74,4.74,0,0,0,5,4.68A4.734,4.734,0,0,0-6.92-10.84Zm-4.86,6.16h-2.64V1.4H-1.88V-.7h-9.9Zm9.24-6.74V-16.7H-5.18V-3.3h2.64V-9.26H-.1v-2.16Zm12.78-.52V-9.8h2.88v6.54h2.64V-16.7H13.12v4.76ZM11.46-7.7A5.669,5.669,0,0,1,7.3-13.12v-.24h3.58v-2.1H.98v2.1H4.6v.26A5.92,5.92,0,0,1,.26-7.38L1.6-5.28a7.239,7.239,0,0,0,4.4-4,6.868,6.868,0,0,0,4.18,3.64Zm-5.2,7V-4.38H3.62V1.4H16.18V-.7ZM28.78-7.96a5.707,5.707,0,0,1-4.22-5.62v-2H21.88v1.98a6.028,6.028,0,0,1-4.4,5.98l1.4,2.06a7.166,7.166,0,0,0,4.38-3.98A6.884,6.884,0,0,0,27.42-5.9ZM23.04-4.5H20.4V1.4H32.9V-.7H23.04Zm9.22-6.86V-16.7H29.62V-3.22h2.64V-9.18H34.7v-2.18ZM47.94-.6H40.98V-2.24h6.96Zm0-3.64H40.98V-6H38.36V1.5h12.2V-6H47.94Zm-7.7-5.1a2.132,2.132,0,0,1-2.32-2.2,2.132,2.132,0,0,1,2.32-2.2,2.138,2.138,0,0,1,2.34,2.2A2.138,2.138,0,0,1,40.24-9.34Zm7.68-7.36v4.06H44.98a4.687,4.687,0,0,0-4.74-3.3c-2.76,0-4.84,1.84-4.84,4.4s2.08,4.4,4.84,4.4A4.665,4.665,0,0,0,45-10.5h2.92v3.7h2.64v-9.9Zm12.96,2.2c2.68,0,3.94.38,3.94,1.2,0,.86-1.26,1.22-3.94,1.22-2.66,0-3.92-.36-3.92-1.22C56.96-14.12,58.22-14.5,60.88-14.5Zm0,4.34c4.22,0,6.68-1.1,6.68-3.14,0-2.02-2.46-3.14-6.68-3.14-4.2,0-6.66,1.12-6.66,3.14C54.22-11.26,56.68-10.16,60.88-10.16ZM57.1-1.44H67.18V-6.18H54.46v1.94H64.58v.98H54.48V1.58H67.66V-.4H57.1ZM52.56-9.28v2.06H69.2V-9.28ZM86.26-3.1H88.9V-16.7H86.26v3.92H82.88v2.14h3.38ZM84.5-7.82a5.89,5.89,0,0,1-4.12-5.76v-2H77.7v1.98a6.215,6.215,0,0,1-4.32,6.2l1.38,2.06A7.239,7.239,0,0,0,79.1-9.52a6.847,6.847,0,0,0,4,3.74ZM79.38-.7V-4.46H76.74V1.4H89.3V-.7Zm21.16-1.82V-6.36h5.26V-8.48H95.5v-4.84h10.16v-2.12H92.84v9.08H97.9v3.84h-7V-.36h16.68V-2.52Z" transform="translate(485 1371)" fill="#0060be"/><g transform="translate(426 1202.212)"><g transform="translate(0 0)" clip-path="url(#a)"><path d="M144.629,38.488H9.33A6.882,6.882,0,0,1,2.3,31.775V6.714A6.883,6.883,0,0,1,9.33,0h135.3a6.882,6.882,0,0,1,7.026,6.712V31.775a6.882,6.882,0,0,1-7.026,6.714M9.33,5.289A1.46,1.46,0,0,0,7.84,6.714V31.775A1.46,1.46,0,0,0,9.33,33.2h135.3a1.46,1.46,0,0,0,1.491-1.425V6.714a1.46,1.46,0,0,0-1.491-1.425Z" transform="translate(-0.721 0)" fill="#92a1b7"/><path d="M18.721,50.166H8.61A8.434,8.434,0,0,1,0,41.942V32.957H8.7v8.9H18.721Z" transform="translate(0 -10.167)" fill="#545a63"/><path d="M195.426,50.167h10.108a8.435,8.435,0,0,0,8.611-8.225V32.957h-8.7v8.9H195.426Z" transform="translate(-61.145 -10.167)" fill="#545a63"/></g></g><g transform="translate(398 1280)"><g transform="translate(0 0)" clip-path="url(#b)"><path d="M11.727,0A11.727,11.727,0,1,0,23.454,11.727,11.74,11.74,0,0,0,11.727,0m0,17.024a5.3,5.3,0,1,1,5.3-5.3,5.3,5.3,0,0,1-5.3,5.3" transform="translate(0 0)" fill="#001c2f"/><path d="M47.069,8.779H42.787V.72h-6.43V23.268h6.43V15.209h4.282Z" transform="translate(-8.623 -0.171)" fill="#001c2f"/><rect width="24.089" height="6.43" transform="translate(41.627 0.612)" fill="#b20021"/><path d="M74.745,23.784l-8.416-8.416-8.416,8.416-4.547-4.546L66.328,6.275,79.291,19.238Z" transform="translate(-12.657 -1.488)" fill="#b20021"/><path d="M66.159,47.356H1.863V34.508h6.43v6.417H59.729V34.508h6.43Z" transform="translate(-0.442 -8.184)" fill="#001c2f"/><rect width="3.247" height="12.163" transform="translate(82.283 22.939)" fill="#b20021"/><path d="M119.469,31.758l-4.249,4.248,4.249,4.251-2.3,2.295-6.545-6.546,6.545-6.544Z" transform="translate(-26.238 -6.988)" fill="#b20021"/><path d="M135.051,33.478a5.057,5.057,0,0,0-2.851-1c-.889,0-1.333.427-1.333,1.012,0,.534.391.871,1.545,1.014l.639.088c2.648.373,4,1.545,4,3.838,0,2.238-1.7,3.871-4.939,3.871a7.887,7.887,0,0,1-5.022-1.857l1.854-2.165a4.925,4.925,0,0,0,3.2,1.323c1.119,0,1.706-.462,1.706-1.137,0-.516-.338-.852-1.527-1.012l-.64-.088c-2.612-.375-4.032-1.547-4.032-3.8s1.758-3.765,4.494-3.765a7.512,7.512,0,0,1,4.472,1.437Z" transform="translate(-30.142 -7.068)" fill="#003971"/><path d="M148.269,30.079H145.04l-4.311,12.16h3.263l.646-2.124h3.926l.642,2.124h3.281Zm-2.832,7.444,1.2-3.855,1.147,3.855Z" transform="translate(-33.377 -7.134)" fill="#003971"/><path d="M199.085,42.229h3.127V37.477l3.755-7.408H202.8l-2.079,4.3h-.054l-2.121-4.3h-3.224l3.764,7.408Z" transform="translate(-46.324 -7.132)" fill="#003971"/><path d="M173.549,37.512h4.263V34.918h-4.263v-2.2h5.134V30.069h-8.261v12.16h8.261V39.582h-5.134Z" transform="translate(-40.419 -7.131)" fill="#003971"/><path d="M160.694,42.229h-3.127V30.069h8.261v2.646h-5.135v2.2h4.264v2.592h-4.264Z" transform="translate(-37.37 -7.132)" fill="#003971"/><path d="M192.021,30.069h-9.628v2.648h3.251v9.511h3.126V32.717h3.251Z" transform="translate(-43.258 -7.132)" fill="#003971"/><path d="M224.219,37.326H219.86v2.234h4.881v2.665H216.6V30.086h7.889v2.665h-4.63V34.7h4.359Z" transform="translate(-51.371 -7.135)" fill="#003971"/><path d="M235.623,42.223l-.882-1.982c-.36-.773-.63-1.4-.937-2.105h-.036c-.217.7-.5,1.333-.793,2.089l-.81,2h-3.692l3.421-6.142-3.295-6h3.727l.829,1.926c.305.722.54,1.316.809,2.018H234c.27-.792.468-1.333.72-2l.738-1.946h3.71l-3.3,5.924,3.512,6.214Z" transform="translate(-54.187 -7.135)" fill="#003971"/><path d="M244.525,30.236a25.166,25.166,0,0,1,4-.269,6.251,6.251,0,0,1,3.855.973,3.6,3.6,0,0,1,1.387,2.916,3.94,3.94,0,0,1-1.189,2.99,5.975,5.975,0,0,1-4.034,1.262c-.324,0-.594-.037-.792-.037V42.2h-3.224Zm3.224,5.35a7.194,7.194,0,0,0,.738.036c1.261,0,2.054-.648,2.054-1.693,0-.9-.594-1.513-1.837-1.513a5.061,5.061,0,0,0-.954.071Z" transform="translate(-57.994 -7.107)" fill="#003971"/><path d="M263.91,42.36c-3.763,0-5.835-2.828-5.835-6.2,0-3.53,2.305-6.341,6.033-6.341,3.908,0,5.889,2.9,5.889,6.142,0,3.908-2.341,6.394-6.069,6.394Zm.163-2.576c1.567,0,2.484-1.512,2.484-3.709,0-2.091-.936-3.675-2.52-3.675-1.567,0-2.522,1.584-2.522,3.693-.018,2.179.955,3.691,2.522,3.691Z" transform="translate(-61.208 -7.073)" fill="#003971"/><path d="M216.593.81v9.56h-9.539V.81h3.154V3.057h3.252V.81Zm5.1,10.683v6.173h-3.37V14.509H207.049V11.493Zm-11.491-3.8h3.253V5.719h-3.253Zm13.177-3.548V7.453H221.7V10.8h-3.37V.816h3.37V4.141Z" transform="translate(-49.106 -0.192)" fill="#003971"/><path d="M240.52,8.1v2.5H230.3V4.457h7.021V3.334H230.3V.811H240.52V6.94H233.5V8.1Zm4.431,9.559H230.307V11.474h14.644Zm-11.275-2.6h7.9V14.056h-7.9ZM246.62,4.181V7.472h-1.67v3.469H241.58V.816h3.371V4.181Z" transform="translate(-54.622 -0.192)" fill="#003971"/><path d="M264.166,14.427v3.094H252.833V14.427h4.021V13.09h3.37v1.337Zm-.375-12.964v2.7H253.031v-2.7h3.607V.2h3.508V1.463ZM258.215,4.8h.551c2.878,0,4.633,1.578,4.633,3.8s-1.755,3.8-4.633,3.8h-.551c-2.878,0-4.633-1.577-4.633-3.8s1.755-3.8,4.633-3.8m.551,2.5h-.551a1.3,1.3,0,1,0,0,2.6h.551a1.3,1.3,0,1,0,0-2.6M268.4,17.517h-3.371V.675H268.4Z" transform="translate(-59.965 -0.047)" fill="#003971"/><path d="M122.358,18.043V21.1h-14.5V15.313H111.2v2.73Z" transform="translate(-25.582 -3.632)" fill="#003971"/><path d="M145.837,18.043V21.1H131.343V15.313h3.334v2.73Z" transform="translate(-31.151 -3.632)" fill="#003971"/><path d="M168.364,18.043V21.1H153.869V15.313H157.2v2.73Z" transform="translate(-36.493 -3.632)" fill="#003971"/><path d="M107.152,6.123V5.4c0-2.671,2.028-4.582,4.952-4.582s4.953,1.912,4.953,4.582v.722c0,2.671-2.028,4.582-4.953,4.582s-4.952-1.911-4.952-4.582m3.295-.722v.722a1.67,1.67,0,1,0,3.315,0V5.4a1.67,1.67,0,1,0-3.315,0M123.9,4.973V8.229h-1.718v4.817h-3.334V.819h3.334V4.973Z" transform="translate(-25.413 -0.194)" fill="#003971"/><path d="M130.649,3.55V.821h9.164V3.55h-3.14a8.266,8.266,0,0,1-.234,1.677,15.291,15.291,0,0,0,4.271,3.822L138.7,11.369a17.257,17.257,0,0,1-3.433-2.964,9.521,9.521,0,0,1-2.846,3.256l-2.5-2.009a7.952,7.952,0,0,0,3.453-6.1Zm11.523.819V.82h3.334v12.4h-3.334V7.235h-2.348V4.369Z" transform="translate(-30.815 -0.195)" fill="#003971"/><path d="M156.342.819h3.334a17.845,17.845,0,0,1-.391,3.783A13.561,13.561,0,0,0,163.81,8.7l-1.989,2.438a14.971,14.971,0,0,1-3.744-3.12,9.4,9.4,0,0,1-3,3.393l-2.4-2.145c2.379-1.735,3.666-4.407,3.666-8.444m13.45,4.154V8.229h-1.712v4.817h-3.334V.819h3.334V4.973Z" transform="translate(-36.21 -0.194)" fill="#003971"/><path d="M176.167,5.3c0-2.574,1.97-4.485,4.855-4.485,2.906,0,4.855,1.911,4.855,4.485s-1.949,4.485-4.855,4.485c-2.886,0-4.855-1.912-4.855-4.485m15.4,4.953v7.409H177.278V10.257h3.3v1.209h7.7V10.257ZM179.462,5.3a1.573,1.573,0,1,0,3.12,0,1.573,1.573,0,1,0-3.12,0m1.111,9.789h7.7V14h-7.7Zm11-14.273V9.555h-3.334V6.766h-1.693V3.7h1.693V.819Z" transform="translate(-41.782 -0.194)" fill="#003971"/></g></g></g></svg>