<svg xmlns="http://www.w3.org/2000/svg" width="198.106" height="43.906" viewBox="0 0 198.106 43.906"><g transform="translate(-372.408 -841.524)"><path d="M176.609,43.907H22.5A21.953,21.953,0,1,1,22.5,0H176.609a21.953,21.953,0,1,1,0,43.906" transform="translate(371.908 841.523)" fill="#002477"/><path d="M24.933,20.324h8.194V18.437c-4.136-.332-6.867-1.888-6.867-5.077,0-3.624,3.574-5.155,8.731-5.155s8.731,1.531,8.731,5.155c0,3.189-2.732,4.745-6.816,5.077v1.887H45.1v2.859H24.933ZM43.44,30.863H29.911c-1.967,0-2.911-1.047-2.911-2.985V24.23h3.754V27.11c0,.792.128.945.868.945H43.44Zm-8.449-15c2.987,0,4.978-.662,4.978-2.5,0-1.812-1.991-2.475-4.978-2.475s-4.952.664-4.952,2.475c0,1.837,1.965,2.5,4.952,2.5" transform="translate(377.732 843.458)" fill="#fff"/><path d="M61.046,16.456h2.4v3.037h-2.4v11.38H57.421V27.862A5.569,5.569,0,0,1,53.8,28.908h-7.07c-2.222,0-3.549-1.122-3.549-3.648V17.2h8.041v-5.1H43.176V9.21H54.944V20.054H46.928v4.9c0,.944.281,1.122,1.022,1.122h6.178c2.5,0,3.293-1.2,3.293-2.4V8.7h3.625Z" transform="translate(382.081 843.575)" fill="#fff"/><path d="M66.964,8.473A6.336,6.336,0,0,1,73.6,15.107a6.638,6.638,0,0,1-13.275,0,6.335,6.335,0,0,1,6.638-6.634M79.78,30.8H66.555c-1.965,0-2.91-1.047-2.91-2.985V23.042h3.7v4.007c0,.791.128.944.868.944H79.78ZM66.964,19.062c1.838,0,3.115-1.709,3.115-3.955s-1.277-3.955-3.115-3.955c-1.864,0-3.165,1.709-3.165,3.955s1.3,3.955,3.165,3.955m12.713,5.665H76.052V8.755h3.625Z" transform="translate(386.169 843.522)" fill="#fff"/><path d="M88.131,12.145h5.131V9.083h3.626V21.075H87.313c-2.2,0-2.807-.918-2.807-2.934V9.083h3.625ZM86.7,22.988h16.057v7.885h-3.7V25.847H86.7Zm6.56-4.643V14.876H88.131v2.5c0,.792.154.97.894.97Zm9.5-5.026h2.4v3.037h-2.4v5.563H99.134V8.7h3.625Z" transform="translate(391.933 843.575)" fill="#fff"/><path d="M102.439,9.083h12.254v7.194h-8.5v.971c0,.943.128,1.02.869,1.02h6.815c2.451,0,2.936-1.072,2.936-2.4V8.7h3.625v4.261h2.4V16h-2.4v5.613h-3.625V20.08c-.562.688-2.068.918-3.165.918H105.6c-2.093,0-3.165-.866-3.165-3.393V13.547h8.5V11.813h-8.5ZM104.533,22.5h15.9v8.368H107.443c-1.967,0-2.91-1.047-2.91-2.986Zm12.278,5.638V25.234h-8.654V27.2c0,.791.128.944.868.944Z" transform="translate(396.208 843.575)" fill="#fff"/><path d="M126.825,13.625c4.084,0,6.383,2.118,6.383,5,0,2.4-1.609,4.286-4.494,4.848v2.3h3.575c2.5,0,3.293-1.2,3.293-2.4V8.8h3.625V30.975h-3.625V27.581a5.569,5.569,0,0,1-3.626,1.047H119.548V25.77h5.49V23.5c-2.962-.535-4.519-2.424-4.519-4.873,0-2.883,2.2-5,6.306-5m-6.97-3.291h5.081V8.267h3.777v2.066h4.927v2.756H119.855Zm6.97,10.819c1.838,0,2.91-1.072,2.91-2.526,0-1.429-1.072-2.526-2.91-2.526a2.54,2.54,0,0,0-2.859,2.526c0,1.455,1.022,2.526,2.859,2.526" transform="translate(400.285 843.473)" fill="#fff"/></g></svg>