<svg xmlns="http://www.w3.org/2000/svg" width="198.106" height="43.906" viewBox="0 0 198.106 43.906"><g transform="translate(-1207.256 -1102.59)"><path d="M176.609,559.74H22.5a21.953,21.953,0,1,1,0-43.906H176.609a21.953,21.953,0,1,1,0,43.906" transform="translate(1206.756 586.756)" fill="#002477"/><path d="M45.752,535.559H65.92v2.856H58.21v3.879H54.483v-3.879H45.752ZM64.261,524.74v9.211H50.117c-1.991,0-2.731-.944-2.731-2.808v-6.4Zm0,21.79H50.653c-1.965,0-2.91-1.047-2.91-2.985v-3.777H51.5v3.01c0,.791.128.944.867.944h11.9Zm-3.778-15.258v-3.852H51.165V530.4c0,.791.051.868.816.868Z" transform="translate(1217.542 588.857)" fill="#fff"/><path d="M82.857,546.735H79.232v-3.394a5.567,5.567,0,0,1-3.625,1.047H63.583v-2.909H75.939c2.5,0,3.293-1.2,3.293-2.4V524.563h3.625ZM70.808,524.41c4.11,0,6.612,2.883,6.612,7.347s-2.5,7.349-6.612,7.349c-4.084,0-6.587-2.883-6.587-7.349s2.5-7.347,6.587-7.347m0,11.992c1.838,0,3.064-1.761,3.064-4.645s-1.226-4.643-3.064-4.643c-1.813,0-3.064,1.76-3.064,4.643s1.251,4.645,3.064,4.645" transform="translate(1221.793 588.779)" fill="#fff"/><path d="M92.939,544.052a17.782,17.782,0,0,1-5.259-6.328,14.605,14.605,0,0,1-5.31,6.788l-2.4-2.042a13.708,13.708,0,0,0,5.667-11.38v-6.226h3.728v6.328c0,4.033,2.655,8.217,5.974,10.744Zm7.071-11.763h2.4v3.037h-2.4v11.38H96.386V524.534h3.625Z" transform="translate(1225.699 588.808)" fill="#fff"/><path d="M98.708,525.909h5.08v-2.016h3.675v2.016h4.979v2.73H98.708Zm6.919,3.266c4.109,0,6.355,1.888,6.355,4.542s-2.246,4.568-6.355,4.568c-4.136,0-6.383-1.914-6.383-4.568s2.246-4.542,6.383-4.542m3.931,9.544c5.055,0,8.067,1.453,8.067,4.387s-3.012,4.389-8.067,4.389c-5.08,0-8.067-1.455-8.067-4.389s2.987-4.387,8.067-4.387m-3.931-2.833c1.889,0,2.858-.868,2.858-2.169,0-1.277-.97-2.169-2.858-2.169s-2.911.892-2.911,2.169c0,1.3,1.022,2.169,2.911,2.169m3.931,9.11c2.91,0,4.467-.588,4.467-1.89s-1.557-1.861-4.467-1.861c-2.884,0-4.442.561-4.442,1.861s1.558,1.89,4.442,1.89m7.939-14.9h2.4v3.037h-2.4v5.486h-3.625V524.685H117.5Z" transform="translate(1230.166 588.657)" fill="#fff"/></g></svg>