<svg xmlns="http://www.w3.org/2000/svg" xmlns:xlink="http://www.w3.org/1999/xlink" width="314" height="357.205" viewBox="0 0 314 357.205"><defs><clipPath id="a"><rect width="190.571" height="11.168" fill="none"/></clipPath></defs><g transform="translate(-30 -728)"><g transform="translate(30 728)"><path d="M88.977,22.059H11.551A11.029,11.029,0,1,1,11.551,0H88.977a11.029,11.029,0,1,1,0,22.058" transform="translate(-0.5 -0.001)" fill="#002477"/><path d="M24.933,14.294H29.05v-.948c-2.078-.167-3.45-.949-3.45-2.551,0-1.821,1.8-2.59,4.386-2.59s4.386.769,4.386,2.59c0,1.6-1.372,2.384-3.424,2.551v.948h4.117V15.73H24.933Zm9.3,5.294h-6.8a1.315,1.315,0,0,1-1.463-1.5V16.256h1.886V17.7c0,.4.064.475.436.475h5.938ZM29.986,12.05c1.5,0,2.5-.333,2.5-1.255s-1-1.244-2.5-1.244S27.5,9.885,27.5,10.795s.987,1.255,2.488,1.255" transform="translate(-9.732 -3.111)" fill="#fff"/><path d="M52.154,12.6h1.206v1.526H52.154V19.84H50.333V18.328a2.8,2.8,0,0,1-1.822.525H44.959a1.608,1.608,0,0,1-1.783-1.833V12.969h4.04V10.405h-4.04V8.957h5.912V14.4H45.061v2.461c0,.474.141.564.513.564h3.1c1.257,0,1.654-.6,1.654-1.2V8.7h1.821Z" transform="translate(-16.625 -3.299)" fill="#fff"/><path d="M63.661,8.473A3.183,3.183,0,0,1,67,11.806a3.335,3.335,0,0,1-6.669,0,3.183,3.183,0,0,1,3.335-3.333M70.1,19.69H63.455a1.314,1.314,0,0,1-1.462-1.5v-2.4h1.86v2.013c0,.4.064.474.436.474H70.1Zm-6.439-5.9c.923,0,1.565-.859,1.565-1.987s-.641-1.987-1.565-1.987-1.59.859-1.59,1.987.654,1.987,1.59,1.987m6.387,2.846H68.227V8.615h1.821Z" transform="translate(-23.105 -3.213)" fill="#fff"/><path d="M86.327,10.431H88.9V8.893h1.822v6.025h-4.81c-1.1,0-1.41-.461-1.41-1.474V8.893h1.821Zm-.718,5.447h8.067V19.84h-1.86V17.315H85.609Zm3.3-2.333V11.8H86.327v1.255c0,.4.077.487.449.487Zm4.771-2.525h1.206v1.526H93.676v2.795H91.855V8.7h1.821Z" transform="translate(-32.241 -3.299)" fill="#fff"/><path d="M102.439,8.892H108.6v3.614h-4.271v.488c0,.474.064.512.437.512h3.424c1.231,0,1.475-.538,1.475-1.205V8.7h1.821v2.141h1.206v1.526h-1.206v2.82H109.66v-.769a2.31,2.31,0,0,1-1.59.461h-4.04c-1.051,0-1.59-.435-1.59-1.7V11.135h4.271v-.871h-4.271Zm1.052,6.743h7.99v4.2h-6.528a1.314,1.314,0,0,1-1.462-1.5Zm6.169,2.833V17.007h-4.348v.987c0,.4.064.474.436.474Z" transform="translate(-39.017 -3.299)" fill="#fff"/><path d="M123.2,10.959c2.052,0,3.207,1.064,3.207,2.513a2.485,2.485,0,0,1-2.258,2.436V17.06h1.8c1.257,0,1.654-.6,1.654-1.2V8.536h1.821V19.676H127.6V17.971a2.8,2.8,0,0,1-1.822.526h-6.233V17.06h2.758V15.92a2.449,2.449,0,0,1-2.27-2.448c0-1.449,1.1-2.513,3.168-2.513m-3.5-1.653h2.553V8.267h1.9V9.305h2.476V10.69H119.7Zm3.5,5.435a1.282,1.282,0,1,0,0-2.538,1.279,1.279,0,1,0,0,2.538" transform="translate(-45.482 -3.135)" fill="#fff"/></g><path d="M18.558,49.091H20.25V51.86a2.544,2.544,0,0,1,1.488-.575,2.221,2.221,0,0,1,2.411,2.506v4.8H22.47V54.114c0-.995-.264-1.4-.972-1.4a1.357,1.357,0,0,0-1.248,1.4v4.473H18.558Z" transform="translate(19.946 710.5)" fill="#070203"/><path d="M36.674,52.681H34.838v3.992c0,.587.132.756.456.756a1.921,1.921,0,0,0,1.188-.4l.384,1.2a3.72,3.72,0,0,1-2.112.575c-1.152,0-1.608-.9-1.608-1.966V52.681H31.754V51.362h1.392v-2.4h1.692v2.4h1.836Z" transform="translate(12.963 710.568)" fill="#070203"/><path d="M47.781,52.681H45.945v3.992c0,.587.132.756.456.756a1.921,1.921,0,0,0,1.188-.4l.384,1.2a3.72,3.72,0,0,1-2.112.575c-1.152,0-1.608-.9-1.608-1.966V52.681H42.861V51.362h1.392v-2.4h1.692v2.4h1.836Z" transform="translate(7.087 710.568)" fill="#070203"/><path d="M55.268,53.8H56.96v.312a2.419,2.419,0,0,1,1.4-.539c1.848-.1,2.856,1.391,2.856,3.549,0,2.086-1.056,3.633-2.94,3.549a2.525,2.525,0,0,1-1.32-.408v2.482H55.268Zm1.668,3.249c0,1.451.384,2.29,1.368,2.29.9,0,1.26-.875,1.26-2.254s-.384-2.206-1.332-2.206c-.792,0-1.3.839-1.3,2.17" transform="translate(0.522 708.125)" fill="#070203"/><path d="M71.839,61.083a4.433,4.433,0,0,1-2.688-1.439l.9-1.223A3.226,3.226,0,0,0,71.935,59.7c.912.133,1.284-.263,1.188-.863-.108-.7-1.1-.983-1.836-1.175a2.29,2.29,0,0,1-1.992-2.35,2.337,2.337,0,0,1,2.759-2.05,3.5,3.5,0,0,1,2.556,1.487L73.519,55.8A2.227,2.227,0,0,0,72.091,54.7c-.54-.1-1.008.084-1.092.587-.1.54.252.863.864,1.019,1.128.3,2.808.887,2.844,2.506s-1.224,2.458-2.868,2.266" transform="translate(-6.823 708.293)" fill="#070203"/><path d="M84.35,54.065H82.526v-1.81H84.35Zm0,4.736H82.526v-1.81H84.35Z" transform="translate(-13.9 708.823)" fill="#070203"/><path d="M87.824,58.638l3.875-9.9h1.536l-3.84,9.9Z" transform="translate(-16.703 710.69)" fill="#070203"/><path d="M100.154,58.638l3.875-9.9h1.536l-3.84,9.9Z" transform="translate(-23.227 710.69)" fill="#070203"/><path d="M112.677,51.635h1.7v3.825a7.538,7.538,0,0,1-1.98,4.784l-1.14-.611a6.677,6.677,0,0,0,1.416-4.184Zm1.812-.863h-1.956V48.913h1.956Z" transform="translate(-29.104 710.595)" fill="#070203"/><path d="M126.411,57.329c0,2.026-.78,3.837-2.988,3.837s-2.94-1.81-2.94-3.837c0-2,.744-3.825,2.94-3.825s2.988,1.822,2.988,3.825m-2.988-2.506c-1.02,0-1.308,1.211-1.308,2.506,0,1.331.288,2.506,1.308,2.506s1.344-1.175,1.344-2.506c0-1.295-.312-2.506-1.344-2.506" transform="translate(-33.983 708.161)" fill="#070203"/><path d="M136.593,58.132l-.084.456h-1.428v-9.5h1.692v2.829a2.42,2.42,0,0,1,1.416-.527c1.884-.084,2.916,1.295,2.916,3.681s-1.128,3.753-2.976,3.705a2.214,2.214,0,0,1-1.536-.648m.144-3.034c0,1.523.528,2.326,1.356,2.326.948,0,1.356-.7,1.356-2.338s-.4-2.338-1.32-2.338c-.876,0-1.392.767-1.392,2.35" transform="translate(-41.707 710.5)" fill="#070203"/><path d="M153.423,52.346h-1.836v5.767h-1.692V52.346h-1.44V51.039h1.44v-.995a1.667,1.667,0,0,1,1.812-1.847,4.218,4.218,0,0,1,1.9.444l-.432,1.139a2.627,2.627,0,0,0-1.164-.228c-.276.036-.42.18-.42.8v.683h1.836Z" transform="translate(-48.783 710.975)" fill="#070203"/><path d="M163.38,55.811c-.024-.959-.468-1.1-.96-1.1A3.3,3.3,0,0,0,160.3,55.8l-.876-1.055a4.5,4.5,0,0,1,3.083-1.367,2.232,2.232,0,0,1,2.508,2.314V60.86H163.56l-.072-.324a2.865,2.865,0,0,1-1.716.54c-1.188,0-2.388-.528-2.388-2.146,0-1.679,1.548-2.854,4-3.118m-1.536,3.981a1.366,1.366,0,0,0,1.548-1.558V57.154c-1.1.108-2.448.683-2.448,1.8a.816.816,0,0,0,.9.839" transform="translate(-54.565 708.228)" fill="#070203"/><path d="M176.192,50.771h-1.956V48.913h1.956Zm-.12,7.721h-1.716V51.67h1.716Z" transform="translate(-62.424 710.595)" fill="#070203"/><path d="M181.446,53.881h1.7v.743a2.783,2.783,0,0,1,2.568-.875V55.1a2.214,2.214,0,0,0-2.556,2.026v3.909h-1.716Z" transform="translate(-66.239 708.049)" fill="#070203"/><rect width="1.728" height="1.775" transform="translate(119.826 767.804)" fill="#070203"/><path d="M199.808,50.771h-1.956V48.913h1.956Zm-.12,7.721h-1.716V51.67h1.716Z" transform="translate(-74.919 710.595)" fill="#070203"/><path d="M204.933,53.9h1.692v.444a2.7,2.7,0,0,1,1.4-.575,2.18,2.18,0,0,1,2.5,2.338v4.952h-1.68v-4.52c0-.983-.336-1.426-1.08-1.354a1.389,1.389,0,0,0-1.14,1.451v4.424h-1.692Z" transform="translate(-78.666 708.025)" fill="#070203"/><path d="M224.853,59.834a3.58,3.58,0,0,1-2.652,1.331c-1.788.072-3.384-1.067-3.384-3.8,0-2.626,1.488-3.837,3.276-3.861a3.366,3.366,0,0,1,2.616,1.127l-.816,1.139a2.192,2.192,0,0,0-1.728-.852c-.876.024-1.692.911-1.692,2.554,0,1.51.708,2.338,1.8,2.314a2.3,2.3,0,0,0,1.824-1.019Z" transform="translate(-86.012 708.162)" fill="#070203"/><path d="M233.338,53.881h1.7v.743a2.783,2.783,0,0,1,2.568-.875V55.1a2.214,2.214,0,0,0-2.556,2.026v3.909h-1.716Z" transform="translate(-93.695 708.049)" fill="#070203"/><path d="M244.139,54.066h1.7V58.6c0,1.032.264,1.535,1,1.439a1.351,1.351,0,0,0,1.056-1.5V54.066h1.692v7.158h-1.56v-.455a2.181,2.181,0,0,1-1.512.623,2.269,2.269,0,0,1-2.376-2.565Z" transform="translate(-99.41 707.863)" fill="#070203"/><path d="M260.565,50.771h-1.956V48.913h1.956Zm-.12,7.721h-1.716V51.67h1.716Z" transform="translate(-107.066 710.595)" fill="#070203"/><path d="M269.311,52.681h-1.836v3.992c0,.587.132.756.456.756a1.921,1.921,0,0,0,1.188-.4l.384,1.2a3.72,3.72,0,0,1-2.112.575c-1.152,0-1.608-.9-1.608-1.966V52.681h-1.392V51.362h1.392v-2.4h1.692v2.4h1.836Z" transform="translate(-110.125 710.568)" fill="#070203"/><rect width="1.728" height="1.775" transform="translate(159.952 767.804)" fill="#070203"/><path d="M288.209,59.834a3.581,3.581,0,0,1-2.652,1.331c-1.788.072-3.384-1.067-3.384-3.8,0-2.626,1.488-3.837,3.276-3.861a3.366,3.366,0,0,1,2.616,1.127l-.816,1.139a2.192,2.192,0,0,0-1.728-.852c-.876.024-1.692.911-1.692,2.554,0,1.51.708,2.338,1.8,2.314a2.3,2.3,0,0,0,1.824-1.019Z" transform="translate(-119.534 708.162)" fill="#070203"/><path d="M301.908,57.329c0,2.026-.779,3.837-2.987,3.837s-2.94-1.81-2.94-3.837c0-2,.744-3.825,2.94-3.825s2.987,1.822,2.987,3.825m-2.987-2.506c-1.02,0-1.308,1.211-1.308,2.506,0,1.331.287,2.506,1.308,2.506s1.344-1.175,1.344-2.506c0-1.295-.312-2.506-1.344-2.506" transform="translate(-126.839 708.161)" fill="#070203"/><path d="M313.581,56.339c0-.935-.3-1.139-.624-1.139-.384,0-.852.468-.852,1.331v4.544h-1.68V53.917h1.668V54.3a1.868,1.868,0,0,1,1.284-.5,1.551,1.551,0,0,1,1.344.7,2.428,2.428,0,0,1,1.68-.707,1.923,1.923,0,0,1,1.956,2.122v5.168h-1.632V56.363c0-.911-.264-1.163-.6-1.163-.432,0-.876.456-.876,1.3v4.58h-1.668Z" transform="translate(-134.481 708.012)" fill="#070203"/><path d="M328.792,58.638l3.875-9.9H334.2l-3.84,9.9Z" transform="translate(-144.2 710.69)" fill="#070203"/><path d="M343.142,60.48l-2.352-6.414h1.824l1.44,4.424,1.548-4.424h1.764l-2.976,7.685a2.013,2.013,0,0,1-2.04,1.259H341.5V61.667h.444c.6,0,.816.024.984-.515Z" transform="translate(-150.548 707.863)" fill="#070203"/><path d="M357.644,61.083a4.433,4.433,0,0,1-2.688-1.439l.9-1.223A3.227,3.227,0,0,0,357.74,59.7c.912.133,1.284-.263,1.188-.863-.108-.7-1.1-.983-1.836-1.175a2.29,2.29,0,0,1-1.992-2.35,2.337,2.337,0,0,1,2.759-2.05,3.5,3.5,0,0,1,2.556,1.487L359.324,55.8A2.227,2.227,0,0,0,357.9,54.7c-.54-.1-1.008.084-1.092.587-.1.54.252.863.864,1.019,1.128.3,2.808.887,2.844,2.506s-1.224,2.458-2.868,2.266" transform="translate(-158.043 708.293)" fill="#070203"/><path d="M369.715,58.337a1.418,1.418,0,0,0,1.38,1.535,2.16,2.16,0,0,0,1.932-1.092l.852,1.056a3.575,3.575,0,0,1-3.024,1.331c-1.968-.084-2.856-1.715-2.856-3.633,0-2.362.984-4.028,2.964-4.028,1.956,0,2.916,1.619,2.916,3.993v.839Zm-.084-1.271h2.628c0-1.751-.768-2.218-1.284-2.218-.468,0-1.344.444-1.344,2.218" transform="translate(-164.944 708.161)" fill="#070203"/><path d="M382.52,53.8h1.692v.312a2.419,2.419,0,0,1,1.4-.539c1.848-.1,2.856,1.391,2.856,3.549,0,2.086-1.056,3.633-2.94,3.549a2.525,2.525,0,0,1-1.32-.408v2.482H382.52Zm1.668,3.249c0,1.451.384,2.29,1.368,2.29.9,0,1.26-.875,1.26-2.254s-.384-2.206-1.332-2.206c-.792,0-1.3.839-1.3,2.17" transform="translate(-172.627 708.125)" fill="#070203"/><g transform="translate(30 787.414)"><path d="M88.977,110.64H11.551a11.029,11.029,0,1,1,0-22.058H88.977a11.029,11.029,0,1,1,0,22.058" transform="translate(-0.5 -88.582)" fill="#002477"/><path d="M16.069,106.1h4.117v-2.192c-1.988-.294-3.347-1.513-3.347-3.461,0-2.243,1.821-3.5,4.309-3.5s4.31,1.269,4.31,3.5c0,1.948-1.386,3.179-3.373,3.461V106.1H26.2v1.449H16.069Zm5.079-3.551c1.475,0,2.476-.718,2.476-2.1s-1-2.076-2.476-2.076-2.462.679-2.462,2.076,1,2.1,2.462,2.1" transform="translate(-6.382 -91.755)" fill="#fff"/><path d="M33.8,106.373H43.929v1.462H33.8Zm8.26-4.448a5.138,5.138,0,0,1-.206,1.462H43.4v1.436h-9.08v-1.436h1.437V99.772H37.67v3.615h2.3a5.655,5.655,0,0,0,.18-1.449V99.772h1.911Zm-7.606-4.23h8.837v1.436H34.451Z" transform="translate(-13.081 -92.037)" fill="#fff"/><path d="M61.018,101.179h1.206V102.7H61.018v5.717H59.2V106.91a2.8,2.8,0,0,1-1.822.525H53.823A1.608,1.608,0,0,1,52.04,105.6v-4.051h4.04V98.987H52.04V97.539h5.912v5.448H53.925v2.461c0,.474.141.564.513.564h3.1c1.257,0,1.655-.6,1.655-1.2V97.283h1.821Z" transform="translate(-19.974 -91.881)" fill="#fff"/><path d="M72.525,97.055a3.333,3.333,0,1,1-3.335,3.333,3.183,3.183,0,0,1,3.335-3.333m6.438,11.217H72.319a1.314,1.314,0,0,1-1.462-1.5v-2.4h1.86v2.013c0,.4.064.474.436.474h5.81Zm-6.438-5.9c.923,0,1.565-.859,1.565-1.987S73.448,98.4,72.525,98.4s-1.591.859-1.591,1.987.655,1.987,1.591,1.987m6.387,2.846H77.091V97.2h1.821Z" transform="translate(-26.454 -91.794)" fill="#fff"/><path d="M95.191,99.013h2.578V97.475H99.59V103.5H94.78c-1.1,0-1.41-.461-1.41-1.474V97.475h1.821Zm-.718,5.447h8.067v3.961h-1.86V105.9H94.473Zm3.3-2.333v-1.743H95.191v1.255c0,.4.077.487.449.487ZM102.54,99.6h1.206v1.526H102.54v2.795h-1.821v-6.64h1.821Z" transform="translate(-35.59 -91.881)" fill="#fff"/><path d="M111.3,97.475h6.156v3.614h-4.271v.488c0,.474.064.512.437.512h3.424c1.231,0,1.475-.538,1.475-1.205v-3.6h1.821v2.14h1.206v1.526h-1.206v2.82h-1.821V103a2.31,2.31,0,0,1-1.59.461h-4.04c-1.051,0-1.59-.435-1.59-1.7V99.718h4.271v-.872H111.3Zm1.052,6.743h7.99v4.2h-6.528a1.314,1.314,0,0,1-1.462-1.5Zm6.169,2.833V105.59h-4.348v.987c0,.4.064.474.436.474Z" transform="translate(-42.366 -91.881)" fill="#fff"/><path d="M132.067,99.541c2.052,0,3.206,1.064,3.206,2.513a2.484,2.484,0,0,1-2.257,2.436v1.153h1.8c1.257,0,1.654-.6,1.654-1.2V97.118h1.821v11.139h-1.821v-1.705a2.8,2.8,0,0,1-1.821.526h-6.234v-1.436h2.758V104.5a2.45,2.45,0,0,1-2.27-2.448c0-1.449,1.1-2.513,3.168-2.513m-3.5-1.653h2.553V96.849h1.9v1.038h2.476v1.385h-6.926Zm3.5,5.435a1.282,1.282,0,1,0,0-2.538,1.279,1.279,0,1,0,0,2.538" transform="translate(-48.831 -91.716)" fill="#fff"/></g><g transform="translate(37.833 824.614)"><path d="M18.727,148.045H20.67v-1.479a1.958,1.958,0,0,1-1.291-1.843c0-1.628,1.756-2.355,4.288-2.355s4.288.727,4.288,2.355a1.958,1.958,0,0,1-1.291,1.843v1.479h1.969v1.366h-9.9Zm4.94,1.716c2.5,0,4.175.539,4.175,2.105s-1.68,2.106-4.175,2.106-4.162-.539-4.162-2.106,1.667-2.105,4.162-2.105m0-3.91c1.467,0,2.445-.351,2.445-1.128s-.978-1.114-2.445-1.114-2.432.351-2.432,1.114.965,1.128,2.432,1.128m0,6.892c1.442,0,2.32-.163,2.32-.877s-.878-.877-2.32-.877-2.319.163-2.319.877.877.877,2.319.877m-1.216-5.726v1.028h2.432v-1.028a9.543,9.543,0,0,1-1.216.063,9.43,9.43,0,0,1-1.216-.063" transform="translate(-18.727 -142.369)" fill="#002477"/><path d="M41.211,149.26a7.506,7.506,0,0,1-2.683-2.294,6.3,6.3,0,0,1-2.833,2.719l-1.04-1.128a4.716,4.716,0,0,0,2.858-4.273v-1.353h1.856v1.441c0,1.528,1.166,2.92,2.871,3.759Zm3.348,4.423H38.19a1.285,1.285,0,0,1-1.43-1.466v-2.305h1.818v1.93c0,.389.063.464.427.464h5.554Zm-.113-8.232h1.178v1.491H44.446V150.7h-1.78v-7.844h1.78Z" transform="translate(-24.823 -142.556)" fill="#002477"/><path d="M52.856,148.58H59.6a6.9,6.9,0,0,0,.389-2.169v-1.829H53.621v-1.441h8.3v3.02a7.992,7.992,0,0,1-.451,2.419H62.76v1.428h-4v3.847h-1.9v-3.847h-4Z" transform="translate(-31.788 -142.665)" fill="#002477"/><path d="M75.609,151.479h4.024v-2.143c-1.943-.288-3.272-1.479-3.272-3.384,0-2.192,1.78-3.42,4.212-3.42s4.212,1.24,4.212,3.42c0,1.905-1.354,3.109-3.3,3.384v2.143h4.025v1.416h-9.9Zm4.964-3.472c1.441,0,2.419-.7,2.419-2.055s-.978-2.029-2.419-2.029-2.407.664-2.407,2.029.978,2.055,2.407,2.055" transform="translate(-40.496 -142.431)" fill="#002477"/><path d="M92.673,151.747h9.9v1.428h-9.9Zm8.074-4.349a5.042,5.042,0,0,1-.2,1.429h1.517v1.4H93.187v-1.4h1.4v-3.534h1.868v3.534H98.7a5.532,5.532,0,0,0,.176-1.416v-2.118h1.868Zm-7.435-4.135h8.638v1.4H93.312Z" transform="translate(-47.027 -142.712)" fill="#002477"/><path d="M119.02,146.666H120.2v1.491H119.02v5.588h-1.78v-1.479a2.73,2.73,0,0,1-1.78.514h-3.473a1.572,1.572,0,0,1-1.742-1.792v-3.96h3.949v-2.506h-3.949v-1.416h5.779v5.325h-3.936v2.406c0,.464.138.551.5.551h3.034c1.229,0,1.617-.588,1.617-1.177v-7.356h1.78Z" transform="translate(-53.751 -142.556)" fill="#002477"/><path d="M130,142.632a3.258,3.258,0,1,1-3.259,3.258A3.112,3.112,0,0,1,130,142.632m6.293,10.965H129.8a1.285,1.285,0,0,1-1.429-1.466v-2.343h1.818v1.967c0,.389.062.464.426.464h5.679ZM130,147.833c.9,0,1.53-.839,1.53-1.942s-.627-1.942-1.53-1.942-1.554.84-1.554,1.942.639,1.942,1.554,1.942m6.243,2.782h-1.78v-7.844h1.78Z" transform="translate(-60.064 -142.47)" fill="#002477"/><path d="M151.537,144.548h2.52v-1.5h1.78v5.89h-4.7c-1.078,0-1.379-.452-1.379-1.441v-4.449h1.78Zm-.7,5.326h7.886v3.872H156.9v-2.469h-6.068Zm3.222-2.28v-1.7h-2.52v1.228c0,.389.075.477.439.477Zm4.664-2.469H159.9v1.491h-1.178v2.732h-1.78v-6.491h1.78Z" transform="translate(-68.873 -142.556)" fill="#002477"/><path d="M167.025,143.045h6.018v3.533h-4.175v.477c0,.463.063.5.427.5h3.348c1.2,0,1.441-.526,1.441-1.178v-3.521h1.78v2.093h1.178v1.49h-1.178V149.2h-1.78v-.752a2.257,2.257,0,0,1-1.554.452h-3.949c-1.028,0-1.554-.426-1.554-1.666v-1.993H171.2v-.852h-4.175Zm1.028,6.591h7.811v4.11h-6.382a1.285,1.285,0,0,1-1.429-1.466Zm6.03,2.769v-1.429h-4.25v.965c0,.389.063.464.427.464Z" transform="translate(-75.481 -142.556)" fill="#002477"/><path d="M187.053,145.061c2.006,0,3.134,1.04,3.134,2.456a2.429,2.429,0,0,1-2.206,2.382v1.127h1.755c1.228,0,1.617-.589,1.617-1.178v-7.155h1.78v10.889h-1.78v-1.666a2.734,2.734,0,0,1-1.78.514H183.48v-1.4h2.7v-1.115a2.4,2.4,0,0,1-2.219-2.394c0-1.416,1.078-2.456,3.1-2.456m-3.422-1.617h2.494V142.43h1.856v1.015h2.42V144.8h-6.77Zm3.422,5.313a1.253,1.253,0,1,0,0-2.481,1.25,1.25,0,1,0,0,2.481" transform="translate(-81.778 -142.392)" fill="#002477"/></g><g transform="translate(37.958 887.001)"><path d="M15.806,264.392l2.855-2.645c.741-.714,1.142-1.157,1.142-1.794A1.143,1.143,0,0,0,18.54,258.8a1.145,1.145,0,0,0-1.23,1.24H15.74a2.547,2.547,0,0,1,2.822-2.568c1.7,0,2.833.979,2.833,2.369,0,.913-.439,1.66-2.075,3.154l-1.208,1.185v.044H21.5V265.6H15.817Z" transform="translate(-15.74 -256.544)" fill="#070203"/><path d="M28.821,261.592c0-2.618,1.214-4.119,3.2-4.119s3.2,1.5,3.2,4.119c0,2.634-1.208,4.117-3.2,4.117s-3.2-1.494-3.2-4.117m3.2,2.745c.922,0,1.51-.9,1.5-2.745.005-1.832-.587-2.751-1.5-2.757s-1.5.924-1.5,2.757c-.011,1.848.582,2.745,1.5,2.745" transform="translate(-21.991 -256.544)" fill="#070203"/><path d="M43.167,264.392l2.855-2.645c.741-.714,1.141-1.157,1.141-1.794a1.248,1.248,0,0,0-2.492.089H43.1a2.547,2.547,0,0,1,2.822-2.568c1.7,0,2.833.979,2.833,2.369,0,.913-.439,1.66-2.075,3.154l-1.208,1.185v.044h3.393V265.6H43.178Z" transform="translate(-28.814 -256.544)" fill="#070203"/><path d="M56.225,263.34h1.669c.028.6.6.991,1.372,1,.791-.006,1.356-.448,1.351-1.1s-.571-1.113-1.5-1.118h-.736v-1.229h.736c.785,0,1.334-.431,1.328-1.063a1.035,1.035,0,0,0-1.164-1.03,1.171,1.171,0,0,0-1.306,1.008H56.39c.027-1.378,1.257-2.336,2.887-2.336,1.658,0,2.762.991,2.756,2.259a1.693,1.693,0,0,1-1.5,1.693v.067a1.813,1.813,0,0,1,1.8,1.86c.011,1.372-1.279,2.357-3.075,2.357-1.746,0-3-.968-3.03-2.369" transform="translate(-35.085 -256.544)" fill="#070203"/><path d="M69.79,270.626a.906.906,0,0,1,.922-.919.925.925,0,1,1-.922.919" transform="translate(-41.566 -262.402)" fill="#070203"/><path d="M77.227,265.7H75.569v-6.431h-.044L73.7,260.42v-1.472l1.965-1.262h1.559Z" transform="translate(-43.436 -256.646)" fill="#070203"/><path d="M83.775,261.592c0-2.618,1.214-4.119,3.2-4.119s3.2,1.5,3.2,4.119c0,2.634-1.208,4.117-3.2,4.117s-3.2-1.494-3.2-4.117m3.2,2.745c.922,0,1.51-.9,1.5-2.745.005-1.832-.587-2.751-1.5-2.757s-1.5.924-1.5,2.757c-.011,1.848.582,2.745,1.5,2.745" transform="translate(-48.249 -256.544)" fill="#070203"/><path d="M97.667,270.626a.906.906,0,0,1,.922-.919.925.925,0,1,1-.922.919" transform="translate(-54.886 -262.402)" fill="#070203"/><path d="M103.58,264.392l2.855-2.645c.741-.714,1.141-1.157,1.141-1.794a1.248,1.248,0,0,0-2.492.089h-1.57a2.547,2.547,0,0,1,2.821-2.568c1.7,0,2.833.979,2.833,2.369,0,.913-.439,1.66-2.075,3.154l-1.208,1.185v.044h3.393V265.6h-5.688Z" transform="translate(-57.68 -256.544)" fill="#070203"/><path d="M120.14,265.7h-1.658v-6.431h-.044l-1.822,1.151v-1.472l1.965-1.262h1.559Z" transform="translate(-63.941 -256.646)" fill="#070203"/><path d="M129.074,257.028h1.548a9.874,9.874,0,0,0,0,10.615h-1.548a9.175,9.175,0,0,1,0-10.615" transform="translate(-69.085 -256.331)" fill="#070203"/><path d="M142.807,262.441H139.93v1.7h3.876v1.129H134.66v-1.129h3.854v-1.7h-2.778v-5.413h6.994v1.129h-5.567v1.008H142.5v1.106h-5.336v1.052h5.644Z" transform="translate(-72.562 -256.331)" fill="#070203"/><path d="M154.758,267.643H153.21a9.874,9.874,0,0,0,0-10.615h1.548a9.175,9.175,0,0,1,0,10.615" transform="translate(-81.426 -256.331)" fill="#070203"/><path d="M168.02,256.815a.837.837,0,1,1-.889.841.872.872,0,0,1,.889-.841m-.812,2.458h1.625v6.01h-1.625Z" transform="translate(-88.078 -256.229)" fill="#070203"/><path d="M174.435,267.469H172.81v-6.01h1.548v1.051h.066a1.8,1.8,0,0,1,1.79-1.129,2.01,2.01,0,0,1,2.053,2.259v3.83h-1.614v-3.542a1.044,1.044,0,0,0-1.076-1.184,1.118,1.118,0,0,0-1.142,1.251Z" transform="translate(-90.791 -258.415)" fill="#070203"/><path d="M189.992,259.883h9.114v1.14H195.24v.631H198V264.2H192.43v.576h5.83v1.063h-7.2v-2.612h5.555v-.543h-5.566v-1.029h2.789v-.631h-3.843Zm2.547-3.2h4.008v-.7h1.395v3.376h-6.786v-3.376h1.383Zm4.008,1.018h-4.008v.609h4.008Z" transform="translate(-99.001 -255.832)" fill="#070203"/><path d="M210.207,260.278V258.49H211.6v1.749c1-.039,2.015-.105,2.954-.221l.077.985a37.421,37.421,0,0,1-6.16.421l-.121-1.129c.571,0,1.2-.006,1.855-.017m3.9-3.382a12.914,12.914,0,0,1-.242,2.645l-1.372-.1a11.516,11.516,0,0,0,.214-2.07h-3.761v-1.129h5.161Zm-.978,5.059c2.141,0,3.47.714,3.47,1.87,0,1.217-1.328,1.92-3.47,1.915s-3.48-.7-3.48-1.915c0-1.156,1.339-1.87,3.48-1.87m0,2.69c1.312,0,2.031-.249,2.031-.819,0-.509-.719-.791-2.031-.786s-2.058.277-2.053.786c-.005.57.741.819,2.053.819m1.965-8.955h1.438v2.48h1.219v1.173h-1.219v2.491h-1.438Z" transform="translate(-107.774 -255.69)" fill="#070203"/><path d="M233.2,260.857l-.67,1.1a3.755,3.755,0,0,1-2.36-1.893,3.832,3.832,0,0,1-2.394,2.058l-.681-1.106a3.044,3.044,0,0,0,2.35-2.945v-.077h-2.009v-1.107h2.009v-1.118h1.416v1.118h2v1.107h-2.02v.077a2.983,2.983,0,0,0,2.361,2.79m-4.249,1.683h1.405v1.926h5.468v1.129h-6.873Zm3.579-3.9h1.658V255.71h1.395v7.471h-1.395v-3.4h-1.658Z" transform="translate(-116.728 -255.7)" fill="#070203"/></g><g transform="translate(37.833 868.502)"><path d="M18.727,225.762h9.9v1.4h-9.9Zm4.94-5.964c2.533,0,4.288.814,4.288,2.644s-1.755,2.644-4.288,2.644-4.288-.8-4.288-2.644,1.756-2.644,4.288-2.644m4.149,11.127H21.172a1.285,1.285,0,0,1-1.43-1.466v-1.842h1.843v1.466c0,.389.063.464.427.464h5.8Zm-4.149-7.155c1.467,0,2.445-.4,2.445-1.328s-.978-1.316-2.445-1.316-2.432.4-2.432,1.316.965,1.328,2.432,1.328" transform="translate(-18.727 -219.798)" fill="#002477"/><path d="M35.688,220.474h6.469v.965h1.329v-1.153h1.78v6.666h-1.78v-1.867h-.727v1.253a3.537,3.537,0,0,1-1.454.263H35.487V225.26H36.54V222.3h1.78v2.957h1.116a4.28,4.28,0,0,0,.138-1.127V222.3h1.78v1.779a3.924,3.924,0,0,1-.175,1.178h.151a3.572,3.572,0,0,0,1.254-.175h-.565v-1.366h1.467V222.8H42.044V221.79H35.688Zm5.466,6.553c2.47,0,3.987.69,3.987,2.231s-1.517,2.231-3.987,2.231-3.974-.689-3.974-2.231,1.492-2.231,3.974-2.231m0,3.221c1.4,0,2.207-.275,2.207-.99s-.8-.99-2.207-.99-2.194.275-2.194.99.79.99,2.194.99" transform="translate(-25.141 -219.985)" fill="#002477"/><path d="M52.856,226.009H59.6a6.9,6.9,0,0,0,.389-2.169v-1.829H53.621V220.57h8.3v3.02a7.992,7.992,0,0,1-.451,2.419H62.76v1.428h-4v3.847h-1.9v-3.847h-4Z" transform="translate(-31.788 -220.094)" fill="#002477"/><path d="M75.609,228.907h4.024v-2.143c-1.943-.288-3.272-1.479-3.272-3.383,0-2.193,1.78-3.421,4.212-3.421s4.212,1.241,4.212,3.421c0,1.9-1.354,3.108-3.3,3.383v2.143h4.025v1.416h-9.9Zm4.964-3.471c1.441,0,2.419-.7,2.419-2.055s-.978-2.03-2.419-2.03-2.407.664-2.407,2.03.978,2.055,2.407,2.055" transform="translate(-40.496 -219.86)" fill="#002477"/><path d="M92.673,229.175h9.9V230.6h-9.9Zm8.074-4.348a5.045,5.045,0,0,1-.2,1.429h1.517v1.4H93.187v-1.4h1.4v-3.534h1.868v3.534H98.7a5.537,5.537,0,0,0,.176-1.416v-2.117h1.868Zm-7.435-4.135h8.638v1.4H93.312Z" transform="translate(-47.027 -220.141)" fill="#002477"/><path d="M119.02,224.094H120.2v1.491H119.02v5.588h-1.78V229.7a2.734,2.734,0,0,1-1.78.514h-3.473a1.572,1.572,0,0,1-1.742-1.791v-3.96h3.949v-2.506h-3.949v-1.416h5.779v5.325h-3.936v2.406c0,.464.138.551.5.551h3.034c1.229,0,1.617-.588,1.617-1.177v-7.356h1.78Z" transform="translate(-53.751 -219.985)" fill="#002477"/><path d="M130,220.061a3.258,3.258,0,1,1-3.259,3.258A3.112,3.112,0,0,1,130,220.061m6.293,10.965H129.8a1.285,1.285,0,0,1-1.429-1.466v-2.343h1.818v1.968c0,.389.062.464.426.464h5.679ZM130,225.262c.9,0,1.53-.84,1.53-1.942s-.627-1.942-1.53-1.942-1.554.84-1.554,1.942.639,1.942,1.554,1.942m6.243,2.782h-1.78V220.2h1.78Z" transform="translate(-60.064 -219.899)" fill="#002477"/><path d="M151.537,221.976h2.52v-1.5h1.78v5.89h-4.7c-1.078,0-1.379-.452-1.379-1.441v-4.449h1.78Zm-.7,5.326h7.886v3.872H156.9v-2.469h-6.068Zm3.222-2.28v-1.7h-2.52v1.228c0,.389.075.477.439.477Zm4.664-2.469H159.9v1.491h-1.178v2.731h-1.78v-6.49h1.78Z" transform="translate(-68.873 -219.985)" fill="#002477"/><path d="M167.025,220.474h6.018v3.533h-4.175v.477c0,.463.063.5.427.5h3.348c1.2,0,1.441-.527,1.441-1.178v-3.521h1.78v2.092h1.178v1.491h-1.178v2.758h-1.78v-.752a2.257,2.257,0,0,1-1.554.452h-3.949c-1.028,0-1.554-.426-1.554-1.666v-1.993H171.2v-.851h-4.175Zm1.028,6.591h7.811v4.11h-6.382a1.285,1.285,0,0,1-1.429-1.466Zm6.03,2.769v-1.429h-4.25v.965c0,.389.063.464.427.464Z" transform="translate(-75.481 -219.985)" fill="#002477"/><path d="M187.053,222.49c2.006,0,3.134,1.04,3.134,2.456a2.428,2.428,0,0,1-2.206,2.381v1.128h1.755c1.228,0,1.617-.59,1.617-1.178v-7.155h1.78v10.889h-1.78v-1.666a2.734,2.734,0,0,1-1.78.514H183.48v-1.4h2.7v-1.115a2.4,2.4,0,0,1-2.219-2.394c0-1.416,1.078-2.456,3.1-2.456m-3.422-1.617h2.494v-1.015h1.856v1.015h2.42v1.353h-6.77Zm3.422,5.313a1.253,1.253,0,1,0,0-2.481,1.25,1.25,0,1,0,0,2.481" transform="translate(-81.778 -219.821)" fill="#002477"/></g><circle cx="1.507" cy="1.507" r="1.507" transform="translate(30.297 827.977)" fill="#002477"/><circle cx="1.507" cy="1.507" r="1.507" transform="translate(30.297 872.691)" fill="#002477"/><g transform="translate(30 914.892)"><path d="M88.977,320.926H11.551a11.029,11.029,0,1,1,0-22.058H88.977a11.029,11.029,0,1,1,0,22.058" transform="translate(-0.5 -298.868)" fill="#002477"/><path d="M45.521,308.171H47.8V307.03h1.86v1.141h2.424v1.435h-2.36a4.153,4.153,0,0,0,2.681,2.872l-1.039,1.115a6.169,6.169,0,0,1-2.6-2.115,5.871,5.871,0,0,1-2.744,2.448L44.97,312.8a4.186,4.186,0,0,0,2.77-3.192H45.521Zm9.273,6.012v4.32H48.266A1.315,1.315,0,0,1,46.8,317v-2.82Zm-1.821,2.949v-1.576H48.625v1.1c0,.4.063.474.436.474Zm1.821-7.473H56v1.526H54.794v2.448H52.973v-6.267h1.821Z" transform="translate(-17.303 -301.962)" fill="#fff"/><path d="M73.334,318.659H71.513v-3.037H69.628a2.725,2.725,0,0,1-2.693,2.115c-2.091,0-3.1-1.821-3.1-5.141s1.013-5.152,3.1-5.152a2.655,2.655,0,0,1,2.578,1.807h2v-1.73h1.821Zm-6.4-2.32c.846,0,1.308-1.359,1.308-3.743s-.462-3.755-1.308-3.755-1.308,1.372-1.308,3.755.449,3.743,1.308,3.743m3.014-2.256h1.565v-3.295h-1.6a11.14,11.14,0,0,1,.129,1.807,12.978,12.978,0,0,1-.09,1.488" transform="translate(-24.429 -302.119)" fill="#fff"/><path d="M81.458,307.823h5.925v2.885c0,2.641-1.18,5.448-5.323,6.96l-.936-1.256c3.412-1.231,4.425-3.41,4.425-5.256v-1.884H81.458Zm9.312,10.883H88.949V307.567H90.77Z" transform="translate(-30.964 -302.166)" fill="#fff"/><path d="M101.912,307.339a2.954,2.954,0,0,1,3.129,2.154h1.693v-2.012h1.821v5.909h-1.821v-2.371h-1.642a3.232,3.232,0,1,1-3.18-3.679m0,4.679a1.682,1.682,0,1,0-1.5-1.666,1.487,1.487,0,0,0,1.5,1.666m.346,2.782h4.476v-.975h1.821v4.795H101.9a1.315,1.315,0,0,1-1.462-1.5v-3.295h1.821Zm4.476,2.448v-1.077h-4.476v.6c0,.4.064.474.436.474Z" transform="translate(-37.592 -302.079)" fill="#fff"/><path d="M23.354,355.171a8.345,8.345,0,0,1-2.472-2.973,6.868,6.868,0,0,1-2.5,3.189l-1.128-.959a6.442,6.442,0,0,0,2.664-5.348v-2.925h1.752v2.973a6.834,6.834,0,0,0,2.808,5.048Zm3.684,1.247h-1.7V350.6h-2.3v-1.439h2.3V346h1.7Z" transform="translate(-9.722 -315.328)" fill="#070203"/><path d="M40.695,349.977h9.48v1.271H46.323v.671h2.939v2.662H43.551v.228c0,.168.036.216.18.216h5.664v1.126H42.711A1.044,1.044,0,0,1,41.547,355v-1.535h5.712v-.419H41.547v-1.127h3v-.671H40.695Zm4.728-4.592c2.424,0,4.1.6,4.1,2.087s-1.68,2.086-4.1,2.086-4.1-.587-4.1-2.086,1.68-2.087,4.1-2.087m0,3c1.4,0,2.34-.216,2.34-.911s-.936-.9-2.34-.9-2.328.216-2.328.9.924.911,2.328.911" transform="translate(-22.122 -315.003)" fill="#070203"/><path d="M67.485,355.17a8.479,8.479,0,0,1-2.532-2.973,6.865,6.865,0,0,1-2.5,3.189l-1.128-.959a6.442,6.442,0,0,0,2.664-5.348v-2.925h1.752v2.973a6.935,6.935,0,0,0,2.868,5.023Zm3.5,1.247h-1.7V346h1.7Z" transform="translate(-33.04 -315.328)" fill="#070203"/><path d="M97.765,347.17c0,1.906,1.6,3.321,3.852,3.92l-.768,1.271a6.72,6.72,0,0,1-4-2.662,6.653,6.653,0,0,1-4,2.662l-.78-1.271c2.268-.6,3.864-2.015,3.864-3.92v-1.019h1.824Zm-5.652,7.277h3.827v-2.434h1.824v2.434h3.828V355.8h-9.48Z" transform="translate(-49.309 -315.409)" fill="#070203"/><path d="M113.3,346.238h4.908v1.343h-1.656v1.535a7.406,7.406,0,0,0,1.98,5.143l-1.14.876A7.526,7.526,0,0,1,115.7,352.5a6.588,6.588,0,0,1-1.836,2.83l-1.128-.827a7.113,7.113,0,0,0,2.112-5.4v-1.523H113.3Zm6.948,3.4h.732V346h1.62v10.419h-1.62V351.07h-.732V356.3h-1.62V346h1.62Z" transform="translate(-60.24 -315.328)" fill="#070203"/><path d="M143.612,351.922h9.48v1.367h-3.828v2.83H147.44v-2.83h-3.828Zm4.728-6.486c2.4,0,4.092.947,4.092,2.865,0,1.895-1.691,2.878-4.092,2.878s-4.08-.983-4.08-2.878c0-1.918,1.68-2.865,4.08-2.865m0,4.4c1.4,0,2.328-.492,2.328-1.535s-.924-1.547-2.328-1.547-2.328.492-2.328,1.547.936,1.535,2.328,1.535" transform="translate(-76.576 -315.03)" fill="#070203"/><path d="M171.135,346.336c0,1.942,1.68,2.9,3.864,3.333l-.72,1.2a6.249,6.249,0,0,1-4.044-2.134,6.1,6.1,0,0,1-4.02,2.134l-.72-1.2c2.184-.431,3.816-1.391,3.816-3.333v-.492h1.824Zm-5.628,5.695h9.48V353.4h-3.828v2.938h-1.824V353.4h-3.827Z" transform="translate(-88.154 -315.246)" fill="#070203"/><path d="M195.071,351.957h9.48v1.367h-3.828V356H198.9v-2.674h-3.827Zm5.663-5.7h3.132v1.4h-3c.42,1.307,1.788,1.931,3.636,2.3l-.72,1.211a6.155,6.155,0,0,1-3.972-2.122,6.053,6.053,0,0,1-3.972,2.122l-.72-1.211c1.836-.372,3.192-.995,3.612-2.3h-2.976v-1.4h3.108v-1.055h1.872Z" transform="translate(-103.803 -314.908)" fill="#070203"/><path d="M216.692,346.4h2.076v-1.067H220.5V346.4h2.316v1.355H220.5a3.755,3.755,0,0,0,2.448,3.381l-.96,1.055a6,6,0,0,1-2.328-2.05,6.172,6.172,0,0,1-2.52,2.374l-.972-1.079a3.955,3.955,0,0,0,2.6-3.681h-2.076Zm8.964,9.6H219.44a1.229,1.229,0,0,1-1.368-1.4v-1.99h1.74v1.63c0,.372.06.444.408.444h5.436Zm-.048-2.733h-1.7v-3.633h-1.812V348.2H223.9v-2.554h1.7Z" transform="translate(-114.963 -314.976)" fill="#070203"/><path d="M246.663,346.238h5.544v2.7c0,2.47-1.1,5.1-4.98,6.51l-.876-1.175c3.192-1.151,4.14-3.19,4.14-4.916v-1.762h-3.828Zm8.712,10.18h-1.7V346h1.7Z" transform="translate(-130.935 -315.328)" fill="#070203"/><path d="M271.066,345.717a2.764,2.764,0,0,1,2.928,2.014h1.584v-1.882h1.7v5.527h-1.7v-2.218h-1.536a3.024,3.024,0,1,1-2.976-3.441m0,4.377a1.574,1.574,0,1,0-1.4-1.559,1.391,1.391,0,0,0,1.4,1.559m.324,2.6h4.188v-.912h1.7v4.484h-6.228a1.229,1.229,0,0,1-1.368-1.4v-3.081h1.7Zm4.188,2.29v-1.007H271.39v.564c0,.372.06.443.408.443Z" transform="translate(-142.405 -315.179)" fill="#070203"/><path d="M18.787,445.123h3.852v-.888c-1.944-.156-3.228-.887-3.228-2.386,0-1.7,1.68-2.422,4.1-2.422s4.1.72,4.1,2.422c0,1.5-1.284,2.23-3.2,2.386v.888h3.851v1.343h-9.48Zm8.7,4.951h-6.36a1.229,1.229,0,0,1-1.368-1.4v-1.715h1.764v1.355c0,.372.06.443.408.443h5.556Zm-3.972-7.05c1.4,0,2.34-.312,2.34-1.175s-.936-1.163-2.34-1.163-2.328.312-2.328,1.163.924,1.175,2.328,1.175" transform="translate(-10.531 -350.158)" fill="#070203"/><path d="M49.732,443.685H50.86v1.427H49.732v5.348h-1.7v-1.415a2.616,2.616,0,0,1-1.7.492H43a1.5,1.5,0,0,1-1.668-1.714v-3.789h3.78v-2.4h-3.78V440.28h5.532v5.1H43.1v2.3c0,.443.132.527.48.527h2.9c1.176,0,1.548-.563,1.548-1.126V440.04h1.7Z" transform="translate(-22.459 -350.482)" fill="#070203"/><path d="M65.647,439.759a3.117,3.117,0,1,1-3.12,3.117,2.977,2.977,0,0,1,3.12-3.117m6.024,10.491H65.455a1.229,1.229,0,0,1-1.368-1.4v-2.242h1.74v1.883c0,.372.06.443.408.443h5.436Zm-6.024-5.515c.864,0,1.464-.8,1.464-1.859s-.6-1.858-1.464-1.858-1.489.8-1.489,1.858.612,1.859,1.489,1.859m5.976,2.661h-1.7v-7.506h1.7Z" transform="translate(-33.674 -350.333)" fill="#070203"/><path d="M95.2,439.759a3.117,3.117,0,1,1-3.12,3.117,2.978,2.978,0,0,1,3.12-3.117m6.024,10.491H95.005a1.229,1.229,0,0,1-1.368-1.4v-2.242h1.74v1.883c0,.372.06.443.408.443h5.436ZM95.2,444.735c.864,0,1.464-.8,1.464-1.859s-.6-1.858-1.464-1.858-1.488.8-1.488,1.858.612,1.859,1.488,1.859m5.976,2.661h-1.7v-7.506h1.7Z" transform="translate(-49.309 -350.333)" fill="#070203"/><path d="M118.951,445.771a5.907,5.907,0,0,1-2.4-1.918,5.965,5.965,0,0,1-2.652,2.506l-.984-1.1a4.294,4.294,0,0,0,2.664-3.933v-1.211h1.776v1.307c0,1.414,1,2.542,2.556,3.285Zm-.192.372c2.34,0,3.816.779,3.816,2.314s-1.476,2.314-3.816,2.314-3.792-.779-3.792-2.314,1.452-2.314,3.792-2.314m0,3.429c1.368,0,2.112-.383,2.112-1.115s-.744-1.115-2.112-1.115-2.1.384-2.1,1.115.744,1.115,2.1,1.115m3.756-3.5h-1.7v-2.866h-2.124v-1.439h2.124V440.04h1.7Z" transform="translate(-60.334 -350.482)" fill="#070203"/><path d="M141.085,441.31c0,2.494-1.656,4.292-5.136,4.688l-.54-1.271c2.976-.36,3.852-1.655,3.852-2.973v-.192h-3.276v-1.343h5.1Zm3.588,4.951v4.2h-6.228a1.229,1.229,0,0,1-1.368-1.4v-2.794Zm-1.7,2.914v-1.631h-4.188v1.187c0,.372.06.444.408.444Zm-1.692-6.978h1.692v-2.158h1.7v5.708h-1.7v-2.122h-1.692Z" transform="translate(-72.236 -350.482)" fill="#070203"/><path d="M162.446,449.213a8.344,8.344,0,0,1-2.472-2.974,6.866,6.866,0,0,1-2.5,3.19l-1.128-.959a6.443,6.443,0,0,0,2.664-5.348V440.2h1.752v2.973a6.834,6.834,0,0,0,2.808,5.048Zm3.324-5.528H166.9v1.427h-1.128v5.348h-1.7V440.04h1.7Z" transform="translate(-83.316 -350.482)" fill="#070203"/><path d="M186.644,440.976h1.572v-1.115h1.7v1.115h1.7v1.343h-1.7v.743a7.41,7.41,0,0,0,1.98,5.144l-1.14.876a7.523,7.523,0,0,1-1.692-2.638,6.6,6.6,0,0,1-1.836,2.83l-1.128-.827a7.114,7.114,0,0,0,2.112-5.4v-.732h-1.572Zm7.188,9.268h-1.62v-5.264h-1.464v-1.439h1.464v-3.6h1.62Zm2.136.119h-1.62V439.945h1.62Z" transform="translate(-99.058 -350.387)" fill="#070203"/><path d="M209.057,440.2h2.328v-.947h1.728v.947h2.28v1.283h-6.335Zm3.216,1.534c1.92,0,2.916.816,2.916,2.087s-1,2.1-2.916,2.1-2.928-.828-2.928-2.1,1-2.087,2.928-2.087m6.1,4.592v3.717h-6.287a1.23,1.23,0,0,1-1.368-1.4v-2.314Zm-6.1-1.535c.864,0,1.284-.359,1.284-.971s-.42-.971-1.284-.971-1.308.372-1.308.971.444.971,1.308.971m4.392,4.028v-1.271h-4.247v.828c0,.371.06.443.408.443Zm1.7-2.889h-1.7v-2.11h-1.308v-1.439h1.308v-2.758h1.7Z" transform="translate(-111.203 -350.063)" fill="#070203"/><path d="M232.938,458.321a3.546,3.546,0,0,1-1.008,2.194l-.7-.3a2.357,2.357,0,0,0,.612-1.415h-.8v-1.666h1.9Z" transform="translate(-122.835 -359.543)" fill="#070203"/><path d="M248.253,439.887c1.956,0,3.048,1.714,3.048,4.82s-1.092,4.808-3.048,4.808-3.048-1.7-3.048-4.808,1.092-4.82,3.048-4.82m0,8.321c.792,0,1.368-1.271,1.368-3.5s-.576-3.513-1.368-3.513-1.368,1.283-1.368,3.513.564,3.5,1.368,3.5m5.843,2.17h-1.7V439.958h1.7Z" transform="translate(-130.329 -350.401)" fill="#070203"/><path d="M272.694,441.2h1.62V440.04h1.7v6.39h-1.7V445.1H272.73v.828a3.179,3.179,0,0,1-1.356.251h-2.88c-1.116,0-1.356-.563-1.356-1.654V442.5h3.492v-.971h-3.492V440.22h5.256v3.585H268.9v.587c0,.443.049.5.384.5h2.076a3.55,3.55,0,0,0,1.308-.228v-1h1.644V442.63h-1.62Zm-4.344,5.708h7.668v3.549h-1.74v-2.206H268.35Z" transform="translate(-141.934 -350.482)" fill="#070203"/><path d="M293.232,449.213a8.346,8.346,0,0,1-2.472-2.973,6.867,6.867,0,0,1-2.5,3.189l-1.128-.959a6.443,6.443,0,0,0,2.664-5.348V440.2h1.752v2.973a6.835,6.835,0,0,0,2.808,5.048Zm3.684,1.247h-1.7v-5.815h-2.3v-1.439h2.3V440.04h1.7Z" transform="translate(-152.515 -350.482)" fill="#070203"/><rect width="1.728" height="1.774" transform="translate(146.954 93.515)" fill="#070203"/><path d="M321,440.28h6.06v1.343h-2.328v1.583a6.587,6.587,0,0,0,2.688,5.012l-1.116.995a8.572,8.572,0,0,1-2.376-2.974,7.438,7.438,0,0,1-2.472,3.19l-1.08-.983a6.175,6.175,0,0,0,2.628-5.192v-1.631h-2Zm8.616,3.4h1.128v1.427H329.62v5.348h-1.7V440.04h1.7Z" transform="translate(-170.104 -350.482)" fill="#070203"/><path d="M343.569,440.279h5.544v2.7c0,2.47-1.1,5.1-4.98,6.51l-.876-1.175c3.192-1.151,4.14-3.189,4.14-4.916v-1.762h-3.828Zm8.712,10.179h-1.7V440.039h1.7Z" transform="translate(-182.208 -350.482)" fill="#070203"/><path d="M370.955,441.212c0,1.906,1.6,3.321,3.852,3.92l-.768,1.272a6.723,6.723,0,0,1-4-2.662,6.651,6.651,0,0,1-4,2.662l-.78-1.272c2.268-.6,3.864-2.014,3.864-3.92v-1.019h1.824ZM365.3,448.49h3.827v-2.434h1.824v2.434h3.828v1.355H365.3Z" transform="translate(-193.854 -350.563)" fill="#070203"/><path d="M386.9,440.28h4.464v2.949a6.4,6.4,0,0,1-3.84,6.234l-.912-1.127a4.982,4.982,0,0,0,3.072-4.964v-1.738H386.9Zm9.252,10.179h-1.62v-5.348h-.84v5.228h-1.62v-10.3h1.62v3.645h.84V440.04h1.62Z" transform="translate(-205.149 -350.482)" fill="#070203"/><path d="M413.727,449.213a8.345,8.345,0,0,1-2.472-2.973,6.865,6.865,0,0,1-2.5,3.189l-1.128-.959a6.443,6.443,0,0,0,2.664-5.348V440.2h1.752v2.973a6.835,6.835,0,0,0,2.808,5.048Zm3.684,1.247h-1.7v-5.815h-2.3v-1.439h2.3V440.04h1.7Z" transform="translate(-216.268 -350.482)" fill="#070203"/><path d="M442.126,445.664a6.914,6.914,0,0,1-1.692-1.871,6.221,6.221,0,0,1-1.932,2.3l-1.092-.959a4.668,4.668,0,0,0,2.064-4.184v-.839h1.764v.923a4.427,4.427,0,0,0,1.92,3.645Zm-2.64.683h7.776v4.113h-6.408a1.23,1.23,0,0,1-1.368-1.4Zm6.072,2.83v-1.547H441.19v1.1c0,.372.06.444.408.444Zm1.7-3.345h-1.62v-2.362h-.828v2.362h-1.62V440.04h1.62V442.1h.828V440.04h1.62Z" transform="translate(-232.025 -350.482)" fill="#070203"/><path d="M460.618,444.887h9.48v1.247h-9.48Zm.6-4.592h8.28v1.235H468.37v.756a2.733,2.733,0,0,1-.156.911h1.344v1.211h-8.4V443.2h1.272V441.53h-1.212Zm1.416,10.359a1.031,1.031,0,0,1-1.164-1.139v-1.451h5.712v-.4H461.47v-1.091h7.716v2.566h-5.712v.2c0,.168.036.216.18.216h5.664v1.091Zm3.96-8.357v-.767h-2.388V443.2h2.256a3.035,3.035,0,0,0,.132-.9" transform="translate(-244.304 -350.617)" fill="#070203"/><path d="M492.773,439.76a3.037,3.037,0,0,1,2.364.947h2.172v-.816h1.7v5.443h-1.7v-.875h-2.244a3.076,3.076,0,0,1-2.292.863,2.79,2.79,0,1,1,0-5.563m0,4.316a1.543,1.543,0,1,0-1.38-1.534,1.372,1.372,0,0,0,1.38,1.534m6.336,6.235h-6.4a1.13,1.13,0,0,1-1.3-1.259V447.4h5.8v-.443h-5.8v-1.212h7.6v2.866h-5.8v.24c0,.216.048.251.228.251h5.664Zm-3.384-7.146h1.584V441.99h-1.572a4.023,4.023,0,0,1,.049.552,3.406,3.406,0,0,1-.06.623" transform="translate(-259.724 -350.334)" fill="#070203"/><path d="M512.586,440.22h5.76V443.6h-4v.455c0,.444.059.48.408.48h3.2c1.152,0,1.38-.5,1.38-1.127V440.04h1.7v2h1.128v1.427h-1.128v2.638h-1.7v-.72a2.159,2.159,0,0,1-1.488.431h-3.779c-.984,0-1.489-.407-1.489-1.594v-1.907h4V441.5h-4Zm.984,6.307h7.475v3.933h-6.108a1.229,1.229,0,0,1-1.368-1.4Zm5.772,2.65v-1.367h-4.068v.923c0,.372.06.444.408.444Z" transform="translate(-271.801 -350.482)" fill="#070203"/><path d="M18.265,474.392h6.06v1.343H22v1.583a6.584,6.584,0,0,0,2.688,5.012l-1.116,1a8.569,8.569,0,0,1-2.376-2.973,7.439,7.439,0,0,1-2.472,3.189l-1.08-.983a6.175,6.175,0,0,0,2.628-5.192v-1.631h-2Zm8.616,3.4h1.128v1.427H26.881v5.348h-1.7V474.152h1.7Z" transform="translate(-9.925 -368.563)" fill="#070203"/><path d="M40.829,474.392h5.543v2.7c0,2.47-1.1,5.1-4.98,6.51l-.876-1.175c3.192-1.151,4.14-3.19,4.14-4.916v-1.762H40.829Zm8.712,10.179h-1.7V474.152h1.7Z" transform="translate(-22.028 -368.563)" fill="#070203"/><path d="M68.215,475.325c0,1.906,1.6,3.321,3.852,3.92l-.768,1.271a6.723,6.723,0,0,1-4-2.662,6.651,6.651,0,0,1-4,2.662l-.78-1.271c2.268-.6,3.864-2.015,3.864-3.92v-1.019h1.824ZM62.563,482.6h3.827v-2.434h1.824V482.6h3.828v1.355h-9.48Z" transform="translate(-33.674 -368.645)" fill="#070203"/><path d="M84.163,474.392h4.464v2.949a6.4,6.4,0,0,1-3.84,6.235l-.912-1.127a4.982,4.982,0,0,0,3.072-4.964v-1.738H84.163Zm9.252,10.179h-1.62v-5.348h-.84v5.228h-1.62v-10.3h1.62V477.8h.84v-3.645h1.62Z" transform="translate(-44.969 -368.563)" fill="#070203"/><path d="M110.987,483.325a8.345,8.345,0,0,1-2.472-2.973,6.867,6.867,0,0,1-2.5,3.189l-1.128-.959a6.442,6.442,0,0,0,2.664-5.348v-2.925h1.752v2.973a6.833,6.833,0,0,0,2.808,5.048Zm3.684,1.247h-1.7v-5.815h-2.3v-1.439h2.3v-3.165h1.7Z" transform="translate(-56.089 -368.563)" fill="#070203"/><path d="M135.971,480.551h9.48v1.367h-3.828v2.83H139.8v-2.83h-3.827Zm8.736-6.067V479.5h-6.444a1.441,1.441,0,0,1-1.56-1.595v-3.417Zm-1.776,3.681v-2.35h-4.452v1.858c0,.372.108.492.468.492Z" transform="translate(-72.533 -368.739)" fill="#070203"/><path d="M165.439,482.792h1.92v1.355h-9.48v-1.355h1.92v-1.606h1.7v1.606h2.232v-1.606h1.7Zm1.152-3.309v1.355h-6.252a1.467,1.467,0,0,1-1.668-1.642V477h5.9v-.971h-5.9v-1.367h7.764v3.7h-5.9v.54c0,.431.108.576.492.576Z" transform="translate(-84.125 -368.834)" fill="#070203"/><path d="M192.791,475.591c0,2.554-1.524,4.772-5.256,5.144l-.54-1.307c1.92-.192,2.94-.8,3.456-1.535h-2.94v-1.367h3.432c.012-.132.024-.276.024-.407v-.42h-3.456v-1.367h5.28Zm3.516,8.921h-6.216a1.229,1.229,0,0,1-1.368-1.4v-2.087h1.74v1.727c0,.372.06.444.408.444h5.436Zm-3.444-7.913h1.692v-2.446h1.7v7.506h-1.7v-3.633h-1.692Z" transform="translate(-99.53 -368.563)" fill="#070203"/><path d="M214.25,479.4a6.25,6.25,0,0,1-2.436-2,6.02,6.02,0,0,1-2.616,2.362L208.19,478.7a4.033,4.033,0,0,0,2.664-3.753v-.72h1.776v.756c0,1.415.972,2.578,2.58,3.369Zm3.636,5.168h-6.4a1.129,1.129,0,0,1-1.3-1.259v-1.691h5.8v-.479h-5.8v-1.211h7.6v2.9h-5.8v.276c0,.216.048.251.228.251h5.664Zm-.1-5.06h-1.7V477.03h-2.124v-1.439h2.124v-1.439h1.7Z" transform="translate(-110.744 -368.563)" fill="#070203"/><path d="M240.447,480.471h-1.7v-.9a2.163,2.163,0,0,1-1.488.431h-4.14c-.984,0-1.488-.408-1.488-1.595v-4.076h5.94v1.283h-4.176v.767h4.176v1.283h-4.176v.576c0,.443.06.479.408.479h3.564c1.152,0,1.38-.5,1.38-1.127v-3.441h1.7Zm-3.756.1c2.34,0,3.816.648,3.816,2.158s-1.476,2.158-3.816,2.158-3.792-.648-3.792-2.158,1.452-2.158,3.792-2.158m0,3.118c1.368,0,2.111-.252,2.111-.959s-.744-.959-2.111-.959-2.1.251-2.1.959.744.959,2.1.959" transform="translate(-123.145 -368.563)" fill="#070203"/><path d="M254.846,492.433a3.546,3.546,0,0,1-1.008,2.194l-.7-.3a2.357,2.357,0,0,0,.612-1.415h-.8v-1.666h1.9Z" transform="translate(-134.427 -377.624)" fill="#070203"/><path d="M270.161,474c1.956,0,3.048,1.714,3.048,4.82s-1.092,4.808-3.048,4.808-3.048-1.7-3.048-4.808S268.2,474,270.161,474m0,8.321c.792,0,1.368-1.271,1.368-3.5s-.576-3.513-1.368-3.513-1.368,1.283-1.368,3.513.564,3.5,1.368,3.5M276,484.49h-1.7V474.071H276Z" transform="translate(-141.921 -368.482)" fill="#070203"/><path d="M294.6,475.315h1.62v-1.163h1.7v6.39h-1.7v-1.331h-1.584v.828a3.179,3.179,0,0,1-1.356.251H290.4c-1.116,0-1.356-.563-1.356-1.654V476.61h3.492v-.971h-3.492v-1.307H294.3v3.585H290.81v.588c0,.443.049.5.384.5h2.076a3.55,3.55,0,0,0,1.308-.228v-1h1.644v-1.043H294.6Zm-4.344,5.708h7.668v3.549h-1.74v-2.206h-5.928Z" transform="translate(-153.525 -368.563)" fill="#070203"/><path d="M315.14,483.325a8.34,8.34,0,0,1-2.472-2.973,6.868,6.868,0,0,1-2.5,3.189l-1.128-.959a6.442,6.442,0,0,0,2.664-5.348v-2.925h1.752v2.973a6.833,6.833,0,0,0,2.808,5.048Zm3.684,1.247h-1.7v-5.815h-2.3v-1.439h2.3v-3.165h1.7Z" transform="translate(-164.106 -368.563)" fill="#070203"/><path d="M344.69,483.325a8.346,8.346,0,0,1-2.472-2.973,6.867,6.867,0,0,1-2.5,3.189l-1.128-.959a6.442,6.442,0,0,0,2.664-5.348v-2.925h1.752v2.973a6.833,6.833,0,0,0,2.807,5.048Zm3.324-5.528h1.128v1.427h-1.128v5.348h-1.7V474.152h1.7Z" transform="translate(-179.741 -368.563)" fill="#070203"/><path d="M361.769,474.332h6.2V475.7h-2.208v.144a3.909,3.909,0,0,0,2.568,3.573l-.96,1.055a6.239,6.239,0,0,1-2.448-2.11,6.013,6.013,0,0,1-2.712,2.362l-.972-1.079a4.065,4.065,0,0,0,2.8-3.8V475.7h-2.267Zm8.951,10.179h-6.215a1.23,1.23,0,0,1-1.368-1.4V480.9h1.74v1.846c0,.372.06.444.408.444h5.436Zm-.048-2.853h-1.7v-7.506h1.7Z" transform="translate(-191.724 -368.563)" fill="#070203"/><path d="M397.2,474.491c0,1.942,1.68,2.9,3.864,3.333l-.72,1.2a6.249,6.249,0,0,1-4.044-2.134,6.1,6.1,0,0,1-4.02,2.134l-.72-1.2c2.184-.431,3.816-1.391,3.816-3.333V474H397.2Zm-5.628,5.695h9.48v1.367H397.22v2.938H395.4v-2.938h-3.827Z" transform="translate(-207.763 -368.482)" fill="#070203"/><path d="M413.177,474.332h6.072v1.343h-2.256c.036,1.619,1.068,2.626,2.568,3.322l-.96,1.055a6.152,6.152,0,0,1-2.448-1.954,5.592,5.592,0,0,1-2.532,2.47l-.972-1.043a4.125,4.125,0,0,0,2.616-3.849h-2.087Zm5.171,5.971c2.34,0,3.816.755,3.816,2.29s-1.476,2.29-3.816,2.29-3.792-.755-3.792-2.29,1.452-2.29,3.792-2.29m0,3.381c1.368,0,2.112-.359,2.112-1.091s-.744-1.091-2.112-1.091-2.1.359-2.1,1.091.744,1.091,2.1,1.091m3.756-3.5h-1.7v-2.518h-1.932v-1.439H420.4v-2.074h1.7Z" transform="translate(-218.924 -368.563)" fill="#070203"/><path d="M437.09,492.433a3.546,3.546,0,0,1-1.008,2.194l-.7-.3a2.357,2.357,0,0,0,.612-1.415h-.8v-1.666h1.9Z" transform="translate(-230.852 -377.624)" fill="#070203"/><path d="M448.776,474.5h2.244v-.959h1.764v.959h2.244v1.343h-2.16a3.6,3.6,0,0,0,2.6,2.266l-.9,1.091a5.545,5.545,0,0,1-2.616-1.858,5.357,5.357,0,0,1-2.832,2.11l-.888-1.091a3.464,3.464,0,0,0,2.712-2.518h-2.172Zm8.94,9.748h-1.7V480.83a2.619,2.619,0,0,1-1.7.491h-1.6v2.806H451v-2.806h-2.52v-1.343h5.987c1.176,0,1.548-.563,1.548-1.126v-5.024h1.7Z" transform="translate(-237.753 -368.239)" fill="#070203"/><path d="M473.538,473.871a2.764,2.764,0,0,1,2.928,2.014h1.584V474h1.7v5.527h-1.7v-2.218h-1.536a3.024,3.024,0,1,1-2.976-3.441m0,4.377a1.574,1.574,0,1,0-1.4-1.559,1.391,1.391,0,0,0,1.4,1.559m.324,2.6h4.188v-.912h1.7v4.484h-6.228a1.229,1.229,0,0,1-1.368-1.4v-3.082h1.7Zm4.188,2.29v-1.007h-4.188v.564c0,.372.06.443.408.443Z" transform="translate(-249.534 -368.414)" fill="#070203"/><path d="M500.459,479.251h3.852V478.3h-1.632c-.9,0-1.452-.252-1.452-1.415v-2.482h7.908v1.283H503.1v.9c0,.42.06.444.408.444h5.724V478.3h-3.144v.947h3.852v1.307h-9.48Zm4.728,1.727c2.388,0,4,.563,4,2.062s-1.608,2.062-4,2.062-3.984-.563-3.984-2.062,1.6-2.062,3.984-2.062m0,2.938c1.38,0,2.22-.192,2.22-.876s-.84-.875-2.22-.875-2.22.192-2.22.875.84.876,2.22.876" transform="translate(-265.384 -368.698)" fill="#070203"/><path d="M524.972,473.871a2.943,2.943,0,0,1,2.388,1.056h2.148V474h1.7v6.1h-1.7v-1.247h-2.233a2.955,2.955,0,0,1-2.3.947,2.968,2.968,0,1,1,0-5.935m0,4.7c.84,0,1.368-.72,1.368-1.727s-.528-1.714-1.368-1.714-1.392.707-1.392,1.714.54,1.727,1.392,1.727m2.484,1.582c2.34,0,3.816.756,3.816,2.291s-1.476,2.29-3.816,2.29-3.792-.756-3.792-2.29,1.452-2.291,3.792-2.291m0,3.382c1.368,0,2.112-.36,2.112-1.091s-.745-1.091-2.112-1.091-2.1.36-2.1,1.091.744,1.091,2.1,1.091m.456-6h1.6v-1.295h-1.572a3.555,3.555,0,0,1-.024,1.295" transform="translate(-276.76 -368.414)" fill="#070203"/><path d="M549.016,479.86a6.408,6.408,0,0,1-2.459-2.051,6.118,6.118,0,0,1-2.712,2.47l-1-1.079a4.443,4.443,0,0,0,2.735-3.957v-1.019h1.776v1.1c0,1.462,1.044,2.674,2.64,3.477Zm-.48.359c2.316,0,3.744.792,3.744,2.326s-1.428,2.326-3.744,2.326-3.744-.791-3.744-2.326,1.428-2.326,3.744-2.326m0,3.453c1.344,0,2.052-.4,2.052-1.127s-.708-1.127-2.052-1.127-2.039.4-2.039,1.127.708,1.127,2.039,1.127m3.684-7.541h1.128v1.427H552.22v2.53h-1.7v-5.935h1.7Z" transform="translate(-287.813 -368.563)" fill="#070203"/><path d="M579.114,475.519c0,2.565-1.967,4.544-5.436,4.892l-.54-1.271c2.988-.347,4.151-1.69,4.151-3.033v-.432h-3.635v-1.343h5.459Zm-.636,4.652c2.316,0,3.744.815,3.744,2.35s-1.428,2.35-3.744,2.35-3.744-.816-3.744-2.35,1.428-2.35,3.744-2.35m0,3.5c1.344,0,2.052-.419,2.052-1.151s-.708-1.151-2.052-1.151-2.04.42-2.04,1.151.708,1.151,2.04,1.151m3.684-7.517h1.128v1.427h-1.128v2.482h-1.7v-5.911h1.7Z" transform="translate(-303.839 -368.563)" fill="#070203"/><path d="M604.923,484.49h-1.7V482.9a2.62,2.62,0,0,1-1.7.491h-5.652V482.02h5.808c1.176,0,1.548-.563,1.548-1.127v-6.822h1.7ZM599.259,474c1.932,0,3.108,1.355,3.108,3.453s-1.177,3.453-3.108,3.453-3.1-1.355-3.1-3.453,1.176-3.453,3.1-3.453m0,5.635c.864,0,1.44-.827,1.44-2.182s-.576-2.182-1.44-2.182-1.44.827-1.44,2.182.588,2.182,1.44,2.182" transform="translate(-315.862 -368.482)" fill="#070203"/><path d="M627.89,473.872a3.038,3.038,0,0,1,2.364.947h2.172V474h1.7v5.443h-1.7v-.875h-2.244a3.078,3.078,0,0,1-2.292.863,2.79,2.79,0,1,1,0-5.563m0,4.316a1.543,1.543,0,1,0-1.38-1.534,1.372,1.372,0,0,0,1.38,1.534m6.335,6.235h-6.4a1.129,1.129,0,0,1-1.3-1.259V481.51h5.8v-.444h-5.8v-1.211h7.6v2.866h-5.8v.24c0,.216.048.251.228.251h5.664Zm-3.384-7.146h1.584V476.1h-1.572a4.028,4.028,0,0,1,.049.552,3.408,3.408,0,0,1-.06.623" transform="translate(-331.214 -368.415)" fill="#070203"/><path d="M647.7,474.332h5.76v3.381h-4v.455c0,.444.06.48.408.48h3.2c1.152,0,1.38-.5,1.38-1.127v-3.369h1.7v2h1.128v1.427h-1.128v2.638h-1.7v-.72a2.16,2.16,0,0,1-1.488.432h-3.78c-.984,0-1.488-.408-1.488-1.595V476.43h4v-.815h-4Zm.984,6.307h7.476v3.933h-6.108a1.229,1.229,0,0,1-1.368-1.4Zm5.772,2.65v-1.367h-4.068v.923c0,.372.06.443.408.443Z" transform="translate(-343.291 -368.563)" fill="#070203"/><g transform="translate(0.72 59.414)"><path d="M88.977,409.736H11.551a11.029,11.029,0,1,1,0-22.058H88.977a11.029,11.029,0,1,1,0,22.058" transform="translate(-0.5 -387.678)" fill="#002477"/><path d="M45.753,403.208H55.885v1.462H51.794v2.9h-1.95v-2.9H45.753Zm2.68-5.307h4.758v-1.4h1.9v5.756H48.2a1.541,1.541,0,0,1-1.667-1.7V396.5h1.9Zm4.758,2.936v-1.513H48.433v.987c0,.4.115.526.5.526Z" transform="translate(-17.599 -391.024)" fill="#fff"/><path d="M73.472,407.52H71.715V401.8H70.8v5.589H69.047V405.93a2.273,2.273,0,0,1-1.475.475h-2a1.557,1.557,0,0,1-1.782-1.757v-8.012H68.38v1.449H65.61v6.384c0,.4.116.5.4.5H67.7c.885,0,1.346-.423,1.346-1.09v-7.5H70.8v3.9h.911v-3.9h1.757Z" transform="translate(-24.413 -390.977)" fill="#fff"/><path d="M80.753,396.889h1.873v-1.026h1.821v1.026h1.731v1.346H80.753Zm2.8,1.59a2.356,2.356,0,1,1-2.578,2.346,2.31,2.31,0,0,1,2.578-2.346m0,3.487a1.022,1.022,0,0,0,.987-1.141,1.034,1.034,0,0,0-.987-1.154,1.051,1.051,0,0,0-1,1.154,1.039,1.039,0,0,0,1,1.141m3.194,1.307c2.617,0,4.182.68,4.182,2.192s-1.565,2.179-4.182,2.179-4.155-.679-4.155-2.179,1.552-2.192,4.155-2.192m0,3.116c1.514,0,2.36-.231,2.36-.924s-.846-.923-2.36-.923-2.334.219-2.334.923.834.924,2.334.924m4.168-3.192H89.179v-2.859h-.808v2.538H86.64v-6.691h1.732v2.692h.808v-2.692h1.731Z" transform="translate(-30.823 -390.781)" fill="#fff"/><path d="M104.213,406.187a8.922,8.922,0,0,1-2.642-3.18,7.342,7.342,0,0,1-2.668,3.411L97.7,405.392a6.887,6.887,0,0,0,2.847-5.717v-3.128h1.873v3.179a7.307,7.307,0,0,0,3,5.4Zm3.553-5.91h1.206V401.8h-1.206v5.717h-1.821V396.381h1.821Z" transform="translate(-37.226 -390.977)" fill="#fff"/></g><g transform="translate(0 130.417)"><path d="M88.977,537.892H11.551a11.029,11.029,0,1,1,0-22.058H88.977a11.029,11.029,0,1,1,0,22.058" transform="translate(-0.5 -515.834)" fill="#002477"/><path d="M45.752,530.175H55.884v1.435H52.011v1.949H50.138V531.61H45.752Zm9.3-5.435v4.628H47.945c-1,0-1.372-.474-1.372-1.411V524.74Zm0,10.947H48.214a1.314,1.314,0,0,1-1.462-1.5v-1.9h1.886V533.8c0,.4.064.474.436.474h5.977Zm-1.9-7.666v-1.935H48.471v1.5c0,.4.026.436.41.436Z" transform="translate(-17.598 -519.21)" fill="#fff"/><path d="M73.266,535.626H71.445v-1.705a2.8,2.8,0,0,1-1.821.526H63.583v-1.462h6.208c1.257,0,1.654-.6,1.654-1.2v-7.294h1.821ZM67.213,524.41c2.065,0,3.322,1.449,3.322,3.691s-1.257,3.692-3.322,3.692S63.9,530.345,63.9,528.1s1.257-3.691,3.309-3.691m0,6.025c.923,0,1.539-.885,1.539-2.333s-.616-2.333-1.539-2.333-1.539.884-1.539,2.333.628,2.333,1.539,2.333" transform="translate(-24.336 -519.085)" fill="#fff"/><path d="M86.486,534.34a8.934,8.934,0,0,1-2.642-3.179,7.338,7.338,0,0,1-2.668,3.41l-1.205-1.026a6.887,6.887,0,0,0,2.847-5.717V524.7h1.873v3.179a7.307,7.307,0,0,0,3,5.4Zm3.553-5.91h1.206v1.526H90.039v5.717H88.218V524.534h1.821Z" transform="translate(-30.528 -519.132)" fill="#fff"/><path d="M98.708,524.906h2.552v-1.013h1.847v1.013h2.5v1.371h-6.9Zm3.476,1.641c2.064,0,3.193.949,3.193,2.282s-1.129,2.295-3.193,2.295-3.207-.962-3.207-2.295,1.129-2.282,3.207-2.282m1.975,4.795c2.54,0,4.053.73,4.053,2.2s-1.513,2.2-4.053,2.2-4.053-.731-4.053-2.2,1.5-2.2,4.053-2.2m-1.975-1.423c.949,0,1.436-.436,1.436-1.09s-.487-1.09-1.436-1.09-1.463.448-1.463,1.09.513,1.09,1.463,1.09m1.975,4.577c1.462,0,2.244-.3,2.244-.949s-.782-.935-2.244-.935-2.232.282-2.232.935.783.949,2.232.949m3.989-7.487h1.206v1.526h-1.206v2.756h-1.821v-7h1.821Z" transform="translate(-37.607 -518.889)" fill="#fff"/></g><path d="M19.93,569.251h2.261V567.9h1.6v5.285H19.571c-.967,0-1.237-.4-1.237-1.293V567.9h1.6Zm-.63,4.779h7.073v3.475H24.743V575.29H19.3Zm2.89-2.046v-1.529H19.93v1.1c0,.348.068.427.394.427Zm4.183-2.215h1.057v1.338H26.374v2.451h-1.6v-5.825h1.6Z" transform="translate(-10.291 -407.563)" fill="#070203"/><path d="M39.114,567.9h5.4v3.171H40.767v.427c0,.416.057.45.382.45h3c1.079,0,1.293-.472,1.293-1.057v-3.16h1.6v1.878H48.1v1.338H47.042v2.474h-1.6v-.675a2.021,2.021,0,0,1-1.394.405H40.508c-.922,0-1.394-.382-1.394-1.5v-1.788h3.745V569.1H39.114Zm.922,5.915h7.006V577.5H41.318a1.153,1.153,0,0,1-1.282-1.316Zm5.409,2.485v-1.282H41.633v.866c0,.348.056.416.382.416Z" transform="translate(-21.286 -407.563)" fill="#070203"/><path d="M62.144,569.593c1.8,0,2.811.933,2.811,2.2a2.178,2.178,0,0,1-1.979,2.136v1.012H64.55c1.1,0,1.451-.529,1.451-1.057v-6.42h1.6v9.771H66v-1.5a2.453,2.453,0,0,1-1.6.462H58.939v-1.259h2.418v-1a2.148,2.148,0,0,1-1.99-2.147c0-1.271.967-2.2,2.777-2.2m-3.07-1.451h2.238v-.911h1.664v.911h2.17v1.214H59.074Zm3.07,4.768a1.124,1.124,0,1,0,0-2.226,1.122,1.122,0,1,0,0,2.226" transform="translate(-31.775 -407.297)" fill="#070203"/><path d="M86.886,572.31H95.77v1.259h-3.4v1.709H90.732v-1.709H86.886Zm4.431-5.15c2.272,0,3.846.641,3.846,2.271s-1.574,2.271-3.846,2.271-3.846-.63-3.846-2.271,1.574-2.271,3.846-2.271m3.722,9.985H89.045a1.153,1.153,0,0,1-1.282-1.316v-1.664h1.653v1.327c0,.348.056.416.382.416h5.24Zm-3.722-6.623c1.316,0,2.193-.281,2.193-1.09s-.877-1.079-2.193-1.079-2.182.281-2.182,1.079.866,1.09,2.182,1.09" transform="translate(-46.562 -407.259)" fill="#070203"/><path d="M109.868,567.472a2.756,2.756,0,0,1,2.238.989h2.013v-.866h1.6v5.724h-1.6v-1.169h-2.092a2.769,2.769,0,0,1-2.159.888,2.783,2.783,0,1,1,0-5.565m0,4.408c.788,0,1.282-.675,1.282-1.62s-.494-1.608-1.282-1.608-1.3.664-1.3,1.608.506,1.62,1.3,1.62m2.328,1.484c2.193,0,3.576.708,3.576,2.147s-1.383,2.147-3.576,2.147-3.553-.708-3.553-2.147,1.36-2.147,3.553-2.147m0,3.17c1.282,0,1.98-.337,1.98-1.023s-.7-1.023-1.98-1.023-1.968.337-1.968,1.023.7,1.023,1.968,1.023m.428-5.622h1.5V569.7h-1.473a3.335,3.335,0,0,1-.022,1.214" transform="translate(-57.229 -407.424)" fill="#070203"/><path d="M132.249,576.335a7.835,7.835,0,0,1-2.316-2.788,6.435,6.435,0,0,1-2.339,2.99l-1.057-.9a6.042,6.042,0,0,0,2.5-5.014V567.88h1.642v2.789a6.409,6.409,0,0,0,2.631,4.733Zm3.115-5.184h1.057v1.338h-1.057v5.015h-1.6v-9.771h1.6Z" transform="translate(-67.541 -407.563)" fill="#070203"/><path d="M148.512,573.734H157.4v1.282h-3.587v2.654H152.1v-2.654h-3.587Zm8.186-5.689v4.7H150.66a1.351,1.351,0,0,1-1.462-1.495v-3.2Zm-1.664,3.452v-2.2h-4.172v1.743c0,.349.1.461.438.461Z" transform="translate(-79.168 -407.728)" fill="#070203"/><path d="M169.054,571.639h6.241a4.16,4.16,0,0,0,.18-1.079v-1.337h-5.7v-1.249h7.365v2.519a4.7,4.7,0,0,1-.191,1.147h.989v1.271h-3.609v1.349h2.8v3.373h-1.72v-2.159H169.74v-1.214h2.924v-1.349h-3.61Z" transform="translate(-90.037 -407.69)" fill="#070203"/><path d="M198.913,567.016h1.169a10.771,10.771,0,0,0,0,10.479h-1.169a9.773,9.773,0,0,1-1.507-5.251,10.076,10.076,0,0,1,1.507-5.228" transform="translate(-105.038 -407.183)" fill="#070203"/><path d="M206.979,577.034c-1.8,0-2.789-1.394-2.789-4.554s.989-4.554,2.789-4.554c1.822,0,2.834,1.406,2.834,4.554s-1.012,4.554-2.834,4.554m0-1.26c.967,0,1.282-1.2,1.282-3.294s-.315-3.283-1.282-3.283-1.237,1.191-1.237,3.283.281,3.294,1.237,3.294" transform="translate(-108.628 -407.665)" fill="#070203"/><path d="M217.515,576.39c0-1.2,1.316-2.6,2.339-3.621.731-.742,1.417-1.383,1.417-2.238,0-.888-.394-1.248-1.181-1.2-.585.033-1.158.674-1.507,1.507l-1.327-.686a3.361,3.361,0,0,1,2.912-2.2,2.321,2.321,0,0,1,2.721,2.53c-.023,1.237-1.08,2.339-2.013,3.261a6.421,6.421,0,0,0-1.484,1.889h3.666v1.248h-5.544Z" transform="translate(-115.541 -407.674)" fill="#070203"/><rect width="4.15" height="1.248" transform="translate(108.464 164.072)" fill="#070203"/><path d="M242.452,576.39c0-1.2,1.316-2.6,2.339-3.621.731-.742,1.417-1.383,1.417-2.238,0-.888-.394-1.248-1.181-1.2-.585.033-1.158.674-1.507,1.507l-1.327-.686a3.361,3.361,0,0,1,2.913-2.2,2.321,2.321,0,0,1,2.721,2.53c-.023,1.237-1.08,2.339-2.013,3.261a6.422,6.422,0,0,0-1.484,1.889H248v1.248h-5.544Z" transform="translate(-128.735 -407.674)" fill="#070203"/><path d="M256.527,575.756h1.743v-5.375a5.941,5.941,0,0,1-1.406.731l-.7-.967a5.358,5.358,0,0,0,2.339-1.957h1.349v7.568h1.462V577h-4.79Z" transform="translate(-136.129 -407.804)" fill="#070203"/><path d="M271.739,577c-1.462,0-2.9-.787-2.913-2.5a3.131,3.131,0,0,1,1.552-2.485,2.447,2.447,0,0,1-1.226-2.058c0-1.507,1.316-2.227,2.688-2.227a2.37,2.37,0,0,1,2.564,2.215,2.468,2.468,0,0,1-1.259,1.956,2.835,2.835,0,0,1,1.7,2.418c.011,1.878-1.5,2.676-3.1,2.676m-.011-4.306a2.022,2.022,0,0,0-1.327,1.72,1.284,1.284,0,0,0,1.462,1.338,1.32,1.32,0,0,0,1.44-1.237c0-.933-.63-1.461-1.574-1.821m.056-3.756a.975.975,0,0,0-1.069,1.046,1.59,1.59,0,0,0,1.069,1.337,1.7,1.7,0,0,0,1.057-1.337.952.952,0,0,0-1.057-1.046" transform="translate(-142.827 -407.563)" fill="#070203"/><path d="M285.473,577.109a2.68,2.68,0,0,1-2.89-3.069,8.222,8.222,0,0,1,.787-2.777c.54-1.17,1.057-2.125,1.664-3.193h1.675a33.557,33.557,0,0,0-1.687,3.058,1.974,1.974,0,0,1,.821-.157,2.754,2.754,0,0,1,2.485,2.968c0,1.956-1.169,3.171-2.856,3.171m0-4.913c-.844,0-1.35.821-1.35,1.821,0,1.159.45,1.8,1.316,1.8s1.383-.641,1.383-1.877c0-1.034-.5-1.743-1.35-1.743" transform="translate(-150.105 -407.741)" fill="#070203"/><rect width="4.149" height="1.248" transform="translate(139.104 164.072)" fill="#070203"/><path d="M310.331,567.877a2.61,2.61,0,0,1,2.867,2.991,9.383,9.383,0,0,1-.742,2.8,24.511,24.511,0,0,1-1.563,3.17h-1.664a30.336,30.336,0,0,0,1.552-3.035,1.832,1.832,0,0,1-.99.112A2.7,2.7,0,0,1,307.452,571a2.84,2.84,0,0,1,2.879-3.126m-.023,4.824c.877,0,1.338-.876,1.35-1.821.022-1.147-.506-1.709-1.327-1.709s-1.372.675-1.372,1.81c0,.989.495,1.72,1.35,1.72" transform="translate(-163.264 -407.639)" fill="#070203"/><path d="M321.594,575.756h1.743v-5.375a5.941,5.941,0,0,1-1.406.731l-.7-.967a5.358,5.358,0,0,0,2.339-1.957h1.349v7.568h1.462V577h-4.79Z" transform="translate(-170.556 -407.804)" fill="#070203"/><path d="M337.164,577.109a2.68,2.68,0,0,1-2.89-3.069,8.222,8.222,0,0,1,.787-2.777c.54-1.17,1.057-2.125,1.664-3.193H338.4a33.542,33.542,0,0,0-1.687,3.058,1.974,1.974,0,0,1,.821-.157,2.754,2.754,0,0,1,2.485,2.968c0,1.956-1.169,3.171-2.856,3.171m0-4.913c-.843,0-1.349.821-1.349,1.821,0,1.159.45,1.8,1.316,1.8s1.383-.641,1.383-1.877c0-1.034-.495-1.743-1.35-1.743" transform="translate(-177.455 -407.741)" fill="#070203"/><path d="M347.649,576.39c0-1.2,1.316-2.6,2.339-3.621.731-.742,1.417-1.383,1.417-2.238,0-.888-.394-1.248-1.181-1.2-.585.033-1.158.674-1.507,1.507l-1.327-.686a3.361,3.361,0,0,1,2.912-2.2,2.322,2.322,0,0,1,2.721,2.53c-.023,1.237-1.08,2.339-2.013,3.261a6.429,6.429,0,0,0-1.484,1.889h3.666v1.248h-5.544Z" transform="translate(-184.395 -407.674)" fill="#070203"/><path d="M361.865,577.5h-1.147a10.926,10.926,0,0,0,0-10.479h1.158a9.97,9.97,0,0,1,1.507,5.228,9.572,9.572,0,0,1-1.518,5.251" transform="translate(-191.447 -407.183)" fill="#070203"/></g><g transform="translate(37.833 842.333)"><g transform="translate(0 0)" clip-path="url(#a)"><path d="M.064,8.746,2.853,6.157c.724-.7,1.115-1.132,1.115-1.755A1.117,1.117,0,0,0,2.735,3.276a1.119,1.119,0,0,0-1.2,1.213H0A2.49,2.49,0,0,1,2.756,1.976c1.662,0,2.767.958,2.767,2.318,0,.893-.429,1.624-2.027,3.087L2.317,8.541v.043H5.63V9.927H.075Z" transform="translate(0 -0.968)" fill="#070203"/><path d="M13.081,6.005c0-2.561,1.185-4.029,3.121-4.029s3.121,1.468,3.121,4.029c0,2.579-1.18,4.031-3.121,4.031s-3.121-1.463-3.121-4.031M16.2,8.692c.9,0,1.474-.877,1.469-2.687.005-1.792-.574-2.691-1.469-2.7s-1.469.9-1.469,2.7c-.011,1.81.568,2.687,1.469,2.687" transform="translate(-6.409 -0.968)" fill="#070203"/><path d="M27.425,8.746l2.788-2.589c.724-.7,1.115-1.132,1.115-1.755a1.219,1.219,0,0,0-2.434.087H27.361a2.49,2.49,0,0,1,2.756-2.513c1.662,0,2.767.958,2.767,2.318,0,.893-.429,1.624-2.027,3.087l-1.18,1.159v.043h3.314V9.927H27.436Z" transform="translate(-13.406 -0.968)" fill="#070203"/><path d="M40.484,7.716h1.63c.027.586.59.97,1.34.975.772-.005,1.325-.438,1.319-1.072S44.216,6.53,43.3,6.524h-.719v-1.2H43.3c.767,0,1.3-.423,1.3-1.04a1.011,1.011,0,0,0-1.137-1.007,1.144,1.144,0,0,0-1.276.986H40.645c.027-1.349,1.228-2.286,2.82-2.286,1.62,0,2.7.97,2.692,2.209a1.656,1.656,0,0,1-1.469,1.658v.065a1.773,1.773,0,0,1,1.759,1.82c.011,1.343-1.25,2.308-3,2.308-1.705,0-2.928-.949-2.96-2.319" transform="translate(-19.836 -0.968)" fill="#070203"/><path d="M54.049,15.109a.885.885,0,0,1,.9-.9.9.9,0,0,1,.89.9.909.909,0,0,1-.89.91.894.894,0,0,1-.9-.91" transform="translate(-26.483 -6.963)" fill="#070203"/><path d="M61.4,10.031H59.784V3.736h-.043l-1.78,1.127V3.422l1.919-1.235H61.4Z" transform="translate(-28.4 -1.072)" fill="#070203"/><path d="M68.035,6.005c0-2.561,1.185-4.029,3.121-4.029s3.121,1.468,3.121,4.029c0,2.579-1.18,4.031-3.121,4.031s-3.121-1.463-3.121-4.031m3.121,2.687c.9,0,1.474-.877,1.469-2.687.005-1.792-.574-2.691-1.469-2.7s-1.469.9-1.469,2.7c-.011,1.81.568,2.687,1.469,2.687" transform="translate(-33.336 -0.968)" fill="#070203"/><path d="M81.926,15.109a.885.885,0,0,1,.9-.9.9.9,0,0,1,.89.9.909.909,0,0,1-.89.91.894.894,0,0,1-.9-.91" transform="translate(-40.142 -6.963)" fill="#070203"/><path d="M87.088,6.005c0-2.561,1.185-4.029,3.121-4.029S93.33,3.444,93.33,6.005c0,2.579-1.18,4.031-3.121,4.031s-3.121-1.463-3.121-4.031m3.121,2.687c.9,0,1.474-.877,1.469-2.687.005-1.792-.574-2.691-1.469-2.7s-1.469.9-1.469,2.7c-.011,1.81.568,2.687,1.469,2.687" transform="translate(-42.671 -0.968)" fill="#070203"/><path d="M101.263,6.189c.006-2.649,1.255-4.213,3.2-4.213a2.644,2.644,0,0,1,2.788,2.285H105.66a1.147,1.147,0,0,0-1.2-.888c-1.056,0-1.609.959-1.619,2.5h.075A2.174,2.174,0,0,1,104.9,4.77a2.4,2.4,0,0,1,2.434,2.535,2.706,2.706,0,0,1-2.938,2.73c-1.6-.005-3.137-.975-3.132-3.846m3.121,2.557a1.354,1.354,0,0,0,1.383-1.4,1.352,1.352,0,0,0-1.362-1.4,1.4,1.4,0,0,0-1.4,1.4,1.376,1.376,0,0,0,1.383,1.4" transform="translate(-49.616 -0.968)" fill="#070203"/><path d="M117.489,1.529H119a10.344,10.344,0,0,0-1.512,5.189,10.406,10.406,0,0,0,1.512,5.2h-1.512a8.857,8.857,0,0,1-1.651-5.2,8.824,8.824,0,0,1,1.651-5.189" transform="translate(-56.758 -0.749)" fill="#070203"/><path d="M130.986,1.852a11.969,11.969,0,0,1-.231,2.751h1.292V5.72h-8.933V4.6h6.263a11.8,11.8,0,0,0,.247-2.437h-5.416V1.061h6.778Zm-6.81,4.907h6.777v3.607h-6.777Zm5.415,1.083h-4.075V9.262h4.075Z" transform="translate(-60.323 -0.52)" fill="#070203"/><path d="M143.176,11.918h-1.512a10.406,10.406,0,0,0,1.512-5.2,10.344,10.344,0,0,0-1.512-5.189h1.512a8.826,8.826,0,0,1,1.651,5.189,8.861,8.861,0,0,1-1.651,5.2" transform="translate(-69.412 -0.749)" fill="#070203"/><path d="M156.455,1.316a.843.843,0,0,1,.858.823.837.837,0,0,1-.858.813.847.847,0,0,1-.869-.813.853.853,0,0,1,.869-.823m-.794,2.405h1.587V9.6h-1.587Z" transform="translate(-76.233 -0.645)" fill="#070203"/><path d="M162.851,11.841h-1.587V5.959h1.512V6.988h.064a1.759,1.759,0,0,1,1.748-1.1,1.965,1.965,0,0,1,2.005,2.209v3.749h-1.576V8.374a1.021,1.021,0,0,0-1.052-1.159,1.093,1.093,0,0,0-1.115,1.224Z" transform="translate(-79.016 -2.883)" fill="#070203"/><path d="M187.348,6.1h-8.9V5h2.005V3.815a1.6,1.6,0,0,1-1.115-1.441c0-1.191,1.389-1.9,3.56-1.906,2.155.006,3.545.715,3.55,1.906A1.615,1.615,0,0,1,185.3,3.826V5h2.048Zm-4.461.52c2.107-.006,3.389.628,3.4,1.766-.011,1.165-1.292,1.787-3.4,1.787-2.139,0-3.421-.622-3.421-1.787,0-1.137,1.282-1.771,3.421-1.766m.011-3.434c1.362.006,2.134-.27,2.134-.812s-.772-.845-2.134-.845c-1.378,0-2.145.292-2.134.845-.011.542.756.818,2.134.812m-.011,5.959c1.325,0,2.022-.255,2.027-.758-.005-.488-.7-.721-2.027-.726-1.351.005-2.032.238-2.027.726-.006.5.676.758,2.027.758M183.938,5V4.167a7.864,7.864,0,0,1-1.04.059,9.274,9.274,0,0,1-1.062-.059V5Z" transform="translate(-87.435 -0.229)" fill="#070203"/><path d="M202.792,4.881l-.719,1.083A3.712,3.712,0,0,1,199.843,4a3.878,3.878,0,0,1-2.338,2.15l-.761-1.095a3.238,3.238,0,0,0,2.391-3.185V.8h1.372V1.881a3.072,3.072,0,0,0,2.284,3M198.31,6.7H199.7V8.77h5.308V9.875h-6.7ZM203.275.19h1.372V3.04h1.319v1.17h-1.319V7.416h-1.372Z" transform="translate(-96.4 -0.093)" fill="#070203"/><path d="M223.532,2.205a17.584,17.584,0,0,1-.252,3.3h1.292V6.625h-3.807v3.986h-1.372V6.625h-3.721V5.509h6.22a15.273,15.273,0,0,0,.279-3.087h-5.48V1.317h6.841Z" transform="translate(-105.674 -0.646)" fill="#070203"/><path d="M239.788,2.262h-1.973a2.7,2.7,0,0,0,2.317,2.448L239.5,5.772a3.568,3.568,0,0,1-2.338-1.707A3.628,3.628,0,0,1,234.8,6.032l-.643-1.073a2.879,2.879,0,0,0,2.3-2.7h-1.963V1.179h1.963V.106h1.383V1.179h1.952Zm-.676,4.008c2.08.006,3.362.672,3.368,1.852-.006,1.2-1.287,1.891-3.368,1.885s-3.356-.688-3.356-1.885c0-1.18,1.287-1.847,3.356-1.852m0,2.687c1.319,0,2-.292,2.005-.834-.006-.525-.686-.791-2.005-.791-1.292,0-1.995.266-1.995.791,0,.542.7.834,1.995.834m.386-6.164h1.587V.149h1.362V6.107h-1.362V3.9H239.5Z" transform="translate(-114.732 -0.052)" fill="#070203"/><path d="M263.113,4.394c-.006,2.167-1.083,3.521-2.574,3.521s-2.579-1.354-2.574-3.521c-.005-2.151,1.078-3.51,2.574-3.51s2.568,1.36,2.574,3.51m-2.574,2.264c.761.005,1.26-.8,1.265-2.264s-.5-2.264-1.265-2.264c-.746,0-1.255.8-1.255,2.264s.509,2.269,1.255,2.264m3.7-6.468h1.372V3.906h1.437V5.054h-1.437v4.994h-1.372Z" transform="translate(-126.397 -0.093)" fill="#070203"/><path d="M276.472,8.471h8.933V9.6h-8.933Zm7.957-1.4h-6.906V1.614h6.831V2.729h-5.437v1.04h5.212V4.853h-5.212V5.98h5.512Z" transform="translate(-135.465 -0.791)" fill="#070203"/><path d="M295.084,4.81h3.764V4.36c-1.726-.087-2.606-.471-2.6-1.23-.011-.855,1.1-1.24,3.282-1.234,2.166-.006,3.276.379,3.281,1.234-.006.753-.879,1.143-2.6,1.23V4.81h3.764V5.8h-8.9Zm8.44-3.163h-8.011V.682h3.335V0h1.373V.682h3.3Zm-7.411,4.561H302.9V8.461h-5.394v.466h5.652V9.89h-7.035V7.561h5.384v-.4h-5.395ZM299.534,3.5c1.314.006,1.834-.109,1.834-.369s-.52-.357-1.834-.357c-1.33,0-1.823.092-1.823.357s.494.374,1.823.369" transform="translate(-144.584 0)" fill="#070203"/><path d="M320.9,2.129V1.977H318.94V.872h5.3V1.977H322.3V2.14a3.022,3.022,0,0,0,2.242,2.871L323.862,6.1a3.732,3.732,0,0,1-2.247-1.955,3.87,3.87,0,0,1-2.364,2.162l-.7-1.127A3.167,3.167,0,0,0,320.9,2.129m-.547,4.648h1.372v2h5.34V9.885h-6.713Zm6.477.628h-1.362V3.873h-1.6V2.758h1.6V.211h1.362Z" transform="translate(-156.084 -0.104)" fill="#070203"/><path d="M343.411,6.755l-.8,1.105a4.578,4.578,0,0,1-2.333-2.714A4.715,4.715,0,0,1,337.846,8.1L337.02,6.95a4.741,4.741,0,0,0,2.541-4.528V.948h1.383V2.422a4.539,4.539,0,0,0,2.466,4.333M343.937.19h1.383v9.88h-1.383Z" transform="translate(-165.132 -0.093)" fill="#070203"/><path d="M361.284,1.956h-1.941A2.832,2.832,0,0,0,361.6,4.675l-.654,1.083a3.65,3.65,0,0,1-2.257-1.837,3.884,3.884,0,0,1-2.4,2.172L355.59,5a3.2,3.2,0,0,0,2.37-3.044h-1.995V.851h5.319Zm-1,4.279c2.032-.006,3.287.693,3.292,1.9s-1.26,1.923-3.292,1.918c-2.064.006-3.351-.709-3.346-1.918s1.282-1.9,3.346-1.9m0,2.741c1.266,0,1.941-.282,1.941-.846s-.675-.829-1.941-.823c-1.281-.006-1.983.271-1.973.823-.011.564.692.846,1.973.846M362.11.19h1.372V2.476H364.8V3.6h-1.319V6.04H362.11Z" transform="translate(-174.231 -0.093)" fill="#070203"/></g></g></g></svg>