<svg xmlns="http://www.w3.org/2000/svg" xmlns:xlink="http://www.w3.org/1999/xlink" width="1272.592" height="339" viewBox="0 0 1272.592 339"><defs><clipPath id="a"><rect width="386.844" height="22.671" fill="none"/></clipPath></defs><g transform="translate(-372.408 -860)"><g transform="translate(0 15.243)"><path d="M176.609,342.774H22.5a21.953,21.953,0,1,1,0-43.906H176.609a21.953,21.953,0,1,1,0,43.906" transform="translate(1019.498 545.889)" fill="#002477"/><path d="M46.067,309.3h4.544v-2.27h3.7v2.27h4.825v2.857h-4.7c.536,2.73,2.578,4.441,5.336,5.716l-2.068,2.22a12.28,12.28,0,0,1-5.183-4.209,11.687,11.687,0,0,1-5.462,4.873l-2.093-2.246c2.935-1.251,5.028-3.291,5.513-6.354H46.067Zm18.457,11.966v8.6H51.53c-1.965,0-2.91-1.047-2.91-2.986v-5.613ZM60.9,327.135V324H52.245v2.194c0,.791.126.944.867.944Zm3.625-14.875h2.4V315.3h-2.4v4.872H60.9V307.694h3.625Z" transform="translate(1030.097 547.814)" fill="#fff"/><path d="M82.747,329.768H79.122v-6.046H75.37c-.945,2.755-2.732,4.21-5.361,4.21-4.162,0-6.178-3.624-6.178-10.233s2.016-10.255,6.178-10.255a5.284,5.284,0,0,1,5.131,3.6h3.983V307.6h3.625ZM70.009,325.15c1.684,0,2.6-2.7,2.6-7.451s-.919-7.475-2.6-7.475c-1.711,0-2.6,2.73-2.6,7.475s.893,7.451,2.6,7.451m6-4.49h3.115V314.1H75.931a22.173,22.173,0,0,1,.256,3.6,25.832,25.832,0,0,1-.18,2.961" transform="translate(1034.594 547.911)" fill="#fff"/><path d="M81.789,308.076H93.583v5.742c0,5.256-2.348,10.844-10.594,13.854l-1.864-2.5c6.791-2.45,8.809-6.788,8.809-10.462v-3.751H81.789Zm18.535,21.663H96.7V307.567h3.625Z" transform="translate(1038.716 547.941)" fill="#fff"/><path d="M105.126,307.339c3.4,0,5.565,1.735,6.229,4.287h3.37v-4.006h3.625v11.761h-3.625v-4.72h-3.268c-.536,2.731-2.783,4.618-6.331,4.618-4.136,0-6.459-2.551-6.459-5.945,0-3.446,2.323-6,6.459-6m0,9.312c1.812,0,2.961-1.326,2.961-3.316s-1.149-3.342-2.961-3.342c-1.838,0-2.987,1.351-2.987,3.342s1.149,3.316,2.987,3.316m.689,5.538h8.91v-1.94h3.625v9.544H105.1c-1.965,0-2.91-1.047-2.91-2.986v-6.558h3.625Zm8.91,4.873V324.92h-8.91v1.2c0,.791.128.944.868.944Z" transform="translate(1042.898 547.887)" fill="#fff"/></g><path d="M29.391,364.256a16.61,16.61,0,0,1-4.92-5.918,13.67,13.67,0,0,1-4.969,6.348l-2.245-1.909a12.822,12.822,0,0,0,5.3-10.644v-5.823h3.487v5.918c0,3.772,2.485,7.685,5.589,10.047Zm7.333,2.482H33.332V355.162H28.747V352.3h4.585V346h3.392Z" transform="translate(1017.74 575.05)" fill="#070203"/><path d="M40.7,354.526H59.564v2.529H51.9v1.336h5.851v5.3H46.38v.454c0,.334.072.43.358.43H58.012v2.242h-13.3a2.079,2.079,0,0,1-2.316-2.291V361.47H53.76v-.834H42.392v-2.244h5.971v-1.336H40.7Zm9.411-9.141c4.825,0,8.169,1.193,8.169,4.153,0,2.983-3.343,4.152-8.169,4.152s-8.169-1.169-8.169-4.152c0-2.961,3.344-4.153,8.169-4.153m0,5.967c2.794,0,4.657-.43,4.657-1.814,0-1.361-1.863-1.79-4.657-1.79s-4.633.429-4.633,1.79c0,1.383,1.839,1.814,4.633,1.814" transform="translate(1016.271 575.089)" fill="#070203"/><path d="M73.582,364.255c-1.481-1-4.252-3.866-5.04-5.918a13.665,13.665,0,0,1-4.968,6.348l-2.246-1.909a12.822,12.822,0,0,0,5.3-10.644v-5.822h3.487v5.918c0,3.771,2.652,7.637,5.708,10Zm6.974,2.483H77.165V346h3.392Z" transform="translate(1014.977 575.05)" fill="#070203"/><path d="M103.4,348.18c0,3.793,3.177,6.61,7.667,7.8l-1.529,2.53c-3.01-.669-6.64-2.936-7.953-5.3-1.314,2.412-4.969,4.63-7.954,5.3l-1.553-2.53c4.514-1.194,7.691-4.01,7.691-7.8v-2.029H103.4Zm-11.25,14.485h7.618V357.82H103.4v4.845h7.619v2.7H92.149Z" transform="translate(1013.049 575.04)" fill="#070203"/><path d="M113.86,346.476h9.769v2.673h-3.3V352.2a14.742,14.742,0,0,0,3.941,10.237l-2.268,1.743a14.981,14.981,0,0,1-3.369-5.251,13.113,13.113,0,0,1-3.655,5.632l-2.245-1.646c2.818-2.672,4.2-6.3,4.2-10.74v-3.031H113.86Zm13.829,6.777h1.458V346h3.224v20.739h-3.224V356.093h-1.458V366.5h-3.224V346h3.224Z" transform="translate(1011.754 575.05)" fill="#070203"/><path d="M143.612,358.347h18.869v2.721h-7.619V366.7h-3.63v-5.632h-7.619Zm9.411-12.911c4.777,0,8.144,1.885,8.144,5.7,0,3.772-3.367,5.728-8.144,5.728s-8.121-1.956-8.121-5.728c0-3.818,3.344-5.7,8.121-5.7m0,8.758c2.794,0,4.634-.978,4.634-3.055,0-2.1-1.84-3.078-4.634-3.078-2.771,0-4.633.978-4.633,3.078,0,2.077,1.862,3.055,4.633,3.055" transform="translate(1009.817 575.086)" fill="#070203"/><path d="M176.721,346.823c0,3.866,3.344,5.775,7.691,6.634l-1.432,2.386c-2.15-.143-6.522-1.837-8.05-4.248-1.553,2.458-5.876,4.128-8,4.248l-1.433-2.386c4.347-.859,7.6-2.768,7.6-6.634v-.979h3.63Zm-11.2,11.336h18.869v2.72h-7.619v5.847h-3.631v-5.847h-7.618Z" transform="translate(1008.446 575.06)" fill="#070203"/><path d="M195.071,358.643H213.94v2.72H206.32v5.323h-3.631v-5.323h-7.618Zm11.273-11.336h6.234V350.1h-5.972c.836,2.6,3.559,3.843,7.237,4.583l-1.432,2.411c-2.2-.191-6.354-1.815-7.906-4.224-1.577,2.457-5.733,4.057-7.905,4.224l-1.434-2.411c3.655-.74,6.353-1.98,7.19-4.583h-5.924v-2.792h6.186v-2.1h3.726Z" transform="translate(1006.592 575.101)" fill="#070203"/><path d="M217.215,347.458h4.132v-2.124h3.44v2.124h4.61v2.7h-4.61c.071,3.222,1.982,5.346,4.872,6.729l-1.91,2.1a11.945,11.945,0,0,1-4.634-4.081,12.285,12.285,0,0,1-5.016,4.726l-1.935-2.148a7.873,7.873,0,0,0,5.182-7.327h-4.132Zm17.842,19.115H222.684c-1.839,0-2.723-.978-2.723-2.791v-3.962h3.463v3.245c0,.74.119.884.813.884h10.819Zm-.1-5.44H231.57V353.9h-3.607v-2.864h3.607v-5.084h3.391Z" transform="translate(1005.269 575.093)" fill="#070203"/><path d="M246.972,346.475h11.035v5.37c0,4.916-2.2,10.142-9.912,12.958l-1.743-2.339c6.353-2.291,8.24-6.349,8.24-9.785v-3.508h-7.619Zm17.34,20.262H260.92V346h3.391Z" transform="translate(1003.376 575.05)" fill="#070203"/><path d="M274.073,345.717c3.177,0,5.207,1.623,5.828,4.009h3.152V345.98h3.392v11h-3.392v-4.414H280c-.5,2.553-2.6,4.319-5.923,4.319-3.869,0-6.043-2.386-6.043-5.561,0-3.222,2.174-5.608,6.043-5.608m0,8.712c1.7,0,2.771-1.241,2.771-3.1s-1.075-3.125-2.771-3.125c-1.72,0-2.8,1.265-2.8,3.125s1.075,3.1,2.8,3.1m.645,5.179h8.335v-1.815h3.392v8.926h-12.4c-1.84,0-2.724-.978-2.724-2.792v-6.134h3.392Zm8.335,4.557v-2h-8.335v1.122c0,.74.119.882.812.882Z" transform="translate(1002.018 575.068)" fill="#070203"/><path d="M18.787,450.764h7.667V449c-3.869-.31-6.425-1.766-6.425-4.749,0-3.388,3.344-4.82,8.169-4.82s8.169,1.432,8.169,4.82c0,2.983-2.555,4.44-6.376,4.749v1.767h7.666v2.672H18.787ZM36.1,460.62H23.444c-1.839,0-2.723-.979-2.723-2.791v-3.413h3.511v2.7c0,.74.119.882.813.882H36.1ZM28.2,446.588c2.794,0,4.657-.62,4.657-2.34,0-1.694-1.863-2.315-4.657-2.315s-4.633.621-4.633,2.315c0,1.719,1.839,2.34,4.633,2.34" transform="translate(1017.644 598.26)" fill="#070203"/><path d="M58.052,447.3H60.3v2.84H58.052v10.644H54.66v-2.817a5.207,5.207,0,0,1-3.391.978H44.652c-2.078,0-3.32-1.05-3.32-3.412v-7.541h7.524v-4.773H41.332v-2.7H52.343v10.143h-7.5v4.582c0,.882.263,1.05.955,1.05h5.78c2.34,0,3.081-1.121,3.081-2.242V440.04h3.392Z" transform="translate(1016.231 598.221)" fill="#070203"/><path d="M68.738,439.759a6.205,6.205,0,1,1-6.211,6.2,5.926,5.926,0,0,1,6.211-6.2m11.99,20.882H68.355c-1.839,0-2.723-.978-2.723-2.792v-4.463H69.1v3.747c0,.74.119.882.812.882h10.82Zm-11.99-10.978c1.719,0,2.914-1.6,2.914-3.7s-1.2-3.7-2.914-3.7c-1.744,0-2.963,1.6-2.963,3.7s1.218,3.7,2.963,3.7m11.894,5.3H77.24v-14.94h3.392Z" transform="translate(1014.901 598.239)" fill="#070203"/><path d="M98.288,439.759a6.205,6.205,0,1,1-6.211,6.2,5.927,5.927,0,0,1,6.211-6.2m11.99,20.882H97.905c-1.839,0-2.723-.978-2.723-2.792v-4.463h3.463v3.747c0,.74.119.882.812.882h10.82Zm-11.99-10.978c1.719,0,2.914-1.6,2.914-3.7s-1.2-3.7-2.914-3.7c-1.743,0-2.962,1.6-2.962,3.7s1.218,3.7,2.962,3.7m11.894,5.3h-3.391v-14.94h3.391Z" transform="translate(1013.049 598.239)" fill="#070203"/><path d="M124.929,451.447a11.759,11.759,0,0,1-4.777-3.818,11.874,11.874,0,0,1-5.278,4.988l-1.959-2.195a8.548,8.548,0,0,0,5.3-7.829v-2.411h3.536v2.6c0,2.815,1.982,5.059,5.087,6.539Zm-.382.74c4.657,0,7.595,1.551,7.595,4.606s-2.937,4.606-7.595,4.606S117,459.849,117,456.793s2.89-4.606,7.547-4.606m0,6.826c2.723,0,4.2-.763,4.2-2.22s-1.481-2.22-4.2-2.22c-2.7,0-4.179.763-4.179,2.22s1.481,2.22,4.179,2.22m7.476-6.969h-3.391v-5.7H124.4v-2.863h4.228V440.04h3.391Z" transform="translate(1011.743 598.221)" fill="#070203"/><path d="M146.706,442.569c0,4.964-3.3,8.543-10.222,9.331l-1.075-2.529c5.924-.717,7.667-3.294,7.667-5.918v-.383h-6.521V440.4h10.151Zm7.142,9.856v8.353h-12.4c-1.839,0-2.723-.978-2.723-2.792v-5.561Zm-3.392,5.8v-3.247h-8.335v2.363c0,.74.119.884.812.884Zm-3.368-13.89h3.368v-4.3h3.392V451.4h-3.392v-4.224h-3.368Z" transform="translate(1010.332 598.221)" fill="#070203"/><path d="M168.483,458.3a16.608,16.608,0,0,1-4.921-5.919,13.667,13.667,0,0,1-4.968,6.349l-2.245-1.909a12.824,12.824,0,0,0,5.3-10.644v-5.823h3.487v5.918c0,3.771,2.484,7.685,5.589,10.048Zm6.615-11h2.246v2.84H175.1v10.644h-3.391V440.04H175.1Z" transform="translate(1009.019 598.221)" fill="#070203"/><path d="M187.178,442.081h3.13v-2.22H193.7v2.22h3.391v2.672H193.7v1.48a14.749,14.749,0,0,0,3.94,10.238l-2.268,1.743a14.975,14.975,0,0,1-3.368-5.25,13.136,13.136,0,0,1-3.655,5.632l-2.245-1.646c2.818-2.673,4.2-6.3,4.2-10.74v-1.456h-3.13Zm14.307,18.448h-3.224V450.051h-2.914v-2.863h2.914v-7.16h3.224Zm4.252.238h-3.224V440.027h3.224Z" transform="translate(1007.154 598.232)" fill="#070203"/><path d="M209.057,441.135h4.633v-1.886h3.44v1.886h4.537v2.554h-12.61Zm6.4,3.054c3.821,0,5.8,1.624,5.8,4.153s-1.982,4.177-5.8,4.177c-3.845,0-5.828-1.647-5.828-4.177s1.983-4.153,5.828-4.153m12.133,9.141v7.4H215.076c-1.84,0-2.724-.978-2.724-2.792V453.33Zm-12.133-3.055c1.72,0,2.556-.716,2.556-1.933,0-1.194-.836-1.934-2.556-1.934s-2.6.74-2.6,1.934c0,1.217.884,1.933,2.6,1.933m8.741,8.018v-2.529h-8.454v1.647c0,.739.119.882.812.882Zm3.392-5.751H224.2v-4.2h-2.6v-2.864h2.6v-5.489h3.392Z" transform="translate(1005.715 598.272)" fill="#070203"/><path d="M234.816,459.5a7.058,7.058,0,0,1-2.007,4.367l-1.385-.6a4.691,4.691,0,0,0,1.218-2.816h-1.6v-3.317h3.774Z" transform="translate(1004.336 597.117)" fill="#070203"/><path d="M251.272,439.887c3.893,0,6.066,3.412,6.066,9.594s-2.174,9.57-6.066,9.57-6.067-3.389-6.067-9.57,2.174-9.594,6.067-9.594m0,16.562c1.576,0,2.722-2.529,2.722-6.968s-1.146-6.993-2.722-6.993c-1.6,0-2.724,2.554-2.724,6.993s1.123,6.968,2.724,6.968m11.631,4.32h-3.391V440.029H262.9Z" transform="translate(1003.448 598.231)" fill="#070203"/><path d="M278.2,442.354h3.224V440.04h3.391v12.72h-3.391v-2.649h-3.153v1.647a6.328,6.328,0,0,1-2.7.5h-5.733c-2.221,0-2.7-1.122-2.7-3.293v-4.034h6.951V443h-6.951v-2.6H277.6v7.136h-6.951V448.7c0,.882.1,1,.765,1h4.132a7.067,7.067,0,0,0,2.6-.454v-1.981h3.272V445.2H278.2Zm-8.647,11.361h15.262v7.064h-3.463v-4.392h-11.8Z" transform="translate(1002.073 598.221)" fill="#070203"/><path d="M299.269,458.3a16.61,16.61,0,0,1-4.92-5.918,13.669,13.669,0,0,1-4.968,6.348l-2.246-1.909a12.824,12.824,0,0,0,5.3-10.644v-5.823h3.487v5.918c0,3.772,2.485,7.685,5.589,10.048Zm7.333,2.482h-3.391V449.2h-4.586v-2.863h4.586v-6.3H306.6Z" transform="translate(1000.819 598.221)" fill="#070203"/><rect width="3.439" height="3.531" transform="translate(1312.503 1046.137)" fill="#070203"/><path d="M321.622,440.518h12.062v2.673H329.05v3.15a13.111,13.111,0,0,0,5.35,9.976l-2.221,1.98a17.061,17.061,0,0,1-4.729-5.919,14.806,14.806,0,0,1-4.921,6.349l-2.149-1.957a12.291,12.291,0,0,0,5.231-10.334v-3.246h-3.989Zm17.149,6.777h2.246v2.84h-2.246v10.644H335.38V440.04h3.391Z" transform="translate(998.735 598.221)" fill="#070203"/><path d="M343.877,440.517h11.035v5.37c0,4.916-2.2,10.142-9.912,12.958l-1.743-2.339c6.353-2.291,8.24-6.348,8.24-9.785v-3.508h-7.619Zm17.34,20.261h-3.391V440.039h3.391Z" transform="translate(997.3 598.221)" fill="#070203"/><path d="M376.589,442.222c0,3.794,3.176,6.61,7.667,7.8l-1.529,2.531c-3.01-.669-6.64-2.936-7.954-5.3-1.313,2.412-4.968,4.63-7.953,5.3l-1.553-2.531c4.514-1.193,7.691-4.008,7.691-7.8v-2.029h3.631Zm-11.25,14.486h7.618v-4.845h3.631v4.845h7.619v2.7H365.339Z" transform="translate(995.921 598.211)" fill="#070203"/><path d="M387.188,440.518h8.885v5.871c0,4.845-1.623,9.354-7.643,12.409l-1.815-2.243c4.991-2.314,6.114-6.181,6.114-9.88v-3.46h-5.541ZM405.6,460.779h-3.224V450.135h-1.672v10.406h-3.224v-20.5h3.224V447.3h1.672V440.04H405.6Z" transform="translate(994.582 598.221)" fill="#070203"/><path d="M419.764,458.3a16.61,16.61,0,0,1-4.92-5.918,13.664,13.664,0,0,1-4.969,6.348l-2.245-1.909a12.824,12.824,0,0,0,5.3-10.644v-5.823h3.487v5.918c0,3.772,2.485,7.685,5.589,10.048Zm7.332,2.482h-3.391V449.2H419.12v-2.863h4.586v-6.3H427.1Z" transform="translate(993.265 598.221)" fill="#070203"/><path d="M446.8,451.233a13.762,13.762,0,0,1-3.369-3.724,12.383,12.383,0,0,1-3.845,4.583l-2.174-1.909c3.13-2.148,4.108-5.035,4.108-8.329v-1.671h3.511v1.838a8.812,8.812,0,0,0,3.821,7.255Zm-5.255,1.36h15.478v8.186H444.265c-1.84,0-2.724-.978-2.724-2.793Zm12.086,5.632v-3.079h-8.694v2.2c0,.74.119.883.812.883Zm3.392-6.658h-3.224v-4.7h-1.648v4.7h-3.225V440.04h3.225v4.1h1.648v-4.1h3.224Z" transform="translate(991.398 598.221)" fill="#070203"/><path d="M460.618,449.435h18.869v2.482H460.618Zm1.194-9.14h16.481v2.457h-2.245v1.5a5.441,5.441,0,0,1-.311,1.814h2.675v2.41H461.693v-2.41h2.532v-3.318h-2.413Zm2.818,20.62a2.053,2.053,0,0,1-2.317-2.267v-2.889h11.37v-.787h-11.37V452.8h15.358v5.107H466.3v.406c0,.334.071.429.358.429h11.274v2.172Zm7.882-16.635v-1.528h-4.753v3.318h4.491a6.042,6.042,0,0,0,.262-1.79" transform="translate(989.942 598.204)" fill="#070203"/><path d="M495.756,439.76a6.045,6.045,0,0,1,4.705,1.886h4.323v-1.624h3.391v10.835h-3.391v-1.742h-4.466a6.122,6.122,0,0,1-4.562,1.718c-3.846,0-6-2.411-6-5.537s2.149-5.537,6-5.537m0,8.591c1.7,0,2.723-1.265,2.723-3.054s-1.027-3.055-2.723-3.055a3.072,3.072,0,0,0,0,6.109m12.611,12.41H495.636a2.248,2.248,0,0,1-2.579-2.506v-3.294h11.536v-.882H493.057v-2.411h15.119v5.7H496.64v.478c0,.429.095.5.454.5h11.274Zm-6.736-14.224h3.153V444.2h-3.13a8.009,8.009,0,0,1,.1,1.1,6.781,6.781,0,0,1-.12,1.24" transform="translate(988.115 598.239)" fill="#070203"/><path d="M512.586,440.4h11.465v6.73H516.1v.906c0,.884.118.955.812.955h6.377c2.294,0,2.747-1,2.747-2.243V440.04h3.391v3.985h2.246v2.84h-2.246v5.251h-3.391v-1.433c-.525.645-1.935.859-2.962.859h-7.523c-1.959,0-2.963-.811-2.963-3.173v-3.8h7.954v-1.622h-7.954Zm1.959,12.553h14.88v7.828H517.268c-1.839,0-2.723-.978-2.723-2.792Zm11.488,5.275V455.5h-8.1v1.838c0,.74.12.883.813.883Z" transform="translate(986.684 598.221)" fill="#070203"/><path d="M18.883,474.63H30.944V477.3H26.311v3.151a13.105,13.105,0,0,0,5.35,9.975L29.44,492.41a17.057,17.057,0,0,1-4.73-5.918,14.807,14.807,0,0,1-4.92,6.348l-2.149-1.957a12.29,12.29,0,0,0,5.23-10.334V477.3H18.883Zm17.149,6.777h2.245v2.84H36.032v10.644H32.64V474.152h3.392Z" transform="translate(1017.716 596.018)" fill="#070203"/><path d="M41.138,474.63H52.172V480c0,4.917-2.2,10.143-9.912,12.958l-1.743-2.339c6.353-2.291,8.24-6.349,8.24-9.785v-3.508H41.138Zm17.34,20.261H55.087V474.152h3.391Z" transform="translate(1016.282 596.018)" fill="#070203"/><path d="M73.849,476.335c0,3.793,3.177,6.61,7.667,7.8l-1.529,2.53c-3.01-.669-6.64-2.936-7.954-5.3-1.313,2.411-4.968,4.63-7.953,5.3l-1.553-2.53c4.514-1.194,7.691-4.01,7.691-7.8v-2.029h3.631ZM62.6,490.82h7.618v-4.845h3.631v4.845h7.619v2.7H62.6Z" transform="translate(1014.901 596.008)" fill="#070203"/><path d="M84.448,474.63h8.886v5.87c0,4.845-1.624,9.356-7.644,12.411l-1.815-2.244c4.991-2.314,6.114-6.181,6.114-9.88v-3.46H84.448Zm18.415,20.261H99.639V484.247H97.966v10.406H94.742v-20.5h3.224v7.255h1.672v-7.255h3.224Z" transform="translate(1013.563 596.018)" fill="#070203"/><path d="M117.024,492.41a16.61,16.61,0,0,1-4.92-5.918,13.669,13.669,0,0,1-4.968,6.348l-2.246-1.909a12.822,12.822,0,0,0,5.3-10.644v-5.823h3.487v5.918c0,3.772,2.485,7.684,5.589,10.047Zm7.333,2.482h-3.392V483.316H116.38v-2.864h4.585v-6.3h3.392Z" transform="translate(1012.246 596.018)" fill="#070203"/><path d="M135.971,486.559H154.84v2.72h-7.619v5.633h-3.631V489.28h-7.618Zm17.388-12.075v9.975H140.532a2.868,2.868,0,0,1-3.1-3.174v-6.8Zm-3.536,7.326v-4.677h-8.861v3.7c0,.74.215.978.932.978Z" transform="translate(1010.297 595.996)" fill="#070203"/><path d="M172.926,490.843h3.821v2.7H157.879v-2.7H161.7v-3.2h3.391v3.2h4.443v-3.2h3.392Zm2.293-6.586v2.7H162.775c-2.03,0-3.32-.931-3.32-3.269v-4.368h11.751v-1.933H159.456v-2.72h15.453v7.374H163.157v1.074c0,.859.216,1.146.979,1.146Z" transform="translate(1008.923 595.985)" fill="#070203"/><path d="M198.531,477.015c0,5.084-3.033,9.5-10.461,10.239l-1.075-2.6c3.821-.383,5.852-1.6,6.879-3.055h-5.852v-2.72h6.831c.023-.263.048-.549.048-.811v-.836h-6.879v-2.72h10.509Zm7,17.756H193.158c-1.84,0-2.724-.978-2.724-2.791v-4.153H193.9v3.437c0,.74.119.883.812.883h10.82Zm-6.855-15.751h3.368v-4.869h3.391v14.941h-3.391v-7.232h-3.368Z" transform="translate(1007.098 596.018)" fill="#070203"/><path d="M220.252,484.605a12.441,12.441,0,0,1-4.849-3.986,11.982,11.982,0,0,1-5.207,4.7L208.19,483.2c3.511-1.552,5.3-4.273,5.3-7.47V474.3h3.535v1.5c0,2.816,1.935,5.131,5.135,6.705Zm7.237,10.286h-12.73a2.248,2.248,0,0,1-2.579-2.506V489.02h11.536v-.954H212.179v-2.41H227.3v5.774H215.762v.549c0,.429.1.5.454.5h11.274ZM227.3,484.82h-3.392v-4.94h-4.227v-2.864h4.227v-2.863H227.3Z" transform="translate(1005.769 596.018)" fill="#070203"/><path d="M249.183,486.729h-3.392v-1.789c-.526.644-1.935.859-2.962.859h-8.24c-1.959,0-2.962-.811-2.962-3.174V474.51H243.45v2.553h-8.312v1.528h8.312v2.554h-8.312v1.146c0,.882.12.954.812.954h7.094c2.293,0,2.746-1,2.746-2.243v-6.849h3.392Zm-7.476.191c4.657,0,7.595,1.289,7.595,4.3s-2.938,4.3-7.595,4.3-7.548-1.289-7.548-4.3,2.891-4.3,7.548-4.3m0,6.206c2.723,0,4.2-.5,4.2-1.909s-1.48-1.909-4.2-1.909c-2.7,0-4.18.5-4.18,1.909s1.481,1.909,4.18,1.909" transform="translate(1004.3 596.018)" fill="#070203"/><path d="M256.724,493.608a7.058,7.058,0,0,1-2.007,4.367l-1.385-.6a4.691,4.691,0,0,0,1.219-2.817h-1.6v-3.316h3.774Z" transform="translate(1002.963 594.914)" fill="#070203"/><path d="M273.18,474c3.893,0,6.066,3.412,6.066,9.594s-2.174,9.57-6.066,9.57-6.067-3.389-6.067-9.57S269.287,474,273.18,474m0,16.563c1.576,0,2.723-2.529,2.723-6.969s-1.147-6.992-2.723-6.992c-1.6,0-2.724,2.554-2.724,6.992s1.123,6.969,2.724,6.969m11.631,4.32H281.42V474.142h3.391Z" transform="translate(1002.074 596.028)" fill="#070203"/><path d="M300.105,476.466h3.224v-2.314h3.391v12.72H303.33v-2.649h-3.153v1.647a6.327,6.327,0,0,1-2.7.5h-5.733c-2.221,0-2.7-1.122-2.7-3.293v-4.034H296v-1.933h-6.951v-2.6h10.462v7.135h-6.951v1.17c0,.882.1,1,.765,1h4.132a7.066,7.066,0,0,0,2.6-.454v-1.981h3.272v-2.076h-3.224Zm-8.647,11.361h15.262v7.064h-3.463V490.5h-11.8Z" transform="translate(1000.699 596.018)" fill="#070203"/><path d="M321.177,492.41a16.6,16.6,0,0,1-4.92-5.918,13.67,13.67,0,0,1-4.969,6.348l-2.245-1.909a12.823,12.823,0,0,0,5.3-10.644v-5.823h3.487v5.918c0,3.772,2.485,7.684,5.589,10.047Zm7.333,2.482h-3.391V483.316h-4.586v-2.864h4.586v-6.3h3.391Z" transform="translate(999.445 596.018)" fill="#070203"/><path d="M350.727,492.41a16.611,16.611,0,0,1-4.92-5.918,13.669,13.669,0,0,1-4.968,6.348l-2.246-1.909a12.823,12.823,0,0,0,5.3-10.644v-5.823h3.488v5.918c0,3.772,2.484,7.684,5.588,10.047Zm6.616-11h2.245v2.84h-2.245v10.644h-3.392V474.152h3.392Z" transform="translate(997.593 596.018)" fill="#070203"/><path d="M362.293,474.51h12.348v2.72h-4.4v.287c0,3.34,2.055,5.68,5.112,7.111l-1.911,2.1a12.419,12.419,0,0,1-4.873-4.2,11.969,11.969,0,0,1-5.4,4.7l-1.935-2.149c3.32-1.384,5.565-3.937,5.565-7.564v-.287h-4.513Zm17.817,20.261H367.738c-1.84,0-2.724-.978-2.724-2.792v-4.391h3.464v3.675c0,.74.119.883.812.883H380.11Zm-.1-5.679h-3.392V474.152h3.392Z" transform="translate(996.173 596.018)" fill="#070203"/><path d="M402.782,474.978c0,3.866,3.343,5.775,7.691,6.634L409.04,484c-2.149-.143-6.521-1.837-8.049-4.248-1.553,2.458-5.876,4.128-8,4.248l-1.433-2.386c4.347-.859,7.6-2.768,7.6-6.634V474h3.63Zm-11.2,11.335h18.869v2.72H402.83v5.847H399.2v-5.847H391.58Z" transform="translate(994.272 596.028)" fill="#070203"/><path d="M413.7,474.51h12.086v2.673H421.3c.071,3.223,2.126,5.226,5.111,6.612l-1.911,2.1a12.245,12.245,0,0,1-4.872-3.89,11.13,11.13,0,0,1-5.04,4.916l-1.935-2.076a8.212,8.212,0,0,0,5.207-7.661H413.7Zm10.293,11.885c4.657,0,7.6,1.5,7.6,4.558s-2.938,4.558-7.6,4.558-7.547-1.5-7.547-4.558,2.89-4.558,7.547-4.558m0,6.73c2.723,0,4.2-.716,4.2-2.172s-1.481-2.171-4.2-2.171c-2.7,0-4.179.716-4.179,2.171s1.481,2.172,4.179,2.172m7.476-6.969h-3.391v-5.011h-3.846v-2.864h3.846v-4.129h3.391Z" transform="translate(992.949 596.018)" fill="#070203"/><path d="M438.968,493.608a7.058,7.058,0,0,1-2.007,4.367l-1.385-.6a4.691,4.691,0,0,0,1.219-2.817h-1.6v-3.316h3.774Z" transform="translate(991.536 594.914)" fill="#070203"/><path d="M449.311,475.449h4.466V473.54h3.511v1.909h4.466v2.672h-4.3c.478,1.718,1.982,3.437,5.183,4.511l-1.791,2.172a11.036,11.036,0,0,1-5.207-3.7,10.663,10.663,0,0,1-5.637,4.2l-1.768-2.172c3.416-1.026,4.944-2.935,5.4-5.012h-4.323Zm17.794,19.4h-3.392v-6.8a5.214,5.214,0,0,1-3.391.977h-3.177v5.586H453.73v-5.586h-5.015v-2.672h11.918c2.341,0,3.081-1.121,3.081-2.242v-10H467.1Z" transform="translate(990.718 596.058)" fill="#070203"/><path d="M476.545,473.871c3.177,0,5.207,1.623,5.828,4.009h3.152v-3.746h3.392v11h-3.392v-4.414h-3.057c-.5,2.553-2.6,4.319-5.923,4.319-3.869,0-6.043-2.386-6.043-5.56,0-3.223,2.174-5.609,6.043-5.609m0,8.712c1.7,0,2.771-1.241,2.771-3.1s-1.075-3.126-2.771-3.126c-1.72,0-2.794,1.265-2.794,3.126s1.074,3.1,2.794,3.1m.645,5.179h8.335v-1.815h3.392v8.926h-12.4c-1.84,0-2.724-.977-2.724-2.792v-6.134h3.392Zm8.335,4.557v-2H477.19v1.122c0,.74.119.882.812.882Z" transform="translate(989.323 596.036)" fill="#070203"/><path d="M500.459,484.048h7.667v-1.885h-3.248c-1.791,0-2.891-.5-2.891-2.817v-4.94h15.74v2.554H505.714v1.789c0,.836.119.883.813.883h11.393v2.53h-6.258v1.885h7.667v2.6H500.459Zm9.41,3.437c4.753,0,7.953,1.122,7.953,4.1s-3.2,4.1-7.953,4.1-7.93-1.122-7.93-4.1,3.177-4.1,7.93-4.1m0,5.847c2.747,0,4.419-.382,4.419-1.743s-1.672-1.743-4.419-1.743-4.418.383-4.418,1.743,1.671,1.743,4.418,1.743" transform="translate(987.444 596.001)" fill="#070203"/><path d="M527.955,473.871a5.859,5.859,0,0,1,4.753,2.1h4.276v-1.838h3.391v12.147h-3.391V483.8H532.54a5.883,5.883,0,0,1-4.585,1.885,5.907,5.907,0,1,1,0-11.813m0,9.355c1.672,0,2.723-1.432,2.723-3.437s-1.051-3.412-2.723-3.412c-1.7,0-2.771,1.408-2.771,3.412s1.075,3.437,2.771,3.437m4.944,3.15c4.657,0,7.6,1.5,7.6,4.559s-2.938,4.558-7.6,4.558-7.548-1.5-7.548-4.558,2.891-4.559,7.548-4.559m0,6.731c2.722,0,4.2-.717,4.2-2.172s-1.482-2.172-4.2-2.172c-2.7,0-4.18.717-4.18,2.172s1.481,2.172,4.18,2.172m.907-11.933h3.177V478.6h-3.13a7.076,7.076,0,0,1-.048,2.577" transform="translate(986.096 596.036)" fill="#070203"/><path d="M555.125,485.513a12.755,12.755,0,0,1-4.9-4.082,12.178,12.178,0,0,1-5.4,4.917l-1.982-2.148c3.463-1.694,5.445-4.606,5.445-7.875V474.3h3.535v2.2c0,2.911,2.077,5.322,5.255,6.92Zm-.955.715c4.611,0,7.453,1.576,7.453,4.63s-2.842,4.63-7.453,4.63-7.452-1.575-7.452-4.63,2.842-4.63,7.452-4.63m0,6.873c2.675,0,4.085-.788,4.085-2.243s-1.41-2.243-4.085-2.243c-2.651,0-4.059.788-4.059,2.243s1.409,2.243,4.059,2.243M561.5,478.09h2.246v2.84H561.5v5.035h-3.391V474.152H561.5Z" transform="translate(984.787 596.018)" fill="#070203"/><path d="M585.032,476.873c0,5.106-3.916,9.045-10.819,9.737l-1.074-2.53c5.947-.691,8.263-3.364,8.263-6.037v-.86h-7.236V474.51h10.866Zm-1.265,9.26c4.611,0,7.452,1.622,7.452,4.677s-2.842,4.678-7.452,4.678-7.452-1.624-7.452-4.678,2.842-4.677,7.452-4.677m0,6.968c2.675,0,4.085-.834,4.085-2.291s-1.41-2.291-4.085-2.291c-2.651,0-4.06.835-4.06,2.291s1.409,2.291,4.06,2.291m7.332-14.963h2.246v2.84H591.1v4.94h-3.391V474.152H591.1Z" transform="translate(982.888 596.018)" fill="#070203"/><path d="M613.9,494.881H610.5v-3.174a5.215,5.215,0,0,1-3.391.978h-11.25v-2.72h11.56c2.34,0,3.081-1.121,3.081-2.243v-13.58H613.9ZM602.622,474c3.845,0,6.187,2.7,6.187,6.873s-2.342,6.873-6.187,6.873c-3.821,0-6.162-2.7-6.162-6.873S598.8,474,602.622,474m0,11.217c1.72,0,2.867-1.646,2.867-4.343s-1.147-4.343-2.867-4.343c-1.7,0-2.866,1.646-2.866,4.343s1.171,4.343,2.866,4.343" transform="translate(981.463 596.028)" fill="#070203"/><path d="M630.873,473.872a6.047,6.047,0,0,1,4.705,1.885H639.9v-1.623h3.391v10.835H639.9v-1.742h-4.466a6.125,6.125,0,0,1-4.562,1.718c-3.846,0-5.995-2.411-5.995-5.537s2.149-5.537,5.995-5.537m0,8.591c1.7,0,2.723-1.265,2.723-3.054s-1.027-3.055-2.723-3.055a3.072,3.072,0,0,0,0,6.109m12.611,12.41H630.753a2.248,2.248,0,0,1-2.578-2.506v-3.293H639.71v-.883H628.174V485.78h15.118v5.7H631.757v.478c0,.429.095.5.454.5h11.273Zm-6.736-14.224H639.9v-2.339h-3.13a8.02,8.02,0,0,1,.1,1.1,6.78,6.78,0,0,1-.12,1.24" transform="translate(979.644 596.036)" fill="#070203"/><path d="M647.7,474.509h11.465v6.73h-7.954v.906c0,.884.119.955.813.955H658.4c2.294,0,2.747-1,2.747-2.243v-6.706h3.391v3.985h2.246v2.84h-2.246v5.251H661.15V484.8c-.526.645-1.935.86-2.962.86h-7.524c-1.958,0-2.962-.812-2.962-3.174v-3.8h7.954v-1.623H647.7Zm1.959,12.553h14.88v7.828H652.385c-1.839,0-2.723-.978-2.723-2.792Zm11.488,5.274v-2.72h-8.1v1.838c0,.74.12.882.813.882Z" transform="translate(978.213 596.018)" fill="#070203"/><g transform="translate(0 8.646)"><path d="M176.609,431.584H22.5a21.953,21.953,0,1,1,0-43.906H176.609a21.953,21.953,0,1,1,0,43.906" transform="translate(1020.931 581.936)" fill="#002477"/><path d="M45.753,409.848H65.92v2.909H57.776v5.767H53.9v-5.767H45.753Zm5.335-10.563h9.471V396.5h3.778v11.457H50.627a3.067,3.067,0,0,1-3.318-3.394V396.5h3.778Zm9.471,5.843v-3.012H51.088v1.965c0,.792.229,1.047,1,1.047Z" transform="translate(1031.718 584.018)" fill="#fff"/><path d="M83.063,418.553h-3.5v-11.38H77.753V418.3h-3.5v-2.909a4.525,4.525,0,0,1-2.936.946H67.337c-2.119,0-3.548-.894-3.548-3.5V396.89h9.139v2.883H67.414V412.48c0,.792.23,1,.791,1h3.371c1.761,0,2.68-.843,2.68-2.169V396.38h3.5v7.756h1.813V396.38h3.5Z" transform="translate(1036.018 583.989)" fill="#fff"/><path d="M80.753,397.9H84.48v-2.042h3.625V397.9h3.446v2.679h-10.8Zm5.565,3.164c3.345,0,5.132,2.042,5.132,4.67,0,2.6-1.787,4.668-5.132,4.668s-5.131-2.066-5.131-4.668c0-2.629,1.787-4.67,5.131-4.67m0,6.941a2.035,2.035,0,0,0,1.965-2.27,2.058,2.058,0,0,0-1.965-2.3,2.092,2.092,0,0,0-1.991,2.3,2.069,2.069,0,0,0,1.991,2.27m6.357,2.6c5.209,0,8.323,1.353,8.323,4.363,0,2.986-3.115,4.338-8.323,4.338-5.181,0-8.271-1.352-8.271-4.338,0-3.009,3.09-4.363,8.271-4.363m0,6.2c3.013,0,4.7-.46,4.7-1.839,0-1.4-1.684-1.836-4.7-1.836-2.987,0-4.646.435-4.646,1.836,0,1.379,1.659,1.839,4.646,1.839m8.3-6.354H97.526v-5.69H95.918v5.051H92.47V396.5h3.448v5.358h1.607V396.5h3.446Z" transform="translate(1040.061 583.867)" fill="#fff"/><path d="M110.666,415.9a17.759,17.759,0,0,1-5.258-6.329,14.613,14.613,0,0,1-5.311,6.789l-2.4-2.042a13.708,13.708,0,0,0,5.667-11.38v-6.226h3.727v6.328c0,4.033,2.655,8.218,5.973,10.744Zm7.071-11.763h2.4v3.037h-2.4v11.38h-3.625V396.381h3.625Z" transform="translate(1044.101 583.989)" fill="#fff"/></g><g transform="translate(-187.258 17)"><path d="M176.609,559.74H22.5a21.953,21.953,0,1,1,0-43.906H176.609a21.953,21.953,0,1,1,0,43.906" transform="translate(1206.756 586.756)" fill="#002477"/><path d="M45.752,535.559H65.92v2.856H58.21v3.879H54.483v-3.879H45.752ZM64.261,524.74v9.211H50.117c-1.991,0-2.731-.944-2.731-2.808v-6.4Zm0,21.79H50.653c-1.965,0-2.91-1.047-2.91-2.985v-3.777H51.5v3.01c0,.791.128.944.867.944h11.9Zm-3.778-15.258v-3.852H51.165V530.4c0,.791.051.868.816.868Z" transform="translate(1217.542 588.857)" fill="#fff"/><path d="M82.857,546.735H79.232v-3.394a5.567,5.567,0,0,1-3.625,1.047H63.583v-2.909H75.939c2.5,0,3.293-1.2,3.293-2.4V524.563h3.625ZM70.808,524.41c4.11,0,6.612,2.883,6.612,7.347s-2.5,7.349-6.612,7.349c-4.084,0-6.587-2.883-6.587-7.349s2.5-7.347,6.587-7.347m0,11.992c1.838,0,3.064-1.761,3.064-4.645s-1.226-4.643-3.064-4.643c-1.813,0-3.064,1.76-3.064,4.643s1.251,4.645,3.064,4.645" transform="translate(1221.793 588.779)" fill="#fff"/><path d="M92.939,544.052a17.782,17.782,0,0,1-5.259-6.328,14.605,14.605,0,0,1-5.31,6.788l-2.4-2.042a13.708,13.708,0,0,0,5.667-11.38v-6.226h3.728v6.328c0,4.033,2.655,8.217,5.974,10.744Zm7.071-11.763h2.4v3.037h-2.4v11.38H96.386V524.534h3.625Z" transform="translate(1225.699 588.808)" fill="#fff"/><path d="M98.708,525.909h5.08v-2.016h3.675v2.016h4.979v2.73H98.708Zm6.919,3.266c4.109,0,6.355,1.888,6.355,4.542s-2.246,4.568-6.355,4.568c-4.136,0-6.383-1.914-6.383-4.568s2.246-4.542,6.383-4.542m3.931,9.544c5.055,0,8.067,1.453,8.067,4.387s-3.012,4.389-8.067,4.389c-5.08,0-8.067-1.455-8.067-4.389s2.987-4.387,8.067-4.387m-3.931-2.833c1.889,0,2.858-.868,2.858-2.169,0-1.277-.97-2.169-2.858-2.169s-2.911.892-2.911,2.169c0,1.3,1.022,2.169,2.911,2.169m3.931,9.11c2.91,0,4.467-.588,4.467-1.89s-1.557-1.861-4.467-1.861c-2.884,0-4.442.561-4.442,1.861s1.558,1.89,4.442,1.89m7.939-14.9h2.4v3.037h-2.4v5.486h-3.625V524.685H117.5Z" transform="translate(1230.166 588.657)" fill="#fff"/></g><path d="M21.511,570.754h4.5v-2.686h3.177v10.52H20.8c-1.924,0-2.461-.805-2.461-2.574v-7.945h3.177Zm-1.253,9.512H34.338v6.917H31.092v-4.41H20.258Zm5.753-4.073V573.15h-4.5v2.194c0,.693.135.85.784.85Zm8.326-4.409h2.1v2.663h-2.1v4.879H31.159V567.734h3.178Z" transform="translate(1017.672 611.079)" fill="#070203"/><path d="M39.114,568.069H49.857v6.312H42.4v.849c0,.829.112.9.761.9h5.976c2.148,0,2.574-.939,2.574-2.1v-6.29h3.178v3.738H57v2.663h-2.1v4.924H51.715v-1.343a4.022,4.022,0,0,1-2.775.806h-7.05c-1.835,0-2.775-.761-2.775-2.976v-3.559h7.453v-1.522H39.114Zm1.835,11.773H54.893v7.341H43.5a2.3,2.3,0,0,1-2.551-2.619Zm10.766,4.946v-2.552H44.128v1.724c0,.693.112.828.761.828Z" transform="translate(1016.369 611.079)" fill="#070203"/><path d="M65.318,571.931c3.581,0,5.6,1.858,5.6,4.387,0,2.1-1.411,3.76-3.939,4.252v2.015h3.133c2.194,0,2.888-1.052,2.888-2.1V567.7h3.178v19.449H73v-2.977a4.883,4.883,0,0,1-3.178.919H58.939v-2.507h4.812v-1.992c-2.6-.471-3.961-2.125-3.961-4.274,0-2.529,1.924-4.387,5.528-4.387m-6.11-2.888h4.454v-1.813h3.312v1.813h4.32v2.417H59.208Zm6.11,9.49a2.238,2.238,0,1,0,0-4.431,2.233,2.233,0,1,0,0,4.431" transform="translate(1015.127 611.111)" fill="#070203"/><path d="M86.886,577.41h17.682v2.506H97.809v3.4H94.541v-3.4H86.886Zm8.819-10.25c4.522,0,7.655,1.276,7.655,4.521,0,3.268-3.133,4.521-7.655,4.521s-7.655-1.253-7.655-4.521c0-3.245,3.133-4.521,7.655-4.521m7.408,19.874H91.184a2.294,2.294,0,0,1-2.551-2.619V581.1h3.29v2.642c0,.693.112.828.761.828h10.43Zm-7.408-13.183c2.619,0,4.365-.559,4.365-2.17,0-1.59-1.746-2.149-4.365-2.149s-4.343.559-4.343,2.149c0,1.611,1.724,2.17,4.343,2.17" transform="translate(1013.375 611.116)" fill="#070203"/><path d="M112.663,567.472a5.486,5.486,0,0,1,4.454,1.969h4.007v-1.724H124.3V579.11h-3.178v-2.327h-4.164a5.511,5.511,0,0,1-4.3,1.767,5.539,5.539,0,1,1,0-11.077m0,8.773c1.568,0,2.551-1.343,2.551-3.223s-.983-3.2-2.551-3.2c-1.589,0-2.6,1.322-2.6,3.2s1.007,3.223,2.6,3.223M117.3,579.2c4.365,0,7.118,1.41,7.118,4.274s-2.753,4.274-7.118,4.274-7.072-1.409-7.072-4.274,2.708-4.274,7.072-4.274m0,6.31c2.552,0,3.94-.671,3.94-2.036s-1.388-2.036-3.94-2.036c-2.528,0-3.917.671-3.917,2.036s1.389,2.036,3.917,2.036m.852-11.19h2.976V571.9h-2.932a6.638,6.638,0,0,1-.044,2.417" transform="translate(1012.11 611.096)" fill="#070203"/><path d="M137.907,584.855a15.6,15.6,0,0,1-4.611-5.55,12.809,12.809,0,0,1-4.656,5.952l-2.1-1.79a12.027,12.027,0,0,0,4.97-9.981v-5.461h3.267v5.551c0,3.535,2.327,7.206,5.238,9.422Zm6.2-10.318h2.1V577.2h-2.1v9.983h-3.178V567.734h3.178Z" transform="translate(1010.889 611.079)" fill="#070203"/><path d="M148.512,579.369h17.682v2.552h-7.14V587.2h-3.4v-5.282h-7.14Zm16.294-11.324V577.4H152.787a2.689,2.689,0,0,1-2.91-2.976v-6.379Zm-3.312,6.871v-4.386h-8.3V574c0,.694.2.918.873.918Z" transform="translate(1009.511 611.059)" fill="#070203"/><path d="M169.054,575.269h12.422a8.282,8.282,0,0,0,.358-2.149v-2.662H170.486v-2.485h14.66v5.014a9.358,9.358,0,0,1-.38,2.282h1.969V577.8h-7.184v2.686h5.572V587.2H181.7v-4.3H170.42v-2.417h5.82V577.8h-7.185Z" transform="translate(1008.223 611.063)" fill="#070203"/><path d="M200.405,567.016h2.327a21.439,21.439,0,0,0,0,20.859h-2.327c-2.238-3.089-3-7.7-3-10.452,0-2.529.784-7.318,3-10.407" transform="translate(1006.445 611.125)" fill="#070203"/><path d="M209.741,586.055c-3.581,0-5.551-2.775-5.551-9.064,0-6.266,1.969-9.064,5.551-9.064,3.626,0,5.641,2.8,5.641,9.064,0,6.289-2.014,9.064-5.641,9.064m0-2.507c1.925,0,2.551-2.4,2.551-6.557s-.626-6.535-2.551-6.535c-1.9,0-2.462,2.371-2.462,6.535s.56,6.557,2.462,6.557" transform="translate(1006.02 611.066)" fill="#070203"/><path d="M217.771,584.757c0-2.394,2.619-5.169,4.656-7.207,1.456-1.477,2.82-2.753,2.82-4.454,0-1.767-.784-2.484-2.35-2.394-1.164.066-2.306,1.342-3,3l-2.641-1.365a6.689,6.689,0,0,1,5.8-4.387c3.536-.135,5.483,1.791,5.417,5.035-.045,2.462-2.149,4.656-4.007,6.491a12.78,12.78,0,0,0-2.954,3.76h7.3v2.483H217.771Z" transform="translate(1005.201 611.065)" fill="#070203"/><rect width="8.26" height="2.484" transform="translate(1235.89 1186.579)" fill="#070203"/><path d="M242.708,584.757c0-2.394,2.619-5.169,4.656-7.207,1.456-1.477,2.82-2.753,2.82-4.454,0-1.767-.784-2.484-2.35-2.394-1.164.066-2.306,1.342-3,3l-2.641-1.365a6.689,6.689,0,0,1,5.8-4.387c3.536-.135,5.483,1.791,5.417,5.035-.045,2.462-2.149,4.656-4.007,6.491a12.782,12.782,0,0,0-2.954,3.76h7.3v2.483H242.708Z" transform="translate(1003.637 611.065)" fill="#070203"/><path d="M256.883,583.251h3.47v-10.7a11.82,11.82,0,0,1-2.8,1.455l-1.387-1.924a10.664,10.664,0,0,0,4.656-3.9h2.685v15.063h2.91v2.484h-9.535Z" transform="translate(1002.761 611.05)" fill="#070203"/><path d="M274.624,586.176c-2.91,0-5.775-1.567-5.8-4.968a6.232,6.232,0,0,1,3.088-4.945,4.871,4.871,0,0,1-2.44-4.1c0-3,2.619-4.432,5.35-4.432,2.574,0,5.1,1.635,5.1,4.41a4.913,4.913,0,0,1-2.506,3.893c2.238,1.21,3.357,2.955,3.38,4.813.022,3.738-2.978,5.326-6.178,5.326M274.6,577.6a4.025,4.025,0,0,0-2.641,3.424c0,1.723,1.119,2.664,2.909,2.664a2.627,2.627,0,0,0,2.865-2.463c0-1.857-1.253-2.908-3.133-3.625m.112-7.476a1.941,1.941,0,0,0-2.127,2.082,3.165,3.165,0,0,0,2.127,2.662c1.187-.648,2.1-1.566,2.1-2.662a1.894,1.894,0,0,0-2.1-2.082" transform="translate(1001.968 611.079)" fill="#070203"/><path d="M288.338,586.063c-3.4,0-5.865-1.925-5.753-6.109a16.366,16.366,0,0,1,1.567-5.528c1.075-2.328,2.1-4.23,3.312-6.356H290.8a66.761,66.761,0,0,0-3.357,6.088,3.928,3.928,0,0,1,1.634-.313c2.865-.023,4.946,2.8,4.946,5.908,0,3.894-2.327,6.311-5.684,6.311m0-9.78c-1.68,0-2.686,1.633-2.686,3.625,0,2.306.9,3.581,2.619,3.581,1.7,0,2.754-1.275,2.754-3.737,0-2.059-.986-3.469-2.686-3.469" transform="translate(1001.104 611.057)" fill="#070203"/><rect width="8.259" height="2.484" transform="translate(1296.877 1186.579)" fill="#070203"/><path d="M313.182,567.877c3.4,0,5.819,1.79,5.707,5.954a18.677,18.677,0,0,1-1.477,5.573,48.8,48.8,0,0,1-3.111,6.31h-3.312a60.406,60.406,0,0,0,3.088-6.042,3.646,3.646,0,0,1-1.97.223c-2.753-.156-4.655-2.729-4.655-5.8,0-3.805,2.35-6.222,5.73-6.222m-.045,9.6c1.746,0,2.664-1.745,2.686-3.625.044-2.283-1.008-3.4-2.641-3.4-1.612,0-2.731,1.343-2.731,3.6,0,1.969.985,3.424,2.686,3.424" transform="translate(999.545 611.07)" fill="#070203"/><path d="M321.95,583.251h3.47v-10.7a11.821,11.821,0,0,1-2.8,1.455l-1.387-1.924a10.664,10.664,0,0,0,4.656-3.9h2.685v15.063h2.91v2.484H321.95Z" transform="translate(998.681 611.05)" fill="#070203"/><path d="M340.028,586.063c-3.4,0-5.864-1.925-5.752-6.109a16.365,16.365,0,0,1,1.567-5.528c1.074-2.328,2.1-4.23,3.312-6.356h3.335a66.746,66.746,0,0,0-3.357,6.088,3.928,3.928,0,0,1,1.634-.313c2.865-.023,4.946,2.8,4.946,5.908,0,3.894-2.327,6.311-5.685,6.311m0-9.78c-1.679,0-2.685,1.633-2.685,3.625,0,2.306.9,3.581,2.619,3.581,1.7,0,2.753-1.275,2.753-3.737,0-2.059-.985-3.469-2.686-3.469" transform="translate(997.864 611.057)" fill="#070203"/><path d="M347.9,584.757c0-2.394,2.619-5.169,4.656-7.207,1.456-1.477,2.82-2.753,2.82-4.454,0-1.767-.784-2.484-2.35-2.394-1.164.066-2.306,1.342-3,3l-2.641-1.365a6.689,6.689,0,0,1,5.8-4.387c3.536-.135,5.483,1.791,5.417,5.035-.045,2.462-2.149,4.656-4.007,6.491a12.8,12.8,0,0,0-2.954,3.76h7.3v2.483H347.9Z" transform="translate(997.041 611.065)" fill="#070203"/><path d="M363,587.875h-2.283a21.748,21.748,0,0,0,0-20.859h2.306c2.238,3.089,3,7.878,3,10.407,0,2.775-.739,7.364-3.022,10.452" transform="translate(996.206 611.125)" fill="#070203"/><g transform="translate(0 18.476)"><path d="M176.609,43.907H22.5A21.953,21.953,0,1,1,22.5,0H176.609a21.953,21.953,0,1,1,0,43.906" transform="translate(371.908 841.523)" fill="#002477"/><path d="M24.933,20.324h8.194V18.437c-4.136-.332-6.867-1.888-6.867-5.077,0-3.624,3.574-5.155,8.731-5.155s8.731,1.531,8.731,5.155c0,3.189-2.732,4.745-6.816,5.077v1.887H45.1v2.859H24.933ZM43.44,30.863H29.911c-1.967,0-2.911-1.047-2.911-2.985V24.23h3.754V27.11c0,.792.128.945.868.945H43.44Zm-8.449-15c2.987,0,4.978-.662,4.978-2.5,0-1.812-1.991-2.475-4.978-2.475s-4.952.664-4.952,2.475c0,1.837,1.965,2.5,4.952,2.5" transform="translate(377.732 843.458)" fill="#fff"/><path d="M61.046,16.456h2.4v3.037h-2.4v11.38H57.421V27.862A5.569,5.569,0,0,1,53.8,28.908h-7.07c-2.222,0-3.549-1.122-3.549-3.648V17.2h8.041v-5.1H43.176V9.21H54.944V20.054H46.928v4.9c0,.944.281,1.122,1.022,1.122h6.178c2.5,0,3.293-1.2,3.293-2.4V8.7h3.625Z" transform="translate(382.081 843.575)" fill="#fff"/><path d="M66.964,8.473A6.336,6.336,0,0,1,73.6,15.107a6.638,6.638,0,0,1-13.275,0,6.335,6.335,0,0,1,6.638-6.634M79.78,30.8H66.555c-1.965,0-2.91-1.047-2.91-2.985V23.042h3.7v4.007c0,.791.128.944.868.944H79.78ZM66.964,19.062c1.838,0,3.115-1.709,3.115-3.955s-1.277-3.955-3.115-3.955c-1.864,0-3.165,1.709-3.165,3.955s1.3,3.955,3.165,3.955m12.713,5.665H76.052V8.755h3.625Z" transform="translate(386.169 843.522)" fill="#fff"/><path d="M88.131,12.145h5.131V9.083h3.626V21.075H87.313c-2.2,0-2.807-.918-2.807-2.934V9.083h3.625ZM86.7,22.988h16.057v7.885h-3.7V25.847H86.7Zm6.56-4.643V14.876H88.131v2.5c0,.792.154.97.894.97Zm9.5-5.026h2.4v3.037h-2.4v5.563H99.134V8.7h3.625Z" transform="translate(391.933 843.575)" fill="#fff"/><path d="M102.439,9.083h12.254v7.194h-8.5v.971c0,.943.128,1.02.869,1.02h6.815c2.451,0,2.936-1.072,2.936-2.4V8.7h3.625v4.261h2.4V16h-2.4v5.613h-3.625V20.08c-.562.688-2.068.918-3.165.918H105.6c-2.093,0-3.165-.866-3.165-3.393V13.547h8.5V11.813h-8.5ZM104.533,22.5h15.9v8.368H107.443c-1.967,0-2.91-1.047-2.91-2.986Zm12.278,5.638V25.234h-8.654V27.2c0,.791.128.944.868.944Z" transform="translate(396.208 843.575)" fill="#fff"/><path d="M126.825,13.625c4.084,0,6.383,2.118,6.383,5,0,2.4-1.609,4.286-4.494,4.848v2.3h3.575c2.5,0,3.293-1.2,3.293-2.4V8.8h3.625V30.975h-3.625V27.581a5.569,5.569,0,0,1-3.626,1.047H119.548V25.77h5.49V23.5c-2.962-.535-4.519-2.424-4.519-4.873,0-2.883,2.2-5,6.306-5m-6.97-3.291h5.081V8.267h3.777v2.066h4.927v2.756H119.855Zm6.97,10.819c1.838,0,2.91-1.072,2.91-2.526,0-1.429-1.072-2.526-2.91-2.526a2.54,2.54,0,0,0-2.859,2.526c0,1.455,1.022,2.526,2.859,2.526" transform="translate(400.285 843.473)" fill="#fff"/></g><path d="M18.558,49.091h3.368V54.6a5.063,5.063,0,0,1,2.962-1.145c3.129-.143,4.8,1.957,4.8,4.988v9.546H26.344v-8.9c0-1.98-.525-2.792-1.935-2.792a2.7,2.7,0,0,0-2.484,2.792v8.9H18.558Z" transform="translate(370.776 873.79)" fill="#070203"/><path d="M41.547,56.362H37.892v7.946c0,1.169.262,1.5.907,1.5a3.824,3.824,0,0,0,2.365-.788l.765,2.387a7.4,7.4,0,0,1-4.2,1.145c-2.293,0-3.2-1.79-3.2-3.914V56.362H31.754V53.737h2.771V48.964h3.368v4.773h3.655Z" transform="translate(369.949 873.798)" fill="#070203"/><path d="M52.654,56.362H49v7.946c0,1.169.262,1.5.907,1.5a3.824,3.824,0,0,0,2.365-.788l.765,2.387a7.4,7.4,0,0,1-4.2,1.145c-2.293,0-3.2-1.79-3.2-3.914V56.362H42.861V53.737h2.771V48.964H49v4.773h3.655Z" transform="translate(369.252 873.798)" fill="#070203"/><path d="M55.268,54.034h3.368v.62a4.816,4.816,0,0,1,2.794-1.073c3.679-.191,5.685,2.768,5.685,7.063,0,4.152-2.1,7.232-5.852,7.064a5.025,5.025,0,0,1-2.627-.812v4.94H55.268Zm3.32,6.468c0,2.888.764,4.558,2.723,4.558,1.791,0,2.508-1.742,2.508-4.487,0-2.768-.765-4.391-2.652-4.391-1.577,0-2.579,1.671-2.579,4.32" transform="translate(368.475 873.501)" fill="#070203"/><path d="M74.5,68.835a8.824,8.824,0,0,1-5.35-2.864l1.791-2.434a6.421,6.421,0,0,0,3.75,2.553c1.816.264,2.555-.524,2.365-1.718-.216-1.383-2.2-1.956-3.655-2.339-2.484-.667-4.06-2.171-3.965-4.677.1-2.912,2.866-4.272,5.493-4.081a6.969,6.969,0,0,1,5.088,2.96L77.844,58.31C76.77,56.854,76.03,56.329,75,56.138c-1.075-.191-2.007.167-2.174,1.169-.191,1.074.5,1.718,1.72,2.029,2.245.6,5.589,1.765,5.66,4.988.071,3.2-2.436,4.892-5.708,4.511" transform="translate(367.604 873.521)" fill="#070203"/><path d="M86.156,55.858h-3.63v-3.6h3.63Zm0,9.426h-3.63v-3.6h3.63Z" transform="translate(366.766 873.586)" fill="#070203"/><path d="M87.824,68.446l7.714-19.712H98.6L90.953,68.446Z" transform="translate(366.434 873.813)" fill="#070203"/><path d="M100.154,68.446l7.714-19.712h3.057l-7.643,19.712Z" transform="translate(365.66 873.813)" fill="#070203"/><path d="M114.079,54.33h3.392v7.612a15,15,0,0,1-3.941,9.523l-2.269-1.217a13.289,13.289,0,0,0,2.818-8.329Zm3.607-1.718h-3.893v-3.7h3.893Z" transform="translate(364.964 873.802)" fill="#070203"/><path d="M132.282,61.117c0,4.034-1.552,7.637-5.947,7.637-4.371,0-5.852-3.6-5.852-7.637,0-3.986,1.481-7.613,5.852-7.613,4.4,0,5.947,3.628,5.947,7.613m-5.947-4.988c-2.03,0-2.6,2.411-2.6,4.988,0,2.649.573,4.988,2.6,4.988,2.054,0,2.675-2.339,2.675-4.988,0-2.577-.621-4.988-2.675-4.988" transform="translate(364.386 873.505)" fill="#070203"/><path d="M138.09,67.086l-.167.907h-2.842v-18.9h3.368v5.631a4.816,4.816,0,0,1,2.818-1.05c3.75-.167,5.8,2.577,5.8,7.326,0,4.773-2.246,7.47-5.924,7.375a4.407,4.407,0,0,1-3.057-1.289m.287-6.038c0,3.031,1.052,4.63,2.7,4.63,1.887,0,2.7-1.384,2.7-4.654,0-3.246-.788-4.654-2.627-4.654-1.743,0-2.771,1.528-2.771,4.677" transform="translate(363.471 873.79)" fill="#070203"/><path d="M158.343,56.456h-3.654v11.48H151.32V56.456h-2.865v-2.6h2.865v-1.98a3.318,3.318,0,0,1,3.607-3.676,8.4,8.4,0,0,1,3.774.883l-.86,2.267a5.229,5.229,0,0,0-2.317-.454c-.549.072-.835.358-.835,1.6v1.36h3.654Z" transform="translate(362.632 873.848)" fill="#070203"/><path d="M167.338,58.222c-.048-1.909-.932-2.195-1.911-2.195-1.17,0-2.555.62-4.227,2.171l-1.743-2.1a8.965,8.965,0,0,1,6.137-2.72c2.818-.024,4.992,1.5,4.992,4.605V68.27H167.7l-.143-.645a5.7,5.7,0,0,1-3.416,1.075c-2.365,0-4.753-1.05-4.753-4.272,0-3.341,3.081-5.68,7.954-6.206m-3.057,7.923c2.03,0,3.081-.978,3.081-3.1V60.9c-2.2.214-4.872,1.36-4.872,3.58a1.625,1.625,0,0,0,1.791,1.67" transform="translate(361.947 873.513)" fill="#070203"/><path d="M178.129,52.612h-3.893v-3.7h3.893Zm-.238,15.369h-3.416V54.4h3.416Z" transform="translate(361.016 873.802)" fill="#070203"/><path d="M181.446,54.043h3.391v1.48c.956-1.48,3.463-2,5.111-1.742v2.7a4.406,4.406,0,0,0-5.087,4.033v7.78h-3.416Z" transform="translate(360.563 873.492)" fill="#070203"/><rect width="3.439" height="3.532" transform="translate(551.203 939.229)" fill="#070203"/><path d="M201.745,52.612h-3.893v-3.7h3.893Zm-.239,15.369H198.09V54.4h3.416Z" transform="translate(359.535 873.802)" fill="#070203"/><path d="M204.933,54.046H208.3v.883a5.379,5.379,0,0,1,2.794-1.145,4.338,4.338,0,0,1,4.968,4.653v9.857h-3.343v-9c0-1.956-.669-2.839-2.149-2.7a2.764,2.764,0,0,0-2.269,2.888v8.806h-3.368Z" transform="translate(359.091 873.489)" fill="#070203"/><path d="M230.831,66.105a7.127,7.127,0,0,1-5.279,2.649c-3.559.143-6.735-2.124-6.735-7.566,0-5.226,2.962-7.637,6.521-7.685a6.7,6.7,0,0,1,5.207,2.244l-1.624,2.267a4.363,4.363,0,0,0-3.439-1.695c-1.743.048-3.368,1.813-3.368,5.084,0,3.006,1.409,4.653,3.582,4.605a4.58,4.58,0,0,0,3.631-2.029Z" transform="translate(358.221 873.505)" fill="#070203"/><path d="M233.338,54.043h3.391v1.48c.956-1.48,3.463-2,5.111-1.742v2.7a4.406,4.406,0,0,0-5.087,4.033v7.78h-3.416Z" transform="translate(357.31 873.492)" fill="#070203"/><path d="M244.139,54.066h3.391v9.02c0,2.053.526,3.055,1.982,2.864,1.146-.143,2.1-1.217,2.1-2.982v-8.9h3.368V68.313h-3.105v-.906a4.341,4.341,0,0,1-3.01,1.24c-2.938.12-4.729-1.98-4.729-5.106Z" transform="translate(356.633 873.469)" fill="#070203"/><path d="M262.5,52.612h-3.893v-3.7H262.5Zm-.238,15.369h-3.415V54.4h3.415Z" transform="translate(355.725 873.802)" fill="#070203"/><path d="M274.184,56.362h-3.655v7.946c0,1.169.262,1.5.907,1.5a3.824,3.824,0,0,0,2.365-.788l.765,2.387a7.4,7.4,0,0,1-4.2,1.145c-2.293,0-3.2-1.79-3.2-3.914V56.362h-2.771V53.737h2.771V48.964h3.368v4.773h3.655Z" transform="translate(355.363 873.798)" fill="#070203"/><rect width="3.44" height="3.532" transform="translate(631.072 939.229)" fill="#070203"/><path d="M294.187,66.105a7.127,7.127,0,0,1-5.279,2.649c-3.559.143-6.735-2.124-6.735-7.566,0-5.226,2.962-7.637,6.521-7.685a6.7,6.7,0,0,1,5.207,2.244l-1.624,2.267a4.363,4.363,0,0,0-3.439-1.695c-1.743.048-3.368,1.813-3.368,5.084,0,3.006,1.409,4.653,3.582,4.605a4.58,4.58,0,0,0,3.631-2.029Z" transform="translate(354.248 873.505)" fill="#070203"/><path d="M307.779,61.117c0,4.034-1.551,7.637-5.946,7.637-4.372,0-5.852-3.6-5.852-7.637,0-3.986,1.481-7.613,5.852-7.613,4.4,0,5.946,3.628,5.946,7.613m-5.946-4.988c-2.031,0-2.6,2.411-2.6,4.988,0,2.649.572,4.988,2.6,4.988,2.053,0,2.674-2.339,2.674-4.988,0-2.577-.621-4.988-2.674-4.988" transform="translate(353.382 873.505)" fill="#070203"/><path d="M316.707,58.868c0-1.861-.6-2.267-1.242-2.267-.765,0-1.7.931-1.7,2.649V68.3h-3.344V54.048h3.32v.763a3.719,3.719,0,0,1,2.556-1,3.088,3.088,0,0,1,2.675,1.383,4.833,4.833,0,0,1,3.343-1.408c1.982,0,3.894,1.312,3.894,4.224V68.3h-3.249v-9.38c0-1.814-.525-2.315-1.194-2.315-.86,0-1.743.907-1.743,2.578V68.3h-3.32Z" transform="translate(352.477 873.487)" fill="#070203"/><path d="M328.792,68.446l7.714-19.712h3.057l-7.643,19.712Z" transform="translate(351.325 873.813)" fill="#070203"/><path d="M345.472,66.834,340.79,54.066h3.631l2.865,8.806,3.082-8.806h3.511l-5.924,15.3a4.006,4.006,0,0,1-4.06,2.506h-1.7V69.2h.884c1.194,0,1.624.048,1.959-1.025Z" transform="translate(350.573 873.469)" fill="#070203"/><path d="M360.306,68.835a8.824,8.824,0,0,1-5.35-2.864l1.791-2.434a6.424,6.424,0,0,0,3.75,2.553c1.816.264,2.555-.524,2.365-1.718-.216-1.383-2.2-1.956-3.655-2.339-2.484-.667-4.06-2.171-3.965-4.677.1-2.912,2.866-4.272,5.493-4.081a6.969,6.969,0,0,1,5.088,2.96L363.65,58.31c-1.074-1.456-1.815-1.981-2.842-2.172-1.075-.191-2.006.167-2.174,1.169-.191,1.074.5,1.718,1.72,2.029,2.245.6,5.589,1.765,5.66,4.988.072,3.2-2.436,4.892-5.708,4.511" transform="translate(349.685 873.521)" fill="#070203"/><path d="M371.415,63.123c.048.931.382,3.006,2.747,3.055a4.3,4.3,0,0,0,3.845-2.173l1.7,2.1a7.116,7.116,0,0,1-6.019,2.649c-3.917-.167-5.685-3.413-5.685-7.232,0-4.7,1.959-8.018,5.9-8.018,3.893,0,5.8,3.222,5.8,7.947v1.671Zm-.167-2.53h5.231c0-3.484-1.529-4.415-2.556-4.415-.932,0-2.675.884-2.675,4.415" transform="translate(348.867 873.505)" fill="#070203"/><path d="M382.52,54.034h3.368v.62a4.816,4.816,0,0,1,2.794-1.073c3.679-.191,5.685,2.768,5.685,7.063,0,4.152-2.1,7.232-5.852,7.064a5.025,5.025,0,0,1-2.627-.812v4.94H382.52Zm3.32,6.468c0,2.888.764,4.558,2.723,4.558,1.791,0,2.508-1.742,2.508-4.487,0-2.768-.765-4.391-2.652-4.391-1.577,0-2.579,1.671-2.579,4.32" transform="translate(347.957 873.501)" fill="#070203"/><g transform="translate(0 18.586)"><path d="M176.609,132.488H22.5a21.953,21.953,0,1,1,0-43.906H176.609a21.953,21.953,0,1,1,0,43.906" transform="translate(371.908 871.093)" fill="#002477"/><path d="M16.069,115.171h8.194v-4.364c-3.957-.586-6.662-3.011-6.662-6.889,0-4.465,3.625-6.967,8.577-6.967,4.927,0,8.578,2.526,8.578,6.967,0,3.878-2.758,6.328-6.714,6.889v4.364h8.194v2.883H16.069ZM26.178,108.1c2.936,0,4.927-1.429,4.927-4.185,0-2.782-1.991-4.133-4.927-4.133-2.91,0-4.9,1.351-4.9,4.133,0,2.756,1.991,4.185,4.9,4.185" transform="translate(375.62 873.067)" fill="#fff"/><path d="M33.8,114.969H53.964v2.909H33.8Zm16.441-8.854a10.228,10.228,0,0,1-.41,2.909h3.09v2.857H34.843v-2.857H37.7v-7.2h3.8v7.2h4.57a11.257,11.257,0,0,0,.358-2.883v-4.312h3.8ZM35.1,97.695h17.59v2.859H35.1Z" transform="translate(379.846 873.243)" fill="#fff"/><path d="M69.91,105.038h2.4v3.037h-2.4v11.38H66.285v-3.011a5.569,5.569,0,0,1-3.626,1.046h-7.07c-2.222,0-3.549-1.122-3.549-3.648v-8.063h8.041v-5.1H52.04V97.792H63.808v10.844H55.792v4.9c0,.944.281,1.122,1.022,1.122h6.177c2.5,0,3.294-1.2,3.294-2.4V97.283H69.91Z" transform="translate(384.194 873.146)" fill="#fff"/><path d="M75.828,97.055a6.634,6.634,0,1,1-6.638,6.634,6.336,6.336,0,0,1,6.638-6.634m12.815,22.326H75.419c-1.965,0-2.91-1.047-2.91-2.985v-4.773h3.7v4.007c0,.791.128.944.868.944H88.642ZM75.828,107.644c1.838,0,3.115-1.709,3.115-3.955s-1.277-3.955-3.115-3.955c-1.864,0-3.167,1.709-3.167,3.955s1.3,3.955,3.167,3.955m12.713,5.665H84.916V97.337h3.625Z" transform="translate(388.282 873.092)" fill="#fff"/><path d="M96.995,100.727h5.132V97.665h3.625v11.992H96.177c-2.2,0-2.807-.918-2.807-2.934V97.665h3.625ZM95.566,111.57h16.057v7.885h-3.7v-5.026H95.566Zm6.561-4.643v-3.469H96.995v2.5c0,.792.152.97.894.97Zm9.5-5.026h2.4v3.037h-2.4V110.5H108V97.283h3.625Z" transform="translate(394.046 873.146)" fill="#fff"/><path d="M111.3,97.665h12.254v7.194h-8.5v.971c0,.943.128,1.02.869,1.02h6.815c2.451,0,2.936-1.072,2.936-2.4V97.283H129.3v4.26h2.4v3.037h-2.4v5.613h-3.625v-1.531c-.562.688-2.068.918-3.165.918h-8.042c-2.093,0-3.165-.866-3.165-3.393V102.13h8.5v-1.735h-8.5Zm2.094,13.422h15.9v8.368H116.307c-1.967,0-2.91-1.047-2.91-2.986Zm12.278,5.638v-2.908h-8.654v1.964c0,.791.128.944.867.944Z" transform="translate(398.321 873.146)" fill="#fff"/><path d="M135.688,102.207c4.084,0,6.381,2.118,6.381,5,0,2.4-1.607,4.286-4.493,4.848v2.3h3.575c2.5,0,3.293-1.2,3.293-2.4V97.385h3.625v22.172h-3.625v-3.394a5.567,5.567,0,0,1-3.625,1.047H128.411v-2.859h5.49v-2.27c-2.961-.535-4.519-2.424-4.519-4.873,0-2.883,2.2-5,6.306-5m-6.97-3.291H133.8V96.849h3.777v2.066H142.5v2.756H128.718Zm6.97,10.819c1.838,0,2.91-1.072,2.91-2.526,0-1.429-1.072-2.526-2.91-2.526a2.54,2.54,0,0,0-2.859,2.526c0,1.455,1.022,2.526,2.859,2.526" transform="translate(402.398 873.043)" fill="#fff"/></g><g transform="translate(-3.353 36.501)"><path d="M18.727,153.668h3.868v-2.943a3.9,3.9,0,0,1-2.57-3.668c0-3.241,3.494-4.688,8.535-4.688s8.535,1.447,8.535,4.688a3.9,3.9,0,0,1-2.57,3.668v2.943h3.918v2.719H18.727Zm9.832,3.416c4.966,0,8.31,1.073,8.31,4.19s-3.343,4.191-8.31,4.191-8.284-1.073-8.284-4.191,3.319-4.19,8.284-4.19m0-7.782c2.919,0,4.867-.7,4.867-2.245,0-1.521-1.947-2.218-4.867-2.218s-4.841.7-4.841,2.218c0,1.548,1.922,2.245,4.841,2.245m0,13.718c2.87,0,4.617-.324,4.617-1.746s-1.747-1.746-4.617-1.746-4.616.325-4.616,1.746,1.746,1.746,4.616,1.746m-2.421-11.4v2.045H30.98v-2.045a19,19,0,0,1-2.421.125,18.772,18.772,0,0,1-2.421-.125" transform="translate(372.626 873.435)" fill="#002477"/><path d="M47.705,155.6a14.94,14.94,0,0,1-5.34-4.565,12.544,12.544,0,0,1-5.64,5.413l-2.07-2.245a9.388,9.388,0,0,0,5.689-8.505v-2.693h3.693v2.868c0,3.042,2.321,5.811,5.715,7.481Zm6.663,8.8H41.692c-1.922,0-2.846-1.023-2.846-2.918V156.9h3.619v3.841c0,.774.125.923.849.923H54.368Zm-.225-16.386h2.346v2.967H54.143v7.483H50.6V142.857h3.544Z" transform="translate(376.269 873.546)" fill="#002477"/><path d="M52.856,153.966H66.281a13.738,13.738,0,0,0,.774-4.316v-3.641H54.378v-2.868H70.9v6.011a15.908,15.908,0,0,1-.9,4.814h2.569v2.842H64.609v7.658H60.817v-7.658H52.856Z" transform="translate(380.431 873.61)" fill="#002477"/><path d="M75.609,160.341h8.01v-4.266c-3.868-.573-6.513-2.943-6.513-6.736,0-4.363,3.544-6.808,8.385-6.808,4.815,0,8.385,2.468,8.385,6.808,0,3.793-2.7,6.188-6.564,6.736v4.266h8.011v2.818H75.609Zm9.881-6.911c2.869,0,4.815-1.4,4.815-4.091,0-2.717-1.946-4.039-4.815-4.039-2.844,0-4.791,1.322-4.791,4.039,0,2.7,1.946,4.091,4.791,4.091" transform="translate(385.635 873.472)" fill="#002477"/><path d="M92.673,160.15h19.713v2.842H92.673Zm16.07-8.656a10.036,10.036,0,0,1-.4,2.844h3.019v2.795H93.7v-2.795h2.8V147.3h3.718v7.034h4.466a11.011,11.011,0,0,0,.35-2.818V147.3h3.718Zm-14.8-8.231h17.193v2.793H93.945Z" transform="translate(389.537 873.638)" fill="#002477"/><path d="M127.712,150.439h2.346v2.969h-2.346v11.123h-3.544v-2.943a5.435,5.435,0,0,1-3.544,1.023h-6.913c-2.17,0-3.467-1.1-3.467-3.566v-7.882h7.86v-4.988h-7.86v-2.818h11.5v10.6h-7.835v4.788c0,.923.274,1.1,1,1.1h6.039c2.446,0,3.219-1.171,3.219-2.343V142.857h3.544Z" transform="translate(393.556 873.546)" fill="#002477"/><path d="M133.229,142.632a6.486,6.486,0,1,1-6.488,6.486,6.194,6.194,0,0,1,6.488-6.486m12.527,21.825H132.829c-1.922,0-2.844-1.023-2.844-2.918v-4.663H133.6v3.915c0,.774.124.923.848.923h11.3Zm-12.527-11.473c1.8,0,3.045-1.67,3.045-3.866s-1.248-3.866-3.045-3.866c-1.822,0-3.094,1.671-3.094,3.866s1.272,3.866,3.094,3.866m12.427,5.536h-3.544V142.908h3.544Z" transform="translate(397.329 873.495)" fill="#002477"/><path d="M153.3,146.223h5.016v-2.992h3.544v11.723H152.5c-2.147,0-2.745-.9-2.745-2.868v-8.855H153.3Zm-1.4,10.6h15.7v7.707H163.98v-4.914H151.9Zm6.414-4.538v-3.393H153.3v2.444c0,.774.15.949.874.949Zm9.283-4.915h2.346v2.969H167.6v5.437h-3.544v-12.92H167.6Z" transform="translate(402.593 873.546)" fill="#002477"/><path d="M167.025,143.231H179v7.032h-8.311v.949c0,.922.125,1,.849,1H178.2c2.395,0,2.869-1.047,2.869-2.345v-7.008h3.544v4.166h2.346v2.966h-2.346v5.489h-3.544v-1.5c-.549.673-2.021.9-3.094.9h-7.861c-2.046,0-3.094-.849-3.094-3.317V147.6h8.31v-1.7h-8.31Zm2.046,13.12h15.547v8.18h-12.7c-1.922,0-2.844-1.023-2.844-2.918Zm12,5.512v-2.844h-8.46v1.92c0,.774.125.923.849.923Z" transform="translate(406.542 873.546)" fill="#002477"/><path d="M190.592,147.667c3.992,0,6.238,2.07,6.238,4.888,0,2.345-1.572,4.19-4.391,4.741v2.244h3.493c2.445,0,3.219-1.172,3.219-2.345V142.954h3.544v21.674h-3.544V161.31a5.442,5.442,0,0,1-3.544,1.023H183.48V159.54h5.365v-2.22c-2.894-.525-4.417-2.37-4.417-4.765,0-2.818,2.147-4.888,6.164-4.888m-6.812-3.218h4.965v-2.02h3.693v2.02h4.816v2.694H183.78Zm6.812,10.575c1.8,0,2.844-1.047,2.844-2.47,0-1.4-1.048-2.468-2.844-2.468a2.482,2.482,0,0,0-2.794,2.468c0,1.422,1,2.47,2.794,2.47" transform="translate(410.306 873.449)" fill="#002477"/></g><g transform="translate(0 17)"><path d="M15.871,271.244l5.682-5.265c1.475-1.421,2.273-2.3,2.273-3.57a2.275,2.275,0,0,0-2.513-2.291,2.278,2.278,0,0,0-2.448,2.468H15.74c-.01-3.117,2.285-5.111,5.617-5.111,3.387,0,5.639,1.949,5.639,4.716,0,1.816-.873,3.3-4.13,6.279l-2.4,2.358v.088h6.753v2.731H15.893Z" transform="translate(372.509 903.86)" fill="#070203"/><path d="M28.821,265.671c0-5.211,2.416-8.2,6.36-8.2s6.36,2.986,6.36,8.2c0,5.242-2.4,8.195-6.36,8.195s-6.36-2.974-6.36-8.195m6.36,5.463c1.836,0,3-1.785,2.994-5.463.01-3.647-1.169-5.476-2.994-5.487-1.825.011-2.993,1.84-2.993,5.487-.023,3.678,1.158,5.463,2.993,5.463" transform="translate(373.023 903.86)" fill="#070203"/><path d="M43.233,271.244l5.682-5.265c1.475-1.421,2.272-2.3,2.272-3.57a2.484,2.484,0,0,0-4.961.176H43.1c-.01-3.117,2.285-5.111,5.617-5.111,3.388,0,5.639,1.949,5.639,4.716,0,1.816-.874,3.3-4.129,6.279l-2.405,2.358v.088h6.754v2.731H43.255Z" transform="translate(373.586 903.86)" fill="#070203"/><path d="M56.225,269.151h3.322c.055,1.19,1.2,1.972,2.731,1.983,1.574-.011,2.7-.892,2.689-2.181.01-1.3-1.137-2.215-2.994-2.225H60.508v-2.446h1.464c1.562,0,2.656-.859,2.644-2.115a2.061,2.061,0,0,0-2.317-2.05,2.33,2.33,0,0,0-2.6,2.006H56.553c.054-2.744,2.5-4.65,5.747-4.65,3.3,0,5.5,1.973,5.486,4.5a3.37,3.37,0,0,1-2.993,3.37v.133c2.327.286,3.606,1.707,3.584,3.7.022,2.731-2.546,4.692-6.12,4.692-3.475,0-5.966-1.927-6.032-4.715" transform="translate(374.103 903.86)" fill="#070203"/><path d="M69.79,271.537a1.8,1.8,0,0,1,1.836-1.83,1.84,1.84,0,1,1-1.836,1.83" transform="translate(374.637 904.316)" fill="#070203"/><path d="M80.717,273.638h-3.3v-12.8H77.33L73.7,263.128V260.2l3.911-2.512h3.1Z" transform="translate(374.791 903.868)" fill="#070203"/><path d="M83.775,265.671c0-5.211,2.416-8.2,6.36-8.2s6.36,2.986,6.36,8.2c0,5.242-2.4,8.195-6.36,8.195s-6.36-2.974-6.36-8.195m6.36,5.463c1.836,0,3-1.785,2.994-5.463.01-3.647-1.169-5.476-2.994-5.487-1.825.011-2.993,1.84-2.993,5.487-.023,3.678,1.158,5.463,2.993,5.463" transform="translate(375.188 903.86)" fill="#070203"/><path d="M97.667,271.537a1.8,1.8,0,0,1,1.836-1.83,1.84,1.84,0,1,1-1.836,1.83" transform="translate(375.734 904.316)" fill="#070203"/><path d="M103.645,271.244l5.682-5.265c1.475-1.421,2.272-2.3,2.272-3.57a2.484,2.484,0,0,0-4.961.176h-3.124c-.011-3.117,2.284-5.111,5.616-5.111,3.388,0,5.639,1.949,5.639,4.716,0,1.816-.874,3.3-4.129,6.279l-2.405,2.358v.088h6.754v2.731H103.667Z" transform="translate(375.964 903.86)" fill="#070203"/><path d="M123.631,273.638h-3.3v-12.8h-.087l-3.627,2.291V260.2l3.911-2.512h3.1Z" transform="translate(376.48 903.868)" fill="#070203"/><path d="M130.749,257.028h3.081a19.654,19.654,0,0,0,0,21.129h-3.081a18.263,18.263,0,0,1,0-21.129" transform="translate(376.905 903.843)" fill="#070203"/><path d="M150.876,267.8H145.15v3.392h7.714v2.248h-18.2v-2.248h7.672V267.8H136.8V257.028h13.921v2.247H139.642v2.006h10.621v2.2H139.642v2.093h11.234Z" transform="translate(377.191 903.843)" fill="#070203"/><path d="M156.291,278.157H153.21a19.654,19.654,0,0,0,0-21.129h3.081a18.263,18.263,0,0,1,0,21.129" transform="translate(377.921 903.843)" fill="#070203"/><path d="M168.9,256.815a1.667,1.667,0,1,1-1.77,1.674,1.736,1.736,0,0,1,1.77-1.674m-1.616,4.892h3.235V273.67h-3.235Z" transform="translate(378.47 903.836)" fill="#070203"/><path d="M176.045,273.5H172.81V261.537h3.082v2.092h.131a3.587,3.587,0,0,1,3.562-2.248c2.481,0,4.1,1.708,4.087,4.5V273.5H180.46v-7.05a2.077,2.077,0,0,0-2.142-2.357,2.225,2.225,0,0,0-2.273,2.49Z" transform="translate(378.693 904.006)" fill="#070203"/><path d="M189.992,263.742h18.14v2.27h-7.693v1.256h5.486v5.067H194.844v1.146h11.6V275.6H192.112v-5.2H203.17v-1.08h-11.08v-2.049h5.551v-1.256h-7.65Zm5.07-6.367h7.977v-1.388h2.776v6.72H192.309v-6.72h2.753Zm7.977,2.027h-7.977v1.213h7.977Z" transform="translate(379.37 903.805)" fill="#070203"/><path d="M212.045,264.822v-3.559h2.775v3.481c1.989-.077,4.011-.21,5.88-.44l.153,1.961a74.484,74.484,0,0,1-12.261.837l-.24-2.247c1.136,0,2.382-.011,3.693-.033m7.759-6.731a25.708,25.708,0,0,1-.481,5.265l-2.731-.2a22.92,22.92,0,0,0,.426-4.12h-7.486v-2.248H219.8Zm-1.946,10.069c4.262,0,6.907,1.421,6.907,3.723,0,2.423-2.644,3.822-6.907,3.811-4.261.011-6.927-1.388-6.927-3.811,0-2.3,2.666-3.723,6.927-3.723m0,5.353c2.612,0,4.043-.5,4.043-1.631,0-1.013-1.431-1.575-4.043-1.564-2.611-.01-4.1.551-4.087,1.564-.01,1.135,1.476,1.631,4.087,1.631m3.912-17.824h2.862v4.935h2.426v2.335h-2.426v4.957H221.77Z" transform="translate(380.093 903.794)" fill="#070203"/><path d="M239.242,265.955l-1.334,2.181a7.475,7.475,0,0,1-4.7-3.767,7.627,7.627,0,0,1-4.764,4.1l-1.355-2.2a6.058,6.058,0,0,0,4.677-5.862v-.154h-4v-2.2h4v-2.225h2.819v2.225h3.978v2.2h-4.021v.154c.01,2.258,1.464,4.561,4.7,5.553m-8.457,3.349h2.8v3.834h10.883v2.247h-13.68Zm7.124-7.756h3.3V255.71h2.776v14.872h-2.776v-6.763h-3.3Z" transform="translate(380.831 903.794)" fill="#070203"/></g><g transform="translate(-3.353 20.937)"><path d="M18.727,231.669H38.44v2.793H18.727ZM28.559,219.8c5.041,0,8.535,1.62,8.535,5.262,0,3.666-3.493,5.263-8.535,5.263s-8.535-1.6-8.535-5.263c0-3.642,3.494-5.262,8.535-5.262m8.259,22.147H23.594c-1.922,0-2.846-1.023-2.846-2.918V235.36h3.668v2.918c0,.774.125.923.849.923H36.818ZM28.559,227.7c2.919,0,4.867-.8,4.867-2.644,0-1.821-1.947-2.619-4.867-2.619s-4.841.8-4.841,2.619c0,1.847,1.922,2.644,4.841,2.644" transform="translate(372.626 898.927)" fill="#002477"/><path d="M35.886,220.66H48.763v1.92h2.645v-2.294h3.544v13.268H51.409v-3.715H49.961v2.494a7.04,7.04,0,0,1-2.895.524H35.487v-2.67h2.1V224.3h3.544v5.886h2.221a8.519,8.519,0,0,0,.274-2.244V224.3h3.544v3.541a7.81,7.81,0,0,1-.349,2.345h.3a7.111,7.111,0,0,0,2.5-.348H48.488v-2.72h2.921V225.3h-2.87v-2.02H35.886ZM46.766,233.7c4.916,0,7.936,1.373,7.936,4.44s-3.02,4.44-7.936,4.44c-4.941,0-7.91-1.372-7.91-4.44s2.97-4.44,7.91-4.44m0,6.411c2.8,0,4.393-.548,4.393-1.971s-1.6-1.971-4.393-1.971-4.367.548-4.367,1.971,1.573,1.971,4.367,1.971" transform="translate(376.459 899.037)" fill="#002477"/><path d="M52.856,231.4H66.281a13.738,13.738,0,0,0,.774-4.316v-3.641H54.378V220.57H70.9v6.011A15.908,15.908,0,0,1,70,231.4h2.569v2.842H64.609V241.9H60.817v-7.658H52.856Z" transform="translate(380.431 899.102)" fill="#002477"/><path d="M75.609,237.769h8.01V233.5c-3.868-.573-6.513-2.943-6.513-6.734,0-4.365,3.544-6.809,8.385-6.809,4.815,0,8.385,2.47,8.385,6.809,0,3.792-2.7,6.186-6.564,6.734v4.266h8.011v2.818H75.609Zm9.881-6.91c2.869,0,4.815-1.4,4.815-4.091,0-2.719-1.946-4.04-4.815-4.04-2.844,0-4.791,1.322-4.791,4.04,0,2.694,1.946,4.091,4.791,4.091" transform="translate(385.635 898.963)" fill="#002477"/><path d="M92.673,237.577h19.713v2.842H92.673Zm16.07-8.655a10.042,10.042,0,0,1-.4,2.844h3.019v2.793H93.7v-2.793h2.8v-7.034h3.718v7.034h4.466a11.02,11.02,0,0,0,.35-2.819v-4.215h3.718Zm-14.8-8.231h17.193v2.793H93.945Z" transform="translate(389.537 899.129)" fill="#002477"/><path d="M127.712,227.867h2.346v2.969h-2.346v11.123h-3.544v-2.943a5.442,5.442,0,0,1-3.544,1.023h-6.913c-2.17,0-3.467-1.1-3.467-3.566V228.59h7.86V223.6h-7.86v-2.819h11.5v10.6h-7.835v4.788c0,.923.274,1.1,1,1.1h6.039c2.446,0,3.219-1.171,3.219-2.343V220.285h3.544Z" transform="translate(393.556 899.037)" fill="#002477"/><path d="M133.229,220.061a6.485,6.485,0,1,1-6.488,6.486,6.194,6.194,0,0,1,6.488-6.486m12.527,21.825H132.829c-1.922,0-2.844-1.023-2.844-2.918V234.3H133.6v3.917c0,.774.124.923.848.923h11.3Zm-12.527-11.473c1.8,0,3.045-1.671,3.045-3.866s-1.248-3.866-3.045-3.866c-1.822,0-3.094,1.671-3.094,3.866s1.272,3.866,3.094,3.866m12.427,5.536h-3.544V220.337h3.544Z" transform="translate(397.329 898.986)" fill="#002477"/><path d="M153.3,223.651h5.016v-2.992h3.544v11.723H152.5c-2.147,0-2.745-.9-2.745-2.868v-8.855H153.3Zm-1.4,10.6h15.7v7.707H163.98v-4.914H151.9Zm6.414-4.538v-3.393H153.3v2.444c0,.774.15.949.874.949ZM167.6,224.8h2.346v2.969H167.6V233.2h-3.544V220.285H167.6Z" transform="translate(402.593 899.037)" fill="#002477"/><path d="M167.025,220.66H179v7.033h-8.311v.949c0,.922.125,1,.849,1H178.2c2.395,0,2.869-1.048,2.869-2.345v-7.008h3.544v4.164h2.346v2.967h-2.346v5.489h-3.544v-1.5c-.549.673-2.021.9-3.094.9h-7.861c-2.046,0-3.094-.849-3.094-3.317v-3.967h8.31v-1.695h-8.31Zm2.046,13.12h15.547v8.18h-12.7c-1.922,0-2.844-1.023-2.844-2.918Zm12,5.512v-2.844h-8.46v1.92c0,.774.125.923.849.923Z" transform="translate(406.542 899.037)" fill="#002477"/><path d="M190.592,225.1c3.992,0,6.238,2.07,6.238,4.888,0,2.345-1.572,4.19-4.391,4.739v2.245h3.493c2.445,0,3.219-1.174,3.219-2.345V220.383h3.544v21.674h-3.544V238.74a5.442,5.442,0,0,1-3.544,1.023H183.48v-2.793h5.365v-2.22c-2.894-.525-4.417-2.37-4.417-4.765,0-2.818,2.147-4.888,6.164-4.888m-6.812-3.218h4.965v-2.021h3.693v2.021h4.816v2.694H183.78Zm6.812,10.575c1.8,0,2.844-1.047,2.844-2.47,0-1.4-1.048-2.468-2.844-2.468a2.482,2.482,0,0,0-2.794,2.468c0,1.422,1,2.47,2.794,2.47" transform="translate(410.306 898.94)" fill="#002477"/></g><circle cx="3" cy="3" r="3" transform="translate(373 1059)" fill="#002477"/><circle cx="3" cy="3" r="3" transform="translate(373 1148)" fill="#002477"/><g transform="translate(389 1087)"><g transform="translate(0 0)" clip-path="url(#a)"><path d="M.13,15.719l5.66-5.255C7.26,9.045,8.055,8.165,8.055,6.9a2.267,2.267,0,0,0-2.5-2.287A2.271,2.271,0,0,0,3.113,7.077H0c-.01-3.112,2.275-5.1,5.595-5.1,3.374,0,5.617,1.945,5.617,4.705,0,1.813-.871,3.3-4.114,6.267L4.7,15.3v.088h6.726v2.726H.152Z" transform="translate(0 0.069)" fill="#070203"/><path d="M13.081,10.155c0-5.2,2.406-8.179,6.335-8.179s6.335,2.98,6.335,8.179c0,5.235-2.395,8.182-6.335,8.182s-6.335-2.969-6.335-8.182m6.335,5.454c1.828,0,2.993-1.781,2.983-5.454.01-3.638-1.165-5.463-2.983-5.475-1.818.011-2.982,1.837-2.982,5.475-.023,3.673,1.153,5.454,2.982,5.454" transform="translate(0.462 0.069)" fill="#070203"/><path d="M27.491,15.719l5.66-5.255c1.469-1.418,2.264-2.3,2.264-3.562a2.267,2.267,0,0,0-2.5-2.287,2.271,2.271,0,0,0-2.438,2.463H27.361c-.01-3.112,2.275-5.1,5.595-5.1,3.374,0,5.617,1.945,5.617,4.705,0,1.813-.871,3.3-4.114,6.267L32.063,15.3v.088H38.79v2.726H27.513Z" transform="translate(0.966 0.069)" fill="#070203"/><path d="M40.484,13.629h3.309c.055,1.189,1.2,1.968,2.721,1.978,1.567-.01,2.689-.889,2.678-2.176.01-1.3-1.133-2.21-2.983-2.222H44.75V8.77h1.459c1.556,0,2.645-.858,2.634-2.111a2.053,2.053,0,0,0-2.308-2.045,2.321,2.321,0,0,0-2.59,2H40.811c.054-2.738,2.492-4.64,5.724-4.64,3.288,0,5.476,1.968,5.464,4.485a3.361,3.361,0,0,1-2.982,3.365v.133c2.318.287,3.591,1.7,3.57,3.694.022,2.727-2.537,4.685-6.1,4.685-3.461,0-5.943-1.926-6.008-4.707" transform="translate(1.429 0.069)" fill="#070203"/><path d="M54.049,16.035a1.8,1.8,0,0,1,1.828-1.825,1.825,1.825,0,0,1,1.807,1.825,1.845,1.845,0,0,1-1.807,1.847,1.815,1.815,0,0,1-1.828-1.847" transform="translate(1.908 0.501)" fill="#070203"/><path d="M64.949,18.108H61.662V5.332h-.087L57.961,7.619V4.694l3.9-2.506h3.091Z" transform="translate(2.046 0.077)" fill="#070203"/><path d="M68.035,10.155c0-5.2,2.406-8.179,6.335-8.179s6.335,2.98,6.335,8.179c0,5.235-2.395,8.182-6.335,8.182s-6.335-2.969-6.335-8.182m6.335,5.454c1.828,0,2.993-1.781,2.983-5.454.01-3.638-1.165-5.463-2.983-5.475-1.818.011-2.982,1.837-2.982,5.475-.023,3.673,1.153,5.454,2.982,5.454" transform="translate(2.402 0.069)" fill="#070203"/><path d="M81.926,16.035a1.8,1.8,0,0,1,1.828-1.825,1.825,1.825,0,0,1,1.807,1.825,1.845,1.845,0,0,1-1.807,1.847,1.815,1.815,0,0,1-1.828-1.847" transform="translate(2.893 0.501)" fill="#070203"/><path d="M87.088,10.155c0-5.2,2.406-8.179,6.335-8.179s6.335,2.98,6.335,8.179c0,5.235-2.395,8.182-6.335,8.182s-6.335-2.969-6.335-8.182m6.335,5.454c1.828,0,2.993-1.781,2.983-5.454.01-3.638-1.165-5.463-2.983-5.475-1.818.011-2.982,1.837-2.982,5.475-.023,3.673,1.153,5.454,2.982,5.454" transform="translate(3.075 0.069)" fill="#070203"/><path d="M101.263,10.529c.011-5.376,2.547-8.553,6.487-8.553a5.367,5.367,0,0,1,5.66,4.639h-3.222a2.328,2.328,0,0,0-2.438-1.8c-2.144,0-3.265,1.946-3.287,5.08h.152a4.413,4.413,0,0,1,4.027-2.244,4.876,4.876,0,0,1,4.942,5.145c.011,3.233-2.405,5.552-5.964,5.542-3.255-.01-6.367-1.98-6.357-7.807m6.335,5.19a2.748,2.748,0,0,0,2.808-2.836,2.745,2.745,0,0,0-2.764-2.837,2.852,2.852,0,0,0-2.851,2.837,2.793,2.793,0,0,0,2.808,2.836" transform="translate(3.575 0.069)" fill="#070203"/><path d="M119.19,1.529h3.069a21,21,0,0,0-3.069,10.533,21.123,21.123,0,0,0,3.069,10.555H119.19a17.98,17.98,0,0,1-3.352-10.555A17.912,17.912,0,0,1,119.19,1.529" transform="translate(4.09 0.054)" fill="#070203"/><path d="M139.093,2.667a24.3,24.3,0,0,1-.468,5.584h2.623v2.266H123.115V8.251h12.713a23.954,23.954,0,0,0,.5-4.947H125.335V1.061h13.758Zm-13.823,9.962h13.757v7.323H125.269Zm10.993,2.2H127.99v2.88h8.272Z" transform="translate(4.347 0.037)" fill="#070203"/><path d="M144.733,22.617h-3.069a21.123,21.123,0,0,0,3.069-10.555,21,21,0,0,0-3.069-10.533h3.069a17.917,17.917,0,0,1,3.352,10.533,17.987,17.987,0,0,1-3.352,10.555" transform="translate(5.002 0.054)" fill="#070203"/><path d="M157.35,1.316a1.711,1.711,0,0,1,1.741,1.671,1.7,1.7,0,0,1-1.741,1.65,1.72,1.72,0,0,1-1.764-1.65,1.731,1.731,0,0,1,1.764-1.671M155.739,6.2h3.222v11.94h-3.222Z" transform="translate(5.493 0.046)" fill="#070203"/><path d="M164.486,17.977h-3.222V6.037h3.07V8.125h.13a3.572,3.572,0,0,1,3.548-2.242c2.471,0,4.082,1.7,4.071,4.485v7.61h-3.2V10.94a2.072,2.072,0,0,0-2.135-2.352,2.218,2.218,0,0,0-2.263,2.484Z" transform="translate(5.694 0.207)" fill="#070203"/><path d="M196.515,11.9H178.447V9.659h4.071v-2.4a3.244,3.244,0,0,1-2.264-2.926c0-2.418,2.819-3.859,7.227-3.87,4.375.011,7.2,1.452,7.206,3.87a3.278,3.278,0,0,1-2.329,2.948V9.659h4.158Zm-9.056,1.056c4.278-.011,6.879,1.275,6.9,3.584-.022,2.365-2.622,3.628-6.9,3.628-4.342,0-6.944-1.263-6.944-3.628,0-2.309,2.6-3.6,6.944-3.584m.022-6.972c2.765.011,4.333-.549,4.333-1.649,0-1.121-1.567-1.714-4.333-1.714-2.8,0-4.353.593-4.332,1.714-.022,1.1,1.534,1.661,4.332,1.649m-.022,12.1c2.689,0,4.1-.517,4.114-1.54-.01-.99-1.426-1.463-4.114-1.473-2.743.01-4.126.483-4.114,1.473-.011,1.023,1.372,1.54,4.114,1.54m2.134-8.422V7.977a15.964,15.964,0,0,1-2.112.12,18.826,18.826,0,0,1-2.156-.12V9.659Z" transform="translate(6.301 0.016)" fill="#070203"/><path d="M209.022,9.712l-1.459,2.2a7.535,7.535,0,0,1-4.528-3.99,7.871,7.871,0,0,1-4.746,4.365l-1.545-2.222A6.573,6.573,0,0,0,201.6,3.6V1.422h2.786v2.2a6.236,6.236,0,0,0,4.637,6.09m-9.1,3.7h2.829v4.2h10.775v2.244h-13.6ZM210,.19h2.786V5.974h2.678V8.349h-2.678v6.509H210Z" transform="translate(6.947 0.006)" fill="#070203"/><path d="M231.628,3.121a35.694,35.694,0,0,1-.511,6.706h2.623v2.266h-7.729v8.092h-2.786V12.092h-7.554V9.826H228.3a31,31,0,0,0,.566-6.266H217.741V1.317h13.888Z" transform="translate(7.615 0.046)" fill="#070203"/><path d="M245.587,4.482h-4.006c.032,2.055,1.513,4.145,4.7,4.969L245,11.607a7.243,7.243,0,0,1-4.746-3.464,7.364,7.364,0,0,1-4.789,3.992l-1.306-2.177c3.167-.925,4.637-3.212,4.659-5.476h-3.984v-2.2h3.984V.106h2.808V2.283h3.962Zm-1.372,8.135c4.223.011,6.825,1.365,6.836,3.76-.011,2.431-2.613,3.838-6.836,3.826-4.2.011-6.813-1.4-6.813-3.826,0-2.4,2.612-3.749,6.813-3.76m0,5.454c2.678,0,4.059-.593,4.071-1.694-.011-1.065-1.392-1.6-4.071-1.6-2.623,0-4.049.539-4.049,1.6,0,1.1,1.426,1.694,4.049,1.694M245,5.56h3.222V.193h2.765v12.1h-2.765V7.8H245Z" transform="translate(8.268 0.003)" fill="#070203"/><path d="M268.414,8.723c-.011,4.4-2.2,7.147-5.224,7.147s-5.236-2.749-5.225-7.147c-.01-4.366,2.188-7.126,5.225-7.126s5.213,2.76,5.224,7.126m-5.224,4.6c1.545.01,2.557-1.616,2.569-4.6-.011-2.969-1.024-4.6-2.569-4.6-1.514,0-2.547,1.626-2.547,4.6s1.033,4.606,2.547,4.6M270.7.19h2.786V7.733H276.4v2.33h-2.917V20.2H270.7Z" transform="translate(9.108 0.006)" fill="#070203"/><path d="M276.472,15.534h18.133v2.287H276.472ZM292.625,12.7H278.606V1.614h13.867V3.878H281.435V5.989h10.58v2.2h-10.58v2.287h11.19Z" transform="translate(9.762 0.057)" fill="#070203"/><path d="M295.084,9.763h7.641V8.851c-3.5-.176-5.29-.957-5.269-2.5-.022-1.736,2.232-2.517,6.662-2.505,4.4-.011,6.65.769,6.661,2.505-.011,1.529-1.785,2.321-5.268,2.5v.912h7.641v2H295.084Zm17.132-6.421H295.955V1.385h6.77V0h2.787V1.385h6.7ZM297.173,12.6h13.78v4.574H300v.945h11.472v1.956H297.195V15.348h10.929v-.813h-10.95Zm6.945-5.5c2.667.011,3.722-.221,3.722-.749s-1.055-.725-3.722-.725c-2.7,0-3.7.187-3.7.725s1,.76,3.7.749" transform="translate(10.419 0)" fill="#070203"/><path d="M323.322,4.1V3.8h-3.984V1.553h10.754V3.8h-3.94v.33a6.134,6.134,0,0,0,4.55,5.828l-1.372,2.22A7.576,7.576,0,0,1,324.769,8.2a7.855,7.855,0,0,1-4.8,4.389l-1.415-2.287a6.428,6.428,0,0,0,4.768-6.2m-1.11,9.435H325v4.067h10.841v2.244H322.212Zm13.148,1.274H332.6V7.645h-3.245V5.38H332.6V.211h2.764Z" transform="translate(11.247 0.007)" fill="#070203"/><path d="M349.993,13.516l-1.632,2.244a9.293,9.293,0,0,1-4.735-5.509,9.571,9.571,0,0,1-4.93,5.992l-1.676-2.332c3.461-1.473,5.148-5.31,5.159-9.191V1.73h2.808V4.721c-.01,3.672,1.644,7.356,5.007,8.8M351.061.19h2.808V20.245h-2.808Z" transform="translate(11.899 0.006)" fill="#070203"/><path d="M367.149,3.775h-3.94c.01,2.33,1.415,4.585,4.572,5.519l-1.328,2.2a7.41,7.41,0,0,1-4.582-3.728,7.885,7.885,0,0,1-4.865,4.409l-1.415-2.22a6.491,6.491,0,0,0,4.811-6.18h-4.049V1.532h10.8Zm-2.025,8.686c4.126-.011,6.673,1.407,6.683,3.847-.01,2.453-2.557,3.9-6.683,3.893-4.19.011-6.8-1.44-6.792-3.893-.01-2.44,2.6-3.859,6.792-3.847m0,5.564c2.57,0,3.94-.573,3.94-1.717,0-1.121-1.371-1.682-3.94-1.671-2.6-.011-4.026.55-4,1.671-.022,1.144,1.4,1.717,4,1.717M368.825.19h2.786V4.83h2.677V7.117h-2.677v4.949h-2.786Z" transform="translate(12.555 0.006)" fill="#070203"/></g></g></g></svg>