<svg xmlns="http://www.w3.org/2000/svg" width="198.106" height="43.906" viewBox="0 0 198.106 43.906"><g transform="translate(-372.408 -959.675)"><path d="M176.609,132.488H22.5a21.953,21.953,0,1,1,0-43.906H176.609a21.953,21.953,0,1,1,0,43.906" transform="translate(371.908 871.093)" fill="#002477"/><path d="M16.069,115.171h8.194v-4.364c-3.957-.586-6.662-3.011-6.662-6.889,0-4.465,3.625-6.967,8.577-6.967,4.927,0,8.578,2.526,8.578,6.967,0,3.878-2.758,6.328-6.714,6.889v4.364h8.194v2.883H16.069ZM26.178,108.1c2.936,0,4.927-1.429,4.927-4.185,0-2.782-1.991-4.133-4.927-4.133-2.91,0-4.9,1.351-4.9,4.133,0,2.756,1.991,4.185,4.9,4.185" transform="translate(375.62 873.067)" fill="#fff"/><path d="M33.8,114.969H53.964v2.909H33.8Zm16.441-8.854a10.228,10.228,0,0,1-.41,2.909h3.09v2.857H34.843v-2.857H37.7v-7.2h3.8v7.2h4.57a11.257,11.257,0,0,0,.358-2.883v-4.312h3.8ZM35.1,97.695h17.59v2.859H35.1Z" transform="translate(379.846 873.243)" fill="#fff"/><path d="M69.91,105.038h2.4v3.037h-2.4v11.38H66.285v-3.011a5.569,5.569,0,0,1-3.626,1.046h-7.07c-2.222,0-3.549-1.122-3.549-3.648v-8.063h8.041v-5.1H52.04V97.792H63.808v10.844H55.792v4.9c0,.944.281,1.122,1.022,1.122h6.177c2.5,0,3.294-1.2,3.294-2.4V97.283H69.91Z" transform="translate(384.194 873.146)" fill="#fff"/><path d="M75.828,97.055a6.634,6.634,0,1,1-6.638,6.634,6.336,6.336,0,0,1,6.638-6.634m12.815,22.326H75.419c-1.965,0-2.91-1.047-2.91-2.985v-4.773h3.7v4.007c0,.791.128.944.868.944H88.642ZM75.828,107.644c1.838,0,3.115-1.709,3.115-3.955s-1.277-3.955-3.115-3.955c-1.864,0-3.167,1.709-3.167,3.955s1.3,3.955,3.167,3.955m12.713,5.665H84.916V97.337h3.625Z" transform="translate(388.282 873.092)" fill="#fff"/><path d="M96.995,100.727h5.132V97.665h3.625v11.992H96.177c-2.2,0-2.807-.918-2.807-2.934V97.665h3.625ZM95.566,111.57h16.057v7.885h-3.7v-5.026H95.566Zm6.561-4.643v-3.469H96.995v2.5c0,.792.152.97.894.97Zm9.5-5.026h2.4v3.037h-2.4V110.5H108V97.283h3.625Z" transform="translate(394.046 873.146)" fill="#fff"/><path d="M111.3,97.665h12.254v7.194h-8.5v.971c0,.943.128,1.02.869,1.02h6.815c2.451,0,2.936-1.072,2.936-2.4V97.283H129.3v4.26h2.4v3.037h-2.4v5.613h-3.625v-1.531c-.562.688-2.068.918-3.165.918h-8.042c-2.093,0-3.165-.866-3.165-3.393V102.13h8.5v-1.735h-8.5Zm2.094,13.422h15.9v8.368H116.307c-1.967,0-2.91-1.047-2.91-2.986Zm12.278,5.638v-2.908h-8.654v1.964c0,.791.128.944.867.944Z" transform="translate(398.321 873.146)" fill="#fff"/><path d="M135.688,102.207c4.084,0,6.381,2.118,6.381,5,0,2.4-1.607,4.286-4.493,4.848v2.3h3.575c2.5,0,3.293-1.2,3.293-2.4V97.385h3.625v22.172h-3.625v-3.394a5.567,5.567,0,0,1-3.625,1.047H128.411v-2.859h5.49v-2.27c-2.961-.535-4.519-2.424-4.519-4.873,0-2.883,2.2-5,6.306-5m-6.97-3.291H133.8V96.849h3.777v2.066H142.5v2.756H128.718Zm6.97,10.819c1.838,0,2.91-1.072,2.91-2.526,0-1.429-1.072-2.526-2.91-2.526a2.54,2.54,0,0,0-2.859,2.526c0,1.455,1.022,2.526,2.859,2.526" transform="translate(402.398 873.043)" fill="#fff"/></g></svg>