<svg xmlns="http://www.w3.org/2000/svg" xmlns:xlink="http://www.w3.org/1999/xlink" width="618" height="407" viewBox="0 0 618 407"><defs><clipPath id="a"><rect width="222.669" height="57.845" transform="translate(0 0)" fill="none"/></clipPath><clipPath id="b"><rect width="350.572" height="51.35" fill="none"/></clipPath></defs><g transform="translate(-972 -1199)"><rect width="618" height="376" rx="10" transform="translate(972 1230)" fill="#03396e"/><rect width="618" height="376" rx="10" transform="translate(972 1220)" fill="#fff"/><rect width="376" height="7" transform="translate(1141 1484)" fill="#d2e9ff"/><path d="M-185.952-11.076h2.132l.754-5.59.13-3.614h-3.9l.13,3.614Zm17.576-3.666v2.782h4.134v7.748h3.432v-17.5h-3.432v6.968Zm-10.92-5.174v2.73h7.462c-.572,3.51-3.718,6.37-8.71,7.93l1.4,2.756c6.968-2.21,10.972-6.942,10.972-13.416ZM-173.03-.91V-5.928h-3.432V1.82h16.25V-.91Zm31.408-8.632h3.432V-21.71h-3.432v3.51h-4.368v2.73h4.368Zm-2.288-2.912c-3.744-1.144-5.382-3.926-5.382-6.76V-20.93h-3.458v1.716c0,3.042-1.664,5.98-5.642,7.176l1.768,2.678a9.118,9.118,0,0,0,5.668-4.862,8.736,8.736,0,0,0,5.3,4.394ZM-150.566-.7v-1.4h12.376V-8.528h-15.782V-5.9h12.4v1.326h-12.376V1.95h16.432V-.7Zm21.5-6.474a2.41,2.41,0,0,0,2.392-2.5,2.41,2.41,0,0,0-2.392-2.5,2.389,2.389,0,0,0-2.366,2.5A2.389,2.389,0,0,0-129.064-7.176Zm21.892-3.172a7.419,7.419,0,0,1-5.486-7.306v-2.6h-3.484v2.574a7.837,7.837,0,0,1-5.72,7.774l1.82,2.678a9.315,9.315,0,0,0,5.694-5.174A8.95,8.95,0,0,0-108.94-7.67Zm-7.462,4.5h-3.432V1.82h16.25V-.91h-12.818Zm11.986-8.918V-21.71h-3.432V-4.186h3.432v-7.748h3.172v-2.834ZM-82.264-.78h-9.048V-2.912h9.048Zm0-4.732h-9.048V-7.8h-3.406V1.95h15.86V-7.8h-3.406Zm-10.01-6.63A2.772,2.772,0,0,1-95.29-15a2.772,2.772,0,0,1,3.016-2.86A2.78,2.78,0,0,1-89.232-15,2.78,2.78,0,0,1-92.274-12.142Zm9.984-9.568v5.278h-3.822a6.093,6.093,0,0,0-6.162-4.29c-3.588,0-6.292,2.392-6.292,5.72s2.7,5.72,6.292,5.72a6.064,6.064,0,0,0,6.188-4.368h3.8v4.81h3.432V-21.71Zm9.568,7.618a2.967,2.967,0,0,1,3.146-3.12,2.981,2.981,0,0,1,3.146,3.12,2.981,2.981,0,0,1-3.146,3.12A2.967,2.967,0,0,1-72.722-14.092Zm9.62,0a6.139,6.139,0,0,0-6.474-6.084c-3.666,0-6.5,2.548-6.5,6.084,0,3.51,2.834,6.084,6.5,6.084A6.155,6.155,0,0,0-63.1-14.092ZM-69.42-6.084h-3.432v7.9h16.3V-.91H-69.42Zm12.012-8.762V-21.71H-60.84V-4.29h3.432v-7.748h3.172v-2.808Zm16.614-.676v2.782h3.744v8.5h3.432V-21.71H-37.05v6.188Zm1.586,5.512a7.37,7.37,0,0,1-5.408-7.046v-.312h4.654V-20.1h-12.87v2.73h4.706v.338a7.7,7.7,0,0,1-5.642,7.436l1.742,2.73a9.411,9.411,0,0,0,5.72-5.2,8.929,8.929,0,0,0,5.434,4.732Zm-6.76,9.1V-5.694H-49.4V1.82h16.328V-.91ZM-28.99-11.076h2.132l.754-5.59.13-3.614h-3.9l.13,3.614Zm25.22-2.7H-13.1v-2.158H-3.77Zm3.406-7.176H-3.77v2.444H-13.1v-2.444H-16.51V-11.1H-.364Zm-12.974,16.2H-16.77V1.82H.026V-.91H-13.338Zm-5.954-4.68v2.7h9.438v3.77h3.432v-3.77h8.84v-2.7ZM9.776-6.058c-1.794,0-2.99-1.9-2.99-5.46,0-3.51,1.2-5.434,2.99-5.434,1.768,0,2.99,1.924,2.99,5.434C12.766-7.956,11.544-6.058,9.776-6.058Zm0-13.988c-3.64,0-6.292,3.276-6.292,8.528,0,5.278,2.652,8.58,6.292,8.58,3.614,0,6.292-3.3,6.292-8.58C16.068-16.77,13.39-20.046,9.776-20.046ZM25.4-13.312V-16.12H22.1v-5.59H18.668V2.236H22.1V-6.318h3.3V-9.126H22.1v-4.186Zm24.518-.026H36.66v-1.4H49.166v-2.5H36.66v-1.3H49.738v-2.6H33.254v10.4H49.92Zm-16.952,11H46.124v4.6h3.432V-5.044H32.968ZM30.55-9.282v2.73H52.208v-2.73Zm36.92-9.8h-5.3v-2.522H58.734v2.522H53.378v2.7H67.47Zm-9.62,8.138c0-1.222,1.04-1.9,2.6-1.9s2.6.676,2.6,1.9c0,1.274-1.04,1.95-2.6,1.95S57.85-9.672,57.85-10.946ZM62.166-6.6c2.5-.52,4.134-2.132,4.134-4.342,0-2.678-2.418-4.5-5.85-4.5s-5.85,1.82-5.85,4.5c0,2.21,1.638,3.822,4.134,4.342v2.028c-2.106.052-4.082.052-5.8.052l.416,2.782A76.417,76.417,0,0,0,67.834-2.73l-.26-2.47c-1.716.26-3.562.39-5.408.494ZM75.218-11.96h-2.99v-9.75H68.8V2.236h3.432V-9.126h2.99ZM88.66-15.522v2.782H92.4v8.5h3.432V-21.71H92.4v6.188Zm1.586,5.512a7.37,7.37,0,0,1-5.408-7.046v-.312h4.654V-20.1H76.622v2.73h4.706v.338a7.7,7.7,0,0,1-5.642,7.436l1.742,2.73a9.411,9.411,0,0,0,5.72-5.2,8.929,8.929,0,0,0,5.434,4.732Zm-6.76,9.1V-5.694H80.054V1.82H96.382V-.91Zm30.472-13.572h-9.49v-3.536h9.49Zm3.38-6.214h-16.25v8.918h16.25ZM104.364-5.122h-3.432V1.82H117.7V-.91H104.364ZM98.41-9.88v2.7h9.438v4.082h3.432V-7.176h8.814v-2.7Zm35.49-5.642v2.782h3.744v8.5h3.432V-21.71h-3.432v6.188Zm1.586,5.512a7.37,7.37,0,0,1-5.408-7.046v-.312h4.654V-20.1h-12.87v2.73h4.706v.338a7.7,7.7,0,0,1-5.642,7.436l1.742,2.73a9.411,9.411,0,0,0,5.72-5.2,8.929,8.929,0,0,0,5.434,4.732Zm-6.76,9.1V-5.694h-3.432V1.82h16.328V-.91Zm24.232-18.954h-3.432v3.484c0,4.654-1.976,9.282-6.162,11.076l2.054,2.834a11.585,11.585,0,0,0,5.876-7.124,10.94,10.94,0,0,0,5.668,6.552l1.95-2.782c-4.056-1.742-5.954-6.11-5.954-10.556Zm7.124-1.872V2.288h3.432V-21.736Zm21.19,2.678h-5.46v-2.574H172.38v2.574h-5.486v2.678h14.378Zm-9.854,8.112c0-1.222,1.092-1.9,2.678-1.9,1.612,0,2.678.676,2.678,1.9,0,1.248-1.066,1.924-2.678,1.924C172.51-9.022,171.418-9.7,171.418-10.946ZM175.812-6.6c2.548-.494,4.212-2.106,4.212-4.342,0-2.678-2.444-4.5-5.928-4.5-3.51,0-5.954,1.82-5.954,4.5,0,2.236,1.664,3.848,4.238,4.342v2.028c-2.132.052-4.16.052-5.954.052l.416,2.782a84.124,84.124,0,0,0,15-.988l-.26-2.5c-1.872.26-3.822.39-5.772.52Zm7.02-15.106V2.236h3.432V-21.71Z" transform="translate(1329 1486)" fill="#0060be"/><path d="M-30.459-12.116h-11.57v-3.432h11.57Zm2.132-8.346h-2.132v3.2h-11.57v-3.2h-2.106v10.088h15.808Zm2.678,12.9H-46.813V-5.85h9.464v7.8h2.132v-7.8h9.568Zm1.482-2.5v1.716h21.06v-1.716ZM-13.637-6.4c-4.966,0-7.982,1.482-7.982,4.16,0,2.652,3.016,4.16,7.982,4.16,4.992,0,7.982-1.508,7.982-4.16C-5.655-4.914-8.645-6.4-13.637-6.4Zm0,1.638c3.666,0,5.824.936,5.824,2.522S-9.971.26-13.637.26s-5.824-.91-5.824-2.5S-17.3-4.758-13.637-4.758Zm0-16.042c-5.018,0-8.19,1.638-8.19,4.446,0,2.782,3.172,4.42,8.19,4.42,5.044,0,8.19-1.638,8.19-4.42C-5.447-19.162-8.593-20.8-13.637-20.8Zm0,1.664c3.692,0,6.006,1.04,6.006,2.782,0,1.716-2.314,2.756-6.006,2.756s-6.006-1.04-6.006-2.756C-19.643-18.1-17.329-19.136-13.637-19.136ZM5.291-5.044a3.5,3.5,0,0,1-3.64-3.588,3.5,3.5,0,0,1,3.64-3.614A3.51,3.51,0,0,1,8.957-8.632,3.5,3.5,0,0,1,5.291-5.044Zm0-8.97A5.316,5.316,0,0,0-.351-8.632c0,3.172,2.366,5.356,5.642,5.356,3.328,0,5.694-2.184,5.694-5.356C10.985-11.778,8.619-14.014,5.291-14.014Zm1.04-7.1H4.2v3.458H-1.677v1.716H12.077v-1.716H6.331ZM20.241-11.8H16.419v-9.568H14.287v23.3h2.132V-10.01h3.822Zm19.526-2.574H26.039V-20.54H23.907v7.9h15.86ZM25.883-5.46H23.751V1.352H39.9V-.39H25.883ZM21.047-9.516V-7.8H42.185V-9.516Z" transform="translate(1093 1486)" fill="#121212"/><path d="M-237.094-11.882c3.822-.468,7.332-2.184,8.606-4.758,1.3,2.574,4.784,4.29,8.606,4.758l.754-1.69c-4.082-.468-7.8-2.47-7.982-5.044h7.254v-1.716h-17.238v1.716h7.228c-.182,2.574-3.9,4.576-7.982,5.044Zm14.4,9.672c0,1.56-2.184,2.47-5.824,2.47-3.666,0-5.824-.91-5.824-2.47s2.158-2.444,5.824-2.444C-224.874-4.654-222.69-3.77-222.69-2.21Zm4.732-6.552v-1.716h-21.086v1.716h9.464v2.5c-4.342.208-6.916,1.638-6.916,4.056,0,2.652,3.016,4.108,8.008,4.108,4.966,0,7.956-1.456,7.956-4.108,0-2.418-2.548-3.848-6.89-4.056v-2.5Zm4.472-8.06h6.578v-1.742h-8.684V-3.822h1.534a38.292,38.292,0,0,0,8.632-.7l-.182-1.768a36.682,36.682,0,0,1-7.878.7Zm14.82-4.576v9.36h-3.3v-8.84h-2V.754h2V-10.3h3.3V1.924h2.054V-21.4Zm11.752,4.5h4.238v-1.742h-10.816V-16.9h4.524v1.82c0,4.732-1.742,8.71-5.07,10.582l1.3,1.612a10.887,10.887,0,0,0,4.836-7.1,10.434,10.434,0,0,0,4.732,6.292l1.248-1.638c-3.3-1.716-4.992-5.486-4.992-9.75Zm10.946-4.524v9.438h-3.068v-8.892h-2V.78h2v-11h3.068V1.924h2.054V-21.424Zm10.556,16.172c-1.82,0-3.094-1.482-3.094-3.562,0-2.028,1.274-3.51,3.094-3.51a3.215,3.215,0,0,1,3.094,3.51C-162.318-6.734-163.618-5.252-165.412-5.252Zm0-8.866a4.963,4.963,0,0,0-4.992,5.3c0,3.172,2.106,5.33,4.992,5.33s4.992-2.158,4.992-5.33A4.963,4.963,0,0,0-165.412-14.118Zm1.04-6.6h-2.106v3.3h-4.732v1.742h11.57V-17.42h-4.732Zm10.894-.7v9.854h-2.99v-9.308h-2V.78h2V-9.828h2.99V1.9h2.054V-21.424Zm12.974,5.772h5.174v-1.716H-140.5v-3.614h-2.132v3.614h-5.252v1.716h5.278v1.794a11.012,11.012,0,0,1-5.928,9.646l1.2,1.638a11.875,11.875,0,0,0,5.8-7.254,11.526,11.526,0,0,0,5.85,6.812l1.17-1.638a10.448,10.448,0,0,1-5.98-9.2Zm9.022-5.772v9.386h-5.044V-10.3h5.044V1.976h2.132v-23.4Zm15.106,9.542h-6.292V-15.34h6.292Zm2.106-2.574h5.382v5.2h2.132V-21.372h-2.132v5.2h-5.382v-4.134h-2.106v3.328h-6.292v-3.328h-2.106v10.114h10.5ZM-119.626-.078v-2.5h12.87V-8.112h-15.028v1.664h12.922V-4.16h-12.87V1.612h15.86V-.078ZM-86.242-.13H-96.954V-3.042h10.712Zm0-4.576H-96.954V-7.54H-99.06V1.586h14.924V-7.54h-2.106Zm-7.514-6.552h-6.292V-14.95h6.292Zm7.488-10.114v5.72H-91.65v-4.524h-2.106v3.562h-6.292v-3.562h-2.106v10.66h10.5V-13.91h5.382v5.278h2.158v-12.74Zm28.73,7.124H-71.4v-4.5h13.7v-1.716H-73.528v7.93h15.99ZM-65.65.234c-3.666,0-5.824-.91-5.824-2.548s2.158-2.548,5.824-2.548,5.824.91,5.824,2.548S-62.01.234-65.65.234Zm0-6.76c-4.966,0-7.982,1.508-7.982,4.212S-70.616,1.9-65.65,1.9-57.668.39-57.668-2.314-60.684-6.526-65.65-6.526ZM-76.18-10.3v1.768h21.112V-10.3Zm39.6-5.044V-13.6h4.6v6.11h2.158V-21.372H-31.98v6.032Zm1.3,5.3c-3.38-1.2-5.668-4.134-5.668-7.124v-.806h5.122v-1.716H-48.282v1.716h5.2v.806a8.6,8.6,0,0,1-5.876,7.774L-47.84-7.7a10.093,10.093,0,0,0,5.876-5.928,9.581,9.581,0,0,0,5.616,5.252ZM-37.518.26c-3.51,0-5.642-.988-5.642-2.678s2.132-2.7,5.642-2.7,5.642,1.014,5.642,2.7S-34.008.26-37.518.26Zm0-7.02c-4.784,0-7.774,1.586-7.774,4.342s2.99,4.342,7.774,4.342,7.774-1.586,7.774-4.342S-32.734-6.76-37.518-6.76Zm27.43-5.356h-11.57v-3.432h11.57Zm2.132-8.346h-2.132v3.2h-11.57v-3.2h-2.106v10.088H-7.956Zm2.678,12.9H-26.442V-5.85h9.464v7.8h2.132v-7.8h9.568ZM3.77-19.682c-3.614,0-6.24,2.21-6.24,5.486,0,3.25,2.626,5.486,6.24,5.486,3.64,0,6.24-2.236,6.24-5.486C10.01-17.472,7.41-19.682,3.77-19.682Zm0,1.82c2.418,0,4.16,1.482,4.16,3.666,0,2.158-1.742,3.666-4.16,3.666-2.392,0-4.16-1.508-4.16-3.666C-.39-16.38,1.378-17.862,3.77-17.862ZM13.078-21.4V1.976H15.21V-21.4ZM-3.38-3.146A85.744,85.744,0,0,0,11.726-4.16l-.182-1.586A105.012,105.012,0,0,1-3.64-4.94ZM25.87-14.014a3.825,3.825,0,0,1,4-3.9,3.825,3.825,0,0,1,4,3.9,3.825,3.825,0,0,1-4,3.9A3.825,3.825,0,0,1,25.87-14.014Zm10.088,0c0-3.38-2.6-5.746-6.084-5.746s-6.084,2.366-6.084,5.746,2.6,5.746,6.084,5.746S35.958-10.634,35.958-14.014ZM29.068-5.98H26.936V1.4H42.484V-.338H29.068ZM41.444-14.3v-7.1H39.312v17.16h2.132v-8.294h3.432V-14.3Zm16.9-.65v1.742h4.68V-4.29h2.158V-21.372H63.024v6.422Zm1.378,5.486c-3.38-1.2-5.668-4.108-5.668-7.15v-1.144h5.122V-19.5H46.722v1.742h5.2v1.17a8.5,8.5,0,0,1-5.876,7.644L47.164-7.28a9.953,9.953,0,0,0,5.876-5.8A9.622,9.622,0,0,0,58.656-7.8ZM52.416-.338V-5.8H50.258V1.4H65.832V-.338ZM74.152-19.656v1.716H82.6c-.39,4.03-3.9,7.2-9.438,8.84l.858,1.716c6.76-2,10.894-6.344,10.894-12.272ZM83.9.208c-3.354,0-5.486-1.066-5.486-2.834,0-1.794,2.132-2.86,5.486-2.86s5.486,1.066,5.486,2.86C89.388-.858,87.256.208,83.9.208Zm0-7.358c-4.6,0-7.592,1.69-7.592,4.524C76.31.182,79.3,1.9,83.9,1.9S91.494.182,91.494-2.626C91.494-5.46,88.5-7.15,83.9-7.15Zm7.306-8.216V-21.4H89.076V-7.462h2.132V-13.6h3.458v-1.768Zm18.59-3.2h-5.876v-2.808H101.79v2.808H95.862v1.69H109.8ZM99.372-11.18c0-1.612,1.4-2.678,3.484-2.678s3.484,1.066,3.484,2.678-1.4,2.652-3.484,2.652S99.372-9.568,99.372-11.18Zm4.55,4.264c2.678-.338,4.446-1.95,4.446-4.264,0-2.626-2.262-4.316-5.512-4.316s-5.512,1.69-5.512,4.316c0,2.314,1.768,3.926,4.446,4.264v2.548c-2.262.078-4.446.078-6.318.078L95.758-2.5a86.077,86.077,0,0,0,14.56-.936l-.13-1.586a60.963,60.963,0,0,1-6.266.572Zm13.416-4.576H113.7V-21.4h-2.132V1.924H113.7V-9.7h3.64ZM135.33-15.34V-13.6h4.6v6.11h2.158V-21.372h-2.158v6.032Zm1.3,5.3c-3.38-1.2-5.668-4.134-5.668-7.124v-.806h5.122v-1.716H123.63v1.716h5.2v.806a8.6,8.6,0,0,1-5.876,7.774l1.118,1.69a10.093,10.093,0,0,0,5.876-5.928,9.581,9.581,0,0,0,5.616,5.252ZM134.394.26c-3.51,0-5.642-.988-5.642-2.678s2.132-2.7,5.642-2.7,5.642,1.014,5.642,2.7S137.9.26,134.394.26Zm0-7.02c-4.784,0-7.774,1.586-7.774,4.342s2.99,4.342,7.774,4.342,7.774-1.586,7.774-4.342S139.178-6.76,134.394-6.76Zm22.724-3.068a7.067,7.067,0,0,1-4.732-6.526v-.26h4.16V-18.33h-4.16v-2.808h-2.028v2.808h-4.212v1.716h4.212v.26a7.546,7.546,0,0,1-4.68,6.994l1.04,1.56a8.225,8.225,0,0,0,4.68-5.122A8.339,8.339,0,0,0,156.1-8.19ZM149.5-4.108h13.546V1.924h2.132V-5.85H149.5Zm13.624-17.264v6.214h-2.938v-5.824h-2V-7.228h2v-6.188h2.938v6.344h2.054v-14.3Zm29.588,8.866c-4.238-.624-8.4-3.51-8.4-6.76v-1.3h-2.236v1.3c0,3.328-4.108,6.136-8.346,6.76l.858,1.716c3.64-.624,7.15-2.626,8.606-5.46,1.508,2.808,5.018,4.836,8.632,5.46Zm1.014,4.238h-21.06V-6.5h9.412V1.95h2.132V-6.5h9.542ZM205.79.26c-3.666,0-5.824-.91-5.824-2.5s2.158-2.5,5.824-2.5c3.64,0,5.824.91,5.824,2.5S209.43.26,205.79.26Zm0-6.656c-4.992,0-7.982,1.482-7.982,4.16S200.8,1.9,205.79,1.9c5.018,0,7.982-1.456,7.982-4.134S210.808-6.4,205.79-6.4Zm-3.224-6.188a20.24,20.24,0,0,0,3.224.26,20.325,20.325,0,0,0,3.25-.26v2.73h-6.474Zm-2.782-4.056c0-1.69,2.288-2.678,6.006-2.678s6.006.988,6.006,2.678c0,1.664-2.288,2.678-6.006,2.678S199.784-14.976,199.784-16.64Zm11.362,6.786v-3.3c1.794-.728,2.834-1.924,2.834-3.484,0-2.73-3.12-4.342-8.19-4.342-5.044,0-8.19,1.612-8.19,4.342,0,1.586,1.014,2.756,2.86,3.51v3.276h-5.226v1.716h21.112V-9.854Zm12.012,4.68c-1.872,0-3.042-2.366-3.042-6.188,0-3.744,1.17-6.11,3.042-6.11,1.82,0,3.016,2.366,3.016,6.11C226.174-7.54,224.978-5.174,223.158-5.174Zm7.878-7.15H228.1c-.26-4.394-2.132-7.124-4.94-7.124-3.042,0-4.992,3.12-4.992,8.086,0,5.044,1.95,8.164,4.992,8.164,2.86,0,4.758-2.808,4.94-7.384h2.938V.78h2.028V-20.878h-2.028Zm4.628-9.074V1.924h2.028V-21.4Z" transform="translate(1281 1446)" fill="#121212"/><g transform="translate(1170 1199)"><g clip-path="url(#a)"><path d="M209.437,55.659H12.53A9.988,9.988,0,0,1,2.3,45.95V9.709A9.989,9.989,0,0,1,12.53,0L209.437,0a9.986,9.986,0,0,1,10.225,9.707V45.95a9.987,9.987,0,0,1-10.225,9.709M12.53,7.648a2.118,2.118,0,0,0-2.169,2.061V45.95a2.118,2.118,0,0,0,2.169,2.061H209.437a2.119,2.119,0,0,0,2.17-2.061V9.709a2.119,2.119,0,0,0-2.17-2.061Z" fill="#92a1b7"/><path d="M27.246,57.844H12.53C5.622,57.844,0,52.509,0,45.95V32.957H12.662V45.826H27.246Z" fill="#545a63"/><path d="M195.426,57.845h14.713c6.907,0,12.53-5.335,12.53-11.9V32.957H210.005V45.826H195.426Z" fill="#545a63"/></g></g><g transform="translate(1106 1327.566)"><g clip-path="url(#b)"><path d="M9.3,38.922c0-.973-.486-1.764-1.459-1.764s-1.459.79-1.459,1.764v2.219H.3V38.922c0-4.317,3.253-6.627,7.538-6.627s7.842,2.311,7.842,6.627v1.216c0,3.769-1.52,5.654-4.772,9.149-3.283,3.526-4.225,4.195-4.225,5.685v.546h9v4.864H0v-5.41c0-2.22.213-3.891,5.532-8.572,3.253-2.827,3.77-4.317,3.77-6.262Z" transform="translate(0 -9.792)" fill="#0f3119"/><path d="M25.128,38.922c0-4.317,3.556-6.627,7.843-6.627s7.842,2.311,7.842,6.627V54.516c0,4.317-3.556,6.626-7.842,6.626s-7.843-2.31-7.843-6.626Zm6.079,15.594a1.763,1.763,0,0,0,3.526,0V38.922a1.763,1.763,0,1,0-3.526,0Z" transform="translate(-7.619 -9.792)" fill="#0f3119"/><path d="M59.558,38.922c0-.973-.486-1.764-1.459-1.764s-1.459.79-1.459,1.764v2.219H50.56V38.922c0-4.317,3.253-6.627,7.538-6.627s7.842,2.311,7.842,6.627v1.216c0,3.769-1.52,5.654-4.772,9.149-3.283,3.526-4.225,4.195-4.225,5.685v.546h9v4.864H50.256v-5.41c0-2.22.213-3.891,5.532-8.572,3.253-2.827,3.77-4.317,3.77-6.262Z" transform="translate(-15.239 -9.792)" fill="#0f3119"/><path d="M80.937,43.208l2.006-.151a2.023,2.023,0,0,0,1.915-1.764V38.618a1.764,1.764,0,0,0-3.527,0v2.219H75.252V38.922c0-4.317,3.557-6.626,7.844-6.626s7.842,2.31,7.842,6.626v2.066a4.946,4.946,0,0,1-2.371,4.621,4.947,4.947,0,0,1,2.674,4.681v4.226c0,4.317-3.86,6.626-8.145,6.626s-8.147-2.309-8.147-6.626V51.2h6.383v3.313a1.764,1.764,0,0,0,3.527,0v-4.53a2.05,2.05,0,0,0-2.068-1.763l-1.853-.151Z" transform="translate(-22.726 -9.793)" fill="#0f3119"/><path d="M114.908,34.048h5.32V31.859h6.991v2.189h5.319v4.408H114.908Zm4.682,15.838c-2.341,0-4.378-2.341-4.378-5.259s2.037-5.289,4.378-5.289h8.329c2.34,0,4.377,2.37,4.377,5.289s-2.037,5.259-4.377,5.259Zm22.372,10.821H116.489V51.344h6.778v4.378h18.695Zm-20.4-15.077h4.5c.486,0,.79-.548.79-1,0-.578-.3-1.033-.79-1.033h-4.5c-.487,0-.822.456-.822,1.033,0,.456.334,1,.822,1m13.1-13.162h6.688v6.9h3.161v5.5h-3.161V53.32h-6.688Z" transform="translate(-34.842 -9.66)" fill="#0f3119"/><path d="M158.1,43.007h27.966v4.772H175.211v3.253H185V61.275h-6.566V55.713H159.009V51.032h9.666V47.779H158.1Zm.912-10.275h26.142l-.821,9.515h-6.414l.4-4.864h-19.3Z" transform="translate(-47.938 -9.925)" fill="#0f3119"/><path d="M222.865,45.255h-6.688c-3.222,3.314-8.481,4.59-13.8,4.59V44.982c7.508,0,10.944-3.435,10.944-6.931H202.529V33.188h16.962v3.344a14.607,14.607,0,0,1-.426,3.556h3.8V32.732h6.718V53.554h-6.718Zm7.174,15.716H203.806V51h6.778v4.985h19.455Z" transform="translate(-61.365 -9.925)" fill="#0f3119"/><path d="M245.784,42.429c3.982-.883,5.654-3.07,5.745-6.809V32.884h6.626v2.462c0,3.891,1.642,6.139,5.745,7.083v4.894c-4.043-.486-7.113-2.068-9.058-4.652-2.006,2.614-5.015,4.165-9.058,4.652Zm1.58,5.957h25.777v7.721h-19.06v1.185H273.6V60.97H247.364V52.976h19.09V51.943h-19.09Zm13.5-12.341h5.593V32.732h6.688V47.626h-6.688v-6.78h-5.593Z" transform="translate(-74.527 -9.925)" fill="#0f3119"/><path d="M289.845,39.542c0-4.469,3.648-6.81,8.117-6.81s8.116,2.34,8.116,6.81v3.434c0,4.469-3.648,6.748-8.116,6.748s-8.117-2.279-8.117-6.748ZM316.6,60.971H291.122V51.305H297.9v4.681H316.6Zm-20.64-17.843a1.894,1.894,0,0,0,2.067,1.915,1.919,1.919,0,0,0,2.1-1.915V39.359a1.942,1.942,0,0,0-2.1-1.946,1.917,1.917,0,0,0-2.067,1.946Zm13.345-10.4h6.688v6.9h3.161v5.5h-3.161v8.147H309.3Z" transform="translate(-87.887 -9.925)" fill="#0f3119"/><path d="M351.152,50.514c-4.043-.578-7.113-1.885-9.058-4.56-1.976,2.674-5.047,3.982-9.059,4.56v-5.2c3.526-.486,6.049-2.462,6.049-6.322v-.669h-5.745V33.187h17.509v5.138H345.1v.942c.091,3.648,2.584,5.562,6.049,6.049Zm9.7,10.456H334.615V51.3h6.779v4.681h19.455Zm-12.4-21.581h5.229V32.731h6.718V53.705h-6.718V43.948h-5.229Z" transform="translate(-100.983 -9.925)" fill="#0f3119"/><path d="M377.1,33.036h6.415v2.706h3.556V33.036h6.293V48.69H377.1Zm.973,17.387h25.169V61.275h-6.991V55.439H378.069Zm5.441-6.566h3.556V40.575h-3.556Zm13.04-11.125h6.688V37.96H406.4v5.351h-3.161v6.353h-6.688Z" transform="translate(-114.343 -9.925)" fill="#0f3119"/><path d="M420.721,33.188h16.233v9.667h-9.818v1.732l12.249-.851V48.2l-18.664,1.246V38.873h9.788V37.5h-9.788ZM422,50.15h24.866V60.971h-6.718v-.79L422,60.971Zm6.749,6.11,11.4-.426V54.558h-11.4Zm11.429-23.528h6.688v5.381h3.161v5.32h-3.161v6.048h-6.688Z" transform="translate(-127.571 -9.925)" fill="#0f3119"/><path d="M463.475,55.539l6.383-.364V51.344h6.87v3.405l6.778-.426v5.167l-20.032,1.216Zm.3-21.491h5.927V31.859h7.113v2.189h5.927v4.712H463.779Zm4.773,16.385c-2.341,0-4.469-2.432-4.469-5.442,0-3.039,2.128-5.471,4.469-5.471h9.484c2.34,0,4.468,2.432,4.468,5.471,0,3.009-2.128,5.442-4.468,5.442Zm1.945-4.408h5.714a1,1,0,0,0,.851-1.034.97.97,0,0,0-.851-1.064H470.5a.993.993,0,0,0-.882,1.064,1.025,1.025,0,0,0,.882,1.034m13.77-13.557h6.839V60.706h-6.839Z" transform="translate(-140.535 -9.66)" fill="#0f3119"/><path d="M11.56.489,6.23,7.445H8.952l2.933,7.3H7.575l-2.4-5.934L3.671,10.786v3.956H.058V.489H3.671V5.28L7.3.489Z" transform="translate(-0.018 -0.148)" fill="#0f3119"/><rect width="9.072" height="3.341" transform="translate(12.757 5.422)" fill="#0f3119"/><path d="M36.219,7.467c0,2.9,1.215,4.126,3.11,4.126A2.7,2.7,0,0,0,42.309,9h3.646c0,3.137-2.09,5.933-6.626,5.933-4.455,0-6.723-2.8-6.723-7.467S34.874,0,39.328,0c4.536,0,6.626,2.8,6.626,5.932H42.309a2.7,2.7,0,0,0-2.981-2.591c-1.895,0-3.11,1.227-3.11,4.126" transform="translate(-9.886)" fill="#0f3119"/><path d="M52.111,7.467C52.111,2.8,54.379,0,58.834,0s6.723,2.8,6.723,7.467-2.268,7.467-6.723,7.467-6.723-2.8-6.723-7.467m3.613,0c0,2.9,1.215,4.126,3.11,4.126s3.11-1.228,3.11-4.126-1.215-4.126-3.11-4.126-3.11,1.227-3.11,4.126" transform="translate(-15.801)" fill="#0f3119"/><path d="M72.223,14.742V.489h4.1l4.439,8.763V.489h3.612V14.742h-4.1L75.836,6.3v8.439Z" transform="translate(-21.899 -0.148)" fill="#0f3119"/><path d="M90.473,4.6c0-2.846,1.635-4.6,5.831-4.6s5.833,1.756,5.833,4.6H98.492c0-1.039-.534-1.346-2.187-1.346-1.8,0-2.186.461-2.186,1.262,0,.92.534,1.279,2.349,1.279,4.358,0,5.994,1.688,5.994,4.534s-1.636,4.6-5.994,4.6-5.994-1.757-5.994-4.6h3.645c0,1.04.534,1.348,2.349,1.348,1.961,0,2.35-.46,2.35-1.261,0-.921-.535-1.279-2.35-1.279-4.358,0-5.994-1.688-5.994-4.536" transform="translate(-27.433)" fill="#0f3119"/><path d="M118.086,2.194l3.71,12.548h-3.774l-.778-2.642h-4.665l-.778,2.642h-3.775L112.238.49h3.742l-.5,1.7Zm-4.536,6.6h2.722l-1.36-4.654Z" transform="translate(-32.756 -0.149)" fill="#0f3119"/><path d="M138.353,9.627h-6.14v5.114H128.6V.49h10.384V3.831h-6.771V6.286h6.14Z" transform="translate(-38.994 -0.149)" fill="#0f3119"/><path d="M154.7,9.2h-6.3v2.2h6.933v3.341H144.783V.49h10.546V3.831H148.4v2.2h6.3Z" transform="translate(-43.901 -0.149)" fill="#0f3119"/><path d="M165.295,14.742V3.831h-4.1V.489h11.826V3.831h-4.115V14.742Z" transform="translate(-48.878 -0.148)" fill="#0f3119"/><path d="M183.889,14.742V9.815L178.981.489H183L185.7,6.132,188.409.489h4.018L187.5,9.815v4.927Z" transform="translate(-54.271 -0.148)" fill="#0f3119"/><path d="M214.936,9.2h-6.3v2.2h6.933v3.341H205.021V.49h10.546V3.831h-6.933v2.2h6.3Z" transform="translate(-62.167 -0.149)" fill="#0f3119"/><path d="M227.53,9.781l-2.624,4.961h-3.936L224.6,7.615,220.969.489h3.936L227.53,5.45,230.154.489h3.936l-3.629,7.126,3.629,7.127h-3.936Z" transform="translate(-67.002 -0.148)" fill="#0f3119"/><path d="M240.614,14.742V.489h5.751c4.293,0,6.238,1.773,6.238,5.336s-1.945,5.336-6.238,5.336h-2.138v3.581Zm5.751-6.922c1.652,0,2.625-.375,2.625-1.995s-.973-1.994-2.625-1.994h-2.138V7.82Z" transform="translate(-72.959 -0.148)" fill="#0f3119"/><path d="M258.166,7.467C258.166,2.8,260.434,0,264.889,0s6.723,2.8,6.723,7.467-2.268,7.467-6.723,7.467-6.723-2.8-6.723-7.467m3.613,0c0,2.9,1.215,4.126,3.11,4.126S268,10.365,268,7.467s-1.215-4.126-3.11-4.126-3.11,1.227-3.11,4.126" transform="translate(-78.281)" fill="#0f3119"/></g></g></g></svg>