<svg id="레이어_1" data-name="레이어 1" xmlns="http://www.w3.org/2000/svg" viewBox="0 0 29.39 33.75"><defs><style>.cls-1{fill:#fff;}</style></defs><path class="cls-1" d="M313.86,409H293.53a2.7,2.7,0,0,1-2.7-2.69V381.49a2.7,2.7,0,0,1,2.7-2.69h20.33a2.7,2.7,0,0,1,2.7,2.69v24.86A2.7,2.7,0,0,1,313.86,409Zm-20.33-28a.47.47,0,0,0-.47.47v24.86a.48.48,0,0,0,.47.47h20.33a.48.48,0,0,0,.48-.47V381.49a.48.48,0,0,0-.48-.47Z" transform="translate(-290.83 -378.8)"/><path class="cls-1" d="M317.53,412.55H297.18c-1.51,0-2.7-.92-2.7-2.08v-2.08h2.22v1.85a1.31,1.31,0,0,0,.48.09h20.35a.49.49,0,0,0,.48-.48V384.48c0-.27-.18-.48-.33-.48h-1.44v-2.22h1.44a2.63,2.63,0,0,1,2.55,2.7v25.37A2.7,2.7,0,0,1,317.53,412.55Z" transform="translate(-290.83 -378.8)"/><path class="cls-1" d="M301.47,385.94v5.78h-4.9v-5.78h4.9m.32-1.91h-5.54a1.6,1.6,0,0,0-1.59,1.59V392a1.59,1.59,0,0,0,1.59,1.59h5.54a1.59,1.59,0,0,0,1.58-1.59v-6.41a1.59,1.59,0,0,0-1.58-1.59Z" transform="translate(-290.83 -378.8)"/><path class="cls-1" d="M311,392.94h-5a1.11,1.11,0,1,1,0-2.22h5a1.11,1.11,0,1,1,0,2.22Z" transform="translate(-290.83 -378.8)"/><path class="cls-1" d="M311,398.27H295.77a1.11,1.11,0,0,1,0-2.22H311a1.11,1.11,0,0,1,0,2.22Z" transform="translate(-290.83 -378.8)"/><path class="cls-1" d="M311,403.42H295.77a1.11,1.11,0,1,1,0-2.22H311a1.11,1.11,0,0,1,0,2.22Z" transform="translate(-290.83 -378.8)"/><path class="cls-1" d="M311,388h-5a1.11,1.11,0,1,1,0-2.22h5a1.11,1.11,0,0,1,0,2.22Z" transform="translate(-290.83 -378.8)"/></svg>