<svg id="레이어_1" data-name="레이어 1" xmlns="http://www.w3.org/2000/svg" viewBox="0 0 37 26.18"><defs><style>.cls-1{fill:#fff;}</style></defs><path class="cls-1" d="M321.5,408.76H289.57a2.54,2.54,0,0,1-2.54-2.54v-21.1a2.54,2.54,0,0,1,2.54-2.54H321.5a2.54,2.54,0,0,1,2.53,2.54v21.1A2.54,2.54,0,0,1,321.5,408.76Zm-31.93-24.27a.64.64,0,0,0-.64.63v21.1a.64.64,0,0,0,.64.63H321.5a.64.64,0,0,0,.63-.63v-21.1a.64.64,0,0,0-.63-.63Z" transform="translate(-287.03 -382.58)"/><path class="cls-1" d="M323.08,389.38H288a1,1,0,0,1,0-1.91h35.1a1,1,0,0,1,0,1.91Z" transform="translate(-287.03 -382.58)"/><path class="cls-1" d="M323.08,403.59H288a1,1,0,0,1,0-1.91h35.1a1,1,0,0,1,0,1.91Z" transform="translate(-287.03 -382.58)"/><path class="cls-1" d="M303.14,399.82a1.27,1.27,0,0,1-1.26-1.34v-6.12a1.27,1.27,0,0,1,1.26-1.34,1.51,1.51,0,0,1,.72.2l5.29,3.06a1.27,1.27,0,0,1,0,2.28l-5.29,3.06A1.51,1.51,0,0,1,303.14,399.82Zm.64-6.44v4.08l3.54-2Z" transform="translate(-287.03 -382.58)"/><path class="cls-1" d="M295.85,405.77h-3.7a.48.48,0,1,1,0-.95h3.7a.48.48,0,1,1,0,.95Z" transform="translate(-287.03 -382.58)"/><path class="cls-1" d="M303.49,405.77h-3.7a.48.48,0,0,1,0-.95h3.7a.48.48,0,1,1,0,.95Z" transform="translate(-287.03 -382.58)"/><path class="cls-1" d="M311.13,405.77h-3.7a.48.48,0,0,1,0-.95h3.7a.48.48,0,1,1,0,.95Z" transform="translate(-287.03 -382.58)"/><path class="cls-1" d="M318.77,405.77h-3.7a.48.48,0,0,1,0-.95h3.7a.48.48,0,1,1,0,.95Z" transform="translate(-287.03 -382.58)"/><path class="cls-1" d="M295.85,386.36h-3.7a.48.48,0,1,1,0-.95h3.7a.48.48,0,1,1,0,.95Z" transform="translate(-287.03 -382.58)"/><path class="cls-1" d="M303.49,386.36h-3.7a.48.48,0,0,1,0-.95h3.7a.48.48,0,1,1,0,.95Z" transform="translate(-287.03 -382.58)"/><path class="cls-1" d="M311.13,386.36h-3.7a.48.48,0,0,1,0-.95h3.7a.48.48,0,1,1,0,.95Z" transform="translate(-287.03 -382.58)"/><path class="cls-1" d="M318.77,386.36h-3.7a.48.48,0,0,1,0-.95h3.7a.48.48,0,1,1,0,.95Z" transform="translate(-287.03 -382.58)"/></svg>