<svg id="레이어_1" data-name="레이어 1" xmlns="http://www.w3.org/2000/svg" viewBox="0 0 43.7 33.23"><defs><style>.cls-1{fill:#fff;}</style></defs><path class="cls-1" d="M304.9,405.55h0c-.41,0-.65,0-.69,0a1.11,1.11,0,0,1-1-.9,1.1,1.1,0,0,1,.57-1.18,7.33,7.33,0,0,0,2.62-2.42c-4.95-1.94-8.07-5.91-8.07-10.39,0-6.38,6.51-11.58,14.51-11.58s14.5,5.2,14.5,11.58S321.1,402,313.3,402.21A13.14,13.14,0,0,1,304.9,405.55Zm8-24.28c-6.78,0-12.29,4.2-12.29,9.36,0,3.79,3.12,7.29,7.75,8.7a1.13,1.13,0,0,1,.67.56,1.14,1.14,0,0,1,.05.87,8,8,0,0,1-1.17,2.05,12.25,12.25,0,0,0,4.24-2.53,1.1,1.1,0,0,1,.75-.29c6.77,0,12.28-4.2,12.28-9.36S319.65,381.27,312.88,381.27Z" transform="translate(-283.68 -379.05)"/><path class="cls-1" d="M308.72,390.63a2,2,0,1,1-2-2A2,2,0,0,1,308.72,390.63Z" transform="translate(-283.68 -379.05)"/><path class="cls-1" d="M315.24,390.63a2,2,0,1,1-2-2A2,2,0,0,1,315.24,390.63Z" transform="translate(-283.68 -379.05)"/><path class="cls-1" d="M321.76,390.63a2,2,0,1,1-2-2A2,2,0,0,1,321.76,390.63Z" transform="translate(-283.68 -379.05)"/><path class="cls-1" d="M299.52,412.29h0a8.24,8.24,0,0,1-5.54-2.23,11.38,11.38,0,0,1-1.31.08c-4.95,0-9-3.27-9-7.29s4-7.29,9-7.29,9,3.27,9,7.29a6.64,6.64,0,0,1-2.58,5.12,4.56,4.56,0,0,0,1.77,2.48,1,1,0,0,1,.45,1,1,1,0,0,1-.75.77A5.09,5.09,0,0,1,299.52,412.29Zm-4.41-3.77a6.79,6.79,0,0,0,2.9,1.66,8,8,0,0,1-1-2.39,1,1,0,0,1,.39-1,4.91,4.91,0,0,0,2.32-4c0-3-3.18-5.39-7.09-5.39s-7.08,2.42-7.08,5.39,3.18,5.39,7.08,5.39a9.29,9.29,0,0,0,1.5-.13A1,1,0,0,1,295.11,408.52Z" transform="translate(-283.68 -379.05)"/><path class="cls-1" d="M293.93,402.85a1.43,1.43,0,1,0,1.43-1.45A1.44,1.44,0,0,0,293.93,402.85Z" transform="translate(-283.68 -379.05)"/><path class="cls-1" d="M288.55,402.85A1.44,1.44,0,1,0,290,401.4,1.44,1.44,0,0,0,288.55,402.85Z" transform="translate(-283.68 -379.05)"/></svg>