<svg xmlns="http://www.w3.org/2000/svg" xmlns:xlink="http://www.w3.org/1999/xlink" width="138" height="132" viewBox="0 0 138 132"><defs><clipPath id="a"><rect width="138" height="132" transform="translate(754.701 4120.659)" fill="rgba(255,0,0,0.5)"/></clipPath></defs><g transform="translate(-754.701 -4120.659)"><g clip-path="url(#a)"><g transform="translate(-3)"><g transform="translate(8.852 -1.148)"><rect width="19.239" height="23.749" transform="translate(808.938 4225.556)" fill="#5ba85b"/><path d="M695.031,113.377H633.47a6.084,6.084,0,0,1,6.084-6.085h49.392a6.085,6.085,0,0,1,6.085,6.085" transform="translate(154.309 4135.928)" fill="#5ba85b"/><path d="M709.316,89.628H619.185a6.377,6.377,0,0,1-6.377-6.377V25.214a6.377,6.377,0,0,1,6.377-6.377h90.131a6.377,6.377,0,0,1,6.377,6.377V83.251a6.377,6.377,0,0,1-6.377,6.377" transform="translate(154.309 4137.928)" fill="#5ba85b"/><path d="M619.185,83.275l-.024-58.06,90.155-.024.024,58.06-.024.024Z" transform="translate(154.309 4137.928)" fill="#fff"/></g><g transform="translate(9.852 -2.148)"><path d="M670.738,19.754,659.271,31.221v41.7h45.065V19.754Z" transform="translate(138.865 4128.054)" fill="#fff" stroke="#39180d" stroke-linecap="round" stroke-linejoin="round" stroke-width="2"/><path d="M670.738,31.221V19.753L659.271,31.221Z" transform="translate(138.865 4128.054)" fill="#fff" stroke="#39180d" stroke-linecap="round" stroke-linejoin="round" stroke-width="2"/><path d="M683.056,32.073,671.589,43.54v41.7h45.065V32.073Z" transform="translate(136.902 4126.092)" fill="#fff" stroke="#39180d" stroke-linecap="round" stroke-linejoin="round" stroke-width="2"/><path d="M683.056,43.54V32.072L671.589,43.54Z" transform="translate(136.902 4126.092)" fill="#fff" stroke="#39180d" stroke-linecap="round" stroke-linejoin="round" stroke-width="2"/><line x2="3.371" transform="translate(818.469 4180.015)" fill="none" stroke="#39180d" stroke-linecap="round" stroke-width="2"/><line x2="3.371" transform="translate(818.469 4186.63)" fill="none" stroke="#39180d" stroke-linecap="round" stroke-width="2"/><line x2="3.371" transform="translate(818.469 4193.245)" fill="none" stroke="#39180d" stroke-linecap="round" stroke-width="2"/><line x2="3.371" transform="translate(818.469 4199.859)" fill="none" stroke="#39180d" stroke-linecap="round" stroke-width="2"/><g transform="translate(2)"><line x2="14.957" transform="translate(826.422 4180.015)" fill="none" stroke="#39180d" stroke-linecap="round" stroke-width="2"/><line x2="14.957" transform="translate(826.422 4186.629)" fill="none" stroke="#39180d" stroke-linecap="round" stroke-width="2"/><line x2="14.957" transform="translate(826.422 4193.244)" fill="none" stroke="#39180d" stroke-linecap="round" stroke-width="2"/><line x2="14.957" transform="translate(826.422 4199.859)" fill="none" stroke="#39180d" stroke-linecap="round" stroke-width="2"/></g></g><g transform="translate(34)"><path d="M34.131,43.316A8.335,8.335,0,1,1,25.8,34.98,8.334,8.334,0,0,1,34.131,43.316Z" transform="translate(734.684 4135.931)" fill="#fff100" stroke="#39180d" stroke-linecap="round" stroke-linejoin="round" stroke-width="2"/><path d="M22.864,43.918l2.414,1.724,3.449-4.655" transform="translate(734.684 4135.931)" fill="none" stroke="#39180d" stroke-linecap="round" stroke-linejoin="round" stroke-width="2"/><path d="M34.131,67.279A8.335,8.335,0,1,1,25.8,58.944,8.335,8.335,0,0,1,34.131,67.279Z" transform="translate(734.684 4135.931)" fill="#fff100" stroke="#39180d" stroke-linecap="round" stroke-linejoin="round" stroke-width="2"/><path d="M22.864,67.882l2.414,1.724,3.449-4.655" transform="translate(734.684 4135.931)" fill="none" stroke="#39180d" stroke-linecap="round" stroke-linejoin="round" stroke-width="2"/></g></g></g></g></svg>