<svg xmlns="http://www.w3.org/2000/svg" xmlns:xlink="http://www.w3.org/1999/xlink" width="194" height="155" viewBox="0 0 194 155"><defs><clipPath id="a"><rect width="194" height="155" transform="translate(1154.653 4383.241)" fill="red" opacity="0.5"/></clipPath></defs><g transform="translate(-1154.653 -4383.241)" clip-path="url(#a)"><path d="M6.267,0H45.622a6.267,6.267,0,0,1,6.267,6.267V84.249a6.269,6.269,0,0,1-6.269,6.269H6.266A6.266,6.266,0,0,1,0,84.252V6.267A6.267,6.267,0,0,1,6.267,0Z" transform="translate(1226.055 4414.241)" fill="none"/><path d="M6.266,0H45.623a6.266,6.266,0,0,1,6.266,6.266V84.249a6.269,6.269,0,0,1-6.269,6.269H6.269A6.269,6.269,0,0,1,0,84.249V6.266A6.266,6.266,0,0,1,6.266,0Z" transform="translate(1226.056 4414.241)" fill="#ffca59" stroke="#050505" stroke-width="1"/><line x2="8.23" transform="translate(1247.887 4422.3)" fill="none" stroke="#050505" stroke-width="1"/><path d="M1.562,0H67.133a1.561,1.561,0,0,1,1.561,1.561V48.4a1.561,1.561,0,0,1-1.561,1.561H1.562A1.562,1.562,0,0,1,0,48.4V1.562A1.562,1.562,0,0,1,1.562,0Z" transform="translate(1217.653 4440.314)" fill="#fff" stroke="#000" stroke-width="1"/><path d="M20.641,51.553A14.207,14.207,0,1,0,34.848,37.346,14.208,14.208,0,0,0,20.641,51.553" transform="translate(1217.153 4413.741)" fill="none"/><path d="M49.054,51.552A14.207,14.207,0,1,1,34.848,37.346,14.207,14.207,0,0,1,49.054,51.552Z" transform="translate(1217.153 4413.741)" fill="#e24956" stroke="#020202" stroke-width="1"/><path d="M31.556,46.529l8.7,5.022-8.7,5.025Z" transform="translate(1217.153 4413.741)" fill="#fff"/><path d="M31.556,46.529l8.7,5.022-8.7,5.025Z" transform="translate(1217.153 4413.741)" fill="#002477" stroke="#050505" stroke-linecap="round" stroke-linejoin="round" stroke-width="1"/><path d="M30.733,8.559h0Z" transform="translate(1217.153 4413.741)" fill="#fff"/><path d="M30.733,8.559h0Z" transform="translate(1217.153 4413.741)" fill="none"/></g></svg>