<svg xmlns="http://www.w3.org/2000/svg" xmlns:xlink="http://www.w3.org/1999/xlink" width="138" height="132" viewBox="0 0 138 132"><defs><clipPath id="a"><rect width="138" height="132" transform="translate(1485 4138)" fill="rgba(255,0,0,0.5)"/></clipPath></defs><g transform="translate(-1485 -4138)"><g clip-path="url(#a)"><g transform="translate(-7)"><path d="M8.747,83.64h.024c0-.174-.024-.344-.024-.519Z" transform="translate(1504.254 4165.39)" fill="#fff" stroke="#39180d" stroke-width="2.5"/><path d="M8.747,83.64h.024c0-.174-.024-.344-.024-.519Z" transform="translate(1504.254 4165.39)" fill="none" stroke="#39180d" stroke-linecap="round" stroke-linejoin="round" stroke-width="2.5"/><path d="M19.275,82.836H90V13.944H19.275A10.522,10.522,0,0,0,8.8,23.438c-.033.339-.054,69.925-.054,69.925A10.526,10.526,0,0,1,19.275,82.836Z" transform="translate(1504.004 4153.096)" fill="#439e4e" stroke="#439e4e" stroke-width="2.5"/><line y2="68.413" transform="translate(1522.002 4167.292)" fill="#fff" stroke="#39180d" stroke-width="2.5"/><g transform="translate(3.375 19.6)"><path d="M679.207,281.175a6.015,6.015,0,0,1-12.031,0v-8.1a6.015,6.015,0,0,1,12.031,0Z" transform="translate(913.758 3905.153)" fill="#fff" stroke="#39180d" stroke-linecap="round" stroke-width="2"/><path d="M676.188,245.221a20.625,20.625,0,1,0-19.206,0v6.3h19.206Z" transform="translate(920.365 3924.058)" fill="#fff100"/><path d="M679.411,240.051l-6.387,30.266-6.389-30.267Z" transform="translate(913.928 3913.562)" fill="none" stroke="#39180d" stroke-linecap="round" stroke-width="2"/><path d="M682.83,273.19a2.327,2.327,0,0,1-2.327,2.326H659.9a2.326,2.326,0,1,1,0-4.653H680.5a2.327,2.327,0,0,1,2.327,2.327" transform="translate(916.75 3903.968)" fill="#fff" stroke="#39180d" stroke-linecap="round" stroke-width="2"/><path d="M682.83,280.188a2.327,2.327,0,0,1-2.327,2.327H659.9a2.327,2.327,0,1,1,0-4.654H680.5a2.328,2.328,0,0,1,2.327,2.327" transform="translate(916.75 3901.788)" fill="#fff" stroke="#39180d" stroke-linecap="round" stroke-width="2"/><path d="M686.114,238.941a2.441,2.441,0,1,1-2.442-2.442,2.441,2.441,0,0,1,2.442,2.442" transform="translate(909.383 3914.668)" fill="#fff" stroke="#39180d" stroke-linecap="round" stroke-width="2"/><path d="M668.386,238.941a2.442,2.442,0,1,1-2.442-2.442,2.442,2.442,0,0,1,2.442,2.442" transform="translate(914.902 3914.668)" fill="#fff" stroke="#39180d" stroke-linecap="round" stroke-width="2"/></g><path d="M19.275,73.951A10.526,10.526,0,0,0,8.747,84.479c0,.175.021.344.025.519A10.521,10.521,0,0,0,19.275,95H90V73.951Z" transform="translate(1504.254 4164.032)" fill="#fff" stroke="#39180d" stroke-width="2.5"/><path d="M0,0H55.143" transform="translate(1538.492 4249.03)" fill="#fff" stroke="#39180d" stroke-width="2.5"/><path d="M61.947,86.42v15.673l-6.352-5.335-6.353,5.335V86.42" transform="translate(1489.25 4162.61)" fill="#fff100" stroke="#39180d" stroke-linecap="round" stroke-width="2"/><g transform="translate(74.223 -4.375)"><line y2="11.153" transform="translate(1542.305 4190.346)" fill="#fff"/><line y2="11.153" transform="translate(1542.305 4190.346)" fill="none" stroke="#100c0d" stroke-width="2.2"/><line x2="11.151" transform="translate(1536.727 4195.922)" fill="#fff"/><line x2="11.151" transform="translate(1536.727 4195.922)" fill="none" stroke="#100c0d" stroke-width="2.2"/></g></g></g></g></svg>