<svg xmlns="http://www.w3.org/2000/svg" xmlns:xlink="http://www.w3.org/1999/xlink" width="138" height="132" viewBox="0 0 138 132"><defs><clipPath id="a"><rect width="138" height="132" transform="translate(1120 4125.249)" fill="rgba(255,0,0,0.5)"/></clipPath></defs><g transform="translate(-1120 -4125.249)"><g clip-path="url(#a)"><g transform="translate(0 -5)"><g transform="translate(3.266 7.534)"><path d="M494.535,503.6H428.155a6.3,6.3,0,0,1-6.446-6.152V410.621a6.3,6.3,0,0,1,6.446-6.152h66.379a6.3,6.3,0,0,1,6.446,6.152v86.825a6.3,6.3,0,0,1-6.446,6.152" transform="translate(725.607 3738.117)" fill="#b2c932"/><path d="M0,0H64.283V85H0Z" transform="translate(1154.811 4150.08)" fill="#fff"/><path d="M473.314,457.517H452.025a5.448,5.448,0,0,1-5.448-5.448V430.78a5.448,5.448,0,0,1,5.448-5.447h21.289a5.448,5.448,0,0,1,5.448,5.447v21.289a5.448,5.448,0,0,1-5.448,5.448" transform="translate(724.281 3737.006)" fill="#ebeae9"/><line y2="2.568" transform="translate(1179.777 4188.015)" fill="#fff" stroke="#39180d" stroke-linecap="round" stroke-width="2"/><line y2="2.568" transform="translate(1194.125 4188.015)" fill="#fff" stroke="#39180d" stroke-linecap="round" stroke-width="2"/><g transform="translate(1204.701 4218.495)"><path d="M517.775,498.859a17.726,17.726,0,1,1-17.726-17.726,17.726,17.726,0,0,1,17.726,17.726" transform="translate(-482.323 -481.133)" fill="#5ba85b" stroke="#39180d" stroke-linecap="round" stroke-linejoin="round" stroke-width="2.5"/><path d="M510.072,494.561,498,506.63l-7.057-7.056" transform="translate(-482.782 -481.848)" fill="#5ba85b" stroke="#39180d" stroke-linecap="round" stroke-linejoin="round" stroke-width="2.5"/></g><g transform="translate(6.838 -1)"><line x2="31.026" transform="translate(1164.02 4205.821)" fill="#fff" stroke="#39180d" stroke-linecap="round" stroke-width="2"/><line x2="30.249" transform="translate(1164.02 4213.158)" fill="#fff" stroke="#39180d" stroke-linecap="round" stroke-width="2"/><line x2="32.187" transform="translate(1164.02 4220.495)" fill="#fff" stroke="#39180d" stroke-linecap="round" stroke-width="2"/></g><path d="M676.294,281.7c0-5.312-4.829-9.621-10.785-9.621s-10.786,4.309-10.786,9.621v5.25h4.657v0h12.255v0h4.659Z" transform="translate(521.424 3907.044)" fill="#5ba85b" stroke="#39180d" stroke-linecap="round" stroke-linejoin="round" stroke-width="2"/><path d="M673.776,266.606a8.115,8.115,0,1,1-2.375-5.739,8.093,8.093,0,0,1,2.375,5.739" transform="translate(521.273 3907.769)" fill="#fff" stroke="#39180d" stroke-linecap="round" stroke-linejoin="round" stroke-width="2"/></g><g transform="translate(11.016 1.155)"><path d="M464.651,220.039H445.568a2.878,2.878,0,0,0-2.877,2.877V238a2.877,2.877,0,0,0,2.877,2.875h5.376l4.166,7.216,4.166-7.216h5.374A2.876,2.876,0,0,0,467.527,238V222.916a2.877,2.877,0,0,0-2.877-2.877" transform="translate(712.457 3916.055)" fill="#fff100"/><path d="M464.651,220.039H445.568a2.878,2.878,0,0,0-2.877,2.877V238a2.877,2.877,0,0,0,2.877,2.875h5.376l4.166,7.216,4.166-7.216h5.374A2.876,2.876,0,0,0,467.527,238V222.916A2.877,2.877,0,0,0,464.651,220.039Z" transform="translate(712.457 3916.055)" fill="none" stroke="#100c0d" stroke-linecap="round" stroke-linejoin="round" stroke-width="2.2"/><line x2="10.536" transform="translate(1162.3 4146.533)" fill="#bdf6ff"/><line x2="10.536" transform="translate(1162.3 4146.533)" fill="none" stroke="#100c0d" stroke-linecap="round" stroke-linejoin="round" stroke-width="2.2"/></g></g></g></g></svg>