<svg id="레이어_1" data-name="레이어 1" xmlns="http://www.w3.org/2000/svg" viewBox="0 0 34.25 36.23"><defs><style>.cls-1{fill:#fff;}</style></defs><path class="cls-1" d="M302.67,407.19a1.08,1.08,0,0,1-.78-.33l-8.49-8.48a1.12,1.12,0,0,1,0-1.57l18.87-18.88a1.13,1.13,0,0,1,1.58,0l8.48,8.49a1.12,1.12,0,0,1,0,1.57l-18.87,18.87A1.12,1.12,0,0,1,302.67,407.19Zm-6.91-9.6,6.91,6.92L320,387.2l-6.91-6.91Z" transform="translate(-288.41 -377.61)"/><path class="cls-1" d="M291.33,410a1.14,1.14,0,0,1-.79-.32,1.11,1.11,0,0,1-.29-1l2.6-11.08a1.1,1.1,0,0,1,1.33-.83,1.11,1.11,0,0,1,.83,1.34l-2.19,9.33,9.34-2.18a1.11,1.11,0,1,1,.5,2.16L291.58,410Z" transform="translate(-288.41 -377.61)"/><path class="cls-1" d="M318.4,391.46a1.14,1.14,0,0,1-.79-.32l-8.48-8.49a1.1,1.1,0,0,1,0-1.57,1.12,1.12,0,0,1,1.57,0l8.48,8.49a1.1,1.1,0,0,1,0,1.57A1.13,1.13,0,0,1,318.4,391.46Z" transform="translate(-288.41 -377.61)"/><rect class="cls-1" x="292.26" y="404.95" width="2.22" height="4.01" transform="translate(-490.23 -51.02) rotate(-44.99)"/><rect class="cls-1" x="293.83" y="391.91" width="21.92" height="1.59" transform="translate(-476.82 -47.09) rotate(-45)"/><rect class="cls-1" x="296.67" y="394.74" width="21.92" height="1.59" transform="translate(-477.99 -44.23) rotate(-45)"/><path class="cls-1" d="M321.54,413.84h-32a1.11,1.11,0,0,1,0-2.22h32a1.11,1.11,0,0,1,0,2.22Z" transform="translate(-288.41 -377.61)"/></svg>