<svg xmlns="http://www.w3.org/2000/svg" xmlns:xlink="http://www.w3.org/1999/xlink" width="138" height="132" viewBox="0 0 138 132"><defs><clipPath id="a"><rect width="138" height="132" transform="translate(378 4549)" fill="rgba(255,0,0,0.5)"/></clipPath></defs><g transform="translate(-378 -4549)" clip-path="url(#a)"><g transform="translate(-5.602 427.342)"><path d="M111.081,505.285H9.075V446.211a7.5,7.5,0,0,1,7.5-7.5h87a7.5,7.5,0,0,1,7.5,7.5Z" transform="translate(385.756 3737.095)" fill="#fff" stroke="#39180d" stroke-linecap="round" stroke-linejoin="round" stroke-width="2.5"/><path d="M65.042,499.5V489.43A6.7,6.7,0,0,0,59.85,482.9l-7.133-1.647a6.7,6.7,0,0,1-5.193-6.527v-9.56H40.633v9.56a6.7,6.7,0,0,1-5.192,6.527L28.308,482.9a6.7,6.7,0,0,0-5.192,6.528V499.5" transform="translate(385.756 3737.095)" fill="#fff" stroke="#707070" stroke-width="2"/><path d="M65.042,499.5V489.43A6.7,6.7,0,0,0,59.85,482.9l-7.133-1.647a6.7,6.7,0,0,1-5.193-6.527v-9.56H40.633v9.56a6.7,6.7,0,0,1-5.192,6.527L28.308,482.9a6.7,6.7,0,0,0-5.192,6.528V499.5" transform="translate(385.756 3737.095)" fill="none" stroke="#39180d" stroke-linecap="round" stroke-linejoin="round" stroke-width="2"/><path d="M45.067,476.46H43.09a7.138,7.138,0,0,1-7.138-7.138v-8.073a7.138,7.138,0,0,1,7.138-7.138h1.977a7.138,7.138,0,0,1,7.138,7.138v8.073a7.138,7.138,0,0,1-7.138,7.138" transform="translate(385.756 3737.095)" fill="#fff" stroke="#39180d" stroke-width="2"/><line y2="4.869" transform="translate(416.236 4231.723)" fill="none" stroke="#336" stroke-linecap="round" stroke-linejoin="round" stroke-width="2"/><line y2="4.869" transform="translate(443.432 4231.723)" fill="none" stroke="#336" stroke-linecap="round" stroke-linejoin="round" stroke-width="2"/><line x2="8.378" transform="translate(489.389 4170.602)" fill="#fff" stroke="#707070" stroke-width="2"/><line x2="28.709" transform="translate(454.365 4170.602)" fill="#fff" stroke="#707070" stroke-width="2"/><line x2="43.399" transform="translate(454.365 4178.527)" fill="#fff" stroke="#707070" stroke-width="2"/><g transform="translate(-6.445 -16.059)"><path d="M119.655,426.422H59.162v37.945h7.2l-3.031,11.072,14.114-11.072h42.213Z" transform="translate(385.756 3737.095)" fill="#fff100"/><line x2="28.709" transform="translate(453.613 4175.602)" fill="none" stroke="#39180d" stroke-linecap="round" stroke-linejoin="round" stroke-width="2.5"/><line x2="43.399" transform="translate(453.613 4182.527)" fill="none" stroke="#39180d" stroke-linecap="round" stroke-linejoin="round" stroke-width="2.5"/><line x2="16.135" transform="translate(453.613 4189.452)" fill="none" stroke="#39180d" stroke-linecap="round" stroke-linejoin="round" stroke-width="2.5"/></g><path d="M118.907,505.285H1.25a6.482,6.482,0,0,0,6.482,6.482H112.425A6.482,6.482,0,0,0,118.907,505.285Z" transform="translate(385.756 3737.095)" fill="#2ea048" stroke="#2ea048" stroke-linecap="round" stroke-linejoin="round" stroke-width="2"/><line y2="4.869" transform="translate(416.236 4231.723)" fill="#fff" stroke="#39180d" stroke-width="2"/><line y2="4.869" transform="translate(443.432 4231.723)" fill="#fff" stroke="#39180d" stroke-width="2"/><g transform="translate(-5.973 -15.851)"><rect width="34.495" height="22.534" transform="translate(485.303 4210.846) rotate(-45.004)" fill="#106e38" stroke="#39180d" stroke-linecap="round" stroke-linejoin="round" stroke-width="2"/><path d="M68.609,74.958,60.64,66.99l-7.966-7.965-3.4,13.6,5.736,5.736Z" transform="translate(432.627 4151.82)" fill="#fff" stroke="#39180d" stroke-linecap="round" stroke-linejoin="round" stroke-width="2"/><path d="M55.011,78.358l-5.737-5.737-1.912,7.65Z" transform="translate(432.627 4151.82)" fill="#fee432" stroke="#39180d" stroke-linecap="round" stroke-linejoin="round" stroke-width="2"/><line y1="24.391" x2="24.391" transform="translate(496.012 4197.163)" fill="#fff" stroke="#707070" stroke-linecap="round" stroke-width="2"/><line y1="24.391" x2="24.391" transform="translate(496.012 4197.163)" fill="none" stroke="#39180d" stroke-linecap="round" stroke-linejoin="round" stroke-width="2"/><line y1="24.391" x2="24.392" transform="translate(490.523 4191.676)" fill="#fff" stroke="#707070" stroke-linecap="round" stroke-width="2"/><line y1="24.391" x2="24.392" transform="translate(490.523 4191.676)" fill="none" stroke="#39180d" stroke-linecap="round" stroke-linejoin="round" stroke-width="2"/></g></g></g></svg>