<svg xmlns="http://www.w3.org/2000/svg" width="328.5" height="62.26" viewBox="0 0 328.5 62.26"><g transform="translate(-23.9 -139.76)"><path d="M-141.36,1.344h12V-1.3H-138.1v-1.3c0-1.128.96-1.992,3.552-3.432,3.336-1.824,5.184-3.816,5.184-6.072v-.648c0-3.24-2.64-5.136-6-5.136s-6,1.9-6,5.136v1.008h3.264v-1.008a2.426,2.426,0,0,1,2.736-2.5,2.426,2.426,0,0,1,2.736,2.5v.648c0,1.224-1.488,2.616-3.792,3.768-2.52,1.272-4.944,3.072-4.944,5.736Zm14.64-4.536c0,3.24,2.616,5.136,6.24,5.136s6.24-1.9,6.24-5.136v-1.44a3.861,3.861,0,0,0-2.448-3.6,3.663,3.663,0,0,0,2.208-3.6v-.912c0-3.24-2.64-5.136-6-5.136s-6,1.9-6,5.136v.768h3.264v-.768a2.414,2.414,0,0,1,2.736-2.5,2.414,2.414,0,0,1,2.736,2.5v.936c0,1.392-1.128,2.28-2.736,2.28h-1.608v2.64h1.608c1.608,0,2.976.888,2.976,2.28v1.416c0,1.344-.792,2.5-2.976,2.5s-2.976-1.152-2.976-2.5V-3.96h-3.264Zm30.936.672h3.264v-15.7h-3.264v1.752h-6.576v2.5h6.576v1.584h-6.576v2.5h6.576ZM-111.36-6.1H-97.7V-8.688H-108.1v-9.288h-3.264Zm1.08,9.216h18.24V.432h-14.976V-4.32h-3.264Zm20.76-.72h21.36V-.36H-76.9V-4.776h7.416V-7.512H-84.456v-7.512H-69.84V-17.76H-87.72V-4.776H-80.3V-.36H-89.52Zm29.04-8.808H-51.5V-4.56h-2.88C-57.5-4.56-59.4-3.048-59.4-.672s1.9,3.888,5.016,3.888h9.168C-42.1,3.216-40.2,1.7-40.2-.672S-42.1-4.56-45.216-4.56H-48.1V-6.408h8.976V-8.976H-60.48Zm1.2-3.312c3.936-.264,7.416-1.344,9.48-3.216,2.064,1.872,5.544,2.952,9.48,3.216v-2.424c-3.84-.264-7.008-1.656-7.584-3.432h7.224V-18.12H-58.92v2.544H-51.7c-.6,1.776-3.744,3.168-7.584,3.432ZM-54.168.624c-1.224,0-1.968-.552-1.968-1.3s.744-1.3,1.968-1.3h8.736c1.224,0,1.968.552,1.968,1.3s-.744,1.3-1.968,1.3ZM-36.6-4.536A14.287,14.287,0,0,0-27-9.672a14.235,14.235,0,0,0,9.6,5.136V-7.152c-4.32-.624-7.92-3.624-7.92-7.776V-18.24h-3.36v3.312c0,4.152-3.6,7.152-7.92,7.776ZM-37.68,2.4h21.36V-.36H-25.3V-5.016H-28.7V-.36H-37.68Zm39.336.816H4.92V-18.216H1.656ZM-14.4,1.584C-7.176.384-1.944-6.7-1.944-15.408v-2.208H-14.28v2.784h9.024C-5.256-8.04-9.168-2.52-14.4-1.368Zm29.712-9.24c3.552,0,5.808-1.488,6.456-3.816h2.688V-7.08H27.72V-18.216H24.456V-14.4H21.768c-.648-2.328-2.9-3.816-6.456-3.816h-.624c-4.272,0-6.648,2.136-6.648,5.28s2.376,5.28,6.648,5.28ZM9.96,3.12H27.72V-6.36H24.456v2.088H13.224V-6.36H9.96ZM14.5-10.248c-1.92,0-3.192-1.08-3.192-2.688s1.272-2.688,3.192-2.688H15.5c1.92,0,3.192,1.08,3.192,2.688s-1.272,2.688-3.192,2.688ZM13.224.528V-1.68H24.456V.528ZM32.4-6.648H42.96V-9.264H32.4Zm13.68.312H67.44V-8.9H65.88V-18.12H47.4v2.688H62.616V-8.9H46.08ZM47.64,3.12H66.12V.432H50.9V-4.32H47.64Zm21.24-.48H90.24V-.12H81.5V-3.576H88.92V-6.312H73.944V-9.456h14.5v-8.3H70.68v2.736h14.5v2.88H70.68v8.568H78.1V-.12H68.88Zm22.92-.7a10.839,10.839,0,0,0,6.912-5.616,11.68,11.68,0,0,0,6.528,5.544V-1.08c-3.168-1.344-4.9-4.824-4.9-8.976V-14.88H105v-2.736H92.04v2.736h4.92v4.824c0,4.632-1.992,8.064-5.16,9.048Zm15.7,1.272h3.264V-7.632h2.88V-10.56h-2.88v-7.656H107.5ZM120.72-5.976c7.224-.432,12.6-3.888,12.6-9.816v-2.184H120.84v2.688h9.12c0,3.576-3.528,6.192-9.24,6.528Zm1.32,9.1h18.24V.432H125.3V-4.32H122.04Zm14.5-5.64H139.8V-10.3h2.88v-2.928H139.8v-4.992h-3.264Z" transform="translate(188 158)" fill="#e10992"/><path d="M-145.29,4.02c4.32,0,6.99-2.16,6.99-5.61s-2.67-5.61-6.99-5.61h-9.42c-4.32,0-6.99,2.16-6.99,5.61s2.67,5.61,6.99,5.61ZM-164.1-8.52a13.558,13.558,0,0,0,9.15-5.34,14.822,14.822,0,0,0,8.88,5.1v-3.27a7.951,7.951,0,0,1-6.75-7.77v-2.82h-4.23v2.82a8.228,8.228,0,0,1-7.05,8.01Zm21.12.72h4.08V-22.77h-4.08v3.72h-5.22v3.48h5.22ZM-154.44.78c-1.95,0-3.18-.93-3.18-2.37s1.23-2.37,3.18-2.37h8.88c1.95,0,3.18.93,3.18,2.37S-143.61.78-145.56.78Zm39.06,3.24h4.08V-8.94h3.6V-12.6h-3.6V-22.77h-4.08Zm-7.8-9.09h4.08V-21.93H-135v3.48h11.82ZM-135.75,2.1h19.17V-1.35h-9.93v-9.72h-4.26v9.72h-4.98Zm36.84-8.4c-4.02,0-6.39,2.01-6.39,5.16s2.37,5.16,6.39,5.16h11.22c4.02,0,6.39-2.01,6.39-5.16S-83.67-6.3-87.69-6.3Zm-7.74-2.1h26.7v-3.21H-92.97v-4.56h-4.26v4.56h-9.42ZM-105-19.29h19.02v6.42h4.08v-9.78H-105ZM-98.64.78c-1.56,0-2.58-.84-2.58-1.92s1.02-1.92,2.58-1.92h10.68c1.56,0,2.58.84,2.58,1.92S-86.4.78-87.96.78ZM-60.99-9c4.92,0,7.89-2.61,7.89-6.66s-2.97-6.66-7.89-6.66h-7.65c-4.92,0-7.86,2.61-7.86,6.66S-73.56-9-68.64-9ZM-72.63,4.02h4.26V-3.21h7.14V4.02h4.26V-3.21h5.52V-6.66h-26.7v3.45h5.52Zm3.84-16.44c-2.19,0-3.63-1.35-3.63-3.24s1.44-3.24,3.63-3.24h7.98c2.19,0,3.63,1.35,3.63,3.24s-1.44,3.24-3.63,3.24ZM-24.69-9c4.92,0,7.89-2.61,7.89-6.66s-2.97-6.66-7.89-6.66h-7.65c-4.92,0-7.86,2.61-7.86,6.66S-37.26-9-32.34-9ZM-41.85-3.15h11.22V4.02h4.26V-3.15h11.22V-6.6h-26.7Zm9.36-9.27c-2.19,0-3.63-1.35-3.63-3.24s1.44-3.24,3.63-3.24h7.98c2.19,0,3.63,1.35,3.63,3.24s-1.44,3.24-3.63,3.24Zm19.14,9.03H-2.13V4.02H2.13V-3.39H13.35V-6.84h-26.7Zm1.5-5.58A19.908,19.908,0,0,0,0-14.1,19.908,19.908,0,0,0,11.85-8.97v-3.27c-5.34-.69-9.75-3.84-9.75-7.83V-22.8H-2.1v2.73c0,3.99-4.41,7.14-9.75,7.83ZM35.82,4.02H39.9V-22.77H35.82ZM15.75,1.98C24.78.48,31.32-8.37,31.32-19.26v-2.76H15.9v3.48H27.18c0,8.49-4.89,15.39-11.43,16.83ZM52.89-9.57c4.44,0,7.26-1.86,8.07-4.77h3.36v5.49H68.4V-22.77H64.32V-18H60.96c-.81-2.91-3.63-4.77-8.07-4.77h-.78c-5.34,0-8.31,2.67-8.31,6.6s2.97,6.6,8.31,6.6ZM46.2,3.9H68.4V-7.95H64.32v2.61H50.28V-7.95H46.2Zm5.67-16.71c-2.4,0-3.99-1.35-3.99-3.36s1.59-3.36,3.99-3.36h1.26c2.4,0,3.99,1.35,3.99,3.36s-1.59,3.36-3.99,3.36ZM50.28.66V-2.1H64.32V.66ZM94.77,3.42h3.84V-8.79h2.85V4.02h3.84V-22.77h-3.84v10.32H98.61V-22.62H94.77ZM80.1,2.43a12.177,12.177,0,0,0,6.81-5.97,11.122,11.122,0,0,0,6.54,5.7V-1.41c-2.91-1.47-4.53-4.62-4.53-9.81v-5.16h4.05V-19.8H89.01v-3.27H84.72v3.27H80.55v3.42h4.26v5.16c0,5.19-2.19,9.09-4.71,10.08Zm28.35-9.66h26.7v-3.21h-5.82v-2.25c2.82-.63,4.47-2.4,4.47-4.92,0-3.15-2.61-5.16-6.93-5.16H116.73c-4.32,0-6.93,2.01-6.93,5.16,0,2.52,1.62,4.29,4.47,4.92v2.25h-5.82Zm7.62,1.53c-3.9,0-6.27,1.89-6.27,4.86s2.37,4.86,6.27,4.86h11.46c3.9,0,6.27-1.89,6.27-4.86s-2.37-4.86-6.27-4.86Zm.84-9.99c-1.83,0-3.03-.72-3.03-1.92s1.2-1.92,3.03-1.92h9.78c1.83,0,3.03.72,3.03,1.92s-1.2,1.92-3.03,1.92ZM116.34.78c-1.53,0-2.46-.69-2.46-1.62s.93-1.62,2.46-1.62h10.92c1.53,0,2.46.69,2.46,1.62S128.79.78,127.26.78Zm2.19-11.22v-2.01h6.54v2.01ZM138.3,3.9h23.1V.54H142.38V-4.5H138.3Zm18.42-6.45h4.08v-9.24h3.6v-3.66h-3.6v-7.32h-4.08ZM137.1-19.17h11.82v8.25H153V-22.53H137.1Zm-.75,12.78h19.17V-9.6h-9.99v-5.67h-4.26V-9.6h-4.92Z" transform="translate(188 198)" fill="#970d1b"/></g></svg>