<svg xmlns="http://www.w3.org/2000/svg" width="223.472" height="75.275" viewBox="0 0 223.472 75.275"><g transform="translate(-2815.528 787.426)"><g transform="translate(2008.296 -1044.09)"><g transform="translate(807.232 256.664)"><path d="M-134.874-13.063v-.643h2.666v-1.028h-2.666v-2.088h-1.189v2.088h-2.7v1.028h2.7v.643a6.813,6.813,0,0,1-3.02,5.815l.739.932a6.936,6.936,0,0,0,2.891-4.16,6.536,6.536,0,0,0,2.891,3.871l.739-.932A6.243,6.243,0,0,1-134.874-13.063Zm3.63,8.963h1.157v-6.554h1.928v7.261h1.189V-17.336h-1.189v5.622h-1.928v-5.333h-1.157Zm18.858-6.361h-3.148v-1.976a2.252,2.252,0,0,0,1.7-2.072c.016-1.622-1.879-2.57-4.915-2.57-3.052,0-4.931.948-4.947,2.57a2.325,2.325,0,0,0,1.767,2.088v1.96h-3.148v1.028h12.69ZM-123.565-5.9c.016,1.59,1.8,2.458,4.819,2.474,3-.016,4.8-.883,4.819-2.474-.016-1.59-1.815-2.474-4.819-2.474C-121.766-8.373-123.549-7.489-123.565-5.9Zm1.157-8.61c0-1,1.4-1.606,3.662-1.606s3.678.61,3.662,1.606c.016,1.028-1.4,1.622-3.662,1.606C-121.011-12.886-122.408-13.481-122.408-14.509Zm.1,8.61c0-.948,1.333-1.51,3.566-1.51,2.217,0,3.566.562,3.566,1.51s-1.349,1.51-3.566,1.51C-120.979-4.389-122.312-4.951-122.312-5.9Zm1.606-4.562V-12.1a10.4,10.4,0,0,0,1.96.161,10.756,10.756,0,0,0,1.992-.161v1.638Zm21.043-6.875h-1.221v3.63h-2.827v1.028h2.827v3.63h1.221Zm-11.5,7.2.643.964a6.035,6.035,0,0,0,3.566-3.55,5.818,5.818,0,0,0,3.405,3.164l.643-1a4.708,4.708,0,0,1-3.438-4.241v-.514h3.116V-16.34h-7.518v1.028h3.148v.514A5.19,5.19,0,0,1-111.164-10.14ZM-108.947-6c-.016,1.622,1.767,2.57,4.658,2.57,2.907,0,4.69-.948,4.69-2.57,0-1.655-1.783-2.6-4.69-2.6C-107.18-8.6-108.964-7.65-108.947-6Zm1.221,0c-.016-1.028,1.317-1.638,3.438-1.638,2.136,0,3.47.61,3.47,1.638,0,1-1.333,1.606-3.47,1.606C-106.409-4.389-107.743-5-107.727-6Zm23.163-.225h-5.815V-9.24h4.241v-7.132h-1.221v2.538h-7.228v-2.538h-1.221V-9.24H-91.6v3.02h-5.719v1.028h12.754Zm-10.023-4.016v-2.6h7.228v2.6Zm23.87-.643H-83.471v.964h12.754Zm-11.212,3.02h8.417V-6.67H-81.9v3.084h10.056v-.9h-8.835V-5.835h8.385V-8.79h-9.638Zm.064-8.192h8.289v1.157H-81.8v2.988h9.7v-.9H-80.58v-1.221h8.224v-2.891h-9.509Zm29.042,7.132H-65.577v1.028h5.751v4.5h1.221v-4.5h5.783Zm-11.052-1.414h9.606V-11.36h-8.385v-1.7h7.9v-1h-7.9V-15.7H-54.4v-1h-9.477Zm23.741-7h-1.221v2.249H-44.63v-1.189h-6.393v6.168h6.393V-11.3h3.277v2.217h1.221ZM-49.8-11.1V-15.28h3.984V-11.1Zm.386,5.076c-.016,1.655,1.767,2.586,4.658,2.6,2.907-.016,4.69-.948,4.69-2.6,0-1.687-1.783-2.65-4.69-2.667C-47.65-8.678-49.433-7.714-49.417-6.027Zm1.221,0c-.016-1.076,1.317-1.687,3.438-1.7,2.136.016,3.47.626,3.47,1.7,0,1-1.333,1.622-3.47,1.606C-46.879-4.405-48.212-5.032-48.2-6.027Zm3.566-6.3v-1.735h3.277v1.735Zm17.637-5.012h-1.221V-3.393h1.221v-7.164h2.313v-1.028h-2.313Zm-10.891,3.245h8.289v-1.028h-3.47v-2.056h-1.221v2.056h-3.6Zm.8,4.369a3.15,3.15,0,0,0,3.405,3.181,3.186,3.186,0,0,0,3.438-3.181,3.211,3.211,0,0,0-3.438-3.213A3.175,3.175,0,0,0-37.08-9.722Zm1.189,0a2.117,2.117,0,0,1,2.217-2.185,2.144,2.144,0,0,1,2.249,2.185A2.119,2.119,0,0,1-33.675-7.57,2.092,2.092,0,0,1-35.892-9.722Zm23.9-7.614h-1.157V-3.393h1.157ZM-23.909-7.313l.707.9a10.64,10.64,0,0,0,4.16-4.209h2.94V-4.1h1.189V-16.983H-16.1v5.365h-2.49a11.177,11.177,0,0,0,.691-3.952h-5.4v1.028h4.176A8.986,8.986,0,0,1-23.909-7.313ZM5.873-17.336H4.716V-3.393H5.873ZM-6.207-7.12l.8.932a7.4,7.4,0,0,0,2.891-4.433A6.687,6.687,0,0,0,.315-6.541l.771-.9a6.827,6.827,0,0,1-3.02-5.943V-14.67H.6V-15.7H-5.821v1.028h2.7v1.285C-3.123-10.83-4.247-8.276-6.207-7.12ZM-.456-11.3H1.921v7.164H3.078V-17.015H1.921v4.69H-.456ZM14.161-8.533c-2.988,0-4.883.932-4.883,2.57,0,1.59,1.9,2.522,4.883,2.538,2.988-.016,4.883-.948,4.883-2.538C19.045-7.6,17.149-8.533,14.161-8.533Zm-6.3-1.317h12.69v-1H14.322v-2.7H13.133v2.7H7.865Zm1.51-5.783h8.353v.193a13.79,13.79,0,0,1-.386,3.566l1.189.129a13.337,13.337,0,0,0,.418-3.695v-1.189H9.374ZM10.5-5.963c0-1.012,1.43-1.622,3.662-1.638,2.217.016,3.646.626,3.662,1.638-.016.948-1.446,1.558-3.662,1.542C11.929-4.405,10.5-5.015,10.5-5.963ZM32.538-17.336H31.317V-3.393h1.221v-7.164h2.313v-1.028H32.538ZM21.647-14.091h8.289v-1.028h-3.47v-2.056H25.245v2.056h-3.6Zm.8,4.369a3.15,3.15,0,0,0,3.405,3.181,3.186,3.186,0,0,0,3.438-3.181,3.211,3.211,0,0,0-3.438-3.213A3.175,3.175,0,0,0,22.45-9.722Zm1.189,0a2.117,2.117,0,0,1,2.217-2.185A2.144,2.144,0,0,1,28.1-9.722,2.119,2.119,0,0,1,25.855-7.57,2.092,2.092,0,0,1,23.639-9.722Zm23.163-6.2H36.971v1h8.578v.386a30.108,30.108,0,0,1-.514,6.265l1.221.161a32.627,32.627,0,0,0,.546-6.425ZM35.622-5.385h12.69V-6.413h-6.49v-4.98H40.6v4.98h-4.98Zm16.16-.353h-1.51L49.4-1.466h1.157ZM-138.841,7.381V5.55h3.309V4.522h-7.839V5.55h3.277V7.381a7.245,7.245,0,0,1-3.727,6.008l.707.964a7.853,7.853,0,0,0,3.662-4.61A7.2,7.2,0,0,0-135.757,14l.675-.964A6.576,6.576,0,0,1-138.841,7.381Zm5.269,9.67h1.221V3.108h-1.221Zm15.1-13.943h-1.221v8.257h-2.891v.9h2.891V13.71h1.221Zm-11.566,6.457.161,1c1.173,0,2.538,0,3.952-.048v2.715h1.221V10.449a33.126,33.126,0,0,0,3.823-.4l-.064-.9A78.562,78.562,0,0,1-130.038,9.566Zm1.124-3.47c0,1.494,1.4,2.426,3.47,2.442,2.04-.016,3.438-.948,3.438-2.442,0-1.462-1.4-2.426-3.438-2.409C-127.517,3.67-128.914,4.634-128.914,6.1Zm.9,10.634h9.895V15.7h-8.674V12.65h-1.221Zm.289-10.634c-.016-.883.916-1.494,2.281-1.478,1.317-.016,2.249.594,2.281,1.478-.032.916-.964,1.51-2.281,1.51C-126.81,7.606-127.741,7.012-127.725,6.1Zm16.352,1.285V5.55h3.148V4.522h-7.582V5.55h3.245V7.381a7.308,7.308,0,0,1-3.759,6.008l.739.964a8,8,0,0,0,3.63-4.642,7.333,7.333,0,0,0,3.5,4.289l.707-.964A6.781,6.781,0,0,1-111.373,7.381Zm4.851,9.67h1.253V9.79h2.313V8.73h-2.313V3.108h-1.253Zm17.059-7.485h-12.754v.964h12.754Zm-11.212,3.02h8.417v1.189h-8.385v3.084h10.056v-.9h-8.835V14.609h8.385V11.654h-9.638Zm.064-8.192h8.289V5.55h-8.224V8.538h9.7v-.9h-8.481V6.417H-91.1V3.526h-9.509ZM-73.046,7h-8.289V3.365h-1.221V8.023h9.509ZM-84.29,10.658h12.722V9.63H-84.29Zm1.51,3.791c.016,1.622,1.815,2.522,4.819,2.538,3-.016,4.8-.916,4.819-2.538-.016-1.622-1.815-2.538-4.819-2.538S-82.764,12.826-82.78,14.449Zm1.253,0c0-1,1.333-1.542,3.566-1.542,2.217,0,3.566.546,3.566,1.542,0,.98-1.349,1.558-3.566,1.574C-80.194,16.007-81.527,15.429-81.527,14.449Zm17.7-10.505h-6.04v1h4.819V6.9h-4.787v4.144h1a34.974,34.974,0,0,0,5.976-.353l-.129-1.028a27.221,27.221,0,0,1-5.622.353V7.863h4.787Zm-4.433,9.477h8.16v3.63h1.221V12.425h-9.381Zm5.365-4.337h2.8v2.6h1.221V3.108H-60.1V5.2h-2.8v1h2.8V8.056h-2.8Zm23.067.546h-12.69v1H-46.8V12.12c-2.65.129-4.193.98-4.209,2.458.016,1.558,1.8,2.426,4.819,2.442,3-.016,4.8-.883,4.819-2.442-.016-1.478-1.574-2.329-4.209-2.458V10.626h5.751ZM-51.81,7.8l.45.964c2.281-.273,4.417-1.285,5.188-2.843.771,1.558,2.907,2.57,5.188,2.843l.45-.964c-2.458-.257-4.755-1.478-4.851-3.052h4.433v-1H-51.361v1h4.4C-47.072,6.321-49.4,7.542-51.81,7.8Zm2.056,6.779c0-.948,1.333-1.494,3.566-1.51,2.217.016,3.566.562,3.566,1.51,0,.916-1.349,1.478-3.566,1.478C-48.421,16.055-49.754,15.493-49.754,14.577ZM-27.137,3.108h-1.221v7.935h1.221Zm-11.4,6.586.643,1a6.166,6.166,0,0,0,3.566-3.55A5.871,5.871,0,0,0-30.8,10.4l.643-.932A5,5,0,0,1-33.723,5V3.654h-1.253V5A5.1,5.1,0,0,1-38.542,9.694Zm2.345,7.164h9.06V11.814H-36.2Zm1.221-1.028V12.81h6.618v3.02ZM-18.431,4.008c-2.907,0-5.092,1.526-5.076,3.823-.016,2.329,2.169,3.839,5.076,3.823,2.924.016,5.108-1.494,5.108-3.823C-13.323,5.534-15.508,4.008-18.431,4.008Zm-6.329,11.18h12.754V14.16H-24.76Zm2.409-7.357c0-1.671,1.687-2.843,3.919-2.827,2.249-.016,3.919,1.157,3.919,2.827,0,1.687-1.671,2.827-3.919,2.827C-20.664,10.658-22.35,9.517-22.35,7.831ZM1.873,14.256H-3.942v-2.6H.588V10.626H-8.086V8.345H.267V4.136H-9.339V5.164H-.954V7.349H-9.307v4.3h4.144v2.6h-5.719v1.06H1.873ZM14.82,4.136H7.431V5.164H8.844V9.807l-1.8.016.129,1.028a54.391,54.391,0,0,0,8.16-.45L15.3,9.469c-.61.08-1.253.129-1.9.177V5.164H14.82ZM9.262,14.513c-.016,1.574,1.751,2.49,4.658,2.506,2.924-.016,4.69-.932,4.69-2.506,0-1.606-1.767-2.522-4.69-2.506C11.013,11.991,9.246,12.907,9.262,14.513Zm.771-4.723V5.164h2.185V9.71C11.479,9.758,10.74,9.774,10.033,9.79Zm.45,4.723c-.016-.98,1.3-1.558,3.438-1.542,2.152-.016,3.47.562,3.47,1.542,0,.948-1.317,1.526-3.47,1.51C11.784,16.039,10.467,15.461,10.483,14.513Zm4.5-5.4h2.345v2.6h1.221V3.108H17.326V5.614H14.981v1h2.345V8.088H14.981ZM31.686,3.108H30.433V17.019h1.253v-7.2h2.249V8.762H31.686ZM20.956,13.421l.707.964c4.546-2.249,6.393-5.847,6.393-9.8H21.631V5.614H26.8C26.546,8.939,24.57,11.622,20.956,13.421ZM45.565,3.108H44.344V17.051h1.221V9.887h2.313V8.859H45.565ZM34.674,6.353h8.289V5.325h-3.47V3.269H38.272V5.325h-3.6Zm.8,4.369A3.15,3.15,0,0,0,38.883,13.9a3.205,3.205,0,1,0,0-6.393A3.175,3.175,0,0,0,35.477,10.722Zm1.189,0a2.117,2.117,0,0,1,2.217-2.185,2.144,2.144,0,0,1,2.249,2.185,2.119,2.119,0,0,1-2.249,2.152A2.092,2.092,0,0,1,36.666,10.722ZM55.556,4.49H49.2v9.028h6.361V11.3h3.405v5.751h1.221V3.108H58.962V6.449H55.556Zm-5.14,8.032V5.453h3.952v7.068Zm5.14-2.217V7.477h3.405V10.3ZM-96.1,24.452h-9.445V25.48h8.224v.193a20.385,20.385,0,0,1-.434,4.755h-9.365v1.028h5.686V37.5h1.253v-6.04h5.751V30.427H-96.5a21.97,21.97,0,0,0,.4-4.755Zm7.871,1.671v-.61h3.213v-1h-7.71v1h3.245v.61a5.049,5.049,0,0,1-3.566,4.53l.643.964a5.928,5.928,0,0,0,3.582-3.438,5.826,5.826,0,0,0,3.55,3.148l.61-.932A4.819,4.819,0,0,1-88.226,26.122Zm-2.891,7.614h8.16V37.5h1.221V32.708h-9.381Zm8.16-1.767h1.221V23.552h-1.221Zm8.289-4.144V25.994h3.148V24.966H-79.1v1.028h3.245v1.831a7.308,7.308,0,0,1-3.759,6.008l.739.964a8,8,0,0,0,3.63-4.642,7.333,7.333,0,0,0,3.5,4.289l.707-.964A6.782,6.782,0,0,1-74.668,27.825Zm4.851,9.67h1.253V30.235h2.313v-1.06h-2.313V23.552h-1.253ZM-61.3,24.452c-2.169.016-3.711,1.333-3.695,3.277a3.191,3.191,0,0,0,3.084,3.213v2.426c-1.349.032-2.634.048-3.759.048l.225,1.028a49.313,49.313,0,0,0,8.706-.514l-.1-.932c-1.221.161-2.522.257-3.823.321V30.941a3.236,3.236,0,0,0,3.084-3.213C-57.577,25.785-59.151,24.468-61.3,24.452Zm-2.506,3.277A2.281,2.281,0,0,1-61.3,25.512a2.318,2.318,0,0,1,2.538,2.217A2.328,2.328,0,0,1-61.3,29.945,2.29,2.29,0,0,1-63.81,27.729Zm7.871,9.766h1.221V30.363h2.281V29.3h-2.281V23.552h-1.221Zm19.854-13.943h-1.221V37.5h1.221ZM-47.425,33.865l.675,1c4.674-2.249,6.538-5.8,6.554-9.8h-6.586v1h5.333C-41.723,29.383-43.65,32.066-47.425,33.865Zm17.541-9.67c-2.12-.016-3.63,1.317-3.6,3.213-.032,1.912,1.478,3.229,3.6,3.245a3.366,3.366,0,0,0,3.566-2.763h2.924v3.116h1.221V23.552h-1.221v3.341h-2.924A3.34,3.34,0,0,0-29.884,24.195Zm-2.442,3.213a2.228,2.228,0,0,1,2.442-2.185,2.2,2.2,0,0,1,2.409,2.185,2.209,2.209,0,0,1-2.409,2.185A2.237,2.237,0,0,1-32.326,27.407Zm1.189,9.895h8.963v-5.59h-1.221v1.767h-6.522V31.712h-1.221Zm1.221-1.028v-1.8h6.522v1.8ZM-8.359,23.552H-9.58V37.5h1.221Zm-10.955,5.911c0,2.988,1.478,4.867,3.566,4.883,2.056-.016,3.55-1.9,3.566-4.883-.016-2.956-1.51-4.835-3.566-4.851C-17.837,24.629-19.315,26.508-19.315,29.464Zm1.189,0c0-2.249.964-3.743,2.377-3.759,1.381.016,2.345,1.51,2.345,3.759,0,2.281-.964,3.775-2.345,3.759C-17.162,33.238-18.126,31.745-18.126,29.464ZM8.957,23.552H7.736v8.385H8.957v-3.63h2.088v-1.06H8.957ZM-1.9,26.026H6.387v-1H2.853V23.424H1.632V25.03H-1.9Zm.8,3.181c-.032,1.526,1.317,2.506,3.341,2.506,2.008,0,3.341-.98,3.341-2.506,0-1.478-1.333-2.474-3.341-2.474C.218,26.733-1.131,27.729-1.1,29.207Zm1.157,0c0-.9.867-1.51,2.185-1.51,1.3,0,2.185.61,2.185,1.51,0,.964-.883,1.542-2.185,1.542C.925,30.749.058,30.17.058,29.207Zm.1,8.1h8.8V32.74H.154Zm1.221-1.028V33.736H7.736v2.538ZM15.382,25.223H12.234v1.028h2.088a12.3,12.3,0,0,1-2.345,7.357l.964.546C14.964,31.455,15.382,28.162,15.382,25.223Zm-.289,9.285.964.578a11.91,11.91,0,0,0,2.072-5.044h2.008v6.747h1.189V23.906H20.137v5.108H18.29a29.108,29.108,0,0,0,.209-3.791H15.832v1.028h1.59C17.358,28.853,17.021,32.05,15.093,34.507ZM22.739,37.5h1.189V23.552H22.739Zm-169.21,15.3c-2.988,0-4.883.932-4.883,2.57,0,1.59,1.9,2.522,4.883,2.538,2.988-.016,4.883-.948,4.883-2.538C-141.588,53.731-143.483,52.8-146.471,52.8Zm-6.3-1.317h12.69v-1h-6.233v-2.7H-147.5v2.7h-5.269Zm1.51-5.783h8.353v.193a13.789,13.789,0,0,1-.385,3.566l1.189.129a13.338,13.338,0,0,0,.418-3.695V44.7h-9.574Zm1.124,9.67c0-1.012,1.43-1.622,3.662-1.638,2.217.016,3.646.626,3.662,1.638-.016.948-1.446,1.558-3.662,1.542C-148.7,56.927-150.134,56.317-150.134,55.369ZM-128,44h-1.221v7.9H-128V48.43h2.088V47.4H-128Zm-10.923,7.068.514.964c4.128-1.108,6.586-3.63,6.586-7.132h-6.457v1.028h5.14C-133.4,48.269-135.484,50.133-138.921,51.064Zm2.088,6.65H-128V52.542h-8.835Zm1.221-1V53.57h6.393v3.148Zm21.493-12.786h-1.221v7.71h1.221V48.333H-112v-1h-2.12Zm-10.859,2.313h8.289v-1h-3.534V43.836h-1.221v1.414h-3.534Zm.8,2.924c-.032,1.414,1.3,2.265,3.341,2.281,2.024-.016,3.341-.867,3.341-2.281,0-1.43-1.317-2.3-3.341-2.313C-122.874,46.872-124.208,47.739-124.175,49.169Zm1.157,4.144h7.678v1.253h-7.646v3.213h9.381v-.964h-8.16V55.466h7.646V52.381h-8.9Zm0-4.144c0-.851.851-1.381,2.185-1.381,1.317,0,2.185.53,2.185,1.381,0,.835-.867,1.349-2.185,1.349C-122.167,50.518-123.019,50-123.019,49.169Zm22.874-3.887v-.8H-101.4v.8c0,1.992-2.554,3.662-5.076,4.016l.514,1a7.2,7.2,0,0,0,5.2-3.261,7.248,7.248,0,0,0,5.2,3.261l.514-1C-97.559,48.944-100.129,47.241-100.145,45.281Zm-6.971,7.582h5.719v5.076h1.189V52.863h5.783V51.835h-12.69Zm22.585.482v-.771H-85.72v.771a4.006,4.006,0,0,1-2.827,3.47l.61.9a4.849,4.849,0,0,0,2.811-2.57,4.439,4.439,0,0,0,2.65,2.7A4.8,4.8,0,0,0-79.921,55.1a4.66,4.66,0,0,0,2.843,2.618l.643-.9a3.866,3.866,0,0,1-2.859-3.47v-.771h-1.189v.771a4.2,4.2,0,0,1-2.056,3.309A3.93,3.93,0,0,1-84.531,53.345ZM-88.9,48.076c-.016,1.912,1.526,3.229,3.662,3.245,2.1-.016,3.63-1.333,3.63-3.245a3.326,3.326,0,0,0-3.63-3.277C-87.374,44.8-88.917,46.133-88.9,48.076Zm1.189,0a2.252,2.252,0,0,1,2.474-2.217A2.242,2.242,0,0,1-82.8,48.076a2.27,2.27,0,0,1-2.442,2.217A2.28,2.28,0,0,1-87.712,48.076Zm8.771,3.887h1.221V44h-1.221ZM-64.1,48.2H-72.42V44.51H-73.64V49.2H-64.1Zm-11.276,3.887h12.754v-1H-75.375Zm1.671,5.494H-64V56.558h-8.481v-3.02H-73.7ZM-45.947,44h-1.221V54.181h1.221Zm-11.18,4.4A3.378,3.378,0,0,0-53.465,51.8a3.377,3.377,0,0,0,3.63-3.405,3.43,3.43,0,0,0-3.63-3.438A3.43,3.43,0,0,0-57.127,48.4Zm1.189,0a2.331,2.331,0,0,1,2.474-2.345A2.341,2.341,0,0,1-51.023,48.4a2.331,2.331,0,0,1-2.442,2.345A2.322,2.322,0,0,1-55.939,48.4Zm1,9.22H-45.5V56.59h-8.224V53.152h-1.221ZM-31.587,44h-1.189v5.622H-34.7V44.286H-35.86V57.233H-34.7V50.679h1.928v7.261h1.189Zm-12.144,10.12.771.932a6.689,6.689,0,0,0,2.94-4.3,6.185,6.185,0,0,0,2.875,3.823l.739-.964c-1.992-1.012-3.052-3.261-3.052-5.815V46.663h2.6V45.635h-6.554v1.028h2.763v1.124C-40.646,50.614-41.723,52.992-43.731,54.116ZM-21.6,48.269v-.643h2.667V46.6H-21.6V44.51h-1.189V46.6h-2.7v1.028h2.7v.643a6.813,6.813,0,0,1-3.02,5.815l.739.932a6.936,6.936,0,0,0,2.891-4.16,6.536,6.536,0,0,0,2.891,3.871l.739-.932A6.243,6.243,0,0,1-21.6,48.269Zm3.63,8.963h1.157V50.679h1.928v7.261h1.189V44h-1.189v5.622h-1.928V44.286h-1.157ZM.893,50.871H-2.255V48.9a2.252,2.252,0,0,0,1.7-2.072c.016-1.622-1.879-2.57-4.915-2.57-3.052,0-4.931.948-4.947,2.57a2.325,2.325,0,0,0,1.767,2.088v1.96H-11.8V51.9H.893Zm-11.18,4.562c.016,1.59,1.8,2.458,4.819,2.474,3-.016,4.8-.883,4.819-2.474-.016-1.59-1.815-2.474-4.819-2.474C-8.488,52.96-10.271,53.843-10.287,55.433Zm1.157-8.61c0-1,1.4-1.606,3.662-1.606s3.678.61,3.662,1.606c.016,1.028-1.4,1.622-3.662,1.606C-7.733,48.446-9.13,47.852-9.13,46.824Zm.1,8.61c0-.948,1.333-1.51,3.566-1.51,2.217,0,3.566.562,3.566,1.51s-1.349,1.51-3.566,1.51C-7.7,56.943-9.034,56.381-9.034,55.433Zm1.606-4.562V49.233a10.4,10.4,0,0,0,1.96.161,10.756,10.756,0,0,0,1.992-.161v1.638ZM8.507,52.735c-2.875.016-4.626.964-4.626,2.6,0,1.622,1.751,2.57,4.626,2.57,2.859,0,4.594-.948,4.594-2.57C13.1,53.7,11.366,52.751,8.507,52.735ZM2.66,51.289H9.15V44.864H7.929v2.12H3.881v-2.12H2.66Zm1.221-1V47.98H7.929v2.313ZM5.1,55.337c0-1.012,1.3-1.606,3.405-1.606s3.389.594,3.405,1.606c-.016.98-1.3,1.59-3.405,1.574C6.4,56.927,5.1,56.317,5.1,55.337Zm6.65-2.956h1.221V48.558h2.088V47.5H12.973V44H11.752Zm9.124-6.361V44.671H19.623V46.02a5.229,5.229,0,0,1-3.534,4.787l.643.964A6.009,6.009,0,0,0,20.265,48.2,6.046,6.046,0,0,0,23.8,51.546l.61-1A4.994,4.994,0,0,1,20.876,46.02Zm-2.8,8.064h8.16v3.855h1.221V53.088H18.081Zm8.16-1.7h1.221V44H26.241ZM41.34,44H40.12V51.45H41.34ZM30.16,47.884c-.016,1.879,1.526,3.2,3.662,3.181,2.1.016,3.63-1.3,3.63-3.181,0-1.928-1.526-3.229-3.63-3.213C31.686,44.655,30.144,45.956,30.16,47.884Zm1.189,0A2.247,2.247,0,0,1,33.823,45.7a2.184,2.184,0,1,1,0,4.337A2.242,2.242,0,0,1,31.349,47.884Zm.964,9.863H41.34v-5.59H40.12v1.7H33.534v-1.7H32.313Zm1.221-1.028V54.855H40.12v1.863ZM55.187,44H53.966V57.939h1.221ZM44.617,54.341h1.124a31.923,31.923,0,0,0,6.907-.707l-.161-1.028a31.449,31.449,0,0,1-6.65.643v-7.9H44.617ZM68.391,44H67.138V57.939h1.253V50.518H70.7V49.49H68.391ZM58.207,54.47H59.3a36.723,36.723,0,0,0,6.65-.482l-.161-1.06a32.322,32.322,0,0,1-6.361.482V46.374H64.7V45.346h-6.49Z" transform="translate(152.768 17.336)"/></g></g></g></svg>