<svg xmlns="http://www.w3.org/2000/svg" xmlns:xlink="http://www.w3.org/1999/xlink" width="130" height="30" viewBox="0 0 130 30"><defs><clipPath id="a"><rect width="130" height="30" transform="translate(45 82)" fill="#ffaeae"/></clipPath></defs><g transform="translate(-45 -82)"><g clip-path="url(#a)"><g transform="translate(66.999 82.571)"><g transform="translate(31.172 20.556)"><path d="M54.052,97.419l-.615-1.264a6.465,6.465,0,0,1-.284-.654l-.02.005c.017.2.023.44.026.662l.014,1.25h-.331V95.04h.382l.653,1.313a4.925,4.925,0,0,1,.232.567l.019-.005c-.006-.071-.034-.445-.034-.709l-.006-1.167H54.4v2.378Z" transform="translate(-52.843 -94.886)" fill="#5f5e5e"/><path d="M55.634,96.551a.58.58,0,0,0-.445.125.336.336,0,0,0-.089.252c0,.189.095.3.269.3a.425.425,0,0,0,.358-.23l.01-.442c-.047,0-.075-.007-.1-.007m.384.93a.4.4,0,0,1-.228-.249.585.585,0,0,1-.483.227.482.482,0,0,1-.55-.505c0-.4.315-.615.867-.615a.98.98,0,0,1,.12.005v-.116c0-.2-.027-.339-.267-.339a.929.929,0,0,0-.524.2l-.142-.23a1.344,1.344,0,0,1,.714-.225.473.473,0,0,1,.493.274.808.808,0,0,1,.034.3c0,.126-.012.39-.012.644,0,.236.006.335.139.418Z" transform="translate(-52.806 -94.876)" fill="#5f5e5e"/><path d="M57.223,95.914h-.338v1.04c0,.215.051.28.222.28a.411.411,0,0,0,.16-.033l.038.189a.679.679,0,0,1-.309.074.473.473,0,0,1-.29-.087c-.071-.065-.126-.1-.126-.352V95.914h-.2v-.226h.2a3.735,3.735,0,0,1,.02-.44l.324-.075a5.046,5.046,0,0,0-.033.516h.416Z" transform="translate(-52.781 -94.886)" fill="#5f5e5e"/><path d="M57.651,97.429V95.71l.323-.05v1.769Zm.16-2.033a.226.226,0,1,1,.229-.229.229.229,0,0,1-.229.229" transform="translate(-52.76 -94.897)" fill="#5f5e5e"/><path d="M59.121,95.877c-.271,0-.385.2-.385.633,0,.529.132.7.4.7.236,0,.385-.189.385-.642,0-.534-.154-.7-.4-.7m.006,1.582c-.456,0-.738-.353-.738-.914s.284-.912.732-.912c.5,0,.748.407.748.928,0,.549-.29.9-.742.9" transform="translate(-52.746 -94.879)" fill="#5f5e5e"/><path d="M61.256,97.411V96.243c0-.156-.014-.21-.056-.265a.2.2,0,0,0-.172-.068.677.677,0,0,0-.422.221v1.281H60.3V96.123a.948.948,0,0,0-.064-.41l.3-.086a.57.57,0,0,1,.058.267,1.688,1.688,0,0,1,.222-.168.628.628,0,0,1,.315-.086.425.425,0,0,1,.4.243.575.575,0,0,1,.041.22v1.307Z" transform="translate(-52.712 -94.878)" fill="#5f5e5e"/><path d="M62.84,96.551a.584.584,0,0,0-.447.125.34.34,0,0,0-.088.252c0,.189.095.3.269.3a.425.425,0,0,0,.358-.23l.01-.442c-.047,0-.074-.007-.1-.007m.383.93A.4.4,0,0,1,63,97.233a.588.588,0,0,1-.483.227.483.483,0,0,1-.551-.505c0-.4.315-.615.868-.615a.948.948,0,0,1,.118.005v-.116c0-.2-.026-.339-.265-.339a.926.926,0,0,0-.524.2l-.142-.23a1.345,1.345,0,0,1,.714-.225.473.473,0,0,1,.493.274.818.818,0,0,1,.035.3c0,.126-.014.39-.014.644,0,.236.005.335.139.418Z" transform="translate(-52.685 -94.876)" fill="#5f5e5e"/><path d="M64.091,97.459a.291.291,0,0,1-.264-.133.447.447,0,0,1-.064-.3V95.459a2.293,2.293,0,0,0-.038-.5l.325-.067a2.033,2.033,0,0,1,.033.492v1.557c0,.184.008.224.043.256a.11.11,0,0,0,.106.023l.054.2a.413.413,0,0,1-.2.041" transform="translate(-52.653 -94.891)" fill="#5f5e5e"/><path d="M66.229,95.355a.825.825,0,0,0-.284-.043H65.7v.828h.229a.545.545,0,0,0,.4-.113.45.45,0,0,0,.115-.322.364.364,0,0,0-.217-.349m.28,2.061c-.068-.135-.1-.189-.194-.352a3.241,3.241,0,0,0-.4-.594.26.26,0,0,0-.211-.1v1.05h-.326V95.038h.657a.741.741,0,0,1,.554.174.655.655,0,0,1,.209.489.6.6,0,0,1-.627.652,1.076,1.076,0,0,1,.2.222c.047.065.119.169.2.294.1.161.292.473.339.548Z" transform="translate(-52.632 -94.884)" fill="#5f5e5e"/><path d="M68.056,95.991a.3.3,0,0,0-.245-.123c-.236,0-.358.2-.358.511h.709a.632.632,0,0,0-.106-.388m-.607.625v.037a.644.644,0,0,0,.073.345.445.445,0,0,0,.39.207.615.615,0,0,0,.419-.166l.119.189a.865.865,0,0,1-.59.221c-.473,0-.762-.35-.762-.914a.951.951,0,0,1,.206-.67.627.627,0,0,1,.513-.239.612.612,0,0,1,.462.189.974.974,0,0,1,.208.745v.056Z" transform="translate(-52.596 -94.878)" fill="#5f5e5e"/><path d="M69.391,97.457a1.276,1.276,0,0,1-.635-.184l.112-.227a1.156,1.156,0,0,0,.547.171.284.284,0,0,0,.316-.278c0-.148-.087-.234-.284-.272l-.208-.043a.46.46,0,0,1-.415-.479.554.554,0,0,1,.615-.539,1.087,1.087,0,0,1,.539.142l-.106.224a.945.945,0,0,0-.419-.125.262.262,0,0,0-.3.26c0,.124.06.192.242.236l.22.05a.488.488,0,0,1,.444.486.6.6,0,0,1-.671.58" transform="translate(-52.571 -94.875)" fill="#5f5e5e"/><path d="M71.288,95.991a.3.3,0,0,0-.245-.123c-.236,0-.356.2-.356.511h.707a.632.632,0,0,0-.106-.388m-.605.624v.037a.666.666,0,0,0,.07.345.448.448,0,0,0,.391.207.615.615,0,0,0,.419-.166l.119.189a.862.862,0,0,1-.589.221c-.473,0-.762-.35-.762-.914a.96.96,0,0,1,.2-.67.632.632,0,0,1,.514-.239.62.62,0,0,1,.464.189.988.988,0,0,1,.207.746v.056Z" transform="translate(-52.541 -94.878)" fill="#5f5e5e"/><path d="M72.9,96.551a.584.584,0,0,0-.447.125.34.34,0,0,0-.088.252c0,.189.1.3.269.3a.425.425,0,0,0,.358-.23l.01-.442c-.047,0-.074-.007-.1-.007m.383.93a.394.394,0,0,1-.227-.249.589.589,0,0,1-.484.227.482.482,0,0,1-.55-.505c0-.4.315-.615.867-.615a.948.948,0,0,1,.118.005v-.116c0-.2-.026-.339-.264-.339a.929.929,0,0,0-.525.2l-.142-.23a1.354,1.354,0,0,1,.714-.225.473.473,0,0,1,.493.274.8.8,0,0,1,.035.3c0,.126-.014.39-.014.644,0,.236.006.335.139.418Z" transform="translate(-52.515 -94.876)" fill="#5f5e5e"/><path d="M74.585,95.96a.25.25,0,0,0-.087-.014.358.358,0,0,0-.354.352V97.41h-.315V96.142a1.108,1.108,0,0,0-.064-.43l.3-.08a.709.709,0,0,1,.057.263v.033a.564.564,0,0,1,.464-.3.309.309,0,0,1,.106.018Z" transform="translate(-52.486 -94.878)" fill="#5f5e5e"/><path d="M75.388,97.447a.625.625,0,0,1-.547-.259,1.053,1.053,0,0,1-.164-.626.952.952,0,0,1,.284-.762.659.659,0,0,1,.9.008l-.164.217a.4.4,0,0,0-.3-.134.326.326,0,0,0-.3.186,1.221,1.221,0,0,0-.081.529.709.709,0,0,0,.135.494.316.316,0,0,0,.244.107.477.477,0,0,0,.355-.182l.154.2a.667.667,0,0,1-.525.225" transform="translate(-52.468 -94.879)" fill="#5f5e5e"/><path d="M77.272,97.423V96.234a.392.392,0,0,0-.057-.239.268.268,0,0,0-.189-.066.651.651,0,0,0-.452.251v1.243h-.316v-2.1a1.486,1.486,0,0,0-.038-.362l.316-.068a1.79,1.79,0,0,1,.038.4v.388a1.938,1.938,0,0,1-.01.231,1.255,1.255,0,0,1,.18-.142.655.655,0,0,1,.371-.115.431.431,0,0,1,.428.258.678.678,0,0,1,.035.28v1.229Z" transform="translate(-52.444 -94.89)" fill="#5f5e5e"/><path d="M79.641,97.458a.882.882,0,0,1-.728-.357,1.364,1.364,0,0,1-.256-.851,1.54,1.54,0,0,1,.154-.707A.946.946,0,0,1,79.654,95a.922.922,0,0,1,.574.189l-.16.217a.668.668,0,0,0-.415-.137.557.557,0,0,0-.52.342,1.41,1.41,0,0,0-.113.639,1.371,1.371,0,0,0,.085.558.6.6,0,0,0,.575.386.638.638,0,0,0,.431-.148l.161.217a1.043,1.043,0,0,1-.633.2" transform="translate(-52.403 -94.89)" fill="#5f5e5e"/><path d="M81.222,95.877c-.274,0-.384.2-.384.633,0,.529.132.7.4.7.236,0,.384-.189.384-.642,0-.534-.154-.7-.4-.7m.006,1.582c-.456,0-.737-.353-.737-.914s.284-.912.731-.912c.5,0,.748.407.748.928,0,.549-.29.9-.742.9" transform="translate(-52.374 -94.879)" fill="#5f5e5e"/><path d="M83.552,97.468a.411.411,0,0,1-.16-.25.624.624,0,0,1-.513.25.481.481,0,0,1-.46-.258.759.759,0,0,1-.042-.291V95.69l.311-.062v1.2c0,.178.016.246.077.3a.3.3,0,0,0,.2.079.47.47,0,0,0,.388-.275V95.7l.31-.06v1.3a.485.485,0,0,0,.1.36Z" transform="translate(-52.34 -94.876)" fill="#5f5e5e"/><path d="M85.178,97.411V96.243c0-.156-.013-.21-.055-.265a.205.205,0,0,0-.174-.068.675.675,0,0,0-.421.221v1.281h-.31V96.123a.931.931,0,0,0-.065-.41l.3-.086a.582.582,0,0,1,.057.267,1.688,1.688,0,0,1,.222-.168.626.626,0,0,1,.316-.086.425.425,0,0,1,.4.243.557.557,0,0,1,.041.22v1.307Z" transform="translate(-52.312 -94.878)" fill="#5f5e5e"/><path d="M86.6,97.447a.625.625,0,0,1-.547-.259,1.053,1.053,0,0,1-.164-.626.958.958,0,0,1,.284-.762.657.657,0,0,1,.443-.176.648.648,0,0,1,.463.184l-.163.217a.407.407,0,0,0-.3-.134.327.327,0,0,0-.3.186,1.249,1.249,0,0,0-.082.529.709.709,0,0,0,.137.494.318.318,0,0,0,.245.107.473.473,0,0,0,.354-.182l.154.2a.669.669,0,0,1-.525.225" transform="translate(-52.279 -94.878)" fill="#5f5e5e"/><path d="M87.4,97.429V95.71l.323-.05v1.769ZM87.56,95.4a.226.226,0,1,1,.228-.229.23.23,0,0,1-.228.229" transform="translate(-52.257 -94.897)" fill="#5f5e5e"/><path d="M88.583,97.459a.292.292,0,0,1-.265-.133.441.441,0,0,1-.064-.3V95.459a2.374,2.374,0,0,0-.036-.5l.326-.067a2.24,2.24,0,0,1,.029.492v1.557c0,.184.01.224.044.256a.112.112,0,0,0,.107.023l.054.2a.419.419,0,0,1-.194.041" transform="translate(-52.243 -94.891)" fill="#5f5e5e"/><path d="M90.457,95.877c-.274,0-.385.2-.385.633,0,.529.133.7.4.7.236,0,.384-.189.384-.642,0-.534-.154-.7-.4-.7m.006,1.582c-.457,0-.738-.353-.738-.914s.284-.912.732-.912c.5,0,.748.407.748.928,0,.549-.291.9-.742.9" transform="translate(-52.217 -94.879)" fill="#5f5e5e"/><path d="M92.423,95.2a.483.483,0,0,0-.222-.064c-.142,0-.228.1-.228.276v.28h.453l-.082.224h-.367v1.506H91.66V95.917H91.5v-.224h.167c-.008-.033-.008-.246-.008-.277a.5.5,0,0,1,.189-.43.52.52,0,0,1,.31-.083.692.692,0,0,1,.37.095Z" transform="translate(-52.19 -94.89)" fill="#5f5e5e"/><path d="M93.917,97.461a1.426,1.426,0,0,1-.756-.211l.129-.256a1.135,1.135,0,0,0,.633.2c.306,0,.507-.159.507-.415,0-.193-.127-.326-.388-.4L93.8,96.3c-.355-.1-.555-.277-.555-.615a.7.7,0,0,1,.778-.692,1.222,1.222,0,0,1,.718.225l-.147.236a.972.972,0,0,0-.558-.189c-.262,0-.425.137-.425.359,0,.169.095.267.346.342l.276.083a.7.7,0,0,1,.572.668.79.79,0,0,1-.885.74" transform="translate(-52.157 -94.882)" fill="#5f5e5e"/><path d="M95.814,97.449a.627.627,0,0,1-.548-.259,1.068,1.068,0,0,1-.163-.626.952.952,0,0,1,.285-.76.658.658,0,0,1,.9.008l-.163.217a.405.405,0,0,0-.3-.134.323.323,0,0,0-.3.186,1.234,1.234,0,0,0-.082.529.706.706,0,0,0,.136.494.318.318,0,0,0,.244.107.473.473,0,0,0,.354-.182l.154.2a.664.664,0,0,1-.524.225" transform="translate(-52.124 -94.881)" fill="#5f5e5e"/><path d="M96.687,97.429V95.71l.323-.05v1.769Zm.16-2.033a.226.226,0,1,1,.228-.229.229.229,0,0,1-.228.229" transform="translate(-52.101 -94.897)" fill="#5f5e5e"/><path d="M98.38,95.991a.31.31,0,0,0-.247-.123c-.236,0-.356.2-.356.511h.709a.646.646,0,0,0-.1-.388m-.607.624v.037a.654.654,0,0,0,.072.345.445.445,0,0,0,.391.207.615.615,0,0,0,.418-.166l.118.189a.861.861,0,0,1-.588.221c-.473,0-.762-.35-.762-.914a.96.96,0,0,1,.2-.67.632.632,0,0,1,.514-.239.615.615,0,0,1,.463.189.974.974,0,0,1,.208.746v.056Z" transform="translate(-52.086 -94.878)" fill="#5f5e5e"/><path d="M100.2,97.411V96.243c0-.156-.012-.21-.054-.265a.208.208,0,0,0-.174-.068.682.682,0,0,0-.422.221v1.281h-.309V96.123a.946.946,0,0,0-.066-.41l.3-.086a.582.582,0,0,1,.056.267,1.838,1.838,0,0,1,.222-.168.636.636,0,0,1,.317-.086.425.425,0,0,1,.4.243.575.575,0,0,1,.042.22v1.307Z" transform="translate(-52.058 -94.878)" fill="#5f5e5e"/><path d="M101.623,97.447a.627.627,0,0,1-.548-.259,1.068,1.068,0,0,1-.163-.626.952.952,0,0,1,.284-.762.658.658,0,0,1,.9.008l-.162.217a.408.408,0,0,0-.3-.134.325.325,0,0,0-.3.186,1.218,1.218,0,0,0-.082.529.709.709,0,0,0,.136.494.317.317,0,0,0,.245.107.473.473,0,0,0,.354-.182l.153.2a.664.664,0,0,1-.524.225" transform="translate(-52.025 -94.878)" fill="#5f5e5e"/><path d="M103.331,95.991a.3.3,0,0,0-.245-.123c-.239,0-.358.2-.358.511h.709a.632.632,0,0,0-.106-.388m-.606.624v.037A.644.644,0,0,0,102.8,97a.443.443,0,0,0,.39.207.615.615,0,0,0,.419-.166l.118.189a.858.858,0,0,1-.588.221c-.473,0-.763-.35-.763-.914a.951.951,0,0,1,.206-.67.626.626,0,0,1,.513-.239.612.612,0,0,1,.462.189.978.978,0,0,1,.208.746v.056Z" transform="translate(-52 -94.878)" fill="#5f5e5e"/><path d="M105.553,95.358a.274.274,0,0,0-.3.292.593.593,0,0,0,.278.418c.21-.1.316-.229.316-.4a.29.29,0,0,0-.3-.307m-.132,1.026a.484.484,0,0,0-.3.44c0,.241.172.4.473.4a.588.588,0,0,0,.473-.2Zm1.023,1.024-.2-.2a.881.881,0,0,1-.662.259c-.535,0-.8-.277-.8-.642,0-.312.192-.46.47-.6a.662.662,0,0,1-.317-.533.571.571,0,0,1,.619-.55c.352,0,.64.2.64.53,0,.287-.242.454-.48.567l.507.512a1.344,1.344,0,0,0,.066-.468h.256a1.4,1.4,0,0,1-.116.679l.446.452Z" transform="translate(-51.961 -94.883)" fill="#5f5e5e"/></g><path d="M108.952,95.318h-.608v2.1h-.324v-2.1h-.61v-.276h1.576Z" transform="translate(-20.747 -74.331)" fill="#5f5e5e"/><g transform="translate(31.169 10.857)"><path d="M109.837,95.991a.306.306,0,0,0-.246-.123c-.236,0-.357.2-.357.511h.709a.639.639,0,0,0-.1-.388m-.606.625v.037a.666.666,0,0,0,.07.345.447.447,0,0,0,.392.207.615.615,0,0,0,.419-.166l.118.189a.861.861,0,0,1-.588.221c-.473,0-.763-.35-.763-.914a.955.955,0,0,1,.2-.67.631.631,0,0,1,.516-.239.615.615,0,0,1,.462.189.983.983,0,0,1,.208.746v.056Z" transform="translate(-51.888 -85.178)" fill="#5f5e5e"/><path d="M111.3,97.447a.626.626,0,0,1-.548-.259,1.068,1.068,0,0,1-.163-.626.952.952,0,0,1,.284-.762.658.658,0,0,1,.9.008l-.162.217a.408.408,0,0,0-.3-.134.323.323,0,0,0-.3.186,1.233,1.233,0,0,0-.082.529.706.706,0,0,0,.136.494.315.315,0,0,0,.244.107.476.476,0,0,0,.355-.182l.154.2a.664.664,0,0,1-.524.225" transform="translate(-51.859 -85.179)" fill="#5f5e5e"/><path d="M113.183,97.423V96.234a.378.378,0,0,0-.058-.239.264.264,0,0,0-.186-.066.649.649,0,0,0-.453.251v1.243h-.317v-2.1a1.492,1.492,0,0,0-.036-.362l.316-.068a1.733,1.733,0,0,1,.038.4v.388c0,.06,0,.142-.01.231a1.256,1.256,0,0,1,.18-.142.656.656,0,0,1,.372-.115.431.431,0,0,1,.425.258.682.682,0,0,1,.035.28v1.229Z" transform="translate(-51.836 -85.191)" fill="#5f5e5e"/><path d="M114.959,97.411V96.243c0-.156-.014-.21-.056-.265a.2.2,0,0,0-.172-.068.677.677,0,0,0-.422.221v1.281H114V96.123a.964.964,0,0,0-.064-.41l.294-.086a.558.558,0,0,1,.058.267,1.688,1.688,0,0,1,.222-.168.636.636,0,0,1,.317-.086.425.425,0,0,1,.4.243.575.575,0,0,1,.04.22v1.307Z" transform="translate(-51.807 -85.178)" fill="#5f5e5e"/><path d="M116.391,95.877c-.272,0-.384.2-.384.633,0,.529.132.7.4.7.236,0,.384-.189.384-.642,0-.534-.153-.7-.4-.7m.007,1.582c-.457,0-.739-.353-.739-.914s.284-.912.732-.912c.5,0,.748.407.748.928,0,.549-.289.9-.741.9" transform="translate(-51.777 -85.179)" fill="#5f5e5e"/><path d="M117.89,97.459a.292.292,0,0,1-.265-.133.441.441,0,0,1-.064-.3V95.459a2.293,2.293,0,0,0-.038-.5l.326-.067a2.168,2.168,0,0,1,.031.492v1.557c0,.184.01.224.044.256a.111.111,0,0,0,.106.023l.055.2a.417.417,0,0,1-.194.041" transform="translate(-51.744 -85.191)" fill="#5f5e5e"/><path d="M119.062,95.877c-.272,0-.385.2-.385.633,0,.529.132.7.4.7.236,0,.385-.189.385-.642,0-.534-.154-.7-.4-.7m.006,1.582c-.456,0-.738-.353-.738-.914s.284-.912.732-.912c.5,0,.748.407.748.928,0,.549-.291.9-.742.9" transform="translate(-51.732 -85.179)" fill="#5f5e5e"/><path d="M120.809,95.881c-.2,0-.308.11-.308.331a.284.284,0,0,0,.311.321c.2,0,.31-.114.31-.329s-.1-.323-.313-.323m.685.045a.441.441,0,0,1-.146-.027.487.487,0,0,1,.121.317.54.54,0,0,1-.611.535c-.106.034-.269.114-.269.189,0,.053.041.087.123.087h.261c.436,0,.615.207.615.476,0,.372-.3.557-.718.557-.476,0-.748-.168-.748-.455a.508.508,0,0,1,.032-.176l.306-.017a.328.328,0,0,0-.031.131c0,.18.146.276.412.276s.419-.113.419-.3c0-.163-.133-.261-.473-.261a3.083,3.083,0,0,1-.321-.017.233.233,0,0,1-.236-.232c0-.161.139-.231.333-.3a.5.5,0,0,1-.4-.5.585.585,0,0,1,.653-.581.872.872,0,0,1,.267.038.963.963,0,0,0,.253.056.445.445,0,0,0,.28-.1l.16.2a.414.414,0,0,1-.284.1" transform="translate(-51.701 -85.178)" fill="#5f5e5e"/><path d="M122.714,97.465a1.182,1.182,0,0,1-.29.531.743.743,0,0,1-.316.149l-.1-.208a.525.525,0,0,0,.3-.2.966.966,0,0,0,.139-.337l-.122.018a4.981,4.981,0,0,0-.163-.577l-.378-1.135.316-.075.325,1.087c.032.108.076.291.1.409h.02c.027-.118.069-.274.116-.425l.3-1.023h.348Z" transform="translate(-51.673 -85.178)" fill="#5f5e5e"/><path d="M67.293,88.778h1.193v-.868H67.293V85.352h-1.15v8.237h.878a18.432,18.432,0,0,0,.274-3.215Z" transform="translate(-52.612 -85.352)" fill="#5f5e5e"/><path d="M65.126,86.144a.4.4,0,0,0-.382-.422H61.122v.819h2.854a4.233,4.233,0,0,1-2.939,4.235v.842a5.159,5.159,0,0,0,4.089-5.474" transform="translate(-52.699 -85.346)" fill="#5f5e5e"/><path d="M89.726,86.144a.4.4,0,0,0-.382-.422h-3.62v.819h2.854a4.236,4.236,0,0,1-2.939,4.235v.842a5.157,5.157,0,0,0,4.087-5.474" transform="translate(-52.284 -85.346)" fill="#5f5e5e"/><path d="M73.254,89.922V86.144a.4.4,0,0,0-.383-.422h-3.73v.819H72.1v3.381Z" transform="translate(-52.562 -85.346)" fill="#5f5e5e"/><path d="M115.1,89.507V86.052a.4.4,0,0,0-.382-.422h-5.408v.819h4.642v3.059" transform="translate(-51.884 -85.347)" fill="#5f5e5e"/><path d="M52.837,88.281V89.1H56v1.254H53.688v.821h4.641v2.359h.878a8.248,8.248,0,0,0,.271-2.142V90.78a.4.4,0,0,0-.382-.423H57.165V89.1h3.167v-.823Z" transform="translate(-52.837 -85.303)" fill="#5f5e5e"/><path d="M59.466,88.5V85.965a.4.4,0,0,0-.383-.425H53.674v.823h4.645V88.5" transform="translate(-52.823 -85.351)" fill="#5f5e5e"/></g><rect width="7.493" height="0.818" transform="translate(72.02 14.26)" fill="#5f5e5e"/><g transform="translate(72.616 10.857)"><path d="M96.748,86.835A3.591,3.591,0,0,0,99.9,88.348v-.792c-1.574-.095-2.561-1.032-2.561-2.09v-.114H96.159v.114c0,1.058-.988,2-2.562,2.09v.791a3.593,3.593,0,0,0,3.151-1.513" transform="translate(-93.597 -85.352)" fill="#5f5e5e"/><path d="M93.847,91.407v1.353a.72.72,0,0,0,.681.749h5.2v-.764H95.038v-.6h4.6V90.506a.4.4,0,0,0-.383-.42H93.847v.763h4.6v.558Z" transform="translate(-93.592 -85.272)" fill="#5f5e5e"/><path d="M102.205,90.506v2.245a.721.721,0,0,0,.681.749h4.942v-.82h-4.471V90.506Z" transform="translate(-93.451 -85.265)" fill="#5f5e5e"/></g><path d="M106.553,88.041h-1.98v.865h1.98v2.4H107.7V85.356h-1.148v.89h-1.98v.868h1.98Z" transform="translate(-20.796 -74.495)" fill="#5f5e5e"/><g transform="translate(80.261 10.953)"><path d="M103.328,86.248c.629,0,1.023.607,1.023,1.348s-.393,1.352-1.023,1.352-1.022-.607-1.022-1.352.391-1.348,1.022-1.348m0,3.5a2.152,2.152,0,1,0-2.215-2.153,2.084,2.084,0,0,0,2.215,2.153" transform="translate(-101.112 -85.446)" fill="#5f5e5e"/></g><path d="M83.83,87.749h1.191v-.868H83.83V85.352H82.682v4.72H83.83Z" transform="translate(-21.165 -74.494)" fill="#5f5e5e"/><g transform="translate(55.938 10.672)"><path d="M79.664,86.844a1.087,1.087,0,1,1-.936,1.08.96.96,0,0,1,.936-1.08m-2.127,1.08a2.145,2.145,0,0,0,4.255,0,1.5,1.5,0,0,0-.549-1.217h.891v-.823H80.27V85.17H79.061v.714H77.195v.823h.891a1.509,1.509,0,0,0-.55,1.217" transform="translate(-77.195 -85.17)" fill="#5f5e5e"/></g><rect width="1.157" height="1.089" transform="translate(75.189 14.821)" fill="#5f5e5e"/><g transform="translate(0.001)"><path d="M74.268,93.589h.877a18.579,18.579,0,0,0,.271-3.215V88.838H76.61v-.869H75.417V85.352H74.268v5.6a4.588,4.588,0,0,1-1.535.224H71.209V88.723H70.051v2.454H68.723V92h4.01a4.186,4.186,0,0,0,1.535-.26Z" transform="translate(-21.401 -74.495)" fill="#5f5e5e"/><path d="M82.756,93.5h.875a8.192,8.192,0,0,0,.274-2.142v-.524a.4.4,0,0,0-.382-.422H78.284v.823h4.472Z" transform="translate(-21.24 -74.409)" fill="#5f5e5e"/><path d="M90.839,93.589h.88a18.51,18.51,0,0,0,.272-3.215V85.352H90.839Z" transform="translate(-21.028 -74.495)" fill="#5f5e5e"/><path d="M118.18,88.2c0-.671.358-1.166.937-1.166s.937.5.937,1.166-.359,1.17-.937,1.17-.937-.5-.937-1.17m4.068-2.847v5.6a4.581,4.581,0,0,1-1.533.227h-1.021V90.106a1.881,1.881,0,0,0,1.55-1.9,1.617,1.617,0,0,0-.573-1.31h.914v-.82H119.72v-.9h-1.209v.9h-1.865v.82h.914a1.625,1.625,0,0,0-.572,1.31,1.879,1.879,0,0,0,1.55,1.9v1.077h-1.953V92h4.131a4.123,4.123,0,0,0,1.533-.259v1.851h.876a18.444,18.444,0,0,0,.274-3.215V85.355Z" transform="translate(-20.593 -74.498)" fill="#5f5e5e"/><path d="M112.523,93.52a8.219,8.219,0,0,0,.272-2.142V90.233h3.167v-.82h-7.492v.821h3.167V93.52Z" transform="translate(-20.731 -74.426)" fill="#5f5e5e"/><path d="M47.2,87.016V85.394H44.463V83.058H42.325v2.336H40.878v1.622h1.461V92.3c0,2.054,1.116,3.126,3.316,3.126a9.867,9.867,0,0,0,1.527-.168V93.648c-1.284.189-2.089.047-2.467-.423a1.394,1.394,0,0,1-.251-.92V87.016Z" transform="translate(-21.871 -74.533)" fill="#1a1311"/><path d="M31.963,94.828a12.113,12.113,0,0,0,3.441.564c1.977,0,4.173-.355,4.173-2.739,0-1.736-1.135-2.306-2.793-3.068-1.408-.649-2.406-.838-2.406-1.74,0-.868,1.006-.891,1.8-.891a12.368,12.368,0,0,1,2.9.42v-1.74a11.586,11.586,0,0,0-3.239-.406c-1.626,0-3.516.453-3.668,2.316-.142,1.757.8,2.491,2.905,3.336,1.384.558,2.255.877,2.255,1.733,0,.938-.868,1.011-2.092,1.011a12.33,12.33,0,0,1-3.274-.642Z" transform="translate(-22.022 -74.495)" fill="#1a1311"/><path d="M30.409,88.6c0-2.8-2.4-3.39-4.421-3.39a18.071,18.071,0,0,0-3.8.551V95.21h2.124v-8.03l.075-.014a8.048,8.048,0,0,1,1.745-.225c1.429,0,2.154.642,2.154,1.9V95.21h2.124Z" transform="translate(-22.187 -74.497)" fill="#1a1311"/><path d="M48.842,74.675a2.894,2.894,0,0,0-1.741.583,3,3,0,0,1,0,4.775,2.9,2.9,0,0,0,1.742.584,2.97,2.97,0,1,0,0-5.94" transform="translate(-21.767 -74.675)" fill="#db1966"/><path d="M46.119,77.644A2.981,2.981,0,0,1,47.3,75.258a2.893,2.893,0,0,0-1.743-.583H34.838a2.97,2.97,0,1,0,0,5.94H45.56a2.893,2.893,0,0,0,1.743-.586,2.978,2.978,0,0,1-1.182-2.386" transform="translate(-21.972 -74.675)" fill="#0089d2"/><path d="M48.3,77.638a2.978,2.978,0,0,0-1.185-2.386,3,3,0,0,0,0,4.775A2.978,2.978,0,0,0,48.3,77.638" transform="translate(-21.784 -74.667)" fill="#003078"/></g></g><g transform="translate(0 6.5)"><path d="M9.646,10.354l-10-10L.354-.354l10,10Z" transform="translate(50.5 85.5)" fill="#a5a5a5"/><path d="M.354,10.354l-.707-.707,10-10,.707.707Z" transform="translate(50.5 85.5)" fill="#a5a5a5"/></g></g></g></svg>