<svg xmlns="http://www.w3.org/2000/svg" width="548.856" height="47.096" viewBox="0 0 548.856 47.096"><g transform="translate(-1803.67 1132.336)"><g transform="translate(1119 -1389)"><path d="M-269.566-11.484v-.88h3.652v-1.408h-3.652v-2.86h-1.628v2.86h-3.7v1.408h3.7v.88c0,3.146-1.54,6.468-4.136,7.964l1.012,1.276a9.5,9.5,0,0,0,3.96-5.7,8.951,8.951,0,0,0,3.96,5.3l1.012-1.276A8.551,8.551,0,0,1-269.566-11.484ZM-264.594.792h1.584V-8.184h2.64V1.76h1.628v-19.1h-1.628v7.7h-2.64v-7.3h-1.584Zm25.828-8.712h-4.312v-2.706c1.5-.594,2.354-1.562,2.332-2.838.022-2.222-2.574-3.52-6.732-3.52-4.18,0-6.754,1.3-6.776,3.52.022,1.3.88,2.266,2.42,2.86V-7.92h-4.312v1.408h17.38Zm-15.312,6.248c.022,2.178,2.464,3.366,6.6,3.388,4.114-.022,6.578-1.21,6.6-3.388-.022-2.178-2.486-3.388-6.6-3.388C-251.614-5.06-254.056-3.85-254.078-1.672Zm1.584-11.792c0-1.364,1.914-2.2,5.016-2.2s5.038.836,5.016,2.2c.022,1.408-1.914,2.222-5.016,2.2C-250.58-11.242-252.494-12.056-252.494-13.464Zm.132,11.792c0-1.3,1.826-2.068,4.884-2.068,3.036,0,4.884.77,4.884,2.068S-244.442.4-247.478.4C-250.536.4-252.362-.374-252.362-1.672Zm2.2-6.248v-2.244a14.243,14.243,0,0,0,2.684.22,14.732,14.732,0,0,0,2.728-.22V-7.92Zm28.82-9.416h-1.672v4.972h-3.872v1.408h3.872v4.972h1.672ZM-237.094-7.48l.88,1.32a8.265,8.265,0,0,0,4.884-4.862,7.968,7.968,0,0,0,4.664,4.334l.88-1.364c-2.816-.946-4.73-3.322-4.708-5.808v-.7h4.268v-1.408h-10.3v1.408h4.312v.7A7.108,7.108,0,0,1-237.094-7.48Zm3.036,5.676c-.022,2.222,2.42,3.52,6.38,3.52,3.982,0,6.424-1.3,6.424-3.52,0-2.266-2.442-3.564-6.424-3.564C-231.638-5.368-234.08-4.07-234.058-1.8Zm1.672,0c-.022-1.408,1.8-2.244,4.708-2.244,2.926,0,4.752.836,4.752,2.244,0,1.364-1.826,2.2-4.752,2.2C-230.582.4-232.408-.44-232.386-1.8Zm31.724-.308h-7.964V-6.248h5.808v-9.768h-1.672v3.476h-9.9v-3.476h-1.672v9.768h5.764v4.136h-7.832V-.7h17.468Zm-13.728-5.5v-3.564h9.9v3.564Zm32.692-.88h-17.468v1.32H-181.7Zm-15.356,4.136h11.528v1.628H-197.01V1.5h13.772V.264h-12.1V-1.584h11.484V-5.632h-13.2Zm.088-11.22h11.352v1.584h-11.264V-9.9h13.288v-1.232h-11.616V-12.8h11.264v-3.96h-13.024Zm39.776,9.768h-17.468V-4.4h7.876V1.76h1.672V-4.4h7.92Zm-15.136-1.936h13.156V-9.152h-11.484v-2.332h10.824v-1.364h-10.824v-2.244h11.308v-1.364h-12.98Zm32.516-9.592h-1.672v3.08h-4.488v-1.628h-8.756v8.448h8.756V-9.064h4.488v3.036h1.672ZM-153.054-8.8v-5.72h5.456V-8.8Zm.528,6.952c-.022,2.266,2.42,3.542,6.38,3.564,3.982-.022,6.424-1.3,6.424-3.564,0-2.31-2.442-3.63-6.424-3.652C-150.106-5.478-152.548-4.158-152.526-1.848Zm1.672,0c-.022-1.474,1.8-2.31,4.708-2.332,2.926.022,4.752.858,4.752,2.332,0,1.364-1.826,2.222-4.752,2.2C-149.05.374-150.876-.484-150.854-1.848Zm4.884-8.624v-2.376h4.488v2.376Zm24.156-6.864h-1.672V1.76h1.672V-8.052h3.168V-9.46h-3.168Zm-14.916,4.444h11.352V-14.3h-4.752v-2.816H-131.8V-14.3h-4.928Zm1.1,5.984a4.315,4.315,0,0,0,4.664,4.356,4.364,4.364,0,0,0,4.708-4.356,4.4,4.4,0,0,0-4.708-4.4A4.348,4.348,0,0,0-135.63-6.908Zm1.628,0A2.9,2.9,0,0,1-130.966-9.9a2.936,2.936,0,0,1,3.08,2.992,2.9,2.9,0,0,1-3.08,2.948A2.865,2.865,0,0,1-134-6.908Zm32.736-10.428h-1.584V1.76h1.584ZM-117.59-3.608l.968,1.232a14.572,14.572,0,0,0,5.7-5.764h4.026V.792h1.628V-16.852H-106.9V-9.5h-3.41a15.308,15.308,0,0,0,.946-5.412h-7.392v1.408h5.72C-111.342-9.5-113.432-6.072-117.59-3.608ZM-76.8-17.336h-1.584V1.76H-76.8ZM-93.346-3.344l1.1,1.276a10.134,10.134,0,0,0,3.96-6.072,9.158,9.158,0,0,0,3.872,5.588l1.056-1.232C-86-5.3-87.494-8.6-87.494-11.924v-1.76h3.476v-1.408h-8.8v1.408h3.7v1.76C-89.122-8.426-90.662-4.928-93.346-3.344Zm7.876-5.72h3.256V.748h1.584V-16.9h-1.584v6.424H-85.47ZM-65.45-5.28c-4.092,0-6.688,1.276-6.688,3.52,0,2.178,2.6,3.454,6.688,3.476,4.092-.022,6.688-1.3,6.688-3.476C-58.762-4-61.358-5.28-65.45-5.28Zm-8.624-1.8h17.38V-8.448H-65.23v-3.7h-1.628v3.7h-7.216ZM-72.006-15h11.44v.264a18.886,18.886,0,0,1-.528,4.884l1.628.176a18.266,18.266,0,0,0,.572-5.06v-1.628H-72.006Zm1.54,13.244c0-1.386,1.958-2.222,5.016-2.244,3.036.022,4.994.858,5.016,2.244-.022,1.3-1.98,2.134-5.016,2.112C-68.508.374-70.466-.462-70.466-1.76Zm30.184-15.576h-1.672V1.76h1.672V-8.052h3.168V-9.46h-3.168ZM-55.2-12.892h11.352V-14.3H-48.6v-2.816H-50.27V-14.3H-55.2Zm1.1,5.984a4.315,4.315,0,0,0,4.664,4.356,4.364,4.364,0,0,0,4.708-4.356,4.4,4.4,0,0,0-4.708-4.4A4.348,4.348,0,0,0-54.1-6.908Zm1.628,0A2.9,2.9,0,0,1-49.434-9.9a2.936,2.936,0,0,1,3.08,2.992,2.9,2.9,0,0,1-3.08,2.948A2.865,2.865,0,0,1-52.47-6.908ZM-20.746-15.4H-34.21v1.364h11.748v.528a41.235,41.235,0,0,1-.7,8.58l1.672.22a44.685,44.685,0,0,0,.748-8.8ZM-36.058-.968h17.38V-2.376h-8.888V-9.2h-1.672v6.82h-6.82Zm22.132-.484h-2.068L-17.182,4.4H-15.6ZM.946-11.484v-2.508H5.478V-15.4H-5.258v1.408H-.77v2.508a9.923,9.923,0,0,1-5.1,8.228l.968,1.32A10.755,10.755,0,0,0,.11-8.25,9.863,9.863,0,0,0,5.17-2.42l.924-1.32A9.007,9.007,0,0,1,.946-11.484ZM8.162,1.76H9.834v-19.1H8.162Zm20.68-19.1H27.17V-6.028H23.21V-4.8h3.96v1.98h1.672ZM13-8.492l.22,1.364c1.606,0,3.476,0,5.412-.066v3.718h1.672V-7.282a45.369,45.369,0,0,0,5.236-.55l-.088-1.232A107.6,107.6,0,0,1,13-8.492Zm1.54-4.752c0,2.046,1.914,3.322,4.752,3.344C22.088-9.922,24-11.2,24-13.244c0-2-1.914-3.322-4.708-3.3C16.456-16.566,14.542-15.246,14.542-13.244ZM15.774,1.32H29.326V-.088H17.446v-4.18H15.774Zm.4-14.564c-.022-1.21,1.254-2.046,3.124-2.024,1.8-.022,3.08.814,3.124,2.024-.044,1.254-1.32,2.068-3.124,2.068C17.424-11.176,16.148-11.99,16.17-13.244Zm22.4,1.76v-2.508h4.312V-15.4H32.494v1.408h4.444v2.508A10.009,10.009,0,0,1,31.79-3.256L32.8-1.936a10.958,10.958,0,0,0,4.972-6.358,10.043,10.043,0,0,0,4.8,5.874l.968-1.32A9.288,9.288,0,0,1,38.566-11.484ZM45.21,1.76h1.716V-8.184h3.168V-9.636H46.926v-7.7H45.21ZM68.574-8.492H51.106v1.32H68.574ZM53.218-4.356H64.746v1.628H53.262V1.5H67.034V.264h-12.1V-1.584H66.418V-5.632h-13.2Zm.088-11.22H64.658v1.584H53.394V-9.9H66.682v-1.232H55.066V-12.8H66.33v-3.96H53.306Zm37.752,3.564H79.706v-4.972H78.034v6.38H91.058ZM75.658-7H93.082V-8.4H75.658ZM77.726-1.8c.022,2.222,2.486,3.454,6.6,3.476C88.44,1.65,90.9.418,90.926-1.8,90.9-4.026,88.44-5.28,84.326-5.28S77.748-4.026,77.726-1.8Zm1.716,0c0-1.364,1.826-2.112,4.884-2.112,3.036,0,4.884.748,4.884,2.112C89.21-.462,87.362.33,84.326.352,81.268.33,79.442-.462,79.442-1.8Zm24.244-14.388H95.414v1.364h6.6v2.684H95.458v5.676h1.364a47.9,47.9,0,0,0,8.184-.484L104.83-8.36a37.281,37.281,0,0,1-7.7.484v-2.948h6.556ZM97.614-3.212H108.79V1.76h1.672V-4.576H97.614Zm7.348-5.94h3.828v3.564h1.672V-17.336H108.79v2.86h-3.828v1.364h3.828v2.552h-3.828Zm31.592.748h-17.38V-7.04h7.832v2.046c-3.63.176-5.742,1.342-5.764,3.366.022,2.134,2.464,3.322,6.6,3.344,4.114-.022,6.578-1.21,6.6-3.344-.022-2.024-2.156-3.19-5.764-3.366V-7.04h7.876Zm-16.412-2.508.616,1.32c3.124-.374,6.05-1.76,7.106-3.894,1.056,2.134,3.982,3.52,7.106,3.894l.616-1.32c-3.366-.352-6.512-2.024-6.644-4.18h6.072v-1.364H120.758v1.364h6.028C126.632-12.936,123.442-11.264,120.142-10.912Zm2.816,9.284c0-1.3,1.826-2.046,4.884-2.068,3.036.022,4.884.77,4.884,2.068,0,1.254-1.848,2.024-4.884,2.024C124.784.4,122.958-.374,122.958-1.628Zm30.976-15.708h-1.672V-6.468h1.672Zm-15.62,9.02.88,1.364a8.444,8.444,0,0,0,4.884-4.862,8.041,8.041,0,0,0,4.84,4.466l.88-1.276c-2.816-1.012-4.884-3.388-4.884-6.116v-1.848H143.2v1.848A6.989,6.989,0,0,1,138.314-8.316ZM141.526,1.5h12.408V-5.412H141.526ZM143.2.088V-4.048h9.064V.088ZM165.858-16.1c-3.982,0-6.974,2.09-6.952,5.236-.022,3.19,2.97,5.258,6.952,5.236,4,.022,7-2.046,7-5.236C172.854-14.014,169.862-16.1,165.858-16.1ZM157.19-.792h17.468V-2.2H157.19Zm3.3-10.076c0-2.288,2.31-3.894,5.368-3.872,3.08-.022,5.368,1.584,5.368,3.872,0,2.31-2.288,3.872-5.368,3.872C162.8-7,160.49-8.558,160.49-10.868Zm33.176,8.8H185.7V-5.632h6.2V-7.04h-11.88v-3.124h11.44v-5.764H178.31v1.408h11.484v2.992h-11.44v5.9h5.676v3.564H176.2V-.616h17.468ZM211.4-15.928h-10.12v1.408h1.936v6.358l-2.464.022.176,1.408A74.493,74.493,0,0,0,212.1-7.348l-.044-1.276c-.836.11-1.716.176-2.6.242V-14.52H211.4ZM203.786-1.716c-.022,2.156,2.4,3.41,6.38,3.432,4-.022,6.424-1.276,6.424-3.432,0-2.2-2.42-3.454-6.424-3.432C206.184-5.17,203.764-3.916,203.786-1.716Zm1.056-6.468V-14.52h2.992v6.226C206.822-8.228,205.81-8.206,204.842-8.184Zm.616,6.468c-.022-1.342,1.782-2.134,4.708-2.112,2.948-.022,4.752.77,4.752,2.112,0,1.3-1.8,2.09-4.752,2.068C207.24.374,205.436-.418,205.458-1.716Zm6.16-7.392h3.212v3.564H216.5V-17.336H214.83V-13.9h-3.212v1.364h3.212v2.024h-3.212Zm22.88-8.228h-1.716V1.716H234.5V-8.14h3.08V-9.592H234.5ZM219.8-3.212l.968,1.32c6.226-3.08,8.756-8.008,8.756-13.42h-8.8V-13.9h7.084C227.458-9.35,224.752-5.676,219.8-3.212Zm33.7-14.124h-1.672V1.76h1.672V-8.052h3.168V-9.46h-3.168ZM238.59-12.892h11.352V-14.3H245.19v-2.816h-1.672V-14.3H238.59Zm1.1,5.984a4.315,4.315,0,0,0,4.664,4.356,4.364,4.364,0,0,0,4.708-4.356,4.4,4.4,0,0,0-4.708-4.4A4.348,4.348,0,0,0,239.69-6.908Zm1.628,0A2.9,2.9,0,0,1,244.354-9.9a2.936,2.936,0,0,1,3.08,2.992,2.9,2.9,0,0,1-3.08,2.948A2.865,2.865,0,0,1,241.318-6.908Zm25.872-8.536h-8.712V-3.08h8.712V-6.116h4.664V1.76h1.672v-19.1h-1.672v4.576H267.19Zm-7.04,11v-9.68h5.412v9.68Zm7.04-3.036v-3.872h4.664V-7.48ZM-231.462,11.9H-244.4V13.3h11.264v.264a27.919,27.919,0,0,1-.594,6.512h-12.826v1.408h7.788V29.76h1.716V21.488h7.876V20.08h-2.838a30.09,30.09,0,0,0,.55-6.512Zm10.78,2.288v-.836h4.4V11.984h-10.56v1.364h4.444v.836a6.916,6.916,0,0,1-4.884,6.2l.88,1.32A8.118,8.118,0,0,0-221.5,17a7.98,7.98,0,0,0,4.862,4.312l.836-1.276C-218.636,19.09-220.682,16.758-220.682,14.184Zm-3.96,10.428h11.176V29.76h1.672V23.2h-12.848Zm11.176-2.42h1.672V10.664h-1.672Zm11.352-5.676V14.008h4.312V12.6h-10.384v1.408h4.444v2.508a10.009,10.009,0,0,1-5.148,8.228l1.012,1.32a10.958,10.958,0,0,0,4.972-6.358,10.043,10.043,0,0,0,4.8,5.874l.968-1.32A9.288,9.288,0,0,1-202.114,16.516Zm6.644,13.244h1.716V19.816h3.168V18.364h-3.168v-7.7h-1.716ZM-183.81,11.9c-2.97.022-5.082,1.826-5.06,4.488a4.371,4.371,0,0,0,4.224,4.4v3.322c-1.848.044-3.608.066-5.148.066l.308,1.408a67.539,67.539,0,0,0,11.924-.7l-.132-1.276c-1.672.22-3.454.352-5.236.44V20.784a4.432,4.432,0,0,0,4.224-4.4C-178.706,13.722-180.862,11.918-183.81,11.9Zm-3.432,4.488a3.123,3.123,0,0,1,3.432-3.036,3.175,3.175,0,0,1,3.476,3.036,3.188,3.188,0,0,1-3.476,3.036A3.136,3.136,0,0,1-187.242,16.384Zm10.78,13.376h1.672V19.992h3.124V18.54h-3.124V10.664h-1.672Zm27.192-19.1h-1.672v19.1h1.672ZM-164.8,24.788l.924,1.364c6.4-3.08,8.954-7.942,8.976-13.42h-9.02V14.1h7.3C-156.992,18.65-159.632,22.324-164.8,24.788Zm24.024-13.244c-2.9-.022-4.972,1.8-4.928,4.4-.044,2.618,2.024,4.422,4.928,4.444,2.6-.022,4.554-1.518,4.884-3.784h4v4.268h1.672V10.664h-1.672V15.24h-4C-136.246,13.018-138.2,11.522-140.778,11.544Zm-3.344,4.4a3.051,3.051,0,0,1,3.344-2.992,3.013,3.013,0,0,1,3.3,2.992,3.025,3.025,0,0,1-3.3,2.992A3.064,3.064,0,0,1-144.122,15.944Zm1.628,13.552h12.276V21.84h-1.672v2.42h-8.932V21.84h-1.672Zm1.672-1.408V25.624h8.932v2.464ZM-111.3,10.664h-1.672v19.1h1.672Zm-15,8.1c0,4.092,2.024,6.666,4.884,6.688,2.816-.022,4.862-2.6,4.884-6.688-.022-4.048-2.068-6.622-4.884-6.644C-124.278,12.138-126.3,14.712-126.3,18.76Zm1.628,0c0-3.08,1.32-5.126,3.256-5.148,1.892.022,3.212,2.068,3.212,5.148,0,3.124-1.32,5.17-3.212,5.148C-123.354,23.93-124.674,21.884-124.674,18.76Zm37.092-8.1h-1.672V22.148h1.672V17.176h2.86V15.724h-2.86Zm-14.872,3.388H-91.1V12.688h-4.84v-2.2h-1.672v2.2h-4.84Zm1.1,4.356c-.044,2.09,1.8,3.432,4.576,3.432,2.75,0,4.576-1.342,4.576-3.432,0-2.024-1.826-3.388-4.576-3.388C-99.55,15.02-101.4,16.384-101.354,18.408Zm1.584,0c0-1.232,1.188-2.068,2.992-2.068,1.782,0,2.992.836,2.992,2.068,0,1.32-1.21,2.112-2.992,2.112C-98.582,20.52-99.77,19.728-99.77,18.408Zm.132,11.088h12.056V23.248H-99.638Zm1.672-1.408V24.612h8.712v3.476Zm19.184-15.136h-4.312V14.36h2.86c-.154,3.52-.836,7.062-3.212,10.076l1.32.748C-79.354,21.488-78.782,16.978-78.782,12.952Zm-.4,12.716,1.32.792a16.312,16.312,0,0,0,2.838-6.908h2.75v9.24h1.628V11.148H-72.27v7H-74.8a39.866,39.866,0,0,0,.286-5.192h-3.652V14.36h2.178C-76.076,17.924-76.538,22.3-79.178,25.668Zm10.472,4.092h1.628v-19.1h-1.628Zm18.348-7.04c-4.092,0-6.688,1.276-6.688,3.52,0,2.178,2.6,3.454,6.688,3.476,4.092-.022,6.688-1.3,6.688-3.476C-43.67,24-46.266,22.72-50.358,22.72Zm-8.624-1.8H-41.6V19.552h-8.536v-3.7h-1.628v3.7h-7.216ZM-56.914,13h11.44v.264A18.886,18.886,0,0,1-46,18.144l1.628.176a18.266,18.266,0,0,0,.572-5.06V11.632H-56.914Zm1.54,13.244c0-1.386,1.958-2.222,5.016-2.244,3.036.022,4.994.858,5.016,2.244-.022,1.3-1.98,2.134-5.016,2.112C-53.416,28.374-55.374,27.538-55.374,26.24Zm30.316-15.576H-26.73V21.488h1.672V16.736h2.86V15.328h-2.86Zm-14.96,9.68.7,1.32c5.654-1.518,9.02-4.972,9.02-9.768h-8.844V13.3h7.04C-32.45,16.516-35.31,19.068-40.018,20.344Zm2.86,9.108h12.1V22.368h-12.1Zm1.672-1.364V23.776h8.756v4.312ZM-6.05,10.576H-7.722v10.56H-6.05V16.6h2.9V15.24h-2.9Zm-14.872,3.168H-9.57V12.38h-4.84V10.444h-1.672V12.38h-4.84Zm1.1,4c-.044,1.936,1.782,3.1,4.576,3.124,2.772-.022,4.576-1.188,4.576-3.124,0-1.958-1.8-3.146-4.576-3.168C-18.04,14.6-19.866,15.79-19.822,17.748Zm1.584,5.676H-7.722V25.14H-18.194v4.4H-5.346V28.22H-16.522V26.372H-6.05V22.148H-18.238Zm0-5.676c0-1.166,1.166-1.892,2.992-1.892,1.8,0,2.992.726,2.992,1.892,0,1.144-1.188,1.848-2.992,1.848C-17.072,19.6-18.238,18.892-18.238,17.748ZM13.09,12.424v-1.1H11.374v1.1c0,2.728-3.5,5.016-6.952,5.5l.7,1.364c2.97-.484,5.9-2.112,7.128-4.466,1.232,2.332,4.158,3.982,7.128,4.466l.7-1.364C16.632,17.44,13.112,15.108,13.09,12.424ZM3.542,22.808h7.832V29.76H13V22.808h7.92V21.4H3.542Zm30.932.66V22.412H32.846v1.056a5.487,5.487,0,0,1-3.872,4.752l.836,1.232a6.641,6.641,0,0,0,3.85-3.52,6.079,6.079,0,0,0,3.63,3.7,6.569,6.569,0,0,0,3.5-3.762,6.382,6.382,0,0,0,3.894,3.586l.88-1.232a5.3,5.3,0,0,1-3.916-4.752V22.412H40.018v1.056A5.747,5.747,0,0,1,37.2,28,5.383,5.383,0,0,1,34.474,23.468ZM28.49,16.252c-.022,2.618,2.09,4.422,5.016,4.444,2.882-.022,4.972-1.826,4.972-4.444,0-2.662-2.09-4.488-4.972-4.488C30.58,11.764,28.468,13.59,28.49,16.252Zm1.628,0a3.085,3.085,0,0,1,3.388-3.036,3.071,3.071,0,0,1,3.344,3.036,3.109,3.109,0,0,1-3.344,3.036A3.123,3.123,0,0,1,30.118,16.252ZM42.13,21.576H43.8V10.664H42.13Zm20.328-5.148h-11.4v-5.06H49.39v6.424H62.458ZM47.014,21.752H64.482V20.388H47.014ZM49.3,29.276H62.59V27.868H50.974V23.732H49.3ZM87.318,10.664H85.646V24.612h1.672ZM72.006,16.692a5.006,5.006,0,0,0,9.988,0,4.7,4.7,0,0,0-4.972-4.708C74.14,12.006,71.984,13.92,72.006,16.692Zm1.628,0A3.37,3.37,0,1,1,77.022,19.9,3.193,3.193,0,0,1,73.634,16.692ZM75,29.32H87.934V27.912H76.67V23.2H75Zm31.988-18.656h-1.628v7.7h-2.64v-7.3h-1.584V28.792h1.584V19.816h2.64V29.76h1.628ZM90.354,24.524,91.41,25.8a9.161,9.161,0,0,0,4.026-5.9,8.471,8.471,0,0,0,3.938,5.236l1.012-1.32c-2.728-1.386-4.18-4.466-4.18-7.964v-1.54H99.77V12.908H90.794v1.408h3.784v1.54C94.578,19.728,93.1,22.984,90.354,24.524Zm30.316-8.008v-.88h3.652V14.228H120.67v-2.86h-1.628v2.86h-3.7v1.408h3.7v.88c0,3.146-1.54,6.468-4.136,7.964l1.012,1.276a9.5,9.5,0,0,0,3.96-5.7,8.951,8.951,0,0,0,3.96,5.3l1.012-1.276A8.551,8.551,0,0,1,120.67,16.516Zm4.972,12.276h1.584V19.816h2.64V29.76h1.628v-19.1h-1.628v7.7h-2.64v-7.3h-1.584ZM151.47,20.08h-4.312V17.374c1.5-.594,2.354-1.562,2.332-2.838.022-2.222-2.574-3.52-6.732-3.52-4.18,0-6.754,1.3-6.776,3.52.022,1.3.88,2.266,2.42,2.86V20.08H134.09v1.408h17.38Zm-15.312,6.248c.022,2.178,2.464,3.366,6.6,3.388,4.114-.022,6.578-1.21,6.6-3.388-.022-2.178-2.486-3.388-6.6-3.388C138.622,22.94,136.18,24.15,136.158,26.328Zm1.584-11.792c0-1.364,1.914-2.2,5.016-2.2s5.038.836,5.016,2.2c.022,1.408-1.914,2.222-5.016,2.2C139.656,16.758,137.742,15.944,137.742,14.536Zm.132,11.792c0-1.3,1.826-2.068,4.884-2.068,3.036,0,4.884.77,4.884,2.068s-1.848,2.068-4.884,2.068C139.7,28.4,137.874,27.626,137.874,26.328Zm2.2-6.248V17.836a14.243,14.243,0,0,0,2.684.22,14.731,14.731,0,0,0,2.728-.22V20.08ZM161.9,22.632c-3.938.022-6.336,1.32-6.336,3.564,0,2.222,2.4,3.52,6.336,3.52,3.916,0,6.292-1.3,6.292-3.52C168.19,23.952,165.814,22.654,161.9,22.632Zm-8.008-1.98h8.888v-8.8h-1.672v2.9h-5.544v-2.9H153.89Zm1.672-1.364V16.12h5.544v3.168Zm1.672,6.908c0-1.386,1.782-2.2,4.664-2.2s4.642.814,4.664,2.2c-.022,1.342-1.782,2.178-4.664,2.156C159.016,28.374,157.234,27.538,157.234,26.2Zm9.108-4.048h1.672V16.912h2.86V15.46h-2.86v-4.8h-1.672Zm12.5-8.712V11.588h-1.716v1.848a7.162,7.162,0,0,1-4.84,6.556l.88,1.32A8.23,8.23,0,0,0,178,16.428,8.281,8.281,0,0,0,182.842,21l.836-1.364A6.84,6.84,0,0,1,178.838,13.436ZM175.01,24.48h11.176v5.28h1.672V23.116H175.01Zm11.176-2.332h1.672V10.664h-1.672Zm20.68-11.484h-1.672V20.872h1.672Zm-15.312,5.324c-.022,2.574,2.09,4.378,5.016,4.356,2.882.022,4.972-1.782,4.972-4.356,0-2.64-2.09-4.422-4.972-4.4C193.644,11.566,191.532,13.348,191.554,15.988Zm1.628,0a3.389,3.389,0,0,1,6.732,0,3.056,3.056,0,0,1-3.344,2.948C194.59,18.936,193.182,17.7,193.182,15.988ZM194.5,29.5h12.364V21.84h-1.672v2.332h-9.02V21.84H194.5Zm1.672-1.408V25.536h9.02v2.552ZM225.83,10.664h-1.672v19.1h1.672ZM211.354,24.832h1.54a43.721,43.721,0,0,0,9.46-.968l-.22-1.408a43.072,43.072,0,0,1-9.108.88V12.512h-1.672Zm32.56-14.168H242.2v19.1h1.716V19.6h3.168V18.188h-3.168ZM229.966,25.008h1.5a50.3,50.3,0,0,0,9.108-.66l-.22-1.452a44.268,44.268,0,0,1-8.712.66V13.92h7.216V12.512h-8.888Z" transform="translate(960 274)"/></g></g></svg>