<svg xmlns="http://www.w3.org/2000/svg" width="657" height="123" viewBox="0 0 657 123"><g transform="translate(-302.9 -219.04)"><path d="M2.76,2.576h23v-5.06H9.016V-4.968c0-2.162,1.84-3.818,6.808-6.578,6.394-3.5,9.936-7.314,9.936-11.638v-1.242c0-6.21-5.06-9.844-11.5-9.844s-11.5,3.634-11.5,9.844v1.932H9.016v-1.932c0-2.576,1.61-4.784,5.244-4.784S19.5-27,19.5-24.426v1.242c0,2.346-2.852,5.014-7.268,7.222C7.406-13.524,2.76-10.074,2.76-4.968ZM30.82-6.118c0,6.21,5.014,9.844,11.96,9.844S54.74.092,54.74-6.118v-2.76a7.4,7.4,0,0,0-4.692-6.9,7.021,7.021,0,0,0,4.232-6.9v-1.748c0-6.21-5.06-9.844-11.5-9.844s-11.5,3.634-11.5,9.844v1.472h6.256v-1.472c0-2.576,1.564-4.784,5.244-4.784S48.024-27,48.024-24.426v1.794c0,2.668-2.162,4.37-5.244,4.37H39.7v5.06H42.78c3.082,0,5.7,1.7,5.7,4.37v2.714c0,2.576-1.518,4.784-5.7,4.784s-5.7-2.208-5.7-4.784V-7.59H30.82ZM90.114-4.83H96.37V-34.914H90.114v3.358H77.51v4.784h12.6v3.036H77.51v4.784h12.6ZM60.26-11.684H86.434v-4.968H66.516v-17.8H60.26ZM62.33,5.98H97.29V.828h-28.7V-8.28H62.33ZM102.12,4.6h40.94V-.69H126.316V-9.154H140.53V-14.4h-28.7V-28.8H139.84V-34.04H105.57V-9.154h14.214V-.69H102.12Zm55.66-16.882h17.2V-8.74h-5.52c-5.98,0-9.614,2.9-9.614,7.452s3.634,7.452,9.614,7.452h17.572c5.98,0,9.614-2.9,9.614-7.452s-3.634-7.452-9.614-7.452h-5.52v-3.542h17.2V-17.2H157.78Zm2.3-6.348c7.544-.506,14.214-2.576,18.17-6.164,3.956,3.588,10.626,5.658,18.17,6.164v-4.646c-7.36-.506-13.432-3.174-14.536-6.578H195.73V-34.73H160.77v4.876h13.846c-1.15,3.4-7.176,6.072-14.536,6.578Zm9.8,19.826c-2.346,0-3.772-1.058-3.772-2.484s1.426-2.484,3.772-2.484h16.744c2.346,0,3.772,1.058,3.772,2.484S188.968,1.2,186.622,1.2Zm33.672-9.89c7.176-.828,14.214-4.37,18.4-9.844,4.14,5.474,11.224,9.016,18.4,9.844v-5.014c-8.28-1.2-15.18-6.946-15.18-14.9V-34.96h-6.44v6.348c0,7.958-6.9,13.708-15.18,14.9ZM201.48,4.6h40.94V-.69h-17.2V-9.614h-6.532V-.69h-17.2Zm75.394,1.564h6.256V-34.914h-6.256ZM246.1,3.036c13.846-2.3,23.874-15.87,23.874-32.568v-4.232H246.33v5.336h17.3c0,13.018-7.5,23.6-17.526,25.806Zm56.948-17.71c6.808,0,11.132-2.852,12.374-7.314h5.152v8.418h6.256V-34.914h-6.256V-27.6h-5.152c-1.242-4.462-5.566-7.314-12.374-7.314h-1.2c-8.188,0-12.742,4.094-12.742,10.12s4.554,10.12,12.742,10.12ZM292.79,5.98h34.04V-12.19h-6.256v4H299.046v-4H292.79Zm8.694-25.622c-3.68,0-6.118-2.07-6.118-5.152s2.438-5.152,6.118-5.152h1.932c3.68,0,6.118,2.07,6.118,5.152s-2.438,5.152-6.118,5.152ZM299.046,1.012V-3.22h21.528V1.012ZM335.8-12.742h20.24v-5.014H335.8Zm26.22.6h40.94v-4.922h-2.99V-34.73H364.55v5.152h29.164v12.512H362.02ZM365.01,5.98h35.42V.828H371.266V-8.28H365.01Zm40.71-.92h40.94V-.23H429.916V-6.854H444.13V-12.1h-28.7v-6.026H443.21V-34.04H409.17V-28.8h27.784v5.52H409.17V-6.854h14.214V-.23H405.72Zm43.93-1.334A20.775,20.775,0,0,0,462.9-7.038,22.386,22.386,0,0,0,475.41,3.588V-2.07c-6.072-2.576-9.384-9.246-9.384-17.2V-28.52h8.924v-5.244H450.11v5.244h9.43v9.246c0,8.878-3.818,15.456-9.89,17.342Zm30.084,2.438h6.256V-14.628h5.52V-20.24h-5.52V-34.914h-6.256ZM505.08-11.454c13.846-.828,24.15-7.452,24.15-18.814v-4.186H505.31V-29.3h17.48c0,6.854-6.762,11.868-17.71,12.512ZM507.61,5.98h34.96V.828h-28.7V-8.28H507.61ZM535.394-4.83h6.256v-14.9h5.52v-5.612h-5.52v-9.568h-6.256Z" transform="translate(306 254)" fill="#e10992"/><path d="M38.52,8.04c8.64,0,13.98-4.32,13.98-11.22S47.16-14.4,38.52-14.4H19.68C11.04-14.4,5.7-10.08,5.7-3.18S11.04,8.04,19.68,8.04ZM.9-17.04c7.74-1.26,14.34-4.98,18.3-10.68a29.644,29.644,0,0,0,17.76,10.2v-6.54c-7.98-1.56-13.5-7.8-13.5-15.54v-5.64H15v5.64A16.456,16.456,0,0,1,.9-23.58ZM43.14-15.6H51.3V-45.54H43.14v7.44H32.7v6.96H43.14ZM20.22,1.56c-3.9,0-6.36-1.86-6.36-4.74s2.46-4.74,6.36-4.74H37.98c3.9,0,6.36,1.86,6.36,4.74s-2.46,4.74-6.36,4.74ZM98.34,8.04h8.16V-17.88h7.2V-25.2h-7.2V-45.54H98.34ZM82.74-10.14H90.9V-43.86H59.1v6.96H82.74ZM57.6,4.2H95.94V-2.7H76.08V-22.14H67.56V-2.7H57.6Zm73.68-16.8c-8.04,0-12.78,4.02-12.78,10.32s4.74,10.32,12.78,10.32h22.44c8.04,0,12.78-4.02,12.78-10.32S161.76-12.6,153.72-12.6ZM115.8-16.8h53.4v-6.42H143.16v-9.12h-8.52v9.12H115.8Zm3.3-21.78h38.04v12.84h8.16V-45.3H119.1ZM131.82,1.56c-3.12,0-5.16-1.68-5.16-3.84s2.04-3.84,5.16-3.84h21.36c3.12,0,5.16,1.68,5.16,3.84s-2.04,3.84-5.16,3.84ZM207.12-18c9.84,0,15.78-5.22,15.78-13.32s-5.94-13.32-15.78-13.32h-15.3c-9.84,0-15.72,5.22-15.72,13.32S181.98-18,191.82-18ZM183.84,8.04h8.52V-6.42h14.28V8.04h8.52V-6.42H226.2v-6.9H172.8v6.9h11.04Zm7.68-32.88c-4.38,0-7.26-2.7-7.26-6.48s2.88-6.48,7.26-6.48h15.96c4.38,0,7.26,2.7,7.26,6.48s-2.88,6.48-7.26,6.48ZM279.72-18c9.84,0,15.78-5.22,15.78-13.32s-5.94-13.32-15.78-13.32h-15.3c-9.84,0-15.72,5.22-15.72,13.32S254.58-18,264.42-18ZM245.4-6.3h22.44V8.04h8.52V-6.3H298.8v-6.9H245.4Zm18.72-18.54c-4.38,0-7.26-2.7-7.26-6.48s2.88-6.48,7.26-6.48h15.96c4.38,0,7.26,2.7,7.26,6.48s-2.88,6.48-7.26,6.48ZM302.4-6.78h22.44V8.04h8.52V-6.78H355.8v-6.9H302.4Zm3-11.16c9.66-.96,18.18-4.86,23.7-10.26,5.52,5.4,14.04,9.3,23.7,10.26v-6.54c-10.68-1.38-19.5-7.68-19.5-15.66V-45.6h-8.4v5.46c0,7.98-8.82,14.28-19.5,15.66ZM400.74,8.04h8.16V-45.54h-8.16ZM360.6,3.96c18.06-3,31.14-20.7,31.14-42.48v-5.52H360.9v6.96h22.56c0,16.98-9.78,30.78-22.86,33.66Zm74.28-23.1c8.88,0,14.52-3.72,16.14-9.54h6.72V-17.7h8.16V-45.54h-8.16V-36h-6.72c-1.62-5.82-7.26-9.54-16.14-9.54h-1.56c-10.68,0-16.62,5.34-16.62,13.2s5.94,13.2,16.62,13.2ZM421.5,7.8h44.4V-15.9h-8.16v5.22H429.66V-15.9H421.5Zm11.34-33.42c-4.8,0-7.98-2.7-7.98-6.72s3.18-6.72,7.98-6.72h2.52c4.8,0,7.98,2.7,7.98,6.72s-3.18,6.72-7.98,6.72ZM429.66,1.32V-4.2h28.08V1.32Zm88.98,5.52h7.68V-17.58h5.7V8.04h7.68V-45.54h-7.68V-24.9h-5.7V-45.24h-7.68ZM489.3,4.86A24.355,24.355,0,0,0,502.92-7.08,22.244,22.244,0,0,0,516,4.32V-2.82c-5.82-2.94-9.06-9.24-9.06-19.62V-32.76h8.1V-39.6h-7.92v-6.54h-8.58v6.54H490.2v6.84h8.52v10.32c0,10.38-4.38,18.18-9.42,20.16ZM546-14.46h53.4v-6.42H587.76v-4.5c5.64-1.26,8.94-4.8,8.94-9.84,0-6.3-5.22-10.32-13.86-10.32H562.56c-8.64,0-13.86,4.02-13.86,10.32,0,5.04,3.24,8.58,8.94,9.84v4.5H546Zm15.24,3.06c-7.8,0-12.54,3.78-12.54,9.72s4.74,9.72,12.54,9.72h22.92c7.8,0,12.54-3.78,12.54-9.72s-4.74-9.72-12.54-9.72Zm1.68-19.98c-3.66,0-6.06-1.44-6.06-3.84s2.4-3.84,6.06-3.84h19.56c3.66,0,6.06,1.44,6.06,3.84s-2.4,3.84-6.06,3.84ZM561.78,1.56c-3.06,0-4.92-1.38-4.92-3.24s1.86-3.24,4.92-3.24h21.84c3.06,0,4.92,1.38,4.92,3.24s-1.86,3.24-4.92,3.24Zm4.38-22.44V-24.9h13.08v4.02ZM605.7,7.8h46.2V1.08H613.86V-9H605.7ZM642.54-5.1h8.16V-23.58h7.2V-30.9h-7.2V-45.54h-8.16ZM603.3-38.34h23.64v16.5h8.16V-45.06H603.3Zm-1.5,25.56h38.34V-19.2H620.16V-30.54h-8.52V-19.2H601.8Z" transform="translate(302 334)" fill="#970d1b"/></g></svg>