<svg xmlns="http://www.w3.org/2000/svg" width="213" height="48" viewBox="0 0 213 48">
  <g id="그룹_11594" data-name="그룹 11594" transform="translate(-4180 -1659)">
    <g id="그룹_11591" data-name="그룹 11591" transform="translate(4184.072 1670)">
      <path id="패스_5785" data-name="패스 5785" d="M25.448,109.628a19.884,19.884,0,0,1-1.889-4.468,15.014,15.014,0,0,1,0-8.135,19.941,19.941,0,0,1,1.889-4.468H24.239a37.515,37.515,0,0,0-1.916,3.514,12.825,12.825,0,0,0,0,10.04,37.371,37.371,0,0,0,1.916,3.516Z" transform="translate(10.229 -86.728)"/>
      <path id="패스_5786" data-name="패스 5786" d="M35.848,108.58v-15.5H34.219v5.971H32.487v-5.62H30.859v14.443h1.628v-7.1h1.732v7.8Z" transform="translate(14.868 -86.474)"/>
      <path id="패스_5787" data-name="패스 5787" d="M28.233,95.809v.547a13.42,13.42,0,0,1-.673,4.1,8.453,8.453,0,0,1-2.923,3.917L26,105.428a13.094,13.094,0,0,0,1.891-2.191,7.885,7.885,0,0,0,1.216-2.5,7.493,7.493,0,0,0,1.245,2.4,8.641,8.641,0,0,0,1.73,1.882l1.194-1.109a7.609,7.609,0,0,1-2.6-3.575A12.5,12.5,0,0,1,30,96.356v-.547H32.55V94.315H25.644v1.494Z" transform="translate(11.848 -85.875)"/>
      <path id="패스_5788" data-name="패스 5788" d="M36.418,92.558H35.19A19.39,19.39,0,0,1,37.1,97.026a14.938,14.938,0,0,1,0,8.135,19.336,19.336,0,0,1-1.907,4.468h1.228a37.716,37.716,0,0,0,1.916-3.516,12.842,12.842,0,0,0,0-10.04,37.862,37.862,0,0,0-1.916-3.514" transform="translate(16.969 -86.728)"/>
      <path id="패스_5789" data-name="패스 5789" d="M45.556,97.527c-.156.817-.242,1.257-.254,1.312h1.646c.135-.5.288-1.349.465-2.537s.27-2.067.294-2.639H39.422v1.461h6.452a20.409,20.409,0,0,1-.318,2.4" transform="translate(19.023 -86.192)"/>
      <path id="패스_5790" data-name="패스 5790" d="M47.981,93.082H46.3v9.476h1.68V98.681h2.065V97.147H47.981Z" transform="translate(22.361 -86.474)"/>
      <path id="패스_5791" data-name="패스 5791" d="M49.845,100.452a8.059,8.059,0,0,0-4.116-.872,8.111,8.111,0,0,0-4.123.872,2.337,2.337,0,0,0,0,4.341,8.074,8.074,0,0,0,4.123.881,8.021,8.021,0,0,0,4.116-.881,2.342,2.342,0,0,0,0-4.341m-1.426,3.382a6.7,6.7,0,0,1-2.69.481,6.792,6.792,0,0,1-2.712-.481c-.735-.325-1.1-.726-1.1-1.209q0-.755,1.111-1.234a6.86,6.86,0,0,1,2.7-.474,6.648,6.648,0,0,1,2.69.486c.726.321,1.089.731,1.089,1.222s-.362.884-1.089,1.209" transform="translate(19.369 -83.32)"/>
      <path id="패스_5792" data-name="패스 5792" d="M46.121,100.28q2.145-.187,3.269-.346V98.509c-.818.119-1.885.226-3.2.328s-2.269.15-2.864.15V95.795h-1.68v3.192H38.754v1.476h2.2q3.023,0,5.166-.183" transform="translate(18.699 -85.157)"/>
      <path id="패스_5793" data-name="패스 5793" d="M49.728,99l1.124,1.252a10.012,10.012,0,0,0,3.294-1.41,7.4,7.4,0,0,0,2.069-1.99,6.786,6.786,0,0,0,2.259,2.057,10.767,10.767,0,0,0,3.1,1.343L62.7,99a8.577,8.577,0,0,1-4.209-2.036A5.428,5.428,0,0,1,57.1,94.966h4.754V93.484H50.567v1.482h4.756A5.617,5.617,0,0,1,53.919,97a8.106,8.106,0,0,1-4.191,2" transform="translate(24.024 -86.278)"/>
      <path id="패스_5794" data-name="패스 5794" d="M49.117,100.364h6.551v5.39H57.35v-5.39H63.9V98.9H49.117Z" transform="translate(23.728 -83.648)"/>
      <path id="패스_5795" data-name="패스 5795" d="M68.584,102.344h1.68V93.082h-1.68v2.4H65.847v1.476h2.737v1.781H65.575v1.478h3.009Z" transform="translate(31.714 -86.474)"/>
      <path id="패스_5796" data-name="패스 5796" d="M71.144,100.283a8.13,8.13,0,0,0-4.233-.9,8.154,8.154,0,0,0-4.227.9,2.659,2.659,0,0,0-1.485,2.3,2.629,2.629,0,0,0,1.485,2.289,8.214,8.214,0,0,0,4.227.9,8.19,8.19,0,0,0,4.233-.9,2.626,2.626,0,0,0,1.478-2.289,2.656,2.656,0,0,0-1.478-2.3M69.733,103.9a8.421,8.421,0,0,1-5.62,0q-1.118-.488-1.118-1.294,0-.833,1.118-1.307a8.57,8.57,0,0,1,5.62,0q1.125.475,1.126,1.307,0,.806-1.126,1.294" transform="translate(29.59 -83.418)"/>
      <path id="패스_5797" data-name="패스 5797" d="M68.12,93.78H60.861v1.482h5.225a5.393,5.393,0,0,1-2.033,3.361,8.241,8.241,0,0,1-4.065,2.166l.891,1.166a9.417,9.417,0,0,0,5.411-3.323,8.734,8.734,0,0,0,1.83-4.852" transform="translate(29.003 -86.135)"/>
      <path id="패스_5798" data-name="패스 5798" d="M77.04,98.6H74.569v1.546H77.04v7.593H78.67V93.329H77.04Z" transform="translate(36.078 -86.354)"/>
      <rect id="사각형_495" data-name="사각형 495" width="1.632" height="15.499" transform="translate(116.228 6.607)"/>
      <path id="패스_5799" data-name="패스 5799" d="M75.2,96.356v-.547h2.552V94.315h-6.9v1.494h2.586v.547a19.331,19.331,0,0,1-.521,3.584,7.636,7.636,0,0,1-3.074,4.429l1.36,1.058a12.891,12.891,0,0,0,1.892-2.189,7.836,7.836,0,0,0,1.216-2.5,7.564,7.564,0,0,0,1.245,2.4,8.62,8.62,0,0,0,1.732,1.883l1.193-1.109A7.132,7.132,0,0,1,75.7,99.828a17.92,17.92,0,0,1-.5-3.473" transform="translate(33.784 -85.875)"/>
      <path id="패스_5800" data-name="패스 5800" d="M90.486,99.972q-.419,2.453-.453,2.626h1.678a33.713,33.713,0,0,0,.774-4.6c.2-1.84.316-3.079.337-3.728H81.414v1.5h9.559a32.928,32.928,0,0,1-.487,4.208" transform="translate(39.4 -85.899)"/>
      <path id="패스_5801" data-name="패스 5801" d="M87.211,97.527H85.5v5.354h-5.16v1.484H95.126v-1.484H87.211Z" transform="translate(38.878 -84.317)"/>
      <path id="패스_5802" data-name="패스 5802" d="M101.619,98.482a4.1,4.1,0,0,0,1.7-1.043,2.072,2.072,0,0,0,.57-1.426,2.487,2.487,0,0,0-1.461-2.139,8.647,8.647,0,0,0-4.285-.854,8.668,8.668,0,0,0-4.269.845A2.463,2.463,0,0,0,92.411,96a2.087,2.087,0,0,0,.578,1.435,4.1,4.1,0,0,0,1.707,1.05v1.99H90.748v1.478h14.784v-1.478h-3.914Zm-1.7,1.99H96.39v-1.64a6.932,6.932,0,0,0,.833.1q.446.027.916.027c.324,0,.639-.009.939-.027a6.84,6.84,0,0,0,.842-.1ZM98.14,97.637a6.92,6.92,0,0,1-2.867-.5q-1.065-.492-1.065-1.178c0-.469.348-.867,1.049-1.188a6.979,6.979,0,0,1,2.883-.486,6.776,6.776,0,0,1,2.88.512c.725.34,1.084.743,1.084,1.212s-.367.847-1.1,1.154a7.41,7.41,0,0,1-2.865.469" transform="translate(43.929 -86.503)"/>
      <path id="패스_5803" data-name="패스 5803" d="M102.011,100.564a9.491,9.491,0,0,0-4.359-.807,9.552,9.552,0,0,0-4.361.807,2.223,2.223,0,0,0,0,4.229,9.35,9.35,0,0,0,4.361.829,9.289,9.289,0,0,0,4.359-.829,2.23,2.23,0,0,0,0-4.229m-1.494,3.242a8.166,8.166,0,0,1-2.865.422,8.061,8.061,0,0,1-2.883-.431c-.732-.285-1.1-.665-1.1-1.136,0-.492.367-.879,1.1-1.153a8.3,8.3,0,0,1,2.883-.414,7.975,7.975,0,0,1,2.865.432q1.1.428,1.1,1.153,0,.7-1.1,1.127" transform="translate(44.418 -83.234)"/>
      <rect id="사각형_496" data-name="사각형 496" width="1.68" height="11.22" transform="translate(162.382 6.609)"/>
      <path id="패스_5804" data-name="패스 5804" d="M105.107,99.948h-1.713V104.9h10.939v-1.481h-9.226Z" transform="translate(50.066 -83.142)"/>
      <path id="패스_5805" data-name="패스 5805" d="M106.551,98.529a9.532,9.532,0,0,0,1.646,1.84,6.641,6.641,0,0,0,2.085,1.277l.988-1.393a6.91,6.91,0,0,1-2.78-1.9,4.082,4.082,0,0,1-1.016-2.712V95.2h3.109V93.721h-8.047V95.2h3.123v.44a4.748,4.748,0,0,1-1.031,2.951,7.5,7.5,0,0,1-3.167,2.225l1.257,1.325a9.9,9.9,0,0,0,2.379-1.6,4.615,4.615,0,0,0,1.454-2.011" transform="translate(49.128 -86.163)"/>
      <rect id="사각형_497" data-name="사각형 497" width="14.786" height="1.375" transform="translate(165.591 15.183)"/>
      <path id="패스_5806" data-name="패스 5806" d="M122.842,100.994a13.908,13.908,0,0,0-8.738,0q-1.546.706-1.548,1.833,0,1.109,1.548,1.84a10.475,10.475,0,0,0,4.37.731,10.254,10.254,0,0,0,4.368-.74q1.528-.742,1.527-1.849t-1.527-1.815m-1.537,2.739a10.259,10.259,0,0,1-2.831.31,10.03,10.03,0,0,1-2.861-.328c-.7-.212-1.056-.517-1.056-.906s.352-.7,1.056-.9a10.629,10.629,0,0,1,2.861-.312,10.1,10.1,0,0,1,2.831.319c.7.209,1.049.521,1.049.931,0,.389-.351.683-1.049.89" transform="translate(54.512 -82.976)"/>
      <rect id="사각형_498" data-name="사각형 498" width="6.25" height="1.307" transform="translate(169.842 6.411)"/>
      <rect id="사각형_499" data-name="사각형 499" width="12.435" height="1.303" transform="translate(166.75 8.508)"/>
      <path id="패스_5807" data-name="패스 5807" d="M118.246,95.667a11.591,11.591,0,0,0-3.747.52q-1.51.519-1.512,1.453T114.5,99.1a11.528,11.528,0,0,0,3.747.53,11.66,11.66,0,0,0,3.773-.53c1.011-.349,1.521-.836,1.521-1.46s-.509-1.107-1.521-1.453a11.724,11.724,0,0,0-3.773-.52m2.269,2.578a11.459,11.459,0,0,1-2.269.2,11.175,11.175,0,0,1-2.25-.2c-.661-.137-.994-.337-.994-.606s.333-.471.994-.59a12.186,12.186,0,0,1,2.25-.189,12.5,12.5,0,0,1,2.269.189c.671.119,1.008.325,1.008.607,0,.255-.337.452-1.008.588" transform="translate(54.721 -85.219)"/>
      <path id="패스_5808" data-name="패스 5808" d="M127.761,103.3h3.478v1.692h1.681V93.081H131.24v8.806h-3.478Z" transform="translate(61.89 -86.474)"/>
      <path id="패스_5809" data-name="패스 5809" d="M125.988,101.7h1.68V99.007c.863,0,1.868-.048,3.018-.15s2.029-.2,2.645-.307V97.09q-.555.12-2.663.307t-3.637.184h-4.687v1.442h3.645Z" transform="translate(59.261 -84.529)"/>
      <path id="패스_5810" data-name="패스 5810" d="M125.664,103.077v-2.431h-1.68v3.912h11.139v-1.481Z" transform="translate(60.057 -82.803)"/>
      <path id="패스_5811" data-name="패스 5811" d="M127.09,98.607a4.509,4.509,0,0,0,2.932-.824,2.487,2.487,0,0,0,.016-3.972,5.551,5.551,0,0,0-5.874.009,2.448,2.448,0,0,0-.006,3.954,4.475,4.475,0,0,0,2.932.833m-1.766-3.783a2.509,2.509,0,0,1,1.766-.512,2.572,2.572,0,0,1,1.79.512,1.408,1.408,0,0,1,.547.964,1.333,1.333,0,0,1-.539.919,3.442,3.442,0,0,1-3.545,0,1.323,1.323,0,0,1-.554-.919,1.412,1.412,0,0,1,.536-.964" transform="translate(59.656 -86.525)"/>
      <path id="패스_5812" data-name="패스 5812" d="M11.11,88.642c.03.244-.2.273-.624.521-.255.153-.5.315-.723.465a2.668,2.668,0,0,0-.349.248,4.551,4.551,0,0,0-1.429,1.542,1.871,1.871,0,0,0-.229.952,3.1,3.1,0,0,0,.783,1.576c.162.351.446.756.654,1.145a8.145,8.145,0,0,1,1.026,4.227,4.265,4.265,0,0,1-1.02,2.494c-.79,1.115-1.732,1.265-1.744,1.721a9.491,9.491,0,0,0,.922.508c.957.674,1.273,2.2.553,2.862a1.949,1.949,0,0,1-3.17-1.585c-.013-.41.232-.927-.108-1.136-.2-.123-.9.048-1.19.073-1.473.144-3.269-.371-3.923-1.708a.294.294,0,0,0-.034-.068l-.031-.068c-.711-1.387-.362-3.374.143-4.732A15.644,15.644,0,0,1,3.037,93.22a4.839,4.839,0,0,1,.327-.367c.126-.132.195-.244.313-.38.159-.18,1.209-1.136,1.49-1.341,1.349-.97,4.2-2.639,5.944-2.489" transform="translate(-0.072 -88.633)" fill="#0080c2" fill-rule="evenodd"/>
      <path id="패스_5813" data-name="패스 5813" d="M18.684,101.039l-.137.009c-3.523-.036-6.4-.811-7.178-4.382a6,6,0,0,0-.244-1.4c-.276-.1-.658.3-.945.44-1.059.514-2.546.086-2.777-.93a1.943,1.943,0,0,1,3.03-1.892c.44.266.575.594.948.456.248-.088.37-.639.495-.9.973-2.07,2.849-3.425,5.247-2.173a8.1,8.1,0,0,1,1.966,1.558,14.527,14.527,0,0,1,2.988,4.707,12.247,12.247,0,0,1,.864,4.719c0,1.071-.327,4.015-.922,4.643-.094,0-.08-.027-.059.059-.122-.009-.07.009-.135-.043a9.673,9.673,0,0,0-.431-3.6,2.538,2.538,0,0,0-.921-1.093c-.659-.376-1.127-.1-1.79-.175" transform="translate(3.465 -88.076)" fill="#74a837" fill-rule="evenodd"/>
      <path id="패스_5814" data-name="패스 5814" d="M2.137,105.6l.091-.064a11.106,11.106,0,0,0,3.143,1.285c1.6.261,2.234-.6,2.61-1.767.1-.086.463-.82.636-1.1a9.947,9.947,0,0,1,.741-1.044A7.364,7.364,0,0,1,11.17,101.2a4.462,4.462,0,0,1,2.769-.766c1.4.1,2.627.839,2.8.673.223-.449-.321-1.243.446-2.229,1.867-2.4,4.442,1.1,2.01,2.749-.263.18-1.328.4-.8,1.008.108.128.206.226.321.376a5.222,5.222,0,0,1,.991,1.836c1.488,4.941-6.428,6.091-10.707,5.1A13.858,13.858,0,0,1,3.463,107.1c-.394-.364-1.19-1-1.326-1.5" transform="translate(0.93 -84.057)" fill="#d7680e" fill-rule="evenodd"/>
      <path id="패스_5815" data-name="패스 5815" d="M2.278,104.118c-.812-.833-.968-5.039,4.024-1.793.325.2.636.4.93.606.333.223.584.462.89.64-.376,1.17-1.007,2.029-2.61,1.767a11.106,11.106,0,0,1-3.143-1.285Z" transform="translate(0.789 -82.577)" fill="#f9c300" fill-rule="evenodd"/>
      <path id="패스_5816" data-name="패스 5816" d="M8.6,88.639a2.494,2.494,0,0,1,2.108,1.032c.515.9-.26,1.718-.683,2.081a14.051,14.051,0,0,1-4,2.191,3.1,3.1,0,0,1-.783-1.576,1.871,1.871,0,0,1,.229-.952A4.522,4.522,0,0,1,6.9,89.873a2.668,2.668,0,0,1,.349-.248c.224-.15.468-.312.723-.465.423-.248.654-.278.624-.521" transform="translate(2.438 -88.63)" fill="#4fc0ef" fill-rule="evenodd"/>
      <path id="패스_5817" data-name="패스 5817" d="M15.069,97.37l-.137.009.137-.009c.662.073,1.13-.2,1.79.175a2.538,2.538,0,0,1,.921,1.093,9.7,9.7,0,0,1,.431,3.6c.065.052.013.034.135.043-.021-.086-.034-.059.059-.059l-.058.059c-.44,1.075-3.753,3.25-3.523-2.375.03-.674.251-2.307.245-2.532" transform="translate(7.081 -84.408)" fill="#aed052" fill-rule="evenodd"/>
    </g>
    <rect id="사각형_502" data-name="사각형 502" width="213" height="48" transform="translate(4180 1659)" fill="none"/>
  </g>
</svg>
