<svg xmlns="http://www.w3.org/2000/svg" width="257" height="48" viewBox="0 0 257 48">
  <g id="그룹_11592" data-name="그룹 11592" transform="translate(-4180 -1567)">
    <g id="그룹_11589" data-name="그룹 11589" transform="translate(4180 1576)">
      <path id="패스_5818" data-name="패스 5818" d="M24.111,38.785a5.23,5.23,0,0,0-7.44,1.562,5.235,5.235,0,0,1-9.464-1.439h0a.37.37,0,0,1-.013-.055.512.512,0,0,1-.018-.068,6.679,6.679,0,0,1-.269-2.078c0-4.69,4.812-9.914,11.745-9.914A13.219,13.219,0,0,1,30.859,35.2c-.016-.053-.034-.105-.053-.16A14.95,14.95,0,0,0,1.715,39.89c0,7.38,5.322,13.7,12.7,13.7a12.009,12.009,0,0,0,11.662-7.851,5.766,5.766,0,0,0-1.971-6.951" transform="translate(-1.715 -24.944)" fill="#003668"/>
      <path id="패스_5819" data-name="패스 5819" d="M29.256,34.887a13.18,13.18,0,0,0-12.3-8.7c-6.935,0-11.745,5.222-11.745,9.913a6.688,6.688,0,0,0,.269,2.079,4.352,4.352,0,0,1-.14-1.065c0-4.885,4.892-8.271,9.92-8.271A12.324,12.324,0,0,1,27.585,41.169a13.589,13.589,0,0,1-7.533,12.175l0,0a14.958,14.958,0,0,0,9.858-14.061,14.786,14.786,0,0,0-.656-4.4" transform="translate(-0.019 -24.34)" fill="#e6002d"/>
      <path id="패스_5820" data-name="패스 5820" d="M37.151,35.323v1.658H27.085V35.323H30.24V32.493h1.906v2.831Zm-2.763-1.316V30.658H27.782v-1.64H36.3v4.989ZM39,41.239a3.27,3.27,0,0,1-.321,1.424,3.571,3.571,0,0,1-.856,1.175,3.786,3.786,0,0,1-1.246.784,3.877,3.877,0,0,1-1.549.3,3.624,3.624,0,0,1-1.533-.3,3.526,3.526,0,0,1-1.264-.784,3.571,3.571,0,0,1-.856-1.175,3.27,3.27,0,0,1-.321-1.424,3.329,3.329,0,0,1,.321-1.426,3.991,3.991,0,0,1,.856-1.176,4.5,4.5,0,0,1,1.264-.8,4.264,4.264,0,0,1,1.533-.285,4.591,4.591,0,0,1,1.549.285,4.975,4.975,0,0,1,1.246.8,3.991,3.991,0,0,1,.856,1.176A3.329,3.329,0,0,1,39,41.239m-1.923,0a2.045,2.045,0,0,0-.606-1.444,2.016,2.016,0,0,0-1.442-.587,2.036,2.036,0,0,0-2.05,2.03,1.873,1.873,0,0,0,.606,1.424,1.91,1.91,0,0,0,1.444.606,1.964,1.964,0,0,0,1.442-.606,1.944,1.944,0,0,0,.606-1.424m3.187-3.973H38.343V28.717h1.923v3.33h1.995v1.727H40.267Z" transform="translate(10.596 -23.113)"/>
      <path id="패스_5821" data-name="패스 5821" d="M37.59,39.954V38.243H51.84v1.711H45.676v4.132H43.735V39.954Zm1-9.246V29.017H50.841v1.692H45.517l5.806,4.774-1.282,1.264-5.328-4.382-5.325,4.382-1.282-1.264,5.806-4.774Z" transform="translate(15.694 -22.968)"/>
      <path id="패스_5822" data-name="패스 5822" d="M51.592,34a1.343,1.343,0,0,1-1.317,1.3,1.223,1.223,0,0,1-.927-.394A1.191,1.191,0,0,1,48.956,34a1.256,1.256,0,0,1,.392-.925,1.279,1.279,0,0,1,.927-.376,1.3,1.3,0,0,1,.925.376,1.322,1.322,0,0,1,.392.925" transform="translate(21.209 -21.181)"/>
      <path id="패스_5823" data-name="패스 5823" d="M52.486,30.82V29.162h8.907V30.82H57.618l3.936,5.806-1.46.979L57.03,32.938l-3.064,4.791-1.5-1,3.918-5.913Zm1.069,13.109V38.745h1.925v3.473H66.274v1.711Zm10.652-5.273V34.078H61.322v-1.71h2.886V28.718h1.923v9.938Z" transform="translate(22.914 -23.113)"/>
      <path id="패스_5824" data-name="패스 5824" d="M71.214,36.376H62.949v-7.3h1.943V34.72h6.323Zm-7.8,1.353h11.97v6.2H63.412Zm10.064,1.64H65.318v2.9h8.159Zm1.906-2.44H73.459V28.718h1.923v3.043h2.226v1.907H75.382Z" transform="translate(27.999 -23.113)"/>
      <path id="패스_5825" data-name="패스 5825" d="M73.14,31.37v-1.69h9.332v1.69h-3.9l4.275,10.153-1.692.731L77.9,34.328,74.653,42.38l-1.763-.749L77.182,31.37ZM85,28.717h1.923V44.231H85Z" transform="translate(32.823 -23.113)"/>
      <path id="패스_5826" data-name="패스 5826" d="M91.642,36.571H83.573V29.056h1.906v2.03h4.292v-2.03h1.871Zm-1.871-3.865H85.479v2.262h4.292Zm5.522,8.23a3.313,3.313,0,0,1-.321,1.46,3.942,3.942,0,0,1-.854,1.21,3.991,3.991,0,0,1-1.283.818,3.933,3.933,0,0,1-1.567.3,3.869,3.869,0,0,1-1.567-.3,3.716,3.716,0,0,1-1.3-.818,3.892,3.892,0,0,1-.854-1.21,3.312,3.312,0,0,1-.321-1.46,3.519,3.519,0,0,1,.321-1.481,4.1,4.1,0,0,1,.854-1.209,4.376,4.376,0,0,1,1.3-.821,4.251,4.251,0,0,1,1.567-.3,4.328,4.328,0,0,1,1.567.3,4.785,4.785,0,0,1,1.283.821,4.161,4.161,0,0,1,.854,1.209,3.519,3.519,0,0,1,.321,1.481m-1.888-.019a2.1,2.1,0,0,0-.64-1.513,2.148,2.148,0,0,0-1.515-.624,2.048,2.048,0,0,0-1.5.624,2.1,2.1,0,0,0-.64,1.513,2.158,2.158,0,0,0,2.137,2.121,2.075,2.075,0,0,0,1.515-.624,2,2,0,0,0,.64-1.5m2.672-3.972H94.154V28.717h1.923v3.045H98.3v1.906H96.077Z" transform="translate(38.007 -23.113)"/>
      <path id="패스_5827" data-name="패스 5827" d="M100.007,37.772v-.927H93.861V35.19h14.25v1.656h-6.164v.927c.178.055.374.107.553.18a4.273,4.273,0,0,1,1.228.765,4.02,4.02,0,0,1,.856,1.141,3.439,3.439,0,0,1,.3,1.407,3.307,3.307,0,0,1-.3,1.39,3.662,3.662,0,0,1-.856,1.157,4.062,4.062,0,0,1-2.742,1.052,3.874,3.874,0,0,1-1.513-.287,3.581,3.581,0,0,1-1.23-.765,3.4,3.4,0,0,1-.838-1.157,3.089,3.089,0,0,1-.321-1.39,3.209,3.209,0,0,1,.321-1.407,3.7,3.7,0,0,1,.838-1.141,3.846,3.846,0,0,1,1.23-.765c.177-.073.355-.125.535-.18m7.105-7.284h-5.237l5.522,2.939-.873,1.424L100.986,31.9l-5.54,2.957-.873-1.424,5.524-2.939H94.858v-1.64h12.255ZM102.98,41.264a1.9,1.9,0,0,0-.588-1.39,2.032,2.032,0,0,0-1.407-.569,1.96,1.96,0,0,0-1.39.569,1.86,1.86,0,0,0-.606,1.39,1.79,1.79,0,0,0,.606,1.371,1.9,1.9,0,0,0,1.39.588,1.969,1.969,0,0,0,1.407-.588,1.831,1.831,0,0,0,.588-1.371" transform="translate(43 -23.049)"/>
      <path id="패스_5828" data-name="패스 5828" d="M110.341,41.306V36.853h1.941v4.453h6.162v1.711H104.2V41.306Zm.979-9.458-5.166,6.467-1.5-1.123,6.661-8.319,6.661,8.319-1.5,1.123Z" transform="translate(48.015 -23.037)"/>
      <path id="패스_5829" data-name="패스 5829" d="M121.427,37.284h-6.715V29.056h1.836v2.226h3.08V29.056h1.8Zm-6.055,6.645V38.744h1.923v3.474h11.061v1.711Zm4.257-10.991h-3.082v2.69h3.082Zm3.776-4.2h1.818v9.831H123.4V33.829h-1.619V32.138H123.4Zm2.959-.018h1.852v9.938h-1.852Z" transform="translate(53.118 -23.113)"/>
      <path id="패스_5830" data-name="패스 5830" d="M128.57,30.361V28.7h2.066v1.656h3.706v1.656H130.4l4.258,9.529-1.6.713L129.6,34.388l-3.421,8-1.638-.731,4.258-9.636h-4.1V30.361Zm8.123,6.235H133.7V34.885h2.993V28.723h1.923V44.238h-1.923Z" transform="translate(57.889 -23.119)"/>
      <path id="패스_5831" data-name="패스 5831" d="M143.016,42.2h-1.923V31.407h-5.948V29.679h7.872ZM146.9,28.717h1.923V44.231H146.9Z" transform="translate(63.032 -23.113)"/>
      <path id="패스_5832" data-name="패스 5832" d="M154.116,32.776a3.64,3.64,0,0,1-.321,1.534,4.257,4.257,0,0,1-.909,1.246,3.955,3.955,0,0,1-1.3.836,4.15,4.15,0,0,1-1.62.321,3.991,3.991,0,0,1-1.6-.321,3.711,3.711,0,0,1-1.319-.836,3.671,3.671,0,0,1-.891-1.246,3.416,3.416,0,0,1-.337-1.534,3.64,3.64,0,0,1,.337-1.548,3.843,3.843,0,0,1,.891-1.248,4.041,4.041,0,0,1,1.319-.856,4.369,4.369,0,0,1,1.6-.3,4.548,4.548,0,0,1,1.62.3,4.343,4.343,0,0,1,1.3.856,4.49,4.49,0,0,1,.909,1.248,3.884,3.884,0,0,1,.321,1.548m-7.267,4.6h1.888v1.461h8.372V37.373H159v6.554H146.848Zm5.415-4.6a2.316,2.316,0,0,0-.659-1.619,2.263,2.263,0,0,0-1.62-.676,2.31,2.31,0,0,0-2.3,2.295,2.08,2.08,0,0,0,.677,1.606,2.139,2.139,0,0,0,1.62.676,2.279,2.279,0,0,0,2.28-2.281m4.845,7.624h-8.371v1.923h8.371Zm-2.494-8.46h2.458V28.717H159v8.211h-1.923V33.633h-2.458Z" transform="translate(68.211 -23.113)"/>
      <path id="패스_5833" data-name="패스 5833" d="M155.8,31.731V30.11h3.633V28.6h2.048V30.11h3.456v1.62H161.2l3.884,3.955L163.8,36.879,160.453,33.4l-3.3,3.761-1.319-1.231,3.884-4.2Zm12.38,9.264a3.313,3.313,0,0,1-.322,1.46,3.923,3.923,0,0,1-.854,1.212,4.012,4.012,0,0,1-1.283.817,3.928,3.928,0,0,1-1.567.3,3.874,3.874,0,0,1-1.567-.3,3.734,3.734,0,0,1-1.3-.817,3.928,3.928,0,0,1-.855-1.212,3.311,3.311,0,0,1-.319-1.46,3.506,3.506,0,0,1,.319-1.479,4.125,4.125,0,0,1,.855-1.21,4.407,4.407,0,0,1,1.3-.821,4.287,4.287,0,0,1,1.567-.3,4.353,4.353,0,0,1,1.567.3,4.821,4.821,0,0,1,1.283.821,4.12,4.12,0,0,1,.854,1.21,3.509,3.509,0,0,1,.322,1.479m-1.889-.019a2.1,2.1,0,0,0-.64-1.513,2.144,2.144,0,0,0-1.515-.622,2.039,2.039,0,0,0-1.5.622A2.093,2.093,0,0,0,162,40.975a2.161,2.161,0,0,0,2.137,2.121,2.073,2.073,0,0,0,1.515-.624,2,2,0,0,0,.64-1.5m1.283-3.526V33.923h-2.709V32.267h2.709V28.775H169.5v8.674Z" transform="translate(73.058 -23.171)"/>
    </g>
    <rect id="사각형_500" data-name="사각형 500" width="257" height="48" transform="translate(4180 1567)" fill="none"/>
  </g>
</svg>
