<svg xmlns="http://www.w3.org/2000/svg" width="130" height="48" viewBox="0 0 130 48">
  <g id="그룹_11593" data-name="그룹 11593" transform="translate(-4453 -1567)">
    <g id="그룹_11590" data-name="그룹 11590" transform="translate(4453 1574.642)">
      <path id="패스_5773" data-name="패스 5773" d="M194.08,36.687c7-1.363,10.909,2.526,12.947,5.968a14.935,14.935,0,0,0,1.39-9.777c-15.509-2.669-20.4,9.082-21.931,16.027a15.058,15.058,0,0,0,17.857-2.587c-3.057-9.43-10.263-9.63-10.263-9.63" transform="translate(-178.681 -20.834)" fill="#e7380d"/>
      <path id="패스_5774" data-name="패스 5774" d="M205.963,28.2a20.05,20.05,0,0,1-6.488,6.88c2.1-2.529,3.15-6.112,3.663-8.772a15.058,15.058,0,0,0-19.515,5.179C185.8,33.337,190.71,36.4,198.7,35.6a44.665,44.665,0,0,1-16.731-.636A14.914,14.914,0,0,0,185.2,49.727c4.337-14.429,21.257-15.3,25.126-15.3a14.973,14.973,0,0,0-4.367-6.22m-10.2,6.549a2.475,2.475,0,1,1,2.512-2.474,2.493,2.493,0,0,1-2.512,2.474" transform="translate(-181.231 -24.642)" fill="#e7380d"/>
      <path id="패스_5775" data-name="패스 5775" d="M256.6,32.625a6.038,6.038,0,0,0,1.237,3.828,6.068,6.068,0,0,0,3.517,1.8l-1.282,1.1a6.978,6.978,0,0,1-3.227-.98,4.128,4.128,0,0,1-1.58-2.029,3.86,3.86,0,0,1-1.555,2.02,6.736,6.736,0,0,1-3.116.951l-1.3-1.1a5.659,5.659,0,0,0,3.406-1.766,6.075,6.075,0,0,0,1.23-3.819V30.809c0-.318.022-1.178,0-1.187h2.67c-.012.009,0,.869,0,1.187Zm5.075-3.343H264.3c-.024.012-.024,15.594,0,15.617h-2.632c.022-.024.022-15.606,0-15.617" transform="translate(-148.204 -22.39)" fill="#231815"/>
      <path id="패스_5776" data-name="패스 5776" d="M222.76,30.987s-4.624-.01-4.636,0V29.545h11.94v1.442c-.012-.01-4.637,0-4.637,0v.1a3.668,3.668,0,0,0,1.871,3,6.817,6.817,0,0,0,3.872,1.314l-1.4,1.19a7.974,7.974,0,0,1-3.312-.891,4.618,4.618,0,0,1-2.363-1.912,4.444,4.444,0,0,1-2.344,1.919,8.581,8.581,0,0,1-3.486.8l-1.246-1.1a6.811,6.811,0,0,0,3.879-1.307,3.66,3.66,0,0,0,1.863-3Zm.018,8.2h-6.234V37.744c.022.01,13.994,0,13.994,0,.269,0,1.095.01,1.107,0v1.444h-6.234s-.024,5.393,0,5.415h-2.633c.024-.022,0-5.415,0-5.415" transform="translate(-164.095 -22.263)" fill="#231815"/>
      <path id="패스_5777" data-name="패스 5777" d="M245.706,36.928a4.58,4.58,0,0,0,1.484-.976h3.354V37.77h2.633s-.022-8.476,0-8.488h-2.633c.022.012,0,1.494,0,1.494H247.33a4.133,4.133,0,0,0-1.509-1.1,4.863,4.863,0,0,0-1.966-.4,4.563,4.563,0,0,0-3.152,1.17,3.717,3.717,0,0,0,0,5.662,4.537,4.537,0,0,0,3.152,1.179,4.731,4.731,0,0,0,1.852-.365m2.581-4.2a3.094,3.094,0,0,0-.132-.526h2.388v2.324H248.1a2.6,2.6,0,0,0,.177-.6,3.953,3.953,0,0,0,.052-.637,3.612,3.612,0,0,0-.043-.56M242.572,35.1a3.272,3.272,0,0,1,0-3.617,1.481,1.481,0,0,1,2.58,0,3.272,3.272,0,0,1,0,3.617,1.48,1.48,0,0,1-2.58,0" transform="translate(-153.007 -22.39)" fill="#231815"/>
      <path id="패스_5778" data-name="패스 5778" d="M252.485,37.438a1.727,1.727,0,0,0-1.753-1.641h-9.92v1.442c.01-.022,9.042,0,9.042,0s.024,4.475,0,4.5h2.633c-.006-.015,0-2.546,0-4.3" transform="translate(-152.319 -19.229)" fill="#231815"/>
      <path id="패스_5779" data-name="패스 5779" d="M234.14,30.954v1.917a12.869,12.869,0,0,1-.068,1.34,4.142,4.142,0,0,1-.281,1.157h2.281a2.536,2.536,0,0,0,.492-1.078,5.739,5.739,0,0,0,.209-1.485v-1.6a1.727,1.727,0,0,0-1.756-1.7h-7v1.444c.013-.012,6.127,0,6.127,0" transform="translate(-158.53 -22.28)" fill="#231815"/>
      <path id="패스_5780" data-name="패스 5780" d="M240.945,32.388s-.025-3.094,0-3.106h-2.635c.024.012,0,6.5,0,6.5a7.329,7.329,0,0,1-1.239.288,10.723,10.723,0,0,1-1.695.12h-2.826s-.012-3.4,0-3.412h-2.494c.024.01,0,3.412,0,3.412s-2.434.01-2.458,0v1.442h7.673a7.788,7.788,0,0,0,1.686-.178,6.607,6.607,0,0,0,1.353-.432v1.408h2.635v-4.6s2.621-.01,2.632,0V32.388c-.01.013-2.632,0-2.632,0" transform="translate(-158.731 -22.39)" fill="#231815"/>
      <path id="패스_5781" data-name="패스 5781" d="M238.029,36.392a5.944,5.944,0,0,0-6.734,0,3.043,3.043,0,0,0,0,5.112,5.91,5.91,0,0,0,6.734,0,3.042,3.042,0,0,0,0-5.112m-1.834,4.052a2.131,2.131,0,0,1-3.066,0,2.081,2.081,0,0,1-.631-1.491,2.125,2.125,0,0,1,.631-1.516,2.1,2.1,0,0,1,3.066,0,2.125,2.125,0,0,1,.631,1.516,2.081,2.081,0,0,1-.631,1.491" transform="translate(-157.613 -19.448)" fill="#231815"/>
      <path id="패스_5782" data-name="패스 5782" d="M212.462,30.862v1.917a12.906,12.906,0,0,1-.068,1.341,4.067,4.067,0,0,1-.282,1.156h2.283a2.526,2.526,0,0,0,.492-1.078,5.745,5.745,0,0,0,.211-1.485v-1.6a1.729,1.729,0,0,0-1.757-1.7h-6.794v1.444c.012-.01,5.916,0,5.916,0" transform="translate(-168.947 -22.324)" fill="#231815"/>
      <path id="패스_5783" data-name="패스 5783" d="M219.268,32.3s-.025-3.1,0-3.107h-2.635c.024.012,0,6.5,0,6.5a7.342,7.342,0,0,1-1.237.288,10.745,10.745,0,0,1-1.7.122h-2.826s-.012-3.4,0-3.413h-2.492c.022.012,0,3.413,0,3.413s-2.223.01-2.247,0v1.441H213.6a7.785,7.785,0,0,0,1.684-.178,6.607,6.607,0,0,0,1.353-.432v1.408h2.635v-4.6s2.622-.009,2.632,0V32.3c-.01.012-2.632,0-2.632,0" transform="translate(-169.148 -22.435)" fill="#231815"/>
      <path id="패스_5784" data-name="패스 5784" d="M216.42,36.3a5.944,5.944,0,0,0-6.734,0,3.043,3.043,0,0,0,0,5.112,5.9,5.9,0,0,0,6.734,0,3.04,3.04,0,0,0,0-5.112m-1.834,4.052a2.129,2.129,0,0,1-3.064,0,2.08,2.08,0,0,1-.633-1.491,2.126,2.126,0,0,1,.633-1.516,2.106,2.106,0,0,1,3.064,0,2.125,2.125,0,0,1,.631,1.516,2.078,2.078,0,0,1-.631,1.491" transform="translate(-168.098 -19.492)" fill="#231815"/>
    </g>
    <rect id="사각형_501" data-name="사각형 501" width="130" height="48" transform="translate(4453 1567)" fill="none"/>
  </g>
</svg>
