<svg width="76" height="74" viewBox="0 0 76 74" fill="none" xmlns="http://www.w3.org/2000/svg">
<g clip-path="url(#clip0_14_328)">
<path d="M49.1137 31.3341C52.1547 31.3341 54.6197 28.8915 54.6197 25.8781C54.6197 22.8647 52.1547 20.4221 49.1137 20.4221C46.0727 20.4221 43.6077 22.8647 43.6077 25.8781C43.6077 28.8915 46.0727 31.3341 49.1137 31.3341ZM49.1137 22.9403C50.7485 22.9403 52.0785 24.2581 52.0785 25.8781C52.0785 27.4981 50.7485 28.816 49.1137 28.816C47.4788 28.816 46.1489 27.4981 46.1489 25.8781C46.1489 24.2581 47.4788 22.9403 49.1137 22.9403Z" fill="url(#paint0_linear_14_328)"/>
<path d="M7.74231 35.5143H29.9612V32.9961H7.74231V35.5143ZM27.6826 18.819C26.3442 17.9208 24.2265 17.3081 23.0745 16.838C22.3714 16.4939 22.4984 16.4939 22.4561 16.2924C22.4561 16.1078 22.5662 15.6545 22.9474 15.025C23.7436 13.7155 24.1587 12.5152 24.1418 11.1302C24.1418 10.5007 24.074 9.85435 23.9724 9.09891C23.7436 7.52926 22.6424 6.54719 21.6852 5.97641C20.6349 5.34687 19.6184 5.27972 19.0932 5.27132C18.9746 5.27132 18.9238 5.27132 18.8391 5.27132C18.7798 5.27132 18.7035 5.27132 18.6188 5.27132C18.0936 5.27132 17.0687 5.33848 16.0183 5.97641C15.0695 6.54719 13.9683 7.52926 13.7396 9.09891C13.638 9.86275 13.5702 10.5091 13.5702 11.1302C13.5533 12.5068 13.9683 13.7071 14.7646 15.0166C15.1458 15.6545 15.2559 16.1078 15.2559 16.2924C15.2136 16.4855 15.3406 16.4939 14.6375 16.838C13.8921 17.1318 12.6638 17.5347 11.5711 18.0048C11.0205 18.2398 10.5038 18.4916 10.0379 18.8106C9.60589 19.1379 9.06375 19.4905 8.90281 20.4222C8.80116 21.3455 8.58939 22.8312 8.58092 22.8312L11.0967 23.1921C11.0967 23.1921 11.2831 21.9163 11.3932 20.9342C11.6219 20.7747 12.2488 20.4222 12.9349 20.162C13.8159 19.8094 14.8154 19.4653 15.5693 19.1715C16.7722 18.7602 17.831 17.6354 17.7802 16.2924C17.7802 15.4027 17.4414 14.5969 16.9416 13.7407C16.2555 12.5572 16.1115 12.0787 16.0945 11.1302C16.0945 10.6937 16.1453 10.1481 16.247 9.43466C16.2978 8.973 16.6875 8.51134 17.3397 8.11683C17.7887 7.83984 18.3562 7.78108 18.6103 7.78108C18.6866 7.78108 18.712 7.78108 18.7289 7.78108L18.9238 7.79787L19.0254 7.77269C19.0254 7.77269 19.0593 7.77269 19.0847 7.77269C19.3388 7.77269 19.9148 7.83144 20.3553 8.10844C21.0076 8.50295 21.3972 8.96461 21.4481 9.42627C21.5412 10.1314 21.6005 10.677 21.6005 11.1218C21.5836 12.0703 21.4396 12.5572 20.7535 13.7323C20.2537 14.5801 19.9233 15.3943 19.9148 16.284C19.8725 17.627 20.9313 18.7518 22.1342 19.1631C22.9982 19.5073 24.1841 19.8934 25.1329 20.3047C25.6072 20.5061 26.0138 20.716 26.2341 20.8671C26.2679 20.8922 26.2934 20.909 26.3103 20.9258C26.4289 21.8995 26.6068 23.167 26.6068 23.1754L29.1226 22.8228C29.1226 22.8228 28.9108 21.3371 28.8007 20.4138C28.6398 19.4821 28.0976 19.1295 27.6656 18.8022L27.6826 18.819ZM33.5359 0H4.16763C1.86358 0 0 1.84664 0 4.12976V24.0399C0 26.323 1.86358 28.1697 4.16763 28.1697H33.5359C35.8399 28.1697 37.7035 26.323 37.7035 24.0399V4.12976C37.7035 1.84664 35.8399 0 33.5359 0ZM35.1708 24.0483C35.1708 24.9381 34.4423 25.6599 33.5444 25.6599H4.16763C3.26973 25.6599 2.54124 24.9381 2.54124 24.0483V4.12976C2.54124 3.24002 3.26973 2.51815 4.16763 2.51815H33.5359C34.4338 2.51815 35.1623 3.24002 35.1623 4.12976V24.0399L35.1708 24.0483ZM71.8324 38.4857H42.4641C40.1601 38.4857 38.2965 40.3323 38.2965 42.6155V62.5256C38.2965 64.8088 40.1601 66.6554 42.4641 66.6554H71.8324C74.1364 66.6554 76 64.8088 76 62.5256V42.6155C76 40.3323 74.1364 38.4857 71.8324 38.4857ZM73.4588 62.5256C73.4588 63.4154 72.7303 64.1373 71.8324 64.1373H42.4641C41.5662 64.1373 40.8377 63.4154 40.8377 62.5256V42.6155C40.8377 41.7257 41.5662 41.0039 42.4641 41.0039H71.8324C72.7303 41.0039 73.4588 41.7257 73.4588 42.6155V62.5256ZM65.979 57.3047C64.6407 56.4065 62.523 55.8022 61.3709 55.3237C60.6679 54.9796 60.7949 54.9796 60.7526 54.7865C60.7526 54.6019 60.8627 54.1486 61.2439 53.5191C62.0401 52.2096 62.4552 51.0093 62.4383 49.6243C62.4383 48.9948 62.3705 48.3485 62.2688 47.593C62.0401 46.0234 60.9389 45.0413 59.9817 44.4705C58.9398 43.841 57.9233 43.7738 57.3897 43.7654C57.2711 43.7654 57.2118 43.7654 57.1271 43.7654C57.0678 43.7654 56.9915 43.7654 56.8983 43.7654C56.3732 43.7654 55.3567 43.841 54.3063 44.4705C53.3576 45.0413 52.2479 46.0234 52.0192 47.593C51.9175 48.3568 51.8498 49.0032 51.8498 49.6243C51.8328 51.0009 52.2479 52.2012 53.0441 53.5107C53.4253 54.1402 53.5439 54.6019 53.527 54.7781C53.4846 54.9796 53.6117 54.9796 52.9086 55.3237C52.1632 55.6175 50.9349 56.0288 49.8422 56.4989C49.2916 56.7339 48.7749 56.9857 48.309 57.3047C47.8769 57.632 47.3348 57.9846 47.1739 58.9163C47.0722 59.8396 46.852 61.3253 46.852 61.3253L49.3678 61.6862C49.3678 61.6862 49.5542 60.4104 49.6643 59.4283C49.893 59.2688 50.5198 58.9163 51.206 58.6561C52.0869 58.2951 53.0865 57.9594 53.8404 57.6656C55.0432 57.2543 56.1021 56.1295 56.0597 54.7865C56.0597 53.8968 55.7209 53.091 55.2211 52.2348C54.535 51.0513 54.391 50.5728 54.3741 49.6243C54.3741 49.1878 54.4249 48.6422 54.5181 47.9288C54.5689 47.4671 54.9585 47.0054 55.6108 46.6109C56.0513 46.3339 56.6188 46.2752 56.8729 46.2752C56.9492 46.2752 56.9576 46.2752 56.9576 46.2752L57.1694 46.3004L57.2965 46.2752C57.2965 46.2752 57.3388 46.2752 57.3642 46.2752C57.6184 46.2752 58.1859 46.3339 58.6264 46.6109C59.2786 47.0054 59.6683 47.4671 59.7191 47.9288C59.8123 48.6338 59.8631 49.1794 59.8631 49.6243C59.8462 50.5728 59.7022 51.0597 59.016 52.2348C58.5163 53.0826 58.1859 53.8968 58.1774 54.7865C58.1351 56.1295 59.1939 57.2543 60.3968 57.6656C61.2608 58.0098 62.4467 58.3959 63.3955 58.8072C63.8613 59.0086 64.2764 59.2185 64.4967 59.3696C64.5305 59.3863 64.556 59.4115 64.5729 59.4283C64.6915 60.402 64.8694 61.6695 64.8694 61.6779L67.3852 61.3253C67.3852 61.3253 67.1734 59.8396 67.0633 58.9163C66.9024 57.9846 66.3602 57.632 65.9282 57.3047H65.979ZM46.0388 74H68.2577V71.4818H46.0388V74ZM59.9224 28.9839H62.4637V12.7586H46.0896V15.2768H59.9224V28.9839ZM16.0776 45.0161H13.5363V61.2414H29.9104V58.7232H16.0776V45.0161Z" fill="url(#paint1_linear_14_328)"/>
</g>
<defs>
<linearGradient id="paint0_linear_14_328" x1="43.6077" y1="25.8781" x2="54.6197" y2="25.8781" gradientUnits="userSpaceOnUse">
<stop stop-color="#7D00DB"/>
<stop offset="1" stop-color="#E4007F"/>
</linearGradient>
<linearGradient id="paint1_linear_14_328" x1="0" y1="37" x2="76" y2="37" gradientUnits="userSpaceOnUse">
<stop stop-color="#7D00DB"/>
<stop offset="1" stop-color="#E4007F"/>
</linearGradient>
<clipPath id="clip0_14_328">
<rect width="76" height="74" fill="white"/>
</clipPath>
</defs>
</svg>
