<svg width="74" height="76" viewBox="0 0 74 76" fill="none" xmlns="http://www.w3.org/2000/svg">
<g clip-path="url(#clip0_14_325)">
<path d="M74 24.7636V13.904C74 12.8325 73.7822 11.8035 73.3967 10.8766C73.0113 9.94114 72.45 9.10775 71.7545 8.40192C71.0591 7.69609 70.2296 7.12633 69.3164 6.73515C68.3947 6.34396 67.3893 6.12286 66.3252 6.12286V8.67405C67.0374 8.67405 67.716 8.81862 68.3361 9.08224C68.9561 9.34587 69.5091 9.72854 69.9783 10.2048C70.4475 10.681 70.8245 11.2423 71.0842 11.8715C71.344 12.5008 71.4864 13.1812 71.4948 13.9125V68.2189C71.4948 71.1102 69.1823 73.4573 66.3336 73.4573H7.67482C4.82609 73.4573 2.51359 71.1102 2.51359 68.2189V26.0392H47.0879V23.488H2.51359V13.904C2.51359 13.1727 2.65602 12.4923 2.91576 11.863C3.1755 11.2337 3.55254 10.6725 4.02174 10.1963C4.49094 9.72004 5.04393 9.33736 5.66395 9.07374C6.27559 8.81011 6.95426 8.66555 7.67482 8.65704V6.10585C6.61911 6.10585 5.6053 6.32695 4.68365 6.71814C3.762 7.11782 2.9409 7.68759 2.24547 8.38492C1.55005 9.09074 0.988678 9.93264 0.603261 10.8596C0.217844 11.8035 0 12.8325 0 13.904V24.7636V68.2104C0 72.5134 3.43524 76 7.67482 76H66.3168C70.5564 76 73.9916 72.5134 73.9916 68.2104V24.7636H74ZM51.6626 6.10585H22.3374V8.65704H51.6542V6.10585H51.6626ZM16.7991 63.6607H57.2009V36.2609H16.7991V63.6607ZM44.5743 38.8121H54.6873V44.5523H44.5743V38.8121ZM44.5743 47.1035H54.6873V52.8267H44.5743V47.1035ZM44.5743 55.3779H54.6873V61.1095H44.5743V55.3779ZM31.9393 38.8121H42.0607V44.5523H31.9393V38.8121ZM31.9393 47.1035H42.0607V52.8267H31.9393V47.1035ZM31.9393 55.3779H42.0607V61.1095H31.9393V55.3779ZM19.3127 38.8121H29.4257V44.5523H19.3127V38.8121ZM19.3127 47.1035H29.4257V52.8267H19.3127V47.1035ZM19.3127 55.3779H29.4257V61.1095H19.3127V55.3779ZM18.3492 0H15.8356V13.904H18.3492V0ZM58.156 0H55.6424V13.904H58.156V0ZM60.4937 30.3082C63.5016 30.3082 65.9398 27.8335 65.9398 24.7806C65.9398 21.7276 63.5016 19.253 60.4937 19.253C57.4857 19.253 55.0476 21.7276 55.0476 24.7806C55.0476 27.8335 57.4857 30.3082 60.4937 30.3082ZM60.4937 21.8042C62.1107 21.8042 63.4262 23.1393 63.4262 24.7806C63.4262 26.4218 62.1107 27.757 60.4937 27.757C58.8766 27.757 57.5611 26.4218 57.5611 24.7806C57.5611 23.1393 58.8766 21.8042 60.4937 21.8042Z" fill="url(#paint0_linear_14_325)"/>
</g>
<defs>
<linearGradient id="paint0_linear_14_325" x1="0" y1="38.0043" x2="74" y2="38.0043" gradientUnits="userSpaceOnUse">
<stop stop-color="#7D00DB"/>
<stop offset="1" stop-color="#E4007F"/>
</linearGradient>
<clipPath id="clip0_14_325">
<rect width="74" height="76" fill="white"/>
</clipPath>
</defs>
</svg>
