<svg id="레이어_1" data-name="레이어 1" xmlns="http://www.w3.org/2000/svg" viewBox="0 0 29.29 34.61"><defs><style>.cls-1{fill:#fff;}</style></defs><path class="cls-1" d="M317.72,413H293.34a2.45,2.45,0,0,1-2.45-2.45v-29.7a2.45,2.45,0,0,1,2.45-2.45h24.38a2.46,2.46,0,0,1,2.46,2.45v29.7A2.46,2.46,0,0,1,317.72,413ZM293.34,380.6a.22.22,0,0,0-.22.22v29.7a.22.22,0,0,0,.22.22h24.38a.22.22,0,0,0,.22-.22v-29.7a.22.22,0,0,0-.22-.22Z" transform="translate(-290.89 -378.37)"/><path class="cls-1" d="M301,384a1.72,1.72,0,0,1-1.72,1.71h0a1.72,1.72,0,0,1-1.71-1.71h0a1.71,1.71,0,0,1,1.71-1.71h0A1.71,1.71,0,0,1,301,384Z" transform="translate(-290.89 -378.37)"/><path class="cls-1" d="M299.28,384.69a.65.65,0,0,1-.65-.65v-3.9a.66.66,0,1,1,1.31,0V384A.65.65,0,0,1,299.28,384.69Z" transform="translate(-290.89 -378.37)"/><path class="cls-1" d="M307.24,384a1.71,1.71,0,0,1-1.71,1.71h0a1.72,1.72,0,0,1-1.71-1.71h0a1.71,1.71,0,0,1,1.71-1.71h0a1.7,1.7,0,0,1,1.71,1.71Z" transform="translate(-290.89 -378.37)"/><path class="cls-1" d="M305.53,384.69a.66.66,0,0,1-.66-.65v-3.9a.66.66,0,1,1,1.32,0V384A.66.66,0,0,1,305.53,384.69Z" transform="translate(-290.89 -378.37)"/><path class="cls-1" d="M313.49,384a1.72,1.72,0,0,1-1.71,1.71h0a1.71,1.71,0,0,1-1.71-1.71h0a1.7,1.7,0,0,1,1.71-1.71h0a1.71,1.71,0,0,1,1.71,1.71Z" transform="translate(-290.89 -378.37)"/><path class="cls-1" d="M311.78,384.69a.65.65,0,0,1-.66-.65v-3.9a.66.66,0,1,1,1.32,0V384A.66.66,0,0,1,311.78,384.69Z" transform="translate(-290.89 -378.37)"/><line class="cls-1" x1="8.35" y1="26.08" x2="20.95" y2="26.08"/><path class="cls-1" d="M311.83,405.4h-12.6a1,1,0,1,1,0-1.91h12.6a1,1,0,1,1,0,1.91Z" transform="translate(-290.89 -378.37)"/><path class="cls-1" d="M305.06,400.87h0a1.13,1.13,0,0,1-.89-.46L300.88,396a1.12,1.12,0,0,1,.23-1.56,1.13,1.13,0,0,1,1.57.24l2.4,3.26,4.65-6.09a1.11,1.11,0,0,1,1.77,1.35L306,400.43A1.14,1.14,0,0,1,305.06,400.87Z" transform="translate(-290.89 -378.37)"/></svg>