<svg id="레이어_1" data-name="레이어 1" xmlns="http://www.w3.org/2000/svg" viewBox="0 0 32.25 41.06"><defs><style>.cls-1{fill:#fff;}</style></defs><path class="cls-1" d="M305.53,416.2a5.66,5.66,0,0,1-5.69-4.91,1.12,1.12,0,1,1,2.21-.37,3.52,3.52,0,0,0,7,0,1.12,1.12,0,1,1,2.2.37A5.66,5.66,0,0,1,305.53,416.2Z" transform="translate(-289.41 -375.14)"/><path class="cls-1" d="M298.17,405.32a1.11,1.11,0,0,1-.55-.15,16.13,16.13,0,1,1,15.82,0,1.1,1.1,0,0,1-1.52-.42,1.13,1.13,0,0,1,.43-1.53,13.9,13.9,0,1,0-13.63,0,1.13,1.13,0,0,1,.43,1.53A1.14,1.14,0,0,1,298.17,405.32Z" transform="translate(-289.41 -375.14)"/><path class="cls-1" d="M306.85,392.74a1.32,1.32,0,0,1-2.64,0l-.35-7.16a1.67,1.67,0,0,1,3.34,0Zm-1.32,2.39a1.67,1.67,0,1,1-1.67,1.67A1.69,1.69,0,0,1,305.53,395.13Z" transform="translate(-289.41 -375.14)"/><path class="cls-1" d="M310.76,412.22H300.3a2.89,2.89,0,0,1-2.86-2.61l-.34-3.71a2.58,2.58,0,0,1,.65-2,2.62,2.62,0,0,1,1.91-.83H311.4A2.56,2.56,0,0,1,314,405.9l-.35,3.72A2.88,2.88,0,0,1,310.76,412.22Zm-11.1-6.89a.32.32,0,0,0-.26.1.36.36,0,0,0-.08.27l.35,3.71a.67.67,0,0,0,.63.57h10.46a.67.67,0,0,0,.64-.57l.34-3.71a.36.36,0,0,0-.08-.27.32.32,0,0,0-.26-.1Z" transform="translate(-289.41 -375.14)"/><path class="cls-1" d="M312.66,408.61H298.38a1,1,0,1,1,0-1.91h14.28a1,1,0,0,1,0,1.91Z" transform="translate(-289.41 -375.14)"/></svg>