<svg id="레이어_1" data-name="레이어 1" xmlns="http://www.w3.org/2000/svg" viewBox="0 0 33.55 34.45"><defs><style>.cls-1{fill:#fff;}</style></defs><path class="cls-1" d="M317.45,398.93h-2.23V381.16a.49.49,0,0,0-.48-.48H308.9v-2.23h5.84a2.71,2.71,0,0,1,2.71,2.71Z" transform="translate(-288.76 -378.45)"/><path class="cls-1" d="M311.33,412H291.47a2.72,2.72,0,0,1-2.71-2.72V381.16a2.71,2.71,0,0,1,2.71-2.71h5.95v2.23h-5.95a.49.49,0,0,0-.48.48v28.11a.49.49,0,0,0,.48.48h19.86Z" transform="translate(-288.76 -378.45)"/><path class="cls-1" d="M314.65,412.89a7.65,7.65,0,1,1,7.66-7.65A7.66,7.66,0,0,1,314.65,412.89Zm0-13.06a5.42,5.42,0,1,0,5.42,5.41A5.42,5.42,0,0,0,314.65,399.83Z" transform="translate(-288.76 -378.45)"/><path class="cls-1" d="M313.83,408.69a1.12,1.12,0,0,1-.79-.33l-2.44-2.44a1.13,1.13,0,0,1,0-1.58,1.11,1.11,0,0,1,1.58,0l1.65,1.65,3.29-3.29a1.12,1.12,0,0,1,1.58,1.58l-4.08,4.08A1.09,1.09,0,0,1,313.83,408.69Z" transform="translate(-288.76 -378.45)"/><path class="cls-1" d="M308.58,384.88H297.74a1.12,1.12,0,0,1-1.12-1.12v-4.2a1.12,1.12,0,0,1,1.12-1.11h10.84a1.11,1.11,0,0,1,1.11,1.11v4.2A1.12,1.12,0,0,1,308.58,384.88Zm-9.73-2.24h8.61v-2h-8.61Z" transform="translate(-288.76 -378.45)"/><path class="cls-1" d="M308.4,396.58H294.65a1.12,1.12,0,0,1,0-2.24H308.4a1.12,1.12,0,0,1,0,2.24Z" transform="translate(-288.76 -378.45)"/><path class="cls-1" d="M311.67,390.93h-17a1.12,1.12,0,1,1,0-2.23h17a1.12,1.12,0,0,1,0,2.23Z" transform="translate(-288.76 -378.45)"/><path class="cls-1" d="M304.05,402.11h-9.4a1.12,1.12,0,1,1,0-2.23h9.4a1.12,1.12,0,0,1,0,2.23Z" transform="translate(-288.76 -378.45)"/></svg>