<svg width="72" height="69" viewBox="0 0 72 69" fill="none" xmlns="http://www.w3.org/2000/svg">
<g clip-path="url(#clip0_13_319)">
<path d="M72 15.4855V6.4866C72 2.90721 69.0846 0.00840234 65.4951 0H6.50486C2.92382 0 0 2.90721 0 6.4866V18.0062V56.3461C0 57.2367 0.185372 58.0938 0.513985 58.8668C0.842598 59.6398 1.32288 60.3456 1.9127 60.9254C2.50252 61.5135 3.20187 61.984 3.97706 62.3201C4.75225 62.6478 5.6117 62.8327 6.50486 62.8327H17.3238V60.312H6.50486C5.95717 60.312 5.44318 60.2028 4.9629 60.0011C4.49105 59.7994 4.06132 59.5054 3.69901 59.1441C3.33669 58.7828 3.04178 58.3542 2.83956 57.8837C2.63733 57.4132 2.52779 56.8922 2.52779 56.3461V18.0062H69.4722V56.3461C69.4722 56.8922 69.3627 57.4048 69.1604 57.8837C68.9582 58.3542 68.6717 58.7828 68.301 59.1441C67.9387 59.5054 67.5089 59.7994 67.0371 60.0011C66.5652 60.2028 66.0428 60.312 65.4951 60.312H54.6762V62.8327H65.4951C66.3883 62.8327 67.2477 62.6478 68.0229 62.3201C68.7981 61.9924 69.5059 61.5135 70.0873 60.9254C70.6771 60.3372 71.149 59.6398 71.486 58.8668C71.8146 58.0938 72 57.2367 72 56.3461V46.4481V15.4855ZM69.4722 15.4855H2.52779V6.4866C2.52779 4.3188 4.32253 2.5207 6.50486 2.5207H65.4951C67.6775 2.5207 69.4638 4.3104 69.4722 6.4866V15.4855ZM45.3486 10.671H56.4372V8.15027H45.3486V10.671ZM59.7065 10.671H62.5713V8.15027H59.7065V10.671ZM20.6689 54.7832H36.7457V52.2625H20.6689V54.7832ZM20.6689 36.5754H36.7457V34.0547H20.6689V36.5754ZM20.6689 43.0872H36.7373V40.5665H20.6689V43.0872ZM20.6689 30.0552H36.7373V27.5345H20.6689V30.0552ZM20.6689 61.2951H36.7373V58.7744H20.6689V61.2951ZM20.6689 67.8153H36.7457V65.2946H20.6689V67.8153ZM40.293 44.2719H52.0641V26.3497H40.293V44.2719ZM42.8293 28.8704H49.5448V41.7512H42.8293V28.8704ZM40.293 69H52.0641V51.0862H40.293V69ZM42.8293 53.5985H49.5448V66.4793H42.8293V53.5985Z" fill="url(#paint0_linear_13_319)"/>
</g>
<defs>
<linearGradient id="paint0_linear_13_319" x1="0" y1="34.5" x2="72" y2="34.5" gradientUnits="userSpaceOnUse">
<stop stop-color="#7D00DB"/>
<stop offset="1" stop-color="#E4007F"/>
</linearGradient>
<clipPath id="clip0_13_319">
<rect width="72" height="69" fill="white"/>
</clipPath>
</defs>
</svg>
