<svg id="레이어_1" data-name="레이어 1" xmlns="http://www.w3.org/2000/svg" viewBox="0 0 26.89 30.71"><defs><style>.cls-1{fill:#fff;}</style></defs><path class="cls-1" d="M317.5,384.87l-1.33-1.33.66-.66a.69.69,0,0,0-.2-.36l-.08-.08a.71.71,0,0,0-.37-.21l-.66.66-1.33-1.33.7-.7a1.83,1.83,0,0,1,1.58-.49,2.6,2.6,0,0,1,1.41.73l.08.08a2.12,2.12,0,0,1,.25,3Z" transform="translate(-292.01 -380.35)"/><path class="cls-1" d="M296.49,405.58h0a3,3,0,0,1-2.17-.84c-1.46-1.46-1-4.23,1.12-6.31L311,382.86a4,4,0,0,1,2.68-1.29,1.92,1.92,0,0,1,1.37.53L317,384c.94.94.61,2.68-.76,4.05l-15.57,15.57A6.18,6.18,0,0,1,296.49,405.58Zm17.19-22.13a2.29,2.29,0,0,0-1.34.74l-15.57,15.57c-1.36,1.36-1.71,3.05-1.12,3.65a1.15,1.15,0,0,0,.84.28,4.34,4.34,0,0,0,2.81-1.39l15.57-15.57a2.06,2.06,0,0,0,.73-1.41l-1.86-1.86Z" transform="translate(-292.01 -380.35)"/><path class="cls-1" d="M292,407.05l.48-1.64a5.39,5.39,0,0,1,1.65-2.58l.94,1.16,1.15.94a5.49,5.49,0,0,1-2.58,1.64Z" transform="translate(-292.01 -380.35)"/><path class="cls-1" d="M313.3,390.75l-5-5,3.22-3.22,5,5Zm-2.32-5,2.32,2.33.56-.56-2.33-2.33Z" transform="translate(-292.01 -380.35)"/><path class="cls-1" d="M312.59,396a.95.95,0,0,1-.66-1.61l5.09-5.1a2.88,2.88,0,0,0-1-1.78,3.8,3.8,0,0,0-.37-.33.94.94,0,1,1,1.2-1.46c.17.14.34.29.5.45a5.79,5.79,0,0,1,1.39,2.13,2.17,2.17,0,0,1-.35,2.29l-5.13,5.13A1,1,0,0,1,312.59,396Z" transform="translate(-292.01 -380.35)"/><path class="cls-1" d="M314,411.06H293.67a.94.94,0,1,1,0-1.88H314a.94.94,0,0,1,0,1.88Z" transform="translate(-292.01 -380.35)"/></svg>