<svg width="62" height="74" viewBox="0 0 62 74" fill="none" xmlns="http://www.w3.org/2000/svg">
<g clip-path="url(#clip0_13_322)">
<path d="M19.3856 7.50861V17.4203C19.3856 18.6176 18.4205 19.5925 17.2354 19.5925H7.42409C6.72146 19.5925 6.15429 20.1655 6.15429 20.8753C6.15429 21.5851 6.72146 22.1581 7.42409 22.1581H17.2354C19.8258 22.1581 21.9252 20.0372 21.9252 17.4203V7.50861C21.9252 6.7988 21.358 6.22582 20.6554 6.22582C19.9528 6.22582 19.3856 6.7988 19.3856 7.50861ZM29.0953 71.4344H4.68979C4.08875 71.4344 3.5639 71.195 3.16603 70.8016C2.77662 70.4082 2.5396 69.8694 2.5396 69.2622V17.942L10.1499 10.2538L17.7602 2.56558H53.5008C54.1019 2.56558 54.6267 2.80504 55.0246 3.20698C55.414 3.60892 55.651 4.13914 55.651 4.74633V37.0043C55.651 37.7141 56.2182 38.2871 56.9208 38.2871C57.6234 38.2871 58.1906 37.7141 58.1906 37.0043V4.73778C58.1906 3.42933 57.6658 2.24061 56.8192 1.38542C55.9812 0.530221 54.796 0 53.5093 0H17.2354C16.9052 0 16.5751 0.136831 16.3381 0.376286L8.35527 8.44077L0.372474 16.5053C0.135445 16.7447 0 17.0782 0 17.4118V69.2622C0 70.5621 0.52485 71.7594 1.37138 72.6146C2.21791 73.4698 3.40306 74 4.68979 74H29.0953C29.7979 74 30.3651 73.427 30.3651 72.7172C30.3651 72.0074 29.7979 71.4344 29.0953 71.4344ZM31.3386 34.4729H17.8703C15.8725 34.4729 14.2556 36.1063 14.2471 38.1331V57.7599C14.2471 59.7781 15.864 61.4115 17.8703 61.4201H31.3386C33.3364 61.4201 34.9618 59.7867 34.9618 57.7599V38.1331C34.9618 36.1149 33.3364 34.4815 31.3386 34.4729ZM32.4222 57.7513C32.4222 58.3499 31.9397 58.8374 31.3386 58.8459H17.8703C17.2777 58.8459 16.7952 58.3585 16.7867 57.7513V38.1246C16.7867 37.5259 17.2693 37.0385 17.8703 37.0299H31.3386C31.9397 37.0299 32.4222 37.5174 32.4222 38.1246V57.7513ZM28.5197 42.6999H20.6892C19.9866 42.6999 19.4194 43.2729 19.4194 43.9827C19.4194 44.6925 19.9866 45.2655 20.6892 45.2655H28.5197C29.2223 45.2655 29.7895 44.6925 29.7895 43.9827C29.7895 43.2729 29.2223 42.6999 28.5197 42.6999ZM28.5197 50.619H20.6892C19.9866 50.619 19.4194 51.192 19.4194 51.9018C19.4194 52.6116 19.9866 53.1846 20.6892 53.1846H28.5197C29.2223 53.1846 29.7895 52.6116 29.7895 51.9018C29.7895 51.192 29.2223 50.619 28.5197 50.619ZM58.3768 46.5311H44.9085C42.9107 46.5311 41.2938 48.1731 41.2854 50.1914V69.8181C41.2854 71.8364 42.9022 73.4698 44.9085 73.4783H58.3768C60.3747 73.4783 61.9915 71.8449 62 69.8181V50.1914C62 48.1731 60.3831 46.5311 58.3768 46.5311ZM59.4604 69.8095C59.4604 70.4082 58.9779 70.8956 58.3768 70.9042H44.9085C44.3159 70.9042 43.8334 70.4167 43.825 69.8095V50.1828C43.825 49.5842 44.3075 49.0882 44.9085 49.0882H58.3768C58.9694 49.0882 59.4519 49.5756 59.4604 50.1828V69.8095ZM55.5579 54.7667H47.7275C47.0249 54.7667 46.4577 55.3397 46.4577 56.0495C46.4577 56.7593 47.0249 57.3323 47.7275 57.3323H55.5579C56.2605 57.3323 56.8277 56.7593 56.8277 56.0495C56.8277 55.3397 56.2605 54.7667 55.5579 54.7667ZM55.5579 62.6772H47.7275C47.0249 62.6772 46.4577 63.2502 46.4577 63.96C46.4577 64.6698 47.0249 65.2428 47.7275 65.2428H55.5579C56.2605 65.2428 56.8277 64.6698 56.8277 63.96C56.8277 63.2502 56.2605 62.6772 55.5579 62.6772ZM48.2608 15.0942V12.5286H39.3553V15.0942H48.2608ZM48.2608 21.5253H39.3553V24.0908H48.2608V21.5253Z" fill="url(#paint0_linear_13_322)"/>
</g>
<defs>
<linearGradient id="paint0_linear_13_322" x1="0" y1="37.0043" x2="62" y2="37.0043" gradientUnits="userSpaceOnUse">
<stop stop-color="#7D00DB"/>
<stop offset="1" stop-color="#E4007F"/>
</linearGradient>
<clipPath id="clip0_13_322">
<rect width="62" height="74" fill="white"/>
</clipPath>
</defs>
</svg>
