<svg width="78" height="70" viewBox="0 0 78 70" fill="none" xmlns="http://www.w3.org/2000/svg">
<g clip-path="url(#clip0_13_316)">
<path d="M76.089 58.0212L60.4108 42.3133C63.1201 37.8776 64.479 32.846 64.479 27.8229C64.479 20.7054 61.7697 13.5879 56.3512 8.15617C50.9326 2.71588 43.8239 0 36.7323 0C29.6321 0 22.5234 2.71588 17.1134 8.14765C11.7033 13.5709 8.98552 20.6969 8.98552 27.8059V27.8229L11.1088 27.8059C11.1088 21.2333 13.6057 14.6692 18.6166 9.65458C23.619 4.63999 30.1756 2.12844 36.7407 2.12844C43.3059 2.12844 49.854 4.63148 54.8564 9.65458C59.8588 14.6692 62.3642 21.2418 62.3642 27.8144C62.3642 34.3955 59.8673 40.9596 54.8564 45.9742C49.9134 50.9292 43.4587 53.4323 36.9786 53.4919C36.2057 51.3719 34.1843 49.848 31.7978 49.848C28.7488 49.848 26.2773 52.3255 26.2773 55.3819C26.2773 58.4383 28.7488 60.9158 31.7978 60.9158C34.7704 60.9158 37.1824 58.5575 37.3098 55.6118C42.1338 55.5096 46.9409 54.1559 51.1959 51.5507L66.8655 67.2586C68.1395 68.5356 69.8126 69.1742 71.4773 69.1742C73.1419 69.1742 74.8235 68.5356 76.089 67.2586C77.3629 65.9815 77.9999 64.3043 77.9999 62.6356C77.9999 60.9669 77.3629 59.2897 76.089 58.0126V58.0212ZM33.8956 57.4933C33.352 58.0382 32.6216 58.3617 31.7978 58.3702C30.974 58.3702 30.2351 58.0382 29.7 57.4933C29.1565 56.9484 28.8337 56.2162 28.8252 55.3904C28.8252 54.5646 29.1565 53.8239 29.7 53.2875C30.2436 52.7426 30.974 52.4191 31.7978 52.4106C32.6216 52.4106 33.3605 52.7426 33.8956 53.2875C34.4391 53.8324 34.7619 54.5646 34.7704 55.3904C34.7704 56.2162 34.4391 56.9569 33.8956 57.4933ZM74.5857 65.7602C73.7279 66.62 72.6068 67.0542 71.4773 67.0542C70.3477 67.0542 69.2266 66.6286 68.3688 65.7602L52.9964 50.3503C54.1685 49.4989 55.298 48.5454 56.3597 47.4811C57.4213 46.4169 58.3725 45.2931 59.2218 44.1097L74.5942 59.5196C75.452 60.388 75.8851 61.5033 75.8851 62.6356C75.8851 63.7679 75.4605 64.8918 74.5942 65.7516L74.5857 65.7602ZM53.1918 21.1141L55.1621 20.3138C54.1939 17.9129 52.7331 15.6653 50.7967 13.7242C48.8603 11.783 46.6181 10.3187 44.2231 9.34809L43.4248 11.3233C45.565 12.1917 47.5609 13.4943 49.3019 15.2311C51.0345 16.9679 52.334 18.9771 53.2002 21.1226L53.1918 21.1141ZM44.9705 30.1216C44.9705 29.7811 44.8346 29.4576 44.5968 29.2192L35.4753 20.0754C35.3564 19.9647 35.229 19.8626 35.0676 19.7945C34.592 19.5986 34.04 19.7093 33.6833 20.0754L16.315 37.486L11.3041 32.4629C11.0663 32.2245 10.7351 32.0883 10.4039 32.0883C10.0726 32.0883 9.7414 32.2245 9.5036 32.4629L0.373589 41.6067C-0.1275 42.109 -0.1275 42.9178 0.373589 43.4116L15.4063 58.4809C15.6441 58.7193 15.9753 58.8555 16.3065 58.8555C16.6377 58.8555 16.969 58.7193 17.2068 58.4809L44.5968 31.0241C44.8346 30.7857 44.9705 30.4537 44.9705 30.1216ZM16.3065 55.7735L3.07437 42.5091L10.3954 35.1703L15.4063 40.1934C15.6441 40.4318 15.9753 40.568 16.3065 40.568C16.6377 40.568 16.969 40.4318 17.2068 40.1934L34.575 22.7828L41.896 30.1216L16.3065 55.7735ZM29.3858 19.0623C29.3858 16.0058 26.9143 13.5283 23.8653 13.5283C20.8163 13.5283 18.3448 16.0058 18.3448 19.0623C18.3448 22.1187 20.8163 24.5962 23.8653 24.5962C26.9143 24.5962 29.3858 22.1187 29.3858 19.0623ZM20.8928 19.0623C20.8928 18.2364 21.224 17.4957 21.7675 16.9594C22.3111 16.4145 23.0415 16.091 23.8653 16.0825C24.6891 16.0825 25.428 16.4145 25.9631 16.9594C26.5066 17.5043 26.8294 18.2364 26.8379 19.0623C26.8379 19.8881 26.5066 20.6288 25.9631 21.1652C25.4195 21.71 24.6891 22.0336 23.8653 22.0421C23.0415 22.0421 22.3026 21.71 21.7675 21.1652C21.224 20.6203 20.9012 19.8881 20.8928 19.0623ZM49.3444 58.9321C46.2954 58.9321 43.8239 61.4096 43.8239 64.4661C43.8239 67.5225 46.2954 70 49.3444 70C52.3934 70 54.8649 67.5225 54.8649 64.4661C54.8649 61.4096 52.3934 58.9321 49.3444 58.9321ZM51.4422 66.5775C50.8986 67.1224 50.1682 67.4459 49.3444 67.4544C48.5206 67.4544 47.7817 67.1224 47.2466 66.5775C46.7031 66.0326 46.3803 65.3004 46.3718 64.4746C46.3718 63.6487 46.7031 62.9081 47.2466 62.3717C47.7902 61.8268 48.5206 61.5033 49.3444 61.4948C50.1682 61.4948 50.9071 61.8268 51.4422 62.3717C51.9857 62.9166 52.3085 63.6487 52.317 64.4746C52.317 65.3004 51.9857 66.0411 51.4422 66.5775Z" fill="url(#paint0_linear_13_316)"/>
</g>
<defs>
<linearGradient id="paint0_linear_13_316" x1="-0.000104525" y1="35" x2="77.9999" y2="35" gradientUnits="userSpaceOnUse">
<stop stop-color="#7D00DB"/>
<stop offset="0.99" stop-color="#E4007F"/>
</linearGradient>
<clipPath id="clip0_13_316">
<rect width="78" height="70" fill="white"/>
</clipPath>
</defs>
</svg>
