<svg id="레이어_1" data-name="레이어 1" xmlns="http://www.w3.org/2000/svg" viewBox="0 0 7.95 16.02"><defs><style>.cls-1{fill:#fff;}</style></defs><path class="cls-1" d="M301.8,391.73c-.14-.11-.21-.18-.21-.25a.59.59,0,0,1,0-.26V388c0-.16,0-.27.12-.3s.18,0,.28.08l7.16,6a3,3,0,0,1,.32.35,1.71,1.71,0,0,1,.07.46v2.24a1.59,1.59,0,0,1-.07.46,2,2,0,0,1-.32.35l-7.16,6a.29.29,0,0,1-.28.09c-.09,0-.12-.14-.12-.3v-3.25a.69.69,0,0,1,0-.26c0-.05.07-.14.21-.25l4.69-3.95Z" transform="translate(-301.56 -387.66)"/></svg>