<svg id="레이어_1" data-name="레이어 1" xmlns="http://www.w3.org/2000/svg" viewBox="0 0 35.67 32.08"><defs><style>.cls-1{fill:#fff;}</style></defs><path class="cls-1" d="M318.4,406.25H290.31a2.72,2.72,0,0,1-2.72-2.71v-21.2a2.72,2.72,0,0,1,2.72-2.71h29.2a2.72,2.72,0,0,1,2.72,2.71v19.72a1.12,1.12,0,0,1-2.24,0V382.34a.49.49,0,0,0-.48-.48h-29.2a.49.49,0,0,0-.48.48v21.2a.49.49,0,0,0,.48.48H318.4a1.12,1.12,0,1,1,0,2.23Z" transform="translate(-287.59 -379.63)"/><path class="cls-1" d="M310.21,402.2H293.85a2.07,2.07,0,0,1-2.07-2.07V385.75a2.07,2.07,0,0,1,2.07-2.07H316a2.07,2.07,0,0,1,2.07,2.07v8.39h-2.23v-8.23H294V400h16.2Z" transform="translate(-287.59 -379.63)"/><path class="cls-1" d="M304.91,411.71a1.12,1.12,0,0,1-1.12-1.11v-5.47a1.12,1.12,0,0,1,2.24,0v5.47A1.12,1.12,0,0,1,304.91,411.71Z" transform="translate(-287.59 -379.63)"/><path class="cls-1" d="M314.75,411.71H295.07a1.12,1.12,0,1,1,0-2.23h19.68a1.12,1.12,0,0,1,0,2.23Z" transform="translate(-287.59 -379.63)"/><path class="cls-1" d="M320.14,407.07a2,2,0,0,1-1.3-.5l-5.37-5-1.38,1.5a1.58,1.58,0,0,1-1.15.54,1.44,1.44,0,0,1-1.37-1.18l-2.11-8.35a1.65,1.65,0,0,1,.26-1.41,1.6,1.6,0,0,1,1.26-.59l.25,0L318,393.3a1.39,1.39,0,0,1,.87,2.43l-1.57,1.69,5.37,5a1.94,1.94,0,0,1,.12,2.71l-1.22,1.34A1.89,1.89,0,0,1,320.14,407.07Zm-6.67-7.4a1.88,1.88,0,0,1,1.3.51l5.37,5,1.21-1.33-5.37-5a1.9,1.9,0,0,1-.62-1.34,2,2,0,0,1,.51-1.37l1-1-7.41-1,1.8,7.11.84-.9A1.88,1.88,0,0,1,313.47,399.67Z" transform="translate(-287.59 -379.63)"/></svg>