<svg xmlns="http://www.w3.org/2000/svg" xmlns:xlink="http://www.w3.org/1999/xlink" width="160" height="160" viewBox="0 0 160 160"><defs><clipPath id="a"><rect width="82.713" height="83.675" transform="translate(0 0)" fill="none"/></clipPath></defs><g transform="translate(-880 -4627)"><circle cx="80" cy="80" r="80" transform="translate(880 4627)" fill="#ffecec"/><g transform="translate(918.644 4664.163)"><path d="M9.5,65.576a.75.75,0,0,1-.439-1.359L40.918,41.276a.75.75,0,0,1,1.188.609V64.826a.75.75,0,0,1-1.5,0V43.349L9.94,65.435A.747.747,0,0,1,9.5,65.576Z" fill="#bc1323"/><path d="M73.21,65.576a.747.747,0,0,1-.438-.141L42.107,43.349V64.826a.75.75,0,0,1-1.5,0V41.884a.75.75,0,0,1,1.188-.609L73.649,64.218a.75.75,0,0,1-.439,1.359Z" fill="#bc1323"/><g clip-path="url(#a)"><path d="M55.694,31.145c0-7.064-6.42-12.791-14.338-12.791S27.018,24.081,27.018,31.145v6.977H33.21v0H49.5v0h6.192Z" fill="#ff97a1"/><path d="M55.694,38.872H27.018a.75.75,0,0,1-.75-.75V31.145a12.8,12.8,0,0,1,4.45-9.6,16.34,16.34,0,0,1,21.275,0,12.8,12.8,0,0,1,4.45,9.6v6.977A.75.75,0,0,1,55.694,38.872Zm-5.442-1.5h4.692V31.145c0-6.639-6.1-12.041-13.588-12.041s-13.588,5.4-13.588,12.041v6.227H32.46V30.563a.75.75,0,0,1,1.5,0v6.809H48.752V30.563a.75.75,0,0,1,1.5,0Z" fill="#bc1323"/><path d="M52.146,12.041A10.787,10.787,0,1,1,48.987,4.41a10.767,10.767,0,0,1,3.159,7.631" fill="#fff"/><path d="M41.355.5a11.543,11.543,0,0,1,8.163,19.7A11.541,11.541,0,0,1,33.2,3.88,11.455,11.455,0,0,1,41.355.5Zm0,21.582a10.043,10.043,0,0,0,7.1-17.142,10.041,10.041,0,0,0-14.2,14.2A9.972,9.972,0,0,0,41.355,22.082Z" fill="#bc1323"/><line y2="1.652" transform="translate(37.578 9.844)" fill="#fff"/><path d="M0,2.4a.75.75,0,0,1-.75-.75V0A.75.75,0,0,1,0-.75.75.75,0,0,1,.75,0V1.652A.75.75,0,0,1,0,2.4Z" transform="translate(37.578 9.844)" fill="#bc1323"/><line y2="1.652" transform="translate(45.135 9.844)" fill="#fff"/><path d="M0,2.4a.75.75,0,0,1-.75-.75V0A.75.75,0,0,1,0-.75.75.75,0,0,1,.75,0V1.652A.75.75,0,0,1,0,2.4Z" transform="translate(45.135 9.844)" fill="#bc1323"/><path d="M44.363,15.82a4.256,4.256,0,0,1-6.014,0" fill="#fff"/><path d="M41.356,17.814a4.969,4.969,0,0,1-3.537-1.464.75.75,0,0,1,1.061-1.061,3.506,3.506,0,0,0,4.953,0,.75.75,0,0,1,1.061,1.061A4.969,4.969,0,0,1,41.356,17.814Z" fill="#bc1323"/><path d="M12.948,64.922A4.926,4.926,0,1,1,8.023,60a4.925,4.925,0,0,1,4.925,4.926" fill="#fff"/><path d="M8.023,70.6A5.675,5.675,0,1,1,13.7,64.922,5.682,5.682,0,0,1,8.023,70.6Zm0-9.851A4.175,4.175,0,1,0,12.2,64.922,4.181,4.181,0,0,0,8.023,60.746Z" fill="#bc1323"/><path d="M14.8,75.652a4.838,4.838,0,0,0-4.838-4.838H6.088A4.838,4.838,0,0,0,1.25,75.652v6.772H14.8Z" fill="#ff97a1"/><path d="M6.088,70.064h3.87a5.594,5.594,0,0,1,5.588,5.588v7.522H.5V75.652A5.594,5.594,0,0,1,6.088,70.064Zm7.958,11.61V75.652a4.093,4.093,0,0,0-4.088-4.088H6.088A4.093,4.093,0,0,0,2,75.652v6.022Z" fill="#bc1323"/><path d="M46.282,64.922A4.926,4.926,0,1,1,41.356,60a4.925,4.925,0,0,1,4.926,4.926" fill="#fff"/><path d="M41.356,70.6a5.675,5.675,0,1,1,5.676-5.675A5.681,5.681,0,0,1,41.356,70.6Zm0-9.851a4.175,4.175,0,1,0,4.176,4.176A4.18,4.18,0,0,0,41.356,60.746Z" fill="#bc1323"/><path d="M48.13,75.652a4.838,4.838,0,0,0-4.838-4.838h-3.87a4.838,4.838,0,0,0-4.838,4.838v6.772H48.13Z" fill="#ff97a1"/><path d="M39.422,70.064h3.87a5.594,5.594,0,0,1,5.588,5.588v7.522H33.834V75.652A5.594,5.594,0,0,1,39.422,70.064Zm7.958,11.61V75.652a4.093,4.093,0,0,0-4.088-4.088h-3.87a4.093,4.093,0,0,0-4.088,4.088v6.022Z" fill="#bc1323"/><path d="M79.615,64.922A4.925,4.925,0,1,1,74.69,60a4.925,4.925,0,0,1,4.925,4.926" fill="#fff"/><path d="M74.69,70.6a5.675,5.675,0,1,1,5.675-5.675A5.682,5.682,0,0,1,74.69,70.6Zm0-9.851a4.175,4.175,0,1,0,4.175,4.176A4.181,4.181,0,0,0,74.69,60.746Z" fill="#bc1323"/><path d="M81.463,75.652a4.838,4.838,0,0,0-4.838-4.838h-3.87a4.838,4.838,0,0,0-4.838,4.838v6.772H81.463Z" fill="#ff97a1"/><path d="M72.755,70.064h3.87a5.594,5.594,0,0,1,5.588,5.588v7.522H67.167V75.652A5.594,5.594,0,0,1,72.755,70.064Zm7.958,11.61V75.652a4.093,4.093,0,0,0-4.088-4.088h-3.87a4.093,4.093,0,0,0-4.088,4.088v6.022Z" fill="#bc1323"/></g></g></g></svg>