<svg xmlns="http://www.w3.org/2000/svg" xmlns:xlink="http://www.w3.org/1999/xlink" width="160" height="160" viewBox="0 0 160 160"><defs><clipPath id="a"><rect width="54.094" height="65.186" transform="translate(0 0)" fill="none"/></clipPath></defs><g transform="translate(-446 -4627)"><circle cx="80" cy="80" r="80" transform="translate(446 4627)" fill="#ffecec"/><g transform="translate(498.953 4674.407)"><g clip-path="url(#a)"><path d="M27.047,33.561a25.8,25.8,0,0,0-25.8,25.8v4.578H52.844V59.358a25.8,25.8,0,0,0-25.8-25.8" fill="#ff97a1"/><path d="M27.047,32.811A26.525,26.525,0,0,1,53.594,59.358v4.578a.75.75,0,0,1-.75.75H1.25a.75.75,0,0,1-.75-.75V59.358A26.526,26.526,0,0,1,27.047,32.811ZM52.094,63.186V59.358A25.047,25.047,0,1,0,2,59.358v3.828Z" fill="#bc1323"/><path d="M39.443,24.322c0,7.7-5.552,13.943-12.4,13.943s-12.4-6.244-12.4-13.943,5.552-13.941,12.4-13.941,12.4,6.244,12.4,13.941" fill="#fff"/><path d="M27.048,9.631a12.405,12.405,0,0,1,9.324,4.336,15.519,15.519,0,0,1,3.821,10.355,15.523,15.523,0,0,1-3.821,10.357,12.2,12.2,0,0,1-18.65,0A15.522,15.522,0,0,1,13.9,24.322a15.518,15.518,0,0,1,3.821-10.355A12.408,12.408,0,0,1,27.048,9.631Zm0,27.884c6.421,0,11.645-5.918,11.645-13.193S33.469,11.131,27.048,11.131,15.4,17.048,15.4,24.322,20.626,37.515,27.048,37.515Z" fill="#bc1323"/><path d="M26.886,46.687a.75.75,0,0,1,0-1.5c9.856,0,17.874-6.93,17.874-15.448V17.449C44.76,8.93,36.742,2,26.886,2S9.01,8.93,9.01,17.449v12.29a.75.75,0,0,1-1.5,0V17.449a15.053,15.053,0,0,1,1.539-6.634,16.968,16.968,0,0,1,4.174-5.387A20.747,20.747,0,0,1,26.886.5,20.743,20.743,0,0,1,40.547,5.428a16.969,16.969,0,0,1,4.174,5.387,15.053,15.053,0,0,1,1.539,6.634v12.29a15.051,15.051,0,0,1-1.539,6.633,16.968,16.968,0,0,1-4.174,5.387A20.744,20.744,0,0,1,26.886,46.687Z" fill="#bc1323"/><path d="M30.5,44.3a2.352,2.352,0,0,1-2.351,2.352H24.9a2.352,2.352,0,1,1,0-4.7h3.256A2.352,2.352,0,0,1,30.5,44.3" fill="#fff"/><path d="M24.9,41.2h3.256a3.1,3.1,0,0,1,0,6.2H24.9a3.1,3.1,0,1,1,0-6.2Zm3.256,4.7a1.6,1.6,0,0,0,0-3.2H24.9a1.6,1.6,0,1,0,0,3.2Z" transform="translate(0 0.146)" fill="#bc1323"/><path d="M13.463,18.9a7.159,7.159,0,1,0,1.669,14.114V19.107a7.175,7.175,0,0,0-1.669-.2" fill="#fff"/><path d="M13.463,18.154a7.967,7.967,0,0,1,1.843.223.75.75,0,0,1,.576.73V33.018a.75.75,0,0,1-.576.73,7.906,7.906,0,1,1-1.843-15.594Zm.919,1.57a6.119,6.119,0,0,0-.919-.07,6.409,6.409,0,0,0,0,12.817,6.119,6.119,0,0,0,.919-.07Z" fill="#bc1323"/><path d="M40.629,18.9a7.159,7.159,0,1,1-1.667,14.114V19.107a7.157,7.157,0,0,1,1.667-.2" fill="#fff"/><path d="M40.629,18.154a7.909,7.909,0,1,1-1.841,15.593.75.75,0,0,1-.576-.729V19.107a.75.75,0,0,1,.576-.729A7.946,7.946,0,0,1,40.629,18.154Zm0,14.317a6.409,6.409,0,1,0,0-12.817,6.169,6.169,0,0,0-.917.07V32.4A6.169,6.169,0,0,0,40.629,32.471Z" fill="#bc1323"/><line y2="1.742" transform="translate(23.063 22.836)" fill="#fff"/><path d="M0,2.492a.75.75,0,0,1-.75-.75V0A.75.75,0,0,1,0-.75.75.75,0,0,1,.75,0V1.742A.75.75,0,0,1,0,2.492Z" transform="translate(23.063 22.836)" fill="#bc1323"/><line y2="1.742" transform="translate(31.031 22.836)" fill="#fff"/><path d="M0,2.492a.75.75,0,0,1-.75-.75V0A.75.75,0,0,1,0-.75.75.75,0,0,1,.75,0V1.742A.75.75,0,0,1,0,2.492Z" transform="translate(31.031 22.836)" fill="#bc1323"/><path d="M30.219,29.139a4.49,4.49,0,0,1-6.342,0" fill="#fff"/><path d="M27.047,31.2a5.194,5.194,0,0,1-3.7-1.531.75.75,0,1,1,1.061-1.06,3.74,3.74,0,0,0,5.281,0,.75.75,0,0,1,1.061,1.061A5.2,5.2,0,0,1,27.047,31.2Z" fill="#bc1323"/></g></g></g></svg>