<svg xmlns="http://www.w3.org/2000/svg" width="160" height="160" viewBox="0 0 160 160"><g transform="translate(-1316 -4627)"><circle cx="80" cy="80" r="80" transform="translate(1316 4627)" fill="#ffecec"/><g transform="translate(1360.819 4666.055)"><path d="M32.836,74.116v0Z" fill="#fff"/><path d="M0,19.849a.75.75,0,0,1-.75-.75V0A.75.75,0,0,1,0-.75.75.75,0,0,1,.75,0V19.1A.75.75,0,0,1,0,19.849Z" transform="translate(32.836 55.018)" fill="#bc1323"/><path d="M10.158,73.42h0Z" fill="#fff"/><path d="M45.356.75H0A.75.75,0,0,1-.75,0,.75.75,0,0,1,0-.75H45.356a.75.75,0,0,1,.75.75A.75.75,0,0,1,45.356.75Z" transform="translate(10.158 73.42)" fill="#bc1323"/><path d="M39,73.42a6.168,6.168,0,1,1-6.168-6.166A6.169,6.169,0,0,1,39,73.42" fill="#fff"/><path d="M32.836,80.338a6.917,6.917,0,1,1,6.918-6.918A6.925,6.925,0,0,1,32.836,80.338Zm0-12.334a5.417,5.417,0,1,0,5.418,5.416A5.423,5.423,0,0,0,32.836,68Z" fill="#707070"/><path d="M32.836,66.5a6.917,6.917,0,1,1-6.917,6.916A6.925,6.925,0,0,1,32.836,66.5Zm0,12.334a5.417,5.417,0,1,0-5.417-5.418A5.424,5.424,0,0,0,32.836,78.838Z" fill="#bc1323"/><path d="M13.585,73.42a6.168,6.168,0,1,1-6.168-6.166,6.169,6.169,0,0,1,6.168,6.166" fill="#fff"/><path d="M7.417,80.338a6.917,6.917,0,1,1,6.918-6.918A6.925,6.925,0,0,1,7.417,80.338ZM7.417,68a5.417,5.417,0,1,0,5.418,5.416A5.423,5.423,0,0,0,7.417,68Z" fill="#707070"/><path d="M7.417,66.5A6.917,6.917,0,1,1,.5,73.42,6.925,6.925,0,0,1,7.417,66.5Zm0,12.334A5.417,5.417,0,1,0,2,73.42,5.424,5.424,0,0,0,7.417,78.838Z" fill="#bc1323"/><path d="M64.422,73.42a6.166,6.166,0,1,1-6.165-6.166,6.167,6.167,0,0,1,6.165,6.166" fill="#fff"/><path d="M58.257,80.338a6.917,6.917,0,1,1,6.915-6.918A6.925,6.925,0,0,1,58.257,80.338Zm0-12.334a5.417,5.417,0,1,0,5.415,5.416A5.423,5.423,0,0,0,58.257,68Z" fill="#707070"/><path d="M58.257,66.5A6.917,6.917,0,1,1,51.34,73.42,6.923,6.923,0,0,1,58.257,66.5Zm0,12.334A5.417,5.417,0,1,0,52.84,73.42,5.423,5.423,0,0,0,58.257,78.838Z" fill="#bc1323"/><path d="M32.836,16.635A20.791,20.791,0,0,0,12.048,37.424H25.525c0-11.48,3.275-20.789,7.311-20.789" fill="#ff97a1"/><path d="M32.836,15.885a.75.75,0,1,1,0,1.5,3.107,3.107,0,0,0-2.268,1.363,14.078,14.078,0,0,0-2.193,4.225,45.255,45.255,0,0,0-2.1,14.451.75.75,0,0,1-.75.75H12.048a.75.75,0,0,1-.75-.75A21.523,21.523,0,0,1,32.836,15.885ZM24.78,36.674a46.005,46.005,0,0,1,2.18-14.2,15.323,15.323,0,0,1,2.455-4.686l.111-.131A20.074,20.074,0,0,0,12.812,36.674Z" fill="#bc1323"/><path d="M25.524,37.424H12.047A20.79,20.79,0,0,0,32.835,58.213c-4.036,0-7.311-9.308-7.311-20.789" fill="#ff97a1"/><path d="M12.047,36.674H25.524a.75.75,0,0,1,.75.75,45.255,45.255,0,0,0,2.1,14.451A14.076,14.076,0,0,0,30.567,56.1a3.107,3.107,0,0,0,2.268,1.363.75.75,0,0,1,0,1.5A21.522,21.522,0,0,1,11.3,37.424.75.75,0,0,1,12.047,36.674Zm12.732,1.5H12.811A20.074,20.074,0,0,0,29.524,57.19l-.111-.131a15.321,15.321,0,0,1-2.455-4.686A46.006,46.006,0,0,1,24.779,38.174Z" fill="#bc1323"/><path d="M32.836,16.635c4.041,0,7.313,9.309,7.313,20.789H53.624A20.788,20.788,0,0,0,32.836,16.635" fill="#ff97a1"/><path d="M54.374,38.174H39.4v-.75a45.261,45.261,0,0,0-2.1-14.451,14.067,14.067,0,0,0-2.194-4.225,3.11,3.11,0,0,0-2.271-1.363v-1.5A21.521,21.521,0,0,1,54.374,37.424Zm-13.48-1.5H52.86A20.073,20.073,0,0,0,36.149,17.659l.111.13a15.312,15.312,0,0,1,2.455,4.686A46.012,46.012,0,0,1,40.894,36.674Z" fill="#707070"/><path d="M32.836,15.885A21.521,21.521,0,0,1,54.374,37.424a.75.75,0,0,1-.75.75H40.149a.75.75,0,0,1-.75-.75,45.261,45.261,0,0,0-2.1-14.451,14.067,14.067,0,0,0-2.194-4.225,3.11,3.11,0,0,0-2.271-1.363.75.75,0,0,1,0-1.5ZM52.86,36.674A20.073,20.073,0,0,0,36.149,17.659l.111.13a15.312,15.312,0,0,1,2.455,4.686,46.012,46.012,0,0,1,2.179,14.2Z" fill="#bc1323"/><path d="M32.836,58.213A20.788,20.788,0,0,0,53.624,37.424H40.149c0,11.48-3.272,20.789-7.313,20.789" fill="#ff97a1"/><path d="M32.836,58.963a.75.75,0,0,1,0-1.5A3.11,3.11,0,0,0,35.107,56.1,14.067,14.067,0,0,0,37.3,51.875a45.261,45.261,0,0,0,2.1-14.451.75.75,0,0,1,.75-.75H53.624a.75.75,0,0,1,.75.75A21.52,21.52,0,0,1,32.836,58.963Zm8.058-20.789a46.012,46.012,0,0,1-2.179,14.2,15.312,15.312,0,0,1-2.455,4.686l-.111.13A20.073,20.073,0,0,0,52.86,38.174Z" fill="#bc1323"/><path d="M25.524,37.424H40.148c0-11.48-3.271-20.789-7.313-20.789s-7.311,9.309-7.311,20.789" fill="#ff97a1"/><path d="M40.148,38.174H25.524a.75.75,0,0,1-.75-.75,46.767,46.767,0,0,1,2.184-14.948,15.323,15.323,0,0,1,2.455-4.686,4.5,4.5,0,0,1,3.422-1.9,4.5,4.5,0,0,1,3.424,1.9,15.31,15.31,0,0,1,2.455,4.686A46.778,46.778,0,0,1,40.9,37.424.75.75,0,0,1,40.148,38.174Zm-13.869-1.5H39.393a44.475,44.475,0,0,0-2.094-13.7,14.065,14.065,0,0,0-2.193-4.225,3.11,3.11,0,0,0-2.271-1.364,3.107,3.107,0,0,0-2.268,1.363,14.078,14.078,0,0,0-2.193,4.225A44.465,44.465,0,0,0,26.279,36.674Z" fill="#bc1323"/><path d="M40.148,37.424H25.524c0,11.481,3.275,20.789,7.311,20.789s7.313-9.308,7.313-20.789" fill="#ff97a1"/><path d="M25.524,36.674H40.148a.75.75,0,0,1,.75.75,46.779,46.779,0,0,1-2.183,14.949,15.309,15.309,0,0,1-2.455,4.686,4.5,4.5,0,0,1-3.424,1.9,4.5,4.5,0,0,1-3.422-1.9,15.321,15.321,0,0,1-2.455-4.686,46.767,46.767,0,0,1-2.184-14.949A.75.75,0,0,1,25.524,36.674Zm13.869,1.5H26.279a44.465,44.465,0,0,0,2.095,13.7A14.076,14.076,0,0,0,30.567,56.1a3.107,3.107,0,0,0,2.268,1.363A3.11,3.11,0,0,0,35.106,56.1,14.063,14.063,0,0,0,37.3,51.875,44.475,44.475,0,0,0,39.393,38.174Z" fill="#bc1323"/><path d="M69.862,20.623h-1.5A18.622,18.622,0,0,0,49.739,2V.5A20.1,20.1,0,0,1,69.862,20.623Z" fill="#707070"/><path d="M69.112,21.373a.75.75,0,0,1-.75-.75A18.622,18.622,0,0,0,49.739,2a.75.75,0,0,1,0-1.5A20.1,20.1,0,0,1,69.862,20.623.75.75,0,0,1,69.112,21.373Z" fill="#bc1323"/><path d="M63.315,20.623h-1.5A12.079,12.079,0,0,0,49.749,8.547h-.008v-1.5A13.579,13.579,0,0,1,63.315,20.623Z" fill="#707070"/><path d="M62.565,21.373h0a.75.75,0,0,1-.75-.75A12.079,12.079,0,0,0,49.749,8.547h-.008a.75.75,0,0,1,0-1.5A13.579,13.579,0,0,1,63.315,20.623.75.75,0,0,1,62.565,21.373Z" fill="#bc1323"/><path d="M56.767,20.621h-1.5A5.524,5.524,0,0,0,49.743,15.1V13.6a7.024,7.024,0,0,1,7.024,7.025Z" fill="#707070"/><path d="M56.017,21.371a.75.75,0,0,1-.75-.75A5.524,5.524,0,0,0,49.743,15.1a.75.75,0,0,1,0-1.5,7.024,7.024,0,0,1,7.024,7.025A.75.75,0,0,1,56.017,21.371Z" fill="#bc1323"/></g></g></svg>