<svg xmlns="http://www.w3.org/2000/svg" xmlns:xlink="http://www.w3.org/1999/xlink" width="257" height="87" viewBox="0 0 257 87"><defs><clipPath id="a"><rect width="257" height="87" transform="translate(755 338)" fill="#ffaeae"/></clipPath><clipPath id="b"><rect width="230.986" height="54" fill="none"/></clipPath><clipPath id="c"><path d="M58.311,0a10.727,10.727,0,0,0-8.12,3.4L45.306,9.226C47.283,6.892,51.35,4.709,55.1,5.375c4.968.885,5.6,5.938,3.689,8.771-2.3,3.412-8.15,4.186-12.166,4.186H37.665l-7.98,9.511h12.66c7.169,0,18.837.813,24.97-8.105,3.5-5.091,4.1-13.549-1.978-17.63A12.469,12.469,0,0,0,58.439,0Z" transform="translate(-29.685)" fill="none"/></clipPath><linearGradient id="d" x1="-0.439" y1="1.286" x2="-0.422" y2="1.286" gradientUnits="objectBoundingBox"><stop offset="0" stop-color="#aa2c00"/><stop offset="0.058" stop-color="#bd4400"/><stop offset="0.164" stop-color="#db6b00"/><stop offset="0.248" stop-color="#ee8400"/><stop offset="0.3" stop-color="#f68d00"/><stop offset="1" stop-color="#f68d00"/></linearGradient><clipPath id="e"><path d="M2.623,18.88c-3.5,5.09-4.1,13.548,1.977,17.63,5.313,3.566,12.191,2.25,15.145-1.3l4.886-5.822c-1.978,2.334-6.043,4.517-9.792,3.85-4.968-.884-5.6-5.938-3.69-8.771,2.3-3.411,8.15-4.186,12.166-4.186h8.956l7.982-9.51H27.592c-1.1,0-2.317-.02-3.6-.02-7.036,0-16.184.581-21.371,8.125" transform="translate(0 -10.755)" fill="none"/></clipPath><linearGradient id="f" x1="0.101" y1="1.101" x2="0.118" y2="1.101" xlink:href="#d"/></defs><g transform="translate(-755 -338)"><g clip-path="url(#a)"><g transform="translate(768 355)"><path d="M128.114,61.084l-1.193,1.63v-1.63h-.4v3.708h.4V62.974l1.246,1.817h.584l-1.418-1.955,1.314-1.753Z" transform="translate(-22.988 -11.099)" fill="#767572"/><g transform="translate(0 0)"><g clip-path="url(#b)"><path d="M130.589,61.006c.85,0,1.347.817,1.347,1.918,0,1.126-.493,1.917-1.347,1.917s-1.345-.791-1.345-1.917c0-1.1.5-1.918,1.345-1.918m0,3.367c.645,0,.922-.711.922-1.449,0-.754-.305-1.457-.922-1.452s-.921.7-.921,1.452c0,.738.277,1.449.921,1.449" transform="translate(-23.483 -11.084)" fill="#767572"/><path d="M133.166,61.084h.685c.553,0,1.086.116,1.086,1a.811.811,0,0,1-.577.844v.011c.124.064.183.144.272.371l.529,1.479H134.7l-.429-1.286c-.124-.362-.255-.362-.469-.362h-.24v1.648h-.4Zm.4,1.593h.34a.547.547,0,0,0,.6-.58.5.5,0,0,0-.561-.547h-.385Z" transform="translate(-24.195 -11.099)" fill="#767572"/><path d="M136.113,61.084h1.567v.466h-1.166v1.084h1.061V63.1h-1.061v1.221h1.166v.468h-1.567Z" transform="translate(-24.731 -11.099)" fill="#767572"/><path d="M139.58,61.084H140l1.183,3.708h-.438l-.284-.935h-1.371l-.285.935h-.42Zm.2.5-.558,1.84h1.115Z" transform="translate(-25.144 -11.099)" fill="#767572"/><rect width="0.4" height="3.708" transform="translate(117.478 49.985)" fill="#767572"/><path d="M144.862,61.084h.545l1.235,2.984h.007V61.084h.4v3.708h-.512l-1.267-3.049h-.008v3.049h-.4Z" transform="translate(-26.321 -11.099)" fill="#767572"/><path d="M149.6,61.628a.976.976,0,0,0-.525-.155.449.449,0,0,0-.489.493c0,.713,1.2.548,1.2,1.769a.968.968,0,0,1-1.021,1.106,1.476,1.476,0,0,1-.574-.155l.04-.493a1.358,1.358,0,0,0,.582.18.561.561,0,0,0,.549-.606c0-.827-1.2-.6-1.2-1.751a.9.9,0,0,1,.9-1.011,1.444,1.444,0,0,1,.6.133Z" transform="translate(-26.92 -11.084)" fill="#767572"/><path d="M151.281,61.551h-.869v-.466h2.14v.466h-.869v3.241h-.4Z" transform="translate(-27.329 -11.099)" fill="#767572"/><rect width="0.401" height="3.708" transform="translate(125.589 49.985)" fill="#767572"/><path d="M155.277,61.551h-.871v-.466h2.142v.466h-.871v3.241h-.4Z" transform="translate(-28.055 -11.099)" fill="#767572"/><path d="M159.644,63.256c0,1.04-.4,1.6-1.084,1.6s-1.087-.56-1.087-1.6V61.084h.4v2.1c0,.711.168,1.2.686,1.2s.684-.489.684-1.2v-2.1h.4Z" transform="translate(-28.612 -11.099)" fill="#767572"/><path d="M161.45,61.551h-.869v-.466h2.139v.466h-.869v3.241h-.4Z" transform="translate(-29.177 -11.099)" fill="#767572"/><path d="M163.657,61.084h1.565v.466h-1.166v1.084h1.062V63.1h-1.062v1.221h1.166v.468h-1.565Z" transform="translate(-29.735 -11.099)" fill="#767572"/><path d="M168.449,62.226c.621,0,1.039.595,1.039,1.418,0,.775-.426,1.419-1.039,1.419s-1.041-.644-1.041-1.419c0-.823.417-1.418,1.041-1.418m0,2.433c.441,0,.637-.53.637-1.015,0-.515-.236-1.015-.637-1.015s-.64.5-.64,1.015c0,.484.2,1.015.64,1.015" transform="translate(-30.417 -11.306)" fill="#767572"/><path d="M170.651,62.41h-.481v-.4h.481v-.251c0-.659.128-1.088.684-1.088a1.226,1.226,0,0,1,.254.032l-.016.4a.449.449,0,0,0-.181-.034c-.325,0-.364.277-.364.644v.293h.541v.4h-.541v2.306h-.376Z" transform="translate(-30.919 -11.023)" fill="#767572"/><path d="M175.571,61.68a.919.919,0,0,0-.576-.208c-.646,0-1.075.617-1.075,1.452,0,.871.475,1.449,1.055,1.449a1.1,1.1,0,0,0,.609-.181l.024.515a1.341,1.341,0,0,1-.637.134c-.885,0-1.475-.754-1.475-1.934,0-1.142.626-1.9,1.479-1.9a1.214,1.214,0,0,1,.629.16Z" transform="translate(-31.523 -11.084)" fill="#767572"/><rect width="0.401" height="3.708" transform="translate(144.523 49.985)" fill="#767572"/><path d="M179.087,64.792h-.5l-1.053-3.708h.449l.86,3.24h.009l.885-3.24h.421Z" transform="translate(-32.257 -11.099)" fill="#767572"/><rect width="0.401" height="3.708" transform="translate(148.258 49.985)" fill="#767572"/><path d="M182.46,61.084h.4v3.24h1.17v.468H182.46Z" transform="translate(-33.152 -11.099)" fill="#767572"/><path d="M186.2,61.084h1.566v.466H186.6v1.084h1.063V63.1H186.6v1.221h1.166v.468H186.2Z" transform="translate(-33.832 -11.099)" fill="#767572"/><path d="M188.781,61.084h.545l1.235,2.984h.008V61.084h.4v3.708h-.512l-1.267-3.049h-.009v3.049h-.4Z" transform="translate(-34.3 -11.099)" fill="#767572"/><path d="M194.355,61.729a1.052,1.052,0,0,0-.768-.255c-.646,0-1.074.621-1.074,1.451,0,.871.472,1.449,1.054,1.449a1.211,1.211,0,0,0,.448-.064V63.184h-.589v-.436h.99v1.93a1.993,1.993,0,0,1-.853.164c-.885,0-1.475-.754-1.475-1.934,0-1.142.624-1.9,1.479-1.9a1.669,1.669,0,0,1,.822.186Z" transform="translate(-34.901 -11.084)" fill="#767572"/><rect width="0.402" height="3.708" transform="translate(160.174 49.985)" fill="#767572"/><path d="M197.037,61.084h.546l1.234,2.984h.008V61.084h.4v3.708h-.513l-1.265-3.049h-.009v3.049h-.4Z" transform="translate(-35.8 -11.099)" fill="#767572"/><path d="M200.542,61.084h1.566v.466h-1.166v1.084H202V63.1h-1.061v1.221h1.166v.468h-1.566Z" transform="translate(-36.437 -11.099)" fill="#767572"/><path d="M203.133,61.084H204.7v.466h-1.167v1.084H204.6V63.1h-1.063v1.221H204.7v.468h-1.567Z" transform="translate(-36.908 -11.099)" fill="#767572"/><path d="M205.7,61.084h.686c.552,0,1.086.116,1.086,1a.811.811,0,0,1-.578.844v.011c.124.064.184.144.273.371l.529,1.479h-.457l-.428-1.286c-.124-.362-.257-.362-.469-.362H206.1v1.648h-.4Zm.4,1.593h.341a.546.546,0,0,0,.6-.58.5.5,0,0,0-.56-.547H206.1Z" transform="translate(-37.375 -11.099)" fill="#767572"/><rect width="0.4" height="3.708" transform="translate(170.727 49.985)" fill="#767572"/><path d="M209.934,61.084h.545l1.234,2.984h.009V61.084h.4v3.708h-.514l-1.266-3.049h-.008v3.049h-.4Z" transform="translate(-38.144 -11.099)" fill="#767572"/><path d="M215.508,61.729a1.053,1.053,0,0,0-.768-.255c-.646,0-1.074.621-1.074,1.451,0,.871.472,1.449,1.053,1.449a1.223,1.223,0,0,0,.449-.064V63.184h-.59v-.436h.99v1.93a1.99,1.99,0,0,1-.853.164c-.885,0-1.475-.754-1.475-1.934,0-1.142.625-1.9,1.479-1.9a1.667,1.667,0,0,1,.822.186Z" transform="translate(-38.744 -11.084)" fill="#767572"/><path d="M218.239,62.48a1.079,1.079,0,0,1,.673-.254c.585,0,.822.382.822,1.121v1.12c0,.309.008.452.016.532H219.4v-.35h-.008a.729.729,0,0,1-.633.414c-.442,0-.75-.255-.75-.845a.88.88,0,0,1,.948-.892c.148,0,.252,0,.4.01,0-.466-.128-.706-.5-.706a.83.83,0,0,0-.592.277Zm1.118,1.227c-.08,0-.16-.011-.241-.011-.2,0-.709.043-.709.521a.411.411,0,0,0,.381.441c.372,0,.569-.309.569-.711Z" transform="translate(-39.611 -11.306)" fill="#767572"/><path d="M220.809,62.291h.364v.43h.008a.723.723,0,0,1,.669-.493c.529,0,.766.435.766,1.162V65h-.377V63.6c0-.632-.1-.94-.432-.967-.43,0-.621.457-.621,1.115V65h-.377Z" transform="translate(-40.12 -11.306)" fill="#767572"/><path d="M225.159,64.348h-.008a.783.783,0,0,1-.7.446c-.619,0-.879-.727-.879-1.467s.289-1.37.882-1.37a.7.7,0,0,1,.677.435h.008V60.746h.376V64.73h-.361Zm-.617.042c.425,0,.6-.558.6-1.01,0-.5-.2-1.02-.6-1.02s-.569.51-.561,1c-.007.424.16,1.025.565,1.025" transform="translate(-40.622 -11.037)" fill="#767572"/><path d="M228.014,61.084h.757c.58,0,.981.248.981.935a.819.819,0,0,1-.576.883v.009a.8.8,0,0,1,.649.892c0,.8-.5.989-1.066.989h-.745Zm.4,1.582h.219c.39,0,.718-.047.718-.594a.487.487,0,0,0-.516-.553h-.421Zm0,1.69h.3c.361,0,.685-.1.685-.6,0-.575-.381-.653-.726-.653h-.259Z" transform="translate(-41.429 -11.099)" fill="#767572"/><path d="M232.958,63.256c0,1.04-.4,1.6-1.087,1.6s-1.085-.56-1.085-1.6V61.084h.4v2.1c0,.711.168,1.2.685,1.2s.686-.489.686-1.2v-2.1h.4Z" transform="translate(-41.932 -11.099)" fill="#767572"/><rect width="0.401" height="3.708" transform="translate(191.694 49.985)" fill="#767572"/><path d="M235.556,61.084h.4v3.24h1.172v.468h-1.571Z" transform="translate(-42.799 -11.099)" fill="#767572"/><path d="M237.931,61.084h.825c.831,0,1.491.679,1.491,1.822,0,1.241-.57,1.885-1.491,1.885h-.825Zm.4,3.24h.421c.69,0,1.07-.441,1.07-1.4,0-.868-.444-1.378-1.021-1.378h-.47Z" transform="translate(-43.231 -11.099)" fill="#767572"/><rect width="0.399" height="3.708" transform="translate(197.55 49.985)" fill="#767572"/><path d="M242.71,61.084h.547l1.234,2.984h.008V61.084h.4v3.708h-.515l-1.266-3.049h-.008v3.049h-.4Z" transform="translate(-44.099 -11.099)" fill="#767572"/><path d="M248.286,61.729a1.056,1.056,0,0,0-.77-.255c-.645,0-1.073.621-1.073,1.451,0,.871.471,1.449,1.053,1.449a1.22,1.22,0,0,0,.449-.064V63.184h-.59v-.436h.991v1.93a2,2,0,0,1-.853.164c-.887,0-1.476-.754-1.476-1.934,0-1.142.624-1.9,1.479-1.9a1.671,1.671,0,0,1,.822.186Z" transform="translate(-44.7 -11.084)" fill="#767572"/><path d="M251.482,61.551h-.87v-.466h2.141v.466h-.87v3.241h-.4Z" transform="translate(-45.535 -11.099)" fill="#767572"/><path d="M253.686,61.084h1.568v.466h-1.167v1.084h1.063V63.1h-1.063v1.221h1.167v.468h-1.568Z" transform="translate(-46.093 -11.099)" fill="#767572"/><path d="M258.12,61.68a.917.917,0,0,0-.577-.208c-.644,0-1.073.617-1.073,1.452,0,.871.472,1.449,1.053,1.449a1.105,1.105,0,0,0,.61-.181l.024.515a1.344,1.344,0,0,1-.637.134c-.885,0-1.474-.754-1.474-1.934,0-1.142.624-1.9,1.478-1.9a1.217,1.217,0,0,1,.63.16Z" transform="translate(-46.522 -11.084)" fill="#767572"/><path d="M259.163,61.084h.4v1.551H260.9V61.084h.4v3.708h-.4V63.1h-1.338v1.689h-.4Z" transform="translate(-47.088 -11.099)" fill="#767572"/><path d="M262.608,61.084h.543l1.236,2.984h.008V61.084h.4v3.708h-.513l-1.266-3.049h-.008v3.049h-.4Z" transform="translate(-47.714 -11.099)" fill="#767572"/><path d="M267.247,61.006c.849,0,1.346.817,1.346,1.918,0,1.126-.493,1.917-1.346,1.917s-1.347-.791-1.347-1.917c0-1.1.5-1.918,1.347-1.918m0,3.367c.644,0,.921-.711.921-1.449,0-.754-.3-1.457-.921-1.452s-.922.7-.922,1.452c0,.738.277,1.449.922,1.449" transform="translate(-48.313 -11.084)" fill="#767572"/><path d="M269.833,61.084h.4v3.24h1.17v.468h-1.571Z" transform="translate(-49.027 -11.099)" fill="#767572"/><path d="M273.284,61.006c.85,0,1.346.817,1.346,1.918,0,1.126-.493,1.917-1.346,1.917s-1.346-.791-1.346-1.917c0-1.1.5-1.918,1.346-1.918m0,3.367c.646,0,.922-.711.922-1.449,0-.754-.305-1.457-.922-1.452s-.921.7-.921,1.452c0,.738.275,1.449.921,1.449" transform="translate(-49.41 -11.084)" fill="#767572"/><path d="M277.964,61.729a1.055,1.055,0,0,0-.768-.255c-.646,0-1.074.621-1.074,1.451,0,.871.473,1.449,1.053,1.449a1.213,1.213,0,0,0,.449-.064V63.184h-.588v-.436h.988v1.93a1.975,1.975,0,0,1-.852.164c-.885,0-1.475-.754-1.475-1.934,0-1.142.625-1.9,1.479-1.9a1.662,1.662,0,0,1,.822.186Z" transform="translate(-50.092 -11.084)" fill="#767572"/><path d="M280.047,63.24l-1.093-2.156h.468l.835,1.662.812-1.662h.47l-1.09,2.156v1.552h-.4Z" transform="translate(-50.684 -11.099)" fill="#767572"/><path d="M206.617,41.318V54.26h1.3a.942.942,0,0,0,.941-.94v-12Zm-9.169,1.3H201.9v.048c0,.242-.059,5.933-4.884,6.428v1.242a7.294,7.294,0,0,0,7.187-7.67v-1.2h-6.756Z" transform="translate(-35.797 -7.507)" fill="#767572"/><path d="M227.133,47.284V46.135H214.125v1.149h5.359v1.2h-4.515v1.149h8.975v1.12h-8.975v2.415a1.065,1.065,0,0,0,1.065,1.065h10.134V53.079h-8.976V51.9h8.976V48.48h-4.461v-1.2Zm-6.582-3.515.031.029c1.133,1.013,3.035,1.56,5.654,1.625v-1.11c-.444-.011-4.218-.209-4.438-3.158H219.3v.016c-.232,2.934-3.994,3.129-4.439,3.142v1.11c2.619-.065,4.523-.612,5.654-1.625Z" transform="translate(-38.905 -7.478)" fill="#767572"/><path d="M260.889,47.74a.984.984,0,0,0,.664-.943V41.5H250.5v1.155h8.827V47.74h-9.716V48.9h5.274v5.4h1.285a.943.943,0,0,0,.939-.94V48.9h5.509V47.74Z" transform="translate(-45.353 -7.541)" fill="#767572"/><path d="M239.811,46.91l.015-.021h2.515v3.689h1.3a.94.94,0,0,0,.939-.939V41.286h-2.236v1.665h-2.455l-.015-.022a4.045,4.045,0,0,0-3.476-1.792,3.746,3.746,0,1,0,0,7.469,4.027,4.027,0,0,0,3.416-1.7m.534-1.236a3.7,3.7,0,0,0,.09-.8,3.664,3.664,0,0,0-.07-.707l-.011-.056h1.988v1.625h-2.009Zm-5.752-.8c0-1.437.774-2.522,1.8-2.522s1.8,1.085,1.8,2.522-.775,2.524-1.8,2.524-1.8-1.086-1.8-2.524m1.439,8.205V49.582h-2.223v3.579a1.064,1.064,0,0,0,1.063,1.064h9.842V53.076Z" transform="translate(-42.218 -7.474)" fill="#767572"/><path d="M271.793,51.4h2.132V48.56h3.3v.966h-2.217v1.15h2.217v1.065h1.283a.941.941,0,0,0,.939-.941V41.294h-2.223v6.117h-9.766V48.56h4.335Zm.2-4.647c2.272,0,3.921-1.169,3.921-2.777s-1.648-2.774-3.921-2.774-3.919,1.166-3.919,2.774,1.648,2.777,3.919,2.777m0-4.4a1.622,1.622,0,1,1-1.694,1.62,1.605,1.605,0,0,1,1.694-1.62M270.7,53.088V49.8h-2.223v3.376a1.064,1.064,0,0,0,1.065,1.064h10.044V53.088Z" transform="translate(-48.596 -7.486)" fill="#767572"/><path d="M189.064,41.3v1.872h-2.758v1.157h2.758v3.335h1.295a.94.94,0,0,0,.941-.942V41.3Zm-5.975,4.042.036-.043.036.043a6.459,6.459,0,0,0,4.209,1.993l.2.015V46.24l-.212-.028c-.031,0-3.069-.439-3.069-4.365,0-.057,0-.116,0-.175V41.31h-2.335v.436c0,4.017-3.035,4.462-3.068,4.465l-.211.028v1.112l.2-.015a6.455,6.455,0,0,0,4.207-1.993M180.3,48.408v1.147h8.774v1.169H180.3V53.19a1.066,1.066,0,0,0,1.065,1.065H191.3v-1.15h-8.774V51.873H191.3V48.408Z" transform="translate(-32.465 -7.504)" fill="#767572"/><path d="M136.982,43.792V41.167h-2.236v9.292h1.3a.941.941,0,0,0,.94-.939V44.95h1.834V43.792Zm-8.546,5.671h-2.224v3.578a1.065,1.065,0,0,0,1.065,1.065h9.84V52.957h-8.681Zm4.811-7.92h-3.008V40.483h-2.371v1.061H124.86V42.7h8.387Zm-.1,4.244c0-1.528-1.718-2.767-4.163-2.767s-4.162,1.239-4.162,2.767,1.7,2.765,4.162,2.765c2.432,0,4.163-1.237,4.163-2.765m-5.97,0a1.82,1.82,0,1,1,1.807,1.608,1.673,1.673,0,0,1-1.807-1.608" transform="translate(-22.68 -7.356)" fill="#767572"/><path d="M156.137,47.392V46.236H154.4a.96.96,0,0,0,.664-.943V41.338h-11.05v1.155h8.828v3.743h-9.716v1.155H148.4v2.092h-4.386V50.64h8.828v3.623h1.283a.94.94,0,0,0,.939-.939V49.484h-4.44V47.392Z" transform="translate(-26.006 -7.511)" fill="#767572"/><path d="M164.95,53.108V49.615h-2.223v3.578a1.065,1.065,0,0,0,1.065,1.065h9.933v-1.15ZM168.5,44.19v.932h2.757v5.488h1.294a.942.942,0,0,0,.943-.942V41.318h-2.236v2.647h-2.7a6.216,6.216,0,0,0,.172-1.49V41.318h-6.944v1.157h4.641s.1,4.534-5.087,4.774v1.088s5.91.16,7.158-4.147" transform="translate(-29.316 -7.507)" fill="#767572"/></g></g><g transform="translate(24.291)"><g clip-path="url(#c)"><rect width="48.113" height="50.555" transform="translate(-13.828 18.078) rotate(-52.588)" fill="url(#d)"/></g></g><g transform="translate(0 8.801)"><g clip-path="url(#e)"><rect width="48.643" height="50.961" transform="matrix(0.608, -0.794, 0.794, 0.608, -15.629, 18.498)" fill="url(#f)"/></g></g><g transform="translate(0 0)"><g clip-path="url(#b)"><path d="M64.31,58.941V41.316H58.924V61.2h2.942a2.275,2.275,0,0,0,2.444-2.263" transform="translate(-10.706 -7.507)" fill="#1a1311"/><path d="M79.436,45.1a10.654,10.654,0,0,1,7.451.5V41.659a21.2,21.2,0,0,0-6.692-.736c-2.74.177-10.278,1.555-10.278,10.236s7.538,10.059,10.278,10.235a21.194,21.194,0,0,0,6.692-.735V56.716a10.652,10.652,0,0,1-7.451.5c-4.238-1.434-3.982-6.058-3.982-6.058S75.2,46.535,79.436,45.1" transform="translate(-12.704 -7.429)" fill="#1a1311"/><path d="M110.583,41.316H93.544v3.556H99.37V61.2h2.943a2.274,2.274,0,0,0,2.443-2.263V44.872h5.827Z" transform="translate(-16.996 -7.507)" fill="#1a1311"/><path d="M51.4,61.2l-8.7-10.794,7.816-9.095H44.531L37.5,49.691V41.316H32.116V61.2h2.942A2.276,2.276,0,0,0,37.5,58.941v-7.27L44.993,61.2Z" transform="translate(-5.835 -7.507)" fill="#1a1311"/></g></g></g></g></g></svg>