<svg xmlns="http://www.w3.org/2000/svg" xmlns:xlink="http://www.w3.org/1999/xlink" width="257" height="87" viewBox="0 0 257 87"><defs><clipPath id="a"><rect width="257" height="87" transform="translate(400 508)" fill="#ffaeae"/></clipPath><clipPath id="b"><rect width="230" height="36.136" fill="none"/></clipPath></defs><g transform="translate(-400 -508)"><g clip-path="url(#a)"><g transform="translate(414 533)"><rect width="2.127" height="2.744" transform="translate(52.75 4.183)" fill="#001c46"/><rect width="10.303" height="1.637" transform="translate(48.893 5.628)" fill="#001c46"/><g transform="translate(0 0)"><g clip-path="url(#b)"><path d="M63.487,9.711a3.762,3.762,0,1,1-7.519,0,3.762,3.762,0,1,1,7.519,0m-3.759-2.2a2.122,2.122,0,0,0-2.035,2.2,2.042,2.042,0,1,0,4.071,0,2.122,2.122,0,0,0-2.036-2.2" transform="translate(-5.989 -0.623)" fill="#001c46"/><path d="M72.352,7.03V5.568H69.828s-1.389.129-1.389,1.289v7.622h2.1V7.03Z" transform="translate(-7.324 -0.596)" fill="#001c46"/><path d="M88.293,13.855h2.012V6.717s-.169-1.064-1.682-1.064H75.93V7.179H88.293Z" transform="translate(-8.126 -0.605)" fill="#001c46"/><path d="M107.072,21.035h2.013V6.732S108.939,5.58,107.4,5.58h-1.451V7.106h1.121Z" transform="translate(-11.338 -0.597)" fill="#001c46"/><path d="M130.1,21.035h2.012V6.732s-.145-1.152-1.681-1.152h-1.452V7.106H130.1Z" transform="translate(-13.802 -0.597)" fill="#001c46"/><path d="M213.057,14.5h2.011V6.835s.079-1.255-1.683-1.255h-2.974V7.106h2.646Z" transform="translate(-22.517 -0.597)" fill="#001c46"/><path d="M232.867,12.955h2.012V6.645S234.711,5.58,233.2,5.58H220.463V7.106h12.4Z" transform="translate(-23.593 -0.597)" fill="#001c46"/><path d="M254.431,14.442h2.216V6.681s-.168-1.064-1.684-1.064h-2.509V7.143h1.977Z" transform="translate(-27.016 -0.601)" fill="#001c46"/><path d="M88.293,22.3h2.012V18.367S90.137,17.3,88.623,17.3H75.93v1.527H88.293Z" transform="translate(-8.126 -1.852)" fill="#001c46"/><path d="M57.085,17.28H55.072v3.956s.171,1.063,1.684,1.063H69.477V20.773H57.085Z" transform="translate(-5.894 -1.849)" fill="#001c46"/><path d="M118.965,5.629h-2.014V14.96s.17,1.063,1.683,1.063h8.624V14.495h-8.294Z" transform="translate(-12.515 -0.603)" fill="#001c46"/><path d="M201.541,17.233h-2.013v3.975s.169,1.065,1.683,1.065h12.664V20.748H201.541Z" transform="translate(-21.352 -1.844)" fill="#001c46"/><path d="M243.05,17.233h-2.013v3.975s.168,1.065,1.682,1.065h12.664V20.748H243.05Z" transform="translate(-25.794 -1.844)" fill="#001c46"/><rect width="14.391" height="1.505" transform="translate(67.79 12.336)" fill="#001c46"/><rect width="2.245" height="2.666" transform="translate(73.792 13.259)" fill="#001c46"/><path d="M104.171,9.6a4.048,4.048,0,1,1-8.073,0,4.048,4.048,0,1,1,8.073,0m-4.036-2.943A2.724,2.724,0,0,0,97.7,9.6a2.476,2.476,0,1,0,4.861,0,2.725,2.725,0,0,0-2.431-2.943" transform="translate(-10.284 -0.561)" fill="#001c46"/><rect width="1.957" height="15.435" transform="translate(98.737 5.004)" fill="#001c46"/><rect width="1.955" height="15.435" transform="translate(153.6 5.004)" fill="#001c46"/><path d="M149.984,5.6v8.524h-2.6s-3.238.163-3.631-2.591V7.131h3.856V5.638h-9.971V7.131h3.814V11.69s-.279,2.686-4.347,2.449v1.806s3.786.56,5.5-2.128c0,0,1.122,2.3,5.02,2.172h2.365V21h1.955V5.6Z" transform="translate(-14.672 -0.6)" fill="#001c46"/><path d="M158.083,5.579H165.4s1.6-.122,1.6.86v4.3s-.418,4.859-6.814,5.16h-2.075V14.135h1.881s4.972-.021,5.112-4.147V7.106h-7.012Z" transform="translate(-16.917 -0.597)" fill="#001c46"/><rect width="3.843" height="1.526" transform="translate(187.923 8.574)" fill="#001c46"/><rect width="14.403" height="1.526" transform="translate(196.941 13.937)" fill="#001c46"/><path d="M206.96,9.6a4.048,4.048,0,1,1-8.073,0,4.048,4.048,0,1,1,8.073,0m-4.037-2.566c-1.072,0-1.945,1.149-1.945,2.566s.873,2.566,1.945,2.566,1.944-1.149,1.944-2.566-.87-2.566-1.944-2.566" transform="translate(-21.284 -0.562)" fill="#001c46"/><rect width="14.389" height="1.483" transform="translate(159.594 11.152)" fill="#001c46"/><path d="M178.78,15.187h14.332v4.021h-12.46V20.5h12.46v1.526H180.181a1.289,1.289,0,0,1-1.43-1.333V17.7h12.405v-.934H178.78Z" transform="translate(-19.129 -1.625)" fill="#001c46"/><rect width="2.274" height="2.17" transform="translate(165.624 12.379)" fill="#001c46"/><path d="M187.03,5.58h-2.245v.773s.121,2.518-3.507,2.565h-2.495l.019,1.491h2.392s3.07.128,4.74-1.582a6.9,6.9,0,0,0,4.8,1.526h2.356l.021-1.467h-2.75s-2.676.1-3.3-2.188Z" transform="translate(-19.132 -0.597)" fill="#001c46"/><rect width="1.97" height="5.321" transform="translate(203.141 15.075)" fill="#001c46"/><path d="M248.9,7.987a3.366,3.366,0,1,1-3.367-3.417A3.394,3.394,0,0,1,248.9,7.987m-3.367-2.058c-.825,0-1.494.922-1.494,2.058s.669,2.061,1.494,2.061,1.495-.923,1.495-2.061-.669-2.058-1.495-2.058" transform="translate(-25.916 -0.489)" fill="#001c46"/><rect width="8.723" height="1.441" transform="translate(215.297 11.948)" fill="#001c46"/><rect width="1.957" height="2.128" transform="translate(218.643 13.111)" fill="#001c46"/><path d="M57.394,30.866l2.134-2.735h-1.3l-2.034,2.582V28.136H55.152v6.9h1.039V31.59c2.806-.143,2.391,3.444,2.391,3.444h1.138V34.26c0-2.507-1.331-3.213-2.324-3.393" transform="translate(-5.902 -3.011)" fill="#001c46"/><path d="M67.383,31.581c0,2.006-1.087,3.631-3.391,3.631A3.345,3.345,0,0,1,60.6,31.581c0-2.007,1.129-3.634,3.391-3.634,2.24,0,3.391,1.626,3.391,3.634m-3.391-2.7c-1.379,0-2.094,1.206-2.094,2.7s.631,2.691,2.094,2.691c1.4,0,2.092-1.206,2.092-2.691s-.652-2.7-2.092-2.7" transform="translate(-6.485 -2.991)" fill="#001c46"/><path d="M151.99,31.581c0,2.006-1.087,3.631-3.389,3.631a3.346,3.346,0,0,1-3.391-3.631c0-2.007,1.129-3.634,3.391-3.634,2.241,0,3.389,1.626,3.389,3.634m-3.389-2.7c-1.379,0-2.094,1.206-2.094,2.7s.631,2.691,2.094,2.691c1.4,0,2.092-1.206,2.092-2.691s-.652-2.7-2.092-2.7" transform="translate(-15.54 -2.991)" fill="#001c46"/><path d="M69.124,35.109v-7.03h2.543a2.453,2.453,0,0,1,2.441,2.58,2.534,2.534,0,0,1-1.619,2.531A1.971,1.971,0,0,1,73.5,35.076H72.32a2.18,2.18,0,0,0-2.1-1.82v1.853ZM71.4,32.549c1.641-.646,1.466-1.923,1.466-1.923A1.558,1.558,0,0,0,71.2,28.959h-.98v3.333a5.235,5.235,0,0,1,1.177.257" transform="translate(-7.397 -3.005)" fill="#001c46"/><path d="M182.432,35.109v-7.03h2.547a2.454,2.454,0,0,1,2.441,2.58A2.536,2.536,0,0,1,185.8,33.19a1.972,1.972,0,0,1,1.009,1.886h-1.178a2.18,2.18,0,0,0-2.1-1.82v1.853Zm2.282-2.559a1.927,1.927,0,0,0,1.465-1.923,1.558,1.558,0,0,0-1.663-1.666h-.981v3.333a5.282,5.282,0,0,1,1.179.257" transform="translate(-19.523 -3.005)" fill="#001c46"/><path d="M208.047,35.109v-7.03h2.547a2.453,2.453,0,0,1,2.44,2.58,2.536,2.536,0,0,1-1.62,2.531,1.972,1.972,0,0,1,1.01,1.886h-1.18a2.18,2.18,0,0,0-2.1-1.82v1.853Zm2.282-2.559c1.64-.646,1.464-1.923,1.464-1.923a1.558,1.558,0,0,0-1.663-1.666h-.98v3.333a5.257,5.257,0,0,1,1.179.257" transform="translate(-22.264 -3.005)" fill="#001c46"/><path d="M237.9,35.109v-7.03h2.544a2.453,2.453,0,0,1,2.441,2.58,2.533,2.533,0,0,1-1.619,2.531,1.972,1.972,0,0,1,1.01,1.886h-1.18a2.178,2.178,0,0,0-2.1-1.82v1.853Zm2.279-2.559c1.64-.646,1.465-1.923,1.465-1.923a1.558,1.558,0,0,0-1.663-1.666H239v3.333a5.246,5.246,0,0,1,1.178.257" transform="translate(-25.458 -3.005)" fill="#001c46"/><path d="M79.525,29.028v-.914H75.717v6.949h3.851v-.936H76.812V29.033Z" transform="translate(-8.103 -3.009)" fill="#001c46"/><rect width="2.637" height="0.881" transform="translate(68.562 27.674)" fill="#001c46"/><path d="M139.644,29.028v-.914h-3.808v6.949h3.851v-.936h-2.755V29.033Z" transform="translate(-14.536 -3.009)" fill="#001c46"/><rect width="2.636" height="0.881" transform="translate(122.248 27.674)" fill="#001c46"/><path d="M154.989,34.868l0-6.016,3.281,0v-.914H153.9v6.934Z" transform="translate(-16.469 -2.99)" fill="#001c46"/><rect width="2.984" height="0.881" transform="translate(138.375 27.674)" fill="#001c46"/><path d="M168.363,29.028v-.914h-3.809v6.949h3.85v-.936h-2.754V29.033Z" transform="translate(-17.61 -3.009)" fill="#001c46"/><rect width="2.637" height="0.881" transform="translate(147.89 27.674)" fill="#001c46"/><path d="M180.892,29.028v-.914h-3.807v6.949h3.851v-.936H178.18V29.033Z" transform="translate(-18.951 -3.009)" fill="#001c46"/><rect width="2.637" height="0.881" transform="translate(159.083 27.674)" fill="#001c46"/><path d="M218.115,29.028v-.914h-3.809v6.949h3.851v-.936H215.4V29.033Z" transform="translate(-22.934 -3.009)" fill="#001c46"/><rect width="2.637" height="0.881" transform="translate(192.319 27.674)" fill="#001c46"/><path d="M229.706,29.028v-.914H225.9v6.949h3.851v-.936h-2.758V29.033Z" transform="translate(-24.174 -3.009)" fill="#001c46"/><rect width="2.635" height="0.881" transform="translate(202.67 27.674)" fill="#001c46"/><rect width="3.25" height="0.881" transform="translate(73.241 27.674)" fill="#001c46"/><path d="M82.045,35.045v-5.2a1.5,1.5,0,0,1,2.89,0v5.2h1.136V29.723c0-1.068-1.155-1.933-2.581-1.933s-2.58.865-2.58,1.933v5.321Z" transform="translate(-8.659 -2.974)" fill="#001c46"/><rect width="3.251" height="0.881" transform="translate(207.264 27.674)" fill="#001c46"/><path d="M232.13,35.045v-5.2a1.5,1.5,0,0,1,2.889,0v5.2h1.135V29.723c0-1.068-1.155-1.933-2.579-1.933S231,28.655,231,29.723v5.321Z" transform="translate(-24.72 -2.974)" fill="#001c46"/><path d="M126.811,28.079v5.2c0,.613-.48,1.023-1.276,1.023s-1.3-.411-1.3-1.023v-5.2H123.1V33.4c0,1.068,1.008,1.853,2.432,1.853s2.411-.785,2.411-1.853v-5.32Z" transform="translate(-13.174 -3.005)" fill="#001c46"/><rect width="1.241" height="7.03" transform="translate(82.214 25.073)" fill="#001c46"/><rect width="1.242" height="6.429" transform="translate(98.258 25.673)" fill="#001c46"/><rect width="1.24" height="7.03" transform="translate(102.26 25.073)" fill="#001c46"/><path d="M99.056,28.079v5l-3.05-5H94.763v7.03h1.242v-5l3.05,5h1.24v-7.03Z" transform="translate(-10.141 -3.005)" fill="#001c46"/><path d="M174.095,28.079v5l-2.883-5h-1.24v7.03h1.24v-5l2.883,5h1.242v-7.03Z" transform="translate(-18.189 -3.005)" fill="#001c46"/><rect width="5.161" height="0.947" transform="translate(96.233 25.125)" fill="#001c46"/><rect width="1.241" height="6.429" transform="translate(106.028 25.673)" fill="#001c46"/><rect width="5.162" height="0.947" transform="translate(104.001 25.125)" fill="#001c46"/><rect width="1.241" height="6.429" transform="translate(117.367 25.673)" fill="#001c46"/><rect width="5.16" height="0.947" transform="translate(115.341 25.125)" fill="#001c46"/><path d="M106.623,30.179H105.5v-.43a1.166,1.166,0,0,0-1.18-.849s-.966-.065-.966.849c0,0-.1.8,1.2,1.2,0,0,2.217.626,2.147,1.9v.571s.154,1.4-1.893,1.762h-.645a2.1,2.1,0,0,1-2.23-1.826v-.754h1.135v.41a1.146,1.146,0,0,0,1.276,1.246s1.192.1,1.263-.977a.977.977,0,0,0-.421-.883,15.416,15.416,0,0,0-1.794-.847,2.071,2.071,0,0,1-1.292-1.8s-.112-1.838,2.329-1.838c0,0,1.964-.021,2.188,1.711Z" transform="translate(-10.909 -2.988)" fill="#001c46"/><path d="M224.362,30.179H223.24v-.43a1.163,1.163,0,0,0-1.177-.849s-.968-.065-.968.849c0,0-.1.8,1.2,1.2,0,0,2.217.626,2.148,1.9v.571s.154,1.4-1.9,1.762h-.644a2.1,2.1,0,0,1-2.23-1.826v-.754h1.137v.41a1.144,1.144,0,0,0,1.274,1.246s1.193.1,1.264-.977a.978.978,0,0,0-.422-.883,15.206,15.206,0,0,0-1.793-.847,2.066,2.066,0,0,1-1.289-1.8s-.114-1.838,2.327-1.838c0,0,1.964-.021,2.187,1.711Z" transform="translate(-23.509 -2.988)" fill="#001c46"/><path d="M255.682,28.079v2.848h-2.855V28.079h-1.24v7.03h1.24V31.872h2.855v3.236h1.242v-7.03Z" transform="translate(-26.923 -3.005)" fill="#001c46"/><path d="M249.812,32.565a2.417,2.417,0,0,1-2.271,1.695c-1.463,0-2.094-1.207-2.094-2.692s.809-2.767,2.188-2.767a2.149,2.149,0,0,1,1.7.812V28.253a3.274,3.274,0,0,0-1.669-.417c-2.511,0-3.517,1.724-3.517,3.732s1.064,3.74,3.392,3.74a3.3,3.3,0,0,0,2.271-.767Z" transform="translate(-26.128 -2.979)" fill="#001c46"/><path d="M202.25,28.114h-1.234l-1.626,2.852-1.626-2.852h-1.235l2.294,3.874v3.12h1.148V31.963Z" transform="translate(-21.031 -3.009)" fill="#001c46"/><path d="M191.378,30.582v.906h2.716c0,.028,0,.053,0,.082,0,1.486-.467,2.692-2.093,2.692s-2.093-1.206-2.093-2.692.521-2.758,2.093-2.758a1.8,1.8,0,0,1,1.732.929V28.4A2.733,2.733,0,0,0,192,27.861c-2.261,0-3.449,1.747-3.449,3.753s1.163,3.73,3.449,3.73c2.658,0,3.309-1.765,3.309-3.774,0-.342-.023-.594-.023-.989Z" transform="translate(-20.178 -2.982)" fill="#001c46"/><path d="M188.036,6.889a3.363,3.363,0,0,0,3.221,2.141l-.477.806-2.05-.661L187.669,7.9l.256-1.137" transform="translate(-20.083 -0.724)" fill="#001c46"/><path d="M43.44,3.506H16.489s-4.743-.641-5.329,10.515c0,0,.309-4.135,3.321-4.223H42.358s3.35.3,3.631-9.8c0,0-.154,2.878-2.549,3.506" transform="translate(-1.194 0)" fill="#001c46"/><path d="M11.293,28.754H38.555s4.185-.849.849,9.978c0,0,.387-4.135-3.475-3.686H10.83s-5.1.565-1.388-10.786c0,0-.078,4.494,1.85,4.494" transform="translate(-0.866 -2.596)" fill="#001c46"/><path d="M22.763,16.509H37.9l-1.466,6.112H21.451Z" transform="translate(-2.296 -1.767)" fill="#001c46"/><path d="M4.291,22.477a.481.481,0,0,0,.477.353v.254H2.659v-.254c.436-.071.488-.08.488-.313,0-.031-.09-.364-.1-.394L2.236,19.8l-.059-.02-.482,2.415a1.331,1.331,0,0,0-.014.211c0,.364.24.4.5.425v.254H0v-.254c.263-.052.474-.08.6-.729l.918-4.535a4.133,4.133,0,0,0,.083-.544c0-.334-.083-.355-.549-.446v-.254H3.388v.254c-.377.041-.587.141-.708.727l-.45,2.232.037.01c.468-.535.927-1.07,1.372-1.635.639-.809.639-.939.639-1.05,0-.223-.128-.243-.422-.284v-.254h1.59v.254c-.271.051-.369.061-.707.485l-1.628,2Z" transform="translate(0 -1.747)" fill="#001c46"/><path d="M7.759,23.083H5.531v-.254c.324-.061.482-.15.6-.729l.927-4.535s.075-.435.075-.564c0-.324-.068-.335-.55-.425v-.253H8.829v.253c-.285.051-.489.09-.618.727l-.858,4.242a6.419,6.419,0,0,0-.135.85c0,.343.158.413.541.434Z" transform="translate(-0.592 -1.747)" fill="#001c46"/><path d="M13.025,23.083H8.854v-.254c.3-.07.473-.1.6-.729l.925-4.535A4.573,4.573,0,0,0,10.457,17c0-.324-.083-.344-.549-.425v-.253h4.066l-.324,1.919-.2-.05c0-.747,0-1.546-1.423-1.546-.315,0-.377.163-.437.443l-.458,2.255c1.106.03,1.221-.254,1.543-1.072l.21.04-.556,2.758-.211-.052a3.306,3.306,0,0,0,.029-.4c0-.736-.233-.947-1.084-.947l-.421,2.111c-.037.211-.113.525-.113.616,0,.222.066.364.488.364a2.339,2.339,0,0,0,2.266-1.688l.188.051Z" transform="translate(-0.948 -1.747)" fill="#001c46"/><path d="M17.186,17.09c.038-.221.092-.443.34-.443.482,0,.707.355.707.961s-.2,1.443-.754,1.686a2.185,2.185,0,0,1-.746.121Zm-1.672-.513c.483.091.55.1.55.426,0,.129-.076.563-.076.563L15.065,22.1c-.121.578-.279.668-.6.728v.254h2.229v-.254c-.4-.03-.544-.1-.544-.444a4.724,4.724,0,0,1,.106-.7l.414-1.949h.218l.806,3.344h1.522v-.254c-.363-.052-.5-.07-.663-.728l-.624-2.483a1.827,1.827,0,0,0,1.445-1.829c0-1.465-1.326-1.465-1.778-1.465H15.515Z" transform="translate(-1.548 -1.747)" fill="#001c46"/></g></g></g></g></g></svg>