<svg xmlns="http://www.w3.org/2000/svg" xmlns:xlink="http://www.w3.org/1999/xlink" width="257" height="87" viewBox="0 0 257 87"><defs><clipPath id="a"><rect width="257" height="87" transform="translate(400 678)" fill="#ffaeae"/></clipPath><clipPath id="b"><rect width="231.833" height="27.094" fill="none"/></clipPath></defs><g transform="translate(-400 -678)"><g clip-path="url(#a)"><g transform="translate(413 708)"><path d="M121.863,27.837l-2.995,3.142V27.837h-1v7.182h1V31.2l3.306,3.815h1.405l-3.556-3.957,3.214-3.225Z" transform="translate(-28.569 -8.076)" fill="#535252"/><g transform="translate(0 0)"><g clip-path="url(#b)"><path d="M123.884,30.688a3.2,3.2,0,0,1,.714-2.2,2.521,2.521,0,0,1,1.986-.809,2.417,2.417,0,0,1,1.928.786,3.19,3.19,0,0,1,.687,2.178,3.379,3.379,0,0,1-.687,2.249,2.46,2.46,0,0,1-1.99.809,2.433,2.433,0,0,1-1.99-.785,3.418,3.418,0,0,1-.648-2.225m.856,0a2.818,2.818,0,0,0,.455,1.723,1.558,1.558,0,0,0,1.319.6q1.828,0,1.829-2.382,0-2.274-1.759-2.273-1.844,0-1.845,2.328" transform="translate(-29.564 -6.605)" fill="#535252"/><path d="M131.943,33.615V27.837h2.147a2.239,2.239,0,0,1,1.437.393,1.277,1.277,0,0,1,.487,1.048,1.4,1.4,0,0,1-.314.914,1.354,1.354,0,0,1-.793.483,1.115,1.115,0,0,1,.614.325,1.291,1.291,0,0,1,.262.675q.055.412.133.958a4.489,4.489,0,0,0,.247.981h-.856A9.626,9.626,0,0,1,135.033,32a1.147,1.147,0,0,0-.322-.8A1.452,1.452,0,0,0,133.82,31h-1.071v2.618Zm.806-3.3h1.271a1.248,1.248,0,0,0,.926-.244.92.92,0,0,0,.212-.62.859.859,0,0,0-.27-.7,1.246,1.246,0,0,0-.814-.228h-1.326Z" transform="translate(-31.487 -6.643)" fill="#535252"/><path d="M138.518,33.615V27.837h3.631v.683h-2.826v1.794h2.688V31h-2.688v1.935h2.889v.683Z" transform="translate(-33.056 -6.643)" fill="#535252"/><path d="M143.887,33.615l2.386-5.778h.856l2.387,5.778h-.879L148,32.107h-2.674l-.608,1.507Zm1.7-2.19h2.139l-1.067-2.8Z" transform="translate(-34.338 -6.643)" fill="#535252"/><rect width="0.805" height="5.778" transform="translate(117.937 21.194)" fill="#535252"/><path d="M157.3,27.837h1.119l2.838,4.785V27.837H162v5.778h-1.029l-2.927-4.875v4.875H157.3Z" transform="translate(-37.539 -6.643)" fill="#535252"/><path d="M165.386,31.877q0,1.139,1.374,1.138a1.392,1.392,0,0,0,.984-.306A.957.957,0,0,0,168.07,32a.713.713,0,0,0-.231-.569,2.125,2.125,0,0,0-.828-.361l-1.02-.247a2.277,2.277,0,0,1-1.071-.534,1.292,1.292,0,0,1-.326-.938,1.414,1.414,0,0,1,.64-1.217,2.709,2.709,0,0,1,1.6-.452,2.242,2.242,0,0,1,1.449.42,1.39,1.39,0,0,1,.522,1.15h-.856q-.058-.887-1.228-.888a1.523,1.523,0,0,0-.934.252.8.8,0,0,0-.334.667.637.637,0,0,0,.263.581,2.649,2.649,0,0,0,.809.295l1.032.266a2.056,2.056,0,0,1,1.032.542,1.331,1.331,0,0,1,.341.942,1.6,1.6,0,0,1-.6,1.307,2.541,2.541,0,0,1-1.645.487,2.5,2.5,0,0,1-1.586-.443,1.651,1.651,0,0,1-.561-1.378Z" transform="translate(-39.264 -6.605)" fill="#535252"/><path d="M170.874,27.837h4.7v.683h-1.947v5.1h-.8v-5.1h-1.947Z" transform="translate(-40.778 -6.643)" fill="#535252"/><rect width="0.805" height="5.778" transform="translate(135.239 21.194)" fill="#535252"/><path d="M179.455,27.837h4.7v.683h-1.947v5.1h-.8v-5.1h-1.947Z" transform="translate(-42.826 -6.643)" fill="#535252"/><path d="M186.277,27.837h.8v3.647a1.5,1.5,0,0,0,.436,1.205,1.768,1.768,0,0,0,1.166.365,1.628,1.628,0,0,0,1.147-.373,1.683,1.683,0,0,0,.4-1.279V27.837h.8v3.619a2.2,2.2,0,0,1-.636,1.672,2.342,2.342,0,0,1-1.688.608,2.673,2.673,0,0,1-1.778-.557,2.05,2.05,0,0,1-.659-1.653v-3.69Z" transform="translate(-44.454 -6.643)" fill="#535252"/><path d="M193.316,27.837h4.7v.683h-1.947v5.1h-.8v-5.1h-1.947Z" transform="translate(-46.133 -6.643)" fill="#535252"/><path d="M199.958,33.615V27.837h3.631v.683h-2.826v1.794h2.688V31h-2.688v1.935h2.889v.683Z" transform="translate(-47.718 -6.643)" fill="#535252"/><path d="M216.515,33.615V27.837h3.442v.683H217.32v1.794h2.489V31H217.32v2.618Z" transform="translate(-51.67 -6.643)" fill="#535252"/><path d="M208.738,30.688a3.2,3.2,0,0,1,.714-2.2,2.52,2.52,0,0,1,1.986-.809,2.417,2.417,0,0,1,1.927.786,3.19,3.19,0,0,1,.687,2.178,3.379,3.379,0,0,1-.687,2.249,2.459,2.459,0,0,1-1.99.809,2.43,2.43,0,0,1-1.989-.785,3.414,3.414,0,0,1-.648-2.225m.856,0a2.818,2.818,0,0,0,.455,1.723,1.557,1.557,0,0,0,1.319.6q1.828,0,1.829-2.382,0-2.274-1.758-2.273-1.845,0-1.845,2.328" transform="translate(-49.814 -6.605)" fill="#535252"/><path d="M224.741,33.615V27.837h3.442v.683h-2.637v1.794h2.489V31h-2.489v2.618Z" transform="translate(-53.633 -6.643)" fill="#535252"/><path d="M230.213,27.837h.8v3.647a1.5,1.5,0,0,0,.435,1.205,1.772,1.772,0,0,0,1.166.365,1.627,1.627,0,0,0,1.146-.373,1.683,1.683,0,0,0,.4-1.279V27.837h.8v3.619a2.2,2.2,0,0,1-.636,1.672,2.343,2.343,0,0,1-1.688.608,2.676,2.676,0,0,1-1.779-.557,2.05,2.05,0,0,1-.659-1.653v-3.69Z" transform="translate(-54.939 -6.643)" fill="#535252"/><path d="M238.313,31.877q0,1.139,1.373,1.138a1.4,1.4,0,0,0,.986-.306A.961.961,0,0,0,241,32a.714.714,0,0,0-.231-.569,2.119,2.119,0,0,0-.829-.361l-1.02-.247a2.285,2.285,0,0,1-1.071-.534,1.3,1.3,0,0,1-.325-.938,1.414,1.414,0,0,1,.64-1.217,2.708,2.708,0,0,1,1.6-.452,2.242,2.242,0,0,1,1.449.42,1.391,1.391,0,0,1,.522,1.15h-.855q-.059-.887-1.23-.888a1.52,1.52,0,0,0-.933.252.793.793,0,0,0-.334.667.639.639,0,0,0,.263.581,2.649,2.649,0,0,0,.809.295l1.032.266a2.055,2.055,0,0,1,1.033.542,1.334,1.334,0,0,1,.34.942,1.6,1.6,0,0,1-.6,1.307,2.537,2.537,0,0,1-1.644.487,2.5,2.5,0,0,1-1.585-.443,1.647,1.647,0,0,1-.563-1.378Z" transform="translate(-56.667 -6.605)" fill="#535252"/><rect width="0.805" height="5.778" transform="translate(186.038 21.194)" fill="#535252"/><path d="M246.5,30.688a3.2,3.2,0,0,1,.714-2.2,2.521,2.521,0,0,1,1.986-.809,2.418,2.418,0,0,1,1.928.786,3.19,3.19,0,0,1,.687,2.178,3.379,3.379,0,0,1-.687,2.249,2.46,2.46,0,0,1-1.99.809,2.433,2.433,0,0,1-1.99-.785,3.418,3.418,0,0,1-.648-2.225m.856,0a2.819,2.819,0,0,0,.455,1.723,1.558,1.558,0,0,0,1.319.6q1.828,0,1.829-2.382,0-2.274-1.759-2.273-1.844,0-1.845,2.328" transform="translate(-58.824 -6.605)" fill="#535252"/><path d="M254.467,27.837h1.118l2.838,4.785V27.837h.742v5.778h-1.029l-2.927-4.875v4.875h-.742Z" transform="translate(-60.727 -6.643)" fill="#535252"/><path d="M265.163,33.615V27.837h3.631v.683h-2.826v1.794h2.688V31h-2.688v1.935h2.889v.683Z" transform="translate(-63.279 -6.643)" fill="#535252"/><path d="M271.064,27.837h1.118l2.838,4.785V27.837h.742v5.778h-1.028l-2.928-4.875v4.875h-.742Z" transform="translate(-64.688 -6.643)" fill="#535252"/><path d="M278.463,33.615V27.837h3.631v.683h-2.826v1.794h2.688V31h-2.688v1.935h2.889v.683Z" transform="translate(-66.453 -6.643)" fill="#535252"/><path d="M284.267,33.615V27.837h2.147a2.238,2.238,0,0,1,1.437.393,1.277,1.277,0,0,1,.487,1.048,1.405,1.405,0,0,1-.314.914,1.358,1.358,0,0,1-.793.483,1.108,1.108,0,0,1,.612.325,1.273,1.273,0,0,1,.263.675q.055.412.133.958a4.486,4.486,0,0,0,.247.981h-.856A9.688,9.688,0,0,1,287.356,32a1.137,1.137,0,0,0-.322-.8,1.451,1.451,0,0,0-.891-.208h-1.071v2.618Zm.8-3.3h1.271a1.25,1.25,0,0,0,.927-.244.921.921,0,0,0,.212-.62.86.86,0,0,0-.271-.7,1.243,1.243,0,0,0-.812-.228h-1.327Z" transform="translate(-67.838 -6.643)" fill="#535252"/><path d="M293.236,31.19v-.683h2.135v2.83a5.825,5.825,0,0,1-1.994.361,2.882,2.882,0,0,1-2.28-.831,3.09,3.09,0,0,1-.726-2.108,3.451,3.451,0,0,1,.707-2.158,2.534,2.534,0,0,1,2.147-.923,2.367,2.367,0,0,1,1.6.479,1.415,1.415,0,0,1,.549,1.091h-.856a.91.91,0,0,0-.412-.647,1.557,1.557,0,0,0-.9-.24,1.746,1.746,0,0,0-1.488.648,2.806,2.806,0,0,0-.49,1.735,2.659,2.659,0,0,0,.479,1.632,1.889,1.889,0,0,0,1.609.64,4.65,4.65,0,0,0,1.252-.176V31.19Z" transform="translate(-69.295 -6.605)" fill="#535252"/><path d="M297.211,27.837h.993l1.708,2.842,1.723-2.842h.9l-2.261,3.521v2.257h-.8V31.358Z" transform="translate(-70.927 -6.643)" fill="#535252"/><path d="M93.868,4.705V0H73.058a2.231,2.231,0,0,0-2.231,2.231V24.742a2.23,2.23,0,0,0,2.231,2.23h20.81V22.267h-16V15.595h16V10.89h-16V4.705Z" transform="translate(-16.902 0)" fill="#e85400"/><path d="M43.411,4.705H59.756V0H38.6a2.23,2.23,0,0,0-2.23,2.231V14.263h0v2.921s3.53-4.45,10.989-1.481c3.934,1.47,7.964.518,11.763-3.514.3-.37.458-1-.149-.9-6.834,2.357-8.5-2.325-15.559-.1V4.705Z" transform="translate(-8.679 0)" fill="#e85400"/><path d="M36.367,23.821v8.515h7.044V22.694a9.669,9.669,0,0,0-7.044,1.127" transform="translate(-8.679 -5.363)" fill="#e85400"/><path d="M12.7,13.489,25.541,0H17.422L7.043,10.9V0H2.23A2.23,2.23,0,0,0,0,2.231V26.972H7.043v-10.9l10.38,10.9h8.119Z" transform="translate(0 0)" fill="#e85400"/><path d="M143.572,8.328V5.592h-9.54v1.4h7.7V8.61a6.008,6.008,0,0,1-.351,1.81h-8.332v1.4h4.833v1.959h-3.836v1.4h7.671v3.587h1.839V13.779h-3.836V11.82h4.834v-1.4H143.23a6.79,6.79,0,0,0,.342-2.091" transform="translate(-31.751 -1.334)" fill="#535252"/><path d="M282.481,9.594v-4H272.8v1.4h7.844V9.876a5.575,5.575,0,0,1-.26,1.528h-8.568v1.4h4.905v5.961h1.839V12.8h4.905V11.4h-1.239a6.818,6.818,0,0,0,.255-1.81" transform="translate(-64.866 -1.334)" fill="#535252"/><path d="M229.4,8.252h-3.951v1.4H229.4v2.3a6.761,6.761,0,0,1-2.229.4h-4.931V5.412H220.4v8.346h6.638a6.629,6.629,0,0,0,2.362-.385v5.186h1.84V4.836H229.4Z" transform="translate(-52.596 -1.154)" fill="#535252"/><path d="M162.287,8.252h-.854V4.836H159.7v8.233h1.731V9.652h.854v3.416h1.731V4.836h-1.731Z" transform="translate(-38.111 -1.154)" fill="#535252"/><path d="M154.411,17.745h6.505v3.588h1.84V16.345h-8.345Z" transform="translate(-36.849 -3.9)" fill="#535252"/><path d="M156.606,9.57a3.352,3.352,0,0,0-.664-2.014h1.1v-1.4h-2.583V4.837h-1.84V6.156H150.01v1.4h1.1a3.347,3.347,0,0,0-.665,2.014,3.083,3.083,0,1,0,6.157,0m-4.317,0c0-1,.556-1.809,1.239-1.809s1.238.812,1.238,1.809-.555,1.809-1.238,1.809-1.239-.812-1.239-1.809" transform="translate(-35.799 -1.154)" fill="#535252"/><path d="M167.633,13.977h3.152v1.74a2.584,2.584,0,0,0-1.325,2.123c0,1.561,1.749,2.83,3.9,2.83s3.9-1.269,3.9-2.83a2.583,2.583,0,0,0-1.324-2.123v-1.74h3.151v-1.4h-11.45Zm5.725,5.336c-1.161,0-2.106-.66-2.106-1.472s.945-1.472,2.106-1.472,2.106.66,2.106,1.472-.945,1.472-2.106,1.472m.733-4.251a5.295,5.295,0,0,0-1.466,0V13.977h1.466Z" transform="translate(-40.004 -3.001)" fill="#535252"/><path d="M173.93,10.188c2.149,0,3.9-1.249,3.9-2.783s-1.749-2.784-3.9-2.784-3.9,1.249-3.9,2.784,1.748,2.783,3.9,2.783m0-4.231c1.161,0,2.106.649,2.106,1.448s-.945,1.447-2.106,1.447-2.106-.649-2.106-1.447.945-1.448,2.106-1.448" transform="translate(-40.577 -1.103)" fill="#535252"/><path d="M209.8,8.886h-.973c-.259-2.12-1.635-3.743-3.289-3.743-1.838,0-3.332,2-3.332,4.465s1.495,4.465,3.332,4.465c1.666,0,3.051-1.646,3.3-3.788h.967v8.273h1.767V4.836H209.8Zm-4.262,3.776c-.832,0-1.509-1.37-1.509-3.053s.677-3.053,1.509-3.053,1.509,1.37,1.509,3.053-.677,3.053-1.509,3.053" transform="translate(-48.255 -1.154)" fill="#535252"/><rect width="1.767" height="13.723" transform="translate(164.108 3.682)" fill="#535252"/><path d="M129.012,4.836h-1.84V15.609h1.84V10.533H130.7v-1.4h-1.683Z" transform="translate(-30.349 -1.154)" fill="#535252"/><path d="M122.378,9.57a3.173,3.173,0,0,0-.723-2.014h1.251v-1.4h-2.959V4.837h-1.839V6.156h-2.959v1.4h1.25a3.177,3.177,0,0,0-.723,2.014,3.353,3.353,0,0,0,6.7,0m-4.864,0a1.537,1.537,0,1,1,3.025,0,1.537,1.537,0,1,1-3.025,0" transform="translate(-27.479 -1.154)" fill="#535252"/><path d="M119.669,16.643h-1.84V21.4h8.954V20h-7.113Z" transform="translate(-28.119 -3.972)" fill="#535252"/><path d="M261.431,11.3h2.717v4.312h1.839V4.836h-1.839V7.024h-2.555A3.724,3.724,0,0,0,258.408,5.2a3.84,3.84,0,0,0,0,7.678,3.709,3.709,0,0,0,3.023-1.579m2.717-2.873V9.9h-2.093a3.93,3.93,0,0,0,.1-.859,3.976,3.976,0,0,0-.049-.614Zm-7.668.614a1.982,1.982,0,1,1,3.856,0,1.982,1.982,0,1,1-3.856,0" transform="translate(-60.774 -1.154)" fill="#535252"/><path d="M259.647,16.345h-1.84v4.988h8.954v-1.4h-7.113Z" transform="translate(-61.524 -3.9)" fill="#535252"/><path d="M291.922,14.425h1.84v-1.8h2.62a6.627,6.627,0,0,0,2.362-.386v.988H295.7v1.4h3.046v.983h1.839V4.837h-1.839v5.987a6.771,6.771,0,0,1-2.229.4h-7.425v1.4h2.833Z" transform="translate(-68.989 -1.154)" fill="#535252"/><path d="M293.308,11.055c2.063,0,3.742-1.3,3.742-2.895s-1.679-2.895-3.742-2.895-3.742,1.3-3.742,2.895,1.679,2.895,3.742,2.895m0-4.363a1.717,1.717,0,0,1,1.884,1.469,1.942,1.942,0,0,1-3.767,0,1.717,1.717,0,0,1,1.884-1.469" transform="translate(-69.103 -1.256)" fill="#535252"/><path d="M294.589,20.3V17.9h-1.84V21.7H301.7V20.3Z" transform="translate(-69.862 -4.271)" fill="#535252"/><rect width="1.84" height="13.723" transform="translate(190.366 3.682)" fill="#535252"/><path d="M242.456,6.992h2.936v-1.4h-7.715v1.4h2.935c-.043,2.639-1.005,6.035-3.613,7.189l-.1.044,1.023,1.178.054-.022a7.05,7.05,0,0,0,3.556-3.947,7.051,7.051,0,0,0,3.556,3.947l.053.022,1.024-1.178-.1-.044c-2.608-1.154-3.57-4.551-3.613-7.189" transform="translate(-56.535 -1.334)" fill="#535252"/><path d="M193.951,17.585h-5.289v-1.24h-1.839v4.988h8.968V16.345h-1.839Zm-5.289,1.4h5.289v.947h-5.289Z" transform="translate(-44.584 -3.9)" fill="#535252"/><path d="M198.025,4.836h-1.84v8.236h1.84V9.653h1.683v-1.4h-1.683Z" transform="translate(-46.818 -1.154)" fill="#535252"/><path d="M191.389,9.57a3.172,3.172,0,0,0-.723-2.014h1.251v-1.4h-2.959V4.837h-1.839V6.156H184.16v1.4h1.25a3.177,3.177,0,0,0-.723,2.014,3.352,3.352,0,0,0,6.7,0m-4.863,0a1.537,1.537,0,1,1,3.025,0,1.537,1.537,0,1,1-3.025,0" transform="translate(-43.948 -1.154)" fill="#535252"/></g></g></g></g></g></svg>