<svg width="74" height="20" viewBox="0 0 74 20" fill="none" xmlns="http://www.w3.org/2000/svg">
<path d="M21.0648 9.41803C20.7271 4.49708 16.1439 0.601318 10.5354 0.601318C4.92699 0.601318 0.331682 4.49708 0 9.42406L4.12492 5.56449C4.12492 5.56449 4.93302 4.56944 5.75921 5.52227L6.83868 6.64396L9.57657 3.86989C9.57657 3.86989 10.445 2.66981 11.6511 3.86989L14.1357 6.52335L15.2574 5.44388C15.2574 5.44388 16.2102 4.40662 17.2475 5.44388L21.0648 9.41803Z" fill="#004EA2"/>
<path d="M20.9623 11.4142L16.6625 6.84909C16.168 6.1013 15.7097 6.80688 15.7097 6.80688L12.8934 9.62316C12.3929 10.1599 11.9406 9.78599 11.9406 9.78599C11.3375 9.18293 11.9406 8.70651 11.9406 8.70651L13.0623 7.58482L11.0722 5.26305C10.638 4.82884 10.246 5.26305 10.246 5.26305L6.22357 9.28545C5.35517 10.1539 4.93905 9.61713 4.93905 9.61713C4.336 9.01407 5.0657 8.45926 5.0657 8.45926L5.77128 7.71146L5.27677 7.0481C4.94509 6.71642 4.65562 7.0481 4.65562 7.0481L0.0964966 11.4082C0.735738 15.2135 3.94401 18.277 8.09908 19.1455C8.24382 17.0167 7.68297 15.4487 7.30304 14.6587C6.8809 14.7431 6.3683 14.5562 5.99441 14.134C5.48784 13.5611 5.43356 12.7772 5.87983 12.3791C6.32609 11.9811 7.098 12.1259 7.6106 12.6988C8.01465 13.1571 8.12923 13.742 7.93022 14.1642C8.36443 15.0024 9.05794 16.7875 8.871 19.2781C9.25695 19.3324 9.64894 19.3686 10.047 19.3867V13.6998C9.67306 13.4827 9.40169 12.9279 9.40169 12.2766C9.40169 11.4323 9.84795 10.7509 10.3967 10.7509C10.9455 10.7509 11.3918 11.4323 11.3918 12.2766C11.3918 12.9279 11.1264 13.4827 10.7465 13.6998V19.3927C11.0782 19.3927 11.4099 19.3686 11.7355 19.3324C11.5305 16.8116 12.2361 15.0085 12.6703 14.1642C12.4773 13.742 12.5858 13.1571 12.9899 12.6988C13.4965 12.1259 14.2744 11.9811 14.7146 12.3791C15.1609 12.7772 15.1066 13.5611 14.6 14.134C14.2262 14.5501 13.7196 14.7371 13.2914 14.6587C12.9055 15.4608 12.3326 17.0589 12.5014 19.2359C16.8736 18.5002 20.2869 15.3582 20.9563 11.4203L20.9623 11.4142Z" fill="#009944"/>
<path d="M11.3918 12.2767C11.3918 11.4324 10.9455 10.751 10.3967 10.751C9.84794 10.751 9.40167 11.4324 9.40167 12.2767C9.40167 12.928 9.66702 13.4828 10.0469 13.6999V19.3868C10.2098 19.3928 10.3726 19.3988 10.5354 19.3988C10.6078 19.3988 10.6802 19.3988 10.7525 19.3988V13.706C11.1264 13.4889 11.3978 12.934 11.3978 12.2827L11.3918 12.2767Z" fill="white"/>
<path d="M7.93025 14.1701C8.12323 13.748 8.01468 13.163 7.61063 12.7047C7.09803 12.1318 6.32611 11.9871 5.87985 12.3851C5.43359 12.7831 5.48786 13.5671 5.99443 14.14C6.36833 14.5561 6.88093 14.743 7.30307 14.6646C7.68299 15.4546 8.24384 17.0226 8.0991 19.1514C8.35239 19.2057 8.60567 19.2479 8.87102 19.2841C9.064 16.7934 8.36445 15.0084 7.93025 14.1701Z" fill="white"/>
<path d="M13.2974 14.6588C13.7196 14.7432 14.2322 14.5563 14.6061 14.1341C15.1187 13.5612 15.1669 12.7772 14.7207 12.3792C14.2744 11.9812 13.5025 12.1259 12.9959 12.6988C12.5919 13.1572 12.4773 13.7421 12.6763 14.1643C12.2421 15.0085 11.5365 16.8117 11.7415 19.3325C12.0009 19.3084 12.2602 19.2722 12.5135 19.23C12.3446 17.0589 12.9175 15.4548 13.3035 14.6527L13.2974 14.6588Z" fill="white"/>
<path d="M72.7771 9.36977V3.22461H59.8535V5.12424H70.5638V9.36977H59.546V11.2694H65.1785V17.1191H67.3917V11.2694H73.4645V9.36977H72.7771Z" fill="white"/>
<path d="M44.1499 13.0426H53.9617V17.1313H56.1809V11.1309L44.1499 11.1429V13.0426Z" fill="white"/>
<path d="M56.1146 3.26685H53.9014V9.96682H56.1146V7.5968H57.9841V5.69717H56.1146V3.26685Z" fill="white"/>
<path d="M39.4822 3.28492H37.269V8.86321H34.9834V3.22461H26.7517V5.12424H32.7702V8.86321H30.6474V6.68616H28.4282V8.86321H26.2029V10.7628H37.269V13.549H39.4822V7.59678H41.4241V5.69715H39.4822V3.28492Z" fill="white"/>
<path d="M29.6644 12.1199H27.4452V16.3714C27.4452 17.0288 28.1025 16.9504 28.1025 16.9504H39.7717V15.0749H29.6584V12.1199H29.6644Z" fill="white"/>
<path d="M46.9601 10.4855C49.1492 10.4855 50.9222 8.71248 50.9222 6.52337C50.9222 4.33427 49.1492 2.56128 46.9601 2.56128C44.771 2.56128 42.998 4.33427 42.998 6.52337C42.998 8.71248 44.771 10.4855 46.9601 10.4855ZM46.9601 4.68404C47.9733 4.68404 48.7995 5.51024 48.7995 6.52337C48.7995 7.53651 47.9793 8.3627 46.9601 8.3627C45.941 8.3627 45.1208 7.54254 45.1208 6.52337C45.1208 5.5042 45.947 4.68404 46.9601 4.68404Z" fill="white"/>
</svg>
