<svg xmlns="http://www.w3.org/2000/svg" xmlns:xlink="http://www.w3.org/1999/xlink" width="257" height="87" viewBox="0 0 257 87"><defs><clipPath id="a"><rect width="257" height="87" transform="translate(1112 338)" fill="#ffaeae"/></clipPath><clipPath id="b"><rect width="90.67" height="57.504" fill="none"/></clipPath></defs><g transform="translate(-1112 -338)"><g clip-path="url(#a)"><g transform="translate(1195.344 353)"><g transform="translate(0 0)" clip-path="url(#b)"><path d="M121.131,8.915a2.4,2.4,0,0,0-2.393,2.4v21a2.395,2.395,0,1,0,4.79,0v-21a2.4,2.4,0,0,0-2.4-2.4" transform="translate(-32.857 -2.467)" fill="#df2808"/><path d="M61.012,13.68a2.3,2.3,0,1,0,0-4.605H44.428a2.4,2.4,0,0,0-2.394,2.395V32.354a2.394,2.394,0,1,0,4.788,0v-8.23H58.781a2.279,2.279,0,0,0,0-4.559H46.822V13.68Z" transform="translate(-11.631 -2.511)" fill="#df2808"/><path d="M100.1,30.774l-6.659-6.66a7.524,7.524,0,0,0-.388-15.039h-12.1a2.4,2.4,0,0,0-2.393,2.4V32.354a2.394,2.394,0,1,0,4.788,0V13.682H92.83a2.941,2.941,0,1,1,0,5.882h-4.9a2.329,2.329,0,0,0-1.65,3.976L96.807,34.068a2.329,2.329,0,1,0,3.293-3.294" transform="translate(-21.738 -2.511)" fill="#df2808"/><path d="M4.441,8.915a2.4,2.4,0,0,0-2.395,2.4v21a2.395,2.395,0,0,0,4.79,0v-21a2.4,2.4,0,0,0-2.395-2.4" transform="translate(-0.566 -2.467)" fill="#df2808"/><path d="M26.508,30.73l-9.1-9.1,8.738-8.739A2.329,2.329,0,0,0,22.852,9.6L12.467,19.983h0a2.329,2.329,0,0,0,0,3.292L23.215,34.022a2.328,2.328,0,1,0,3.293-3.292" transform="translate(-3.261 -2.467)" fill="#df2808"/><path d="M115.882,48.138a3.03,3.03,0,1,1-3.03-3.029,3.03,3.03,0,0,1,3.03,3.029" transform="translate(-30.389 -12.482)" fill="#f59c78"/><path d="M36.15,0a3.03,3.03,0,1,1-3.031,3.031A3.029,3.029,0,0,1,36.15,0" transform="translate(-9.165 0)" fill="#f59c78"/><path d="M30.833,67.947V66.63H29.048a4.08,4.08,0,0,0,.392-1.758V62.746a.64.64,0,0,0-.626-.658H19.977V63.4h7.671v1.467a4.4,4.4,0,0,1-.331,1.758H18.584v1.318h5.221v1.758H19.977v1.318h7.671v3.661H29.44V70.363a.639.639,0,0,0-.626-.657h-3.2V67.947Z" transform="translate(-5.142 -17.181)" fill="#5d5c5c"/><path d="M114.453,76.728V74.24H112.66v2.636a1.147,1.147,0,0,0,1.115,1.172h8.071V76.728Z" transform="translate(-31.175 -20.543)" fill="#5d5c5c"/><path d="M112.939,70.325h1.808V68.639h4.4v1.079h-2.8v1.389h4.592V61.683h-1.792v5.639h-9.255v1.317h3.046Z" transform="translate(-30.409 -17.069)" fill="#5d5c5c"/><path d="M114.066,66.846c2.074,0,3.413-1.119,3.413-2.649s-1.34-2.646-3.413-2.646-3.412,1.121-3.412,2.646,1.338,2.649,3.412,2.649m0-4.023a1.393,1.393,0,1,1-1.613,1.374,1.446,1.446,0,0,1,1.613-1.374" transform="translate(-30.62 -17.032)" fill="#5d5c5c"/><path d="M14.517,64.867V61.682H12.725v9.15h1.792V66.187H16.3v-1.32Z" transform="translate(-3.521 -17.068)" fill="#5d5c5c"/><path d="M4.488,73.309H2.695v3.308A1.148,1.148,0,0,0,3.81,77.79h8.07V76.47H4.488Z" transform="translate(-0.746 -20.286)" fill="#5d5c5c"/><path d="M7.516,65.79a2.5,2.5,0,0,0-.961-2.051H8.072V62.42H4.942V61.276H3.133V62.42H0V63.74H1.516A2.494,2.494,0,0,0,.557,65.79a3.163,3.163,0,0,0,3.48,3.078A3.163,3.163,0,0,0,7.516,65.79m-5.092,0a1.6,1.6,0,0,1,1.613-1.758,1.765,1.765,0,0,1,0,3.517A1.6,1.6,0,0,1,2.424,65.79" transform="translate(0 -16.956)" fill="#5d5c5c"/><rect width="1.793" height="7.005" transform="translate(36.198 44.614)" fill="#5d5c5c"/><path d="M40.862,65.956a5.355,5.355,0,0,0,3.828,2.416V67.01c-1.823-.482-2.924-1.948-2.924-4.278v-.85H39.958v.85c0,2.33-1.1,3.8-2.923,4.278v1.362a5.358,5.358,0,0,0,3.827-2.416" transform="translate(-10.248 -17.124)" fill="#5d5c5c"/><path d="M48.383,72.417H39.824v1.319h7.394v3.807H49.01V73.077a.64.64,0,0,0-.627-.66" transform="translate(-11.02 -20.039)" fill="#5d5c5c"/><path d="M67.631,71V69.682H55.384V71H60.6v1.1H56.862v3.516a1.146,1.146,0,0,0,1.115,1.172h8.176V72.757a.641.641,0,0,0-.627-.66H62.411V71ZM64.36,75.467H58.653V73.416H64.36Z" transform="translate(-15.326 -19.282)" fill="#5d5c5c"/><path d="M67.061,65.4h-1.6V63.2h1.53V61.883H56.728V63.2h1.531v2.2h-1.6v1.316h10.4Zm-3.391,0H60.051V63.2H63.67Z" transform="translate(-15.678 -17.124)" fill="#5d5c5c"/><path d="M101.795,68.441a4.024,4.024,0,0,0,.467-1.9V62.947a.639.639,0,0,0-.624-.659H92.8v1.319h7.673v2.931a4.2,4.2,0,0,1-.4,1.9h-8.66V69.76h5.219v4.979h1.806V69.76h5.221V68.441Z" transform="translate(-25.294 -17.236)" fill="#5d5c5c"/><path d="M78.337,76.391V73.022H76.545v3.517a1.146,1.146,0,0,0,1.113,1.172H85.73V76.391Z" transform="translate(-21.181 -20.206)" fill="#5d5c5c"/><path d="M80.572,67.33h2.534v3.5H84.9V61.683h-1.79v1.4h-2.6a3.629,3.629,0,0,0-2.849-1.209,3.38,3.38,0,1,0,0,6.743,3.608,3.608,0,0,0,2.91-1.285M83.106,64.4V66.01H81.2a3.571,3.571,0,0,0,.084-.768,3.494,3.494,0,0,0-.1-.844Zm-7.195.844a1.773,1.773,0,1,1,1.75,2.053,1.85,1.85,0,0,1-1.75-2.053" transform="translate(-20.489 -17.069)" fill="#5d5c5c"/></g></g></g></g></svg>