<svg xmlns="http://www.w3.org/2000/svg" xmlns:xlink="http://www.w3.org/1999/xlink" width="257" height="87" viewBox="0 0 257 87"><defs><clipPath id="a"><rect width="257" height="87" transform="translate(1468 168)" fill="#ffaeae"/></clipPath><clipPath id="b"><path d="M25.361,0a2.5,2.5,0,0,0-1.755.732L.732,23.6A2.507,2.507,0,0,0,0,25.36V25.4a2.505,2.505,0,0,0,.732,1.754L23.606,50.031a2.505,2.505,0,0,0,1.754.732H25.4a2.507,2.507,0,0,0,1.755-.732L50.031,27.158a2.516,2.516,0,0,0,0-3.553L27.159.732A2.5,2.5,0,0,0,25.4,0Z" fill="none"/></clipPath><radialGradient id="c" cx="0.183" cy="0.509" r="0.539" gradientTransform="matrix(0.995, 0, 0, -1, 0, 2)" gradientUnits="objectBoundingBox"><stop offset="0" stop-color="#41aae4"/><stop offset="0.127" stop-color="#3ea3de"/><stop offset="0.301" stop-color="#3692cf"/><stop offset="0.501" stop-color="#2a75b5"/><stop offset="0.721" stop-color="#194d92"/><stop offset="0.956" stop-color="#041a66"/><stop offset="1" stop-color="#00105d"/></radialGradient><clipPath id="d"><rect width="231.5" height="50.764" fill="none"/></clipPath></defs><g transform="translate(-1468 -168)"><g clip-path="url(#a)"><g transform="translate(1482 186)"><g clip-path="url(#b)"><rect width="51.01" height="50.764" transform="translate(0 0)" fill="url(#c)"/></g><g transform="translate(0 0)"><g clip-path="url(#d)"><path d="M52.77,37.762a8.034,8.034,0,0,0,3.045-6.271,7.893,7.893,0,0,0-.889-3.635h-4.65a4.446,4.446,0,0,1,1.938,3.635A4.357,4.357,0,0,1,51.168,34.3a7.325,7.325,0,0,1-3.613,2.469c-1.023.432-1.023,1.845-1.023,1.845v9.054h3.6v-9c1.256.814,2.081,3.8,2.081,5.356a4.449,4.449,0,0,1-1.945,3.641h4.652a7.89,7.89,0,0,0,.893-3.641,8.033,8.033,0,0,0-3.045-6.271" transform="translate(-19.888 -11.906)" fill="#fff"/><path d="M47.049,35.4c1.227,0,1.155-2.209,1.155-2.209V27.857h-4.95c-.291.03-.084.144-.084.144A1.434,1.434,0,0,1,44.6,29.377v2.115c0,1.521.729,3.907,2.447,3.907" transform="translate(-18.421 -11.906)" fill="#fff"/><path d="M32.814,37.762a8.027,8.027,0,0,0,3.045-6.271,7.921,7.921,0,0,0-.888-3.635H30.321a4.448,4.448,0,0,1,1.938,3.635A4.357,4.357,0,0,1,31.213,34.3,7.334,7.334,0,0,1,27.6,36.773c-1.023.432-1.023,1.845-1.023,1.845v9.054h3.6v-9c1.255.814,2.082,3.8,2.082,5.356a4.444,4.444,0,0,1-1.947,3.641h4.653a7.876,7.876,0,0,0,.893-3.641,8.026,8.026,0,0,0-3.045-6.271" transform="translate(-11.358 -11.906)" fill="#fff"/><path d="M27.1,35.4c1.227,0,1.154-2.209,1.154-2.209V27.857H23.3c-.291.03-.082.144-.082.144a1.431,1.431,0,0,1,1.429,1.375v2.115h0c0,1.521.727,3.907,2.447,3.907" transform="translate(-9.892 -11.906)" fill="#fff"/><path d="M102.374,66.3V60.444h.451l.008,2.577,2.279-2.577h.578l-2.351,2.642L105.9,66.3h-.627l-2.44-3.057-.008,3.057Z" transform="translate(-43.755 -25.834)" fill="#1a1311"/><path d="M111.733,65.5c0,.752-.338,1.71-1.193,1.71s-1.19-.957-1.19-1.71.338-1.713,1.19-1.713,1.193.957,1.193,1.713m-1.193-2.159c-1.127,0-1.649,1.087-1.649,2.159s.522,2.156,1.649,2.156,1.653-1.087,1.653-2.156-.521-2.159-1.653-2.159" transform="translate(-46.54 -27.074)" fill="#1a1311"/><path d="M116.333,67.535h-.423V64.382c.007-.317-.021-.64-.036-.916h.439l.019.6h.014a.945.945,0,0,1,.8-.722,3.024,3.024,0,0,1,.425.011v.47a2.356,2.356,0,0,0-.262-.035c-.632,0-.961.521-.975,1.3Z" transform="translate(-49.525 -27.072)" fill="#1a1311"/><path d="M119.9,65.169c.055-.711.423-1.378,1.114-1.378.734,0,1.1.593,1.149,1.378Zm2.722.447c0-1.275-.429-2.271-1.615-2.271-1.052,0-1.582,1.054-1.582,2.159s.5,2.156,1.551,2.156a1.543,1.543,0,0,0,1.6-1.419h-.447a1.1,1.1,0,0,1-1.022.973c-.866,0-1.212-.731-1.226-1.6Z" transform="translate(-51.041 -27.074)" fill="#1a1311"/><path d="M126.316,66.4c0-1.023,1.253-.892,1.855-.916.042.85-.136,1.727-1.06,1.727a.749.749,0,0,1-.795-.811m1.855-1.362a4.23,4.23,0,0,0-1.6.187,1.261,1.261,0,0,0-.712,1.176,1.159,1.159,0,0,0,1.178,1.257,1.291,1.291,0,0,0,1.107-.665l.022-.057h.013l.013.6h.436c-.013-.276-.042-.6-.035-.916V64.692a1.152,1.152,0,0,0-1.255-1.347,1.209,1.209,0,0,0-1.324,1.152h.448c.058-.553.424-.706.869-.706.5,0,.8.21.841.877Z" transform="translate(-53.791 -27.074)" fill="#1a1311"/><path d="M136.23,63.021V60.93h1.032c.486,0,1.4-.081,1.4,1.046,0,1-.8,1.046-1.454,1.046Zm0,.488H137.5c.923,0,.995.236,1.1,1.572a5.322,5.322,0,0,0,.178,1.216h.529a4.877,4.877,0,0,1-.268-1.744c-.065-.679-.2-1.182-.853-1.3v-.015a1.27,1.27,0,0,0,.979-1.259,1.39,1.39,0,0,0-.52-1.224,1.879,1.879,0,0,0-1.2-.307h-1.665V66.3h.456Z" transform="translate(-58.03 -25.834)" fill="#1a1311"/><path d="M143.563,65.169c.056-.711.423-1.378,1.113-1.378.735,0,1.1.593,1.15,1.378Zm2.721.447c0-1.275-.431-2.271-1.614-2.271-1.051,0-1.582,1.054-1.582,2.159s.494,2.156,1.552,2.156a1.54,1.54,0,0,0,1.6-1.419H145.8a1.106,1.106,0,0,1-1.023.973c-.868,0-1.212-.731-1.229-1.6Z" transform="translate(-61.157 -27.074)" fill="#1a1311"/><path d="M151.061,63.345a1.126,1.126,0,0,1,1.29,1.13h-.458c-.041-.511-.437-.684-.874-.684-.4,0-.8.18-.8.656,0,.6.683.545,1.641.933a.992.992,0,0,1,.6.953,1.346,1.346,0,0,1-1.49,1.327,1.227,1.227,0,0,1-1.335-1.232h.462c.033.607.5.786.979.786a.831.831,0,0,0,.925-.811c0-.583-.561-.683-1.122-.829s-1.122-.339-1.122-1.094a1.144,1.144,0,0,1,1.3-1.135" transform="translate(-63.957 -27.074)" fill="#1a1311"/><path d="M156.079,65.169c.058-.711.423-1.378,1.114-1.378.734,0,1.1.593,1.15,1.378Zm2.724.447c0-1.275-.432-2.271-1.616-2.271-1.05,0-1.58,1.054-1.58,2.159s.494,2.156,1.553,2.156a1.54,1.54,0,0,0,1.6-1.419h-.446a1.1,1.1,0,0,1-1.023.973c-.865,0-1.212-.731-1.225-1.6Z" transform="translate(-66.507 -27.074)" fill="#1a1311"/><path d="M162.5,66.4c0-1.023,1.256-.892,1.855-.916.042.85-.133,1.727-1.058,1.727a.751.751,0,0,1-.8-.811m1.855-1.362a4.22,4.22,0,0,0-1.6.187,1.263,1.263,0,0,0-.713,1.176,1.158,1.158,0,0,0,1.178,1.257,1.29,1.29,0,0,0,1.107-.665l.021-.057h.015l.014.6h.437c-.017-.276-.042-.6-.035-.916V64.692a1.155,1.155,0,0,0-1.259-1.347,1.211,1.211,0,0,0-1.326,1.152h.453c.057-.553.423-.706.866-.706.5,0,.8.21.839.877Z" transform="translate(-69.255 -27.074)" fill="#1a1311"/><path d="M168.891,65.087c.013-.777.344-1.3.972-1.3a2.16,2.16,0,0,1,.259.035v-.47a2.88,2.88,0,0,0-.422-.011.946.946,0,0,0-.8.723h-.013l-.022-.6h-.437c.014.276.042.6.036.916v3.152h.424Z" transform="translate(-71.988 -27.071)" fill="#1a1311"/><path d="M174.406,64.716a.871.871,0,0,0-.967-.925c-.65,0-1.052.777-1.052,1.7s.4,1.719,1.052,1.719a.946.946,0,0,0,.967-.947h.458c-.112.929-.578,1.394-1.381,1.394-1.059,0-1.553-1.047-1.553-2.156s.529-2.159,1.58-2.159a1.327,1.327,0,0,1,1.354,1.371Z" transform="translate(-73.483 -27.074)" fill="#1a1311"/><path d="M178.686,62.845h.011a1.208,1.208,0,0,1,1.108-.739c1.159,0,1.251,1.177,1.251,1.646V66.3h-.423V63.671c0-.705-.353-1.119-.931-1.119-.7,0-1.016.672-1.016,1.4V66.3h-.424V60.445h.424Z" transform="translate(-76.19 -25.835)" fill="#1a1311"/><rect width="0.459" height="5.876" transform="translate(107.864 34.587)" fill="#1a1311"/><path d="M191.619,67.537H191.2V64.385c0-.317-.021-.64-.036-.916h.437l.02.6.014.017a1.2,1.2,0,0,1,1.107-.739c1.158,0,1.248,1.176,1.248,1.646v2.545h-.421V64.911c0-.705-.354-1.119-.934-1.119-.7,0-1.015.672-1.015,1.4Z" transform="translate(-81.703 -27.074)" fill="#1a1311"/><path d="M198.825,63.345a1.127,1.127,0,0,1,1.29,1.13h-.459c-.041-.511-.437-.684-.873-.684-.4,0-.8.18-.8.656,0,.6.683.545,1.643.933a.992.992,0,0,1,.6.953,1.345,1.345,0,0,1-1.488,1.327,1.225,1.225,0,0,1-1.333-1.232h.456c.038.607.5.786.982.786a.83.83,0,0,0,.924-.811c0-.583-.557-.683-1.122-.829s-1.122-.339-1.122-1.094a1.145,1.145,0,0,1,1.3-1.135" transform="translate(-84.373 -27.074)" fill="#1a1311"/><path d="M203.742,63.2h-.705v-.446h.705v-.868l.424-.211v1.079h.806V63.2h-.806v2.721c-.008.373.163.578.486.578a1.2,1.2,0,0,0,.366-.047v.421a1.693,1.693,0,0,1-.429.072c-.9,0-.847-.657-.847-1.209Z" transform="translate(-86.779 -26.36)" fill="#1a1311"/><path d="M208.039,60.444h-.5v.606h.5Zm-.456,5.853H208V62.228h-.419Z" transform="translate(-88.704 -25.834)" fill="#1a1311"/><path d="M210.087,63.2h-.7v-.446h.7v-.868l.423-.211v1.079h.8V63.2h-.8v2.721c-.006.373.16.578.487.578a1.2,1.2,0,0,0,.367-.047v.421a1.7,1.7,0,0,1-.429.072c-.9,0-.847-.657-.847-1.209Z" transform="translate(-89.491 -26.36)" fill="#1a1311"/><path d="M216.309,63.56h.424v3.153c0,.317.021.64.036.916h-.437l-.022-.6-.013-.017a1.2,1.2,0,0,1-1.106.739c-1.159,0-1.251-1.177-1.251-1.645V63.56h.425v2.627c0,.7.353,1.118.929,1.118.7,0,1.016-.672,1.016-1.4Z" transform="translate(-91.438 -27.166)" fill="#1a1311"/><path d="M220.547,63.2h-.705v-.446h.705v-.868l.424-.211v1.079h.805V63.2h-.805v2.721c-.009.373.162.578.486.578a1.219,1.219,0,0,0,.367-.047v.421a1.737,1.737,0,0,1-.432.072c-.9,0-.845-.657-.845-1.209Z" transform="translate(-93.961 -26.36)" fill="#1a1311"/><path d="M224.5,65.169c.057-.711.423-1.378,1.115-1.378.735,0,1.1.593,1.149,1.378Zm2.723.447c0-1.275-.431-2.271-1.614-2.271-1.052,0-1.583,1.054-1.583,2.159s.494,2.156,1.553,2.156a1.541,1.541,0,0,0,1.6-1.419h-.445a1.107,1.107,0,0,1-1.024.973c-.867,0-1.212-.731-1.227-1.6Z" transform="translate(-95.75 -27.074)" fill="#1a1311"/><path d="M236.58,65.5c0,.752-.34,1.71-1.193,1.71s-1.193-.957-1.193-1.71.34-1.713,1.193-1.713,1.193.957,1.193,1.713m-1.193-2.159c-1.127,0-1.652,1.087-1.652,2.159s.524,2.156,1.652,2.156,1.652-1.087,1.652-2.156-.524-2.159-1.652-2.159" transform="translate(-99.899 -27.074)" fill="#1a1311"/><path d="M240.78,66.224V62.6h-.712v-.446h.712v-.868c0-.7.248-1.015.856-1.015a1.632,1.632,0,0,1,.4.09v.39a1.319,1.319,0,0,0-.263-.032c-.577,0-.591.332-.569.914v.52h.8V62.6h-.8v3.622Z" transform="translate(-102.606 -25.761)" fill="#1a1311"/><path d="M248.524,63.51h.85c.958,0,1.655.152,1.655,1.151,0,.9-.509,1.168-1.383,1.153h-1.122Zm0-.488V60.931h1.088c.6.01,1.208.177,1.208,1.03,0,.795-.594,1.061-1.188,1.061Zm1.484,3.276a1.433,1.433,0,0,0,1.514-1.564,1.385,1.385,0,0,0-1.157-1.483v-.015a1.345,1.345,0,0,0,.945-1.322,1.379,1.379,0,0,0-1.417-1.462l-1.825-.007V66.3Z" transform="translate(-106.025 -25.835)" fill="#1a1311"/><path d="M256.2,66.3h-.424V62.228h.424Zm.036-5.246h-.495v-.606h.495Z" transform="translate(-109.304 -25.834)" fill="#1a1311"/><path d="M260.679,65.5c0,.752-.34,1.71-1.193,1.71s-1.191-.957-1.191-1.71.337-1.713,1.191-1.713,1.193.957,1.193,1.713m-1.193-2.159c-1.127,0-1.649,1.087-1.649,2.159s.522,2.156,1.649,2.156,1.652-1.087,1.652-2.156-.523-2.159-1.652-2.159" transform="translate(-110.2 -27.074)" fill="#1a1311"/><path d="M265.883,63.345a1.126,1.126,0,0,1,1.288,1.13h-.459c-.042-.511-.439-.684-.875-.684-.395,0-.8.18-.8.656,0,.6.686.545,1.644.933a.989.989,0,0,1,.6.953,1.345,1.345,0,0,1-1.489,1.327,1.225,1.225,0,0,1-1.332-1.232h.46c.035.607.5.786.981.786a.83.83,0,0,0,.921-.811c0-.583-.557-.683-1.121-.829s-1.121-.339-1.121-1.094a1.144,1.144,0,0,1,1.3-1.135" transform="translate(-113.032 -27.074)" fill="#1a1311"/><path d="M272.853,64.716a.874.874,0,0,0-.969-.925c-.648,0-1.051.777-1.051,1.7s.4,1.719,1.051,1.719a.949.949,0,0,0,.969-.947h.457c-.114.929-.579,1.394-1.383,1.394-1.059,0-1.553-1.047-1.553-2.156s.529-2.159,1.583-2.159a1.329,1.329,0,0,1,1.353,1.371Z" transform="translate(-115.559 -27.074)" fill="#1a1311"/><path d="M277.118,66.3h-.424V62.228h.424Zm.036-5.246h-.494v-.606h.494Z" transform="translate(-118.245 -25.834)" fill="#1a1311"/><path d="M279.3,65.169c.056-.711.421-1.378,1.114-1.378.734,0,1.1.593,1.149,1.378Zm2.722.447c0-1.275-.43-2.271-1.615-2.271-1.051,0-1.58,1.054-1.58,2.159s.494,2.156,1.553,2.156a1.538,1.538,0,0,0,1.6-1.419h-.443a1.1,1.1,0,0,1-1.023.973c-.868,0-1.212-.731-1.228-1.6Z" transform="translate(-119.171 -27.074)" fill="#1a1311"/><path d="M286.2,67.537h-.423V64.385c0-.317-.021-.64-.037-.916h.437l.022.6.015.017a1.2,1.2,0,0,1,1.108-.739c1.155,0,1.247,1.176,1.247,1.646v2.545h-.424V64.911c0-.705-.351-1.119-.931-1.119-.7,0-1.015.672-1.015,1.4Z" transform="translate(-122.124 -27.074)" fill="#1a1311"/><path d="M294.917,64.716a1.327,1.327,0,0,0-1.355-1.371c-1.049,0-1.58,1.054-1.58,2.159s.5,2.156,1.555,2.156c.8,0,1.268-.464,1.38-1.394h-.456a.95.95,0,0,1-.968.947c-.65,0-1.051-.786-1.051-1.719s.4-1.7,1.051-1.7a.874.874,0,0,1,.968.925Z" transform="translate(-124.794 -27.074)" fill="#1a1311"/><path d="M298.418,65.169c.057-.711.424-1.378,1.114-1.378.733,0,1.1.593,1.152,1.378Zm2.725.447c0-1.275-.43-2.271-1.617-2.271-1.051,0-1.581,1.054-1.581,2.159s.5,2.156,1.551,2.156a1.539,1.539,0,0,0,1.6-1.419h-.444a1.1,1.1,0,0,1-1.022.973c-.866,0-1.215-.731-1.226-1.6Z" transform="translate(-127.342 -27.074)" fill="#1a1311"/><path d="M308.015,66.4c0-1.023,1.254-.892,1.852-.916.043.85-.132,1.727-1.058,1.727a.749.749,0,0,1-.794-.811m1.852-1.362a4.236,4.236,0,0,0-1.6.187,1.264,1.264,0,0,0-.711,1.176,1.158,1.158,0,0,0,1.179,1.257,1.291,1.291,0,0,0,1.106-.665l.021-.057h.014l.016.6h.436c-.012-.276-.042-.6-.035-.916V64.692c.014-.933-.471-1.347-1.256-1.347a1.211,1.211,0,0,0-1.327,1.152h.452c.057-.553.425-.706.868-.706.5,0,.8.21.838.877Z" transform="translate(-131.45 -27.074)" fill="#1a1311"/><path d="M314.408,67.537h-.424V64.385c0-.317-.022-.64-.036-.916h.437l.023.6.013.017a1.2,1.2,0,0,1,1.108-.739c1.158,0,1.247,1.176,1.247,1.646v2.545h-.421V64.911c0-.705-.352-1.119-.932-1.119-.7,0-1.015.672-1.015,1.4Z" transform="translate(-134.182 -27.074)" fill="#1a1311"/><path d="M322.863,64.165c0,.928-.285,1.81-1.208,1.81-.811,0-1-1.03-1-1.783,0-.779.261-1.639,1.064-1.639.827,0,1.146.787,1.146,1.612M322.9,66.3h.435c-.016-.276-.035-.6-.035-.916V60.445h-.423v2.383l-.014.017a1.382,1.382,0,0,0-1.215-.739c-1.051,0-1.453,1.087-1.453,2.142,0,1.022.4,2.173,1.453,2.173a1.4,1.4,0,0,0,1.215-.754l.014.031Z" transform="translate(-136.852 -25.835)" fill="#1a1311"/><path d="M331.1,63.51h.845c.96,0,1.658.152,1.658,1.151,0,.9-.508,1.168-1.383,1.153H331.1Zm0-.488V60.931h1.086c.6.01,1.2.177,1.2,1.03,0,.795-.591,1.061-1.184,1.061Zm1.479,3.276a1.433,1.433,0,0,0,1.517-1.564,1.384,1.384,0,0,0-1.157-1.483v-.015a1.345,1.345,0,0,0,.945-1.322,1.38,1.38,0,0,0-1.417-1.462l-1.828-.007V66.3Z" transform="translate(-141.318 -25.835)" fill="#1a1311"/><path d="M338.812,60.444h-.5v.606h.5ZM338.35,66.3h.424V62.228h-.424Z" transform="translate(-144.597 -25.834)" fill="#1a1311"/><path d="M343.254,65.5c0,.752-.339,1.71-1.193,1.71s-1.19-.957-1.19-1.71.337-1.713,1.19-1.713,1.193.957,1.193,1.713m-1.193-2.159c-1.127,0-1.649,1.087-1.649,2.159s.522,2.156,1.649,2.156,1.651-1.087,1.651-2.156-.523-2.159-1.651-2.159" transform="translate(-145.493 -27.074)" fill="#1a1311"/><path d="M347.464,63.2h-.705v-.446h.705v-.868l.421-.211v1.079h.805V63.2h-.805v2.721c-.005.373.164.578.487.578a1.205,1.205,0,0,0,.367-.047v.421a1.694,1.694,0,0,1-.431.072c-.895,0-.845-.657-.845-1.209Z" transform="translate(-148.206 -26.36)" fill="#1a1311"/><path d="M351.416,65.169c.057-.711.423-1.378,1.115-1.378.733,0,1.1.593,1.148,1.378Zm2.723.447c0-1.275-.431-2.271-1.617-2.271-1.049,0-1.581,1.054-1.581,2.159s.5,2.156,1.554,2.156a1.539,1.539,0,0,0,1.6-1.419h-.444a1.1,1.1,0,0,1-1.021.973c-.868,0-1.214-.731-1.227-1.6Z" transform="translate(-149.993 -27.074)" fill="#1a1311"/><path d="M359.974,64.716a.872.872,0,0,0-.966-.925c-.65,0-1.052.777-1.052,1.7s.4,1.719,1.052,1.719a.946.946,0,0,0,.966-.947h.458c-.113.929-.579,1.394-1.384,1.394-1.057,0-1.551-1.047-1.551-2.156s.53-2.159,1.58-2.159a1.328,1.328,0,0,1,1.355,1.371Z" transform="translate(-152.796 -27.074)" fill="#1a1311"/><path d="M364.255,62.845h.016a1.2,1.2,0,0,1,1.107-.739c1.156,0,1.247,1.177,1.247,1.646V66.3H366.2V63.671c0-.705-.355-1.119-.934-1.119-.7,0-1.015.672-1.015,1.4V66.3h-.423V60.445h.423Z" transform="translate(-155.503 -25.835)" fill="#1a1311"/><path d="M370.831,67.537h-.425V64.385c0-.317-.018-.64-.036-.916h.439l.022.6.011.017a1.2,1.2,0,0,1,1.109-.739c1.157,0,1.249,1.176,1.249,1.646v2.545h-.424V64.911c0-.705-.353-1.119-.931-1.119-.7,0-1.015.672-1.015,1.4Z" transform="translate(-158.298 -27.074)" fill="#1a1311"/><path d="M379.437,65.5c0,.752-.336,1.71-1.189,1.71s-1.194-.957-1.194-1.71.338-1.713,1.194-1.713,1.189.957,1.189,1.713m-1.189-2.159c-1.132,0-1.652,1.087-1.652,2.159s.52,2.156,1.652,2.156,1.647-1.087,1.647-2.156-.519-2.159-1.647-2.159" transform="translate(-160.958 -27.074)" fill="#1a1311"/><rect width="0.424" height="5.853" transform="translate(219.679 34.61)" fill="#1a1311"/><path d="M388.527,65.5c0,.752-.338,1.71-1.189,1.71s-1.193-.957-1.193-1.71.339-1.713,1.193-1.713,1.189.957,1.189,1.713m-1.189-2.159c-1.131,0-1.652,1.087-1.652,2.159s.521,2.156,1.652,2.156,1.649-1.087,1.649-2.156-.523-2.159-1.649-2.159" transform="translate(-164.843 -27.074)" fill="#1a1311"/><path d="M394.99,65.413c0,.795-.312,1.663-1.124,1.663-.776,0-1.106-.9-1.106-1.645s.324-1.639,1.094-1.639,1.136.844,1.136,1.622m0-1.346-.014.033a1.33,1.33,0,0,0-1.164-.755c-1.081,0-1.51,1.022-1.51,2.124,0,1.119.458,2.052,1.522,2.052a1.281,1.281,0,0,0,1.152-.76h.014v.76a1.1,1.1,0,0,1-1.074,1.129c-.452,0-.952-.163-1-.65h-.459c0,.845.762,1.095,1.4,1.095a1.443,1.443,0,0,0,.8-.186c.784-.423.748-1.275.748-2.085v-2.44c0-.317.021-.64.037-.916h-.438Z" transform="translate(-167.671 -27.074)" fill="#1a1311"/><path d="M398.966,63.56l1.192,3.4,1.186-3.4h.456l-1.953,5.626h-.465l.534-1.558-1.464-4.068Z" transform="translate(-170.299 -27.166)" fill="#1a1311"/><path d="M224.271,24.125v2.154H227.5v1.543h-3.233v2.153H227.5v3.294h2.153V24.125Z" transform="translate(-95.854 -10.311)" fill="#1a1311"/><path d="M329.906,33.268h2.158V24.124h-5.393v2.154h3.235v1.543h-3.235v2.153h3.235Z" transform="translate(-139.62 -10.311)" fill="#1a1311"/><path d="M213.91,24.124h-6.888v6.429h6.888Zm-4.738,2.154h2.583V28.4h-2.583Z" transform="translate(-88.482 -10.311)" fill="#1a1311"/><path d="M274.522,43.119v2.158h12.767v3.836h2.153V43.119Z" transform="translate(-117.331 -18.429)" fill="#1a1311"/><path d="M311.954,43.119H309.8v5.556h15.216V46.518H311.954Z" transform="translate(-132.409 -18.429)" fill="#1a1311"/><path d="M313.337,30.563a3.4,3.4,0,1,0-3.4-3.4,3.4,3.4,0,0,0,3.4,3.4m0-4.642a1.241,1.241,0,1,1-1.239,1.243,1.24,1.24,0,0,1,1.239-1.243" transform="translate(-132.47 -10.157)" fill="#1a1311"/><path d="M379.865,46.519v-3.4h-2.156v5.556h14.913V46.519Z" transform="translate(-161.433 -18.429)" fill="#1a1311"/><path d="M385.176,29.931a3.282,3.282,0,1,0-3.28-3.283,3.284,3.284,0,0,0,3.28,3.283m0-4.413a1.129,1.129,0,1,1-1.123,1.13,1.129,1.129,0,0,1,1.123-1.13" transform="translate(-163.223 -9.987)" fill="#1a1311"/><path d="M220.608,41.677a3.61,3.61,0,1,0,3.613,3.609,3.611,3.611,0,0,0-3.613-3.609m0,5.063a1.456,1.456,0,1,1,1.458-1.454,1.455,1.455,0,0,1-1.458,1.454" transform="translate(-92.748 -17.813)" fill="#1a1311"/><path d="M253.062,41.677a3.61,3.61,0,1,0,3.61,3.609,3.614,3.614,0,0,0-3.61-3.609m0,5.063a1.456,1.456,0,1,1,1.453-1.454,1.457,1.457,0,0,1-1.453,1.454" transform="translate(-106.618 -17.813)" fill="#1a1311"/><path d="M189.966,24.125v9.144h2.156v-6.99h1.853v6.99h2.15l0-9.144h-6.162Z" transform="translate(-81.192 -10.311)" fill="#1a1311"/><path d="M296.13,24.125v9.144h2.156v-6.99h3.067V24.125Z" transform="translate(-126.567 -10.311)" fill="#1a1311"/><path d="M185.875,41.677a3.61,3.61,0,1,0,3.612,3.609,3.615,3.615,0,0,0-3.612-3.609m0,5.063a1.456,1.456,0,1,1,1.457-1.454,1.458,1.458,0,0,1-1.457,1.454" transform="translate(-77.901 -17.813)" fill="#1a1311"/><path d="M253.351,30.531V24.125H242.646v2.154h8.548v4.252h-2.866V27.762H246.17v2.769h-8.046v2.154h19.5V30.531h-4.277Z" transform="translate(-101.775 -10.311)" fill="#1a1311"/><path d="M148.8,30.324v-6.2H138.548v2.154h8.1v4.045H133.9v2.152h8.586V35h-6.26v2.158h12.033v3.836h2.151V35h-5.77V32.475h9.032V30.324Z" transform="translate(-57.229 -10.311)" fill="#1a1311"/><path d="M381.939,36.626h2.155V33.1h5.666v1.3h-3.067v2.155h5.223V23.74H389.76v7.207H376.522V33.1h5.417Z" transform="translate(-160.926 -10.147)" fill="#1a1311"/><path d="M354.538,31.111V24.125H344.055v2.154h8.328v4.832H339.426v2.158h8.83v7.725h2.152V33.269h8.451V31.111Z" transform="translate(-145.071 -10.311)" fill="#1a1311"/><path d="M103.494,26.759a3.178,3.178,0,1,0,6.049-1.359H111.6V23.422h-3.911V21.637h-2.154v1.785h-3.913V25.4h2.18a3.115,3.115,0,0,0-.309,1.359m3.179,1.024a1.024,1.024,0,1,1,1.023-1.024,1.026,1.026,0,0,1-1.023,1.024" transform="translate(-43.434 -9.248)" fill="#1a1311"/><path d="M276.018,26.759a3.18,3.18,0,1,0,6.049-1.359h2.063V23.422h-3.91V21.637h-2.16v1.785h-3.913V25.4h2.18a3.182,3.182,0,0,0-.31,1.359m3.181,1.024a1.024,1.024,0,1,1,1.026-1.024,1.027,1.027,0,0,1-1.026,1.024" transform="translate(-117.172 -9.248)" fill="#1a1311"/><path d="M124.407,24.125v9.144h2.156v-6.99h3.069V24.125Z" transform="translate(-53.172 -10.311)" fill="#1a1311"/><path d="M104.209,43.119h-2.155v5.556H117.8V46.518H104.209Z" transform="translate(-43.618 -18.429)" fill="#1a1311"/><path d="M179.463,28.078,174.386,23l-5.078,5.076,1.521,1.527,3.557-3.556c.94.94,3.552,3.556,3.552,3.556Z" transform="translate(-72.363 -9.831)" fill="#1a1311"/></g></g></g></g></g></svg>