<svg xmlns="http://www.w3.org/2000/svg" xmlns:xlink="http://www.w3.org/1999/xlink" width="257" height="87" viewBox="0 0 257 87"><defs><clipPath id="a"><rect width="257" height="87" transform="translate(755 168)" fill="#ffaeae"/></clipPath><clipPath id="b"><rect width="224.05" height="28" fill="none"/></clipPath></defs><g transform="translate(-755 -168)"><g clip-path="url(#a)"><g transform="translate(771 198)"><rect width="5.867" height="26.67" transform="translate(40.967 0.599)" fill="#003e92"/><g transform="translate(0 0)"><g clip-path="url(#b)"><path d="M19.129,4.819v6.63h2.247s2.317-.238,2.317-3.359c0,0,.144-2.89-2.1-3.271Z" transform="translate(-1.326 -0.142)" fill="#003e92"/><path d="M19.045,15.907v7.567h2.7s2.007-.184,2.02-3.744c0,0,.179-3.725-2.1-3.823Z" transform="translate(-1.32 -0.469)" fill="#003e92"/><path d="M11.475,27.3H18.29L9.9,11.643,17.9.631H11.921l-5.99,8.6V.616H0V27.269H5.931V17.052l.435-.568Z" transform="translate(0 -0.018)" fill="#003e92"/><path d="M26.271,12.978A4.036,4.036,0,0,0,29.244,9.93a8.6,8.6,0,0,0-.668-6.242A6.058,6.058,0,0,0,23.553.663H34s3.961,0,5.409,1.607c0,0,2.151,1.418,1.5,7.255H35.221S35.61,5.99,34.532,4.9a1.551,1.551,0,0,0-1.494-.555,1.761,1.761,0,0,0-1.72,1.627A9.269,9.269,0,0,0,31.5,8.823a3.918,3.918,0,0,0,1.119,1.34s4.82,2.43,5.208,2.659a6.9,6.9,0,0,1,3.21,4.823s.5,3.479-.191,5.336a5.473,5.473,0,0,1-4.421,3.788,12.438,12.438,0,0,1-3.98.482h-8.3s3.381.113,4.939-3.86a10.223,10.223,0,0,0,.5-5.422h1.976v2.464a5.352,5.352,0,0,0,.561,2.059,2.063,2.063,0,0,0,1.458.531,1.768,1.768,0,0,0,1.837-1.48,6.709,6.709,0,0,0-.031-3.011s-.162-1.056-1.981-2.025Z" transform="translate(-1.633 -0.019)" fill="#003e92"/><path d="M59.566,2.635h9.157V4.421H59.566Zm7.577,6.818a5.467,5.467,0,0,1-3.014.756,5.532,5.532,0,0,1-2.957-.756A2.186,2.186,0,0,1,59.945,7.58a2.2,2.2,0,0,1,1.227-1.915,5.616,5.616,0,0,1,2.973-.747,5.425,5.425,0,0,1,3.006.756A2.235,2.235,0,0,1,68.311,7.6a2.186,2.186,0,0,1-1.169,1.855M61.559,15.1V10.929h2.372v2.284h8.531V15.1ZM61.658.2h4.925V1.914H61.658ZM65.47,6.868a3.4,3.4,0,0,0-1.293-.232,3.759,3.759,0,0,0-1.359.232q-.6.231-.6.7,0,.48.6.695a4.011,4.011,0,0,0,1.359.214,3.624,3.624,0,0,0,1.293-.214q.57-.214.569-.678a.763.763,0,0,0-.569-.712m6.547-.009V11.41H69.811V.333h2.207V4.8h1.927V6.859Z" transform="translate(-4.13 -0.005)" fill="#1a1311"/><path d="M83.882,7.976v2.216h4.645v5.273h-2.24v-3.3H77.375V10.191h4.168V7.976H75.795V6H85.858q.148-.67.313-1.581T86.4,2.772H77.309V.8H88.856A14.665,14.665,0,0,1,88.5,3.87Q88.147,5.518,88.016,6h2.273V7.976Z" transform="translate(-5.255 -0.023)" fill="#1a1311"/><path d="M99.272,8.881a14.133,14.133,0,0,1-4.687,4.1l-1.712-1.34a9.456,9.456,0,0,0,4.142-3.409,7.736,7.736,0,0,0,1.605-4.3H93.812V1.968h7.461a11.227,11.227,0,0,1-2,6.913M103.743.337h2.208V15.45h-2.208Z" transform="translate(-6.439 -0.01)" fill="#1a1311"/><path d="M109.066,14.355V12.38h6.094V9.58H117.5v2.8h6.061v1.975Zm12.353-4.191a10.441,10.441,0,0,1-2.734-.858,6.619,6.619,0,0,1-2.371-1.718,6.48,6.48,0,0,1-2.158,1.606,10.088,10.088,0,0,1-2.947.969L109.89,8.379a8.985,8.985,0,0,0,3.212-.963A3.615,3.615,0,0,0,115,5.441h-4.447V3.484h11.529V5.441h-4.447a3.619,3.619,0,0,0,2.042,1.941,14.058,14.058,0,0,0,3.064,1ZM113.183.46h6.259V2.4h-6.259Z" transform="translate(-7.562 -0.013)" fill="#1a1311"/><path d="M132.441,12.84q-2.192.137-5.139.138h-1.564V11h2.586V6.467h2.19v4.517q.889,0,2.644-.111t2.643-.215v1.907q-1.17.137-3.36.275m1.911-6.26q-.38,2.482-.4,2.534h-2.174q.032-.138.3-2.07a26.439,26.439,0,0,0,.289-3.271h-5.9V1.8h8.252a31.752,31.752,0,0,1-.379,4.782m4.167,1.95V15.45h-2.191V.337h2.191V6.484h2.026V8.529Z" transform="translate(-8.717 -0.01)" fill="#1a1311"/><path d="M142.745,2.616H151.9V4.385h-9.157ZM150.33,9.1a5.633,5.633,0,0,1-3.006.712,5.8,5.8,0,0,1-2.916-.712,2.074,2.074,0,0,1-1.252-1.8,1.991,1.991,0,0,1,1.26-1.777,6.279,6.279,0,0,1,2.957-.661,5.875,5.875,0,0,1,2.948.661,1.984,1.984,0,0,1,1.152,1.76A2.1,2.1,0,0,1,150.33,9.1m2.577,6.346v-2.9h-8.565V10.637H155.2v4.809ZM144.837.195h4.925V1.929h-4.925Zm3.788,6.466a3.371,3.371,0,0,0-1.269-.214,3.52,3.52,0,0,0-1.293.223c-.379.149-.569.36-.569.635s.187.487.56.637a3.5,3.5,0,0,0,1.3.222,3.132,3.132,0,0,0,1.277-.231c.345-.154.518-.37.518-.644s-.176-.483-.527-.627M155.2,6.4V9.95H152.99V.333H155.2v4h1.911V6.4Z" transform="translate(-9.897 -0.005)" fill="#1a1311"/><path d="M167.851,12.685a9.166,9.166,0,0,1-1.968-1.511,6.514,6.514,0,0,1-1.507-2.1,6.573,6.573,0,0,1-1.581,2.344A11.857,11.857,0,0,1,160.8,13.03l-1.581-1.58a8.058,8.058,0,0,0,2.644-2.285,7.2,7.2,0,0,0,1.325-4.62V3.7h-3.064V1.745h8.516V3.7h-3.1v.841a6.384,6.384,0,0,0,1.284,4.389,9.211,9.211,0,0,0,2.437,2.018ZM170.585.337h2.207V15.45h-2.207Z" transform="translate(-11.039 -0.01)" fill="#1a1311"/><path d="M183.93,8.133q-1.631.112-2.437.129v2.182h-2.24V8.279h-3.113V6.321H181q1.12,0,3-.154t2.519-.275V7.849a24.773,24.773,0,0,1-2.585.283M184.07.868a2.612,2.612,0,0,1,.963,1.984,2.567,2.567,0,0,1-.988,2,4.334,4.334,0,0,1-2.9.85,4.3,4.3,0,0,1-2.9-.859,2.575,2.575,0,0,1-.988-1.992,2.578,2.578,0,0,1,1-1.984,5.305,5.305,0,0,1,5.815,0M178.478,15.1V11.044h2.24v2.079h8.894V15.1Zm4.044-13a1.881,1.881,0,0,0-1.376-.411A1.825,1.825,0,0,0,179.8,2.1a1.151,1.151,0,0,0-.4.756,1.073,1.073,0,0,0,.428.722,2.5,2.5,0,0,0,2.693,0,1.09,1.09,0,0,0,.4-.722,1.153,1.153,0,0,0-.4-.756m4.571,9.6V10.581h-3.278v-1.8h3.278V.327h2.191V11.7Z" transform="translate(-12.212 0)" fill="#1a1311"/><path d="M203.536,11.242V7.258h-3.081A4.208,4.208,0,0,1,199.023,8.4a4.275,4.275,0,0,1-1.943.439,4.072,4.072,0,0,1-3.04-1.22,3.985,3.985,0,0,1-1.194-2.885,3.99,3.99,0,0,1,1.194-2.886A4.075,4.075,0,0,1,197.08.629a4.311,4.311,0,0,1,1.778.36,4.176,4.176,0,0,1,1.367.962h3.31V.337h2.223V11.242Zm-8.516,3.864V10.075h2.24v3.057h8.828v1.975Zm.593-11.877a2.306,2.306,0,0,0-.527,1.5,2.312,2.312,0,0,0,.527,1.494,2,2,0,0,0,2.957,0,2.331,2.331,0,0,0,.519-1.494,2.325,2.325,0,0,0-.519-1.5,2.02,2.02,0,0,0-2.957,0m7.923.7h-2.289c.021.126.041.258.058.395a3.411,3.411,0,0,1,.024.412c0,.092,0,.183-.007.275a1.541,1.541,0,0,1-.042.275h2.257Z" transform="translate(-13.37 -0.01)" fill="#1a1311"/><path d="M216.9,9.255v6.217h-2.273V9.255H208.88V7.28h9.866q.165-.722.387-1.984a18.439,18.439,0,0,0,.272-2.258H210.4V1.062h11.481a18.956,18.956,0,0,1-.4,3.873q-.4,1.9-.477,2.345h2.371V9.255Z" transform="translate(-14.482 -0.031)" fill="#1a1311"/><path d="M233.837,8.133q-1.631.112-2.437.129v2.182h-2.24V8.279h-3.113V6.321h4.86q1.12,0,3-.154t2.519-.275V7.849a24.744,24.744,0,0,1-2.585.283m.141-7.265a2.613,2.613,0,0,1,.964,1.984,2.57,2.57,0,0,1-.988,2,4.338,4.338,0,0,1-2.9.85,4.3,4.3,0,0,1-2.9-.859,2.578,2.578,0,0,1-.988-1.992,2.582,2.582,0,0,1,1-1.984,5.305,5.305,0,0,1,5.815,0M228.385,15.1V11.044h2.24v2.079h8.893V15.1Zm4.044-13a1.881,1.881,0,0,0-1.376-.411,1.823,1.823,0,0,0-1.342.411,1.155,1.155,0,0,0-.4.756,1.073,1.073,0,0,0,.428.722,1.926,1.926,0,0,0,1.336.394,1.906,1.906,0,0,0,1.358-.394,1.09,1.09,0,0,0,.4-.722,1.153,1.153,0,0,0-.4-.756M237,11.7V10.581h-3.278v-1.8H237V.327h2.19V11.7Z" transform="translate(-15.672 0)" fill="#1a1311"/><path d="M64.81,28.389l-2.8-3.605c-.127.118-.256.241-.388.37s-.246.233-.34.316v2.908H60v-7.8h1.284v3.21q.678-.675,1.515-1.559t1.444-1.662h1.564q-.7.914-1.466,1.761T62.927,23.86l3.427,4.529Z" transform="translate(-4.16 -0.607)" fill="#1a1311"/><path d="M72.916,21.505a4.554,4.554,0,0,1,.927,2.962,4.574,4.574,0,0,1-.927,2.966,3.281,3.281,0,0,1-4.987,0A4.561,4.561,0,0,1,67,24.467a4.541,4.541,0,0,1,.932-2.962,3.29,3.29,0,0,1,4.987,0m-.991,5.023a3.565,3.565,0,0,0,.553-2.061,3.5,3.5,0,0,0-.553-2.037,1.815,1.815,0,0,0-3.009,0,3.552,3.552,0,0,0-.543,2.037,3.613,3.613,0,0,0,.543,2.061,1.808,1.808,0,0,0,3.009,0" transform="translate(-4.645 -0.601)" fill="#1a1311"/><path d="M79.917,28.4l-2.062-3.034H76.728V28.4h-1.3V20.577h3.079a2.565,2.565,0,0,1,1.789.674,2.158,2.158,0,0,1,.742,1.662,2.466,2.466,0,0,1-.483,1.486,2.127,2.127,0,0,1-1.19.852L81.5,28.4Zm-.633-4.633a1.083,1.083,0,0,0,0-1.688,1.667,1.667,0,0,0-.991-.286h-1.6v2.244l1.6.011a1.7,1.7,0,0,0,.991-.28" transform="translate(-5.23 -0.607)" fill="#1a1311"/><path d="M82.585,28.379v-7.8h5.22v1.257H83.87v1.932h3.746v1.247H83.87v2.109l4.045-.011v1.267Z" transform="translate(-5.726 -0.607)" fill="#1a1311"/><path d="M89.99,28.378H88.655l2.859-7.822h1.5l2.869,7.811H94.533L93.885,26.6H90.638Zm2.282-6.223L91.1,25.366h2.331Z" transform="translate(-6.147 -0.607)" fill="#1a1311"/><path d="M106.146,24.893a1.9,1.9,0,0,1,.379,1.377,2.01,2.01,0,0,1-.782,1.516,2.829,2.829,0,0,1-1.838.593h-3.228V20.567h3.218a2.332,2.332,0,0,1,1.6.53,1.987,1.987,0,0,1,.7,1.235,1.694,1.694,0,0,1-.2,1.21,2.05,2.05,0,0,1-.653.68,2.252,2.252,0,0,1,.807.671m-1.6-1.46a.863.863,0,0,0,.293-.7.816.816,0,0,0-.3-.649,1.237,1.237,0,0,0-.827-.255h-1.743v1.85h1.734a1.265,1.265,0,0,0,.842-.249m.293,3.356a1.084,1.084,0,0,0,.309-.758,1.114,1.114,0,0,0-.3-.754,1.277,1.277,0,0,0-1-.337h-1.883v2.182h1.843a1.348,1.348,0,0,0,1.027-.333" transform="translate(-6.98 -0.607)" fill="#1a1311"/><path d="M108.67,28.378h-1.335l2.86-7.822h1.5l2.869,7.811h-1.355l-.648-1.765h-3.247Zm2.282-6.223-1.175,3.21h2.331Z" transform="translate(-7.442 -0.607)" fill="#1a1311"/><path d="M120.9,25.127a1.929,1.929,0,0,1,.275,1.263,2.283,2.283,0,0,1-.817,1.542,2.976,2.976,0,0,1-2.062.67,2.843,2.843,0,0,1-2.247-.94,2.7,2.7,0,0,1-.783-1.937h1.275a1.5,1.5,0,0,0,.509,1.137,2.013,2.013,0,0,0,2.286.214,1.094,1.094,0,0,0,.454-.675.793.793,0,0,0-.114-.649,1.365,1.365,0,0,0-.544-.442,3.462,3.462,0,0,0-1.016-.353,5,5,0,0,1-1.106-.343,2.687,2.687,0,0,1-1.121-.827,1.886,1.886,0,0,1-.354-1.313,2.332,2.332,0,0,1,.7-1.43,2.611,2.611,0,0,1,1.993-.691,2.384,2.384,0,0,1,2.147.952,2.737,2.737,0,0,1,.583,1.635h-1.275a1.413,1.413,0,0,0-.354-.919,1.35,1.35,0,0,0-1.081-.4,1.372,1.372,0,0,0-1.026.3,1.025,1.025,0,0,0-.3.643.681.681,0,0,0,.274.63,2.728,2.728,0,0,0,.672.378,8.434,8.434,0,0,0,.982.28,4.8,4.8,0,0,1,1.181.457,2.33,2.33,0,0,1,.871.816" transform="translate(-7.991 -0.601)" fill="#1a1311"/><rect width="1.276" height="7.802" transform="translate(114.339 19.97)" fill="#1a1311"/><path d="M132.079,25.776a4.164,4.164,0,0,1-.981,1.859,2.823,2.823,0,0,1-2.276.946,3.042,3.042,0,0,1-2.506-1.149,4.591,4.591,0,0,1-.921-2.966,4.57,4.57,0,0,1,.921-2.961,3.046,3.046,0,0,1,2.506-1.143,2.8,2.8,0,0,1,2.321.971,3.985,3.985,0,0,1,.906,1.752l-1.4.01a2.431,2.431,0,0,0-.533-.977,1.547,1.547,0,0,0-1.25-.487,1.794,1.794,0,0,0-1.525.778,3.419,3.419,0,0,0-.568,2.057,3.485,3.485,0,0,0,.568,2.078,1.787,1.787,0,0,0,1.525.789,1.547,1.547,0,0,0,1.24-.514,2.637,2.637,0,0,0,.583-1.043Z" transform="translate(-8.694 -0.601)" fill="#1a1311"/><path d="M142.354,25.127a1.929,1.929,0,0,1,.274,1.263,2.278,2.278,0,0,1-.816,1.542,2.976,2.976,0,0,1-2.062.67,2.843,2.843,0,0,1-2.247-.94,2.7,2.7,0,0,1-.783-1.937h1.275a1.5,1.5,0,0,0,.509,1.137,2.013,2.013,0,0,0,2.286.214,1.094,1.094,0,0,0,.454-.675.793.793,0,0,0-.114-.649,1.372,1.372,0,0,0-.544-.442,3.462,3.462,0,0,0-1.016-.353,5,5,0,0,1-1.106-.343,2.687,2.687,0,0,1-1.121-.827,1.886,1.886,0,0,1-.354-1.313,2.327,2.327,0,0,1,.7-1.43,2.611,2.611,0,0,1,1.993-.691,2.386,2.386,0,0,1,2.147.952,2.737,2.737,0,0,1,.583,1.635h-1.275a1.413,1.413,0,0,0-.354-.919,1.35,1.35,0,0,0-1.081-.4,1.376,1.376,0,0,0-1.027.3,1.029,1.029,0,0,0-.3.643.681.681,0,0,0,.274.63,2.727,2.727,0,0,0,.672.378,8.381,8.381,0,0,0,.982.28,4.777,4.777,0,0,1,1.18.457,2.325,2.325,0,0,1,.872.816" transform="translate(-9.479 -0.601)" fill="#1a1311"/><path d="M150.46,25.776a4.164,4.164,0,0,1-.981,1.859,2.824,2.824,0,0,1-2.276.946,3.042,3.042,0,0,1-2.506-1.149,4.591,4.591,0,0,1-.921-2.966,4.57,4.57,0,0,1,.921-2.961,3.046,3.046,0,0,1,2.506-1.143,2.8,2.8,0,0,1,2.321.971,3.985,3.985,0,0,1,.906,1.752l-1.4.01a2.431,2.431,0,0,0-.533-.977,1.548,1.548,0,0,0-1.251-.487,1.793,1.793,0,0,0-1.524.778,3.419,3.419,0,0,0-.568,2.057,3.485,3.485,0,0,0,.568,2.078,1.787,1.787,0,0,0,1.524.789,1.547,1.547,0,0,0,1.241-.514,2.636,2.636,0,0,0,.583-1.043Z" transform="translate(-9.968 -0.601)" fill="#1a1311"/><rect width="1.276" height="7.802" transform="translate(141.578 19.97)" fill="#1a1311"/><path d="M154.983,28.379v-7.8h5.22v1.257h-3.935v1.932h3.746v1.247h-3.746v2.109l4.045-.011v1.267Z" transform="translate(-10.745 -0.607)" fill="#1a1311"/><path d="M166.02,28.4l-2.969-5.569-.02,5.569h-1.315V20.577h1.564l3.019,5.569V20.577h1.3V28.4Z" transform="translate(-11.212 -0.607)" fill="#1a1311"/><path d="M175.8,25.776a4.164,4.164,0,0,1-.981,1.859,2.824,2.824,0,0,1-2.277.946,3.042,3.042,0,0,1-2.505-1.149,4.591,4.591,0,0,1-.921-2.966,4.57,4.57,0,0,1,.921-2.961,3.045,3.045,0,0,1,2.505-1.143,2.8,2.8,0,0,1,2.322.971,4,4,0,0,1,.906,1.752l-1.405.01a2.417,2.417,0,0,0-.532-.977,1.548,1.548,0,0,0-1.251-.487,1.792,1.792,0,0,0-1.524.778,3.419,3.419,0,0,0-.568,2.057,3.485,3.485,0,0,0,.568,2.078,1.786,1.786,0,0,0,1.524.789,1.547,1.547,0,0,0,1.241-.514,2.636,2.636,0,0,0,.583-1.043Z" transform="translate(-11.725 -0.601)" fill="#1a1311"/><path d="M177.249,28.379v-7.8h5.22v1.257h-3.935v1.932h3.746v1.247h-3.746v2.109l4.045-.011v1.267Z" transform="translate(-12.289 -0.607)" fill="#1a1311"/><rect width="1.276" height="7.802" transform="translate(174.814 19.97)" fill="#1a1311"/><path d="M195,28.4l-2.969-5.569-.02,5.569h-1.315V20.577h1.564l3.019,5.569V20.577h1.3V28.4Z" transform="translate(-13.221 -0.607)" fill="#1a1311"/><path d="M203.6,25.127a1.923,1.923,0,0,1,.274,1.263,2.278,2.278,0,0,1-.816,1.542,2.976,2.976,0,0,1-2.062.67,2.843,2.843,0,0,1-2.247-.94,2.7,2.7,0,0,1-.783-1.937h1.275a1.5,1.5,0,0,0,.509,1.137,2.013,2.013,0,0,0,2.286.214,1.094,1.094,0,0,0,.454-.675.793.793,0,0,0-.114-.649,1.371,1.371,0,0,0-.544-.442,3.462,3.462,0,0,0-1.016-.353,5,5,0,0,1-1.106-.343,2.687,2.687,0,0,1-1.121-.827,1.886,1.886,0,0,1-.354-1.313,2.332,2.332,0,0,1,.7-1.43,2.611,2.611,0,0,1,1.993-.691,2.384,2.384,0,0,1,2.147.952,2.737,2.737,0,0,1,.583,1.635h-1.275a1.413,1.413,0,0,0-.354-.919,1.351,1.351,0,0,0-1.081-.4,1.376,1.376,0,0,0-1.027.3,1.028,1.028,0,0,0-.3.643.681.681,0,0,0,.274.63,2.728,2.728,0,0,0,.672.378,8.382,8.382,0,0,0,.982.28,4.8,4.8,0,0,1,1.181.457,2.33,2.33,0,0,1,.871.816" transform="translate(-13.725 -0.601)" fill="#1a1311"/><path d="M208.323,21.856v6.566l-1.3-.011V21.856h-2.331V20.61h5.967v1.246Z" transform="translate(-14.191 -0.608)" fill="#1a1311"/><rect width="1.276" height="7.802" transform="translate(197.29 19.97)" fill="#1a1311"/><path d="M217.829,21.856v6.566l-1.3-.011V21.856h-2.331V20.61h5.967v1.246Z" transform="translate(-14.85 -0.608)" fill="#1a1311"/><path d="M227.044,25.906a2.552,2.552,0,0,1-.792,1.943,3.4,3.4,0,0,1-4.254,0,2.569,2.569,0,0,1-.783-1.943l.01-5.318h1.3v4.955a2.908,2.908,0,0,0,.264,1.215q.264.582,1.33.582t1.336-.587a2.87,2.87,0,0,0,.269-1.21l-.01-4.955h1.325Z" transform="translate(-15.337 -0.608)" fill="#1a1311"/><path d="M231.778,21.856v6.566l-1.3-.011V21.856h-2.331V20.61h5.967v1.246Z" transform="translate(-15.817 -0.608)" fill="#1a1311"/><path d="M235.014,28.379v-7.8h5.22v1.257H236.3v1.932h3.746v1.247H236.3v2.109l4.045-.011v1.267Z" transform="translate(-16.294 -0.607)" fill="#1a1311"/></g></g></g></g></g></svg>