<svg xmlns="http://www.w3.org/2000/svg" xmlns:xlink="http://www.w3.org/1999/xlink" width="257" height="87" viewBox="0 0 257 87"><defs><clipPath id="a"><rect width="257" height="87" transform="translate(43 168)" fill="#ffaeae"/></clipPath><clipPath id="b"><rect width="213.324" height="50.667" fill="none"/></clipPath></defs><g transform="translate(-43 -168)"><g clip-path="url(#a)"><g transform="translate(64.807 186.666)"><path d="M210.528,18.741h-2.317V15.36H205.7v9.227h2.512v-4.2h2.317Z" transform="translate(-75.193 -5.615)" fill="#5f5d56"/><path d="M200.669,38.659h2.511V31.922H191.937v1.646h8.731Z" transform="translate(-70.162 -11.669)" fill="#5f5d56"/><g transform="translate(0 0)"><g clip-path="url(#b)"><path d="M195.779,17.441l-.21-.192-.1-.091h1.818V15.517H194.1v-1.55h-2.771v1.55h-3.179v1.641h1.818l-.09.077a3.867,3.867,0,0,0-1.372,2.915,3.82,3.82,0,0,0,1.141,2.71,4.4,4.4,0,0,0,6.134,0,3.784,3.784,0,0,0,0-5.418M192.712,22.5a1.793,1.793,0,0,1-1.275-.563,2.788,2.788,0,0,1,0-3.724,1.725,1.725,0,0,1,2.55,0,2.664,2.664,0,0,1,.714,1.863,2.242,2.242,0,0,1-1.99,2.424" transform="translate(-68.777 -5.106)" fill="#5f5d56"/><path d="M130.964,20.46V18.814h-2.382V15.361h-2.511V26.886h2.511V20.46Z" transform="translate(-46.085 -5.615)" fill="#5f5d56"/><path d="M123.747,36.856h-8.613V32.17h-2.511V38.5h11.124Z" transform="translate(-41.169 -11.76)" fill="#5f5d56"/><path d="M116.152,17.441l-.207-.188-.11-.1h1.822v-1.64h-3.187V13.967H111.7v1.551h-3.18v1.64h1.818l-.088.077a3.863,3.863,0,0,0-1.373,2.914,3.82,3.82,0,0,0,1.142,2.71,4.395,4.395,0,0,0,6.135,0,3.789,3.789,0,0,0,0-5.418m-3.069,5.176a1.833,1.833,0,0,1-1.314-.589,2.951,2.951,0,0,1,0-3.9,1.759,1.759,0,0,1,2.629,0,2.81,2.81,0,0,1,.735,1.948,2.335,2.335,0,0,1-2.05,2.537" transform="translate(-39.669 -5.106)" fill="#5f5d56"/><path d="M161.248,17.388h6.165v9.9h-2.1V20.866h-2.424v6.418h-2.377V28.93h11.357v3.675h2.512V21.84h2.25V20.2h-2.25V15.361h-2.512V27.285h-1.943V15.743h-8.679Z" transform="translate(-58.675 -5.615)" fill="#5f5d56"/><path d="M136.472,15.73v1.65h9.334V21.79h-10.8v1.641H141v2.41h-4.481v1.643H145.8v5.3h2.511V25.841h-4.756v-2.41h6.28V21.79h-1.523V15.73Z" transform="translate(-49.351 -5.75)" fill="#5f5d56"/><rect width="2.509" height="17.157" transform="translate(147.212 9.745)" fill="#5f5d56"/><path d="M247.491,17.894l.032-.036.035.035a8.894,8.894,0,0,0,6.378,2.679l.048,0v-1.5l-.041-.006c-2.093-.253-4.569-1.961-4.917-4.107,0,0,0-.022-.008-.044H246.03c0,.022-.008.046-.008.046-.344,2.144-2.821,3.854-4.916,4.106l-.041.006v1.5l.048,0a8.9,8.9,0,0,0,6.379-2.678" transform="translate(-88.121 -5.451)" fill="#5f5d56"/><path d="M254.446,27.176V25.529H239.331v1.647h6.288v1.4h-4.666v1.643h9.3v1.265h-9.3v4.628h11.836v-1.65H243.5V33.141h9.292V28.58H248.16v-1.4Z" transform="translate(-87.487 -9.332)" fill="#5f5d56"/><path d="M329.367,39.121V37.475h-8.981v-3.6h-2.51v5.248Z" transform="translate(-116.199 -12.383)" fill="#5f5d56"/><path d="M322.35,24.582v1.647h3.013v1.722h2.51v-12.8h-2.51v6.475h-3.628l.346-.354a3.781,3.781,0,0,0,0-5.027A4.088,4.088,0,0,0,319,14.866a3.968,3.968,0,0,0-4.034,3.889,3.8,3.8,0,0,0,.957,2.512l.346.355h-2.493v1.646h3.971V26h2.509V23.268h5.106v1.314ZM319,21.08a1.6,1.6,0,0,1-1.264-.675,2.849,2.849,0,0,1,0-3.3,1.52,1.52,0,0,1,2.528,0,2.7,2.7,0,0,1,.529,1.649A2.114,2.114,0,0,1,319,21.08" transform="translate(-114.701 -5.435)" fill="#5f5d56"/><path d="M303.863,24.078h-1.61V15.942H290.584v1.65h9.159v6.486H289.334v1.645h5.826v7h2.507v-7h6.195Z" transform="translate(-105.766 -5.828)" fill="#5f5d56"/><path d="M269.418,32.311V38.55h11.072V36.9h-8.562V32.311Z" transform="translate(-98.486 -11.811)" fill="#5f5d56"/><path d="M278.933,26.718V15.19h-2.512v1.86H273.2l-.013-.02a4.669,4.669,0,0,0-.478-.653,4.2,4.2,0,0,0-3.178-1.471,4.531,4.531,0,0,0-4.364,4.672,4.837,4.837,0,0,0,1.186,3.2,4.171,4.171,0,0,0,6.356,0,4.612,4.612,0,0,0,.5-.693l.012-.022h3.2v4.655Zm-9.405-4.1a1.64,1.64,0,0,1-1.272-.711,3.86,3.86,0,0,1-.709-2.331,3.86,3.86,0,0,1,.709-2.332,1.494,1.494,0,0,1,2.544,0,3.861,3.861,0,0,1,.707,2.332c0,1.677-.887,3.042-1.979,3.042m4.29-2.2.007-.051a5.08,5.08,0,0,0,.065-.791,4.919,4.919,0,0,0-.071-.831l-.007-.051h2.609v1.724Z" transform="translate(-96.93 -5.449)" fill="#5f5d56"/><path d="M214.633,28.716c.673-.089,8.665-1.521,8.665-10.878V16.1H215.06v1.646h5.633v.044c0,7.941-5.562,9.03-6.06,9.111Z" transform="translate(-78.459 -5.886)" fill="#5f5d56"/><path d="M110.421,50.486h.919v2.542h.016l1.884-2.542h.926l-2.026,2.626,2.25,3.125H113.3l-1.943-2.793h-.016v2.793h-.919Z" transform="translate(-40.364 -18.455)" fill="#5f5d56"/><path d="M117.87,55.228c0-.725.091-1.725.833-1.725s.842,1,.842,1.725-.091,1.725-.842,1.725-.833-1-.833-1.725M118.7,57.3c1.167,0,1.759-.733,1.759-2.075s-.591-2.075-1.759-2.075-1.751.733-1.751,2.075.585,2.075,1.751,2.075" transform="translate(-42.752 -19.43)" fill="#5f5d56"/><path d="M123.982,53.245h.842v1.009h.017c.266-.534.558-1.042,1.284-1.1v.874c-.808.025-1.3.3-1.3,1.368v1.817h-.842Z" transform="translate(-45.321 -19.431)" fill="#5f5d56"/><path d="M128.769,54.394c.015-.224.14-.891.791-.891.626,0,.734.584.734.891Zm2.275,2.3a1.765,1.765,0,0,1-.758.167c-1.193,0-1.542-1.3-1.542-2.084h2.374c0-.767-.242-1.625-1.525-1.625-1.249,0-1.69.8-1.69,1.9,0,1.6.882,2.25,1.982,2.25a2.783,2.783,0,0,0,1.16-.225Z" transform="translate(-46.754 -19.43)" fill="#5f5d56"/><path d="M136.253,55.821a.9.9,0,0,1-.817.957c-.274,0-.484-.233-.484-.591,0-.733.95-.81,1.3-.834Zm0,1.392h.842V54.654c0-.775-.108-1.5-1.4-1.5-1.25,0-1.482.624-1.525,1.216h.883c.033-.468.125-.867.641-.867.559,0,.559.716.559,1.15v.351c-.524.024-2.217.082-2.217,1.308a1.022,1.022,0,0,0,1.084.992,1.271,1.271,0,0,0,1.117-.642h.016Z" transform="translate(-48.997 -19.431)" fill="#5f5d56"/><rect width="0.916" height="5.751" transform="translate(91.716 32.031)" fill="#5f5d56"/><path d="M148.078,53.245h.843v.943h.017a1.563,1.563,0,0,1,1.392-1.034,1.031,1.031,0,0,1,1,1.159v2.9h-.841V54.729c0-.5-.076-.951-.5-.951-.834,0-1.067,1.3-1.067,1.792v1.643h-.843Z" transform="translate(-54.13 -19.431)" fill="#5f5d56"/><path d="M156.95,54.028a1.778,1.778,0,0,0-1-.392c-.266,0-.565.117-.565.417,0,.716,1.816.784,1.816,2.05,0,.85-.667,1.2-1.509,1.2a3.2,3.2,0,0,1-1.058-.174v-.775a1.988,1.988,0,0,0,1.1.417c.483,0,.683-.251.683-.5,0-.7-1.792-.841-1.792-1.975,0-.6.4-1.142,1.393-1.142a3.277,3.277,0,0,1,.933.158Z" transform="translate(-56.522 -19.43)" fill="#5f5d56"/><path d="M161.82,56.469a2.629,2.629,0,0,1-.582.058c-.792,0-1.25-.242-1.25-1.008V52.9h-.634v-.434h.634v-.933l.841-.509v1.441h1.084V52.9h-1.084v2.285c0,.582.056.865.6.865a1.023,1.023,0,0,0,.391-.066Z" transform="translate(-58.251 -18.652)" fill="#5f5d56"/><path d="M164.617,52.269h.841v3.968h-.841Zm-.034-1.783h.909v.833h-.909Z" transform="translate(-60.163 -18.455)" fill="#5f5d56"/><path d="M169.847,56.469a2.646,2.646,0,0,1-.584.058c-.79,0-1.249-.242-1.249-1.008V52.9h-.634v-.434h.634v-.933l.843-.509v1.441h1.082V52.9h-1.082v2.285c0,.582.057.865.6.865a1.031,1.031,0,0,0,.393-.066Z" transform="translate(-61.185 -18.652)" fill="#5f5d56"/><path d="M175,56.322h-.016a1.556,1.556,0,0,1-1.385,1.034,1.032,1.032,0,0,1-1-1.159V53.3h.842v2.485c0,.5.075.95.5.95.832,0,1.066-1.3,1.066-1.794V53.3h.843v3.968H175Z" transform="translate(-63.092 -19.483)" fill="#5f5d56"/><path d="M181.527,56.469a2.65,2.65,0,0,1-.584.058c-.791,0-1.25-.242-1.25-1.008V52.9h-.633v-.434h.633v-.933l.841-.509v1.441h1.085V52.9h-1.085v2.285c0,.582.059.865.6.865a1.034,1.034,0,0,0,.392-.066Z" transform="translate(-65.455 -18.652)" fill="#5f5d56"/><path d="M184.681,54.394c.017-.224.141-.891.792-.891.624,0,.733.584.733.891Zm2.275,2.3a1.754,1.754,0,0,1-.758.167c-1.192,0-1.544-1.3-1.544-2.084h2.377c0-.767-.242-1.625-1.526-1.625-1.25,0-1.692.8-1.692,1.9,0,1.6.884,2.25,1.985,2.25a2.774,2.774,0,0,0,1.157-.225Z" transform="translate(-67.193 -19.43)" fill="#5f5d56"/><path d="M194.48,55.228c0-.725.091-1.725.834-1.725s.841,1,.841,1.725-.091,1.725-.841,1.725-.834-1-.834-1.725m.834,2.075c1.165,0,1.757-.733,1.757-2.075s-.592-2.075-1.757-2.075-1.751.733-1.751,2.075.584,2.075,1.751,2.075" transform="translate(-70.757 -19.43)" fill="#5f5d56"/><path d="M200.653,52.651h-.693v-.434h.693v-.374c0-.735.173-1.5,1.507-1.5a4.107,4.107,0,0,1,.843.092v.574a1.717,1.717,0,0,0-.742-.183c-.683,0-.768.492-.768.917v.475h1.127v.434h-1.127v3.535h-.841Z" transform="translate(-73.095 -18.403)" fill="#5f5d56"/><path d="M211.669,51.284a3.182,3.182,0,0,0-1.425-.391.765.765,0,0,0-.865.725c0,1.209,2.707,1.176,2.707,2.976,0,1.208-.933,1.684-2.092,1.684a5.051,5.051,0,0,1-1.459-.217v-.891a3.458,3.458,0,0,0,1.6.509c.6,0,1.035-.251,1.035-.834,0-1.316-2.708-1.233-2.708-3.025,0-.934.69-1.475,1.884-1.475a7.608,7.608,0,0,1,1.324.15Z" transform="translate(-76.203 -18.403)" fill="#5f5d56"/><path d="M218.342,57.1a3.1,3.1,0,0,1-1.058.2c-1.26,0-1.993-.758-1.993-2.233,0-1.183.541-1.917,1.684-1.917,1.066,0,1.425.566,1.425,1.383h-.884c0-.475-.05-1.034-.574-1.034-.484,0-.734.567-.734,1.284,0,.965.408,2.075,1.426,2.075a1.933,1.933,0,0,0,.708-.151Z" transform="translate(-78.7 -19.431)" fill="#5f5d56"/><path d="M221.394,52.269h.843v3.968h-.843Zm-.033-1.783h.908v.833h-.908Z" transform="translate(-80.918 -18.455)" fill="#5f5d56"/><path d="M225.171,54.394c.017-.224.141-.891.792-.891.624,0,.733.584.733.891Zm2.275,2.3a1.765,1.765,0,0,1-.758.167c-1.192,0-1.541-1.3-1.541-2.084h2.375c0-.767-.243-1.625-1.526-1.625-1.249,0-1.691.8-1.691,1.9,0,1.6.882,2.25,1.982,2.25a2.781,2.781,0,0,0,1.159-.225Z" transform="translate(-81.995 -19.43)" fill="#5f5d56"/><path d="M230.846,53.245h.841v.943h.018a1.562,1.562,0,0,1,1.392-1.034,1.032,1.032,0,0,1,1,1.159v2.9h-.842V54.729c0-.5-.075-.951-.5-.951-.834,0-1.068,1.3-1.068,1.792v1.643h-.841Z" transform="translate(-84.385 -19.431)" fill="#5f5d56"/><path d="M240.506,57.1a3.106,3.106,0,0,1-1.06.2c-1.258,0-1.992-.758-1.992-2.233,0-1.183.541-1.917,1.684-1.917,1.066,0,1.425.566,1.425,1.383h-.883c0-.475-.05-1.034-.577-1.034-.483,0-.732.567-.732,1.284,0,.965.407,2.075,1.425,2.075a1.942,1.942,0,0,0,.709-.151Z" transform="translate(-86.801 -19.431)" fill="#5f5d56"/><path d="M243.918,54.394c.016-.224.141-.891.792-.891.626,0,.734.584.734.891Zm2.275,2.3a1.761,1.761,0,0,1-.758.167c-1.192,0-1.542-1.3-1.542-2.084h2.375c0-.767-.241-1.625-1.523-1.625-1.252,0-1.693.8-1.693,1.9,0,1.6.883,2.25,1.984,2.25a2.782,2.782,0,0,0,1.158-.225Z" transform="translate(-88.847 -19.43)" fill="#5f5d56"/><path d="M254.792,55.821a.9.9,0,0,1-.818.957c-.276,0-.483-.233-.483-.591,0-.733.95-.81,1.3-.834Zm0,1.392h.841V54.654c0-.775-.108-1.5-1.4-1.5-1.25,0-1.483.624-1.525,1.216h.883c.034-.468.125-.867.641-.867.559,0,.559.716.559,1.15v.351c-.526.024-2.217.082-2.217,1.308a1.022,1.022,0,0,0,1.082.992,1.272,1.272,0,0,0,1.118-.642h.017Z" transform="translate(-92.328 -19.431)" fill="#5f5d56"/><path d="M259.315,53.245h.84v.943h.018a1.56,1.56,0,0,1,1.39-1.034,1.032,1.032,0,0,1,1,1.159v2.9h-.841V54.729c0-.5-.075-.951-.5-.951-.834,0-1.068,1.3-1.068,1.792v1.643h-.84Z" transform="translate(-94.792 -19.431)" fill="#5f5d56"/><path d="M266.852,54.254c0-.692.141-1.592.8-1.592.726,0,.794.9.794,1.592,0,.659-.1,1.543-.794,1.543-.673,0-.8-.884-.8-1.543m1.625,1.985h.843V50.487h-.843V52.82h-.016a1.078,1.078,0,0,0-1.034-.641c-1.05,0-1.492.883-1.492,2.075,0,1.143.351,2.076,1.492,2.076a1.11,1.11,0,0,0,1.034-.741h.016Z" transform="translate(-97.212 -18.456)" fill="#5f5d56"/><path d="M276.746,51.037h-1.393v-.55h3.7v.55h-1.392v5.2h-.917Z" transform="translate(-100.655 -18.456)" fill="#5f5d56"/><path d="M282.333,54.394c.016-.224.142-.891.793-.891.624,0,.733.584.733.891Zm2.275,2.3a1.755,1.755,0,0,1-.758.167c-1.192,0-1.542-1.3-1.542-2.084h2.376c0-.767-.241-1.625-1.527-1.625-1.249,0-1.691.8-1.691,1.9,0,1.6.883,2.25,1.983,2.25a2.776,2.776,0,0,0,1.159-.225Z" transform="translate(-102.89 -19.43)" fill="#5f5d56"/><path d="M290.862,57.1a3.094,3.094,0,0,1-1.06.2c-1.257,0-1.992-.758-1.992-2.233,0-1.183.542-1.917,1.684-1.917,1.067,0,1.425.566,1.425,1.383h-.883c0-.475-.049-1.034-.574-1.034-.483,0-.734.567-.734,1.284,0,.965.407,2.075,1.426,2.075a1.94,1.94,0,0,0,.708-.151Z" transform="translate(-105.209 -19.431)" fill="#5f5d56"/><path d="M294.131,50.486h.842v2.726h.015a1.569,1.569,0,0,1,1.393-1.034,1.033,1.033,0,0,1,1,1.159v2.9h-.842V53.753c0-.5-.076-.951-.5-.951-.834,0-1.067,1.3-1.067,1.793v1.642h-.842Z" transform="translate(-107.519 -18.455)" fill="#5f5d56"/><path d="M301.2,53.245h.842v.943h.016a1.567,1.567,0,0,1,1.392-1.034,1.032,1.032,0,0,1,1,1.159v2.9h-.843V54.729c0-.5-.076-.951-.5-.951-.832,0-1.067,1.3-1.067,1.792v1.643H301.2Z" transform="translate(-110.103 -19.431)" fill="#5f5d56"/><path d="M308.473,55.228c0-.725.092-1.725.834-1.725s.841,1,.841,1.725-.09,1.725-.841,1.725-.834-1-.834-1.725m.834,2.075c1.165,0,1.758-.733,1.758-2.075s-.593-2.075-1.758-2.075-1.75.733-1.75,2.075.584,2.075,1.75,2.075" transform="translate(-112.427 -19.43)" fill="#5f5d56"/><rect width="0.841" height="5.751" transform="translate(199.63 32.031)" fill="#5f5d56"/><path d="M318.471,55.228c0-.725.092-1.725.834-1.725s.839,1,.839,1.725-.09,1.725-.839,1.725-.834-1-.834-1.725m.834,2.075c1.167,0,1.758-.733,1.758-2.075s-.591-2.075-1.758-2.075-1.75.733-1.75,2.075.583,2.075,1.75,2.075" transform="translate(-116.082 -19.43)" fill="#5f5d56"/><path d="M325.053,55.187c0-.641.124-1.5.8-1.5.7,0,.8.884.8,1.542s-.066,1.5-.8,1.5c-.669,0-.8-.867-.8-1.542m2.466-1.942h-.841v.65h-.018a1.088,1.088,0,0,0-1.034-.741c-1.141,0-1.491.909-1.491,2.033,0,1.167.442,2.026,1.491,2.026a1.068,1.068,0,0,0,1.034-.551h.018V57.1c0,.874-.1,1.492-.985,1.492a2.546,2.546,0,0,1-1.275-.483v.824a4.28,4.28,0,0,0,1.143.158c1.591,0,1.957-.875,1.957-1.992Z" transform="translate(-118.487 -19.431)" fill="#5f5d56"/><path d="M331.992,57.306,330.465,53.3h.877l1.043,2.833h.016l.934-2.833h.79l-2.042,5.751h-.675Z" transform="translate(-120.801 -19.483)" fill="#5f5d56"/><path d="M38.61,23.5V0H31.094V.9l.021,0c2.346.4,3.136,1.434,3.136,4.092V23.5Z" transform="translate(-11.366 0)" fill="#d7210a"/><path d="M20.3,17.8H17.376L7.517,30.036V17.871H0v.9l.022,0c2.257.291,3.137,1.438,3.137,4.09V43.057H7.517V30.7l9.248,12.355h5.078l-10.455-14L20.3,17.8" transform="translate(0 -6.506)" fill="#d7210a"/><path d="M50.745,48.783c-2.864-1.44-5.569-2.8-5.569-5.485,0-2.186,1.257-3.424,3.738-3.683a12.166,12.166,0,0,1,6.473,1.447l.037.023V38.361l-.018,0a29.089,29.089,0,0,0-5.677-.757c-5.5,0-8.912,2.608-8.912,6.8,0,4.312,3.564,6.13,7.008,7.887,2.943,1.5,5.723,2.92,5.723,5.794,0,3.852-3.106,4.427-4.958,4.427A16.8,16.8,0,0,1,41,60.293l-.037-.02v3.046l.018.006a24.5,24.5,0,0,0,7.072,1.087c6.357,0,9.858-2.694,9.858-7.586,0-4.441-3.8-6.355-7.161-8.043" transform="translate(-14.92 -13.745)" fill="#d7210a"/><path d="M75.239,17.8H55.189v5.59h1.067v-.022c.24-2.852,1.223-3.722,4.206-3.722h3.162V43.057h4.359V19.613h7.279V17.8Z" transform="translate(-20.174 -6.506)" fill="#d7210a"/></g></g></g></g></g></svg>