<svg width="41" height="41" viewBox="0 0 41 41" fill="none" xmlns="http://www.w3.org/2000/svg">
<rect x="1" y="1" width="39" height="39" rx="11.5" fill="#B338A0"/>
<rect x="1" y="1" width="39" height="39" rx="11.5" stroke="#E1E4E6"/>
<path d="M27.8887 24.241V16.7559H30.8199C32.5231 16.7559 33.4989 17.8048 33.4989 19.285C33.4989 20.7726 32.5084 21.8032 30.787 21.8032H29.442V24.241H27.8887ZM29.442 20.5496H30.5348C31.4558 20.5496 31.9017 20.0343 31.9017 19.285C31.9017 18.5321 31.4558 18.0314 30.5311 18.0314H29.442V20.5496Z" fill="white"/>
<path d="M25.4109 18.8974C25.3524 18.3017 24.881 17.9545 24.1207 17.9545C23.3349 17.9545 22.8964 18.3163 22.8964 18.8097C22.8854 19.3579 23.4446 19.5991 24.0915 19.749L24.7677 19.9135C26.0469 20.2022 27.0008 20.8564 27.0081 22.1064C27.0008 23.4733 25.9336 24.3468 24.1098 24.3468C22.3043 24.3468 21.1493 23.5099 21.1055 21.909H22.6149C22.6661 22.6619 23.2655 23.0384 24.0915 23.0384C24.9065 23.0384 25.4328 22.6619 25.4365 22.0991C25.4328 21.5911 24.9723 21.3535 24.1573 21.1525L23.3386 20.9514C22.0777 20.6444 21.2992 20.0158 21.3028 18.912C21.2955 17.5561 22.498 16.6533 24.1317 16.6533C25.791 16.6533 26.8838 17.5707 26.9058 18.8974H25.4109Z" fill="white"/>
<path d="M15.3014 24.241H13.6348L16.2224 16.7559H18.2216L20.8093 24.241H19.1427L18.5798 22.5159H15.8642L15.3014 24.241ZM16.259 21.2989H18.1814L17.2494 18.4444H17.191L16.259 21.2989Z" fill="white"/>
<path d="M7.5 24.241V16.7559H10.4312C12.1344 16.7559 13.1102 17.7171 13.1102 19.1937C13.1102 20.2207 12.6424 20.9626 11.7872 21.3281L13.3807 24.241H11.6592L10.2375 21.5803H9.05332V24.241H7.5ZM9.05332 20.323H10.1461C11.0672 20.323 11.513 19.9429 11.513 19.1937C11.513 18.4444 11.0672 18.0314 10.1425 18.0314H9.05332V20.323Z" fill="white"/>
</svg>
