<svg xmlns="http://www.w3.org/2000/svg" xmlns:xlink="http://www.w3.org/1999/xlink" width="257" height="87" viewBox="0 0 257 87"><defs><clipPath id="a"><rect width="257" height="87" transform="translate(43 54)" fill="#ffaeae"/></clipPath></defs><g transform="translate(-43 -54)"><g clip-path="url(#a)"><g transform="translate(62.999 72)"><g transform="translate(65.93 43.484)"><path d="M55.4,100.073,54.1,97.4a13.676,13.676,0,0,1-.6-1.383l-.043.011c.037.43.049.931.056,1.4l.03,2.644h-.7v-5.03h.809l1.381,2.777a10.421,10.421,0,0,1,.49,1.2l.041-.011c-.013-.151-.071-.942-.071-1.5l-.013-2.469h.667v5.031Z" transform="translate(-52.837 -94.717)" fill="#5f5e5e"/><path d="M56.613,97.582a1.227,1.227,0,0,0-.942.265.711.711,0,0,0-.189.533c0,.4.2.639.57.639a.9.9,0,0,0,.757-.486l.021-.936c-.1,0-.159-.015-.217-.015m.813,1.968a.847.847,0,0,1-.482-.527,1.237,1.237,0,0,1-1.022.48,1.019,1.019,0,0,1-1.164-1.069c0-.852.667-1.3,1.833-1.3a2.072,2.072,0,0,1,.254.011V96.9c0-.426-.058-.718-.564-.718a1.966,1.966,0,0,0-1.108.415l-.3-.486a2.844,2.844,0,0,1,1.51-.475,1,1,0,0,1,1.043.579,1.708,1.708,0,0,1,.071.643c0,.267-.026.824-.026,1.362,0,.5.013.708.295.884Z" transform="translate(-50.625 -94.039)" fill="#5f5e5e"/><path d="M58.168,96.741h-.714v2.2c0,.454.108.592.469.592a.87.87,0,0,0,.338-.069l.08.4a1.437,1.437,0,0,1-.654.157,1,1,0,0,1-.613-.183c-.151-.138-.267-.213-.267-.744V96.741h-.432v-.478h.432a7.9,7.9,0,0,1,.043-.931l.686-.159a10.674,10.674,0,0,0-.069,1.091h.88Z" transform="translate(-48.766 -94.566)" fill="#5f5e5e"/><path d="M57.715,100.2V96.564l.684-.105V100.2Zm.338-4.3a.478.478,0,1,1,.484-.484.485.485,0,0,1-.484.484" transform="translate(-47.364 -94.845)" fill="#5f5e5e"/><path d="M59.938,96.149c-.574,0-.815.419-.815,1.34,0,1.118.28,1.491.841,1.491.5,0,.815-.4.815-1.357,0-1.129-.325-1.473-.841-1.473m.013,3.347c-.964,0-1.562-.746-1.562-1.934s.6-1.929,1.549-1.929c1.065,0,1.583.86,1.583,1.962,0,1.162-.613,1.9-1.57,1.9" transform="translate(-46.447 -94.037)" fill="#5f5e5e"/><path d="M62.4,99.4V96.929c0-.329-.03-.445-.118-.561a.428.428,0,0,0-.364-.144,1.432,1.432,0,0,0-.893.467V99.4h-.658V96.676a2.006,2.006,0,0,0-.136-.867l.626-.181a1.206,1.206,0,0,1,.123.564,3.57,3.57,0,0,1,.469-.355,1.329,1.329,0,0,1,.667-.181.9.9,0,0,1,.852.514,1.217,1.217,0,0,1,.086.465V99.4Z" transform="translate(-44.321 -94.043)" fill="#5f5e5e"/><path d="M63.821,97.582a1.235,1.235,0,0,0-.946.265.719.719,0,0,0-.187.533c0,.4.2.639.57.639a.9.9,0,0,0,.757-.486l.022-.936c-.1,0-.157-.015-.215-.015m.811,1.968a.836.836,0,0,1-.482-.527,1.244,1.244,0,0,1-1.022.48,1.021,1.021,0,0,1-1.166-1.069c0-.852.667-1.3,1.837-1.3a2.007,2.007,0,0,1,.25.011V96.9c0-.426-.056-.718-.561-.718a1.96,1.96,0,0,0-1.108.415l-.3-.486a2.844,2.844,0,0,1,1.51-.475,1,1,0,0,1,1.043.579,1.731,1.731,0,0,1,.075.643c0,.267-.03.824-.03,1.362,0,.5.011.708.293.884Z" transform="translate(-42.333 -94.039)" fill="#5f5e5e"/><path d="M64.5,100.319a.616.616,0,0,1-.559-.282A.945.945,0,0,1,63.8,99.4V96.09a4.851,4.851,0,0,0-.08-1.054l.688-.142a4.3,4.3,0,0,1,.069,1.041v3.293c0,.389.017.473.092.542a.233.233,0,0,0,.224.049l.114.413a.874.874,0,0,1-.413.086" transform="translate(-40.299 -94.888)" fill="#5f5e5e"/><path d="M67.182,95.713a1.746,1.746,0,0,0-.6-.092h-.518v1.751h.484a1.152,1.152,0,0,0,.856-.239.951.951,0,0,0,.243-.682.769.769,0,0,0-.46-.738m.592,4.36c-.144-.286-.209-.4-.411-.744a6.854,6.854,0,0,0-.856-1.256.55.55,0,0,0-.447-.222v2.222h-.69V95.042h1.39a1.567,1.567,0,0,1,1.172.368,1.385,1.385,0,0,1,.443,1.035,1.271,1.271,0,0,1-1.327,1.379,2.276,2.276,0,0,1,.432.469c.1.138.252.357.417.622.215.34.617,1,.718,1.159Z" transform="translate(-38.413 -94.717)" fill="#5f5e5e"/><path d="M69.126,96.4a.64.64,0,0,0-.518-.26c-.5,0-.757.415-.757,1.08h1.5a1.337,1.337,0,0,0-.224-.82m-1.284,1.321V97.8a1.362,1.362,0,0,0,.155.729.941.941,0,0,0,.826.437,1.3,1.3,0,0,0,.886-.351l.252.4a1.829,1.829,0,0,1-1.248.467c-1,0-1.611-.74-1.611-1.934a2.012,2.012,0,0,1,.435-1.418,1.327,1.327,0,0,1,1.086-.5,1.294,1.294,0,0,1,.977.4A2.061,2.061,0,0,1,70.04,97.6v.118Z" transform="translate(-36.418 -94.046)" fill="#5f5e5e"/><path d="M70.1,99.525a2.7,2.7,0,0,1-1.344-.389l.237-.48a2.446,2.446,0,0,0,1.157.361.6.6,0,0,0,.669-.589c0-.314-.185-.5-.6-.576l-.441-.09a.974.974,0,0,1-.878-1.013,1.172,1.172,0,0,1,1.3-1.14,2.3,2.3,0,0,1,1.14.3l-.224.473a2,2,0,0,0-.886-.265.555.555,0,0,0-.626.551c0,.262.127.407.512.5l.465.105A1.032,1.032,0,0,1,71.52,98.3a1.271,1.271,0,0,1-1.42,1.226" transform="translate(-34.514 -94.066)" fill="#5f5e5e"/><path d="M72.357,96.4a.64.64,0,0,0-.518-.26c-.5,0-.753.415-.753,1.08h1.5a1.337,1.337,0,0,0-.224-.82m-1.28,1.321V97.8a1.408,1.408,0,0,0,.148.729.947.947,0,0,0,.828.437,1.3,1.3,0,0,0,.886-.351l.252.4a1.824,1.824,0,0,1-1.245.467c-1,0-1.611-.74-1.611-1.934a2.031,2.031,0,0,1,.43-1.418,1.337,1.337,0,0,1,1.088-.5,1.311,1.311,0,0,1,.981.4,2.089,2.089,0,0,1,.437,1.579v.118Z" transform="translate(-32.697 -94.046)" fill="#5f5e5e"/><path d="M73.876,97.582a1.235,1.235,0,0,0-.946.265.719.719,0,0,0-.187.533c0,.4.206.639.57.639a.9.9,0,0,0,.757-.486l.022-.936c-.1,0-.157-.015-.215-.015m.811,1.968a.833.833,0,0,1-.48-.527,1.246,1.246,0,0,1-1.024.48,1.02,1.02,0,0,1-1.164-1.069c0-.852.667-1.3,1.835-1.3a2.007,2.007,0,0,1,.25.011V96.9c0-.426-.056-.718-.559-.718a1.966,1.966,0,0,0-1.11.415l-.3-.486a2.865,2.865,0,0,1,1.51-.475,1,1,0,0,1,1.043.579,1.686,1.686,0,0,1,.075.643c0,.267-.03.824-.03,1.362,0,.5.013.708.293.884Z" transform="translate(-30.758 -94.039)" fill="#5f5e5e"/><path d="M75.5,96.333a.529.529,0,0,0-.185-.03.757.757,0,0,0-.749.744V99.4H73.9V96.718a2.344,2.344,0,0,0-.136-.91l.641-.17a1.5,1.5,0,0,1,.12.557v.069a1.193,1.193,0,0,1,.981-.639.653.653,0,0,1,.224.039Z" transform="translate(-28.748 -94.046)" fill="#5f5e5e"/><path d="M76.184,99.48a1.323,1.323,0,0,1-1.157-.548,2.228,2.228,0,0,1-.346-1.325,2.013,2.013,0,0,1,.6-1.611,1.394,1.394,0,0,1,1.914.017l-.346.458a.854.854,0,0,0-.635-.284.689.689,0,0,0-.63.394,2.582,2.582,0,0,0-.172,1.118,1.5,1.5,0,0,0,.286,1.045.669.669,0,0,0,.516.226,1.009,1.009,0,0,0,.751-.385L77.29,99a1.41,1.41,0,0,1-1.11.475" transform="translate(-27.696 -94.048)" fill="#5f5e5e"/><path d="M78.446,100.247V97.732a.829.829,0,0,0-.12-.5.566.566,0,0,0-.4-.14,1.376,1.376,0,0,0-.957.531v2.629H76.3V95.8a3.143,3.143,0,0,0-.08-.766l.669-.144a3.786,3.786,0,0,1,.08.852v.82a4.1,4.1,0,0,1-.022.488,2.655,2.655,0,0,1,.381-.3,1.386,1.386,0,0,1,.785-.243.911.911,0,0,1,.906.546,1.435,1.435,0,0,1,.075.592v2.6Z" transform="translate(-25.921 -94.891)" fill="#5f5e5e"/><path d="M80.74,100.2a1.865,1.865,0,0,1-1.54-.755,2.885,2.885,0,0,1-.542-1.8,3.257,3.257,0,0,1,.325-1.5A2,2,0,0,1,80.768,95a1.951,1.951,0,0,1,1.215.4l-.338.46a1.412,1.412,0,0,0-.878-.29,1.178,1.178,0,0,0-1.1.723,2.983,2.983,0,0,0-.239,1.351,2.9,2.9,0,0,0,.179,1.181,1.26,1.26,0,0,0,1.217.817,1.35,1.35,0,0,0,.912-.312l.34.458a2.206,2.206,0,0,1-1.338.419" transform="translate(-23.117 -94.769)" fill="#5f5e5e"/><path d="M82.037,96.149c-.579,0-.813.419-.813,1.34,0,1.118.28,1.491.841,1.491.5,0,.813-.4.813-1.357,0-1.129-.325-1.473-.841-1.473M82.05,99.5c-.964,0-1.559-.746-1.559-1.934s.6-1.929,1.547-1.929c1.065,0,1.583.86,1.583,1.962,0,1.162-.613,1.9-1.57,1.9" transform="translate(-21.009 -94.037)" fill="#5f5e5e"/><path d="M84.863,99.52a.869.869,0,0,1-.338-.529,1.319,1.319,0,0,1-1.086.529,1.017,1.017,0,0,1-.972-.546,1.605,1.605,0,0,1-.088-.615v-2.6l.658-.131V98.17c0,.376.034.521.163.641a.641.641,0,0,0,.419.168.994.994,0,0,0,.82-.581V95.773l.656-.127V98.4a1.027,1.027,0,0,0,.219.761Z" transform="translate(-18.835 -94.039)" fill="#5f5e5e"/><path d="M86.321,99.4V96.929c0-.329-.028-.445-.116-.561a.434.434,0,0,0-.368-.144,1.428,1.428,0,0,0-.89.467V99.4h-.656V96.676a1.97,1.97,0,0,0-.138-.867l.628-.181a1.232,1.232,0,0,1,.12.564,3.57,3.57,0,0,1,.469-.355,1.325,1.325,0,0,1,.669-.181.9.9,0,0,1,.85.514,1.177,1.177,0,0,1,.086.465V99.4Z" transform="translate(-16.793 -94.043)" fill="#5f5e5e"/><path d="M87.391,99.48a1.323,1.323,0,0,1-1.157-.548,2.228,2.228,0,0,1-.346-1.325,2.027,2.027,0,0,1,.6-1.611,1.389,1.389,0,0,1,.938-.372,1.37,1.37,0,0,1,.979.389l-.344.458a.86.86,0,0,0-.635-.284.692.692,0,0,0-.635.394,2.643,2.643,0,0,0-.174,1.118,1.5,1.5,0,0,0,.29,1.045.673.673,0,0,0,.518.226,1,1,0,0,0,.749-.385L88.5,99a1.415,1.415,0,0,1-1.11.475" transform="translate(-14.797 -94.048)" fill="#5f5e5e"/><path d="M87.461,100.2V96.564l.684-.105V100.2Zm.342-4.3a.478.478,0,1,1,.482-.484.487.487,0,0,1-.482.484" transform="translate(-13.121 -94.845)" fill="#5f5e5e"/><path d="M88.991,100.319a.617.617,0,0,1-.561-.282.932.932,0,0,1-.136-.635V96.09a5.022,5.022,0,0,0-.077-1.054l.69-.142a4.74,4.74,0,0,1,.062,1.041v3.293c0,.389.022.473.092.542a.237.237,0,0,0,.226.049l.114.413a.887.887,0,0,1-.411.086" transform="translate(-12.115 -94.888)" fill="#5f5e5e"/><path d="M91.274,96.149c-.579,0-.815.419-.815,1.34,0,1.118.282,1.491.843,1.491.5,0,.813-.4.813-1.357,0-1.129-.325-1.473-.841-1.473m.013,3.347c-.966,0-1.562-.746-1.562-1.934s.6-1.929,1.549-1.929c1.063,0,1.583.86,1.583,1.962,0,1.162-.615,1.9-1.57,1.9" transform="translate(-10.379 -94.037)" fill="#5f5e5e"/><path d="M93.452,95.535a1.022,1.022,0,0,0-.469-.136c-.3,0-.482.211-.482.583v.592h.959l-.174.473H92.51v3.186h-.671V97.048H91.5v-.473h.353c-.017-.069-.017-.521-.017-.585a1.055,1.055,0,0,1,.4-.91,1.1,1.1,0,0,1,.656-.176,1.463,1.463,0,0,1,.783.2Z" transform="translate(-8.342 -94.877)" fill="#5f5e5e"/><path d="M94.761,100.216a3.016,3.016,0,0,1-1.6-.447l.273-.542a2.4,2.4,0,0,0,1.338.419c.647,0,1.073-.336,1.073-.878,0-.409-.269-.69-.82-.856l-.518-.148c-.751-.217-1.174-.585-1.174-1.3A1.475,1.475,0,0,1,94.978,95a2.586,2.586,0,0,1,1.519.475l-.31.5a2.056,2.056,0,0,0-1.181-.4c-.555,0-.9.29-.9.759,0,.357.2.564.731.723l.583.176a1.472,1.472,0,0,1,1.209,1.413,1.672,1.672,0,0,1-1.871,1.566" transform="translate(-6.42 -94.763)" fill="#5f5e5e"/><path d="M96.61,99.48a1.327,1.327,0,0,1-1.159-.548,2.259,2.259,0,0,1-.344-1.325A2.013,2.013,0,0,1,95.71,96a1.391,1.391,0,0,1,1.912.017l-.344.458a.857.857,0,0,0-.635-.284.684.684,0,0,0-.63.394,2.609,2.609,0,0,0-.174,1.118,1.493,1.493,0,0,0,.288,1.045.672.672,0,0,0,.516.226,1,1,0,0,0,.749-.385l.325.419a1.405,1.405,0,0,1-1.108.475" transform="translate(-4.186 -94.048)" fill="#5f5e5e"/><path d="M96.751,100.2V96.564l.684-.105V100.2Zm.338-4.3a.478.478,0,1,1,.482-.484.484.484,0,0,1-.482.484" transform="translate(-2.434 -94.845)" fill="#5f5e5e"/><path d="M99.449,96.4a.655.655,0,0,0-.523-.26c-.5,0-.753.415-.753,1.08h1.5a1.366,1.366,0,0,0-.222-.82m-1.284,1.321V97.8a1.384,1.384,0,0,0,.153.729.942.942,0,0,0,.828.437,1.3,1.3,0,0,0,.884-.351l.25.4a1.822,1.822,0,0,1-1.243.467c-1,0-1.611-.74-1.611-1.934a2.031,2.031,0,0,1,.428-1.418,1.337,1.337,0,0,1,1.088-.5,1.3,1.3,0,0,1,.979.4,2.061,2.061,0,0,1,.441,1.579v.118Z" transform="translate(-1.517 -94.046)" fill="#5f5e5e"/><path d="M101.348,99.4V96.929c0-.329-.026-.445-.114-.561a.44.44,0,0,0-.368-.144,1.443,1.443,0,0,0-.893.467V99.4H99.32V96.676a2,2,0,0,0-.14-.867l.63-.181a1.231,1.231,0,0,1,.118.564,3.885,3.885,0,0,1,.469-.355,1.345,1.345,0,0,1,.671-.181.9.9,0,0,1,.85.514,1.217,1.217,0,0,1,.088.465V99.4Z" transform="translate(0.503 -94.043)" fill="#5f5e5e"/><path d="M102.419,99.48a1.327,1.327,0,0,1-1.159-.548,2.259,2.259,0,0,1-.344-1.325,2.013,2.013,0,0,1,.6-1.611,1.391,1.391,0,0,1,1.912.017l-.342.458a.863.863,0,0,0-.635-.284.687.687,0,0,0-.632.394,2.576,2.576,0,0,0-.174,1.118,1.5,1.5,0,0,0,.288,1.045.67.67,0,0,0,.518.226,1,1,0,0,0,.749-.385l.323.419a1.405,1.405,0,0,1-1.108.475" transform="translate(2.5 -94.048)" fill="#5f5e5e"/><path d="M104.4,96.4a.644.644,0,0,0-.518-.26c-.505,0-.757.415-.757,1.08h1.5a1.337,1.337,0,0,0-.224-.82m-1.282,1.321V97.8a1.363,1.363,0,0,0,.153.729.938.938,0,0,0,.826.437,1.3,1.3,0,0,0,.886-.351l.25.4a1.815,1.815,0,0,1-1.243.467c-1,0-1.613-.74-1.613-1.934a2.012,2.012,0,0,1,.435-1.418,1.324,1.324,0,0,1,1.086-.5,1.294,1.294,0,0,1,.977.4,2.069,2.069,0,0,1,.441,1.579v.118Z" transform="translate(4.186 -94.046)" fill="#5f5e5e"/><path d="M106.418,95.61a.58.58,0,0,0-.626.617,1.254,1.254,0,0,0,.589.884c.445-.219.669-.484.669-.852a.613.613,0,0,0-.632-.65m-.28,2.17a1.024,1.024,0,0,0-.639.931c0,.51.364.85,1,.85a1.243,1.243,0,0,0,1-.424Zm2.164,2.166-.43-.43a1.863,1.863,0,0,1-1.4.548c-1.131,0-1.695-.587-1.695-1.357,0-.66.407-.974.994-1.278A1.4,1.4,0,0,1,105.1,96.3a1.207,1.207,0,0,1,1.31-1.164c.744,0,1.353.413,1.353,1.121,0,.607-.512.961-1.015,1.2l1.073,1.084a2.842,2.842,0,0,0,.14-.989h.542a2.956,2.956,0,0,1-.245,1.437l.944.957Z" transform="translate(6.95 -94.606)" fill="#5f5e5e"/></g><path d="M110.671,95.626h-1.286v4.447H108.7V95.626h-1.29v-.584h3.334Z" transform="translate(75.906 -51.233)" fill="#5f5e5e"/><g transform="translate(65.93 22.966)"><path d="M110.907,96.4a.648.648,0,0,0-.521-.26c-.5,0-.755.415-.755,1.08h1.5a1.352,1.352,0,0,0-.222-.82m-1.282,1.321V97.8a1.409,1.409,0,0,0,.148.729.946.946,0,0,0,.83.437,1.3,1.3,0,0,0,.886-.351l.249.4a1.822,1.822,0,0,1-1.243.467c-1,0-1.613-.74-1.613-1.934a2.021,2.021,0,0,1,.43-1.418,1.335,1.335,0,0,1,1.091-.5,1.3,1.3,0,0,1,.977.4,2.079,2.079,0,0,1,.439,1.579v.118Z" transform="translate(11.671 -73.528)" fill="#5f5e5e"/><path d="M112.094,99.48a1.324,1.324,0,0,1-1.159-.548,2.259,2.259,0,0,1-.344-1.325,2.013,2.013,0,0,1,.6-1.611,1.391,1.391,0,0,1,1.912.017l-.342.458a.864.864,0,0,0-.637-.284.684.684,0,0,0-.63.394,2.609,2.609,0,0,0-.174,1.118,1.493,1.493,0,0,0,.288,1.045.666.666,0,0,0,.516.226,1.006,1.006,0,0,0,.751-.385L113.2,99a1.405,1.405,0,0,1-1.108.475" transform="translate(13.636 -73.53)" fill="#5f5e5e"/><path d="M114.356,100.247V97.732a.8.8,0,0,0-.123-.5.558.558,0,0,0-.394-.14,1.372,1.372,0,0,0-.959.531v2.629h-.671V95.8a3.157,3.157,0,0,0-.077-.766l.669-.144a3.665,3.665,0,0,1,.08.852v.82c0,.127-.006.3-.022.488a2.656,2.656,0,0,1,.381-.3,1.388,1.388,0,0,1,.787-.243.912.912,0,0,1,.9.546,1.443,1.443,0,0,1,.073.592v2.6Z" transform="translate(15.411 -74.373)" fill="#5f5e5e"/><path d="M116.1,99.4V96.929c0-.329-.03-.445-.118-.561a.428.428,0,0,0-.364-.144,1.432,1.432,0,0,0-.893.467V99.4h-.654V96.676a2.039,2.039,0,0,0-.136-.867l.622-.181a1.18,1.18,0,0,1,.123.564,3.57,3.57,0,0,1,.469-.355,1.345,1.345,0,0,1,.671-.181.9.9,0,0,1,.85.514,1.217,1.217,0,0,1,.084.465V99.4Z" transform="translate(17.485 -73.524)" fill="#5f5e5e"/><path d="M117.208,96.149c-.576,0-.813.419-.813,1.34,0,1.118.28,1.491.841,1.491.5,0,.813-.4.813-1.357,0-1.129-.323-1.473-.841-1.473m.015,3.347c-.966,0-1.564-.746-1.564-1.934s.6-1.929,1.549-1.929c1.065,0,1.583.86,1.583,1.962,0,1.162-.611,1.9-1.568,1.9" transform="translate(19.47 -73.519)" fill="#5f5e5e"/><path d="M118.3,100.319a.617.617,0,0,1-.561-.282.932.932,0,0,1-.136-.635V96.09a4.851,4.851,0,0,0-.08-1.054l.69-.142a4.586,4.586,0,0,1,.065,1.041v3.293c0,.389.022.473.093.542a.235.235,0,0,0,.224.049l.116.413a.882.882,0,0,1-.411.086" transform="translate(21.62 -74.369)" fill="#5f5e5e"/><path d="M119.879,96.149c-.576,0-.815.419-.815,1.34,0,1.118.28,1.491.841,1.491.5,0,.815-.4.815-1.357,0-1.129-.325-1.473-.841-1.473m.013,3.347c-.964,0-1.562-.746-1.562-1.934s.6-1.929,1.549-1.929c1.065,0,1.583.86,1.583,1.962,0,1.162-.615,1.9-1.57,1.9" transform="translate(22.545 -73.519)" fill="#5f5e5e"/><path d="M121.577,96.169c-.424,0-.652.232-.652.7a.6.6,0,0,0,.658.678c.432,0,.656-.241.656-.7s-.209-.684-.662-.684m1.448.1a.933.933,0,0,1-.308-.058,1.031,1.031,0,0,1,.256.671,1.143,1.143,0,0,1-1.293,1.131c-.224.071-.57.241-.57.4,0,.112.086.185.26.185h.553c.923,0,1.3.437,1.3,1.007,0,.787-.639,1.179-1.519,1.179-1.007,0-1.583-.355-1.583-.962a1.074,1.074,0,0,1,.067-.372l.647-.037a.694.694,0,0,0-.065.277c0,.381.308.583.871.583.587,0,.886-.239.886-.628,0-.344-.282-.553-1-.553a6.52,6.52,0,0,1-.678-.037.493.493,0,0,1-.5-.49c0-.34.295-.488.705-.643a1.064,1.064,0,0,1-.85-1.048,1.237,1.237,0,0,1,1.381-1.228,1.846,1.846,0,0,1,.564.08,2.036,2.036,0,0,0,.536.118.942.942,0,0,0,.592-.215l.338.422a.875.875,0,0,1-.6.217" transform="translate(24.608 -73.528)" fill="#5f5e5e"/><path d="M123.754,99.506a2.5,2.5,0,0,1-.613,1.123,1.571,1.571,0,0,1-.669.316l-.209-.439a1.11,1.11,0,0,0,.628-.419,2.044,2.044,0,0,0,.293-.712l-.258.039a10.539,10.539,0,0,0-.344-1.22l-.8-2.4.669-.159.688,2.3c.067.228.161.615.211.865h.043c.058-.25.146-.579.245-.9l.641-2.164h.736Z" transform="translate(26.52 -73.515)" fill="#5f5e5e"/><path d="M68.576,92.6H71.1V90.764H68.576V85.352H66.143v17.423H68a38.99,38.99,0,0,0,.579-6.8Z" transform="translate(-37.522 -85.352)" fill="#5f5e5e"/><path d="M69.686,86.615a.852.852,0,0,0-.809-.893h-7.66v1.732h6.036a8.955,8.955,0,0,1-6.216,8.959v1.781c4.519-1.256,8.649-4.313,8.649-11.579" transform="translate(-43.399 -84.926)" fill="#5f5e5e"/><path d="M94.284,86.615a.851.851,0,0,0-.809-.893H85.818v1.732h6.038a8.96,8.96,0,0,1-6.216,8.959v1.781c4.521-1.256,8.645-4.313,8.645-11.579" transform="translate(-15.082 -84.926)" fill="#5f5e5e"/><path d="M77.842,94.606V86.615a.851.851,0,0,0-.811-.893h-7.89v1.732h6.268v7.152Z" transform="translate(-34.071 -84.926)" fill="#5f5e5e"/><path d="M121.556,93.832V86.523a.851.851,0,0,0-.809-.893H109.308v1.732h9.819v6.47" transform="translate(12.16 -85.032)" fill="#5f5e5e"/><path d="M52.837,88.281v1.74h6.7v2.652h-4.9v1.736h9.817V99.4h1.858a17.447,17.447,0,0,0,.574-4.532v-1.3a.85.85,0,0,0-.809-.895H61.992V90.021h6.7v-1.74Z" transform="translate(-52.837 -81.981)" fill="#5f5e5e"/><path d="M65.926,91.8V86.44a.854.854,0,0,0-.811-.9H53.674v1.74H63.5V91.8" transform="translate(-51.874 -85.14)" fill="#5f5e5e"/></g><rect width="15.85" height="1.731" transform="translate(152.342 30.164)" fill="#5f5e5e"/><g transform="translate(153.604 22.966)"><path d="M100.263,88.49c1.114,2.14,3.872,3.082,6.662,3.2V90.015c-3.33-.2-5.418-2.183-5.418-4.422v-.241h-2.49v.241c0,2.239-2.089,4.225-5.42,4.422v1.673c2.792-.116,5.545-1.058,6.666-3.2" transform="translate(-93.597 -85.352)" fill="#5f5e5e"/><path d="M93.848,92.88v2.861a1.524,1.524,0,0,0,1.441,1.585h10.989V95.709H96.367V94.437H106.1V90.974a.847.847,0,0,0-.811-.888H93.848V91.7h9.729v1.18Z" transform="translate(-93.308 -79.903)" fill="#5f5e5e"/><path d="M102.206,90.507v4.749a1.526,1.526,0,0,0,1.441,1.585H114.1V95.106h-9.458v-4.6Z" transform="translate(-83.688 -79.419)" fill="#5f5e5e"/></g><path d="M108.761,91.035h-4.188v1.83h4.188V97.95h2.428V85.356h-2.428v1.882h-4.188v1.836h4.188Z" transform="translate(72.64 -62.382)" fill="#5f5e5e"/><g transform="translate(169.779 23.17)"><path d="M105.8,87.142c1.331,0,2.164,1.284,2.164,2.852s-.832,2.859-2.164,2.859-2.162-1.284-2.162-2.859.828-2.852,2.162-2.852m0,7.406a4.552,4.552,0,1,0-4.685-4.554,4.409,4.409,0,0,0,4.685,4.554" transform="translate(-101.117 -85.447)" fill="#5f5e5e"/></g><path d="M85.111,90.423H87.63V88.587H85.111V85.352H82.682v9.984h2.429Z" transform="translate(47.444 -62.385)" fill="#5f5e5e"/><g transform="translate(118.324 22.575)"><path d="M82.418,88.711a2.3,2.3,0,1,1-1.979,2.284,2.031,2.031,0,0,1,1.979-2.284m-4.5,2.284c0,2.25,1.785,3.958,4.5,3.958s4.5-1.708,4.5-3.958a3.177,3.177,0,0,0-1.162-2.575H87.64V86.68H83.7V85.17H81.142v1.51H77.195v1.74h1.884a3.191,3.191,0,0,0-1.164,2.575" transform="translate(-77.195 -85.17)" fill="#5f5e5e"/></g><rect width="2.448" height="2.304" transform="translate(159.045 31.351)" fill="#5f5e5e"/><path d="M80.452,102.775h1.856a39.3,39.3,0,0,0,.574-6.8v-3.25h2.525V90.886H82.883V85.352H80.452V97.2a9.7,9.7,0,0,1-3.246.473H73.982v-5.19h-2.45v5.19H68.723v1.736h8.483a8.854,8.854,0,0,0,3.246-.549Z" transform="translate(31.377 -62.386)" fill="#5f5e5e"/><path d="M87.744,96.948h1.85a17.327,17.327,0,0,0,.579-4.532V91.308a.851.851,0,0,0-.809-.893H78.284v1.74h9.46Z" transform="translate(42.382 -56.558)" fill="#5f5e5e"/><path d="M90.839,102.775H92.7a39.155,39.155,0,0,0,.576-6.8V85.352H90.839Z" transform="translate(56.833 -62.386)" fill="#5f5e5e"/><path d="M119.96,91.584c0-1.42.757-2.467,1.983-2.467s1.981,1.048,1.981,2.467-.759,2.474-1.981,2.474-1.983-1.052-1.983-2.474m8.606-6.023V97.409a9.69,9.69,0,0,1-3.242.48h-2.16V95.611a3.979,3.979,0,0,0,3.278-4.027,3.421,3.421,0,0,0-1.213-2.77h1.934V87.08h-3.945V85.17H120.66v1.91h-3.945v1.734h1.934a3.438,3.438,0,0,0-1.211,2.77,3.975,3.975,0,0,0,3.278,4.027v2.278h-4.132v1.729h8.739a8.721,8.721,0,0,0,3.242-.548v3.915h1.854a39.012,39.012,0,0,0,.579-6.8V85.561Z" transform="translate(86.466 -62.595)" fill="#5f5e5e"/><path d="M117.043,98.1a17.386,17.386,0,0,0,.576-4.532v-2.42h6.7V89.413H108.471v1.736h6.7V98.1Z" transform="translate(77.127 -57.712)" fill="#5f5e5e"/><path d="M54.261,91.43V88h-5.8V83.058H43.939V88H40.878v3.43h3.091v11.187c0,4.345,2.36,6.612,7.014,6.612a20.871,20.871,0,0,0,3.229-.355v-3.416c-2.715.4-4.418.1-5.218-.895a2.949,2.949,0,0,1-.531-1.947V91.43Z" transform="translate(-0.672 -65.026)" fill="#1a1311"/><path d="M31.963,105.536a25.624,25.624,0,0,0,7.279,1.192c4.182,0,8.828-.751,8.828-5.793,0-3.672-2.4-4.878-5.909-6.49-2.979-1.372-5.089-1.772-5.089-3.68,0-1.837,2.127-1.884,3.812-1.884a26.162,26.162,0,0,1,6.126.888v-3.68a24.507,24.507,0,0,0-6.851-.858c-3.439,0-7.438.959-7.759,4.9-.3,3.717,1.7,5.27,6.145,7.057,2.927,1.181,4.769,1.856,4.769,3.665,0,1.985-1.837,2.138-4.425,2.138a26.081,26.081,0,0,1-6.926-1.359Z" transform="translate(-10.933 -62.525)" fill="#1a1311"/><path d="M39.579,92.383c0-5.926-5.085-7.171-9.352-7.171a38.225,38.225,0,0,0-8.04,1.166v19.983H26.68V89.376l.159-.03a17.024,17.024,0,0,1,3.691-.475c3.022,0,4.556,1.357,4.556,4.027v13.463h4.493Z" transform="translate(-22.186 -62.547)" fill="#1a1311"/><path d="M50.784,74.675A6.122,6.122,0,0,0,47.1,75.908a6.341,6.341,0,0,1,0,10.1,6.124,6.124,0,0,0,3.685,1.235,6.283,6.283,0,1,0,0-12.565" transform="translate(6.489 -74.675)" fill="#db1966"/><path d="M62.014,80.956a6.305,6.305,0,0,1,2.5-5.048,6.119,6.119,0,0,0-3.687-1.233H38.151a6.282,6.282,0,1,0,0,12.565h22.68A6.12,6.12,0,0,0,64.518,86a6.3,6.3,0,0,1-2.5-5.048" transform="translate(-10.933 -74.675)" fill="#0089d2"/><path d="M50.944,80.3a6.3,6.3,0,0,0-2.506-5.048,6.341,6.341,0,0,0,0,10.1A6.3,6.3,0,0,0,50.944,80.3" transform="translate(5.148 -74.015)" fill="#003078"/></g></g></g></svg>