<svg xmlns="http://www.w3.org/2000/svg" xmlns:xlink="http://www.w3.org/1999/xlink" width="257" height="87" viewBox="0 0 257 87"><defs><clipPath id="a"><rect width="257" height="87" transform="translate(43 508)" fill="#ffaeae"/></clipPath><clipPath id="b"><rect width="228.47" height="41" fill="none"/></clipPath></defs><g transform="translate(-43 -508)"><g clip-path="url(#a)"><g transform="translate(57 531)"><path d="M29.842,0,0,8.4,29.656,4.852,58.936,8.4Z" transform="translate(0 0)" fill="#dc000c"/><path d="M10.185,15.525,4.779,24.381V15.525H.392V34.359H4.779V25.587l5.406,8.772h4.384L8.976,24.846l5.593-9.321Z" transform="translate(-0.114 -4.515)" fill="#001f6d"/><path d="M21.165,15.394h4.1V34.225H21.154Z" transform="translate(-6.152 -4.477)" fill="#001f6d"/><path d="M30.632,15.525h5.409L39.309,26.8l3.354-11.28h5.226V34.263H44.342v-11.1L40.989,34.177H37.538L34.271,22.983V34.077H30.623Z" transform="translate(-8.906 -4.515)" fill="#001f6d"/><path d="M59.163,15.525h5.413l3.357,11.469,3.447-11.469h5.037V34.263H72.966V22.983l-3.353,11.28H66.162L62.9,22.886V34.177H59.154Z" transform="translate(-17.204 -4.515)" fill="#001f6d"/><path d="M29.3,49.457,0,46.077l29.134,8.232,29.8-8.547Z" transform="translate(0 -13.309)" fill="#dc000c"/><path d="M98.668,11.382l5.131.024V9.78h3.049v1.626h6.041V13.9H98.637Z" transform="translate(-28.687 -2.844)" fill="#1a1311"/><g transform="translate(0 0)"><g clip-path="url(#b)"><path d="M109.6,16.478h-8.453a3.858,3.858,0,0,0-2.933,4,3.226,3.226,0,0,0,2.885,3.393h8.677A3.565,3.565,0,0,0,113,20.474a3.7,3.7,0,0,0-3.405-4M109.48,21.3h-7.568s-.884.055-.942-1.059a.923.923,0,0,1,.767-.952h7.626a1.011,1.011,0,0,1,.924,1.083,1.045,1.045,0,0,1-.806.928" transform="translate(-28.562 -4.792)" fill="#1a1311"/><path d="M115.435,10.746h3.034l-.013,4h2.387v2.64h-2.349V27.95H101.3a2.16,2.16,0,0,1-2.152-2.4v-2.43H102.2l-.013,1.83s-.048.662.468.481h12.789Z" transform="translate(-28.836 -3.125)" fill="#1a1311"/><path d="M133.372,10.7h17.681a2.389,2.389,0,0,1,2.253,2.256v6.3h-8.36v1.881h6.22a2.292,2.292,0,0,1,2.111,2.519v4.459h-2.991V24.94s.177-.689-.7-.928H133.215V21.189h8.445V19.257h-8.328V16.623h16.954V14.506s.177-1-.7-.882H133.39Z" transform="translate(-38.743 -3.111)" fill="#1a1311"/><path d="M165.536,13.651l.015-2.954H176.23v8.1s-.937,8.389-10.62,8.147v-2.56s6.442.128,7.628-5.829V13.624Z" transform="translate(-48.143 -3.111)" fill="#1a1311"/><rect width="2.992" height="17.643" transform="translate(133.661 7.538)" fill="#1a1311"/><path d="M208.481,10.75l-.011,2.906h-2.3l.007-2.954-9.425.007.018,2.975h6.494v5.574c-.118,4.58-6.453,5.278-6.453,5.278v2.532c7.038-.073,9.033-5.114,9.033-5.114h2.641v6.338h3.11V10.75Zm-.114,8.158h-2.114V16.141l2.114.024Z" transform="translate(-57.221 -3.112)" fill="#1a1311"/><rect width="3.053" height="17.487" transform="translate(155.837 7.694)" fill="#1a1311"/><path d="M245.788,10.6v1.591h-4.522c-.645-1.059-2.991-1.471-2.991-1.471h-6.038c-4.4.647-4.051,5.1-4.051,5.1a4.33,4.33,0,0,0,4.165,4.712l6.376-.018c2.308-.463,2.66-1.518,2.66-1.518h4.459v6.392h-12.5c-.761.056-.827-.886-.827-.886V21.639H229.53v3.57c.184,3.176,2.707,2.938,2.707,2.938H248.78V10.6ZM238,17.706h-5.063a1.868,1.868,0,0,1-1.819-1.937s-.087-2.027,1.608-2.173h5.041s1.746-.058,1.795,2.111a1.921,1.921,0,0,1-1.562,2m7.728-1.522h-3.508a1.9,1.9,0,0,0-.039-1.028l3.547.021Z" transform="translate(-66.362 -3.083)" fill="#1a1311"/><path d="M262.849,10.947l17.074-.011a2.656,2.656,0,0,1,2.232,2.357v8.849h-7.629v6.044h-3.049V22.2h-8.565V19.326H279.1V14.759a.812.812,0,0,0-.824-.889l-15.43-.03Z" transform="translate(-76.445 -3.18)" fill="#1a1311"/><path d="M307.4,14.906a3.843,3.843,0,0,0-3.695-4.057h-7.278c-3.517.47-3.461,4.106-3.461,4.106,0,3.526,3.635,3.881,3.635,3.881h7.451a3.677,3.677,0,0,0,3.347-3.93m-3.695.99h-6.512s-.882.18-1.055-.99a.959.959,0,0,1,.876-1.062h6.566a1.132,1.132,0,0,1,.825,1.062s.061.526-.7.99" transform="translate(-85.204 -3.155)" fill="#1a1311"/><path d="M308.8,18.71V15.8h2.289V10.936h2.993V28.244H296.834a2.32,2.32,0,0,1-2.465-2.464V23.487h2.937V24.9a.6.6,0,0,0,.644.65h13.2V18.689Z" transform="translate(-85.612 -3.18)" fill="#1a1311"/><path d="M294.29,23.187h14.376v2.6h-5.812v2.336h-3.109V25.783H294.29Z" transform="translate(-85.589 -6.743)" fill="#1a1311"/><path d="M98.354,41.016h.641V43.7l2.4-2.688h.92l-2.063,2.21,2.1,3.279H101.5l-1.723-2.759-.784.844v1.915h-.641Z" transform="translate(-28.604 -11.929)" fill="#1a1311"/><path d="M106.74,45.93a1.447,1.447,0,0,1-1.313-.626,3.217,3.217,0,0,1,.062-3.249,1.517,1.517,0,0,1,1.234-.581,1.456,1.456,0,0,1,1.218.584,2.52,2.52,0,0,1,.447,1.558,3.3,3.3,0,0,1-.383,1.608,1.336,1.336,0,0,1-1.265.706m-.055-5.134a2.055,2.055,0,0,0-1.856,1.024,3.553,3.553,0,0,0-.486,1.9,3.471,3.471,0,0,0,.569,2.042,2.254,2.254,0,0,0,3.6-.114,3.593,3.593,0,0,0,.55-2.045,3.26,3.26,0,0,0-.484-1.861,2.112,2.112,0,0,0-1.892-.945" transform="translate(-30.347 -11.865)" fill="#1a1311"/><path d="M112.865,43.524V41.66h1.556a1.023,1.023,0,0,1,.526.11.826.826,0,0,1,.36.786.936.936,0,0,1-.262.768,1.119,1.119,0,0,1-.708.2Zm-.662,2.982h.662V44.151h1.445a1.323,1.323,0,0,1,.577.1.82.82,0,0,1,.337.721l.051.924a3.488,3.488,0,0,0,.029.428.885.885,0,0,0,.047.187h.812v-.131c-.1-.041-.172-.155-.209-.331a1.839,1.839,0,0,1-.044-.461l-.024-.74a1.355,1.355,0,0,0-.164-.691,1.017,1.017,0,0,0-.425-.346,1.357,1.357,0,0,0,.5-.5,1.629,1.629,0,0,0,.185-.806,1.343,1.343,0,0,0-.676-1.3,1.9,1.9,0,0,0-.893-.18H112.2Z" transform="translate(-32.632 -11.929)" fill="#1a1311"/><path d="M119.064,41.016h3.508v.674H119.7v1.664h2.657v.64H119.7v1.861h2.912v.65h-3.549Z" transform="translate(-34.628 -11.929)" fill="#1a1311"/><path d="M126.139,44.251l.774-2.423.749,2.423Zm-1.391,2.255h.673l.522-1.646h1.9l.51,1.646h.716l-1.757-5.49h-.74Z" transform="translate(-36.281 -11.929)" fill="#1a1311"/><rect width="0.664" height="5.49" transform="translate(95.027 29.087)" fill="#1a1311"/><path d="M136.45,41.016h.761l2.428,4.439V41.016h.615v5.49h-.727l-2.457-4.442v4.442h-.62Z" transform="translate(-39.684 -11.929)" fill="#1a1311"/><path d="M143.664,44.655a1.769,1.769,0,0,0,.185.771,1.168,1.168,0,0,0,1.11.547,1.643,1.643,0,0,0,.65-.124.827.827,0,0,0,.569-.834.792.792,0,0,0-.241-.644,2.262,2.262,0,0,0-.762-.328l-.64-.16a2.586,2.586,0,0,1-.889-.363,1.222,1.222,0,0,1-.447-1.032,1.742,1.742,0,0,1,.438-1.211,1.633,1.633,0,0,1,1.247-.48,1.978,1.978,0,0,1,1.267.425,1.619,1.619,0,0,1,.52,1.336h-.618a1.652,1.652,0,0,0-.2-.686,1.112,1.112,0,0,0-.983-.428,1.006,1.006,0,0,0-.8.28.943.943,0,0,0-.243.63.657.657,0,0,0,.286.6,3.852,3.852,0,0,0,.855.308l.656.169a1.9,1.9,0,0,1,.744.356,1.362,1.362,0,0,1,.444,1.115,1.462,1.462,0,0,1-.572,1.307,2.291,2.291,0,0,1-1.325.4,1.827,1.827,0,0,1-1.386-.526,1.942,1.942,0,0,1-.487-1.421Z" transform="translate(-41.602 -11.865)" fill="#1a1311"/><path d="M153.006,41.016v.657h-1.632v4.832h-.658V41.674h-1.637v-.657Z" transform="translate(-43.357 -11.929)" fill="#1a1311"/><rect width="0.65" height="5.49" transform="translate(110.404 29.087)" fill="#1a1311"/><path d="M161.469,41.016v.657h-1.637v4.832h-.657V41.674h-1.638v-.657Z" transform="translate(-45.817 -11.929)" fill="#1a1311"/><path d="M164.662,41.016v3.4a2.174,2.174,0,0,0,.2.986,1.025,1.025,0,0,0,1,.6,1.128,1.128,0,0,0,1.137-.647,2.286,2.286,0,0,0,.163-.941v-3.4h.662V44.1a3.936,3.936,0,0,1-.24,1.557,1.886,1.886,0,0,1-3.333,0,3.922,3.922,0,0,1-.24-1.557V41.016Z" transform="translate(-47.698 -11.929)" fill="#1a1311"/><path d="M174.156,41.016v.657h-1.634v4.832h-.664V41.674h-1.633v-.657Z" transform="translate(-49.507 -11.929)" fill="#1a1311"/><path d="M176.7,41.016h3.512v.674h-2.873v1.664h2.65v.64h-2.65v1.861h2.912v.65H176.7Z" transform="translate(-51.39 -11.929)" fill="#1a1311"/><path d="M187.652,45.93a1.468,1.468,0,0,1-1.325-.626,2.741,2.741,0,0,1-.4-1.526,2.712,2.712,0,0,1,.471-1.723,1.516,1.516,0,0,1,1.23-.581,1.464,1.464,0,0,1,1.224.584,2.515,2.515,0,0,1,.443,1.558,3.243,3.243,0,0,1-.385,1.608,1.325,1.325,0,0,1-1.254.706m-.06-5.134a2.052,2.052,0,0,0-1.854,1.024,3.515,3.515,0,0,0-.488,1.9,3.437,3.437,0,0,0,.575,2.042,2.07,2.07,0,0,0,1.75.841,2.117,2.117,0,0,0,1.845-.955,3.654,3.654,0,0,0,.547-2.045,3.328,3.328,0,0,0-.48-1.861,2.121,2.121,0,0,0-1.894-.945" transform="translate(-53.877 -11.865)" fill="#1a1311"/><path d="M193.091,41.016h3.356v.674h-2.688v1.664h2.364V44h-2.364v2.508h-.667Z" transform="translate(-56.157 -11.929)" fill="#1a1311"/><path d="M201.438,41.016h.929l1.391,4.639,1.374-4.639h.922v5.49h-.613V43.261c0-.106,0-.29.006-.56s.011-.529.011-.831l-1.381,4.636h-.648l-1.395-4.636v.17c0,.132.006.343.006.616s.019.471.019.6v3.245h-.621Z" transform="translate(-58.585 -11.929)" fill="#1a1311"/><path d="M210.209,44.251l.773-2.423.745,2.423Zm-1.395,2.255h.674l.523-1.646h1.9l.5,1.646h.725l-1.762-5.49h-.74Z" transform="translate(-60.73 -11.929)" fill="#1a1311"/><path d="M219.094,41.356a2.1,2.1,0,0,1,.56,1.246h-.638a1.607,1.607,0,0,0-.434-.838,1.266,1.266,0,0,0-.906-.307,1.38,1.38,0,0,0-1.141.561,3.488,3.488,0,0,0-.05,3.3,1.332,1.332,0,0,0,1.177.6,1.2,1.2,0,0,0,1.092-.626,2.548,2.548,0,0,0,.3-.858h.635a2.621,2.621,0,0,1-.558,1.442,1.883,1.883,0,0,1-1.546.716,1.854,1.854,0,0,1-1.407-.588,3.233,3.233,0,0,1-.755-2.36,3.366,3.366,0,0,1,.564-2,1.98,1.98,0,0,1,1.689-.847,1.85,1.85,0,0,1,1.417.56" transform="translate(-62.652 -11.865)" fill="#1a1311"/><path d="M222.63,41.016h.654v2.273h2.5V41.016h.658v5.49h-.658V43.94h-2.5v2.566h-.654Z" transform="translate(-64.748 -11.929)" fill="#1a1311"/><rect width="0.657" height="5.49" transform="translate(162.891 29.087)" fill="#1a1311"/><path d="M232.149,41.016h.76l2.422,4.439V41.016h.618v5.49h-.729l-2.464-4.442v4.442h-.607Z" transform="translate(-67.517 -11.929)" fill="#1a1311"/><path d="M239.088,41.016H242.6v.674h-2.875v1.664h2.652v.64h-2.652v1.861h2.918v.65h-3.555Z" transform="translate(-69.535 -11.929)" fill="#1a1311"/><path d="M246.116,43.524V41.66h1.557a1.03,1.03,0,0,1,.522.11.837.837,0,0,1,.36.786.946.946,0,0,1-.264.768,1.132,1.132,0,0,1-.713.2Zm-.664,2.982h.664V44.151h1.438a1.27,1.27,0,0,1,.574.1.794.794,0,0,1,.339.721l.056.924c.007.211.016.35.026.428a.491.491,0,0,0,.052.187h.816v-.131a.422.422,0,0,1-.222-.331,3.388,3.388,0,0,1-.048-.461l-.017-.74a1.36,1.36,0,0,0-.16-.691,1.043,1.043,0,0,0-.431-.346,1.3,1.3,0,0,0,.5-.5,1.571,1.571,0,0,0,.179-.806,1.335,1.335,0,0,0-.667-1.3,1.91,1.91,0,0,0-.9-.18h-2.2Z" transform="translate(-71.385 -11.929)" fill="#1a1311"/><path d="M251.525,41.016h.768l1.4,2.633,1.386-2.633h.773l-1.833,3.272v2.218h-.658V44.288Z" transform="translate(-73.152 -11.929)" fill="#1a1311"/><path d="M262.18,43.165a4.2,4.2,0,0,1-.367-.54,1,1,0,0,1-.1-.443.67.67,0,0,1,.072-.311.533.533,0,0,1,.511-.273.47.47,0,0,1,.382.176.616.616,0,0,1,.144.415.925.925,0,0,1-.2.575,2.469,2.469,0,0,1-.437.4m-.14,2.891a.94.94,0,0,1-.606-.231.829.829,0,0,1-.286-.678,1.088,1.088,0,0,1,.221-.685,3.48,3.48,0,0,1,.609-.537l1.089,1.516a1.433,1.433,0,0,1-.406.428,1.018,1.018,0,0,1-.621.187m-.391-2.591a3.89,3.89,0,0,0-.763.637,1.584,1.584,0,0,0-.329,1.035,1.665,1.665,0,0,0,.342,1.038,1.259,1.259,0,0,0,1.093.454,1.55,1.55,0,0,0,.9-.256,2.621,2.621,0,0,0,.5-.477l.452.615h.736l-.84-1.169c0,.055.059-.079.167-.391a4.449,4.449,0,0,0,.229-1.014h-.569c-.024.173-.049.308-.068.4s-.066.254-.123.471l-.884-1.2a3.118,3.118,0,0,0,.577-.543,1.459,1.459,0,0,0,.306-.93,1.145,1.145,0,0,0-.289-.782,1,1,0,0,0-.788-.323,1.09,1.09,0,0,0-.851.35,1.265,1.265,0,0,0-.315.879,1.492,1.492,0,0,0,.106.533,2.848,2.848,0,0,0,.412.674" transform="translate(-75.779 -11.933)" fill="#1a1311"/><path d="M269.841,41.016h.932l1.386,4.639,1.377-4.639h.933v5.49h-.622V43.261c0-.106,0-.29.007-.56s.014-.529.014-.831l-1.387,4.636h-.647l-1.4-4.636v.17c0,.132.007.343.012.616s.013.471.013.6v3.245h-.619Z" transform="translate(-78.479 -11.929)" fill="#1a1311"/><path d="M278.612,44.251l.777-2.423.743,2.423Zm-1.389,2.255h.673l.523-1.646h1.9l.5,1.646h.725l-1.757-5.49h-.737Z" transform="translate(-80.626 -11.929)" fill="#1a1311"/><path d="M286.8,41.016v.657h-1.635v4.832H284.5V41.674H282.87v-.657Z" transform="translate(-82.268 -11.929)" fill="#1a1311"/><path d="M289.35,41.016h3.508v.674h-2.871v1.664h2.651v.64h-2.651v1.861H292.9v.65H289.35Z" transform="translate(-84.152 -11.929)" fill="#1a1311"/><path d="M296.368,43.524V41.66h1.555a1.028,1.028,0,0,1,.526.11.831.831,0,0,1,.361.786.923.923,0,0,1-.266.768,1.117,1.117,0,0,1-.708.2Zm-.662,2.982h.662V44.151h1.441a1.307,1.307,0,0,1,.576.1.8.8,0,0,1,.34.721l.054.924c.006.211.015.35.026.428a1.628,1.628,0,0,0,.046.187h.811v-.131a.423.423,0,0,1-.211-.331,2.126,2.126,0,0,1-.046-.461l-.019-.74a1.461,1.461,0,0,0-.162-.691,1.077,1.077,0,0,0-.428-.346,1.394,1.394,0,0,0,.507-.5,1.681,1.681,0,0,0,.173-.806,1.339,1.339,0,0,0-.664-1.3,1.925,1.925,0,0,0-.9-.18h-2.206Z" transform="translate(-86.001 -11.929)" fill="#1a1311"/><rect width="0.66" height="5.49" transform="translate(214.653 29.087)" fill="#1a1311"/><path d="M305.94,44.251l.774-2.423.741,2.423Zm-1.4,2.255h.674l.525-1.646h1.9l.5,1.646h.725l-1.758-5.49h-.742Z" transform="translate(-88.571 -11.929)" fill="#1a1311"/><path d="M311.479,41.016h.664v4.839h2.416v.65h-3.08Z" transform="translate(-90.589 -11.929)" fill="#1a1311"/><path d="M317.115,44.655a1.6,1.6,0,0,0,.188.771,1.154,1.154,0,0,0,1.107.547,1.662,1.662,0,0,0,.651-.124.833.833,0,0,0,.569-.834.807.807,0,0,0-.241-.644,2.262,2.262,0,0,0-.769-.328l-.635-.16a2.561,2.561,0,0,1-.886-.363,1.222,1.222,0,0,1-.445-1.032,1.721,1.721,0,0,1,.435-1.211,1.627,1.627,0,0,1,1.255-.48,1.96,1.96,0,0,1,1.254.425,1.608,1.608,0,0,1,.519,1.336H319.5a1.588,1.588,0,0,0-.206-.686,1.091,1.091,0,0,0-.974-.428,1,1,0,0,0-.8.28.925.925,0,0,0-.242.63.647.647,0,0,0,.284.6,3.836,3.836,0,0,0,.857.308l.657.169a1.908,1.908,0,0,1,.74.356,1.38,1.38,0,0,1,.446,1.115,1.473,1.473,0,0,1-.57,1.307,2.316,2.316,0,0,1-1.332.4,1.821,1.821,0,0,1-1.381-.526,1.942,1.942,0,0,1-.491-1.421Z" transform="translate(-92.047 -11.865)" fill="#1a1311"/></g></g></g></g></g></svg>