<svg xmlns="http://www.w3.org/2000/svg" xmlns:xlink="http://www.w3.org/1999/xlink" width="257" height="87" viewBox="0 0 257 87"><defs><style>.a{fill:#ffaeae;}.b{fill:none;}.c{clip-path:url(#a);}.d{clip-path:url(#b);}.e{fill:#1a1818;}.f{fill:#0067b6;}.g{fill:#d80028;}.h{fill:#ff9d1f;}</style><clipPath id="a"><rect class="a" width="257" height="87" transform="translate(43 338)"/></clipPath><clipPath id="b"><rect class="b" width="139.552" height="59.569"/></clipPath></defs><g transform="translate(-43 -338)"><g class="c"><g transform="translate(101 351.75)"><g class="d"><path class="e" d="M84.293,223.767h.8v2.043h.019c.205-.358,1.227-1.689,1.483-2.043h1l-1.529,1.89,1.628,2.551h-.949l-1.259-2.036-.395.474v1.562h-.8Z" transform="translate(-63.561 -168.731)"/><path class="e" d="M102.407,225.841a2.094,2.094,0,1,1-4.172.079c-.154-3.022,4.33-3.041,4.172-.079m-3.314.066c-.1,2.137,2.584,2.122,2.458-.033.079-2.133-2.548-2.168-2.458.033" transform="translate(-74.071 -168.633)"/><path class="e" d="M118.051,223.723c.641-.108,2.128-.21,2.6.264a1.211,1.211,0,0,1-.422,2v.018c.673.17.759,1.775.97,2.1h-.84c-.318-.689-.161-2.091-1.5-1.827v1.827h-.8Zm.8,1.963c1.871.293,1.782-1.835,0-1.4Z" transform="translate(-89.016 -168.63)"/><path class="e" d="M135.776,226.237H134.1v1.3h1.873v.666h-2.683v-4.441h2.583v.666H134.1v1.146h1.675Z" transform="translate(-100.508 -168.731)"/><path class="e" d="M146.966,226.948l-.382,1.26h-.837l1.423-4.441H148.2l1.442,4.441h-.869l-.4-1.26Zm1.272-.614c-.165-.515-.461-1.411-.574-1.923h-.014c-.106.514-.389,1.411-.552,1.923Z" transform="translate(-109.9 -168.73)"/><rect class="e" width="0.811" height="4.441" transform="translate(41.731 55.036)"/><path class="e" d="M176.743,228.207v-4.441h.924a31.34,31.34,0,0,1,1.9,3.393h.012c-.1-.944-.069-2.387-.072-3.393h.751v4.441h-.836c-.544-.944-1.541-2.5-1.959-3.487l-.018.007c.058.908.036,2.475.04,3.48Z" transform="translate(-133.273 -168.73)"/><path class="e" d="M194.228,226.994c1.034.8,3.042-.261,1.094-1.06-2.6-.9-.471-3.41,1.437-2.346l-.2.653c-.289-.263-1.707-.34-1.62.323.094.823,2.243.892,2,2.049.185,1.208-1.954,1.681-2.885,1.055Z" transform="translate(-146.324 -168.402)"/><path class="e" d="M208.338,224.445h-1.266v-.678h3.353v.678h-1.277v3.763h-.81Z" transform="translate(-156.142 -168.731)"/><rect class="e" width="0.811" height="4.441" transform="translate(54.804 55.036)"/><path class="e" d="M229.473,224.445h-1.266v-.678h3.354v.678h-1.279v3.763h-.809Z" transform="translate(-172.079 -168.731)"/><path class="e" d="M244.671,223.767c.142.85-.515,3.963.91,3.86,1.47.118.789-3,.936-3.86h.81c-.041,1.466.474,4.742-1.772,4.512-2.173.25-1.647-3.095-1.695-4.512Z" transform="translate(-183.864 -168.731)"/><path class="e" d="M261.376,224.445H260.11v-.678h3.354v.678h-1.278v3.763h-.811Z" transform="translate(-196.136 -168.731)"/><path class="e" d="M278.352,226.237h-1.673v1.3h1.871v.666h-2.682v-4.441h2.584v.666h-1.773v1.146h1.673Z" transform="translate(-208.018 -168.731)"/><path class="e" d="M298.436,225.841a2.094,2.094,0,1,1-4.171.079c-.155-3.023,4.328-3.041,4.171-.079m-3.315.066c-.1,2.138,2.585,2.121,2.458-.033.078-2.133-2.549-2.168-2.458.033" transform="translate(-221.887 -168.632)"/><path class="e" d="M314.069,223.767h2.563v.666h-1.752v1.225h1.633v.666h-1.633v1.885h-.811Z" transform="translate(-236.823 -168.731)"/><path class="e" d="M336.471,225.841a2.094,2.094,0,1,1-4.171.079c-.155-3.023,4.329-3.041,4.171-.079m-3.314.066c-.1,2.138,2.586,2.121,2.457-.033.079-2.133-2.548-2.168-2.457.033" transform="translate(-250.567 -168.632)"/><path class="e" d="M352.116,223.723c.639-.108,2.127-.21,2.6.264a1.211,1.211,0,0,1-.422,2v.018c.674.17.758,1.775.97,2.1h-.837c-.32-.688-.162-2.091-1.5-1.827v1.827h-.8Zm.8,1.963c1.87.292,1.781-1.835,0-1.4Z" transform="translate(-265.512 -168.63)"/><rect class="e" width="0.811" height="4.441" transform="translate(90.352 55.036)"/><path class="e" d="M376.912,226.237h-1.673v1.3h1.87v.666h-2.681v-4.441h2.582v.666h-1.771v1.146h1.673Z" transform="translate(-282.337 -168.731)"/><path class="e" d="M388.229,228.207v-4.441h.922a30.994,30.994,0,0,1,1.9,3.393h.013c-.094-.944-.068-2.387-.071-3.393h.75v4.441h-.837c-.543-.944-1.54-2.5-1.957-3.487l-.02.007c.057.908.037,2.475.041,3.48Z" transform="translate(-292.743 -168.73)"/><path class="e" d="M405.914,224.445h-1.265v-.678H408v.678h-1.278v3.763h-.81Z" transform="translate(-305.125 -168.731)"/><path class="e" d="M418.323,226.948l-.382,1.26h-.836l1.423-4.441h1.035l1.443,4.441h-.869l-.4-1.26Zm1.271-.614c-.165-.515-.46-1.411-.572-1.923h-.013c-.107.514-.389,1.411-.553,1.923Z" transform="translate(-314.517 -168.73)"/><path class="e" d="M435.483,223.767h.811v3.76h1.825v.682h-2.636Z" transform="translate(-328.375 -168.731)"/><path class="e" d="M457.644,226.393c-.028-.572-.06-1.265-.054-1.871h-.02c-.259,1.009-.841,2.613-1.172,3.631h-.627c-.319-1.029-.84-2.6-1.042-3.631h-.013c-.028,1.055-.116,2.608-.178,3.685h-.757l.295-4.441h1.069c.3.921.8,2.406.987,3.327h.02c.2-.9.739-2.419,1.055-3.327h1.052l.259,4.441h-.792Z" transform="translate(-342.174 -168.73)"/><path class="e" d="M478.877,226.237H477.2v1.3h1.87v.666h-2.681v-4.441h2.582v.666H477.2v1.146h1.673Z" transform="translate(-359.223 -168.731)"/><path class="e" d="M490.186,223.568c5.169-1.178,5.034,5.386,0,4.368Zm.81,3.762c2.79.6,2.88-3.872,0-3.176Z" transform="translate(-369.624 -168.474)"/><rect class="e" width="0.81" height="4.441" transform="translate(125.063 55.036)"/><path class="e" d="M518.123,227.783c-4.63,1.58-4.4-5.74.04-4.185l-.178.647c-3.146-1.295-3.242,4.166.007,2.9Z" transform="translate(-388.139 -168.44)"/><rect class="e" width="0.811" height="4.441" transform="translate(130.677 55.036)"/><path class="e" d="M538.383,228.207v-4.441h.923a31.4,31.4,0,0,1,1.905,3.393h.012c-.1-.944-.069-2.387-.072-3.393h.751v4.441h-.838c-.543-.945-1.539-2.5-1.956-3.487l-.019.007c.056.908.036,2.475.039,3.48Z" transform="translate(-405.967 -168.73)"/><path class="e" d="M558.978,226.237H557.3v1.3h1.87v.666h-2.681v-4.441h2.583v.666H557.3v1.146h1.673Z" transform="translate(-419.623 -168.731)"/><rect class="e" width="8.956" height="1.429" transform="translate(19.714 36.252)"/><rect class="e" width="2.19" height="2.26" transform="translate(23.13 34.989)"/><rect class="e" width="8.957" height="1.429" transform="translate(49.911 36.252)"/><rect class="e" width="2.192" height="2.26" transform="translate(53.326 34.989)"/><rect class="e" width="8.957" height="1.429" transform="translate(80.508 36.252)"/><rect class="e" width="2.194" height="2.26" transform="translate(83.923 34.989)"/><rect class="e" width="2.192" height="7.285" transform="translate(117.032 43.269)"/><rect class="e" width="13.574" height="1.427" transform="translate(111.309 42.909)"/><rect class="e" width="2.303" height="1.429" transform="translate(31.97 39.127)"/><rect class="e" width="2.189" height="10.061" transform="translate(30.308 35.722)"/><path class="e" d="M86.29,148a3.745,3.745,0,1,0,0,7.466,3.745,3.745,0,1,0,0-7.466m0,6.185c-2.532.079-2.531-4.981,0-4.9,2.533-.077,2.534,4.983,0,4.9" transform="translate(-62.013 -111.596)"/><rect class="e" width="2.304" height="1.429" transform="translate(62.167 39.127)"/><rect class="e" width="2.19" height="10.061" transform="translate(60.505 35.722)"/><path class="e" d="M209.072,148a3.745,3.745,0,1,0,0,7.466,3.745,3.745,0,1,0,0-7.466m0,6.185c-2.532.078-2.53-4.981,0-4.9,2.532-.078,2.534,4.984,0,4.9" transform="translate(-154.596 -111.596)"/><rect class="e" width="2.191" height="4.182" transform="translate(40.528 41.683)"/><rect class="e" width="13.851" height="1.431" transform="translate(34.791 41.322)"/><rect class="e" width="12.302" height="1.429" transform="translate(65.654 45.811)"/><rect class="e" width="2.154" height="14.967" transform="translate(76.316 35.587)"/><path class="e" d="M272.519,144.776c-5.834-.016-5.833,7.909,0,7.895,5.827.013,5.826-7.91,0-7.895m0,6.586c-2.885.147-2.884-5.426,0-5.28,2.882-.145,2.884,5.428,0,5.28" transform="translate(-202.193 -109.168)"/><rect class="e" width="2.303" height="1.431" transform="translate(92.629 38.567)"/><rect class="e" width="2.191" height="8.468" transform="translate(91.102 35.566)"/><path class="e" d="M333.551,147.994c-5.366-.054-5.363,7.1,0,7.04,5.369.056,5.371-7.1,0-7.04m0,5.757c-2.49.024-2.493-4.5,0-4.476,2.5-.022,2.5,4.5,0,4.476" transform="translate(-248.48 -111.594)"/><rect class="e" width="2.153" height="10.203" transform="translate(107.131 35.722)"/><rect class="e" width="4.553" height="1.383" transform="translate(104.016 37.699)"/><rect class="e" width="4.553" height="1.385" transform="translate(104.016 40.615)"/><path class="e" d="M395.408,145.3a3.969,3.969,0,1,0,0,7.9,3.969,3.969,0,1,0,0-7.9m0,6.588c-2.91.091-2.905-5.373,0-5.282,2.907-.091,2.912,5.373,0,5.282" transform="translate(-294.87 -109.565)"/><rect class="e" width="2.154" height="2.919" transform="translate(129.7 42.935)"/><rect class="e" width="2.155" height="11.423" transform="translate(137.397 35.721)"/><rect class="e" width="9.707" height="1.383" transform="translate(126.469 42.392)"/><rect class="e" width="4.552" height="1.384" transform="translate(134.284 44.657)"/><path class="e" d="M520.031,144.339c-5.329-.128-5.33,6.331,0,6.2,5.331.128,5.332-6.332,0-6.2m0,4.921a1.82,1.82,0,1,1,0-3.64,1.82,1.82,0,1,1,0,3.64" transform="translate(-389.115 -108.837)"/><path class="e" d="M92,188.281a.45.45,0,0,1-.483-.481v-3.256h-2.19c.2,1.48-.827,5.253,1.735,5.165H99.8v-1.428Z" transform="translate(-67.322 -139.155)"/><path class="e" d="M155.7,147.818a.45.45,0,0,1,.483.482v3.595h2.191c-.239-1.5.911-5.6-1.736-5.5H147.4v1.428Z" transform="translate(-111.146 -110.384)"/><path class="e" d="M155.7,185.5a.453.453,0,0,1,.483.485v3.37h2.191c-.213-1.487.857-5.373-1.736-5.28H147.4V185.5Z" transform="translate(-111.146 -138.797)"/><path class="e" d="M343.923,183.684a.451.451,0,0,1,.483.484v3.815h2.19c-.242-1.525.933-5.811-1.734-5.727h-8.968v1.428Z" transform="translate(-253.28 -137.429)"/><path class="e" d="M214.778,188.281a.45.45,0,0,1-.482-.481v-3.256H212.1c.2,1.479-.826,5.252,1.733,5.165h8.747v-1.428Z" transform="translate(-159.906 -139.155)"/><path class="e" d="M403.992,187.973a.45.45,0,0,1-.483-.481v-3.356h-2.191c.21,1.485-.851,5.356,1.735,5.265H411.8v-1.428Z" transform="translate(-302.581 -138.847)"/><path class="e" d="M527.135,192.987c-.843.077-.366-1.778-.484-2.2h-2.189c-.007,1.359-.315,3.68,1.732,3.63h8.746v-1.428Z" transform="translate(-395.454 -143.862)"/><path class="e" d="M466.543,147.2a.449.449,0,0,1,.481.483v5.239h2.193c.238-9.857.262-6.593-10.7-7.148V147.2Z" transform="translate(-345.743 -109.845)"/><path class="f" d="M53.007,20.558C43.164,16.816,50.5.622,33.947.045A12.841,12.841,0,0,0,27.4,1.714c4.678-2.25,11.927.739,12.435,8.413.951,10.214,9.222,17.339,16.7,9.916a6.353,6.353,0,0,1-3.528.515" transform="translate(-20.662 -0.034)"/><path class="g" d="M86.451,5.641,78.024.116c-.353-.245-.557-.09-.47.348h0c3.407,21.3-14.917,31.25-30.4,27.623,17.069,6.9,40.473-6.267,39.3-22.446" transform="translate(-35.553 0)"/><path class="h" d="M20.8,31.25C6.822,32.64.783,6.187,13.631,4.769,11.089,3.4,6.4,4.7,6.739,4.806c.136-.074.276-.149.42-.223-17.657,11.287.336,35.6,21.606,25A16.866,16.866,0,0,1,20.8,31.25" transform="translate(0 -3.126)"/></g></g></g></g></svg>