<svg xmlns="http://www.w3.org/2000/svg" xmlns:xlink="http://www.w3.org/1999/xlink" width="257" height="87" viewBox="0 0 257 87"><defs><clipPath id="a"><rect width="257" height="87" transform="translate(1112 337)" fill="#ffaeae"/></clipPath><clipPath id="b"><rect width="94.684" height="49.14" fill="none"/></clipPath></defs><g transform="translate(-1112 -337)"><g clip-path="url(#a)"><g transform="translate(1193.566 355.18)"><path d="M55.343,65.753h3.631v1.854h1.861V65.753H64.27V64.692H55.343Z" transform="translate(-23.032 -26.923)" fill="#1a1818"/><g clip-path="url(#b)"><path d="M55.68,60.127l.558.966a5.828,5.828,0,0,0,3.71-1.773,5.821,5.821,0,0,0,3.709,1.773l.557-.966c-.184-.008-2.445-.384-3.072-1.936h2.986v-1.06H55.765v1.06h2.986c-.626,1.552-2.887,1.928-3.072,1.936" transform="translate(-23.172 -23.776)" fill="#1a1818"/><path d="M38.2,61.227h-1.1v1.059h8.4V61.227H44.4V58.19h1.131V57.131H37.064V58.19H38.2Zm4.339,0H40.056V58.191h2.478Z" transform="translate(-15.425 -23.776)" fill="#1a1818"/><path d="M12.868,56.553H10.423v.266a.736.736,0,0,1,.582.751v5.8h1.861V59.933h1.491v-1.06H12.868Z" transform="translate(-4.338 -23.536)" fill="#1a1818"/><path d="M43.746,67.041H41.3v.266a.736.736,0,0,1,.583.751v1.679H39.779v-2.7H37.335v.266a.737.737,0,0,1,.583.751v1.679H35.951V70.8h9.763V69.737H43.746Z" transform="translate(-14.962 -27.9)" fill="#1a1818"/><path d="M81.965,56.553H79.521v.266a.738.738,0,0,1,.582.751v5.367a5.3,5.3,0,0,1-1.458.208,4.246,4.246,0,0,0,.416-2.154v-3.17c0-.7-.345-1.055-1.109-1.055H73.505v1.061h3.7v3.164a5.633,5.633,0,0,1-.325,2.156H76.26v-2.77H73.9v.266a.737.737,0,0,1,.582.751v1.753H73.246v1.06h5.105a4.774,4.774,0,0,0,1.753-.27V66.92h1.86V60.283h1.642v-1.06H81.965Z" transform="translate(-30.483 -23.536)" fill="#1a1818"/><path d="M5.8,59.9a2.256,2.256,0,0,0-1.042-1.844H5.871V56.993h-2V55.976H2v1.017H0v1.061H1.117A2.257,2.257,0,0,0,.076,59.9a2.657,2.657,0,0,0,2.86,2.389A2.656,2.656,0,0,0,5.8,59.9m-3.843,0c0-.734.44-1.329.984-1.329s.983.595.983,1.329-.44,1.329-.983,1.329-.984-.6-.984-1.329" transform="translate(0 -23.295)" fill="#1a1818"/><path d="M98.181,59.9a2.256,2.256,0,0,0-1.042-1.844h1.113V56.993H96.247V55.976H94.385v1.017h-2v1.061H93.5A2.256,2.256,0,0,0,92.462,59.9a2.906,2.906,0,0,0,5.719,0m-3.844,0c0-.734.441-1.329.984-1.329s.984.595.984,1.329-.441,1.329-.984,1.329-.984-.6-.984-1.329" transform="translate(-38.446 -23.295)" fill="#1a1818"/><path d="M149.782,63.893h1.649V61.956h1.71V60.9H151.9a2.175,2.175,0,0,0,1.133-1.9c0-1.363-1.216-2.345-2.9-2.345s-2.9.983-2.9,2.345a2.175,2.175,0,0,0,1.133,1.9h-1.237v1.059h2.655Zm.353-6.247c.642,0,1.06.606,1.06,1.352s-.419,1.354-1.06,1.354-1.062-.606-1.062-1.354.42-1.352,1.062-1.352" transform="translate(-61.229 -23.577)" fill="#1a1818"/><path d="M3.968,67.9H1.523v.264a.736.736,0,0,1,.583.751v1.518c0,.7.347,1.056,1.111,1.056H9.329v-1.06H3.968Z" transform="translate(-0.634 -28.257)" fill="#1a1818"/><path d="M157.091,57.57v4.888H155.5v.987h1.589v.836h1.861V56.553h-2.444v.266a.737.737,0,0,1,.583.751" transform="translate(-64.715 -23.536)" fill="#1a1818"/><path d="M115.918,61.144h1.928v2.223h1.86V56.553h-2.444v.266a.737.737,0,0,1,.581.751v.479h-1.8a2.732,2.732,0,0,0-2.38-1.433,2.881,2.881,0,0,0,0,5.755,2.718,2.718,0,0,0,2.254-1.227m1.927-2.034v.973h-1.486a3.012,3.012,0,0,0,.058-.59,2.955,2.955,0,0,0-.027-.383Zm-5.118.383c0-1,.42-1.81.937-1.81s.938.811.938,1.81-.42,1.811-.938,1.811-.937-.811-.937-1.811" transform="translate(-46.157 -23.536)" fill="#1a1818"/><path d="M115.336,67.641h-2.444v.266a.736.736,0,0,1,.583.751v1.668c0,.7.347,1.055,1.111,1.055H120.7v-1.06h-5.362Z" transform="translate(-46.982 -28.15)" fill="#1a1818"/><path d="M149.059,70.39V67.809h-2.285v.265a.735.735,0,0,1,.583.751v1.569c0,.7.347,1.055,1.11,1.055h6.97V70.39Z" transform="translate(-61.083 -28.22)" fill="#1a1818"/><path d="M105.249,56.553H102.8v.266a.736.736,0,0,1,.582.751V62.4h1.861v-2.47h1.492v-1.06h-1.492Z" transform="translate(-42.784 -23.536)" fill="#1a1818"/><path d="M100.731,67.813H94.32v1.059h5.661v2.579h1.86V68.868c0-.7-.346-1.055-1.11-1.055" transform="translate(-39.253 -28.222)" fill="#1a1818"/><path d="M58.113,68.059H55.67v.266a.736.736,0,0,1,.583.751V70.5c0,.7.347,1.055,1.11,1.055h6.8v-1.06H58.113Z" transform="translate(-23.168 -28.324)" fill="#1a1818"/><path d="M26.554,58.456v-.483c0-.7-.346-1.055-1.109-1.055h-6.68v1.061h5.867V59a3.483,3.483,0,0,1-.266,1.559h-6.4v1.059h3.657v1.29H18.64v1.06h6.053v2.95h1.86V63.963c0-.7-.346-1.055-1.109-1.055H23.479v-1.29h3.878V60.559H26.084a3.461,3.461,0,0,0,.469-2.1" transform="translate(-7.475 -23.687)" fill="#1a1818"/><path d="M137.38,59.488V57.972c0-.7-.345-1.054-1.109-1.054H129.3v1.06h6.161v2.054a6.756,6.756,0,0,1-.239,1.759H128.7v1.06h3.336v4.067H133.9V62.851h4.245v-1.06h-1.216a4.336,4.336,0,0,0,.449-2.3" transform="translate(-53.563 -23.687)" fill="#1a1818"/><path d="M3.626,78.41h.76l-.925,1.484.925,1.823H3.608l-.793-1.694H2.806v1.694H2.115V78.41h.691v1.415h.009Z" transform="translate(-0.88 -32.632)" fill="#1a1818"/><path d="M7.184,82.027c-.238,0-.3-.152-.3-.856,0-.481.023-.724.3-.724s.3.243.3.724c0,.7-.06.856-.3.856m0,.412c.834,0,.943-.509.943-1.231,0-.632-.092-1.172-.943-1.172s-.943.54-.943,1.172c0,.723.109,1.231.943,1.231" transform="translate(-2.597 -33.308)" fill="#1a1818"/><path d="M10.714,80.081v.3h.009a.585.585,0,0,1,.6-.343v.577c-.568-.036-.577.293-.577.522v1.259H10.1V80.081Z" transform="translate(-4.203 -33.308)" fill="#1a1818"/><path d="M13.269,80.978c0-.2-.005-.545.293-.545s.3.321.3.545Zm1.236.361c.023-.741-.073-1.3-.943-1.3-.852,0-.943.54-.943,1.172,0,.723.11,1.232.943,1.232a.969.969,0,0,0,.683-.225.825.825,0,0,0,.247-.6h-.655c0,.193-.046.413-.274.413-.284,0-.293-.413-.293-.688Z" transform="translate(-5.252 -33.308)" fill="#1a1818"/><path d="M17.707,81.276c0,.252.06.765-.321.765-.21,0-.238-.2-.238-.367,0-.411.238-.384.559-.4m.632-.468c0-.421-.106-.773-.925-.773a1.006,1.006,0,0,0-.6.151.632.632,0,0,0-.238.563H17.2c0-.183.018-.352.243-.352s.26.142.26.339v.179c-.6-.009-1.19.023-1.19.788,0,.4.165.737.614.737a.639.639,0,0,0,.6-.353h.009l.027.307h.6c-.014-.142-.032-.288-.032-.431Z" transform="translate(-6.874 -33.308)" fill="#1a1818"/><path d="M23.021,78.919h.307c.22,0,.353.119.353.436,0,.21-.078.485-.353.485h-.307Zm0,1.429H23.2c.531,0,.495.334.495.729a1.526,1.526,0,0,0,.073.641h.678a4.533,4.533,0,0,1-.078-.971.588.588,0,0,0-.6-.651v-.009a.713.713,0,0,0,.614-.811c0-.563-.3-.865-.774-.865H22.329v3.307h.692Z" transform="translate(-9.293 -32.632)" fill="#1a1818"/><path d="M27.215,80.978c0-.2,0-.545.293-.545s.3.321.3.545Zm1.237.361c.023-.741-.074-1.3-.943-1.3-.852,0-.943.54-.943,1.172,0,.723.11,1.232.943,1.232a.968.968,0,0,0,.683-.225.823.823,0,0,0,.248-.6h-.656c0,.193-.046.413-.274.413-.284,0-.293-.413-.293-.688Z" transform="translate(-11.055 -33.308)" fill="#1a1818"/><path d="M30.992,81.651a.659.659,0,0,0,.032.28c.036.074.105.11.233.11a.226.226,0,0,0,.238-.238c0-.49-1.136-.381-1.136-1.117,0-.5.495-.65.912-.65.439,0,.837.21.8.709H31.44c0-.159-.019-.256-.065-.3a.217.217,0,0,0-.165-.05c-.142,0-.22.091-.22.247,0,.366,1.136.348,1.136,1.091,0,.4-.33.7-.865.7-.564,0-.939-.142-.9-.788Z" transform="translate(-12.633 -33.308)" fill="#1a1818"/><path d="M34.619,80.978c0-.2,0-.545.294-.545s.3.321.3.545Zm1.237.361c.023-.741-.073-1.3-.943-1.3-.852,0-.944.54-.944,1.172,0,.723.11,1.232.944,1.232a.969.969,0,0,0,.683-.225.825.825,0,0,0,.247-.6h-.655c0,.193-.046.413-.274.413-.284,0-.294-.413-.294-.688Z" transform="translate(-14.137 -33.308)" fill="#1a1818"/><path d="M39.058,81.276c0,.252.06.765-.321.765-.21,0-.238-.2-.238-.367,0-.411.238-.384.559-.4m.632-.468c0-.421-.106-.773-.925-.773a1,1,0,0,0-.6.151.632.632,0,0,0-.238.563h.632c0-.183.018-.352.243-.352s.26.142.26.339v.179c-.6-.009-1.19.023-1.19.788,0,.4.165.737.614.737a.641.641,0,0,0,.6-.353H39.1l.027.307h.6c-.014-.142-.032-.288-.032-.431Z" transform="translate(-15.759 -33.308)" fill="#1a1818"/><path d="M42.522,80.081v.3h.009a.585.585,0,0,1,.6-.343v.577c-.568-.036-.577.293-.577.522v1.259h-.646V80.081Z" transform="translate(-17.441 -33.308)" fill="#1a1818"/><path d="M45.5,80.9c0-.344-.086-.458-.288-.458-.275,0-.3.243-.3.724,0,.7.06.856.3.856.2,0,.3-.184.3-.486h.646c0,.627-.339.9-.943.9-.834,0-.943-.509-.943-1.231,0-.632.091-1.172.943-1.172.595,0,.934.266.934.87Z" transform="translate(-18.424 -33.308)" fill="#1a1818"/><path d="M49.259,81.717V80.123c0-.206-.036-.366-.242-.366s-.243.161-.243.366v1.594h-.646V78.41h.646v1.228h.009a.574.574,0,0,1,.545-.279.524.524,0,0,1,.577.5v1.855Z" transform="translate(-20.029 -32.632)" fill="#1a1818"/><rect width="0.692" height="3.307" transform="translate(31.438 45.778)" fill="#1a1818"/><path d="M56.618,80.315h.009a.573.573,0,0,1,.545-.28.524.524,0,0,1,.577.5v1.855H57.1V80.8c0-.2-.036-.366-.243-.366s-.243.161-.243.366v1.594h-.645V80.081h.645Z" transform="translate(-23.294 -33.308)" fill="#1a1818"/><path d="M60.306,81.651a.65.65,0,0,0,.032.28c.036.074.1.11.233.11a.226.226,0,0,0,.238-.238c0-.49-1.136-.381-1.136-1.117,0-.5.495-.65.911-.65.439,0,.838.21.8.709h-.632c0-.159-.019-.256-.065-.3a.218.218,0,0,0-.165-.05c-.142,0-.22.091-.22.247,0,.366,1.136.348,1.136,1.091,0,.4-.33.7-.866.7-.563,0-.938-.142-.9-.788Z" transform="translate(-24.833 -33.308)" fill="#1a1818"/><path d="M62.93,79.646h.261v-.367l.646-.288v.655h.334v.4h-.334v1.237c0,.174,0,.289.206.289a.414.414,0,0,0,.115-.01v.4a2.626,2.626,0,0,1-.335.023c-.559,0-.632-.371-.632-.513V80.044H62.93Z" transform="translate(-26.189 -32.873)" fill="#1a1818"/><path d="M66.3,81.717h-.645V79.4H66.3Zm0-2.8h-.645V78.41H66.3Z" transform="translate(-27.323 -32.632)" fill="#1a1818"/><path d="M67.291,79.646h.261v-.367l.646-.288v.655h.334v.4H68.2v1.237c0,.174,0,.289.205.289a.414.414,0,0,0,.115-.01v.4a2.626,2.626,0,0,1-.335.023c-.559,0-.632-.371-.632-.513V80.044h-.261Z" transform="translate(-28.004 -32.873)" fill="#1a1818"/><path d="M71.05,82.192h-.009a.573.573,0,0,1-.545.28.524.524,0,0,1-.577-.5V80.113h.646v1.6c0,.205.037.357.243.357s.242-.152.242-.357v-1.6H71.7v1.854c0,.152.009.308.023.458H71.05Z" transform="translate(-29.098 -33.34)" fill="#1a1818"/><path d="M73.395,79.646h.26v-.367l.646-.288v.655h.335v.4H74.3v1.237c0,.174,0,.289.206.289a.412.412,0,0,0,.114-.01v.4a2.615,2.615,0,0,1-.334.023c-.559,0-.633-.371-.633-.513V80.044h-.26Z" transform="translate(-30.545 -32.873)" fill="#1a1818"/><path d="M76.578,80.978c0-.2-.005-.545.293-.545s.3.321.3.545Zm1.237.361c.023-.741-.074-1.3-.943-1.3-.852,0-.943.54-.943,1.172,0,.723.11,1.232.943,1.232a.969.969,0,0,0,.683-.225.82.82,0,0,0,.246-.6h-.654c0,.193-.046.413-.274.413-.284,0-.293-.413-.293-.688Z" transform="translate(-31.599 -33.308)" fill="#1a1818"/><path d="M82.535,82.027c-.238,0-.3-.152-.3-.856,0-.481.023-.724.3-.724s.3.243.3.724c0,.7-.06.856-.3.856m0,.412c.834,0,.943-.509.943-1.231,0-.632-.092-1.172-.943-1.172s-.943.54-.943,1.172c0,.723.109,1.231.943,1.231" transform="translate(-33.956 -33.308)" fill="#1a1818"/><path d="M86.419,78.793c-.261-.018-.316.082-.316.316v.279h.3v.4h-.3V81.7h-.646V79.786h-.288v-.4h.293c0-.664-.059-1.017.728-1.017.078,0,.151,0,.229.009Z" transform="translate(-35.444 -32.615)" fill="#1a1818"/><path d="M90.419,81.733c-.856,0-1.016-.5-.98-1.076h.692c0,.316.013.581.394.581a.33.33,0,0,0,.347-.375c0-.6-1.392-.632-1.392-1.617,0-.517.247-.929,1.09-.929.673,0,1.007.3.961.995H90.86c0-.248-.041-.5-.321-.5a.322.322,0,0,0-.357.353c0,.627,1.392.572,1.392,1.612,0,.856-.628.957-1.154.957" transform="translate(-37.22 -32.593)" fill="#1a1818"/><path d="M93.443,79.646H93.7v-.367l.646-.288v.655h.334v.4H94.35v1.237c0,.174,0,.289.206.289a.41.41,0,0,0,.114-.01v.4a2.606,2.606,0,0,1-.334.023c-.559,0-.632-.371-.632-.513V80.044h-.261Z" transform="translate(-38.888 -32.873)" fill="#1a1818"/><path d="M97.144,81.276c0,.252.06.765-.321.765-.211,0-.238-.2-.238-.367,0-.411.238-.384.559-.4m.632-.468c0-.421-.105-.773-.925-.773a1,1,0,0,0-.6.151.632.632,0,0,0-.238.563h.632c0-.183.019-.352.243-.352s.261.142.261.339v.179c-.6-.009-1.19.023-1.19.788,0,.4.165.737.614.737a.64.64,0,0,0,.6-.353h.009l.028.307h.6c-.014-.142-.032-.288-.032-.431Z" transform="translate(-39.933 -33.308)" fill="#1a1818"/><path d="M100.64,80.315h.009a.573.573,0,0,1,.545-.28.524.524,0,0,1,.577.5v1.855h-.646V80.8c0-.2-.036-.366-.242-.366s-.243.161-.243.366v1.594h-.646V80.081h.646Z" transform="translate(-41.614 -33.308)" fill="#1a1818"/><path d="M104.743,81.364c-.234,0-.274-.243-.274-.824,0-.463,0-.783.274-.783s.262.32.262.783c0,.581-.042.824-.262.824m.907.353V78.41H105v1.214H105a.566.566,0,0,0-.527-.266c-.651,0-.633.718-.633,1.186s-.023,1.218.646,1.218a.551.551,0,0,0,.545-.3h.009v.256Z" transform="translate(-43.213 -32.632)" fill="#1a1818"/><path d="M108.911,81.276c0,.252.06.765-.321.765-.21,0-.238-.2-.238-.367,0-.411.238-.384.559-.4m.632-.468c0-.421-.105-.773-.925-.773a1,1,0,0,0-.6.151.631.631,0,0,0-.238.563h.632c0-.183.018-.352.243-.352s.261.142.261.339v.179c-.6-.009-1.191.023-1.191.788,0,.4.165.737.614.737a.64.64,0,0,0,.6-.353h.009l.027.307h.6c-.014-.142-.032-.288-.032-.431Z" transform="translate(-44.83 -33.308)" fill="#1a1818"/><path d="M112.373,80.081v.3h.009a.586.586,0,0,1,.6-.343v.577c-.568-.036-.577.293-.577.522v1.259h-.646V80.081Z" transform="translate(-46.51 -33.308)" fill="#1a1818"/><path d="M115.2,81.364c-.234,0-.274-.243-.274-.824,0-.463,0-.783.274-.783s.262.32.262.783c0,.581-.042.824-.262.824m.907.353V78.41h-.645v1.214h-.01a.564.564,0,0,0-.526-.266c-.651,0-.632.718-.632,1.186s-.023,1.218.646,1.218a.55.55,0,0,0,.545-.3h.009v.256Z" transform="translate(-47.565 -32.632)" fill="#1a1818"/><path d="M118.7,81.651a.649.649,0,0,0,.033.28c.036.074.105.11.233.11a.226.226,0,0,0,.238-.238c0-.49-1.136-.381-1.136-1.117,0-.5.5-.65.911-.65.439,0,.838.21.8.709h-.632c0-.159-.019-.256-.065-.3a.217.217,0,0,0-.165-.05c-.142,0-.22.091-.22.247,0,.366,1.136.348,1.136,1.091,0,.4-.33.7-.866.7-.563,0-.939-.142-.9-.788Z" transform="translate(-49.137 -33.308)" fill="#1a1818"/><path d="M124.59,81.276c0,.252.059.765-.321.765-.211,0-.238-.2-.238-.367,0-.411.238-.384.559-.4m.632-.468c0-.421-.106-.773-.925-.773a1,1,0,0,0-.6.151.632.632,0,0,0-.238.563h.632c0-.183.018-.352.242-.352s.261.142.261.339v.179c-.6-.009-1.19.023-1.19.788,0,.4.165.737.614.737a.64.64,0,0,0,.6-.353h.009l.028.307h.6c-.014-.142-.032-.288-.032-.431Z" transform="translate(-51.355 -33.308)" fill="#1a1818"/><path d="M128.086,80.315h.009a.573.573,0,0,1,.545-.28.524.524,0,0,1,.577.5v1.855h-.645V80.8c0-.2-.037-.366-.243-.366s-.243.161-.243.366v1.594h-.646V80.081h.646Z" transform="translate(-53.036 -33.308)" fill="#1a1818"/><path d="M132.191,81.364c-.234,0-.274-.243-.274-.824,0-.463,0-.783.274-.783s.262.32.262.783c0,.581-.042.824-.262.824m.907.353V78.41h-.645v1.214h-.009a.566.566,0,0,0-.527-.266c-.651,0-.632.718-.632,1.186s-.023,1.218.646,1.218a.55.55,0,0,0,.545-.3h.009v.256Z" transform="translate(-54.636 -32.632)" fill="#1a1818"/><path d="M137.915,81.733c-.856,0-1.016-.5-.98-1.076h.692c0,.316.013.581.394.581a.33.33,0,0,0,.347-.375c0-.6-1.392-.632-1.392-1.617,0-.517.247-.929,1.09-.929.673,0,1.007.3.961.995h-.673c0-.248-.041-.5-.321-.5a.322.322,0,0,0-.357.353c0,.627,1.392.572,1.392,1.612,0,.856-.628.957-1.154.957" transform="translate(-56.986 -32.593)" fill="#1a1818"/><path d="M142.368,80.9c0-.344-.087-.458-.288-.458-.275,0-.3.243-.3.724,0,.7.06.856.3.856.2,0,.3-.184.3-.486h.645c0,.627-.339.9-.943.9-.834,0-.943-.509-.943-1.231,0-.632.092-1.172.943-1.172.595,0,.934.266.934.87Z" transform="translate(-58.736 -33.308)" fill="#1a1818"/><path d="M145.735,81.717h-.646V79.4h.646Zm0-2.8h-.646V78.41h.646Z" transform="translate(-60.381 -32.632)" fill="#1a1818"/><path d="M147.575,80.978c0-.2,0-.545.293-.545s.3.321.3.545Zm1.236.361c.023-.741-.073-1.3-.943-1.3-.852,0-.944.54-.944,1.172,0,.723.11,1.232.944,1.232a.969.969,0,0,0,.682-.225.823.823,0,0,0,.247-.6h-.655c0,.193-.046.413-.274.413-.284,0-.293-.413-.293-.688Z" transform="translate(-61.145 -33.308)" fill="#1a1818"/><path d="M151.587,80.315h.009a.573.573,0,0,1,.545-.28.524.524,0,0,1,.577.5v1.855h-.645V80.8c0-.2-.037-.366-.243-.366s-.243.161-.243.366v1.594h-.645V80.081h.645Z" transform="translate(-62.817 -33.308)" fill="#1a1818"/><path d="M156,80.9c0-.344-.087-.458-.288-.458-.275,0-.3.243-.3.724,0,.7.06.856.3.856.2,0,.3-.184.3-.486h.646c0,.627-.339.9-.943.9-.834,0-.943-.509-.943-1.231,0-.632.092-1.172.943-1.172.595,0,.934.266.934.87Z" transform="translate(-64.41 -33.308)" fill="#1a1818"/><path d="M159.185,80.978c0-.2-.005-.545.293-.545s.3.321.3.545Zm1.236.361c.023-.741-.073-1.3-.943-1.3-.852,0-.943.54-.943,1.172,0,.723.11,1.232.943,1.232a.967.967,0,0,0,.682-.225.821.821,0,0,0,.248-.6h-.655c0,.193-.046.413-.274.413-.284,0-.293-.413-.293-.688Z" transform="translate(-65.977 -33.308)" fill="#1a1818"/><path d="M102.976,37.551A23.682,23.682,0,0,1,93.763,35.7v3.556a25.9,25.9,0,0,0,18.058.138V35.848a23.692,23.692,0,0,1-8.845,1.7" transform="translate(-39.021 -14.856)" fill="#f16112"/><path d="M20.142,28.855,12.708,19.7l8.209-8.558H15.248L7.377,19.572V11.146H1.113V30.089H7.377v-8.33l4.6,6.321c.933,1.239,2.207,2.007,4.58,2.007h5.11a5.223,5.223,0,0,1-1.524-1.231" transform="translate(-0.463 -4.639)" fill="#414b4a"/><rect width="6.264" height="18.942" transform="translate(44.97 6.508)" fill="#414b4a"/><path d="M57.7,28.085l-5.448-6.373c2.115-.3,5.27-2,5.27-5.089,0-2.443-1.521-5.477-8.842-5.477H39.5V30.089h6.265V22.147l4.5,6.027a4.463,4.463,0,0,0,4,1.915h5.572a6.861,6.861,0,0,1-2.141-2m-6.784-11c-.095,1.827-2.746,3.046-5.149,3.046V14.295h2.024c2.138,0,3.223,1.261,3.126,2.793" transform="translate(-16.44 -4.639)" fill="#414b4a"/><path d="M147.291,12.348a23.947,23.947,0,0,0-7.516-1.2c-5.184,0-9.66,1.991-9.66,5.241,0,6.506,12.113,6.408,12.113,9.576,0,.984-1.534,1.427-3.864,1.427a12.956,12.956,0,0,1-7.829-2.788v4.251a17.553,17.553,0,0,0,8.134,1.787c6.664,0,10.163-2.842,10.163-5.95,0-6.415-11.89-6.654-11.89-9.132,0-.862,1.192-1.372,3.5-1.372a12.857,12.857,0,0,1,6.844,2Z" transform="translate(-54.15 -4.639)" fill="#414b4a"/><path d="M110.217,1.2A23.949,23.949,0,0,0,102.7,0c-5.184,0-9.661,1.991-9.661,5.241,0,6.506,12.114,6.409,12.114,9.576,0,.984-1.533,1.427-3.863,1.427a12.955,12.955,0,0,1-7.829-2.788v4.252a17.57,17.57,0,0,0,8.134,1.786c6.665,0,10.163-2.842,10.163-5.95,0-6.415-11.889-6.654-11.889-9.132,0-.862,1.192-1.372,3.5-1.372a12.861,12.861,0,0,1,6.844,2Z" transform="translate(-38.72)" fill="#414b4a"/></g></g></g></g></svg>