<svg xmlns="http://www.w3.org/2000/svg" xmlns:xlink="http://www.w3.org/1999/xlink" width="257" height="87" viewBox="0 0 257 87"><defs><clipPath id="a"><rect width="257" height="87" transform="translate(1471 508)" fill="#ffaeae"/></clipPath><clipPath id="b"><rect width="233.469" height="64.448" fill="none"/></clipPath><clipPath id="c"><path d="M0,59.174c0,6.758,12.9,12.65,32,15.751C16.044,71.752,5.582,66.433,5.582,60.407c0-9.724,27.246-17.6,60.865-17.6,25.991,0,48.17,4.713,56.9,11.348-7.577-7.543-31.768-13.056-60.441-13.056C28.163,41.094,0,49.187,0,59.174" transform="translate(0 -41.094)" fill="none"/></clipPath><radialGradient id="d" cx="0.5" cy="0.5" r="1.336" gradientTransform="matrix(0.274, 0, 0, -1.002, 0, 3.57)" gradientUnits="objectBoundingBox"><stop offset="0" stop-color="#ffb500"/><stop offset="1" stop-color="#e95600"/></radialGradient><clipPath id="e"><path d="M48.717,27.492C34.843,42.934,28.633,57.94,32.644,64.448c-2.631-6.742,3.4-20.4,16.013-34.438C64.551,12.326,84.863.75,94.04,4.154c7.282,2.7,5.354,14.025-3.7,27.417C101.2,16.6,103.913,3.587,95.9.617A10.977,10.977,0,0,0,92.081,0C81.455,0,63.3,11.278,48.717,27.492" transform="translate(-31.443)" fill="none"/></clipPath><radialGradient id="f" cx="0.496" cy="0.5" r="0.429" gradientTransform="matrix(1.333, 0, 0, -1, 0.123, 2)" gradientUnits="objectBoundingBox"><stop offset="0" stop-color="#61c3f2"/><stop offset="1" stop-color="#0083d2"/></radialGradient><clipPath id="g"><path d="M15.071,23c-3.717,6.427,3.612,18.144,17.56,30.156C21.508,42.342,16.065,32.21,19.5,26.426c5.623-9.464,32.915-3.634,60.959,13.019,16.132,9.587,28.988,20.652,35.939,30.148C110.2,59.345,95.667,46.5,76.852,35.636,57.665,24.555,38.9,18.36,26.964,18.36c-5.864,0-10.08,1.494-11.893,4.638" transform="translate(-14.111 -18.36)" fill="none"/></clipPath><radialGradient id="h" cx="0.513" cy="0.513" r="0.768" gradientTransform="matrix(0.501, 0, 0, -1, -0.052, 3.186)" gradientUnits="objectBoundingBox"><stop offset="0" stop-color="#c5ce00"/><stop offset="0.451" stop-color="#8fb90f"/><stop offset="0.809" stop-color="#6aac1a"/><stop offset="1" stop-color="#5da71e"/></radialGradient><clipPath id="j"><path d="M61.956,21.351a4.012,4.012,0,1,0,4.012-4.016,4.013,4.013,0,0,0-4.012,4.016" transform="translate(-61.956 -17.335)" fill="none"/></clipPath><radialGradient id="k" cx="0.5" cy="0.5" r="0.5" gradientTransform="translate(-15.027 20.791) rotate(180)" gradientUnits="objectBoundingBox"><stop offset="0" stop-color="#e9e9e9"/><stop offset="1" stop-color="#ababac"/></radialGradient><clipPath id="l"><path d="M100.411,54.255a3.876,3.876,0,1,0,3.876-3.882,3.872,3.872,0,0,0-3.876,3.882" transform="translate(-100.411 -50.373)" fill="none"/></clipPath><radialGradient id="m" r="0.5" gradientTransform="matrix(1.001, 0, 0, -1, 0.011, 13.226)" xlink:href="#k"/><clipPath id="n"><path d="M12.307,70.856a3.877,3.877,0,1,0,3.876-3.875,3.879,3.879,0,0,0-3.876,3.875" transform="translate(-12.307 -66.981)" fill="none"/></clipPath><radialGradient id="o" r="0.5" gradientTransform="matrix(1.001, 0, 0, -1, 0.002, 9.059)" xlink:href="#k"/></defs><g transform="translate(-1471 -508)"><g clip-path="url(#a)"><g transform="translate(1483 519)"><g transform="translate(0 0)"><g clip-path="url(#b)"><path d="M157.888,41.586V38.662c-.371-.793-1.569-1.046-2.129-1.126h-.054V48.188h2.182V43.519h2.2V41.586Z" transform="translate(-58.393 -14.077)" fill="#4a4848"/><path d="M135.52,41.975a3.761,3.761,0,0,0,1.417,3.015,5.055,5.055,0,0,0,6.388,0,3.756,3.756,0,0,0,1.4-3.015,2.926,2.926,0,0,0-.336-1.359,3.452,3.452,0,0,0-.82-1.077H145.3v-1.9h-4v-.364c-.4-.86-1.762-1.091-2.248-1.142h-.1v1.506h-4.075v1.9h1.7a3.667,3.667,0,0,0-.787,1.1,3.239,3.239,0,0,0-.279,1.339m2.913-1.643a2.447,2.447,0,0,1,1.68-.637,2.49,2.49,0,0,1,1.684.637,2.052,2.052,0,0,1,0,3.228,2.464,2.464,0,0,1-1.684.674,2.376,2.376,0,0,1-1.68-.674,2.188,2.188,0,0,1,0-3.228" transform="translate(-50.584 -13.551)" fill="#4a4848"/><path d="M139.04,55.066c-.411-.8-1.666-1.039-2.181-1.1v4.025a1.477,1.477,0,0,0,.334,1.08,1.258,1.258,0,0,0,.952.316h12.8V57.469H139.04Z" transform="translate(-51.325 -20.238)" fill="#4a4848"/><path d="M181.431,44.784V42.846h-.8V37.513H165.962v1.913H178.45v3.42H165.4v1.938h6.852v2.531h-6.289v1.916H178.45V53.3h2.184V47.316h-6.242V44.784Z" transform="translate(-62.028 -14.068)" fill="#4a4848"/><path d="M200.176,57.117V54.1a2.6,2.6,0,0,0-1.858-1.056h-.287v4.574a1.506,1.506,0,0,0,.336,1.095,1.314,1.314,0,0,0,.971.318h12.78V57.117Z" transform="translate(-74.266 -19.894)" fill="#4a4848"/><path d="M201.148,48.57h2.161V44.895h3.773V43h-2.536a3.3,3.3,0,0,0,1.341-2.678,3.644,3.644,0,0,0-1.4-2.931,4.63,4.63,0,0,0-3.045-1.063,4.919,4.919,0,0,0-3.176,1.063,3.6,3.6,0,0,0-1.421,2.931A3.284,3.284,0,0,0,198.2,43h-2.182v1.9h5.13Zm-1.515-9.844a2.471,2.471,0,0,1,1.72-.671,2.336,2.336,0,0,1,1.657.671,2.095,2.095,0,0,1,0,3.151,2.3,2.3,0,0,1-1.657.689,2.428,2.428,0,0,1-1.72-.689,2.145,2.145,0,0,1,0-3.151" transform="translate(-73.511 -13.623)" fill="#4a4848"/><path d="M210.936,48.554h3.717V49.9h2.182V38.521a3.334,3.334,0,0,0-2.182-.952v9.086h-3.717Z" transform="translate(-79.105 -14.089)" fill="#4a4848"/><path d="M353.163,57.117V54.1a2.587,2.587,0,0,0-1.852-1.056h-.288v4.574a1.5,1.5,0,0,0,.336,1.095,1.312,1.312,0,0,0,.966.318h12.786V57.117Z" transform="translate(-131.64 -19.894)" fill="#4a4848"/><path d="M354.134,48.57H356.3V44.895h3.766V43h-2.535a3.292,3.292,0,0,0,1.343-2.678,3.64,3.64,0,0,0-1.4-2.931,4.634,4.634,0,0,0-3.046-1.063,4.917,4.917,0,0,0-3.174,1.063,3.583,3.583,0,0,0-1.421,2.931A3.28,3.28,0,0,0,351.188,43H349v1.9h5.13Zm-1.513-9.844a2.466,2.466,0,0,1,1.718-.671,2.338,2.338,0,0,1,1.659.671,2.1,2.1,0,0,1,0,3.151,2.3,2.3,0,0,1-1.659.689,2.422,2.422,0,0,1-1.718-.689,2.14,2.14,0,0,1,0-3.151" transform="translate(-130.883 -13.623)" fill="#4a4848"/><path d="M363.932,48.554h3.709V49.9h2.186V38.521a3.329,3.329,0,0,0-2.186-.952v9.086h-3.709Z" transform="translate(-136.482 -14.089)" fill="#4a4848"/><path d="M266.676,45.484V43.589h-6.428V42.438h6.428V37.514h-8.613v1.9h6.425V40.56h-6.425v3.472a1.637,1.637,0,0,0,.337,1.141,1.283,1.283,0,0,0,.956.311Z" transform="translate(-96.779 -14.069)" fill="#4a4848"/><path d="M276.5,37.581v1.4h-2.556v1.895H276.5V42.13h-2.556v1.9H276.5v1.9h2.184v-7.34a3.135,3.135,0,0,0-2.184-1.007" transform="translate(-102.736 -14.094)" fill="#4a4848"/><path d="M259.19,54.756h11.778v4.291h2.184V52.84H259.19Z" transform="translate(-97.201 -19.816)" fill="#4a4848"/><path d="M306.913,48.183H309.1v-9.6a3.229,3.229,0,0,0-2.186-.987v1.7h-2.836v1.9h2.836v1.444h-2.836v1.892h2.836Z" transform="translate(-114.035 -14.1)" fill="#4a4848"/><path d="M291.952,57.419V55.013a2.788,2.788,0,0,0-2.042-1.161h-.141v4.085a1.473,1.473,0,0,0,.336,1.081,1.25,1.25,0,0,0,.947.318H303.86V57.419Z" transform="translate(-108.67 -20.196)" fill="#4a4848"/><path d="M292.279,45.391a5.054,5.054,0,0,0,3.363-1.211,4.3,4.3,0,0,0,0-6.579,5.06,5.06,0,0,0-3.363-1.214,5.144,5.144,0,0,0-3.421,1.214,4.143,4.143,0,0,0-1.529,3.309,4.064,4.064,0,0,0,1.529,3.269,5.1,5.1,0,0,0,3.421,1.211m-1.886-6.27a2.815,2.815,0,0,1,1.886-.714,2.65,2.65,0,0,1,1.791.714,2.317,2.317,0,0,1,.839,1.791,2.242,2.242,0,0,1-.839,1.751,2.646,2.646,0,0,1-1.791.711,2.812,2.812,0,0,1-1.886-.711,2.24,2.24,0,0,1-.839-1.751,2.275,2.275,0,0,1,.839-1.791" transform="translate(-107.754 -13.646)" fill="#4a4848"/><path d="M333.569,44.8V37.513H318.9v1.9h12.485V44.8H318.34v1.937h6.682v6.627h2.163V46.739h7.185V44.8Z" transform="translate(-119.384 -14.068)" fill="#4a4848"/><path d="M234.288,45.515a13.945,13.945,0,0,1-1.084-6.089h3.7V37.514h-9.632v1.912h3.677a14.111,14.111,0,0,1-1.1,6.068,3.923,3.923,0,0,1-2.82,2.276v2.186a5.633,5.633,0,0,0,2.76-1.179,7.844,7.844,0,0,0,2.3-3.15,7.913,7.913,0,0,0,2.127,3.15,5.563,5.563,0,0,0,2.952,1.2V47.753a3.894,3.894,0,0,1-2.875-2.238" transform="translate(-85.14 -14.069)" fill="#4a4848"/><path d="M249.632,43.163V39a2.5,2.5,0,0,0-2.186-1.423V53.327h2.186V45.078h2.2V43.163Z" transform="translate(-92.797 -14.094)" fill="#4a4848"/><path d="M137.408,68.837h1.067v2.711h.024c.142-.228.29-.437.431-.637l1.537-2.074h1.327l-2.027,2.507,2.159,3.382h-1.259L139,72.027l-.524.629v2.071h-1.067Z" transform="translate(-51.531 -25.815)" fill="#4a4848"/><path d="M149.233,73.484a2.108,2.108,0,0,1-2.182,2.263,2.056,2.056,0,0,1-2.131-2.192,2.1,2.1,0,0,1,2.2-2.256,2.041,2.041,0,0,1,2.111,2.185m-3.2.043c0,.822.4,1.44,1.056,1.44.613,0,1.041-.6,1.041-1.459,0-.664-.3-1.422-1.031-1.422-.761,0-1.066.734-1.066,1.441" transform="translate(-54.348 -26.739)" fill="#4a4848"/><path d="M153.214,72.768c0-.577-.007-.987-.036-1.371h.936l.034.811h.034a1.274,1.274,0,0,1,1.162-.909,1.132,1.132,0,0,1,.254.024v1.014a1.784,1.784,0,0,0-.316-.035.944.944,0,0,0-.959.814,1.674,1.674,0,0,0-.035.332v2.2h-1.076Z" transform="translate(-57.445 -26.739)" fill="#4a4848"/><path d="M158.683,73.824a1.156,1.156,0,0,0,1.311,1.1,3.16,3.16,0,0,0,1.176-.192l.157.741a3.91,3.91,0,0,1-1.483.273,2.019,2.019,0,0,1-2.192-2.157,2.108,2.108,0,0,1,2.079-2.291,1.844,1.844,0,0,1,1.834,2.069,2.41,2.41,0,0,1-.036.455Zm1.871-.752a.916.916,0,0,0-.885-1.038,1.05,1.05,0,0,0-.986,1.038Z" transform="translate(-59.123 -26.739)" fill="#4a4848"/><path d="M168.422,74.628a6.8,6.8,0,0,0,.061,1.022h-.969l-.069-.473h-.028a1.583,1.583,0,0,1-1.257.57,1.264,1.264,0,0,1-1.337-1.269c0-1.074.952-1.616,2.524-1.606V72.8c0-.28-.114-.746-.863-.746a2.235,2.235,0,0,0-1.146.319l-.21-.7a3.076,3.076,0,0,1,1.539-.377,1.591,1.591,0,0,1,1.754,1.79Zm-1.048-1.056c-.761-.017-1.486.146-1.486.794a.565.565,0,0,0,.613.612.867.867,0,0,0,.837-.587.763.763,0,0,0,.036-.234Z" transform="translate(-61.812 -26.739)" fill="#4a4848"/><path d="M176.281,73.058l-.509,1.668h-1.107l1.886-5.889h1.374l1.91,5.889h-1.152l-.533-1.668Zm1.685-.811L177.5,70.8c-.117-.361-.209-.759-.3-1.1h-.016c-.089.342-.176.752-.28,1.1l-.455,1.451Z" transform="translate(-65.503 -25.815)" fill="#4a4848"/><path d="M184.95,69.71V70.8h1.02v.8h-1.02v1.877c0,.515.136.784.548.784a1.352,1.352,0,0,0,.42-.052l.017.821a2.255,2.255,0,0,1-.776.116,1.236,1.236,0,0,1-.926-.36A1.7,1.7,0,0,1,183.9,73.6v-2h-.612v-.8h.612v-.787Z" transform="translate(-68.737 -26.143)" fill="#4a4848"/><path d="M192.68,73.484a2.108,2.108,0,0,1-2.181,2.263,2.057,2.057,0,0,1-2.132-2.192,2.1,2.1,0,0,1,2.2-2.256,2.042,2.042,0,0,1,2.116,2.185m-3.207.043c0,.822.4,1.44,1.057,1.44.611,0,1.038-.6,1.038-1.459,0-.664-.3-1.422-1.028-1.422-.763,0-1.067.734-1.067,1.441" transform="translate(-70.641 -26.739)" fill="#4a4848"/><path d="M196.657,72.663c0-.489-.007-.9-.036-1.266h.932l.042.626h.028a1.467,1.467,0,0,1,1.307-.724,1.224,1.224,0,0,1,1.178.787h.018a1.532,1.532,0,0,1,.524-.532,1.405,1.405,0,0,1,.857-.255c.706,0,1.423.482,1.423,1.843v2.507h-1.05V73.3c0-.706-.243-1.125-.759-1.125a.82.82,0,0,0-.752.566,1.448,1.448,0,0,0-.052.359v2.55h-1.044V73.188c0-.595-.239-1.014-.734-1.014a.833.833,0,0,0-.771.612.89.89,0,0,0-.062.349v2.514h-1.05Z" transform="translate(-73.737 -26.739)" fill="#4a4848"/><path d="M209.64,69.2a.6.6,0,1,1-.6-.584.571.571,0,0,1,.6.584M208.5,70.391h1.082v4.253H208.5Z" transform="translate(-78.167 -25.733)" fill="#4a4848"/><path d="M215.081,75.521a3.1,3.1,0,0,1-1.207.227,2.05,2.05,0,0,1-2.194-2.175,2.2,2.2,0,0,1,2.364-2.272,2.635,2.635,0,0,1,1.044.2l-.194.8a1.9,1.9,0,0,0-.811-.165,1.378,1.378,0,0,0,0,2.752,2.142,2.142,0,0,0,.846-.165Z" transform="translate(-79.384 -26.739)" fill="#4a4848"/><path d="M224.643,72.114h-2.217v1.732h2.479v.881h-3.557V68.837h3.425v.884h-2.347v1.521h2.217Z" transform="translate(-83.01 -25.815)" fill="#4a4848"/><path d="M228.462,72.663c0-.489-.011-.9-.036-1.266h.945l.049.636h.029A1.534,1.534,0,0,1,230.8,71.3c.745,0,1.511.482,1.511,1.826v2.524h-1.074v-2.4c0-.612-.228-1.073-.811-1.073a.9.9,0,0,0-.839.629,1.1,1.1,0,0,0-.042.35v2.5h-1.085Z" transform="translate(-85.664 -26.739)" fill="#4a4848"/><path d="M237.074,73.824a1.155,1.155,0,0,0,1.31,1.1,3.182,3.182,0,0,0,1.179-.192l.159.741a3.94,3.94,0,0,1-1.487.273,2.018,2.018,0,0,1-2.192-2.157,2.108,2.108,0,0,1,2.081-2.291,1.843,1.843,0,0,1,1.832,2.069,2.6,2.6,0,0,1-.035.455Zm1.868-.752a.913.913,0,0,0-.881-1.038,1.047,1.047,0,0,0-.987,1.038Z" transform="translate(-88.521 -26.739)" fill="#4a4848"/><path d="M243.669,72.768c0-.577-.01-.987-.034-1.371h.931l.035.811h.035A1.276,1.276,0,0,1,245.8,71.3a1.155,1.155,0,0,1,.254.024v1.014a1.831,1.831,0,0,0-.312-.035.946.946,0,0,0-.963.814,1.83,1.83,0,0,0-.035.332v2.2h-1.074Z" transform="translate(-91.368 -26.739)" fill="#4a4848"/><path d="M252.24,75.03a2.047,2.047,0,0,1-2.268,2.444,2.991,2.991,0,0,1-1.484-.34l.236-.814a2.518,2.518,0,0,0,1.241.325,1.13,1.13,0,0,0,1.221-1.283V75h-.017a1.441,1.441,0,0,1-1.237.629,1.889,1.889,0,0,1-1.813-2.08,2.037,2.037,0,0,1,1.934-2.246,1.341,1.341,0,0,1,1.231.665h.017l.041-.567h.933c-.014.286-.034.636-.034,1.221ZM251.168,73.1a.993.993,0,0,0-.035-.29.891.891,0,0,0-.87-.689c-.606,0-1.05.524-1.05,1.387,0,.728.367,1.312,1.039,1.312a.92.92,0,0,0,.874-.647,2.012,2.012,0,0,0,.042-.385Z" transform="translate(-93.049 -26.739)" fill="#4a4848"/><path d="M256.932,71.456l.767,2.279c.09.264.177.585.236.829h.029c.068-.244.148-.559.224-.839l.665-2.269H260l-1.065,2.9a6.341,6.341,0,0,1-1.487,2.735,2.146,2.146,0,0,1-1.127.552l-.244-.912a1.8,1.8,0,0,0,.629-.3,1.838,1.838,0,0,0,.588-.672.433.433,0,0,0,.066-.192.455.455,0,0,0-.058-.21l-1.557-3.9Z" transform="translate(-95.911 -26.797)" fill="#4a4848"/><path d="M266.508,68.892a10.36,10.36,0,0,1,1.631-.122,2.722,2.722,0,0,1,1.816.472,1.482,1.482,0,0,1,.506,1.179,1.562,1.562,0,0,1-1.066,1.475v.028a1.5,1.5,0,0,1,.822,1.137,12.416,12.416,0,0,0,.461,1.641h-1.109a8.113,8.113,0,0,1-.391-1.389c-.167-.77-.448-1.014-1.057-1.032h-.542V74.7h-1.071Zm1.071,2.606h.637c.726,0,1.179-.389,1.179-.972,0-.647-.453-.944-1.151-.944a3.173,3.173,0,0,0-.665.052Z" transform="translate(-99.946 -25.79)" fill="#4a4848"/><path d="M275.037,73.824a1.158,1.158,0,0,0,1.312,1.1,3.2,3.2,0,0,0,1.181-.192l.157.741a3.937,3.937,0,0,1-1.487.273,2.018,2.018,0,0,1-2.192-2.157,2.108,2.108,0,0,1,2.077-2.291,1.844,1.844,0,0,1,1.836,2.069,2.546,2.546,0,0,1-.035.455Zm1.874-.752a.917.917,0,0,0-.884-1.038,1.053,1.053,0,0,0-.989,1.038Z" transform="translate(-102.758 -26.739)" fill="#4a4848"/><path d="M281.442,74.664a2.406,2.406,0,0,0,1.093.3c.468,0,.679-.192.679-.472s-.171-.437-.7-.619c-.829-.286-1.176-.741-1.169-1.241a1.423,1.423,0,0,1,1.609-1.336,2.48,2.48,0,0,1,1.127.254l-.209.759a1.909,1.909,0,0,0-.9-.245c-.381,0-.59.181-.59.445s.2.4.742.593c.769.284,1.127.676,1.136,1.306,0,.766-.6,1.335-1.732,1.335a2.755,2.755,0,0,1-1.294-.307Z" transform="translate(-105.467 -26.739)" fill="#4a4848"/><path d="M288.083,73.824a1.152,1.152,0,0,0,1.308,1.1,3.177,3.177,0,0,0,1.178-.192l.157.741a3.91,3.91,0,0,1-1.483.273,2.018,2.018,0,0,1-2.192-2.157,2.108,2.108,0,0,1,2.077-2.291,1.846,1.846,0,0,1,1.837,2.069,2.547,2.547,0,0,1-.035.455Zm1.867-.752a.917.917,0,0,0-.881-1.038,1.047,1.047,0,0,0-.986,1.038Z" transform="translate(-107.65 -26.739)" fill="#4a4848"/><path d="M297.82,74.628a7.194,7.194,0,0,0,.059,1.022h-.967l-.071-.473h-.028a1.571,1.571,0,0,1-1.258.57,1.265,1.265,0,0,1-1.336-1.269c0-1.074.951-1.616,2.524-1.606V72.8c0-.28-.112-.746-.864-.746a2.233,2.233,0,0,0-1.144.319l-.209-.7a3.066,3.066,0,0,1,1.536-.377,1.593,1.593,0,0,1,1.759,1.79Zm-1.05-1.056c-.762-.017-1.485.146-1.485.794a.563.563,0,0,0,.611.612.874.874,0,0,0,.839-.587.709.709,0,0,0,.035-.234Z" transform="translate(-110.338 -26.739)" fill="#4a4848"/><path d="M301.774,72.768c0-.577-.01-.987-.035-1.371h.937l.035.811h.031a1.276,1.276,0,0,1,1.164-.909,1.122,1.122,0,0,1,.252.024v1.014a1.787,1.787,0,0,0-.314-.035.947.947,0,0,0-.96.814,1.885,1.885,0,0,0-.034.332v2.2h-1.076Z" transform="translate(-113.158 -26.739)" fill="#4a4848"/><path d="M309.615,75.521a3.115,3.115,0,0,1-1.207.227,2.05,2.05,0,0,1-2.193-2.175,2.2,2.2,0,0,1,2.364-2.272,2.64,2.64,0,0,1,1.044.2l-.194.8a1.907,1.907,0,0,0-.816-.165,1.378,1.378,0,0,0,0,2.752,2.149,2.149,0,0,0,.851-.165Z" transform="translate(-114.836 -26.739)" fill="#4a4848"/><path d="M312.924,68.332H314v2.536h.021a1.44,1.44,0,0,1,.532-.49,1.457,1.457,0,0,1,.735-.192c.722,0,1.482.482,1.482,1.843v2.507H315.7V72.151c0-.619-.229-1.084-.822-1.084a.889.889,0,0,0-.876.926v2.544h-1.08Z" transform="translate(-117.353 -25.626)" fill="#4a4848"/><rect width="1.076" height="5.889" transform="translate(202.419 43.022)" fill="#4a4848"/><path d="M327.563,72.663c0-.489-.008-.9-.036-1.266h.944l.054.636h.028a1.526,1.526,0,0,1,1.352-.734c.742,0,1.516.482,1.516,1.826v2.524h-1.079v-2.4c0-.612-.228-1.073-.814-1.073a.906.906,0,0,0-.84.629,1.117,1.117,0,0,0-.042.35v2.5h-1.083Z" transform="translate(-122.829 -26.739)" fill="#4a4848"/><path d="M335.37,74.664a2.424,2.424,0,0,0,1.1.3c.468,0,.679-.192.679-.472s-.176-.437-.7-.619c-.826-.286-1.178-.741-1.168-1.241a1.421,1.421,0,0,1,1.6-1.336,2.5,2.5,0,0,1,1.131.254l-.211.759a1.905,1.905,0,0,0-.9-.245c-.384,0-.593.181-.593.445s.2.4.744.593c.766.284,1.126.676,1.132,1.306,0,.766-.6,1.335-1.727,1.335a2.756,2.756,0,0,1-1.293-.307Z" transform="translate(-125.692 -26.739)" fill="#4a4848"/><path d="M342.382,69.71V70.8h1.026v.8h-1.026v1.877c0,.515.141.784.549.784a1.382,1.382,0,0,0,.424-.052l.017.821a2.276,2.276,0,0,1-.779.116,1.244,1.244,0,0,1-.927-.36,1.687,1.687,0,0,1-.332-1.189v-2h-.612v-.8h.612v-.787Z" transform="translate(-127.777 -26.143)" fill="#4a4848"/><path d="M347.424,69.2a.571.571,0,0,1-.614.577.564.564,0,0,1-.593-.577.6.6,0,0,1,1.207,0m-1.144,1.189h1.084v4.253H346.28Z" transform="translate(-129.838 -25.733)" fill="#4a4848"/><path d="M350.87,69.71V70.8H351.9v.8H350.87v1.877c0,.515.142.784.551.784a1.351,1.351,0,0,0,.421-.052l.016.821a2.252,2.252,0,0,1-.776.116,1.234,1.234,0,0,1-.926-.36,1.69,1.69,0,0,1-.332-1.189v-2h-.613v-.8h.613v-.787Z" transform="translate(-130.96 -26.143)" fill="#4a4848"/><path d="M358.6,74.435c0,.5.016.923.034,1.273h-.942l-.053-.647h-.018a1.545,1.545,0,0,1-1.364.744c-.776,0-1.487-.466-1.487-1.854v-2.5h1.079V73.77c0,.706.222,1.161.794,1.161a.9.9,0,0,0,.822-.577.983.983,0,0,0,.062-.332V71.455H358.6Z" transform="translate(-133.047 -26.797)" fill="#4a4848"/><path d="M363.729,69.71V70.8h1.022v.8h-1.022v1.877c0,.515.142.784.554.784a1.331,1.331,0,0,0,.416-.052l.018.821a2.254,2.254,0,0,1-.777.116,1.252,1.252,0,0,1-.928-.36,1.712,1.712,0,0,1-.331-1.189v-2h-.612v-.8h.612v-.787Z" transform="translate(-135.783 -26.143)" fill="#4a4848"/><path d="M368.176,73.824a1.158,1.158,0,0,0,1.312,1.1,3.18,3.18,0,0,0,1.179-.192l.161.741a3.979,3.979,0,0,1-1.491.273,2.019,2.019,0,0,1-2.191-2.157,2.109,2.109,0,0,1,2.081-2.291,1.844,1.844,0,0,1,1.832,2.069,2.227,2.227,0,0,1-.036.455Zm1.871-.752a.916.916,0,0,0-.884-1.038,1.048,1.048,0,0,0-.987,1.038Z" transform="translate(-137.687 -26.739)" fill="#4a4848"/></g></g><g transform="translate(0 18.41)"><g clip-path="url(#c)"><rect width="123.346" height="33.832" transform="translate(0 0)" fill="url(#d)"/></g></g><g transform="translate(30.588)"><g clip-path="url(#e)"><rect width="75.28" height="64.448" transform="translate(-2.811 0)" fill="url(#f)"/></g></g><g transform="translate(13.727 4.809)"><g clip-path="url(#g)"><rect width="105.041" height="52.631" transform="translate(-2.757 -1.398)" fill="url(#h)"/></g></g><g transform="translate(0 0)"><g clip-path="url(#b)"><path d="M49.231,68.311H49.2v4.275H46.652V63.114H49.2v3.839h.026l2.063-3.839H54.12L51.4,67.549l2.919,5.038H51.35Z" transform="translate(-17.495 -23.669)" fill="#1a1311"/><path d="M65.521,70.577H62.737l-.612,2.011H59.683l3.149-9.473h2.811l3.012,9.473H66.025Zm-1.3-5.535h-.027l-1.022,3.717h1.876Z" transform="translate(-22.382 -23.669)" fill="#1a1311"/><path d="M76.123,63.114h5.811v1.871H78.621V66.8h3.151v1.876H78.621V70.71h3.49v1.877H76.123Z" transform="translate(-28.548 -23.669)" fill="#1a1311"/><path d="M92.2,69.9c-.243-.909-.667-1.018-1.07-1.018h-.136v3.707H88.438V63.115h3.789c1.912,0,3,.8,3,2.55a2.156,2.156,0,0,1-1.818,2.171v.039c.542.178.893.437,1.277,1.756l.853,2.957H92.9Zm-.572-2.836a1.02,1.02,0,0,0,1.044-1.021,1,1,0,0,0-1.081-1.108h-.706v2.129Z" transform="translate(-33.166 -23.669)" fill="#1a1311"/><rect width="2.552" height="9.473" transform="translate(63.972 39.445)" fill="#1a1311"/></g></g><g transform="translate(60.27 10.31)"><g clip-path="url(#j)"><rect width="8.024" height="8.027" transform="translate(0 0)" fill="url(#k)"/></g></g><g transform="translate(61.994 30.013)"><g clip-path="url(#l)"><rect width="7.752" height="7.759" transform="translate(0 0)" fill="url(#m)"/></g></g><g transform="translate(11.972 39.908)"><g clip-path="url(#n)"><rect width="7.753" height="7.762" transform="translate(0 0)" fill="url(#o)"/></g></g></g></g></g></svg>