<svg width="110" height="29" viewBox="0 0 110 29" fill="none" xmlns="http://www.w3.org/2000/svg">
<g clip-path="url(#clip0_1_794)">
<path d="M31.5408 13.2014C31.0351 5.8332 24.1635 0 15.7659 0C7.36825 0 0.496634 5.84223 0 13.2105L6.17633 7.43146C6.17633 7.43146 7.38631 5.94155 8.62338 7.36825L10.2397 9.04778L14.3392 4.89411C14.3392 4.89411 15.6395 3.09719 17.4454 4.89411L21.1657 8.86718L22.8452 7.25086C22.8452 7.25086 24.2719 5.69775 25.825 7.25086L31.5408 13.2014Z" fill="#004EA2"/>
<path d="M31.3873 16.1995L24.9492 9.36396C24.2087 8.24428 23.5225 9.30075 23.5225 9.30075L19.3056 13.5176C18.5561 14.3213 17.8789 13.7614 17.8789 13.7614C16.9759 12.8585 17.8789 12.1451 17.8789 12.1451L19.5584 10.4656L16.5786 6.98915C15.9285 6.33901 15.3415 6.98915 15.3415 6.98915L9.31872 13.012C8.01844 14.3122 7.39539 13.5086 7.39539 13.5086C6.49242 12.6056 7.58502 11.7749 7.58502 11.7749L8.64149 10.6552L7.90106 9.66194C7.40442 9.16531 6.971 9.66194 6.971 9.66194L0.144531 16.1814C1.10168 21.8791 5.90549 26.4662 12.127 27.7665C12.3437 24.579 11.5039 22.2313 10.935 21.0484C10.303 21.1748 9.53544 20.8949 8.97559 20.2628C8.2171 19.405 8.13583 18.2311 8.80403 17.6352C9.47223 17.0392 10.628 17.2559 11.3956 18.1138C12.0005 18.8 12.1721 19.6759 11.8741 20.308C12.5243 21.5631 13.5627 24.2359 13.2828 27.9652C13.8607 28.0464 14.4476 28.1006 15.0436 28.1277V19.6127C14.4837 19.2876 14.0774 18.4569 14.0774 17.4817C14.0774 16.2175 14.7456 15.1972 15.5673 15.1972C16.389 15.1972 17.0572 16.2175 17.0572 17.4817C17.0572 18.4569 16.6599 19.2876 16.091 19.6127V28.1367C16.5876 28.1367 17.0843 28.1006 17.5719 28.0464C17.2649 24.272 18.3214 21.5721 18.9715 20.308C18.6825 19.6759 18.8451 18.8 19.4501 18.1138C20.2086 17.2559 21.3734 17.0392 22.0326 17.6352C22.7008 18.2311 22.6195 19.405 21.861 20.2628C21.3012 20.8859 20.5427 21.1658 19.9016 21.0484C19.3237 22.2494 18.4658 24.6422 18.7187 27.902C25.2652 26.8003 30.376 22.0959 31.3783 16.1995H31.3873Z" fill="#009944"/>
<path d="M17.0572 17.4906C17.0572 16.2264 16.389 15.2061 15.5673 15.2061C14.7456 15.2061 14.0774 16.2264 14.0774 17.4906C14.0774 18.4658 14.4747 19.2965 15.0436 19.6216V28.1366C15.2874 28.1456 15.5312 28.1547 15.775 28.1547C15.8833 28.1547 15.9917 28.1547 16.1 28.1547V19.6306C16.6599 19.3055 17.0662 18.4748 17.0662 17.4996L17.0572 17.4906Z" fill="white"/>
<path d="M11.8741 20.3172C12.1631 19.6851 12.0005 18.8092 11.3955 18.123C10.628 17.2651 9.47221 17.0484 8.80401 17.6444C8.13581 18.2403 8.21708 19.4142 8.97557 20.272C9.53542 20.8951 10.3029 21.175 10.935 21.0576C11.5039 22.2405 12.3437 24.5882 12.1269 27.7757C12.5062 27.857 12.8854 27.9202 13.2827 27.9744C13.5717 24.2451 12.5243 21.5723 11.8741 20.3172Z" fill="white"/>
<path d="M19.9106 21.0483C20.5427 21.1748 21.3102 20.8948 21.8701 20.2628C22.6376 19.4049 22.7098 18.2311 22.0416 17.6351C21.3734 17.0391 20.2176 17.2559 19.4591 18.1137C18.8541 18.7999 18.6826 19.6758 18.9805 20.3079C18.3304 21.5721 17.2739 24.2719 17.5809 28.0464C17.9692 28.0103 18.3575 27.9561 18.7367 27.8929C18.4839 24.6422 19.3417 22.2403 19.9196 21.0393L19.9106 21.0483Z" fill="white"/>
<path d="M108.971 13.1385V3.92822H89.6199V6.77258H105.657V13.1385H89.1594V15.9739H97.5932V24.7417H100.907V15.9739H110V13.1385H108.971Z" fill="#231815"/>
<path d="M66.1066 18.6376H80.7979V24.7507H84.1209V15.7661L66.1066 15.7842V18.6376Z" fill="#231815"/>
<path d="M84.0216 3.99121H80.7076V14.0232H84.0216V10.4745H86.8208V7.63019H84.0216V3.99121Z" fill="#231815"/>
<path d="M59.1176 4.02755H55.8037V12.371H52.3814V3.92822H40.0558V6.77258H49.0675V12.371H45.889V9.11128H42.5661V12.371H39.2341V15.2244H55.8037V19.3961H59.1176V10.4748H62.0251V7.63041H59.1176V4.02755Z" fill="#231815"/>
<path d="M44.4172 17.2471H41.0942V23.613C41.0942 24.5973 42.0785 24.4799 42.0785 24.4799H59.551V21.6716H44.4081V17.2471H44.4172Z" fill="#231815"/>
<path d="M70.3144 14.8089C73.5921 14.8089 76.2469 12.1542 76.2469 8.87637C76.2469 5.59858 73.5921 2.94385 70.3144 2.94385C67.0366 2.94385 64.3818 5.59858 64.3818 8.87637C64.3818 12.1542 67.0366 14.8089 70.3144 14.8089ZM70.3144 6.12231C71.8314 6.12231 73.0684 7.35938 73.0684 8.87637C73.0684 10.3934 71.8404 11.6304 70.3144 11.6304C68.7883 11.6304 67.5603 10.4024 67.5603 8.87637C67.5603 7.35035 68.7974 6.12231 70.3144 6.12231Z" fill="#231815"/>
</g>
<defs>
<clipPath id="clip0_1_794">
<rect width="110" height="28.1456" fill="white"/>
</clipPath>
</defs>
</svg>
