<svg xmlns="http://www.w3.org/2000/svg" xmlns:xlink="http://www.w3.org/1999/xlink" width="257" height="87" viewBox="0 0 257 87"><defs><clipPath id="a"><rect width="257" height="87" transform="translate(1114 168)" fill="#ffaeae"/></clipPath><clipPath id="b"><rect width="216.313" height="58" fill="none"/></clipPath></defs><g transform="translate(-1114 -168)"><g clip-path="url(#a)"><g transform="translate(1134 182.999)"><g transform="translate(0 0.001)" clip-path="url(#b)"><path d="M47.027,27.9c-1.1-2.158-3.2-6.536-3.2-11.014,0-6.406,5.442-8.749,7.159-9.625L50.88,0c-3.755,2.238-9.69,6.3-9.826,15.534-.085,5.849,3.034,10.456,5.3,14.074H47.99c-.357-.589-.685-1.159-.963-1.705" transform="translate(-5.603 0)" fill="#d9000d"/><path d="M46.838,34.585c1.1,2.157,3.2,6.536,3.2,11.014,0,6.406-5.442,8.749-7.159,9.625l.107,7.264c3.756-2.238,9.69-6.3,9.826-15.534.085-5.849-3.034-10.456-5.3-14.075H45.875c.357.589.685,1.16.963,1.706" transform="translate(-5.852 -4.488)" fill="#0057aa"/><path d="M49.944,33.154a2.72,2.72,0,1,1-2.72-2.72,2.721,2.721,0,0,1,2.72,2.72" transform="translate(-6.074 -4.154)" fill="#1a1311"/><rect width="5.362" height="23.383" transform="translate(49.468 17.431)" fill="#1a1311"/><path d="M31.128,23.1c-.989-3.16-5.238-3.254-5.238-3.254-4.315.033-5.456,3.212-5.456,3.212L15.543,38.43l-4.767-6.656L19.13,20.109h-6.2L6.919,28.722a.888.888,0,0,1-1.095.374A1.034,1.034,0,0,1,5.14,28.2l-.008-8.093H0V43.554H5.132l.008-8.209a1.034,1.034,0,0,1,.685-.895.887.887,0,0,1,1.095.375l6.093,8.729h6.2l-.016-.022h.095L24.967,25.7a1.036,1.036,0,0,1,.923-.647.889.889,0,0,1,.931.689l5.553,17.813h5.4Z" transform="translate(0 -2.709)" fill="#1a1311"/><path d="M77.063,41.565h1.231v6.769H77.063Zm3.211,0h1.411l-2.02,3.168,2.3,3.6H80.493l-2.109-3.579Z" transform="translate(-10.518 -5.673)" fill="#1a1311"/><path d="M84.725,44.42c.723,0,1.1.651,1.1,1.642s-.373,1.654-1.1,1.654-1.1-.659-1.1-1.654.373-1.642,1.1-1.642m0-.994c-1.42,0-2.232,1.094-2.232,2.647s.813,2.638,2.232,2.638,2.233-1.093,2.233-2.638-.812-2.647-2.233-2.647" transform="translate(-11.259 -5.927)" fill="#1a1311"/><path d="M89.157,44.2l.014.02a1.144,1.144,0,0,1,1.048-.791,1.347,1.347,0,0,1,.35.05l.1,1.167a1.562,1.562,0,0,0-.461-.082c-.585,0-.991.447-.991,1.472v2.555H88.077V43.547h1.08Z" transform="translate(-12.021 -5.927)" fill="#1a1311"/><path d="M91.875,45.466c.043-.66.376-1.179.959-1.179.625,0,.886.457.886,1.179ZM94.5,47.453a3.6,3.6,0,0,1-1.332.325,1.3,1.3,0,0,1-1.292-1.471v-.161H94.8v-.4c0-1.635-.87-2.324-1.967-2.324-1.4,0-2.094,1.105-2.094,2.647s.812,2.639,2.233,2.639a5,5,0,0,0,1.42-.192Z" transform="translate(-12.384 -5.927)" fill="#1a1311"/><path d="M98.36,45.98c-.392.44-1.736.418-1.736,1.312,0,.486.381.61.7.61a1.571,1.571,0,0,0,.639-.154l-.178.873c-.249.031-.6.091-.745.091a1.358,1.358,0,0,1-1.5-1.5c0-1.948,2.76-1.358,2.76-2.354,0-.549-.447-.62-.746-.62a3.588,3.588,0,0,0-1.566.427l.089-.945a6.007,6.007,0,0,1,1.745-.294c.712,0,1.615.212,1.615,1.368v3.8H98.36Z" transform="translate(-13.04 -5.927)" fill="#1a1311"/><path d="M104.7,44.9l.8-2.262.7,2.262Zm-2.469,3.439h1.333l.813-2.361h2.094l.72,2.361h1.3l-2.224-6.769h-1.446Z" transform="translate(-13.953 -5.673)" fill="#1a1311"/><path d="M109.015,47.4a2.7,2.7,0,0,0,1.168.375c.252,0,.608-.132.608-.465,0-.773-1.647-1.332-1.647-2.618,0-.338.129-1.269,1.509-1.269a5.482,5.482,0,0,1,1.2.161l.091,1.035a2.691,2.691,0,0,0-1.048-.266c-.194,0-.528.073-.528.418,0,.648,1.65,1.307,1.65,2.661,0,.95-.885,1.275-1.568,1.275a4.771,4.771,0,0,1-1.306-.212Z" transform="translate(-14.878 -5.927)" fill="#1a1311"/><path d="M115.276,43.374v1h-1.022v2.243c0,.506.1.851.5.851a1.989,1.989,0,0,0,.6-.092l-.13,1.016a2.616,2.616,0,0,1-.909.15c-.778,0-1.2-.314-1.2-1.307V44.37h-.568v-1h.568V42.5l1.138-.333v1.205Z" transform="translate(-15.361 -5.756)" fill="#1a1311"/><path d="M117.058,44.2l.017.02a1.142,1.142,0,0,1,1.048-.791,1.326,1.326,0,0,1,.346.05l.1,1.167a1.554,1.554,0,0,0-.463-.082c-.583,0-.99.447-.99,1.472v2.555h-1.138V43.547h1.08Z" transform="translate(-15.829 -5.927)" fill="#1a1311"/><path d="M120.872,44.42c.724,0,1.1.651,1.1,1.642s-.373,1.654-1.1,1.654-1.094-.659-1.094-1.654.373-1.642,1.094-1.642m0-.994c-1.419,0-2.23,1.094-2.23,2.647s.812,2.638,2.23,2.638,2.235-1.093,2.235-2.638-.813-2.647-2.235-2.647" transform="translate(-16.192 -5.927)" fill="#1a1311"/><path d="M125.362,44.378l.017.021a1.617,1.617,0,0,1,3.1.662v3.527h-1.136V45.383a.792.792,0,0,0-.831-.821c-.761,0-1.152.518-1.152,2.081v1.946h-1.135V43.546h1.135Z" transform="translate(-16.955 -5.927)" fill="#1a1311"/><path d="M131.8,44.42c.723,0,1.1.651,1.1,1.642s-.375,1.654-1.1,1.654-1.095-.659-1.095-1.654.373-1.642,1.095-1.642m0-.994c-1.42,0-2.233,1.094-2.233,2.647s.813,2.638,2.233,2.638,2.233-1.093,2.233-2.638-.811-2.647-2.233-2.647" transform="translate(-17.683 -5.927)" fill="#1a1311"/><path d="M136.213,44.329l.018.019a1.336,1.336,0,0,1,1.282-.921,1.218,1.218,0,0,1,1.241.921,1.358,1.358,0,0,1,1.339-.921,1.252,1.252,0,0,1,1.357,1.328v3.834h-1.14V45.445c0-.485-.161-.883-.607-.883-.733,0-.836.941-.836,1.148v2.878h-1.136V45.445c0-.485-.162-.883-.61-.883-.728,0-.836.941-.836,1.148v2.878h-1.138V43.547h1.065Z" transform="translate(-18.445 -5.927)" fill="#1a1311"/><path d="M142.447,49.806a1.481,1.481,0,0,0,.738.213c.575,0,.794-.709.949-1.3l-1.609-5.155h1.162c.317,1.34.762,2.62,1.014,3.969h.018l1.079-3.969h1.126l-1.947,6.121c-.266.832-.663,1.329-1.547,1.329a2.885,2.885,0,0,1-.83-.121Z" transform="translate(-19.441 -5.946)" fill="#1a1311"/><path d="M153.423,46.958a1.212,1.212,0,0,1-.984.486.975.975,0,0,1-1.054-1.014,1.518,1.518,0,0,1,.706-1.237Zm1,1.358h1.288l-1-1.256a3.467,3.467,0,0,0,.43-2.03h-1.022a3.586,3.586,0,0,1-.108,1.056c-1.063-1.339-1.728-2.332-1.728-2.861a.7.7,0,0,1,.77-.722,1.654,1.654,0,0,1,.911.255l-.1-1.127a3.744,3.744,0,0,0-1.169-.2,1.456,1.456,0,0,0-1.55,1.492,2.651,2.651,0,0,0,.422,1.37,2.347,2.347,0,0,0-1.325,1.978,2,2,0,0,0,2.1,2.172,2.16,2.16,0,0,0,1.65-.648Z" transform="translate(-20.506 -5.654)" fill="#1a1311"/><path d="M158.972,46.927a3.039,3.039,0,0,0,1.445.436.766.766,0,0,0,.86-.75c0-.974-2.217-1.889-2.217-3.489a1.613,1.613,0,0,1,1.811-1.7,4.864,4.864,0,0,1,1.292.185l.12,1.185a2.813,2.813,0,0,0-1.136-.293.768.768,0,0,0-.859.722c0,1.075,2.211,1.8,2.211,3.449a1.685,1.685,0,0,1-1.855,1.765,5.956,5.956,0,0,1-1.543-.261Z" transform="translate(-21.697 -5.654)" fill="#1a1311"/><path d="M164.714,44.624a2.423,2.423,0,0,1,.867-.2c.763,0,1.161.67,1.161,1.715,0,.63-.253,1.581-.973,1.581-.619,0-1.055-.668-1.055-1.4Zm-1.137,6.242h1.137V47.881l.014.021a1.7,1.7,0,0,0,1.421.81c1.218,0,1.728-1.316,1.728-2.515,0-2.769-1.851-2.769-2.351-2.769a8.486,8.486,0,0,0-1.949.283Z" transform="translate(-22.325 -5.927)" fill="#1a1311"/><path d="M171.565,45.98c-.39.44-1.737.418-1.737,1.312,0,.486.38.61.7.61a1.6,1.6,0,0,0,.642-.154l-.18.873c-.252.031-.6.091-.748.091a1.357,1.357,0,0,1-1.5-1.5c0-1.948,2.757-1.358,2.757-2.354,0-.549-.445-.62-.747-.62a3.6,3.6,0,0,0-1.567.427l.088-.945a6.067,6.067,0,0,1,1.747-.294c.718,0,1.617.212,1.617,1.368v3.8h-1.078Z" transform="translate(-23.031 -5.927)" fill="#1a1311"/><path d="M176.84,48.542a3.821,3.821,0,0,1-1.112.169c-1.292,0-2.11-.9-2.11-2.739,0-1.338.535-2.546,2.071-2.546a3.662,3.662,0,0,1,1.193.193l.1,1.095a2.248,2.248,0,0,0-1.056-.294c-.827,0-1.209.729-1.168,1.734.032.935.43,1.562,1.2,1.562a1.934,1.934,0,0,0,.99-.282Z" transform="translate(-23.696 -5.927)" fill="#1a1311"/><path d="M178.88,45.466c.041-.66.376-1.179.958-1.179.625,0,.884.457.884,1.179Zm2.622,1.987a3.591,3.591,0,0,1-1.332.325,1.3,1.3,0,0,1-1.29-1.471v-.161H181.8v-.4c0-1.635-.871-2.324-1.965-2.324-1.406,0-2.094,1.105-2.094,2.647s.813,2.639,2.231,2.639a4.99,4.99,0,0,0,1.421-.192Z" transform="translate(-24.259 -5.927)" fill="#1a1311"/><path d="M185.151,46.927a3.044,3.044,0,0,0,1.445.436.765.765,0,0,0,.861-.75c0-.974-2.215-1.889-2.215-3.489a1.613,1.613,0,0,1,1.811-1.7,4.868,4.868,0,0,1,1.291.185l.119,1.185a2.809,2.809,0,0,0-1.136-.293.769.769,0,0,0-.86.722c0,1.075,2.218,1.8,2.218,3.449a1.69,1.69,0,0,1-1.862,1.765,5.949,5.949,0,0,1-1.541-.261Z" transform="translate(-25.27 -5.654)" fill="#1a1311"/><path d="M192.734,48.542a3.8,3.8,0,0,1-1.11.169c-1.291,0-2.11-.9-2.11-2.739,0-1.338.532-2.546,2.067-2.546a3.639,3.639,0,0,1,1.2.193l.1,1.095a2.245,2.245,0,0,0-1.055-.294c-.828,0-1.208.729-1.167,1.734.033.935.428,1.562,1.2,1.562a1.954,1.954,0,0,0,.99-.282Z" transform="translate(-25.865 -5.927)" fill="#1a1311"/><path d="M193.939,43.284h1.136v5.042h-1.136Zm-.016-1.781h1.161v.929h-1.161Z" transform="translate(-26.467 -5.665)" fill="#1a1311"/><path d="M196.863,45.466c.043-.66.375-1.179.958-1.179.625,0,.887.457.887,1.179Zm2.623,1.987a3.612,3.612,0,0,1-1.332.325,1.305,1.305,0,0,1-1.291-1.471v-.161h2.926v-.4c0-1.635-.872-2.324-1.968-2.324-1.4,0-2.093,1.105-2.093,2.647s.813,2.639,2.235,2.639a5.01,5.01,0,0,0,1.42-.192Z" transform="translate(-26.713 -5.927)" fill="#1a1311"/><path d="M201.913,44.378l.016.021a1.616,1.616,0,0,1,3.1.662v3.527h-1.136V45.383a.79.79,0,0,0-.826-.821c-.765,0-1.153.518-1.153,2.081v1.946h-1.136V43.546h1.136Z" transform="translate(-27.402 -5.927)" fill="#1a1311"/><path d="M209.338,48.542a3.82,3.82,0,0,1-1.111.169c-1.292,0-2.11-.9-2.11-2.739,0-1.338.535-2.546,2.068-2.546a3.662,3.662,0,0,1,1.2.193l.1,1.095a2.236,2.236,0,0,0-1.053-.294c-.831,0-1.212.729-1.168,1.734.03.935.428,1.562,1.2,1.562a1.948,1.948,0,0,0,.992-.282Z" transform="translate(-28.131 -5.927)" fill="#1a1311"/><path d="M211.378,45.466c.041-.66.373-1.179.961-1.179.623,0,.882.457.882,1.179ZM214,47.453a3.6,3.6,0,0,1-1.33.325,1.3,1.3,0,0,1-1.292-1.471v-.161H214.3v-.4c0-1.635-.871-2.324-1.963-2.324-1.408,0-2.1,1.105-2.1,2.647s.811,2.639,2.23,2.639a4.985,4.985,0,0,0,1.42-.192Z" transform="translate(-28.694 -5.927)" fill="#1a1311"/><rect width="1.224" height="6.769" transform="translate(188.164 35.892)" fill="#1a1311"/><path d="M221.24,44.378l.015.021a1.619,1.619,0,0,1,3.1.662v3.527h-1.137V45.383a.794.794,0,0,0-.83-.821c-.762,0-1.152.518-1.152,2.081v1.946h-1.134V43.546h1.134Z" transform="translate(-30.04 -5.927)" fill="#1a1311"/><path d="M225.48,47.4a2.69,2.69,0,0,0,1.169.375c.252,0,.607-.132.607-.465,0-.773-1.648-1.332-1.648-2.618,0-.338.13-1.269,1.509-1.269a5.578,5.578,0,0,1,1.206.161l.085,1.035a2.675,2.675,0,0,0-1.046-.266c-.2,0-.528.073-.528.418,0,.648,1.649,1.307,1.649,2.661,0,.95-.883,1.275-1.568,1.275a4.8,4.8,0,0,1-1.308-.212Z" transform="translate(-30.774 -5.927)" fill="#1a1311"/><path d="M231.744,43.374v1h-1.022v2.243c0,.506.094.851.5.851a2.006,2.006,0,0,0,.6-.092l-.13,1.016a2.621,2.621,0,0,1-.91.15c-.78,0-1.2-.314-1.2-1.307V44.37h-.569v-1h.569V42.5l1.138-.333v1.205Z" transform="translate(-31.256 -5.756)" fill="#1a1311"/><path d="M232.5,43.284h1.136v5.042H232.5Zm-.016-1.781h1.161v.929h-1.161Z" transform="translate(-31.729 -5.665)" fill="#1a1311"/><path d="M236.867,43.374v1h-1.023v2.243c0,.506.1.851.5.851a1.982,1.982,0,0,0,.6-.092l-.129,1.016a2.628,2.628,0,0,1-.91.15c-.777,0-1.2-.314-1.2-1.307V44.37h-.57v-1h.57V42.5l1.136-.333v1.205Z" transform="translate(-31.955 -5.756)" fill="#1a1311"/><path d="M240.567,47.776l-.017-.02a1.449,1.449,0,0,1-1.511.974c-.853,0-1.47-.395-1.47-1.633V43.565H238.7v3.27a.765.765,0,0,0,.709.759c.763,0,1.154-.519,1.154-1.541V43.565H241.7v5.042h-1.132Z" transform="translate(-32.424 -5.946)" fill="#1a1311"/><path d="M245.347,43.374v1h-1.023v2.243c0,.506.1.851.5.851a2.007,2.007,0,0,0,.6-.092l-.13,1.016a2.648,2.648,0,0,1-.912.15c-.777,0-1.2-.314-1.2-1.307V44.37h-.568v-1h.568V42.5l1.136-.333v1.205Z" transform="translate(-33.113 -5.756)" fill="#1a1311"/><path d="M246.94,45.466c.043-.66.376-1.179.958-1.179.625,0,.888.457.888,1.179Zm2.621,1.987a3.582,3.582,0,0,1-1.331.325,1.3,1.3,0,0,1-1.29-1.471v-.161h2.922v-.4c0-1.635-.87-2.324-1.964-2.324-1.407,0-2.094,1.105-2.094,2.647s.812,2.639,2.234,2.639a4.96,4.96,0,0,0,1.417-.192Z" transform="translate(-33.547 -5.927)" fill="#1a1311"/><path d="M158.57,25.152a28.053,28.053,0,0,0,6.406.49,28.035,28.035,0,0,0,6.4-.49c1.129-.315,1.705-.883,1.705-1.686V18.746H156.864v4.721c0,.8.576,1.37,1.706,1.686m11.073-2.1c0,.263-.395.41-.725.484a29.074,29.074,0,0,1-7.9,0c-.475-.108-.711-.274-.711-.484V20.688h9.334Z" transform="translate(-21.409 -2.559)" fill="#1a1311"/><path d="M154.54,28.36h-.229v1.92h9.645v3.713H167.4V30.281h7.631V28.36H154.54Z" transform="translate(-21.061 -3.871)" fill="#1a1311"/><path d="M161.221,35.8c-.575,0-.868-.114-.868-.737V32.075h-3.445v3.3a2.068,2.068,0,0,0,.493,1.591,3.861,3.861,0,0,0,2.759.75h13.15V35.8H161.221Z" transform="translate(-21.415 -4.378)" fill="#1a1311"/><path d="M118.916,24.843a3.885,3.885,0,0,0,1.716-3.161v-.94a2.062,2.062,0,0,0-.494-1.587,3.848,3.848,0,0,0-2.759-.751H104.23v1.92h12.091c.575,0,.867.114.867.74v.952a3.089,3.089,0,0,1-1.705,2.828H102.1v1.919h8.595v2.667H104.23v1.92h12.091c.575,0,.867.116.867.739v3.764h3.444V31.769a2.058,2.058,0,0,0-.494-1.588,3.852,3.852,0,0,0-2.759-.752h-3.244V26.762h8.677V24.843h-3.9Z" transform="translate(-13.934 -2.512)" fill="#1a1311"/><path d="M219.943,26.771a3.883,3.883,0,0,0,1.715-3.159V21.1a2.058,2.058,0,0,0-.494-1.588,3.849,3.849,0,0,0-2.759-.755H205.255v1.924h12.093c.574,0,.87.111.87.736v2.522a3.087,3.087,0,0,1-1.705,2.827H203.123V28.7h8.594v7.38h3.445V28.7h8.678V26.771h-3.9Z" transform="translate(-27.722 -2.561)" fill="#1a1311"/><path d="M89.188,21.914V19.993H84.544V17.985H81.1v2.008H76.267v1.921H89.188Z" transform="translate(-10.409 -2.455)" fill="#1a1311"/><path d="M96.139,23.57V17.853H92.7v14.06h3.444V25.492h3.246V23.57H96.139Z" transform="translate(-12.651 -2.437)" fill="#1a1311"/><path d="M82.908,35.839c-.576,0-.867-.114-.867-.737v-2.72H78.6v2.966l0,.07a2.067,2.067,0,0,0,.495,1.591,3.857,3.857,0,0,0,2.759.75H95v-1.92H82.908Z" transform="translate(-10.727 -4.42)" fill="#1a1311"/><path d="M88.817,27.124c0-2.12-2.74-3.837-6.109-3.837S76.6,25,76.6,27.124s2.739,3.839,6.107,3.839,6.109-1.722,6.109-3.839m-6.109-2.067c1.535,0,2.606.851,2.606,2.067s-1.071,2.066-2.606,2.066S80.1,28.34,80.1,27.124s1.072-2.067,2.606-2.067" transform="translate(-10.455 -3.179)" fill="#1a1311"/><path d="M141.07,23.57h-.229v1.921h4.154v6.053h3.445V17.853h-3.445V23.57Z" transform="translate(-19.222 -2.437)" fill="#1a1311"/><path d="M135.407,35.8c-.574,0-.865-.114-.865-.737V32.075H131.1v3.3a2.06,2.06,0,0,0,.495,1.591,3.857,3.857,0,0,0,2.758.75H147.5V35.8H135.407Z" transform="translate(-17.892 -4.378)" fill="#1a1311"/><path d="M134.688,25.559a10.334,10.334,0,0,0,4.543,3.489l.1.04.1-.051,1.454-.8.395-.216-.406-.191a7.579,7.579,0,0,1-4.369-5.919h3.893V19.993h-4.05V17.985H132.9v2.008h-3.943v1.921h3.915a7.571,7.571,0,0,1-4.367,5.919l-.407.191.394.216,1.456.8.094.051.1-.04a10.344,10.344,0,0,0,4.545-3.489" transform="translate(-17.483 -2.455)" fill="#1a1311"/><path d="M234.3,31.38v.228h3.445V28.081h.034a16.36,16.36,0,0,0,5.085-.9l.2-.06v1.594h-4.064v1.922h4.064v1.436H246.5V17.853h-3.446v7.563a21.429,21.429,0,0,1-5.282.745h-9.616v1.92H234.3Z" transform="translate(-31.139 -2.437)" fill="#1a1311"/><path d="M246.9,35.8H234.449c-.575,0-.87-.114-.87-.737V32.075H230.14v3.231l0,.07a2.051,2.051,0,0,0,.5,1.591,3.848,3.848,0,0,0,2.757.75h13.741V35.8Z" transform="translate(-31.409 -4.378)" fill="#1a1311"/><path d="M234.765,25.729c3.308,0,6-1.64,6-3.654s-2.694-3.651-6-3.651-6,1.639-6,3.651,2.692,3.654,6,3.654m0-5.534c1.3,0,2.6.583,2.6,1.881s-1.348,1.882-2.6,1.882-2.607-.588-2.607-1.882,1.308-1.881,2.607-1.881" transform="translate(-31.222 -2.515)" fill="#1a1311"/><path d="M187.184,35.8c-.574,0-.866-.114-.866-.737V32.075h-3.444v3.3a2.066,2.066,0,0,0,.494,1.591,3.852,3.852,0,0,0,2.757.75H198.68V35.8h-11.5Z" transform="translate(-24.959 -4.378)" fill="#1a1311"/><path d="M190.373,26.7h4.142v5.207h3.444V17.853h-3.444v2.969h-3.641a6.041,6.041,0,0,0-4.7-2.082c-3.135,0-5.685,2.135-5.685,4.763s2.549,4.761,5.685,4.761a6.23,6.23,0,0,0,4.2-1.56m-4.2-6.21c1.35,0,2.325,1.264,2.325,3.008s-.975,3.007-2.325,3.007-2.323-1.264-2.323-3.007.975-3.008,2.323-3.008m5.472,4.29a3.979,3.979,0,0,0,.217-1.282,4.129,4.129,0,0,0-.073-.758h2.725v2.04Z" transform="translate(-24.633 -2.437)" fill="#1a1311"/></g></g></g></g></svg>