<svg xmlns="http://www.w3.org/2000/svg" width="123.315" height="13.41" viewBox="0 0 123.315 13.41"><defs><style>.a{fill:#fff;}</style></defs><g transform="translate(-16.735 -20.645)"><path class="a" d="M12.27,2.055H1.86v-3.72H9.9V-2.22H1.845V-3.9H11.97V-.18H3.93V.375h8.34ZM9.06-4.605H.735v-6.36H8.1v1.71h-5.3v.645h5.16v1.65H2.805v.645H9.06Zm2.91.27H9.9V-11.22h2.07v2.535h1.68V-6.78H11.97ZM25.245-5.85H14.655v-5.475h2.07v1.08h6.45v-1.08h2.07Zm.045,7.905H23.22V-.585H14.385v-1.8H18.9V-3.33H13.425v-1.8h13.05v1.8H21v.945h4.29ZM23.175-7.62v-.885h-6.45v.885ZM32.5-5.67V-9H29.13v3.33Zm2.07,1.8H27.06V-10.8h7.515ZM38.6-1.74h-2.07v-9.48H38.6Zm.315,3.645H28.245v-4.68h2.07V.075h8.6ZM55.575-2.88H42.525v-1.8H48V-5.715H46.38A3.757,3.757,0,0,1,45.157-5.9a2.684,2.684,0,0,1-.945-.547,2.366,2.366,0,0,1-.607-.878,3.067,3.067,0,0,1-.21-1.163,3.067,3.067,0,0,1,.21-1.162,2.366,2.366,0,0,1,.607-.878,2.684,2.684,0,0,1,.945-.548,3.757,3.757,0,0,1,1.222-.187h5.34a3.757,3.757,0,0,1,1.222.187,2.684,2.684,0,0,1,.945.548,2.366,2.366,0,0,1,.608.878A3.067,3.067,0,0,1,54.7-8.49a2.6,2.6,0,0,1-.818,2.04,3.119,3.119,0,0,1-2.167.735H50.1V-4.68h5.475ZM54.7,1.905H43.83V-2.25H45.9V.075H54.7Zm-3.21-9.42a1.234,1.234,0,0,0,.84-.262.9.9,0,0,0,.3-.713.9.9,0,0,0-.3-.7,1.212,1.212,0,0,0-.84-.27H46.6a1.171,1.171,0,0,0-.84.285.917.917,0,0,0-.3.69.9.9,0,0,0,.3.7,1.212,1.212,0,0,0,.84.27ZM64.14-.075H55.995v-6.36h5.1V-8.91H55.98v-1.83h7.185v6.105h-5.1v2.73H64.14Zm2.91,2.1H64.98V-11.22h2.07v4.845h1.8v1.98h-1.8Zm13.7-3.765h-2.07v-9.48h2.07Zm.315,3.645H70.395v-4.68h2.07V.075h8.6ZM76.875-5.97a3.562,3.562,0,0,1-.817,1.207,3.87,3.87,0,0,1-1.29.818,4.59,4.59,0,0,1-1.7.3,4.59,4.59,0,0,1-1.7-.3,3.87,3.87,0,0,1-1.29-.818,3.656,3.656,0,0,1-.825-1.207,3.69,3.69,0,0,1-.292-1.455,3.69,3.69,0,0,1,.292-1.455,3.656,3.656,0,0,1,.825-1.208,3.87,3.87,0,0,1,1.29-.818,4.59,4.59,0,0,1,1.7-.3,4.59,4.59,0,0,1,1.7.3,3.87,3.87,0,0,1,1.29.818,3.656,3.656,0,0,1,.825,1.208,3.69,3.69,0,0,1,.293,1.455A3.61,3.61,0,0,1,76.875-5.97Zm-3.81.525A2,2,0,0,0,74.558-6a1.943,1.943,0,0,0,.548-1.425,1.943,1.943,0,0,0-.548-1.425,2,2,0,0,0-1.493-.555,2,2,0,0,0-1.493.555,1.943,1.943,0,0,0-.548,1.425A1.943,1.943,0,0,0,71.573-6,2,2,0,0,0,73.065-5.445ZM97.425,2.01h-2.04V-4.44h-1.1V1.635H92.28v-2.85L91.005.12q-.75-.885-1.335-1.65T88.485-3.165q-.6.915-1.23,1.763T85.86.39L84.39-.75q.675-.885,1.305-1.763t1.23-1.822A3.8,3.8,0,0,0,87.45-6.39V-7.875H85.1V-9.7H87.45v-1.65h2.07V-9.7h2.16v1.83H89.52v1.44a4.114,4.114,0,0,0,.135,1.11,3.879,3.879,0,0,0,.39.915,16,16,0,0,0,1.027,1.53q.547.72,1.208,1.53v-9.72h2.01v4.65h1.1v-4.8h2.04Zm13.35-5.775H97.725v-1.77h3.105V-6.54A2.88,2.88,0,0,1,99.2-7.305a2.13,2.13,0,0,1-.6-1.575,2.085,2.085,0,0,1,.817-1.762,3.487,3.487,0,0,1,2.168-.623h5.34a3.487,3.487,0,0,1,2.168.623,2.085,2.085,0,0,1,.817,1.762,2.13,2.13,0,0,1-.6,1.575,2.88,2.88,0,0,1-1.635.765v1.005h3.105Zm-3.81.69a3.3,3.3,0,0,1,2.168.675,2.265,2.265,0,0,1,.817,1.845,2.265,2.265,0,0,1-.817,1.845,3.3,3.3,0,0,1-2.168.675h-5.43a3.3,3.3,0,0,1-2.167-.675A2.265,2.265,0,0,1,98.55-.555,2.265,2.265,0,0,1,99.368-2.4a3.3,3.3,0,0,1,2.167-.675ZM106.74.2a1.49,1.49,0,0,0,.84-.2.629.629,0,0,0,.3-.548.629.629,0,0,0-.3-.547,1.49,1.49,0,0,0-.84-.2h-4.98a1.49,1.49,0,0,0-.84.2.629.629,0,0,0-.3.547.629.629,0,0,0,.3.548,1.49,1.49,0,0,0,.84.2Zm-.045-8.46a1.834,1.834,0,0,0,.84-.158.5.5,0,0,0,.3-.457.5.5,0,0,0-.3-.457,1.834,1.834,0,0,0-.84-.158h-4.89a1.7,1.7,0,0,0-.84.172.507.507,0,0,0-.3.443.5.5,0,0,0,.3.457,1.834,1.834,0,0,0,.84.158Zm-1.1,2.73V-6.5h-2.7v.96Zm17.19,7.44H112.365v-4.29h2.07V.075h8.355Zm-.315-3.285h-2.07v-9.84h2.07v3.495h1.575V-5.82h-1.575Zm-2.67-1.755h-9.09v-1.8h2.58v-2.55h2.1v2.55h4.41ZM119.13-5.7h-2.07V-9.225h-5.79v-1.8h7.86Z" transform="translate(16 32)"/></g></svg>