<svg xmlns="http://www.w3.org/2000/svg" xmlns:xlink="http://www.w3.org/1999/xlink" width="257" height="87" viewBox="0 0 257 87"><defs><clipPath id="a"><rect width="257" height="87" transform="translate(1469 338)" fill="#ffaeae"/></clipPath><clipPath id="b"><rect width="245" height="35.021" fill="none"/></clipPath></defs><g transform="translate(-1469 -338)"><g clip-path="url(#a)"><g transform="translate(1475 364)"><g transform="translate(5 0)" clip-path="url(#b)"><path d="M20.959,30.242l.4-12.827a57.563,57.563,0,0,1,.794-8.008,44.19,44.19,0,0,0-2.906,4.223A149.326,149.326,0,0,1,7.954,29.445q-.437-2.651-.709-6.194t-.267-6.214a20.544,20.544,0,0,1,.707-6.005,17.188,17.188,0,0,1,2.679-4.91,10.474,10.474,0,0,0-5.947,2.37,5.473,5.473,0,0,0-2.2,4,3.163,3.163,0,0,0,.429,1.534,3.56,3.56,0,0,1,.507,1.257,1.177,1.177,0,0,1-.33.856,1.1,1.1,0,0,1-.813.339A1.216,1.216,0,0,1,.967,15.9a3.276,3.276,0,0,1-.542-1.952,7.639,7.639,0,0,1,1.044-3.7A9.222,9.222,0,0,1,4.25,7.128,11.659,11.659,0,0,1,8.192,5.346a35.994,35.994,0,0,1,4.083-.619c.651-.08,1.293-.167,1.933-.26A20.91,20.91,0,0,0,9.884,16.7q0,1.924.306,7.669,1.175-1.412,2.125-2.723.656-.913,3.416-5.066,4.449-6.758,6.652-9.518a26.839,26.839,0,0,1,3.537-3.565Q24,11,24,25.058l5-6.19a58.582,58.582,0,0,0,4.073-5.845A27.2,27.2,0,0,0,35.8,7.7a7.922,7.922,0,0,0,.419-2.449,6.25,6.25,0,0,0-.518-2.39,3.618,3.618,0,0,1-.32-1.156,1.193,1.193,0,0,1,.39-.9A1.435,1.435,0,0,1,37.95,1.1a4.192,4.192,0,0,1,.638,2.43,14.587,14.587,0,0,1-1.387,5.3,51.833,51.833,0,0,1-6.143,9.6,102.057,102.057,0,0,1-10.1,11.811" transform="translate(-0.053 -0.053)" fill="#610d15"/><path d="M20.959,30.667a.425.425,0,0,1-.425-.438l.4-12.827a60.591,60.591,0,0,1,.535-6.374c-.552.782-1.174,1.728-1.861,2.827A150.483,150.483,0,0,1,8.283,29.715a.425.425,0,0,1-.748-.2c-.294-1.782-.534-3.878-.713-6.231s-.268-4.468-.268-6.247A21.047,21.047,0,0,1,7.28,10.9a16.363,16.363,0,0,1,2.163-4.22A9.538,9.538,0,0,0,4.7,8.81a5.1,5.1,0,0,0-2.058,3.684,2.76,2.76,0,0,0,.376,1.329,3.346,3.346,0,0,1,.56,1.462,1.594,1.594,0,0,1-.45,1.152A1.518,1.518,0,0,1,2.01,16.9a1.645,1.645,0,0,1-1.391-.76A3.7,3.7,0,0,1,0,13.949,8.091,8.091,0,0,1,1.1,10.04,9.685,9.685,0,0,1,4,6.781,12.127,12.127,0,0,1,8.088,4.934a36.034,36.034,0,0,1,4.14-.629c.6-.073,1.226-.158,1.919-.258a.425.425,0,0,1,.407.667A20.6,20.6,0,0,0,10.309,16.7c0,1.138.083,3.338.248,6.548.507-.633.98-1.253,1.414-1.851s1.619-2.36,3.406-5.051c2.955-4.489,5.2-7.7,6.673-9.548l0,0a27.4,27.4,0,0,1,3.593-3.622.425.425,0,0,1,.685.431c-1.208,4.722-1.846,11.532-1.9,20.252l4.242-5.25a58.424,58.424,0,0,0,4.042-5.8,26.951,26.951,0,0,0,2.676-5.237,7.534,7.534,0,0,0,.4-2.316,5.855,5.855,0,0,0-.486-2.228A3.879,3.879,0,0,1,34.953,1.7,1.61,1.61,0,0,1,35.477.487,1.86,1.86,0,0,1,38.3.865a4.627,4.627,0,0,1,.71,2.668A14.833,14.833,0,0,1,37.593,9a52.466,52.466,0,0,1-6.2,9.69A102.96,102.96,0,0,1,21.251,30.551.425.425,0,0,1,20.959,30.667ZM22.153,8.982a.425.425,0,0,1,.418.5,57.411,57.411,0,0,0-.788,7.949L21.417,29.2a111.6,111.6,0,0,0,9.3-11.031,51.753,51.753,0,0,0,6.09-9.507,14.268,14.268,0,0,0,1.353-5.134A3.8,3.8,0,0,0,37.6,1.344l-.006-.009A1.011,1.011,0,0,0,36.062,1.1a.772.772,0,0,0-.259.6,3.139,3.139,0,0,0,.29,1,6.687,6.687,0,0,1,.549,2.548,8.38,8.38,0,0,1-.44,2.58,27.718,27.718,0,0,1-2.761,5.42,59.274,59.274,0,0,1-4.1,5.887l-5,6.191a.425.425,0,0,1-.756-.267c0-8.588.545-15.428,1.622-20.364a26.076,26.076,0,0,0-2.486,2.633c-1.457,1.826-3.686,5.017-6.627,9.484-1.82,2.74-2.972,4.448-3.426,5.08-.639.881-1.359,1.8-2.144,2.747a.425.425,0,0,1-.751-.249c-.206-3.879-.307-6.4-.307-7.692a20.986,20.986,0,0,1,3.85-11.674c-.338.046-.664.088-.982.127a35.96,35.96,0,0,0-4.033.609A11.28,11.28,0,0,0,4.5,7.475a8.842,8.842,0,0,0-2.655,2.976,7.256,7.256,0,0,0-.991,3.5,2.88,2.88,0,0,0,.462,1.7l0,.006a.8.8,0,0,0,.694.4.676.676,0,0,0,.51-.212.75.75,0,0,0,.207-.557,3.225,3.225,0,0,0-.456-1.055,3.593,3.593,0,0,1-.48-1.736,5.9,5.9,0,0,1,2.344-4.32A10.932,10.932,0,0,1,10.317,5.7a.425.425,0,0,1,.389.675,16.859,16.859,0,0,0-2.615,4.784A20.24,20.24,0,0,0,7.4,17.037c0,1.757.089,3.837.266,6.182.147,1.925.334,3.674.559,5.216a150.119,150.119,0,0,0,10.657-15.03,44.769,44.769,0,0,1,2.937-4.267A.425.425,0,0,1,22.153,8.982Z" transform="translate(-0.053 -0.053)" fill="#610d15"/><path d="M41.53,16.751l-.877-.675a15.427,15.427,0,0,1,3.63-3.117,5.963,5.963,0,0,1,2.794-.926,1.509,1.509,0,0,1,.975.278.928.928,0,0,1,.337.759,37.156,37.156,0,0,1-1.289,4.9q-2.108,7.069-2.107,8.524a.766.766,0,0,0,.138.467.389.389,0,0,0,.3.192q.638,0,3.267-2.472l.776.758a25.725,25.725,0,0,1-3.982,3.284,4.438,4.438,0,0,1-2.052.718A1.444,1.444,0,0,1,42.335,29a1.719,1.719,0,0,1-.407-1.215q0-2.488,2.988-12.17a2.863,2.863,0,0,0,.14-.818c0-.263-.121-.4-.36-.4a1.761,1.761,0,0,0-.907.318,20.67,20.67,0,0,0-2.259,2.029M49.356,3.568a1.351,1.351,0,0,1,1.015.408,1.435,1.435,0,0,1,.4,1.047,2.222,2.222,0,0,1-.607,1.542,1.8,1.8,0,0,1-1.363.668,1.319,1.319,0,0,1-1-.419,1.517,1.517,0,0,1-.4-1.094,2.161,2.161,0,0,1,.577-1.525,1.806,1.806,0,0,1,1.374-.626" transform="translate(-5.087 -0.446)" fill="#153b87"/><path d="M43.44,29.865a1.854,1.854,0,0,1-1.416-.572,2.137,2.137,0,0,1-.521-1.505c0-1.726.983-5.748,3.007-12.295a2.507,2.507,0,0,0,.121-.66,1.533,1.533,0,0,0-.615.25,19.26,19.26,0,0,0-2.188,1.973.425.425,0,0,1-.556.033l-.877-.675a.425.425,0,0,1-.056-.622,15.9,15.9,0,0,1,3.736-3.2,6.3,6.3,0,0,1,3-.981,1.918,1.918,0,0,1,1.244.374,1.358,1.358,0,0,1,.493,1.088,29.133,29.133,0,0,1-1.306,5.021c-1.727,5.791-2.089,7.766-2.089,8.4a.358.358,0,0,0,.055.215l.006.008c.183-.058.857-.4,2.928-2.345a.425.425,0,0,1,.588.005l.776.758a.425.425,0,0,1-.005.613A26.116,26.116,0,0,1,45.7,29.091,4.775,4.775,0,0,1,43.44,29.865ZM44.7,13.978a.753.753,0,0,1,.785.821,3.262,3.262,0,0,1-.158.941c-1.971,6.377-2.97,10.43-2.97,12.047a1.306,1.306,0,0,0,.294.927,1.025,1.025,0,0,0,.794.3,4.077,4.077,0,0,0,1.841-.662,23.524,23.524,0,0,0,3.579-2.922l-.168-.164c-2.18,2.021-2.859,2.309-3.26,2.309a.787.787,0,0,1-.642-.364,1.182,1.182,0,0,1-.222-.72c0-1.022.695-3.85,2.124-8.645a33.665,33.665,0,0,0,1.271-4.778.5.5,0,0,0-.182-.43,1.117,1.117,0,0,0-.706-.181,5.6,5.6,0,0,0-2.585.872,14.282,14.282,0,0,0-3.212,2.694l.217.167a15.673,15.673,0,0,1,2.065-1.828A2.173,2.173,0,0,1,44.7,13.978Zm4.1-6.32a1.736,1.736,0,0,1-1.3-.551,1.938,1.938,0,0,1-.515-1.388,2.583,2.583,0,0,1,.691-1.814,2.221,2.221,0,0,1,1.685-.763,1.766,1.766,0,0,1,1.32.537,1.851,1.851,0,0,1,.518,1.343,2.642,2.642,0,0,1-.718,1.828A2.221,2.221,0,0,1,48.8,7.658Zm.557-3.665a1.386,1.386,0,0,0-1.061.489,1.736,1.736,0,0,0-.465,1.237,1.1,1.1,0,0,0,.28.8.892.892,0,0,0,.689.287,1.391,1.391,0,0,0,1.048-.529,1.794,1.794,0,0,0,.5-1.256,1.018,1.018,0,0,0-.277-.75A.936.936,0,0,0,49.356,3.993Z" transform="translate(-5.087 -0.446)" fill="#153b87"/><path d="M79.54,5.624l-.118.5a10.712,10.712,0,0,0-2.669,1A19.1,19.1,0,0,0,73.9,9.29a69.775,69.775,0,0,1-8.3,6.394,13.313,13.313,0,0,1,1.735,2.809q.719,1.552,2.493,7.149,1.593,5,3.248,6.753a4.715,4.715,0,0,0,3.371,1.751A2.256,2.256,0,0,0,78.7,32.394a3.623,3.623,0,0,1,.617-1.274,1.162,1.162,0,0,1,.8-.32,1.131,1.131,0,0,1,.816.328,1.062,1.062,0,0,1,.337.788,3.048,3.048,0,0,1-1.416,2.31,5.614,5.614,0,0,1-3.585,1.114,7.083,7.083,0,0,1-3.559-.955,9.453,9.453,0,0,1-3.08-3.008,27.481,27.481,0,0,1-2.85-6.353,52.478,52.478,0,0,0-2.094-5.567,18.088,18.088,0,0,0-2.053-3.177l-2.114,8.066q-.636,2.45-.8,3.506a6.3,6.3,0,0,0,2.43.577c.174,0,.418-.014.738-.04l-.259,1c-.265.013-.43.02-.5.02a17.462,17.462,0,0,1-1.867-.141,20.5,20.5,0,0,0-2.09-.139,33.636,33.636,0,0,0-5.228.637l.121-.954a5.993,5.993,0,0,0,2.675-1.047,4.511,4.511,0,0,0,1.228-2.1q1.056-3.226,2.752-9.7l2.43-9.222a12.323,12.323,0,0,0-6.222,1.792,3.257,3.257,0,0,0-1.768,2.631,2.707,2.707,0,0,0,.485,1.315,2.392,2.392,0,0,1,.45,1.156,1.32,1.32,0,0,1-.395.945,1.26,1.26,0,0,1-.932.408,1.382,1.382,0,0,1-1.1-.616,2.561,2.561,0,0,1-.486-1.634A6.374,6.374,0,0,1,54.95,7.745q2.753-2.219,9.575-2.22h1.294q-1.1,2.846-1.434,4.117L62.8,15.683a16.816,16.816,0,0,0,3.44-1.9q1.966-1.345,3.779-2.859A40.92,40.92,0,0,0,73.8,7.537a.634.634,0,0,0,.141-.339c0-.107-.138-.2-.409-.289a12.23,12.23,0,0,0-2.3-.171L71.5,5.624q2.546.24,4.181.24a35.945,35.945,0,0,0,3.863-.24" transform="translate(-6.531 -0.691)" fill="#d3091b"/><path d="M64.524,5.1h1.294a.425.425,0,0,1,.4.578c-.721,1.873-1.2,3.244-1.42,4.074l-1.366,5.2A19.358,19.358,0,0,0,66,13.432c1.282-.877,2.542-1.831,3.747-2.835a42.6,42.6,0,0,0,3.688-3.274l-.024-.008a11.291,11.291,0,0,0-2.183-.15.425.425,0,0,1-.4-.522l.262-1.115a.425.425,0,0,1,.454-.326c1.673.158,3.066.238,4.141.238A35.674,35.674,0,0,0,79.494,5.2a.425.425,0,0,1,.46.52l-.118.5a.425.425,0,0,1-.311.315,10.351,10.351,0,0,0-2.563.953,18.779,18.779,0,0,0-2.778,2.121,73.047,73.047,0,0,1-7.958,6.181,13.981,13.981,0,0,1,1.5,2.524c.486,1.048,1.307,3.4,2.513,7.2,1.037,3.256,2.1,5.473,3.152,6.59a4.335,4.335,0,0,0,3.062,1.618A1.834,1.834,0,0,0,78.3,32.257a3.424,3.424,0,0,1,.732-1.45,1.592,1.592,0,0,1,2.2.017,1.479,1.479,0,0,1,.465,1.093,3.456,3.456,0,0,1-1.578,2.644,6.048,6.048,0,0,1-3.848,1.2A7.544,7.544,0,0,1,72.5,34.754a9.913,9.913,0,0,1-3.222-3.138,28,28,0,0,1-2.9-6.456,52.491,52.491,0,0,0-2.073-5.516,16.5,16.5,0,0,0-1.482-2.411l-1.892,7.221c-.357,1.375-.6,2.426-.731,3.133a5.554,5.554,0,0,0,1.954.418c.155,0,.385-.013.7-.039a.425.425,0,0,1,.446.53l-.259,1a.425.425,0,0,1-.39.318c-.3.015-.447.021-.52.021a17.678,17.678,0,0,1-1.916-.144,19.984,19.984,0,0,0-2.041-.136,33.459,33.459,0,0,0-5.154.63.425.425,0,0,1-.5-.472l.121-.954a.425.425,0,0,1,.339-.363,5.652,5.652,0,0,0,2.481-.952,4.126,4.126,0,0,0,1.1-1.907c.7-2.13,1.621-5.385,2.746-9.679l2.279-8.646a11.446,11.446,0,0,0-5.421,1.675,2.854,2.854,0,0,0-1.582,2.279,2.262,2.262,0,0,0,.421,1.091,2.738,2.738,0,0,1,.513,1.379,1.741,1.741,0,0,1-.513,1.239,1.681,1.681,0,0,1-1.238.538,1.79,1.79,0,0,1-1.43-.779,2.983,2.983,0,0,1-.577-1.9,6.8,6.8,0,0,1,2.914-5.32,9.758,9.758,0,0,1,3.941-1.748A26.612,26.612,0,0,1,64.524,5.1Zm.677.85h-.677c-4.426,0-7.557.715-9.308,2.126a5.924,5.924,0,0,0-2.6,4.659,2.166,2.166,0,0,0,.395,1.371.979.979,0,0,0,.762.454.836.836,0,0,0,.628-.28.892.892,0,0,0,.273-.648,1.953,1.953,0,0,0-.385-.93l0,0a3.066,3.066,0,0,1-.547-1.537A3.664,3.664,0,0,1,55.7,8.177a12.791,12.791,0,0,1,6.432-1.862.425.425,0,0,1,.437.533l-2.43,9.222c-1.129,4.31-2.058,7.582-2.759,9.724a4.93,4.93,0,0,1-1.355,2.29,5.893,5.893,0,0,1-2.569,1.079l-.011.083a30.806,30.806,0,0,1,4.734-.544,20.808,20.808,0,0,1,2.135.142,17.2,17.2,0,0,0,1.822.138l.166-.005.032-.125c-.066,0-.126,0-.179,0a6.746,6.746,0,0,1-2.6-.611.425.425,0,0,1-.254-.454c.108-.718.379-1.912.8-3.55l2.114-8.067a.425.425,0,0,1,.211-.267.425.425,0,0,1-.049-.33l1.588-6.041C64.179,8.763,64.591,7.56,65.2,5.95Zm10.475.339c-1.021,0-2.315-.07-3.852-.208l-.058.248a8.163,8.163,0,0,1,1.9.176c.176.056.706.226.706.694a1.024,1.024,0,0,1-.218.582l-.012.016a33.747,33.747,0,0,1-3.853,3.452c-1.226,1.022-2.508,1.992-3.812,2.884A17.479,17.479,0,0,1,63,16.06a18.53,18.53,0,0,1,2.067,3.209,52.289,52.289,0,0,1,2.115,5.62,27.22,27.22,0,0,0,2.8,6.249,9.082,9.082,0,0,0,2.938,2.877,6.7,6.7,0,0,0,3.35.9,5.224,5.224,0,0,0,3.322-1.022,2.678,2.678,0,0,0,1.254-1.976.64.64,0,0,0-.209-.484.7.7,0,0,0-.519-.207.742.742,0,0,0-.513.21,3.212,3.212,0,0,0-.5,1.1,2.683,2.683,0,0,1-2.655,2.038,5.133,5.133,0,0,1-3.68-1.885c-1.159-1.228-2.253-3.49-3.344-6.916-1.178-3.709-2.01-6.1-2.474-7.1a12.948,12.948,0,0,0-1.679-2.72.425.425,0,0,1,.1-.627A69.711,69.711,0,0,0,73.624,8.97a19.532,19.532,0,0,1,2.919-2.221,8.717,8.717,0,0,1,1.146-.533C76.966,6.264,76.293,6.289,75.677,6.289Z" transform="translate(-6.531 -0.691)" fill="#d3091b"/><path d="M83.486,16.751l-.874-.675a15.441,15.441,0,0,1,3.628-3.117,5.96,5.96,0,0,1,2.794-.926,1.516,1.516,0,0,1,.977.278.94.94,0,0,1,.336.759,36.862,36.862,0,0,1-1.292,4.9q-2.1,7.069-2.1,8.524a.755.755,0,0,0,.138.467.385.385,0,0,0,.3.192q.64,0,3.266-2.472l.78.758a25.623,25.623,0,0,1-3.985,3.284,4.433,4.433,0,0,1-2.05.718A1.436,1.436,0,0,1,84.294,29a1.716,1.716,0,0,1-.409-1.215q0-2.488,2.989-12.17a2.889,2.889,0,0,0,.139-.818c0-.263-.121-.4-.36-.4a1.754,1.754,0,0,0-.906.318,20.591,20.591,0,0,0-2.262,2.029M91.312,3.568a1.355,1.355,0,0,1,1.018.408,1.438,1.438,0,0,1,.4,1.047,2.232,2.232,0,0,1-.605,1.542,1.813,1.813,0,0,1-1.366.668,1.322,1.322,0,0,1-1-.419,1.52,1.52,0,0,1-.4-1.094,2.174,2.174,0,0,1,.575-1.525,1.813,1.813,0,0,1,1.374-.626" transform="translate(-10.337 -0.446)" fill="#ea7915"/><path d="M85.4,29.865a1.852,1.852,0,0,1-1.417-.573,2.133,2.133,0,0,1-.523-1.5c0-1.717.984-5.738,3.008-12.295a2.534,2.534,0,0,0,.12-.66,1.47,1.47,0,0,0-.612.249,20.846,20.846,0,0,0-2.192,1.974.425.425,0,0,1-.556.032l-.874-.675a.425.425,0,0,1-.055-.622,15.918,15.918,0,0,1,3.734-3.2,6.383,6.383,0,0,1,3-.981,1.925,1.925,0,0,1,1.246.374l0,0a1.367,1.367,0,0,1,.488,1.084c0,.176,0,.645-1.31,5.021-1.723,5.793-2.084,7.767-2.084,8.4a.351.351,0,0,0,.053.211l0,0,0,.006c.187-.059.862-.4,2.924-2.344a.425.425,0,0,1,.588,0l.78.758a.425.425,0,0,1,0,.614,25.649,25.649,0,0,1-4.066,3.344A4.766,4.766,0,0,1,85.4,29.865Zm1.254-15.886a.753.753,0,0,1,.785.821,3.289,3.289,0,0,1-.157.94c-1.972,6.388-2.972,10.44-2.972,12.048a1.3,1.3,0,0,0,.3.926,1.023,1.023,0,0,0,.794.3,4.128,4.128,0,0,0,1.838-.662,23.45,23.45,0,0,0,3.581-2.921l-.17-.165c-2.178,2.022-2.858,2.309-3.26,2.309a.782.782,0,0,1-.639-.363,1.173,1.173,0,0,1-.222-.72c0-1.02.693-3.848,2.12-8.645a33.289,33.289,0,0,0,1.275-4.778.517.517,0,0,0-.182-.431,1.144,1.144,0,0,0-.706-.181,5.59,5.59,0,0,0-2.585.871,14.3,14.3,0,0,0-3.21,2.694l.215.166a15.642,15.642,0,0,1,2.068-1.828A2.153,2.153,0,0,1,86.653,13.978Zm4.1-6.32a1.74,1.74,0,0,1-1.3-.55,1.941,1.941,0,0,1-.513-1.388,2.6,2.6,0,0,1,.687-1.812,2.231,2.231,0,0,1,1.687-.764,1.768,1.768,0,0,1,1.324.538,1.854,1.854,0,0,1,.516,1.342,2.651,2.651,0,0,1-.715,1.827A2.227,2.227,0,0,1,90.756,7.658Zm.556-3.665a1.394,1.394,0,0,0-1.062.49,1.746,1.746,0,0,0-.462,1.236,1.107,1.107,0,0,0,.279.8.9.9,0,0,0,.689.287,1.4,1.4,0,0,0,1.051-.529,1.8,1.8,0,0,0,.5-1.256,1.021,1.021,0,0,0-.277-.751A.937.937,0,0,0,91.312,3.993Z" transform="translate(-10.337 -0.446)" fill="#ea7915"/><path d="M94.591,17.929l-.6-.8a16.081,16.081,0,0,1,3.748-2.907,6.608,6.608,0,0,1,2.8-.938.961.961,0,0,1,.632.179.625.625,0,0,1,.209.5,7.147,7.147,0,0,1-.32,1.534c-.3,1.114-.518,2-.635,2.647q4.764-4.858,7.289-4.86a1.3,1.3,0,0,1,.992.36,1.61,1.61,0,0,1,.339,1.135,11.85,11.85,0,0,1-.6,2.849,19.817,19.817,0,0,1,3.947-3.356A5.786,5.786,0,0,1,115,13.287a1.709,1.709,0,0,1,1.295.478,2.062,2.062,0,0,1,.458,1.475,6.125,6.125,0,0,1-.2,1.415q-.2.816-1.454,4.979a35.7,35.7,0,0,0-1.574,6.156c0,.449.186.676.556.676a1.314,1.314,0,0,0,.738-.239,19.064,19.064,0,0,0,2.41-2.072l.658.717c-.278.224-.8.691-1.575,1.393a18.5,18.5,0,0,1-2.19,1.794,4.092,4.092,0,0,1-1.953.675,1.322,1.322,0,0,1-1.055-.587,2.583,2.583,0,0,1-.459-1.623,10.837,10.837,0,0,1,.28-2.241q.281-1.282,1.634-5.766a22.9,22.9,0,0,0,1.015-4.083c0-.451-.2-.677-.6-.677a2.874,2.874,0,0,0-1.336.5,10.4,10.4,0,0,0-2.869,2.529,9.66,9.66,0,0,0-1.394,3.286q-1.333,4.921-1.992,8.027h-2.827l2.967-12.169a12.262,12.262,0,0,0,.318-1.515.692.692,0,0,0-.159-.487.594.594,0,0,0-.456-.169,3.477,3.477,0,0,0-1.671.837,10.974,10.974,0,0,0-2.833,2.738,12.732,12.732,0,0,0-1.481,4.035L97.73,30.1H94.869l2.251-9.5q1-4.122.995-4.483c0-.3-.12-.455-.357-.455q-.778,0-3.166,2.269" transform="translate(-11.761 -1.662)" fill="#21672d"/><path d="M100.538,12.862a1.366,1.366,0,0,1,.906.28l0,0a1.05,1.05,0,0,1,.356.821,7.25,7.25,0,0,1-.336,1.648c-.122.448-.228.853-.318,1.216,2.786-2.668,4.94-3.969,6.564-3.969a1.711,1.711,0,0,1,1.3.493,2.014,2.014,0,0,1,.455,1.427,6.894,6.894,0,0,1-.206,1.432,16.8,16.8,0,0,1,2.915-2.306A6.1,6.1,0,0,1,115,12.862a2.12,2.12,0,0,1,1.6.609,2.472,2.472,0,0,1,.576,1.769,6.563,6.563,0,0,1-.21,1.515c-.135.543-.6,2.132-1.46,5-1.286,4.205-1.556,5.6-1.556,6.033a.412.412,0,0,0,.044.238.191.191,0,0,0,.088.014.888.888,0,0,0,.5-.164,18.748,18.748,0,0,0,2.35-2.022.425.425,0,0,1,.614.013l.658.717a.425.425,0,0,1-.047.618c-.253.2-.732.628-1.555,1.376a18.594,18.594,0,0,1-2.257,1.845,4.458,4.458,0,0,1-2.171.736,1.73,1.73,0,0,1-1.39-.751,3,3,0,0,1-.549-1.884,11.162,11.162,0,0,1,.29-2.33c.194-.887.747-2.838,1.643-5.8a21.31,21.31,0,0,0,1-3.96c0-.252-.05-.252-.172-.252a2.421,2.421,0,0,0-1.118.438,10.017,10.017,0,0,0-2.75,2.424,9.316,9.316,0,0,0-1.319,3.135c-.887,3.275-1.556,5.968-1.987,8.006a.425.425,0,0,1-.416.337h-2.827a.425.425,0,0,1-.413-.526l2.967-12.169a12.162,12.162,0,0,0,.306-1.419.314.314,0,0,0-.047-.195.241.241,0,0,0-.144-.032c-.12,0-.5.073-1.418.754l0,0a10.624,10.624,0,0,0-2.725,2.625,12.407,12.407,0,0,0-1.423,3.9l-1.532,6.73a.425.425,0,0,1-.414.331H94.869A.425.425,0,0,1,94.455,30l2.251-9.5c.874-3.617.979-4.274.983-4.388q0-.01,0-.018c-.236.05-.942.371-2.8,2.144a.425.425,0,0,1-.633-.052l-.6-.8a.425.425,0,0,1,.039-.556,16.583,16.583,0,0,1,3.85-2.983A6.905,6.905,0,0,1,100.538,12.862Zm.356.928a.568.568,0,0,0-.356-.078,6.264,6.264,0,0,0-2.6.889,15.218,15.218,0,0,0-3.383,2.573l.091.121c1.96-1.817,2.693-2.06,3.112-2.06a.78.78,0,0,1,.782.88A35.244,35.244,0,0,1,97.533,20.7l-2.127,8.975h1.985l1.457-6.4a13,13,0,0,1,1.54-4.173,11.43,11.43,0,0,1,2.938-2.849,3.691,3.691,0,0,1,1.922-.919,1.008,1.008,0,0,1,.766.3,1.1,1.1,0,0,1,.274.778,8.521,8.521,0,0,1-.331,1.616l-2.839,11.643h1.942c.435-2.009,1.082-4.6,1.925-7.713a10.091,10.091,0,0,1,1.466-3.433,10.871,10.871,0,0,1,2.987-2.635,3.224,3.224,0,0,1,1.556-.559.987.987,0,0,1,1.022,1.1,19.222,19.222,0,0,1-1.033,4.206c-.877,2.9-1.44,4.883-1.626,5.735a10.484,10.484,0,0,0-.27,2.15,2.184,2.184,0,0,0,.369,1.361.916.916,0,0,0,.72.423,3.728,3.728,0,0,0,1.739-.618,18.492,18.492,0,0,0,2.119-1.743c.556-.506.96-.868,1.247-1.116l-.061-.067a18.92,18.92,0,0,1-2.148,1.806l-.011.007a1.736,1.736,0,0,1-.973.31.967.967,0,0,1-.981-1.1,34.869,34.869,0,0,1,1.592-6.28c.845-2.814,1.319-4.436,1.448-4.957a5.725,5.725,0,0,0,.185-1.313,1.683,1.683,0,0,0-.34-1.181,1.294,1.294,0,0,0-.988-.347,5.472,5.472,0,0,0-2.4.928,19.507,19.507,0,0,0-3.856,3.284.425.425,0,0,1-.714-.415,11.63,11.63,0,0,0,.58-2.728,1.253,1.253,0,0,0-.222-.843.9.9,0,0,0-.683-.226c-1.556,0-3.907,1.592-6.986,4.732a.425.425,0,0,1-.722-.373c.116-.643.326-1.521.643-2.684a6.581,6.581,0,0,0,.305-1.422C100.954,13.847,100.916,13.809,100.894,13.79Z" transform="translate(-11.761 -1.662)" fill="#21672d"/><text transform="translate(114.131 15.747)" fill="#1a1311" font-size="16" font-family="H2hdrM, HYHeadLine"><tspan x="0" y="0" letter-spacing="0.054em">세계김치연구</tspan><tspan y="0">소</tspan></text><text transform="translate(115.618 32.339)" fill="#1a1311" font-size="10" font-family="H2hdrM, HYHeadLine"><tspan x="0" y="0">World Institute of Kimchi</tspan></text></g></g></g></g></svg>