<svg xmlns="http://www.w3.org/2000/svg" xmlns:xlink="http://www.w3.org/1999/xlink" width="257" height="87" viewBox="0 0 257 87"><defs><clipPath id="a"><rect width="257" height="87" transform="translate(1114 502)" fill="#ffaeae"/></clipPath><clipPath id="b"><rect width="121.005" height="62.443" fill="none"/></clipPath></defs><g transform="translate(-1114 -502)"><g clip-path="url(#a)"><g transform="translate(1181.831 513.557)"><g clip-path="url(#b)"><path d="M82.235,300.239a.121.121,0,0,0-.122-.121H79.459c-.126,0-.119.119-.043.149a1.24,1.24,0,0,1,.767,1.174h0v7.166a1.026,1.026,0,0,0,2.052,0v-2.959h1.414V304.1H82.235Z" transform="translate(-67.955 -256.982)" fill="#6a6a6a"/><path d="M31.191,359.693H29.139v3.681a.691.691,0,0,0,.691.691h9.484V362.6H31.191Z" transform="translate(-24.951 -307.994)" fill="#6a6a6a"/><path d="M131.562,305.068q.069-.843.07-1.658v-1.4H120.985v1.481h8.595v.748q0,.72-.056,1.29a10.841,10.841,0,0,1-.194,1.279h-8.955v1.467h4.838V310.3h-4.229v1.467h8.595V314.8h2.052V310.3h-4.367v-2.026h4.977v-1.467h-.9c.092-.48.167-1.106.221-1.74" transform="translate(-103.073 -258.603)" fill="#6a6a6a"/><path d="M228.91,299.832a.121.121,0,0,0-.122-.121h-2.654c-.126,0-.119.119-.043.149a1.24,1.24,0,0,1,.767,1.174h0v8.7h-4.173v-2.157a4.389,4.389,0,0,0,1.541-.588,2.725,2.725,0,0,0,1.247-1.563,2.679,2.679,0,0,0-.262-2.01,2.949,2.949,0,0,0-1.928-1.3h2.134v-1.427h-2.826v-1.047h-2.053v1.047h-2.925v1.427h2.122a2.987,2.987,0,0,0-1.859,1.3,2.528,2.528,0,0,0-.25,1.956,2.742,2.742,0,0,0,1.207,1.59,4.31,4.31,0,0,0,1.8.657v2.114H217.5v1.44h9.357v1.6h2.052v-6.2h1.414v-1.467H228.91Zm-9.3,4.784a1.508,1.508,0,0,1,.472-1.141,1.986,1.986,0,0,1,1.429-.489,2.106,2.106,0,0,1,1.5.516,1.553,1.553,0,0,1,.5,1.168,1.39,1.39,0,0,1-.527,1.1,2.137,2.137,0,0,1-1.469.489,1.983,1.983,0,0,1-1.429-.5,1.535,1.535,0,0,1-.472-1.141" transform="translate(-186.239 -256.574)" fill="#6a6a6a"/><path d="M378.51,300.239a.121.121,0,0,0-.122-.121h-1.93v0h-.724c-.126,0-.119.119-.043.149a1.24,1.24,0,0,1,.767,1.174h0v5.075a1.026,1.026,0,0,0,2.052,0V304.7h1.4V303.2h-1.4Z" transform="translate(-321.645 -256.982)" fill="#6a6a6a"/><path d="M426.238,359.6h-2.052v3.695a.691.691,0,0,0,.691.691h9.692v-1.467h-8.331Z" transform="translate(-363.217 -307.912)" fill="#6a6a6a"/><path d="M421.345,307.187a4.039,4.039,0,0,0,1.9-.435,3.488,3.488,0,0,0,.685-.462h2.795v2.417a1.026,1.026,0,0,0,2.052,0v-8.872a.121.121,0,0,0-.122-.121h-1.93v0H426c-.125,0-.119.119-.043.149a1.24,1.24,0,0,1,.767,1.174h0v.227h-2.163a3.4,3.4,0,0,0-1.261-1.182,4.214,4.214,0,0,0-1.955-.435,3.666,3.666,0,0,0-2.87,1.155,4.083,4.083,0,0,0,0,5.217,3.644,3.644,0,0,0,2.87,1.168m3.743-3.043a3.74,3.74,0,0,0,.07-.721,2.936,2.936,0,0,0-.014-.339,1.788,1.788,0,0,0-.055-.34h1.636v2.079h-1.816a5.274,5.274,0,0,0,.18-.679m-5.074-2.324a1.594,1.594,0,0,1,2.648,0,3.141,3.141,0,0,1,0,3.22,1.593,1.593,0,0,1-2.648,0,3.234,3.234,0,0,1,0-3.22" transform="translate(-357.521 -256.578)" fill="#6a6a6a"/><path d="M520.956,306.291a17.661,17.661,0,0,0,.083-1.848v-2.432H510.393v1.467h8.595v1.549q0,.9-.069,1.59a11.424,11.424,0,0,1-.264,1.549h-8.872v1.467h4.755v5.177h2.038v-5.177h5.074v-1.467h-1.026a10.716,10.716,0,0,0,.333-1.875" transform="translate(-436.511 -258.603)" fill="#6a6a6a"/><path d="M608.88,308.068h2.052v-2.035h4.394v.72h-2.315v1.467h2.315v.65a1.026,1.026,0,0,0,2.052,0v-9.034a.121.121,0,0,0-.122-.121H614.6c-.126,0-.119.119-.043.149a1.241,1.241,0,0,1,.767,1.175h0v3.541h-2.732a3.437,3.437,0,0,0,.472-.3,2.317,2.317,0,0,0,0-3.791,4.823,4.823,0,0,0-3.008-.842,4.761,4.761,0,0,0-2.994.842,2.336,2.336,0,0,0,0,3.791,3.432,3.432,0,0,0,.471.3h-1.76v1.454h3.105Zm-.277-6.587a2.444,2.444,0,0,1,1.455-.38,2.471,2.471,0,0,1,1.469.38,1.1,1.1,0,0,1,.471.924,1.03,1.03,0,0,1-.471.869,2.408,2.408,0,0,1-1.469.394,2.381,2.381,0,0,1-1.455-.394,1.038,1.038,0,0,1-.458-.869,1.135,1.135,0,0,1,.458-.924" transform="translate(-518.707 -256.579)" fill="#6a6a6a"/><path d="M616.988,365.692v-2.385h-2.052v3.162a.691.691,0,0,0,.691.691h9.692v-1.467Z" transform="translate(-526.551 -311.089)" fill="#6a6a6a"/><path d="M24.388,307.685a5,5,0,0,0,2.717-.693,2.725,2.725,0,0,0,1.247-1.563,2.679,2.679,0,0,0-.262-2.01,2.948,2.948,0,0,0-1.928-1.3H28.3v-1.427H25.47v-1.047H23.417v1.047H20.492v1.427h2.122a2.987,2.987,0,0,0-1.859,1.3,2.528,2.528,0,0,0-.25,1.956,2.742,2.742,0,0,0,1.207,1.59,4.725,4.725,0,0,0,2.675.719m-1.429-4.212a1.986,1.986,0,0,1,1.429-.489,2.106,2.106,0,0,1,1.5.516,1.553,1.553,0,0,1,.5,1.168,1.39,1.39,0,0,1-.527,1.1,2.137,2.137,0,0,1-1.468.489,1.983,1.983,0,0,1-1.429-.5,1.534,1.534,0,0,1-.472-1.141,1.508,1.508,0,0,1,.472-1.141" transform="translate(-17.482 -256.573)" fill="#6a6a6a"/><path d="M320.425,307.685a5,5,0,0,0,2.717-.693,2.725,2.725,0,0,0,1.247-1.563,2.68,2.68,0,0,0-.262-2.01,2.948,2.948,0,0,0-1.928-1.3h2.134v-1.427h-2.826v-1.047h-2.053v1.047H316.53v1.427h2.122a2.987,2.987,0,0,0-1.859,1.3,2.528,2.528,0,0,0-.25,1.956,2.742,2.742,0,0,0,1.207,1.59,4.725,4.725,0,0,0,2.675.719M319,303.473a1.986,1.986,0,0,1,1.429-.489,2.106,2.106,0,0,1,1.5.516,1.553,1.553,0,0,1,.5,1.168,1.39,1.39,0,0,1-.527,1.1,2.137,2.137,0,0,1-1.469.489,1.983,1.983,0,0,1-1.429-.5,1.534,1.534,0,0,1-.472-1.141,1.508,1.508,0,0,1,.472-1.141" transform="translate(-270.97 -256.573)" fill="#6a6a6a"/><path d="M323.784,361.064h8.276v3.041h2.052V359.6H323.784Z" transform="translate(-277.247 -307.912)" fill="#6a6a6a"/><path d="M684.193,66.216v4.627a.238.238,0,0,0,.238.238h7.736a.091.091,0,0,1,.091.091v18.45a3.244,3.244,0,0,0,6.488,0V71.092a.091.091,0,0,1,.091-.091h7.784a.238.238,0,0,0,.237-.238V66.216a.238.238,0,0,0-.237-.238H684.431a.238.238,0,0,0-.238.238" transform="translate(-585.853 -56.495)" fill="#6a6a6a"/><path d="M386.447,65.764H383.58c-.5,0-.47.474-.169.592a4.933,4.933,0,0,1,3.035,4.672h0V89.344a3.3,3.3,0,0,0,2.893,3.331,3.209,3.209,0,0,0,3.524-3.194V66.039a.274.274,0,0,0-.275-.275Z" transform="translate(-328.117 -56.312)" fill="#6a6a6a"/><path d="M221.137,92.135l-8.6-10.607a7.594,7.594,0,0,0,6.146-7.418c0-5.048-3.353-8.058-8.084-8.058H194.416c-.433,0-.471.471-.168.587a4.935,4.935,0,0,1,3.03,4.654V89.547a3.34,3.34,0,0,0,2.94,3.373,3.244,3.244,0,0,0,3.545-3.232v-9.3a.087.087,0,0,1,.156-.054l9.564,12.136a.269.269,0,0,0,.211.1h7.231a.269.269,0,0,0,.21-.436M203.855,77.081a.091.091,0,0,1-.091-.091V71.242a.091.091,0,0,1,.091-.091H210.6a2.985,2.985,0,0,1,.019,5.931Z" transform="translate(-166.16 -56.557)" fill="#6a6a6a"/><path d="M485.95,52.083a15.419,15.419,0,0,1,16.425,6.1.21.21,0,0,1-.056.294l-5.288,3.548a.206.206,0,0,1-.283-.053,8.6,8.6,0,1,0,0,10.022.206.206,0,0,1,.283-.053l5.288,3.548a.21.21,0,0,1,.056.294A15.381,15.381,0,0,1,474.961,62.8a4.912,4.912,0,0,1,6.641-6.916,5.191,5.191,0,0,1,3.745-2.1,6.742,6.742,0,0,1,.052-.909,2.17,2.17,0,0,1,.55-.793" transform="translate(-405.993 -44.19)" fill="#009f99"/><path d="M400.673,3.579a3.579,3.579,0,1,1,3.579,3.579,3.579,3.579,0,0,1-3.579-3.579" transform="translate(-343.084 0)" fill="#65bbb1"/><path d="M522.414,85.567a4.969,4.969,0,0,1-.034.583,8.635,8.635,0,0,0-1.666,2.108,5.2,5.2,0,0,1-.659-6.887,4.908,4.908,0,0,1,2.359,4.2" transform="translate(-444.445 -69.675)" fill="#2fa999"/><path d="M557.717,71.317a8.7,8.7,0,0,0-2.507.016,5.32,5.32,0,0,1-3.109-4.7,5.2,5.2,0,0,1,5.616,4.682" transform="translate(-472.747 -57.041)" fill="#2fa999"/><path d="M592.054,238.515a7.3,7.3,0,0,0-1.908.252,7.431,7.431,0,0,0,1.743,3.381,15.283,15.283,0,0,0,4.954-1.839,7.261,7.261,0,0,0-4.789-1.794" transform="translate(-505.324 -204.233)" fill="#0064b6"/><path d="M603.578,61.3a5.321,5.321,0,0,1-3.78,5.093,8.609,8.609,0,0,1,4.546,3.234.206.206,0,0,0,.283.053l5.288-3.546a.21.21,0,0,0,.056-.294,15.445,15.445,0,0,0-6.444-5.288,5.359,5.359,0,0,1,.052.749" transform="translate(-513.589 -51.845)" fill="#009e84"/><path d="M507.51,26.768l2.323,1.34a.353.353,0,0,1,.177.306V31.1a.353.353,0,0,1-.176.306l-2.322,1.341a.353.353,0,0,1-.353,0l-2.323-1.34a.353.353,0,0,1-.176-.306V28.415a.353.353,0,0,1,.177-.306l2.322-1.341a.353.353,0,0,1,.353,0" transform="translate(-432.123 -22.88)" fill="#65bbb1"/><path d="M465.642,33a1.824,1.824,0,1,1-1.824-1.824A1.824,1.824,0,0,1,465.642,33" transform="translate(-395.59 -26.692)" fill="#65bbb1"/><path d="M490.282,12.815a1.451,1.451,0,1,1-1.451-1.451,1.451,1.451,0,0,1,1.451,1.451" transform="translate(-417.329 -9.731)" fill="#65bbb1"/><path d="M600.614,196.4l-5.287-3.548a.206.206,0,0,0-.283.053,8.584,8.584,0,0,1-5.937,3.524,7.518,7.518,0,0,0,0,3.209,7.3,7.3,0,0,1,6.7,1.541,15.477,15.477,0,0,0,4.864-4.484.211.211,0,0,0-.056-.294" transform="translate(-504.286 -165.105)" fill="#0089d2"/><path d="M566.032,243.652a7.432,7.432,0,0,1-1.743-3.381,7.3,7.3,0,0,0-4.34,3.282,15.523,15.523,0,0,0,6.083.1" transform="translate(-479.467 -205.737)" fill="#0089d2"/><path d="M483.452,167.9a8.193,8.193,0,0,0-7.137-1.237,15.387,15.387,0,0,0,8.986,12.572,8.182,8.182,0,0,0,1.141-7.159,8.612,8.612,0,0,1-2.989-4.176" transform="translate(-407.854 -142.424)" fill="#009f99"/><path d="M546.036,209.586a7.476,7.476,0,0,1,.172-1.6,8.7,8.7,0,0,1-1.05.064,8.564,8.564,0,0,1-5.182-1.736,8.18,8.18,0,0,1-1.141,7.159,15.263,15.263,0,0,0,3.035,1,7.3,7.3,0,0,1,4.34-3.282,7.484,7.484,0,0,1-.174-1.609" transform="translate(-461.388 -176.66)" fill="#2fb2cf"/><path d="M478.232,134.78a8.139,8.139,0,0,1,4.819,1.571,8.644,8.644,0,0,1,0-5.384,4.913,4.913,0,0,1-6.633-1.483,15.388,15.388,0,0,0-.576,4.181q0,.733.067,1.448a8.173,8.173,0,0,1,2.318-.333" transform="translate(-407.452 -110.873)" fill="#42afa5"/><path d="M528.38,73.628a4.98,4.98,0,0,0,.034-.583,4.908,4.908,0,0,0-2.359-4.2,5.189,5.189,0,0,1,3.744-2.1,5.32,5.32,0,0,0,3.109,4.7,8.57,8.57,0,0,0-4.528,2.183" transform="translate(-450.445 -57.153)" fill="#42afa5"/><path d="M562.726,53.632a5.321,5.321,0,0,1-3.78,5.093,8.541,8.541,0,0,0-1.239-.268h0a5.2,5.2,0,0,0-5.616-4.682,5.34,5.34,0,0,1,.094-1.153.7.7,0,0,1,.509-.549,15.454,15.454,0,0,1,9.98.81,5.359,5.359,0,0,1,.052.749" transform="translate(-472.736 -44.181)" fill="#42afa5"/><path d="M482.259,84a8.561,8.561,0,0,0-.667,1.511,4.911,4.911,0,1,1,.008-8.4A5.2,5.2,0,0,0,482.259,84" transform="translate(-405.99 -65.421)" fill="#65bbb1"/><path d="M26.992,92.141,16.561,78.971a.084.084,0,0,1,0-.1L25.536,66.5a.273.273,0,0,0-.219-.439H19.1a.39.39,0,0,0-.325.162L9.866,78.641a.09.09,0,0,1-.162-.057V66.327a.272.272,0,0,0-.276-.268H.355a.308.308,0,0,0-.171.585,4.935,4.935,0,0,1,3.03,4.671V89.59A3.316,3.316,0,0,0,6.4,92.942,3.245,3.245,0,0,0,9.7,89.7V80.571a.087.087,0,0,1,.156-.054l9.328,11.95a.269.269,0,0,0,.212.1h7.378a.269.269,0,0,0,.214-.43" transform="translate(0 -56.564)" fill="#6a6a6a"/><path d="M25.7,406.082h-.62l-1.118,1.39v-1.39h-.547v3.107h.547v-.939l.428-.522.844,1.461h.612l-1.117-1.9Z" transform="translate(-20.046 -347.716)" fill="#6a6a6a"/><path d="M41.839,411.024a1.232,1.232,0,1,0,1.1,1.231,1.132,1.132,0,0,0-1.1-1.231m.548,1.231c0,.463-.215.763-.548.763s-.544-.3-.544-.763.213-.771.544-.771.548.3.548.771" transform="translate(-34.881 -351.947)" fill="#6a6a6a"/><path d="M60.612,411.024a.785.785,0,0,0-.63.41l-.032-.353H59.5v2.339h.539v-1.444c.169-.415.419-.46.519-.46a.638.638,0,0,1,.217.035l.036.011.1-.476-.024-.011a.6.6,0,0,0-.271-.053" transform="translate(-50.945 -351.947)" fill="#6a6a6a"/><path d="M70.88,411.023a1.232,1.232,0,0,0,.07,2.451,1.418,1.418,0,0,0,.787-.245l.026-.017-.2-.361-.031.02a.924.924,0,0,1-.522.164.648.648,0,0,1-.664-.625h1.463l.006-.026a1.252,1.252,0,0,0,.022-.247c0-.7-.358-1.112-.959-1.112m.482.991H70.345a.571.571,0,0,1,.543-.551c.3,0,.463.2.473.551" transform="translate(-59.775 -351.946)" fill="#6a6a6a"/><path d="M86.854,411.024a1.759,1.759,0,0,0-.935.3l-.027.017.211.382.031-.02a1.193,1.193,0,0,1,.638-.226c.255,0,.385.141.4.431-.951.108-1.358.37-1.358.873a.66.66,0,0,0,.7.691,1.128,1.128,0,0,0,.709-.292l.038.238h.451v-1.4c0-.652-.3-1-.86-1m.317,1.258v.5a.749.749,0,0,1-.511.245c-.146,0-.321-.048-.321-.28,0-.168.1-.372.832-.469" transform="translate(-73.478 -351.947)" fill="#6a6a6a"/><path d="M112.164,407c0-.6-.392-.914-1.132-.914H110v3.107h.547v-1.226h.437l.689,1.226h.62l-.752-1.3a.872.872,0,0,0,.62-.891m-1.615-.461h.424c.454,0,.647.138.647.461,0,.342-.218.515-.647.515h-.424Z" transform="translate(-94.191 -347.716)" fill="#6a6a6a"/><path d="M128.167,411.023a1.232,1.232,0,0,0,.07,2.451,1.419,1.419,0,0,0,.787-.245l.026-.017-.2-.361-.031.02a.924.924,0,0,1-.522.164.648.648,0,0,1-.664-.625H129.1l.006-.026a1.255,1.255,0,0,0,.022-.247c0-.7-.359-1.112-.959-1.112m-.535.991a.572.572,0,0,1,.543-.551c.3,0,.463.2.473.551Z" transform="translate(-108.828 -351.946)" fill="#6a6a6a"/><path d="M143.8,412.029l-.042-.015c-.225-.082-.419-.153-.419-.312s.123-.247.329-.247a.811.811,0,0,1,.488.192l.027.02.264-.347-.027-.021a1.221,1.221,0,0,0-.76-.276c-.5,0-.84.281-.84.7,0,.436.436.6.67.693l.024.009c.235.09.457.175.457.351s-.134.272-.366.272a.959.959,0,0,1-.623-.253l-.028-.022-.263.36.025.021a1.438,1.438,0,0,0,.876.322c.62,0,.9-.363.9-.724,0-.461-.383-.606-.691-.721" transform="translate(-122.185 -351.947)" fill="#6a6a6a"/><path d="M158.188,411.023a1.232,1.232,0,0,0,.07,2.451,1.419,1.419,0,0,0,.787-.245l.026-.017-.2-.361-.031.02a.925.925,0,0,1-.522.164.648.648,0,0,1-.664-.625h1.463l.006-.026a1.256,1.256,0,0,0,.022-.247c0-.7-.358-1.112-.959-1.112m.482.991h-1.017a.572.572,0,0,1,.543-.551c.3,0,.463.2.473.551" transform="translate(-134.534 -351.946)" fill="#6a6a6a"/><path d="M174.161,411.024a1.758,1.758,0,0,0-.935.3l-.027.017.211.382.031-.02a1.193,1.193,0,0,1,.638-.226c.255,0,.386.141.4.431-.951.108-1.358.37-1.358.873a.66.66,0,0,0,.7.691,1.128,1.128,0,0,0,.709-.292l.038.238h.451v-1.4c0-.652-.3-1-.86-1m.317,1.258v.5a.749.749,0,0,1-.511.245c-.146,0-.321-.048-.321-.28,0-.168.1-.372.832-.469" transform="translate(-148.236 -351.947)" fill="#6a6a6a"/><path d="M191.674,411.024a.785.785,0,0,0-.63.411l-.032-.353h-.453v2.339h.539v-1.444c.169-.415.419-.46.519-.46a.639.639,0,0,1,.217.035l.036.011.1-.476-.024-.011a.6.6,0,0,0-.271-.053" transform="translate(-163.169 -351.947)" fill="#6a6a6a"/><path d="M202.511,412.82a.734.734,0,0,1-.473.2c-.362,0-.606-.307-.606-.763s.254-.771.618-.771a.555.555,0,0,1,.386.169l.027.025.277-.364-.024-.021a1.009,1.009,0,0,0-.687-.268,1.156,1.156,0,0,0-1.157,1.231,1.11,1.11,0,0,0,1.12,1.219,1.147,1.147,0,0,0,.758-.289l.021-.019-.23-.372Z" transform="translate(-172 -351.947)" fill="#6a6a6a"/><path d="M218.069,405.292a1.033,1.033,0,0,0-.7.312l.013-.369v-.905h-.539v3.359h.539v-1.63a.731.731,0,0,1,.523-.29c.21,0,.35.088.35.515v1.4h.543v-1.463c0-.62-.246-.934-.732-.934" transform="translate(-185.679 -346.215)" fill="#6a6a6a"/><rect width="0.547" height="3.107" transform="translate(34.702 58.366)" fill="#6a6a6a"/><path d="M251.25,411.024a1.082,1.082,0,0,0-.737.345l-.034-.287h-.453v2.339h.539v-1.63a.731.731,0,0,1,.523-.29c.21,0,.35.088.35.515v1.4h.543v-1.463c0-.62-.246-.934-.732-.934" transform="translate(-214.09 -351.947)" fill="#6a6a6a"/><path d="M267.308,412.029l-.041-.015c-.225-.082-.42-.153-.42-.312s.123-.247.329-.247a.81.81,0,0,1,.488.192l.027.02.264-.347-.027-.021a1.22,1.22,0,0,0-.76-.276c-.5,0-.839.281-.839.7,0,.436.436.6.67.693l.024.009c.235.09.457.175.457.351s-.134.272-.367.272a.959.959,0,0,1-.623-.253l-.028-.022-.263.36.025.021a1.437,1.437,0,0,0,.877.322c.62,0,.9-.363.9-.724,0-.461-.383-.606-.691-.721" transform="translate(-227.94 -351.947)" fill="#6a6a6a"/><path d="M280.732,409.581a.646.646,0,0,1-.23.051c-.208,0-.3-.113-.3-.379v-1.118h.59v-.448h-.59v-.628h-.466l-.054.63-.353.025v.421h.33v1.114c0,.559.237.831.724.831a1.5,1.5,0,0,0,.456-.084l.03-.01-.1-.421Z" transform="translate(-239.183 -348.552)" fill="#6a6a6a"/><rect width="0.539" height="2.339" transform="translate(42.04 59.134)" fill="#6a6a6a"/><path d="M292.364,404.56a.312.312,0,0,0-.335.315.338.338,0,1,0,.335-.315" transform="translate(-250.055 -346.412)" fill="#6a6a6a"/><path d="M300.353,409.581a.647.647,0,0,1-.23.051c-.208,0-.3-.113-.3-.379v-1.118h.59v-.448h-.59v-.628h-.466l-.054.63-.353.025v.421h.33v1.114c0,.559.237.831.724.831a1.5,1.5,0,0,0,.456-.084l.03-.01-.1-.421Z" transform="translate(-255.984 -348.552)" fill="#6a6a6a"/><path d="M313.31,413.025c-.187.233-.321.316-.511.316-.207,0-.346-.087-.346-.511v-1.4h-.543v1.463c0,.617.245.93.728.93a.949.949,0,0,0,.729-.363l.034.309h.453v-2.339h-.543Z" transform="translate(-267.079 -352.291)" fill="#6a6a6a"/><path d="M329.542,409.581a.645.645,0,0,1-.23.051c-.208,0-.3-.113-.3-.379v-1.118h.59v-.448h-.59v-.628h-.466l-.054.63-.354.025v.421h.33v1.114c0,.559.237.831.724.831a1.5,1.5,0,0,0,.456-.084l.03-.01-.1-.421Z" transform="translate(-280.978 -348.552)" fill="#6a6a6a"/><path d="M340.762,411.023a1.232,1.232,0,0,0,.07,2.451,1.418,1.418,0,0,0,.787-.245l.026-.017-.2-.361-.031.02a.924.924,0,0,1-.522.164.648.648,0,0,1-.664-.625h1.463l.006-.026a1.258,1.258,0,0,0,.022-.247c0-.7-.358-1.112-.959-1.112m.482.991h-1.017a.572.572,0,0,1,.543-.551c.3,0,.463.2.473.551" transform="translate(-290.867 -351.946)" fill="#6a6a6a"/><path d="M363.489,411.024a1.232,1.232,0,1,0,1.1,1.231,1.132,1.132,0,0,0-1.1-1.231m.548,1.231c0,.463-.215.763-.548.763s-.544-.3-.544-.763.214-.771.544-.771.548.3.548.771" transform="translate(-310.299 -351.947)" fill="#6a6a6a"/><path d="M380.513,403.957c-.485,0-.753.292-.753.823v.253l-.31.025v.421h.31v1.891h.543v-1.891h.458v-.448H380.3v-.255c0-.336.152-.375.267-.375a.59.59,0,0,1,.234.055l.036.016.113-.422-.027-.012a1.069,1.069,0,0,0-.414-.081" transform="translate(-324.912 -345.896)" fill="#6a6a6a"/><path d="M398.623,408.1a.853.853,0,0,1-.648.311c-.519,0-.841-.433-.841-1.13,0-.679.335-1.118.854-1.118a.774.774,0,0,1,.57.262l.026.027.3-.357-.02-.022a1.2,1.2,0,0,0-.888-.395,1.457,1.457,0,0,0-1.4,1.62,1.422,1.422,0,0,0,1.384,1.6,1.24,1.24,0,0,0,.971-.449l.019-.022-.3-.353Z" transform="translate(-339.574 -347.372)" fill="#6a6a6a"/><path d="M417.217,405.292a1.033,1.033,0,0,0-.7.312l.013-.369v-.905h-.539v3.359h.539v-1.63a.731.731,0,0,1,.523-.29c.21,0,.35.088.35.515v1.4h.543v-1.463c0-.62-.246-.934-.732-.934" transform="translate(-356.203 -346.215)" fill="#6a6a6a"/><path d="M433.785,411.023a1.232,1.232,0,0,0,.07,2.451,1.419,1.419,0,0,0,.787-.245l.026-.017-.2-.361-.031.02a.925.925,0,0,1-.522.164.648.648,0,0,1-.664-.625h1.463l.006-.026a1.256,1.256,0,0,0,.022-.247c0-.7-.359-1.112-.959-1.112m-.535.991a.572.572,0,0,1,.543-.551c.3,0,.463.2.473.551Z" transform="translate(-370.521 -351.946)" fill="#6a6a6a"/><path d="M452.607,411.024a1.04,1.04,0,0,0-.728.389.634.634,0,0,0-.639-.389.993.993,0,0,0-.687.345l-.034-.288h-.452v2.339h.539V411.79a.732.732,0,0,1,.478-.289c.245,0,.346.149.346.515v1.4h.543V411.79a.721.721,0,0,1,.478-.289c.171,0,.346.061.346.515v1.4h.543v-1.463c0-.611-.253-.934-.732-.934" transform="translate(-385.379 -351.947)" fill="#6a6a6a"/><path d="M477.005,404.56a.312.312,0,0,0-.335.315.338.338,0,1,0,.335-.315" transform="translate(-408.158 -346.412)" fill="#6a6a6a"/><rect width="0.539" height="2.339" transform="translate(68.578 59.134)" fill="#6a6a6a"/><path d="M485.893,412.82a.734.734,0,0,1-.473.2c-.363,0-.606-.307-.606-.763s.254-.771.618-.771a.555.555,0,0,1,.386.169l.027.025.277-.364-.024-.021a1.009,1.009,0,0,0-.687-.268,1.156,1.156,0,0,0-1.157,1.231,1.11,1.11,0,0,0,1.12,1.219,1.146,1.146,0,0,0,.758-.289l.021-.019-.23-.372Z" transform="translate(-414.652 -351.947)" fill="#6a6a6a"/><path d="M500.035,411.024a1.759,1.759,0,0,0-.935.3l-.027.017.211.382.031-.02a1.193,1.193,0,0,1,.638-.226c.255,0,.386.141.4.431-.951.108-1.357.37-1.357.873a.66.66,0,0,0,.7.691,1.128,1.128,0,0,0,.709-.292l.038.238h.451v-1.4c0-.652-.3-1-.86-1m.317,1.258v.5a.749.749,0,0,1-.511.245c-.146,0-.321-.048-.321-.28,0-.168.1-.372.832-.469" transform="translate(-427.272 -351.947)" fill="#6a6a6a"/><rect width="0.539" height="3.359" transform="translate(74.227 58.115)" fill="#6a6a6a"/><path d="M532.182,406.082h-2.335v.469h.892v2.638h.547v-2.638h.9Z" transform="translate(-453.692 -347.716)" fill="#6a6a6a"/><path d="M546.69,411.023a1.232,1.232,0,0,0,.07,2.451,1.418,1.418,0,0,0,.787-.245l.026-.017-.2-.361-.031.02a.925.925,0,0,1-.522.164.648.648,0,0,1-.664-.625h1.463l.006-.026a1.251,1.251,0,0,0,.022-.247c0-.7-.358-1.112-.959-1.112m.482.991h-1.016a.571.571,0,0,1,.543-.551c.3,0,.463.2.473.551" transform="translate(-467.198 -351.946)" fill="#6a6a6a"/><path d="M563.49,412.82a.734.734,0,0,1-.473.2c-.362,0-.606-.307-.606-.763s.254-.771.618-.771a.555.555,0,0,1,.386.169l.027.025.277-.364-.024-.021a1.009,1.009,0,0,0-.687-.268,1.156,1.156,0,0,0-1.157,1.231,1.11,1.11,0,0,0,1.12,1.219,1.147,1.147,0,0,0,.758-.289l.021-.019-.23-.372Z" transform="translate(-481.096 -351.947)" fill="#6a6a6a"/><path d="M579.047,405.292a1.033,1.033,0,0,0-.7.312l.013-.369v-.905h-.539v3.359h.539v-1.63a.732.732,0,0,1,.523-.29c.21,0,.35.088.35.515v1.4h.543v-1.463c0-.62-.246-.934-.732-.934" transform="translate(-494.773 -346.215)" fill="#6a6a6a"/><path d="M596.888,411.024a1.082,1.082,0,0,0-.737.345l-.034-.287h-.453v2.339h.539v-1.63a.731.731,0,0,1,.523-.29c.21,0,.35.088.35.515v1.4h.543v-1.463c0-.62-.246-.934-.732-.934" transform="translate(-510.05 -351.947)" fill="#6a6a6a"/><path d="M613.576,411.024a1.232,1.232,0,1,0,1.1,1.231,1.132,1.132,0,0,0-1.1-1.231m.548,1.231c0,.463-.215.763-.548.763s-.544-.3-.544-.763.214-.771.544-.771.548.3.548.771" transform="translate(-524.441 -351.947)" fill="#6a6a6a"/><rect width="0.539" height="3.359" transform="translate(90.647 58.115)" fill="#6a6a6a"/><path d="M638.652,411.024a1.232,1.232,0,1,0,1.1,1.231,1.132,1.132,0,0,0-1.1-1.231m.548,1.231c0,.463-.215.763-.548.763s-.544-.3-.544-.763.214-.771.544-.771.548.3.548.771" transform="translate(-545.913 -351.947)" fill="#6a6a6a"/><path d="M672.068,414.715c.55,0,.777-.422.928-.836l.85-2.453h-.536l-.371,1.194-.157.566c-.033-.1-.065-.2-.1-.3s-.057-.18-.086-.266l-.429-1.191h-.562l.914,2.29-.042.144c-.09.267-.239.4-.443.4h-.109v.452Z" transform="translate(-575.078 -352.291)" fill="#6a6a6a"/><path d="M656.836,411.078v.1a.036.036,0,0,1-.021.032.035.035,0,0,1-.038,0c-.021-.017-.041-.032-.062-.046a.9.9,0,0,0-.5-.138.922.922,0,0,0-.718.339,1.353,1.353,0,0,0-.3.924,1.19,1.19,0,0,0,.3.9,1.055,1.055,0,0,0,1.142.187.752.752,0,0,0,.179-.128,1.2,1.2,0,0,1-.068.432.638.638,0,0,1-.873.158.35.35,0,0,1-.092-.2l-.009-.055h-.511l.006.071a.7.7,0,0,0,.307.558,1.17,1.17,0,0,0,.649.173.972.972,0,0,0,.948-.492,1.584,1.584,0,0,0,.133-.707v-2.113Zm-.007,1.165a1.1,1.1,0,0,1-.088.46.525.525,0,0,1-.518.33.442.442,0,0,1-.366-.174.874.874,0,0,1-.143-.542,1.4,1.4,0,0,1,.076-.5.481.481,0,0,1,.489-.333.491.491,0,0,1,.39.179h0a.88.88,0,0,1,.16.58" transform="translate(-561.028 -351.947)" fill="#6a6a6a"/></g></g></g></g></svg>