<svg xmlns="http://www.w3.org/2000/svg" width="133.832" height="30.746" viewBox="0 0 133.832 30.746"><defs><style>.a{fill:#fff;}.b{fill:#050605;}.c{fill:orange;}.d{fill:#fe3200;}.e{fill:none;}.f,.g{stroke:none;}.g{fill:#070303;}</style></defs><g transform="translate(-656.831 -93.015)"><g transform="translate(656.831 98.117)"><g class="a" transform="translate(15.959 15.146) rotate(135)"><path class="f" d="M0,0,.931.01l.219,21.41-.931-.01Z"/><path class="g" d="M -1.668930053710938e-06 0 L 0.9308583736419678 0.009519577026367188 L 1.149818420410156 21.41921997070312 L 0.2189583778381348 21.40970039367676 L -1.668930053710938e-06 0 Z"/></g><g class="a" transform="translate(15.146 0) rotate(45)"><path class="f" d="M.219.01,1.15,0,.931,21.41,0,21.419Z"/><path class="g" d="M 1.149818301200867 -1.9073486328125e-06 L 0.930858314037323 21.40969848632812 L -1.668930053710938e-06 21.41921997070312 L 0.21895831823349 0.009519577026367188 L 1.149818301200867 -1.9073486328125e-06 Z"/></g></g><g transform="translate(356.85 -4252.985)"><path class="b" d="M81.576,32.29V23.131c0-1.685-.8-2.8-2.386-2.8-1.526,0-2.416,1.113-2.416,2.8V32.29H72.321V16.9h4.453v1.4h.032a4.724,4.724,0,0,1,3.975-1.749c3.4,0,5.248,2.354,5.248,5.725V32.29Z" transform="translate(282.588 4335.346)"/><path class="b" d="M249,3.814h0V.03h4.448V3.814Zm0,17.841h0V6.263h4.448V21.655Z" transform="translate(168.832 4345.981)"/><path class="b" d="M276.5,24.72c-3.566,0-4.9-1.59-4.9-5.12V12.413H270V9.137h1.6V4.494h4.414V9.137H278.5v3.276H276.01v7c0,1.145.39,1.526,1.405,1.526h1.08V24.72Z" transform="translate(155.316 4343.107)"/><path class="b" d="M208.221,32.923V31.492h-.033a4.6,4.6,0,0,1-3.942,1.781c-3.4,0-5.185-2.386-5.185-5.724V17.531h4.453V26.69c0,1.654.794,2.8,2.353,2.8,1.524,0,2.353-1.114,2.353-2.8V17.531h4.453V32.923Z" transform="translate(200.987 4334.712)"/><path class="b" d="M126.169,32.515c5.28,0,6.848-3.594,6.848-6.189h-4.459a2.19,2.19,0,0,1-2.389,2.364A2.323,2.323,0,0,1,123.784,27a8.369,8.369,0,0,1-.286-2.69,8.371,8.371,0,0,1,.286-2.691,2.323,2.323,0,0,1,2.385-1.685,2.19,2.19,0,0,1,2.389,2.364h4.459c0-2.6-1.568-6.189-6.848-6.189-3.245,0-5.788,1.556-6.677,4.408a12.133,12.133,0,0,0-.509,3.793,12.139,12.139,0,0,0,.509,3.792c.89,2.852,3.432,4.409,6.677,4.409" transform="translate(252.545 4335.625)"/><path class="b" d="M166.848,17.455h4.1v2.95c.955-2.78,3.795-3.084,5.22-2.974v4.4c-.859-.077-3.252-.359-4.357,1.346a4.633,4.633,0,0,0-.47,2.477v7.188h-4.49Z" transform="translate(221.728 4334.789)"/><rect class="b" width="4.555" height="21.636" transform="translate(346.232 4346)"/><path class="c" d="M26.936,61.185V54.352H22.38V65.74H33.768V61.185Z" transform="translate(314.741 4311.006)"/><path class="d" d="M6.263,0a6.263,6.263,0,1,0,6.263,6.263A6.263,6.263,0,0,0,6.263,0m0,8.419A2.156,2.156,0,1,1,8.419,6.263,2.159,2.159,0,0,1,6.263,8.419" transform="translate(329.15 4346)"/><rect class="e" width="104.663" height="30.746" transform="translate(329.15 4346)"/></g></g></svg>