<svg xmlns="http://www.w3.org/2000/svg" xmlns:xlink="http://www.w3.org/1999/xlink" width="257" height="87" viewBox="0 0 257 87"><defs><clipPath id="a"><rect width="257" height="87" transform="translate(757 508)" fill="#ffaeae"/></clipPath><clipPath id="b"><rect width="230.671" height="24.136" fill="none"/></clipPath></defs><g transform="translate(-757 -508)"><g clip-path="url(#a)"><g transform="translate(770 539)"><path d="M148.054,28.907l-1.077,1.879-.013,0V28.907l-.918,0,0,4.389h.915V31.046h.011l1.057,2.252h1.032l-1.231-2.421,1.231-1.97Z" transform="translate(-46.666 -9.237)" fill="#626768"/><g transform="translate(0 0)"><g clip-path="url(#b)"><path d="M152.554,32.681c-.517-.005-.585-.493-.585-1.617s.066-1.612.583-1.612.58.485.58,1.612-.064,1.611-.578,1.617m0,.655c1.515,0,1.513-1.125,1.513-2.273s0-2.268-1.516-2.268-1.512,1.107-1.511,2.269,0,2.272,1.513,2.272" transform="translate(-48.262 -9.201)" fill="#626768"/><path d="M157.451,29.578h.407c.293,0,.468.157.468.576,0,.28-.1.642-.465.642h-.413Zm0,1.9.239,0c.7,0,.652.44.655.964a2,2,0,0,0,.1.849h.9A6.171,6.171,0,0,1,159.238,32a.777.777,0,0,0-.8-.86v-.016a.95.95,0,0,0,.819-1.075c-.006-.746-.4-1.144-1.034-1.144h-1.7l0,4.387h.917Z" transform="translate(-50.016 -9.235)" fill="#626768"/><path d="M161.53,33.288l0-4.387,2.4-.006,0,.68-1.476-.005v1.085l1.364,0,0,.675-1.364.007v1.28l1.527-.006v.681Z" transform="translate(-51.612 -9.233)" fill="#626768"/><path d="M167.72,31.636h-.875l.418-1.9h.012Zm-1.308,1.652.246-.981,1.257.006.243.975.969,0L167.933,28.9h-1.214l-1.211,4.389Z" transform="translate(-52.884 -9.233)" fill="#626768"/><path d="M173.439,33.282V28.887h2.4v.679h-1.477l0,1.08h1.362v.674h-1.364l0,1.285h1.531v.677Z" transform="translate(-55.418 -9.23)" fill="#626768"/><path d="M177.919,33.279l-.006-4.392h.921l0,3.666,1.374,0v.728Z" transform="translate(-56.848 -9.23)" fill="#626768"/><path d="M181.875,33.279l0-4.392h2.395l0,.674h-1.479v1.085l1.361-.006v.68h-1.361l0,1.282h1.526v.675Z" transform="translate(-58.113 -9.23)" fill="#626768"/><path d="M186.284,31.041c0-1.161,0-2.269,1.513-2.269.934,0,1.312.519,1.277,1.462h-.9c0-.582-.1-.8-.373-.8-.516,0-.587.49-.584,1.611s.068,1.612.585,1.615c.425,0,.406-.553.421-.895l.9-.005c0,1.173-.466,1.556-1.321,1.557-1.512,0-1.515-1.122-1.515-2.272" transform="translate(-59.523 -9.193)" fill="#626768"/><path d="M193.766,28.882v.729h-1.024l0,3.658-.923,0V29.611h-1.016v-.727Z" transform="translate(-60.968 -9.228)" fill="#626768"/><path d="M196.673,29.558h.4c.3,0,.472.15.472.57,0,.283-.1.651-.468.647l-.4,0Zm0,1.9h.237c.7,0,.655.441.653.97a2.019,2.019,0,0,0,.1.845h.9a6.2,6.2,0,0,1-.1-1.288.779.779,0,0,0-.8-.864l0-.014a.946.946,0,0,0,.818-1.073c0-.751-.4-1.147-1.03-1.147h-1.7l0,4.386h.922Z" transform="translate(-62.548 -9.228)" fill="#626768"/><path d="M202.208,32.648c-.521,0-.586-.485-.586-1.612s.063-1.613.583-1.613.58.489.58,1.613-.067,1.612-.578,1.612m0,.657c1.507,0,1.507-1.121,1.507-2.269s0-2.266-1.512-2.266-1.516,1.107-1.512,2.266,0,2.269,1.517,2.269" transform="translate(-64.127 -9.193)" fill="#626768"/><path d="M208.658,28.873V29.6h-1.021v3.662h-.915l-.006-3.662H205.7l0-.729Z" transform="translate(-65.724 -9.225)" fill="#626768"/><path d="M210.682,33.26l0-4.388h2.4l0,.672-1.477,0v1.084h1.36V31.3H211.6v1.283h1.527v.676Z" transform="translate(-67.318 -9.225)" fill="#626768"/><path d="M215.092,31.032c0-1.162-.008-2.265,1.51-2.265.933-.007,1.311.51,1.277,1.454h-.9c0-.58-.1-.8-.376-.8-.52,0-.587.49-.587,1.612s.071,1.613.587,1.609c.422,0,.4-.546.416-.9h.912c0,1.177-.47,1.553-1.328,1.553-1.51,0-1.515-1.118-1.51-2.265" transform="translate(-68.728 -9.192)" fill="#626768"/><path d="M222.131,30.621V28.864l.916,0,0,4.393-.918,0V31.3l-1.051,0v1.959h-.915l0-4.391h.912l.006,1.755Z" transform="translate(-70.347 -9.222)" fill="#626768"/><path d="M225.58,33.254l0-4.391h1.246l1.168,3.042H228V28.859h.857v4.393h-1.211l-1.2-3.215h-.012l0,3.213Z" transform="translate(-72.078 -9.221)" fill="#626768"/><path d="M232.984,32.629c-.514,0-.584-.484-.584-1.609s.069-1.613.584-1.613.584.485.587,1.608-.07,1.614-.587,1.614m0,.657c1.512,0,1.512-1.119,1.509-2.266,0-1.163,0-2.274-1.515-2.274s-1.511,1.114-1.511,2.274,0,2.266,1.517,2.266" transform="translate(-73.961 -9.185)" fill="#626768"/><path d="M237,33.247l0-4.388h.921v3.659H239.3v.729Z" transform="translate(-75.728 -9.221)" fill="#626768"/><path d="M242.411,32.623c-.519,0-.58-.483-.58-1.61s.062-1.611.58-1.613.585.485.585,1.613-.068,1.61-.585,1.61m0,.655c1.513,0,1.513-1.121,1.512-2.265,0-1.161,0-2.272-1.517-2.272s-1.513,1.111-1.512,2.272,0,2.267,1.517,2.265" transform="translate(-76.974 -9.183)" fill="#626768"/><path d="M248.405,30.161c.006-.4-.064-.763-.551-.763-.565,0-.569.774-.569,1.626,0,1.373.137,1.617.657,1.615a1.411,1.411,0,0,0,.458-.084v-.976h-.5V30.9l1.421,0V33.13a8.194,8.194,0,0,1-1.241.148c-1.553,0-1.725-.638-1.725-2.307,0-1.105.056-2.23,1.556-2.23a1.26,1.26,0,0,1,1.411,1.42Z" transform="translate(-78.717 -9.183)" fill="#626768"/><path d="M252.531,31.715l-1.15-2.867,1,0,.661,1.85.69-1.855h.942l-1.232,2.868,0,1.524h-.918Z" transform="translate(-80.323 -9.217)" fill="#626768"/><path d="M259.955,29.512l.407,0c.293,0,.465.154.465.576,0,.28-.1.646-.465.644h-.407Zm0,1.9.238,0c.7,0,.66.441.655.964a2.019,2.019,0,0,0,.1.85h.893a6.354,6.354,0,0,1-.1-1.284.786.786,0,0,0-.8-.866v-.011a.942.942,0,0,0,.815-1.072c0-.749-.4-1.149-1.023-1.149l-1.7,0,0,4.38.912-.005Z" transform="translate(-82.77 -9.213)" fill="#626768"/><path d="M264.031,33.229l-.008-4.384h2.394v.673h-1.476V30.6H266.3v.674h-1.362v1.284h1.526v.667Z" transform="translate(-84.363 -9.217)" fill="#626768"/><path d="M269.622,33.266c-1.134,0-1.347-.67-1.3-1.427h.916c0,.415.018.769.525.771a.441.441,0,0,0,.458-.5c0-.788-1.844-.835-1.844-2.143,0-.684.323-1.23,1.441-1.23.893,0,1.338.4,1.277,1.317H270.2c0-.332-.052-.662-.425-.662a.427.427,0,0,0-.474.47c0,.83,1.847.757,1.849,2.137,0,1.138-.834,1.266-1.531,1.27" transform="translate(-85.735 -9.181)" fill="#626768"/><path d="M273.443,33.22V28.844l2.4,0v.673h-1.477l0,1.08,1.356-.005v.675h-1.355l0,1.288,1.526,0v.672Z" transform="translate(-87.372 -9.215)" fill="#626768"/><path d="M279.623,31.576h-.871l.416-1.9.012,0Zm-1.3,1.639.249-.963,1.251,0,.242.968h.963l-1.187-4.382-1.21,0-1.211,4.38Z" transform="translate(-88.643 -9.213)" fill="#626768"/><path d="M284.242,29.509h.408c.286,0,.465.154.468.575,0,.278-.1.644-.468.644h-.408Zm0,1.9h.237c.7,0,.657.441.655.964a2.023,2.023,0,0,0,.1.847h.9a5.6,5.6,0,0,1-.108-1.285.778.778,0,0,0-.795-.862v-.012a.944.944,0,0,0,.809-1.077c0-.745-.4-1.147-1.022-1.143h-1.7v4.38h.92Z" transform="translate(-90.529 -9.213)" fill="#626768"/><path d="M288.25,30.987c0-1.161,0-2.266,1.507-2.27.939,0,1.315.523,1.282,1.461h-.906c0-.582-.1-.8-.369-.8-.521,0-.59.485-.584,1.607s.065,1.61.584,1.611c.421,0,.4-.553.414-.895h.905c.006,1.17-.464,1.544-1.319,1.55-1.513,0-1.513-1.118-1.515-2.265" transform="translate(-92.104 -9.176)" fill="#626768"/><path d="M295.281,30.58V28.825h.918v4.382l-.919,0V31.255l-1.047,0v1.96h-.913l0-4.384h.918V30.58Z" transform="translate(-93.723 -9.21)" fill="#626768"/><rect width="0.914" height="4.384" transform="translate(204.622 19.613)" fill="#626768"/><path d="M303.192,33.205V28.819h1.234l1.174,3.038h0V28.819h.857V33.2l-1.208,0L304.06,30h-.01v3.208Z" transform="translate(-96.878 -9.208)" fill="#626768"/><path d="M310.272,33.24c-1.137,0-1.35-.67-1.3-1.428h.918c0,.418.013.771.518.771a.442.442,0,0,0,.463-.5c0-.786-1.841-.835-1.847-2.146,0-.68.332-1.226,1.445-1.231.889,0,1.339.406,1.276,1.318h-.894c0-.327-.05-.658-.423-.658a.425.425,0,0,0-.474.468c0,.828,1.845.757,1.845,2.137,0,1.132-.827,1.266-1.525,1.268" transform="translate(-98.722 -9.172)" fill="#626768"/><path d="M316.537,28.813v.73h-1.021l0,3.655H314.6V29.543H313.58v-.73Z" transform="translate(-100.197 -9.206)" fill="#626768"/><rect width="0.916" height="4.383" transform="translate(216.765 19.607)" fill="#626768"/><path d="M323.479,28.813l0,.73-1.021-.006V33.2l-.913,0,0-3.651-1.023-.006v-.724Z" transform="translate(-102.414 -9.206)" fill="#626768"/><path d="M328.442,28.807l0,3.108a1.312,1.312,0,0,1-1.491,1.351c-1,0-1.487-.525-1.492-1.346V28.811l.916,0v3.049c0,.542.231.751.567.749.4,0,.585-.265.585-.749l-.006-3.049Z" transform="translate(-103.995 -9.204)" fill="#626768"/><path d="M333.386,28.807l0,.726H332.37v3.652l-.918,0,0-3.655h-1.019v-.728Z" transform="translate(-105.581 -9.204)" fill="#626768"/><path d="M335.4,33.187v-4.38h2.395v.67h-1.475l0,1.082h1.366l0,.672h-1.359v1.28h1.522v.676Z" transform="translate(-107.169 -9.204)" fill="#626768"/><path d="M183.582,11.54l6.154,0,.008,6.181h-2.229V13.382l-12.227,0,0-1.846h6.075l0-2.479-6.927.008V7.219l12.374,0a1.514,1.514,0,0,0,.142-.247,2.484,2.484,0,0,0,.2-.572,4.122,4.122,0,0,0,.129-.763c.015-.214.018-.471.015-.765V2.735l-12.01.005,0-1.841L189.519.89V3.23c0,.319,0,.517-.01,1.038a8.28,8.28,0,0,1-.116,1.375,6.605,6.605,0,0,1-.246,1.136c-.093.263-.146.406-.162.436l1.6,0,0,1.845-7.01,0Z" transform="translate(-55.735 -0.284)" fill="#282829"/><path d="M214.24,8.4a11.319,11.319,0,0,1-1.725-1.242,6.7,6.7,0,0,1-1.46-1.741,3.974,3.974,0,0,1-.558-2.171V2.52h3.7V.709l-9.644,0V2.527l3.7-.007v.728a4.07,4.07,0,0,1-.553,2.175,6.857,6.857,0,0,1-1.461,1.744,10.908,10.908,0,0,1-1.73,1.238c-.439.235-.671.358-.7.375l.641,1.72c.013-.015.213-.087.589-.235a6.693,6.693,0,0,0,1.257-.653,11.739,11.739,0,0,0,2.2-1.762c.529-.553.844-.9.874-.934.026.037.342.378.87.934a11.816,11.816,0,0,0,2.205,1.758,6.587,6.587,0,0,0,1.257.652c.382.146.577.22.591.235l.639-1.719c-.029-.02-.265-.144-.7-.374" transform="translate(-65.125 -0.226)" fill="#282829"/><path d="M232.908,2.921h6.886V6.8a7.75,7.75,0,0,1-1.326,4.327,10.227,10.227,0,0,1-2.563,2.14,9.115,9.115,0,0,1-2.183,1.047c-.594.163-.881.276-.895.276l.644,1.762c.044-.012.537-.187,1.223-.427a19.7,19.7,0,0,0,2.133-.91,10.407,10.407,0,0,0,3.813-3.154,9.309,9.309,0,0,0,1.381-5.36l0-5.421-9.112.005Z" transform="translate(-74.395 -0.345)" fill="#282829"/><path d="M304.087,8.788v1.843H297l0,7.088-2.222,0V10.631l-7.016.007V8.795l12.28-.009c.016-.025.077-.171.192-.437a4.226,4.226,0,0,0,.252-.872,4.477,4.477,0,0,0,.089-.9c0-.3,0-.651,0-1.036l0-2.648L288.836,2.9V1.052L302.8,1.044l0,3.351c0,.481,0,.938.014,1.381a7.444,7.444,0,0,1-.1,1.312,7.864,7.864,0,0,1-.273,1.144c-.121.343-.181.529-.2.555Z" transform="translate(-91.947 -0.333)" fill="#282829"/><path d="M325.788,1.174a6.19,6.19,0,0,0-3.273-.889c-2.849,0-5.164,1.766-5.161,3.924s2.315,3.919,5.164,3.917,5.166-1.758,5.163-3.923a3.641,3.641,0,0,0-1.892-3.029m-3.27,5.395a2.648,2.648,0,0,1-2.861-2.361,2.912,2.912,0,0,1,5.719-.005,2.646,2.646,0,0,1-2.857,2.366" transform="translate(-101.403 -0.091)" fill="#282829"/><rect width="2.22" height="16.974" transform="matrix(1, -0.001, 0.001, 1, 170.731, 0.444)" fill="#282829"/><path d="M273.123.52l0,2.4-3.419,0a5.232,5.232,0,0,0-1.189-1.448A4.941,4.941,0,0,0,265.338.319a5.081,5.081,0,0,0-5.019,5.144,5.083,5.083,0,0,0,5.021,5.144,5,5,0,0,0,3.783-1.762h4V12.7h2.234L275.354.52Zm-7.782,8.2a3.057,3.057,0,0,1-2.8-3.261,2.832,2.832,0,1,1,5.6,0,3.057,3.057,0,0,1-2.795,3.261M273.126,7l-3,0a5.128,5.128,0,0,0,.233-1.542,5.776,5.776,0,0,0-.044-.695l2.814,0Z" transform="translate(-83.179 -0.102)" fill="#282829"/><path d="M166.5.66h-2.225l.006,12.176H166.5l0-5.889h1.84l0-1.844-1.837,0Z" transform="translate(-52.49 -0.211)" fill="#282829"/><path d="M333.877.562l.006,10.821h-3.909v1.856l3.906,0,0,1.115,2.223-.005V.562Z" transform="translate(-105.436 -0.179)" fill="#282829"/><path d="M321.018,17.08l2.226,0V14.511l5.015,0,0-1.846-12.186.007,0,1.845,4.945,0Z" transform="translate(-100.993 -4.046)" fill="#282829"/><path d="M221.629,12.8h2.224l0-12.18-2.224,0v3.43l-3.09,0V5.907l3.091,0Z" transform="translate(-69.828 -0.199)" fill="#282829"/><path d="M150.051,17.609l-2.227.005.007,5.482,13.537-.01,0-1.849-11.315.007Z" transform="translate(-47.234 -5.626)" fill="#282829"/><path d="M208.9,17.58h-2.227l0,5.483,13.538-.01V21.206l-11.309.005Z" transform="translate(-66.039 -5.617)" fill="#282829"/><path d="M264.865,17.547l-2.229,0v5.484l13.545-.012V21.176H264.865Z" transform="translate(-83.92 -5.607)" fill="#282829"/><path d="M320.945,17.52h-2.228V23L332.5,23V21.142l-11.56.007Z" transform="translate(-101.839 -5.598)" fill="#282829"/><path d="M146.183,6.4c0,2.282,2.231,4.134,4.982,4.131s4.976-1.858,4.976-4.139a3.911,3.911,0,0,0-1.826-3.2,4.2,4.2,0,0,0-.4-.24h2.364V1.1l-4.009,0,0-1.106h-2.227V1.106l-4.009.007V2.959H148.4A3.988,3.988,0,0,0,146.183,6.4m4.979-2.723a2.706,2.706,0,0,1,2.777,2.62,2.783,2.783,0,0,1-5.555.007,2.7,2.7,0,0,1,2.778-2.627" transform="translate(-46.662 0)" fill="#282829"/><path d="M8.86,0A2.473,2.473,0,0,0,6.6,1.709L0,24.136H5.762L12.872,0Z" transform="translate(0 0)" fill="#005aa0"/><path d="M123.346,0a2.472,2.472,0,0,0-2.255,1.707l-6.608,22.428H118.5a2.474,2.474,0,0,0,2.256-1.713L127.358,0Z" transform="translate(-36.58 0)" fill="#005aa0"/><path d="M20.2,11.966a.709.709,0,0,1,.1-.99L32.885,0h-4.61L15.486,11.081a1.655,1.655,0,0,0-.181,2.255l8.165,10.8h5.762Z" transform="translate(-4.771 0)" fill="#005aa0"/><path d="M98.676,7.513a5.513,5.513,0,0,0-.47-4.681,4.036,4.036,0,0,0-.268-.393A5.775,5.775,0,0,0,95.4.631,15.356,15.356,0,0,0,91.063,0H80.427c-.134.449-7.114,24.136-7.114,24.136h5.764l6.275-21.3H90.09a7.857,7.857,0,0,1,2.365.348A2.619,2.619,0,0,1,94.1,5.79a6.474,6.474,0,0,1-.419,2.086,5.456,5.456,0,0,1-2.361,2.861,11.57,11.57,0,0,1-5.458,1.337h-2.24l9.114,12.061h5.762l-7.453-9.981c3.259-.606,6.469-2.109,7.634-6.641" transform="translate(-23.426 0)" fill="#005aa0"/><path d="M50.619,0a2.46,2.46,0,0,0-2.25,1.7l-2.911,9.878a20.619,20.619,0,0,0,4.9-1.243l.447-.152q.466-.158.916-.3L53.64,3.369a.788.788,0,0,1,.719-.537h10.3a2.456,2.456,0,0,0,2.246-1.686L67.244,0Z" transform="translate(-14.525 0)" fill="#005aa0"/><path d="M60.85,16.773c0-.549-1.585-3.577-5.836-3.751a19,19,0,0,0-6.884,1.316l-.447.152a16.988,16.988,0,0,1-6.2,1.28,10.243,10.243,0,0,1-4.337-1.036c-.05-.027-.061.046-.061.046-.065.439,1.293,3.413,5.278,3.692a20.961,20.961,0,0,0,7.094-1.053l.2-.054a28.618,28.618,0,0,1,6.843-1.374c3.308,0,4.305.834,4.305.834.055.041.05-.051.05-.051" transform="translate(-11.849 -4.158)" fill="#f68d00"/><path d="M60.148,18.359a3.988,3.988,0,0,0-.514-.171h0c-2.7-.668-7.514,1.063-9.053,1.546-1.484.464-3.151.825-3.463.892a19.082,19.082,0,0,1-3.783.419c-.325,0-.645-.012-.948-.035-.156-.01-.3-.026-.451-.042A5.674,5.674,0,0,1,37.4,17.361a6.477,6.477,0,0,0,3.827,5.388l-2.043,6.934H55.8a2.477,2.477,0,0,0,2.257-1.713h0l.329-1.121H46.32c-.146-.009-.516-.075-.365-.588l1.151-3.9c.64-.212,1.4-.49,2.256-.857l.027-.011c.206-.09.418-.181.637-.282,1.147-.506,3.429-1.507,3.92-1.677a15.718,15.718,0,0,1,6.2-1.174" transform="translate(-11.95 -5.547)" fill="#005aa0"/></g></g></g></g></g></svg>