<svg xmlns="http://www.w3.org/2000/svg" xmlns:xlink="http://www.w3.org/1999/xlink" width="257" height="87" viewBox="0 0 257 87"><defs><clipPath id="a"><rect width="257" height="87" transform="translate(400 338)" fill="#ffaeae"/></clipPath><clipPath id="b"><rect width="153.275" height="43.5" fill="none"/></clipPath></defs><g transform="translate(-400 -338)"><g clip-path="url(#a)"><g transform="translate(452 360)"><g transform="translate(0 0)" clip-path="url(#b)"><path d="M23.709,12.429a7.915,7.915,0,0,1-4.142,2.215c-.3.052-.609.092-.907.121-.211.042-.421.094-.631.151A8.026,8.026,0,0,1,23.6,20.484c.059-.21.113-.422.153-.637.027-.3.059-.6.116-.9a8.037,8.037,0,0,1,8.542-6.462l-.029,0a8,8,0,0,1-4.138-2.2,8.077,8.077,0,0,1-2.207-4.12,7.981,7.981,0,0,1-2.323,6.276" transform="translate(3.717 1.269)" fill="#7f7279"/><path d="M6.112,24.665,5.9,24.641l.212.024" transform="translate(1.217 5.081)" fill="#7db212"/><path d="M24.67,6.215c-.01-.123-.023-.242-.037-.363.014.113.025.227.033.341a.07.07,0,0,0,0,.022" transform="translate(5.079 1.207)" fill="#7db212"/><path d="M28.489,7.422a.07.07,0,0,1,0-.022c-.007-.115-.018-.228-.033-.341q-.025-.219-.062-.438c-.01-.042-.014-.084-.023-.128s-.024-.1-.036-.154c-.035-.163-.072-.326-.117-.486-.027-.094-.057-.188-.088-.28-.042-.133-.087-.264-.136-.393-.033-.09-.069-.18-.1-.267-.072-.17-.151-.334-.233-.5-.036-.069-.069-.136-.106-.2-.094-.175-.2-.346-.3-.514L27.1,3.49c-.094-.136-.194-.27-.3-.4L26.659,2.9c-.156-.186-.318-.37-.493-.544a8.021,8.021,0,0,0-11.36,0c-.169.169-.327.349-.48.53-.062.074-.121.151-.18.227-.089.115-.176.233-.258.353-.057.08-.113.16-.165.24-.109.171-.215.346-.311.525-.023.046-.047.09-.071.138-.094.186-.183.376-.263.567-.027.066-.052.133-.076.2-.063.162-.119.327-.171.492-.022.065-.042.131-.062.2-.052.179-.094.358-.131.539-.01.045-.022.087-.031.131l-.014.09c-.037.193-.063.388-.084.584-.007.059-.014.118-.019.18a.393.393,0,0,1,0,.053,8.043,8.043,0,0,1-2.209,4.142,7.967,7.967,0,0,1-4.138,2.2l-.024,0a8.029,8.029,0,0,1,8.534,6.471,7.415,7.415,0,0,1,.124.9c.042.211.092.421.151.631a8.033,8.033,0,0,1,5.564-5.564c.21-.057.42-.109.632-.151.3-.029.6-.069.907-.121A7.907,7.907,0,0,0,26.166,13.7a7.977,7.977,0,0,0,2.323-6.276" transform="translate(1.26 0)" fill="#7db212"/><path d="M12.431,33.006c-.057-.087-.106-.176-.158-.267.052.09.1.18.158.267" transform="translate(2.531 6.751)" fill="#7f7279"/><path d="M13.4,34.2c-.165-.165-.316-.339-.464-.514.146.177.3.349.464.514" transform="translate(2.667 6.946)" fill="#7f7279"/><path d="M11.643,31.286c-.04-.139-.074-.277-.1-.42.03.142.064.281.1.42" transform="translate(2.379 6.365)" fill="#7f7279"/><path d="M11.491,30.66c-.03-.172-.057-.344-.076-.519.017.172.043.346.076.519" transform="translate(2.354 6.215)" fill="#7f7279"/><path d="M11.829,31.826c-.049-.125-.092-.252-.134-.381.042.129.084.256.134.381" transform="translate(2.411 6.484)" fill="#7f7279"/><path d="M12.068,32.361c-.057-.121-.116-.238-.168-.358.052.121.109.238.168.358" transform="translate(2.454 6.599)" fill="#7f7279"/><path d="M12.778,33.49c-.066-.084-.127-.17-.188-.257.062.087.122.172.188.257" transform="translate(2.596 6.853)" fill="#7f7279"/><path d="M5.9,11.425c.084-.01.17-.019.257-.025-.087.006-.172.016-.257.025" transform="translate(1.217 2.351)" fill="#7f7279"/><path d="M18.234,22.917A7.992,7.992,0,0,1,16.182,19.4c-.059-.21-.109-.42-.151-.632a7.165,7.165,0,0,0-.125-.895A8.026,8.026,0,0,0,7.373,11.4c-.087.007-.171.017-.257.027-.207.021-.415.049-.621.089-.234.045-.462.1-.691.169l-.169.052c-.175.054-.349.116-.523.185q-.085.031-.17.065a8.123,8.123,0,0,0-1.269.667l-.168.113c-.148.1-.3.212-.44.324-.054.046-.111.088-.165.133-.188.158-.374.32-.551.5a8.037,8.037,0,0,0,0,11.355c.172.171.353.332.539.485.066.057.138.111.205.165.123.1.25.188.38.277.072.052.148.1.223.153q.248.156.5.3l.191.1c.175.089.351.171.531.247.075.03.153.058.23.089.151.057.3.111.457.16.071.021.141.045.212.065.224.064.447.121.677.165.209.035.414.064.621.089l.212.024.069.007a7.946,7.946,0,0,1,4.138,2.2,8.041,8.041,0,0,1,2.207,4.148.238.238,0,0,1,0,.041A8.02,8.02,0,0,1,20.2,25.245a6.813,6.813,0,0,1,.912-.125c.211-.04.421-.092.631-.148a7.976,7.976,0,0,1-3.512-2.054" transform="translate(0 2.346)" fill="#7f7279"/><path d="M12.974,33.736q-.119-.141-.228-.289c.075.1.148.2.228.289" transform="translate(2.628 6.897)" fill="#003b8f"/><path d="M12.627,33.289c-.077-.109-.153-.217-.224-.329.071.112.147.221.224.329" transform="translate(2.557 6.797)" fill="#003b8f"/><path d="M29.949,11.4c.08.007.16.017.24.025-.08-.008-.16-.018-.24-.025" transform="translate(6.175 2.351)" fill="#003b8f"/><path d="M11.919,32.053c-.04-.1-.077-.193-.113-.292.036.1.074.2.113.292" transform="translate(2.434 6.549)" fill="#003b8f"/><path d="M11.709,31.491c-.029-.092-.059-.186-.084-.277.025.092.055.186.084.277" transform="translate(2.397 6.437)" fill="#003b8f"/><path d="M11.42,30.179c-.007-.071-.017-.144-.022-.215,0,.071.014.144.022.215" transform="translate(2.35 6.179)" fill="#003b8f"/><path d="M12.321,32.83c-.1-.175-.2-.351-.282-.53.084.179.181.355.282.53" transform="translate(2.482 6.661)" fill="#003b8f"/><path d="M11.478,30.571c.022.121.047.238.072.356-.016-.076-.037-.151-.051-.227-.01-.042-.014-.084-.022-.129" transform="translate(2.367 6.304)" fill="#003b8f"/><path d="M38.8,13.727c-.179-.181-.368-.349-.561-.509-.045-.035-.087-.07-.131-.106-.165-.129-.333-.252-.5-.367l-.1-.071a7.937,7.937,0,0,0-1.332-.7l-.075-.029c-.21-.084-.425-.159-.638-.223l-.081-.027c-.235-.068-.475-.129-.716-.176a6.34,6.34,0,0,0-.64-.089c-.08-.01-.16-.019-.24-.027a8.036,8.036,0,0,0-8.542,6.463c-.057.3-.089.606-.116.9-.04.213-.094.426-.153.636A8.019,8.019,0,0,1,19.4,24.971c-.21.057-.42.109-.631.148a6.814,6.814,0,0,0-.912.125A8.02,8.02,0,0,0,11.4,33.8c0,.07.014.144.022.213.018.175.045.347.075.519.007.045.012.087.022.13.013.075.035.151.052.226.03.141.063.28.1.42.025.092.055.186.084.277.042.13.084.257.134.382.036.1.074.2.113.292.052.119.111.238.168.358.087.179.179.356.282.53.052.089.1.179.158.267.071.113.146.221.224.329.06.087.122.172.188.257s.148.2.228.289c.148.175.3.349.464.514a8.03,8.03,0,0,0,11.36,0c.17-.17.324-.346.475-.527.069-.081.133-.165.2-.247.078-.1.153-.2.227-.309s.136-.2.2-.3.116-.192.172-.291c.107-.188.211-.384.3-.579.042-.092.087-.182.127-.274.049-.117.094-.238.139-.356.037-.1.071-.2.1-.292.037-.116.076-.233.106-.349s.066-.255.094-.381c.017-.081.04-.158.054-.24.012-.051.017-.1.027-.147.025-.154.049-.308.065-.463.01-.083.022-.165.029-.247,0-.014,0-.031,0-.046a8.029,8.029,0,0,1,6.346-6.348l.071-.007.2-.022c.215-.025.432-.057.643-.092.232-.045.462-.1.689-.169l.159-.049c.175-.054.349-.116.519-.182.064-.025.125-.047.186-.072.205-.088.41-.18.61-.283.019-.012.039-.021.057-.03.2-.106.391-.222.585-.344.065-.042.131-.09.2-.135.136-.1.273-.2.408-.3.063-.047.124-.1.186-.146.186-.156.369-.317.544-.492a8.033,8.033,0,0,0,0-11.355" transform="translate(2.345 2.346)" fill="#003b8f"/><path d="M32.17,16.347a3.15,3.15,0,1,1-4.457,0,3.142,3.142,0,0,1,4.457,0" transform="translate(5.524 3.181)" fill="#fff"/><path d="M44.406,2.767h5.037v7.7h.052l5.682-7.7h6.059l-6.983,8.792,7.524,10.1H55.363l-5.868-8.584h-.052v8.584H44.406Z" transform="translate(9.156 0.571)" fill="#003b8f"/><rect width="5.035" height="18.891" transform="translate(74.567 3.338)" fill="#003b8f"/><path d="M73.614,6.5H68.957V2.766H83.291V6.5h-4.65V21.658H73.614Z" transform="translate(14.218 0.571)" fill="#003b8f"/><path d="M83.5,2.767h13.31V6.345H88.53v3.889h7.816v3.572H88.53v4.274H97.1v3.579H83.5Z" transform="translate(17.216 0.571)" fill="#003b8f"/><path d="M113.69,21.276a20.791,20.791,0,0,1-5.6.759c-5.032,0-10.853-2.544-10.853-9.687,0-6.574,4.6-9.846,10.818-9.846a19.571,19.571,0,0,1,5.6.969l-.406,4.088a9.831,9.831,0,0,0-4.924-1.332c-3.569,0-5.889,2.6-5.889,6.121,0,3.7,2.614,5.953,6.3,5.953a13.168,13.168,0,0,0,4.7-.975Z" transform="translate(20.049 0.516)" fill="#003b8f"/><path d="M113.795,2.767h5.032v7.22h5.95V2.767h5.035V21.658h-5.035v-8.1h-5.95v8.1h-5.032Z" transform="translate(23.463 0.571)" fill="#003b8f"/><path d="M53.117,24.108H51.471v9.318H46.354V30.808H44.74v2.954a1.059,1.059,0,0,0,.207.756.9.9,0,0,0,.631.188h7.529V28.351H54.8V27.025H53.117Z" transform="translate(9.225 4.971)" fill="#7f7279"/><path d="M62.878,24.1H54.536v1.31h6.731v2.2H54.175v1.32h3.7v1.592H54.536v1.28h6.731v2.939h1.611V30.526H59.516V28.934h3.9v-1.32h-.537Z" transform="translate(11.17 4.971)" fill="#7f7279"/><path d="M75.652,27.838a3.424,3.424,0,0,0,1.4,1.392,4.944,4.944,0,0,0,2.066.592l0-1.322A3.236,3.236,0,0,1,76.9,26.959,5.66,5.66,0,0,1,76.49,24.1H74.74a5.8,5.8,0,0,1-.379,2.827,3.212,3.212,0,0,1-2.2,1.569v1.322a5.032,5.032,0,0,0,1.984-.578,3.7,3.7,0,0,0,1.5-1.406" transform="translate(14.88 4.971)" fill="#7f7279"/><path d="M81.252,24.1H79.639v9.277H74.394V30.836H72.779v2.929a1.132,1.132,0,0,0,.23.756.938.938,0,0,0,.631.179h7.612V27.78h1.421v-1.35H81.252Z" transform="translate(15.006 4.971)" fill="#7f7279"/><rect width="1.597" height="10.757" transform="translate(106.335 29.075)" fill="#7f7279"/><path d="M82.261,25.62H86.6a6.725,6.725,0,0,1-1.042,3.96,4.565,4.565,0,0,1-3.456,1.71v1.5a6.2,6.2,0,0,0,3.96-1.425c1.418-1.235,2.151-3.193,2.151-5.843V24.31H82.261Z" transform="translate(16.929 5.013)" fill="#7f7279"/><path d="M91.338,28.444h3.968v.843H91.794v1.194h7.044v.592H91.794v2.235a1.049,1.049,0,0,0,.226.736.837.837,0,0,0,.628.2h7.806V32.928H93.422v-.719h7.032V29.288H96.906v-.843h4.024V27.12H91.338Z" transform="translate(18.833 5.592)" fill="#7f7279"/><path d="M108.612,25.1h-1.864a1.65,1.65,0,0,0-.386-.4,3.409,3.409,0,0,0-2.291-.838,3.56,3.56,0,0,0-2.332.838,2.92,2.92,0,0,0-1.055,2.281,2.883,2.883,0,0,0,1.055,2.245,3.525,3.525,0,0,0,2.332.841,3.376,3.376,0,0,0,2.291-.841,3.1,3.1,0,0,0,.322-.3h1.927v4.5h-5.364V30.861h-1.6v2.954a1.034,1.034,0,0,0,.232.756.9.9,0,0,0,.624.18h7.733V24.157h-1.628Zm-3.381,3.147a1.565,1.565,0,0,1-1.159.5,1.713,1.713,0,0,1-1.224-.5,1.681,1.681,0,0,1-.538-1.269,1.776,1.776,0,0,1,.538-1.3,1.636,1.636,0,0,1,1.224-.5,1.5,1.5,0,0,1,1.159.5,1.738,1.738,0,0,1,.526,1.3,1.692,1.692,0,0,1-.526,1.269m3.381-.636h-1.268a2.044,2.044,0,0,0,.081-.633,4.487,4.487,0,0,0-.036-.551h1.223Z" transform="translate(20.76 4.919)" fill="#7f7279"/><path d="M119.092,24.1h-8.167v1.3h6.539v3.487H110.3V30.21h3.861V34.8h1.616V30.21h3.836V28.889h-.521Z" transform="translate(22.743 4.971)" fill="#7f7279"/><path d="M71.106,26.011h-.938V24.1H68.686v3.778A2.465,2.465,0,0,1,66.98,26.34a4.692,4.692,0,0,1-.281-2.231H65.031v.583a3.07,3.07,0,0,1-.509,1.958c-.8,1.206-1.516,1.223-1.516,1.223v1.342a3.677,3.677,0,0,0,2.843-1.89,3.654,3.654,0,0,0,1.579,1.525,3.355,3.355,0,0,0-2.4,3.141,3.592,3.592,0,0,0,7.167,0,3.34,3.34,0,0,0-2.031-3V27.309h.938v1.906h1.462V24.1H71.106Zm-2.488,7.92a1.935,1.935,0,1,1,1.975-1.941,1.943,1.943,0,0,1-1.975,1.941" transform="translate(12.991 4.971)" fill="#7f7279"/><path d="M96.055,25.972a3.785,3.785,0,0,0,2.066,1.013,12.5,12.5,0,0,0,2.257.23v-1.33a5.653,5.653,0,0,1-2.231-.385,1.649,1.649,0,0,1-1.256-1.533V23.72h-1.7v.247A1.7,1.7,0,0,1,93.864,25.5a5.267,5.267,0,0,1-2.154.373v1.342a12.013,12.013,0,0,0,2.224-.23,4.058,4.058,0,0,0,2.12-1.013" transform="translate(18.91 4.891)" fill="#7f7279"/><path d="M44.381,27.839a3.192,3.192,0,0,0,6.332,0,2.609,2.609,0,0,0-.86-1.913h1.218V24.6H48.348v-.94H46.715v.94H43.978v1.329h1.268a2.583,2.583,0,0,0-.865,1.913m3.166,1.607a1.613,1.613,0,1,1,1.607-1.607,1.622,1.622,0,0,1-1.607,1.607" transform="translate(9.068 4.878)" fill="#7f7279"/><path d="M127.024,24.184v4.378h-2.092a2.574,2.574,0,0,0,1.234-2.148,3.1,3.1,0,0,0-6.144,0,2.543,2.543,0,0,0,1.23,2.148h-1.9V29.89h3.406v2.528h1.625V29.89h2.639V31.1h-1.381v1.315h1.381v1.031h-5.341v-2.9h-1.646v3.3a.989.989,0,0,0,.24.756.907.907,0,0,0,.627.18h7.729l.01-10.594Zm-3.925.683a1.561,1.561,0,0,1,0,3.112,1.56,1.56,0,0,1,0-3.112" transform="translate(24.609 4.891)" fill="#7f7279"/></g></g></g></g></svg>