<svg width="197" height="28" viewBox="0 0 197 28" fill="none" xmlns="http://www.w3.org/2000/svg">
<path d="M181.894 17.6093V15.7278H180.429V17.537C180.429 18.3451 181.086 19.0024 181.894 19.0024H185.935C186.339 19.0024 186.671 18.6767 186.671 18.2667V17.8988H182.19C182.027 17.8988 181.894 17.7661 181.894 17.6033" fill="white"/>
<path d="M190.006 14.3106V13.2131H191.863C192.267 13.2131 192.599 12.8814 192.599 12.4773V12.1095H190.012V10.7164H192.418C192.822 10.7164 193.153 10.3847 193.153 9.98066V9.61279H188.546V14.2383C188.546 15.0524 189.203 15.7037 190.012 15.7037H192.599C193.003 15.7037 193.334 15.372 193.334 14.968V14.6001H190.301C190.144 14.6001 190.012 14.4674 190.012 14.3046" fill="white"/>
<path d="M194.613 9.14233V12.1094H193.431V13.213H194.613V17.8746H195.349C195.753 17.8746 196.084 17.549 196.084 17.1389V9.14233H194.619H194.613Z" fill="white"/>
<path d="M183.113 16.355H183.848C184.252 16.355 184.584 16.0293 184.584 15.6193V9.31128H183.119V11.6331H182.136V12.7306H183.119V16.349L183.113 16.355Z" fill="white"/>
<path d="M185.199 9.14233V16.5298H185.935C186.339 16.5298 186.671 16.2041 186.671 15.7941V9.14233H185.205H185.199Z" fill="white"/>
<path d="M181.014 14.4733C181.273 14.7929 181.466 14.9135 181.689 14.8713C182.178 14.7809 182.703 14.3708 182.703 14.3708C181.683 13.3094 181.129 11.5485 181.044 10.264V9.47998H179.802V10.2037C179.675 11.4942 178.704 13.2913 177.667 14.3708C177.667 14.3708 178.198 14.7809 178.68 14.8713C178.897 14.9135 179.096 14.7869 179.356 14.4733C179.699 14.0572 179.995 13.6049 180.242 13.1285C180.423 13.6049 180.664 14.0572 181.008 14.4733" fill="white"/>
<path d="M138.088 13.0984H136.623V15.0101H133.638V16.1137H141.128C141.532 16.1137 141.863 15.782 141.863 15.3779V15.0101H138.088V13.0984Z" fill="white"/>
<path d="M168.169 9.14233V17.8746H168.899C169.303 17.8746 169.634 17.549 169.634 17.1389V9.14233H168.169Z" fill="white"/>
<path d="M139.511 13.9247H140.241C140.645 13.9247 140.977 13.593 140.977 13.189V9.63696H134.958V10.7406H139.511V13.9307V13.9247Z" fill="white"/>
<path d="M153.267 15.8244V16.922H158.055V19.1774H158.791C159.195 19.1774 159.527 18.8457 159.527 18.4417V15.8184H153.267V15.8244Z" fill="white"/>
<path d="M148.901 12.5679C149.402 12.1699 149.697 11.609 149.697 10.9939C149.697 9.77571 148.569 8.79272 146.947 8.79272C145.325 8.79272 144.191 9.77571 144.191 10.9939C144.191 11.615 144.487 12.1699 144.987 12.5679V14.0273H142.539V15.1248H146.018C144.909 15.4203 144.185 16.2405 144.185 17.2054C144.185 18.4236 145.319 19.4066 146.941 19.4066C148.563 19.4066 149.691 18.4236 149.691 17.2054C149.691 16.2405 148.973 15.4203 147.858 15.1248H150.258C150.662 15.1248 150.994 14.7992 150.994 14.3891V14.0212H148.895V12.5618L148.901 12.5679ZM148.226 17.1994C148.226 17.8084 147.653 18.2969 146.941 18.2969C146.23 18.2969 145.657 17.8024 145.657 17.1994C145.657 16.5963 146.23 16.0958 146.941 16.0958C147.653 16.0958 148.226 16.5903 148.226 17.1994ZM146.941 9.87823C147.653 9.87823 148.226 10.3727 148.226 10.9818C148.226 11.5909 147.653 12.0794 146.941 12.0794C146.23 12.0794 145.657 11.5849 145.657 10.9818C145.657 10.3788 146.23 9.87823 146.941 9.87823ZM146.453 13.1589C146.609 13.183 146.772 13.1951 146.941 13.1951C147.11 13.1951 147.273 13.183 147.436 13.1589V14.0273H146.453V13.1589Z" fill="white"/>
<path d="M157.127 13.3999H158.055C158.864 13.3999 159.521 12.7426 159.521 11.9345V9.87806C159.521 9.47402 159.195 9.14233 158.785 9.14233H158.049V10.4389H154.727V9.87806C154.727 9.47402 154.401 9.14233 153.991 9.14233H153.255V11.9345C153.255 12.7426 153.912 13.3999 154.721 13.3999H155.649V14.0934H152.152V15.191H159.877C160.281 15.191 160.612 14.8593 160.612 14.4553V14.0874H157.115V13.3939L157.127 13.3999ZM154.733 11.9948V11.5365H158.062V12.0069C158.062 12.1697 157.929 12.2963 157.766 12.2963H155.022C154.853 12.2963 154.733 12.1576 154.733 11.9948Z" fill="white"/>
<path d="M165.051 10.6983H166.106C166.51 10.6983 166.842 10.3727 166.842 9.96259V9.59473H162.03V10.6983H163.815C163.815 10.7405 163.815 10.7767 163.815 10.8189C163.724 12.1095 162.735 13.9187 161.674 15.0223C161.674 15.0223 162.199 15.4323 162.687 15.5228C162.91 15.565 163.103 15.4384 163.362 15.1248C163.797 14.5941 164.152 14.0272 164.43 13.4241C164.701 14.0272 165.063 14.6001 165.497 15.1248C165.757 15.4384 165.95 15.565 166.173 15.5228C166.661 15.4323 167.186 15.0223 167.186 15.0223C166.13 13.9187 165.141 12.1095 165.051 10.8189C165.051 10.7767 165.051 10.7405 165.051 10.6983Z" fill="white"/>
<path d="M177.842 10.4933V9.35351H175.056V6.56738H173.916V9.35351H171.13V10.4933H173.916V13.2794H175.056V10.4933H177.842Z" fill="white"/>
<path d="M92.871 16.4396C92.7986 16.4878 92.7262 16.5059 92.6659 16.5059C92.6117 16.5059 92.5574 16.4878 92.491 16.4456C92.4247 16.4034 92.3644 16.3552 92.3041 16.2949C92.2438 16.2346 92.1955 16.1682 92.1533 16.0898C92.1111 16.0114 92.093 15.9391 92.093 15.8727C92.093 15.7762 92.1171 15.7039 92.1714 15.6556C92.2257 15.6074 92.3041 15.5471 92.4187 15.4626C93.1001 14.9139 93.5886 14.2686 93.8901 13.5329C94.1856 12.7971 94.3364 11.9408 94.3304 10.9638V9.78183H95.633V10.9638C95.639 11.5005 95.6812 11.983 95.7656 12.4232C95.8501 12.8635 95.9827 13.2735 96.1637 13.6474C96.3446 14.0213 96.5737 14.3711 96.8451 14.6907C97.1165 15.0103 97.4421 15.3119 97.816 15.5953C97.9186 15.6677 97.9728 15.7702 97.9728 15.8908C97.9728 15.9752 97.9547 16.0536 97.9186 16.126C97.8824 16.2044 97.8341 16.2707 97.7738 16.331C97.7135 16.3974 97.6472 16.4517 97.5809 16.4878C97.5145 16.524 97.4542 16.5421 97.412 16.5421C97.3396 16.5421 97.2733 16.518 97.219 16.4758C96.7366 16.1622 96.3024 15.8004 95.9104 15.3903C95.5184 14.9802 95.2108 14.54 94.9877 14.0696C94.7585 14.5641 94.457 15.0164 94.0891 15.4084C93.7213 15.8064 93.3112 16.1501 92.8649 16.4456L92.871 16.4396ZM97.3577 12.1699H99.2091L99.197 9.36572H100.47L100.5 18.1523C100.5 19.0026 100.258 19.4308 99.7579 19.4308H99.577C99.3418 19.4308 99.2272 19.3222 99.2272 19.1051L99.2031 13.2374H97.3517V12.1699H97.3577Z" fill="white" stroke="#036EB8" stroke-width="0.3" stroke-miterlimit="10"/>
<path d="M103.063 16.7833L108.436 16.7652C108.557 16.7652 108.617 16.6627 108.617 16.4576V16.1199L103.063 16.138V15.1671L105.837 15.155V14.3529L101.67 14.371V13.37L111.005 13.3338C111.168 13.3338 111.252 13.4484 111.252 13.6715C111.252 14.1177 111.101 14.3348 110.794 14.3409L107.091 14.3529V15.155L109.341 15.149C109.696 15.149 109.871 15.3178 109.871 15.6555V16.132C109.871 17.1632 109.606 17.6818 109.069 17.6818L104.317 17.6999V18.1281C104.317 18.2849 104.401 18.3633 104.57 18.3633L109.853 18.3452C110.01 18.3452 110.088 18.4477 110.088 18.6467C110.088 19.099 109.938 19.3221 109.63 19.3282L104.136 19.3463C103.431 19.3463 103.075 19.0025 103.075 18.315V16.7893L103.063 16.7833ZM108.388 9.52244C107.881 9.17267 107.224 8.99778 106.416 9.00381C105.608 9.00381 104.95 9.18473 104.456 9.5345C103.961 9.88428 103.708 10.3848 103.714 11.0361C103.714 11.6814 103.967 12.1819 104.468 12.5317C104.968 12.8815 105.626 13.0564 106.434 13.0503C107.242 13.0503 107.899 12.8694 108.4 12.5196C108.9 12.1699 109.148 11.6693 109.148 11.018C109.148 10.3728 108.894 9.87222 108.388 9.52244ZM107.375 11.6995C107.109 11.8502 106.796 11.9226 106.428 11.9226C105.541 11.9226 105.095 11.6271 105.089 11.0301C105.089 10.7286 105.21 10.4994 105.457 10.3547C105.704 10.2099 106.024 10.1376 106.422 10.1376C106.79 10.1376 107.103 10.2099 107.369 10.3547C107.634 10.4994 107.767 10.7225 107.767 11.018C107.767 11.3196 107.634 11.5487 107.369 11.6995H107.375Z" fill="white" stroke="#036EB8" stroke-width="0.3" stroke-miterlimit="10"/>
<path d="M111.976 14.347H113.942L113.936 12.3569H115.19L115.196 14.335L118.175 14.3229C118.338 14.3229 118.423 14.4314 118.423 14.6485C118.423 15.1129 118.272 15.3481 117.964 15.3481L111.982 15.3722V14.347H111.976ZM116.046 13.4183C116.173 12.9238 116.264 12.4474 116.318 11.9951C116.372 11.5428 116.396 11.1146 116.396 10.7106L112.597 10.7226V9.70949L117.108 9.6914C117.476 9.6914 117.663 9.86026 117.663 10.21V10.3548C117.663 10.8613 117.633 11.3378 117.566 11.79C117.5 12.2423 117.403 12.6765 117.277 13.0866C117.21 13.3037 117.048 13.4123 116.782 13.4183H116.046ZM115.106 19.2197C114.852 19.2197 114.641 19.2016 114.472 19.1594C114.31 19.1172 114.177 19.0509 114.074 18.9544C113.978 18.8579 113.906 18.7312 113.863 18.5745C113.821 18.4177 113.803 18.2247 113.797 18.0015V16.0959H115.063V17.8689C115.07 18.086 115.178 18.1945 115.401 18.1945L120.039 18.1764C120.202 18.1764 120.286 18.285 120.286 18.5021C120.286 18.9785 120.135 19.2137 119.828 19.2137L115.1 19.2318L115.106 19.2197ZM120.081 14.8355C120.081 15.3541 120.027 15.7521 119.924 16.0295C119.816 16.307 119.623 16.4457 119.345 16.4517H119.164C118.929 16.4517 118.815 16.3431 118.815 16.126L118.79 9.28735H120.063L120.075 11.7539H121.396C121.558 11.7539 121.643 11.8624 121.643 12.0855C121.643 12.562 121.492 12.7972 121.185 12.7972H120.081L120.087 14.8295L120.081 14.8355Z" fill="white" stroke="#036EB8" stroke-width="0.3" stroke-miterlimit="10"/>
<path d="M124.797 9.45008C125.213 9.45008 125.581 9.51039 125.906 9.64306C126.232 9.77574 126.516 9.95062 126.751 10.1738C126.98 10.3969 127.149 10.6622 127.269 10.9698C127.39 11.2713 127.444 11.597 127.45 11.9467C127.45 12.2905 127.396 12.6161 127.281 12.9237C127.167 13.2313 126.998 13.4966 126.769 13.7197C126.534 13.9549 126.256 14.1358 125.931 14.2685C125.605 14.4012 125.231 14.4675 124.821 14.4675C124.423 14.4675 124.061 14.4072 123.729 14.2746C123.404 14.1419 123.126 13.961 122.897 13.7318C122.668 13.5087 122.493 13.2433 122.373 12.9358C122.246 12.6342 122.186 12.3086 122.186 11.9588C122.186 11.6151 122.246 11.2894 122.367 10.9819C122.487 10.6743 122.662 10.4089 122.885 10.1858C123.108 9.95665 123.386 9.78177 123.711 9.64909C124.037 9.51642 124.399 9.45008 124.797 9.45008ZM124.815 13.4061C125.002 13.4061 125.183 13.3639 125.358 13.2855C125.533 13.2071 125.677 13.0986 125.81 12.9599C125.931 12.8212 126.027 12.6644 126.093 12.4835C126.166 12.3026 126.202 12.1096 126.196 11.9106C126.196 11.7055 126.16 11.5186 126.087 11.3437C126.015 11.1688 125.919 11.012 125.798 10.8793C125.671 10.7527 125.521 10.6502 125.346 10.5778C125.171 10.5054 124.99 10.4693 124.803 10.4693C124.598 10.4693 124.417 10.5054 124.248 10.5838C124.085 10.6622 123.941 10.7648 123.82 10.8914C123.693 11.0301 123.597 11.1869 123.53 11.3618C123.464 11.5367 123.428 11.7296 123.434 11.9347C123.434 12.1397 123.47 12.3327 123.536 12.5076C123.603 12.6885 123.705 12.8453 123.832 12.978C123.953 13.1106 124.097 13.2192 124.266 13.2976C124.435 13.376 124.616 13.4122 124.815 13.4122V13.4061ZM128.753 16.4637L123.687 16.4817V15.4565L129.471 15.4324C129.826 15.4324 130.001 15.6013 130.001 15.9511V17.9592C130.013 18.8156 129.766 19.2438 129.272 19.2498H129.103C128.88 19.2498 128.765 19.1412 128.765 18.9241L128.753 16.4637ZM129.995 13.6594C129.995 14.5097 129.754 14.9379 129.253 14.9379H129.073C128.849 14.9379 128.735 14.8294 128.735 14.6123L128.717 9.23901H129.983L129.989 11.3799H131.334C131.497 11.3799 131.581 11.4884 131.581 11.7116C131.581 12.1759 131.43 12.4111 131.123 12.4111H129.995V13.6534V13.6594Z" fill="white" stroke="#036EB8" stroke-width="0.3" stroke-miterlimit="10"/>
<path d="M14.3045 27.994C22.0349 27.994 28.3015 21.7273 28.3015 13.997C28.3015 6.26666 22.0349 0 14.3045 0C6.57421 0 0.307556 6.26666 0.307556 13.997C0.307556 21.7273 6.57421 27.994 14.3045 27.994Z" fill="white"/>
<path d="M37.3956 17.7661V14.5458H38.65V17.7661H43.2212V18.8938H33.6868V17.7661H37.3956ZM41.1587 15.9388V10.9636H34.4467V9.81177H42.4493V15.9388H41.1587Z" fill="white"/>
<path d="M46.3631 14.1175V13.1526H47.5512V14.1175H50.4097V13.1526H51.5977V14.1175H53.7506V15.2091H44.2162V14.1175H46.3692H46.3631ZM51.4469 17.8746C51.4469 18.1821 51.3806 18.4776 51.2479 18.7551C51.1152 19.0325 50.9404 19.2677 50.7112 19.4727C50.4941 19.6838 50.2348 19.8466 49.9393 19.9732C49.6377 20.0999 49.3242 20.1602 48.9925 20.1602C48.6608 20.1602 48.3412 20.0999 48.0396 19.9732C47.7381 19.8466 47.4728 19.6838 47.2496 19.4727C47.0325 19.2737 46.8576 19.0325 46.725 18.7551C46.5923 18.4776 46.526 18.1882 46.526 17.8746C46.526 17.561 46.5923 17.2715 46.725 16.9941C46.8576 16.7167 47.0325 16.4755 47.2496 16.2644C47.4728 16.0534 47.7381 15.8905 48.0396 15.7699C48.3412 15.6493 48.6608 15.589 48.9925 15.589C49.3242 15.589 49.6438 15.6493 49.9393 15.7699C50.2348 15.8905 50.4941 16.0534 50.7112 16.2644C50.9343 16.4755 51.1152 16.7167 51.2479 16.9941C51.3806 17.2715 51.4469 17.561 51.4469 17.8746ZM51.4228 11.0238C51.4228 11.3314 51.3565 11.6269 51.2238 11.8983C51.0911 12.1697 50.9162 12.4109 50.6871 12.622C50.476 12.821 50.2287 12.9838 49.9332 13.1104C49.6377 13.2371 49.3242 13.2974 48.9925 13.2974C48.6608 13.2974 48.3412 13.2371 48.0457 13.1104C47.7441 12.9838 47.4909 12.821 47.2858 12.622C47.0627 12.4109 46.8818 12.1697 46.7491 11.8983C46.6164 11.6269 46.5501 11.3374 46.5501 11.0238C46.5501 10.7103 46.6164 10.4328 46.7491 10.1554C46.8818 9.87804 47.0567 9.63681 47.2858 9.43177C47.4969 9.23276 47.7502 9.06994 48.0457 8.9433C48.3412 8.81665 48.6608 8.75635 48.9925 8.75635C49.3242 8.75635 49.6377 8.81665 49.9332 8.9433C50.2287 9.06994 50.482 9.23276 50.6871 9.43177C50.9102 9.64284 51.0911 9.88407 51.2238 10.1554C51.3565 10.4328 51.4228 10.7223 51.4228 11.0238ZM50.1926 17.8505C50.1926 17.5248 50.0719 17.2474 49.8367 17.0182C49.6016 16.7891 49.3121 16.6745 48.9804 16.6745C48.6487 16.6745 48.3653 16.7891 48.1301 17.0182C47.8949 17.2474 47.7803 17.5248 47.7803 17.8505C47.7803 18.1761 47.8949 18.4535 48.1301 18.6887C48.3653 18.9239 48.6487 19.0385 48.9804 19.0385C49.3121 19.0385 49.5955 18.9239 49.8367 18.6887C50.0719 18.4535 50.1926 18.1761 50.1926 17.8505ZM50.1684 11.0238C50.1684 10.7163 50.0538 10.4449 49.8187 10.2097C49.5835 9.97453 49.3061 9.85994 48.9804 9.85994C48.6548 9.85994 48.3774 9.97453 48.1482 10.2097C47.919 10.4449 47.8044 10.7163 47.8044 11.0238C47.8044 11.3314 47.919 11.6148 48.1482 11.85C48.3774 12.0852 48.6548 12.1998 48.9804 12.1998C49.3061 12.1998 49.5835 12.0852 49.8187 11.85C50.0538 11.6148 50.1684 11.3435 50.1684 11.0238Z" fill="white"/>
<path d="M64.3523 17.754V18.8938H54.812V17.754H58.9308V15.2513H55.5839V9.72729H56.8744V14.1115H63.7372V15.2513H60.2274V17.754H64.3584H64.3523Z" fill="white"/>
<path d="M69.6713 13.9065V12.9416H66.3244V9.40771H74.339V10.4993H67.6029V11.8622H74.3631V12.9416H70.9679V13.9065H75.0989V14.9981H65.5645V13.9065H69.6834H69.6713ZM72.8736 17.6998C72.8736 18.0254 72.8073 18.333 72.6685 18.6224C72.5298 18.9119 72.355 19.1652 72.1258 19.3702C71.8846 19.5873 71.6132 19.7622 71.3056 19.8889C70.9981 20.0155 70.6724 20.0818 70.3226 20.0818C69.9729 20.0818 69.6472 20.0155 69.3397 19.8889C69.0321 19.7622 68.7607 19.5873 68.5195 19.3702C68.2964 19.1592 68.1155 18.9119 67.9767 18.6224C67.838 18.333 67.7717 18.0254 67.7717 17.6998C67.7717 17.3741 67.838 17.0666 67.9767 16.7771C68.1094 16.4876 68.2903 16.2343 68.5195 16.0293C68.7607 15.8122 69.0321 15.6373 69.3397 15.5107C69.6472 15.384 69.9729 15.3177 70.3226 15.3177C70.6724 15.3177 70.9981 15.384 71.3056 15.5107C71.6132 15.6373 71.8846 15.8122 72.1258 16.0293C72.3489 16.2404 72.5298 16.4876 72.6685 16.7771C72.8012 17.0666 72.8736 17.3741 72.8736 17.6998ZM71.6253 17.6756C71.6253 17.3198 71.4986 17.0123 71.2393 16.765C70.986 16.5117 70.6784 16.3851 70.3226 16.3851C69.9668 16.3851 69.6593 16.5117 69.406 16.765C69.1527 17.0183 69.02 17.3198 69.02 17.6756C69.02 18.0314 69.1467 18.333 69.406 18.5802C69.6593 18.8275 69.9668 18.9541 70.3226 18.9541C70.6784 18.9541 70.986 18.8275 71.2393 18.5802C71.4926 18.333 71.6253 18.0314 71.6253 17.6756Z" fill="white"/>
<path d="M76.4195 15.8422H85.9539V16.982H81.8229V19.6596H80.5324V16.982H76.4135V15.8422H76.4195ZM78.4579 10.7705H83.9156V9.45581H85.194V14.4431H77.1915V9.45581H78.4579V10.7705ZM83.9095 11.8861H78.4519V13.3154H83.9095V11.8861Z" fill="white"/>
<path d="M20.8115 13.0743C18.6224 11.5847 15.8243 12.1938 14.3528 14.4312C13.1225 16.3007 11.2712 16.5298 10.5535 16.5298C8.21365 16.5298 6.60952 14.8835 6.13914 13.1768C6.13914 13.1768 6.1331 13.1467 6.12707 13.1286C6.12707 13.1105 6.11501 13.0924 6.10898 13.0683C5.92203 12.3567 5.87982 12.0189 5.87982 11.2651C5.87982 7.18845 10.059 2.65345 16.0775 2.65345C22.0961 2.65345 25.7687 7.34525 26.6793 9.95649C26.6612 9.90824 26.6491 9.86603 26.6311 9.81779C24.8822 4.71591 20.0457 1.04932 14.3468 1.04932C7.1764 1.04932 1.36292 6.8628 1.36292 14.0332C1.36292 20.4437 5.98234 25.9255 12.3989 25.9255C17.5128 25.9255 20.9502 23.0549 22.5242 19.1049C23.3866 16.9459 22.7775 14.4071 20.8115 13.0683V13.0743Z" fill="#003668"/>
<path d="M26.7517 10.2157C25.9918 7.67084 22.4398 2.65942 16.0715 2.65942C10.053 2.65942 5.87378 7.19442 5.87378 11.2711C5.87378 12.0249 5.92203 12.3687 6.10294 13.0742C6.02455 12.7607 5.98233 12.4531 5.98233 12.1455C5.98233 7.9 10.2339 4.96311 14.6 4.96311C20.51 4.96311 25.3043 9.75742 25.3043 15.6674C25.3043 20.2989 22.6388 24.3092 18.7611 26.239C23.7545 24.4359 27.3246 19.6476 27.3246 14.0331C27.3246 12.7064 27.1436 11.5304 26.7517 10.2157Z" fill="#E6002D"/>
</svg>
