<svg xmlns="http://www.w3.org/2000/svg" xmlns:xlink="http://www.w3.org/1999/xlink" width="257" height="87" viewBox="0 0 257 87"><defs><clipPath id="a"><rect width="257" height="87" transform="translate(400 168)" fill="#ffaeae"/></clipPath><clipPath id="b"><rect width="125.333" height="78.807" fill="none"/></clipPath></defs><g transform="translate(-400 -168)"><g clip-path="url(#a)"><g transform="translate(473 177)"><g transform="translate(-7.333 -4.611)" clip-path="url(#b)"><path d="M19.391,111.211a6.638,6.638,0,0,1,0-13.259,5.919,5.919,0,0,1,5.833,4.237H23.591a4.411,4.411,0,0,0-4.2-2.752,5.15,5.15,0,0,0,0,10.272,4.549,4.549,0,0,0,4.2-2.751h1.632a6.039,6.039,0,0,1-5.833,4.254" transform="translate(-6.74 -50.463)" fill="#1ba384"/><path d="M50.286,98.6v1.485H42.749v3.851h6.8v1.486h-6.8v4.4h7.538v1.5h-9.1V98.6Z" transform="translate(-21.221 -50.795)" fill="#1ba384"/><path d="M73.822,111.324H72.1l-6.841-10.362v10.362H63.7V98.6h1.741l6.84,10.343V98.6h1.543Z" transform="translate(-32.815 -50.795)" fill="#1ba384"/><path d="M92.933,100.081v11.242H91.376V100.081h-4V98.6h9.555v1.485Z" transform="translate(-45.015 -50.795)" fill="#1ba384"/><path d="M118.944,98.6v1.485h-7.539v3.851h6.805v1.486h-6.805v4.4h7.539v1.5h-9.1V98.6Z" transform="translate(-56.591 -50.795)" fill="#1ba384"/><path d="M141.983,111.324H140.4a3.511,3.511,0,0,1-.239-1.375v-1.741c0-1.23-.641-1.908-2.09-1.908h-4.164v5.024h-1.56V98.6h5.633c2.6,0,4.124,1.577,4.124,3.85a3.444,3.444,0,0,1-1.742,3.08,2.877,2.877,0,0,1,1.34,2.68v1.576a5.029,5.029,0,0,0,.275,1.54m-3.943-6.529a2.265,2.265,0,0,0,2.494-2.347c0-1.652-.99-2.366-2.548-2.366h-4.073v4.713Z" transform="translate(-68.185 -50.795)" fill="#1ba384"/><path d="M18.488,61.693V72.936H16.93V61.693h-4V60.207h9.555v1.486Z" transform="translate(-6.662 -31.017)" fill="#1ba384"/><path d="M44.687,60.207v1.486H37.149v3.852h6.8V67.03h-6.8v4.4h7.538v1.5h-9.1V60.207Z" transform="translate(-18.336 -31.017)" fill="#1ba384"/><path d="M62.666,72.824a6.64,6.64,0,0,1,0-13.263A5.921,5.921,0,0,1,68.5,63.8H66.866a4.411,4.411,0,0,0-4.2-2.751,5.149,5.149,0,0,0,0,10.27,4.551,4.551,0,0,0,4.2-2.75H68.5a6.042,6.042,0,0,1-5.832,4.256" transform="translate(-29.034 -30.684)" fill="#1ba384"/><path d="M94.721,60.207V72.935h-1.54V67.011h-6.97v5.924H84.652V60.207h1.559v5.3h6.97v-5.3Z" transform="translate(-43.611 -31.017)" fill="#1ba384"/><path d="M120.954,72.935H119.23l-6.84-10.363V72.935h-1.56V60.206h1.743l6.839,10.343V60.206h1.542Z" transform="translate(-57.097 -31.017)" fill="#1ba384"/><path d="M148.187,66.183a6.316,6.316,0,1,1-6.309-6.622,6.361,6.361,0,0,1,6.309,6.622m-1.54,0a4.875,4.875,0,0,0-4.769-5.136,5.149,5.149,0,1,0,4.769,5.136" transform="translate(-69.843 -30.684)" fill="#1ba384"/><path d="M173.485,72.935h-8.1V60.206h1.558V71.43h6.547Z" transform="translate(-85.2 -31.017)" fill="#1ba384"/><path d="M194.9,66.183a6.317,6.317,0,1,1-6.309-6.622,6.362,6.362,0,0,1,6.309,6.622m-1.541,0a4.875,4.875,0,0,0-4.768-5.136,5.149,5.149,0,1,0,4.768,5.136" transform="translate(-93.909 -30.684)" fill="#1ba384"/><path d="M223.851,65.67v.659c0,3.925-2.512,6.5-6.18,6.5a6.639,6.639,0,0,1,0-13.263,6.109,6.109,0,0,1,5.887,4.237h-1.65a4.585,4.585,0,0,0-4.236-2.731,5.137,5.137,0,0,0,0,10.251,4.4,4.4,0,0,0,4.585-4.144h-4.495v-1.5Z" transform="translate(-108.879 -30.684)" fill="#1ba384"/><path d="M243.042,67.433v5.5h-1.558v-5.5l-4.42-7.226h1.8l3.413,5.8,3.41-5.8h1.78Z" transform="translate(-122.13 -31.017)" fill="#1ba384"/><path d="M60.37,34.444H58.793a3.491,3.491,0,0,1-.239-1.374V31.326c0-1.229-.641-1.907-2.091-1.907H52.3v5.024h-1.56V21.716h5.631c2.6,0,4.125,1.577,4.125,3.851a3.445,3.445,0,0,1-1.741,3.08A2.879,2.879,0,0,1,60.1,31.326V32.9a5.065,5.065,0,0,0,.274,1.541m-3.942-6.53a2.264,2.264,0,0,0,2.493-2.347c0-1.652-.99-2.366-2.548-2.366H52.3v4.713Z" transform="translate(-26.141 -11.188)" fill="#1ba384"/><path d="M84.426,21.715V23.2H76.889v3.851h6.8v1.486h-6.8v4.4h7.538v1.5h-9.1V21.715Z" transform="translate(-38.808 -11.187)" fill="#1ba384"/><path d="M107.313,21.715V23.2H99.774v3.851h6.8v1.486h-6.8v4.4h7.539v1.5h-9.1V21.715Z" transform="translate(-50.598 -11.187)" fill="#1ba384"/><path d="M131.226,34.443H129.5l-6.84-10.362V34.443H121.1V21.715h1.741l6.842,10.344V21.715h1.539Z" transform="translate(-62.39 -11.187)" fill="#1ba384"/><path d="M3.667,26.117v-.509c-1.256-.2-2.493-.4-3.667-.574v.331c1.172.245,2.411.5,3.667.752" transform="translate(0 -12.897)" fill="#1ba384"/><path d="M13.514,9.284l.444-.256C13.125,8.063,12.3,7.111,11.5,6.211l-.3.169c.734.934,1.512,1.916,2.3,2.9" transform="translate(-5.775 -3.2)" fill="#1ba384"/><path d="M16.951,7.3l.446-.257c-.679-1.05-1.354-2.09-2-3.077l-.3.175c.593,1.018,1.222,2.086,1.859,3.16" transform="translate(-7.775 -2.041)" fill="#1ba384"/><path d="M9.183,38.515l-.638-.369c-1.423.591-2.867,1.2-4.241,1.786l.448.259c1.451-.538,2.959-1.109,4.431-1.676" transform="translate(-2.217 -19.652)" fill="#1ba384"/><path d="M3.667,21.893v-.51C2.4,21,1.164,20.62,0,20.274v.309c1.161.421,2.4.864,3.667,1.31" transform="translate(0 -10.445)" fill="#1ba384"/><path d="M3.667,30.14v-.508c-1.259-.026-2.5-.047-3.667-.06v.34c1.189.079,2.425.156,3.667.228" transform="translate(0 -15.235)" fill="#1ba384"/><path d="M3.667,17.267v-.505c-1.281-.6-2.525-1.169-3.667-1.686v.26c1.137.607,2.382,1.262,3.667,1.931" transform="translate(0 -7.767)" fill="#1ba384"/><path d="M28.384,7.341l.647.373c-.226-1.537-.469-3.12-.711-4.646L27.848,2.8c.166,1.489.348,3.034.536,4.545" transform="translate(-14.347 -1.44)" fill="#1ba384"/><path d="M17.612,35.431l8.8-5.083V26.116h0L19.03,21.878V26.12l3.711,2.116L15.369,32.49l-3.363-1.942c-1.2.7-2.426,1.432-3.618,2.146l.466.27c1.228-.668,2.477-1.358,3.69-2.034l.005.011c-1.107.763-2.217,1.538-3.257,2.276l.4.232c1.024-.646,2.1-1.333,3.164-2.023l.009.012c-.925.731-1.866,1.482-2.794,2.23l.467.27c.9-.668,1.8-1.347,2.681-2.014l.01.012c-.8.733-1.595,1.474-2.361,2.192l.413.239c.761-.646,1.545-1.318,2.319-1.991l.012.012c-.672.707-1.357,1.428-2.035,2.149l.466.269c.668-.662,1.334-1.329,1.989-1.986l.012.013c-.583.711-1.166,1.427-1.733,2.128l.417.24c.574-.649,1.161-1.314,1.742-1.98l.015.013c-.5.695-1,1.4-1.5,2.112l.46.267c.511-.672,1.02-1.346,1.519-2.012l.019.014c-.436.714-.872,1.433-1.294,2.138L14.1,36c.448-.676.9-1.366,1.351-2.056l.019.012c-.377.718-.756,1.448-1.134,2.178l.463.267c.4-.716.8-1.435,1.188-2.145l.024.013c-.328.761-.655,1.524-.972,2.271l.325.188.164-.094c.331-.694.666-1.4,1-2.111l.023.011c-.224.627-.448,1.262-.671,1.9l.753-.435q.239-.62.472-1.235l.03.011q-.153.555-.3,1.109l.68-.394.166-.536.027.008c-.032.158-.064.315-.1.474" transform="translate(-4.322 -11.271)" fill="#1ba384"/><path d="M5.981,13.667l.444-.256c-1.2-.783-2.38-1.541-3.468-2.232l-.24.138c1.016.739,2.122,1.536,3.264,2.35" transform="translate(-1.4 -5.759)" fill="#1ba384"/><path d="M9.911,11.374l.447-.256c-1-.878-2-1.736-2.935-2.541l-.278.16c.876.843,1.809,1.735,2.766,2.637" transform="translate(-3.681 -4.419)" fill="#1ba384"/><path d="M24.288,4.978l.693.4c-.518-1.739-1.053-3.5-1.563-5.136L23,0c.4,1.583.84,3.287,1.29,4.978" transform="translate(-11.848)" fill="#1ba384"/><path d="M20.366,5.326l.443-.256c-.526-1.138-1.053-2.266-1.558-3.334l-.3.173c.45,1.1.927,2.254,1.415,3.418" transform="translate(-9.763 -0.894)" fill="#1ba384"/><path d="M5.306,36.519l-.671-.388c-1.588.418-3.17.843-4.636,1.247v.309c1.676-.358,3.5-.758,5.306-1.168" transform="translate(0 -18.614)" fill="#1ba384"/><path d="M3.667,33.636v-.507c-1.253.15-2.492.3-3.667.454v.337c1.177-.086,2.414-.182,3.667-.285" transform="translate(0 -17.067)" fill="#1ba384"/><path d="M1.769,31.919h1.9v-.457c-1.3.072-2.547.147-3.667.224v.226q.831.006,1.768.006Z" transform="translate(0 -16.209)" fill="#1ba384"/><path d="M3.667,34.979h0c-1.329.253-2.583.5-3.667.727v.212c1.244-.165,2.711-.372,4.252-.6Z" transform="translate(0 -18.02)" fill="#1ba384"/><path d="M6.614,37.231c-1.631.558-3.215,1.114-4.563,1.6l.3.174c1.459-.412,3.151-.9,4.876-1.421Z" transform="translate(-1.057 -19.181)" fill="#1ba384"/><path d="M10.414,39.011c-1.343.677-2.675,1.358-3.89,1.99l.378.216C8.2,40.639,9.6,40,11,39.35Z" transform="translate(-3.361 -20.098)" fill="#1ba384"/><path d="M18.728,6.328l.4-.229c-.639-1.149-1.256-2.238-1.8-3.194l-.206.119c.478.995,1.028,2.123,1.613,3.3" transform="translate(-8.817 -1.497)" fill="#1ba384"/><path d="M22.33,4.776l.647.374c-.623-1.629-1.235-3.184-1.757-4.486l-.192.111c.375,1.183.822,2.559,1.3,4" transform="translate(-10.833 -0.343)" fill="#1ba384"/><path d="M4.654,19.639C3.7,19.28,2.8,18.944,1.994,18.65c-.027.065-.051.13-.078.2.822.374,1.751.788,2.738,1.225Z" transform="translate(-0.987 -9.608)" fill="#1ba384"/><path d="M3.952,23.7C2.742,23.429,1.6,23.177.6,22.963c-.017.068-.032.137-.048.205,1.009.3,2.17.631,3.4.977Z" transform="translate(-0.284 -11.83)" fill="#1ba384"/><path d="M9.139,12.756c-.94-.7-1.83-1.358-2.617-1.93-.044.054-.085.11-.127.164.7.6,1.506,1.276,2.361,1.987Z" transform="translate(-3.295 -5.577)" fill="#1ba384"/><path d="M15.715,8.07c-.8-1.059-1.569-2.06-2.248-2.935l-.2.116c.609.916,1.311,1.957,2.057,3.047Z" transform="translate(-6.834 -2.645)" fill="#1ba384"/><path d="M30.377,4.259l-.4-.231c.051,1.374.115,2.863.19,4.344L33.848,10.5l2.769-1.6.469-.767-.471-.27c-.35.537-.7,1.075-1.043,1.607l-.047-.024c.295-.57.588-1.142.877-1.707l-.429-.247c-.318.56-.636,1.131-.956,1.7l-.036-.016c.26-.6.524-1.2.783-1.8L35.295,7.1c-.291.619-.581,1.236-.863,1.848l-.045-.015c.23-.658.459-1.314.682-1.961l-.43-.248c-.262.669-.528,1.348-.793,2.03l-.035-.011c.2-.712.4-1.433.6-2.154l-.474-.274c-.237.761-.47,1.525-.7,2.278l-.041-.01c.162-.811.323-1.623.477-2.42l-.429-.246c-.2.84-.409,1.7-.609,2.566l-.033,0c.121-.9.24-1.816.355-2.727l-.478-.277c-.161.98-.319,1.968-.471,2.938-.013,0-.025,0-.038,0,.063-1.054.119-2.112.17-3.13l-.42-.243c-.109,1.084-.217,2.217-.319,3.347h-.031C31.362,7.2,31.348,6,31.33,4.811l-.482-.279c-.031,1.285-.057,2.591-.076,3.868l-.033,0c-.114-1.408-.238-2.823-.362-4.143" transform="translate(-15.442 -2.075)" fill="#1ba384"/><path d="M0,27.653c1.091.162,2.343.339,3.667.517v-.448c-1.323-.111-2.575-.209-3.667-.287Z" transform="translate(0 -14.134)" fill="#1ba384"/><path d="M6.076,15.709c-.747-.406-1.453-.788-2.1-1.131-.035.06-.069.121-.1.181.563.359,1.183.748,1.839,1.158Z" transform="translate(-1.997 -7.51)" fill="#1ba384"/><path d="M12.219,10.1C11.24,9.128,10.31,8.214,9.5,7.435l-.182.105c.73.826,1.589,1.781,2.5,2.787Z" transform="translate(-4.802 -3.83)" fill="#1ba384"/><path d="M44.918,12.868l-.22-.128-.351.459Z" transform="translate(-22.847 -6.563)" fill="#1ba384"/><path d="M26.535,6.274l.631.364c-.388-1.712-.784-3.407-1.146-4.9l-.341-.2c.246,1.432.543,3.068.856,4.729" transform="translate(-13.229 -0.796)" fill="#1ba384"/><path d="M99.373,158.452h6.372V157.5h-5.182v-2.857h-1.19Z" transform="translate(-51.195 -79.667)" fill="#1ba384"/><path d="M15.5,155.507H21.1v2.934h1.134v-3.866H15.5Z" transform="translate(-7.986 -79.633)" fill="#1ba384"/><path d="M18.669,144.817V143.3h2.519v-.921H15.646v-2.537H14.459V143.3h3.03v1.513H13.478v.934h8.88v-.934Z" transform="translate(-6.944 -72.046)" fill="#1ba384"/><path d="M46.452,146.241h1.134v-6.319H46.452v2.386H45.208v-2.386H44.162v6.319h1.047v-2.924h1.244Z" transform="translate(-22.751 -72.085)" fill="#1ba384"/><path d="M42.951,158.419h1.135v-3.845H37.34v.933h5.611Z" transform="translate(-19.237 -79.633)" fill="#1ba384"/><rect width="1.136" height="7.072" transform="translate(53.3 67.837)" fill="#1ba384"/><path d="M54.637,147.046l.774.707a12.152,12.152,0,0,0,3.178-2.915,7.523,7.523,0,0,0,1.311-3.954H54.893v.958h3.7l0,.051a5.566,5.566,0,0,1-1.341,2.978,11.628,11.628,0,0,1-2.608,2.174" transform="translate(-28.148 -72.581)" fill="#1ba384"/><rect width="1.136" height="10.969" transform="translate(33.039 67.837)" fill="#1ba384"/><path d="M76.225,153.268v.87h5.369v.958H76.225v2.646H82.8v-.883H77.38V155.9h5.357v-2.634Z" transform="translate(-39.269 -78.96)" fill="#1ba384"/><path d="M78.388,151.409v-1.249h3.989v-.882H72.992v.882h4.23v1.249Z" transform="translate(-37.604 -76.904)" fill="#1ba384"/><path d="M104.041,146.994h1.046v-7.072h-1.046V141.9H102.5v.933h1.537Z" transform="translate(-52.808 -72.085)" fill="#1ba384"/><path d="M116.061,147.14h4.5v-.971h-3.386V144.1h3.17v-.951h-3.17v-1.9h3.386v-.969h-4.5Z" transform="translate(-59.792 -72.27)" fill="#1ba384"/><path d="M128.3,150.869h1.135V139.926H128.3v3.044h-1.892v.951H128.3Z" transform="translate(-65.123 -72.087)" fill="#1ba384"/><path d="M32.877,144.982l.7.682a6.508,6.508,0,0,0,1.786-2.021l.029-.05.045.038a6.961,6.961,0,0,1,1.541,2.02l.753-.633a8.526,8.526,0,0,0-1.056-1.59,6.133,6.133,0,0,0-.814-.832l-.025-.019.01-.032a6.717,6.717,0,0,0,.312-1.86V140.1H35.009v.589a5.227,5.227,0,0,1-.436,2.259,5.659,5.659,0,0,1-1.7,2.038" transform="translate(-16.938 -72.174)" fill="#1ba384"/><path d="M93.469,144.982l.705.682a6.518,6.518,0,0,0,1.787-2.021l.027-.05.046.038a7,7,0,0,1,1.541,2.02l.752-.633a8.641,8.641,0,0,0-1.054-1.59,6.134,6.134,0,0,0-.814-.832l-.026-.019.01-.032a6.689,6.689,0,0,0,.312-1.86V140.1H95.6v.589a5.242,5.242,0,0,1-.435,2.259,5.645,5.645,0,0,1-1.7,2.038" transform="translate(-48.153 -72.174)" fill="#1ba384"/><path d="M78.938,141.359a5.419,5.419,0,0,0,1.429,1.336,8.286,8.286,0,0,0,1.757.821l.527-.767a7.119,7.119,0,0,1-2.074-1.056,4.518,4.518,0,0,1-1.114-1.289,4.007,4.007,0,0,0,.105-.543,3.107,3.107,0,0,0,.005-.421H78.3a3.005,3.005,0,0,1-.032.506,2.741,2.741,0,0,1-1.022,1.719,7.121,7.121,0,0,1-2.111,1.092l.562.757a7.334,7.334,0,0,0,3.12-2c.022-.028.116-.157.116-.157" transform="translate(-38.71 -71.836)" fill="#1ba384"/></g></g></g></g></svg>