<svg xmlns="http://www.w3.org/2000/svg" width="129" height="37.896" viewBox="0 0 129 37.896"><path d="M234.352,413.167V401.878c0-2.077-.98-3.449-2.94-3.449-1.881,0-2.979,1.372-2.979,3.449v11.289h-5.488V394.2h5.488v1.724h.039a5.824,5.824,0,0,1,4.9-2.156c4.194,0,6.468,2.9,6.468,7.056v12.347Z" transform="translate(-191.198 -386.501)"/><path d="M399.628,381.91h0v-4.664h5.488v4.664Zm0,21.99h0V384.929h5.488V403.9Z" transform="translate(-290.32 -377.234)"/><path d="M428.63,406.639c-4.39,0-6.037-1.959-6.037-6.311V391.47h-1.97v-4.037h1.97v-5.724h5.449v5.724H431.1v4.037h-3.057v8.623c0,1.411.471,1.881,1.725,1.881H431.1v4.664Z" transform="translate(-302.099 -379.738)"/><path d="M360.975,413.718v-1.764h-.039a5.665,5.665,0,0,1-4.86,2.195c-4.194,0-6.389-2.94-6.389-7.055V394.747h5.488v11.289c0,2.038.98,3.45,2.9,3.45,1.881,0,2.9-1.373,2.9-3.45V394.747h5.488v18.971Z" transform="translate(-262.301 -387.052)"/><path d="M278.466,413.545c6.506,0,8.439-4.429,8.439-7.628h-5.494a2.7,2.7,0,0,1-2.945,2.914,2.862,2.862,0,0,1-2.94-2.078,15.772,15.772,0,0,1,0-6.632,2.862,2.862,0,0,1,2.94-2.077,2.7,2.7,0,0,1,2.945,2.913H286.9c0-3.2-1.932-7.628-8.439-7.628-4,0-7.134,1.917-8.231,5.433a17.729,17.729,0,0,0,0,9.349c1.1,3.516,4.233,5.433,8.231,5.433" transform="translate(-217.374 -386.257)"/><path d="M317.472,394.681h5.049v3.637c1.179-3.426,4.676-3.8,6.433-3.665v5.427c-1.057-.094-4.008-.442-5.369,1.66a5.715,5.715,0,0,0-.578,3.053v8.86h-5.535Z" transform="translate(-244.229 -386.985)"/><rect width="5.614" height="26.667" transform="translate(21.053)"/><path d="M178.619,439.99v-8.421H173V445.6H187.04V439.99Z" transform="translate(-163.18 -407.708)" fill="#fab40a"/><path d="M158.343,377.216a7.72,7.72,0,1,0,7.72,7.72,7.72,7.72,0,0,0-7.72-7.72m0,10.378A2.658,2.658,0,1,1,161,384.936a2.661,2.661,0,0,1-2.658,2.658" transform="translate(-150.624 -377.216)" fill="#ff460a"/></svg>