<svg xmlns="http://www.w3.org/2000/svg" xmlns:xlink="http://www.w3.org/1999/xlink" width="248.127" height="60" viewBox="0 0 248.127 60">
  <defs>
    <clipPath id="clip-path">
      <rect id="사각형_492" data-name="사각형 492" width="248.127" height="60" fill="#06c"/>
    </clipPath>
  </defs>
  <g id="그룹_11582" data-name="그룹 11582" clip-path="url(#clip-path)">
    <path id="패스_5761" data-name="패스 5761" d="M22.308,69.572a5.619,5.619,0,0,1-.429,2.162,6.358,6.358,0,0,1-1.221,1.9A7.837,7.837,0,0,1,18.694,75.1a7.575,7.575,0,0,1-2.557.808v2.871H27.125v2.607H.53V78.778H11.518V75.908a8.414,8.414,0,0,1-2.59-.825,7.512,7.512,0,0,1-1.963-1.452,5.653,5.653,0,0,1-1.683-4.059A5.21,5.21,0,0,1,5.941,67,6.764,6.764,0,0,1,7.756,64.92a8.535,8.535,0,0,1,2.689-1.4,10.848,10.848,0,0,1,3.382-.512,12.036,12.036,0,0,1,3.25.429A8.974,8.974,0,0,1,19.8,64.689a6.109,6.109,0,0,1,1.831,2.062,5.791,5.791,0,0,1,.677,2.821M9.373,89.205H24.155v2.574H7.921a3.439,3.439,0,0,1-2.293-.792,2.81,2.81,0,0,1-.941-2.277V83.1H9.373v6.1Zm8.315-19.633a4.038,4.038,0,0,0-1.023-2.854,3.674,3.674,0,0,0-2.838-1.106,3.741,3.741,0,0,0-3.96,3.96,4.017,4.017,0,0,0,.957,2.9,4.014,4.014,0,0,0,3,.99,3.642,3.642,0,0,0,2.887-1.105,4.066,4.066,0,0,0,.974-2.788" transform="translate(-0.269 -31.977)" fill="#06c"/>
    <path id="패스_5762" data-name="패스 5762" d="M74.659,78.921V63.743h4.586a1.221,1.221,0,0,0-.033.3v4.7q0,.841.033,1.8h2.343q.561,0,1.105.017c.363.011.654.016.875.016h.264c.044,0,.066-.011.066-.033v2.64H79.245q-.033,2.673-.033,5.048V91.361q0,.462.033.792H74.659V81.132q-.99.4-2.211.759a9.59,9.59,0,0,1-2.739.363h-9.5a3.2,3.2,0,0,1-2.343-.841,2.937,2.937,0,0,1-.858-2.194q0-.99.016-1.881t.017-1.65V73.279c0-.154-.006-.3-.017-.429s-.016-.253-.016-.363v-.33h9.767V67.274H56.742V64.667H71.425v10.1H61.658v4.883h8.381a13.862,13.862,0,0,0,4.619-.726" transform="translate(-28.798 -32.351)" fill="#06c"/>
    <path id="패스_5763" data-name="패스 5763" d="M117.155,64.109a7.817,7.817,0,0,1,3.019.594A8.273,8.273,0,0,1,122.7,66.32a7.854,7.854,0,0,1,1.683,2.392,6.939,6.939,0,0,1,.627,2.92,6.676,6.676,0,0,1-.627,2.838,7.919,7.919,0,0,1-7.226,4.586,8.024,8.024,0,0,1-3.069-.594,8.206,8.206,0,0,1-2.541-1.617,7.622,7.622,0,0,1-1.716-2.376,6.669,6.669,0,0,1-.627-2.838,6.752,6.752,0,0,1,.676-3,7.936,7.936,0,0,1,1.8-2.409,8.26,8.26,0,0,1,5.477-2.112m0,2.673a2.43,2.43,0,0,0-1.3.379,3.348,3.348,0,0,0-1.039,1.04,5.036,5.036,0,0,0-.709,1.534,6.932,6.932,0,0,0-.248,1.9,6.666,6.666,0,0,0,.248,1.831,4.611,4.611,0,0,0,.709,1.5A3.331,3.331,0,0,0,115.852,76a2.422,2.422,0,0,0,1.3.38,2.287,2.287,0,0,0,1.254-.38,3.779,3.779,0,0,0,1.056-1.039,5.463,5.463,0,0,0,.693-1.485,6.258,6.258,0,0,0,.264-1.848,7.084,7.084,0,0,0-.2-1.584,6.207,6.207,0,0,0-.594-1.584,3.763,3.763,0,0,0-1.023-1.2,2.33,2.33,0,0,0-1.452-.479m-2.8,22.437V82.257h4.619v7.457h14.914v2.607H117.551a3.32,3.32,0,0,1-2.293-.809,2.91,2.91,0,0,1-.907-2.293m14.188-4.29v-.924q0-.462.016-1.056t.017-1.353V67.211q0-.759-.017-1.353t-.016-1.023v-.891h4.619V84.93Z" transform="translate(-55.423 -32.453)" fill="#06c"/>
    <path id="패스_5764" data-name="패스 5764" d="M181.845,63.676a8.392,8.392,0,0,1,3.036.545,8.168,8.168,0,0,1,2.475,1.468,7.41,7.41,0,0,1,1.683,2.227,6.071,6.071,0,0,1,.627,2.722,5.83,5.83,0,0,1-.627,2.64,7.063,7.063,0,0,1-1.683,2.178,8,8,0,0,1-2.491,1.518,8.449,8.449,0,0,1-6.055,0,8.042,8.042,0,0,1-2.475-1.518,7.307,7.307,0,0,1-1.667-2.194,6.018,6.018,0,0,1,.066-5.412,7.438,7.438,0,0,1,1.766-2.194,8.381,8.381,0,0,1,2.491-1.452,8.048,8.048,0,0,1,2.854-.528m-3.762,15.772H197.32v7.589H183.066v2.574h14.881v2.574H181.68a3.2,3.2,0,0,1-2.392-.858,3.07,3.07,0,0,1-.841-2.244V84.53H192.7V82.055H178.084Zm3.762-13.2a2.2,2.2,0,0,0-1.221.363,3.7,3.7,0,0,0-.99.957,5.285,5.285,0,0,0-.677,1.419,5.7,5.7,0,0,0-.016,3.267,4.482,4.482,0,0,0,.66,1.386,3.552,3.552,0,0,0,.957,1.023,2.123,2.123,0,0,0,1.254.4,2.287,2.287,0,0,0,1.254-.38,3.548,3.548,0,0,0,1.023-1.006,4.791,4.791,0,0,0,.676-1.386,5.389,5.389,0,0,0,.248-1.617,6.5,6.5,0,0,0-.181-1.469,5,5,0,0,0-.578-1.435,3.628,3.628,0,0,0-.99-1.089,2.361,2.361,0,0,0-1.419-.429M193.031,77.5q.033-1.913.033-3.613V65.92q0-.462-.017-.874c-.011-.275-.016-.5-.016-.677v-.561h4.652V77.5Z" transform="translate(-88.338 -32.317)" fill="#06c"/>
    <path id="패스_5765" data-name="패스 5765" d="M231.971,67.442h-5.345V64.8H242.1v2.64H236.69v2.772a11.843,11.843,0,0,0,.578,3.712,12.067,12.067,0,0,0,1.567,3.184,9.476,9.476,0,0,0,2.293,2.343,6.145,6.145,0,0,0,2.722,1.122l-2.277,2.013a6.447,6.447,0,0,1-2.26-.594,10.837,10.837,0,0,1-2.194-1.32,10.016,10.016,0,0,1-1.782-1.765,5.117,5.117,0,0,1-.99-1.931,6.009,6.009,0,0,1-1.039,1.947,9.467,9.467,0,0,1-1.733,1.716,10.321,10.321,0,0,1-2.194,1.3,8.073,8.073,0,0,1-2.26.643l-2.277-2.013a6.109,6.109,0,0,0,2.673-1.105,9.593,9.593,0,0,0,2.277-2.293,11.8,11.8,0,0,0,1.584-3.184,11.969,11.969,0,0,0,.594-3.778Zm12.737-3.5h4.619a1.221,1.221,0,0,0-.033.3v4.9q0,.875.033,1.831,1.22,0,2.013.017t1.287.016h.792a3.743,3.743,0,0,0,.528-.033v2.673h-4.619q-.033,2.607-.033,4.916V91.529q0,.462.033.792h-4.619V89.665q0-.809.033-1.832V68.365q-.033-1.022-.033-1.848V63.944Z" transform="translate(-114.113 -32.453)" fill="#06c"/>
    <path id="패스_5766" data-name="패스 5766" d="M302.653,78.921V63.743h4.619v28.41h-4.619V81.132a22.507,22.507,0,0,1-2.178.759,9.59,9.59,0,0,1-2.739.363h-9.866a3.2,3.2,0,0,1-2.343-.841,2.937,2.937,0,0,1-.858-2.194q0-.99.016-1.881t.017-1.65V73.279c0-.154-.006-.3-.017-.429s-.016-.253-.016-.363v-.33h9.767V67.274H284.406V64.667h14.683v10.1h-9.767v4.883H298a14.55,14.55,0,0,0,2.557-.214,15,15,0,0,0,2.1-.512" transform="translate(-144.341 -32.351)" fill="#06c"/>
    <path id="패스_5767" data-name="패스 5767" d="M361.436,78.822H350.185a3.307,3.307,0,0,1-2.343-.858,2.475,2.475,0,0,1-.66-.974,3.613,3.613,0,0,1-.2-1.237V64.271h4.553a3.179,3.179,0,0,0-.017.726q.016.693.017,1.584v2.244h5.246V64.271h4.653V78.822Zm8.018,5.741v7.589h-4.586V84.2H349.393v-2.64h16.894a3.241,3.241,0,0,1,2.343.825,3.019,3.019,0,0,1,.825,2.178M351.537,76.15h5.246V71.53h-5.246Zm17.917-7.028h4.619v2.64a2.918,2.918,0,0,0-.71-.033h-2.672q-.578,0-1.238.033v7.688h-4.586V63.743h4.586v5.378Z" transform="translate(-176.101 -32.351)" fill="#06c"/>
    <path id="패스_5768" data-name="패스 5768" d="M416.553,75.226q.627-.165,1.155-.28a3.392,3.392,0,0,0,.891-.314V63.743h4.652v5.048h2.343q.858,0,1.567.016a2.831,2.831,0,0,0,.71-.016V71.5h-4.619v7.226H418.6V76.81a7.257,7.257,0,0,1-.974.495,8.122,8.122,0,0,1-1.2.4q-.661.165-1.353.28a8.956,8.956,0,0,1-1.485.116h-9.536a3.083,3.083,0,0,1-2.277-.891,2.777,2.777,0,0,1-.924-2.178q.033-.759.033-1.4V70.606c0-.11-.006-.22-.017-.33s-.016-.2-.016-.264v-.2h9.932V66.977h-10.2V64.3H415.4v8.018h-9.9v3.069h8.381q.759,0,1.419-.05t1.254-.115m-12.11,13.891q.033-1.155.034-2.194V82.089c0-.176-.006-.347-.017-.511s-.017-.3-.017-.413V80.8h18.742V92.186H407.677a3.245,3.245,0,0,1-2.343-.792,2.95,2.95,0,0,1-.891-2.277m4.619.495h9.5v-6.17h-9.5Z" transform="translate(-203.303 -32.351)" fill="#06c"/>
    <path id="패스_5769" data-name="패스 5769" d="M458.787,68.145h-3.234V65.539h5.972V62.47h4.652a1.394,1.394,0,0,0-.066.445v1.551a9.112,9.112,0,0,0,.066,1.073h5.939v2.607h-3.2a6.268,6.268,0,0,1,1.5,2.013,5.754,5.754,0,0,1,.182,4.454,7.1,7.1,0,0,1-.99,1.782,7.327,7.327,0,0,1-1.535,1.435,6.41,6.41,0,0,1-1.9.908v3.069h3.531a19.584,19.584,0,0,0,2.755-.181,11.681,11.681,0,0,0,2.128-.479V63.295h4.653q-.033.363-.033.858V90.979q0,.4.033.726h-4.653V83.456q-.957.33-2.26.643a11.739,11.739,0,0,1-2.755.314H455.388V81.806h6.137V78.7a5.932,5.932,0,0,1-1.914-.924,7.125,7.125,0,0,1-1.485-1.452,6.235,6.235,0,0,1-1.007-1.782,5.678,5.678,0,0,1-.346-1.947,5.3,5.3,0,0,1,.578-2.491,7.966,7.966,0,0,1,1.435-1.963m5.048.429a1.793,1.793,0,0,0-1.039.33,2.753,2.753,0,0,0-.809.891,4.916,4.916,0,0,0-.578,1.287,5.394,5.394,0,0,0-.016,2.953,4.567,4.567,0,0,0,.561,1.271,2.835,2.835,0,0,0,.808.94,1.785,1.785,0,0,0,1.073.347,1.858,1.858,0,0,0,1.089-.347,3.491,3.491,0,0,0,.891-.94,4.6,4.6,0,0,0,.561-1.271,5.313,5.313,0,0,0,.2-1.435,5.8,5.8,0,0,0-.165-1.3,5.023,5.023,0,0,0-.495-1.3,3.88,3.88,0,0,0-.875-1.007,1.861,1.861,0,0,0-1.2-.412" transform="translate(-231.118 -31.705)" fill="#06c"/>
    <g id="그룹_11615" data-name="그룹 11615" transform="translate(-5900.366 -2176.262)">
      <path id="패스_6021" data-name="패스 6021" d="M2.269,16.919q1.153-.92,2.243-1.88A28.98,28.98,0,0,0,6.6,13a12.66,12.66,0,0,0,1.776-2.476v.026a4.07,4.07,0,0,0,.35-2.606,3.045,3.045,0,0,0-1.88-1.7l.026.026a4.549,4.549,0,0,0-1.594-.233,7.028,7.028,0,0,0-1.595.233A7.547,7.547,0,0,0,2.165,6.9a8.262,8.262,0,0,0-1.284.856L.493,4.435A16.619,16.619,0,0,1,3.15,3.54a11.9,11.9,0,0,1,2.813-.324,8.534,8.534,0,0,1,2.45.337A5.907,5.907,0,0,1,10.4,4.564,4.96,4.96,0,0,1,11.745,6.3a5.632,5.632,0,0,1,.493,2.437,4.3,4.3,0,0,1-.1.933,7.819,7.819,0,0,1-.259.907l.026-.026a7.978,7.978,0,0,1-1.231,2.411A21.144,21.144,0,0,1,8.608,15.4q-1.167,1.192-2.346,2.217T4.2,19.369l8.323-.1v3.059q-3.475,0-6.508-.039T0,22.247V18.954a27.226,27.226,0,0,1,2.269-2.035" transform="translate(5900 2177.028)" fill="#06c"/>
      <path id="패스_6022" data-name="패스 6022" d="M32.227,12.887a17.66,17.66,0,0,1,.337-3.422A10.124,10.124,0,0,1,33.7,6.353a6.418,6.418,0,0,1,2.087-2.268,5.757,5.757,0,0,1,3.254-.869,5.7,5.7,0,0,1,4.045,1.556,7.233,7.233,0,0,1,1.283,1.673,11.746,11.746,0,0,1,.895,2.035,14.008,14.008,0,0,1,.493,2.2,15.731,15.731,0,0,1-.221,5.626,10.918,10.918,0,0,1-1.18,3.111,6.906,6.906,0,0,1-2.139,2.269,5.62,5.62,0,0,1-3.176.868,5.519,5.519,0,0,1-3.254-.921A6.808,6.808,0,0,1,33.7,19.291a10.124,10.124,0,0,1-1.141-3.111,17.026,17.026,0,0,1-.337-3.293m3.4.985a11,11,0,0,0,.169,1.789,7.868,7.868,0,0,0,.557,1.893,4.369,4.369,0,0,0,1.05,1.517,2.339,2.339,0,0,0,1.647.609,2.2,2.2,0,0,0,1.763-.791,5.943,5.943,0,0,0,1.063-1.88,11.579,11.579,0,0,0,.506-2.243,16.107,16.107,0,0,0,.142-1.88,15.322,15.322,0,0,0-.156-1.97,11.016,11.016,0,0,0-.544-2.256,6.008,6.008,0,0,0-1.089-1.854,2.154,2.154,0,0,0-1.685-.765,2.259,2.259,0,0,0-1.607.609A4.529,4.529,0,0,0,36.4,8.142a7.583,7.583,0,0,0-.6,1.867,9.722,9.722,0,0,0-.181,1.737Z" transform="translate(5880.244 2177.028)" fill="#06c"/>
      <path id="패스_6023" data-name="패스 6023" d="M68.866,16.919q1.153-.92,2.243-1.88A28.979,28.979,0,0,0,73.2,13a12.66,12.66,0,0,0,1.776-2.476v.026a4.07,4.07,0,0,0,.35-2.606,3.045,3.045,0,0,0-1.88-1.7l.026.026a4.549,4.549,0,0,0-1.594-.233,7.028,7.028,0,0,0-1.595.233,7.547,7.547,0,0,0-1.517.622,8.262,8.262,0,0,0-1.284.856L67.09,4.435a16.619,16.619,0,0,1,2.658-.894,11.894,11.894,0,0,1,2.813-.324,8.534,8.534,0,0,1,2.45.337,5.907,5.907,0,0,1,1.983,1.011A4.96,4.96,0,0,1,78.342,6.3a5.632,5.632,0,0,1,.493,2.437,4.3,4.3,0,0,1-.1.933,7.818,7.818,0,0,1-.259.907l.026-.026a7.978,7.978,0,0,1-1.231,2.411A21.144,21.144,0,0,1,75.2,15.4q-1.167,1.192-2.346,2.217T70.8,19.369l8.323-.1v3.059q-3.475,0-6.508-.039T66.6,22.247V18.954a27.226,27.226,0,0,1,2.269-2.035" transform="translate(5859.174 2177.028)" fill="#06c"/>
      <path id="패스_6024" data-name="패스 6024" d="M98.824,12.887a17.66,17.66,0,0,1,.337-3.422A10.124,10.124,0,0,1,100.3,6.353a6.418,6.418,0,0,1,2.087-2.268,5.757,5.757,0,0,1,3.254-.869,5.7,5.7,0,0,1,4.045,1.556,7.233,7.233,0,0,1,1.283,1.673,11.745,11.745,0,0,1,.895,2.035,14.009,14.009,0,0,1,.493,2.2,15.731,15.731,0,0,1-.221,5.626,10.918,10.918,0,0,1-1.18,3.111,6.906,6.906,0,0,1-2.139,2.269,5.62,5.62,0,0,1-3.176.868,5.519,5.519,0,0,1-3.254-.921,6.808,6.808,0,0,1-2.087-2.346,10.124,10.124,0,0,1-1.141-3.111,17.025,17.025,0,0,1-.337-3.293m3.4.985a11,11,0,0,0,.169,1.789,7.868,7.868,0,0,0,.557,1.893A4.37,4.37,0,0,0,104,19.071a2.339,2.339,0,0,0,1.647.609,2.2,2.2,0,0,0,1.763-.791,5.944,5.944,0,0,0,1.063-1.88,11.579,11.579,0,0,0,.506-2.243,16.106,16.106,0,0,0,.142-1.88,15.323,15.323,0,0,0-.156-1.97,11.015,11.015,0,0,0-.544-2.256,6.008,6.008,0,0,0-1.089-1.854,2.154,2.154,0,0,0-1.685-.765,2.259,2.259,0,0,0-1.607.609A4.528,4.528,0,0,0,103,8.142a7.583,7.583,0,0,0-.6,1.867,9.721,9.721,0,0,0-.182,1.737Z" transform="translate(5839.418 2177.028)" fill="#06c"/>
      <path id="패스_6025" data-name="패스 6025" d="M161.678,4.609a4.192,4.192,0,0,0,.467.026h2.878a1.376,1.376,0,0,0,.311-.026V6.657h-3.656v6.586h-3.63v-2a10.652,10.652,0,0,1-1.919.609,10.323,10.323,0,0,1-2.282.246h-10.6V10.027a1.048,1.048,0,0,0,.376.052h1.763q.635,0,1.232-.052V5.179h3.474a1.473,1.473,0,0,0-.052.479V8.252q0,.894.052,1.776H154a15.109,15.109,0,0,0,2.282-.156,10.2,10.2,0,0,0,1.763-.415V.2h3.63a1.182,1.182,0,0,0-.026.311V4.038q0,.286.026.57M152.552,2.69h-8.5V.642h9.619a2.543,2.543,0,0,1,1.841.674,2.337,2.337,0,0,1,.7,1.763V5.361a5.9,5.9,0,0,1-.1,1.076q-.1.558-.233,1.076-.156.519-.324.933a2.262,2.262,0,0,1-.324.6h-3.163a4.954,4.954,0,0,0,.415-1.7q.078-.972.078-1.88Zm6.637,11.849a4.513,4.513,0,0,1,1.945,3.63,4.064,4.064,0,0,1-.544,2.061,5.594,5.594,0,0,1-1.452,1.646,7.281,7.281,0,0,1-2.1,1.063,8.194,8.194,0,0,1-5.069-.026,6.967,6.967,0,0,1-2.087-1.115,5.161,5.161,0,0,1-1.413-1.633,4.127,4.127,0,0,1-.505-2,3.956,3.956,0,0,1,.505-1.931,5.667,5.667,0,0,1,1.387-1.647,6.935,6.935,0,0,1,2.1-1.115,8.08,8.08,0,0,1,2.619-.415,7.339,7.339,0,0,1,4.615,1.478m-2.567,5.808a3.182,3.182,0,0,0,.856-2.178,2.945,2.945,0,0,0-.221-1.115,3.42,3.42,0,0,0-.609-.985,3.342,3.342,0,0,0-.921-.687,2.5,2.5,0,0,0-1.154-.272,2.739,2.739,0,0,0-1.141.247,2.912,2.912,0,0,0-.933.661,3.039,3.039,0,0,0-.882,2.152,3.119,3.119,0,0,0,.233,1.193,3.548,3.548,0,0,0,.622,1.011,2.906,2.906,0,0,0,.933.661,2.768,2.768,0,0,0,3.215-.687" transform="translate(5812.188 2178.877)" fill="#06c"/>
      <path id="패스_6026" data-name="패스 6026" d="M206.08,15.568h-8.634V13.519h3.267q1.452,0,3.331.013t3.85.013q1.945,0,3.811-.013t3.345-.013h3.293v2.048H209.71v7.726h-3.63V15.568Zm-.026-11.953h-6.43V1.541H216.14V3.615h-6.4v.1a4.206,4.206,0,0,0,.752,2.372,7.869,7.869,0,0,0,1.919,1.984,9.347,9.347,0,0,0,2.554,1.348,8.288,8.288,0,0,0,2.736.493l-1.737,1.556a9.831,9.831,0,0,1-2.385-.311,11.976,11.976,0,0,1-2.359-.856,9.987,9.987,0,0,1-2.035-1.219,4.459,4.459,0,0,1-1.283-1.478,4.364,4.364,0,0,1-1.284,1.5,9.994,9.994,0,0,1-2.035,1.219,12.548,12.548,0,0,1-2.424.842,10.2,10.2,0,0,1-2.347.3l-1.711-1.556a8.169,8.169,0,0,0,2.761-.505,10.077,10.077,0,0,0,2.58-1.361,7.48,7.48,0,0,0,1.88-1.958,4.26,4.26,0,0,0,.739-2.372Z" transform="translate(5778.961 2178.055)" fill="#06c"/>
      <path id="패스_6027" data-name="패스 6027" d="M255.935,2.867h-4.1V.793h11.953V2.867h-4.148v1.3a8.164,8.164,0,0,0,.479,2.852,7.551,7.551,0,0,0,1.284,2.256,6.442,6.442,0,0,0,1.789,1.582,6.07,6.07,0,0,0,2.074.778l-1.789,1.556a6.545,6.545,0,0,1-1.724-.48,8.824,8.824,0,0,1-1.7-.946,7.838,7.838,0,0,1-1.439-1.258,3.975,3.975,0,0,1-.842-1.413,3.85,3.85,0,0,1-.8,1.426,6.95,6.95,0,0,1-1.4,1.245,9.261,9.261,0,0,1-1.75.946,6.925,6.925,0,0,1-1.724.48l-1.789-1.556a5.681,5.681,0,0,0,2.074-.752A6.793,6.793,0,0,0,254.2,9.3a7.873,7.873,0,0,0,1.258-2.269,8.28,8.28,0,0,0,.479-2.865Zm-.544,12.082h3.656v5.419h12V22.39H257.906a2.6,2.6,0,0,1-1.815-.635,2.276,2.276,0,0,1-.7-1.776Zm11.2-9.645q.025-.752.026-1.387V.9c0-.121,0-.229-.013-.324s-.013-.185-.013-.272V.067h3.682V16.609h-3.682v-.415c0-.138,0-.294.013-.467s.013-.371.013-.6V9.8q0-1.154-.026-2.476h-4.2V5.3Z" transform="translate(5746.555 2178.959)" fill="#06c"/>
      <path id="패스_6028" data-name="패스 6028" d="M321.944,11.434V9.8a7.883,7.883,0,0,1-1.7.635,8.5,8.5,0,0,1-2.191.272h-7.6a2.364,2.364,0,0,1-1.828-.687,2.441,2.441,0,0,1-.635-1.724V.13h3.578V8.66h6.663A13.38,13.38,0,0,0,320.3,8.5a6.7,6.7,0,0,0,1.646-.441V1.3q0-.285-.013-.531c-.009-.164-.013-.307-.013-.428V0h3.656a.106.106,0,0,0-.026.078V.259q0,.286.013.739t.013.946V3.889h3.63V5.937h-3.63v5.5ZM310.51,19.886V13.119h14.8v9.2H313.051a2.659,2.659,0,0,1-1.815-.635,2.268,2.268,0,0,1-.726-1.8m3.63.389h7.545V15.193H314.14Z" transform="translate(5711.191 2179)" fill="#06c"/>
      <path id="패스_6029" data-name="패스 6029" d="M381.764,12.322v1.919a6.37,6.37,0,0,1,2.619,1.193,3.953,3.953,0,0,1,0,6.715,5.664,5.664,0,0,1-2,1.037,8.762,8.762,0,0,1-2.411.311,8.9,8.9,0,0,1-2.424-.311,5.906,5.906,0,0,1-2.035-1.037,4.02,4.02,0,0,1-1.841-3.345,4.086,4.086,0,0,1,1.841-3.371,6.794,6.794,0,0,1,2.671-1.193h-.052V12.322H369.5V10.248h3.267q1.478.026,3.345.026h7.674q1.867,0,3.345-.026H390.4v2.074Zm-6.611-6.248a7.69,7.69,0,0,0,1.931-1.62A4.338,4.338,0,0,0,378,2.677h-5.989V.6h15.868V2.677h-5.989a3.568,3.568,0,0,0,.921,1.789,8.7,8.7,0,0,0,2.009,1.607,11.232,11.232,0,0,0,2.411,1.141,8.06,8.06,0,0,0,2.515.389l-1.737,1.607a12.531,12.531,0,0,1-4.771-1.063,6.288,6.288,0,0,1-3.293-2.7,6.138,6.138,0,0,1-3.293,2.7,12.317,12.317,0,0,1-4.8,1.063L370.122,7.6a9.608,9.608,0,0,0,5.03-1.53m7.623,12.73a2.693,2.693,0,0,0-.83-1.97,2.484,2.484,0,0,0-1.97-.907,2.611,2.611,0,0,0-2,.907,2.854,2.854,0,0,0-.8,1.97,2.793,2.793,0,0,0,.8,1.97,2.836,2.836,0,0,0,2,.83,2.585,2.585,0,0,0,1.97-.83,2.692,2.692,0,0,0,.83-1.97" transform="translate(5673.487 2178.63)" fill="#06c"/>
      <path id="패스_6030" data-name="패스 6030" d="M432.752,18.571V14.06h3.63v4.511h8.271v2.022H424.507V18.571Zm3.656-14.6a8.525,8.525,0,0,0,.661,3.267,6.576,6.576,0,0,0,1.984,2.671,8.64,8.64,0,0,0,5.315,2.282l-1.608,1.582a9.419,9.419,0,0,1-2.346-.324,9.756,9.756,0,0,1-2.4-.972,8.784,8.784,0,0,1-2.061-1.556,6.13,6.13,0,0,1-1.387-2.178,6.742,6.742,0,0,1-1.141,2.022,5.929,5.929,0,0,1-2.1,1.685,11.1,11.1,0,0,1-4.926,1.322l-1.608-1.582a8.265,8.265,0,0,0,5.237-2.282,6.218,6.218,0,0,0,2.048-2.671,8.671,8.671,0,0,0,.648-3.267V1.407h3.682a.075.075,0,0,0-.026.052v.156c0,.139,0,.3.013.493s.013.389.013.6Z" transform="translate(5639.767 2178.137)" fill="#06c"/>
      <path id="패스_6031" data-name="패스 6031" d="M491.448,1.426a2.244,2.244,0,0,1,.7,1.685,13.461,13.461,0,0,1-.856,5.017,9.618,9.618,0,0,1-2.489,3.617,11.439,11.439,0,0,1-7.026,3.215l-2-1.452a11.468,11.468,0,0,0,3.345-1.011,10.485,10.485,0,0,0,2.722-1.945,7.6,7.6,0,0,0,1.867-3.072,14.408,14.408,0,0,0,.6-4.654h-7.26V.778h8.608a2.59,2.59,0,0,1,1.789.648m3.837,20.9V0h3.6V22.323Z" transform="translate(5605.882 2179)" fill="#06c"/>
      <path id="패스_6032" data-name="패스 6032" d="M546.088,4.531h3.163v-1.5q0-.6.013-1.283t.013-1.1V.2h3.63a3.313,3.313,0,0,0-.026.415v9.606q0,.74.026,1.491h-3.656V6.631h-3.06a5.512,5.512,0,0,1-.726,1.932,5.917,5.917,0,0,1-1.348,1.542,6.738,6.738,0,0,1-1.867,1.024,6.492,6.492,0,0,1-2.23.376,6.425,6.425,0,0,1-4.33-1.659,5.781,5.781,0,0,1-1.348-1.815,5.128,5.128,0,0,1-.493-2.23,4.955,4.955,0,0,1,.479-2.152,5.893,5.893,0,0,1,1.309-1.789A6.619,6.619,0,0,1,542.108.538a7.392,7.392,0,0,1,1.828.907,6.353,6.353,0,0,1,1.374,1.387,4.659,4.659,0,0,1,.778,1.7m-6.067-2.256a1.829,1.829,0,0,0-1.037.311,2.661,2.661,0,0,0-.778.8,3.831,3.831,0,0,0-.519,1.141,4.789,4.789,0,0,0-.181,1.3,5.083,5.083,0,0,0,.194,1.439,3.688,3.688,0,0,0,.532,1.128,2.637,2.637,0,0,0,.8.778,1.858,1.858,0,0,0,1.957.013,2.842,2.842,0,0,0,.817-.765,4.331,4.331,0,0,0,.544-1.154,4.788,4.788,0,0,0,.208-1.439,5.254,5.254,0,0,0-.143-1.167,4.254,4.254,0,0,0-.454-1.167,2.93,2.93,0,0,0-.791-.868,1.9,1.9,0,0,0-1.154-.35M552.647,22.5H540.41a2.578,2.578,0,0,1-1.867-.674,2.337,2.337,0,0,1-.7-1.763V13.191H541.5a.2.2,0,0,0-.026.078v.13c0,.139,0,.307.013.506s.013.411.013.635v1.322h7.519V13.191h3.63V22.5ZM541.5,20.45h7.519V17.961H541.5Z" transform="translate(5572.737 2178.877)" fill="#06c"/>
    </g>
  </g>
</svg>
