<svg xmlns="http://www.w3.org/2000/svg" xmlns:xlink="http://www.w3.org/1999/xlink" width="257" height="87" viewBox="0 0 257 87"><defs><clipPath id="a"><rect width="257" height="87" transform="translate(43 678)" fill="#ffaeae"/></clipPath><clipPath id="b"><rect width="188" height="31.287" fill="none"/></clipPath></defs><g transform="translate(-43 -678)"><g clip-path="url(#a)"><g transform="translate(78 706)"><g transform="translate(0 0)" clip-path="url(#b)"><path d="M50.364,10.181c-.137-1.55-.966-3.808-3.438-3.808a3.077,3.077,0,0,0-2.386,1.072,12.571,12.571,0,0,0-2.012,3.677c-.568,1.55-4.164,11.328-4.164,11.328s-3.6-9.779-4.164-11.328a12.541,12.541,0,0,0-2.012-3.677A3.074,3.074,0,0,0,29.8,6.373c-2.469,0-3.3,2.258-3.435,3.808L24.524,28.934h4.771s.881-11.188,1.171-14.812c.068-.719.311-.719.577-.005,1.366,3.652,5.442,14.817,5.442,14.817h3.761s4.077-11.165,5.442-14.817c.267-.714.511-.714.577.005.29,3.624,1.171,14.812,1.171,14.812h4.771Z" transform="translate(6.783 1.763)" fill="#7db212"/><path d="M37.937,3.188A18.6,18.6,0,0,1,48.669,6.579L49.8,3.5a21.86,21.86,0,0,0-23.726,0L27.2,6.578A18.605,18.605,0,0,1,37.937,3.188" transform="translate(7.211 0)" fill="#7db212"/><path d="M0,28.8V6.866H5.925v9.962L12.85,6.866H19.8l-8.091,10.7L20.505,28.8H13.058L5.925,18.954V28.8Z" transform="translate(0 1.899)" fill="#474645"/><rect width="6.048" height="21.931" transform="translate(22.492 8.765)" fill="#474645"/><path d="M50.148,21.839a10.694,10.694,0,0,0,2.62,2.261,5.118,5.118,0,0,0,2.577.749,2.935,2.935,0,0,0,1.963-.646,2.041,2.041,0,0,0,.772-1.637,2.143,2.143,0,0,0-.664-1.686,8.341,8.341,0,0,0-3-1.227,9.833,9.833,0,0,1-4.561-2.261,5.307,5.307,0,0,1-1.333-3.823,6.738,6.738,0,0,1,2.1-5.131,7.608,7.608,0,0,1,5.456-1.985,11.882,11.882,0,0,1,3.437.485A11.2,11.2,0,0,1,62.6,8.41l-1.879,4.278a7.808,7.808,0,0,0-2.082-1.3,5.517,5.517,0,0,0-2.111-.439,2.8,2.8,0,0,0-1.749.514,1.606,1.606,0,0,0-.67,1.325,1.631,1.631,0,0,0,.588,1.317,6.331,6.331,0,0,0,2.266.943l.273.075q3.652.992,4.808,2.175a5.373,5.373,0,0,1,1.186,1.943,7.479,7.479,0,0,1,.4,2.516,7.312,7.312,0,0,1-2.291,5.619A8.629,8.629,0,0,1,55.237,29.5a10.788,10.788,0,0,1-4.167-.78,11.687,11.687,0,0,1-3.618-2.441Z" transform="translate(13.124 1.785)" fill="#474645"/><path d="M73.708,9.723a3.194,3.194,0,0,1,.959,1.077,2.864,2.864,0,0,1,.354,1.39,2.994,2.994,0,0,1-1.061,2.3,3.849,3.849,0,0,1-5.081,0,2.982,2.982,0,0,1-1.07-2.3,2.8,2.8,0,0,1,.363-1.39,3.339,3.339,0,0,1,.95-1.077H67.292V8.412h2.949V6.86h2.33V8.412h2.95V9.723ZM72.226,19.831h7.348v1.311H71.5a1.645,1.645,0,0,1-1.146-.412,1.465,1.465,0,0,1-.458-1.14V16.52h2.33Zm-1.777-9.064a2.353,2.353,0,0,0-.431,1.423,2.393,2.393,0,0,0,.431,1.431,1.08,1.08,0,0,0,1.939,0,2.432,2.432,0,0,0,.424-1.431,2.392,2.392,0,0,0-.424-1.423,1.088,1.088,0,0,0-1.939,0m6.3,6.65V6.86h2.328v3.294H81.4v1.329H79.073v5.935Z" transform="translate(18.611 1.897)" fill="#474645"/><path d="M80.58,6.941h9.936V10.08a5.662,5.662,0,0,1-.163,1.277,2.7,2.7,0,0,1-.406,1h2.242v1.312H86.7v2.294H90.48v5.175H88.152V17.272H80.527v-1.31h3.846V13.669H78.993V12.356h8.918a3.851,3.851,0,0,0,.223-1.034c.033-.391.051-.788.051-1.191V8.251H80.58Z" transform="translate(21.847 1.92)" fill="#474645"/><path d="M97.848,21.157v-5.52l-.758.638a3.577,3.577,0,0,1-1.924-1.017,3.507,3.507,0,0,1-1.13-1.777,3.377,3.377,0,0,1-1.121,1.777,3.62,3.62,0,0,1-1.949,1.017l-1.07-.9A3.539,3.539,0,0,0,92.044,13.6a6.724,6.724,0,0,0,.836-3.451v-1.5H90.844V7.339h6.21V8.651h-1.88v1.5a6.737,6.737,0,0,0,.76,3.278,3.789,3.789,0,0,0,1.914,1.846v-8.4h2.191v3.882h1.19V6.873h2.192V21.157h-2.192v-9.09h-1.19v9.09Z" transform="translate(24.862 1.901)" fill="#474645"/><path d="M111.379,10.537V8.364h-7.642V7.035h9.971v4.813h-7.522v1.915h7.8V15.09h-1.744v2.588h2.9v1.311H102.41V17.678h3.052V15.09h-.069a1.563,1.563,0,0,1-1.139-.388,1.435,1.435,0,0,1-.4-1.077V10.537Zm-3.587,7.141h2.12V15.09h-2.12Z" transform="translate(28.323 1.946)" fill="#474645"/><path d="M126.154,6.873V17.43h-2.328V13.2h-2.881a4.12,4.12,0,0,1-3,1.277,3.947,3.947,0,0,1-2.794-1.1,3.574,3.574,0,0,1,0-5.3,3.952,3.952,0,0,1,2.794-1.1A4.136,4.136,0,0,1,121,8.323h2.83V6.873Zm-9.366,2.156a2.959,2.959,0,0,0-.484,1.708,2.949,2.949,0,0,0,.484,1.707,1.387,1.387,0,0,0,1.155.708,1.418,1.418,0,0,0,1.181-.708,2.906,2.906,0,0,0,.491-1.707,2.916,2.916,0,0,0-.491-1.708,1.418,1.418,0,0,0-1.181-.706,1.387,1.387,0,0,0-1.155.706m2.173,10.8h7.71v1.329h-8.436a1.646,1.646,0,0,1-1.146-.415,1.453,1.453,0,0,1-.457-1.137V16.1h2.328Zm4.865-10.211h-2.071a5.121,5.121,0,0,1,.138.551,3.086,3.086,0,0,1,.052.569,3.366,3.366,0,0,1-.052.586,3.742,3.742,0,0,1-.154.586h2.087Z" transform="translate(31.522 1.901)" fill="#474645"/><path d="M130.893,21.138V15.014h-5.365V13.685h8.885a4.423,4.423,0,0,0,.207-1.043c.033-.4.052-.79.052-1.182V8.252H126.65V6.941H137v4.45a5.965,5.965,0,0,1-.156,1.286,3.158,3.158,0,0,1-.363,1.008h2.087v1.329h-5.346v6.124Z" transform="translate(34.717 1.92)" fill="#474645"/><path d="M146.237,13.2v1.242h-3.571v2.1h-2.328v-2.1h-3.174V13.2Zm-2.225-5.521a2.645,2.645,0,0,1,1.017,2.088,2.616,2.616,0,0,1-1.017,2.078,4.051,4.051,0,0,1-4.976,0,2.612,2.612,0,0,1-1.028-2.078,2.64,2.64,0,0,1,1.028-2.088,4.023,4.023,0,0,1,4.976,0m-1.933,12.162h7.986V21.17h-8.693a1.679,1.679,0,0,1-1.155-.414,1.445,1.445,0,0,1-.465-1.137V17.255h2.327ZM140.622,8.562a1.92,1.92,0,0,0-.371,1.208,1.923,1.923,0,0,0,.371,1.208,1.108,1.108,0,0,0,.905.483,1.1,1.1,0,0,0,.888-.483,1.922,1.922,0,0,0,.37-1.208,1.92,1.92,0,0,0-.37-1.208,1.1,1.1,0,0,0-.888-.484,1.11,1.11,0,0,0-.905.484m8.962-1.674V17.757h-2.33V16.444h-3.14V15.289h3.14v-8.4Z" transform="translate(37.935 1.886)" fill="#474645"/><path d="M69.332,20.495h.6v2.233l2.283-2.233h.864L71.13,22.336l1.989,2.72H72.31l-1.633-2.293-.744.7v1.591h-.6Z" transform="translate(19.175 5.668)" fill="#474645"/><path d="M75.053,21.815a1.674,1.674,0,0,1,.44,1.26,2.164,2.164,0,0,1-.388,1.326,1.4,1.4,0,0,1-1.205.525,1.356,1.356,0,0,1-1.083-.463,1.834,1.834,0,0,1-.4-1.246,1.985,1.985,0,0,1,.424-1.333,1.412,1.412,0,0,1,1.134-.5,1.494,1.494,0,0,1,1.08.429m-.346,2.21a2.124,2.124,0,0,0,.2-.934,1.683,1.683,0,0,0-.147-.757.83.83,0,0,0-.806-.46.784.784,0,0,0-.734.392,1.8,1.8,0,0,0-.231.942,1.569,1.569,0,0,0,.231.883.8.8,0,0,0,.728.354.763.763,0,0,0,.756-.42" transform="translate(20.028 5.915)" fill="#474645"/><path d="M75.377,21.478h.531v.574a1.3,1.3,0,0,1,.319-.409.834.834,0,0,1,.587-.24.516.516,0,0,1,.054,0l.126.013v.59A.9.9,0,0,0,76.9,22c-.029,0-.059,0-.093,0a.8.8,0,0,0-.648.272.952.952,0,0,0-.226.626V24.8h-.559Z" transform="translate(20.847 5.92)" fill="#474645"/><path d="M79.119,21.57a1.24,1.24,0,0,1,.5.43,1.473,1.473,0,0,1,.223.586,3.838,3.838,0,0,1,.05.733H77.475a1.435,1.435,0,0,0,.236.814.8.8,0,0,0,.687.308.882.882,0,0,0,.693-.29.992.992,0,0,0,.206-.391h.55a1.145,1.145,0,0,1-.144.407,1.5,1.5,0,0,1-.274.369,1.284,1.284,0,0,1-.626.334,1.884,1.884,0,0,1-.452.05,1.388,1.388,0,0,1-1.047-.452,1.769,1.769,0,0,1-.429-1.265,1.917,1.917,0,0,1,.433-1.3,1.423,1.423,0,0,1,1.13-.5,1.5,1.5,0,0,1,.682.166m.2,1.306a1.446,1.446,0,0,0-.157-.581.8.8,0,0,0-.76-.4.841.841,0,0,0-.641.277,1.056,1.056,0,0,0-.274.707Z" transform="translate(21.261 5.92)" fill="#474645"/><path d="M81.609,22.793a.3.3,0,0,0,.258-.162.5.5,0,0,0,.037-.214A.457.457,0,0,0,81.7,22a1.086,1.086,0,0,0-.583-.129.742.742,0,0,0-.619.236.819.819,0,0,0-.133.391h-.521a.966.966,0,0,1,.4-.858,1.639,1.639,0,0,1,.89-.241,1.8,1.8,0,0,1,.951.223.757.757,0,0,1,.364.7v1.916a.242.242,0,0,0,.036.139.175.175,0,0,0,.151.052.65.65,0,0,0,.083,0c.032,0,.064-.008.1-.014v.412c-.087.024-.153.04-.2.047a1.723,1.723,0,0,1-.186.009.463.463,0,0,1-.42-.2.8.8,0,0,1-.1-.308,1.431,1.431,0,0,1-.491.387,1.493,1.493,0,0,1-.7.166,1.048,1.048,0,0,1-.756-.281.93.93,0,0,1-.295-.7.9.9,0,0,1,.29-.716,1.374,1.374,0,0,1,.757-.314ZM80.433,24.3a.655.655,0,0,0,.419.14,1.274,1.274,0,0,0,.572-.138.768.768,0,0,0,.465-.74v-.449a.93.93,0,0,1-.264.11,2.179,2.179,0,0,1-.315.061l-.338.043a1.3,1.3,0,0,0-.456.128.493.493,0,0,0-.259.465.46.46,0,0,0,.177.38" transform="translate(22.034 5.918)" fill="#474645"/><rect width="0.626" height="4.561" transform="translate(107.378 26.163)" fill="#474645"/><path d="M85.33,21.478h.531v.472a1.468,1.468,0,0,1,.5-.419,1.316,1.316,0,0,1,.586-.128.965.965,0,0,1,.955.493,1.732,1.732,0,0,1,.137.774V24.8h-.566v-2.1a1.151,1.151,0,0,0-.091-.49.547.547,0,0,0-.54-.31,1.093,1.093,0,0,0-.326.04.84.84,0,0,0-.4.273.812.812,0,0,0-.181.34,2.367,2.367,0,0,0-.042.5V24.8H85.33Z" transform="translate(23.599 5.92)" fill="#474645"/><path d="M88.477,23.763a.793.793,0,0,0,.142.429.9.9,0,0,0,.747.269,1.115,1.115,0,0,0,.559-.134.448.448,0,0,0,.241-.417.358.358,0,0,0-.193-.327,2.321,2.321,0,0,0-.486-.157l-.452-.112a2.267,2.267,0,0,1-.637-.236.7.7,0,0,1-.365-.627.957.957,0,0,1,.343-.765,1.386,1.386,0,0,1,.927-.292,1.293,1.293,0,0,1,1.1.442.96.96,0,0,1,.206.6H90.08a.637.637,0,0,0-.138-.343.889.889,0,0,0-.683-.22.833.833,0,0,0-.491.121.377.377,0,0,0-.167.319.39.39,0,0,0,.22.346,1.319,1.319,0,0,0,.374.137l.377.091a2.982,2.982,0,0,1,.821.281.751.751,0,0,1,.327.675,1.015,1.015,0,0,1-.341.766,1.463,1.463,0,0,1-1.039.323,1.413,1.413,0,0,1-1.065-.336,1.283,1.283,0,0,1-.333-.835Z" transform="translate(24.321 5.917)" fill="#474645"/><path d="M90.775,20.735h.564v.928h.531v.457H91.34v2.17a.232.232,0,0,0,.12.232.49.49,0,0,0,.217.034l.087,0c.031,0,.068-.005.107-.01v.444a1.087,1.087,0,0,1-.2.04,1.8,1.8,0,0,1-.227.013.609.609,0,0,1-.531-.2.9.9,0,0,1-.139-.52v-2.2h-.449v-.457h.449Z" transform="translate(24.981 5.735)" fill="#474645"/><path d="M91.975,20.5h.569v.633h-.569Zm0,1.25h.569v3.31h-.569Z" transform="translate(25.437 5.668)" fill="#474645"/><path d="M93.265,20.735h.566v.928h.53v.457h-.53v2.17a.232.232,0,0,0,.119.232.49.49,0,0,0,.217.034l.087,0c.031,0,.068-.005.107-.01v.444a1.079,1.079,0,0,1-.2.04,1.77,1.77,0,0,1-.226.013.6.6,0,0,1-.53-.2.887.887,0,0,1-.14-.52v-2.2h-.449v-.457h.449Z" transform="translate(25.67 5.735)" fill="#474645"/><path d="M95.027,21.462v2.207a.971.971,0,0,0,.079.416.545.545,0,0,0,.541.3.767.767,0,0,0,.775-.521,2.163,2.163,0,0,0,.111-.767V21.462h.559v3.325h-.529l.006-.491a1.141,1.141,0,0,1-.264.32,1.155,1.155,0,0,1-.762.26.979.979,0,0,1-.951-.475,1.444,1.444,0,0,1-.137-.679V21.462Z" transform="translate(26.123 5.936)" fill="#474645"/><path d="M97.419,20.735h.564v.928h.531v.457h-.531v2.17a.232.232,0,0,0,.12.232.494.494,0,0,0,.217.034l.087,0c.031,0,.068-.005.107-.01v.444a1.079,1.079,0,0,1-.2.04,1.763,1.763,0,0,1-.225.013.606.606,0,0,1-.531-.2.887.887,0,0,1-.14-.52v-2.2H96.97v-.457h.449Z" transform="translate(26.819 5.735)" fill="#474645"/><path d="M100.715,21.57a1.248,1.248,0,0,1,.5.43,1.473,1.473,0,0,1,.223.586,3.947,3.947,0,0,1,.05.733H99.07a1.445,1.445,0,0,0,.237.814.793.793,0,0,0,.687.308.882.882,0,0,0,.693-.29.992.992,0,0,0,.206-.391h.55a1.146,1.146,0,0,1-.144.407,1.5,1.5,0,0,1-.274.369,1.285,1.285,0,0,1-.626.334,1.884,1.884,0,0,1-.452.05,1.39,1.39,0,0,1-1.047-.452,1.769,1.769,0,0,1-.429-1.265,1.917,1.917,0,0,1,.433-1.3,1.423,1.423,0,0,1,1.13-.5,1.5,1.5,0,0,1,.682.166m.2,1.306a1.446,1.446,0,0,0-.157-.581.8.8,0,0,0-.76-.4.841.841,0,0,0-.641.277,1.056,1.056,0,0,0-.274.707Z" transform="translate(27.234 5.92)" fill="#474645"/><path d="M105.231,21.815a1.679,1.679,0,0,1,.44,1.26,2.173,2.173,0,0,1-.388,1.326,1.4,1.4,0,0,1-1.205.525A1.356,1.356,0,0,1,103,24.463a1.834,1.834,0,0,1-.4-1.246,1.984,1.984,0,0,1,.423-1.333,1.412,1.412,0,0,1,1.134-.5,1.5,1.5,0,0,1,1.08.429m-.347,2.21a2.108,2.108,0,0,0,.2-.934,1.665,1.665,0,0,0-.148-.757.828.828,0,0,0-.8-.46.788.788,0,0,0-.735.392,1.812,1.812,0,0,0-.231.942,1.579,1.579,0,0,0,.231.883.8.8,0,0,0,.729.354.762.762,0,0,0,.754-.42" transform="translate(28.374 5.915)" fill="#474645"/><path d="M105.876,20.729a.853.853,0,0,1,.754-.286q.052,0,.107,0c.038,0,.08,0,.129.009v.508l-.129-.008h-.073c-.171,0-.273.045-.308.131a2.628,2.628,0,0,0-.049.673h.558V22.2h-.558v2.868h-.554V22.2h-.463v-.442h.463v-.522a.983.983,0,0,1,.121-.508" transform="translate(29.12 5.654)" fill="#474645"/><path d="M108.358,20.5h.885l1.311,3.855,1.3-3.855h.878v4.561h-.589V22.363c0-.092,0-.246.006-.462s.005-.446.005-.692l-1.3,3.848h-.614l-1.314-3.848v.14c0,.111,0,.281.01.511s.008.4.008.5v2.694h-.589Z" transform="translate(29.968 5.668)" fill="#474645"/><path d="M114.276,22.793a.3.3,0,0,0,.258-.162.481.481,0,0,0,.036-.214.454.454,0,0,0-.2-.416,1.084,1.084,0,0,0-.582-.129.744.744,0,0,0-.62.236.819.819,0,0,0-.133.391h-.521a.966.966,0,0,1,.4-.858,1.639,1.639,0,0,1,.89-.241,1.807,1.807,0,0,1,.952.223.758.758,0,0,1,.363.7v1.916a.242.242,0,0,0,.036.139.175.175,0,0,0,.151.052.65.65,0,0,0,.083,0c.032,0,.064-.008.1-.014v.412c-.087.024-.153.04-.2.047a1.705,1.705,0,0,1-.186.009.464.464,0,0,1-.42-.2.8.8,0,0,1-.1-.308,1.431,1.431,0,0,1-.491.387,1.493,1.493,0,0,1-.7.166,1.048,1.048,0,0,1-.756-.281.93.93,0,0,1-.295-.7.9.9,0,0,1,.29-.716,1.378,1.378,0,0,1,.758-.314ZM113.1,24.3a.655.655,0,0,0,.419.14,1.27,1.27,0,0,0,.572-.138.767.767,0,0,0,.463-.74v-.449a.905.905,0,0,1-.263.11,2.178,2.178,0,0,1-.315.061l-.338.043a1.3,1.3,0,0,0-.456.128.493.493,0,0,0-.259.465.46.46,0,0,0,.177.38" transform="translate(31.069 5.918)" fill="#474645"/><path d="M115.414,20.735h.564v.928h.531v.457h-.531v2.17a.232.232,0,0,0,.12.232.493.493,0,0,0,.217.034l.087,0c.031,0,.068-.005.107-.01v.444a1.086,1.086,0,0,1-.2.04,1.8,1.8,0,0,1-.226.013.606.606,0,0,1-.531-.2.887.887,0,0,1-.14-.52v-2.2h-.449v-.457h.449Z" transform="translate(31.796 5.735)" fill="#474645"/><path d="M118.71,21.57a1.248,1.248,0,0,1,.5.43,1.473,1.473,0,0,1,.223.586,3.948,3.948,0,0,1,.05.733h-2.42a1.445,1.445,0,0,0,.237.814.793.793,0,0,0,.687.308.882.882,0,0,0,.693-.29.992.992,0,0,0,.206-.391h.55a1.145,1.145,0,0,1-.144.407,1.5,1.5,0,0,1-.274.369,1.284,1.284,0,0,1-.626.334,1.884,1.884,0,0,1-.452.05,1.39,1.39,0,0,1-1.047-.452,1.769,1.769,0,0,1-.429-1.265,1.917,1.917,0,0,1,.433-1.3,1.423,1.423,0,0,1,1.13-.5,1.5,1.5,0,0,1,.682.166m.2,1.306a1.446,1.446,0,0,0-.157-.581.8.8,0,0,0-.76-.4.841.841,0,0,0-.641.277,1.056,1.056,0,0,0-.274.707Z" transform="translate(32.211 5.92)" fill="#474645"/><path d="M119.4,21.478h.531v.574a1.3,1.3,0,0,1,.319-.409.836.836,0,0,1,.587-.24.516.516,0,0,1,.054,0l.126.013v.59a.906.906,0,0,0-.091-.013c-.029,0-.059,0-.093,0a.8.8,0,0,0-.648.272.951.951,0,0,0-.226.626V24.8H119.4Z" transform="translate(33.021 5.92)" fill="#474645"/><path d="M121.042,20.5h.569v.633h-.569Zm0,1.25h.569v3.31h-.569Z" transform="translate(33.476 5.668)" fill="#474645"/><path d="M123.965,22.793a.3.3,0,0,0,.258-.162.482.482,0,0,0,.036-.214.454.454,0,0,0-.2-.416,1.084,1.084,0,0,0-.582-.129.743.743,0,0,0-.62.236.819.819,0,0,0-.133.391H122.2a.966.966,0,0,1,.4-.858,1.636,1.636,0,0,1,.89-.241,1.807,1.807,0,0,1,.952.223.758.758,0,0,1,.363.7v1.916a.242.242,0,0,0,.036.139.175.175,0,0,0,.151.052.65.65,0,0,0,.083,0c.032,0,.064-.008.1-.014v.412c-.087.024-.153.04-.2.047a1.723,1.723,0,0,1-.186.009.463.463,0,0,1-.42-.2.8.8,0,0,1-.1-.308,1.437,1.437,0,0,1-.49.387,1.5,1.5,0,0,1-.7.166,1.048,1.048,0,0,1-.756-.281.93.93,0,0,1-.295-.7.9.9,0,0,1,.289-.716,1.378,1.378,0,0,1,.76-.314ZM122.789,24.3a.655.655,0,0,0,.419.14,1.274,1.274,0,0,0,.572-.138.767.767,0,0,0,.463-.74v-.449a.905.905,0,0,1-.263.11,2.179,2.179,0,0,1-.315.061l-.338.043a1.291,1.291,0,0,0-.456.128.493.493,0,0,0-.259.465.46.46,0,0,0,.177.38" transform="translate(33.749 5.918)" fill="#474645"/><rect width="0.559" height="4.561" transform="translate(159.483 26.163)" fill="#474645"/><path d="M126.4,23.763a.793.793,0,0,0,.142.429.907.907,0,0,0,.748.269,1.114,1.114,0,0,0,.558-.134.448.448,0,0,0,.241-.417.358.358,0,0,0-.193-.327,2.294,2.294,0,0,0-.486-.157l-.451-.112a2.262,2.262,0,0,1-.638-.236.7.7,0,0,1-.365-.627.955.955,0,0,1,.345-.765,1.382,1.382,0,0,1,.926-.292,1.3,1.3,0,0,1,1.1.442.959.959,0,0,1,.2.6H128a.637.637,0,0,0-.138-.343.885.885,0,0,0-.682-.22.837.837,0,0,0-.493.121.376.376,0,0,0-.166.319.387.387,0,0,0,.22.346,1.3,1.3,0,0,0,.371.137l.378.091a2.982,2.982,0,0,1,.821.281.748.748,0,0,1,.327.675,1.015,1.015,0,0,1-.341.766,1.463,1.463,0,0,1-1.039.323A1.408,1.408,0,0,1,126.2,24.6a1.278,1.278,0,0,1-.334-.835Z" transform="translate(34.81 5.917)" fill="#474645"/><path d="M130.4,23.608a1.282,1.282,0,0,0,.176.629,1.153,1.153,0,0,0,1.044.454,1.779,1.779,0,0,0,.61-.1.7.7,0,0,0,.532-.689.607.607,0,0,0-.225-.531,2.26,2.26,0,0,0-.717-.271l-.6-.139a2.612,2.612,0,0,1-.828-.3.96.96,0,0,1-.423-.853,1.334,1.334,0,0,1,.415-1.01,1.629,1.629,0,0,1,1.172-.394,2,2,0,0,1,1.187.346,1.268,1.268,0,0,1,.485,1.107h-.58a1.172,1.172,0,0,0-.19-.562,1.081,1.081,0,0,0-.92-.356,1.037,1.037,0,0,0-.753.229.742.742,0,0,0-.227.535.525.525,0,0,0,.269.49,3.952,3.952,0,0,0,.8.249l.619.146a1.839,1.839,0,0,1,.691.289,1.091,1.091,0,0,1,.423.928,1.166,1.166,0,0,1-.537,1.084,2.366,2.366,0,0,1-1.25.326,1.837,1.837,0,0,1-1.3-.434,1.484,1.484,0,0,1-.461-1.171Z" transform="translate(35.904 5.643)" fill="#474645"/><path d="M135.467,21.66a1.308,1.308,0,0,1,.425.941h-.545a.992.992,0,0,0-.225-.511.719.719,0,0,0-.569-.2.783.783,0,0,0-.763.521,2.057,2.057,0,0,0-.151.834,1.576,1.576,0,0,0,.213.841.721.721,0,0,0,.664.341.731.731,0,0,0,.551-.212,1.161,1.161,0,0,0,.28-.58h.545a1.315,1.315,0,0,1-1.42,1.273,1.271,1.271,0,0,1-1.039-.476,1.819,1.819,0,0,1-.389-1.191,2,2,0,0,1,.425-1.363,1.374,1.374,0,0,1,1.084-.488,1.453,1.453,0,0,1,.914.273" transform="translate(36.796 5.915)" fill="#474645"/><path d="M135.712,20.5h.569v.633h-.569Zm0,1.25h.569v3.31h-.569Z" transform="translate(37.533 5.668)" fill="#474645"/><path d="M138.914,21.57a1.248,1.248,0,0,1,.5.43,1.473,1.473,0,0,1,.223.586,3.836,3.836,0,0,1,.05.733H137.27a1.435,1.435,0,0,0,.236.814.8.8,0,0,0,.687.308.882.882,0,0,0,.693-.29.992.992,0,0,0,.206-.391h.55a1.146,1.146,0,0,1-.144.407,1.5,1.5,0,0,1-.274.369,1.285,1.285,0,0,1-.626.334,1.884,1.884,0,0,1-.452.05,1.388,1.388,0,0,1-1.047-.452,1.77,1.77,0,0,1-.429-1.265,1.917,1.917,0,0,1,.433-1.3,1.423,1.423,0,0,1,1.13-.5,1.5,1.5,0,0,1,.682.166m.2,1.306a1.446,1.446,0,0,0-.157-.581.8.8,0,0,0-.76-.4.839.839,0,0,0-.641.277,1.056,1.056,0,0,0-.274.707Z" transform="translate(37.798 5.92)" fill="#474645"/><path d="M139.588,21.478h.531v.472a1.468,1.468,0,0,1,.5-.419,1.316,1.316,0,0,1,.586-.128.965.965,0,0,1,.955.493,1.729,1.729,0,0,1,.138.774V24.8h-.567v-2.1a1.151,1.151,0,0,0-.091-.49.547.547,0,0,0-.54-.31,1.093,1.093,0,0,0-.326.04.841.841,0,0,0-.4.273.812.812,0,0,0-.181.34,2.284,2.284,0,0,0-.042.5V24.8h-.559Z" transform="translate(38.605 5.92)" fill="#474645"/><path d="M144.6,21.66a1.308,1.308,0,0,1,.425.941h-.545a.992.992,0,0,0-.225-.511.719.719,0,0,0-.569-.2.783.783,0,0,0-.763.521,2.059,2.059,0,0,0-.149.834,1.576,1.576,0,0,0,.212.841.721.721,0,0,0,.664.341.731.731,0,0,0,.551-.212,1.16,1.16,0,0,0,.28-.58h.545a1.315,1.315,0,0,1-1.42,1.273,1.271,1.271,0,0,1-1.039-.476,1.826,1.826,0,0,1-.389-1.191,2,2,0,0,1,.426-1.363,1.37,1.37,0,0,1,1.083-.488,1.453,1.453,0,0,1,.914.273" transform="translate(39.322 5.915)" fill="#474645"/><path d="M146.944,21.57a1.24,1.24,0,0,1,.5.43,1.474,1.474,0,0,1,.223.586,3.839,3.839,0,0,1,.05.733H145.3a1.435,1.435,0,0,0,.236.814.8.8,0,0,0,.687.308.882.882,0,0,0,.693-.29.993.993,0,0,0,.206-.391h.55a1.145,1.145,0,0,1-.144.407,1.5,1.5,0,0,1-.274.369,1.285,1.285,0,0,1-.626.334,1.884,1.884,0,0,1-.452.05,1.39,1.39,0,0,1-1.047-.452A1.769,1.769,0,0,1,144.7,23.2a1.917,1.917,0,0,1,.433-1.3,1.423,1.423,0,0,1,1.13-.5,1.5,1.5,0,0,1,.682.166m.2,1.306a1.446,1.446,0,0,0-.157-.581.8.8,0,0,0-.76-.4.839.839,0,0,0-.641.277,1.056,1.056,0,0,0-.274.707Z" transform="translate(40.019 5.92)" fill="#474645"/></g></g></g></g></svg>