<svg width="171" height="180" viewBox="0 0 171 180" fill="none" xmlns="http://www.w3.org/2000/svg">
<path d="M53.1234 17.1494C53.1234 20.6825 51.9624 23.4121 49.6365 25.3305C47.3105 27.2528 44.1734 28.21 40.2174 28.21H33.478V30.4014H53.7578V39.9089H1.15332V30.4014H21.4331V28.21H14.809C10.853 28.21 7.70437 27.2489 5.35922 25.3305C3.01406 23.4121 1.84533 20.6825 1.84533 17.1494C1.84533 13.6163 3.00638 10.9636 5.33231 9.08359C7.65439 7.20362 10.7954 6.26172 14.7514 6.26172H40.2174C44.1734 6.26172 47.3144 7.20362 49.6365 9.08359C51.9586 10.9674 53.1234 13.6547 53.1234 17.1494ZM52.8928 57.2515H2.30283V41.2929H14.6322V48.2054H52.8889V57.2515H52.8928ZM15.9009 18.7641H39.0641C40.2943 18.7641 40.9094 18.2451 40.9094 17.207C40.9094 16.169 40.2943 15.7077 39.0641 15.7077H15.9009C14.6706 15.7077 14.0555 16.2075 14.0555 17.207C14.0555 17.6684 14.2362 18.0413 14.6014 18.3296C14.9667 18.618 15.3972 18.7602 15.897 18.7602L15.9009 18.7641Z" fill="#003668"/>
<path d="M107.166 7.12646V25.7954H112.756V35.8796H107.166V56.9667H95.8746V53.8565C93.7601 55.5481 90.9382 56.3901 87.4051 56.3901H58.0215V27.2948H78.705V16.6916H58.0215V7.35714H90.4038V36.5677H69.605V47.0556H87.0053C90.5384 47.0556 93.4948 45.9214 95.8784 43.657V7.12646H107.17H107.166Z" fill="#003668"/>
<path d="M135.054 35.818C138.933 35.818 142.267 34.434 145.05 31.6698C147.834 28.9056 149.229 25.3302 149.229 20.9513C149.229 16.5724 147.845 13.0777 145.081 10.3481C142.317 7.62237 138.972 6.25757 135.054 6.25757H127.104C123.186 6.25757 119.845 7.62237 117.077 10.3481C114.313 13.0777 112.929 16.6108 112.929 20.9513C112.929 25.2918 114.321 28.9018 117.108 31.6698C119.892 34.434 123.244 35.818 127.162 35.818H135.054ZM123.99 21.009C123.99 19.1636 124.555 17.7334 125.689 16.7185C126.823 15.6997 128.119 15.1922 129.58 15.1922H132.575C134.036 15.1922 135.331 15.692 136.465 16.6916C137.599 17.6912 138.165 19.1328 138.165 21.0128C138.165 22.8928 137.599 24.346 136.465 25.3648C135.331 26.3836 134.036 26.8911 132.575 26.8911H129.58C128.119 26.8911 126.823 26.3721 125.689 25.334C124.555 24.296 123.99 22.8582 123.99 21.0128V21.009Z" fill="#003668"/>
<path d="M130.271 47.9168V38.4093H118.519V57.2513H165.937V47.9168H130.271Z" fill="#003668"/>
<path d="M32.8975 70.1957C35.1619 72.3871 36.296 75.2474 36.296 78.7805C36.296 82.3136 35.1619 85.2047 32.8975 87.4537C30.6292 89.6989 27.6344 90.8254 23.909 90.8254H12.4447C8.71935 90.8254 5.71295 89.7027 3.42931 87.4537C1.14182 85.2085 0 82.3174 0 78.7805C0 75.2435 1.13413 72.3871 3.39855 70.1957C5.66297 68.0043 8.66169 66.9125 12.387 66.9125H23.909C27.6344 66.9125 30.6292 68.0082 32.8975 70.1957ZM5.58992 92.2055H52.4315V109.317H17.3426V110.528H52.9505V118.479H5.58992V101.367H40.5635V100.156H5.58992V92.2055ZM14.9782 81.9484H21.3178C23.9282 81.9484 25.2354 80.9104 25.2354 78.8382C25.2354 76.766 23.9282 75.7856 21.3178 75.7856H14.9782C12.364 75.7856 11.0607 76.8044 11.0607 78.8382C11.0607 80.8719 12.3678 81.9484 14.9782 81.9484ZM52.4315 67.6006V90.8215H41.1401V67.6006H52.4315Z" fill="#486DB4"/>
<path d="M91.7262 68.0044V77.3388H79.9735V85.0586C79.9735 86.5964 80.0389 88.0074 80.1735 89.2953C80.308 90.5832 80.6156 92.0403 81.0961 93.6742C81.5767 95.3081 82.2303 96.8036 83.0568 98.1684C83.8834 99.5332 85.0521 100.913 86.5707 102.317C88.0893 103.72 89.8847 104.977 91.9569 106.092V116.522C89.9962 116.253 88.0393 115.657 86.0786 114.734C84.1179 113.812 82.3917 112.728 80.8924 111.478C79.393 110.229 78.0974 109.002 77.0017 107.791C75.906 106.58 75.0333 105.438 74.3798 104.362C73.1111 107.049 70.7198 109.71 67.2059 112.343C63.692 114.973 60.0897 116.672 56.4028 117.441V107.299C58.5942 106.184 60.4742 104.881 62.0504 103.382C63.6267 101.882 64.8146 100.444 65.622 99.0603C66.4293 97.6763 67.0714 96.1039 67.5519 94.3354C68.0325 92.5708 68.3208 91.0714 68.4169 89.8412C68.513 88.611 68.5592 87.2116 68.5592 85.6353V77.3388H57.783V68.0044H91.7185H91.7262ZM107.166 67.7737V86.4426H112.756V96.5268H107.166V117.614H95.8744V67.7775H107.166V67.7737Z" fill="#486DB4"/>
<path d="M1.26855 156.597V128.482H12.5599V134.764H23.8512V128.482H35.1426V156.597H1.26855ZM50.7013 179.299H39.1216V168.754H3.85976V159.015H50.7013V179.295V179.299ZM12.5599 147.786H23.8512V143.868H12.5599V147.786ZM50.7013 128.252V138.509H56.2912V148.247H50.7013V157.235H39.41V128.256H50.7013V128.252Z" fill="#486DB4"/>
<path d="M107.166 128.252V137.644H112.756V147.382H107.166V156.37H95.8748V153.779C94.1063 155.24 91.2268 155.967 87.2323 155.967H57.7334V138.163H79.0512V136.663H57.7334V128.482H90.7462V146.286H69.3131V147.786H86.8863C90.8039 147.786 93.7988 146.728 95.8748 144.618V128.256H107.166V128.252ZM107.166 178.838H60.3246V158.039H107.166V178.838ZM95.7018 170.195V166.681H71.7928V170.195H95.7018Z" fill="#486DB4"/>
<path d="M150.09 156.597C150.09 159.515 149.121 161.86 147.179 163.625C145.238 165.394 142.578 166.274 139.198 166.274H138.391V168.865H145.592C149.125 168.865 152.043 167.769 154.349 165.582V128.421H165.641V178.257H154.349V175.262C152.273 176.877 149.49 177.681 145.995 177.681H113.501V168.865H127.042V166.274H126.234C122.817 166.274 120.137 165.39 118.196 163.625C116.254 161.86 115.285 159.515 115.285 156.597C115.285 153.679 116.246 151.411 118.165 149.685C120.083 147.955 122.755 147.094 126.173 147.094H139.194C142.612 147.094 145.28 147.959 147.202 149.685C149.121 151.415 150.082 153.718 150.082 156.597H150.09ZM151.416 137.759V146.229H114.024V137.759H151.416ZM147.498 128.367V136.837H117.711V128.367H147.498ZM127.676 158.443H137.703C138.202 158.443 138.625 158.27 138.971 157.924C139.317 157.578 139.49 157.155 139.49 156.655C139.49 156.194 139.317 155.79 138.971 155.444C138.625 155.098 138.202 154.925 137.703 154.925H127.676C127.176 154.925 126.753 155.098 126.407 155.444C126.061 155.79 125.888 156.194 125.888 156.655C125.888 157.155 126.061 157.578 126.407 157.924C126.753 158.27 127.176 158.443 127.676 158.443Z" fill="#486DB4"/>
<mask id="mask0_2003_14552" style="mask-type:luminance" maskUnits="userSpaceOnUse" x="113" y="65" width="41" height="55">
<path d="M153.611 65.048H113.674V119.44H153.611V65.048Z" fill="white"/>
</mask>
<g mask="url(#mask0_2003_14552)">
<path d="M165.361 67.7739V117.61H154.069V114.5C151.955 116.192 149.133 117.034 145.6 117.034H115.063V88.0537H136.381V77.3352H115.063V68.0007H148.076V97.3266H126.643V107.699H145.196C148.729 107.699 151.686 106.565 154.069 104.301V67.77H165.361V67.7739Z" fill="#486DB4"/>
</g>
<path d="M155.488 55.4713C158.744 56.0479 161.835 53.8373 162.343 50.5733L167.741 16.8185L156.376 14.9962L150.698 48.728C150.183 51.9074 152.316 54.91 155.488 55.4751V55.4713Z" fill="#003668"/>
<path d="M169.018 9.74201C170.049 6.84094 168.533 3.65358 165.632 2.62284C162.731 1.5921 159.544 3.1083 158.513 6.00936C157.482 8.91043 158.998 12.0978 161.899 13.1285C164.8 14.1593 167.988 12.6431 169.018 9.74201Z" fill="#00A4E0"/>
<path d="M155.145 119.402C158.559 119.913 161.723 117.514 162.161 114.088L166.829 78.6959L154.914 77.1196L149.955 112.493C149.509 115.826 151.82 118.902 155.149 119.398L155.145 119.402Z" fill="#486DB4"/>
<path d="M166.535 73.5916C168.808 71.3185 168.808 67.6331 166.535 65.3601C164.262 63.087 160.577 63.087 158.304 65.36C156.031 67.6331 156.031 71.3185 158.304 73.5916C160.577 75.8647 164.262 75.8647 166.535 73.5916Z" fill="#EC76A2"/>
</svg>
