<svg width="120" height="143" viewBox="0 0 120 143" fill="none" xmlns="http://www.w3.org/2000/svg">
<path d="M105.67 3.16089H14.0972C6.90914 3.16089 1.08203 8.988 1.08203 16.1761V129.296C1.08203 136.484 6.90914 142.311 14.0972 142.311H105.67C112.858 142.311 118.685 136.484 118.685 129.296V16.1761C118.685 8.988 112.858 3.16089 105.67 3.16089Z" fill="white" stroke="#515B96" stroke-miterlimit="10"/>
<path d="M29.4045 39.1589C29.4045 37.5344 31.1738 35.658 32.5528 34.279C33.5351 33.2778 34.4607 32.4152 34.4607 31.2629C34.4607 30.1106 33.9317 29.5817 32.8739 29.6384C32.0868 29.6824 31.3123 30.5451 30.8464 31.6659L29.0581 30.7403C29.6626 29.2102 31.0857 27.8438 32.9747 27.7682C35.3674 27.6801 36.6834 28.9835 36.6393 31.1747C36.6078 32.8434 35.1848 34.3231 33.9317 35.5698C33.132 36.3758 32.219 37.314 31.9357 38.1137H36.866V39.7949H29.4045V39.1463V39.1589Z" fill="#2A3089"/>
<path d="M41.1791 40.0405C38.7611 40.0405 37.4263 38.1641 37.4263 33.9012C37.4263 29.6384 38.7611 27.762 41.1791 27.762C43.597 27.762 44.9948 29.6573 44.9948 33.9012C44.9948 38.1452 43.6348 40.0405 41.1791 40.0405ZM41.1791 38.3404C42.4825 38.3404 42.9043 36.7158 42.9043 33.9012C42.9043 31.0866 42.4825 29.4747 41.1791 29.4747C39.8757 29.4747 39.5168 31.0803 39.5168 33.9012C39.5168 36.7221 39.8945 38.3404 41.1791 38.3404Z" fill="#2A3089"/>
<path d="M45.7443 39.1589C45.7443 37.5344 47.5136 35.658 48.8926 34.279C49.8749 33.2778 50.8005 32.4152 50.8005 31.2629C50.8005 30.1106 50.2716 29.5817 49.2137 29.6384C48.4266 29.6824 47.6522 30.5451 47.1862 31.6659L45.3979 30.7403C46.0024 29.2102 47.4255 27.8438 49.3145 27.7682C51.7072 27.6801 53.0232 28.9835 52.9791 31.1747C52.9476 32.8434 51.5246 34.3231 50.2716 35.5698C49.4719 36.3758 48.5589 37.314 48.2755 38.1137H53.2058V39.7949H45.7443V39.1463V39.1589Z" fill="#2A3089"/>
<path d="M58.3504 27.9447H60.5732V35.9288H61.7254V37.61H60.5732V39.8076H58.5897V37.61H53.4453V36.1681L58.3504 27.9384V27.9447ZM58.5897 35.9603V31.0678L55.668 35.9603H58.5897Z" fill="#2A3089"/>
<path d="M66.2461 34.4931H78.2035V36.1932H66.2461V34.4931ZM72.2091 27.2834C75.263 27.2834 77.3849 28.2657 77.3849 30.4822C77.3849 32.6986 75.2692 33.6809 72.2091 33.6809C69.1489 33.6809 67.0332 32.7112 67.0332 30.4822C67.0332 28.2531 69.1552 27.2834 72.2091 27.2834ZM77.2149 40.7331H69.1929C68.028 40.7331 67.4677 40.1098 67.4677 38.9575V36.7285H69.6904V38.5041C69.6904 38.9764 69.766 39.0645 70.2067 39.0645H77.2149V40.7331ZM72.2091 32.0815C73.9784 32.0815 75.1622 31.5967 75.1622 30.4759C75.1622 29.3551 73.9847 28.8828 72.2091 28.8828C70.4334 28.8828 69.2748 29.3676 69.2748 30.4759C69.2748 31.5841 70.4397 32.0815 72.2091 32.0815Z" fill="#2A3089"/>
<path d="M78.9654 27.869H86.7732V29.0339H88.3789V27.6423H90.526V35.7021H88.3789V33.4479H87.5036V34.9654C87.0314 35.2046 86.2947 35.2865 85.7469 35.2865H78.7261V33.662H79.998V30.0854H82.1452V33.662H83.4927C83.6123 33.2212 83.6564 32.7552 83.6564 32.2956V30.0854H85.8035V32.2389C85.8035 32.7363 85.728 33.2401 85.5895 33.662H85.7721C86.301 33.662 86.874 33.6179 87.2833 33.4479H86.6032V31.7981H88.3726V30.6899H86.6347V29.4621H78.9654V27.869ZM85.5643 35.7965C88.5426 35.7965 90.3749 36.6277 90.3749 38.4915C90.3749 40.3553 88.5426 41.1865 85.5643 41.1865C82.5859 41.1865 80.7662 40.3553 80.7662 38.4915C80.7662 36.6277 82.567 35.7965 85.5643 35.7965ZM85.5643 39.6879C87.2581 39.6879 88.2278 39.3541 88.2278 38.4915C88.2278 37.6289 87.2581 37.2951 85.5643 37.2951C83.8704 37.2951 82.9134 37.6289 82.9134 38.4915C82.9134 39.3541 83.8642 39.6879 85.5643 39.6879Z" fill="#2A3089"/>
<path d="M26.2623 45.6635C28.7117 45.6635 30.1663 47.1621 30.1663 49.1203C30.1663 51.0786 28.7117 52.5772 26.2623 52.5772C23.8129 52.5772 22.3584 51.0786 22.3584 49.1203C22.3584 47.1621 23.8255 45.6635 26.2623 45.6635ZM33.9191 58.9935H25.853C24.7637 58.9935 24.2159 58.4646 24.2159 57.4005V55.2659H31.5264V54.6614H24.2159V53.1313H33.7931V56.796H26.4827V57.1423C26.4827 57.413 26.5457 57.4634 26.7723 57.4634H33.9128V58.9935H33.9191ZM26.2623 51.0093C27.3516 51.0093 28.0947 50.2348 28.0947 49.114C28.0947 47.9932 27.3516 47.2376 26.2623 47.2376C25.173 47.2376 24.4174 47.9932 24.4174 49.114C24.4174 50.2348 25.1919 51.0093 26.2623 51.0093ZM33.7931 52.6024H31.646V45.8272H33.7931V52.6024Z" fill="#2A3089"/>
<path d="M35.1846 46.1293H42.8288V47.8294H39.8945V49.8318C39.8945 52.2245 41.3302 54.7243 43.2821 56.1662L41.878 57.4256C41.0154 56.7896 39.3782 55.0014 38.8808 53.6665C38.2574 55.3792 36.7777 56.9974 35.7639 57.6963L34.4038 56.4559C36.5699 54.9069 37.7159 52.5897 37.7159 49.8948V47.8357H35.1909V46.1356L35.1846 46.1293ZM46.0527 50.43H47.4757V52.2308H46.0527V58.9871H43.9055V45.8208H46.0527V50.4237V50.43Z" fill="#2A3089"/>
<path d="M59.137 58.9935H56.9899V57.2053C56.6436 57.5516 55.8124 57.8287 54.8427 57.8287H50.4224C49.1064 57.8287 48.3193 57.1612 48.3193 55.6626V50.7386H53.2056V47.8421H48.3193V46.1294H55.4157V52.4324H50.542V55.48C50.542 56.0404 50.7058 56.1474 51.1465 56.1474H55.0379C56.5239 56.1474 56.9899 55.4359 56.9899 54.7244V45.8335H59.137V58.9998V58.9935Z" fill="#2A3089"/>
<path d="M62.7956 47.8736H65.8369V46.0539H67.984V53.1754H62.3107C61.0073 53.1754 60.6484 52.6276 60.6484 51.4312V46.0539H62.7956V47.8736ZM61.9456 54.3151H71.4661V58.9998H69.2748V56.0152H61.9518V54.3151H61.9456ZM65.8369 51.5572V49.4982H62.7956V50.9842C62.7956 51.4564 62.8838 51.5572 63.3245 51.5572H65.8369ZM71.4661 48.5725H72.8892V50.3734H71.4661V53.6792H69.3189V45.8335H71.4661V48.5788V48.5725Z" fill="#2A3089"/>
<path d="M73.5063 46.0538H80.7727V50.3293H75.7354V50.9023C75.7354 51.4627 75.8109 51.5068 76.2517 51.5068H80.2941C81.7487 51.5068 82.032 50.8708 82.032 50.0837V45.8271H84.1792V48.3584H85.6023V50.1593H84.1792V53.4902H82.032V52.5835C81.6983 52.9928 80.8042 53.1313 80.1556 53.1313H75.389C74.1486 53.1313 73.5127 52.615 73.5127 51.1164V48.7047H78.55V47.6721H73.5127V46.0475L73.5063 46.0538ZM74.7468 54.0254H84.1729V58.9935H76.4721C75.3072 58.9935 74.7468 58.3701 74.7468 57.2178V54.0191V54.0254ZM82.0257 57.3752V55.65H76.894V56.8148C76.894 57.2871 76.9695 57.3752 77.4103 57.3752H82.0257Z" fill="#2A3089"/>
<path d="M90.0731 48.6921C92.4973 48.6921 93.8574 49.9514 93.8574 51.6641C93.8574 53.0872 92.9065 54.208 91.1938 54.5417V55.9081H93.3159C94.7956 55.9081 95.2678 55.1966 95.2678 54.485V45.8334H97.415V58.9998H95.2678V56.9848C94.9215 57.3311 94.0903 57.6082 93.1206 57.6082H85.7661V55.9144H89.0215V54.5669C87.2647 54.2458 86.3454 53.125 86.3454 51.6704C86.3454 49.9577 87.6488 48.6984 90.0857 48.6984L90.0731 48.6921ZM85.9424 46.7338H88.9522V45.506H91.1938V46.7338H94.1155V48.371H85.9424V46.7338ZM90.0731 53.1627C91.1624 53.1627 91.7983 52.5268 91.7983 51.6641C91.7983 50.8015 91.1624 50.1655 90.0731 50.1655C88.9837 50.1655 88.3792 50.8141 88.3792 51.6641C88.3792 52.5142 88.9837 53.1627 90.0731 53.1627Z" fill="#2A3089"/>
<path d="M13.134 79.7033L16.6349 76.2905C17.6361 75.2831 18.1524 74.6912 18.1524 73.8474C18.1524 72.9155 17.422 72.3299 16.4586 72.3299C15.4386 72.3299 14.7837 72.9722 14.79 73.9859H13.0962C13.0899 72.0906 14.5004 70.8628 16.4775 70.8628C18.4547 70.8628 19.8651 72.0843 19.8714 73.7656C19.8651 74.8927 19.3299 75.8057 17.3842 77.6632L15.6212 79.4326V79.5018H20.0289V81.0067H13.1466V79.7096L13.134 79.7033Z" fill="black"/>
<path d="M21.1436 76.0009C21.1373 72.7392 22.5729 70.8628 24.9468 70.8628C27.3206 70.8628 28.75 72.7392 28.75 76.0009C28.75 79.2626 27.3269 81.139 24.9468 81.139C22.5666 81.139 21.1373 79.2752 21.1436 76.0009ZM24.9468 79.6341C26.1872 79.6278 26.9554 78.4062 26.9554 76.0009C26.9491 73.6144 26.1809 72.3614 24.9468 72.3551C23.7063 72.3614 22.9444 73.6207 22.9382 76.0009C22.9382 78.4062 23.7063 79.6278 24.9468 79.6341Z" fill="black"/>
<path d="M29.9587 79.7033L33.4596 76.2905C34.4608 75.2831 34.9772 74.6912 34.9772 73.8474C34.9772 72.9155 34.2468 72.3299 33.2834 72.3299C32.2633 72.3299 31.6084 72.9722 31.6147 73.9859H29.9209C29.9146 72.0906 31.3251 70.8628 33.3022 70.8628C35.2794 70.8628 36.6899 72.0843 36.6961 73.7656C36.6899 74.8927 36.1547 75.8057 34.2027 77.6632L32.4396 79.4326V79.5018H36.8473V81.0067H29.965V79.7096L29.9587 79.7033Z" fill="black"/>
<path d="M37.729 77.701L42.0107 71.0013H44.2272V77.6632H45.5243V79.1429H44.2272V81.0068H42.5334V79.1429H37.729V77.7073V77.701ZM42.5585 77.6632V73.0478H42.4515L39.5488 77.594V77.6632H42.5585Z" fill="black"/>
<path d="M46.4118 80.037C46.4056 79.4577 46.8904 78.9792 47.476 78.9729C48.0427 78.9792 48.5276 79.4577 48.5276 80.037C48.5276 80.6163 48.0427 81.1138 47.476 81.1138C46.9093 81.1138 46.3993 80.6289 46.4118 80.037Z" fill="black"/>
<path d="M52.7212 81.0067H50.9266V72.758H50.87L48.5591 74.2504V72.6069L51.0085 71.0076H52.7212V81.013V81.0067Z" fill="black"/>
<path d="M54.6983 76.0009C54.692 72.7392 56.1276 70.8628 58.5014 70.8628C60.8753 70.8628 62.3047 72.7392 62.3047 76.0009C62.3047 79.2626 60.8816 81.139 58.5014 81.139C56.1213 81.139 54.692 79.2752 54.6983 76.0009ZM58.5014 79.6341C59.7419 79.6278 60.5101 78.4062 60.5101 76.0009C60.5038 73.6144 59.7356 72.3614 58.5014 72.3551C57.261 72.3614 56.4991 73.6207 56.4928 76.0009C56.4928 78.4062 57.261 79.6278 58.5014 79.6341Z" fill="black"/>
<path d="M63.155 80.037C63.1487 79.4577 63.6336 78.9792 64.2192 78.9729C64.7859 78.9792 65.2707 79.4577 65.2707 80.037C65.2707 80.6163 64.7859 81.1138 64.2192 81.1138C63.6525 81.1138 63.1424 80.6289 63.155 80.037Z" fill="black"/>
<path d="M66.6618 79.7033L70.1628 76.2905C71.1639 75.2831 71.6803 74.6912 71.6803 73.8474C71.6803 72.9155 70.9498 72.3299 69.9864 72.3299C68.9664 72.3299 68.3116 72.9722 68.3179 73.9859H66.624C66.6177 72.0906 68.0282 70.8628 70.0054 70.8628C71.9825 70.8628 73.393 72.0843 73.3993 73.7656C73.393 74.8927 72.8577 75.8057 70.9058 77.6632L69.1427 79.4326V79.5018H73.5504V81.0067H66.6681V79.7096L66.6618 79.7033Z" fill="black"/>
<path d="M74.4321 77.701L78.7139 71.0013H80.9303V77.6632H82.2274V79.1429H80.9303V81.0068H79.2365V79.1429H74.4321V77.7073V77.701ZM79.2617 77.6632V73.0478H79.1546L76.2519 77.594V77.6632H79.2617Z" fill="black"/>
<path d="M83.1089 80.037C83.1027 79.4577 83.5875 78.9792 84.1794 78.9729C84.7461 78.9792 85.2309 79.4577 85.2309 80.037C85.2309 80.6163 84.7461 81.1138 84.1794 81.1138C83.6127 81.1138 83.1027 80.6289 83.1089 80.037Z" fill="black"/>
<path d="M88.9961 70.5731H90.6395C89.695 71.9458 88.7505 74.7163 88.7505 77.1909C88.7505 79.6655 89.695 82.4423 90.6395 83.8213H88.9961C87.7116 81.9575 86.9434 79.7914 86.9434 77.1909C86.9434 74.5904 87.7116 72.4243 88.9961 70.5731Z" fill="black"/>
<path d="M101.004 74.5967H97.5533V75.9064H102.44V77.1469H91.1685V75.9064H96.0232V74.5967H92.5915V70.2583H101.004V74.5967ZM92.4089 78.1984H101.054V82.2346H99.5367V79.4137H92.4089V78.1984ZM99.4989 73.3752V71.4547H94.0649V73.3752H99.4989Z" fill="black"/>
<path d="M104.619 83.8213H102.975C103.92 82.4423 104.864 79.6655 104.864 77.1909C104.864 74.7163 103.92 71.9458 102.975 70.5731H104.619C105.903 72.4243 106.671 74.5967 106.671 77.1909C106.671 79.7852 105.903 81.9575 104.619 83.8213Z" fill="black"/>
<path d="M30.8338 94.7208C31.3312 94.7208 31.7531 95.1049 31.7531 95.5898C31.7531 96.0746 31.3375 96.465 30.8338 96.4587C30.33 96.465 29.9082 96.0746 29.9019 95.5898C29.9082 95.1049 30.3237 94.7208 30.8338 94.7208ZM30.0971 97.6173H31.5579V105.117H30.0971V97.6173Z" fill="black"/>
<path d="M34.5237 105.123H33.0566V97.6236H34.4671V98.8514H34.5489C34.8953 98.0455 35.632 97.5228 36.7402 97.5228C38.264 97.5228 39.2778 98.4988 39.2715 100.356V105.123H37.8232V100.533C37.8169 99.4433 37.2376 98.7947 36.2491 98.7947C35.2605 98.7947 34.5237 99.4811 34.5237 100.671V105.123Z" fill="black"/>
<path d="M54.6478 101.433H43.4712V100.382H54.6478V101.433ZM49.05 94.3305C51.7009 94.3242 53.4199 95.2498 53.4262 96.8051C53.4199 98.3666 51.7009 99.3111 49.05 99.3174C46.3802 99.3111 44.6676 98.3666 44.6739 96.8051C44.6676 95.2498 46.3865 94.3242 49.05 94.3305ZM44.8753 102.441H46.1914V104.972H53.3885V106.036H44.8753V102.447V102.441ZM49.05 98.2407C50.9264 98.2407 52.0913 97.7244 52.085 96.8051C52.0913 95.9235 50.9201 95.382 49.05 95.382C47.1799 95.382 46.0087 95.9235 46.015 96.8051C46.0087 97.7244 47.1736 98.2407 49.05 98.2407Z" fill="black"/>
<path d="M62.1599 95.8795H60.9824V99.626C61.505 99.5819 62.0025 99.5378 62.4873 99.4749L62.544 100.47C60.1827 100.841 57.4311 100.885 55.4728 100.885L55.3091 99.796C55.7687 99.796 56.2725 99.796 56.8014 99.7897V95.8858H55.6491V94.8216H62.1599V95.8858V95.8795ZM61.4106 101.767C63.9985 101.767 65.5475 102.592 65.5538 104.034C65.5475 105.45 63.9922 106.282 61.4106 106.269C58.8163 106.275 57.2611 105.444 57.2674 104.034C57.2611 102.592 58.8226 101.767 61.4106 101.767ZM59.742 99.7016V95.8795H58.0607V99.7645C58.6148 99.7519 59.1753 99.733 59.742 99.7016ZM61.4106 105.262C63.2114 105.255 64.263 104.814 64.2693 104.034C64.263 103.234 63.2114 102.781 61.4106 102.793C59.5971 102.787 58.5456 103.234 58.5519 104.034C58.5456 104.814 59.5971 105.255 61.4106 105.262ZM62.3362 98.3226H64.2126V97.1199H62.3362V96.0684H64.2126V93.9149H65.5097V101.528H64.2126V99.3741H62.3362V98.3226Z" fill="black"/>
<path d="M76.8751 95.785C76.8751 96.9625 76.8751 98.2344 76.5351 99.9975H78.2981V101.074H73.33V106.313H72.0141V101.074H67.1152V99.9975H75.2128C75.578 98.2281 75.578 96.9373 75.5843 95.785V95.7724H68.4816V94.6957H76.8688V95.785H76.8751Z" fill="black"/>
<path d="M86.2886 99.903L85.6715 100.923C84.2485 100.514 83.178 99.6323 82.6176 98.4863C82.0824 99.7645 81.0183 100.778 79.5511 101.244L78.9341 100.237C80.7979 99.6386 81.9439 98.1588 81.9439 96.5595V96.4084H79.2741V95.3568H81.9439V93.8645H83.241V95.3568H85.8982V96.4084H83.2284V96.5595C83.2284 98.0203 84.4122 99.3804 86.2823 99.903H86.2886ZM85.0607 101.698C87.6235 101.704 89.1977 102.529 89.204 103.977C89.1977 105.438 87.6235 106.275 85.0607 106.269C82.4917 106.275 80.9113 105.431 80.9175 103.977C80.9113 102.529 82.4917 101.704 85.0607 101.698ZM85.0607 105.261C86.8616 105.255 87.9132 104.777 87.9194 103.977C87.9132 103.177 86.8616 102.718 85.0607 102.718C83.2599 102.718 82.1958 103.171 82.2021 103.977C82.1958 104.777 83.2599 105.255 85.0607 105.261ZM85.5267 97.3843H87.8691V93.9149H89.1662V101.414H87.8691V98.4548H85.5267V97.378V97.3843Z" fill="black"/>
<path d="M31.3247 119.486H32.7918C32.8737 120.336 33.6796 120.959 34.6808 120.965C35.8835 120.959 36.7461 120.084 36.7461 118.894C36.7461 117.704 35.8583 116.797 34.6116 116.778C33.8182 116.778 33.2074 117.049 32.8737 117.66H31.4506L32.0929 112.093H37.7032V113.39H33.3397L33.0122 116.193H33.1066C33.5159 115.79 34.2149 115.525 34.9705 115.512C36.8406 115.519 38.2133 116.917 38.2133 118.843C38.2133 120.77 36.7461 122.231 34.6808 122.231C32.8044 122.231 31.4003 121.079 31.331 119.479L31.3247 119.486Z" fill="black"/>
<path d="M50.2777 118.189H39.1011V117.112H50.2777V118.189ZM43.9558 113.12H40.2219V112.068H44.0377V110.878H45.3222V112.068H49.1506V113.12H45.4041C45.5489 114.316 47.2364 115.21 49.6732 115.412L49.2765 116.419C47.1545 116.218 45.4418 115.5 44.6799 114.348C43.9117 115.5 42.2053 116.218 40.096 116.419L39.6867 115.412C42.1172 115.21 43.7984 114.316 43.9558 113.12ZM44.6799 119.114C47.3497 119.114 48.8987 119.845 48.905 121.186C48.8987 122.527 47.3434 123.251 44.6799 123.245C41.9975 123.251 40.4234 122.527 40.4234 121.186C40.4234 119.845 41.9975 119.114 44.6799 119.114ZM44.6799 122.25C46.55 122.263 47.6079 121.891 47.6079 121.186C47.6079 120.481 46.55 120.097 44.6799 120.097C42.8098 120.097 41.7331 120.481 41.7394 121.186C41.7331 121.891 42.7846 122.263 44.6799 122.25Z" fill="black"/>
<path d="M65.245 118.409H54.0684V117.357H65.245V118.409ZM59.6472 111.313C62.3044 111.306 64.0171 112.232 64.0234 113.787C64.0171 115.349 62.2981 116.293 59.6472 116.3C56.9774 116.293 55.2647 115.349 55.271 113.787C55.2647 112.232 56.9837 111.306 59.6472 111.313ZM55.4725 119.423H56.7885V121.954H63.9856V123.018H55.4788V119.423H55.4725ZM59.6472 115.223C61.5236 115.223 62.6885 114.707 62.6822 113.787C62.6885 112.906 61.5173 112.364 59.6472 112.364C57.7771 112.364 56.6059 112.906 56.6122 113.787C56.6059 114.707 57.7708 115.223 59.6472 115.223Z" fill="black"/>
<path d="M72.757 112.855H71.5796V116.602C72.1022 116.558 72.5996 116.514 73.0845 116.451L73.1411 117.446C70.7799 117.817 68.0282 117.861 66.07 117.861L65.9062 116.772C66.3659 116.772 66.8696 116.772 67.3986 116.765V112.862H66.2463V111.797H72.757V112.862V112.855ZM72.0077 118.743C74.5957 118.743 76.1447 119.567 76.151 121.009C76.1447 122.426 74.5894 123.257 72.0077 123.245C69.4135 123.251 67.8582 122.42 67.8645 121.009C67.8582 119.567 69.4198 118.743 72.0077 118.743ZM70.3391 116.677V112.855H68.6579V116.74C69.212 116.728 69.7724 116.709 70.3391 116.677ZM72.0077 122.237C73.8086 122.231 74.8601 121.79 74.8664 121.009C74.8601 120.21 73.8086 119.756 72.0077 119.769C70.1943 119.763 69.1428 120.21 69.1491 121.009C69.1428 121.79 70.1943 122.231 72.0077 122.237ZM72.9333 115.305H74.8098V114.102H72.9333V113.05H74.8098V110.897H76.1069V118.51H74.8098V116.356H72.9333V115.305Z" fill="black"/>
<path d="M77.7124 117.043H82.649V116.268C80.4263 116.186 79.2614 115.682 79.2677 114.694C79.2614 113.617 80.6466 113.113 83.2912 113.107C85.917 113.113 87.3211 113.617 87.3148 114.694C87.3211 115.676 86.1499 116.186 83.9524 116.268V117.043H88.889V117.993H77.7124V117.043ZM88.2656 112.666H78.2917V111.716H82.6553V110.721H83.9524V111.716H88.2593V112.666H88.2656ZM79.0536 118.717H87.4785V121.331H80.3759V122.2H87.8186V123.15H79.0599V120.43H86.15V119.643H79.0473V118.717H79.0536ZM83.2975 115.424C85.0795 115.424 85.9484 115.172 85.9673 114.694C85.9547 114.215 85.0858 113.976 83.2975 113.976C81.5093 113.976 80.6466 114.215 80.6592 114.694C80.6529 115.179 81.503 115.424 83.2975 115.424Z" fill="black"/>
<path d="M92 2.87763H95.9669L94.5501 0.352661L92 2.87763Z" fill="#0087C8"/>
<path d="M104.26 0.352661H94.5503V15.8614H104.26V0.352661Z" fill="#00A4E0"/>
<path d="M94.5503 20.5524V15.6284H100.224" fill="#00A4E0"/>
<path d="M104.26 20.5524V15.6284H98.5864" fill="#00A4E0"/>
</svg>
