<svg xmlns="http://www.w3.org/2000/svg" width="56.631" height="56.631" viewBox="0 0 56.631 56.631"><g transform="translate(-11.729 -11.729)"><path d="M60.066,60.066a28.315,28.315,0,1,0-40.044,0A28.315,28.315,0,0,0,60.066,60.066Z" fill="#e61f2c" opacity="0.67"/><path d="M37.192,40.257h2.175v1.676H28.236V40.257h2.208V39.4a2.084,2.084,0,0,1,.2-4.152h6.272a2.088,2.088,0,0,1,.263,4.152v.86Zm-.2,2.257a2.027,2.027,0,1,1,0,4.054h-6.42a2.027,2.027,0,1,1,0-4.054Zm-.6,2.427a.436.436,0,0,0,.46-.427.424.424,0,0,0-.46-.411H31.15a.427.427,0,0,0-.46.411.439.439,0,0,0,.46.427Zm-5.1-8.031a.438.438,0,1,0,0,.876h5.023a.439.439,0,1,0,0-.876Zm1.216,3.347h2.624v-.849H32.509Z" fill="#fff"/><path d="M40.26,40.088A3.356,3.356,0,0,0,42.714,36.7V35.355h2.3V36.8a3.318,3.318,0,0,0,2.454,3.287v2.1a5.473,5.473,0,0,1-3.593-2.345,5.559,5.559,0,0,1-3.6,2.345v-2.1Zm.7,6.431V42.684h2.328V44.7H50.92v1.819Zm7.417-3.057V35.284h2.306V38.11h1.337v1.978H50.679v3.374Z" fill="#fff"/></g></svg>