<svg width="169" height="20" viewBox="0 0 169 20" fill="none" xmlns="http://www.w3.org/2000/svg">
<path d="M5.77634 5.11275C5.77634 4.40072 5.35106 3.85623 4.58748 3.85623C3.82391 3.85623 3.38252 4.40072 3.38252 5.11275V6.31771H0.460312V5.11275C0.460312 2.76725 2.19366 1.49463 4.58748 1.49463C6.9813 1.49463 8.83386 2.76725 8.83386 5.11275V5.8441C8.83386 7.88352 7.95108 8.90162 6.03086 10.8895C4.11065 12.8774 3.48239 13.3542 3.48239 14.2692V14.8137H8.8693V17.1753H0.305664V14.2692C0.305664 12.9772 0.576298 12.0107 3.46628 9.46222C5.3865 7.78043 5.77634 6.98141 5.77634 5.8441V5.11275Z" fill="#1A1A1A"/>
<path d="M10.4316 5.11275C10.4316 2.76725 12.3357 1.49463 14.6973 1.49463C17.059 1.49463 18.9631 2.76725 18.9631 5.11275V13.9631C18.9631 16.3086 17.059 17.5812 14.6973 17.5812C12.3357 17.5812 10.4316 16.3054 10.4316 13.9631V5.11275ZM13.3538 13.9631C13.3538 14.6751 13.9306 15.2196 14.6973 15.2196C15.4641 15.2196 16.0409 14.6751 16.0409 13.9631V5.11275C16.0409 4.40072 15.4641 3.85623 14.6973 3.85623C13.9306 3.85623 13.3538 4.40072 13.3538 5.11275V13.9631Z" fill="#1A1A1A"/>
<path d="M26.0317 5.11275C26.0317 4.40072 25.6064 3.85623 24.8429 3.85623C24.0793 3.85623 23.6379 4.40072 23.6379 5.11275V6.31771H20.7157V5.11275C20.7157 2.76725 22.449 1.49463 24.8429 1.49463C27.2367 1.49463 29.0892 2.76725 29.0892 5.11275V5.8441C29.0892 7.88352 28.2064 8.90162 26.2862 10.8895C24.366 12.8774 23.7378 13.3542 23.7378 14.2692V14.8137H29.1247V17.1753H20.561V14.2692C20.561 12.9772 20.8317 12.0107 23.7217 9.46222C25.6419 7.78043 26.0317 6.98141 26.0317 5.8441V5.11275Z" fill="#1A1A1A"/>
<path d="M33.8288 1.83325H38.1268V12.504H39.3833V14.9848H38.1268V17.2433H35.3399V14.9848H29.7661V12.504L33.8256 1.83325H33.8288ZM35.3238 12.504V5.07764L32.5723 12.5007H35.3238V12.504Z" fill="#1A1A1A"/>
<path d="M46.5716 13.6508C48.756 12.1816 50.3862 10.1615 50.4474 4.18182V0.531487H54.8742V4.18505C54.9355 10.1648 56.5689 12.1849 58.7501 13.654V18.4707C56.1598 17.1851 54.0559 15.4711 52.648 12.797C51.2593 15.4711 49.1168 17.1851 46.5684 18.4707V13.654L46.5716 13.6508ZM56.6946 10.0005V6.30824H60.4287V0.122314H64.9167V19.0796H60.4287V9.99724H56.6946V10.0005Z" fill="#7393CB"/>
<path d="M85.1393 10.1006H77.8934V11.1606H84.4241V16.0192H71.5464V16.7119H84.7302V19.0799H67.0777V13.9991H79.9554V13.3064H67.0777V11.1639H73.5891V10.1039H66.3657V7.14623H85.1393V10.1039V10.1006ZM70.2835 6.46964C68.4051 6.46964 66.8748 5.04237 66.8748 3.26714C66.8748 1.49191 68.4051 0.0195312 70.2835 0.0195312H81.2023C83.0806 0.0195312 84.6303 1.46936 84.6303 3.26392C84.6303 5.05848 83.0806 6.46642 81.2023 6.46642H70.2835V6.46964ZM71.6495 2.7742C71.3853 2.7742 71.1791 3.01906 71.1791 3.28325C71.1791 3.54744 71.3821 3.7923 71.6495 3.7923H79.9361C80.2003 3.7923 80.4065 3.54744 80.4065 3.28325C80.4065 3.01906 80.2035 2.7742 79.9361 2.7742H71.6495Z" fill="#7393CB"/>
<path d="M92.2791 13.6508C94.4635 12.1816 96.0938 10.1615 96.155 4.18182V0.531487H100.582V4.18505C100.643 10.1648 102.276 12.1849 104.458 13.654V18.4707C101.867 17.1851 99.7634 15.4711 98.3555 12.797C96.9669 15.4711 94.8243 17.1851 92.2759 18.4707V13.654L92.2791 13.6508ZM102.402 10.0005V6.30824H106.136V0.122314H110.624V19.0796H106.136V9.99724H102.402V10.0005Z" fill="#7393CB"/>
<path d="M130.848 11.8563H123.602V13.4286H130.133V19.2859H125.725V16.2252H112.686V13.4286H119.298V11.8563H112.074V8.69251H130.848V11.8563ZM130.133 0V7.89672H112.786V0H117.236V1.26618H125.683V0H130.133ZM125.683 5.14205V4.02085H117.236V5.14205H125.683Z" fill="#7393CB"/>
<path d="M141.438 0.325439H147.418V12.8358H148.845V16.3057H147.418V18.8768H143.561V16.3057H137.172V12.8358L141.438 0.325439ZM143.539 12.8358V4.81668L141.01 12.8358H143.539Z" fill="#7393CB"/>
<path d="M156.229 19.2861V13.3064H149.251V9.63349H168.025V13.3064H160.84V19.2861H156.229ZM162.048 9.12122L162.641 3.89863H149.847V0.428711H167.416L166.456 9.12122H162.048Z" fill="#7393CB"/>
</svg>
