<svg width="162" height="194" viewBox="0 0 162 194" fill="none" xmlns="http://www.w3.org/2000/svg">
<path d="M143.293 3H18.7073C8.92785 3 1 10.9565 1 20.7714V175.229C1 185.043 8.92785 193 18.7073 193H143.293C153.072 193 161 185.043 161 175.229V20.7714C161 10.9565 153.072 3 143.293 3Z" fill="white" stroke="#515B96" stroke-miterlimit="10"/>
<path d="M17.4879 52.1542C17.4879 49.9937 19.9806 47.4983 21.9234 45.6643C23.3073 44.3329 24.6113 43.1856 24.6113 41.6532C24.6113 40.1207 23.8661 39.4173 22.3758 39.4927C21.2669 39.5513 20.1758 40.6985 19.5194 42.1891L17 40.9581C17.8516 38.9232 19.8565 37.1061 22.5177 37.0056C25.8887 36.8884 27.7427 38.6218 27.6806 41.5359C27.6363 43.7551 25.6315 45.7229 23.8661 47.381C22.7395 48.4529 21.4532 49.7006 21.054 50.7641H28V53H17.4879V52.1375V52.1542Z" fill="#2A3089"/>
<path d="M32.9584 54C29.7554 54 28 51.4021 28 45.5C28 39.5979 29.7554 37 32.9584 37C36.1614 37 38 39.6241 38 45.5C38 51.3759 36.203 54 32.9584 54ZM32.9584 51.6549C34.6805 51.6549 35.2379 49.4056 35.2379 45.5087C35.2379 41.6118 34.6805 39.38 32.9584 39.38C31.2363 39.38 30.7621 41.6031 30.7621 45.5087C30.7621 49.4144 31.2612 51.6549 32.9584 51.6549Z" fill="#2A3089"/>
<path d="M39.4879 52.1542C39.4879 49.9937 41.9806 47.4983 43.9234 45.6643C45.3073 44.3329 46.6113 43.1856 46.6113 41.6532C46.6113 40.1207 45.8661 39.4173 44.3758 39.4927C43.2669 39.5513 42.1758 40.6985 41.5194 42.1891L39 40.9581C39.8516 38.9232 41.8564 37.1061 44.5177 37.0056C47.8887 36.8884 49.7427 38.6218 49.6806 41.5359C49.6363 43.7551 47.6315 45.7229 45.8661 47.381C44.7395 48.4529 43.4532 49.7006 43.054 50.7641H50V53H39.4879V52.1375V52.1542Z" fill="#2A3089"/>
<path d="M56.5163 37.0085H59.4692V47.7714H61V50.0377H59.4692V53H56.8342V50.0377H50V48.0939L56.5163 37V37.0085ZM56.8426 47.8138V41.2186L52.9612 47.8138H56.8426Z" fill="#2A3089"/>
<path d="M68.0084 45.2953H71.1511V42.8734C69.8368 42.2594 69.0616 41.2702 69.0616 39.8546C69.0616 37.1854 71.8926 36 75.9874 36C80.0821 36 82.9131 37.1939 82.9131 39.8546C82.9131 41.2702 82.1464 42.2594 80.8236 42.8734V45.2953H84V47.5296H68V45.2953H68.0084ZM75.9874 48.1095C80.0147 48.1095 82.7277 48.9964 82.7277 51.5547C82.7277 54.1131 80.0147 55 75.9874 55C71.96 55 69.2638 54.1216 69.2638 51.5547C69.2638 48.9879 71.96 48.1095 75.9874 48.1095ZM75.9874 41.7051C78.3549 41.7051 79.9389 41.1338 79.9389 39.8631C79.9389 38.5925 78.3549 38.0381 75.9874 38.0381C73.6198 38.0381 72.0611 38.6095 72.0611 39.8631C72.0611 41.1167 73.6198 41.7051 75.9874 41.7051ZM75.9874 52.996C78.3128 52.996 79.7367 52.7316 79.7367 51.5633C79.7367 50.395 78.3212 50.1306 75.9874 50.1306C73.6535 50.1306 72.238 50.395 72.238 51.5633C72.238 52.7316 73.6535 52.996 75.9874 52.996ZM74.0242 43.6153V45.2953H77.9505V43.6153C77.3186 43.7006 76.6782 43.7177 75.9874 43.7177C75.2965 43.7177 74.6309 43.7006 74.0242 43.6153Z" fill="#2A3089"/>
<path d="M94.7589 47.6407C93.6291 47.1645 91.1812 45.2684 90.3595 43.8312C89.3324 45.8918 87.2354 47.7273 85.7118 48.3507L84 46.4719C87.107 44.974 88.6904 42.2208 88.6904 39.3636V37.1126H91.7375V39.5108C91.7375 42.0563 93.6462 44.368 96.4451 45.7619L94.7589 47.6407ZM100.254 55H89.8031C88.2197 55 87.4579 54.1429 87.4579 52.5584V48.7229H90.4365V51.9351C90.4365 52.5844 90.5392 52.7056 91.1384 52.7056H100.254V55ZM100.066 41.3117H102V43.7879H100.066V50.039H97.1469V37H100.066V41.3117Z" fill="#2A3089"/>
<path d="M103 44H111V46H103V44Z" fill="#2A3089"/>
<path d="M112 44.3493H128V46.6056H121.504V48.4733H126.542V54H123.442V50.6282H113.239V48.4733H118.504V46.6056H112.008V44.3493H112ZM118.336 36.0085H121.656V36.7183C121.656 38.8563 124.554 40.8085 127.874 41.231L126.736 43.2845C124.369 43.1408 121.209 41.7211 119.996 39.7859C118.681 41.738 115.395 43.1408 113.255 43.3014L112.118 41.2056C115.395 40.8423 118.336 38.8479 118.336 36.7099V36V36.0085Z" fill="#2A3089"/>
<path d="M139.337 38.765H142.11V37H144.958V47.8723H142.11V45.2778H139.337V47.1045H132.272C130.543 47.1045 130 46.3367 130 44.66V37.3089H139.329V38.7561L139.337 38.765ZM138.619 47.9341C142.536 47.9341 145 49.2489 145 51.967C145 54.6851 142.528 56 138.619 56C134.71 56 132.28 54.6851 132.28 51.967C132.28 49.2489 134.71 47.9341 138.619 47.9341ZM136.489 44.8365V39.5945H132.856V44.0334C132.856 44.6953 132.973 44.8365 133.558 44.8365H136.489ZM138.619 53.882C140.908 53.882 142.152 53.2643 142.152 51.967C142.152 50.6698 140.908 50.052 138.619 50.052C136.331 50.052 135.103 50.6698 135.103 51.967C135.103 53.2643 136.347 53.882 138.619 53.882ZM139.337 42.9656H142.11V41.0771H139.337V42.9656Z" fill="#2A3089"/>
<path d="M25.9263 62.7064H29.7074V61H32.68V62.7064H36.4611V65.0847H32.8147C33.2189 66.6142 34.4905 68.1526 37.2021 69.1075L35.6863 71.0437C34.0021 70.4867 32.0821 69.0191 31.2737 67.7459C30.1789 69.6822 27.9305 71.0437 26.4989 71.4946L25 69.5584C27.8968 68.6389 29.1853 66.9414 29.5726 65.0935H25.9095V62.7152L25.9263 62.7064ZM41 80H38.1284V73.9349C37.6653 74.4211 36.5537 74.8101 35.2568 74.8101H32.5621V79.7878H29.6653V74.8101H25.4126V72.423H35.5095C37.4884 72.423 38.12 71.4239 38.12 70.4249V61.5128H40.9916V80H41Z" fill="#2A3089"/>
<path d="M48 71H45V68H48V71Z" fill="#2A3089"/>
<path d="M51.9057 62.8373H55.6328V61H58.6633V62.8373H62.6168V65.1554H58.7242C59.0552 67.5337 60.7794 69.0018 63.1393 70.075L61.4412 71.8694C60.2656 71.4745 58.0711 69.972 57.2177 68.5468C56.0421 70.7189 54.0392 72.1184 52.7155 72.8224L51 71.0023C53.5951 69.7659 55.2932 67.8857 55.5806 65.1554H51.897V62.8373H51.9057ZM60.6139 72.2386C64.6546 72.2386 67.1451 73.4749 67.1451 76.1193C67.1451 78.7637 64.6546 80 60.6139 80C56.5733 80 54.0827 78.7637 54.0827 76.1193C54.0827 73.4749 56.5733 72.2386 60.6139 72.2386ZM60.6139 77.9395C62.9565 77.9395 64.193 77.3814 64.193 76.1193C64.193 74.8572 62.9565 74.2991 60.6139 74.2991C58.2714 74.2991 57.0522 74.8572 57.0522 76.1193C57.0522 77.3814 58.2888 77.9395 60.6139 77.9395ZM67.0319 65.2327H69V67.6882H67.0319V72.084H64.0624V61.5237H67.0319V65.2241V65.2327Z" fill="#2A3089"/>
<path d="M74.2557 61C77.0173 61 78.7778 62.3944 79.3128 64.435H82.0485V61.2211H84.9914V70.6504H82.0485V66.8668H79.3905C78.959 69.0605 77.1295 70.5739 74.247 70.5739C70.89 70.5739 69 68.5248 69 65.804C69 63.0831 70.89 61 74.247 61H74.2557ZM74.2557 68.4653C75.7314 68.4653 76.6634 67.4025 76.6634 65.804C76.6634 64.2055 75.7314 63.1257 74.2557 63.1257C72.7799 63.1257 71.8306 64.214 71.8306 65.804C71.8306 67.394 72.7627 68.4653 74.2557 68.4653ZM74.8166 72.9036H82.0572V71.3477H85V79H74.2384C72.6419 79 71.8738 78.1582 71.8738 76.6023V71.3477H74.8166V72.9036ZM82.0485 76.8148V75.0973H74.808V76.0581C74.808 76.6958 74.9115 76.8148 75.5156 76.8148H82.0485Z" fill="#2A3089"/>
<path d="M88.982 63.7891H93.2058V61.3013H96.1878V71.0373H88.3086C86.4985 71.0373 86 70.2884 86 68.6528V61.3013H88.982V63.7891ZM87.8014 72.5954H101.024V79H97.9805V74.9197H87.8102V72.5954H87.8014ZM93.2058 68.825V66.01H88.982V68.0416C88.982 68.6872 89.1044 68.825 89.7166 68.825H93.2058ZM101.024 64.7446H103V67.2066H101.024V71.726H98.0417V61H101.024V64.7532V64.7446Z" fill="#2A3089"/>
<path d="M104 61.31H114.212V67.1579H107.133V67.9416C107.133 68.7081 107.239 68.7684 107.858 68.7684H113.54C115.584 68.7684 115.982 67.8986 115.982 66.822V61H119V64.4622H121V66.9254H119V71.4814H115.982V70.2412C115.513 70.801 114.257 70.9904 113.345 70.9904H106.646C104.903 70.9904 104.009 70.2842 104.009 68.2344V64.9359H111.089V63.5234H104.009V61.3014L104 61.31ZM105.743 72.2048H118.991V79H108.168C106.531 79 105.743 78.1474 105.743 76.5713V72.1962V72.2048ZM115.973 76.7866V74.4268H108.761V76.0201C108.761 76.666 108.867 76.7866 109.487 76.7866H115.973Z" fill="#2A3089"/>
<path d="M126.916 65.2437C130.245 65.2437 132.114 66.9244 132.114 69.2101C132.114 71.1093 130.808 72.605 128.455 73.0504V74.8739H131.37C133.402 74.8739 134.051 73.9244 134.051 72.9748V61.4286H137V79H134.051V76.3109C133.575 76.7731 132.434 77.1429 131.102 77.1429H121V74.8824H125.471V73.084C123.058 72.6555 121.796 71.1597 121.796 69.2185C121.796 66.9328 123.586 65.2521 126.933 65.2521L126.916 65.2437ZM121.242 62.6387H125.376V61H128.455V62.6387H132.468V64.8235H121.242V62.6387ZM126.916 71.2101C128.412 71.2101 129.285 70.3614 129.285 69.2101C129.285 68.0588 128.412 67.2101 126.916 67.2101C125.419 67.2101 124.589 68.0756 124.589 69.2101C124.589 70.3445 125.419 71.2101 126.916 71.2101Z" fill="#2A3089"/>
<path d="M21.0491 108.201L25.594 103.491C26.8937 102.101 27.564 101.284 27.564 100.119C27.564 98.833 26.6158 98.0248 25.3651 98.0248C24.0409 98.0248 23.1908 98.9112 23.1989 100.31H21C20.9919 97.6946 22.8229 96 25.3897 96C27.9564 96 29.7875 97.6859 29.7956 100.006C29.7875 101.562 29.0926 102.822 26.5668 105.385L24.2779 107.827V107.923H30V110H21.0654V108.21L21.0491 108.201Z" fill="black"/>
<path d="M32 103C31.9917 98.5564 33.8792 96 37 96C40.1209 96 42 98.5564 42 103C42 107.444 40.1291 110 37 110C33.8709 110 31.9917 107.461 32 103ZM37 107.95C38.6308 107.941 39.6407 106.277 39.6407 103C39.6325 99.7488 38.6225 98.0417 37 98.0331C35.3692 98.0417 34.3676 99.7574 34.3593 103C34.3593 106.277 35.3692 107.941 37 107.95Z" fill="black"/>
<path d="M44.0491 108.201L48.594 103.491C49.8937 102.101 50.564 101.284 50.564 100.119C50.564 98.833 49.6158 98.0248 48.3651 98.0248C47.0409 98.0248 46.1908 98.9112 46.1989 100.31H44C43.9919 97.6946 45.8229 96 48.3897 96C50.9564 96 52.7875 97.6859 52.7956 100.006C52.7875 101.562 52.0926 102.822 49.5668 105.385L47.2779 107.827V107.923H53V110H44.0654V108.21L44.0491 108.201Z" fill="black"/>
<path d="M54 105.374L60.042 96H63.1696V105.322H65V107.392H63.1696V110H60.7795V107.392H54V105.383V105.374ZM60.815 105.313V98.8546H60.664L56.5679 105.216V105.313H60.815Z" fill="black"/>
<path d="M66.0003 108.491C65.9914 107.679 66.6788 107.009 67.5091 107C68.3126 107.009 69 107.679 69 108.491C69 109.303 68.3126 110 67.5091 110C66.7056 110 65.9825 109.321 66.0003 108.491Z" fill="black"/>
<path d="M81 102.584C81 107.274 78.9431 110 75.7157 110C73.1823 110 71.4264 108.363 71.1338 106.108H73.4749C73.709 107.188 74.5201 107.874 75.7074 107.874C77.6137 107.874 78.6839 106.134 78.7007 103.21H78.5585C77.898 104.393 76.6271 105.105 75.1806 105.088C72.8311 105.096 71.0084 103.244 71 100.664C71 98.0062 72.9314 95.983 75.8495 96.0001C78.4164 96.0173 80.9833 97.6118 80.9916 102.584H81ZM75.8411 103.219C77.3043 103.219 78.4331 101.993 78.4247 100.587C78.4247 99.2064 77.3545 97.9805 75.8829 97.9719C74.403 97.9805 73.2993 99.1464 73.3244 100.604C73.3244 102.07 74.3779 103.219 75.8495 103.219H75.8411Z" fill="black"/>
<path d="M82.0003 108.491C81.9914 107.679 82.6788 107.009 83.5091 107C84.3126 107.009 85 107.679 85 108.491C85 109.303 84.3126 110 83.5091 110C82.7056 110 81.9825 109.321 82.0003 108.491Z" fill="black"/>
<path d="M87.0491 108.201L91.594 103.491C92.8937 102.101 93.564 101.284 93.564 100.119C93.564 98.833 92.6158 98.0248 91.3651 98.0248C90.0409 98.0248 89.1908 98.9112 89.1989 100.31H87C86.9919 97.6946 88.8229 96 91.3897 96C93.9564 96 95.7875 97.6859 95.7956 100.006C95.7875 101.562 95.0926 102.822 92.5668 105.385L90.2779 107.827V107.923H96V110H87.0654V108.21L87.0491 108.201Z" fill="black"/>
<path d="M98 103.368C98 98.716 100.044 96 103.276 96C105.814 96 107.564 97.645 107.866 99.8555H105.521C105.286 98.8103 104.482 98.1162 103.285 98.1248C101.375 98.1162 100.312 99.8641 100.303 102.734H100.429C101.099 101.561 102.363 100.867 103.812 100.875C106.183 100.867 108.008 102.717 108 105.296C108.008 108.004 106.049 110.017 103.142 110C100.571 109.983 98 108.398 98.0084 103.385L98 103.368ZM103.134 108.012C104.6 108.004 105.688 106.838 105.697 105.339C105.688 103.891 104.633 102.726 103.167 102.726C101.702 102.726 100.563 103.942 100.546 105.356C100.563 106.778 101.635 107.995 103.134 108.004V108.012Z" fill="black"/>
<path d="M109 108.491C108.991 107.679 109.677 107.009 110.513 107C111.315 107.009 112 107.679 112 108.491C112 109.303 111.315 110 110.513 110C109.712 110 108.991 109.321 109 108.491Z" fill="black"/>
<path d="M116.777 95H119C117.722 96.9686 116.445 100.942 116.445 104.491C116.445 108.04 117.722 112.022 119 114H116.777C115.039 111.327 114 108.221 114 104.491C114 100.761 115.039 97.6549 116.777 95Z" fill="black"/>
<path d="M133.089 101.155H128.497V103.013H135V104.773H120V103.013H126.461V101.155H121.894V95H133.089V101.155ZM121.659 106.274H133.165V112H131.145V107.998H121.659V106.274ZM131.087 99.4309V96.7063H123.855V99.4309H131.087Z" fill="black"/>
<path d="M138.223 114H136C137.278 112.022 138.555 108.04 138.555 104.491C138.555 100.942 137.278 96.9686 136 95H138.223C139.961 97.6549 141 100.77 141 104.491C141 108.212 139.961 111.327 138.223 114Z" fill="black"/>
<path d="M43.5102 128C44.3163 128 45 128.517 45 129.169C45 129.822 44.3265 130.347 43.5102 130.339C42.6939 130.347 42.0102 129.822 42 129.169C42.0102 128.517 42.6837 128 43.5102 128ZM42.3163 131.907H44.6837V142H42.3163V131.907Z" fill="black"/>
<path d="M47.8885 142H46V132.133H47.8156V133.748H47.921C48.3668 132.688 49.3151 132 50.7416 132C52.7031 132 54.0081 133.284 54 135.728V142H52.1357V135.96C52.1276 134.527 51.3819 133.674 50.1094 133.674C48.8369 133.674 47.8885 134.577 47.8885 136.142V142Z" fill="black"/>
<path d="M61.0084 134.821H76V136.302H69.353V138.345H74.1588V144H72.3936V139.809H62.6638V138.345H67.6216V136.302H61V134.821H61.0084ZM75.1976 132.19L74.522 133.611C71.8868 133.19 69.5726 131.848 68.5253 129.981C67.4611 131.848 65.1385 133.181 62.5034 133.611L61.8446 132.19C65.0034 131.734 67.6132 129.806 67.6216 127.728V127H69.4037V127.728C69.4122 129.788 72.0389 131.743 75.2061 132.19H75.1976Z" fill="black"/>
<path d="M89.9494 137.065H88.2104V134.533H84.6312V135.92H77V128.274H84.6312V129.679H88.2104V127H89.9494V137.065ZM82.926 134.473V129.713H78.7221V134.473H82.926ZM84.4455 137.533C87.8812 137.524 89.9916 138.721 90 140.784C89.9916 142.838 87.8812 144.009 84.4455 144C80.9844 144.009 78.8825 142.838 78.8909 140.784C78.8825 138.721 80.9929 137.524 84.4455 137.533ZM84.4455 142.613C86.8429 142.604 88.2695 141.928 88.2779 140.784C88.2695 139.587 86.8344 138.929 84.4455 138.92C82.0312 138.929 80.6045 139.587 80.613 140.784C80.6045 141.928 82.0312 142.596 84.4455 142.613ZM88.2104 133.068V131.126H84.6312V133.068H88.2104Z" fill="black"/>
<path d="M100.961 130.693H105.202V127H107V144H105.202V137.485H101.084C100.344 139.185 99.0039 140.186 97.3464 140.177C94.7898 140.186 92.9825 137.873 93.0001 134.214C92.9825 130.59 94.7898 128.277 97.3464 128.269C98.9157 128.277 100.203 129.157 100.961 130.693ZM97.3464 138.563C98.8981 138.563 99.9648 136.907 99.9736 134.206C99.9648 131.548 98.8981 129.882 97.3464 129.874C95.7948 129.882 94.7281 131.548 94.7193 134.206C94.7281 136.907 95.7948 138.563 97.3464 138.563ZM101.693 134.214C101.693 134.861 101.631 135.457 101.516 136.009H105.193V132.169H101.464C101.596 132.79 101.684 133.472 101.684 134.214H101.693Z" fill="black"/>
<path d="M109 129.057H115.364V130.518H110.796V138.391C112.879 138.382 114.448 138.287 116.27 137.933L116.401 139.411C114.361 139.834 112.6 139.903 110.133 139.921H109V129.057ZM123 144H121.274V135.219H119.077V143.127H117.43V127.346H119.077V133.733H121.274V127H123V143.991V144Z" fill="black"/>
<path d="M41 158.664H56V160.103H49.4918V163.448H47.7698V160.103H41V158.664ZM42.8739 162.009H44.5959V165.543H54.4299V167H42.8739V162.009ZM54.3033 156.828H43.0259V151H44.7648V155.388H54.3033V156.828Z" fill="black"/>
<path d="M57.0085 157.415H63.9622V154.671H65.69V157.415H72V158.851H57V157.415H57.0085ZM63.5895 162.395H58.9226V161.018H63.6149V159.412H65.3597V161.018H70.0689V162.395H65.3851C65.6477 163.95 67.8837 165.335 70.7465 165.657L70.1197 167C67.5957 166.669 65.4698 165.589 64.4788 164.052C63.4963 165.581 61.3789 166.66 58.8549 167L58.2451 165.657C61.057 165.335 63.2931 163.95 63.5726 162.395H63.5895ZM58.2789 151.009H63.3608V151.714C63.3439 152.682 63.3439 154.348 62.5477 156.506L60.8538 156.226C61.4551 154.535 61.5906 153.337 61.6245 152.436H58.2789V151V151.009ZM70.3907 151.748C70.3907 152.742 70.3907 154.382 69.9164 156.481L68.2225 156.277C68.5782 154.586 68.6629 153.362 68.6798 152.436H64.6652V151H70.3907V151.748Z" fill="black"/>
<path d="M76.4962 158.032V154.77H78.2837V157.988C80.1238 157.919 81.9989 157.797 83.7076 157.589L83.8215 158.864C80.264 159.463 76.2421 159.558 73.1752 159.567L73 158.066C74.0602 158.066 75.2432 158.058 76.4874 158.04L76.4962 158.032ZM82.6473 152.012C82.6386 153.096 82.6386 154.64 82.2092 156.6L80.4217 156.444C80.7809 154.779 80.8423 153.53 80.851 152.524H74.0427V151.041H82.6473V152.012ZM81.0088 160.781C84.575 160.781 86.7744 161.943 86.7744 163.86C86.7744 165.777 84.575 167.009 81.0088 167C77.4425 167.009 75.2432 165.855 75.2432 163.86C75.2432 161.865 77.4425 160.781 81.0088 160.781ZM81.0088 165.577C83.4622 165.586 84.9343 164.996 84.9518 163.869C84.9343 162.819 83.4622 162.195 81.0088 162.195C78.5553 162.195 77.057 162.819 77.0657 163.869C77.057 165.005 78.5378 165.595 81.0088 165.577ZM84.7941 150.009H86.6429V154.519H89V156.019H86.6429V160.564H84.7941V150V150.009Z" fill="black"/>
<path d="M99.1707 158.101L98.3129 159.505C96.3698 158.89 94.9606 157.608 94.2079 155.987C93.4639 157.85 91.9759 159.323 89.9278 160.034L89 158.587C91.6608 157.711 93.2713 155.519 93.2801 153.145V152.669H89.5339V151.204H98.7593V152.669H95.0919V153.128C95.0832 155.294 96.5974 157.27 99.1794 158.093L99.1707 158.101ZM97.0263 160.649C100.536 160.64 102.672 161.81 102.672 163.803C102.672 165.796 100.536 167.009 97.0263 167C93.4814 167.009 91.302 165.83 91.302 163.803C91.302 161.775 93.4814 160.64 97.0263 160.649ZM97.0263 165.57C99.4683 165.579 100.912 164.946 100.904 163.803C100.912 162.694 99.4683 162.061 97.0263 162.07C94.5667 162.061 93.0963 162.685 93.105 163.803C93.0963 164.946 94.558 165.579 97.0263 165.57ZM100.72 150H102.523V154.22H105V155.701H102.523V160.224H100.72V150Z" fill="black"/>
<path d="M105.008 158.655H111.634V157.596C108.651 157.484 107.087 156.795 107.096 155.443C107.087 153.97 108.946 153.281 112.496 153.273C116.02 153.281 117.904 153.97 117.896 155.443C117.904 156.786 116.332 157.484 113.375 157.596V158.655H120V159.955H105V158.655H105.008ZM119.163 152.661H105.777V151.361H111.634V150H113.375V151.361H119.155V152.661H119.163ZM106.808 160.937H118.115V164.511H108.583V165.7H118.572V167H106.817V163.28H116.332V162.203H106.8V160.937H106.808ZM112.504 156.442C114.904 156.442 116.07 156.097 116.087 155.443C116.07 154.788 114.904 154.461 112.504 154.461C110.104 154.461 108.955 154.788 108.963 155.443C108.955 156.106 110.096 156.442 112.504 156.442Z" fill="black"/>
<path d="M127 3H132L130.214 0L127 3Z" fill="#7D1216"/>
<path d="M143 0H130V21H143V0Z" fill="#E6002D"/>
<path d="M130 28V21H138" fill="#E6002D"/>
<path d="M143 28V21H135" fill="#E6002D"/>
</svg>
