<svg width="293" height="306" viewBox="0 0 293 306" fill="none" xmlns="http://www.w3.org/2000/svg">
<path d="M90.8609 28.6401C90.8609 34.6831 88.8751 39.3517 84.8969 42.6329C80.9187 45.9207 75.5531 47.558 68.7868 47.558H57.2599V51.3061H91.9459V67.5674H1.97266V51.3061H36.6587V47.558H25.329C18.5628 47.558 13.1774 45.9141 9.16631 42.6329C5.15522 39.3517 3.15626 34.6831 3.15626 28.6401C3.15626 22.5972 5.14207 18.0601 9.12028 14.8446C13.0919 11.6292 18.4641 10.0182 25.2304 10.0182H68.7868C75.5531 10.0182 80.9253 11.6292 84.8969 14.8446C88.8686 18.0667 90.8609 22.663 90.8609 28.6401ZM90.4664 97.2297H3.93875V69.9346H25.0265V81.7574H90.4599V97.2297H90.4664ZM27.1965 31.4019H66.8142C68.9183 31.4019 69.9704 30.5142 69.9704 28.7388C69.9704 26.9634 68.9183 26.1743 66.8142 26.1743H27.1965C25.0923 26.1743 24.0402 27.0291 24.0402 28.7388C24.0402 29.5278 24.3493 30.1657 24.9739 30.6588C25.5986 31.152 26.3351 31.3953 27.1899 31.3953L27.1965 31.4019Z" fill="#003668"/>
<path d="M183.293 11.4977V43.4286H192.854V60.6762H183.293V96.7431H163.981V91.4235C160.364 94.3167 155.538 95.7568 149.495 95.7568H99.2378V45.993H134.614V27.8577H99.2378V11.8922H154.624V61.8533H119.05V79.7914H148.811C154.854 79.7914 159.91 77.8516 163.987 73.9786V11.4977H183.3H183.293Z" fill="#003668"/>
<path d="M230.993 60.571C237.627 60.571 243.328 58.2038 248.089 53.476C252.85 48.7482 255.237 42.6329 255.237 35.1434C255.237 27.6538 252.87 21.6766 248.142 17.008C243.414 12.3459 237.693 10.0116 230.993 10.0116H217.394C210.694 10.0116 204.98 12.3459 200.245 17.008C195.518 21.6766 193.15 27.7196 193.15 35.1434C193.15 42.5672 195.531 48.7416 200.298 53.476C205.059 58.2038 210.793 60.571 217.493 60.571H230.993ZM212.068 35.242C212.068 32.0857 213.035 29.6396 214.975 27.9037C216.914 26.1611 219.13 25.2932 221.629 25.2932H226.751C229.25 25.2932 231.466 26.148 233.406 27.8576C235.346 29.5673 236.312 32.0331 236.312 35.2486C236.312 38.464 235.346 40.9496 233.406 42.6921C231.466 44.4346 229.25 45.3026 226.751 45.3026H221.629C219.13 45.3026 216.914 44.4149 214.975 42.6395C213.035 40.8641 212.068 38.4048 212.068 35.2486V35.242Z" fill="#003668"/>
<path d="M222.812 81.2642V65.0028H202.711V97.2296H283.814V81.2642H222.812Z" fill="#003668"/>
<path d="M56.267 119.369C60.14 123.117 62.0798 128.01 62.0798 134.053C62.0798 140.096 60.14 145.04 56.267 148.887C52.3874 152.727 47.2651 154.654 40.8933 154.654H21.2851C14.9133 154.654 9.77127 152.734 5.86539 148.887C1.95294 145.047 0 140.102 0 134.053C0 128.003 1.93979 123.117 5.81279 119.369C9.68579 115.621 14.8147 113.754 21.1864 113.754H40.8933C47.2651 113.754 52.3874 115.628 56.267 119.369ZM9.56085 157.014H89.6774V186.282H29.6623V188.354H90.5651V201.952H9.56085V172.684H69.3786V170.613H9.56085V157.014ZM25.6183 139.471H36.4614C40.9262 139.471 43.1619 137.695 43.1619 134.151C43.1619 130.607 40.9262 128.93 36.4614 128.93H25.6183C21.147 128.93 18.9179 130.673 18.9179 134.151C18.9179 137.63 21.1535 139.471 25.6183 139.471ZM89.6774 114.931V154.647H70.365V114.931H89.6774Z" fill="#486DB4"/>
<path d="M156.886 115.621V131.587H136.785V144.791C136.785 147.421 136.897 149.834 137.127 152.037C137.357 154.24 137.883 156.732 138.705 159.526C139.527 162.321 140.645 164.879 142.058 167.213C143.472 169.548 145.471 171.908 148.069 174.308C150.666 176.708 153.737 178.859 157.281 180.765V198.605C153.927 198.145 150.58 197.125 147.227 195.547C143.873 193.969 140.921 192.115 138.356 189.978C135.792 187.841 133.576 185.743 131.702 183.672C129.828 181.601 128.335 179.648 127.217 177.806C125.048 182.403 120.958 186.953 114.948 191.457C108.937 195.955 102.776 198.861 96.4702 200.176V182.83C100.218 180.923 103.434 178.694 106.13 176.13C108.826 173.565 110.858 171.106 112.238 168.739C113.619 166.372 114.717 163.682 115.539 160.657C116.361 157.639 116.854 155.075 117.019 152.971C117.183 150.866 117.262 148.473 117.262 145.777V131.587H98.8308V115.621H156.873H156.886ZM183.294 115.227V147.158H192.855V164.405H183.294V200.472H163.981V115.234H183.294V115.227Z" fill="#486DB4"/>
<path d="M2.16992 267.148V219.061H21.4823V229.806H40.7947V219.061H60.1071V267.148H2.16992ZM86.7184 305.977H66.9128V287.94H6.60184V271.284H86.7184V305.97V305.977ZM21.4823 252.077H40.7947V245.377H21.4823V252.077ZM86.7184 218.667V236.21H96.2792V252.866H86.7184V268.24H67.406V218.673H86.7184V218.667Z" fill="#486DB4"/>
<path d="M183.294 218.667V234.731H192.854V251.387H183.294V266.76H163.981V262.329C160.956 264.827 156.031 266.07 149.199 266.07H98.7451V235.619H135.207V233.054H98.7451V219.061H155.209V249.513H118.551V252.077H148.608C155.308 252.077 160.43 250.269 163.981 246.659V218.673H183.294V218.667ZM183.294 305.188H103.177V269.614H183.294V305.188ZM163.685 290.406V284.396H122.792V290.406H163.685Z" fill="#486DB4"/>
<path d="M256.709 267.148C256.709 272.139 255.052 276.15 251.732 279.169C248.411 282.193 243.861 283.699 238.081 283.699H236.7V288.131H249.016C255.059 288.131 260.05 286.257 263.995 282.515V218.956H283.308V304.195H263.995V299.073C260.444 301.834 255.684 303.209 249.706 303.209H194.13V288.131H217.289V283.699H215.908C210.062 283.699 205.479 282.187 202.159 279.169C198.838 276.15 197.181 272.139 197.181 267.148C197.181 262.158 198.825 258.278 202.106 255.326C205.387 252.367 209.957 250.894 215.803 250.894H238.074C243.92 250.894 248.483 252.373 251.771 255.326C255.052 258.285 256.696 262.223 256.696 267.148H256.709ZM258.978 234.928V249.414H195.024V234.928H258.978ZM252.277 218.864V233.35H201.33V218.864H252.277ZM218.374 270.305H235.523C236.378 270.305 237.101 270.009 237.693 269.417C238.285 268.825 238.581 268.102 238.581 267.247C238.581 266.458 238.285 265.768 237.693 265.176C237.101 264.584 236.378 264.288 235.523 264.288H218.374C217.519 264.288 216.796 264.584 216.204 265.176C215.612 265.768 215.316 266.458 215.316 267.247C215.316 268.102 215.612 268.825 216.204 269.417C216.796 270.009 217.519 270.305 218.374 270.305Z" fill="#486DB4"/>
<mask id="mask0_2002_8850" style="mask-type:luminance" maskUnits="userSpaceOnUse" x="194" y="110" width="69" height="94">
<path d="M262.733 110.565H194.426V203.596H262.733V110.565Z" fill="white"/>
</mask>
<g mask="url(#mask0_2002_8850)">
<path d="M282.828 115.227V200.466H263.515V195.146C259.899 198.039 255.072 199.479 249.029 199.479H196.8V149.913H233.261V131.58H196.8V115.615H253.264V165.773H216.605V183.514H248.339C254.382 183.514 259.438 181.574 263.515 177.701V115.22H282.828V115.227Z" fill="#486DB4"/>
</g>
<path d="M265.942 94.1853C271.511 95.1716 276.798 91.3907 277.666 85.808L286.898 28.0747L267.461 24.9579L257.749 82.6518C256.868 88.0898 260.517 93.2253 265.942 94.1919V94.1853Z" fill="#003668"/>
<path d="M289.085 15.9709C290.848 11.009 288.255 5.55746 283.293 3.7945C278.331 2.03155 272.879 4.62481 271.116 9.58672C269.353 14.5486 271.947 20.0002 276.909 21.7632C281.871 23.5261 287.322 20.9328 289.085 15.9709Z" fill="#00A4E0"/>
<path d="M265.356 203.53C271.196 204.405 276.607 200.301 277.357 194.443L285.34 133.908L264.962 131.212L256.479 191.714C255.717 197.415 259.669 202.675 265.363 203.523L265.356 203.53Z" fill="#486DB4"/>
<path d="M284.837 125.178C288.725 121.29 288.725 114.987 284.837 111.099C280.949 107.211 274.646 107.211 270.758 111.099C266.87 114.987 266.87 121.29 270.758 125.178C274.646 129.066 280.949 129.066 284.837 125.178Z" fill="#EC76A2"/>
</svg>
