<svg width="119" height="143" viewBox="0 0 119 143" fill="none" xmlns="http://www.w3.org/2000/svg">
<path d="M92.959 2.87763H96.9196L95.5091 0.352661L92.959 2.87763Z" fill="#7D1216"/>
<path d="M105.414 3.16101H13.8414C6.65328 3.16101 0.826172 8.98813 0.826172 16.1762V129.296C0.826172 136.484 6.65328 142.311 13.8414 142.311H105.414C112.602 142.311 118.429 136.484 118.429 129.296V16.1762C118.429 8.98813 112.602 3.16101 105.414 3.16101Z" fill="white" stroke="#515B96" stroke-miterlimit="10"/>
<path d="M12.9347 39.1591C12.9347 37.5345 14.7041 35.6581 16.083 34.2791C17.0653 33.278 17.9909 32.4153 17.9909 31.263C17.9909 30.1107 17.462 29.5818 16.4042 29.6385C15.6171 29.6826 14.8426 30.5452 14.3766 31.666L12.5884 30.7404C13.1929 29.2103 14.6159 27.8439 16.5049 27.7684C18.8976 27.6802 20.2137 28.9836 20.1696 31.1749C20.1381 32.8435 18.715 34.3232 17.462 35.5699C16.6623 36.3759 15.7493 37.3141 15.466 38.1138H20.3963V39.795H12.9347V39.1465V39.1591Z" fill="#2A3089"/>
<path d="M24.703 40.0406C22.2788 40.0406 20.9502 38.1642 20.9502 33.9013C20.9502 29.6385 22.2788 27.7621 24.703 27.7621C27.1272 27.7621 28.5188 29.6574 28.5188 33.9013C28.5188 38.1453 27.1587 40.0406 24.703 40.0406ZM24.703 38.3405C26.0064 38.3405 26.4283 36.716 26.4283 33.9013C26.4283 31.0867 26.0064 29.4748 24.703 29.4748C23.3996 29.4748 23.0407 31.0804 23.0407 33.9013C23.0407 36.7223 23.4185 38.3405 24.703 38.3405Z" fill="#2A3089"/>
<path d="M29.2682 39.1591C29.2682 37.5345 31.0375 35.6581 32.4165 34.2791C33.3988 33.278 34.3244 32.4153 34.3244 31.263C34.3244 30.1107 33.7955 29.5818 32.7377 29.6385C31.9506 29.6826 31.1761 30.5452 30.7101 31.666L28.9219 30.7404C29.5264 29.2103 30.9494 27.8439 32.8384 27.7684C35.2311 27.6802 36.5471 28.9836 36.5031 31.1749C36.4716 32.8435 35.0485 34.3232 33.7955 35.5699C32.9958 36.3759 32.0828 37.3141 31.7995 38.1138H36.7297V39.795H29.2682V39.1465V39.1591Z" fill="#2A3089"/>
<path d="M41.8744 27.9448H44.0971V35.929H45.2494V37.6102H44.0971V39.8077H42.1136V37.6102H36.9692V36.1682L41.8744 27.9385V27.9448ZM42.1199 35.9604V31.0679L39.1983 35.9604H42.1199Z" fill="#2A3089"/>
<path d="M49.7704 34.1469H52.1191V32.3587C51.1368 31.9053 50.5575 31.1749 50.5575 30.1297C50.5575 28.1588 52.6732 27.2836 55.7334 27.2836C58.7936 27.2836 60.9093 28.1651 60.9093 30.1297C60.9093 31.1749 60.3363 31.9053 59.3477 32.3587V34.1469H61.7215V35.7967H49.7642V34.1469H49.7704ZM55.7334 36.2185C58.7432 36.2185 60.7707 36.8734 60.7707 38.7624C60.7707 40.6514 58.7432 41.3063 55.7334 41.3063C52.7236 41.3063 50.7087 40.6577 50.7087 38.7624C50.7087 36.8671 52.7236 36.2185 55.7334 36.2185ZM55.7334 31.496C57.5028 31.496 58.6865 31.0742 58.6865 30.136C58.6865 29.1978 57.5028 28.7885 55.7334 28.7885C53.964 28.7885 52.7991 29.2104 52.7991 30.136C52.7991 31.0616 53.964 31.496 55.7334 31.496ZM55.7334 39.8265C57.4713 39.8265 58.5354 39.6313 58.5354 38.7687C58.5354 37.9061 57.4776 37.7109 55.7334 37.7109C53.9892 37.7109 52.9314 37.9061 52.9314 38.7687C52.9314 39.6313 53.9892 39.8265 55.7334 39.8265ZM54.2663 32.9002V34.1406H57.2005V32.9002C56.7283 32.9632 56.2497 32.9758 55.7334 32.9758C55.2171 32.9758 54.7196 32.9632 54.2663 32.9002Z" fill="#2A3089"/>
<path d="M69.5482 35.3874C68.7171 35.041 66.9162 33.6621 66.3117 32.6168C65.5561 34.1154 64.0134 35.4503 62.8926 35.9037L61.6333 34.5373C63.919 33.448 65.0839 31.4456 65.0839 29.3677V27.7306H67.3255V29.4748C67.3255 31.326 68.7297 33.0072 70.7887 34.021L69.5482 35.3874ZM73.5844 40.7332H65.8962C64.7313 40.7332 64.1709 40.1099 64.1709 38.9576V36.1682H66.3621V38.5042C66.3621 38.9765 66.4377 39.0646 66.8784 39.0646H73.5844V40.7332ZM73.4522 30.7782H74.8752V32.579H73.4522V37.1252H71.305V27.6425H73.4522V30.7782Z" fill="#2A3089"/>
<path d="M75.5234 32.9001H81.1086V34.5814H75.5234V32.9001Z" fill="#2A3089"/>
<path d="M82.2109 33.6117H94.1683V35.2929H89.3136V36.6844H93.079V40.8025H90.7618V38.2901H83.1365V36.6844H87.072V35.2929H82.2172V33.6117H82.2109ZM86.946 27.4031H89.4269V27.9321C89.4269 29.5251 91.593 30.9797 94.0738 31.2945L93.2238 32.8246C91.4544 32.7175 89.0932 31.6597 88.1865 30.2178C87.2042 31.6723 84.7485 32.7175 83.1491 32.8372L82.2991 31.2756C84.7485 31.0048 86.946 29.5188 86.946 27.9258V27.3969V27.4031Z" fill="#2A3089"/>
<path d="M102.102 28.9018H104.192V27.6425H106.339V35.4H104.192V33.5487H102.102V34.8521H96.7747C95.4713 34.8521 95.062 34.3043 95.062 33.108V27.8628H102.095V28.8955L102.102 28.9018ZM101.56 35.4503C104.513 35.4503 106.371 36.3885 106.371 38.3279C106.371 40.2673 104.507 41.2055 101.56 41.2055C98.6133 41.2055 96.781 40.2673 96.781 38.3279C96.781 36.3885 98.6133 35.4503 101.56 35.4503ZM99.9545 33.2339V29.4937H97.2155V32.6609C97.2155 33.1332 97.3036 33.2339 97.7444 33.2339H99.9545ZM101.56 39.688C103.285 39.688 104.224 39.2472 104.224 38.3216C104.224 37.396 103.285 36.9552 101.56 36.9552C99.8349 36.9552 98.9093 37.396 98.9093 38.3216C98.9093 39.2472 99.8475 39.688 101.56 39.688ZM102.102 31.9053H104.192V30.5578H102.102V31.9053Z" fill="#2A3089"/>
<path d="M19.2376 46.6773H22.0648V45.462H24.2875V46.6773H27.1147V48.3711H24.3882C24.6905 49.4604 25.6413 50.556 27.6688 51.2361L26.5354 52.6151C25.2761 52.2184 23.8404 51.1731 23.236 50.2664C22.4174 51.6454 20.7362 52.6151 19.6657 52.9362L18.5449 51.5572C20.711 50.9024 21.6744 49.6934 21.964 48.3774H19.225V46.6836L19.2376 46.6773ZM30.5149 58.9936H28.3677V54.6741C28.0214 55.0204 27.1903 55.2974 26.2206 55.2974H24.2056V58.8425H22.0396V55.2974H18.8598V53.5973H26.4095C27.8892 53.5973 28.3614 52.8858 28.3614 52.1743V45.8272H30.5086V58.9936H30.5149Z" fill="#2A3089"/>
<path d="M35.5336 53.0684H33.355V50.8268H35.5336V53.0684Z" fill="#2A3089"/>
<path d="M37.9576 46.7844H40.6526V45.4369H42.8438V46.7844H45.7025V48.4845H42.8879C43.1272 50.2287 44.3739 51.3054 46.0803 52.0925L44.8524 53.4085C44.0024 53.1188 42.4156 52.0169 41.7985 50.9717C40.9485 52.5647 39.5003 53.5911 38.5432 54.1074L37.3027 52.7725C39.1791 51.8658 40.407 50.4868 40.6148 48.4845H37.9513V46.7844H37.9576ZM44.248 53.6792C47.1696 53.6792 48.9705 54.586 48.9705 56.5253C48.9705 58.4647 47.1696 59.3714 44.248 59.3714C41.3263 59.3714 39.5255 58.4647 39.5255 56.5253C39.5255 54.586 41.3263 53.6792 44.248 53.6792ZM44.248 57.8602C45.9418 57.8602 46.8359 57.4509 46.8359 56.5253C46.8359 55.5997 45.9418 55.1904 44.248 55.1904C42.5542 55.1904 41.6726 55.5997 41.6726 56.5253C41.6726 57.4509 42.5668 57.8602 44.248 57.8602ZM48.8949 48.5411H50.3179V50.342H48.8949V53.5659H46.7477V45.821H48.8949V48.5349V48.5411Z" fill="#2A3089"/>
<path d="M54.2219 45.6636C56.2368 45.6636 57.5213 46.6962 57.9117 48.2074H59.9078V45.8273H62.0549V52.8103H59.9078V50.0083H57.9684C57.6536 51.6328 56.3187 52.7536 54.2156 52.7536C51.7662 52.7536 50.3872 51.2361 50.3872 49.2212C50.3872 47.2063 51.7662 45.6636 54.2156 45.6636H54.2219ZM54.2219 51.1921C55.2986 51.1921 55.9787 50.405 55.9787 49.2212C55.9787 48.0374 55.2986 47.2377 54.2219 47.2377C53.1451 47.2377 52.4525 48.0437 52.4525 49.2212C52.4525 50.3987 53.1326 51.1921 54.2219 51.1921ZM54.6249 54.4789H59.9078V53.3266H62.0549V58.9936H54.203C53.0381 58.9936 52.4777 58.3703 52.4777 57.218V53.3266H54.6249V54.4789ZM59.9078 57.3754V56.1035H54.6249V56.815C54.6249 57.2872 54.7004 57.3754 55.1412 57.3754H59.9078Z" fill="#2A3089"/>
<path d="M65.6442 47.8737H68.6855V46.054H70.8327V53.1755H65.1594C63.856 53.1755 63.4971 52.6277 63.4971 51.4314V46.054H65.6442V47.8737ZM64.7942 54.3152H74.3147V59H72.1235V56.0153H64.8005V54.3152H64.7942ZM68.6855 51.5573V49.4983H65.6442V50.9843C65.6442 51.4565 65.7324 51.5573 66.1732 51.5573H68.6855ZM74.3147 48.5727H75.7378V50.3735H74.3147V53.6793H72.1676V45.8336H74.3147V48.579V48.5727Z" fill="#2A3089"/>
<path d="M76.355 46.054H83.6213V50.3294H78.584V50.9024C78.584 51.4628 78.6596 51.5069 79.1003 51.5069H83.1428C84.5973 51.5069 84.8807 50.8709 84.8807 50.0838V45.8273H87.0278V48.3585H88.4509V50.1594H87.0278V53.4903H84.8807V52.5836C84.5469 52.9929 83.6528 53.1314 83.0043 53.1314H78.2377C76.9972 53.1314 76.3612 52.6151 76.3612 51.1165V48.7048H81.3986V47.6722H76.3612V46.0477L76.355 46.054ZM77.5954 54.0255H87.0215V58.9936H79.3207C78.1558 58.9936 77.5954 58.3702 77.5954 57.218V54.0192V54.0255ZM84.8744 57.3754V55.6501H79.7426V56.815C79.7426 57.2872 79.8181 57.3754 80.2589 57.3754H84.8744Z" fill="#2A3089"/>
<path d="M92.9212 48.6922C95.3454 48.6922 96.7055 49.9516 96.7055 51.6643C96.7055 53.0873 95.7547 54.2081 94.042 54.5418V55.9082H96.164C97.6437 55.9082 98.116 55.1967 98.116 54.4852V45.8335H100.263V58.9999H98.116V56.9849C97.7696 57.3313 96.9385 57.6083 95.9688 57.6083H88.6143V55.9145H91.8696V54.567C90.1129 54.2459 89.1935 53.1251 89.1935 51.6705C89.1935 49.9579 90.497 48.6985 92.9338 48.6985L92.9212 48.6922ZM88.7906 46.734H91.8004V45.5061H94.042V46.734H96.9637V48.3711H88.7906V46.734ZM92.9212 53.1629C94.0105 53.1629 94.6465 52.5269 94.6465 51.6643C94.6465 50.8016 94.0105 50.1656 92.9212 50.1656C91.8319 50.1656 91.2274 50.8142 91.2274 51.6643C91.2274 52.5143 91.8319 53.1629 92.9212 53.1629Z" fill="#2A3089"/>
<path d="M15.5163 79.7035L19.0173 76.2907C20.0184 75.2832 20.5348 74.6913 20.5348 73.8475C20.5348 72.9156 19.8043 72.33 18.841 72.33C17.8209 72.33 17.166 72.9723 17.1723 73.9861H15.4785C15.4722 72.0908 16.8827 70.8629 18.8598 70.8629C20.837 70.8629 22.2475 72.0845 22.2538 73.7657C22.2475 74.8928 21.7122 75.8058 19.7666 77.6633L18.0035 79.4327V79.502H22.4112V81.0069H15.5289V79.7097L15.5163 79.7035Z" fill="black"/>
<path d="M23.5259 76.001C23.5196 72.7393 24.9553 70.8629 27.3291 70.8629C29.7029 70.8629 31.1323 72.7393 31.1323 76.001C31.1323 79.2627 29.7092 81.1391 27.3291 81.1391C24.949 81.1391 23.5196 79.2753 23.5259 76.001ZM27.3291 79.6342C28.5695 79.6279 29.3377 78.4063 29.3377 76.001C29.3314 73.6146 28.5632 72.3615 27.3291 72.3552C26.0887 72.3615 25.3268 73.6209 25.3205 76.001C25.3205 78.4063 26.0887 79.6279 27.3291 79.6342Z" fill="black"/>
<path d="M32.341 79.7035L35.842 76.2907C36.8431 75.2832 37.3595 74.6913 37.3595 73.8475C37.3595 72.9156 36.6291 72.33 35.6657 72.33C34.6456 72.33 33.9908 72.9723 33.9971 73.9861H32.3032C32.2969 72.0908 33.7074 70.8629 35.6846 70.8629C37.6617 70.8629 39.0722 72.0845 39.0785 73.7657C39.0722 74.8928 38.5369 75.8058 36.5913 77.6633L34.8282 79.4327V79.502H39.2359V81.0069H32.3536V79.7097L32.341 79.7035Z" fill="black"/>
<path d="M40.1113 77.7011L44.3931 71.0015H46.6095V77.6633H47.9066V79.1431H46.6095V81.0069H44.9157V79.1431H40.1113V77.7074V77.7011ZM44.9409 77.6633V73.0479H44.8338L41.9311 77.5941V77.6633H44.9409Z" fill="black"/>
<path d="M48.7878 80.0372C48.7815 79.4579 49.2664 78.9793 49.852 78.973C50.4187 78.9793 50.9035 79.4579 50.9035 80.0372C50.9035 80.6165 50.4187 81.1139 49.852 81.1139C49.2853 81.1139 48.7752 80.629 48.7878 80.0372Z" fill="black"/>
<path d="M59.5298 75.6987C59.5298 79.143 57.9809 81.1453 55.5503 81.1453C53.6424 81.1453 52.3202 79.9427 52.0998 78.2867H53.8628C54.0391 79.08 54.6499 79.5838 55.5441 79.5838C56.9797 79.5838 57.7857 78.3055 57.7983 76.1584H57.6912C57.1938 77.0273 56.2367 77.5499 55.1474 77.5374C53.378 77.5436 52.0053 76.1836 51.999 74.2883C51.999 72.3363 53.4535 70.8503 55.6511 70.8629C57.5842 70.8755 59.5173 72.0467 59.5236 75.6987H59.5298ZM55.6448 76.171C56.7467 76.171 57.5968 75.2705 57.5905 74.2379C57.5905 73.2241 56.7845 72.3237 55.6763 72.3174C54.5618 72.3237 53.7306 73.1801 53.7495 74.2505C53.7495 75.3272 54.5429 76.171 55.6511 76.171H55.6448Z" fill="black"/>
<path d="M60.3611 80.0372C60.3548 79.4579 60.8396 78.9793 61.4252 78.973C61.9919 78.9793 62.4767 79.4579 62.4767 80.0372C62.4767 80.6165 61.9919 81.1139 61.4252 81.1139C60.8585 81.1139 60.3485 80.629 60.3611 80.0372Z" fill="black"/>
<path d="M63.8684 79.7035L67.3693 76.2907C68.3705 75.2832 68.8868 74.6913 68.8868 73.8475C68.8868 72.9156 68.1564 72.33 67.193 72.33C66.1729 72.33 65.5181 72.9723 65.5244 73.9861H63.8306C63.8243 72.0908 65.2347 70.8629 67.2119 70.8629C69.1891 70.8629 70.5995 72.0845 70.6058 73.7657C70.5995 74.8928 70.0643 75.8058 68.1186 77.6633L66.3555 79.4327V79.502H70.7632V81.0069H63.881V79.7097L63.8684 79.7035Z" fill="black"/>
<path d="M71.8779 76.2781C71.8779 72.859 73.4143 70.8629 75.8449 70.8629C77.7528 70.8629 79.0687 72.0719 79.2954 73.6964H77.5324C77.3561 72.9282 76.7516 72.4182 75.8511 72.4245C74.4155 72.4182 73.6158 73.7027 73.6095 75.8121H73.704C74.2077 74.9495 75.1585 74.4394 76.2478 74.4457C78.0298 74.4394 79.4025 75.7995 79.3962 77.6948C79.4025 79.6846 77.929 81.1643 75.7441 81.1517C73.811 81.1391 71.8779 79.9742 71.8842 76.2907L71.8779 76.2781ZM75.7378 79.6909C76.8397 79.6846 77.6583 78.8282 77.6646 77.7263C77.6583 76.6622 76.8649 75.8058 75.763 75.8058C74.6611 75.8058 73.8047 76.6999 73.7921 77.7389C73.8047 78.7841 74.6107 79.6783 75.7378 79.6846V79.6909Z" fill="black"/>
<path d="M80.2144 80.0372C80.2081 79.4579 80.6929 78.9793 81.2848 78.973C81.8515 78.9793 82.3364 79.4579 82.3364 80.0372C82.3364 80.6165 81.8515 81.1139 81.2848 81.1139C80.7181 81.1139 80.2081 80.629 80.2144 80.0372Z" fill="black"/>
<path d="M86.1084 70.5732H87.7518C86.8073 71.9459 85.8628 74.7165 85.8628 77.191C85.8628 79.6656 86.8073 82.4425 87.7518 83.8214H86.1084C84.8239 81.9576 84.0557 79.7916 84.0557 77.191C84.0557 74.5905 84.8239 72.4245 86.1084 70.5732Z" fill="black"/>
<path d="M98.1098 74.5968H94.6592V75.9065H99.5454V77.147H88.2744V75.9065H93.1291V74.5968H89.6975V70.2584H98.1098V74.5968ZM89.5211 78.1985H98.1665V82.2347H96.649V79.4138H89.5211V78.1985ZM96.6049 73.3753V71.4548H91.1709V73.3753H96.6049Z" fill="black"/>
<path d="M101.724 83.8214H100.081C101.025 82.4425 101.97 79.6656 101.97 77.191C101.97 74.7165 101.025 71.9459 100.081 70.5732H101.724C103.009 72.4245 103.777 74.5968 103.777 77.191C103.777 79.7853 103.009 81.9576 101.724 83.8214Z" fill="black"/>
<path d="M32.1521 94.7209C32.6496 94.7209 33.0714 95.105 33.0714 95.5899C33.0714 96.0747 32.6559 96.4651 32.1521 96.4588C31.6484 96.4651 31.2265 96.0747 31.2202 95.5899C31.2265 95.105 31.6421 94.7209 32.1521 94.7209ZM31.4091 97.6174H32.8699V105.117H31.4091V97.6174Z" fill="black"/>
<path d="M35.8358 105.123H34.3687V97.6237H35.7791V98.8515H35.861C36.2073 98.0456 36.944 97.5229 38.0522 97.5229C39.576 97.5229 40.5898 98.4989 40.5835 100.356V105.123H39.1352V100.533C39.1289 99.4434 38.5496 98.7949 37.5611 98.7949C36.5725 98.7949 35.8358 99.4812 35.8358 100.671V105.123Z" fill="black"/>
<path d="M44.7836 99.7079H55.9602V100.772H51.0048V102.239H54.5876V106.301H53.2716V103.291H46.0178V102.239H49.7139V100.772H44.7773V99.7079H44.7836ZM55.3621 97.8126L54.8583 98.8326C52.8938 98.5304 51.1685 97.567 50.3877 96.2258C49.5943 97.567 47.8627 98.5241 45.8982 98.8326L45.407 97.8126C47.762 97.4852 49.7076 96.0999 49.7139 94.6076V94.085H51.0425V94.6076C51.0488 96.0873 53.0071 97.4915 55.3684 97.8126H55.3621Z" fill="black"/>
<path d="M66.828 101.225H65.5309V99.3869H62.8611V100.394H57.1689V94.8407H62.8611V95.8607H65.5309V93.915H66.828V101.225ZM61.5892 99.3491V95.8922H58.4535V99.3491H61.5892ZM62.7226 101.572C65.2854 101.566 66.8595 102.434 66.8658 103.933C66.8595 105.425 65.2854 106.275 62.7226 106.269C60.141 106.275 58.5731 105.425 58.5794 103.933C58.5731 102.434 60.1473 101.566 62.7226 101.572ZM62.7226 105.262C64.5109 105.255 65.575 104.764 65.5813 103.933C65.575 103.064 64.5046 102.586 62.7226 102.579C60.9218 102.586 59.8576 103.064 59.8639 103.933C59.8576 104.764 60.9218 105.249 62.7226 105.262ZM65.5309 98.3227V96.9123H62.8611V98.3227H65.5309Z" fill="black"/>
<path d="M74.334 96.61H77.3627V93.915H78.6472V106.319H77.3627V101.566H74.4221C73.8932 102.806 72.9361 103.536 71.7523 103.53C69.9263 103.536 68.6354 101.849 68.648 99.1791C68.6354 96.5345 69.9263 94.8469 71.7523 94.8407C72.8731 94.8469 73.7924 95.4892 74.334 96.61ZM71.7586 102.359C72.8668 102.359 73.6287 101.15 73.635 99.1791C73.6287 97.2397 72.8668 96.0244 71.7586 96.0181C70.6504 96.0244 69.8885 97.2397 69.8822 99.1791C69.8885 101.15 70.6504 102.359 71.7586 102.359ZM74.8629 99.1791C74.8629 99.6513 74.8188 100.086 74.737 100.489H77.3627V97.6868H74.6992C74.7936 98.1401 74.8566 98.6375 74.8566 99.1791H74.8629Z" fill="black"/>
<path d="M80.668 95.4073H85.2645V96.4714H81.9651V102.208C83.47 102.201 84.6034 102.132 85.9194 101.874L86.0138 102.951C84.5404 103.259 83.2685 103.31 81.4865 103.322H80.668V95.4073ZM90.7804 106.294H89.5337V99.8968H87.9469V105.658H86.7568V94.1606H87.9469V98.8138H89.5337V93.9087H90.7804V106.288V106.294Z" fill="black"/>
<path d="M30.3955 116.917H41.5847V117.968H36.73V120.411H35.4454V117.968H30.3955V116.917ZM31.7934 119.366H33.0779V121.948H40.4135V123.012H31.7934V119.366ZM40.3128 115.582H31.9004V111.325H33.1975V114.53H40.3128V115.582Z" fill="black"/>
<path d="M42.2333 116.105H47.4029V114.071H48.6874V116.105H53.3785V117.169H42.2271V116.105H42.2333ZM47.1259 119.794H43.6564V118.774H47.1448V117.584H48.4419V118.774H51.9428V119.794H48.4608C48.656 120.947 50.3183 121.973 52.4465 122.212L51.9806 123.207C50.1042 122.962 48.5237 122.162 47.787 121.022C47.0566 122.156 45.4824 122.955 43.606 123.207L43.1527 122.212C45.2432 121.973 46.9055 120.947 47.1133 119.794H47.1259ZM43.1778 111.351H46.9558V111.873C46.9432 112.591 46.9433 113.825 46.3514 115.424L45.092 115.217C45.5391 113.964 45.6398 113.076 45.665 112.408H43.1778V111.344V111.351ZM52.1821 111.905C52.1821 112.641 52.1821 113.857 51.8295 115.412L50.5701 115.261C50.8346 114.008 50.8976 113.101 50.9102 112.415H47.9255V111.351H52.1821V111.905Z" fill="black"/>
<path d="M56.4572 116.722V114.354H57.7417V116.69C59.064 116.64 60.4115 116.552 61.6394 116.4L61.7212 117.326C59.1648 117.761 56.2746 117.83 54.0708 117.836L53.9448 116.747C54.7067 116.747 55.5568 116.74 56.4509 116.728L56.4572 116.722ZM60.8712 112.345C60.8649 113.132 60.8649 114.253 60.5563 115.676L59.2718 115.563C59.53 114.354 59.5741 113.447 59.5804 112.717H54.6878V111.64H60.8712V112.345ZM59.6937 118.718C62.2564 118.718 63.8369 119.561 63.8369 120.953C63.8369 122.345 62.2564 123.239 59.6937 123.232C57.1309 123.239 55.5505 122.401 55.5505 120.953C55.5505 119.505 57.1309 118.718 59.6937 118.718ZM59.6937 122.2C61.4568 122.206 62.5146 121.778 62.5272 120.959C62.5146 120.197 61.4568 119.744 59.6937 119.744C57.9306 119.744 56.8539 120.197 56.8602 120.959C56.8539 121.784 57.918 122.212 59.6937 122.2ZM62.4201 110.897H63.7488V114.171H65.4426V115.261H63.7488V118.56H62.4201V110.891V110.897Z" fill="black"/>
<path d="M73.0931 116.778L72.476 117.798C71.0782 117.351 70.0644 116.419 69.5229 115.242C68.9877 116.596 67.9172 117.666 66.4438 118.182L65.7764 117.131C67.6906 116.495 68.8491 114.902 68.8554 113.176V112.83H66.1605V111.766H72.7972V112.83H70.1588V113.164C70.1526 114.738 71.2419 116.174 73.0994 116.772L73.0931 116.778ZM71.5504 118.629C74.0754 118.623 75.6117 119.473 75.6117 120.921C75.6117 122.37 74.0754 123.251 71.5504 123.245C69.0003 123.251 67.4324 122.395 67.4324 120.921C67.4324 119.448 69.0003 118.623 71.5504 118.629ZM71.5504 122.212C73.3072 122.219 74.3461 121.759 74.3398 120.928C74.3461 120.122 73.3072 119.662 71.5504 119.668C69.7811 119.662 68.7232 120.115 68.7295 120.928C68.7232 121.759 69.7748 122.219 71.5504 122.212ZM74.2013 110.897H75.4984V113.964H77.2804V115.04H75.4984V118.327H74.2013V110.897Z" fill="black"/>
<path d="M77.6962 117.043H82.6328V116.268C80.4101 116.186 79.2452 115.683 79.2515 114.694C79.2452 113.617 80.6305 113.114 83.2751 113.107C85.9008 113.114 87.305 113.617 87.2987 114.694C87.305 115.676 86.1338 116.186 83.9299 116.268V117.043H88.8665V117.993H77.6899V117.043H77.6962ZM88.2432 112.666H78.2692V111.716H82.6328V110.721H83.9299V111.716H88.2369V112.666H88.2432ZM79.0374 118.718H87.4624V121.331H80.3597V122.2H87.8024V123.15H79.0437V120.43H86.1338V119.643H79.0311V118.718H79.0374ZM83.2751 115.424C85.0633 115.424 85.9323 115.173 85.9449 114.694C85.9323 114.215 85.0633 113.976 83.2751 113.976C81.4868 113.976 80.6305 114.215 80.6368 114.694C80.6305 115.179 81.4805 115.424 83.2751 115.424Z" fill="black"/>
<path d="M105.219 0.352661H95.5093V15.8614H105.219V0.352661Z" fill="#E6002D"/>
<path d="M95.5093 20.5524V15.6284H101.183" fill="#E6002D"/>
<path d="M105.219 20.5524V15.6284H99.5454" fill="#E6002D"/>
</svg>
