<svg xmlns="http://www.w3.org/2000/svg" width="103.38" height="103.38" viewBox="0 0 103.38 103.38"><g transform="translate(-21.411 -21.411)"><path d="M109.651,109.651a51.69,51.69,0,1,0-73.1,0A51.69,51.69,0,0,0,109.651,109.651Z" fill="#e61f2c" opacity="0.67"/><path d="M67.895,73.49h3.97v3.06H51.545V73.49h4.03V71.92a3.8,3.8,0,0,1,.37-7.58h11.45a3.812,3.812,0,0,1,.48,7.58v1.57Zm-.36,4.12a3.7,3.7,0,1,1,0,7.4H55.815a3.7,3.7,0,1,1,0-7.4Zm-1.1,4.43a.8.8,0,0,0,.84-.78.773.773,0,0,0-.84-.75h-9.57a.779.779,0,0,0-.84.75.8.8,0,0,0,.84.78Zm-9.31-14.66a.8.8,0,1,0,0,1.6h9.17a.8.8,0,1,0,0-1.6Zm2.22,6.11h4.79V71.94h-4.79Z" fill="#fff"/><path d="M73.5,73.18A6.127,6.127,0,0,0,77.975,67V64.54h4.19v2.64a6.058,6.058,0,0,0,4.48,6v3.83a9.991,9.991,0,0,1-6.56-4.28,10.147,10.147,0,0,1-6.58,4.28V73.18Zm1.27,11.74v-7h4.25V81.6h13.94v3.32Zm13.54-5.58V64.41h4.21v5.16h2.44v3.61h-2.44v6.16Z" fill="#fff"/></g></svg>