<svg width="162" height="192" viewBox="0 0 162 192" fill="none" xmlns="http://www.w3.org/2000/svg">
<path d="M143.293 1H18.7073C8.92785 1 1 8.95652 1 18.7714V173.229C1 183.043 8.92785 191 18.7073 191H143.293C153.072 191 161 183.043 161 173.229V18.7714C161 8.95652 153.072 1 143.293 1Z" fill="white" stroke="#515B96" stroke-miterlimit="10"/>
<path d="M39.4879 49.1542C39.4879 46.9937 41.9806 44.4983 43.9234 42.6643C45.3073 41.3329 46.6113 40.1856 46.6113 38.6532C46.6113 37.1207 45.8661 36.4173 44.3758 36.4927C43.2669 36.5513 42.1758 37.6985 41.5194 39.1891L39 37.9581C39.8516 35.9232 41.8565 34.1061 44.5177 34.0056C47.8887 33.8884 49.7427 35.6218 49.6806 38.5359C49.6363 40.7551 47.6315 42.723 45.8661 44.381C44.7395 45.4529 43.4532 46.7006 43.054 47.7641H50V50H39.4879V49.1375V49.1542Z" fill="#2A3089"/>
<path d="M54.9584 51C51.7554 51 50 48.4021 50 42.5C50 36.5979 51.7554 34 54.9584 34C58.1614 34 60 36.6241 60 42.5C60 48.3759 58.203 51 54.9584 51ZM54.9584 48.6549C56.6805 48.6549 57.2379 46.4056 57.2379 42.5087C57.2379 38.6118 56.6805 36.38 54.9584 36.38C53.2363 36.38 52.7621 38.6031 52.7621 42.5087C52.7621 46.4144 53.2612 48.6549 54.9584 48.6549Z" fill="#2A3089"/>
<path d="M61.4879 49.1542C61.4879 46.9937 63.9806 44.4983 65.9234 42.6643C67.3073 41.3329 68.6113 40.1856 68.6113 38.6532C68.6113 37.1207 67.8661 36.4173 66.3758 36.4927C65.2669 36.5513 64.1758 37.6985 63.5194 39.1891L61 37.9581C61.8516 35.9232 63.8565 34.1061 66.5177 34.0056C69.8887 33.8884 71.7427 35.6218 71.6806 38.5359C71.6363 40.7551 69.6314 42.723 67.8661 44.381C66.7395 45.4529 65.4532 46.7006 65.054 47.7641H72V50H61.4879V49.1375V49.1542Z" fill="#2A3089"/>
<path d="M78.5163 34.0085H81.4692V44.7714H83V47.0377H81.4692V50H78.8342V47.0377H72V45.0939L78.5163 34V34.0085ZM78.8342 44.8138V38.2186L74.9529 44.8138H78.8342Z" fill="#2A3089"/>
<path d="M100.043 50.2783H92.7703C90.9498 50.2783 90 49.1765 90 47.5409V34.4046H100.043V50.2697V50.2783ZM97.0445 48.0057V36.6944H93.0078V47.0933C93.0078 47.7389 93.2364 48.0057 93.852 48.0057H97.0445ZM105.012 40.3013H107V42.7633H105.012V52H102.013V34H105.012V40.2927V40.3013Z" fill="#2A3089"/>
<path d="M120.363 40.1681C120.363 41 120.245 41.8067 120.043 42.4706H122.435V44.7395H116.504V47.7143H123V50H107V47.7143H113.496V44.7395H107.565V42.4706H109.772V37.0504H112.788V42.4706H117.06C117.245 41.7815 117.346 41.0168 117.346 40.1849V37.0504H120.363V40.1681ZM107.851 34H122.166V36.2689H107.851V34Z" fill="#2A3089"/>
<path d="M35.4031 59C38.793 59 40.8061 61.0227 40.8061 63.6657C40.8061 66.3088 38.793 68.3314 35.4031 68.3314C32.0131 68.3314 30 66.3088 30 63.6657C30 61.0227 32.0305 59 35.4031 59ZM46 77H34.8366C33.329 77 32.5708 76.2861 32.5708 74.8499V71.9688H42.6885V71.153H32.5708V69.0878H45.8257V74.034H35.7081V74.5014C35.7081 74.8669 35.7952 74.9348 36.1089 74.9348H45.9913V77H46ZM35.4031 66.2238C36.9107 66.2238 37.939 65.1785 37.939 63.6657C37.939 62.153 36.9107 61.1332 35.4031 61.1332C33.8954 61.1332 32.8497 62.153 32.8497 63.6657C32.8497 65.1785 33.9216 66.2238 35.4031 66.2238ZM45.8257 68.3654H42.854V59.221H45.8257V68.3654Z" fill="#2A3089"/>
<path d="M47.0751 59.4218H57.6012V61.7461H53.5607V64.4835C53.5607 67.7547 55.5376 71.1722 58.2254 73.1435L56.2919 74.8651C55.104 73.9957 52.8497 71.5509 52.1647 69.726C51.3064 72.0674 49.2688 74.2798 47.8728 75.2353L46 73.5395C48.9827 71.4218 50.5607 68.2539 50.5607 64.5696V61.7547H47.0838V59.4304L47.0751 59.4218ZM62.0405 65.3013H64V67.7633H62.0405V77H59.0838V59H62.0405V65.2927V65.3013Z" fill="#2A3089"/>
<path d="M80 76.9914H77.0227V74.5466C76.5425 75.0201 75.39 75.3989 74.0454 75.3989H67.9162C66.0914 75.3989 65 74.4864 65 72.4376V65.7059H71.7753V61.7461H65V59.4046H74.8399V68.0215H68.0821V72.188C68.0821 72.9541 68.3091 73.1004 68.9203 73.1004H74.3161C76.3766 73.1004 77.0227 72.1277 77.0227 71.155V59H80V77V76.9914Z" fill="#2A3089"/>
<path d="M84.982 61.7891H89.2058V59.3013H92.1878V69.0373H84.3086C82.4985 69.0373 82 68.2884 82 66.6528V59.3013H84.982V61.7891ZM83.8014 70.5954H97.0237V77H93.9805V72.9197H83.8102V70.5954H83.8014ZM89.2058 66.825V64.01H84.982V66.0416C84.982 66.6872 85.1044 66.825 85.7166 66.825H89.2058ZM97.0237 62.7446H99V65.2066H97.0237V69.726H94.0417V59H97.0237V62.7532V62.7446Z" fill="#2A3089"/>
<path d="M100 59.31H109.612V65.1579H102.948V65.9416C102.948 66.7081 103.048 66.7684 103.631 66.7684H108.979C110.903 66.7684 111.277 65.8986 111.277 64.822V59H114.118V62.4622H116V64.9254H114.118V69.4813H111.277V68.2411C110.836 68.801 109.653 68.9904 108.795 68.9904H102.49C100.85 68.9904 100.008 68.2842 100.008 66.2344V62.9359H106.672V61.5234H100.008V59.3014L100 59.31ZM101.641 70.2048H114.109V77H103.923C102.382 77 101.641 76.1474 101.641 74.5713V70.1962V70.2048ZM111.269 74.7866V72.4268H104.481V74.0201C104.481 74.666 104.581 74.7866 105.164 74.7866H111.269Z" fill="#2A3089"/>
<path d="M121.924 62.2437C125.254 62.2437 127.122 63.9244 127.122 66.2101C127.122 68.1092 125.816 69.605 123.464 70.0504V71.8739H126.37C128.402 71.8739 129.051 70.9244 129.051 69.9748V58.4286H132V76H129.051V73.3109C128.575 73.7731 127.434 74.1429 126.102 74.1429H116V71.8823H120.471V70.084C118.058 69.6555 116.796 68.1597 116.796 66.2185C116.796 63.9328 118.586 62.2521 121.933 62.2521L121.924 62.2437ZM116.251 59.6387H120.385V58H123.464V59.6387H127.477V61.8235H116.251V59.6387ZM121.924 68.2101C123.421 68.2101 124.294 67.3613 124.294 66.2101C124.294 65.0588 123.421 64.2101 121.924 64.2101C120.428 64.2101 119.598 65.0756 119.598 66.2101C119.598 67.3445 120.428 68.2101 121.924 68.2101Z" fill="#2A3089"/>
<path d="M17.0491 105.201L21.594 100.491C22.8937 99.1006 23.564 98.2837 23.564 97.1192C23.564 95.833 22.6158 95.0248 21.3651 95.0248C20.0409 95.0248 19.1908 95.9112 19.1989 97.3104H17C16.9919 94.6946 18.8229 93 21.3897 93C23.9564 93 25.7875 94.6859 25.7956 97.0062C25.7875 98.5618 25.0926 99.8219 22.5668 102.385L20.2779 104.827V104.923H26V107H17.0654V105.21L17.0491 105.201Z" fill="black"/>
<path d="M28 100C27.9917 95.5564 29.8792 93 33 93C36.1209 93 38 95.5564 38 100C38 104.444 36.1291 107 33 107C29.8709 107 27.9917 104.461 28 100ZM33 104.95C34.6308 104.941 35.6407 103.277 35.6407 100C35.6325 96.7488 34.6225 95.0417 33 95.0331C31.3692 95.0417 30.3676 96.7574 30.3593 100C30.3593 103.277 31.3692 104.941 33 104.95Z" fill="black"/>
<path d="M40.0491 105.201L44.594 100.491C45.8937 99.1006 46.564 98.2837 46.564 97.1192C46.564 95.833 45.6158 95.0248 44.3651 95.0248C43.0409 95.0248 42.1908 95.9112 42.1989 97.3104H40C39.9919 94.6946 41.8229 93 44.3897 93C46.9564 93 48.7875 94.6859 48.7956 97.0062C48.7875 98.5618 48.0926 99.8219 45.5668 102.385L43.2779 104.827V104.923H49V107H40.0654V105.21L40.0491 105.201Z" fill="black"/>
<path d="M50 102.374L56.042 93H59.1696V102.322H61V104.392H59.1696V107H56.7795V104.392H50V102.383V102.374ZM56.815 102.313V95.8546H56.664L52.5678 102.216V102.313H56.815Z" fill="black"/>
<path d="M62.0003 105.491C61.9914 104.679 62.6788 104.009 63.5091 104C64.3126 104.009 65 104.679 65 105.491C65 106.303 64.3126 107 63.5091 107C62.7056 107 61.9825 106.321 62.0003 105.491Z" fill="black"/>
<path d="M71 106.991H68.413V95.4493H68.3313L65 97.5375V95.2379L68.531 93H71V107V106.991Z" fill="black"/>
<path d="M73 100C72.9917 95.5564 74.8792 93 78 93C81.1209 93 83 95.5564 83 100C83 104.444 81.1291 107 78 107C74.8709 107 72.9917 104.461 73 100ZM78 104.95C79.6308 104.941 80.6407 103.277 80.6407 100C80.6325 96.7488 79.6225 95.0417 78 95.0331C76.3692 95.0417 75.3676 96.7574 75.3593 100C75.3593 103.277 76.3692 104.941 78 104.95Z" fill="black"/>
<path d="M85.0003 105.491C84.9914 104.679 85.6788 104.009 86.5091 104C87.3126 104.009 88 104.679 88 105.491C88 106.303 87.3126 107 86.5091 107C85.7056 107 84.9825 106.321 85.0003 105.491Z" fill="black"/>
<path d="M90.0491 105.201L94.594 100.491C95.8937 99.1006 96.564 98.2837 96.564 97.1192C96.564 95.833 95.6158 95.0248 94.3651 95.0248C93.0409 95.0248 92.1908 95.9112 92.1989 97.3104H90C89.9919 94.6946 91.8229 93 94.3897 93C96.9564 93 98.7875 94.6859 98.7956 97.0062C98.7875 98.5618 98.0926 99.8219 95.5668 102.385L93.2779 104.827V104.923H99V107H90.0654V105.21L90.0491 105.201Z" fill="black"/>
<path d="M101 103.131H103.438C103.506 104.221 104.584 104.95 105.987 104.941C107.467 104.95 108.536 104.126 108.536 102.908C108.536 101.69 107.492 100.806 105.747 100.798H104.541V98.9191H105.747C107.176 98.9191 108.177 98.1127 108.16 96.9203C108.168 95.7708 107.313 94.9988 106.004 94.9988C104.695 94.9988 103.652 95.7108 103.609 96.8603H101.282C101.334 94.5699 103.395 93 106.021 93C108.647 93 110.521 94.69 110.503 96.7831C110.521 98.3101 109.52 99.4081 108.048 99.7169V99.8284C109.947 100.086 111.025 101.313 111 103.028C111.017 105.336 108.887 107 105.978 107C103.07 107 101.051 105.422 101 103.123V103.131Z" fill="black"/>
<path d="M112 105.491C111.991 104.679 112.679 104.009 113.509 104C114.313 104.009 115 104.679 115 105.491C115 106.303 114.313 107 113.509 107C112.706 107 111.982 106.321 112 105.491Z" fill="black"/>
<path d="M119.777 93H122C120.722 94.865 119.445 98.6293 119.445 101.991C119.445 105.354 120.722 109.126 122 111H119.777C118.039 108.468 117 105.525 117 101.991C117 98.4582 118.039 95.5152 119.777 93Z" fill="black"/>
<path d="M123 101.093H138V102.882H131.464V109H129.461V102.882H123V101.093ZM137.397 97.826L136.592 99.5703C133.802 99.1276 131.573 97.6578 130.5 95.6745C129.427 97.6578 127.215 99.1276 124.45 99.5703L123.645 97.826C127.123 97.3391 129.436 95.1167 129.436 92.8943V92H131.564V92.8943C131.556 95.099 133.877 97.3391 137.388 97.826H137.397Z" fill="black"/>
<path d="M141.223 111H139C140.278 109.126 141.555 105.354 141.555 101.991C141.555 98.6293 140.278 94.865 139 93H141.223C142.961 95.5152 144 98.4667 144 101.991C144 105.516 142.961 108.468 141.223 111Z" fill="black"/>
<path d="M50.5614 130.64H54.0324V124.485H55.7937V140.938H54.0324V132.052H50.5787C50.3801 135.259 48.6878 137.247 46.3393 137.238C43.8354 137.247 42.0654 135.008 42.0826 131.467C42.0654 127.959 43.8354 125.721 46.3393 125.713C48.6274 125.721 50.2851 127.609 50.5614 130.64ZM46.3393 135.685C47.8589 135.685 48.9037 134.081 48.9123 131.467C48.9037 128.895 47.8589 127.283 46.3393 127.274C44.8197 127.283 43.7749 128.895 43.7663 131.467C43.7749 134.081 44.8197 135.685 46.3393 135.685Z" fill="black"/>
<path d="M58.5356 131.275H73.618V132.686H66.9308V134.131H71.7146V138.074H62.0789V139.57H72.182V140.938H60.3625V136.774H69.9812V135.457H60.3455V134.123H65.1804V132.677H58.5356V131.266V131.275ZM71.978 127.375C71.9695 129.265 69.8028 130.283 66.0726 130.283C62.3423 130.283 60.1586 129.257 60.1671 127.375C60.1586 125.52 62.3423 124.476 66.0726 124.485C69.8028 124.476 71.9695 125.52 71.978 127.375ZM66.0726 128.949C68.7237 128.94 70.1767 128.419 70.1682 127.375C70.1767 126.392 68.7152 125.828 66.0726 125.819C63.4385 125.828 61.9855 126.392 61.994 127.375C61.9855 128.419 63.447 128.94 66.0726 128.949Z" fill="black"/>
<path d="M74.9893 125.469H83.0786V130.162H76.8512V132.173C79.9332 132.173 82.1838 132.088 84.8682 131.672L85.1032 133.123C82.229 133.539 79.8338 133.632 76.4987 133.624H75.0254V128.787H81.2348V126.886H74.9893V125.469ZM77.1314 135.202H88.7005V140.938H77.1314V135.202ZM86.8747 139.504V136.619H78.9842V139.504H86.8747ZM88.7005 134.371H86.8386V124.485H88.7005V134.371Z" fill="black"/>
<path d="M99.2633 136.812H91.4429V126.125H99.2633V136.812ZM97.5016 135.398V127.506H93.1702V135.398H97.5016ZM102.065 124.485H103.835V130.929H106.525V132.402H103.835V140.938H102.065V124.485Z" fill="black"/>
<path d="M107.896 125.709H115.476V127.125H109.676V131.609C113.025 131.593 114.909 131.5 117.047 131.073L117.221 132.489C114.944 132.942 112.921 133.026 109.239 133.026H107.896V125.709ZM115.04 134.535C118.512 134.543 120.667 135.725 120.667 137.736C120.667 139.748 118.503 140.947 115.04 140.938C111.534 140.947 109.335 139.773 109.335 137.736C109.335 135.7 111.534 134.543 115.04 134.535ZM115.04 139.539C117.448 139.547 118.94 138.876 118.948 137.736C118.94 136.597 117.448 135.943 115.04 135.951C112.589 135.943 111.106 136.597 111.115 137.736C111.106 138.876 112.58 139.547 115.04 139.539ZM120.536 128.667H122.978V130.101H120.536V134.216H118.713V124.485H120.536V128.659V128.667Z" fill="black"/>
<path d="M28.3804 149.165C29.1173 149.165 29.7422 149.671 29.7422 150.31C29.7422 150.948 29.1266 151.463 28.3804 151.454C27.6343 151.463 27.0093 150.948 27 150.31C27.0093 149.671 27.6249 149.165 28.3804 149.165ZM27.2891 152.989H29.4624V162.876H27.2891V152.989Z" fill="black"/>
<path d="M33.047 162.876H31.1133V152.053H32.9803V153.823H33.0887C33.5471 152.661 34.5223 151.907 35.9893 151.907C38.0064 151.907 39.3483 153.315 39.34 155.993V162.867H37.4229V156.248C37.4146 154.677 36.6477 153.742 35.3391 153.742C34.0305 153.742 33.0553 154.731 33.0553 156.447V162.867L33.047 162.876Z" fill="black"/>
<path d="M54.0207 160.113H46.1958V149.426H54.0207V160.113ZM52.258 158.699V150.807H47.9242V158.699H52.258ZM56.8153 147.794H58.5867V154.238H61.2781V155.711H58.5867V164.247H56.8153V147.794Z" fill="black"/>
<path d="M76.3602 162.876H61.2778V161.302H67.8965V157.595H62.5982V156.136H65.0611V150.66H62.5559V149.165H74.9721V150.66H72.4499V156.136H74.9129V157.595H69.6146V161.302H76.3432V162.876H76.3602ZM70.7487 156.136V150.66H66.7962V156.136H70.7487Z" fill="black"/>
<path d="M90.8945 150.579C90.8945 152.108 90.8945 153.759 90.4359 156.048H92.8138V157.446H86.1133V164.247H84.3385V157.446H77.7314V156.048H88.6525C89.1451 153.751 89.1451 152.075 89.1536 150.579V150.563H79.5743V149.165H90.886V150.579H90.8945Z" fill="black"/>
<path d="M104.004 155.803L103.18 157.157C101.28 156.614 99.8595 155.444 99.1029 153.924C98.3884 155.62 96.9677 156.964 95.0089 157.582L94.1851 156.246C96.6734 155.453 98.2034 153.49 98.2034 151.369V151.168H94.639V149.773H98.2034V147.794H99.9352V149.773H103.483V151.168H99.9184V151.369C99.9184 153.306 101.499 155.11 103.996 155.803H104.004ZM102.365 158.184C105.786 158.192 107.888 159.286 107.896 161.207C107.888 163.145 105.786 164.256 102.365 164.247C98.9348 164.256 96.8247 163.137 96.8331 161.207C96.8247 159.286 98.9348 158.192 102.365 158.184ZM102.365 162.911C104.769 162.903 106.173 162.268 106.181 161.207C106.173 160.147 104.769 159.537 102.365 159.537C99.9604 159.537 98.5397 160.138 98.5481 161.207C98.5397 162.268 99.9604 162.903 102.365 162.911ZM102.978 152.463H106.106V147.861H107.837V157.808H106.106V153.883H102.978V152.454V152.463Z" fill="black"/>
<path d="M120.236 162.868H118.125V151.245H118.046L114.752 153.385V151.4L118.178 149.165H120.236V162.876V162.868Z" fill="black"/>
<path d="M138.061 157.52H122.979V156.088H138.061V157.52ZM129.53 150.776H124.491V149.377H129.64V147.794H131.374V149.377H136.54V150.776H131.484C131.68 152.368 133.957 153.558 137.245 153.826L136.71 155.166C133.846 154.898 131.527 153.943 130.507 152.41C129.47 153.943 127.168 154.898 124.321 155.166L123.769 153.826C127.049 153.558 129.317 152.368 129.53 150.776ZM130.507 158.752C134.11 158.752 136.2 159.723 136.208 161.508C136.2 163.292 134.101 164.256 130.507 164.247C126.887 164.256 124.763 163.292 124.763 161.508C124.763 159.723 126.887 158.752 130.507 158.752ZM130.507 162.924C133.031 162.94 134.458 162.446 134.458 161.508C134.458 160.57 133.031 160.059 130.507 160.059C127.983 160.059 126.53 160.57 126.539 161.508C126.53 162.446 127.949 162.94 130.507 162.924Z" fill="black"/>
</svg>
