<svg width="162" height="192" viewBox="0 0 162 192" fill="none" xmlns="http://www.w3.org/2000/svg">
<path d="M143.293 1H18.7073C8.92785 1 1 8.95651 1 18.7714V173.229C1 183.043 8.92785 191 18.7073 191H143.293C153.072 191 161 183.043 161 173.229V18.7714C161 8.95651 153.072 1 143.293 1Z" fill="white" stroke="#515B96" stroke-miterlimit="10"/>
<path d="M39.4879 50.1542C39.4879 47.9937 41.9806 45.4983 43.9234 43.6643C45.3073 42.3329 46.6113 41.1856 46.6113 39.6532C46.6113 38.1207 45.8661 37.4173 44.3758 37.4927C43.2669 37.5513 42.1758 38.6985 41.5194 40.1891L39 38.9581C39.8516 36.9232 41.8565 35.1061 44.5177 35.0056C47.8887 34.8884 49.7428 36.6218 49.6807 39.5359C49.6363 41.7551 47.6315 43.7229 45.8661 45.381C44.7395 46.4529 43.4532 47.7006 43.054 48.7641H50V51H39.4879V50.1375V50.1542Z" fill="#2A3089"/>
<path d="M54.9584 52C51.7637 52 50 49.4021 50 43.5C50 37.5979 51.7637 35 54.9584 35C58.1531 35 60 37.6241 60 43.5C60 49.3759 58.203 52 54.9584 52ZM54.9584 49.6549C56.6805 49.6549 57.2379 47.4056 57.2379 43.5087C57.2379 39.6118 56.6805 37.38 54.9584 37.38C53.2363 37.38 52.7621 39.6031 52.7621 43.5087C52.7621 47.4144 53.2612 49.6549 54.9584 49.6549Z" fill="#2A3089"/>
<path d="M61.4879 50.1542C61.4879 47.9937 63.9806 45.4983 65.9234 43.6643C67.3073 42.3329 68.6113 41.1856 68.6113 39.6532C68.6113 38.1207 67.8661 37.4173 66.3758 37.4927C65.2669 37.5513 64.1758 38.6985 63.5194 40.1891L61 38.9581C61.8516 36.9232 63.8565 35.1061 66.5177 35.0056C69.8887 34.8884 71.7427 36.6218 71.6806 39.5359C71.6363 41.7551 69.6314 43.7229 67.8661 45.381C66.7395 46.4529 65.4532 47.7006 65.054 48.7641H72V51H61.4879V50.1375V50.1542Z" fill="#2A3089"/>
<path d="M78.5163 35.0085H81.4692V45.7714H83V48.0377H81.4692V51H78.8342V48.0377H72V46.0939L78.5163 35V35.0085ZM78.8342 45.8138V39.2186L74.9529 45.8138H78.8342Z" fill="#2A3089"/>
<path d="M90 43.6443H106V45.9186H90V43.6443ZM97.9789 34C102.065 34 104.905 35.314 104.905 38.2789C104.905 41.2438 102.074 42.5578 97.9789 42.5578C93.8842 42.5578 91.0532 41.2606 91.0532 38.2789C91.0532 35.2971 93.8926 34 97.9789 34ZM104.677 52H93.9431C92.3844 52 91.6345 51.1661 91.6345 49.6247V46.6429H94.6087V49.0182C94.6087 49.65 94.7099 49.7679 95.2996 49.7679H104.677V52ZM97.9789 40.4268C100.347 40.4268 101.93 39.7782 101.93 38.2789C101.93 36.7796 100.355 36.1479 97.9789 36.1479C95.603 36.1479 94.0527 36.7964 94.0527 38.2789C94.0527 39.7613 95.6114 40.4268 97.9789 40.4268Z" fill="#2A3089"/>
<path d="M107.324 34.3014H117.911V35.8502H120.089V34H123V44.7163H120.089V41.7191H118.902V43.7367C118.261 44.0549 117.263 44.1637 116.52 44.1637H107V42.0037H108.725V37.2484H111.636V42.0037H113.463C113.625 41.4177 113.685 40.7982 113.685 40.187V37.2484H116.597V40.1116C116.597 40.773 116.494 41.4428 116.306 42.0037H116.554C117.271 42.0037 118.048 41.9451 118.603 41.7191H117.681V39.5256H120.08V38.0521H117.724V36.4195H107.324V34.3014ZM116.264 44.8335C120.302 44.8335 122.787 45.9386 122.787 48.4167C122.787 50.8949 120.302 52 116.264 52C112.225 52 109.758 50.8949 109.758 48.4167C109.758 45.9386 112.2 44.8335 116.264 44.8335ZM116.264 50.0158C118.56 50.0158 119.875 49.5721 119.875 48.4251C119.875 47.2781 118.56 46.8344 116.264 46.8344C113.967 46.8344 112.669 47.2781 112.669 48.4251C112.669 49.5721 113.958 50.0158 116.264 50.0158Z" fill="#2A3089"/>
<path d="M35.403 59C38.793 59 40.8061 61.0236 40.8061 63.6679C40.8061 66.3122 38.793 68.3358 35.403 68.3358C32.0131 68.3358 30 66.3122 30 63.6679C30 61.0236 32.0305 59 35.403 59ZM46 77H34.8366C33.329 77 32.5708 76.2858 32.5708 74.8488V71.9665H42.6885V71.1502H32.5708V69.0841H45.8257V74.0326H35.7081V74.5002C35.7081 74.8658 35.7952 74.9339 36.1089 74.9339H45.9913V77H46ZM35.403 66.2187C36.9107 66.2187 37.939 65.1729 37.939 63.6594C37.939 62.1459 36.9107 61.1257 35.403 61.1257C33.8954 61.1257 32.8497 62.1459 32.8497 63.6594C32.8497 65.1729 33.9216 66.2187 35.403 66.2187ZM45.8344 68.3699H42.8627V59.2211H45.8344V68.3699Z" fill="#2A3089"/>
<path d="M47.0751 59.4218H57.6012V61.7461H53.5607V64.4835C53.5607 67.7547 55.5376 71.1722 58.2254 73.1435L56.2919 74.8652C55.1041 73.9957 52.8497 71.5509 52.1647 69.726C51.3064 72.0674 49.2688 74.2798 47.8728 75.2353L46 73.5395C48.9827 71.4218 50.5607 68.2539 50.5607 64.5696V61.7547H47.0838V59.4304L47.0751 59.4218ZM62.0405 65.3013H64V67.7633H62.0405V77H59.0838V59H62.0405V65.2927V65.3013Z" fill="#2A3089"/>
<path d="M80 76.9914H77.0227V74.5466C76.5425 75.0201 75.39 75.3988 74.0454 75.3988H67.9162C66.0914 75.3988 65 74.4864 65 72.4376V65.7059H71.7753V61.7461H65V59.4046H74.84V68.0215H68.0821V72.188C68.0821 72.9541 68.3091 73.1004 68.9202 73.1004H74.3161C76.3766 73.1004 77.0227 72.1277 77.0227 71.1549V59H80V77V76.9914Z" fill="#2A3089"/>
<path d="M84.982 61.7891H89.2058V59.3013H92.1878V69.0373H84.3086C82.4984 69.0373 82 68.2884 82 66.6528V59.3013H84.982V61.7891ZM83.8102 70.5954H97.0324V77H93.9892V72.9197H83.8189V70.5954H83.8102ZM89.2058 66.825V64.01H84.982V66.0416C84.982 66.6872 85.1044 66.825 85.7166 66.825H89.2058ZM97.0237 62.7446H99V65.2066H97.0237V69.726H94.0417V59H97.0237V62.7532V62.7446Z" fill="#2A3089"/>
<path d="M100 59.31H109.612V65.1579H102.948V65.9416C102.948 66.7081 103.048 66.7684 103.631 66.7684H108.979C110.903 66.7684 111.277 65.8986 111.277 64.822V59H114.118V62.4622H116V64.9254H114.118V69.4814H111.277V68.2412C110.836 68.801 109.653 68.9904 108.795 68.9904H102.49C100.85 68.9904 100.008 68.2842 100.008 66.2344V62.9359H106.672V61.5234H100.008V59.3014L100 59.31ZM101.641 70.2048H114.109V77H103.923C102.382 77 101.641 76.1474 101.641 74.5713V70.1962V70.2048ZM111.269 74.7866V72.4268H104.481V74.0201C104.481 74.666 104.581 74.7866 105.164 74.7866H111.269Z" fill="#2A3089"/>
<path d="M121.916 63.2437C125.245 63.2437 127.114 64.9244 127.114 67.2101C127.114 69.1093 125.808 70.605 123.455 71.0504V72.8739H126.37C128.402 72.8739 129.051 71.9244 129.051 70.9748V59.4286H132V77H129.051V74.3109C128.575 74.7731 127.434 75.1429 126.102 75.1429H116V72.8824H120.471V71.084C118.058 70.6555 116.796 69.1597 116.796 67.2185C116.796 64.9328 118.586 63.2521 121.933 63.2521L121.916 63.2437ZM116.242 60.6387H120.376V59H123.455V60.6387H127.468V62.8235H116.242V60.6387ZM121.916 69.2101C123.412 69.2101 124.285 68.3614 124.285 67.2101C124.285 66.0588 123.412 65.2101 121.916 65.2101C120.419 65.2101 119.589 66.0756 119.589 67.2101C119.589 68.3445 120.419 69.2101 121.916 69.2101Z" fill="#2A3089"/>
<path d="M17.0491 106.201L21.594 101.491C22.8937 100.101 23.564 99.2837 23.564 98.1192C23.564 96.833 22.6158 96.0248 21.3651 96.0248C20.0409 96.0248 19.1908 96.9112 19.1989 98.3104H17C16.9919 95.6946 18.8229 94 21.3897 94C23.9564 94 25.7875 95.6859 25.7956 98.0062C25.7875 99.5618 25.0926 100.822 22.5668 103.385L20.278 105.827V105.923H26V108H17.0654V106.21L17.0491 106.201Z" fill="black"/>
<path d="M28 101C27.9917 96.5564 29.8792 94 33 94C36.1209 94 38 96.5564 38 101C38 105.444 36.1291 108 33 108C29.8709 108 27.9917 105.461 28 101ZM33 105.95C34.6308 105.941 35.6407 104.277 35.6407 101C35.6325 97.7488 34.6225 96.0417 33 96.0331C31.3692 96.0417 30.3676 97.7574 30.3593 101C30.3593 104.277 31.3692 105.941 33 105.95Z" fill="black"/>
<path d="M40.0491 106.201L44.5982 101.491C45.8991 100.101 46.57 99.2837 46.57 98.1192C46.57 96.833 45.6209 96.0248 44.3691 96.0248C43.0437 96.0248 42.1927 96.9112 42.2009 98.3104H40C39.9918 95.6946 41.8246 94 44.3936 94C46.9627 94 48.7955 95.6859 48.8036 98.0062C48.7955 99.5618 48.1 100.822 45.5636 103.385L43.2727 105.827V105.923H49V108H40.0573V106.21L40.0491 106.201Z" fill="black"/>
<path d="M50 103.374L56.042 94H59.1696V103.322H61V105.392H59.1696V108H56.7795V105.392H50V103.383V103.374ZM56.815 103.313V96.8546H56.664L52.5679 103.216V103.313H56.815Z" fill="black"/>
<path d="M62.0003 106.491C61.9914 105.679 62.6788 105.009 63.5091 105C64.3126 105.009 65 105.679 65 106.491C65 107.303 64.3126 108 63.5091 108C62.7056 108 61.9825 107.321 62.0003 106.491Z" fill="black"/>
<path d="M71 107.991H68.413V96.4493H68.3313L65 98.5374V96.2379L68.531 94H71V108V107.991Z" fill="black"/>
<path d="M73 101C72.9917 96.5564 74.8792 94 78 94C81.1209 94 83 96.5564 83 101C83 105.444 81.1292 108 78 108C74.8709 108 72.9917 105.461 73 101ZM78 105.95C79.6308 105.941 80.6408 104.277 80.6408 101C80.6325 97.7488 79.6225 96.0417 78 96.0331C76.3692 96.0417 75.3676 97.7574 75.3593 101C75.3593 104.277 76.3692 105.941 78 105.95Z" fill="black"/>
<path d="M85.0003 106.491C84.9914 105.679 85.6788 105.009 86.5091 105C87.3126 105.009 88 105.679 88 106.491C88 107.303 87.3126 108 86.5091 108C85.7056 108 84.9825 107.321 85.0003 106.491Z" fill="black"/>
<path d="M90.0491 106.201L94.5982 101.491C95.8991 100.101 96.57 99.2837 96.57 98.1192C96.57 96.833 95.6209 96.0248 94.3691 96.0248C93.0437 96.0248 92.1927 96.9112 92.2009 98.3104H90C89.9918 95.6946 91.8246 94 94.3936 94C96.9627 94 98.7955 95.6859 98.8036 98.0062C98.7955 99.5618 98.1 100.822 95.5636 103.385L93.2727 105.827V105.923H99V108H90.0573V106.21L90.0491 106.201Z" fill="black"/>
<path d="M100 103.374L106.042 94H109.17V103.322H111V105.392H109.17V108H106.779V105.392H100V103.383V103.374ZM106.815 103.313V96.8546H106.664L102.568 103.216V103.313H106.815Z" fill="black"/>
<path d="M112 106.491C111.991 105.679 112.677 105.009 113.513 105C114.315 105.009 115 105.679 115 106.491C115 107.303 114.315 108 113.513 108C112.712 108 111.991 107.321 112 106.491Z" fill="black"/>
<path d="M119.777 93H122C120.722 94.9686 119.445 98.942 119.445 102.491C119.445 106.04 120.722 110.022 122 112H119.777C118.039 109.327 117 106.221 117 102.491C117 98.7614 118.039 95.6549 119.777 93Z" fill="black"/>
<path d="M136.089 99.155H131.497V101.013H138V102.773H123V101.013H129.461V99.155H124.894V93H136.089V99.155ZM124.651 104.274H136.156V110H134.137V105.998H124.651V104.274ZM134.087 97.4309V94.7063H126.855V97.4309H134.087Z" fill="black"/>
<path d="M141.223 112H139C140.278 110.022 141.555 106.04 141.555 102.491C141.555 98.942 140.278 94.9686 139 93H141.223C142.961 95.6549 144 98.7704 144 102.491C144 106.212 142.961 109.327 141.223 112Z" fill="black"/>
<path d="M41.5102 126C42.3163 126 43 126.517 43 127.169C43 127.822 42.3265 128.347 41.5102 128.339C40.6939 128.347 40.0102 127.822 40 127.169C40.0102 126.517 40.6837 126 41.5102 126ZM40.3061 129.907H42.6735V140H40.3061V129.907Z" fill="black"/>
<path d="M45.8885 140H44V130.133H45.8156V131.748H45.921C46.3668 130.688 47.3151 130 48.7416 130C50.7031 130 52.0081 131.284 52 133.728V140H50.1357V133.96C50.1276 132.527 49.3819 131.674 48.1094 131.674C46.8369 131.674 45.8885 132.577 45.8885 134.142V140Z" fill="black"/>
<path d="M74 135.708H59V134.271H74V135.708ZM66.4873 126C70.0451 125.991 72.3521 127.257 72.3606 129.382C72.3521 131.517 70.0451 132.808 66.4873 132.817C62.9042 132.808 60.6056 131.517 60.6141 129.382C60.6056 127.257 62.9127 125.991 66.4873 126ZM60.8929 137.086H62.6591V140.545H72.3183V142H60.8929V137.094V137.086ZM66.4873 131.345C69.0056 131.345 70.569 130.639 70.5606 129.382C70.569 128.178 68.9972 127.437 66.4873 127.437C63.9775 127.437 62.4056 128.178 62.4141 129.382C62.4056 130.639 63.969 131.345 66.4873 131.345Z" fill="black"/>
<path d="M84.362 127.696H82.7529V132.854C83.4671 132.793 84.1469 132.733 84.8095 132.646L84.8869 134.016C81.6601 134.527 77.8998 134.588 75.2237 134.588L75 133.088C75.6282 133.088 76.3165 133.088 77.0393 133.079V127.705H75.4647V126.24H84.362V127.705V127.696ZM83.3381 135.801C86.8746 135.801 88.9914 136.937 89 138.922C88.9914 140.873 86.866 142.017 83.3381 142C79.7929 142.008 77.6675 140.864 77.6761 138.922C77.6675 136.937 79.8015 135.801 83.3381 135.801ZM81.0578 132.958V127.696H78.7603V133.045C79.5175 133.027 80.2834 133.001 81.0578 132.958ZM83.3381 140.613C85.799 140.604 87.236 139.997 87.2446 138.922C87.236 137.821 85.799 137.197 83.3381 137.215C80.8599 137.206 79.4229 137.821 79.4315 138.922C79.4229 139.997 80.8599 140.604 83.3381 140.613ZM84.6116 131.068H87.1758V129.412H84.6116V127.965H87.1758V125H88.9484V135.481H87.1758V132.516H84.6116V131.068Z" fill="black"/>
<path d="M104.091 127.5C104.091 129.122 104.091 130.874 103.635 133.302H106V134.785H99.3361V142H97.5709V134.785H91V133.302H101.861C102.351 130.865 102.351 129.087 102.36 127.5V127.483H92.8328V126H104.083V127.5H104.091Z" fill="black"/>
<path d="M117.026 133.276L116.185 134.674C114.245 134.113 112.785 132.905 112.021 131.334C111.292 133.086 109.841 134.475 107.841 135.114L107 133.733C109.541 132.913 111.103 130.885 111.103 128.693V128.486H107.464V127.045H111.103V125H112.871V127.045H116.494V128.486H112.854V128.693C112.854 130.695 114.468 132.559 117.017 133.276H117.026ZM115.352 135.735C118.846 135.744 120.991 136.874 121 138.859C120.991 140.861 118.846 142.009 115.352 142C111.85 142.009 109.695 140.852 109.704 138.859C109.695 136.874 111.85 135.744 115.352 135.735ZM115.352 140.619C117.807 140.611 119.24 139.955 119.249 138.859C119.24 137.763 117.807 137.133 115.352 137.133C112.897 137.133 111.446 137.754 111.455 138.859C111.446 139.955 112.897 140.611 115.352 140.619ZM115.987 129.832H119.18V125.078H120.948V135.355H119.18V131.299H115.987V129.824V129.832Z" fill="black"/>
<path d="M42 160.209H43.9168C44.0238 161.383 45.0768 162.243 46.3848 162.252C47.9561 162.243 49.0832 161.035 49.0832 159.391C49.0832 157.748 47.9232 156.496 46.2943 156.47C45.2578 156.47 44.4598 156.843 44.0238 157.687H42.1645L43.0037 150H50.3336V151.791H44.6325L44.2047 155.661H44.3282C44.8629 155.104 45.7761 154.739 46.7633 154.722C49.2066 154.73 51 156.661 51 159.322C51 161.983 49.0832 164 46.3848 164C43.9333 164 42.0987 162.409 42.0082 160.2L42 160.209Z" fill="black"/>
<path d="M68 158.053H53V156.574H68V158.053ZM59.5239 151.08H54.5127V149.635H59.6338V148H61.3577V149.635H66.4958V151.08H61.4676C61.662 152.724 63.9268 153.952 67.1972 154.229L66.6648 155.613C63.8169 155.336 61.5183 154.35 60.4958 152.767C59.4648 154.35 57.1746 155.336 54.3437 155.613L53.7944 154.229C57.0563 153.952 59.3127 152.724 59.5239 151.08ZM60.4958 159.325C64.0789 159.325 66.1577 160.328 66.1662 162.171C66.1577 164.014 64.0704 165.009 60.4958 165C56.8958 165.009 54.7831 164.014 54.7831 162.171C54.7831 160.328 56.8958 159.325 60.4958 159.325ZM60.4958 163.633C63.0056 163.65 64.4253 163.14 64.4253 162.171C64.4253 161.202 63.0056 160.674 60.4958 160.674C57.9859 160.674 56.5408 161.202 56.5493 162.171C56.5408 163.14 57.9521 163.65 60.4958 163.633Z" fill="black"/>
<path d="M88 158.708H73V157.271H88V158.708ZM80.4873 149C84.0535 148.991 86.3521 150.257 86.3606 152.383C86.3521 154.517 84.0451 155.808 80.4873 155.817C76.9042 155.808 74.6056 154.517 74.6141 152.383C74.6056 150.257 76.9127 148.991 80.4873 149ZM74.8929 160.086H76.6591V163.545H86.3183V165H74.9014V160.086H74.8929ZM80.4873 154.345C83.0056 154.345 84.569 153.639 84.5606 152.383C84.569 151.178 82.9972 150.437 80.4873 150.437C77.9775 150.437 76.4056 151.178 76.4141 152.383C76.4056 153.639 77.969 154.345 80.4873 154.345Z" fill="black"/>
<path d="M98.362 150.705H96.7529V155.863C97.4671 155.802 98.1469 155.741 98.8095 155.655L98.8869 157.024C95.6601 157.536 91.8998 157.597 89.2237 157.597L89 156.097C89.6281 156.097 90.3166 156.097 91.0394 156.088V150.713H89.4647V149.248H98.362V150.713V150.705ZM97.338 158.802C100.875 158.802 102.991 159.937 103 161.922C102.991 163.873 100.866 165.017 97.338 165C93.7929 165.008 91.6675 163.864 91.6761 161.922C91.6675 159.937 93.8015 158.802 97.338 158.802ZM95.0578 155.958V150.696H92.7603V156.045C93.5175 156.027 94.2833 156.001 95.0578 155.958ZM97.338 163.621C99.799 163.613 101.236 163.006 101.245 161.931C101.236 160.83 99.799 160.206 97.338 160.223C94.8599 160.215 93.4229 160.83 93.4315 161.931C93.4229 163.006 94.8599 163.613 97.338 163.621ZM98.6116 154.068H101.176V152.413H98.6116V150.965H101.176V148H102.948V158.481H101.176V155.516H98.6116V154.068Z" fill="black"/>
<path d="M105 156.655H111.625V155.596C108.642 155.484 107.079 154.795 107.087 153.443C107.079 151.97 108.938 151.281 112.487 151.273C116.011 151.281 117.896 151.97 117.887 153.443C117.896 154.786 116.324 155.484 113.375 155.596V156.655H120V157.955H105V156.655ZM119.155 150.661H105.769V149.361H111.625V148H113.366V149.361H119.146V150.661H119.155ZM106.8 158.937H118.107V162.511H108.575V163.7H118.563V165H106.808V161.28H116.324V160.203H106.792V158.937H106.8ZM112.487 154.442C114.879 154.442 116.045 154.097 116.07 153.443C116.054 152.788 114.887 152.461 112.487 152.461C110.087 152.461 108.93 152.788 108.946 153.443C108.938 154.106 110.079 154.442 112.487 154.442Z" fill="black"/>
</svg>
