<svg width="276" height="46" viewBox="0 0 276 46" fill="none" xmlns="http://www.w3.org/2000/svg">
<path d="M4.51961 38.5485L15.9658 23.6083C17.2985 21.8832 18.1514 20.4681 18.5293 19.3633C18.9073 18.2584 19.0963 16.2376 19.0963 13.3009C19.0963 10.9991 18.9073 9.52591 18.5293 8.87171C18.1514 8.22234 17.4632 7.89766 16.465 7.89766C15.3746 7.89766 14.6622 8.16419 14.3327 8.6924C13.9983 9.22061 13.8336 10.151 13.8336 11.4837V15.2539C13.8336 15.9226 13.7367 16.3491 13.538 16.5477C13.3393 16.7464 12.9419 16.8433 12.3362 16.8433H4.06893C3.52618 16.8433 3.18211 16.7464 3.04643 16.5477C2.91074 16.3491 2.8429 15.8742 2.8429 15.1182C2.8429 13.0586 3.19181 11.2753 3.88963 9.75851C4.58745 8.24657 5.54695 7.06415 6.77299 6.2161C7.99902 5.36806 9.3559 4.75747 10.8388 4.37948C12.3216 4.00149 13.9547 3.8125 15.7429 3.8125H17.061C18.3646 3.8125 19.5906 3.89004 20.7391 4.04026C21.8876 4.19049 23.0797 4.48125 24.3058 4.90285C25.5318 5.32929 26.5834 5.89627 27.4605 6.60378C28.3376 7.31614 29.0548 8.27565 29.6169 9.48714C30.1791 10.6986 30.4553 12.1088 30.4553 13.7128V16.7997C30.4553 18.8593 30.1694 20.5699 29.5927 21.9316C29.016 23.2933 27.9742 25.004 26.4574 27.0635L16.557 39.3239H29.7284C30.1209 39.3239 30.3875 39.382 30.5231 39.508C30.6588 39.6292 30.7267 39.8424 30.7267 40.1428V42.4592C30.7267 42.8517 30.6491 43.1086 30.4989 43.2297C30.3487 43.3509 30.0919 43.4139 29.7284 43.4139H4.79583C4.19008 43.4139 3.88963 43.0504 3.88963 42.3235V40.7777C3.88963 39.8085 4.10285 39.067 4.52445 38.5533L4.51961 38.5485Z" fill="#FBDED3"/>
<path d="M36.1978 39.3428C34.2449 36.1493 33.2709 30.9641 33.2709 23.7872C33.2709 16.6103 34.2401 11.4784 36.1785 8.39155C38.1169 5.30466 41.6593 3.75879 46.8057 3.75879C51.9521 3.75879 55.6012 5.31919 57.6607 8.43516C59.7202 11.556 60.7476 16.6733 60.7476 23.7872C60.7476 30.9011 59.7106 36.0718 57.6365 39.2944C55.5624 42.517 51.9521 44.1307 46.8057 44.1307C41.6593 44.1307 38.1556 42.5315 36.2027 39.338L36.1978 39.3428ZM44.8964 9.84534V38.0005C44.8964 38.8195 45.2647 39.401 46.011 39.7499C46.7524 40.0988 47.489 40.0988 48.2159 39.7499C48.9428 39.401 49.3062 38.8195 49.3062 38.0005V9.84534C49.3062 9.02637 48.9428 8.44485 48.2159 8.09594C47.489 7.74703 46.7524 7.74703 46.011 8.09594C45.2695 8.44485 44.8964 9.02637 44.8964 9.84534Z" fill="#FBDED3"/>
<path d="M65.2397 38.5485L76.6859 23.6083C78.0186 21.8832 78.8715 20.4681 79.2494 19.3633C79.6274 18.2584 79.8164 16.2376 79.8164 13.3009C79.8164 10.9991 79.6274 9.52591 79.2494 8.87171C78.8715 8.22234 78.1833 7.89766 77.185 7.89766C76.0947 7.89766 75.3823 8.16419 75.0528 8.6924C74.7184 9.22061 74.5537 10.151 74.5537 11.4837V15.2539C74.5537 15.9226 74.4568 16.3491 74.2581 16.5477C74.0594 16.7464 73.662 16.8433 73.0563 16.8433H64.789C64.2463 16.8433 63.9022 16.7464 63.7665 16.5477C63.6308 16.3491 63.563 15.8742 63.563 15.1182C63.563 13.0586 63.9119 11.2753 64.6097 9.75851C65.3075 8.24657 66.267 7.06415 67.4931 6.2161C68.7191 5.36806 70.076 4.75747 71.5589 4.37948C73.0417 4.00149 74.6748 3.8125 76.463 3.8125H77.7811C79.0847 3.8125 80.3107 3.89004 81.4592 4.04026C82.6077 4.19049 83.7998 4.48125 85.0258 4.90285C86.2519 5.32929 87.3035 5.89627 88.1806 6.60378C89.0577 7.31614 89.7749 8.27565 90.337 9.48714C90.8992 10.6986 91.1754 12.1088 91.1754 13.7128V16.7997C91.1754 18.8593 90.8895 20.5699 90.3128 21.9316C89.7361 23.2933 88.6943 25.004 87.1775 27.0635L77.2771 39.3239H90.4485C90.841 39.3239 91.1076 39.382 91.2432 39.508C91.3789 39.6292 91.4468 39.8424 91.4468 40.1428V42.4592C91.4468 42.8517 91.3692 43.1086 91.219 43.2297C91.0688 43.3509 90.812 43.4139 90.4485 43.4139H65.5159C64.9102 43.4139 64.6097 43.0504 64.6097 42.3235V40.7777C64.6097 39.8085 64.8229 39.067 65.2445 38.5533L65.2397 38.5485Z" fill="#FBDED3"/>
<path d="M109.886 35.8682H95.3963C94.8826 35.8682 94.524 35.7762 94.3302 35.5969C94.1315 35.4127 94.0345 35.0057 94.0345 34.3708V32.917C94.0345 31.8267 94.2914 30.872 94.8051 30.0579L107.429 7.07825C107.7 6.5355 107.928 6.12359 108.112 5.85222C108.291 5.58084 108.602 5.32401 109.043 5.08171C109.479 4.83941 110.017 4.71826 110.656 4.71826H118.061C119.272 4.71826 120.004 4.83941 120.266 5.08171C120.523 5.32401 120.654 6.03637 120.654 7.21879V31.3324H124.104C124.467 31.3324 124.734 31.3469 124.899 31.376C125.063 31.4051 125.199 31.4972 125.306 31.6474C125.412 31.7976 125.466 32.0399 125.466 32.3743V34.555C125.466 35.0977 125.369 35.4563 125.17 35.6211C124.971 35.7859 124.618 35.8731 124.104 35.8731H120.654V41.0971C120.654 42.0953 120.523 42.7301 120.266 43.0064C120.009 43.2777 119.335 43.4134 118.245 43.4134H112.251C111.131 43.4134 110.458 43.2777 110.23 43.0064C110.002 42.735 109.891 42.1002 109.891 41.0971V35.8731L109.886 35.8682ZM109.886 31.3276V13.2956L100.62 31.3276H109.886Z" fill="#FBDED3"/>
<path d="M185.139 19.3825H182.643V34.279C182.643 34.8848 182.532 35.3452 182.304 35.665C182.076 35.9848 181.616 36.1399 180.918 36.1399H173.47C172.772 36.1399 172.312 35.98 172.084 35.665C171.856 35.3452 171.745 34.8848 171.745 34.279V27.0101C168.387 28.1925 163.889 28.7837 158.258 28.7837H142.456C141.879 28.7837 141.486 28.5414 141.273 28.0568L140.275 25.784C139.975 25.0571 140.168 24.6937 140.866 24.6937H146.633V16.063C146.633 15.4863 146.744 15.0696 146.972 14.8127C147.2 14.5559 147.66 14.4251 148.358 14.4251H155.123C155.821 14.4251 156.281 14.5607 156.509 14.8321C156.737 15.1035 156.848 15.5299 156.848 16.1018V24.684H158.346C163.763 24.684 168.231 24.0492 171.745 22.7747V5.88159C171.745 5.30492 171.856 4.88817 172.084 4.63133C172.312 4.3745 172.772 4.24365 173.47 4.24365H180.918C181.616 4.24365 182.076 4.37934 182.304 4.65071C182.532 4.92209 182.643 5.34853 182.643 5.92036V14.8224H185.139C185.866 14.8224 186.229 15.1713 186.229 15.8692V18.2292C186.229 18.9851 185.866 19.3631 185.139 19.3631V19.3825ZM165.518 21.7909H159.16C158.491 21.7909 158.069 21.6068 157.89 21.2482C157.711 20.8896 157.691 20.342 157.847 19.6151C158.268 17.4344 158.481 15.0453 158.481 12.4382V8.66803H144.132C143.556 8.66803 143.163 8.42573 142.95 7.94113L141.952 5.66837C141.646 4.94147 141.845 4.57803 142.543 4.57803H167.975C168.672 4.57803 169.133 4.71371 169.361 4.98509C169.588 5.25646 169.7 5.68291 169.7 6.25473V11.9294C169.7 13.3832 169.569 14.8951 169.312 16.4701C169.055 18.045 168.745 19.2129 168.382 19.9689C167.805 21.1804 166.85 21.7861 165.523 21.7861L165.518 21.7909ZM182.096 44.7706H146.037C145.339 44.7706 144.879 44.6107 144.651 44.2957C144.423 43.9759 144.312 43.5155 144.312 42.9097V34.691L143.406 32.646C143.1 31.89 143.284 31.512 143.948 31.512H155.302C156 31.512 156.461 31.6477 156.688 31.9191C156.916 32.1904 157.028 32.6169 157.028 33.1887V40.6806H182.096C182.488 40.6806 182.755 40.7387 182.891 40.8647C183.026 40.9859 183.094 41.1991 183.094 41.4996V43.8159C183.094 44.2085 183.017 44.4653 182.866 44.5865C182.716 44.7076 182.459 44.7706 182.096 44.7706Z" fill="#FBDED3"/>
<path d="M190.13 25.8518C188.013 23.5984 186.951 20.3516 186.951 16.1114C186.951 11.8711 188.003 8.63887 190.106 6.41457C192.209 4.19026 195.805 3.07568 200.893 3.07568C205.982 3.07568 209.679 4.1951 211.908 6.43395C214.133 8.67279 215.247 11.9002 215.247 16.1065C215.247 20.3128 214.128 23.516 211.884 25.8033C209.645 28.0906 205.982 29.2343 200.893 29.2343C195.805 29.2343 192.248 28.1052 190.13 25.8518ZM215.974 35.4129H190.358C189.782 35.4129 189.389 35.1706 189.176 34.686L188.178 32.4133C187.872 31.6864 188.071 31.3229 188.769 31.3229H226.281C226.979 31.3229 227.44 31.4586 227.667 31.73C227.895 32.0014 228.007 32.4278 228.007 32.9996V43.3555C228.007 43.9612 227.895 44.4216 227.667 44.7414C227.44 45.0613 226.979 45.2163 226.281 45.2163H217.699C217.001 45.2163 216.541 45.0564 216.313 44.7414C216.086 44.4216 215.974 43.9612 215.974 43.3555V35.4081V35.4129ZM198.582 8.93447V23.3319C198.582 24.1509 199.023 24.7324 199.9 25.0813C200.777 25.4302 201.654 25.4302 202.536 25.0813C203.413 24.7324 203.854 24.1509 203.854 23.3319V8.93447C203.854 8.1155 203.413 7.53399 202.536 7.18507C201.659 6.83616 200.782 6.83616 199.9 7.18507C199.023 7.53399 198.582 8.1155 198.582 8.93447ZM230.507 18.8833H228.011V27.829C228.011 28.4347 227.9 28.8951 227.672 29.2149C227.445 29.5347 226.984 29.6898 226.286 29.6898H218.61C217.912 29.6898 217.452 29.5299 217.224 29.2149C216.997 28.8951 216.885 28.4347 216.885 27.829V5.89604C216.885 5.31937 216.997 4.90262 217.224 4.64578C217.452 4.38895 217.912 4.2581 218.61 4.2581H226.286C226.984 4.2581 227.445 4.39379 227.672 4.66517C227.9 4.93654 228.011 5.36298 228.011 5.93481V14.3377H230.507C231.234 14.3377 231.598 14.6867 231.598 15.3845V17.7445C231.598 18.5004 231.234 18.8784 230.507 18.8784V18.8833Z" fill="#FBDED3"/>
<path d="M274.877 29.4183H260.523V43.3602C260.523 43.966 260.412 44.4263 260.184 44.7462C259.956 45.066 259.496 45.2211 258.798 45.2211H249.305C248.607 45.2211 248.147 45.0612 247.919 44.7462C247.691 44.4263 247.58 43.966 247.58 43.3602V29.4183H234.18C233.604 29.4183 233.211 29.176 232.998 28.6914L232 26.4187C231.699 25.6918 231.893 25.3283 232.591 25.3283H258.657C259.506 22.2124 259.927 18.8056 259.927 15.1081V8.88591H236.54C235.964 8.88591 235.571 8.64361 235.358 8.15901L234.36 5.88624C234.054 5.15935 234.253 4.7959 234.951 4.7959H270.782C271.48 4.7959 271.94 4.93158 272.168 5.20296C272.396 5.47433 272.507 5.90078 272.507 6.4726V14.9192C272.507 18.7959 271.824 22.2608 270.462 25.3186H274.867C275.26 25.3186 275.526 25.3816 275.662 25.5028C275.798 25.6239 275.866 25.8371 275.866 26.1376V28.454C275.866 28.8465 275.788 29.1033 275.638 29.2245C275.488 29.3456 275.231 29.4086 274.867 29.4086L274.877 29.4183Z" fill="#FBDED3"/>
<path d="M1.72831 35.757L13.1745 20.8168C14.5072 19.0917 15.3601 17.6766 15.738 16.5718C16.116 15.4669 16.305 13.4461 16.305 10.5094C16.305 8.20759 16.116 6.73441 15.738 6.0802C15.3601 5.43084 14.6719 5.10616 13.6737 5.10616C12.5833 5.10616 11.8709 5.37269 11.5414 5.9009C11.2071 6.42912 11.0423 7.35954 11.0423 8.69219V12.4624C11.0423 13.1311 10.9454 13.5576 10.7467 13.7562C10.548 13.9549 10.1506 14.0518 9.54488 14.0518H1.27279C0.730036 14.0518 0.385972 13.9549 0.250284 13.7562C0.114597 13.5576 0.0467529 13.0826 0.0467529 12.3267C0.0467529 10.2671 0.395664 8.48381 1.09349 6.96702C1.79131 5.45507 2.75081 4.27265 3.97685 3.42461C5.20288 2.57656 6.55975 1.96596 8.04262 1.58798C9.52549 1.20999 11.1586 1.021 12.9468 1.021H14.2649C15.5684 1.021 16.7945 1.09853 17.943 1.24876C19.0915 1.39898 20.2836 1.68974 21.5096 2.11134C22.7356 2.53779 23.7872 3.10477 24.6643 3.81229C25.5415 4.52465 26.2587 5.48415 26.8208 6.69564C27.3829 7.90714 27.6592 9.31732 27.6592 10.9213V14.0082C27.6592 16.0678 27.3732 17.7784 26.7966 19.1401C26.2199 20.5018 25.178 22.2125 23.6612 24.272L13.7609 36.5324H26.9323C27.3248 36.5324 27.5913 36.5905 27.727 36.7165C27.8627 36.8377 27.9305 37.0509 27.9305 37.3513V39.6677C27.9305 40.0602 27.853 40.3171 27.7028 40.4382C27.5525 40.5594 27.2957 40.6224 26.9323 40.6224H1.99968C1.39394 40.6224 1.09349 40.2589 1.09349 39.532V37.9861C1.09349 37.017 1.30671 36.2755 1.72831 35.7618V35.757Z" fill="#F18900"/>
<path d="M33.4065 36.5513C31.4535 33.3578 30.4795 28.1726 30.4795 20.9957C30.4795 13.8188 31.4487 8.68694 33.3871 5.60005C35.3255 2.51316 38.8679 0.967285 44.0143 0.967285C49.1608 0.967285 52.8098 2.5277 54.8693 5.64366C56.9289 8.76447 57.9562 13.8818 57.9562 20.9957C57.9562 28.1096 56.9192 33.2803 54.8451 36.5029C52.771 39.7255 49.1608 41.3392 44.0143 41.3392C38.8679 41.3392 35.3642 39.74 33.4113 36.5465L33.4065 36.5513ZM42.105 7.05384V35.209C42.105 36.028 42.4733 36.6095 43.2196 36.9584C43.961 37.3073 44.6976 37.3073 45.4245 36.9584C46.1514 36.6095 46.5149 36.028 46.5149 35.209V7.05384C46.5149 6.23487 46.1514 5.65336 45.4245 5.30445C44.6976 4.95553 43.961 4.95553 43.2196 5.30445C42.4781 5.65336 42.105 6.23487 42.105 7.05384Z" fill="#F18900"/>
<path d="M62.4484 35.757L73.8947 20.8168C75.2273 19.0917 76.0802 17.6766 76.4582 16.5718C76.8362 15.4669 77.0252 13.4461 77.0252 10.5094C77.0252 8.20759 76.8362 6.73441 76.4582 6.0802C76.0802 5.43084 75.3921 5.10616 74.3938 5.10616C73.3034 5.10616 72.5911 5.37269 72.2615 5.9009C71.9272 6.42912 71.7624 7.35954 71.7624 8.69219V12.4624C71.7624 13.1311 71.6655 13.5576 71.4668 13.7562C71.2681 13.9549 70.8708 14.0518 70.265 14.0518H61.9978C61.455 14.0518 61.1109 13.9549 60.9753 13.7562C60.8396 13.5576 60.7717 13.0826 60.7717 12.3267C60.7717 10.2671 61.1206 8.48381 61.8185 6.96702C62.5163 5.45507 63.4758 4.27265 64.7018 3.42461C65.9279 2.57656 67.2847 1.96596 68.7676 1.58798C70.2505 1.20999 71.8836 1.021 73.6717 1.021H74.9898C76.2934 1.021 77.5194 1.09853 78.6679 1.24876C79.8164 1.39898 81.0085 1.68974 82.2346 2.11134C83.4606 2.53779 84.5122 3.10477 85.3893 3.81229C86.2664 4.52465 86.9837 5.48415 87.5458 6.69564C88.1079 7.90714 88.3841 9.31732 88.3841 10.9213V14.0082C88.3841 16.0678 88.0982 17.7784 87.5216 19.1401C86.9449 20.5018 85.903 22.2125 84.3862 24.272L74.4859 36.5324H87.6572C88.0498 36.5324 88.3163 36.5905 88.452 36.7165C88.5877 36.8377 88.6555 37.0509 88.6555 37.3513V39.6677C88.6555 40.0602 88.578 40.3171 88.4277 40.4382C88.2775 40.5594 88.0207 40.6224 87.6572 40.6224H62.7247C62.1189 40.6224 61.8185 40.2589 61.8185 39.532V37.9861C61.8185 37.017 62.0317 36.2755 62.4533 35.7618L62.4484 35.757Z" fill="#F18900"/>
<path d="M107.09 33.0767H92.6001C92.0864 33.0767 91.7278 32.9847 91.534 32.8054C91.3353 32.6212 91.2384 32.2141 91.2384 31.5793V30.1255C91.2384 29.0352 91.4952 28.0805 92.0089 27.2664L104.633 4.28675C104.904 3.744 105.132 3.33209 105.316 3.06072C105.495 2.78934 105.805 2.53251 106.246 2.29021C106.683 2.04791 107.22 1.92676 107.86 1.92676H115.265C116.476 1.92676 117.208 2.04791 117.47 2.29021C117.727 2.53251 117.857 3.24486 117.857 4.42728V28.5409H121.308C121.671 28.5409 121.938 28.5554 122.102 28.5845C122.267 28.6136 122.403 28.7057 122.51 28.8559C122.616 29.0061 122.669 29.2484 122.669 29.5828V31.7635C122.669 32.3062 122.573 32.6648 122.374 32.8296C122.175 32.9943 121.821 33.0816 121.308 33.0816H117.857V38.3055C117.857 39.3038 117.727 39.9386 117.47 40.2149C117.213 40.4862 116.539 40.6219 115.449 40.6219H109.454C108.335 40.6219 107.661 40.4862 107.434 40.2149C107.206 39.9435 107.094 39.3087 107.094 38.3055V33.0816L107.09 33.0767ZM107.09 28.5312V10.4993L97.8241 28.5312H107.09Z" fill="#F18900"/>
<path d="M182.343 16.591H179.847V31.4876C179.847 32.0933 179.736 32.5537 179.508 32.8735C179.28 33.1933 178.82 33.3484 178.122 33.3484H170.674C169.976 33.3484 169.516 33.1885 169.288 32.8735C169.06 32.5537 168.949 32.0933 168.949 31.4876V24.2186C165.59 25.401 161.093 25.9922 155.462 25.9922H139.66C139.083 25.9922 138.69 25.7499 138.477 25.2653L137.479 22.9925C137.178 22.2656 137.372 21.9022 138.07 21.9022H143.837V13.2715C143.837 12.6948 143.948 12.2781 144.176 12.0212C144.404 11.7644 144.864 11.6336 145.562 11.6336H152.327C153.025 11.6336 153.485 11.7692 153.713 12.0406C153.941 12.312 154.052 12.7384 154.052 13.3103V21.8925H155.55C160.967 21.8925 165.435 21.2577 168.949 19.9832V3.09009C168.949 2.51342 169.06 2.09667 169.288 1.83983C169.516 1.58299 169.976 1.45215 170.674 1.45215H178.122C178.82 1.45215 179.28 1.58784 179.508 1.85922C179.736 2.13059 179.847 2.55704 179.847 3.12886V12.0309H182.343C183.07 12.0309 183.433 12.3798 183.433 13.0777V15.4377C183.433 16.1936 183.07 16.5716 182.343 16.5716V16.591ZM162.726 18.9946H156.368C155.7 18.9946 155.278 18.8105 155.099 18.4519C154.92 18.0933 154.9 17.5457 155.055 16.8188C155.477 14.6381 155.69 12.249 155.69 9.64186V5.87169H141.341C140.764 5.87169 140.372 5.62939 140.159 5.14479L139.16 2.87203C138.855 2.14513 139.054 1.78168 139.752 1.78168H165.183C165.881 1.78168 166.342 1.91736 166.569 2.18874C166.797 2.46011 166.909 2.88656 166.909 3.45838V9.13303C166.909 10.5868 166.778 12.0988 166.521 13.6737C166.264 15.2487 165.954 16.4165 165.59 17.1725C165.014 18.384 164.059 18.9898 162.731 18.9898L162.726 18.9946ZM179.3 41.9743H143.241C142.543 41.9743 142.083 41.8143 141.855 41.4993C141.627 41.1795 141.516 40.7191 141.516 40.1134V31.8946L140.609 29.8496C140.304 29.0936 140.488 28.7157 141.152 28.7157H152.506C153.204 28.7157 153.664 28.8513 153.892 29.1227C154.12 29.3941 154.231 29.8205 154.231 30.3924V37.8842H179.3C179.692 37.8842 179.959 37.9424 180.094 38.0684C180.23 38.1895 180.298 38.4028 180.298 38.7032V41.0196C180.298 41.4121 180.22 41.669 180.07 41.7901C179.92 41.9113 179.663 41.9743 179.3 41.9743Z" fill="#F18900"/>
<path d="M187.339 23.0603C185.221 20.8069 184.16 17.5601 184.16 13.3199C184.16 9.07963 185.212 5.84737 187.315 3.62306C189.418 1.39876 193.014 0.28418 198.102 0.28418C203.19 0.28418 206.888 1.4036 209.117 3.64244C211.341 5.88129 212.456 9.10871 212.456 13.315C212.456 17.5213 211.336 20.7245 209.093 23.0118C206.854 25.2991 203.19 26.4428 198.102 26.4428C193.014 26.4428 189.457 25.3137 187.339 23.0603ZM213.183 32.6214H187.567C186.99 32.6214 186.598 32.3791 186.384 31.8945L185.386 29.6218C185.081 28.8949 185.28 28.5314 185.977 28.5314H223.49C224.188 28.5314 224.648 28.6671 224.876 28.9385C225.104 29.2098 225.215 29.6363 225.215 30.2081V40.564C225.215 41.1697 225.104 41.6301 224.876 41.9499C224.648 42.2698 224.188 42.4248 223.49 42.4248H214.908C214.21 42.4248 213.75 42.2649 213.522 41.9499C213.294 41.6301 213.183 41.1697 213.183 40.564V32.6166V32.6214ZM195.786 6.14297V20.5404C195.786 21.3593 196.227 21.9409 197.104 22.2898C197.981 22.6387 198.858 22.6387 199.74 22.2898C200.617 21.9409 201.058 21.3593 201.058 20.5404V6.14297C201.058 5.324 200.617 4.74248 199.74 4.39357C198.863 4.04466 197.986 4.04466 197.104 4.39357C196.227 4.74248 195.786 5.324 195.786 6.14297ZM227.716 16.0918H225.22V25.0374C225.22 25.6432 225.109 26.1036 224.881 26.4234C224.653 26.7432 224.193 26.8983 223.495 26.8983H215.819C215.121 26.8983 214.661 26.7384 214.433 26.4234C214.205 26.1036 214.094 25.6432 214.094 25.0374V3.10454C214.094 2.52787 214.205 2.11111 214.433 1.85427C214.661 1.59744 215.121 1.46659 215.819 1.46659H223.495C224.193 1.46659 224.653 1.60229 224.881 1.87366C225.109 2.14504 225.22 2.57148 225.22 3.14331V11.5462H227.716C228.443 11.5462 228.806 11.8951 228.806 12.593V14.953C228.806 15.7089 228.443 16.0869 227.716 16.0869V16.0918Z" fill="#F18900"/>
<path d="M272.086 26.6268H257.732V40.5687C257.732 41.1745 257.62 41.6348 257.393 41.9547C257.165 42.2745 256.705 42.4296 256.007 42.4296H246.513C245.816 42.4296 245.355 42.2697 245.127 41.9547C244.9 41.6348 244.788 41.1745 244.788 40.5687V26.6268H231.389C230.812 26.6268 230.42 26.3845 230.207 25.8999L229.208 23.6272C228.908 22.9003 229.102 22.5368 229.8 22.5368H255.866C256.714 19.4209 257.136 16.0141 257.136 12.3166V6.0944H233.744C233.168 6.0944 232.775 5.85211 232.562 5.36751L231.564 3.09474C231.258 2.36784 231.457 2.00439 232.155 2.00439H267.986C268.684 2.00439 269.144 2.14009 269.372 2.41146C269.6 2.68284 269.711 3.10928 269.711 3.68111V12.1277C269.711 16.0044 269.028 19.4693 267.666 22.5271H272.071C272.464 22.5271 272.73 22.5901 272.866 22.7113C273.002 22.8324 273.069 23.0457 273.069 23.3461V25.6625C273.069 26.055 272.992 26.3118 272.842 26.433C272.691 26.5541 272.435 26.6171 272.071 26.6171L272.086 26.6268Z" fill="#F18900"/>
</svg>
