<svg xmlns="http://www.w3.org/2000/svg" width="56.237" height="56.237" viewBox="0 0 56.237 56.237"><path d="M28.119,56.237A28.119,28.119,0,1,0,0,28.119,28.119,28.119,0,0,0,28.119,56.237Z" fill="#00b2e3" opacity="0.67"/><path d="M16.26,30.382V28.608H27.313v1.773Zm2.4-2.551a2.247,2.247,0,0,1,0-4.472h6.256a2.247,2.247,0,0,1,0,4.472Zm-1.9,6.724V30.936h2.268V32.9h7.969v1.654H16.755ZM24.3,26.095a.484.484,0,0,0,.484-.506.475.475,0,0,0-.484-.5H19.263a.481.481,0,0,0-.484.5.49.49,0,0,0,.484.506Z" fill="#fff"/><path d="M28.206,29.794v-1.6h.941L28.881,25.5h1.975l.218,2.687h.99l.218-2.687h1.975l-.266,2.687h.952v1.6H28.206Zm.12-4.608v-1.6h6.5v1.6Zm2.655,5.282H36.8a2.081,2.081,0,1,1,0,4.145H30.98a2.079,2.079,0,1,1,0-4.145Zm5.108,2.557c.435,0,.685-.18.685-.495s-.25-.484-.685-.484H31.677c-.386,0-.653.18-.653.484s.267.495.653.495Zm-.914-4.21V27.15h1.469v-.881H35.175V24.594h1.469V23.386h2.29V30.2h-2.29V28.809H35.175Z" fill="#fff"/></svg>