<svg width="287" height="34" viewBox="0 0 287 34" fill="none" xmlns="http://www.w3.org/2000/svg">
<path d="M9.35689 9.45298C9.35689 8.23515 8.6295 7.30387 7.3235 7.30387C6.01751 7.30387 5.26256 8.23515 5.26256 9.45298V11.5139H0.264506V9.45298C0.264506 5.44131 3.22917 3.26465 7.3235 3.26465C11.4178 3.26465 14.5864 5.44131 14.5864 9.45298V10.7039C14.5864 14.192 13.0765 15.9334 9.79222 19.3334C6.50794 22.7334 5.43339 23.5489 5.43339 25.1139V26.0452H14.647V30.0844H0V25.1139C0 22.9042 0.462885 21.251 5.40584 16.8922C8.69012 14.0157 9.35689 12.6491 9.35689 10.7039V9.45298Z" fill="#1A1A1A"/>
<path d="M17.3193 9.45298C17.3193 5.44131 20.5761 3.26465 24.6153 3.26465C28.6545 3.26465 31.9112 5.44131 31.9112 9.45298V24.5904C31.9112 28.6021 28.6545 30.7788 24.6153 30.7788C20.5761 30.7788 17.3193 28.5966 17.3193 24.5904V9.45298ZM22.3174 24.5904C22.3174 25.8083 23.3038 26.7395 24.6153 26.7395C25.9268 26.7395 26.9132 25.8083 26.9132 24.5904V9.45298C26.9132 8.23515 25.9268 7.30387 24.6153 7.30387C23.3038 7.30387 22.3174 8.23515 22.3174 9.45298V24.5904Z" fill="#1A1A1A"/>
<path d="M44.0014 9.45298C44.0014 8.23515 43.274 7.30387 41.968 7.30387C40.662 7.30387 39.9071 8.23515 39.9071 9.45298V11.5139H34.909V9.45298C34.909 5.44131 37.8737 3.26465 41.968 3.26465C46.0624 3.26465 49.2309 5.44131 49.2309 9.45298V10.7039C49.2309 14.192 47.721 15.9334 44.4368 19.3334C41.1525 22.7334 40.0779 23.5489 40.0779 25.1139V26.0452H49.2915V30.0844H34.6445V25.1139C34.6445 22.9042 35.1074 21.251 40.0504 16.8922C43.3347 14.0157 44.0014 12.6491 44.0014 10.7039V9.45298Z" fill="#1A1A1A"/>
<path d="M57.337 3.84314H64.688V22.094H66.8371V26.3372H64.688V30.2H59.9214V26.3372H50.3882V22.094L57.3315 3.84314H57.337ZM59.8939 22.094V9.39225L55.1879 22.0885H59.8939V22.094Z" fill="#1A1A1A"/>
<path d="M79.1315 24.056C82.8676 21.5432 85.656 18.0881 85.7607 7.86051V1.61707H93.3321V7.86602C93.4368 18.0936 96.2307 21.5487 99.9613 24.0615V32.2997C95.5308 30.101 91.9325 27.1694 89.5244 22.5957C87.1493 27.1694 83.4848 30.101 79.126 32.2997V24.0615L79.1315 24.056ZM96.4456 17.8125V11.4975H102.832V0.917236H110.508V33.3412H102.832V17.807H96.4456V17.8125Z" fill="#7393CB"/>
<path d="M145.098 17.9836H132.705V19.7965H143.875V28.1064H121.849V29.2912H144.398V33.3414H114.206V24.6513H136.232V23.4665H114.206V19.802H125.343V17.9891H112.988V12.9304H145.098V17.9891V17.9836ZM119.689 11.7732C116.476 11.7732 113.859 9.33202 113.859 6.29571C113.859 3.2594 116.476 0.741089 119.689 0.741089H138.364C141.577 0.741089 144.228 3.22083 144.228 6.2902C144.228 9.35957 141.577 11.7677 138.364 11.7677H119.689V11.7732ZM122.026 5.4526C121.574 5.4526 121.221 5.8714 121.221 6.32326C121.221 6.77513 121.568 7.19393 122.026 7.19393H136.199C136.651 7.19393 137.003 6.77513 137.003 6.32326C137.003 5.8714 136.656 5.4526 136.199 5.4526H122.026Z" fill="#7393CB"/>
<path d="M157.31 24.056C161.046 21.5432 163.834 18.0881 163.939 7.86051V1.61707H171.51V7.86602C171.615 18.0936 174.409 21.5487 178.14 24.0615V32.2997C173.709 30.101 170.111 27.1694 167.703 22.5957C165.328 27.1694 161.663 30.101 157.304 32.2997V24.0615L157.31 24.056ZM174.624 17.8125V11.4975H181.011V0.917236H188.687V33.3412H181.011V17.807H174.624V17.8125Z" fill="#7393CB"/>
<path d="M223.276 20.9867H210.883V23.6758H222.053V33.694H214.515V28.459H192.214V23.6758H203.521V20.9867H191.167V15.5753H223.276V20.9867ZM222.053 0.707886V14.2142H192.384V0.707886H199.994V2.87353H214.443V0.707886H222.053ZM214.443 9.5027V7.58504H199.994V9.5027H214.443Z" fill="#7393CB"/>
<path d="M241.39 1.2644H251.617V22.6618H254.058V28.5967H251.617V32.9941H245.021V28.5967H234.094V22.6618L241.39 1.2644ZM244.983 22.6618V8.94609L240.657 22.6618H244.983Z" fill="#7393CB"/>
<path d="M266.688 33.6941V23.4665H254.752V17.1845H286.862V23.4665H274.574V33.6941H266.688ZM276.64 16.3083L277.654 7.37577H255.772V1.44092H285.821L284.179 16.3083H276.64Z" fill="#7393CB"/>
</svg>
