<svg width="121" height="46" viewBox="0 0 121 46" fill="none" xmlns="http://www.w3.org/2000/svg">
<path d="M5.6891 6.09406C5.6891 5.35834 5.25045 4.8003 4.46476 4.8003C3.67906 4.8003 3.22098 5.36112 3.22098 6.09406V7.33783H0.211472V6.09406C0.211472 3.67868 1.99663 2.36548 4.46476 2.36548C6.93288 2.36548 8.8402 3.67868 8.8402 6.09406V6.84642C8.8402 8.9453 7.92957 9.99753 5.95285 12.0437C3.97613 14.0926 3.32648 14.5812 3.32648 15.5251V16.0859H8.87351V18.518H0.0532227V15.5251C0.0532227 14.1953 0.333628 13.1986 3.30704 10.5722C5.28376 8.83982 5.68633 8.01802 5.68633 6.84365V6.09128L5.6891 6.09406Z" fill="#1A1A1A"/>
<path d="M10.1338 6.09394C10.1338 3.67856 12.0939 2.36536 14.5259 2.36536C16.9579 2.36536 18.918 3.67856 18.918 6.09394V15.2113C18.918 17.6267 16.9579 18.9398 14.5259 18.9398C12.0939 18.9398 10.1338 17.6267 10.1338 15.2113V6.09394ZM13.1433 15.2113C13.1433 15.947 13.7374 16.5078 14.5259 16.5078C15.3144 16.5078 15.9085 15.947 15.9085 15.2113V6.09394C15.9085 5.35822 15.3144 4.80017 14.5259 4.80017C13.7374 4.80017 13.1433 5.36099 13.1433 6.09394V15.2113Z" fill="#1A1A1A"/>
<path d="M25.8483 6.09394C25.8483 5.35822 25.4096 4.80017 24.6239 4.80017C23.8382 4.80017 23.3802 5.36099 23.3802 6.09394V7.33771H20.3707V6.09394C20.3707 3.67856 22.1558 2.36536 24.6239 2.36536C27.0921 2.36536 28.9994 3.67856 28.9994 6.09394V6.8463C28.9994 8.94518 28.0888 9.99741 26.112 12.0435C24.1353 14.0924 23.4857 14.5811 23.4857 15.525V16.0858H29.0327V18.5179H20.2124V15.525C20.2124 14.1952 20.4928 13.1985 23.4662 10.5721C25.4429 8.8397 25.8455 8.0179 25.8455 6.84352V6.09116L25.8483 6.09394Z" fill="#1A1A1A"/>
<path d="M33.8802 2.71521H38.3084V13.7038H39.6021V16.258H38.3084V18.5845H35.4377V16.258H29.6963V13.7038L33.8802 2.71521ZM35.421 13.7066V6.05788L32.5864 13.7066H35.421Z" fill="#1A1A1A"/>
<path d="M40.5649 18.2208V15.264H43.505V18.2208H40.5649Z" fill="#1A1A1A"/>
<path d="M47.0923 6.09394C47.0923 3.67856 49.0524 2.36536 51.4844 2.36536C53.9164 2.36536 55.8765 3.67856 55.8765 6.09394V15.2113C55.8765 17.6267 53.9164 18.9398 51.4844 18.9398C49.0524 18.9398 47.0923 17.6267 47.0923 15.2113V6.09394ZM50.1018 15.2113C50.1018 15.947 50.6959 16.5078 51.4844 16.5078C52.2729 16.5078 52.867 15.947 52.867 15.2113V6.09394C52.867 5.35822 52.2729 4.80017 51.4844 4.80017C50.6959 4.80017 50.1018 5.36099 50.1018 6.09394V15.2113Z" fill="#1A1A1A"/>
<path d="M57.4869 14.3007H60.513V15.3502C60.513 16.0859 61.0905 16.6273 61.879 16.6273C62.6674 16.6273 63.2449 16.0859 63.2449 15.3502V12.2352C62.6674 12.5489 61.9678 12.8293 61.1266 12.8293C58.6585 12.8293 57.4702 11.5355 57.4702 9.10073V6.09123C57.4702 3.67586 59.4469 2.36267 61.879 2.36267C64.311 2.36267 66.2711 3.67586 66.2711 6.09123V15.2086C66.2711 17.624 64.311 18.9371 61.879 18.9371C59.4469 18.9371 57.4869 17.624 57.4869 15.2086V14.298V14.3007ZM63.2421 9.31451V5.9552C63.2421 5.23891 62.6647 4.67809 61.8762 4.67809C61.0877 4.67809 60.4936 5.23891 60.4936 5.9552V9.2451C60.4936 9.99748 61.0711 10.5388 61.8595 10.5388C62.648 10.5388 63.206 10.0502 63.2421 9.31451Z" fill="#1A1A1A"/>
<path d="M68.0366 18.2208V15.264H70.9767V18.2208H68.0366Z" fill="#1A1A1A"/>
<path d="M79.8498 6.09394C79.8498 5.35822 79.4111 4.80017 78.6254 4.80017C77.8397 4.80017 77.3816 5.36099 77.3816 6.09394V7.33771H74.3721V6.09394C74.3721 3.67856 76.1573 2.36536 78.6254 2.36536C81.0935 2.36536 83.0008 3.67856 83.0008 6.09394V6.8463C83.0008 8.94518 82.0902 9.99741 80.1135 12.0435C78.1368 14.0924 77.4871 14.5811 77.4871 15.525V16.0858H83.0342V18.5179H74.2139V15.525C74.2139 14.1952 74.4943 13.1985 77.4677 10.5721C79.4444 8.8397 79.847 8.0179 79.847 6.84352V6.09116L79.8498 6.09394Z" fill="#1A1A1A"/>
<path d="M87.4598 11.2386V8.82317L88.562 8.75377C89.2783 8.70102 90.0501 8.22905 90.0501 7.49333V5.97193C90.0501 5.23621 89.4726 4.67817 88.6675 4.67817C87.8624 4.67817 87.2849 5.23899 87.2849 5.97193V7.16295H84.2587V6.09685C84.2587 3.68147 86.2188 2.36829 88.6675 2.36829C91.1162 2.36829 93.0763 3.68147 93.0763 6.09685V7.34064C93.0763 8.72324 92.36 9.58112 91.4133 10.017C92.4627 10.4556 93.2345 11.2774 93.2345 12.7822V15.2142C93.2345 17.6296 91.1356 18.9428 88.6675 18.9428C86.1994 18.9428 84.0811 17.6296 84.0811 15.2142V13.343H87.2322V15.2142C87.2322 15.9499 87.8457 16.5107 88.6675 16.5107C89.4893 16.5107 90.0862 15.9499 90.0862 15.2142V12.6239C90.0862 11.8355 89.3338 11.3468 88.4926 11.3107L87.4598 11.2413V11.2386Z" fill="#1A1A1A"/>
<path d="M94.811 18.2208V15.264H97.7511V18.2208H94.811Z" fill="#1A1A1A"/>
<path d="M110.8 20.4002C116.433 20.4002 121 15.8335 121 10.2001C121 4.56674 116.433 0 110.8 0C105.166 0 100.6 4.56674 100.6 10.2001C100.6 15.8335 105.166 20.4002 110.8 20.4002Z" fill="#486DB4"/>
<path d="M108.148 14.4673H115.767V15.6889H106.05V12.9098H113.532V12.4712H106.05V11.2718H107.663L107.835 10.3723H105.242V8.9536H113.09V10.3723H109.875L109.703 11.2718H115.639V13.9926H108.146V14.4645L108.148 14.4673ZM107.41 8.61211C106.349 8.61211 105.589 7.8292 105.589 6.87138C105.589 5.91356 106.349 5.13064 107.41 5.13064H110.339C111.4 5.13064 112.171 5.91356 112.171 6.87138C112.171 7.8292 111.4 8.61211 110.339 8.61211H107.41ZM107.929 6.49103C107.699 6.49103 107.502 6.67427 107.502 6.8936C107.502 7.11292 107.699 7.29615 107.929 7.29615H109.853C110.072 7.29615 110.281 7.11292 110.281 6.8936C110.281 6.67427 110.072 6.49103 109.853 6.49103H107.929ZM113.451 10.9636V7.90971H112.402V6.27169H113.451V5.01404H115.642V10.9609H113.451V10.9636Z" fill="white"/>
<path d="M16.4902 37.0335C16.9095 33.9185 18.3975 32.8496 19.7968 32.8496C22.0012 32.8496 23.1228 34.6514 24.2583 34.6514C25.0634 34.6514 25.4299 34.0573 25.6242 32.9551H27.6371C27.2345 36.0535 25.6242 37.1196 24.3832 37.1196C22.3371 37.1196 21.0767 35.3177 19.8496 35.3177C19.2554 35.3177 18.764 35.5621 18.503 37.0335H16.4902Z" fill="#1A1A1A"/>
<path d="M38.906 43.1747H35.7549V31.2394H33.917V28.9656C34.9664 28.9656 35.9826 28.2132 35.9826 27.3026H38.906V43.1747Z" fill="#1A1A1A"/>
<path d="M40.7603 30.6785C40.7603 28.2631 42.7203 26.95 45.1524 26.95C47.5844 26.95 49.5445 28.2631 49.5445 30.6785V39.7959C49.5445 42.2113 47.5844 43.5244 45.1524 43.5244C42.7203 43.5244 40.7603 42.2113 40.7603 39.7959V30.6785ZM43.7698 39.7959C43.7698 40.5316 44.3639 41.0924 45.1524 41.0924C45.9408 41.0924 46.5349 40.5316 46.5349 39.7959V30.6785C46.5349 29.9428 45.9408 29.3848 45.1524 29.3848C44.3639 29.3848 43.7698 29.9456 43.7698 30.6785V39.7959Z" fill="#1A1A1A"/>
<path d="M51.2773 42.8082V39.8514H54.2174V42.8082H51.2773Z" fill="#1A1A1A"/>
<path d="M63.091 30.6785C63.091 29.9428 62.6523 29.3848 61.8666 29.3848C61.0809 29.3848 60.6228 29.9456 60.6228 30.6785V31.9223H57.6133V30.6785C57.6133 28.2631 59.3985 26.95 61.8666 26.95C64.3347 26.95 66.2421 28.2631 66.2421 30.6785V31.4309C66.2421 33.5298 65.3314 34.582 63.3547 36.6281C61.378 38.6743 60.7283 39.1657 60.7283 40.1096V40.6704H66.2754V43.1024H57.4551V40.1096C57.4551 38.7798 57.7355 37.7831 60.7089 35.1567C62.6856 33.4243 63.0882 32.6025 63.0882 31.4281V30.6758L63.091 30.6785Z" fill="#1A1A1A"/>
<path d="M70.5783 35.912H67.5494V27.3721H76.353V29.8041H70.5783V32.833C71.103 32.4999 71.8387 32.1862 72.7299 32.1862C75.162 32.1862 76.4752 33.4633 76.4752 35.9675V39.7988C76.4752 42.2142 74.3041 43.5273 71.8721 43.5273C69.44 43.5273 67.3911 42.2142 67.3911 39.7988V38.4523H70.4173V39.7988C70.4173 40.5345 71.0836 41.0953 71.8693 41.0953C72.655 41.0953 73.3213 40.5345 73.3213 39.7988V35.8092C73.3213 35.0208 72.7438 34.4794 71.9553 34.4794C71.2196 34.4794 70.6088 34.968 70.5727 35.6177V35.9147L70.5783 35.912Z" fill="#1A1A1A"/>
<path d="M78.0518 42.8082V39.8514H80.9919V42.8082H78.0518Z" fill="#1A1A1A"/>
<path d="M93.8271 45.1931C99.4604 45.1931 104.027 40.6263 104.027 34.993C104.027 29.3596 99.4604 24.7928 93.8271 24.7928C88.1937 24.7928 83.627 29.3596 83.627 34.993C83.627 40.6263 88.1937 45.1931 93.8271 45.1931Z" fill="#486DB4"/>
<path d="M88.291 35.5344V33.8298H98.8604V35.5344H88.291ZM88.7297 31.4532V29.8291H98.4356L98.0081 33.4605H95.8536L96.1313 31.456H88.7297V31.4532ZM88.763 40.479V36.2729H98.3773V40.479H96.2562V40.168L88.763 40.479ZM90.8841 38.841L96.2562 38.6577V37.7693H90.8841V38.841Z" fill="white"/>
</svg>
