<svg width="162" height="194" viewBox="0 0 162 194" fill="none" xmlns="http://www.w3.org/2000/svg">
<path d="M143.293 3H18.7073C8.92785 3 1 10.9565 1 20.7714V175.229C1 185.043 8.92785 193 18.7073 193H143.293C153.072 193 161 185.043 161 175.229V20.7714C161 10.9565 153.072 3 143.293 3Z" fill="white" stroke="#515B96" stroke-miterlimit="10"/>
<path d="M22.4879 51.1542C22.4879 48.9937 24.9806 46.4983 26.9234 44.6643C28.3073 43.3329 29.6113 42.1856 29.6113 40.6532C29.6113 39.1207 28.8661 38.4173 27.3758 38.4927C26.2669 38.5513 25.1758 39.6985 24.5194 41.1891L22 39.9581C22.8516 37.9232 24.8565 36.1061 27.5177 36.0056C30.8887 35.8884 32.7427 37.6218 32.6806 40.5359C32.6363 42.7551 30.6314 44.723 28.8661 46.381C27.7395 47.4529 26.4532 48.7006 26.054 49.7641H33V52H22.4879V51.1375V51.1542Z" fill="#2A3089"/>
<path d="M37.9584 53C34.7554 53 33 50.4021 33 44.5C33 38.5979 34.7554 36 37.9584 36C41.1614 36 43 38.6241 43 44.5C43 50.3759 41.203 53 37.9584 53ZM37.9584 50.6549C39.6805 50.6549 40.2379 48.4056 40.2379 44.5087C40.2379 40.6118 39.6805 38.38 37.9584 38.38C36.2363 38.38 35.7621 40.6031 35.7621 44.5087C35.7621 48.4144 36.2612 50.6549 37.9584 50.6549Z" fill="#2A3089"/>
<path d="M44.4879 51.1542C44.4879 48.9937 46.9806 46.4983 48.9234 44.6643C50.3073 43.3329 51.6113 42.1856 51.6113 40.6532C51.6113 39.1207 50.8661 38.4173 49.3758 38.4927C48.2669 38.5513 47.1758 39.6985 46.5193 41.1891L44 39.9581C44.8516 37.9232 46.8564 36.1061 49.5177 36.0056C52.8887 35.8884 54.7427 37.6218 54.6806 40.5359C54.6363 42.7551 52.6314 44.723 50.8661 46.381C49.7395 47.4529 48.4532 48.7006 48.054 49.7641H55V52H44.4879V51.1375V51.1542Z" fill="#2A3089"/>
<path d="M61.5164 36.0085H64.4692V46.7714H66V49.0377H64.4692V52H61.8342V49.0377H55V47.0939L61.5164 36V36.0085ZM61.8426 46.8138V40.2186L57.9612 46.8138H61.8426Z" fill="#2A3089"/>
<path d="M81.5957 51.8479C80.3027 50.9785 77.9857 48.4907 77.3002 46.7088C76.5886 48.9469 74.4017 51.3314 72.9612 52.2181L71 50.5653C73.9852 48.5337 75.6253 44.9957 75.6253 41.3286V36.2755H78.6713V41.4146C78.6713 44.6858 80.8407 48.0861 83.5482 50.1349L81.587 51.8565L81.5957 51.8479ZM88 54H85.0408V43.9541H81.0403V41.4663H85.0408V36H88V54Z" fill="#2A3089"/>
<path d="M106 54H103.098V44.7677H101.59V53.7935H98.688V51.4359C98.247 51.892 97.1797 52.2017 96.2536 52.2017H92.946C91.1907 52.2017 90 51.479 90 49.3623V36.4216H97.5855V38.7619H93.0077V49.0698C93.0077 49.7151 93.2018 49.8786 93.6692 49.8786H96.4653C97.9294 49.8786 98.688 49.1989 98.688 48.1147V36H101.59V42.2897H103.098V36H106V53.9914V54Z" fill="#2A3089"/>
<path d="M107 44.9343H123V47.2905H116.883V50.4963H113.926V47.2905H107V44.9343ZM121.677 36V43.6117H110.463C108.887 43.6117 108.298 42.8321 108.298 41.2905V36H121.686H121.677ZM121.677 54H110.884C109.325 54 108.576 53.1328 108.576 51.5299V48.4117H111.55V50.8993C111.55 51.5562 111.651 51.6788 112.241 51.6788H121.677V54ZM118.686 41.3956V38.2161H111.297V40.6861C111.297 41.3431 111.339 41.4044 111.946 41.4044H118.686V41.3956Z" fill="#2A3089"/>
<path d="M125 45.1356H135.894C136.214 44.1643 136.526 42.8167 136.526 41.4954V38.4239H126.239V36H139.644V41.0754C139.644 42.4229 139.281 44.0856 138.91 45.1356H141V47.5333H134.538V54H131.462V47.5333H125V45.1356Z" fill="#2A3089"/>
<path d="M35.4001 61C38.7882 61 40.8002 63.0227 40.8002 65.6657C40.8002 68.3088 38.7882 70.3314 35.4001 70.3314C32.012 70.3314 30 68.3088 30 65.6657C30 63.0227 32.0294 61 35.4001 61ZM46 79H34.8427C33.3359 79 32.5781 78.2861 32.5781 76.8499V73.9688H42.6903V73.153H32.5781V71.0878H45.8258V76.034H35.7137V76.5014C35.7137 76.8669 35.8008 76.9348 36.1143 76.9348H45.9913V79H46ZM35.4001 68.2238C36.9069 68.2238 37.9347 67.1785 37.9347 65.6657C37.9347 64.153 36.9069 63.1332 35.4001 63.1332C33.8933 63.1332 32.8481 64.153 32.8481 65.6657C32.8481 67.1785 33.9194 68.2238 35.4001 68.2238ZM45.8258 70.3654H42.8557V61.221H45.8258V70.3654Z" fill="#2A3089"/>
<path d="M48.0757 61.4218H58.6067V63.7461H54.5643V66.4835C54.5643 69.7547 56.5422 73.1722 59.2313 75.1435L57.2969 76.8651C56.1084 75.9957 53.853 73.5509 53.1677 71.726C52.3089 74.0674 50.2704 76.2798 48.8737 77.2353L47 75.5395C49.9841 73.4218 51.5629 70.2539 51.5629 66.5696V63.7547H48.0843V61.4304L48.0757 61.4218ZM63.0395 67.3013H65V69.7633H63.0395V79H60.0815V61H63.0395V67.2927V67.3013Z" fill="#2A3089"/>
<path d="M81 78.9914H78.0227V76.5466C77.5425 77.0201 76.39 77.3989 75.0454 77.3989H68.9162C67.0914 77.3989 66 76.4864 66 74.4376V67.7059H72.7753V63.7461H66V61.4046H75.8399V70.0215H69.0821V74.188C69.0821 74.9541 69.3091 75.1004 69.9203 75.1004H75.3161C77.3766 75.1004 78.0227 74.1277 78.0227 73.155V61H81V79V78.9914Z" fill="#2A3089"/>
<path d="M84.982 63.7891H89.2058V61.3013H92.1878V71.0373H84.3086C82.4984 71.0373 82 70.2884 82 68.6528V61.3013H84.982V63.7891ZM83.8014 72.5954H97.0237V79H93.9804V74.9197H83.8102V72.5954H83.8014ZM89.2058 68.825V66.01H84.982V68.0416C84.982 68.6872 85.1044 68.825 85.7166 68.825H89.2058ZM97.0237 64.7446H99V67.2066H97.0237V71.726H94.0417V61H97.0237V64.7532V64.7446Z" fill="#2A3089"/>
<path d="M100 61.31H109.612V67.1579H102.948V67.9416C102.948 68.7081 103.048 68.7684 103.631 68.7684H108.979C110.903 68.7684 111.277 67.8986 111.277 66.822V61H114.118V64.4622H116V66.9254H114.118V71.4813H111.277V70.2411C110.836 70.801 109.653 70.9904 108.795 70.9904H102.49C100.85 70.9904 100.008 70.2842 100.008 68.2344V64.9359H106.672V63.5234H100.008V61.3014L100 61.31ZM101.641 72.2048H114.109V79H103.923C102.382 79 101.641 78.1474 101.641 76.5713V72.1962V72.2048ZM111.269 76.7866V74.4268H104.481V76.0201C104.481 76.666 104.581 76.7866 105.164 76.7866H111.269Z" fill="#2A3089"/>
<path d="M122.924 64.2437C126.254 64.2437 128.122 65.9244 128.122 68.2101C128.122 70.1092 126.816 71.605 124.464 72.0504V73.8739H127.37C129.402 73.8739 130.051 72.9244 130.051 71.9748V60.4286H133V78H130.051V75.3109C129.575 75.7731 128.434 76.1429 127.102 76.1429H117V73.8823H121.471V72.084C119.058 71.6555 117.796 70.1597 117.796 68.2185C117.796 65.9328 119.586 64.2521 122.933 64.2521L122.924 64.2437ZM117.251 61.6387H121.385V60H124.464V61.6387H128.477V63.8235H117.251V61.6387ZM122.924 70.2101C124.421 70.2101 125.294 69.3613 125.294 68.2101C125.294 67.0588 124.421 66.2101 122.924 66.2101C121.428 66.2101 120.598 67.0756 120.598 68.2101C120.598 69.3445 121.428 70.2101 122.924 70.2101Z" fill="#2A3089"/>
<path d="M21.0491 108.201L25.594 103.491C26.8937 102.101 27.564 101.284 27.564 100.119C27.564 98.833 26.6158 98.0248 25.3651 98.0248C24.0409 98.0248 23.1908 98.9112 23.1989 100.31H21C20.9919 97.6946 22.8229 96 25.3897 96C27.9564 96 29.7875 97.6859 29.7956 100.006C29.7875 101.562 29.0926 102.822 26.5668 105.385L24.2779 107.827V107.923H30V110H21.0654V108.21L21.0491 108.201Z" fill="black"/>
<path d="M32 103C31.9917 98.5564 33.8792 96 37 96C40.1209 96 42 98.5564 42 103C42 107.444 40.1291 110 37 110C33.8709 110 31.9917 107.461 32 103ZM37 107.95C38.6308 107.941 39.6407 106.277 39.6407 103C39.6325 99.7488 38.6225 98.0417 37 98.0331C35.3692 98.0417 34.3676 99.7574 34.3593 103C34.3593 106.277 35.3692 107.941 37 107.95Z" fill="black"/>
<path d="M44.0491 108.201L48.594 103.491C49.8937 102.101 50.564 101.284 50.564 100.119C50.564 98.833 49.6158 98.0248 48.3651 98.0248C47.0409 98.0248 46.1908 98.9112 46.1989 100.31H44C43.9919 97.6946 45.8229 96 48.3897 96C50.9564 96 52.7875 97.6859 52.7956 100.006C52.7875 101.562 52.0926 102.822 49.5668 105.385L47.278 107.827V107.923H53V110H44.0654V108.21L44.0491 108.201Z" fill="black"/>
<path d="M54 104.705L60.042 96H63.1696V104.656H65V106.578H63.1696V109H60.7795V106.578H54V104.713V104.705ZM60.815 104.648V98.6507H60.664L56.5679 104.558V104.648H60.815Z" fill="black"/>
<path d="M66.0003 108.491C65.9914 107.679 66.6788 107.009 67.5091 107C68.3126 107.009 69 107.679 69 108.491C69 109.303 68.3126 110 67.5091 110C66.7056 110 65.9825 109.321 66.0003 108.491Z" fill="black"/>
<path d="M75 108.992H72.413V98.2744H72.3313L69 100.213V98.078L72.531 96H75V109V108.992Z" fill="black"/>
<path d="M77 103C76.9917 98.5564 78.8791 96 82 96C85.1209 96 87 98.5564 87 103C87 107.444 85.1291 110 82 110C78.8709 110 76.9917 107.461 77 103ZM82 107.95C83.6308 107.941 84.6407 106.277 84.6407 103C84.6324 99.7488 83.6225 98.0417 82 98.0331C80.3692 98.0417 79.3676 99.7574 79.3593 103C79.3593 106.277 80.3692 107.941 82 107.95Z" fill="black"/>
<path d="M89.0003 108.491C88.9914 107.679 89.6788 107.009 90.5091 107C91.3126 107.009 92 107.679 92 108.491C92 109.303 91.3126 110 90.5091 110C89.7056 110 88.9825 109.321 89.0003 108.491Z" fill="black"/>
<path d="M98 108.992H95.413V98.2744H95.3313L92 100.213V98.078L95.531 96H98V109V108.992Z" fill="black"/>
<path d="M106 108.992H103.413V98.2744H103.331L100 100.213V98.078L103.531 96H106V109V108.992Z" fill="black"/>
<path d="M108 108.491C107.991 107.679 108.679 107.009 109.509 107C110.313 107.009 111 107.679 111 108.491C111 109.303 110.313 110 109.509 110C108.706 110 107.982 109.321 108 108.491Z" fill="black"/>
<path d="M115.777 95H118C116.722 96.865 115.445 100.629 115.445 103.991C115.445 107.354 116.722 111.126 118 113H115.777C114.039 110.468 113 107.525 113 103.991C113 100.458 114.039 97.5152 115.777 95Z" fill="black"/>
<path d="M132.17 96.314C132.178 97.6452 132.178 99.1481 131.769 101.158H134V102.85H119V101.158H129.721C130.114 99.3113 130.148 97.92 130.148 96.6747H120.855V95H132.17V96.3226V96.314ZM120.805 104.834H132.153V111H120.805V104.834ZM130.156 109.3V106.474H122.786V109.3H130.156Z" fill="black"/>
<path d="M137.223 113H135C136.278 111.126 137.555 107.354 137.555 103.991C137.555 100.629 136.278 96.865 135 95H137.223C138.961 97.5152 140 100.467 140 103.991C140 107.516 138.961 110.468 137.223 113Z" fill="black"/>
<path d="M35.5102 128C36.3163 128 37 128.517 37 129.169C37 129.822 36.3265 130.347 35.5102 130.339C34.6939 130.347 34.0102 129.822 34 129.169C34.0102 128.517 34.6837 128 35.5102 128ZM34.3061 131.907H36.6837V142H34.3061V131.907Z" fill="black"/>
<path d="M39.8804 142H38V132.133H39.8156V133.748H39.921C40.3668 132.688 41.3151 132 42.7416 132C44.7031 132 46.0081 133.284 46 135.728V142H44.1357V135.96C44.1276 134.527 43.3819 133.674 42.1094 133.674C40.8369 133.674 39.8885 134.577 39.8885 136.143V142H39.8804Z" fill="black"/>
<path d="M62.3672 138.684L61.2876 140.125C59.3941 139.159 57.9633 137.243 57.2264 134.93C56.4896 137.373 55.0416 139.435 53.1138 140.453L52 138.995C54.5875 137.735 56.3097 134.473 56.3182 131.323V128.424H58.1089V131.323C58.1089 134.43 59.8225 137.528 62.3758 138.693L62.3672 138.684ZM60.5251 132.644H64.2521V127H66V144H64.2521V134.093H60.5251V132.635V132.644Z" fill="black"/>
<path d="M69 129.057H75.3636V130.518H70.7958V138.391C72.8792 138.382 74.4483 138.287 76.2702 137.933L76.401 139.411C74.3611 139.834 72.6002 139.903 70.1332 139.921H69V129.057ZM83 144H81.274V135.219H79.0772V143.127H77.4296V127.346H79.0772V133.733H81.274V127H83V143.991V144Z" fill="black"/>
<path d="M100 137.354H93.4848V140.69H91.7677V137.354H85V135.878H100V137.354ZM86.8687 139.057H88.6027V142.524H98.3333V144H86.8687V139.057ZM86.9276 128H98.064V134.096H86.9276V128ZM96.3468 132.655V129.432H88.6279V132.655H96.3468Z" fill="black"/>
<path d="M114.091 129.5C114.091 131.122 114.091 132.874 113.635 135.302H116V136.785H109.336V144H107.571V136.785H101V135.302H111.861C112.351 132.865 112.351 131.087 112.36 129.5V129.483H102.833V128H114.083V129.5H114.091Z" fill="black"/>
<path d="M127.026 135.276L126.185 136.674C124.245 136.113 122.785 134.905 122.021 133.334C121.292 135.086 119.841 136.475 117.841 137.114L117 135.733C119.532 134.913 121.103 132.885 121.103 130.693V130.486H117.464V129.045H121.103V127H122.871V129.045H126.494V130.486H122.854V130.693C122.854 132.695 124.468 134.559 127.017 135.276H127.026ZM125.352 137.735C128.846 137.744 130.991 138.874 131 140.859C130.991 142.861 128.846 144.009 125.352 144C121.85 144.009 119.695 142.852 119.704 140.859C119.695 138.874 121.85 137.744 125.352 137.735ZM125.352 142.628C127.807 142.619 129.24 141.963 129.249 140.867C129.24 139.772 127.807 139.142 125.352 139.142C122.897 139.142 121.446 139.763 121.455 140.867C121.446 141.963 122.897 142.619 125.352 142.628ZM125.987 131.832H129.18V127.078H130.948V137.355H129.18V133.299H125.987V131.824V131.832Z" fill="black"/>
<path d="M41.0086 159.455C41.0173 154.711 43.0639 152 46.3195 152C48.8238 152 50.5596 153.561 50.8791 155.723H48.8325C48.5648 154.616 47.6839 153.81 46.3195 153.801C44.2211 153.81 42.9948 155.637 42.9948 158.717H43.1416C43.8843 157.559 45.1624 156.881 46.6304 156.873C49.0484 156.881 51 158.743 51 161.35C51 163.958 49.057 166.017 46.1382 166C43.6252 165.983 41 164.482 41 159.446L41.0086 159.455ZM46.1295 164.276C47.7703 164.267 48.9965 162.989 48.9965 161.393C48.9965 159.798 47.8135 158.562 46.1813 158.571C44.5233 158.562 43.2539 159.901 43.2366 161.41C43.2452 162.929 44.4542 164.258 46.1295 164.276Z" fill="black"/>
<path d="M68 160.049H53V158.569H68V160.049ZM59.5155 153.081H54.5042V151.636H59.6253V150H61.3493V151.636H66.4873V153.081H61.4591C61.6535 154.726 63.9183 155.955 67.1887 156.232L66.6563 157.617C63.8085 157.34 61.5014 156.353 60.4873 154.769C59.4563 156.353 57.1662 157.34 54.3352 157.617L53.7859 156.232C57.0479 155.955 59.3042 154.726 59.5155 153.081ZM60.4873 161.322C64.0704 161.322 66.1493 162.326 66.1577 164.17C66.1493 166.013 64.062 167.009 60.4873 167C56.8873 167.009 54.7746 166.013 54.7746 164.17C54.7746 162.326 56.8873 161.322 60.4873 161.322ZM60.4873 165.632C62.9972 165.65 64.4169 165.139 64.4169 164.17C64.4169 163.2 62.9972 162.672 60.4873 162.672C57.9775 162.672 56.5324 163.2 56.5408 164.17C56.5324 165.139 57.9436 165.65 60.4873 165.632Z" fill="black"/>
<path d="M74 152.057H80.3636V153.518H75.7958V161.391C77.8792 161.382 79.4483 161.287 81.2702 160.933L81.401 162.411C79.3611 162.834 77.6002 162.903 75.1332 162.921H74V152.057ZM88 167H86.274V158.219H84.0772V166.127H82.4296V150.346H84.0772V156.733H86.274V150H88V166.991V167Z" fill="black"/>
<path d="M95.8282 152.683H89.7753V151.22H97.7929C97.7929 155.618 94.7797 158.794 89.7489 160.24L89 158.777C93.0176 157.66 95.4758 155.436 95.8194 152.683H95.8282ZM97.0352 160.3C100.489 160.292 102.7 161.573 102.7 163.642C102.7 165.71 100.489 166.991 97.0352 167C93.5903 166.991 91.3348 165.728 91.3524 163.642C91.3348 161.573 93.5903 160.292 97.0352 160.3ZM97.0352 165.58C99.4229 165.572 100.921 164.836 100.921 163.642C100.921 162.447 99.4141 161.711 97.0352 161.72C94.63 161.711 93.141 162.438 93.1498 163.642C93.141 164.836 94.63 165.572 97.0352 165.58ZM102.515 154.293H105V155.756H102.515V160.101H100.7V150H102.515V154.293Z" fill="black"/>
<path d="M106 151.256H113.535V152.721H107.769V157.356C111.098 157.339 112.971 157.244 115.095 156.802L115.269 158.266C113.006 158.734 110.994 158.821 107.335 158.821H106V151.256ZM113.11 160.38C116.561 160.389 118.702 161.611 118.702 163.69C118.702 165.77 116.552 167.009 113.11 167C109.624 167.009 107.439 165.796 107.439 163.69C107.439 161.585 109.624 160.389 113.11 160.38ZM113.11 165.553C115.503 165.562 116.986 164.868 116.994 163.69C116.986 162.512 115.503 161.836 113.11 161.845C110.673 161.836 109.199 162.512 109.208 163.69C109.199 164.868 110.665 165.562 113.11 165.553ZM118.572 154.315H121V155.797H118.572V160.06H116.76V150H118.572V154.315Z" fill="black"/>
<path d="M127 3H132L130.222 0L127 3Z" fill="#DC2772"/>
<path d="M143 0H130V21H143V0Z" fill="#EC76A2"/>
<path d="M130 28V21H138" fill="#EC76A2"/>
<path d="M143 28V21H135" fill="#EC76A2"/>
</svg>
