<svg width="381" height="37" viewBox="0 0 381 37" fill="none" xmlns="http://www.w3.org/2000/svg">
<path d="M9.99958 11.6171C9.99958 10.3117 9.22128 9.32161 7.82725 9.32161C6.43323 9.32161 5.62045 10.3167 5.62045 11.6171V13.8239H0.280776V11.6171C0.280776 7.33156 3.44813 5.00159 7.82725 5.00159C12.2064 5.00159 15.5905 7.33156 15.5905 11.6171V12.952C15.5905 16.676 13.9748 18.5429 10.4675 22.1733C6.9603 25.8086 5.80764 26.6756 5.80764 28.3504V29.3454H15.6496V33.6605H0V28.3504C0 25.9909 0.497516 24.2225 5.77315 19.5626C9.2804 16.4888 9.99465 15.0307 9.99465 12.9471V11.6122L9.99958 11.6171Z" fill="#1A1A1A"/>
<path d="M17.8857 11.6167C17.8857 7.3312 21.3634 5.00122 25.6785 5.00122C29.9936 5.00122 33.4713 7.3312 33.4713 11.6167V27.7934C33.4713 32.0789 29.9936 34.4088 25.6785 34.4088C21.3634 34.4088 17.8857 32.0789 17.8857 27.7934V11.6167ZM23.2254 27.7934C23.2254 29.0987 24.2796 30.0938 25.6785 30.0938C27.0775 30.0938 28.1316 29.0987 28.1316 27.7934V11.6167C28.1316 10.3114 27.0775 9.32124 25.6785 9.32124C24.2796 9.32124 23.2254 10.3163 23.2254 11.6167V27.7934Z" fill="#1A1A1A"/>
<path d="M45.7662 11.6167C45.7662 10.3114 44.9879 9.32125 43.5939 9.32125C42.1998 9.32125 41.3871 10.3163 41.3871 11.6167V13.8235H36.0474V11.6167C36.0474 7.3312 39.2147 5.00122 43.5939 5.00122C47.973 5.00122 51.3571 7.3312 51.3571 11.6167V12.9516C51.3571 16.6756 49.7414 18.5425 46.2341 22.1729C42.7269 25.8082 41.5742 26.6752 41.5742 28.35V29.345H51.4162V33.6601H35.7666V28.35C35.7666 25.9905 36.2641 24.2221 41.5398 19.5622C45.047 16.4884 45.7613 15.0304 45.7613 12.9467V11.6118L45.7662 11.6167Z" fill="#1A1A1A"/>
<path d="M60.0171 5.62195H67.8739V25.1187H70.1694V29.6505H67.8739V33.7784H62.7805V29.6505H52.5938V25.1187L60.0171 5.62195ZM62.751 25.1236V11.5528L57.7216 25.1236H62.751Z" fill="#1A1A1A"/>
<path d="M71.8784 33.1331V27.887H77.0949V33.1331H71.8784Z" fill="#1A1A1A"/>
<path d="M83.46 11.6167C83.46 7.3312 86.9377 5.00122 91.2527 5.00122C95.5678 5.00122 99.0455 7.3312 99.0455 11.6167V27.7934C99.0455 32.0789 95.5678 34.4088 91.2527 34.4088C86.9377 34.4088 83.46 32.0789 83.46 27.7934V11.6167ZM88.7996 27.7934C88.7996 29.0987 89.8538 30.0938 91.2527 30.0938C92.6517 30.0938 93.7058 29.0987 93.7058 27.7934V11.6167C93.7058 10.3114 92.6517 9.32124 91.2527 9.32124C89.8538 9.32124 88.7996 10.3163 88.7996 11.6167V27.7934Z" fill="#1A1A1A"/>
<path d="M101.902 26.1776H107.271V28.0396C107.271 29.3449 108.296 30.3055 109.695 30.3055C111.094 30.3055 112.118 29.3449 112.118 28.0396V22.5127C111.094 23.0693 109.853 23.5668 108.36 23.5668C103.981 23.5668 101.873 21.2714 101.873 16.9514V11.6117C101.873 7.32616 105.38 4.99622 109.695 4.99622C114.01 4.99622 117.488 7.32616 117.488 11.6117V27.7883C117.488 32.0739 114.01 34.4038 109.695 34.4038C105.38 34.4038 101.902 32.0739 101.902 27.7883V26.1727V26.1776ZM112.114 17.3307V11.3703C112.114 10.0994 111.089 9.1044 109.69 9.1044C108.291 9.1044 107.237 10.0994 107.237 11.3703V17.2075C107.237 18.5424 108.261 19.503 109.66 19.503C111.059 19.503 112.049 18.636 112.114 17.3307Z" fill="#1A1A1A"/>
<path d="M120.62 33.1331V27.887H125.837V33.1331H120.62Z" fill="#1A1A1A"/>
<path d="M141.58 11.6167C141.58 10.3114 140.802 9.32125 139.408 9.32125C138.014 9.32125 137.201 10.3163 137.201 11.6167V13.8235H131.861V11.6167C131.861 7.3312 135.029 5.00122 139.408 5.00122C143.787 5.00122 147.171 7.3312 147.171 11.6167V12.9516C147.171 16.6756 145.555 18.5425 142.048 22.1729C138.541 25.8082 137.388 26.6752 137.388 28.35V29.345H147.23V33.6601H131.581V28.35C131.581 25.9905 132.078 24.2221 137.354 19.5622C140.861 16.4884 141.575 15.0304 141.575 12.9467V11.6118L141.58 11.6167Z" fill="#1A1A1A"/>
<path d="M155.082 20.7445V16.4589L157.037 16.3358C158.308 16.2422 159.678 15.4048 159.678 14.0994V11.4001C159.678 10.0947 158.653 9.10458 157.224 9.10458C155.796 9.10458 154.771 10.0996 154.771 11.4001V13.5133H149.402V11.6217C149.402 7.33617 152.88 5.00623 157.224 5.00623C161.569 5.00623 165.047 7.33617 165.047 11.6217V13.8285C165.047 16.2816 163.776 17.8037 162.096 18.5771C163.958 19.3554 165.328 20.8134 165.328 23.4833V27.7984C165.328 32.0839 161.604 34.4139 157.224 34.4139C152.845 34.4139 149.087 32.0839 149.087 27.7984V24.4783H154.678V27.7984C154.678 29.1037 155.766 30.0988 157.224 30.0988C158.683 30.0988 159.742 29.1037 159.742 27.7984V23.2025C159.742 21.8035 158.407 20.9366 156.914 20.8726L155.082 20.7494V20.7445Z" fill="#1A1A1A"/>
<path d="M168.125 33.1331V27.887H173.342V33.1331H168.125Z" fill="#1A1A1A"/>
<path d="M196.494 37.0001C206.489 37.0001 214.592 28.8974 214.592 18.9023C214.592 8.9072 206.489 0.804565 196.494 0.804565C186.499 0.804565 178.396 8.9072 178.396 18.9023C178.396 28.8974 186.499 37.0001 196.494 37.0001Z" fill="#486DB4"/>
<path d="M191.789 26.4734H205.306V28.6408H188.065V23.7099H201.341V22.9316H188.065V20.8037H190.927L191.233 19.2077H186.632V16.6905H200.557V19.2077H194.853L194.548 20.8037H205.079V25.631H191.784V26.4684L191.789 26.4734ZM190.479 16.0846C188.597 16.0846 187.248 14.6955 187.248 12.9961C187.248 11.2967 188.597 9.90756 190.479 9.90756H195.676C197.557 9.90756 198.927 11.2967 198.927 12.9961C198.927 14.6955 197.557 16.0846 195.676 16.0846H190.479ZM191.4 12.3213C190.991 12.3213 190.642 12.6464 190.642 13.0355C190.642 13.4247 190.991 13.7498 191.4 13.7498H194.814C195.203 13.7498 195.572 13.4247 195.572 13.0355C195.572 12.6464 195.203 12.3213 194.814 12.3213H191.4ZM201.198 20.2569V14.8384H199.336V11.9321H201.198V9.70068H205.084V20.252H201.198V20.2569Z" fill="white"/>
<path d="M224.945 21.9762C225.689 16.4493 228.329 14.5529 230.812 14.5529C234.723 14.5529 236.713 17.7498 238.728 17.7498C240.156 17.7498 240.807 16.6956 241.152 14.74H244.723C244.009 20.2373 241.152 22.1289 238.95 22.1289C235.319 22.1289 233.083 18.932 230.906 18.932C229.852 18.932 228.98 19.3655 228.517 21.9762H224.945Z" fill="#1A1A1A"/>
<path d="M264.717 32.8722H259.126V11.6957H255.865V7.66142C257.727 7.66142 259.53 6.32651 259.53 4.71082H264.717V32.8722Z" fill="#1A1A1A"/>
<path d="M268.008 10.7007C268.008 6.41515 271.485 4.08521 275.801 4.08521C280.116 4.08521 283.593 6.41515 283.593 10.7007V26.8774C283.593 31.1629 280.116 33.4928 275.801 33.4928C271.485 33.4928 268.008 31.1629 268.008 26.8774V10.7007ZM273.347 26.8774C273.347 28.1827 274.402 29.1777 275.801 29.1777C277.2 29.1777 278.254 28.1827 278.254 26.8774V10.7007C278.254 9.39532 277.2 8.40523 275.801 8.40523C274.402 8.40523 273.347 9.40025 273.347 10.7007V26.8774Z" fill="#1A1A1A"/>
<path d="M286.667 32.222V26.976H291.883V32.222H286.667Z" fill="#1A1A1A"/>
<path d="M307.627 10.7007C307.627 9.39532 306.849 8.40523 305.455 8.40523C304.061 8.40523 303.248 9.40025 303.248 10.7007V12.9075H297.908V10.7007C297.908 6.41515 301.076 4.08521 305.455 4.08521C309.834 4.08521 313.218 6.41515 313.218 10.7007V12.0356C313.218 15.7596 311.602 17.6265 308.095 21.2569C304.588 24.8873 303.435 25.7592 303.435 27.434V28.429H313.277V32.7441H297.627V27.434C297.627 25.0745 298.125 23.3061 303.401 18.6462C306.908 15.5724 307.622 14.1143 307.622 12.0307V10.6958L307.627 10.7007Z" fill="#1A1A1A"/>
<path d="M320.912 19.9863H315.538V4.83423H331.158V9.14932H320.912V14.5235C321.843 13.9324 323.149 13.3758 324.73 13.3758C329.045 13.3758 331.375 15.6417 331.375 20.0848V26.8826C331.375 31.1681 327.523 33.498 323.208 33.498C318.893 33.498 315.257 31.1681 315.257 26.8826V24.4935H320.627V26.8826C320.627 28.1879 321.809 29.1829 323.203 29.1829C324.597 29.1829 325.779 28.1879 325.779 26.8826V19.804C325.779 18.4051 324.754 17.4445 323.356 17.4445C322.05 17.4445 320.966 18.3115 320.902 19.4642V19.9912L320.912 19.9863Z" fill="#1A1A1A"/>
<path d="M334.172 32.222V26.976H339.388V32.222H334.172Z" fill="#1A1A1A"/>
<path d="M362.161 36.4533C372.156 36.4533 380.259 28.3507 380.259 18.3556C380.259 8.36045 372.156 0.257812 362.161 0.257812C352.166 0.257812 344.063 8.36045 344.063 18.3556C344.063 28.3507 352.166 36.4533 362.161 36.4533Z" fill="#486DB4"/>
<path d="M352.339 19.3162V16.2917H371.092V19.3162H352.339ZM353.118 12.0752V9.19348H370.339L369.58 15.6366H365.758L366.25 12.0801H353.118V12.0752ZM353.177 28.0893V20.6265H370.235V28.0893H366.472V27.5376L353.177 28.0893ZM356.94 25.183L366.472 24.8579V23.2816H356.94V25.183Z" fill="white"/>
</svg>
