<svg width="120" height="143" viewBox="0 0 120 143" fill="none" xmlns="http://www.w3.org/2000/svg">
<path d="M105.941 3H14.0592C6.84679 3 1 8.82083 1 16.0012V128.999C1 136.179 6.84679 142 14.0592 142H105.941C113.153 142 119 136.179 119 128.999V16.0012C119 8.82083 113.153 3 105.941 3Z" fill="white" stroke="#515B96" stroke-miterlimit="10"/>
<path d="M29.3548 38.3657C29.3548 36.7453 31.1677 34.8737 32.5806 33.4983C33.5871 32.4997 34.5355 31.6392 34.5355 30.4899C34.5355 29.3406 33.9935 28.813 32.9097 28.8695C32.1032 28.9135 31.3097 29.7739 30.8323 30.8918L29 29.9686C29.6194 28.4424 31.0774 27.0796 33.0129 27.0042C35.4645 26.9163 36.8129 28.2163 36.7677 30.402C36.7355 32.0663 35.2774 33.5422 33.9935 34.7858C33.1742 35.5897 32.2387 36.5255 31.9484 37.3231H37V39H29.3548V38.3531V38.3657Z" fill="#2A3089"/>
<path d="M40.9667 39C38.4043 39 37 37.1662 37 33C37 28.8338 38.4043 27 40.9667 27C43.5291 27 45 28.8523 45 33C45 37.1477 43.5624 39 40.9667 39ZM40.9667 37.3385C42.3444 37.3385 42.7903 35.7508 42.7903 33C42.7903 30.2492 42.3444 28.6738 40.9667 28.6738C39.589 28.6738 39.2097 30.2431 39.2097 33C39.2097 35.7569 39.609 37.3385 40.9667 37.3385Z" fill="#2A3089"/>
<path d="M45.3548 38.3657C45.3548 36.7453 47.1677 34.8737 48.5806 33.4983C49.5871 32.4997 50.5355 31.6392 50.5355 30.4899C50.5355 29.3406 49.9936 28.813 48.9097 28.8695C48.1032 28.9135 47.3097 29.7739 46.8323 30.8918L45 29.9686C45.6194 28.4424 47.0774 27.0796 49.0129 27.0042C51.4645 26.9163 52.8129 28.2163 52.7677 30.402C52.7355 32.0663 51.2774 33.5422 49.9936 34.7858C49.1742 35.5897 48.2387 36.5255 47.9484 37.3231H53V39H45.3548V38.3531V38.3657Z" fill="#2A3089"/>
<path d="M57.7392 27.0064H59.8867V35.0785H61V36.7782H59.8867V39H57.9703V36.7782H53V35.3204L57.7392 27V27.0064ZM57.9703 35.1103V30.1639L55.1475 35.1103H57.9703Z" fill="#2A3089"/>
<path d="M73.0932 38.7628H67.9565C66.6708 38.7628 66 37.967 66 36.7857V27.2984H73.0932V38.7566V38.7628ZM70.9689 37.1153V28.946H68.118V36.4562C68.118 36.9225 68.2795 37.1153 68.7143 37.1153H70.9689ZM76.5963 31.5509H78V33.329H76.5963V40H74.4783V27H76.5963V31.5447V31.5509Z" fill="#2A3089"/>
<path d="M89.0221 31.6261C89.0221 32.25 88.9336 32.855 88.782 33.3529H90.5766V35.0546H86.128V37.2857H91V39H79V37.2857H83.872V35.0546H79.4234V33.3529H81.079V29.2878H83.3412V33.3529H86.545C86.684 32.8361 86.7599 32.2626 86.7599 31.6387V29.2878H89.0221V31.6261ZM79.6382 27H90.3744V28.7017H79.6382V27Z" fill="#2A3089"/>
<path d="M26.0523 45C28.5948 45 30.1046 46.4615 30.1046 48.3713C30.1046 50.2811 28.5948 51.7426 26.0523 51.7426C23.5098 51.7426 22 50.2811 22 48.3713C22 46.4615 23.5229 45 26.0523 45ZM34 58H25.6275C24.4967 58 23.9281 57.4842 23.9281 56.4464V54.3647H31.5163V53.7752H23.9281V52.283H33.8693V55.8569H26.281V56.1946C26.281 56.4587 26.3464 56.5078 26.5817 56.5078H33.9935V58H34ZM26.0523 50.2135C27.183 50.2135 27.9542 49.4582 27.9542 48.3651C27.9542 47.2721 27.183 46.5352 26.0523 46.5352C24.9216 46.5352 24.1373 47.2721 24.1373 48.3651C24.1373 49.4582 24.9412 50.2135 26.0523 50.2135ZM33.8758 51.7671H31.6471V45.1597H33.8758V51.7671Z" fill="#2A3089"/>
<path d="M34.7765 45.3046H42.3786V46.9833H39.4605V48.9603C39.4605 51.3228 40.8882 53.791 42.8295 55.2147L41.433 56.4582C40.5751 55.8302 38.947 54.0646 38.4523 52.7465C37.8324 54.4376 36.3608 56.0354 35.3526 56.7255L34 55.5007C36.1541 53.9713 37.2938 51.6834 37.2938 49.0225V46.9895H34.7828V45.3109L34.7765 45.3046ZM45.5848 49.5509H47V51.329H45.5848V58H43.4494V45H45.5848V49.5447V49.5509Z" fill="#2A3089"/>
<path d="M59 57.9938H56.8167V56.2281C56.4645 56.5701 55.6193 56.8436 54.6333 56.8436H50.1385C48.8004 56.8436 48 56.1846 48 54.7049V49.8431H52.9686V46.9833H48V45.2922H55.216V51.5155H50.2602V54.5246C50.2602 55.078 50.4267 55.1836 50.8749 55.1836H54.8318C56.3428 55.1836 56.8167 54.4811 56.8167 53.7786V45H59V58V57.9938Z" fill="#2A3089"/>
<path d="M62.1049 47.0143H65.0864V45.2176H67.1914V52.2492H61.6296C60.3519 52.2492 60 51.7083 60 50.527V45.2176H62.1049V47.0143ZM61.2778 53.3745H70.6111V58H68.463V55.0531H61.284V53.3745H61.2778ZM65.0864 50.6514V48.6184H62.1049V50.0856C62.1049 50.5519 62.1914 50.6514 62.6235 50.6514H65.0864ZM70.6049 47.7044H72V49.4825H70.6049V52.7465H68.5V45H70.6049V47.7107V47.7044Z" fill="#2A3089"/>
<path d="M73 45.2238H80.2087V49.4452H75.2113V50.011C75.2113 50.5643 75.2863 50.6078 75.7236 50.6078H79.734C81.177 50.6078 81.4581 49.9799 81.4581 49.2028V45H83.5882V47.4993H85V49.2774H83.5882V52.5662H81.4581V51.671C81.127 52.0751 80.24 52.2119 79.5966 52.2119H74.8678C73.6372 52.2119 73.0062 51.7021 73.0062 50.2224V47.8412H78.0036V46.8216H73.0062V45.2176L73 45.2238ZM74.2306 53.0947H83.582V58H75.9422C74.7866 58 74.2306 57.3845 74.2306 56.2468V53.0885V53.0947ZM81.4519 56.4022V54.6987H76.3608V55.8489C76.3608 56.3152 76.4357 56.4022 76.873 56.4022H81.4519Z" fill="#2A3089"/>
<path d="M89.4432 48.0695C91.9405 48.0695 93.3416 49.2828 93.3416 50.9328C93.3416 52.3038 92.3622 53.3836 90.5978 53.7051V55.0215H92.7773C94.3016 55.0215 94.7881 54.336 94.7881 53.6505V45.3154H97V58H94.7881V56.0588C94.4314 56.3924 93.5751 56.6594 92.5762 56.6594H85V55.0275H88.3535V53.7294C86.5438 53.42 85.5968 52.3402 85.5968 50.9389C85.5968 49.2888 86.9395 48.0756 89.4497 48.0756L89.4432 48.0695ZM85.1881 46.1829H88.2887V45H90.5978V46.1829H93.6076V47.7602H85.1881V46.1829ZM89.4432 52.3766C90.5654 52.3766 91.2205 51.7639 91.2205 50.9328C91.2205 50.1017 90.5654 49.489 89.4432 49.489C88.3211 49.489 87.6984 50.1139 87.6984 50.9328C87.6984 51.7518 88.3211 52.3766 89.4432 52.3766Z" fill="#2A3089"/>
<path d="M13.0382 79.7151L16.5731 76.3507C17.584 75.3575 18.1054 74.7741 18.1054 73.9423C18.1054 73.0236 17.3679 72.4463 16.3951 72.4463C15.3651 72.4463 14.7039 73.0795 14.7103 74.0788H13C12.9937 72.2104 14.4178 71 16.4142 71C18.4105 71 19.8347 72.2042 19.8411 73.8616C19.8347 74.9727 19.2943 75.8728 17.3297 77.7039L15.5495 79.4482V79.5164H20V81H13.0509V79.7213L13.0382 79.7151Z" fill="black"/>
<path d="M21 76.5C20.9934 73.0086 22.5033 71 25 71C27.4967 71 29 73.0086 29 76.5C29 79.9914 27.5033 82 25 82C22.4967 82 20.9934 80.0049 21 76.5ZM25 80.3891C26.3046 80.3824 27.1126 79.0748 27.1126 76.5C27.106 73.9455 26.298 72.6042 25 72.5974C23.6954 72.6042 22.8941 73.9522 22.8874 76.5C22.8874 79.0748 23.6954 80.3824 25 80.3891Z" fill="black"/>
<path d="M30.0382 79.7151L33.5731 76.3507C34.584 75.3575 35.1054 74.7741 35.1054 73.9423C35.1054 73.0236 34.3679 72.4463 33.3951 72.4463C32.3651 72.4463 31.7039 73.0795 31.7103 74.0788H30C29.9937 72.2104 31.4178 71 33.4142 71C35.4105 71 36.8347 72.2042 36.8411 73.8616C36.8347 74.9727 36.2943 75.8728 34.3297 77.7039L32.5495 79.4482V79.5164H37V81H30.0509V79.7213L30.0382 79.7151Z" fill="black"/>
<path d="M38 77.696L42.3942 71H44.6688V77.6583H46V79.1372H44.6688V81H42.9305V79.1372H38V77.7023V77.696ZM42.9564 77.6583V73.0453H42.8465L39.8675 77.5891V77.6583H42.9564Z" fill="black"/>
<path d="M46.0002 79.9941C45.9943 79.4529 46.4525 79.0059 47.0061 79C47.5417 79.0059 48 79.4529 48 79.9941C48 80.5353 47.5417 81 47.0061 81C46.4704 81 45.9883 80.5471 46.0002 79.9941Z" fill="black"/>
<path d="M53 80.9937H51.2753V72.7495H51.2209L49 74.241V72.5985L51.354 71H53V81V80.9937Z" fill="black"/>
<path d="M55 76.5C54.9934 73.0086 56.5033 71 59 71C61.4967 71 63 73.0086 63 76.5C63 79.9914 61.5033 82 59 82C56.4967 82 54.9934 80.0049 55 76.5ZM59 80.3891C60.3046 80.3824 61.1126 79.0748 61.1126 76.5C61.106 73.9455 60.298 72.6042 59 72.5974C57.6954 72.6042 56.8941 73.9522 56.8874 76.5C56.8874 79.0748 57.6954 80.3824 59 80.3891Z" fill="black"/>
<path d="M63.0002 79.9941C62.9943 79.4529 63.4525 79.0059 64.0061 79C64.5417 79.0059 65 79.4529 65 79.9941C65 80.5353 64.5417 81 64.0061 81C63.4704 81 62.9883 80.5471 63.0002 79.9941Z" fill="black"/>
<path d="M67.0382 79.7151L70.5731 76.3507C71.584 75.3575 72.1054 74.7741 72.1054 73.9423C72.1054 73.0236 71.3679 72.4463 70.3951 72.4463C69.3651 72.4463 68.7039 73.0795 68.7103 74.0788H67C66.9937 72.2104 68.4178 71 70.4142 71C72.4105 71 73.8347 72.2042 73.8411 73.8616C73.8347 74.9727 73.2943 75.8728 71.3297 77.7039L69.5495 79.4482V79.5164H74V81H67.0509V79.7213L67.0382 79.7151Z" fill="black"/>
<path d="M75 78.9602H76.7065C76.7544 79.8162 77.5089 80.3891 78.4909 80.3823C79.5267 80.3891 80.2752 79.742 80.2752 78.7849C80.2752 77.8278 79.5447 77.1336 78.3232 77.1268H77.4789V75.6507H78.3232C79.3232 75.6507 80.0237 75.0172 80.0118 74.0803C80.0177 73.1771 79.419 72.5705 78.5028 72.5705C77.5867 72.5705 76.8562 73.1299 76.8263 74.0331H75.1976C75.2335 72.2335 76.6766 71 78.5148 71C80.3531 71 81.6644 72.3278 81.6524 73.9724C81.6644 75.1722 80.9638 76.0349 79.9339 76.2776V76.3652C81.2632 76.5674 82.0177 77.5312 81.9997 78.8793C82.0117 80.6924 80.5207 82 78.4849 82C76.449 82 75.0359 80.7598 75 78.9534V78.9602Z" fill="black"/>
<path d="M83.0002 79.9941C82.9943 79.4529 83.4525 79.0059 84.0061 79C84.5417 79.0059 85 79.4529 85 79.9941C85 80.5353 84.5417 81 84.0061 81C83.4704 81 82.9883 80.5471 83.0002 79.9941Z" fill="black"/>
<path d="M89.2215 70H91C89.9779 71.4506 88.9557 74.3783 88.9557 76.9933C88.9557 79.6084 89.9779 82.5428 91 84H89.2215C87.8313 82.0304 87 79.7414 87 76.9933C87 74.2452 87.8313 71.9563 89.2215 70Z" fill="black"/>
<path d="M91 76.4187H102V77.6813H97.2067V82H95.738V77.6813H91V76.4187ZM101.564 74.1125L100.974 75.3437C98.9274 75.0312 97.2927 73.9938 96.5061 72.5938C95.7195 73.9938 94.0972 75.0312 92.0693 75.3437L91.4793 74.1125C94.0296 73.7687 95.7257 72.2 95.7257 70.6313V70H97.2866V70.6313C97.2804 72.1875 98.9827 73.7687 101.558 74.1125H101.564Z" fill="black"/>
<path d="M104.779 84H103C104.022 82.5428 105.044 79.6084 105.044 76.9933C105.044 74.3783 104.022 71.4506 103 70H104.779C106.169 71.9563 107 74.2519 107 76.9933C107 79.7348 106.169 82.0304 104.779 84Z" fill="black"/>
<path d="M92 3H96L94.5755 0L92 3Z" fill="#826021"/>
<path d="M104 0H94V15H104V0Z" fill="#B48911"/>
<path d="M94 20V15H100" fill="#B48911"/>
<path d="M104 20V15H98" fill="#B48911"/>
<path d="M37.1839 98.4893H39.7154V94H41V106H39.7154V99.5188H37.1965C37.0517 101.858 35.8174 103.308 34.1046 103.302C32.2784 103.308 30.9875 101.675 31.0001 99.0924C30.9875 96.534 32.2784 94.9015 34.1046 94.8954C35.7733 94.9015 36.9824 96.2782 37.1839 98.4893ZM34.1046 102.169C35.2129 102.169 35.9749 100.999 35.9812 99.0924C35.9749 97.2162 35.2129 96.0406 34.1046 96.0345C32.9963 96.0406 32.2343 97.2162 32.228 99.0924C32.2343 100.999 32.9963 102.169 34.1046 102.169Z" fill="black"/>
<path d="M43 98.9522H54V99.9813H49.1228V101.035H52.6118V103.911H45.5842V105.002H52.9527V106H44.3324V102.963H51.3476V102.002H44.32V101.029H47.8462V99.9751H43V98.946V98.9522ZM52.8039 96.1081C52.7977 97.4865 51.2175 98.2287 48.4969 98.2287C45.7763 98.2287 44.1837 97.4803 44.1899 96.1081C44.1837 94.7547 45.7763 93.9938 48.4969 94C51.2175 93.9938 52.7977 94.7547 52.8039 96.1081ZM48.4969 97.2557C50.4304 97.2495 51.4901 96.8691 51.4839 96.1081C51.4901 95.3909 50.4242 94.9792 48.4969 94.973C46.5758 94.9792 45.5161 95.3909 45.5223 96.1081C45.5161 96.8691 46.582 97.2495 48.4969 97.2557Z" fill="black"/>
<path d="M55 94.7179H60.8998V98.1403H56.3579V99.607C58.6058 99.607 60.2472 99.5451 62.205 99.2419L62.3764 100.3C60.2802 100.603 58.5333 100.671 56.1009 100.665H55.0264V97.1377H59.555V95.7514H55V94.7179ZM56.5623 101.816H65V106H56.5623V101.816ZM63.6684 104.954V102.85H57.9136V104.954H63.6684ZM65 101.21H63.6421V94H65V101.21Z" fill="black"/>
<path d="M72.7037 102.991H67V95.1963H72.7037V102.991ZM71.4188 101.959V96.2035H68.2598V101.959H71.4188ZM74.747 94H76.0382V98.6999H78V99.7742H76.0382V106H74.747V94Z" fill="black"/>
<path d="M79 94.8925H84.5286V95.9256H80.2979V99.1961C82.7409 99.1839 84.1151 99.1166 85.6738 98.8049L85.801 99.838C84.1405 100.168 82.6645 100.229 79.9798 100.229H79V94.8925ZM84.2105 101.33C86.7426 101.336 88.3141 102.198 88.3141 103.665C88.3141 105.132 86.7363 106.006 84.2105 106C81.653 106.006 80.0497 105.15 80.0497 103.665C80.0497 102.179 81.653 101.336 84.2105 101.33ZM84.2105 104.979C85.9665 104.985 87.0544 104.496 87.0607 103.665C87.0544 102.833 85.9665 102.357 84.2105 102.363C82.4228 102.357 81.3412 102.833 81.3476 103.665C81.3412 104.496 82.4164 104.985 84.2105 104.979ZM88.2186 97.0504H90V98.0958H88.2186V101.097H86.889V94H88.2186V97.0443V97.0504Z" fill="black"/>
<path d="M21.0068 112C21.5442 112 22 112.369 22 112.835C22 113.301 21.551 113.676 21.0068 113.67C20.4626 113.676 20.0068 113.301 20 112.835C20.0068 112.369 20.4558 112 21.0068 112ZM20.2109 114.789H21.7959V122H20.2109V114.789Z" fill="black"/>
<path d="M24.4103 122H23V114.106H24.3617V115.397H24.4407C24.7751 114.55 25.4863 114 26.5562 114C28.0273 114 29.0061 115.026 29 116.98V121.993H27.6018V117.166C27.5957 116.02 27.0365 115.338 26.0821 115.338C25.1276 115.338 24.4164 116.06 24.4164 117.311V121.993L24.4103 122Z" fill="black"/>
<path d="M39.707 119.985H34V112.19H39.707V119.985ZM38.4213 118.953V113.197H35.2605V118.953H38.4213ZM41.7452 111H43.0371V115.7H45V116.774H43.0371V123H41.7452V111Z" fill="black"/>
<path d="M56 122H45V120.852H49.8272V118.148H45.963V117.084H47.7593V113.09H45.9321V112H54.9877V113.09H53.1482V117.084H54.9444V118.148H51.0803V120.852H55.9877V122H56ZM51.9074 117.084V113.09H49.0247V117.084H51.9074Z" fill="black"/>
<path d="M66.6002 113.031C66.6002 114.146 66.6002 115.351 66.2658 117.02H68V118.04H63.1132V123H61.8187V118.04H57V117.02H64.9651C65.3243 115.345 65.3243 114.122 65.3305 113.031V113.02H58.344V112H66.594V113.031H66.6002Z" fill="black"/>
<path d="M76.1613 116.842L75.5604 117.828C74.1747 117.432 73.1386 116.58 72.5868 115.471C72.0656 116.708 71.0294 117.688 69.6009 118.139L69 117.164C70.8148 116.586 71.9307 115.154 71.9307 113.607V113.461H69.3311V112.444H71.9307V111H73.1937V112.444H75.7811V113.461H73.1815V113.607C73.1815 115.02 74.3342 116.336 76.1551 116.842H76.1613ZM74.9657 118.578C77.4611 118.584 78.9939 119.382 79 120.783C78.9939 122.196 77.4611 123.006 74.9657 123C72.4641 123.006 70.9252 122.19 70.9313 120.783C70.9252 119.382 72.4641 118.584 74.9657 118.578ZM74.9657 122.025C76.7192 122.019 77.7431 121.556 77.7492 120.783C77.7431 120.009 76.7192 119.564 74.9657 119.564C73.2121 119.564 72.176 120.003 72.1821 120.783C72.176 121.556 73.2121 122.019 74.9657 122.025ZM75.4132 114.405H77.6941V111.049H78.9571V118.304H77.6941V115.441H75.4132V114.399V114.405Z" fill="black"/>
<path d="M88 121.994H86.4601V113.517H86.4026L84 115.077V113.63L86.4984 112H88V122V121.994Z" fill="black"/>
<path d="M101 118.094H90V117.049H101V118.094ZM94.778 113.175H91.1031V112.155H94.8586V111H96.1228V112.155H99.8907V113.175H96.2034C96.3459 114.336 98.0068 115.204 100.405 115.399L100.015 116.377C97.9262 116.181 96.2344 115.485 95.4907 114.367C94.7346 115.485 93.0552 116.181 90.9792 116.377L90.5763 115.399C92.9685 115.204 94.6231 114.336 94.778 113.175ZM95.4907 118.992C98.1183 118.992 99.6428 119.701 99.649 121.002C99.6428 122.303 98.1121 123.006 95.4907 123C92.8507 123.006 91.3014 122.303 91.3014 121.002C91.3014 119.701 92.8507 118.992 95.4907 118.992ZM95.4907 122.035C97.3313 122.047 98.3724 121.686 98.3724 121.002C98.3724 120.318 97.3313 119.945 95.4907 119.945C93.6501 119.945 92.5904 120.318 92.5966 121.002C92.5904 121.686 93.6254 122.047 95.4907 122.035Z" fill="black"/>
</svg>
