<svg width="172" height="23" viewBox="0 0 172 23" fill="none" xmlns="http://www.w3.org/2000/svg">
<path d="M18.943 0.244133H23.1542C23.537 0.244133 23.789 0.316822 23.915 0.467048C24.041 0.617273 24.104 0.84988 24.104 1.16487V21.1885C24.104 21.518 24.041 21.7748 23.915 21.9493C23.789 22.1237 23.537 22.211 23.1542 22.211H18.943C18.5602 22.211 18.3082 22.1237 18.1822 21.9493C18.0562 21.7748 17.9932 21.5228 17.9932 21.1885V15.0098C16.6315 15.6253 14.6059 15.9984 11.9164 16.1293L11.7904 20.9365C11.7564 21.6149 11.4172 21.959 10.7679 21.959H6.30955C5.92672 21.959 5.68442 21.8717 5.57296 21.6973C5.46635 21.5228 5.41789 21.2708 5.43728 20.9365L5.66019 16.1777H1.4248C1.10981 16.1777 0.891744 16.0469 0.77544 15.7803L0.227845 14.5349C0.0630821 14.1376 0.169693 13.9389 0.552525 13.9389H10.1427C13.5155 13.9389 16.1275 13.5221 17.9884 12.6935V1.13579C17.9884 0.820805 18.0514 0.593044 18.1774 0.45251C18.3034 0.311977 18.5554 0.239286 18.9382 0.239286L18.943 0.244133ZM15.9288 5.40026H11.9939C11.9939 5.93332 12.0327 6.3743 12.1053 6.7329C12.178 7.09151 12.3525 7.49857 12.6287 7.95409C12.9049 8.40961 13.3605 8.82636 14.0001 9.19951C14.6398 9.57265 15.4733 9.91671 16.5055 10.2317C16.8544 10.3335 16.9465 10.5951 16.7817 11.0264L16.5588 11.7243C16.4425 12.0247 16.1517 12.1701 15.6865 12.1701C15.0566 12.1701 14.3975 12.1362 13.7191 12.0683C13.0358 12.0005 12.1877 11.8163 11.1652 11.5062C10.1427 11.2009 9.32376 10.789 8.71316 10.2753C6.98799 11.6855 4.48746 12.4415 1.21643 12.5432C0.901437 12.5432 0.683366 12.393 0.567063 12.0974L0.31992 11.448C0.135773 11.0167 0.227847 10.7599 0.596141 10.6775C3.75088 9.89733 5.3452 8.13824 5.37912 5.39541H2.01601C1.70103 5.39541 1.48295 5.26457 1.36665 4.99804L0.819056 3.75262C0.654292 3.35525 0.760903 3.15657 1.14374 3.15657H15.9385C16.1517 3.15657 16.302 3.19049 16.3747 3.25833C16.4473 3.32618 16.4861 3.44248 16.4861 3.60724V4.87689C16.4861 5.09496 16.4425 5.23549 16.3601 5.29849C16.2777 5.36634 16.1372 5.39541 15.9385 5.39541L15.9288 5.40026ZM13.2635 2.28914H4.76853C4.45354 2.28914 4.23547 2.15829 4.11917 1.89177L3.57157 0.646349C3.40681 0.248978 3.51342 0.050293 3.89625 0.050293H13.2635C13.4816 0.050293 13.627 0.0842144 13.6997 0.152058C13.7724 0.219902 13.8111 0.336206 13.8111 0.500969V1.77062C13.8111 1.98869 13.7675 2.12922 13.6851 2.19222C13.6028 2.26006 13.4622 2.29398 13.2635 2.29398V2.28914Z" fill="#004EA2"/>
<path d="M27.787 12.9646C26.9389 12.1408 26.5173 10.9729 26.5173 9.461C26.5173 7.94906 26.9389 6.79087 27.787 5.98643C28.635 5.182 30.0549 4.77979 32.0514 4.77979C35.4776 4.77979 37.3578 6.04943 37.697 8.59357H38.9473V5.9089C38.9473 5.68114 38.9909 5.51153 39.083 5.40976C39.175 5.30799 39.3592 5.25469 39.6354 5.25469H42.7029C42.9791 5.25469 43.1681 5.308 43.2554 5.41945C43.3474 5.52607 43.391 5.70052 43.391 5.92828V13.5898C43.391 13.8321 43.3474 14.0162 43.2554 14.1422C43.1633 14.2682 42.9791 14.3312 42.7029 14.3312H39.6354C39.3592 14.3312 39.1702 14.2682 39.083 14.1422C38.9909 14.0162 38.9473 13.8321 38.9473 13.5898V10.4108H37.6776C37.3142 12.9404 35.4388 14.2052 32.0514 14.2052C30.0549 14.2052 28.6302 13.7933 27.787 12.9695V12.9646ZM42.7078 21.4403H28.5817C28.3055 21.4403 28.1214 21.3773 28.0293 21.2513C27.9372 21.1253 27.8936 20.9411 27.8936 20.6988V16.1242L27.5301 15.3053C27.409 15.0048 27.4817 14.8497 27.7482 14.8497H31.7413C32.0175 14.8497 32.2065 14.903 32.2937 15.0145C32.3858 15.1211 32.4294 15.2907 32.4294 15.5233V16.6331H38.8552V16.1242L38.4918 15.3053C38.3706 15.0048 38.4433 14.8497 38.7098 14.8497H42.7029C42.9791 14.8497 43.1681 14.903 43.2554 15.0145C43.3474 15.1211 43.391 15.2907 43.391 15.5233V20.6988C43.391 20.9411 43.3474 21.1253 43.2554 21.2513C43.1633 21.3773 42.9791 21.4403 42.7029 21.4403H42.7078ZM31.1065 7.04286V11.9082C31.1065 12.1263 31.2179 12.3007 31.4409 12.4267C31.6638 12.5527 31.9109 12.6157 32.1774 12.6157C32.444 12.6157 32.6911 12.5527 32.914 12.4267C33.1369 12.3007 33.2484 12.1263 33.2484 11.9082V7.04286C33.2484 6.8151 33.1369 6.63579 32.914 6.50495C32.6911 6.37896 32.444 6.31596 32.1774 6.31596C31.9109 6.31596 31.6638 6.37896 31.4409 6.50495C31.2179 6.63095 31.1065 6.81025 31.1065 7.04286ZM32.4343 19.8072H38.8601V18.2662H32.4343V19.8072Z" fill="white"/>
<path d="M51.9491 20.4616H45.94C45.7123 20.4616 45.5524 20.3647 45.47 20.1708L45.0726 19.2646C44.9515 18.9739 45.029 18.8285 45.3101 18.8285H52.138C55.0069 18.8285 56.9356 18.0725 57.929 16.5606V5.90425C57.929 5.67649 57.9726 5.50689 58.0647 5.40512C58.1568 5.30335 58.3409 5.25005 58.6171 5.25005H61.6846C61.9609 5.25005 62.1499 5.30335 62.2371 5.41481C62.3292 5.52142 62.3728 5.69588 62.3728 5.92364V20.5197C62.3728 20.762 62.3292 20.9462 62.2371 21.0722C62.145 21.1982 61.9609 21.2612 61.6846 21.2612H58.6171C58.3409 21.2612 58.1519 21.1982 58.0647 21.0722C57.9726 20.9462 57.929 20.762 57.929 20.5197V18.4844C56.766 19.8025 54.7743 20.4616 51.9539 20.4616H51.9491ZM45.7026 11.1088C45.7026 9.0396 46.1484 7.49374 47.0352 6.47123C47.9269 5.44873 49.3565 4.93506 51.3288 4.93506C53.3011 4.93506 54.7403 5.44873 55.6514 6.47608C56.5576 7.50343 57.0131 9.0493 57.0131 11.104C57.0131 15.2425 55.1183 17.3117 51.3288 17.3117C47.5392 17.3117 45.7026 15.2425 45.7026 11.104V11.1088ZM50.408 7.33382V14.9226C50.408 15.2473 50.5631 15.4799 50.8781 15.6108C51.1931 15.7464 51.5032 15.7464 51.8134 15.6108C52.1235 15.4799 52.2786 15.2473 52.2786 14.9226V7.33382C52.2786 7.00914 52.1235 6.77653 51.8134 6.64569C51.5032 6.51485 51.1931 6.51485 50.8781 6.64569C50.5631 6.78138 50.408 7.00914 50.408 7.33382Z" fill="white"/>
<path d="M76.5908 7.18836H71.4347C71.2021 7.18836 71.047 7.09143 70.9647 6.8976L70.5673 5.9914C70.4461 5.70064 70.5237 5.55526 70.8047 5.55526H80.7729C81.0491 5.55526 81.2381 5.60856 81.3254 5.72002C81.4174 5.83148 81.4611 6.00109 81.4611 6.22885V11.1863C81.4611 12.5044 81.2527 13.6868 80.8359 14.7384C80.4192 15.7851 79.8716 16.6429 79.2028 17.3165C78.5292 17.99 77.7296 18.5619 76.7992 19.0319C75.8688 19.502 74.9335 19.8509 74.0031 20.0641C73.0727 20.2822 72.0889 20.4276 71.0616 20.5003C70.955 20.5003 70.8629 20.5003 70.7902 20.51C70.7175 20.5148 70.6497 20.5003 70.5915 20.4567C70.5334 20.413 70.4849 20.3452 70.4461 20.2483L70.2814 19.8509C70.1844 19.6086 70.262 19.4535 70.5188 19.3808C74.5749 18.1936 76.6005 15.4217 76.6005 11.0651V7.19805L76.5908 7.18836ZM83.3994 5.24512H86.467C86.7432 5.24512 86.9322 5.29842 87.0194 5.40988C87.1115 5.51649 87.1551 5.69095 87.1551 5.91871V20.5148C87.1551 20.7571 87.1115 20.9413 87.0194 21.0673C86.9273 21.1932 86.7432 21.2562 86.467 21.2562H83.3994C83.1232 21.2562 82.9342 21.1932 82.847 21.0673C82.7549 20.9413 82.7113 20.7571 82.7113 20.5148V5.89932C82.7113 5.67156 82.7549 5.50195 82.847 5.40019C82.9391 5.29842 83.1232 5.24512 83.3994 5.24512Z" fill="white"/>
<path d="M102.57 5.2452H105.638C105.914 5.2452 106.103 5.2985 106.19 5.40996C106.282 5.51657 106.326 5.69103 106.326 5.91879V20.5149C106.326 20.7572 106.282 20.9413 106.19 21.0673C106.098 21.1933 105.914 21.2563 105.638 21.2563H102.57C102.289 21.2563 102.105 21.1933 102.018 21.0673C101.926 20.9413 101.882 20.7572 101.882 20.5149V18.4457C100.709 19.8365 98.6885 20.5343 95.8197 20.5343H89.8106C89.5829 20.5343 89.423 20.4374 89.3406 20.2435L88.9432 19.3373C88.8221 19.0466 88.8996 18.9012 89.1807 18.9012H92.9945V17.0306C91.7733 16.8126 90.901 16.3813 90.3825 15.7416C89.8639 15.1019 89.6023 14.2733 89.6023 13.2556C89.6023 11.986 90.019 11.0216 90.8477 10.3577C91.6763 9.69866 93.1108 9.36913 95.1412 9.36913C97.1717 9.36913 98.6497 9.7035 99.5268 10.3674C100.404 11.0313 100.845 11.9957 100.845 13.2556C100.845 15.3152 99.711 16.5654 97.4479 17.0161V18.8333C99.6044 18.6298 101.087 17.8448 101.897 16.4927V5.9091C101.897 5.68134 101.94 5.51173 102.032 5.40996C102.124 5.3082 102.308 5.25489 102.585 5.25489L102.57 5.2452ZM100.68 8.96692H90.0966C89.8639 8.96692 89.7089 8.87 89.6265 8.67616L89.2291 7.76996C89.108 7.4792 89.1855 7.33382 89.4666 7.33382H100.685C100.84 7.33382 100.947 7.35805 101.005 7.40651C101.058 7.45497 101.087 7.54219 101.087 7.6585V8.58408C101.087 8.744 101.058 8.84576 100.995 8.89422C100.932 8.94268 100.83 8.96692 100.685 8.96692H100.68ZM98.5576 6.82499H92.1464C91.9186 6.82499 91.7587 6.72807 91.6763 6.53423L91.279 5.62803C91.1578 5.33727 91.2354 5.19189 91.5164 5.19189H98.5625C98.7176 5.19189 98.8242 5.21613 98.8823 5.26459C98.9356 5.31304 98.9647 5.40027 98.9647 5.51657V6.44216C98.9647 6.60208 98.9356 6.70384 98.8726 6.7523C98.8145 6.80076 98.7079 6.82499 98.5625 6.82499H98.5576ZM94.235 11.4917V15.068C94.235 15.3442 94.4046 15.5381 94.7438 15.6495C95.0831 15.7561 95.4223 15.7561 95.7615 15.6495C96.1007 15.5381 96.2703 15.3491 96.2703 15.068V11.4917C96.2703 11.2155 96.1007 11.0168 95.7615 10.9005C95.4223 10.7842 95.0831 10.7842 94.7438 10.9005C94.4046 11.0168 94.235 11.2106 94.235 11.4917Z" fill="white"/>
<path d="M125.138 14.3071H108.87C108.642 14.3071 108.482 14.2102 108.4 14.0164L108.003 13.1102C107.881 12.8194 107.959 12.674 108.24 12.674H125.143C125.298 12.674 125.404 12.6983 125.463 12.7467C125.516 12.7952 125.545 12.8824 125.545 12.9987V13.9243C125.545 14.0794 125.516 14.186 125.453 14.2344C125.39 14.2829 125.288 14.3071 125.143 14.3071H125.138ZM118.441 7.73599V6.88309H109.655C109.427 6.88309 109.267 6.78617 109.185 6.59234L108.788 5.68614C108.666 5.39538 108.744 5.25 109.025 5.25H123.66C123.936 5.25 124.125 5.3033 124.212 5.41476C124.304 5.52137 124.348 5.69583 124.348 5.92359V8.62765C124.348 8.86995 124.304 9.0541 124.212 9.18009C124.12 9.30609 123.936 9.36908 123.66 9.36908H115.053V10.2026H124.096C124.251 10.2026 124.358 10.2268 124.416 10.2753C124.469 10.3237 124.498 10.411 124.498 10.5273V11.4529C124.498 11.6128 124.469 11.7145 124.406 11.763C124.348 11.8115 124.241 11.8357 124.096 11.8357H109.844C109.568 11.8357 109.379 11.7727 109.292 11.6467C109.199 11.5207 109.156 11.3366 109.156 11.0943V9.00564L108.792 8.18666C108.671 7.88621 108.744 7.73114 109.01 7.73114H118.45L118.441 7.73599ZM118.732 17.428V16.7204H109.742C109.51 16.7204 109.355 16.6235 109.272 16.4297L108.875 15.5235C108.754 15.2327 108.831 15.0873 109.112 15.0873H123.674C123.951 15.0873 124.14 15.1406 124.227 15.2521C124.319 15.3636 124.363 15.5332 124.363 15.7609V18.3196C124.363 18.5619 124.319 18.7461 124.227 18.8721C124.135 18.9981 123.951 19.061 123.674 19.061H114.869V19.8073H124.256C124.411 19.8073 124.518 19.8316 124.576 19.88C124.629 19.9285 124.658 20.0109 124.658 20.132V21.0576C124.658 21.2127 124.629 21.3193 124.566 21.3677C124.503 21.4162 124.401 21.4404 124.256 21.4404H109.931C109.65 21.4404 109.466 21.3774 109.379 21.2514C109.287 21.1254 109.243 20.9413 109.243 20.699V18.7024L108.88 17.8835C108.759 17.583 108.831 17.428 109.098 17.428H118.736H118.732Z" fill="white"/>
<path d="M140.558 19.2985C140.916 19.6619 141.508 19.8461 142.336 19.8461C143.165 19.8461 143.766 19.6571 144.129 19.2839C144.493 18.9108 144.677 18.1015 144.677 16.8561V1.38772C144.677 1.07273 144.74 0.844967 144.866 0.704433C144.992 0.5639 145.244 0.491211 145.627 0.491211H149.785C150.167 0.491211 150.419 0.5639 150.545 0.714126C150.671 0.864351 150.734 1.09696 150.734 1.41195V15.5331C150.734 16.8125 150.531 17.8931 150.124 18.7703C149.717 19.6522 149.116 20.3258 148.316 20.8007C147.522 21.2756 146.644 21.61 145.69 21.8087C144.735 22.0074 143.621 22.1091 142.341 22.1091C141.062 22.1091 139.942 22.0122 138.978 21.8087C138.014 21.61 137.137 21.2708 136.352 20.8007C135.562 20.3258 134.961 19.6522 134.544 18.7703C134.127 17.8883 133.924 16.8125 133.924 15.5331V1.38772C133.924 1.07273 133.987 0.844967 134.113 0.704433C134.239 0.5639 134.491 0.491211 134.874 0.491211H139.085C139.468 0.491211 139.72 0.5639 139.845 0.714126C139.971 0.864351 140.034 1.09696 140.034 1.41195V16.8561C140.034 18.116 140.214 18.9302 140.568 19.2985H140.558Z" fill="#004EA2"/>
<path d="M154.916 0.491211H164.381C166.707 0.491211 168.49 1.04365 169.735 2.14854C170.981 3.25342 171.601 5.0852 171.601 7.63904C171.601 10.4449 170.932 12.4753 169.595 13.7304C168.257 14.9855 166.334 15.6107 163.828 15.6107H160.068V20.6893C160.068 21.0236 160.005 21.2756 159.879 21.4501C159.753 21.6245 159.501 21.7118 159.118 21.7118H154.907C154.524 21.7118 154.272 21.6245 154.146 21.4501C154.02 21.2756 153.957 21.0236 153.957 20.6893V1.38772C153.957 1.07273 154.02 0.844967 154.146 0.704433C154.272 0.5639 154.524 0.491211 154.907 0.491211H154.916ZM161.866 2.7349H160.073V13.3718H161.866C163.145 13.3718 164.037 12.8872 164.545 11.9132C165.049 10.944 165.306 9.49989 165.306 7.59057C165.306 5.87994 165.035 4.64422 164.497 3.87855C163.959 3.11289 163.082 2.7349 161.87 2.7349H161.866Z" fill="#004EA2"/>
</svg>
