<svg width="134" height="26" viewBox="0 0 134 26" fill="none" xmlns="http://www.w3.org/2000/svg">
<path d="M120.292 25.9872H12.9976C5.82151 25.9872 0 20.1657 0 12.9896C0 5.81345 5.82151 0 12.9976 0H120.301C127.477 0 133.29 5.81345 133.29 12.9896C133.29 20.1657 127.477 25.9791 120.301 25.9791L120.292 25.9872Z" fill="#003668"/>
<path d="M29.4787 10.3852C29.4787 12.5541 27.6484 13.9974 25.0763 14.2796V16.7308H30.6559V18.3837H17.5615V16.7308H23.0766V14.2796C20.5207 13.9894 18.7065 12.538 18.7065 10.3852C18.7065 8.02272 21.0125 6.46655 24.0845 6.46655C27.1565 6.46655 29.4706 8.02272 29.4787 10.3852ZM24.0845 12.7477C26.1003 12.7477 27.4871 11.901 27.4952 10.3852C27.4952 8.94997 26.0922 8.06303 24.0845 8.0711C22.0768 8.0711 20.69 8.94997 20.69 10.3852C20.69 11.901 22.0849 12.7396 24.0845 12.7477Z" fill="white"/>
<path d="M44.2584 18.3917H31.1641V16.7227H44.2584V18.3917ZM32.18 6.98254H43.1538V8.58709H41.138V12.9331H43.0893V14.5054H32.2364V12.9331H34.1554V8.58709H32.1719V6.98254H32.18ZM39.1626 12.9411V8.59515H36.1712V12.9411H39.1626Z" fill="white"/>
<path d="M45.3306 6.92612H51.9503V12.4816H47.3463V15.0779C49.4266 15.0779 51.1521 14.973 53.055 14.6505L53.2243 16.2551C51.0392 16.6582 49.0718 16.7469 46.5561 16.7469H45.3467V10.8851H49.9507V8.53873H45.3306V6.91806V6.92612ZM56.0383 11.1431H58.1427V12.796H56.0383V20.085H54.0548V5.72473H56.0383V11.1431Z" fill="white"/>
<path d="M62.4806 6.65197C64.6738 6.65197 66.3912 8.15976 66.3993 10.2561C66.3993 12.3929 64.6738 13.8926 62.4806 13.8926C60.2875 13.8926 58.562 12.3848 58.562 10.2561C58.562 8.1275 60.2794 6.64391 62.4806 6.65197ZM62.4806 12.151C63.5692 12.151 64.4077 11.4575 64.4158 10.2642C64.4158 9.09507 63.5692 8.40165 62.4806 8.40971C61.3599 8.40971 60.5133 9.10313 60.5294 10.2642C60.5133 11.4575 61.3518 12.151 62.4806 12.151ZM60.739 15.0053H62.7709V18.1982H70.713V19.8028H60.7471V14.9972L60.739 15.0053ZM70.326 16.0373H68.3102V5.74084H70.326V16.0373Z" fill="white"/>
<path d="M75.7524 6.62779H77.7521V8.53067H80.679V6.62779H82.6947V13.5862H75.7605V6.62779H75.7524ZM77.0425 14.973H86.6779V20.0608H84.6621V16.5615H77.0345V14.973H77.0425ZM80.6709 11.9978V10.0949H77.744V11.9978H80.6709ZM86.6779 9.24022H88.613V10.8609H86.6779V14.3441H84.6621V5.72473H86.6779V9.24022Z" fill="white"/>
<path d="M89.4272 6.43427H95.9986V10.7964H91.4349V12.0865C93.7974 12.0703 95.3939 11.9978 97.2242 11.6752L97.4419 13.2475C95.3939 13.6507 93.5475 13.7233 90.6528 13.7233H89.4434V9.28052H94.0474V8.03881H89.4272V6.43427ZM90.9028 14.844H100.272V19.8995H90.9028V14.844ZM98.3127 18.295V16.4244H92.8702V18.295H98.3127ZM100.272 9.12732H102.207V10.7964H100.272V14.2473H98.2563V5.74084H100.272V9.12732Z" fill="white"/>
<path d="M106.231 15.9729V14.7634C104.666 14.4812 103.642 13.5056 103.651 12.159C103.651 10.5626 105.094 9.46598 107.206 9.46598C109.319 9.46598 110.81 10.5626 110.81 12.159C110.81 13.4975 109.786 14.4731 108.214 14.7634V15.9083C109.416 15.8519 110.617 15.7552 111.77 15.61L111.915 17.0936C108.779 17.6338 105.408 17.6661 102.86 17.658L102.594 16.0212C103.691 16.0212 104.941 16.0212 106.239 15.9809L106.231 15.9729ZM102.86 7.31315H106.223V5.78924H108.222V7.31315H111.552V8.88544H102.86V7.31315ZM107.206 13.3201C108.214 13.3201 108.891 12.9089 108.891 12.151C108.891 11.393 108.214 10.9899 107.206 10.9818C106.231 10.9818 105.545 11.4092 105.553 12.151C105.553 12.9089 106.231 13.3201 107.206 13.3201ZM114.544 20.0608H112.544V5.72473H114.544V20.0528V20.0608Z" fill="white"/>
</svg>
