<svg width="160" height="31" viewBox="0 0 160 31" fill="none" xmlns="http://www.w3.org/2000/svg">
<path d="M144.405 31H15.5951C6.98443 31 0 24.0601 0 15.4957C0 6.93992 6.98443 0 15.5951 0H144.405C153.016 0 160 6.93992 160 15.4957C160 24.0516 153.016 30.9915 144.405 30.9915V31Z" fill="#003668"/>
<path d="M35.5542 12.6053C35.5455 15.1507 33.3157 16.8505 30.1802 17.1854V20.0574H37V22H21V20.0574H27.7414V17.1854C24.6233 16.8421 22.4023 15.1423 22.4023 12.6053C22.4023 9.83373 25.2156 8 28.9695 8C32.7235 8 35.5455 9.83373 35.5542 12.6053ZM28.9695 15.3768C31.4257 15.3684 33.1241 14.3804 33.1415 12.6053C33.1328 10.9222 31.4344 9.8756 28.9695 9.88397C26.522 9.8756 24.8236 10.9222 24.8236 12.6053C24.8236 14.3804 26.522 15.3684 28.9695 15.3768Z" fill="white"/>
<path d="M53 21H37V19.0976H53V21ZM38.2542 8H51.6587V9.82927H49.2025V14.7886H51.5803V16.5854H38.3239V14.7886H40.6669V9.82927H38.2455V8H38.2542ZM46.7812 14.7886V9.82927H43.1317V14.7886H46.7812Z" fill="white"/>
<path d="M54.0083 8.41737H61.746V14.998H56.3596V18.069C58.7943 18.0605 60.8121 17.9509 63.03 17.5628L63.2301 19.461C60.6704 19.9335 58.3774 20.0347 55.4341 20.0347H54.0167V13.0998H59.403V10.3241H54V8.40893L54.0083 8.41737ZM66.532 13.4119H69V15.3692H66.532V24H64.214V7H66.532V13.4119Z" fill="white"/>
<path d="M74.8356 8.09538C77.5484 8.08676 79.6624 9.91527 79.6712 12.4597C79.6624 15.0386 77.5484 16.8584 74.8356 16.8584C72.1227 16.8584 70 15.0386 70 12.4597C70 9.88077 72.1139 8.08676 74.8356 8.09538ZM74.8356 14.7453C76.1744 14.7453 77.2137 13.9087 77.2225 12.4597C77.2137 11.0538 76.1744 10.1999 74.8356 10.2085C73.4439 10.1999 72.4046 11.0452 72.431 12.4597C72.4134 13.9087 73.4527 14.7453 74.8356 14.7453ZM72.6864 18.1953H75.1879V22.0594H85V24H72.6864V18.1867V18.1953ZM84.5332 19.4546H82.0493V7H84.5332V19.4546Z" fill="white"/>
<path d="M91 8.06567H93.3294V10.3239H96.7404V8.06567H99.0865V16.3204H91V8.06567ZM92.5058 17.9697H103.754V24H101.408V19.8557H92.5141V17.9697H92.5058ZM96.7404 14.4343V12.1761H93.3294V14.4343H96.7404ZM103.745 11.1697H106V13.0896H103.745V17.2169H101.399V7H103.745V11.1697Z" fill="white"/>
<path d="M107 7.83031H114.713V13.069H109.359V14.6183C112.128 14.6012 114.011 14.5156 116.152 14.1304L116.412 16.0222C114.002 16.5015 111.844 16.5871 108.439 16.5871H107.017V11.2543H112.421V9.76485H107V7.83887V7.83031ZM108.74 17.931H119.733V24H108.74V17.931ZM117.424 22.074V19.8228H111.041V22.074H117.424ZM119.733 11.066H122V13.069H119.733V17.212H117.374V7H119.733V11.066Z" fill="white"/>
<path d="M127.272 19.1537V17.7159C125.445 17.3776 124.243 16.2189 124.251 14.6204C124.243 12.7259 125.945 11.4234 128.406 11.4234C130.868 11.4234 132.62 12.7174 132.62 14.6204C132.62 16.2104 131.427 17.3692 129.583 17.7159V19.0692C130.993 19.0015 132.395 18.8915 133.738 18.7139L133.905 20.4731C130.234 21.1159 126.287 21.1582 123.309 21.1498L123 19.2045C124.277 19.196 125.745 19.196 127.272 19.1537ZM123.334 8.88607H127.272V7.07612H129.608V8.88607H133.504V10.7552H123.334V8.88607ZM128.415 16.0075C129.591 16.0075 130.384 15.5254 130.384 14.6289C130.384 13.7323 129.591 13.2587 128.415 13.2502C127.272 13.2587 126.471 13.7577 126.479 14.6289C126.471 15.5254 127.272 16.0075 128.415 16.0075ZM137 24H134.664V7H137V24Z" fill="white"/>
</svg>
