<svg width="483" height="130" viewBox="0 0 483 130" fill="none" xmlns="http://www.w3.org/2000/svg">
<g clip-path="url(#clip0_1_183)">
<path d="M18.2612 35.1073H4.02626C2.7452 35.1073 1.83811 34.8366 1.30499 34.3032C0.771878 33.7699 0.501343 32.8623 0.501343 31.5806V27.64C0.501343 26.9554 0.557041 26.3663 0.660481 25.8648C0.763921 25.3632 0.946931 24.9095 1.20155 24.5035C1.45617 24.0975 1.79037 23.7392 2.19617 23.4288C2.60197 23.1183 3.10326 22.8158 3.70003 22.5133L11.5376 18.5727C12.0309 18.3418 12.3413 18.0393 12.4686 17.6731C12.5959 17.3069 12.6595 16.9168 12.6595 16.4869V14.4092C12.6595 13.9156 12.572 13.5812 12.389 13.3981C12.206 13.215 11.8718 13.1275 11.3785 13.1275H0.978759V8.48633H13.1449C16.3436 8.48633 17.9429 10.0865 17.9429 13.2867V17.3228C17.9429 18.0075 17.8872 18.5966 17.7838 19.0981C17.6804 19.5996 17.4973 20.0454 17.2427 20.4435C16.9881 20.8415 16.6539 21.1997 16.2481 21.5182C15.8423 21.8366 15.341 22.1471 14.7443 22.4496L6.90667 26.3902C6.41334 26.621 6.10302 26.9395 5.97571 27.3375C5.8484 27.7356 5.78475 28.1416 5.78475 28.5714V29.5029C5.78475 29.9089 5.84044 30.1716 5.9598 30.291C6.07915 30.4104 6.34173 30.4661 6.74753 30.4661H18.2692V35.1073H18.2612Z" fill="#231815"/>
<path d="M39.6097 27.7116C39.6097 28.8022 39.4505 29.8053 39.1322 30.7207C38.814 31.6362 38.3445 32.4323 37.7239 33.109C37.1032 33.7777 36.3394 34.3031 35.4164 34.6773C34.5013 35.0514 33.443 35.2345 32.2495 35.2345H28.4063C27.2128 35.2345 26.1545 35.0514 25.2394 34.6773C24.3244 34.3031 23.5526 33.7777 22.9319 33.109C22.3113 32.4403 21.8418 31.6442 21.5236 30.7207C21.2053 29.8053 21.0461 28.8022 21.0461 27.7116V15.8977C21.0461 14.8071 21.2053 13.804 21.5236 12.8885C21.8418 11.973 22.3113 11.177 22.9319 10.5003C23.5526 9.82362 24.3164 9.30617 25.2394 8.93201C26.1545 8.55785 27.2128 8.37476 28.4063 8.37476H32.2495C33.443 8.37476 34.5013 8.56582 35.4164 8.93201C36.3314 9.30617 37.1032 9.83158 37.7239 10.5003C38.3445 11.169 38.814 11.9651 39.1322 12.8885C39.4505 13.804 39.6097 14.8071 39.6097 15.8977V27.7116ZM31.4538 30.5934C32.4962 30.5934 33.2441 30.3068 33.6818 29.7416C34.1194 29.1763 34.3342 28.444 34.3342 27.5523V16.0569C34.3342 15.1574 34.1114 14.4329 33.6818 13.8598C33.2441 13.2945 32.5041 13.0079 31.4538 13.0079H29.21C28.1676 13.0079 27.4196 13.2945 26.982 13.8598C26.5444 14.425 26.3295 15.1574 26.3295 16.0569V27.5523C26.3295 28.4519 26.5444 29.1763 26.982 29.7416C27.4196 30.3068 28.1596 30.5934 29.21 30.5934H31.4538Z" fill="#231815"/>
<path d="M60.1942 35.1073H45.9513C44.6702 35.1073 43.7632 34.8366 43.23 34.3032C42.6969 33.7699 42.4264 32.8623 42.4264 31.5806V27.64C42.4264 26.9554 42.4821 26.3663 42.5855 25.8648C42.689 25.3632 42.872 24.9095 43.1266 24.5035C43.3812 24.0975 43.7154 23.7392 44.1212 23.4288C44.527 23.1183 45.0283 22.8158 45.6251 22.5133L53.4627 18.5727C53.956 18.3418 54.2663 18.0393 54.3936 17.6731C54.5209 17.3069 54.5846 16.9168 54.5846 16.4869V14.4092C54.5846 13.9156 54.4971 13.5812 54.314 13.3981C54.131 13.215 53.7968 13.1275 53.3035 13.1275H42.9038V8.48633H55.07C58.2686 8.48633 59.868 10.0865 59.868 13.2867V17.3228C59.868 18.0075 59.8123 18.5966 59.7088 19.0981C59.6054 19.5996 59.4224 20.0454 59.1678 20.4435C58.9132 20.8415 58.579 21.1997 58.1732 21.5182C57.7674 21.8366 57.2661 22.1471 56.6693 22.4496L48.8317 26.3902C48.3384 26.621 48.0281 26.9395 47.9008 27.3375C47.7735 27.7356 47.7098 28.1416 47.7098 28.5714V29.5029C47.7098 29.9089 47.7655 30.1716 47.8848 30.291C48.0042 30.4104 48.2668 30.4661 48.6726 30.4661H60.1942V35.1073Z" fill="#231815"/>
<path d="M79.8797 35.1071H74.5963V29.6938H63.8704C62.5893 29.6938 61.9528 29.0569 61.9528 27.7752V26.0477C61.9528 25.6178 61.9846 25.2914 62.0482 25.0526C62.1119 24.8218 62.2472 24.5431 62.462 24.2167L72.8299 8.49414H79.8718V25.0526H82.593V29.6938H79.8718V35.1071H79.8797ZM74.5963 25.0526V13.9075L67.3316 25.0526H74.5963Z" fill="#231815"/>
<path d="M88.68 36.0385C88.68 36.4445 88.6244 36.7072 88.505 36.8266C88.3856 36.946 88.1231 37.0018 87.7173 37.0018H84.5186C84.1128 37.0018 83.8502 36.946 83.7308 36.8266C83.6115 36.7072 83.5558 36.4445 83.5558 36.0385V32.8383C83.5558 32.4323 83.6115 32.1695 83.7308 32.0501C83.8502 31.9307 84.1128 31.875 84.5186 31.875H87.7173C88.1231 31.875 88.3856 31.9307 88.505 32.0501C88.6244 32.1695 88.68 32.4323 88.68 32.8383V36.0385Z" fill="#231815"/>
<path d="M117.349 36.2853H110.18V5.82722H104.101V0.175049H115.614C116.776 0.175049 117.349 0.756188 117.349 1.91051V36.2853Z" fill="#F18900"/>
<path d="M153.052 26.2468C153.052 27.7275 152.837 29.0888 152.399 30.3307C151.962 31.5805 151.325 32.6552 150.489 33.5707C149.646 34.4862 148.604 35.1947 147.362 35.6963C146.121 36.2058 144.681 36.4605 143.066 36.4605H137.854C136.231 36.4605 134.798 36.2058 133.557 35.6963C132.316 35.1868 131.273 34.4783 130.43 33.5707C129.587 32.6552 128.95 31.5805 128.52 30.3307C128.083 29.0888 127.868 27.7195 127.868 26.2468V10.2137C127.868 8.73301 128.083 7.37171 128.52 6.12982C128.958 4.88794 129.595 3.80527 130.43 2.88977C131.273 1.97428 132.316 1.26577 133.557 0.764238C134.798 0.254746 136.239 0 137.854 0H143.066C144.689 0 146.121 0.254746 147.362 0.764238C148.604 1.27373 149.646 1.98224 150.489 2.88977C151.333 3.80527 151.969 4.87997 152.399 6.12982C152.837 7.37967 153.052 8.74097 153.052 10.2137V26.2468ZM141.976 30.1635C143.392 30.1635 144.402 29.7814 144.991 29.0092C145.588 28.2449 145.882 27.2498 145.882 26.0318V10.4287C145.882 9.21066 145.588 8.22351 144.991 7.45132C144.394 6.68708 143.392 6.297 141.976 6.297H138.936C137.52 6.297 136.509 6.67912 135.92 7.45132C135.324 8.21555 135.029 9.21066 135.029 10.4287V26.0318C135.029 27.2498 135.324 28.2449 135.92 29.0092C136.517 29.7734 137.52 30.1635 138.936 30.1635H141.976Z" fill="#F18900"/>
<path d="M162.735 37.5511C162.735 38.1004 162.656 38.4586 162.497 38.6178C162.337 38.7771 161.979 38.8567 161.43 38.8567H157.086C156.537 38.8567 156.179 38.7771 156.02 38.6178C155.86 38.4586 155.781 38.1004 155.781 37.5511V33.2045C155.781 32.6552 155.86 32.297 156.02 32.1377C156.179 31.9785 156.537 31.8989 157.086 31.8989H161.43C161.979 31.8989 162.337 31.9785 162.497 32.1377C162.656 32.297 162.735 32.6552 162.735 33.2045V37.5511Z" fill="#F18900"/>
<path d="M199.655 36.2853H192.486V28.9374H177.933C176.198 28.9374 175.323 28.0697 175.323 26.3263V23.9779C175.323 23.3967 175.363 22.9509 175.45 22.6325C175.538 22.3141 175.729 21.9399 176.015 21.5021L190.099 0.175049H199.655V22.6404H203.347V28.9454H199.655V36.2932V36.2853ZM192.494 22.6404V7.51491L182.636 22.6404H192.494Z" fill="#F18900"/>
<path d="M211.599 37.5511C211.599 38.1004 211.519 38.4586 211.36 38.6178C211.201 38.7771 210.843 38.8567 210.294 38.8567H205.949C205.4 38.8567 205.042 38.7771 204.883 38.6178C204.724 38.4586 204.644 38.1004 204.644 37.5511V33.2045C204.644 32.6552 204.724 32.297 204.883 32.1377C205.042 31.9785 205.4 31.8989 205.949 31.8989H210.294C210.843 31.8989 211.201 31.9785 211.36 32.1377C211.519 32.297 211.599 32.6552 211.599 33.2045V37.5511Z" fill="#F18900"/>
<path d="M219.603 37.6387C219.031 37.1053 218.434 36.4446 217.829 35.6724C217.224 34.8922 216.635 33.9926 216.086 32.9657C215.529 31.9228 215.092 30.5138 214.774 28.7385C214.455 26.9632 214.296 24.7899 214.296 22.2027C214.296 19.8542 214.455 17.8401 214.774 16.1684C215.092 14.4966 215.529 13.1353 216.086 12.0845C216.643 11.0177 217.232 10.0704 217.861 9.25043C218.489 8.43047 219.118 7.72992 219.731 7.15674H224.051C223.089 8.18368 222.086 9.80769 221.044 12.0208C220.041 14.2657 219.54 17.6491 219.54 22.1708C219.54 27.2498 220.001 30.8401 220.916 32.9338C221.815 35.0912 222.834 36.6595 223.988 37.6387H219.603Z" fill="#231815"/>
<path d="M252.473 24.0019H225.269V19.8384H252.473V24.0019ZM250.938 33.9928C250.938 35.1232 250.699 35.9272 250.238 36.3969C249.768 36.8666 248.964 37.0975 247.835 37.0975H226.804V28.0381C226.804 27.0748 226.964 26.438 227.282 26.1195C227.6 25.8011 228.245 25.6419 229.199 25.6419H250.93V34.0007L250.938 33.9928ZM250.198 18.6841H244.883L245.487 12.8568C245.551 12.2597 245.249 11.9572 244.588 11.9572H226.956V7.85742H249.458C250.015 7.85742 250.437 8.01664 250.723 8.33507C251.009 8.6535 251.137 9.08339 251.089 9.61676L250.19 18.6762L250.198 18.6841ZM245.623 32.934V29.7974H232.12V32.934H245.623Z" fill="#231815"/>
<path d="M253.691 37.6387C254.654 36.6117 255.656 34.9877 256.699 32.7746C257.701 30.5297 258.203 27.1463 258.203 22.6246C258.203 17.5456 257.741 13.9553 256.826 11.8616C255.927 9.72808 254.908 8.1598 253.755 7.15674H258.139C258.712 7.69011 259.309 8.35086 259.913 9.12306C260.518 9.90322 261.099 10.8028 261.656 11.8297C262.213 12.8726 262.65 14.2817 262.969 16.0569C263.287 17.8322 263.446 20.0055 263.446 22.5927C263.446 24.9412 263.287 26.9553 262.969 28.627C262.65 30.3068 262.213 31.6601 261.656 32.7109C261.099 33.7777 260.51 34.725 259.881 35.545C259.253 36.3649 258.624 37.0655 258.012 37.6387H253.691Z" fill="#231815"/>
<path d="M287.77 35.1072H282.487V12.6657H278.007V8.5022H286.489C287.341 8.5022 287.77 8.93208 287.77 9.78389V35.1152V35.1072Z" fill="#231815"/>
<path d="M312.421 35.1071H307.138V29.6938H296.412C295.131 29.6938 294.494 29.0569 294.494 27.7752V26.0477C294.494 25.6178 294.526 25.2914 294.59 25.0526C294.653 24.8218 294.788 24.5431 295.003 24.2167L305.371 8.49414H312.413V25.0526H315.134V29.6938H312.413V35.1071H312.421ZM307.138 25.0526V13.9075L299.873 25.0526H307.138Z" fill="#231815"/>
<path d="M321.667 16.9885C321.667 17.3945 321.611 17.6572 321.492 17.7766C321.373 17.896 321.11 17.9517 320.704 17.9517H317.506C317.1 17.9517 316.837 17.896 316.718 17.7766C316.598 17.6572 316.543 17.3945 316.543 16.9885V13.7882C316.543 13.3822 316.598 13.1195 316.718 13.0001C316.837 12.8807 317.1 12.825 317.506 12.825H320.704C321.11 12.825 321.373 12.8807 321.492 13.0001C321.611 13.1195 321.667 13.3822 321.667 13.7882V16.9885ZM321.667 29.471C321.667 29.877 321.611 30.1397 321.492 30.2591C321.373 30.3785 321.11 30.4343 320.704 30.4343H317.506C317.1 30.4343 316.837 30.3785 316.718 30.2591C316.598 30.1397 316.543 29.877 316.543 29.471V26.2708C316.543 25.8648 316.598 25.602 316.718 25.4826C316.837 25.3632 317.1 25.3075 317.506 25.3075H320.704C321.11 25.3075 321.373 25.3632 321.492 25.4826C321.611 25.602 321.667 25.8648 321.667 26.2708V29.471Z" fill="#231815"/>
<path d="M342.665 27.7116C342.665 28.8022 342.506 29.8053 342.188 30.7207C341.87 31.6362 341.4 32.4323 340.78 33.109C340.159 33.7777 339.395 34.3031 338.472 34.6773C337.557 35.0514 336.499 35.2345 335.305 35.2345H331.462C330.268 35.2345 329.21 35.0514 328.295 34.6773C327.38 34.3031 326.608 33.7777 325.988 33.109C325.367 32.4403 324.898 31.6442 324.579 30.7207C324.261 29.8053 324.102 28.8022 324.102 27.7116V15.8977C324.102 14.8071 324.261 13.804 324.579 12.8885C324.898 11.973 325.367 11.177 325.988 10.5003C326.608 9.83158 327.372 9.30617 328.295 8.93201C329.21 8.55785 330.268 8.37476 331.462 8.37476H335.305C336.499 8.37476 337.557 8.56582 338.472 8.93201C339.387 9.30617 340.159 9.83158 340.78 10.5003C341.4 11.169 341.87 11.9651 342.188 12.8885C342.506 13.804 342.665 14.8071 342.665 15.8977V27.7116ZM334.502 30.5934C335.544 30.5934 336.292 30.3068 336.729 29.7416C337.167 29.1763 337.382 28.444 337.382 27.5523V16.0569C337.382 15.1574 337.159 14.4329 336.729 13.8598C336.292 13.2945 335.552 13.0079 334.502 13.0079H332.258C331.215 13.0079 330.467 13.2945 330.03 13.8598C329.592 14.425 329.377 15.1574 329.377 16.0569V27.5523C329.377 28.4519 329.592 29.1763 330.03 29.7416C330.467 30.3068 331.207 30.5934 332.258 30.5934H334.502Z" fill="#231815"/>
<path d="M363.624 27.7116C363.624 28.8022 363.465 29.8053 363.146 30.7207C362.828 31.6362 362.359 32.4323 361.738 33.109C361.117 33.7777 360.354 34.3031 359.431 34.6773C358.516 35.0514 357.457 35.2345 356.264 35.2345H352.421C351.227 35.2345 350.169 35.0514 349.254 34.6773C348.339 34.3031 347.567 33.7777 346.946 33.109C346.326 32.4403 345.856 31.6442 345.538 30.7207C345.22 29.8053 345.06 28.8022 345.06 27.7116V15.8977C345.06 14.8071 345.22 13.804 345.538 12.8885C345.856 11.973 346.326 11.177 346.946 10.5003C347.567 9.83158 348.331 9.30617 349.254 8.93201C350.169 8.55785 351.227 8.37476 352.421 8.37476H356.264C357.457 8.37476 358.516 8.56582 359.431 8.93201C360.346 9.30617 361.117 9.83158 361.738 10.5003C362.359 11.169 362.828 11.9651 363.146 12.8885C363.465 13.804 363.624 14.8071 363.624 15.8977V27.7116ZM355.468 30.5934C356.51 30.5934 357.258 30.3068 357.696 29.7416C358.134 29.1763 358.348 28.444 358.348 27.5523V16.0569C358.348 15.1574 358.126 14.4329 357.696 13.8598C357.258 13.2945 356.518 13.0079 355.468 13.0079H353.224C352.182 13.0079 351.434 13.2945 350.996 13.8598C350.559 14.425 350.344 15.1574 350.344 16.0569V27.5523C350.344 28.4519 350.559 29.1763 350.996 29.7416C351.434 30.3068 352.174 30.5934 353.224 30.5934H355.468Z" fill="#231815"/>
<path d="M391.76 20.9209C391.25 22.6961 390.502 24.0415 389.516 24.9729C388.537 25.9044 387.391 26.3661 386.094 26.3661C385.092 26.3661 384.24 26.1432 383.532 25.6974C382.824 25.2516 382.164 24.766 381.551 24.2565C381.105 23.8903 380.684 23.6116 380.302 23.4047C379.92 23.2056 379.546 23.1021 379.18 23.1021C378.814 23.1021 378.448 23.3091 378.058 23.7311C377.676 24.145 377.31 24.7819 376.968 25.6337L373.801 24.2883C373.952 23.5878 374.215 22.8872 374.589 22.2105C374.962 21.5259 375.408 20.9209 375.917 20.4034C376.427 19.886 376.984 19.4561 377.58 19.1217C378.177 18.7954 378.798 18.6282 379.434 18.6282C379.904 18.6282 380.357 18.6998 380.795 18.8352C381.233 18.9705 381.646 19.1456 382.028 19.3446C382.41 19.5437 382.776 19.7745 383.118 20.0293C383.46 20.284 383.779 20.5388 384.081 20.8015C384.996 21.5498 385.752 21.9239 386.357 21.9239C386.699 21.9239 387.073 21.717 387.479 21.303C387.885 20.889 388.266 20.1965 388.633 19.2412L391.768 20.9368L391.76 20.9209Z" fill="#231815"/>
<path d="M406.806 35.1072H401.523V12.6657H397.043V8.5022H405.525C406.376 8.5022 406.806 8.93208 406.806 9.78389V35.1152V35.1072Z" fill="#231815"/>
<path d="M423.961 35.1072H418.423L427.287 13.4618V13.1433H415.121V8.5022H430.645C431.926 8.5022 432.563 9.13906 432.563 10.4208V12.7931C432.563 13.3503 432.523 13.8041 432.435 14.1544C432.348 14.5046 432.197 14.9266 431.99 15.4201L423.953 35.1152L423.961 35.1072Z" fill="#231815"/>
<path d="M440.695 16.9885C440.695 17.3945 440.639 17.6572 440.52 17.7766C440.4 17.896 440.138 17.9517 439.732 17.9517H436.533C436.127 17.9517 435.865 17.896 435.746 17.7766C435.626 17.6572 435.57 17.3945 435.57 16.9885V13.7882C435.57 13.3822 435.626 13.1195 435.746 13.0001C435.865 12.8807 436.127 12.825 436.533 12.825H439.732C440.138 12.825 440.4 12.8807 440.52 13.0001C440.639 13.1195 440.695 13.3822 440.695 13.7882V16.9885ZM440.695 29.471C440.695 29.877 440.639 30.1397 440.52 30.2591C440.4 30.3785 440.138 30.4343 439.732 30.4343H436.533C436.127 30.4343 435.865 30.3785 435.746 30.2591C435.626 30.1397 435.57 29.877 435.57 29.471V26.2708C435.57 25.8648 435.626 25.602 435.746 25.4826C435.865 25.3632 436.127 25.3075 436.533 25.3075H439.732C440.138 25.3075 440.4 25.3632 440.52 25.4826C440.639 25.602 440.695 25.8648 440.695 26.2708V29.471Z" fill="#231815"/>
<path d="M461.693 27.7116C461.693 28.8022 461.534 29.8053 461.216 30.7207C460.897 31.6362 460.428 32.4323 459.807 33.109C459.187 33.7777 458.423 34.3031 457.5 34.6773C456.585 35.0514 455.526 35.2345 454.333 35.2345H450.49C449.296 35.2345 448.238 35.0514 447.323 34.6773C446.408 34.3031 445.636 33.7777 445.015 33.109C444.395 32.4403 443.925 31.6442 443.607 30.7207C443.289 29.8053 443.13 28.8022 443.13 27.7116V15.8977C443.13 14.8071 443.289 13.804 443.607 12.8885C443.925 11.973 444.395 11.177 445.015 10.5003C445.636 9.83158 446.4 9.30617 447.323 8.93201C448.238 8.55785 449.296 8.37476 450.49 8.37476H454.333C455.526 8.37476 456.585 8.56582 457.5 8.93201C458.415 9.30617 459.187 9.83158 459.807 10.5003C460.428 11.169 460.897 11.9651 461.216 12.8885C461.534 13.804 461.693 14.8071 461.693 15.8977V27.7116ZM453.529 30.5934C454.572 30.5934 455.32 30.3068 455.749 29.7416C456.187 29.1763 456.41 28.444 456.41 27.5523V16.0569C456.41 15.1574 456.187 14.4329 455.749 13.8598C455.312 13.2945 454.572 13.0079 453.529 13.0079H451.285C450.243 13.0079 449.495 13.2945 449.065 13.8598C448.628 14.425 448.405 15.1574 448.405 16.0569V27.5523C448.405 28.4519 448.628 29.1763 449.065 29.7416C449.503 30.3068 450.243 30.5934 451.285 30.5934H453.529Z" fill="#231815"/>
<path d="M482.66 27.7116C482.66 28.8022 482.5 29.8053 482.182 30.7207C481.864 31.6362 481.394 32.4323 480.774 33.109C480.153 33.7777 479.389 34.3031 478.466 34.6773C477.551 35.0514 476.493 35.2345 475.299 35.2345H471.456C470.263 35.2345 469.204 35.0514 468.289 34.6773C467.374 34.3031 466.602 33.7777 465.982 33.109C465.361 32.4403 464.892 31.6442 464.573 30.7207C464.255 29.8053 464.096 28.8022 464.096 27.7116V15.8977C464.096 14.8071 464.255 13.804 464.573 12.8885C464.892 11.973 465.361 11.177 465.982 10.5003C466.602 9.83158 467.366 9.30617 468.289 8.93201C469.204 8.55785 470.263 8.37476 471.456 8.37476H475.299C476.493 8.37476 477.551 8.56582 478.466 8.93201C479.381 9.30617 480.153 9.83158 480.774 10.5003C481.394 11.169 481.864 11.9651 482.182 12.8885C482.5 13.804 482.66 14.8071 482.66 15.8977V27.7116ZM474.496 30.5934C475.538 30.5934 476.286 30.3068 476.716 29.7416C477.153 29.1763 477.376 28.444 477.376 27.5523V16.0569C477.376 15.1574 477.153 14.4329 476.716 13.8598C476.278 13.2945 475.538 13.0079 474.496 13.0079H472.252C471.21 13.0079 470.462 13.2945 470.032 13.8598C469.594 14.425 469.372 15.1574 469.372 16.0569V27.5523C469.372 28.4519 469.594 29.1763 470.032 29.7416C470.47 30.3068 471.21 30.5934 472.252 30.5934H474.496Z" fill="#231815"/>
<path d="M3.64425 130C3.24641 129.634 2.8406 129.18 2.42684 128.647C2.01308 128.113 1.60728 127.492 1.2333 126.792C0.851369 126.075 0.549006 125.112 0.334169 123.894C0.111375 122.676 0.00793457 121.187 0.00793457 119.412C0.00793457 117.804 0.119332 116.419 0.334169 115.272C0.556963 114.126 0.851369 113.187 1.2333 112.47C1.61523 111.738 2.02104 111.093 2.45071 110.528C2.88039 109.963 3.31006 109.485 3.73178 109.087H6.69176C6.03133 109.787 5.34704 110.902 4.63091 112.422C3.94662 113.959 3.59651 116.283 3.59651 119.38C3.59651 122.867 3.91479 125.327 4.54339 126.76C5.15607 128.241 5.85628 129.315 6.65197 129.984H3.64425V130Z" fill="#231815"/>
<path d="M25.0882 129.562H21.4439V119.746H19.2717V128.113H15.6274V112.59H14.8397C14.4737 112.59 14.2031 112.709 14.0281 112.956C13.853 113.195 13.7257 113.529 13.6541 113.959L11.3307 128.121H7.6864L10.0576 113.871C10.1769 113.187 10.3281 112.574 10.5191 112.048C10.71 111.523 10.9647 111.085 11.2909 110.727C11.6092 110.377 12.015 110.106 12.5003 109.923C12.9857 109.74 13.5745 109.652 14.2747 109.652H19.2797V116.594H21.4519V109.549H25.0962V129.578L25.0882 129.562Z" fill="#231815"/>
<path d="M45.2352 129.626H28.462V124.045H41.3681V123.257H28.4142V120.773H34.8036V119.722H27.4037V117H46.0627V119.722H38.6627V120.773H45.0044V124.658C45.0044 125.319 44.893 125.757 44.6782 125.98C44.4554 126.203 44.0178 126.306 43.3573 126.306H32.0983V127.094H45.2272V129.618L45.2352 129.626ZM41.026 109.461C41.6705 109.461 42.2593 109.533 42.7924 109.668C43.3255 109.811 43.787 110.01 44.1769 110.281C44.5668 110.552 44.8692 110.894 45.084 111.316C45.3068 111.73 45.4102 112.223 45.4102 112.781C45.4102 113.338 45.2988 113.823 45.084 114.237C44.8692 114.651 44.5588 115.002 44.1769 115.272C43.787 115.543 43.3255 115.75 42.7924 115.885C42.2593 116.021 41.6705 116.092 41.026 116.092H32.4643C31.8198 116.092 31.231 116.021 30.6979 115.885C30.1647 115.75 29.7032 115.543 29.3134 115.272C28.9235 115.002 28.6211 114.659 28.4063 114.237C28.1835 113.823 28.08 113.33 28.08 112.781C28.08 112.231 28.1914 111.738 28.4063 111.316C28.6291 110.902 28.9314 110.552 29.3134 110.281C29.7032 110.01 30.1647 109.803 30.6979 109.668C31.231 109.533 31.8198 109.461 32.4643 109.461H41.026ZM40.4292 113.37C41.3204 113.37 41.766 113.171 41.766 112.781C41.766 112.391 41.3204 112.184 40.4292 112.184H33.0531C32.1619 112.184 31.7163 112.383 31.7163 112.781C31.7163 113.179 32.1619 113.37 33.0531 113.37H40.4292Z" fill="#231815"/>
<path d="M56.4783 127.755H48.0042V111.109C48.0042 110.599 48.1235 110.225 48.3543 109.986C48.585 109.756 48.959 109.636 49.4762 109.636H56.1043V112.582H51.2983V124.817H56.4783V127.763V127.755ZM65.4139 129.562H62.1436V119.699H60.5443V129.562H57.2978V109.533H60.5443V116.315H62.1436V109.533H65.4139V129.562Z" fill="#231815"/>
<path d="M79.434 114.978C79.434 115.766 79.2828 116.467 78.9725 117.064C78.6622 117.661 78.2484 118.162 77.7233 118.568C77.1981 118.974 76.5775 119.269 75.8614 119.468C75.1452 119.667 74.3654 119.762 73.5379 119.762C72.7104 119.762 71.9306 119.667 71.2145 119.468C70.4984 119.269 69.8777 118.974 69.3526 118.568C68.8274 118.162 68.4057 117.661 68.1033 117.064C67.793 116.467 67.6418 115.766 67.6418 114.978V114.054C67.6418 113.266 67.793 112.566 68.1033 111.969C68.4137 111.372 68.8274 110.87 69.3526 110.464C69.8777 110.066 70.4984 109.764 71.2145 109.565C71.9306 109.366 72.7104 109.27 73.5379 109.27C74.3654 109.27 75.1452 109.366 75.8614 109.565C76.5775 109.764 77.1981 110.066 77.7233 110.464C78.2484 110.87 78.6702 111.372 78.9725 111.969C79.2828 112.566 79.434 113.266 79.434 114.054V114.978ZM84.7492 127.429C84.7492 128.201 84.5901 128.75 84.2639 129.077C83.9456 129.395 83.3966 129.562 82.6168 129.562H69.0104V120.606H72.6547V122.103H81.105V120.606H84.7492V127.437V127.429ZM75.7897 114.341C75.7897 113.625 75.5829 113.083 75.1611 112.717C74.7474 112.351 74.1984 112.168 73.522 112.168C72.8457 112.168 72.3046 112.351 71.8829 112.717C71.4691 113.083 71.2543 113.625 71.2543 114.341V114.691C71.2543 115.408 71.4612 115.949 71.8829 116.315C72.2966 116.682 72.8457 116.865 73.522 116.865C74.1984 116.865 74.7394 116.682 75.1611 116.315C75.5749 115.949 75.7897 115.408 75.7897 114.691V114.341ZM81.105 126.656V124.945H72.6547V126.656H81.105ZM84.7492 119.81H81.105V109.533H84.7492V119.81Z" fill="#231815"/>
<path d="M105.732 122.66H98.3317V129.554H94.4646V122.66H87.0647V119.802H105.724V122.66H105.732ZM104.108 118.926H100.464L101.013 113.107C101.061 112.701 100.854 112.494 100.401 112.494H88.2423V109.636H103.671C104.053 109.636 104.339 109.748 104.538 109.963C104.737 110.186 104.817 110.472 104.793 110.838L104.108 118.919V118.926Z" fill="#231815"/>
<path d="M124.526 120.511H120.882V118.648H117.611C117.102 119.205 116.45 119.611 115.67 119.882C114.89 120.144 114.031 120.28 113.092 120.28C112.288 120.28 111.54 120.184 110.856 119.985C110.172 119.786 109.567 119.492 109.058 119.086C108.548 118.68 108.143 118.178 107.848 117.581C107.554 116.984 107.411 116.283 107.411 115.495V114.07C107.411 113.282 107.554 112.582 107.848 111.985C108.143 111.388 108.541 110.886 109.058 110.48C109.567 110.082 110.172 109.779 110.856 109.58C111.54 109.381 112.288 109.286 113.092 109.286C114.087 109.286 114.986 109.437 115.789 109.74C116.593 110.042 117.253 110.496 117.763 111.109H120.882V109.549H124.526V120.527V120.511ZM124.526 129.562H120.882V124.244H108.676V121.299H124.526V129.554V129.562ZM115.129 114.341C115.129 113.625 114.946 113.083 114.572 112.717C114.198 112.351 113.705 112.168 113.092 112.168C112.479 112.168 111.986 112.351 111.612 112.717C111.238 113.083 111.055 113.625 111.055 114.341V115.201C111.055 115.917 111.238 116.459 111.612 116.825C111.986 117.191 112.479 117.374 113.092 117.374C113.705 117.374 114.198 117.191 114.572 116.825C114.946 116.459 115.129 115.917 115.129 115.201V114.341ZM120.882 115.742V113.983H118.773V115.742H120.882Z" fill="#231815"/>
<path d="M145.087 123.822C145.087 124.515 144.975 125.128 144.745 125.677C144.514 126.226 144.196 126.688 143.782 127.07C143.368 127.452 142.859 127.747 142.254 127.946C141.657 128.153 140.989 128.256 140.257 128.256H133.167V125.072H139.883C140.933 125.072 141.466 124.475 141.466 123.289V122.166C141.466 121.641 141.323 121.187 141.053 120.813C140.774 120.439 140.336 120.256 139.732 120.256H134.05V117.31H139.429C140.599 117.31 141.188 116.761 141.188 115.662V114.763C141.188 114.206 141.053 113.808 140.782 113.553C140.511 113.306 140.13 113.179 139.628 113.179H133.175V109.994H139.978C141.53 109.994 142.724 110.361 143.559 111.085C144.394 111.809 144.808 112.836 144.808 114.174V115.384C144.808 116.323 144.641 117.064 144.307 117.605C143.973 118.146 143.448 118.544 142.747 118.791C143.567 118.918 144.164 119.293 144.538 119.914C144.912 120.527 145.095 121.251 145.095 122.087V123.822H145.087Z" fill="#231815"/>
<path d="M164.494 124.181H160.849V116.689H158.59V118.576C158.59 119.531 158.399 120.192 158.017 120.574C157.635 120.956 156.966 121.148 156.02 121.148H147.593V109.573H151.237V112.582H154.945V109.573H158.59V113.617H160.849V109.533H164.494V124.181ZM164.621 129.514H148.755V122.27H152.399V126.441H164.629V129.514H164.621ZM154.945 118.313V115.416H151.237V118.313H154.945Z" fill="#231815"/>
<path d="M184.641 129.626H167.867V124.22H180.773V123.472H167.82V120.988H174.209V119.937H166.809V117.215H185.468V119.937H178.068V120.988H184.41V124.698C184.41 125.359 184.298 125.797 184.084 126.019C183.861 126.242 183.423 126.346 182.763 126.346H171.504V127.094H184.633V129.618L184.641 129.626ZM184.927 116.626H180.845L178.187 113.577C177.997 113.37 177.829 113.203 177.67 113.075C177.519 112.94 177.296 112.876 177.002 112.876H175.267C174.989 112.876 174.774 112.94 174.623 113.075C174.472 113.211 174.297 113.378 174.106 113.577L171.337 116.626H167.255L170.573 112.868H167.979V110.146H174.32V108.41H177.965V110.146H184.306V112.868H181.712L184.919 116.626H184.927Z" fill="#231815"/>
<path d="M205.36 122.66H197.96V129.554H194.093V122.66H186.693V119.802H205.352V122.66H205.36ZM203.737 118.926H200.093L200.642 113.107C200.69 112.701 200.483 112.494 200.029 112.494H187.871V109.636H203.3C203.682 109.636 203.968 109.748 204.167 109.963C204.366 110.186 204.445 110.472 204.422 110.838L203.737 118.919V118.926Z" fill="#231815"/>
<path d="M206.196 130C206.856 129.299 207.541 128.185 208.257 126.664C208.941 125.128 209.291 122.803 209.291 119.707C209.291 116.22 208.973 113.76 208.344 112.327C207.732 110.862 207.023 109.787 206.236 109.103H209.243C209.641 109.469 210.047 109.923 210.461 110.456C210.875 110.989 211.272 111.61 211.654 112.311C212.036 113.027 212.331 113.999 212.554 115.209C212.776 116.427 212.88 117.915 212.88 119.691C212.88 121.299 212.768 122.684 212.554 123.83C212.331 124.977 212.036 125.916 211.654 126.632C211.272 127.365 210.867 128.01 210.437 128.575C210.007 129.14 209.578 129.618 209.156 130.016H206.196V130Z" fill="#231815"/>
<path d="M21.9532 79.863H0.525146V74.8318H4.74232V68.3676H11.1636V74.8318H21.9532V79.863ZM20.0196 73.0485H13.5984L14.2986 63.9891C14.3225 63.6309 14.2986 63.3921 14.2031 63.2727C14.1156 63.1533 13.8848 63.0975 13.5268 63.0975H1.22536V58.0663H19.4069C20.0515 58.0663 20.4891 58.2255 20.7198 58.5519C20.9506 58.8783 21.0381 59.3321 20.9904 59.9291L20.0196 73.0485ZM29.9976 93.1018H2.03696V81.686H8.45821V87.7601H30.0056V93.1018H29.9976ZM29.7669 85.0455H23.3456V57.8752H29.7669V66.5048H33.5544V71.9261H29.7669V85.0455Z" fill="#231815"/>
<path d="M55.4518 68.3674C55.4518 69.7605 55.1892 70.9865 54.6561 72.0453C54.131 73.1041 53.4069 73.9877 52.4918 74.6962C51.5768 75.4048 50.4946 75.9381 49.2454 76.2804C47.9962 76.6307 46.6594 76.8059 45.2431 76.8059C43.8267 76.8059 42.4581 76.6307 41.2169 76.2804C39.9756 75.9302 38.9014 75.4048 37.9863 74.6962C37.0713 73.9877 36.3472 73.1041 35.8221 72.0453C35.2969 70.9865 35.0264 69.7605 35.0264 68.3674V65.8518C35.0264 64.4586 35.2889 63.2327 35.8221 62.1739C36.3472 61.1151 37.0713 60.2315 37.9863 59.5229C38.9014 58.8144 39.9756 58.2811 41.2169 57.9387C42.4581 57.5885 43.7949 57.4133 45.2431 57.4133C46.6912 57.4133 47.9962 57.5885 49.2454 57.9387C50.4946 58.289 51.5768 58.8144 52.4918 59.5229C53.4069 60.2315 54.131 61.1151 54.6561 62.1739C55.1813 63.2327 55.4518 64.4586 55.4518 65.8518V68.3674ZM64.4272 93.1733H58.006V83.8114H36.8883V78.6289H64.4272V93.1812V93.1733ZM49.0306 66.3613C49.0306 65.0955 48.6805 64.1402 47.9882 63.4954C47.296 62.8506 46.373 62.5321 45.2431 62.5321C44.1132 62.5321 43.1902 62.8585 42.4979 63.4954C41.8057 64.1402 41.4556 65.0955 41.4556 66.3613V67.8738C41.4556 69.1396 41.8057 70.0949 42.4979 70.7397C43.1902 71.3845 44.1052 71.703 45.2431 71.703C46.3809 71.703 47.296 71.3845 47.9882 70.7397C48.6805 70.0949 49.0306 69.1396 49.0306 67.8738V66.3613ZM64.4272 77.2278H58.006V57.8751H64.4272V64.18H68.6046V69.6013H64.4272V77.2278Z" fill="#231815"/>
<path d="M102.947 81.0252H89.9133V93.1734H83.1022V81.0252H70.0687V75.994H102.947V81.0252ZM100.09 74.4416H93.669L94.6397 64.1881C94.7193 63.4637 94.3533 63.1054 93.5576 63.1054H72.1296V58.0742H99.3184C99.9868 58.0742 100.496 58.2653 100.846 58.6554C101.196 59.0454 101.339 59.5549 101.292 60.1998L100.09 74.4416Z" fill="#231815"/>
<path d="M136.063 78.3902H129.642V72.0454H125.584L126.937 78.008H120.516L117.77 65.2787C117.691 64.9205 117.595 64.6578 117.484 64.5065C117.365 64.3553 117.198 64.2756 116.959 64.2756H115.988C115.734 64.2756 115.551 64.3712 115.447 64.5622C115.344 64.7533 115.256 64.9921 115.177 65.2787L111.731 78.008H105.31L109.066 64.2677H105.97V59.2365H113.243V55.678H119.664V59.2365H127.319V64.2677H123.873L124.415 66.7833H129.634V57.8831H136.056V78.3902H136.063ZM115.367 93.2928C114.23 93.2928 113.187 93.1256 112.232 92.7913C111.278 92.4569 110.45 91.9872 109.758 91.3822C109.066 90.7772 108.517 90.0368 108.135 89.1771C107.745 88.3093 107.554 87.354 107.554 86.2952C107.554 85.2365 107.745 84.2732 108.135 83.4134C108.525 82.5537 109.066 81.8133 109.758 81.2083C110.45 80.6033 111.278 80.1336 112.232 79.7992C113.187 79.4649 114.23 79.2977 115.367 79.2977H129.101C130.239 79.2977 131.281 79.4649 132.236 79.7992C133.191 80.1336 134.019 80.6033 134.711 81.2083C135.403 81.8133 135.952 82.5537 136.334 83.4134C136.724 84.2812 136.915 85.2365 136.915 86.2952C136.915 87.354 136.724 88.3173 136.334 89.1771C135.944 90.0368 135.403 90.7772 134.711 91.3822C134.019 91.9872 133.191 92.4569 132.236 92.7913C131.281 93.1256 130.239 93.2928 129.101 93.2928H115.367ZM127.088 88.2616C128.194 88.2616 129.037 88.1103 129.618 87.8158C130.199 87.5212 130.486 87.0117 130.486 86.2873C130.486 85.5629 130.199 85.0534 129.618 84.7588C129.037 84.4643 128.194 84.313 127.088 84.313H117.341C116.203 84.313 115.36 84.4643 114.811 84.7588C114.254 85.0534 113.983 85.5629 113.983 86.2873C113.983 87.0117 114.269 87.5212 114.85 87.8158C115.431 88.1103 116.259 88.2616 117.349 88.2616H127.096H127.088Z" fill="#231815"/>
<path d="M173.191 82.8402C173.191 84.0503 172.968 85.1648 172.53 86.1678C172.093 87.1709 171.48 88.0386 170.692 88.7631C169.904 89.4875 168.966 90.0448 167.867 90.4508C166.769 90.8488 165.576 91.0478 164.287 91.0478H159.258C157.969 91.0478 156.775 90.8488 155.677 90.4508C154.579 90.0527 153.64 89.4875 152.853 88.7631C152.065 88.0386 151.452 87.1789 151.015 86.1678C150.577 85.1648 150.354 84.0503 150.354 82.8402V80.5953C150.354 79.1544 150.728 77.8568 151.476 76.7024C152.224 75.5561 153.362 74.7202 154.882 74.2107C153.434 73.6933 152.407 72.9131 151.786 71.8702C151.166 70.8274 150.856 69.482 150.856 67.8261V66.3136C150.856 65.1513 151.062 64.0925 151.476 63.1372C151.89 62.1819 152.479 61.3699 153.259 60.7012C154.03 60.0325 154.969 59.5071 156.059 59.1329C157.157 58.7588 158.383 58.5757 159.751 58.5757H163.778C165.114 58.5757 166.34 58.7667 167.43 59.1329C168.528 59.5071 169.459 60.0325 170.231 60.7012C171.002 61.3699 171.607 62.1819 172.029 63.1372C172.451 64.0925 172.665 65.1513 172.665 66.3136V67.8261C172.665 69.482 172.355 70.8274 171.735 71.8702C171.114 72.9131 170.087 73.6933 168.639 74.2107C170.159 74.7282 171.297 75.5561 172.045 76.7024C172.793 77.8488 173.167 79.1464 173.167 80.5953V82.8402H173.191ZM163.133 85.4354C164.215 85.4354 165.098 85.117 165.783 84.4881C166.467 83.8592 166.809 82.9994 166.809 81.9168V80.6749C166.809 79.5922 166.467 78.6767 165.783 77.9284C165.098 77.1801 164.215 76.8059 163.133 76.8059H160.428C159.346 76.8059 158.462 77.1801 157.778 77.9284C157.094 78.6767 156.752 79.5922 156.752 80.6749V81.9168C156.752 82.9994 157.094 83.8592 157.778 84.4881C158.462 85.117 159.346 85.4354 160.428 85.4354H163.133ZM162.823 71.6234C163.905 71.6234 164.756 71.3209 165.377 70.7159C165.998 70.1109 166.308 69.3148 166.308 68.3356V67.3724C166.308 66.3932 166.006 65.621 165.401 65.0478C164.796 64.4826 164.056 64.196 163.181 64.196H160.396C159.521 64.196 158.781 64.4826 158.168 65.0478C157.563 65.613 157.261 66.3932 157.261 67.3724V68.3356C157.261 69.3148 157.571 70.1109 158.192 70.7159C158.812 71.3209 159.664 71.6234 160.746 71.6234H162.831H162.823Z" fill="#231815"/>
<path d="M208.432 78.5893H175.554V73.558H208.432V78.5893ZM207.461 72.0057H200.268L195.589 65.3106C195.303 64.8967 195.04 64.5623 194.794 64.3076C194.547 64.0528 194.157 63.9175 193.616 63.9175H190.33C189.813 63.9175 189.431 64.0528 189.192 64.3235C188.945 64.5942 188.683 64.9206 188.396 65.3106L183.527 72.0057H176.334L182.174 63.9175H177.607V58.9659H188.786V55.9089H195.207V58.9659H206.387V63.9175H201.82L207.469 72.0057H207.461ZM199.536 80.5238C200.674 80.5238 201.708 80.667 202.647 80.9457C203.586 81.2323 204.398 81.6462 205.082 82.1876C205.766 82.7289 206.299 83.3976 206.689 84.2016C207.079 84.9977 207.27 85.9053 207.27 86.9083C207.27 87.9114 207.079 88.8189 206.689 89.615C206.299 90.4111 205.766 91.0877 205.082 91.6291C204.398 92.1704 203.586 92.5844 202.647 92.871C201.708 93.1576 200.666 93.2929 199.536 93.2929H184.45C183.312 93.2929 182.277 93.1496 181.339 92.871C180.4 92.5844 179.588 92.1704 178.904 91.6291C178.219 91.0877 177.686 90.419 177.296 89.615C176.907 88.8189 176.716 87.9114 176.716 86.9083C176.716 85.9053 176.907 84.9977 177.296 84.2016C177.686 83.4056 178.219 82.7289 178.904 82.1876C179.588 81.6462 180.4 81.2323 181.339 80.9457C182.277 80.6591 183.32 80.5238 184.45 80.5238H199.536ZM198.486 88.2617C200.061 88.2617 200.849 87.8079 200.849 86.9083C200.849 86.0087 200.061 85.555 198.486 85.555H185.492C183.917 85.555 183.129 86.0087 183.129 86.9083C183.129 87.8079 183.917 88.2617 185.492 88.2617H198.486Z" fill="#231815"/>
<path d="M236.822 90.0049H221.895V60.6693C221.895 59.7698 222.102 59.109 222.516 58.6951C222.929 58.2811 223.582 58.0741 224.489 58.0741H236.17V63.2566H227.696V84.8145H236.822V89.997V90.0049ZM252.561 93.1733H246.8V75.7949H243.975V93.1733H238.254V57.8831H243.975V69.8402H246.8V57.8831H252.561V93.1733Z" fill="#231815"/>
<path d="M272.445 76.6546H265.873L268.037 64.0766C268.085 63.7183 268.061 63.4795 267.958 63.3601C267.854 63.2407 267.623 63.185 267.265 63.185H256.086V58.0741H273.567C274.212 58.0741 274.665 58.2333 274.92 58.5597C275.175 58.8861 275.254 59.3399 275.151 59.9369L272.445 76.6546ZM264.783 93.2927C263.645 93.2927 262.603 93.1096 261.648 92.7514C260.693 92.3932 259.865 91.8837 259.173 91.2388C258.481 90.594 257.932 89.8218 257.55 88.9143C257.16 88.0147 256.969 87.0037 256.969 85.8971C256.969 84.7906 257.16 83.7796 257.55 82.88C257.94 81.9804 258.481 81.2003 259.173 80.5554C259.865 79.9106 260.693 79.4091 261.648 79.0429C262.603 78.6846 263.645 78.5016 264.783 78.5016H278.127C279.264 78.5016 280.307 78.6846 281.262 79.0429C282.216 79.4011 283.044 79.9106 283.736 80.5554C284.428 81.2003 284.978 81.9725 285.359 82.88C285.749 83.7796 285.94 84.7906 285.94 85.8971C285.94 87.0037 285.749 88.0147 285.359 88.9143C284.97 89.8139 284.428 90.594 283.736 91.2388C283.044 91.8837 282.216 92.3852 281.262 92.7514C280.307 93.1096 279.264 93.2927 278.127 93.2927H264.783ZM276.121 88.1819C278.389 88.1819 279.527 87.4177 279.527 85.8971C279.527 84.3766 278.389 83.6124 276.121 83.6124H266.764C264.52 83.6124 263.398 84.3766 263.398 85.8971C263.398 86.6932 263.685 87.2744 264.266 87.6406C264.846 87.9988 265.674 88.1819 266.764 88.1819H276.121ZM285.089 77.6179H278.668V57.8831H285.089V64.188H289.266V69.6093H285.089V77.6179Z" fill="#231815"/>
<path d="M312.127 76.0337H291.12V60.6693C291.12 59.7698 291.327 59.109 291.741 58.6951C292.155 58.2811 292.807 58.0741 293.714 58.0741H310.885V63.185H297.541V70.9229H312.127V76.0337ZM299.825 93.2927C298.687 93.2927 297.645 93.1096 296.69 92.7514C295.735 92.3932 294.908 91.8837 294.215 91.2388C293.523 90.594 292.974 89.8218 292.592 88.9143C292.202 88.0147 292.011 87.0037 292.011 85.8971C292.011 84.7906 292.202 83.7796 292.592 82.88C292.982 81.9804 293.523 81.2003 294.215 80.5554C294.908 79.9106 295.735 79.4091 296.69 79.0429C297.645 78.6846 298.687 78.5016 299.825 78.5016H313.169C314.307 78.5016 315.349 78.6846 316.304 79.0429C317.259 79.4011 318.086 79.9106 318.779 80.5554C319.471 81.2003 320.02 81.9725 320.402 82.88C320.792 83.7796 320.983 84.7906 320.983 85.8971C320.983 87.0037 320.792 88.0147 320.402 88.9143C320.012 89.8139 319.471 90.594 318.779 91.2388C318.086 91.8837 317.259 92.3852 316.304 92.7514C315.349 93.1096 314.307 93.2927 313.169 93.2927H299.825ZM311.164 88.1819C313.431 88.1819 314.569 87.4177 314.569 85.8971C314.569 84.3766 313.431 83.6124 311.164 83.6124H301.806C299.563 83.6124 298.441 84.3766 298.441 85.8971C298.441 86.6932 298.727 87.2744 299.308 87.6406C299.889 87.9988 300.716 88.1819 301.806 88.1819H311.164ZM320.131 77.6179H313.71V57.8831H320.131V64.188H324.309V69.6093H320.131V77.6179Z" fill="#231815"/>
</g>
<defs>
<clipPath id="clip0_1_183">
<rect width="482.66" height="130" fill="white"/>
</clipPath>
</defs>
</svg>
