<svg width="555" height="91" viewBox="0 0 555 91" fill="none" xmlns="http://www.w3.org/2000/svg">
<path d="M164.347 7.15481H179.946C181.361 7.15481 182.301 7.43103 182.761 7.98347C183.222 8.53591 183.454 9.39851 183.454 10.5664V84.7777C183.454 86.0086 183.222 86.9487 182.761 87.5933C182.301 88.2378 181.361 88.5625 179.946 88.5625H164.347C162.932 88.5625 161.991 88.2378 161.531 87.5933C161.071 86.9487 160.838 86.0086 160.838 84.7777V61.8853C155.793 64.1629 148.287 65.5489 138.314 66.0383L137.854 83.8522C137.728 86.3769 136.468 87.6369 134.069 87.6369H117.549C116.134 87.6369 115.228 87.3122 114.826 86.6677C114.423 86.0232 114.254 85.083 114.317 83.8522L115.145 66.2225H99.4541C98.2862 66.2225 97.4818 65.7282 97.0553 64.7445L95.0248 60.1311C94.4094 58.6531 94.8068 57.9165 96.2266 57.9165H131.762C144.255 57.9165 153.947 56.3803 160.838 53.3031V10.4743C160.838 9.30643 161.071 8.45837 161.531 7.93501C161.991 7.41164 162.932 7.14996 164.347 7.14996V7.15481ZM153.177 26.2625H138.595C138.595 28.2348 138.736 29.8776 139.012 31.2006C139.288 32.5235 139.933 34.0306 140.95 35.7219C141.968 37.4131 143.659 38.9541 146.029 40.3353C148.398 41.7212 151.49 42.9957 155.304 44.1636C156.598 44.5319 156.932 45.5156 156.322 47.1196L155.493 49.7025C155.062 50.8123 153.986 51.3647 152.261 51.3647C149.92 51.3647 147.492 51.2436 144.968 50.9964C142.443 50.7493 139.293 50.0611 135.508 48.9175C131.723 47.7787 128.69 46.257 126.417 44.3477C120.016 49.5814 110.755 52.3775 98.6351 52.7458C97.4672 52.7458 96.6628 52.1934 96.2363 51.0836L95.3156 48.6849C94.6372 47.0857 94.9764 46.131 96.3333 45.8257C108.022 42.9327 113.929 36.41 114.055 26.2577H101.596C100.428 26.2577 99.6237 25.7682 99.1972 24.7796L97.1668 20.1663C96.5513 18.6883 96.9487 17.9517 98.3686 17.9517H153.196C153.996 17.9517 154.534 18.0777 154.81 18.32C155.086 18.5671 155.226 18.9984 155.226 19.6138V24.3193C155.226 25.1189 155.071 25.6422 154.766 25.8894C154.456 26.1365 153.937 26.2577 153.196 26.2577L153.177 26.2625ZM143.301 14.7242H111.826C110.658 14.7242 109.854 14.2348 109.427 13.2462L107.397 8.63283C106.781 7.15481 107.179 6.41821 108.598 6.41821H143.305C144.105 6.41821 144.643 6.54421 144.919 6.78651C145.195 7.03366 145.336 7.46496 145.336 8.0804V12.7858C145.336 13.5854 145.181 14.1088 144.875 14.3559C144.565 14.6031 144.047 14.7242 143.305 14.7242H143.301Z" fill="#BDD1EC"/>
<path d="M195.821 46.383C191.513 42.201 189.362 36.2598 189.362 28.5692C189.362 20.8786 191.513 14.9859 195.821 10.8911C200.129 6.80106 207.36 4.75122 217.512 4.75122C234.924 4.75122 244.494 11.2109 246.22 24.1351H252.587V10.4743C252.587 9.30644 252.82 8.45839 253.28 7.93502C253.74 7.41165 254.681 7.14997 256.096 7.14997H271.695C273.11 7.14997 274.05 7.42619 274.51 7.97863C274.971 8.53107 275.203 9.39367 275.203 10.5615V49.5136C275.203 50.7444 274.971 51.6846 274.51 52.3291C274.05 52.9736 273.11 53.2983 271.695 53.2983H256.096C254.681 53.2983 253.74 52.9736 253.28 52.3291C252.82 51.6846 252.587 50.7444 252.587 49.5136V33.3619H246.127C244.281 46.2231 234.744 52.6537 217.512 52.6537C207.36 52.6537 200.129 50.5603 195.821 46.3782V46.383ZM271.695 89.4881H199.882C198.467 89.4881 197.527 89.1634 197.067 88.5189C196.606 87.8743 196.374 86.9342 196.374 85.7033V62.4426L194.527 58.2896C193.912 56.7534 194.28 55.9829 195.637 55.9829H215.942C217.357 55.9829 218.297 56.2592 218.757 56.8116C219.218 57.364 219.45 58.2266 219.45 59.3945V65.0255H252.127V62.4426L250.28 58.2896C249.665 56.7534 250.033 55.9829 251.39 55.9829H271.695C273.11 55.9829 274.05 56.2592 274.51 56.8116C274.971 57.364 275.203 58.2266 275.203 59.3945V85.7033C275.203 86.9342 274.971 87.8743 274.51 88.5189C274.05 89.1634 273.11 89.4881 271.695 89.4881ZM212.714 16.2943V41.0331C212.714 42.1428 213.281 43.0151 214.42 43.6645C215.559 44.309 216.804 44.6336 218.156 44.6336C219.508 44.6336 220.754 44.309 221.893 43.6645C223.032 43.0199 223.598 42.1428 223.598 41.0331V16.2943C223.598 15.1265 223.027 14.2154 221.893 13.5709C220.754 12.9264 219.508 12.6017 218.156 12.6017C216.804 12.6017 215.554 12.9264 214.42 13.5709C213.281 14.2154 212.714 15.1265 212.714 16.2943ZM219.45 81.182H252.127V73.3364H219.45V81.182Z" fill="#BDD1EC"/>
<path d="M31.5134 22.536H3.14014C2.73793 22.536 2.46655 22.3664 2.31633 22.0272L1.61851 20.4425C1.40528 19.9385 1.54582 19.6817 2.03041 19.6817H12.7982V17.0843C9.42054 16.9147 6.92001 16.338 5.29176 15.3591C3.66351 14.3754 2.85423 12.6599 2.85423 10.2127C2.85423 9.32585 2.97054 8.53596 3.20314 7.83814C3.43575 7.14032 3.74589 6.5491 4.13842 6.06451C4.53094 5.57991 5.05431 5.16799 5.72305 4.82877C6.38695 4.48955 7.07993 4.21819 7.79713 4.00496C8.51434 3.79174 9.40115 3.63182 10.4576 3.51551C11.514 3.39921 12.5317 3.32653 13.5154 3.2926C14.4991 3.25868 15.6622 3.24414 17.0142 3.24414C18.3662 3.24414 19.5293 3.25868 20.513 3.2926C21.4967 3.32653 22.5144 3.39921 23.5708 3.51551C24.6272 3.63182 25.514 3.79659 26.2313 4.00496C26.9485 4.21819 27.6414 4.48955 28.3053 4.82877C28.9692 5.16799 29.4974 5.57991 29.89 6.06451C30.2825 6.5491 30.5926 7.14032 30.8252 7.83814C31.0578 8.53596 31.1742 9.32585 31.1742 10.2127C31.1742 12.6599 30.3552 14.3754 28.7221 15.3591C27.0841 16.3428 24.5788 16.9147 21.2011 17.0843V19.6817H31.5231C31.7993 19.6817 31.9834 19.7253 32.0755 19.8077C32.1724 19.8901 32.216 20.0403 32.216 20.2487V21.8624C32.216 22.1386 32.1627 22.3179 32.0561 22.4003C31.9495 22.4827 31.7702 22.5263 31.5182 22.5263L31.5134 22.536ZM29.9917 32.3879H4.97677C4.49217 32.3879 4.16749 32.2764 4.01242 32.0535C3.8525 31.8306 3.77497 31.5107 3.77497 31.0891V26.2432L3.14014 24.8184C2.92692 24.2902 3.05776 24.0286 3.51813 24.0286H12.2264C12.711 24.0286 13.0356 24.1255 13.1907 24.3145C13.3506 24.5035 13.4282 24.7991 13.4282 25.2013V29.5384H29.9917C30.268 29.5384 30.4521 29.582 30.5442 29.6644C30.6411 29.7468 30.6847 29.9067 30.6847 30.1393V31.787C30.6847 32.0632 30.6314 32.2328 30.5248 32.2958C30.4182 32.3588 30.2389 32.3927 29.9869 32.3927L29.9917 32.3879ZM22.8051 12.1511V7.96897C22.8051 7.25177 22.4126 6.71872 21.6324 6.36981C20.8522 6.02089 19.3112 5.84643 17.0093 5.84643C14.7075 5.84643 13.1616 6.02089 12.3717 6.36981C11.5818 6.71872 11.1845 7.25177 11.1845 7.96897V12.1511C11.1845 12.9119 11.5915 13.5079 12.4057 13.9392C13.2198 14.3705 14.7414 14.5886 16.9803 14.5886C19.2191 14.5886 20.7747 14.3705 21.5888 13.9392C22.4029 13.5079 22.81 12.9119 22.81 12.1511H22.8051Z" fill="#D8EFFC"/>
<path d="M52.4626 82.3257H24.0894C23.6871 82.3257 23.4158 82.1561 23.2655 81.8169L22.5677 80.2322C22.3545 79.7283 22.495 79.4714 22.9796 79.4714H33.6844V73.6126C30.4134 73.317 27.9419 72.4738 26.2749 71.0782C24.6079 69.6825 23.7744 67.4485 23.7744 64.3665C23.7744 62.8255 23.9973 61.4977 24.4383 60.3783C24.8793 59.2588 25.4899 58.3526 26.2604 57.6548C27.0309 56.957 28.034 56.4094 29.2697 56.0072C30.5054 55.605 31.8042 55.3336 33.1659 55.1834C34.5276 55.038 36.1268 54.9604 37.9634 54.9604C39.8 54.9604 41.3992 55.0331 42.7609 55.1834C44.1227 55.3336 45.4214 55.605 46.6571 56.0072C47.8928 56.4094 48.8959 56.957 49.6665 57.6548C50.437 58.3526 51.0427 59.2588 51.4885 60.3783C51.9295 61.4977 52.1524 62.8255 52.1524 64.3665C52.1524 67.4485 51.3189 69.6874 49.6519 71.0782C47.9849 72.4738 45.5038 73.317 42.2085 73.6126V79.4714H52.4674C52.7437 79.4714 52.9278 79.515 53.0199 79.5974C53.1168 79.6798 53.1604 79.83 53.1604 80.0384V81.6521C53.1604 81.9283 53.1071 82.1076 53.0005 82.19C52.8939 82.2724 52.7146 82.316 52.4626 82.316V82.3257ZM43.2504 67.6279V61.1052C43.2504 60.5576 43.2068 60.1311 43.1244 59.821C43.042 59.5157 42.8385 59.2007 42.5235 58.8712C42.2085 58.5465 41.6754 58.309 40.9243 58.1588C40.1732 58.0134 39.1894 57.9359 37.9634 57.9359C36.7374 57.9359 35.7536 58.0086 35.0025 58.1588C34.2514 58.309 33.7135 58.5465 33.3888 58.8712C33.0593 59.2007 32.8557 59.5157 32.7734 59.821C32.691 60.1263 32.6474 60.5527 32.6474 61.1052V67.6279C32.6474 68.1755 32.691 68.6067 32.7734 68.912C32.8557 69.2173 33.0593 69.5372 33.3743 69.8618C33.6893 70.1914 34.2223 70.4288 34.9734 70.5742C35.7246 70.7196 36.7083 70.7971 37.9343 70.7971C39.1604 70.7971 40.1441 70.7244 40.8952 70.5742C41.6464 70.4288 42.1843 70.1914 42.5089 69.8618C42.8336 69.5372 43.042 69.2173 43.1244 68.912C43.2068 68.6067 43.2504 68.1803 43.2504 67.6279Z" fill="#D8EFFC"/>
<path d="M84.131 82.3256H55.7578C55.3556 82.3256 55.0842 82.156 54.934 81.8168L54.2362 80.2321C54.023 79.7282 54.1635 79.4713 54.6481 79.4713H84.131C84.4073 79.4713 84.5914 79.5149 84.6835 79.5973C84.7804 79.6797 84.824 79.8299 84.824 80.0383V81.652C84.824 81.9282 84.7707 82.1075 84.6641 82.1899C84.5575 82.2723 84.3782 82.3159 84.1262 82.3159L84.131 82.3256ZM64.941 71.049H60.2549C59.8139 71.049 59.5038 70.9618 59.339 70.7776C59.1694 70.5983 59.0531 70.2979 58.9901 69.8763L57.6623 61.6769C57.5993 61.2747 57.6429 60.9839 57.7883 60.8046C57.9337 60.6253 58.2535 60.5381 58.7381 60.5381H64.7859C65.2705 60.5381 65.5855 60.6301 65.7357 60.8046C65.8811 60.9839 65.9877 61.2844 66.0507 61.706L66.8115 68.1366L72.9562 61.105C73.5474 60.5138 74.1919 60.2182 74.8898 60.2182H80.2397C80.7243 60.2182 81.049 60.3103 81.2041 60.4896C81.364 60.6689 81.4221 60.9597 81.3785 61.3619L79.5419 72.3187H83.3751C83.6513 72.3187 83.8354 72.3623 83.9275 72.4446C84.0244 72.527 84.068 72.6773 84.068 72.8856V74.5333C84.068 74.7223 84.0341 74.8676 83.9711 74.9597C83.9081 75.0566 83.8354 75.1148 83.7482 75.1342C83.6658 75.1536 83.535 75.1681 83.3702 75.1681H56.2618C55.8596 75.1681 55.5882 74.9985 55.438 74.6641L54.7402 73.0795C54.5269 72.5707 54.6675 72.3187 55.1521 72.3187H71.8077L72.7915 63.8624L67.0296 70.2882C66.482 70.797 65.7842 71.049 64.941 71.049ZM83.1812 58.8565H56.4556C56.0534 58.8565 55.7821 58.6869 55.6318 58.3525L54.934 56.7679C54.7208 56.2591 54.8613 56.0071 55.3459 56.0071H83.1812C83.4575 56.0071 83.6416 56.0507 83.7337 56.1331C83.8306 56.2155 83.8742 56.3657 83.8742 56.5741V58.2217C83.8742 58.4107 83.8403 58.5561 83.7773 58.6481C83.7143 58.7451 83.6416 58.8032 83.5544 58.8226C83.472 58.842 83.3412 58.8565 83.1764 58.8565H83.1812Z" fill="#D8EFFC"/>
<path d="M160.077 2.88552H175.677C177.092 2.88552 178.032 3.16174 178.492 3.71418C178.952 4.26663 179.185 5.1292 179.185 6.29709V80.5085C179.185 81.7393 178.952 82.6795 178.492 83.324C178.032 83.9685 177.092 84.2932 175.677 84.2932H160.077C158.662 84.2932 157.722 83.9685 157.262 83.324C156.801 82.6795 156.569 81.7393 156.569 80.5085V57.616C151.524 59.8937 144.018 61.2796 134.045 61.769L133.584 79.5829C133.458 82.1028 132.198 83.3676 129.8 83.3676H113.28C111.865 83.3676 110.958 83.0429 110.556 82.3984C110.154 81.7539 109.984 80.8138 110.047 79.5829L110.876 61.9532H95.1848C94.0169 61.9532 93.2125 61.4589 92.786 60.4752L90.7556 55.8618C90.1401 54.3838 90.5375 53.6472 91.9574 53.6472H127.493C139.986 53.6472 149.678 52.111 156.569 49.0338V6.20503C156.569 5.03714 156.801 4.18909 157.262 3.66572C157.722 3.14235 158.662 2.88067 160.077 2.88067V2.88552ZM148.907 21.9932H134.326C134.326 23.9655 134.466 25.6083 134.743 26.9313C135.019 28.2542 135.663 29.7613 136.681 31.4526C137.699 33.1438 139.39 34.6849 141.76 36.066C144.129 37.4519 147.221 38.7264 151.035 39.8943C152.329 40.2626 152.663 41.2512 152.052 42.8503L151.224 45.4332C150.792 46.543 149.717 47.0954 147.991 47.0954C145.651 47.0954 143.223 46.9743 140.698 46.7271C138.173 46.48 135.024 45.7918 131.239 44.6482C127.454 43.5094 124.421 41.9878 122.148 40.0784C115.746 45.3073 106.486 48.1082 94.3658 48.4765C93.1979 48.4765 92.3935 47.9241 91.967 46.8143L91.0463 44.4156C90.3679 42.8164 90.7071 41.8618 92.064 41.5565C103.752 38.6634 109.66 32.1407 109.786 21.9884H97.3267C96.1588 21.9884 95.3544 21.4989 94.9279 20.5104L92.8975 15.897C92.282 14.419 92.6794 13.6824 94.0993 13.6824H148.927C149.726 13.6824 150.264 13.8084 150.54 14.0507C150.817 14.2978 150.957 14.7291 150.957 15.3445V20.05C150.957 20.8496 150.802 21.3729 150.497 21.6201C150.187 21.8672 149.668 21.9884 148.927 21.9884L148.907 21.9932ZM139.031 10.4549H107.557C106.389 10.4549 105.584 9.96549 105.158 8.97691L103.127 4.36354C102.512 2.88552 102.909 2.14893 104.329 2.14893H139.036C139.836 2.14893 140.374 2.27493 140.65 2.51723C140.926 2.76437 141.067 3.19567 141.067 3.81111V8.51655C141.067 9.31614 140.911 9.8395 140.606 10.0866C140.296 10.3338 139.778 10.4549 139.036 10.4549H139.031Z" fill="#004EA2"/>
<path d="M191.552 42.1138C187.244 37.9317 185.092 31.9905 185.092 24.2999C185.092 16.6094 187.244 10.7167 191.552 6.6218C195.86 2.53179 203.09 0.481934 213.243 0.481934C230.654 0.481934 240.225 6.94163 241.95 19.8659H248.318V6.20505C248.318 5.03717 248.55 4.18911 249.011 3.66575C249.471 3.14238 250.411 2.8807 251.826 2.8807H267.426C268.841 2.8807 269.781 3.15692 270.241 3.70936C270.701 4.2618 270.934 5.12439 270.934 6.29228V45.2443C270.934 46.4752 270.701 47.4153 270.241 48.0598C269.781 48.7043 268.841 49.029 267.426 49.029H251.826C250.411 49.029 249.471 48.7043 249.011 48.0598C248.55 47.4153 248.318 46.4752 248.318 45.2443V29.0926H241.858C240.012 41.9538 230.475 48.3845 213.243 48.3845C203.09 48.3845 195.86 46.291 191.552 42.1089V42.1138ZM267.426 85.2188H195.613C194.198 85.2188 193.258 84.8941 192.797 84.2496C192.337 83.6051 192.104 82.6649 192.104 81.4341V58.1734L190.258 54.0203C189.643 52.4842 190.011 51.7137 191.368 51.7137H211.672C213.088 51.7137 214.028 51.9899 214.488 52.5423C214.948 53.0948 215.181 53.9573 215.181 55.1252V60.7563H247.857V58.1734L246.011 54.0203C245.396 52.4842 245.764 51.7137 247.121 51.7137H267.426C268.841 51.7137 269.781 51.9899 270.241 52.5423C270.701 53.0948 270.934 53.9573 270.934 55.1252V81.4341C270.934 82.6649 270.701 83.6051 270.241 84.2496C269.781 84.8941 268.841 85.2188 267.426 85.2188ZM208.44 12.0251V36.7638C208.44 37.8735 209.007 38.7458 210.146 39.3952C211.285 40.0397 212.53 40.3644 213.882 40.3644C215.234 40.3644 216.48 40.0397 217.619 39.3952C218.757 38.7507 219.324 37.8735 219.324 36.7638V12.0251C219.324 10.8572 218.752 9.94614 217.619 9.30163C216.48 8.65711 215.234 8.33243 213.882 8.33243C212.53 8.33243 211.28 8.65711 210.146 9.30163C209.007 9.94614 208.44 10.8572 208.44 12.0251ZM215.181 76.9128H247.857V69.0671H215.181V76.9128Z" fill="#004EA2"/>
<path d="M337.009 57.2187H288.641C287.226 57.2187 286.286 56.894 285.826 56.2495C285.365 55.605 285.133 54.6649 285.133 53.434V14.8503L283.286 10.6973C282.671 9.16109 283.039 8.39057 284.396 8.39057H303.78C305.195 8.39057 306.135 8.66679 306.596 9.21923C307.056 9.77167 307.289 10.6343 307.289 11.8021V25.555H318.366V14.8503L316.52 10.6973C315.905 9.16109 316.273 8.39057 317.63 8.39057H337.014C338.429 8.39057 339.369 8.66679 339.829 9.21923C340.29 9.77167 340.522 10.6343 340.522 11.8021V53.4291C340.522 54.66 340.29 55.6001 339.829 56.2446C339.369 56.8892 338.429 57.2138 337.014 57.2138L337.009 57.2187ZM342.456 71.0637H290.395C289.228 71.0637 288.428 70.5694 287.997 69.5856L285.966 64.9723C285.351 63.4942 285.748 62.7576 287.168 62.7576H363.41C364.825 62.7576 365.765 63.0339 366.225 63.5863C366.686 64.1387 366.918 65.0013 366.918 66.1692V87.2153C366.918 88.4462 366.686 89.3863 366.225 90.0308C365.765 90.6753 364.825 91 363.41 91H345.964C344.549 91 343.609 90.6753 343.149 90.0308C342.688 89.3863 342.456 88.4462 342.456 87.2153V71.0637ZM307.289 48.9127H318.366V33.8659H307.289V48.9127ZM371.992 37.4665H366.914V55.6486C366.914 56.8795 366.681 57.8196 366.221 58.4641C365.76 59.1086 364.82 59.4333 363.405 59.4333H347.806C346.391 59.4333 345.451 59.1086 344.99 58.4641C344.53 57.8196 344.297 56.8795 344.297 55.6486V11.0656C344.297 9.89768 344.53 9.04962 344.99 8.52626C345.451 8.00289 346.391 7.74121 347.806 7.74121H363.405C364.82 7.74121 365.76 8.01743 366.221 8.56987C366.681 9.12231 366.914 9.9849 366.914 11.1528V28.23H371.992C373.47 28.23 374.207 28.9375 374.207 30.3526V35.1549C374.207 36.6911 373.47 37.4616 371.992 37.4616V37.4665Z" fill="#BDD1EC"/>
<path d="M464.298 36.0805H459.22V52.6005C459.22 53.8313 458.987 54.7715 458.527 55.416C458.066 56.0605 457.126 56.3852 455.711 56.3852H440.112C438.697 56.3852 437.757 56.0605 437.297 55.416C436.836 54.7715 436.604 53.8313 436.604 52.6005V46.3249C430.633 51.6167 420.694 54.2626 406.791 54.2626H380.948C379.532 54.2626 378.592 53.938 378.132 53.2934C377.672 52.6489 377.439 51.7088 377.439 50.4779V33.3086L375.593 29.1556C374.977 27.6194 375.346 26.8489 376.702 26.8489H407.256V16.6966H380.027C378.859 16.6966 378.054 16.2071 377.628 15.2186L375.598 10.6052C374.982 9.12716 375.379 8.39057 376.799 8.39057H427.29C428.705 8.39057 429.645 8.66679 430.105 9.21923C430.566 9.77167 430.798 10.6343 430.798 11.8021V31.3702C430.798 32.6011 430.566 33.5412 430.105 34.1857C429.645 34.8303 428.705 35.1549 427.29 35.1549H401.446V45.9566H408.371C415.325 45.9566 421.111 45.2782 425.724 43.9262C430.338 42.5741 433.967 40.1754 436.618 36.725V11.0656C436.618 9.89768 436.851 9.04962 437.311 8.52626C437.771 8.00289 438.712 7.74121 440.127 7.74121H455.726C457.141 7.74121 458.081 8.01743 458.541 8.56987C459.002 9.12231 459.234 9.9849 459.234 11.1528V26.8441H464.313C465.791 26.8441 466.528 27.5516 466.528 28.9666V33.7641C466.528 35.3052 465.791 36.0708 464.313 36.0708L464.298 36.0805ZM380.579 59.2492H455.711C457.126 59.2492 458.066 59.5254 458.527 60.0778C458.987 60.6303 459.22 61.4929 459.22 62.6607V86.2897C459.22 87.5206 458.987 88.4607 458.527 89.1052C458.066 89.7498 457.126 90.0744 455.711 90.0744H384.824C383.409 90.0744 382.469 89.7498 382.009 89.1052C381.548 88.4607 381.316 87.5206 381.316 86.2897V65.704L379.469 61.551C378.854 60.0148 379.222 59.2443 380.579 59.2443V59.2492ZM436.143 81.7733V67.56H404.392V81.7733H436.143Z" fill="#BDD1EC"/>
<path d="M535.738 7.74595H551.337C552.752 7.74595 553.692 8.02217 554.153 8.57461C554.613 9.12705 554.846 9.98963 554.846 11.1575V85.3689C554.846 86.5998 554.613 87.5399 554.153 88.1844C553.692 88.8289 552.752 89.1536 551.337 89.1536H535.738C534.323 89.1536 533.383 88.8289 532.922 88.1844C532.462 87.5399 532.229 86.5998 532.229 85.3689V74.8483C526.259 81.9234 515.986 85.461 501.399 85.461H470.845C469.677 85.461 468.873 84.9667 468.447 83.9829L466.416 79.3696C465.801 77.8915 466.198 77.1549 467.618 77.1549H487.002V67.6471C480.784 66.5374 476.355 64.3567 473.709 61.0954C471.063 57.834 469.74 53.618 469.74 48.4522C469.74 41.9925 471.848 37.0835 476.064 33.7301C480.28 30.3767 487.554 28.7 497.896 28.7C508.237 28.7 515.724 30.3912 520.187 33.7786C524.645 37.1659 526.879 42.0555 526.879 48.457C526.879 58.9195 521.127 65.2871 509.618 67.5648V76.7963C520.57 75.7496 528.11 71.7807 532.234 64.8898V11.0751C532.234 9.90726 532.467 9.05921 532.927 8.53585C533.388 8.01248 534.328 7.75079 535.743 7.75079L535.738 7.74595ZM526.138 26.6647H472.328C471.16 26.6647 470.356 26.1704 469.929 25.1866L467.899 20.5733C467.283 19.0952 467.681 18.3586 469.101 18.3586H526.143C526.942 18.3586 527.48 18.4846 527.757 18.7269C528.033 18.9741 528.173 19.4054 528.173 20.0208V24.7263C528.173 25.5258 528.018 26.0492 527.713 26.2964C527.403 26.5435 526.884 26.6647 526.143 26.6647H526.138ZM515.341 15.7757H482.757C481.589 15.7757 480.784 15.2863 480.358 14.2977L478.328 9.68434C477.712 8.20632 478.109 7.46973 479.529 7.46973H515.341C516.141 7.46973 516.679 7.59573 516.955 7.83803C517.231 8.08517 517.372 8.51646 517.372 9.13189V13.8374C517.372 14.6369 517.217 15.1603 516.911 15.4074C516.601 15.6546 516.083 15.7757 515.341 15.7757ZM493.369 39.4968V57.6789C493.369 59.094 494.232 60.0777 495.952 60.635C497.673 61.1874 499.398 61.1874 501.123 60.635C502.843 60.0825 503.706 59.0988 503.706 57.6789V39.4968C503.706 38.0818 502.843 37.0835 501.123 36.4972C499.398 35.9108 497.678 35.9108 495.952 36.4972C494.227 37.0835 493.369 38.0818 493.369 39.4968Z" fill="#BDD1EC"/>
<path d="M332.74 52.9494H284.372C282.957 52.9494 282.017 52.6247 281.556 51.9802C281.096 51.3357 280.863 50.3956 280.863 49.1647V10.581L279.017 6.42798C278.402 4.8918 278.77 4.12128 280.127 4.12128H299.511C300.926 4.12128 301.866 4.3975 302.326 4.94994C302.787 5.50238 303.019 6.36498 303.019 7.53286V21.2858H314.097V10.581L312.251 6.42798C311.635 4.8918 312.004 4.12128 313.361 4.12128H332.745C334.16 4.12128 335.1 4.3975 335.56 4.94994C336.02 5.50238 336.253 6.36498 336.253 7.53286V49.1598C336.253 50.3907 336.02 51.3308 335.56 51.9754C335.1 52.6199 334.16 52.9445 332.745 52.9445L332.74 52.9494ZM338.187 66.7944H286.126C284.958 66.7944 284.159 66.3001 283.727 65.3163L281.697 60.703C281.082 59.2249 281.479 58.4884 282.899 58.4884H359.141C360.556 58.4884 361.496 58.7646 361.956 59.317C362.416 59.8695 362.649 60.732 362.649 61.8999V82.946C362.649 84.1769 362.416 85.117 361.956 85.7615C361.496 86.4061 360.556 86.7307 359.141 86.7307H341.695C340.28 86.7307 339.34 86.4061 338.88 85.7615C338.419 85.117 338.187 84.1769 338.187 82.946V66.7944ZM303.019 44.6434H314.097V29.5966H303.019V44.6434ZM367.723 33.1972H362.644V51.3793C362.644 52.6102 362.412 53.5503 361.951 54.1948C361.491 54.8393 360.551 55.164 359.136 55.164H343.537C342.121 55.164 341.181 54.8393 340.721 54.1948C340.261 53.5503 340.028 52.6102 340.028 51.3793V6.79626C340.028 5.62838 340.261 4.78034 340.721 4.25697C341.181 3.7336 342.121 3.47192 343.537 3.47192H359.136C360.551 3.47192 361.491 3.74814 361.951 4.30058C362.412 4.85302 362.644 5.71562 362.644 6.8835V23.9607H367.723C369.201 23.9607 369.937 24.6683 369.937 26.0833V30.8856C369.937 32.4218 369.201 33.1923 367.723 33.1923V33.1972Z" fill="#004EA2"/>
<path d="M460.024 31.8112H454.946V48.3312C454.946 49.5621 454.713 50.5022 454.253 51.1467C453.792 51.7912 452.852 52.1159 451.437 52.1159H435.838C434.423 52.1159 433.483 51.7912 433.022 51.1467C432.562 50.5022 432.329 49.5621 432.329 48.3312V42.0556C426.359 47.3474 416.42 49.9934 402.517 49.9934H376.673C375.258 49.9934 374.318 49.6687 373.858 49.0242C373.397 48.3796 373.165 47.4395 373.165 46.2086V29.0393L371.319 24.8863C370.703 23.3501 371.071 22.5796 372.428 22.5796H402.982V12.4273H375.753C374.585 12.4273 373.78 11.9379 373.354 10.9493L371.323 6.3359C370.708 4.85788 371.105 4.12128 372.525 4.12128H423.015C424.43 4.12128 425.371 4.3975 425.831 4.94994C426.291 5.50238 426.524 6.36498 426.524 7.53286V27.1009C426.524 28.3318 426.291 29.2719 425.831 29.9165C425.371 30.561 424.43 30.8856 423.015 30.8856H397.172V41.6873H404.097C411.051 41.6873 416.837 41.0089 421.45 39.6569C426.064 38.3048 429.693 35.9061 432.344 32.4557V6.79626C432.344 5.62838 432.577 4.78034 433.037 4.25697C433.497 3.7336 434.437 3.47192 435.852 3.47192H451.452C452.867 3.47192 453.807 3.74814 454.267 4.30058C454.728 4.85302 454.96 5.71562 454.96 6.8835V22.5748H460.039C461.517 22.5748 462.253 23.2823 462.253 24.6973V29.4949C462.253 31.0359 461.517 31.8015 460.039 31.8015L460.024 31.8112ZM376.31 54.9799H451.442C452.857 54.9799 453.797 55.2561 454.258 55.8085C454.718 56.361 454.951 57.2235 454.951 58.3914V82.0204C454.951 83.2513 454.718 84.1914 454.258 84.836C453.797 85.4805 452.857 85.8052 451.442 85.8052H380.555C379.14 85.8052 378.2 85.4805 377.739 84.836C377.279 84.1914 377.046 83.2513 377.046 82.0204V61.4347L375.2 57.2817C374.585 55.7455 374.953 54.975 376.31 54.975V54.9799ZM431.874 77.4991V63.2859H400.123V77.4991H431.874Z" fill="#004EA2"/>
<path d="M531.469 3.47666H547.068C548.483 3.47666 549.423 3.75288 549.883 4.30532C550.344 4.85776 550.576 5.72034 550.576 6.88822V81.0996C550.576 82.3305 550.344 83.2706 549.883 83.9151C549.423 84.5596 548.483 84.8843 547.068 84.8843H531.469C530.054 84.8843 529.113 84.5596 528.653 83.9151C528.193 83.2706 527.96 82.3305 527.96 81.0996V70.579C521.99 77.6541 511.716 81.1917 497.13 81.1917H466.576C465.408 81.1917 464.604 80.6974 464.177 79.7136L462.147 75.1003C461.531 73.6222 461.929 72.8857 463.349 72.8857H482.733V63.3778C476.515 62.2681 472.086 60.0874 469.44 56.8261C466.794 53.5647 465.471 49.3487 465.471 44.1829C465.471 37.7232 467.579 32.8142 471.795 29.4608C476.011 26.1074 483.285 24.4307 493.626 24.4307C503.968 24.4307 511.455 26.1219 515.918 29.5093C520.381 32.8966 522.61 37.7862 522.61 44.1877C522.61 54.6502 516.858 61.0179 505.349 63.2955V72.5271C516.301 71.4803 523.841 67.5115 527.965 60.6205V6.80585C527.965 5.63797 528.198 4.78993 528.658 4.26656C529.118 3.7432 530.058 3.4815 531.473 3.4815L531.469 3.47666ZM521.869 22.3954H468.059C466.891 22.3954 466.087 21.9011 465.66 20.9173L463.63 16.304C463.014 14.826 463.412 14.0894 464.831 14.0894H521.874C522.673 14.0894 523.211 14.2154 523.487 14.4577C523.763 14.7048 523.904 15.1361 523.904 15.7515V20.457C523.904 21.2566 523.749 21.7799 523.444 22.0271C523.133 22.2742 522.615 22.3954 521.874 22.3954H521.869ZM511.072 11.5064H478.487C477.32 11.5064 476.515 11.017 476.089 10.0284L474.058 5.41506C473.443 3.93703 473.84 3.20044 475.26 3.20044H511.072C511.871 3.20044 512.409 3.32644 512.686 3.56874C512.962 3.81588 513.102 4.24717 513.102 4.86261V9.56805C513.102 10.3676 512.947 10.891 512.642 11.1382C512.332 11.3853 511.813 11.5064 511.072 11.5064ZM489.1 35.2275V53.4096C489.1 54.8247 489.963 55.8084 491.683 56.3657C493.403 56.9181 495.129 56.9181 496.854 56.3657C498.574 55.8133 499.437 54.8295 499.437 53.4096V35.2275C499.437 33.8125 498.574 32.8142 496.854 32.2279C495.129 31.6415 493.408 31.6415 491.683 32.2279C489.958 32.8142 489.1 33.8125 489.1 35.2275Z" fill="#004EA2"/>
<path d="M29.9869 21.0143H1.61366C1.21144 21.0143 0.940064 20.8446 0.789838 20.5054L0.0920169 18.9208C-0.121206 18.4168 0.0193271 18.16 0.503925 18.16H11.2717V15.5625C7.89405 15.3929 5.39352 14.8163 3.76527 13.8374C2.13702 12.8536 1.32774 11.1381 1.32774 8.69092C1.32774 7.80411 1.44405 7.01421 1.67665 6.31639C1.90926 5.61857 2.2194 5.02736 2.61193 4.54276C3.00445 4.05816 3.53266 3.64626 4.19656 3.30704C4.86046 2.96782 5.55344 2.69644 6.27064 2.48322C6.98785 2.27 7.87466 2.11009 8.93109 1.99379C9.98751 1.87748 11.0052 1.80478 11.9889 1.77086C12.9726 1.73694 14.1357 1.72241 15.4877 1.72241C16.8397 1.72241 18.0028 1.73694 18.9865 1.77086C19.9702 1.80478 20.9879 1.87748 22.0443 1.99379C23.1007 2.11009 23.9876 2.27484 24.7048 2.48322C25.422 2.69644 26.1149 2.96782 26.7788 3.30704C27.4427 3.64626 27.971 4.05816 28.3635 4.54276C28.756 5.02736 29.0661 5.61857 29.2988 6.31639C29.5314 7.01421 29.6477 7.80411 29.6477 8.69092C29.6477 11.1381 28.8287 12.8536 27.1956 13.8374C25.5577 14.8211 23.0523 15.3929 19.6746 15.5625V18.16H29.9966C30.2728 18.16 30.4569 18.2036 30.549 18.286C30.6459 18.3684 30.6896 18.5186 30.6896 18.7318V20.3455C30.6896 20.6217 30.6362 20.801 30.5296 20.8834C30.423 20.9658 30.2437 21.0094 29.9917 21.0094L29.9869 21.0143ZM28.4701 30.8661H3.45513C2.97053 30.8661 2.64585 30.7547 2.49078 30.5318C2.33086 30.3089 2.25333 29.989 2.25333 29.5674V24.7214L1.6185 23.2967C1.40528 22.7685 1.53612 22.5068 1.99649 22.5068H10.7047C11.1893 22.5068 11.514 22.6037 11.6691 22.7927C11.829 22.9817 11.9065 23.2773 11.9065 23.6796V28.0167H28.4701C28.7463 28.0167 28.9305 28.0603 29.0225 28.1427C29.1195 28.2251 29.1631 28.385 29.1631 28.6176V30.2652C29.1631 30.5415 29.1098 30.7111 29.0031 30.7692C28.8965 30.8322 28.7172 30.8661 28.4652 30.8661H28.4701ZM21.2787 10.6293V6.44724C21.2787 5.73004 20.8861 5.19697 20.1059 4.84806C19.3257 4.49915 17.7847 4.3247 15.4829 4.3247C13.181 4.3247 11.6351 4.49915 10.8453 4.84806C10.0554 5.19697 9.65799 5.73004 9.65799 6.44724V10.6293C9.65799 11.3901 10.065 11.9862 10.8792 12.4175C11.6933 12.8488 13.2149 13.0668 15.4538 13.0668C17.6926 13.0668 19.2482 12.8488 20.0623 12.4175C20.8764 11.9862 21.2835 11.3901 21.2835 10.6293H21.2787Z" fill="#00A0E9"/>
<path d="M50.9409 80.804H22.5676C22.1654 80.804 21.894 80.6344 21.7438 80.2952L21.046 78.7105C20.8328 78.2065 20.9733 77.9497 21.4579 77.9497H32.1627V72.0909C28.8916 71.7953 26.4202 70.9521 24.7532 69.5565C23.0862 68.1608 22.2526 65.9268 22.2526 62.8448C22.2526 61.3038 22.4756 59.976 22.9165 58.8565C23.3575 57.7371 23.9681 56.8309 24.7386 56.1331C25.5091 55.4353 26.5123 54.8877 27.748 54.4855C28.9837 54.0832 30.2824 53.8119 31.6442 53.6616C33.0059 53.5163 34.6051 53.4387 36.4417 53.4387C38.2783 53.4387 39.8775 53.5114 41.2392 53.6616C42.6009 53.8119 43.8996 54.0832 45.1354 54.4855C46.3711 54.8877 47.3742 55.4353 48.1447 56.1331C48.9152 56.8309 49.521 57.7371 49.9668 58.8565C50.4078 59.976 50.6307 61.3038 50.6307 62.8448C50.6307 65.9268 49.7972 68.1657 48.1302 69.5565C46.4632 70.9521 43.982 71.7953 40.6868 72.0909V77.9497H50.9457C51.2219 77.9497 51.4061 77.9933 51.4981 78.0757C51.5951 78.1581 51.6387 78.3083 51.6387 78.5215V80.1353C51.6387 80.4115 51.5854 80.5908 51.4788 80.6731C51.3722 80.7555 51.1929 80.7991 50.9409 80.7991V80.804ZM41.7286 66.1061V59.5834C41.7286 59.0358 41.685 58.6094 41.6027 58.2993C41.5203 57.994 41.3167 57.679 41.0018 57.3494C40.6868 57.0248 40.1537 56.7825 39.4026 56.6371C38.6514 56.4917 37.6677 56.4142 36.4417 56.4142C35.2156 56.4142 34.2319 56.4868 33.4808 56.6371C32.7297 56.7873 32.1918 57.0248 31.8671 57.3494C31.5424 57.6741 31.334 57.994 31.2516 58.2993C31.1693 58.6046 31.1256 59.031 31.1256 59.5834V66.1061C31.1256 66.6537 31.1693 67.085 31.2516 67.3903C31.334 67.6956 31.5375 68.0154 31.8525 68.3401C32.1675 68.6696 32.7006 68.9071 33.4517 69.0525C34.2028 69.1979 35.1866 69.2754 36.4126 69.2754C37.6386 69.2754 38.6224 69.2027 39.3735 69.0525C40.1246 68.9071 40.6625 68.6696 40.9872 68.3401C41.3119 68.0154 41.5203 67.6956 41.6027 67.3903C41.685 67.085 41.7286 66.6586 41.7286 66.1061Z" fill="#00A0E9"/>
<path d="M82.6093 80.8039H54.2361C53.8339 80.8039 53.5625 80.6343 53.4123 80.2951L52.7145 78.7104C52.5012 78.2064 52.6418 77.9496 53.1264 77.9496H82.6093C82.8855 77.9496 83.0697 77.9932 83.1618 78.0756C83.2587 78.158 83.3023 78.3082 83.3023 78.5214V80.1351C83.3023 80.4114 83.249 80.5907 83.1424 80.673C83.0358 80.7554 82.8565 80.799 82.6045 80.799L82.6093 80.8039ZM63.4192 69.5273H58.7332C58.2922 69.5273 57.982 69.4401 57.8124 69.2559C57.6428 69.0766 57.5265 68.7762 57.4635 68.3546L56.1357 60.1552C56.0727 59.7529 56.1163 59.4622 56.2617 59.2829C56.4071 59.1036 56.7269 59.0163 57.2115 59.0163H63.2593C63.7439 59.0163 64.0589 59.1084 64.2091 59.2829C64.3545 59.4622 64.4611 59.7626 64.5241 60.1842L65.2849 66.6148L71.4296 59.5833C72.0208 58.9921 72.6654 58.6965 73.3632 58.6965H78.7131C79.1977 58.6965 79.5224 58.7886 79.6775 58.9679C79.8374 59.1472 79.8956 59.438 79.852 59.8402L78.0153 70.7969H81.8485C82.1247 70.7969 82.3089 70.8405 82.4009 70.9229C82.4979 71.0053 82.5415 71.1555 82.5415 71.3639V73.0115C82.5415 73.2005 82.5076 73.3459 82.4446 73.438C82.3816 73.5349 82.3089 73.5931 82.2216 73.6124C82.1393 73.6318 82.0084 73.6464 81.8437 73.6464H54.7352C54.333 73.6464 54.0568 73.4768 53.9114 73.1424L53.2136 71.5578C53.0004 71.0489 53.1409 70.7969 53.6255 70.7969H70.2811L71.2649 62.3407L65.503 68.7665C64.9554 69.2753 64.2576 69.5273 63.4144 69.5273H63.4192ZM81.6595 57.3348H54.9339C54.5317 57.3348 54.2555 57.1652 54.1101 56.8308L53.4123 55.2462C53.1991 54.7373 53.3396 54.4854 53.8242 54.4854H81.6595C81.9357 54.4854 82.1199 54.529 82.2119 54.6114C82.3089 54.6937 82.3525 54.844 82.3525 55.0523V56.7C82.3525 56.889 82.3186 57.0343 82.2556 57.1264C82.1926 57.2233 82.1199 57.2815 82.0326 57.3009C81.9503 57.3202 81.8194 57.3348 81.6547 57.3348H81.6595Z" fill="#00A0E9"/>
<path d="M64.5286 5.15089L3.46606 66.2134L4.75105 67.4984L65.8135 6.43588L64.5286 5.15089Z" fill="#00A0E9"/>
</svg>
