<svg xmlns="http://www.w3.org/2000/svg" width="103.38" height="103.38" viewBox="0 0 103.38 103.38"><path d="M51.69,103.38A51.69,51.69,0,1,0,0,51.69,51.69,51.69,0,0,0,51.69,103.38Z" fill="#00b2e3" opacity="0.67"/><path d="M29.89,55.85V52.59H50.21v3.26Zm4.41-4.69a4.13,4.13,0,0,1,0-8.22H45.8a4.13,4.13,0,0,1,0,8.22ZM30.8,63.52V56.87h4.17v3.61H49.62v3.04H30.8ZM44.67,47.97a.889.889,0,0,0,.89-.93.872.872,0,0,0-.89-.91H35.41a.884.884,0,0,0-.89.91.9.9,0,0,0,.89.93Z" fill="#fff"/><path d="M51.85,54.77V51.82h1.73l-.49-4.94h3.63l.4,4.94h1.82l.4-4.94h3.63l-.49,4.94h1.75v2.95H51.85Zm.22-8.47V43.35H64.01V46.3Zm4.88,9.71h10.7a3.826,3.826,0,1,1,0,7.62H56.95a3.822,3.822,0,1,1,0-7.62Zm9.39,4.7c.8,0,1.26-.33,1.26-.91s-.46-.89-1.26-.89H58.23c-.71,0-1.2.33-1.2.89s.49.91,1.2.91Zm-1.68-7.74V49.91h2.7V48.29h-2.7V45.21h2.7V42.99h4.21V55.51H67.36V52.96h-2.7Z" fill="#fff"/></svg>