<svg xmlns="http://www.w3.org/2000/svg" width="103.402" height="103.402" viewBox="0 0 103.402 103.402"><g transform="translate(-9.999 -9.999)"><path d="M112.151,72.95a51.69,51.69,0,1,0-61.7,39.2A51.69,51.69,0,0,0,112.151,72.95Z" fill="#ec76a2" opacity="0.67"/><path d="M17.923,68.1c2.37-1.55,4.54-3.97,4.59-10.24V53.5h4.17v4.36c.04,6.27,2.21,8.68,4.59,10.24v4.72a14,14,0,0,1-6.67-6.49,14,14,0,0,1-6.67,6.49V68.1Zm11.14-4.61v-3.61H33.4v-6.85h4.21v20.52H33.4V63.488Z" fill="#fff"/><path d="M39.963,72.838v-19.1h9.31v3.41h-5.58v11.81l6.25-.58v3.54l-9.97.91Zm10.77.71V53.028h3.52v7.71h1.71v-7.71h3.66v20.52h-3.66v-9.19h-1.71v9.19Z" fill="#fff"/><path d="M69.363,68.538v-3.1h-8.22v-3.21h20.32v3.21h-8.04v3.1h-4.06Zm-7.31-7.58v-7.89h18.48v7.89Zm0,12.59v-7h4.17v3.97h14.65v3.04H62.063Zm4.08-15.4h10.35v-2.26H66.133Z" fill="#fff"/><path d="M90.773,73.768v-6.74h-7.91v-3.59h20.32v3.59h-8.11v6.74Zm6.4-11.03.69-5.92h-14.2v-3.43h18.7l-1.04,9.35h-4.15Z" fill="#fff"/></g></svg>