<svg xmlns="http://www.w3.org/2000/svg" width="103.38" height="103.38" viewBox="0 0 103.38 103.38"><path d="M51.69,103.38A51.69,51.69,0,1,0,0,51.69,51.69,51.69,0,0,0,51.69,103.38Z" fill="#b48911" opacity="0.67"/><path d="M29.69,62.81V43.71H41.37v19.1H37.38v-.86Zm4.06-3.9,3.63-.38V47.1H33.75Zm10.45,4.6V42.99h4.21v7.6h2.46V54.4H48.41v9.11Z" fill="#fff"/><path d="M50.9,63.14V59.71h8V55.79h4.21v3.92h8.11v3.43Zm.62-8.09V51.9h3.21L54.29,47h3.9l.38,4.9h4.9l.4-4.9h3.9l-.44,4.9h3.28v3.15H51.52Zm.22-8.53V43.35H70.37v3.17Z" fill="#fff"/></svg>