<svg width="146" height="61" viewBox="0 0 146 61" fill="none" xmlns="http://www.w3.org/2000/svg">
<g clip-path="url(#clip0_1_290)">
<path d="M21.8558 3.95947H7.52389C5.73422 3.95947 4.28058 5.41866 4.28058 7.21515C4.28058 9.01164 5.73422 10.4708 7.52389 10.4708H18.6198V18.4414C18.6198 20.2232 20.0734 21.6677 21.8631 21.6677C23.6528 21.6677 25.1064 20.2232 25.1064 18.4414V7.21515C25.1064 5.41866 23.6528 3.95947 21.8631 3.95947H21.8558ZM7.52389 8.32971C6.91029 8.32971 6.41356 7.83109 6.41356 7.21515C6.41356 6.59921 6.91029 6.1006 7.52389 6.1006C8.13749 6.1006 8.63421 6.59921 8.63421 7.21515C8.63421 7.83109 8.13749 8.32971 7.52389 8.32971ZM21.8558 8.32971C21.2422 8.32971 20.7455 7.83109 20.7455 7.21515C20.7455 6.59921 21.2422 6.1006 21.8558 6.1006C22.4694 6.1006 22.9661 6.59921 22.9661 7.21515C22.9661 7.83109 22.4694 8.32971 21.8558 8.32971Z" fill="#004EA2"/>
<path d="M40.8774 43.2844H28.715V36.9637C28.715 35.1818 27.2613 33.7373 25.4717 33.7373C23.682 33.7373 22.2283 35.1818 22.2283 36.9637V46.5474C22.2283 48.3439 23.682 49.8031 25.4717 49.8031H40.8847C42.6743 49.8031 44.128 48.3439 44.128 46.5474C44.128 44.7509 42.6743 43.2917 40.8847 43.2917L40.8774 43.2844ZM25.4717 47.6619C24.8581 47.6619 24.3613 47.1633 24.3613 46.5474C24.3613 45.9314 24.8581 45.4328 25.4717 45.4328C26.0853 45.4328 26.582 45.9314 26.582 46.5474C26.582 47.1633 26.0853 47.6619 25.4717 47.6619ZM40.8774 47.6619C40.2638 47.6619 39.767 47.1633 39.767 46.5474C39.767 45.9314 40.2638 45.4328 40.8774 45.4328C41.491 45.4328 41.9877 45.9314 41.9877 46.5474C41.9877 47.1633 41.491 47.6619 40.8774 47.6619Z" fill="#F18900"/>
<path d="M39.8255 9.55439H35.2162V3.25568C35.2162 1.45919 33.7625 0 31.9729 0C30.1832 0 28.7296 1.45919 28.7296 3.25568V22.3645C28.7296 24.161 30.1832 25.6201 31.9729 25.6201C33.7625 25.6201 35.2162 24.161 35.2162 22.3645V16.0658H39.8255C41.6152 16.0658 43.0688 14.6066 43.0688 12.8101C43.0688 11.0136 41.6152 9.55439 39.8255 9.55439ZM31.9656 23.4864C31.352 23.4864 30.8553 22.9877 30.8553 22.3718C30.8553 21.7559 31.352 21.2572 31.9656 21.2572C32.5792 21.2572 33.0759 21.7559 33.0759 22.3718C33.0759 22.9877 32.5792 23.4864 31.9656 23.4864ZM31.9656 4.37757C31.352 4.37757 30.8553 3.87895 30.8553 3.26301C30.8553 2.64707 31.352 2.14846 31.9656 2.14846C32.5792 2.14846 33.0759 2.64707 33.0759 3.26301C33.0759 3.87895 32.5792 4.37757 31.9656 4.37757Z" fill="#F18900"/>
<path d="M21.1472 25.6862H15.4422V19.8568C15.4422 18.0603 13.9886 16.6011 12.1989 16.6011C10.4093 16.6011 8.95562 18.0603 8.95562 19.8568V25.6862H3.25061C1.46095 25.6862 0.00730133 27.1454 0.00730133 28.9419C0.00730133 30.7384 1.46095 32.1975 3.25061 32.1975H21.1545C22.9442 32.1975 24.3979 30.7384 24.3979 28.9419C24.3979 27.1454 22.9442 25.6862 21.1545 25.6862H21.1472ZM3.2433 30.0638C2.62971 30.0638 2.13298 29.5651 2.13298 28.9492C2.13298 28.3333 2.62971 27.8346 3.2433 27.8346C3.8569 27.8346 4.35363 28.3333 4.35363 28.9492C4.35363 29.5651 3.8569 30.0638 3.2433 30.0638ZM21.1472 30.0638C20.5336 30.0638 20.0369 29.5651 20.0369 28.9492C20.0369 28.3333 20.5336 27.8346 21.1472 27.8346C21.7608 27.8346 22.2576 28.3333 22.2576 28.9492C22.2576 29.5651 21.7608 30.0638 21.1472 30.0638Z" fill="#F18900"/>
<path d="M67.0284 43.2915H52.6891C50.8995 43.2915 49.4458 44.7507 49.4458 46.5472C49.4458 48.3437 50.8995 49.8029 52.6891 49.8029H63.7851V57.7734C63.7851 59.5552 65.2387 60.9998 67.0284 60.9998C68.818 60.9998 70.2717 59.5552 70.2717 57.7734V46.5472C70.2717 44.7507 68.818 43.2915 67.0284 43.2915ZM52.6891 47.6617C52.0755 47.6617 51.5788 47.1631 51.5788 46.5472C51.5788 45.9312 52.0755 45.4326 52.6891 45.4326C53.3027 45.4326 53.7995 45.9312 53.7995 46.5472C53.7995 47.1631 53.3027 47.6617 52.6891 47.6617ZM67.0284 47.6617C66.4148 47.6617 65.918 47.1631 65.918 46.5472C65.918 45.9312 66.4148 45.4326 67.0284 45.4326C67.642 45.4326 68.1387 45.9312 68.1387 46.5472C68.1387 47.1631 67.642 47.6617 67.0284 47.6617Z" fill="#004EA2"/>
<path d="M72.5581 25.8766H67.9488V20.4652C67.9488 18.6687 66.4951 17.2095 64.7055 17.2095C62.9158 17.2095 61.4622 18.6687 61.4622 20.4652V37.8068C61.4622 39.6033 62.9158 41.0625 64.7055 41.0625C66.4951 41.0625 67.9488 39.6033 67.9488 37.8068V32.3953H72.5581C74.3477 32.3953 75.8014 30.9361 75.8014 29.1396C75.8014 27.3431 74.3477 25.884 72.5581 25.884V25.8766ZM64.7055 38.9213C64.0919 38.9213 63.5951 38.4227 63.5951 37.8068C63.5951 37.1908 64.0919 36.6922 64.7055 36.6922C65.3191 36.6922 65.8158 37.1908 65.8158 37.8068C65.8158 38.4227 65.3191 38.9213 64.7055 38.9213ZM64.7055 21.5797C64.0919 21.5797 63.5951 21.0811 63.5951 20.4652C63.5951 19.8492 64.0919 19.3506 64.7055 19.3506C65.3191 19.3506 65.8158 19.8492 65.8158 20.4652C65.8158 21.0811 65.3191 21.5797 64.7055 21.5797Z" fill="#F18900"/>
<path d="M70.8049 8.03641C70.0452 10.0162 68.4747 11.6001 66.4951 12.3626C66.0349 12.5386 66.0349 13.1839 66.4951 13.3599C68.4674 14.1225 70.0452 15.699 70.8049 17.6861C70.9802 18.1481 71.6231 18.1481 71.7984 17.6861C72.5581 15.7063 74.1286 14.1225 76.1082 13.3599C76.5684 13.1839 76.5684 12.5386 76.1082 12.3626C74.1359 11.6001 72.5581 10.0235 71.7984 8.03641C71.6231 7.57445 70.9802 7.57445 70.8049 8.03641Z" fill="#F18900"/>
<path d="M47.8899 19.0283C42.068 19.0283 37.3273 23.7799 37.3273 29.6313C37.3273 35.4827 42.0607 40.2342 47.8899 40.2342C53.7191 40.2342 58.4526 35.4827 58.4526 29.6313C58.4526 23.7799 53.7191 19.0283 47.8899 19.0283ZM47.8899 25.547C50.1325 25.547 51.9587 27.3802 51.9587 29.6313C51.9587 31.8824 50.1325 33.7155 47.8899 33.7155C45.6474 33.7155 43.8212 31.8824 43.8212 29.6313C43.8212 27.3802 45.6474 25.547 47.8899 25.547ZM39.9351 28.4727C39.9351 27.8568 40.4318 27.3582 41.0454 27.3582C41.659 27.3582 42.1557 27.8568 42.1557 28.4727C42.1557 29.0887 41.659 29.5873 41.0454 29.5873C40.4318 29.5873 39.9351 29.0887 39.9351 28.4727ZM55.1362 32.205C54.0478 35.2774 51.1332 37.3452 47.8899 37.3452C44.6466 37.3452 41.732 35.2847 40.6436 32.2124C40.5925 32.073 40.5998 31.9264 40.6655 31.7944C40.7313 31.6624 40.8408 31.5598 40.9723 31.5158C41.1111 31.4644 41.2572 31.4718 41.3887 31.5378C41.5202 31.6037 41.6225 31.7137 41.6663 31.8457C42.6013 34.4855 45.0995 36.26 47.8826 36.26C50.6657 36.26 53.1713 34.4855 54.1063 31.8457C54.1574 31.7064 54.2524 31.5964 54.3838 31.5378C54.5153 31.4791 54.6614 31.4644 54.8002 31.5158C54.939 31.5671 55.0486 31.6624 55.107 31.7944C55.1728 31.9264 55.1801 32.073 55.1289 32.2124L55.1362 32.205ZM54.9682 29.5873C54.3546 29.5873 53.8579 29.0887 53.8579 28.4727C53.8579 27.8568 54.3546 27.3582 54.9682 27.3582C55.5818 27.3582 56.0786 27.8568 56.0786 28.4727C56.0786 29.0887 55.5818 29.5873 54.9682 29.5873Z" fill="#004EA2"/>
<path d="M125.437 25.2537C126.131 25.2537 126.701 24.689 126.701 23.9851V18.207C126.701 17.5104 126.138 16.9385 125.437 16.9385H119.681C118.987 16.9385 118.417 17.5031 118.417 18.207V23.9851C118.417 24.6817 118.98 25.2537 119.681 25.2537H125.437ZM120.937 22.7166V19.4682H124.173V22.7166H120.937Z" fill="#666464"/>
<path d="M130.061 15.9194C129.367 15.9194 128.797 16.484 128.797 17.188V24.6159C128.797 25.3125 129.36 25.8845 130.061 25.8845C130.762 25.8845 131.325 25.3198 131.325 24.6159V17.188C131.325 16.4914 130.762 15.9194 130.061 15.9194Z" fill="#666464"/>
<path d="M136.161 18.5078H141.442V20.3336C141.442 21.0302 142.004 21.6021 142.706 21.6021C143.407 21.6021 143.969 21.0375 143.969 20.3336V17.2392C143.969 16.9753 143.889 16.7333 143.75 16.528C143.524 16.1907 143.137 15.9707 142.706 15.9707H136.161C135.467 15.9707 134.897 16.5353 134.897 17.2392C134.897 17.9432 135.459 18.5078 136.161 18.5078Z" fill="#666464"/>
<path d="M142.706 32.7843C143.4 32.7843 143.969 32.2197 143.969 31.5157V28.4214C143.969 28.3334 143.962 28.2454 143.94 28.1647C143.904 28.0034 143.838 27.8494 143.75 27.7101C143.524 27.3728 143.137 27.1528 142.706 27.1528H136.161C135.467 27.1528 134.897 27.7174 134.897 28.4214C134.897 29.118 135.459 29.6899 136.161 29.6899H141.442V31.5157C141.442 32.2123 142.004 32.7843 142.706 32.7843Z" fill="#666464"/>
<path d="M138.177 24.7256V25.6275C138.177 26.3241 138.739 26.896 139.44 26.896C140.142 26.896 140.704 26.3314 140.704 25.6275V24.7256H144.269C144.963 24.7256 145.532 24.1609 145.532 23.457C145.532 22.7531 144.97 22.1885 144.269 22.1885H134.612C133.918 22.1885 133.348 22.7531 133.348 23.457C133.348 24.1609 133.911 24.7256 134.612 24.7256H138.177Z" fill="#666464"/>
<path d="M107.015 26.7861C106.321 26.7861 105.751 27.3507 105.751 28.0547V30.7604C105.751 31.457 106.313 32.029 107.015 32.029H113.465C114.159 32.029 114.728 31.4643 114.728 30.7604C114.728 30.0565 114.166 29.4919 113.465 29.4919H108.278V28.0547C108.278 27.3581 107.716 26.7861 107.015 26.7861Z" fill="#666464"/>
<path d="M114.305 49.7081H109.118V47.9263C109.118 47.2297 108.556 46.6577 107.855 46.6577C107.161 46.6577 106.591 47.2223 106.591 47.9263V50.9766C106.591 51.6732 107.153 52.2452 107.855 52.2452H114.305C114.999 52.2452 115.568 51.6806 115.568 50.9766C115.568 50.28 115.006 49.7081 114.305 49.7081Z" fill="#666464"/>
<path d="M130.061 29.4919H124.875V28.0547C124.875 27.3581 124.312 26.7861 123.611 26.7861C122.91 26.7861 122.347 27.3507 122.347 28.0547V30.7604C122.347 31.457 122.91 32.029 123.611 32.029H130.061C130.755 32.029 131.325 31.4643 131.325 30.7604C131.325 30.0565 130.762 29.4919 130.061 29.4919Z" fill="#666464"/>
<path d="M116.007 19.6073H114.721V17.1582C114.721 16.4616 114.159 15.8896 113.457 15.8896C112.756 15.8896 112.194 16.4543 112.194 17.1582V24.5861C112.194 25.2827 112.756 25.8547 113.457 25.8547C114.159 25.8547 114.721 25.2901 114.721 24.5861V22.137H116.007C116.701 22.137 117.27 21.5724 117.27 20.8685C117.27 20.1646 116.708 19.5999 116.007 19.5999V19.6073Z" fill="#666464"/>
<path d="M105.787 26.0455C108.052 26.0455 109.893 24.1977 109.893 21.9246C109.893 20.81 109.447 19.8055 108.731 19.0576C109.411 19.0356 109.951 18.4783 109.951 17.7963C109.951 17.1144 109.389 16.5278 108.687 16.5278H107.044V15.6919C107.044 14.9953 106.481 14.4233 105.78 14.4233C105.086 14.4233 104.516 14.988 104.516 15.6919V16.5278H102.873C102.179 16.5278 101.609 17.0924 101.609 17.7963C101.609 18.5003 102.15 19.0356 102.829 19.0576C102.113 19.7981 101.667 20.81 101.667 21.9246C101.667 24.1977 103.508 26.0455 105.773 26.0455H105.787ZM105.787 23.5158C104.918 23.5158 104.202 22.8045 104.202 21.9246C104.202 21.0447 104.911 20.3334 105.787 20.3334C106.664 20.3334 107.372 21.0447 107.372 21.9246C107.372 22.8045 106.664 23.5158 105.787 23.5158Z" fill="#666464"/>
<path d="M97.9786 17.2173C97.2846 17.2173 96.7149 17.7819 96.7149 18.4858V20.9349H95.5242V18.4858C95.5242 17.7892 94.9617 17.2173 94.2605 17.2173C93.5592 17.2173 92.9967 17.7819 92.9967 18.4858V25.9138C92.9967 26.6104 93.5592 27.1823 94.2605 27.1823C94.9617 27.1823 95.5242 26.6177 95.5242 25.9138V23.4647H96.7149V25.9138C96.7149 26.6104 97.2773 27.1823 97.9786 27.1823C98.6798 27.1823 99.2423 26.6177 99.2423 25.9138V18.4858C99.2423 17.7892 98.6798 17.2173 97.9786 17.2173Z" fill="#666464"/>
<path d="M89.9288 26.3533C90.6227 26.3533 91.1925 25.7887 91.1925 25.0847C91.1925 24.3808 90.63 23.8162 89.9288 23.8162H86.4809V20.5678H89.9288C90.6227 20.5678 91.1925 20.0032 91.1925 19.2993C91.1925 18.5954 90.63 18.0308 89.9288 18.0308H85.2245C84.5305 18.0308 83.9608 18.5954 83.9608 19.2993V25.0847C83.9608 25.7813 84.5232 26.3533 85.2245 26.3533H89.9288Z" fill="#666464"/>
<path d="M120.119 43.578C120.653 44.0253 121.449 43.9593 121.894 43.424L125.152 39.6038L128.41 43.424C128.856 43.9593 129.652 44.0327 130.185 43.578C130.718 43.1234 130.792 42.3315 130.339 41.7962L126.116 36.8467C126.116 36.8467 126.058 36.788 126.029 36.7587C126.007 36.7367 125.985 36.7074 125.963 36.6854C125.963 36.6854 125.956 36.6854 125.948 36.678C125.905 36.6414 125.861 36.6194 125.817 36.5901C125.788 36.5754 125.766 36.5534 125.737 36.5387C125.693 36.5167 125.649 36.5021 125.612 36.4874C125.576 36.4727 125.547 36.4581 125.51 36.4507C125.474 36.4361 125.43 36.4361 125.393 36.4287C125.357 36.4214 125.313 36.4141 125.276 36.4067C125.24 36.4067 125.196 36.4067 125.152 36.4067C125.108 36.4067 125.072 36.4067 125.028 36.4067C124.992 36.4067 124.948 36.4214 124.911 36.4287C124.875 36.4361 124.831 36.4434 124.794 36.4507C124.758 36.4581 124.729 36.4801 124.692 36.4874C124.648 36.5021 124.604 36.5167 124.568 36.5387C124.539 36.5534 124.517 36.5754 124.488 36.5901C124.444 36.6194 124.4 36.6414 124.356 36.678C124.356 36.678 124.349 36.678 124.341 36.6854C124.312 36.7074 124.298 36.7367 124.276 36.7587C124.246 36.788 124.217 36.81 124.188 36.8467L119.966 41.7962C119.52 42.3315 119.586 43.1307 120.119 43.578Z" fill="#666464"/>
<path d="M130.061 45.5796H125.196C125.196 45.5796 125.196 45.5796 125.189 45.5796C125.181 45.5796 125.189 45.5796 125.181 45.5796H120.317C119.623 45.5796 119.053 46.1442 119.053 46.8481C119.053 47.5521 119.615 48.1167 120.317 48.1167H123.925V50.9764C123.925 51.673 124.488 52.2449 125.189 52.2449C125.89 52.2449 126.452 51.6803 126.452 50.9764V48.1167H130.061C130.755 48.1167 131.325 47.5521 131.325 46.8481C131.325 46.1442 130.762 45.5796 130.061 45.5796Z" fill="#666464"/>
<path d="M144.736 49.0555H141.208V47.5156C141.208 46.819 140.646 46.2471 139.944 46.2471C139.243 46.2471 138.681 46.8117 138.681 47.5156V49.0555H135.152C134.459 49.0555 133.889 49.6201 133.889 50.324C133.889 51.0206 134.451 51.5925 135.152 51.5925H139.93C139.93 51.5925 139.93 51.5925 139.937 51.5925C139.944 51.5925 139.937 51.5925 139.944 51.5925H144.722C145.416 51.5925 145.985 51.0279 145.985 50.324C145.985 49.6274 145.423 49.0555 144.722 49.0555H144.736Z" fill="#666464"/>
<path d="M143.224 39.5742C143.918 39.5742 144.488 39.0096 144.488 38.3057C144.488 37.6017 143.925 37.0371 143.224 37.0371H136.628C135.934 37.0371 135.364 37.6017 135.364 38.3057V44.0911C135.364 44.7877 135.927 45.3596 136.628 45.3596H143.224C143.918 45.3596 144.488 44.795 144.488 44.0911C144.488 43.3872 143.925 42.8225 143.224 42.8225H137.892V39.5742H143.224Z" fill="#666464"/>
<path d="M104.136 45.4402H108.242C108.936 45.4402 109.505 44.8756 109.505 44.1717C109.505 43.4678 108.943 42.9031 108.242 42.9031H105.393V37.9243C105.393 37.2277 104.83 36.6558 104.129 36.6558C103.428 36.6558 102.865 37.2204 102.865 37.9243V44.1497C102.865 44.1497 102.865 44.1644 102.865 44.1717C102.865 44.6996 103.187 45.1469 103.64 45.3376C103.793 45.4036 103.961 45.4402 104.129 45.4402C104.129 45.4402 104.129 45.4402 104.136 45.4402Z" fill="#666464"/>
<path d="M114.305 35.7246C113.611 35.7246 113.041 36.2892 113.041 36.9932V37.8291H110.864C110.17 37.8291 109.6 38.3937 109.6 39.0976C109.6 39.8015 110.163 40.3662 110.864 40.3662H113.041V41.0701H110.864C110.17 41.0701 109.6 41.6347 109.6 42.3386C109.6 43.0426 110.163 43.6072 110.864 43.6072H113.041V44.4138C113.041 45.1104 113.603 45.6823 114.305 45.6823C115.006 45.6823 115.568 45.1177 115.568 44.4138V37.0005C115.568 36.3039 115.006 35.7319 114.305 35.7319V35.7246Z" fill="#666464"/>
<path d="M90.63 44.0397C90.9952 44.6336 91.7696 44.8243 92.3612 44.4576C92.9529 44.091 93.1428 43.3138 92.7776 42.7198L91.1486 40.0434H92.1275C92.8214 40.0434 93.3912 39.4788 93.3912 38.7749C93.3912 38.0709 92.8287 37.5063 92.1275 37.5063H90.5131V36.6631C90.5131 35.9665 89.9507 35.3945 89.2494 35.3945C88.5482 35.3945 87.9857 35.9591 87.9857 36.6631V37.5063H86.3713C85.6774 37.5063 85.1076 38.0709 85.1076 38.7749C85.1076 39.4788 85.6701 40.0434 86.3713 40.0434H87.3502L85.7212 42.7198C85.356 43.3138 85.5459 44.0983 86.1376 44.4576C86.7293 44.8243 87.5109 44.6336 87.8688 44.0397L89.2421 41.7812L90.6154 44.0397H90.63Z" fill="#666464"/>
<path d="M97.9786 35.7246C97.2846 35.7246 96.7149 36.2892 96.7149 36.9932V39.9555H94.9179C94.2239 39.9555 93.6542 40.5201 93.6542 41.2241C93.6542 41.9207 94.2166 42.4926 94.9179 42.4926H96.7149V44.4138C96.7149 45.1104 97.2773 45.6823 97.9786 45.6823C98.6798 45.6823 99.2423 45.1177 99.2423 44.4138V37.0005C99.2423 36.3039 98.6798 35.7319 97.9786 35.7319V35.7246Z" fill="#666464"/>
<path d="M93.9172 45.0518C91.6746 45.0518 89.8557 46.8776 89.8557 49.1287C89.8557 51.3798 91.6746 53.2056 93.9172 53.2056C96.1597 53.2056 97.9786 51.3798 97.9786 49.1287C97.9786 46.8776 96.1597 45.0518 93.9172 45.0518ZM93.9172 50.6685C93.0698 50.6685 92.3832 49.9793 92.3832 49.1214C92.3832 48.2634 93.0698 47.5815 93.9172 47.5815C94.7645 47.5815 95.4511 48.2708 95.4511 49.1214C95.4511 49.9719 94.7645 50.6685 93.9172 50.6685Z" fill="#666464"/>
</g>
<defs>
<clipPath id="clip0_1_290">
<rect width="146" height="61" fill="white"/>
</clipPath>
</defs>
</svg>
