<svg xmlns="http://www.w3.org/2000/svg" width="56.237" height="56.237" viewBox="0 0 56.237 56.237"><path d="M28.119,56.237A28.119,28.119,0,1,0,0,28.119,28.119,28.119,0,0,0,28.119,56.237Z" fill="#b48911" opacity="0.67"/><path d="M16.151,34.168V23.778H22.5v10.39h-2.17V33.7Zm2.209-2.121,1.975-.207V25.622H18.36Zm5.685,2.5V23.386h2.29V27.52h1.338v2.072H26.334v4.956Z" fill="#fff"/><path d="M27.689,34.347V32.481h4.352V30.349h2.29v2.132h4.412v1.866Zm.337-4.4V28.233h1.746l-.239-2.666h2.122l.207,2.666h2.666l.217-2.666h2.122l-.239,2.666h1.784v1.713H28.026Zm.12-4.64V23.582H38.28v1.724Z" fill="#fff"/></svg>