<svg xmlns="http://www.w3.org/2000/svg" width="56.643" height="56.643" viewBox="0 0 56.643 56.643"><g transform="translate(-5.478 -5.478)"><path d="M61.436,39.961a28.315,28.315,0,1,0-33.8,21.474A28.315,28.315,0,0,0,61.436,39.961Z" fill="#ec76a2" opacity="0.67"/><path d="M9.818,37.3c1.3-.849,2.487-2.175,2.514-5.609V29.306h2.284v2.388c.022,3.435,1.211,4.755,2.514,5.609v2.586a7.668,7.668,0,0,1-3.654-3.555,7.667,7.667,0,0,1-3.654,3.555V37.3Zm6.1-2.525V32.8H18.3V29.048H20.6V40.289H18.3V34.778Z" fill="#fff"/><path d="M21.891,39.9V29.437h5.1v1.868H23.934v6.469l3.424-.318V39.4l-5.462.5Zm5.9.389V29.048h1.928v4.224h.937V29.048h2V40.289h-2V35.255h-.937v5.034Z" fill="#fff"/><path d="M38,37.545v-1.7h-4.5V34.088H44.625v1.758h-4.4v1.7H38Zm-4-4.152V29.07H44.115v4.322Zm0,6.9V36.455h2.284v2.175H44.3v1.665H34Zm2.235-8.436H41.9V30.615h-5.67Z" fill="#fff"/><path d="M49.725,40.41V36.717H45.392V34.751H56.523v1.967H52.08V40.41Zm3.506-6.042.378-3.243H45.83V29.246H56.074l-.57,5.122H53.23Z" fill="#fff"/></g></svg>