<svg width="119" height="143" viewBox="0 0 119 143" fill="none" xmlns="http://www.w3.org/2000/svg">
<path d="M92.7036 2.87763H96.6642L95.2538 0.352661L92.7036 2.87763Z" fill="#DC2772"/>
<path d="M105.159 3.16101H13.586C6.39791 3.16101 0.570801 8.98813 0.570801 16.1762V129.296C0.570801 136.484 6.39791 142.311 13.586 142.311H105.159C112.347 142.311 118.174 136.484 118.174 129.296V16.1762C118.174 8.98813 112.347 3.16101 105.159 3.16101Z" fill="white" stroke="#515B96" stroke-miterlimit="10"/>
<path d="M16.1866 39.1592C16.1866 37.5346 17.956 35.6582 19.335 34.2793C20.3173 33.2781 21.2429 32.4154 21.2429 31.2631C21.2429 30.1109 20.714 29.5819 19.6561 29.6386C18.869 29.6827 18.0945 30.5453 17.6286 31.6661L15.8403 30.7405C16.4448 29.2104 17.8679 27.844 19.7569 27.7685C22.1496 27.6803 23.4656 28.9837 23.4215 31.175C23.39 32.8436 21.967 34.3233 20.714 35.5701C19.9143 36.376 19.0013 37.3142 18.7179 38.1139H23.6482V39.7951H16.1866V39.1466V39.1592Z" fill="#2A3089"/>
<path d="M27.9613 40.0407C25.5371 40.0407 24.2085 38.1643 24.2085 33.9015C24.2085 29.6386 25.5371 27.7622 27.9613 27.7622C30.3855 27.7622 31.7771 29.6575 31.7771 33.9015C31.7771 38.1454 30.417 40.0407 27.9613 40.0407ZM27.9613 38.3406C29.2647 38.3406 29.6866 36.7161 29.6866 33.9015C29.6866 31.0869 29.2647 29.4749 27.9613 29.4749C26.6579 29.4749 26.299 31.0806 26.299 33.9015C26.299 36.7224 26.6768 38.3406 27.9613 38.3406Z" fill="#2A3089"/>
<path d="M32.5265 39.1592C32.5265 37.5346 34.2959 35.6582 35.6748 34.2793C36.6571 33.2781 37.5827 32.4154 37.5827 31.2631C37.5827 30.1109 37.0538 29.5819 35.9959 29.6386C35.2089 29.6827 34.4344 30.5453 33.9684 31.6661L32.1802 30.7405C32.7847 29.2104 34.2077 27.844 36.0967 27.7685C38.4894 27.6803 39.8054 28.9837 39.7614 31.175C39.7299 32.8436 38.3068 34.3233 37.0538 35.5701C36.2541 36.376 35.3411 37.3142 35.0578 38.1139H39.9881V39.7951H32.5265V39.1466V39.1592Z" fill="#2A3089"/>
<path d="M45.1327 27.9448H47.3554V35.929H48.5077V37.6102H47.3554V39.8077H45.3719V37.6102H40.2275V36.1682L45.1327 27.9385V27.9448ZM45.3719 35.9604V31.0679L42.4503 35.9604H45.3719Z" fill="#2A3089"/>
<path d="M59.8035 39.2348C58.8653 38.5988 57.1841 36.779 56.6866 35.4756C56.1703 37.1128 54.5835 38.857 53.5383 39.5055L52.1152 38.2965C54.2813 36.8105 55.4714 34.2226 55.4714 31.5402V27.8441H57.6815V31.6032C57.6815 33.9959 59.2557 36.4831 61.2202 37.9817L59.7972 39.2411L59.8035 39.2348ZM64.4504 40.8089H62.3033V33.4607H59.4005V31.641H62.3033V27.6426H64.4504V40.8089Z" fill="#2A3089"/>
<path d="M77.3841 40.8089H75.3125V34.0525H74.2357V40.6578H72.1641V38.9325C71.8493 39.2662 71.0874 39.4929 70.4263 39.4929H68.065C66.812 39.4929 65.9619 38.9639 65.9619 37.415V27.9448H71.377V29.6575H68.1091V37.2009C68.1091 37.6731 68.2476 37.7928 68.5813 37.7928H70.5774C71.6226 37.7928 72.1641 37.2953 72.1641 36.5019V27.6362H74.2357V32.2391H75.3125V27.6362H77.3841V40.8026V40.8089Z" fill="#2A3089"/>
<path d="M78.4419 34.2226H90.3993V35.9164H85.8279V38.221H83.6178V35.9164H78.4419V34.2226ZM89.417 27.7937V33.2655H81.0361C79.8587 33.2655 79.4179 32.7051 79.4179 31.5969V27.7937H89.4233H89.417ZM89.417 40.7334H81.351C80.1861 40.7334 79.6257 40.11 79.6257 38.9577V36.7161H81.8484V38.5043C81.8484 38.9766 81.924 39.0647 82.3647 39.0647H89.417V40.7334ZM87.1754 31.6724V29.3868H81.6532V31.1624C81.6532 31.6347 81.6847 31.6787 82.1381 31.6787H87.1754V31.6724Z" fill="#2A3089"/>
<path d="M91.1484 34.4303H99.29C99.5293 33.7314 99.7623 32.7617 99.7623 31.8109V29.6007H92.074V27.8566H102.092V31.5086C102.092 32.4783 101.821 33.6747 101.544 34.4303H103.106V36.1556H98.2763V40.8088H95.978V36.1556H91.1484V34.4303Z" fill="#2A3089"/>
<path d="M25.7511 45.6636C28.2005 45.6636 29.655 47.1622 29.655 49.1205C29.655 51.0787 28.2005 52.5773 25.7511 52.5773C23.3017 52.5773 21.8472 51.0787 21.8472 49.1205C21.8472 47.1622 23.3143 45.6636 25.7511 45.6636ZM33.4079 58.9936H25.3418C24.2525 58.9936 23.7047 58.4647 23.7047 57.4006V55.266H31.0151V54.6615H23.7047V53.1314H33.2819V56.7961H25.9715V57.1424C25.9715 57.4132 26.0345 57.4635 26.2611 57.4635H33.4016V58.9936H33.4079ZM25.7511 51.0094C26.8404 51.0094 27.5834 50.235 27.5834 49.1142C27.5834 47.9933 26.8404 47.2377 25.7511 47.2377C24.6618 47.2377 23.9062 47.9933 23.9062 49.1142C23.9062 50.235 24.6807 51.0094 25.7511 51.0094ZM33.2882 52.6025H31.1411V45.8273H33.2882V52.6025Z" fill="#2A3089"/>
<path d="M34.6739 46.1296H42.318V47.8297H39.3838V49.832C39.3838 52.2248 40.8194 54.7245 42.7714 56.1665L41.3672 57.4258C40.5046 56.7899 38.8674 55.0016 38.37 53.6667C37.7466 55.3794 36.2669 56.9976 35.2531 57.6966L33.8931 56.4561C36.0591 54.9072 37.2051 52.59 37.2051 49.895V47.836H34.6801V46.1359L34.6739 46.1296ZM45.5419 50.4302H46.965V52.2311H45.5419V58.9874H43.3947V45.821H45.5419V50.4239V50.4302Z" fill="#2A3089"/>
<path d="M58.6263 58.9937H56.4791V57.2054C56.1328 57.5517 55.3016 57.8288 54.332 57.8288H49.9117C48.5957 57.8288 47.8086 57.1613 47.8086 55.6627V50.7387H52.6948V47.8423H47.8086V46.1296H54.905V52.4325H50.0313V55.4801C50.0313 56.0405 50.195 56.1476 50.6358 56.1476H54.5272C56.0132 56.1476 56.4791 55.436 56.4791 54.7245V45.8336H58.6263V59V58.9937Z" fill="#2A3089"/>
<path d="M62.2844 47.8737H65.3257V46.054H67.4728V53.1755H61.7995C60.4961 53.1755 60.1372 52.6277 60.1372 51.4314V46.054H62.2844V47.8737ZM61.4406 54.3152H70.9612V59H68.7699V56.0153H61.4469V54.3152H61.4406ZM65.3257 51.5573V49.4983H62.2844V50.9843C62.2844 51.4565 62.3725 51.5573 62.8133 51.5573H65.3257ZM70.9549 48.5727H72.3779V50.3735H70.9549V53.6793H68.8077V45.8336H70.9549V48.579V48.5727Z" fill="#2A3089"/>
<path d="M72.9951 46.054H80.2615V50.3294H75.2241V50.9024C75.2241 51.4628 75.2997 51.5069 75.7405 51.5069H79.7829C81.2375 51.5069 81.5208 50.8709 81.5208 50.0838V45.8273H83.668V48.3585H85.091V50.1594H83.668V53.4903H81.5208V52.5836C81.1871 52.9929 80.293 53.1314 79.6444 53.1314H74.8778C73.6374 53.1314 73.0014 52.6151 73.0014 51.1165V48.7048H78.0388V47.6722H73.0014V46.0477L72.9951 46.054ZM74.2356 54.0255H83.6617V58.9936H75.9608C74.796 58.9936 74.2356 58.3702 74.2356 57.218V54.0192V54.0255ZM81.5145 57.3754V55.6501H76.3827V56.815C76.3827 57.2872 76.4583 57.3754 76.8991 57.3754H81.5145Z" fill="#2A3089"/>
<path d="M89.5618 48.6923C91.986 48.6923 93.3461 49.9517 93.3461 51.6644C93.3461 53.0874 92.3953 54.2082 90.6826 54.542V55.9083H92.7983C94.278 55.9083 94.7502 55.1968 94.7502 54.4853V45.8337H96.8974V59H94.7502V56.9851C94.4039 57.3314 93.5728 57.6084 92.6031 57.6084H85.2485V55.9146H88.5039V54.5671C86.7472 54.246 85.8278 53.1252 85.8278 51.6707C85.8278 49.958 87.1313 48.6986 89.5681 48.6986L89.5618 48.6923ZM85.4311 46.7341H88.441V45.5062H90.6826V46.7341H93.6042V48.3712H85.4311V46.7341ZM89.5618 53.163C90.6511 53.163 91.2871 52.527 91.2871 51.6644C91.2871 50.8017 90.6511 50.1658 89.5618 50.1658C88.4724 50.1658 87.868 50.8143 87.868 51.6644C87.868 52.5144 88.4724 53.163 89.5618 53.163Z" fill="#2A3089"/>
<path d="M15.5632 79.7033L19.0641 76.2905C20.0653 75.2831 20.5816 74.6912 20.5816 73.8474C20.5816 72.9155 19.8512 72.3299 18.8878 72.3299C17.8678 72.3299 17.2129 72.9722 17.2192 73.9859H15.5254C15.5191 72.0906 16.9296 70.8628 18.9067 70.8628C20.8839 70.8628 22.2943 72.0843 22.3006 73.7656C22.2943 74.8927 21.7591 75.8057 19.8134 77.6632L18.0504 79.4326V79.5018H22.458V81.0067H15.5758V79.7096L15.5632 79.7033Z" fill="black"/>
<path d="M23.5728 76.0009C23.5665 72.7392 25.0021 70.8628 27.376 70.8628C29.7498 70.8628 31.1792 72.7392 31.1792 76.0009C31.1792 79.2626 29.7561 81.139 27.376 81.139C24.9958 81.139 23.5665 79.2752 23.5728 76.0009ZM27.376 79.6341C28.6164 79.6278 29.3846 78.4062 29.3846 76.0009C29.3783 73.6144 28.6101 72.3614 27.376 72.3551C26.1355 72.3614 25.3736 73.6207 25.3673 76.0009C25.3673 78.4062 26.1355 79.6278 27.376 79.6341Z" fill="black"/>
<path d="M32.3879 79.7033L35.8888 76.2905C36.89 75.2831 37.4063 74.6912 37.4063 73.8474C37.4063 72.9155 36.6759 72.3299 35.7125 72.3299C34.6925 72.3299 34.0376 72.9722 34.0439 73.9859H32.3501C32.3438 72.0906 33.7543 70.8628 35.7314 70.8628C37.7086 70.8628 39.119 72.0843 39.1253 73.7656C39.119 74.8927 38.5838 75.8057 36.6382 77.6632L34.8751 79.4326V79.5018H39.2827V81.0067H32.4005V79.7096L32.3879 79.7033Z" fill="black"/>
<path d="M40.1582 77.701L44.4399 71.0013H46.6564V77.6632H47.9535V79.1429H46.6564V81.0068H44.9626V79.1429H40.1582V77.7073V77.701ZM44.9878 77.6632V73.0478H44.8807L41.9779 77.594V77.6632H44.9878Z" fill="black"/>
<path d="M48.841 80.037C48.8348 79.4577 49.3196 78.9792 49.9052 78.9729C50.4719 78.9792 50.9567 79.4577 50.9567 80.037C50.9567 80.6163 50.4719 81.1138 49.9052 81.1138C49.3385 81.1138 48.8285 80.6289 48.841 80.037Z" fill="black"/>
<path d="M55.1504 81.0068H53.3558V72.7582H53.2991L50.9883 74.2505V72.607L53.4377 71.0077H55.1504V81.0131V81.0068Z" fill="black"/>
<path d="M57.1275 76.0009C57.1212 72.7392 58.5568 70.8628 60.9306 70.8628C63.3045 70.8628 64.7338 72.7392 64.7338 76.0009C64.7338 79.2626 63.3108 81.139 60.9306 81.139C58.5505 81.139 57.1212 79.2752 57.1275 76.0009ZM60.9306 79.6341C62.1711 79.6278 62.9393 78.4062 62.9393 76.0009C62.933 73.6144 62.1648 72.3614 60.9306 72.3551C59.6902 72.3614 58.9283 73.6207 58.922 76.0009C58.922 78.4062 59.6902 79.6278 60.9306 79.6341Z" fill="black"/>
<path d="M65.5837 80.037C65.5774 79.4577 66.0623 78.9792 66.6479 78.9729C67.2146 78.9792 67.6994 79.4577 67.6994 80.037C67.6994 80.6163 67.2146 81.1138 66.6479 81.1138C66.0812 81.1138 65.5711 80.6289 65.5837 80.037Z" fill="black"/>
<path d="M71.893 81.0068H70.0985V72.7582H70.0418L67.731 74.2505V72.607L70.1804 71.0077H71.893V81.0131V81.0068Z" fill="black"/>
<path d="M78.0449 81.0068H76.2504V72.7582H76.1937L73.8828 74.2505V72.607L76.3322 71.0077H78.0449V81.0131V81.0068Z" fill="black"/>
<path d="M79.657 80.037C79.6507 79.4577 80.1355 78.9792 80.7211 78.9729C81.2878 78.9792 81.7726 79.4577 81.7726 80.037C81.7726 80.6163 81.2878 81.1138 80.7211 81.1138C80.1544 81.1138 79.6444 80.6289 79.657 80.037Z" fill="black"/>
<path d="M85.5508 70.5731H87.1942C86.2497 71.9458 85.3052 74.7163 85.3052 77.1909C85.3052 79.6655 86.2497 82.4423 87.1942 83.8213H85.5508C84.2662 81.9575 83.498 79.7914 83.498 77.1909C83.498 74.5904 84.2662 72.4243 85.5508 70.5731Z" fill="black"/>
<path d="M97.634 71.3162C97.6403 72.2922 97.6403 73.3941 97.3318 74.8675H99.013V76.1079H87.7104V74.8675H95.7891C96.085 73.5137 96.1102 72.4937 96.1102 71.5806H89.1083V70.3528H97.634V71.3225V71.3162ZM89.0705 77.5625H97.6214V82.0835H89.0705V77.5625ZM96.1165 80.8368V78.7651H90.5628V80.8368H96.1165Z" fill="black"/>
<path d="M101.166 83.8213H99.5229C100.467 82.4423 101.412 79.6655 101.412 77.1909C101.412 74.7163 100.467 71.9458 99.5229 70.5731H101.166C102.451 72.4243 103.219 74.5967 103.219 77.1909C103.219 79.7852 102.451 81.9575 101.166 83.8213Z" fill="black"/>
<path d="M25.9842 94.7209C26.4816 94.7209 26.9035 95.105 26.9035 95.5899C26.9035 96.0747 26.4879 96.4651 25.9842 96.4588C25.4804 96.4651 25.0585 96.0747 25.0522 95.5899C25.0585 95.105 25.4741 94.7209 25.9842 94.7209ZM25.2474 97.6174H26.7146V105.117H25.2474V97.6174Z" fill="black"/>
<path d="M29.6679 105.123H28.207V97.6237H29.6175V98.8515H29.6993C30.0457 98.0456 30.7824 97.5229 31.8906 97.5229C33.4144 97.5229 34.4281 98.4989 34.4218 100.356V105.123H32.9736V100.533C32.9673 99.4434 32.388 98.7949 31.3994 98.7949C30.4109 98.7949 29.6742 99.4812 29.6742 100.671V105.123H29.6679Z" fill="black"/>
<path d="M46.1649 102.441L45.3715 103.492C43.9799 102.787 42.9284 101.389 42.3869 99.7017C41.8454 101.484 40.7812 102.989 39.3645 103.732L38.5459 102.667C40.4475 101.748 41.7131 99.368 41.7194 97.0697V94.954H43.0354V97.0697C43.0354 99.3365 44.2948 101.597 46.1712 102.447L46.1649 102.441ZM44.8111 98.0331H47.5501V93.915H48.8347V106.319H47.5501V99.0909H44.8111V98.0268V98.0331Z" fill="black"/>
<path d="M50.8496 95.4073H55.4462V96.4714H52.1467V102.208C53.6516 102.201 54.785 102.132 56.101 101.874L56.1955 102.951C54.7221 103.259 53.4501 103.31 51.6682 103.322H50.8496V95.4073ZM60.9621 106.294H59.7153V99.8968H58.1286V105.658H56.9385V94.1606H58.1286V98.8138H59.7153V93.9087H60.9621V106.288V106.294Z" fill="black"/>
<path d="M73.4736 101.238H68.6V103.643H67.3155V101.238H62.2529V100.174H73.4736V101.238ZM63.6445 102.472H64.9416V104.972H72.2206V106.036H63.6445V102.472ZM63.6886 94.5006H72.0191V98.8957H63.6886V94.5006ZM70.7346 97.8567V95.5333H64.9605V97.8567H70.7346Z" fill="black"/>
<path d="M83.8443 95.7851C83.8443 96.9626 83.8443 98.2345 83.5043 99.9976H85.2674V101.074H80.2993V106.313H78.9833V101.074H74.0845V99.9976H82.182C82.5472 98.2282 82.5472 96.9374 82.5535 95.7851V95.7725H75.4508V94.6958H83.838V95.7851H83.8443Z" fill="black"/>
<path d="M93.2642 99.9031L92.6471 100.923C91.224 100.514 90.1536 99.6324 89.5932 98.4864C89.058 99.7646 87.9939 100.778 86.5267 101.244L85.9097 100.237C87.7672 99.6387 88.9195 98.159 88.9195 96.5596V96.4085H86.2497V95.3569H88.9195V93.8646H90.2166V95.3569H92.8738V96.4085H90.204V96.5596C90.204 98.0204 91.3878 99.3805 93.2579 99.9031H93.2642ZM92.03 101.698C94.5928 101.704 96.1669 102.529 96.1732 103.977C96.1669 105.438 94.5928 106.275 92.03 106.269C89.461 106.275 87.8805 105.432 87.8868 103.977C87.8805 102.529 89.461 101.704 92.03 101.698ZM92.03 105.262C93.8309 105.255 94.8824 104.777 94.8887 103.977C94.8824 103.177 93.8309 102.718 92.03 102.718C90.2292 102.718 89.165 103.171 89.1713 103.977C89.165 104.777 90.2292 105.255 92.03 105.262ZM92.496 97.3845H94.8383V93.915H96.1355V101.414H94.8383V98.4549H92.496V97.3782V97.3845Z" fill="black"/>
<path d="M30.5175 117.433C30.5238 113.951 32.0161 111.961 34.39 111.961C36.216 111.961 37.4817 113.107 37.7146 114.694H36.2223C36.0271 113.882 35.3849 113.29 34.39 113.284C32.8599 113.29 31.9658 114.631 31.9658 116.892H32.0728C32.6143 116.042 33.5462 115.544 34.6167 115.538C36.3797 115.544 37.8028 116.91 37.8028 118.825C37.8028 120.739 36.386 122.25 34.2578 122.237C32.4254 122.225 30.5112 121.123 30.5112 117.427L30.5175 117.433ZM34.2578 120.966C35.4541 120.959 36.3483 120.021 36.3483 118.85C36.3483 117.679 35.4856 116.772 34.2955 116.778C33.0866 116.772 32.161 117.754 32.1484 118.862C32.1547 119.977 33.0362 120.953 34.2578 120.966Z" fill="black"/>
<path d="M49.8866 118.189H38.71V117.112H49.8866V118.189ZM43.5647 113.12H39.8308V112.068H43.6466V110.878H44.9311V112.068H48.7594V113.12H45.0129C45.1577 114.316 46.8452 115.21 49.2821 115.412L48.8854 116.419C46.7634 116.218 45.0444 115.5 44.2888 114.348C43.5206 115.5 41.8142 116.218 39.7048 116.419L39.2955 115.412C41.7261 115.21 43.4073 114.316 43.5647 113.12ZM44.2888 119.114C46.9586 119.114 48.5076 119.845 48.5139 121.186C48.5076 122.527 46.9523 123.251 44.2888 123.245C41.6064 123.251 40.0322 122.527 40.0322 121.186C40.0322 119.845 41.6064 119.114 44.2888 119.114ZM44.2888 122.25C46.1589 122.263 47.2168 121.891 47.2168 121.186C47.2168 120.481 46.1589 120.097 44.2888 120.097C42.4187 120.097 41.342 120.481 41.3482 121.186C41.342 121.891 42.3935 122.263 44.2888 122.25Z" fill="black"/>
<path d="M54.0801 112.389H58.6767V113.454H55.3772V119.19C56.8821 119.184 58.0155 119.114 59.3315 118.856L59.426 119.933C57.9525 120.241 56.6806 120.292 54.8987 120.304H54.0801V112.389ZM64.1926 123.276H62.9458V116.879H61.3591V122.64H60.169V111.143H61.3591V115.796H62.9458V110.891H64.1926V123.27V123.276Z" fill="black"/>
<path d="M70.357 112.843H66.0312V111.779H71.7611C71.7611 114.977 69.6077 117.288 66.0123 118.34L65.4771 117.276C68.3483 116.463 70.1051 114.845 70.3507 112.843H70.357ZM71.2133 118.384C73.6816 118.378 75.2621 119.309 75.2621 120.814C75.2621 122.319 73.6816 123.251 71.2133 123.257C68.7513 123.251 67.1394 122.332 67.152 120.814C67.1394 119.309 68.7513 118.378 71.2133 118.384ZM71.2133 122.225C72.9197 122.219 73.9902 121.683 73.9902 120.814C73.9902 119.945 72.9134 119.41 71.2133 119.416C69.4943 119.41 68.4302 119.939 68.4365 120.814C68.4302 121.683 69.4943 122.219 71.2133 122.225ZM75.1299 114.02H76.9055V115.084H75.1299V118.245H73.8328V110.897H75.1299V114.02Z" fill="black"/>
<path d="M77.8438 111.81H83.3156V112.874H79.1283V116.243C81.5462 116.23 82.9063 116.161 84.449 115.84L84.5749 116.904C82.9315 117.244 81.4706 117.307 78.8134 117.307H77.8438V111.81ZM83.0007 118.441C85.5068 118.447 87.0621 119.335 87.0621 120.846C87.0621 122.357 85.5005 123.257 83.0007 123.251C80.4695 123.257 78.8827 122.376 78.8827 120.846C78.8827 119.316 80.4695 118.447 83.0007 118.441ZM83.0007 122.2C84.7386 122.206 85.8153 121.702 85.8216 120.846C85.8153 119.989 84.7386 119.498 83.0007 119.505C81.2314 119.498 80.1609 119.989 80.1672 120.846C80.1609 121.702 81.2251 122.206 83.0007 122.2ZM86.9676 114.033H88.7307V115.11H86.9676V118.208H85.6516V110.897H86.9676V114.033Z" fill="black"/>
<path d="M104.963 0.352661H95.2539V15.8614H104.963V0.352661Z" fill="#EC76A2"/>
<path d="M95.2539 20.5524V15.6284H100.927" fill="#EC76A2"/>
<path d="M104.963 20.5524V15.6284H99.29" fill="#EC76A2"/>
</svg>
