<svg xmlns="http://www.w3.org/2000/svg" xmlns:xlink="http://www.w3.org/1999/xlink" width="418.817" height="335.264" viewBox="0 0 418.817 335.264"><defs><clipPath id="a"><rect width="211.832" height="335.264" fill="none"/></clipPath><clipPath id="b"><rect width="259.933" height="87.624" fill="none"/></clipPath></defs><g transform="translate(-1253.66 -2786)"><g transform="translate(1460.644 2786)"><g clip-path="url(#a)"><path d="M94.322,220.257a5.2,5.2,0,0,0,4.44,5.855l14.757,1.827a5.2,5.2,0,0,0,5.734-4.588l2.558-20.685a5.187,5.187,0,0,0-4.436-5.852l-14.754-1.833a5.2,5.2,0,0,0-5.736,4.6Z" transform="translate(-8.426 8.529)" fill="#cc6723"/><path d="M107.12,200.752a1.788,1.788,0,1,0,1.9,1.669,1.79,1.79,0,0,0-1.9-1.669" transform="translate(-7.25 8.783)" fill="#35051f"/><path d="M111.688,266.328l-25.817-.369L84.34,305.565l24.2,2.142s2.7-39.79,3.144-41.378" transform="translate(12.114 11.636)" fill="#545a63"/><path d="M86.2,315.5a18.511,18.511,0,0,1,9.763-11.706c.035.1,12.2-7.181,12.2-7.181l1.526,6.082,21.389,1.127a13.459,13.459,0,0,1,1.978,7.065,12.335,12.335,0,0,1-1.236,5.18l-45.13,4.722a6.759,6.759,0,0,1-.494-5.29" transform="translate(-10.858 12.977)" fill="#545a63"/><line y1="1.399" x2="35.175" transform="translate(83.047 325.848)" fill="none" stroke="#35051f" stroke-linecap="round" stroke-linejoin="round" stroke-width="1"/><path d="M63.937,267.832l-25.252-.462,3.871,39.578,23.679,2.23s-2.73-39.759-2.3-41.346" transform="translate(105.22 11.697)" fill="#545a63"/><path d="M37.346,316.933a18.519,18.519,0,0,1,9.763-11.7c.037.1,12.2-7.183,12.2-7.183l1.526,6.082,21.389,1.129a13.5,13.5,0,0,1,1.98,7.065,12.363,12.363,0,0,1-1.241,5.18l-45.126,4.72a6.758,6.758,0,0,1-.5-5.292" transform="translate(88.982 13.04)" fill="#545a63"/><line y1="3.544" x2="34.292" transform="translate(133.746 327.041)" fill="none" stroke="#35051f" stroke-linecap="round" stroke-linejoin="round" stroke-width="1"/><path d="M69.744,301.06c.66-16.219,5.749-113.9,19.658-158.3l10.241-33.283C113.326,138.12,120.981,156.8,121,156.846c.675,1.649-.979,7.006-1.225,8.871-.412,3.118-.8,6.242-1.192,9.364-.779,6.238-1.551,12.477-2.227,18.731-2.241,20.688-3.957,41.4-5.783,62.137-.646,7.333-2.759,40.164-5.563,49.809,0,0-35.346-2.7-35.263-4.7" transform="translate(17.878 4.789)" fill="#dc9d4f"/><path d="M103.082,280.038s1.048,7.241,5.943,10.688" transform="translate(-4.785 12.252)" fill="none" stroke="#35051f" stroke-linecap="round" stroke-linejoin="round" stroke-width="1"/><path d="M32.374,155.574s7.866-18.8,22.089-47.653l10.3,9.849c16.69,44.345,13,67.917,17.7,113.944,2,19.643,1.595,35.006,3.284,54.686.254,2.959.651,15.148.189,18.053l-37.59.329c-.071-.438-.135-9.835-.183-10.316-2.512-24.771-5.786-85.319-15.785-138.891" transform="translate(91.898 4.722)" fill="#dc9d4f"/><path d="M64.713,255.511s-3.971,17.768-13.88,25.221" transform="translate(94.063 11.179)" fill="none" stroke="#35051f" stroke-linecap="round" stroke-linejoin="round" stroke-width="1"/><path d="M75.9,171.029l1.484,4.9-3.307,46.707" transform="translate(57.121 7.482)" fill="none" stroke="#35051f" stroke-linecap="round" stroke-linejoin="round" stroke-width="1"/><path d="M82.975,31.14c-2.037,3.937-1.99,7.134-4.871,12.448-3.078,5.674-4.816,9.982-.08,14.206,2.07,1.845,16.7,5.969,13.3-1.867-5.226-12.03,5.2-.57,5.2-.57Z" transform="translate(36.932 1.362)" fill="#580a31"/><path d="M60.695,35.495c2.036,3.937,1.99,7.135,4.871,12.448,3.078,5.673,5.845,11.553.08,14.206-8.694,4-18.5-2.436-18.5-2.436Z" transform="translate(93.616 1.553)" fill="#580a31"/><path d="M66.777,29.865s-.8,8.769-.811,8.82c-1.114,3.711-5.515,8.155-.761,15.852C66.268,56.251,69.879,58,71.858,58.4L70.278,76.02l17.315,2.409,3.339-35.453L84.387,33.4,74.2,27.838Z" transform="translate(55.1 1.218)" fill="#edbab7"/><path d="M77.256,43.75c-.141.9-.676,1.552-1.19,1.464s-.818-.884-.677-1.781.679-1.551,1.2-1.461.815.883.671,1.778" transform="translate(55.89 1.836)" fill="#35051f"/><path d="M85.7,41.477c-.142.9-.673,1.551-1.189,1.465s-.819-.882-.674-1.781.674-1.551,1.193-1.462.813.885.67,1.778" transform="translate(38.621 1.736)" fill="#35051f"/><path d="M82.613,50.855c-.143.9-.673,1.552-1.189,1.465s-.819-.882-.674-1.781.674-1.551,1.193-1.462.813.885.67,1.778" transform="translate(44.94 2.147)" fill="#35051f"/><path d="M70.2,17.369c2.487-.468,2.818.442,5.269.72A20.293,20.293,0,0,1,91.263,28.737c1.4,2.728,1.6,6.484,1.2,9.681-1.892,15.494-13.52,19.877-13.52,19.877l.567-13.534c-6.015-.256-10.387-6.874-13.58-9.229-2.975-2.189-7.639-2.592-9.49-1.1-.782.631-2.859-1.167-3.552-2.241C46.668,22.527,62.906,18.74,70.2,17.369" transform="translate(65.434 0.754)" fill="#580a31"/><path d="M71.931,57.508s6.278-.208,10.406-2.015L71.458,64.441Z" transform="translate(54.911 2.428)" fill="#580a31"/><path d="M69.052,48.332c-.143.93.87,1.877,2.275,2.116s2.651-.325,2.8-1.258-.865-1.875-2.267-2.116-2.657.327-2.806,1.258" transform="translate(65.634 2.057)" fill="#e58396"/><path d="M61.053,45.215s15.156-1.618,3.5,6.86Z" transform="translate(79.148 1.973)" fill="#edbab7"/><line y1="0.04" x2="2.882" transform="translate(142.05 49.757)" fill="none" stroke="#35051f" stroke-linecap="round" stroke-linejoin="round" stroke-width="1"/><path d="M82.192,42.888,80.33,43.967l1.116,1.746" transform="translate(45.795 1.876)" fill="none" stroke="#35051f" stroke-linecap="round" stroke-linejoin="round" stroke-width="1"/><path d="M65.436,31.746a7.636,7.636,0,0,0,4.1,6.155" transform="translate(73.994 1.389)" fill="none" stroke="#35051f" stroke-linecap="round" stroke-linejoin="round" stroke-width="1"/><path d="M57.857,33.493s5.241,3.418,4.1,9.346" transform="translate(89.323 1.465)" fill="none" stroke="#35051f" stroke-linecap="round" stroke-linejoin="round" stroke-width="1"/><path d="M73.3,26.723a7.817,7.817,0,0,0,3.193,6.155" transform="translate(58.834 1.169)" fill="none" stroke="#35051f" stroke-linecap="round" stroke-linejoin="round" stroke-width="1"/><path d="M37.534,154.576l-1.608,9.559c62.8,14.236,86.316,1.564,86.316,1.564l.185-11.633c-17.735,15.491-84.892.51-84.892.51" transform="translate(51.908 6.74)" fill="#545a63"/><path d="M58.212,179.737a5.914,5.914,0,0,1-4.885,6.793l-16.937,2.765a5.916,5.916,0,0,1-6.793-4.887l-3.772-23.117a5.916,5.916,0,0,1,4.884-6.793l16.935-2.767a5.922,5.922,0,0,1,6.8,4.889Z" transform="translate(126.668 6.635)" fill="#42464c"/><path d="M32.794,163.715s11.791,5.22,21.528-3.513" transform="translate(123.281 7.009)" fill="none" stroke="#35051f" stroke-linecap="round" stroke-linejoin="round" stroke-width="1"/><path d="M89.785,176.524a5.913,5.913,0,0,1-6.127,5.7L66.509,181.6a5.913,5.913,0,0,1-5.7-6.127l.77-15.431a5.916,5.916,0,0,1,6.126-5.7l17.149.621a5.919,5.919,0,0,1,5.7,6.13Z" transform="translate(57.807 6.752)" fill="#42464c"/><path d="M64.847,163.1s10.532,7.44,21.8.8" transform="translate(57.501 7.136)" fill="none" stroke="#35051f" stroke-linecap="round" stroke-linejoin="round" stroke-width="1"/><path d="M33.447,222.225a5.2,5.2,0,0,0,5.486,4.89l14.831-1.051a5.2,5.2,0,0,0,4.744-5.608l-1.475-20.789a5.189,5.189,0,0,0-5.481-4.888L36.72,195.823a5.2,5.2,0,0,0-4.744,5.615Z" transform="translate(119.95 8.521)" fill="#cc6723"/><path d="M54.593,202.478s-8.885,6.919-18.849,1.335" transform="translate(119.931 8.858)" fill="none" stroke="#35051f" stroke-linecap="round" stroke-linejoin="round" stroke-width="1"/><path d="M45.582,200.4a1.788,1.788,0,1,0,2.188,1.271,1.791,1.791,0,0,0-2.188-1.271" transform="translate(117.818 8.765)" fill="#35051f"/><path d="M120.185,103.634l-20.03-27.886L85.464,96.522l-7.313,7.325.781,25.318c8.657,3.529,19.513-5.728,24.231-10.155Z" transform="translate(10.077 3.314)" fill="#376ac4"/><path d="M151.16,110.263s-15.394-5.115-19.5-8.812l8.37-21.166,7.266.287,7.2,9.293,13.255,3.314" transform="translate(-93.34 3.512)" fill="#fff"/><path d="M104.722,87.048l24.947,13.65,1.3-.314,25.956-.849-8.55,19.975c-1.569,3.658-6.851,7.572-10.426,9a21.691,21.691,0,0,1-12.613.578c-8.239-1.779-15.4-6.4-22.667-10.443-1.408-.789-14.865-7.639-13.184-9.778Z" transform="translate(-38.339 3.808)" fill="#376ac4"/><path d="M112.4,102.705s6.641,5.9,2.75,18.458" transform="translate(-21.862 4.493)" fill="none" stroke="#35051f" stroke-linecap="round" stroke-linejoin="round" stroke-width="1"/><path d="M193.024,100.032a6.359,6.359,0,0,0,11.624-5.161l-40.8-91.086a6.361,6.361,0,1,0-11.628,5.159Z" transform="translate(-151.67 0)" fill="#bd462e"/><rect width="42.932" height="14.311" transform="translate(52.123 126.246) rotate(-113.947)" fill="#42464c"/><rect width="4.479" height="14.308" transform="translate(36.17 90.308) rotate(-113.948)" fill="#545a63"/><line x2="5.94" y2="12.685" transform="translate(10.937 11.2)" fill="none" stroke="#35051f" stroke-linecap="round" stroke-linejoin="round" stroke-width="1"/><path d="M161.181,86.772c0-.009-3.974-4.394.862-6.548,0,0,5.471-2.208,7.922.832,1.656,2.056-1.351,2.321-2.633,2.609-.58.134-6.687,2.507-6.151,3.107" transform="translate(-125.248 3.476)" fill="#fff"/><path d="M160.049,92.3c0-.014-4.287-4.746.925-7.069,0,0,6.905-3.095,9.548.184,1.788,2.221-1.841,3.561-3.221,3.881-.627.136-7.834,2.363-7.252,3" transform="translate(-124.493 3.671)" fill="#fff"/><path d="M159.985,96.7c-.006-.005-3.975-4.394.858-6.546,0,0,6-3.167,8.45-.129,1.661,2.059-1.877,3.286-3.158,3.573-.579.132-6.691,2.507-6.15,3.1" transform="translate(-123.274 3.881)" fill="#fff"/><path d="M159.268,101.085c-.008-.006-3.98-4.4.859-6.552,0,0,5.473-2.205,7.923.829,1.654,2.06-1.355,2.33-2.638,2.624-.576.122-6.685,2.5-6.145,3.1" transform="translate(-121.33 4.102)" fill="#fff"/><path d="M159.792,85.756s6.884-4.32,9.46-.984" transform="translate(-124.202 3.653)" fill="none" stroke="#35051f" stroke-linecap="round" stroke-linejoin="round" stroke-width="1"/><path d="M159.733,91.042s6.523-4.173,9.523-1.859" transform="translate(-124.145 3.871)" fill="none" stroke="#35051f" stroke-linecap="round" stroke-linejoin="round" stroke-width="1"/><path d="M159.475,96.476s4.872-4.8,8.669-1.659" transform="translate(-122.764 4.102)" fill="none" stroke="#35051f" stroke-linecap="round" stroke-linejoin="round" stroke-width="1"/><path d="M159.577,90.351c-1.293-1.586-2.524-3.232-3.669-4.931-1.577-2.332-2.6-4.9-5.095-6.4-2.2-1.322-5.235-2.483-7.812-1.783-1.573.428-1.819,1.307-1.8,2.938.022,2.143,3.653,2.258,5.6,3.163,0,0-1.743,5.884,6.419,9.277" transform="translate(-95.121 3.37)" fill="#fff"/><path d="M64.224,92.992c-2.157-11.087-1.44-19.285.518-23.367,1.027-.8,2.069-1.381,5.089-2.133-.52,2.733,3.533,6.616,6.377,6.356,3.732-.339,7.571-2.608,10.424-4.5C95.5,63.487,88.9,75.909,88.053,86.73L87.765,139.6c-5.623-.138-15.1-.458-21.362-.667l-.551-35.951c-.232-1.161-1.627-9.994-1.627-9.994" transform="translate(54.966 2.953)" fill="#fff"/><path d="M95.544,67.737c-1.959,4.256-.339,14.852,1.817,26.407,0,0,9.462,28.328,9.694,29.537l-5.592,31.091c-3.7-.126-11.93-.193-23.489-.193L81.7,111.245s-19.625-22.029,8.57-41.087a29.327,29.327,0,0,1,5.271-2.42" transform="translate(26.436 2.963)" fill="#376ac4"/><path d="M67.605,70.064,63.745,68.5l-1.921-.9c-1.711,1.686-5.029,8.888-18.369,46.239,0,0-3.807,40.97-3.619,40.978,5.639.228,46.059.719,46.059.719-.593-15.406,1.943-46.907-1.225-60.727C79.388,71.773,67.605,70.064,67.605,70.064" transform="translate(83.961 2.957)" fill="#376ac4"/><rect width="17.728" height="17.264" transform="translate(139.322 110.843)" fill="#4a84d8"/><path d="M68.593,108.929a11.649,11.649,0,0,1-14.667-.628" transform="translate(86.954 4.738)" fill="none" stroke="#35051f" stroke-linecap="round" stroke-linejoin="round" stroke-width="1"/><rect width="12.161" height="17.264" transform="translate(105.052 109.799)" fill="#4a84d8"/><path d="M101.7,107.929s-4.9,5.651-10.061-.628" transform="translate(14.48 4.694)" fill="none" stroke="#35051f" stroke-linecap="round" stroke-linejoin="round" stroke-width="1"/><path d="M105.678,80.346S93.909,90.8,100,104.158" transform="translate(3.606 3.515)" fill="none" stroke="#35051f" stroke-linecap="round" stroke-linejoin="round" stroke-width="1"/><line x2="0.484" y2="37.769" transform="translate(127.415 116.796)" fill="none" stroke="#35051f" stroke-linecap="round" stroke-linejoin="round" stroke-width="1"/><path d="M97.266,67.122S96.217,81.805,97,87.835L87.827,98.587a62.3,62.3,0,0,1-2.261-24.294Z" transform="translate(25.655 2.937)" fill="#4a84d8"/><path d="M16.151,68.4c19.167-1.669,37.054,17.58,49.672,35.968L41.718,120.127,16.059,95.1l-4.415,4.824s-7.812-20.1-7.656-23.713c.09-2,8.855-7.378,10.927-7.672.417-.055.827-.1,1.236-.138" transform="translate(141.849 2.988)" fill="#376ac4"/><line x2="17" y2="13.683" transform="translate(160.835 102.475)" fill="none" stroke="#35051f" stroke-linecap="round" stroke-linejoin="round" stroke-width="1"/><path d="M29.317,153.439c-4.848-.975-3.144-3.581-1.9-4.886-1.125.876-1.728.482-2.148-.094-1.546-2.119,1.347-7.186,1.347-7.186,8.688-12.708,26.642,2.693,26.642,2.693l.791.333s14.919-3.707,14.932-3.694c-.3-.235-7.484,9.033-8,9.686-2.246,2.833-4.274,6.634-7.5,8.491-4.361,2.506-9.13.094-13.169-1.886-4.448,2.107-5.55,6.316-8.291,3.7-.213-.2-1.532-2.907-.614-2.74a4.172,4.172,0,0,1-2.452.055c-2.553-1.492.369-4.47.369-4.47" transform="translate(116.96 5.961)" fill="#fff"/><path d="M64.1,141.949s-5.414,1.976-6.166,5.579" transform="translate(87.263 6.21)" fill="none" stroke="#35051f" stroke-linecap="round" stroke-linejoin="round" stroke-width="1"/><path d="M63.118,148.064s-6.349,1.874-7.422,4.858" transform="translate(90.581 6.478)" fill="none" stroke="#35051f" stroke-linecap="round" stroke-linejoin="round" stroke-width="1"/><path d="M61.064,152.441s-4.81,1.161-5.98,4.705" transform="translate(93.275 6.669)" fill="none" stroke="#35051f" stroke-linecap="round" stroke-linejoin="round" stroke-width="1"/><path d="M0,140.852l17.345-25.223-.194-1.427,1.927-27.889L39.534,97.651c3.748,2.079,7.363,8.165,8.5,12.151,1.278,4.468.657,9.212-.759,13.567-2.8,8.632-8.533,15.8-13.661,23.136-1,1.422-9.8,15.085-11.911,13.051Z" transform="translate(163.1 3.776)" fill="#376ac4"/><path d="M8.166,115.624s7.048-6.467,20.067-.93" transform="translate(175.076 4.92)" fill="none" stroke="#35051f" stroke-linecap="round" stroke-linejoin="round" stroke-width="1"/><path d="M64.032,65.113l9.177,3.408L65.868,97.363,53.282,83.729s5.923-14.178,10.75-18.616" transform="translate(83.011 2.849)" fill="#4a84d8"/><path d="M101.528,154.463s11.06-1.273,16.045,2.24c0,0-6.36,8.063-16.453-1.688Z" transform="translate(-11.284 6.748)" fill="#36393d"/><path d="M117.026,141.675a11.715,11.715,0,0,1-9.153,9.647l-5.6,35.968a4.819,4.819,0,0,1-6.313,3.449c-.186-.054-.372-1.705-.552-1.76-1.963-.588-1.69-.886-1.367-2.971l5.607-35.966a11.714,11.714,0,0,1-5.781-11.974c.7-4.518,2.44-8.185,6.5-9.508.334-.109,2.14-.037,2.486-.115l-1.322,8.488a4.318,4.318,0,0,0,8.534,1.331l-.881-8.523,2.2.037a11.709,11.709,0,0,1,5.646,11.9m-18.018,39.5a1.415,1.415,0,0,0-1.616,1.182l-.556,3.589a1.413,1.413,0,0,0,2.791.439l.561-3.6a1.416,1.416,0,0,0-1.179-1.614" transform="translate(-3.156 5.62)" fill="#545a63"/><path d="M119.132,141.642a11.7,11.7,0,0,1-9.15,9.648l-5.608,35.968a4.162,4.162,0,0,1-8.226-1.278l5.6-35.971a11.709,11.709,0,0,1,3.21-21.6l-1.321,8.49a4.318,4.318,0,1,0,8.533,1.331l1.32-8.489a11.708,11.708,0,0,1,5.639,11.9m-18.016,39.5A1.418,1.418,0,0,0,99.5,182.32l-.558,3.592a1.413,1.413,0,0,0,2.791.439l.56-3.594a1.417,1.417,0,0,0-1.178-1.617" transform="translate(-7.465 5.618)" fill="#6b7787"/><path d="M105.953,154.984s9.677,5.425,16.452,1.688l-5.164,34.957s-9.39,7.219-16.119-2.64Z" transform="translate(-16.117 6.781)" fill="#42464c"/><path d="M51.025,25.165s25.648.6,39.22,18.11c0,0,7.036-21.629-8.374-28.1,0,0-23.588-12.775-30.846,9.987" transform="translate(66.726 0.508)" fill="#4a84d8"/><path d="M77.831,22.714S60.739,25.832,60.845,34.105c0,0,.356,4.079,6.361-.549,0,0,8.292-4.1,22.276,2.228,0,0,5.708,4.857,8.33,1.043l4.676-3.94S91.926,18.954,77.831,22.714" transform="translate(45.837 0.966)" fill="#4a84d8"/><path d="M62.4,23.715a34.821,34.821,0,0,1,25.2,7.451" transform="translate(59.103 1.029)" fill="none" stroke="#35051f" stroke-linecap="round" stroke-linejoin="round" stroke-width="1"/></g></g><g transform="translate(1253.66 3006.188)"><g transform="translate(0 0)" clip-path="url(#b)"><path d="M150.134,17.4c3.031-8.978,5.2-15.406,5.2-15.406,1.213-2.66,3.169-2.654,4.372.009,0,0,2.149,6.4,5.151,15.357a22.6,22.6,0,0,1-7.422,1.2,22.639,22.639,0,0,1-7.3-1.16" transform="translate(-27.472 0)" fill="#bd462e"/><path d="M136.354,56.429c2.739-8.148,5.854-17.4,8.638-25.645a22.39,22.39,0,0,0,19.945-.047c2.76,8.249,5.862,17.507,8.587,25.663-3.963,2.252-10.81,3.74-18.607,3.74-7.769,0-14.592-1.48-18.563-3.712" transform="translate(-24.951 -5.624)" fill="#bd462e"/><path d="M132.314,70.91c3.043,3.2,11.278,5.5,20.963,5.5,9.717,0,17.969-2.309,20.986-5.525,2.866,8.6,4.9,14.736,4.9,14.862,0,4.543-11.584,8.222-25.882,8.222S127.4,90.289,127.4,85.746c0-.126,2.038-6.244,4.919-14.836" transform="translate(-23.311 -12.971)" fill="#bd462e"/><path d="M133.416,69.311c.752-2.231,1.557-4.63,2.4-7.135,3.972,2.232,10.794,3.712,18.563,3.712,7.8,0,14.644-1.489,18.608-3.741.835,2.507,1.634,4.9,2.378,7.138C172.348,72.5,164.1,74.81,154.379,74.81c-9.685,0-17.92-2.295-20.963-5.5" transform="translate(-24.413 -11.372)" fill="#fff"/><path d="M146.928,29.047c.92-2.722,1.8-5.333,2.619-7.761a22.639,22.639,0,0,0,7.3,1.16,22.6,22.6,0,0,0,7.422-1.2c.81,2.421,1.688,5.029,2.6,7.753a22.385,22.385,0,0,1-19.944.047" transform="translate(-26.886 -3.888)" fill="#fff"/><path d="M186.386,95.258a8.284,8.284,0,0,1-8.281,8.281H124.28a8.281,8.281,0,0,1,0-16.562H178.1a8.281,8.281,0,0,1,8.281,8.28" transform="translate(-21.226 -15.916)" fill="#cc4e3a"/><path d="M266.134,17.4c3.031-8.978,5.2-15.406,5.2-15.406,1.213-2.66,3.169-2.654,4.372.009,0,0,2.149,6.4,5.151,15.357a22.6,22.6,0,0,1-7.422,1.2,22.635,22.635,0,0,1-7.3-1.16" transform="translate(-48.699 0)" fill="#bd462e"/><path d="M252.354,56.429c2.739-8.148,5.854-17.4,8.638-25.645a22.39,22.39,0,0,0,19.945-.047c2.759,8.249,5.862,17.507,8.587,25.663-3.964,2.252-10.81,3.74-18.608,3.74-7.77,0-14.592-1.48-18.563-3.712" transform="translate(-46.177 -5.624)" fill="#bd462e"/><path d="M248.314,70.91c3.043,3.2,11.278,5.5,20.963,5.5,9.717,0,17.969-2.309,20.986-5.525,2.866,8.6,4.9,14.736,4.9,14.862,0,4.543-11.584,8.222-25.882,8.222S243.4,90.289,243.4,85.746c0-.126,2.038-6.244,4.919-14.836" transform="translate(-44.538 -12.971)" fill="#bd462e"/><path d="M249.416,69.311c.752-2.231,1.557-4.63,2.4-7.135,3.972,2.232,10.793,3.712,18.563,3.712,7.8,0,14.644-1.489,18.608-3.741.835,2.507,1.634,4.9,2.378,7.138C288.348,72.5,280.1,74.81,270.379,74.81c-9.685,0-17.92-2.295-20.963-5.5" transform="translate(-45.639 -11.372)" fill="#fff"/><path d="M262.928,29.047c.92-2.722,1.8-5.333,2.619-7.761a22.635,22.635,0,0,0,7.3,1.16,22.6,22.6,0,0,0,7.422-1.2c.81,2.421,1.688,5.029,2.6,7.753a22.385,22.385,0,0,1-19.944.047" transform="translate(-48.112 -3.888)" fill="#fff"/><path d="M302.386,95.258a8.284,8.284,0,0,1-8.281,8.281H240.279a8.281,8.281,0,0,1,0-16.562H294.1a8.281,8.281,0,0,1,8.281,8.28" transform="translate(-42.452 -15.916)" fill="#cc4e3a"/><path d="M34.133,17.4c3.032-8.978,5.2-15.406,5.2-15.406,1.211-2.66,3.168-2.654,4.37.009,0,0,2.15,6.4,5.152,15.357a22.6,22.6,0,0,1-7.422,1.2,22.648,22.648,0,0,1-7.3-1.16" transform="translate(-6.246 0)" fill="#bd462e"/><path d="M20.353,56.429c2.741-8.148,5.856-17.4,8.639-25.645a20.7,20.7,0,0,0,9.925,2.32,20.685,20.685,0,0,0,10.021-2.367C51.7,38.986,54.8,48.244,57.525,56.4c-3.964,2.252-10.811,3.74-18.608,3.74-7.771,0-14.592-1.48-18.564-3.712" transform="translate(-3.724 -5.624)" fill="#bd462e"/><path d="M16.315,70.91c3.042,3.2,11.277,5.5,20.962,5.5,9.717,0,17.969-2.309,20.986-5.525,2.867,8.6,4.9,14.736,4.9,14.862,0,4.543-11.584,8.222-25.882,8.222s-25.883-3.68-25.883-8.222c0-.126,2.038-6.244,4.921-14.836" transform="translate(-2.085 -12.971)" fill="#bd462e"/><path d="M17.417,69.311c.752-2.231,1.556-4.63,2.4-7.135,3.974,2.232,10.794,3.712,18.564,3.712,7.8,0,14.643-1.489,18.608-3.741.834,2.507,1.634,4.9,2.378,7.138C56.348,72.5,48.1,74.81,38.379,74.81c-9.685,0-17.92-2.295-20.962-5.5" transform="translate(-3.187 -11.372)" fill="#fff"/><path d="M30.928,29.047c.92-2.722,1.8-5.333,2.619-7.761a22.648,22.648,0,0,0,7.3,1.16,22.6,22.6,0,0,0,7.422-1.2c.81,2.421,1.686,5.029,2.6,7.753a20.676,20.676,0,0,1-10.021,2.368,20.689,20.689,0,0,1-9.923-2.32" transform="translate(-5.659 -3.888)" fill="#fff"/><path d="M70.386,95.258a8.284,8.284,0,0,1-8.28,8.281H8.28a8.281,8.281,0,0,1,0-16.562H62.105a8.281,8.281,0,0,1,8.28,8.28" transform="translate(0 -15.916)" fill="#cc4e3a"/></g></g></g></svg>