<svg xmlns="http://www.w3.org/2000/svg" xmlns:xlink="http://www.w3.org/1999/xlink" width="75.85" height="72.746" viewBox="0 0 75.85 72.746"><defs><style>.a{fill:none;}.b{clip-path:url(#a);}.c{fill:#ff9f91;}.d{fill:#e23b3b;}.e{fill:#ff5f5f;}.f{fill:#ffbfb4;}.g{fill:#74aaff;}.h{fill:#4f88ff;}.i{fill:#252d32;}</style><clipPath id="a"><rect class="a" width="75.85" height="72.746"/></clipPath></defs><g transform="translate(-487.15 -4157.382)"><g transform="translate(487.15 4157.382)"><g transform="translate(0 0)"><g class="b"><path class="c" d="M34.6,75.517H19.888V71.1L7.386,54.926.959,31.362a.965.965,0,0,1,.435-1.081,3.415,3.415,0,0,1,4.754,1.293L13.269,44.63l.569-.474a4.753,4.753,0,0,1,6.824.769c1.869,2.455,4.108,5.322,5.109,6.323,1.471,1.471,7.258,4.838,8.09,8.09,1.033,4.039.735,16.179.735,16.179" transform="translate(-0.297 -9.562)"/><path class="d" d="M53.993.967A13.105,13.105,0,0,0,44.8,4.76,13.1,13.1,0,0,0,35.607.967,13.585,13.585,0,0,0,22.234,14.755C22.234,30.267,44.8,43.71,44.8,43.71S67.366,30.267,67.366,14.755A13.585,13.585,0,0,0,53.993.967" transform="translate(-7.136 -0.31)"/><path class="e" d="M35.606.967A13.585,13.585,0,0,0,22.233,14.755c0,10.952,11.242,20.866,17.856,25.752C44.846,37.4,61.378,25.642,61.378,12.361a13.89,13.89,0,0,0-5.683-11.27,12.919,12.919,0,0,0-1.7-.124A13.1,13.1,0,0,0,44.8,4.76,13.105,13.105,0,0,0,35.606.967" transform="translate(-7.136 -0.31)"/><path class="f" d="M34.957,59.384c-.84-3.252-6.686-6.619-8.172-8.09-1.018-1.008-3.3-3.905-5.2-6.37a4.756,4.756,0,0,0-6.8-.773l-.635.524L6.963,31.619a3.427,3.427,0,0,0-2.269-1.684L11.184,53.5,22.327,67.775a7.019,7.019,0,0,1,1.486,4.32v3.467H35.7s.3-12.14-.743-16.179" transform="translate(-1.507 -9.608)"/><rect class="g" width="15.618" height="5.432" transform="translate(19.591 65.955)"/><rect class="h" width="2.716" height="5.432" transform="translate(19.591 65.955)"/><path class="c" d="M61.171,75.517H75.88V71.1l12.5-16.179,6.427-23.564a.965.965,0,0,0-.435-1.081,3.415,3.415,0,0,0-4.754,1.293L82.5,44.63l-.569-.474a4.753,4.753,0,0,0-6.824.769C73.236,47.38,71,50.248,70,51.249c-1.471,1.471-7.258,4.838-8.09,8.09-1.033,4.039-.735,16.179-.735,16.179" transform="translate(-19.62 -9.562)"/><path class="f" d="M62.07,59.384c.84-3.252,6.686-6.619,8.172-8.09,1.018-1.008,3.3-3.905,5.2-6.37a4.755,4.755,0,0,1,6.8-.773l.636.524,7.193-13.056a3.427,3.427,0,0,1,2.269-1.684L85.842,53.5,74.7,67.775A7.027,7.027,0,0,0,73.213,72.1v3.467H61.327s-.3-12.14.743-16.179" transform="translate(-19.67 -9.608)"/><rect class="g" width="15.618" height="5.432" transform="translate(40.641 65.955)"/><rect class="h" width="2.716" height="5.432" transform="translate(53.543 65.955)"/></g></g><g transform="translate(0 0)"><g class="b"><path class="i" d="M19.93,75.9a1.019,1.019,0,0,1-1.019-1.019V73.644a4.12,4.12,0,0,0-.953-2.922L7.395,56.789a6.658,6.658,0,0,1-1.467-2.522L.094,32.376a2.564,2.564,0,0,1,.874-2.713,3.81,3.81,0,0,1,5.743,1.33L13.8,45.04a1.018,1.018,0,0,1-1.819.917L4.889,31.9a1.774,1.774,0,0,0-2.679-.625.553.553,0,0,0-.148.573L7.883,53.7a4.584,4.584,0,0,0,1.031,1.732c.025.027.05.056.072.085L19.549,69.452a6.073,6.073,0,0,1,1.4,4.192v1.237A1.019,1.019,0,0,1,19.93,75.9" transform="translate(0 -9.265)"/><path class="i" d="M40.671,82.152a1.019,1.019,0,0,1-1.019-1.019V71.551c-.016-.361-.026-.75-.037-1.128-.1-3.841-.166-6.16-6.015-9.977l-.268-.174a13.96,13.96,0,0,1-4.5-4.02l-2.592-3.786a4.258,4.258,0,0,0-5.754-1.5.782.782,0,0,0-.352.509.879.879,0,0,0,.132.674l6.376,9.387a1.019,1.019,0,1,1-1.685,1.144l-6.376-9.387a2.924,2.924,0,0,1-.439-2.242A2.8,2.8,0,0,1,19.41,49.23a6.262,6.262,0,0,1,8.507,2.083l2.6,3.791a12.173,12.173,0,0,0,3.932,3.46l.27.175c6.743,4.4,6.829,7.59,6.939,11.627.01.369.021.749.037,1.141v9.624a1.019,1.019,0,0,1-1.019,1.019" transform="translate(-5.801 -15.518)"/><path class="i" d="M44.447,44.056a1.016,1.016,0,0,1-.509-.136c-.955-.552-23.383-13.689-23.383-29.345A14.56,14.56,0,0,1,44.447,3.384a14.56,14.56,0,0,1,23.892,11.19c0,15.656-22.428,28.793-23.383,29.345a1.02,1.02,0,0,1-.509.136M35.127,2.037A12.55,12.55,0,0,0,22.591,14.574c0,13.244,18.519,25.224,21.855,27.274C47.783,39.8,66.3,27.818,66.3,14.574A12.523,12.523,0,0,0,45.147,5.486a1.019,1.019,0,0,1-1.4,0,12.479,12.479,0,0,0-8.618-3.449" transform="translate(-6.597 0)"/><path class="i" d="M44.166,103.277h-16.3a1.019,1.019,0,0,1-1.019-1.019V96.147a1.019,1.019,0,1,1,2.037,0v5.093h14.26V96.147a1.019,1.019,0,1,1,2.037,0v6.111a1.019,1.019,0,0,1-1.019,1.019" transform="translate(-8.617 -30.531)"/><path class="i" d="M44.147,97.486H28.529a.679.679,0,0,1,0-1.358H44.147a.679.679,0,1,1,0,1.358" transform="translate(-8.938 -30.852)"/><path class="i" d="M81.869,75.9a1.019,1.019,0,0,1-1.019-1.019V73.645a6.117,6.117,0,0,1,1.431-4.233l10.531-13.9c.022-.029.047-.058.072-.085a4.614,4.614,0,0,0,1.044-1.776l5.808-21.8a.552.552,0,0,0-.147-.574,1.773,1.773,0,0,0-2.675.616l-7.1,14.063A1.018,1.018,0,0,1,88,45.041l7.1-14.055a3.81,3.81,0,0,1,5.738-1.321,2.564,2.564,0,0,1,.875,2.714L95.884,54.224A6.714,6.714,0,0,1,94.4,56.79L83.872,70.683a4.159,4.159,0,0,0-.985,2.962v1.237A1.019,1.019,0,0,1,81.869,75.9" transform="translate(-25.949 -9.266)"/><path class="i" d="M59.869,82.152a1.019,1.019,0,0,1-1.019-1.019V71.55c.016-.434.027-.814.037-1.183.109-4.038.2-7.227,6.939-11.627l.27-.175a12.165,12.165,0,0,0,3.929-3.457l2.6-3.793a6.26,6.26,0,0,1,8.507-2.084A2.8,2.8,0,0,1,82.4,51.047a2.924,2.924,0,0,1-.439,2.242l-6.376,9.387A1.019,1.019,0,1,1,73.9,61.531l6.376-9.387a.879.879,0,0,0,.132-.674.782.782,0,0,0-.352-.509A4.258,4.258,0,0,0,74.3,52.467l-2.594,3.788a13.951,13.951,0,0,1-4.5,4.017l-.268.174c-5.849,3.817-5.912,6.136-6.015,9.977-.011.378-.022.767-.037,1.169v9.542a1.019,1.019,0,0,1-1.019,1.019" transform="translate(-18.888 -15.518)"/><path class="i" d="M75.166,103.277h-16.3a1.019,1.019,0,0,1-1.019-1.019V96.147a1.019,1.019,0,1,1,2.037,0v5.093h14.26V96.147a1.019,1.019,0,1,1,2.037,0v6.111a1.019,1.019,0,0,1-1.019,1.019" transform="translate(-18.567 -30.531)"/><path class="i" d="M75.147,97.486H59.529a.679.679,0,1,1,0-1.358H75.147a.679.679,0,1,1,0,1.358" transform="translate(-18.888 -30.852)"/></g></g></g></g></svg>