<svg xmlns="http://www.w3.org/2000/svg" xmlns:xlink="http://www.w3.org/1999/xlink" width="82.188" height="74.722" viewBox="0 0 82.188 74.722"><defs><style>.a{fill:none;}.b{clip-path:url(#a);}.c{fill:#edf2f8;}.d{fill:#4f88ff;}.e{fill:#74aaff;}.f{fill:#ff9f91;}.g{fill:#ffbfb4;}.h{fill:#ffc960;}.i{fill:#ffaa4c;}.j{fill:#e23b3b;}.k{fill:#ff5f5f;}.l{fill:#252d32;}</style><clipPath id="a"><rect class="a" width="82.188" height="74.721"/></clipPath></defs><g transform="translate(-488 -4162.218)"><g transform="translate(488 4162.218)"><g class="b"><path class="c" d="M79.555,60.035H3.646A1.645,1.645,0,0,1,2,58.389V3.645A1.645,1.645,0,0,1,3.646,2h75.91A1.646,1.646,0,0,1,81.2,3.645V58.389a1.646,1.646,0,0,1-1.645,1.646" transform="translate(-0.635 -0.634)"/><rect class="d" width="69.642" height="48.476" transform="translate(6.145 6.145)"/><rect class="e" width="66.911" height="45.745" transform="translate(8.876 8.876)"/><path class="f" d="M92.216,65.473l.687-2.826a5.482,5.482,0,0,0-.281-3.437L86.607,45.056a4.775,4.775,0,0,0-5.7-2.724L66.992,46.3l-4.448-9.539a4.176,4.176,0,0,0-5.1-2.272,4.06,4.06,0,0,0-2.332,5.545l8.7,18.656-5.446-2.261a4.176,4.176,0,0,0-5.295,1.764,4.059,4.059,0,0,0,2.021,5.666L74.967,73.875,77.636,79.6l17.387-8.108Z" transform="translate(-16.684 -10.87)"/><path class="g" d="M80.879,77.386,95.6,70.521l-2.354-5.048.686-2.826a5.475,5.475,0,0,0-.281-3.436L87.636,45.056a4.774,4.774,0,0,0-5.7-2.724L68.021,46.3l-4.448-9.539a4.162,4.162,0,0,0-5.284-2.2,4.026,4.026,0,0,0,.068,3.26l7.589,16.275a3.752,3.752,0,0,1-.748,4.239l-.356.356L59.4,56.426a4.345,4.345,0,0,0-3.282-.008,4.057,4.057,0,0,0,2.222,5.224L78.209,71.662Z" transform="translate(-17.713 -10.87)"/><rect class="h" width="20.461" height="5.499" transform="translate(59.509 68.387) rotate(-25.055)"/><rect class="i" width="2.986" height="5.499" transform="translate(59.509 68.387) rotate(-25.053)"/><path class="h" d="M44.628,39.314A13.314,13.314,0,1,1,31.314,26,13.313,13.313,0,0,1,44.628,39.314" transform="translate(-5.71 -8.248)"/><path class="j" d="M43.13,43.1,32.516,49.225A1.012,1.012,0,0,1,31,48.345V36.094a1.012,1.012,0,0,1,1.516-.881L43.13,41.339a1.017,1.017,0,0,1,0,1.761" transform="translate(-9.834 -11.128)"/><path class="k" d="M32.516,35.213A1.012,1.012,0,0,0,31,36.094V47.238a1.014,1.014,0,0,0,.151-.061l10.614-6.125a1,1,0,0,0,.326-.313Z" transform="translate(-9.834 -11.128)"/><path class="d" d="M90.093,27.048H73.024a1.024,1.024,0,0,1,0-2.048H90.093a1.024,1.024,0,0,1,0,2.048" transform="translate(-22.841 -7.931)"/><path class="d" d="M90.093,37.048H73.024a1.024,1.024,0,0,1,0-2.048H90.093a1.024,1.024,0,0,1,0,2.048" transform="translate(-22.841 -11.103)"/></g><g class="b"><path class="l" d="M76.393,78.5a1.024,1.024,0,0,1-.929-.591l-1.751-3.755L54.189,64.312a5.084,5.084,0,0,1-2.5-7.077,5.218,5.218,0,0,1,6.592-2.229l3.01,1.251L53.711,39.99a5.083,5.083,0,0,1,2.918-6.942A5.211,5.211,0,0,1,63,35.852l4.08,8.748,13.071-3.726a5.808,5.808,0,0,1,6.927,3.309L93.09,58.335a6.549,6.549,0,0,1,.334,4.08l-.6,2.476L94.7,68.913a1.024,1.024,0,0,1-1.856.866l-2.027-4.347a1.03,1.03,0,0,1-.068-.675l.687-2.825a4.479,4.479,0,0,0-.229-2.795L85.189,44.983a3.757,3.757,0,0,0-4.48-2.14L66.8,46.808a1.023,1.023,0,0,1-1.208-.552L61.14,36.718a3.153,3.153,0,0,0-3.826-1.74,3.037,3.037,0,0,0-1.747,4.147l8.7,18.656a1.024,1.024,0,0,1-1.32,1.379L57.5,56.9a3.154,3.154,0,0,0-4,1.3,3.035,3.035,0,0,0,1.51,4.239c.023.01.046.02.068.031L74.953,72.488a1.025,1.025,0,0,1,.466.481l1.9,4.077a1.024,1.024,0,0,1-.927,1.457" transform="translate(-16.209 -10.396)"/><path class="l" d="M88.365,101.731a1.023,1.023,0,0,1-.929-.591l-2.495-5.349a1.024,1.024,0,0,1,.5-1.361l19.715-9.193a1.024,1.024,0,0,1,1.361.5l2.495,5.35a1.024,1.024,0,0,1-.5,1.361L88.8,101.636a1.027,1.027,0,0,1-.432.1m-1.134-5.878,1.629,3.493,17.858-8.327-1.629-3.494Z" transform="translate(-26.916 -27.01)"/><path class="l" d="M79.11,60.766a1.024,1.024,0,1,1,0-2.048.774.774,0,0,0,.773-.773V2.821a.774.774,0,0,0-.773-.773H2.821a.774.774,0,0,0-.773.773V57.945a.774.774,0,0,0,.773.773H51.549a1.024,1.024,0,1,1,0,2.048H2.821A2.824,2.824,0,0,1,0,57.945V2.821A2.824,2.824,0,0,1,2.821,0H79.11a2.825,2.825,0,0,1,2.821,2.821V57.945a2.825,2.825,0,0,1-2.821,2.821"/><path class="l" d="M43.821,80.366H9.683a.683.683,0,0,1,0-1.366H43.821a.683.683,0,0,1,0,1.366" transform="translate(-2.855 -25.062)"/><path class="l" d="M31.936,49.96A1.945,1.945,0,0,1,30,48.02V35.937a1.936,1.936,0,0,1,2.9-1.676L43.368,40.3a1.936,1.936,0,0,1,0,3.354L32.9,49.7a1.933,1.933,0,0,1-.968.263m0-14.595a.587.587,0,0,0-.287.078.56.56,0,0,0-.285.494V48.02a.563.563,0,0,0,.285.5.557.557,0,0,0,.57,0l10.465-6.042a.57.57,0,0,0,0-.987L32.221,35.443a.554.554,0,0,0-.283-.079" transform="translate(-9.517 -10.786)"/><path class="l" d="M30.679,53.359a14.679,14.679,0,1,1,13.346-20.8.683.683,0,0,1-1.242.569,13.316,13.316,0,1,0,1.1,7.256.683.683,0,1,1,1.355.173,14.7,14.7,0,0,1-14.561,12.8" transform="translate(-5.076 -7.614)"/></g></g></g></svg>