<svg xmlns="http://www.w3.org/2000/svg" xmlns:xlink="http://www.w3.org/1999/xlink" width="57.297" height="52.092" viewBox="0 0 57.297 52.092"><defs><style>.a{fill:none;}.b{clip-path:url(#a);}.c{fill:#edf2f8;}.d{fill:#4f88ff;}.e{fill:#74aaff;}.f{fill:#ff9f91;}.g{fill:#ffbfb4;}.h{fill:#ffc960;}.i{fill:#ffaa4c;}.j{fill:#e23b3b;}.k{fill:#ff5f5f;}.l{fill:#252d32;}</style><clipPath id="a"><rect class="a" width="57.297" height="52.092"/></clipPath></defs><g transform="translate(-69 -2454.218)"><g transform="translate(69 2454.218)"><g class="b"><path class="c" d="M56.068,42.459H3.148A1.147,1.147,0,0,1,2,41.311V3.147A1.147,1.147,0,0,1,3.148,2h52.92a1.147,1.147,0,0,1,1.147,1.147V41.311a1.148,1.148,0,0,1-1.147,1.148" transform="translate(-1.049 -1.048)"/><rect class="d" width="48.551" height="33.795" transform="translate(4.284 4.284)"/><rect class="e" width="46.647" height="31.891" transform="translate(6.188 6.188)"/><path class="f" d="M80.216,56.021l.479-1.97a3.822,3.822,0,0,0-.2-2.4l-4.193-9.867a3.329,3.329,0,0,0-3.976-1.9l-9.7,2.765L59.529,36a2.911,2.911,0,0,0-3.554-1.584,2.83,2.83,0,0,0-1.626,3.865l6.065,13.006-3.8-1.576a2.911,2.911,0,0,0-3.691,1.229,2.83,2.83,0,0,0,1.409,3.95l13.855,6.986,1.861,3.99,12.121-5.652Z" transform="translate(-27.558 -17.955)"/><path class="g" d="M73.295,64.327l10.263-4.786-1.641-3.519.478-1.97a3.817,3.817,0,0,0-.2-2.4l-4.194-9.868a3.328,3.328,0,0,0-3.975-1.9l-9.7,2.765L61.23,36a2.9,2.9,0,0,0-3.684-1.534,2.807,2.807,0,0,0,.047,2.272l5.291,11.346a2.615,2.615,0,0,1-.521,2.955l-.248.248-3.8-1.577a3.029,3.029,0,0,0-2.288-.006A2.828,2.828,0,0,0,57.58,53.35l13.854,6.986Z" transform="translate(-29.259 -17.956)"/><rect class="h" width="14.264" height="3.834" transform="translate(41.487 47.676) rotate(-25.055)"/><rect class="i" width="2.082" height="3.834" transform="translate(41.487 47.676) rotate(-25.053)"/><path class="h" d="M36.563,35.282A9.282,9.282,0,1,1,27.282,26a9.281,9.281,0,0,1,9.282,9.282" transform="translate(-9.432 -13.624)"/><path class="j" d="M39.456,40.67l-7.4,4.27A.705.705,0,0,1,31,44.327V35.786a.706.706,0,0,1,1.057-.614l7.4,4.271a.709.709,0,0,1,0,1.228" transform="translate(-16.244 -18.381)"/><path class="k" d="M32.057,35.172A.705.705,0,0,0,31,35.786v7.769a.707.707,0,0,0,.105-.043l7.4-4.27a.7.7,0,0,0,.228-.218Z" transform="translate(-16.244 -18.381)"/><path class="d" d="M84.614,26.428h-11.9a.714.714,0,0,1,0-1.428h11.9a.714.714,0,1,1,0,1.428" transform="translate(-37.729 -13.1)"/><path class="d" d="M84.614,36.428h-11.9a.714.714,0,0,1,0-1.428h11.9a.714.714,0,1,1,0,1.428" transform="translate(-37.729 -18.34)"/></g><g class="b"><path class="l" d="M68.732,64.653a.714.714,0,0,1-.647-.412l-1.221-2.617L53.252,54.759a3.545,3.545,0,0,1-1.74-4.934,3.638,3.638,0,0,1,4.6-1.554l2.1.872L52.918,37.8a3.544,3.544,0,0,1,2.034-4.84,3.633,3.633,0,0,1,4.44,1.955l2.844,6.1,9.113-2.6a4.049,4.049,0,0,1,4.829,2.307l4.193,9.867a4.566,4.566,0,0,1,.233,2.844l-.419,1.726,1.307,2.8a.714.714,0,0,1-1.294.6L78.784,55.54a.718.718,0,0,1-.047-.47l.479-1.97a3.122,3.122,0,0,0-.159-1.948l-4.193-9.867a2.619,2.619,0,0,0-3.123-1.492l-9.7,2.765a.713.713,0,0,1-.842-.385l-3.1-6.65a2.2,2.2,0,0,0-2.667-1.213A2.117,2.117,0,0,0,54.213,37.2l6.065,13.006a.714.714,0,0,1-.921.961l-3.8-1.577a2.2,2.2,0,0,0-2.787.905,2.116,2.116,0,0,0,1.052,2.955l.048.022,13.855,6.986a.715.715,0,0,1,.325.336l1.325,2.842a.714.714,0,0,1-.646,1.016" transform="translate(-26.774 -17.172)"/><path class="l" d="M87.3,96.707a.713.713,0,0,1-.647-.412l-1.739-3.729a.714.714,0,0,1,.346-.949L99,85.207a.714.714,0,0,1,.949.346l1.739,3.73a.714.714,0,0,1-.346.949L87.6,96.64a.716.716,0,0,1-.3.067m-.791-4.1,1.136,2.435,12.45-5.805L98.958,86.8Z" transform="translate(-44.46 -44.615)"/><path class="l" d="M55.152,42.363a.714.714,0,1,1,0-1.428.54.54,0,0,0,.539-.539V1.967a.54.54,0,0,0-.539-.539H1.967a.54.54,0,0,0-.539.539V40.4a.54.54,0,0,0,.539.539h33.97a.714.714,0,1,1,0,1.428H1.967A1.969,1.969,0,0,1,0,40.4V1.967A1.969,1.969,0,0,1,1.967,0H55.152a1.969,1.969,0,0,1,1.967,1.967V40.4a1.969,1.969,0,0,1-1.967,1.967"/><path class="l" d="M33.275,79.952H9.476a.476.476,0,1,1,0-.952h23.8a.476.476,0,1,1,0,.952" transform="translate(-4.716 -41.397)"/><path class="l" d="M31.349,45.126A1.356,1.356,0,0,1,30,43.773V35.35a1.35,1.35,0,0,1,2.024-1.169l7.3,4.212a1.35,1.35,0,0,1,0,2.338l-7.3,4.212a1.348,1.348,0,0,1-.675.183m0-10.175a.409.409,0,0,0-.2.054.391.391,0,0,0-.2.345v8.424a.392.392,0,0,0,.2.345.388.388,0,0,0,.4,0l7.3-4.212a.4.4,0,0,0,0-.688l-7.3-4.212a.386.386,0,0,0-.2-.055" transform="translate(-15.72 -17.816)"/><path class="l" d="M26.234,44.467a10.234,10.234,0,1,1,9.3-14.5.476.476,0,0,1-.866.4,9.283,9.283,0,1,0,.768,5.059.476.476,0,1,1,.944.121,10.249,10.249,0,0,1-10.151,8.925" transform="translate(-8.384 -12.576)"/></g></g></g></svg>