<svg xmlns="http://www.w3.org/2000/svg" xmlns:xlink="http://www.w3.org/1999/xlink" width="51" height="46" viewBox="0 0 51 46"><defs><style>.a{fill:none;}.b{clip-path:url(#a);}.c{fill:#74aaff;}.d{fill:#4f88ff;}.e{fill:#edf2f8;}.f{fill:#c5d5f0;}.g{fill:#8eef03;}.h{fill:#252d32;}.i{fill:#fff;}</style><clipPath id="a"><rect class="a" width="51" height="46" transform="translate(0 0)"/></clipPath></defs><g transform="translate(-73 -2456)"><g transform="translate(73 2456)"><g transform="translate(0 0)"><g class="b"><path class="c" d="M51.926,77H45.158c.451,4.963-.9,8.572-3.158,9.926H55.084c-1.8-1.354-3.158-4.963-3.158-9.926" transform="translate(-23.051 -42.259)"/><rect class="d" width="7" height="3" transform="translate(22 35)"/><rect class="e" width="49" height="29" transform="translate(1 1)"/><rect class="c" width="49" height="4" transform="translate(1 30)"/><path class="f" d="M88.347,54.354h-7.67a.677.677,0,1,1,0-1.354h7.67a.677.677,0,0,1,0,1.354" transform="translate(-43.906 -29.088)"/><path class="f" d="M69.835,54.354H66.677a.677.677,0,1,1,0-1.354h3.158a.677.677,0,0,1,0,1.354" transform="translate(-36.222 -29.088)"/><rect class="g" width="37.709" height="21.365" transform="translate(6.25 5.048)"/><path d="M50.7,32.412H12.991a.684.684,0,0,1-.708-.657V10.389a.684.684,0,0,1,.708-.657H50.7a.684.684,0,0,1,.708.657V31.754a.684.684,0,0,1-.708.657M13.7,31.1H49.992V11.047H13.7Z" transform="translate(-6.741 -5.341)"/></g></g><g transform="translate(0 0)"><g class="b"><path class="h" d="M49.193,35.192H1.79A1.792,1.792,0,0,1,0,33.4V1.79A1.792,1.792,0,0,1,1.79,0h47.4a1.792,1.792,0,0,1,1.79,1.79V33.4a1.792,1.792,0,0,1-1.79,1.79M1.79,1.354a.438.438,0,0,0-.437.437V33.4a.438.438,0,0,0,.437.437h47.4a.437.437,0,0,0,.437-.437V1.79a.437.437,0,0,0-.437-.437Z" transform="translate(0 0)"/><path class="h" d="M42.045,86.744a.677.677,0,0,1-.4-1.226c3.274-2.357,2.609-9.126,2.6-9.195a.677.677,0,0,1,1.346-.14c.032.31.745,7.623-3.157,10.433a.675.675,0,0,1-.4.128" transform="translate(-22.704 -41.479)"/><path class="h" d="M66.224,86.743a.675.675,0,0,1-.4-.128c-3.9-2.81-3.189-10.124-3.157-10.433a.677.677,0,0,1,1.346.139c-.007.069-.664,6.843,2.6,9.2a.677.677,0,0,1-.4,1.226" transform="translate(-34.357 -41.478)"/><path class="h" d="M50.99,99.354H7.677a.677.677,0,0,1,0-1.354H50.99a.677.677,0,1,1,0,1.354" transform="translate(-3.842 -53.785)"/><path class="h" d="M50.63,65.9H1.451a.451.451,0,1,1,0-.9H50.63a.451.451,0,1,1,0,.9" transform="translate(-0.549 -35.673)"/><path class="i" d="M36.247,34.937a.426.426,0,0,1-.386-.157.863.863,0,0,1-.1-.465v-3.49h-.272l.272-.966h1.993a1.98,1.98,0,0,1,1.285.377,1.188,1.188,0,0,1,.462.964,1.034,1.034,0,0,1-.129.494,1.261,1.261,0,0,1-.464.449,1.49,1.49,0,0,1,.631.531,1.251,1.251,0,0,1,.2.67,1.5,1.5,0,0,1-.475,1.147,1.856,1.856,0,0,1-1.322.445Zm.843-4.112v.959H37.8a.344.344,0,0,0,.265-.107.569.569,0,0,0,.1-.381.576.576,0,0,0-.087-.382.434.434,0,0,0-.316-.089Zm0,1.873v1.274h.855a.415.415,0,0,0,.337-.145.769.769,0,0,0,.12-.486.808.808,0,0,0-.117-.5.407.407,0,0,0-.333-.142Z" transform="translate(-19.477 -16.388)"/><path d="M36.93,29.037a1.982,1.982,0,0,1,1.285.377,1.188,1.188,0,0,1,.462.964,1.031,1.031,0,0,1-.129.493,1.257,1.257,0,0,1-.463.449,1.492,1.492,0,0,1,.63.531,1.252,1.252,0,0,1,.2.67,1.5,1.5,0,0,1-.475,1.147,1.856,1.856,0,0,1-1.322.445H35.424a.425.425,0,0,1-.386-.157.859.859,0,0,1-.1-.465V30h-.272l.272-.966Zm-.663,1.924h.715a.344.344,0,0,0,.265-.107.566.566,0,0,0,.1-.381.576.576,0,0,0-.087-.382A.433.433,0,0,0,36.943,30h-.676v.959m0,2.188h.855A.415.415,0,0,0,37.459,33a.766.766,0,0,0,.12-.486.805.805,0,0,0-.117-.5.406.406,0,0,0-.333-.142h-.862v1.274m.663-4.789H34.936a.677.677,0,0,0-.652.494l-.272.966a.679.679,0,0,0,.246.725v2.948a1.493,1.493,0,0,0,.21.832,1.07,1.07,0,0,0,.954.466h1.689a2.51,2.51,0,0,0,1.785-.629,2.186,2.186,0,0,0,.688-1.64,1.923,1.923,0,0,0-.3-1.026,1.785,1.785,0,0,0-.18-.243l.035-.062a1.7,1.7,0,0,0,.209-.812,1.864,1.864,0,0,0-.711-1.488,2.639,2.639,0,0,0-1.712-.529" transform="translate(-18.653 -15.565)"/><path class="i" d="M49.567,33.96v.965H47.038q-.385,0-.473-.148a.874.874,0,0,1-.088-.439V29.86h1.331v4.1Z" transform="translate(-25.507 -16.388)"/><path d="M46.984,29.037v4.1h1.76V34.1H46.215q-.384,0-.473-.148a.872.872,0,0,1-.088-.438V29.037Zm0-.677H45.654a.677.677,0,0,0-.677.677v4.478a1.506,1.506,0,0,0,.182.783,1.13,1.13,0,0,0,1.056.481h2.529a.677.677,0,0,0,.677-.677v-.965a.676.676,0,0,0-.677-.677H47.661V29.037a.677.677,0,0,0-.677-.677" transform="translate(-24.684 -15.565)"/><path class="i" d="M58.537,32.267a3.133,3.133,0,0,1-.557,1.821,2.159,2.159,0,0,1-3.369,0,3.114,3.114,0,0,1-.558-1.821,3.155,3.155,0,0,1,.558-1.834,2.16,2.16,0,0,1,3.369,0,3.154,3.154,0,0,1,.557,1.834M56.3,33.931a.755.755,0,0,0,.655-.42,3.2,3.2,0,0,0,0-2.51.725.725,0,0,0-1.309,0,3.2,3.2,0,0,0,0,2.51.755.755,0,0,0,.655.42" transform="translate(-29.666 -16.258)"/><path d="M55.472,28.8a1.909,1.909,0,0,1,1.685.808,3.276,3.276,0,0,1,0,3.655,1.908,1.908,0,0,1-1.685.809,1.928,1.928,0,0,1-1.685-.809,3.115,3.115,0,0,1-.557-1.821,3.156,3.156,0,0,1,.557-1.834,1.91,1.91,0,0,1,1.685-.808m0,4.307a.755.755,0,0,0,.655-.42,3.2,3.2,0,0,0,0-2.51.725.725,0,0,0-1.309,0,3.2,3.2,0,0,0,0,2.51.755.755,0,0,0,.655.42m0-4.984a2.589,2.589,0,0,0-2.242,1.1,3.836,3.836,0,0,0-.677,2.218,3.792,3.792,0,0,0,.679,2.208,2.833,2.833,0,0,0,4.482,0,3.954,3.954,0,0,0,0-4.424,2.592,2.592,0,0,0-2.242-1.1m0,4.307a.485.485,0,0,1-.073-.1,2.672,2.672,0,0,1,0-1.8.277.277,0,0,1,.079-.094s.033.018.081.1a2.683,2.683,0,0,1,0,1.8.3.3,0,0,1-.08.1l0,0Z" transform="translate(-28.842 -15.435)"/><path class="i" d="M67.281,33.916a.675.675,0,0,0,.542-.247,1.215,1.215,0,0,0,.227-.749H67.041l.24-.966h2.043v2.814H68.063v-.062a2.195,2.195,0,0,1-.407.128,2.083,2.083,0,0,1-.445.047,1.913,1.913,0,0,1-1.678-.8,3.066,3.066,0,0,1-.56-1.806,3.18,3.18,0,0,1,.566-1.863,1.969,1.969,0,0,1,1.717-.818,2.1,2.1,0,0,1,1.29.4,2.166,2.166,0,0,1,.767,1.1l-1.155.542a2.5,2.5,0,0,0-.419-.861.644.644,0,0,0-.483-.217.776.776,0,0,0-.706.5,2.489,2.489,0,0,0-.246,1.168,2.36,2.36,0,0,0,.274,1.266.816.816,0,0,0,.7.424" transform="translate(-35.659 -16.243)"/><path d="M66.432,28.773a2.1,2.1,0,0,1,1.289.4,2.164,2.164,0,0,1,.767,1.1l-1.155.542a2.491,2.491,0,0,0-.42-.861.642.642,0,0,0-.482-.217.777.777,0,0,0-.707.5A2.49,2.49,0,0,0,65.48,31.4a2.36,2.36,0,0,0,.274,1.266.816.816,0,0,0,.7.424A.674.674,0,0,0,67,32.846a1.22,1.22,0,0,0,.227-.749H66.217l.24-.966H68.5v2.814H67.239v-.062a2.2,2.2,0,0,1-.407.128,2.09,2.09,0,0,1-.445.047,1.913,1.913,0,0,1-1.678-.8,3.063,3.063,0,0,1-.56-1.806,3.178,3.178,0,0,1,.566-1.862,1.969,1.969,0,0,1,1.717-.818m0-.677h0A2.634,2.634,0,0,0,64.16,29.2a3.859,3.859,0,0,0-.688,2.25,3.747,3.747,0,0,0,.683,2.195,2.6,2.6,0,0,0,2.232,1.087,2.812,2.812,0,0,0,.588-.062c.071-.015.141-.033.21-.053l.054,0H68.5a.677.677,0,0,0,.677-.677V31.131a.672.672,0,0,0-.16-.436.674.674,0,0,0,.114-.631,2.832,2.832,0,0,0-1.005-1.433,2.772,2.772,0,0,0-1.694-.536" transform="translate(-34.835 -15.42)"/></g></g></g></g></svg>