<svg xmlns="http://www.w3.org/2000/svg" xmlns:xlink="http://www.w3.org/1999/xlink" width="51.868" height="49.746" viewBox="0 0 51.868 49.746"><defs><style>.a{fill:none;}.b{clip-path:url(#a);}.c{fill:#ff9f91;}.d{fill:#e23b3b;}.e{fill:#ff5f5f;}.f{fill:#ffbfb4;}.g{fill:#74aaff;}.h{fill:#4f88ff;}.i{fill:#252d32;}</style><clipPath id="a"><rect class="a" width="51.868" height="49.746"/></clipPath></defs><g transform="translate(-72 -2455)"><g transform="translate(72 2455)"><g transform="translate(0 0)"><g class="b"><path class="c" d="M23.95,61.061H13.892V58.043L5.343,46.98.948,30.866a.66.66,0,0,1,.3-.739,2.335,2.335,0,0,1,3.251.884l4.87,8.928.389-.324a3.25,3.25,0,0,1,4.667.526c1.278,1.679,2.809,3.64,3.493,4.324,1.006,1.006,4.963,3.308,5.532,5.532.706,2.762.5,11.064.5,11.064" transform="translate(-0.495 -15.959)"/><path class="d" d="M43.952.967A8.962,8.962,0,0,0,37.665,3.56,8.961,8.961,0,0,0,31.379.967,9.29,9.29,0,0,0,22.234,10.4c0,10.608,15.431,19.8,15.431,19.8S53.1,21,53.1,10.4A9.29,9.29,0,0,0,43.952.967" transform="translate(-11.909 -0.518)"/><path class="e" d="M31.378.967A9.29,9.29,0,0,0,22.233,10.4c0,7.489,7.688,14.269,12.211,17.61C37.7,25.88,49,17.84,49,8.758a9.5,9.5,0,0,0-3.886-7.706A8.834,8.834,0,0,0,43.951.967,8.961,8.961,0,0,0,37.664,3.56,8.962,8.962,0,0,0,31.378.967" transform="translate(-11.909 -0.518)"/><path class="f" d="M25.389,50.073c-.574-2.224-4.572-4.526-5.588-5.532-.7-.689-2.257-2.671-3.553-4.356a3.252,3.252,0,0,0-4.649-.528l-.434.358L6.245,31.087a2.344,2.344,0,0,0-1.551-1.152L9.132,46.05l7.62,9.762a4.8,4.8,0,0,1,1.016,2.954v2.371H25.9s.205-8.3-.508-11.064" transform="translate(-2.514 -16.034)"/><rect class="g" width="10.68" height="3.715" transform="translate(13.397 45.102)"/><rect class="h" width="1.857" height="3.715" transform="translate(13.397 45.102)"/><path class="c" d="M61.159,61.061H71.217V58.043L79.766,46.98l4.395-16.114a.66.66,0,0,0-.3-.739,2.335,2.335,0,0,0-3.251.884l-4.87,8.928-.389-.324a3.25,3.25,0,0,0-4.667.526c-1.278,1.679-2.809,3.64-3.493,4.324C66.188,45.471,62.23,47.773,61.662,50c-.706,2.762-.5,11.064-.5,11.064" transform="translate(-32.745 -15.959)"/><path class="f" d="M61.822,50.073c.574-2.224,4.572-4.526,5.588-5.532.7-.689,2.257-2.671,3.553-4.356a3.252,3.252,0,0,1,4.648-.528l.435.358,4.919-8.928a2.344,2.344,0,0,1,1.551-1.152L78.079,46.05l-7.62,9.761a4.805,4.805,0,0,0-1.016,2.955v2.371H61.314s-.205-8.3.508-11.064" transform="translate(-32.828 -16.034)"/><rect class="g" width="10.68" height="3.715" transform="translate(27.792 45.102)"/><rect class="h" width="1.857" height="3.715" transform="translate(36.615 45.102)"/></g></g><g transform="translate(0 0)"><g class="b"><path class="i" d="M13.629,61.03a.7.7,0,0,1-.7-.7v-.846a2.817,2.817,0,0,0-.652-2L5.057,47.961a4.553,4.553,0,0,1-1-1.725L.064,31.267a1.753,1.753,0,0,1,.6-1.855,2.606,2.606,0,0,1,3.927.909l4.85,9.606a.7.7,0,0,1-1.244.627L3.343,30.944a1.213,1.213,0,0,0-1.832-.427.378.378,0,0,0-.1.392l3.981,14.94A3.135,3.135,0,0,0,6.1,47.033c.017.019.034.038.049.058l7.223,9.53a4.153,4.153,0,0,1,.957,2.867v.846a.7.7,0,0,1-.7.7" transform="translate(0 -15.463)"/><path class="i" d="M33.527,71.465a.7.7,0,0,1-.7-.7V64.215c-.011-.247-.018-.513-.025-.771-.071-2.626-.114-4.212-4.113-6.822l-.183-.119a9.546,9.546,0,0,1-3.08-2.749l-1.772-2.589a2.912,2.912,0,0,0-3.934-1.029.535.535,0,0,0-.241.348.6.6,0,0,0,.09.461l4.36,6.419a.7.7,0,1,1-1.153.782l-4.36-6.419a2,2,0,0,1-.3-1.533,1.917,1.917,0,0,1,.87-1.243A4.282,4.282,0,0,1,24.8,50.376l1.775,2.593a8.324,8.324,0,0,0,2.689,2.366l.184.12c4.611,3.009,4.67,5.19,4.745,7.951.007.253.014.512.025.781v6.581a.7.7,0,0,1-.7.7" transform="translate(-9.682 -25.898)"/><path class="i" d="M36.892,30.127a.7.7,0,0,1-.348-.093c-.653-.378-15.99-9.361-15.99-20.067A9.957,9.957,0,0,1,36.892,2.314,9.957,9.957,0,0,1,53.23,9.966c0,10.706-15.337,19.69-15.99,20.067a.7.7,0,0,1-.348.093M30.52,1.393a8.582,8.582,0,0,0-8.572,8.573c0,9.057,12.664,17.249,14.945,18.651,2.281-1.4,14.945-9.594,14.945-18.651A8.564,8.564,0,0,0,37.372,3.752a.7.7,0,0,1-.959,0A8.534,8.534,0,0,0,30.52,1.393" transform="translate(-11.01 0)"/><path class="i" d="M38.691,100.7H27.547a.7.7,0,0,1-.7-.7V95.825a.7.7,0,1,1,1.393,0v3.483h9.751V95.825a.7.7,0,1,1,1.393,0V100a.7.7,0,0,1-.7.7" transform="translate(-14.382 -50.955)"/><path class="i" d="M38.995,97.057H28.314a.464.464,0,1,1,0-.929h10.68a.464.464,0,1,1,0,.929" transform="translate(-14.918 -51.49)"/><path class="i" d="M81.547,61.031a.7.7,0,0,1-.7-.7v-.846a4.183,4.183,0,0,1,.978-2.894l7.2-9.5c.015-.02.032-.039.049-.058a3.155,3.155,0,0,0,.714-1.214l3.972-14.909a.378.378,0,0,0-.1-.392,1.213,1.213,0,0,0-1.829.421L86.98,40.556a.7.7,0,0,1-1.244-.627l4.853-9.611a2.605,2.605,0,0,1,3.924-.9,1.753,1.753,0,0,1,.6,1.856l-3.98,14.938a4.591,4.591,0,0,1-1.012,1.755l-7.2,9.5a2.844,2.844,0,0,0-.674,2.026v.846a.7.7,0,0,1-.7.7" transform="translate(-43.307 -15.465)"/><path class="i" d="M59.547,71.465a.7.7,0,0,1-.7-.7V64.215c.011-.3.019-.556.026-.809.075-2.761.134-4.942,4.745-7.951l.184-.12a8.319,8.319,0,0,0,2.687-2.364l1.776-2.594a4.281,4.281,0,0,1,5.817-1.425,1.915,1.915,0,0,1,.87,1.242,2,2,0,0,1-.3,1.533l-4.36,6.419a.7.7,0,1,1-1.153-.782l4.36-6.419a.6.6,0,0,0,.09-.461.535.535,0,0,0-.241-.348,2.912,2.912,0,0,0-3.935,1.029l-1.774,2.591A9.54,9.54,0,0,1,64.565,56.5l-.183.119c-4,2.61-4.043,4.2-4.113,6.822-.007.259-.015.524-.026.8v6.525a.7.7,0,0,1-.7.7" transform="translate(-31.523 -25.898)"/><path class="i" d="M69.691,100.7H58.547a.7.7,0,0,1-.7-.7V95.825a.7.7,0,1,1,1.393,0v3.483h9.751V95.825a.7.7,0,1,1,1.393,0V100a.7.7,0,0,1-.7.7" transform="translate(-30.987 -50.955)"/><path class="i" d="M69.995,97.057H59.314a.464.464,0,1,1,0-.929h10.68a.464.464,0,1,1,0,.929" transform="translate(-31.523 -51.49)"/></g></g></g></g></svg>