<svg xmlns="http://www.w3.org/2000/svg" xmlns:xlink="http://www.w3.org/1999/xlink" width="55.249" height="48.221" viewBox="0 0 55.249 48.221"><defs><style>.a{fill:none;}.b{fill:#edf2f8;}.c{fill:#4f88ff;}.d{fill:#74aaff;}.e{fill:#ffaa4c;}.f{fill:#ffc960;}.g{clip-path:url(#a);}.h{fill:#d5e1ef;}.i{fill:#ff5f5f;}.j{fill:#fff;}.k{fill:#252d32;}</style><clipPath id="a"><rect class="a" width="55.249" height="48.221"/></clipPath></defs><g transform="translate(-72.012 -2453.627)"><g transform="translate(72.012 2453.627)"><rect class="b" width="37.386" height="30.462" transform="translate(3.555 16.836)"/><path class="c" d="M24.294,2.476,44.817,18.169H3.77Z" transform="translate(-2.03 -1.333)"/><path class="d" d="M45.32,20.861,27.814,7.476,10.309,20.861Z" transform="translate(-5.551 -4.025)"/><rect class="e" width="12.923" height="13.385" transform="translate(10.017 25.144)"/><rect class="f" width="11.077" height="12" transform="translate(11.863 26.528)"/><g class="g"><path class="c" d="M47.779,20.015a2.539,2.539,0,1,1-2.539-2.539,2.538,2.538,0,0,1,2.539,2.539" transform="translate(-22.993 -9.41)"/><rect class="h" width="37.386" height="1.846" transform="translate(3.555 16.836)"/><path class="h" d="M70.395,43.544c-.456-.044-.917-.068-1.385-.068a14.309,14.309,0,0,0-6.145,27.232h7.53Z" transform="translate(-29.454 -23.41)"/><path class="i" d="M86.472,57.861A13.385,13.385,0,1,1,73.087,44.476,13.385,13.385,0,0,1,86.472,57.861" transform="translate(-32.146 -23.948)"/><path class="j" d="M87.054,63.784a3.528,3.528,0,0,0-4.99,0l-.669.669-.669-.669a3.529,3.529,0,1,0-4.99,4.99L81.4,74.44l5.652-5.666a3.529,3.529,0,0,0,0-4.99" transform="translate(-40.223 -33.788)"/></g><g class="g"><path class="k" d="M80.866,74.363a.461.461,0,0,1-.326-.135l-5.666-5.665a3.99,3.99,0,1,1,5.642-5.643l.343.342.342-.342a3.99,3.99,0,1,1,5.642,5.643l-5.651,5.665a.459.459,0,0,1-.326.136ZM77.7,62.674a3.067,3.067,0,0,0-2.169,5.236l5.339,5.338,5.325-5.338a3.067,3.067,0,1,0-4.337-4.338l-.669.669a.462.462,0,0,1-.653,0l-.669-.669a3.045,3.045,0,0,0-2.168-.9" transform="translate(-39.688 -33.25)"/><path class="k" d="M3.324,47.76a.693.693,0,0,1-.692-.692V17.759H.692a.692.692,0,0,1-.419-1.243L21.829.141a.691.691,0,0,1,.837,0L44.222,16.515a.692.692,0,0,1-.419,1.243H41.864V20.3a.692.692,0,0,1-1.385,0V17.066a.693.693,0,0,1,.692-.692h.576L22.248,1.562,2.748,16.374h.576a.693.693,0,0,1,.692.692v30a.693.693,0,0,1-.692.692" transform="translate(0)"/><path class="k" d="M45.011,36.4H7.164a.462.462,0,0,1,0-.923H45.011a.462.462,0,1,1,0,.923" transform="translate(-3.609 -19.102)"/><path class="k" d="M34.087,67.784H21.164a.461.461,0,0,1-.462-.462V53.938a.461.461,0,0,1,.462-.462H34.087a.461.461,0,0,1,.462.462V67.323a.461.461,0,0,1-.462.462m-12.462-.923h12V54.4h-12Z" transform="translate(-11.147 -28.794)"/><path class="k" d="M36.164,67.861A.461.461,0,0,1,35.7,67.4V54.938a.462.462,0,1,1,.923,0V67.4a.461.461,0,0,1-.462.462" transform="translate(-19.224 -29.332)"/><path class="k" d="M28.164,68.4h-6a.462.462,0,0,1,0-.923h6a.462.462,0,0,1,0,.923" transform="translate(-11.685 -36.332)"/><path class="k" d="M52.165,102.861H1.394a.692.692,0,0,1,0-1.385H52.165a.692.692,0,0,1,0,1.385" transform="translate(-0.378 -54.64)"/><path class="k" d="M44.164,22.4a3.462,3.462,0,1,1,3.462-3.462A3.465,3.465,0,0,1,44.164,22.4m0-6A2.539,2.539,0,1,0,46.7,18.938,2.542,2.542,0,0,0,44.164,16.4" transform="translate(-21.916 -8.333)"/><path class="k" d="M72.01,71.092A14.308,14.308,0,1,1,86.318,56.784,14.324,14.324,0,0,1,72.01,71.092m0-27.232A12.923,12.923,0,1,0,84.934,56.784,12.938,12.938,0,0,0,72.01,43.861" transform="translate(-31.07 -22.871)"/></g></g></g></svg>