<svg xmlns="http://www.w3.org/2000/svg" xmlns:xlink="http://www.w3.org/1999/xlink" width="73" height="65" viewBox="0 0 73 65"><defs><style>.a{fill:none;}.b{clip-path:url(#a);}.c{fill:#74aaff;}.d{fill:#4f88ff;}.e{fill:#edf2f8;}.f{fill:#c5d5f0;}.g{fill:#8eef03;}.h{fill:#252d32;}.i{fill:#fff;}</style><clipPath id="a"><rect class="a" width="73" height="65" transform="translate(0 0)"/></clipPath></defs><g transform="translate(-492 -4167)"><g transform="translate(492 4167)"><g class="b"><path class="c" d="M56.158,77H46.5c.644,7.079-1.287,12.228-4.5,14.158H60.663c-2.574-1.931-4.5-7.079-4.5-14.158" transform="translate(-14.97 -27.446)"/><rect class="d" width="9" height="4" transform="translate(32 50)"/><rect class="e" width="70" height="42" transform="translate(1 1)"/><rect class="c" width="70" height="6" transform="translate(1 43)"/><path class="f" d="M91.906,54.931H80.965a.965.965,0,0,1,0-1.931H91.906a.965.965,0,1,1,0,1.931" transform="translate(-28.515 -18.891)"/><path class="f" d="M71.47,54.931h-4.5a.965.965,0,1,1,0-1.931h4.5a.965.965,0,0,1,0,1.931" transform="translate(-23.525 -18.891)"/><rect class="g" width="53.788" height="30.475" transform="translate(8.915 7.201)"/><path d="M67.081,42.083H13.293a.976.976,0,0,1-1.01-.938V10.67a.976.976,0,0,1,1.01-.938H67.081a.976.976,0,0,1,1.01.938V41.145a.976.976,0,0,1-1.01.938M14.3,40.207H66.071v-28.6H14.3Z" transform="translate(-4.378 -3.469)"/></g><g class="b"><path class="h" d="M70.169,50.2H2.554A2.557,2.557,0,0,1,0,47.644V2.554A2.557,2.557,0,0,1,2.554,0H70.169a2.557,2.557,0,0,1,2.554,2.554V47.644A2.557,2.557,0,0,1,70.169,50.2M2.554,1.931a.624.624,0,0,0-.623.623V47.644a.624.624,0,0,0,.623.623H70.169a.624.624,0,0,0,.623-.623V2.554a.624.624,0,0,0-.623-.623Z"/><path class="h" d="M42.334,91.506a.965.965,0,0,1-.565-1.749c4.67-3.362,3.722-13.018,3.712-13.116a.965.965,0,0,1,1.92-.2c.046.441,1.063,10.873-4.5,14.882a.963.963,0,0,1-.564.182" transform="translate(-14.745 -26.939)"/><path class="h" d="M67.769,91.505a.963.963,0,0,1-.564-.182c-5.567-4.009-4.549-14.44-4.5-14.882a.965.965,0,0,1,1.92.2c-.01.1-.947,9.761,3.712,13.116a.965.965,0,0,1-.565,1.749" transform="translate(-22.313 -26.938)"/><path class="h" d="M69.748,99.931H7.965a.965.965,0,0,1,0-1.931H69.748a.965.965,0,0,1,0,1.931" transform="translate(-2.495 -34.931)"/><path class="h" d="M71.792,66.287H1.644a.644.644,0,1,1,0-1.287H71.792a.644.644,0,1,1,0,1.287" transform="translate(-0.356 -23.168)"/><path class="i" d="M36.57,37.1a.608.608,0,0,1-.551-.223,1.232,1.232,0,0,1-.144-.663V31.237h-.387l.387-1.377h2.843a2.824,2.824,0,0,1,1.832.537,1.694,1.694,0,0,1,.659,1.375,1.475,1.475,0,0,1-.184.7,1.8,1.8,0,0,1-.662.64,2.126,2.126,0,0,1,.9.757,1.785,1.785,0,0,1,.279.956,2.142,2.142,0,0,1-.677,1.637,2.647,2.647,0,0,1-1.886.635Zm1.2-5.865V32.6h1.019a.491.491,0,0,0,.378-.153.811.811,0,0,0,.142-.544.821.821,0,0,0-.124-.544.619.619,0,0,0-.45-.127Zm0,2.672v1.817h1.22a.592.592,0,0,0,.48-.207,1.1,1.1,0,0,0,.172-.693,1.153,1.153,0,0,0-.167-.715.581.581,0,0,0-.475-.2Z" transform="translate(-12.649 -10.643)"/><path d="M38.184,29.325a2.827,2.827,0,0,1,1.833.537,1.7,1.7,0,0,1,.658,1.375,1.47,1.47,0,0,1-.184.7,1.793,1.793,0,0,1-.661.641,2.128,2.128,0,0,1,.9.757,1.786,1.786,0,0,1,.279.956,2.143,2.143,0,0,1-.678,1.637,2.647,2.647,0,0,1-1.886.635h-2.41a.606.606,0,0,1-.55-.223,1.225,1.225,0,0,1-.145-.663V30.7h-.387l.387-1.377Zm-.945,2.745h1.019a.49.49,0,0,0,.378-.153.808.808,0,0,0,.142-.544.821.821,0,0,0-.124-.544.618.618,0,0,0-.45-.127h-.965V32.07m0,3.121h1.22a.592.592,0,0,0,.48-.207,1.093,1.093,0,0,0,.172-.693,1.149,1.149,0,0,0-.167-.715.579.579,0,0,0-.475-.2H37.239v1.817m.945-6.831H35.341a.965.965,0,0,0-.929.7l-.387,1.377a.968.968,0,0,0,.351,1.034v4.206a2.13,2.13,0,0,0,.3,1.187,1.527,1.527,0,0,0,1.361.664h2.41a3.58,3.58,0,0,0,2.547-.9,3.119,3.119,0,0,0,.982-2.339,2.743,2.743,0,0,0-.424-1.464,2.546,2.546,0,0,0-.257-.347q.026-.044.05-.089a2.427,2.427,0,0,0,.3-1.158,2.659,2.659,0,0,0-1.014-2.123,3.765,3.765,0,0,0-2.442-.754" transform="translate(-12.115 -10.109)"/><path class="i" d="M50.884,35.709v1.376H47.277q-.549,0-.675-.211a1.246,1.246,0,0,1-.126-.626V29.86h1.9v5.849Z" transform="translate(-16.566 -10.643)"/><path d="M47.84,29.325v5.849h2.51V36.55H46.743q-.548,0-.675-.212a1.244,1.244,0,0,1-.125-.625V29.325Zm0-.965h-1.9a.965.965,0,0,0-.965.965v6.388a2.148,2.148,0,0,0,.26,1.117,1.612,1.612,0,0,0,1.506.685H50.35a.965.965,0,0,0,.965-.965V35.174a.965.965,0,0,0-.965-.965H48.806V29.325a.965.965,0,0,0-.965-.965" transform="translate(-16.031 -10.109)"/><path class="i" d="M60.449,33.393a4.468,4.468,0,0,1-.795,2.6,3.08,3.08,0,0,1-4.806,0,4.442,4.442,0,0,1-.8-2.6,4.5,4.5,0,0,1,.8-2.617,3.081,3.081,0,0,1,4.806,0,4.5,4.5,0,0,1,.795,2.617m-3.2,2.375a1.077,1.077,0,0,0,.934-.6,3.479,3.479,0,0,0,.366-1.785,3.474,3.474,0,0,0-.366-1.795,1.035,1.035,0,0,0-1.868,0,3.474,3.474,0,0,0-.366,1.795,3.479,3.479,0,0,0,.366,1.785,1.076,1.076,0,0,0,.934.6" transform="translate(-19.266 -10.559)"/><path d="M56.717,29.089a2.723,2.723,0,0,1,2.4,1.153,4.673,4.673,0,0,1,0,5.214,2.722,2.722,0,0,1-2.4,1.153,2.75,2.75,0,0,1-2.4-1.153,4.443,4.443,0,0,1-.795-2.6,4.5,4.5,0,0,1,.795-2.616,2.724,2.724,0,0,1,2.4-1.153m0,6.144a1.077,1.077,0,0,0,.934-.6,3.481,3.481,0,0,0,.366-1.786,3.476,3.476,0,0,0-.366-1.795,1.035,1.035,0,0,0-1.868,0,3.475,3.475,0,0,0-.366,1.795,3.48,3.48,0,0,0,.366,1.786,1.076,1.076,0,0,0,.934.6m0-7.109a3.693,3.693,0,0,0-3.2,1.57,5.472,5.472,0,0,0-.966,3.164,5.409,5.409,0,0,0,.968,3.149,4.041,4.041,0,0,0,6.394,0,5.64,5.64,0,0,0,0-6.31,3.7,3.7,0,0,0-3.2-1.57m-.006,6.143a.692.692,0,0,1-.1-.136,2.543,2.543,0,0,1-.225-1.283,2.535,2.535,0,0,1,.221-1.286.4.4,0,0,1,.112-.134s.047.026.116.136a2.544,2.544,0,0,1,.219,1.285,2.546,2.546,0,0,1-.224,1.283.428.428,0,0,1-.115.14l0,0Z" transform="translate(-18.732 -10.024)"/><path class="i" d="M68.265,35.758a.963.963,0,0,0,.774-.353,1.733,1.733,0,0,0,.324-1.068H67.923l.342-1.377H71.18v4.013h-1.8v-.089a3.131,3.131,0,0,1-.58.183,2.971,2.971,0,0,1-.635.068,2.729,2.729,0,0,1-2.394-1.14,4.373,4.373,0,0,1-.8-2.576,4.537,4.537,0,0,1,.807-2.657A2.809,2.809,0,0,1,68.229,29.6a3,3,0,0,1,1.84.572,3.09,3.09,0,0,1,1.093,1.569l-1.647.774a3.566,3.566,0,0,0-.6-1.228.918.918,0,0,0-.689-.31,1.106,1.106,0,0,0-1.007.709,3.55,3.55,0,0,0-.351,1.666,3.366,3.366,0,0,0,.391,1.806,1.164,1.164,0,0,0,1,.6" transform="translate(-23.159 -10.549)"/><path d="M67.694,29.061a3,3,0,0,1,1.839.573A3.087,3.087,0,0,1,70.627,31.2l-1.647.774a3.553,3.553,0,0,0-.6-1.228.916.916,0,0,0-.688-.31,1.108,1.108,0,0,0-1.008.709,3.551,3.551,0,0,0-.35,1.666,3.367,3.367,0,0,0,.391,1.806,1.164,1.164,0,0,0,1,.6.962.962,0,0,0,.774-.353,1.741,1.741,0,0,0,.324-1.068h-1.44l.342-1.377h2.915v4.013h-1.8V36.35a3.131,3.131,0,0,1-.58.183,2.981,2.981,0,0,1-.635.068,2.729,2.729,0,0,1-2.393-1.14,4.369,4.369,0,0,1-.8-2.576,4.533,4.533,0,0,1,.807-2.657,2.809,2.809,0,0,1,2.449-1.167m0-.965h-.006a3.758,3.758,0,0,0-3.235,1.579,5.5,5.5,0,0,0-.981,3.21,5.345,5.345,0,0,0,.974,3.13,3.7,3.7,0,0,0,3.184,1.55,4.011,4.011,0,0,0,.839-.089c.1-.022.2-.048.3-.076.025,0,.051,0,.077,0h1.8a.965.965,0,0,0,.965-.965V32.425a.959.959,0,0,0-.228-.622.962.962,0,0,0,.162-.9A4.04,4.04,0,0,0,70.11,28.86a3.954,3.954,0,0,0-2.417-.764" transform="translate(-22.624 -10.014)"/></g></g></g></svg>