<svg xmlns="http://www.w3.org/2000/svg" xmlns:xlink="http://www.w3.org/1999/xlink" width="72.727" height="63.476" viewBox="0 0 72.727 63.476"><defs><style>.a{fill:none;}.b{fill:#edf2f8;}.c{fill:#4f88ff;}.d{fill:#74aaff;}.e{fill:#ffaa4c;}.f{fill:#ffc960;}.g{clip-path:url(#a);}.h{fill:#d5e1ef;}.i{fill:#ff5f5f;}.j{fill:#fff;}.k{fill:#252d32;}</style><clipPath id="a"><rect class="a" width="72.727" height="63.476"/></clipPath></defs><g transform="translate(-497.637 -4162)"><g transform="translate(497.637 4162)"><rect class="b" width="49.213" height="40.099" transform="translate(4.679 22.162)"/><path class="c" d="M30.786,2.476,57.8,23.133H3.77Z" transform="translate(-1.48 -0.972)"/><path class="d" d="M56.4,25.1,33.352,7.476,10.309,25.1Z" transform="translate(-4.046 -2.934)"/><rect class="e" width="17.012" height="17.619" transform="translate(13.185 33.098)"/><rect class="f" width="14.582" height="15.797" transform="translate(15.616 34.92)"/><g class="g"><path class="c" d="M49.385,20.818a3.342,3.342,0,1,1-3.342-3.342,3.341,3.341,0,0,1,3.342,3.342" transform="translate(-16.758 -6.858)"/><rect class="h" width="49.213" height="2.43" transform="translate(4.679 22.162)"/><path class="h" d="M75.359,43.565c-.6-.058-1.207-.089-1.823-.089a18.836,18.836,0,0,0-8.089,35.846h9.912Z" transform="translate(-21.467 -17.061)"/><path class="i" d="M94.941,62.1A17.619,17.619,0,1,1,77.321,44.476,17.62,17.62,0,0,1,94.941,62.1" transform="translate(-23.429 -17.454)"/><path class="j" d="M90.961,64.111a4.645,4.645,0,0,0-6.569,0l-.88.88-.88-.88a4.645,4.645,0,0,0-6.569,6.569l7.459,7.458,7.44-7.458a4.646,4.646,0,0,0,0-6.569" transform="translate(-29.316 -24.625)"/></g><g class="g"><path class="k" d="M83.131,78.353a.607.607,0,0,1-.43-.178l-7.458-7.457a5.252,5.252,0,1,1,7.427-7.428l.451.451.451-.451A5.252,5.252,0,0,1,91,70.717l-7.439,7.457a.6.6,0,0,1-.43.179ZM78.957,62.966A4.037,4.037,0,0,0,76.1,69.858l7.028,7.027,7.01-7.026a4.037,4.037,0,1,0-5.709-5.711l-.88.881a.608.608,0,0,1-.859,0l-.881-.881a4.008,4.008,0,0,0-2.854-1.182" transform="translate(-28.925 -24.233)"/><path class="k" d="M4.376,62.868a.912.912,0,0,1-.911-.911V23.377H.911A.911.911,0,0,1,.36,21.74L28.735.186a.91.91,0,0,1,1.1,0L58.211,21.74a.911.911,0,0,1-.551,1.637H55.107v3.342a.911.911,0,1,1-1.823,0V22.465a.912.912,0,0,1,.911-.911h.758L29.286,2.056,3.617,21.554h.758a.912.912,0,0,1,.911.911V61.957a.912.912,0,0,1-.911.911" transform="translate(0)"/><path class="k" d="M57.13,36.691H7.31a.608.608,0,1,1,0-1.215H57.13a.608.608,0,1,1,0,1.215" transform="translate(-2.63 -13.922)"/><path class="k" d="M38.321,72.311H21.31A.607.607,0,0,1,20.7,71.7V54.084a.607.607,0,0,1,.608-.608H38.321a.607.607,0,0,1,.608.608V71.7a.607.607,0,0,1-.608.608M21.917,71.1h15.8v-16.4h-15.8Z" transform="translate(-8.124 -20.986)"/><path class="k" d="M36.31,72.1a.607.607,0,0,1-.608-.608v-16.4a.608.608,0,0,1,1.215,0v16.4a.607.607,0,0,1-.608.608" transform="translate(-14.011 -21.378)"/><path class="k" d="M30.208,68.691h-7.9a.608.608,0,0,1,0-1.215h7.9a.608.608,0,1,1,0,1.215" transform="translate(-8.517 -26.48)"/><path class="k" d="M68.446,103.3H1.613a.911.911,0,1,1,0-1.823H68.446a.911.911,0,0,1,0,1.823" transform="translate(-0.275 -39.823)"/><path class="k" d="M45.259,24.589a4.557,4.557,0,1,1,4.557-4.557,4.562,4.562,0,0,1-4.557,4.557m0-7.9A3.342,3.342,0,1,0,48.6,20.033a3.346,3.346,0,0,0-3.342-3.342" transform="translate(-15.973 -6.073)"/><path class="k" d="M76.537,80.145A18.835,18.835,0,1,1,95.371,61.311,18.855,18.855,0,0,1,76.537,80.145m0-35.846A17.012,17.012,0,1,0,93.548,61.311,17.031,17.031,0,0,0,76.537,44.3" transform="translate(-22.644 -16.669)"/></g></g></g></svg>