<svg xmlns="http://www.w3.org/2000/svg" xmlns:xlink="http://www.w3.org/1999/xlink" width="450" height="64" viewBox="0 0 450 64"><defs><clipPath id="a"><rect width="450" height="64" transform="translate(590 2419)" fill="red" opacity="0.5"/></clipPath><clipPath id="b"><rect width="449.407" height="52.543" fill="none"/></clipPath><clipPath id="c"><path d="M112.236,11.128a11.224,11.224,0,0,0-1.238.779,10.384,10.384,0,0,0-3.981,7.072,18.241,18.241,0,0,0,.8,8.821c1.925,5.769,6.2,8.193,10.336,7.749a5.2,5.2,0,0,1-1.062-2.654c-.468-4.461,1.578-11.554,1.983-16.3.258-3.083.676-4.352-.635-5.778-1.986.188-4.036.309-6.2.309" transform="translate(-106.784 -10.819)" fill="none"/></clipPath><linearGradient id="d" x1="-12.637" y1="0.889" x2="-12.517" y2="0.889" gradientUnits="objectBoundingBox"><stop offset="0" stop-color="#a4c422"/><stop offset="1" stop-color="#33a437"/></linearGradient><clipPath id="e"><path d="M133.79,10.717a9.254,9.254,0,0,0-.6,1.571c-1.153,4.092-1.387,7.73-3.038,11.892-2.55,6.415-9.52,17.2-18.657,18.177.967,1.2,2.656,1.711,4.649,1.711h0a20.278,20.278,0,0,0,7.969-1.957c9.262-4.222,17.014-15.258,19.019-27.01.514-3.013,1.3-8.76-2.734-9.1a46.785,46.785,0,0,1-6.611,4.717" transform="translate(-111.495 -6)" fill="none"/></clipPath><linearGradient id="f" x1="-5.957" y1="0.803" x2="-5.902" y2="0.803" gradientUnits="objectBoundingBox"><stop offset="0" stop-color="#28bef3"/><stop offset="1" stop-color="#0079c7"/></linearGradient></defs><g transform="translate(-590 -2419)" clip-path="url(#a)"><g transform="translate(590 2419)"><g transform="translate(0 0)"><g clip-path="url(#b)"><path d="M74.235,10.223c-6.574,0-10.821,3.059-10.821,7.819s4.246,7.822,10.821,7.822,10.83-3.052,10.83-7.822-4.249-7.819-10.83-7.819m0,13.2h-.055c-3.631,0-5.836-2.041-5.836-5.383s2.205-5.33,5.836-5.33h.055c3.633,0,5.839,1.99,5.839,5.33s-2.205,5.383-5.839,5.383" transform="translate(94.583 14.442)" fill="#004394"/><path d="M81.813,7.9H77.1v5.839H73.139v2.256H77.1v8.338c0,2.936,2.1,4.536,5.952,4.536H87.7v-2.21H85.89c-3.006,0-4.077-1.021-4.077-3.682V15.993H87.7V13.738H81.813Z" transform="translate(108.321 11.159)" fill="#004394"/><path d="M98.237,10.319H89.281v2.374h7.94c2.379.116,4.418.627,4.418,3.124v.84H95.914c-5.72,0-8.044,1.363-8.044,4.652,0,2.668,2.2,4.14,6.121,4.14h12.531V15.861c0-3.674-2.784-5.542-8.285-5.542m3.455,12.855H96.314c-1.65,0-3.513,0-3.513-1.981,0-2.152,1.983-2.321,3.9-2.321h4.987Z" transform="translate(129.131 14.578)" fill="#004394"/><path d="M86.3,10.319c-4.138,0-5.5.9-5.5,3.624V25.449H85.5V14.792c0-2.1,3.117-2.1,4.536-2.1h5.494l2.49-2.374Z" transform="translate(119.139 14.578)" fill="#004394"/><rect width="4.644" height="20.981" transform="translate(137.533 19.048)" fill="#004394"/><path d="M54.538,11.471h5.578V28.806H65.55V11.471h5.576V9.246H54.538Zm50.036,6.365,7.088-8.589h-3.252l-5.424,6.565-3.653-4.656,0,0c-.5-.642-1.206-1.9-4.463-1.9H91.329L99.65,19.852l-7.4,8.953H95.5l5.73-6.927,3.945,5.03c.495.635,1.2,1.894,4.463,1.9h3.544Zm-24.834,7.7v-6.01h7.6V17.276h-7.6V12.52a1.191,1.191,0,0,1,1.293-1.05h7.68L87.035,9.246h-9.8a2.821,2.821,0,0,0-2.919,2.717V26.1a2.819,2.819,0,0,0,2.919,2.709H89.29v-2.22H81.034a1.188,1.188,0,0,1-1.293-1.047M17.7,9.246H14.348L5.532,19.015,11.5,26.909c.48.635,1.288,1.894,4.323,1.9h3.544l-8.833-11.6ZM0,28.806H5.428V9.246H0Zm48.408-8.444-.35.35-.27-.142L40.8,10.79a4.114,4.114,0,0,0-3.5-2c-2.763-.039-3.571,1.744-3.571,3.551V28.806h2.63V14.6l.355-.345.285.13,10.061,13.5a2.725,2.725,0,0,0,1.81,1.078c2.036.176,2.171-1.139,2.171-2.222V9.246h-2.63Zm-25.84,8.444H28V9.246H22.568Z" transform="translate(0 12.417)" fill="#1f6bb4"/><path d="M117.679,21.171c-1.177,2.584-2.779,4.5-4.152,4.029s-1.489-2.97-.815-5.73c.77-3.163,2.782-4.5,4.152-4.029s2.138,2.823.815,5.73" transform="translate(158.66 21.683)" fill="#003e7b"/><path d="M70.25,10.319H64.915L57.209,17.9,69.9,30.376h5.448L62.37,17.9Z" transform="translate(85.818 14.578)" fill="#004394"/></g></g><g transform="translate(257.635 26.103)"><g clip-path="url(#c)"><path d="M108.651,13.966l16.684-5.375L121.926,39.14l-16.684,5.375Z" transform="translate(-108.963 -13.967)" fill="url(#d)"/></g></g><g transform="translate(269 14.476)"><g clip-path="url(#e)"><path d="M114.795,13.277,153.37.849l-5.635,50.5L109.159,63.772Z" transform="translate(-114.795 -13.277)" fill="url(#f)"/></g></g><g transform="translate(0 0)"><g clip-path="url(#b)"><path d="M103.687,24.079c9.875.456,43.271.13,58.814-23.466.386-.589.842-1.078.2.138-3.713,7.028-19.227,30.325-59.093,23.632-.9-.15-1.713-.386.077-.3" transform="translate(144.969 0)" fill="#c7c9cb"/><path d="M146.384,19.722H129.592a.763.763,0,1,1,0-1.525h7.494V16.634H132.9a1.205,1.205,0,0,1-.864-.321,1.107,1.107,0,0,1-.343-.835V11.114l-.849-.145a.5.5,0,0,1-.376-.54c0-.285.154-.437.461-.437h13.593a.817.817,0,0,1,.63.263.864.864,0,0,1,.239.618c0,.528-.287.806-.869.806H134.391v3.383H144.7a.7.7,0,0,1,.794.784.7.7,0,0,1-.794.789h-4.9V18.2h6.579a.685.685,0,0,1,.787.762c0,.511-.261.762-.787.762m-2.594,4.987a3.231,3.231,0,0,1-1.7,2.861,6.917,6.917,0,0,1-3.735.936,7.346,7.346,0,0,1-3.882-.972,3.153,3.153,0,0,1-1.742-2.825,3.271,3.271,0,0,1,1.617-2.869,7.06,7.06,0,0,1,3.3-.946q0-.793.75-.794.72,0,.721.794a5.876,5.876,0,0,1,3.18.994,3.25,3.25,0,0,1,1.493,2.82m-2.637-.106a1.978,1.978,0,0,0-.893-1.7,3.814,3.814,0,0,0-3.942.027A1.93,1.93,0,0,0,135.4,24.6a1.977,1.977,0,0,0,.9,1.723,3.12,3.12,0,0,0,1.928.579,3.369,3.369,0,0,0,2.012-.579,1.991,1.991,0,0,0,.914-1.723" transform="translate(181.963 14.116)" fill="#003e7b"/><path d="M148.523,18.587a1.035,1.035,0,0,1-1.185,1.16h-7.448c-.8,0-1.2-.384-1.2-1.16V11.861l-.958-.116a.532.532,0,0,1-.495-.6c0-.35.164-.521.495-.521h2.929a.515.515,0,0,1,.584.579v2.285h4.6V11.62l-1.081-.068c-.331-.01-.5-.2-.5-.581,0-.345.166-.514.5-.514h3.158c.4,0,.6.188.6.579Zm6.041,9.547H142.986a1.165,1.165,0,0,1-.852-.318,1.119,1.119,0,0,1-.338-.84V23.007l-1.387-.186a.549.549,0,0,1-.536-.62.473.473,0,0,1,.536-.538h3.4c.405,0,.608.188.608.579v4.422h10.148c.485,0,.729.253.729.767q0,.7-.729.7m-8.717-13.139h-4.6V18.3h4.6Zm10.671,1.624H153.9v4.234c0,1.37-.4,2.051-1.2,2.051h-1.469V10.888l-1.4-.118a.52.52,0,0,1-.205-.381.559.559,0,0,1,.217-.427.764.764,0,0,1,.49-.193h3.026a.809.809,0,0,1,.543.77v4.627h2.618c.5,0,.748.232.748.7a.663.663,0,0,1-.748.75" transform="translate(193.87 13.801)" fill="#003e7b"/><path d="M157.555,19.324l-3.749-4.649a12.159,12.159,0,0,1-5.916,4.418,4.569,4.569,0,0,1-1.433.275c-.567,0-.849-.128-.849-.376,0-.306.405-.557,1.221-.75q2.826-1.328,5.544-5.58a2.231,2.231,0,0,0,.292-.869c0-.3-.2-.449-.581-.485-.268-.051-.393-.186-.393-.41,0-.376.227-.565.683-.565H155.3a.652.652,0,0,1,.557.671,3.094,3.094,0,0,1-.538,1.407c-.249.415-.5.828-.743,1.223l4.731,3.592a.667.667,0,0,1,.434.63,1.494,1.494,0,0,1-.574,1.064,1.708,1.708,0,0,1-1.173.524.794.794,0,0,1-.439-.118m5.132,5.542A3.489,3.489,0,0,1,161,27.809a6.442,6.442,0,0,1-3.609.977,6.59,6.59,0,0,1-3.653-.977,3.536,3.536,0,0,1-1.727-2.943,3.407,3.407,0,0,1,1.481-2.989,6.6,6.6,0,0,1,3.3-1.211c0-.618.253-.934.762-.934.531,0,.794.316.794.934a5.757,5.757,0,0,1,3.009,1.3,3.562,3.562,0,0,1,1.329,2.9m-2.553-.092a2.464,2.464,0,0,0-.854-1.986,2.853,2.853,0,0,0-3.687-.024,2.557,2.557,0,0,0-.835,2.01,2.166,2.166,0,0,0,.808,1.79,2.838,2.838,0,0,0,1.8.579,2.964,2.964,0,0,0,1.889-.6,2.12,2.12,0,0,0,.873-1.771m3.279-6.427c0,1.356-.4,2.034-1.2,2.034h-1.438v-5.3h-2.9c-.54,0-.815-.246-.815-.741s.275-.748.815-.748h2.987v-2.76l-1.392-.106a.371.371,0,0,1-.162-.311.582.582,0,0,1,.277-.475.761.761,0,0,1,.613-.147h2.615a.635.635,0,0,1,.6.707Z" transform="translate(205.694 13.817)" fill="#003e7b"/><path d="M166.844,16.739a.712.712,0,0,1,.331.639,2.016,2.016,0,0,1-.528,1.276,1.5,1.5,0,0,1-1.134.644.8.8,0,0,1-.514-.193L162.5,15.68a17.039,17.039,0,0,1-6.806,3.887,3.505,3.505,0,0,1-1.018.166c-.471,0-.7-.113-.7-.338,0-.29.391-.552,1.182-.806a16.892,16.892,0,0,0,7.035-6.456h-6.082c-.526,0-.787-.249-.787-.746a.686.686,0,0,1,.787-.767h8.818c.444,0,.663.181.663.538q0,1.078-2.1,3.53Zm3.653,8.143a3.484,3.484,0,0,1-1.7,2.943,7.235,7.235,0,0,1-7.262,0,3.539,3.539,0,0,1-1.725-2.943,3.445,3.445,0,0,1,1.411-2.972,6.432,6.432,0,0,1,3.194-1.228v-.347c0-.47.258-.712.77-.712s.77.241.77.712v.347a6.223,6.223,0,0,1,3.134,1.269,3.487,3.487,0,0,1,1.411,2.931m-2.579-.092a2.49,2.49,0,0,0-.828-1.986,2.883,2.883,0,0,0-3.691,0,2.514,2.514,0,0,0-.854,1.986,2.179,2.179,0,0,0,.832,1.79,2.881,2.881,0,0,0,1.826.579,2.953,2.953,0,0,0,1.872-.6,2.106,2.106,0,0,0,.842-1.771m5.274-9.166h-2.405v2.9q0,2.092-1.2,2.094H168.11V10.934l-1.392-.087a.43.43,0,0,1-.227-.372.648.648,0,0,1,.246-.478.819.819,0,0,1,.543-.229h2.965a.812.812,0,0,1,.54.774v3.648h2.405c.5,0,.75.234.75.707a.653.653,0,0,1-.75.726" transform="translate(217.518 13.801)" fill="#003e7b"/><path d="M179.374,26.829c0,1.464-.405,2.2-1.2,2.2H176.7V21.241a2.582,2.582,0,0,1-1.433.352h-4.355v4.531q0,2.218-1.2,2.217h-1.435V21.593h-5.127a.686.686,0,0,1-.789-.767c0-.495.261-.743.789-.743h12.119a3.75,3.75,0,0,0,1.433-.311V11.139l-1.39-.121a.5.5,0,0,1-.205-.381.55.55,0,0,1,.215-.429.722.722,0,0,1,.487-.193h2.968a.8.8,0,0,1,.6.767Zm-4.543-12.1a3.935,3.935,0,0,1-1.723,3.257,6.144,6.144,0,0,1-3.658,1.081,5.839,5.839,0,0,1-3.588-1.081,3.934,3.934,0,0,1-1.7-3.257,3.455,3.455,0,0,1,1.45-2.987,6.867,6.867,0,0,1,3.262-1.187.777.777,0,0,1,.806-.929c.514,0,.767.236.767.724a1.115,1.115,0,0,1-.019.205,5.912,5.912,0,0,1,3.047,1.271,3.546,3.546,0,0,1,1.354,2.9m-2.555-.106a2.569,2.569,0,0,0-.852-2.034,3.064,3.064,0,0,0-3.839.019,2.539,2.539,0,0,0-.871,2.015,2.689,2.689,0,0,0,.893,2.121,2.8,2.8,0,0,0,1.93.7,2.662,2.662,0,0,0,2.738-2.825" transform="translate(229.353 13.596)" fill="#003e7b"/><path d="M187.793,22.116c0,1.747-.4,2.613-1.2,2.613h-1.472V22.051h-3.182a.588.588,0,0,1-.664-.666.6.6,0,0,1,.664-.683h3.182V18.922a2.633,2.633,0,0,1-1.433.328h-4.548v1.773c0,.69-.391,1.028-1.182,1.028h-1.308v-2.8H171.5c-.468,0-.7-.21-.7-.644,0-.5.236-.748.7-.748h12.189a4.156,4.156,0,0,0,1.433-.265V11.2l-1.395-.121a.5.5,0,0,1-.205-.381.57.57,0,0,1,.212-.429.727.727,0,0,1,.49-.193h2.97a.8.8,0,0,1,.6.767Zm-4.586-8.2a3.146,3.146,0,0,1-1.7,2.743,7,7,0,0,1-3.7.934,6.726,6.726,0,0,1-3.612-.914,3.12,3.12,0,0,1-1.616-2.763c0-2.2,1.486-3.358,4.463-3.489,0-.562.246-.847.748-.847s.762.285.762.847a5.356,5.356,0,0,1,3.2.832,2.993,2.993,0,0,1,1.452,2.656M188.292,28.4H176a1.218,1.218,0,0,1-.864-.318,1.1,1.1,0,0,1-.343-.84v-3.38l-1.013-.109a.65.65,0,0,1-.56-.666c0-.333.188-.5.56-.5h3.052a.525.525,0,0,1,.6.579v3.761h10.857c.48,0,.724.253.724.767a.631.631,0,0,1-.724.7m-7.535-14.524a1.877,1.877,0,0,0-.893-1.638,3.343,3.343,0,0,0-1.949-.543,3.436,3.436,0,0,0-1.971.543,1.858,1.858,0,0,0-.917,1.638,1.93,1.93,0,0,0,.917,1.679,3.32,3.32,0,0,0,1.99.579,3.252,3.252,0,0,0,1.93-.562,1.95,1.95,0,0,0,.893-1.7" transform="translate(241.274 13.534)" fill="#003e7b"/><path d="M196.221,26.733q0,2.2-1.2,2.2h-1.472V22.539a2.6,2.6,0,0,1-1.436.35H179.926a.623.623,0,0,1-.507-.229.756.756,0,0,1-.2-.514c0-.429.234-.649.712-.649h4.871V20.144a4.42,4.42,0,0,1-2.69-1.38,3.476,3.476,0,0,1,1.093-5.482h-2.553c-.5,0-.753-.232-.753-.7s.251-.724.753-.724h3.981V10.807l-.519-.118a.524.524,0,0,1-.454-.562c0-.287.15-.434.454-.434h2.68a.511.511,0,0,1,.579.579v1.583h4.13c.5,0,.748.234.748.7a.652.652,0,0,1-.748.726H189a3.311,3.311,0,0,1,1.974,2.987,3.717,3.717,0,0,1-1,2.495,4.516,4.516,0,0,1-2.586,1.452V21.5h4.741a3.663,3.663,0,0,0,1.426-.306V11.082l-1.395-.164a.56.56,0,0,1-.205-.393.581.581,0,0,1,.217-.446.724.724,0,0,1,.49-.2.57.57,0,0,1,.224.039h2.743a.8.8,0,0,1,.6.77Zm-7.928-10.464a2.6,2.6,0,0,0-.707-1.928,2.12,2.12,0,0,0-1.559-.642,2.159,2.159,0,0,0-1.578.642,2.621,2.621,0,0,0-.7,1.928,2.618,2.618,0,0,0,.721,1.93,2.216,2.216,0,0,0,1.6.642,2.085,2.085,0,0,0,1.537-.62,2.738,2.738,0,0,0,.685-1.952" transform="translate(253.184 13.692)" fill="#003e7b"/></g></g></g></g></svg>