<svg xmlns="http://www.w3.org/2000/svg" xmlns:xlink="http://www.w3.org/1999/xlink" width="297" height="34" viewBox="0 0 297 34"><defs><clipPath id="a"><rect width="297" height="34" transform="translate(0 0.438)" fill="red"/></clipPath><clipPath id="b"><rect width="297" height="34.724" fill="none"/></clipPath><clipPath id="c"><path d="M110.387,11.023a7.418,7.418,0,0,0-.818.515,6.863,6.863,0,0,0-2.631,4.673,12.055,12.055,0,0,0,.526,5.829c1.272,3.812,4.1,5.415,6.831,5.121a3.439,3.439,0,0,1-.7-1.754c-.309-2.948,1.043-7.636,1.311-10.771.171-2.038.446-2.876-.419-3.819-1.312.124-2.668.2-4.1.2" transform="translate(-106.784 -10.819)" fill="none"/></clipPath><linearGradient id="d" x1="-12.637" y1="0.889" x2="-12.517" y2="0.889" gradientUnits="objectBoundingBox"><stop offset="0" stop-color="#a4c422"/><stop offset="1" stop-color="#33a437"/></linearGradient><clipPath id="e"><path d="M126.229,9.117a6.116,6.116,0,0,0-.4,1.038c-.762,2.7-.917,5.109-2.007,7.859-1.685,4.24-6.292,11.367-12.33,12.013a3.81,3.81,0,0,0,3.073,1.13h0a13.4,13.4,0,0,0,5.267-1.293c6.121-2.79,11.244-10.083,12.569-17.85.34-1.991.859-5.789-1.807-6.014a30.918,30.918,0,0,1-4.369,3.117" transform="translate(-111.495 -6)" fill="none"/></clipPath><linearGradient id="f" x1="-5.957" y1="0.803" x2="-5.902" y2="0.803" gradientUnits="objectBoundingBox"><stop offset="0" stop-color="#28bef3"/><stop offset="1" stop-color="#0079c7"/></linearGradient></defs><g transform="translate(0 -0.438)"><g clip-path="url(#a)"><g clip-path="url(#b)"><path d="M70.565,10.223c-4.345,0-7.151,2.022-7.151,5.168s2.806,5.169,7.151,5.169,7.158-2.017,7.158-5.169-2.808-5.168-7.158-5.168m0,8.725h-.037c-2.4,0-3.857-1.349-3.857-3.557s1.457-3.522,3.857-3.522h.037c2.4,0,3.859,1.315,3.859,3.522s-1.457,3.557-3.859,3.557" transform="translate(41.001 6.077)" fill="#004394"/><path d="M78.871,7.9H75.759v3.859h-2.62v1.491h2.62v5.51c0,1.94,1.387,3,3.934,3h3.069V20.3h-1.2c-1.987,0-2.695-.674-2.695-2.433V13.248h3.89V11.758h-3.89Z" transform="translate(46.783 4.696)" fill="#004394"/><path d="M94.721,10.319H88.8v1.569H94.05c1.572.077,2.919.415,2.919,2.065v.555H93.186c-3.78,0-5.316.9-5.316,3.074,0,1.763,1.456,2.736,4.045,2.736H100.2V13.981c0-2.428-1.84-3.662-5.475-3.662M97,18.814H93.451c-1.091,0-2.322,0-2.322-1.309,0-1.422,1.311-1.534,2.58-1.534H97Z" transform="translate(55.54 6.135)" fill="#004394"/><path d="M84.431,10.319c-2.734,0-3.634.6-3.634,2.395v7.6h3.111V13.275c0-1.387,2.06-1.387,3-1.387h3.631l1.645-1.569Z" transform="translate(51.335 6.135)" fill="#004394"/><rect width="3.069" height="13.865" transform="translate(90.891 12.588)" fill="#004394"/><path d="M36.043,10.562h3.686V22.018H43.32V10.562H47V9.092H36.043ZM69.11,14.768l4.685-5.676H71.645L68.061,13.43l-2.414-3.077,0,0c-.328-.424-.8-1.253-2.95-1.258H60.357l5.5,7.009-4.893,5.917h2.153L66.9,17.44l2.607,3.324c.327.419.8,1.252,2.95,1.253H74.8ZM52.7,19.859V15.887h5.023V14.4H52.7V11.255a.787.787,0,0,1,.855-.694h5.075l-1.11-1.47H51.04a1.864,1.864,0,0,0-1.929,1.8v9.34a1.863,1.863,0,0,0,1.929,1.791h7.969V20.551H53.553a.785.785,0,0,1-.855-.692M11.7,9.092H9.482L3.656,15.547,7.6,20.765c.317.419.851,1.252,2.857,1.253H12.8L6.965,14.352ZM0,22.018H3.588V9.092H0Zm31.991-5.581-.231.231-.179-.094-4.619-6.462A2.719,2.719,0,0,0,24.649,8.79a2.109,2.109,0,0,0-2.36,2.347V22.018h1.738V12.626l.234-.228.188.086L31.1,21.4a1.8,1.8,0,0,0,1.2.713c1.346.116,1.435-.753,1.435-1.468V9.092H31.991ZM14.915,22.018H18.5V9.092H14.915Z" transform="translate(0 5.225)" fill="#1f6bb4"/><path d="M115.859,19.2c-.778,1.708-1.837,2.972-2.744,2.663s-.984-1.963-.539-3.787c.509-2.09,1.838-2.974,2.744-2.663s1.413,1.866.539,3.787" transform="translate(66.765 9.125)" fill="#003e7b"/><path d="M65.827,10.319H62.3l-5.093,5.013,8.39,8.242h3.6l-8.58-8.242Z" transform="translate(37.313 6.135)" fill="#004394"/></g><g transform="translate(170.263 17.251)"><g clip-path="url(#c)"><path d="M107.495,12.143l11.026-3.552L116.268,28.78l-11.026,3.552Z" transform="translate(-107.701 -12.144)" fill="url(#d)"/></g></g><g transform="translate(177.774 9.567)"><g clip-path="url(#e)"><path d="M112.883,9.062,138.377.849l-3.724,33.371-25.493,8.214Z" transform="translate(-112.883 -9.062)" fill="url(#f)"/></g></g><g clip-path="url(#b)"><path d="M103.326,15.913c6.526.3,28.6.086,38.868-15.508.255-.389.556-.713.134.091-2.454,4.645-12.706,20.041-39.053,15.618-.6-.1-1.132-.255.051-.2" transform="translate(61.004 0)" fill="#c7c9cb"/><path d="M140.424,16.422h-11.1a.5.5,0,1,1,0-1.008h4.952V14.382h-2.77a.8.8,0,0,1-.571-.212.732.732,0,0,1-.226-.552V10.733l-.561-.1a.328.328,0,0,1-.249-.357c0-.188.1-.289.3-.289h8.983a.54.54,0,0,1,.416.174.571.571,0,0,1,.158.408c0,.349-.19.533-.574.533H132.5v2.235h6.813a.52.52,0,1,1,0,1.04h-3.235v1.033h4.348a.453.453,0,0,1,.52.5c0,.338-.172.5-.52.5m-1.714,3.3a2.135,2.135,0,0,1-1.126,1.891,4.571,4.571,0,0,1-2.468.619,4.855,4.855,0,0,1-2.565-.643,2.084,2.084,0,0,1-1.151-1.867,2.161,2.161,0,0,1,1.068-1.9,4.666,4.666,0,0,1,2.181-.625q0-.524.5-.525.476,0,.477.525a3.883,3.883,0,0,1,2.1.657,2.148,2.148,0,0,1,.987,1.864m-1.743-.07a1.307,1.307,0,0,0-.59-1.124,2.521,2.521,0,0,0-2.605.018,1.276,1.276,0,0,0-.6,1.107,1.307,1.307,0,0,0,.592,1.138,2.062,2.062,0,0,0,1.274.383,2.226,2.226,0,0,0,1.33-.383,1.316,1.316,0,0,0,.6-1.138" transform="translate(76.571 5.94)" fill="#003e7b"/><path d="M144.7,15.6a.684.684,0,0,1-.783.767h-4.922c-.531,0-.794-.254-.794-.767V11.151l-.633-.077a.352.352,0,0,1-.327-.4c0-.231.108-.344.327-.344H139.5a.34.34,0,0,1,.386.383v1.51h3.042V10.992l-.714-.045c-.218-.006-.328-.134-.328-.384,0-.228.11-.34.328-.34H144.3c.263,0,.4.124.4.383Zm3.993,6.309h-7.652a.77.77,0,0,1-.563-.21.74.74,0,0,1-.223-.555V18.518l-.917-.123a.363.363,0,0,1-.354-.41.313.313,0,0,1,.354-.356h2.247c.268,0,.4.124.4.383v2.923h6.706c.32,0,.481.167.481.507,0,.309-.161.464-.481.464m-5.761-8.683h-3.042v2.186h3.042ZM149.98,14.3h-1.73v2.8c0,.906-.263,1.355-.8,1.355h-.971v-7.94l-.923-.078a.344.344,0,0,1-.136-.252.37.37,0,0,1,.144-.282.505.505,0,0,1,.324-.128h2a.535.535,0,0,1,.359.509v3.058h1.73c.328,0,.494.153.494.464a.438.438,0,0,1-.494.5" transform="translate(81.582 5.808)" fill="#003e7b"/><path d="M153.5,16.087l-2.478-3.073a8.035,8.035,0,0,1-3.91,2.919,3.02,3.02,0,0,1-.947.182c-.375,0-.561-.085-.561-.249,0-.2.268-.368.807-.5a9.6,9.6,0,0,0,3.664-3.688,1.474,1.474,0,0,0,.193-.574c0-.2-.129-.3-.384-.32-.177-.033-.26-.123-.26-.271,0-.249.15-.373.451-.373h1.934a.431.431,0,0,1,.368.443,2.045,2.045,0,0,1-.356.93c-.164.274-.328.547-.491.808L154.66,14.7a.44.44,0,0,1,.287.416.987.987,0,0,1-.379.7,1.129,1.129,0,0,1-.775.346.525.525,0,0,1-.29-.078m3.391,3.662a2.306,2.306,0,0,1-1.111,1.945,4.257,4.257,0,0,1-2.385.646,4.355,4.355,0,0,1-2.414-.646,2.337,2.337,0,0,1-1.142-1.945,2.252,2.252,0,0,1,.979-1.976,4.361,4.361,0,0,1,2.178-.8c0-.408.167-.617.5-.617s.525.209.525.617a3.8,3.8,0,0,1,1.988.856,2.354,2.354,0,0,1,.879,1.92m-1.687-.061a1.628,1.628,0,0,0-.564-1.312,1.885,1.885,0,0,0-2.436-.016,1.69,1.69,0,0,0-.552,1.328,1.431,1.431,0,0,0,.534,1.183,1.875,1.875,0,0,0,1.193.383,1.959,1.959,0,0,0,1.248-.4,1.4,1.4,0,0,0,.577-1.17m2.167-4.248c0,.9-.266,1.344-.792,1.344h-.95v-3.5h-1.918c-.357,0-.539-.163-.539-.489s.182-.494.539-.494h1.974V10.476l-.92-.07a.245.245,0,0,1-.107-.206.384.384,0,0,1,.183-.314.5.5,0,0,1,.4-.1h1.728a.42.42,0,0,1,.4.467Z" transform="translate(86.557 5.814)" fill="#003e7b"/><path d="M162.48,14.375a.47.47,0,0,1,.218.423,1.332,1.332,0,0,1-.349.843.991.991,0,0,1-.749.426.528.528,0,0,1-.34-.128l-1.649-2.264a11.261,11.261,0,0,1-4.5,2.569,2.317,2.317,0,0,1-.673.11c-.311,0-.464-.075-.464-.223,0-.191.258-.365.781-.533a11.163,11.163,0,0,0,4.649-4.267h-4.02c-.348,0-.52-.164-.52-.493a.453.453,0,0,1,.52-.507h5.828c.293,0,.438.12.438.356a4.77,4.77,0,0,1-1.386,2.333Zm2.414,5.381a2.3,2.3,0,0,1-1.126,1.945,4.781,4.781,0,0,1-4.8,0,2.339,2.339,0,0,1-1.14-1.945,2.277,2.277,0,0,1,.933-1.964,4.251,4.251,0,0,1,2.111-.812v-.23c0-.311.171-.47.509-.47s.509.159.509.47v.23a4.113,4.113,0,0,1,2.071.839,2.3,2.3,0,0,1,.933,1.937m-1.7-.061a1.645,1.645,0,0,0-.547-1.312,1.905,1.905,0,0,0-2.44,0,1.661,1.661,0,0,0-.564,1.312,1.44,1.44,0,0,0,.55,1.183,1.9,1.9,0,0,0,1.207.383,1.952,1.952,0,0,0,1.237-.4,1.392,1.392,0,0,0,.556-1.17m3.485-6.057h-1.59v1.918q0,1.382-.794,1.384h-.974v-6.4l-.92-.057a.284.284,0,0,1-.15-.246.428.428,0,0,1,.163-.316.541.541,0,0,1,.359-.151h1.96a.537.537,0,0,1,.357.512v2.411h1.59c.333,0,.5.155.5.467a.431.431,0,0,1-.5.48" transform="translate(91.533 5.808)" fill="#003e7b"/><path d="M173.6,20.994c0,.968-.268,1.453-.8,1.453h-.974V17.3a1.706,1.706,0,0,1-.947.233h-2.878v2.994q0,1.466-.794,1.465h-.949v-4.46h-3.388a.453.453,0,0,1-.521-.507c0-.327.172-.491.521-.491h8.009a2.478,2.478,0,0,0,.947-.206v-5.7l-.918-.08a.331.331,0,0,1-.136-.252.363.363,0,0,1,.142-.284.477.477,0,0,1,.322-.128H173.2a.527.527,0,0,1,.4.507Zm-3-8a2.6,2.6,0,0,1-1.138,2.153,4.06,4.06,0,0,1-2.417.714,3.859,3.859,0,0,1-2.371-.714A2.6,2.6,0,0,1,163.551,13a2.283,2.283,0,0,1,.958-1.974,4.538,4.538,0,0,1,2.156-.784.513.513,0,0,1,.533-.614c.34,0,.507.156.507.478a.736.736,0,0,1-.013.136,3.907,3.907,0,0,1,2.014.84A2.343,2.343,0,0,1,170.6,13m-1.689-.07a1.7,1.7,0,0,0-.563-1.344,2.025,2.025,0,0,0-2.537.013,1.678,1.678,0,0,0-.576,1.331,1.777,1.777,0,0,0,.59,1.4,1.85,1.85,0,0,0,1.276.466,1.759,1.759,0,0,0,1.81-1.867" transform="translate(96.513 5.721)" fill="#003e7b"/><path d="M182.028,17.865c0,1.154-.263,1.727-.794,1.727h-.973v-1.77h-2.1a.388.388,0,0,1-.438-.44.4.4,0,0,1,.438-.451h2.1V15.754a1.74,1.74,0,0,1-.947.217h-3.006v1.172c0,.456-.258.679-.781.679h-.864V15.971h-3.4c-.309,0-.466-.139-.466-.426,0-.33.156-.494.466-.494h8.055a2.746,2.746,0,0,0,.947-.175V10.651l-.922-.08a.331.331,0,0,1-.136-.252.377.377,0,0,1,.14-.284.481.481,0,0,1,.324-.128h1.963a.525.525,0,0,1,.4.507ZM179,12.445a2.079,2.079,0,0,1-1.123,1.813,4.623,4.623,0,0,1-2.444.617,4.445,4.445,0,0,1-2.387-.6,2.062,2.062,0,0,1-1.068-1.826c0-1.454.982-2.219,2.95-2.306,0-.372.163-.56.494-.56s.5.188.5.56a3.539,3.539,0,0,1,2.114.55,1.978,1.978,0,0,1,.96,1.755m3.361,9.573h-8.121a.805.805,0,0,1-.571-.21.725.725,0,0,1-.226-.555V19.019l-.67-.072a.43.43,0,0,1-.37-.44c0-.22.124-.328.37-.328h2.017a.347.347,0,0,1,.4.383v2.486h7.175c.317,0,.478.167.478.507a.417.417,0,0,1-.478.464m-4.979-9.6a1.24,1.24,0,0,0-.59-1.083,2.21,2.21,0,0,0-1.288-.359,2.271,2.271,0,0,0-1.3.359,1.228,1.228,0,0,0-.606,1.083,1.275,1.275,0,0,0,.606,1.11,2.194,2.194,0,0,0,1.315.383,2.149,2.149,0,0,0,1.276-.372,1.289,1.289,0,0,0,.59-1.121" transform="translate(101.53 5.695)" fill="#003e7b"/><path d="M190.457,20.954q0,1.452-.8,1.453h-.973V18.182a1.717,1.717,0,0,1-.949.231h-8.052a.412.412,0,0,1-.335-.151.5.5,0,0,1-.129-.34c0-.284.155-.429.47-.429h3.219V16.6a2.921,2.921,0,0,1-1.778-.912,2.3,2.3,0,0,1,.722-3.623h-1.687c-.332,0-.5-.153-.5-.466s.166-.478.5-.478H182.8v-.692l-.343-.078a.346.346,0,0,1-.3-.372c0-.19.1-.287.3-.287h1.771a.338.338,0,0,1,.383.383v1.046h2.73c.328,0,.494.155.494.464a.431.431,0,0,1-.494.48h-1.661a2.188,2.188,0,0,1,1.3,1.974,2.456,2.456,0,0,1-.663,1.649,2.985,2.985,0,0,1-1.709.96v.847h3.133a2.421,2.421,0,0,0,.942-.2V10.61l-.922-.108a.37.37,0,0,1-.136-.26.384.384,0,0,1,.143-.295.478.478,0,0,1,.324-.131.377.377,0,0,1,.148.026h1.813a.531.531,0,0,1,.4.509Zm-5.239-6.915a1.721,1.721,0,0,0-.467-1.274,1.4,1.4,0,0,0-1.03-.424,1.427,1.427,0,0,0-1.043.424,1.732,1.732,0,0,0-.464,1.274,1.73,1.73,0,0,0,.477,1.276,1.465,1.465,0,0,0,1.059.424,1.378,1.378,0,0,0,1.016-.41,1.81,1.81,0,0,0,.453-1.29" transform="translate(106.541 5.762)" fill="#003e7b"/></g></g></g></svg>