<svg xmlns="http://www.w3.org/2000/svg" xmlns:xlink="http://www.w3.org/1999/xlink" width="113" height="64" viewBox="0 0 113 64"><defs><clipPath id="a"><rect width="113" height="64" transform="translate(590 2331)" fill="red" opacity="0.5"/></clipPath></defs><g transform="translate(-590 -2331)" clip-path="url(#a)"><path d="M54.538,11.471h5.578V28.806H65.55V11.471h5.576V9.246H54.538Zm50.036,6.365,7.088-8.589h-3.252l-5.424,6.565-3.653-4.656,0,0c-.5-.642-1.206-1.9-4.463-1.9H91.329L99.65,19.852l-7.4,8.953H95.5l5.73-6.927,3.945,5.03c.495.635,1.2,1.894,4.463,1.9h3.544Zm-24.834,7.7v-6.01h7.6V17.276h-7.6V12.52a1.191,1.191,0,0,1,1.293-1.05h7.68L87.035,9.246h-9.8a2.821,2.821,0,0,0-2.919,2.717V26.1a2.819,2.819,0,0,0,2.919,2.709H89.29v-2.22H81.034a1.188,1.188,0,0,1-1.293-1.047M17.7,9.246H14.348L5.532,19.015,11.5,26.909c.48.635,1.288,1.894,4.323,1.9h3.544l-8.833-11.6ZM0,28.806H5.428V9.246H0Zm48.408-8.444-.35.35-.27-.142L40.8,10.79a4.114,4.114,0,0,0-3.5-2c-2.763-.039-3.571,1.744-3.571,3.551V28.806h2.63V14.6l.355-.345.285.13,10.061,13.5a2.725,2.725,0,0,0,1.81,1.078c2.036.176,2.171-1.139,2.171-2.222V9.246h-2.63Zm-25.84,8.444H28V9.246H22.568Z" transform="translate(590 2344.417)" fill="#1f6bb4"/></g></svg>