<svg xmlns="http://www.w3.org/2000/svg" xmlns:xlink="http://www.w3.org/1999/xlink" width="297" height="34" viewBox="0 0 297 34"><defs><clipPath id="a"><rect width="297" height="34" transform="translate(1 -2.276)" fill="red"/></clipPath></defs><g transform="translate(-1 2.276)"><g clip-path="url(#a)"><path d="M36.043,10.562h3.686V22.018H43.32V10.562H47V9.092H36.043ZM69.11,14.768l4.685-5.676H71.645L68.061,13.43l-2.414-3.077,0,0c-.328-.424-.8-1.253-2.95-1.258H60.357l5.5,7.009-4.893,5.917h2.153L66.9,17.44l2.607,3.324c.327.419.8,1.252,2.95,1.253H74.8ZM52.7,19.859V15.887h5.023V14.4H52.7V11.255a.787.787,0,0,1,.855-.694h5.075l-1.11-1.47H51.04a1.864,1.864,0,0,0-1.929,1.8v9.34a1.863,1.863,0,0,0,1.929,1.791h7.969V20.551H53.553a.785.785,0,0,1-.855-.692M11.7,9.092H9.482L3.656,15.547,7.6,20.765c.317.419.851,1.252,2.857,1.253H12.8L6.965,14.352ZM0,22.018H3.588V9.092H0Zm31.991-5.581-.231.231-.179-.094-4.619-6.462A2.719,2.719,0,0,0,24.649,8.79a2.109,2.109,0,0,0-2.36,2.347V22.018h1.738V12.626l.234-.228.188.086L31.1,21.4a1.8,1.8,0,0,0,1.2.713c1.346.116,1.435-.753,1.435-1.468V9.092H31.991ZM14.915,22.018H18.5V9.092H14.915Z" transform="translate(1 -0.775)" fill="#1f6bb4"/></g></g></svg>