<svg xmlns="http://www.w3.org/2000/svg" xmlns:xlink="http://www.w3.org/1999/xlink" width="297" height="34" viewBox="0 0 297 34"><defs><clipPath id="a"><rect width="297" height="34" transform="translate(0 -2)" fill="red"/></clipPath><clipPath id="b"><rect width="232.426" height="30.399" fill="none"/></clipPath></defs><g transform="translate(0 2)"><g clip-path="url(#a)"><g clip-path="url(#b)"><path d="M20.7,4.873V3.689H22.57V4.873h2.588v1.46H17.814V4.873Zm4.148,4.782A2.572,2.572,0,0,1,24.6,10.8a3.2,3.2,0,0,1-1.711,1.581,3.192,3.192,0,0,1-1.242.233,3.142,3.142,0,0,1-1.238-.233,3.338,3.338,0,0,1-1.016-.636,3.068,3.068,0,0,1-.7-.945,2.575,2.575,0,0,1-.26-1.148,2.677,2.677,0,0,1,.26-1.161,2.985,2.985,0,0,1,.7-.943A3.21,3.21,0,0,1,20.4,6.9a3.3,3.3,0,0,1,1.238-.233,3.357,3.357,0,0,1,1.242.233A3.284,3.284,0,0,1,24.6,8.494a2.673,2.673,0,0,1,.256,1.161m-1.635-.017a1.572,1.572,0,0,0-2.68-1.1,1.519,1.519,0,0,0-.45,1.1,1.481,1.481,0,0,0,.45,1.086,1.577,1.577,0,0,0,2.215,0,1.455,1.455,0,0,0,.465-1.086m6.193,5.725a2.81,2.81,0,0,1-.277,1.223A3.448,3.448,0,0,1,28.4,17.6a3.54,3.54,0,0,1-1.086.7,3.262,3.262,0,0,1-1.312.262,3.306,3.306,0,0,1-1.323-.262,3.371,3.371,0,0,1-1.824-1.707,2.782,2.782,0,0,1-.28-1.223,2.846,2.846,0,0,1,.28-1.238,3.372,3.372,0,0,1,1.824-1.714,3.338,3.338,0,0,1,1.323-.256,3.294,3.294,0,0,1,1.312.256,3.587,3.587,0,0,1,1.086.7,3.5,3.5,0,0,1,.728,1.016,2.875,2.875,0,0,1,.277,1.238m-1.718-.019a1.695,1.695,0,0,0-2.9-1.18,1.645,1.645,0,0,0-.491,1.18,1.614,1.614,0,0,0,.491,1.176,1.7,1.7,0,0,0,2.394,0,1.588,1.588,0,0,0,.506-1.176m-.034-3.625H26.036V4h1.622v3.06H29.1V3.981h1.686v7.927H29.1V8.652H27.658Z" transform="translate(20.199 4.183)" fill="#464749"/><path d="M24.86,5.74v-1.5h8.1v1.5H29.514l3.593,4.389-1.229,1.005-2.889-3.6-2.866,3.845-1.278-1.037,3.581-4.6Zm11.216,9.206a3.089,3.089,0,0,1-.29,1.34,3.772,3.772,0,0,1-.777,1.095,4.04,4.04,0,0,1-1.176.745,3.746,3.746,0,0,1-1.421.275,3.825,3.825,0,0,1-1.425-.275A3.973,3.973,0,0,1,29.8,17.38a3.82,3.82,0,0,1-.779-1.095,3.094,3.094,0,0,1-.3-1.34,3.147,3.147,0,0,1,.3-1.344,3.717,3.717,0,0,1,.779-1.1,3.826,3.826,0,0,1,2.61-1.018,3.743,3.743,0,0,1,1.421.271,3.917,3.917,0,0,1,1.176.747,3.673,3.673,0,0,1,.777,1.1,3.142,3.142,0,0,1,.29,1.344m-1.718-.013a1.856,1.856,0,0,0-.583-1.37,1.894,1.894,0,0,0-1.376-.578,1.868,1.868,0,0,0-1.372.578,1.9,1.9,0,0,0,0,2.731,1.88,1.88,0,0,0,1.372.565,1.907,1.907,0,0,0,1.376-.565,1.854,1.854,0,0,0,.583-1.361m1.167-3.617V8.25H32.9V6.743h2.627V3.826h1.75v7.49Z" transform="translate(28.171 4.338)" fill="#464749"/><path d="M39.65,7.783a3.626,3.626,0,0,1-.316,1.492,4.063,4.063,0,0,1-.866,1.231,4.226,4.226,0,0,1-1.278.824,3.992,3.992,0,0,1-3.092,0,4.154,4.154,0,0,1-1.274-.824,3.99,3.99,0,0,1-.866-1.231,3.591,3.591,0,0,1-.314-1.492,3.551,3.551,0,0,1,.314-1.494,3.965,3.965,0,0,1,.866-1.231A4.33,4.33,0,0,1,34.1,4.23a4.1,4.1,0,0,1,3.092,0,4.407,4.407,0,0,1,1.278.828,4.037,4.037,0,0,1,.866,1.231,3.586,3.586,0,0,1,.316,1.494m-5.367,5.173v3.16h9.5v1.56H32.534v-4.72ZM37.967,7.8a2.251,2.251,0,0,0-.19-.892,2.534,2.534,0,0,0-.493-.743,2.732,2.732,0,0,0-.743-.5,2.207,2.207,0,0,0-.883-.19,2.32,2.32,0,0,0-.89.19,2.608,2.608,0,0,0-.743.5,2.546,2.546,0,0,0-.5.743,2.21,2.21,0,0,0-.184.892,2.187,2.187,0,0,0,.184.886,2.729,2.729,0,0,0,.5.736,2.408,2.408,0,0,0,.743.491,2.207,2.207,0,0,0,.89.19,2.1,2.1,0,0,0,.883-.19,2.513,2.513,0,0,0,.743-.491,2.714,2.714,0,0,0,.493-.736,2.228,2.228,0,0,0,.19-.886m5.461,5.076H41.673V3.825h1.754V6.906h2.029V8.641H43.427Z" transform="translate(35.88 4.337)" fill="#464749"/><path d="M38.718,5.739V4.23h8.1V5.739H43.385l3.583,5.286-1.327.888L42.851,7.67l-2.787,4.36L38.7,11.123l3.564-5.384Zm.969,11.937v-4.72h1.752v3.16h9.829v1.56Zm9.7-4.8V8.705H46.754V7.152h2.631V3.825h1.75v9.05Z" transform="translate(43.882 4.337)" fill="#464749"/><path d="M45.66,12.631H58.632v1.551H53.02v3.634H51.253V14.183H45.66Zm2.772-6.907h7.426V3.94h1.735v6.8H46.7V3.94h1.735Zm7.426,1.519H48.432v1.95h7.426Z" transform="translate(51.773 4.467)" fill="#464749"/><path d="M30.395,15.2A15.2,15.2,0,1,1,15.2,0a15.2,15.2,0,0,1,15.2,15.2" transform="translate(0 0)" fill="#fff"/><path d="M22.434,13.917a5.21,5.21,0,0,0-7.4,1.551,5.2,5.2,0,0,1-9.408-1.428L5.6,13.984l-.013-.066a6.739,6.739,0,0,1-.271-2.068c0-4.663,4.791-9.861,11.683-9.861a13.151,13.151,0,0,1,12.148,8.363l-.055-.154A14.871,14.871,0,0,0,.156,15.021c0,7.336,5.292,13.616,12.641,13.616a11.921,11.921,0,0,0,11.591-7.808,5.727,5.727,0,0,0-1.955-6.912" transform="translate(0.177 0.177)" fill="#002c52"/><path d="M26.5,9.669A13.113,13.113,0,0,0,14.261,1.016c-6.892,0-11.687,5.2-11.687,9.861a6.683,6.683,0,0,0,.271,2.068,4.242,4.242,0,0,1-.139-1.058c0-4.861,4.867-8.224,9.867-8.224A12.261,12.261,0,0,1,24.835,15.917a13.522,13.522,0,0,1-7.486,12.108v0a14.869,14.869,0,0,0,9.8-13.983A14.737,14.737,0,0,0,26.5,9.669" transform="translate(2.919 1.152)" fill="#e5002b"/><rect width="2.349" height="14.487" transform="translate(213.445 7.932)" fill="#003681"/><path d="M98.608,5.659H95.522q.026-.259.026-.538v-.83H87.584V5.955h5.567c-.149.845-1.184,3.322-6.018,4.75l.632,1.321s5.6-1.071,7.3-4.7h3.544V8.872H94.5v1.667h4.108v2.343a8.84,8.84,0,0,0-3.389-.6c-3.581,0-5.74,1.558-5.74,3.482s2.159,3.482,5.74,3.482,5.734-1.558,5.734-3.48V3.717H98.608ZM95.215,17.585c-2.117,0-3.389-.813-3.389-1.818s1.272-1.816,3.389-1.816,3.393.815,3.393,1.816-1.276,1.818-3.393,1.818" transform="translate(98.799 4.214)" fill="#003681"/><path d="M110.541,11.932H115.1V10.265h-9.2V5.652h9.2V3.985H103.557V10.6a1.33,1.33,0,0,0,1.329,1.332h3.307v3.51h-5.9V17.11h14.143V15.442h-5.9Z" transform="translate(115.989 4.518)" fill="#003681"/><path d="M95.4,5.65h5.514A10.511,10.511,0,0,1,94.788,14l.749,1.477a11.9,11.9,0,0,0,7.929-10.992v-.5H95.4Z" transform="translate(107.478 4.519)" fill="#003681"/><rect width="15.66" height="5.313" transform="translate(146.322 7.934)" fill="#2a8835"/><path d="M82.572,12.631l-14,7.251V14.238L84.23,6.208V9.742a3.11,3.11,0,0,1-1.658,2.889" transform="translate(77.752 7.039)" fill="#003681"/><rect width="16.017" height="5.313" transform="translate(164.223 7.934)" fill="#2a8835"/><rect width="15.661" height="5.313" transform="translate(128.421 7.934)" fill="#2a8835"/><path d="M74.182,12.631l-14,7.251V14.238L75.84,6.208V9.742a3.106,3.106,0,0,1-1.658,2.889" transform="translate(68.239 7.039)" fill="#003681"/><path d="M76.96,8.385V11.11A2.59,2.59,0,0,0,79.553,13.7H92.977V8.385Z" transform="translate(87.263 9.507)" fill="#003681"/></g></g></g></svg>