<svg xmlns="http://www.w3.org/2000/svg" xmlns:xlink="http://www.w3.org/1999/xlink" width="450" height="64" viewBox="0 0 450 64"><defs><clipPath id="a"><rect width="450" height="64" transform="translate(0 -13)" fill="red" opacity="0.5"/></clipPath><clipPath id="b"><rect width="300.155" height="39.258" fill="none"/></clipPath></defs><g transform="translate(0 13)"><g clip-path="url(#a)"><g clip-path="url(#b)"><path d="M21.545,5.218V3.689h2.411V5.218H27.3V7.1H17.814V5.218ZM26.9,11.394a3.321,3.321,0,0,1-.331,1.483,4.137,4.137,0,0,1-2.21,2.042,4.123,4.123,0,0,1-1.6.3,4.057,4.057,0,0,1-1.6-.3,4.311,4.311,0,0,1-1.312-.821,3.961,3.961,0,0,1-.9-1.221,3.325,3.325,0,0,1-.336-1.483,3.457,3.457,0,0,1,.336-1.5,3.855,3.855,0,0,1,.9-1.218,4.145,4.145,0,0,1,1.312-.835,4.264,4.264,0,0,1,1.6-.3,4.335,4.335,0,0,1,1.6.3,4.241,4.241,0,0,1,2.21,2.053,3.452,3.452,0,0,1,.331,1.5m-2.111-.022A2.031,2.031,0,0,0,21.33,9.955a1.961,1.961,0,0,0-.581,1.416,1.912,1.912,0,0,0,.581,1.4,2.036,2.036,0,0,0,2.86,0,1.879,1.879,0,0,0,.6-1.4m8,7.394a3.628,3.628,0,0,1-.358,1.579,4.452,4.452,0,0,1-.94,1.306,4.572,4.572,0,0,1-1.4.9,4.213,4.213,0,0,1-1.695.339,4.269,4.269,0,0,1-1.709-.339,4.353,4.353,0,0,1-2.356-2.2,3.592,3.592,0,0,1-.361-1.579,3.675,3.675,0,0,1,.361-1.6,4.354,4.354,0,0,1,2.356-2.213,4.311,4.311,0,0,1,1.709-.331,4.253,4.253,0,0,1,1.695.331,4.632,4.632,0,0,1,1.4.9,4.514,4.514,0,0,1,.94,1.312,3.712,3.712,0,0,1,.358,1.6m-2.218-.025a2.188,2.188,0,0,0-3.745-1.524,2.124,2.124,0,0,0-.634,1.524,2.084,2.084,0,0,0,.634,1.518,2.2,2.2,0,0,0,3.092,0,2.05,2.05,0,0,0,.653-1.518m-.044-4.682H28.432V4.091h2.094V8.043h1.866V4.067h2.177V14.3H32.392V10.1H30.526Z" transform="translate(31.276 6.476)" fill="#464749"/><path d="M24.864,6.3V4.355H35.328V6.3H30.874l4.641,5.668-1.587,1.3L30.2,8.618l-3.7,4.966-1.651-1.339L29.469,6.3ZM39.348,18.186a3.989,3.989,0,0,1-.375,1.731,4.871,4.871,0,0,1-1,1.414,5.218,5.218,0,0,1-1.518.962,4.838,4.838,0,0,1-1.835.355,4.939,4.939,0,0,1-1.841-.355,5.131,5.131,0,0,1-1.529-.962,4.933,4.933,0,0,1-1.006-1.414,4,4,0,0,1-.383-1.731,4.064,4.064,0,0,1,.383-1.736,4.8,4.8,0,0,1,1.006-1.425,4.941,4.941,0,0,1,3.37-1.314,4.834,4.834,0,0,1,1.835.35,5.058,5.058,0,0,1,1.518.964,4.743,4.743,0,0,1,1,1.425,4.057,4.057,0,0,1,.375,1.736m-2.218-.017a2.4,2.4,0,0,0-.752-1.769,2.446,2.446,0,0,0-1.777-.747,2.412,2.412,0,0,0-1.772.747,2.45,2.45,0,0,0,0,3.527,2.428,2.428,0,0,0,1.772.73,2.463,2.463,0,0,0,1.777-.73,2.394,2.394,0,0,0,.752-1.758M38.637,13.5V9.539H35.245V7.593h3.392V3.826H40.9V13.5Z" transform="translate(43.62 6.717)" fill="#464749"/><path d="M41.983,8.937a4.683,4.683,0,0,1-.408,1.926,5.247,5.247,0,0,1-1.119,1.59,5.457,5.457,0,0,1-1.651,1.064,5.155,5.155,0,0,1-3.993,0,5.365,5.365,0,0,1-1.645-1.064,5.153,5.153,0,0,1-1.119-1.59,4.637,4.637,0,0,1-.405-1.926,4.586,4.586,0,0,1,.405-1.929,5.121,5.121,0,0,1,1.119-1.59,5.591,5.591,0,0,1,1.645-1.069,5.289,5.289,0,0,1,3.993,0,5.691,5.691,0,0,1,1.651,1.069,5.214,5.214,0,0,1,1.119,1.59,4.631,4.631,0,0,1,.408,1.929m-6.931,6.68V19.7H47.318v2.014H32.793v-6.1Zm4.756-6.66A2.907,2.907,0,0,0,39.564,7.8a3.272,3.272,0,0,0-.637-.959,3.528,3.528,0,0,0-.959-.65,2.85,2.85,0,0,0-1.141-.245,3,3,0,0,0-1.149.245,3.368,3.368,0,0,0-.959.65,3.288,3.288,0,0,0-.642.959,2.854,2.854,0,0,0-.237,1.152,2.824,2.824,0,0,0,.237,1.144,3.524,3.524,0,0,0,.642.951,3.109,3.109,0,0,0,.959.634,2.85,2.85,0,0,0,1.149.245,2.717,2.717,0,0,0,1.141-.245,3.245,3.245,0,0,0,.959-.634,3.505,3.505,0,0,0,.637-.951,2.877,2.877,0,0,0,.245-1.144m7.052,6.556H44.6V3.825h2.265V7.8h2.621v2.24H46.861Z" transform="translate(55.557 6.715)" fill="#464749"/><path d="M38.723,6.3V4.349H49.186V6.3H44.75l4.627,6.826-1.714,1.146-3.6-5.478-3.6,5.63L38.7,13.249,43.3,6.3Zm1.251,15.415v-6.1h2.262V19.7H54.929v2.014Zm12.525-6.2V10.127H49.1V8.121h3.4v-4.3h2.26V15.512Z" transform="translate(67.947 6.715)" fill="#464749"/><path d="M45.66,15.164H62.412v2H55.164V21.86H52.883V17.167H45.66Zm3.58-8.92h9.59V3.94h2.24v8.777H47V3.94h2.24Zm9.59,1.962H49.24v2.519h9.59Z" transform="translate(80.165 6.917)" fill="#464749"/><path d="M39.252,19.626A19.626,19.626,0,1,1,19.626,0,19.628,19.628,0,0,1,39.252,19.626" transform="translate(0 0)" fill="#fff"/><path d="M28.925,17.927a6.729,6.729,0,0,0-9.562,2,6.714,6.714,0,0,1-12.15-1.844l-.028-.074-.017-.085a8.7,8.7,0,0,1-.35-2.67c0-6.021,6.187-12.734,15.087-12.734a16.983,16.983,0,0,1,15.688,10.8l-.072-.2A19.2,19.2,0,0,0,.156,19.352c0,9.474,6.834,17.584,16.325,17.584A15.4,15.4,0,0,0,31.45,26.853a7.4,7.4,0,0,0-2.524-8.926" transform="translate(0.274 0.274)" fill="#002c52"/><path d="M33.468,12.19a16.934,16.934,0,0,0-15.8-11.174c-8.9,0-15.093,6.713-15.093,12.734a8.631,8.631,0,0,0,.35,2.67,5.479,5.479,0,0,1-.179-1.367c0-6.277,6.286-10.62,12.742-10.62A15.834,15.834,0,0,1,31.321,20.259a17.463,17.463,0,0,1-9.667,15.636v0A19.2,19.2,0,0,0,34.306,17.839a19.031,19.031,0,0,0-.838-5.649" transform="translate(4.519 1.784)" fill="#e5002b"/><rect width="3.034" height="18.708" transform="translate(275.643 10.243)" fill="#003681"/><path d="M101.951,6.225H97.967Q98,5.89,98,5.53V4.458H87.715V6.608h7.19c-.193,1.091-1.529,4.291-7.771,6.134l.816,1.706s7.228-1.383,9.424-6.068h4.577v2h-5.3v2.152h5.3v3.026a11.416,11.416,0,0,0-4.376-.772c-4.624,0-7.413,2.012-7.413,4.5s2.789,4.5,7.413,4.5,7.4-2.012,7.4-4.495V3.717h-3.029Zm-4.382,15.4c-2.734,0-4.376-1.05-4.376-2.348s1.642-2.345,4.376-2.345,4.382,1.053,4.382,2.345-1.648,2.348-4.382,2.348" transform="translate(152.98 6.526)" fill="#003681"/><path d="M112.945,14.247h5.892V12.095H106.959V6.137h11.877V3.985H103.925v8.543a1.718,1.718,0,0,0,1.717,1.72h4.271V18.78h-7.619v2.155h18.265V18.78h-7.614Z" transform="translate(179.596 6.996)" fill="#003681"/><path d="M95.584,6.135h7.121a13.574,13.574,0,0,1-7.917,10.78l.967,1.907A15.366,15.366,0,0,0,106,4.628V3.986H95.584Z" transform="translate(166.418 6.998)" fill="#003681"/><rect width="20.224" height="6.862" transform="translate(188.96 10.246)" fill="#2a8835"/><path d="M86.652,14.5l-18.08,9.364V16.578L88.793,6.208v4.563A4.017,4.017,0,0,1,86.652,14.5" transform="translate(120.391 10.899)" fill="#003681"/><rect width="20.684" height="6.862" transform="translate(212.078 10.246)" fill="#2a8835"/><rect width="20.224" height="6.862" transform="translate(165.843 10.246)" fill="#2a8835"/><path d="M78.262,14.5l-18.08,9.364V16.578L80.4,6.208v4.563A4.012,4.012,0,0,1,78.262,14.5" transform="translate(105.661 10.899)" fill="#003681"/><path d="M76.96,8.385V11.9a3.345,3.345,0,0,0,3.348,3.343H97.644V8.385Z" transform="translate(135.118 14.721)" fill="#003681"/></g></g></g></svg>