<svg xmlns="http://www.w3.org/2000/svg" width="168" height="168" viewBox="0 0 168 168">
  <g id="그룹_11653" data-name="그룹 11653" transform="translate(-2836 -2815)">
    <path id="사각형_44" data-name="사각형 44" d="M0,0H168V168H0Z" transform="translate(2836 2815)" fill="#fff"/>
    <g id="그룹_11648" data-name="그룹 11648">
      <g id="_01" data-name=" 01" transform="translate(2847.677 2824.995)" style="isolation: isolate">
        <g id="그룹_340" data-name="그룹 340" transform="translate(0 0)" style="isolation: isolate">
          <path id="패스_1267" data-name="패스 1267" d="M867.34,342.314a9.373,9.373,0,0,1-1.219,5.337,5.1,5.1,0,0,1-7.649.04,8.857,8.857,0,0,1-1.281-5.1v-2.73a9.142,9.142,0,0,1,1.219-5.272,5.19,5.19,0,0,1,7.661-.061,8.827,8.827,0,0,1,1.261,5.136Zm-2.046-2.8a7.5,7.5,0,0,0-.728-3.785,2.514,2.514,0,0,0-2.311-1.189,2.478,2.478,0,0,0-2.288,1.184,7.28,7.28,0,0,0-.74,3.636v3.272a7.6,7.6,0,0,0,.756,3.85,2.506,2.506,0,0,0,2.293,1.243,2.469,2.469,0,0,0,2.25-1.17,7.311,7.311,0,0,0,.768-3.693Z" transform="translate(-857.166 -332.854)" fill="#251e1c"/>
          <path id="패스_1268" data-name="패스 1268" d="M866.967,340.141H868.5a3.379,3.379,0,0,0,2.277-.763,2.549,2.549,0,0,0,.827-2,2.495,2.495,0,0,0-2.817-2.829,2.934,2.934,0,0,0-2.117.757,2.65,2.65,0,0,0-.789,2.006H863.84a4.1,4.1,0,0,1,1.393-3.178,5.086,5.086,0,0,1,3.552-1.266,5.03,5.03,0,0,1,3.569,1.2,4.353,4.353,0,0,1,1.294,3.348,3.526,3.526,0,0,1-.679,2.034,4.094,4.094,0,0,1-1.853,1.469,3.961,3.961,0,0,1,2.051,1.393,3.866,3.866,0,0,1,.724,2.375,4.393,4.393,0,0,1-1.416,3.437A5.292,5.292,0,0,1,868.8,349.4a5.424,5.424,0,0,1-3.686-1.219,4.064,4.064,0,0,1-1.422-3.237h2.058a2.627,2.627,0,0,0,.829,2.034,3.151,3.151,0,0,0,2.222.761,3.1,3.1,0,0,0,2.263-.771,2.99,2.99,0,0,0,.785-2.222,2.707,2.707,0,0,0-.87-2.156,3.757,3.757,0,0,0-2.486-.775h-1.537Z" transform="translate(-852.334 -332.86)" fill="#251e1c"/>
        </g>
      </g>
      <line id="선_52" data-name="선 52" x2="24" transform="translate(2846 2849.152)" fill="none" stroke="#6f6f6f" stroke-width="1"/>
    </g>
    <g id="CV" transform="translate(2884.846 2874.104)">
      <path id="패스_5307" data-name="패스 5307" d="M129.458,67.449V122.5H89.642l.013.019v1.09a5.452,5.452,0,1,1-10.9,0V62h45.256a5.453,5.453,0,0,1,5.452,5.451Zm0,0" transform="translate(-66.482 -60.634)" fill="#fff"/>
      <path id="패스_5308" data-name="패스 5308" d="M83.75,124.04h45.256a5.453,5.453,0,0,0,5.452-5.451V117.5H89.2v1.09a5.453,5.453,0,0,1-5.451,5.452Zm0,0" transform="translate(-66.029 -55.611)" fill="#ffe6c0"/>
      <path id="패스_5309" data-name="패스 5309" d="M79.655,78.082V67.449a5.452,5.452,0,0,0-10.9,0V78.082H79.042" transform="translate(-67.387 -60.634)" fill="#ffe6c0"/>
      <path id="패스_5310" data-name="패스 5310" d="M101.9,86.161v-3.3a4.907,4.907,0,0,0-4.9-4.9H89.907A4.907,4.907,0,0,0,85,82.865v3.3Zm0,0" transform="translate(-65.916 -59.189)" fill="#91def5"/>
      <path id="패스_5311" data-name="패스 5311" d="M93.1,69.48a4.256,4.256,0,0,0-4.255,4.255v.734a4.255,4.255,0,0,0,8.51,0v-.733A4.256,4.256,0,0,0,93.1,69.48Zm0,0" transform="translate(-65.568 -59.957)" fill="#ffbf9e"/>
      <path id="패스_5312" data-name="패스 5312" d="M120.419,108.249H98.655a1.363,1.363,0,0,0,0,2.726h21.764a1.363,1.363,0,1,0,0-2.726Zm0,0" transform="translate(-64.804 -56.448)"/>
      <path id="패스_5313" data-name="패스 5313" d="M120.419,100.243H98.655a1.363,1.363,0,0,0,0,2.726h21.764a1.363,1.363,0,1,0,0-2.726Zm0,0" transform="translate(-64.804 -57.173)"/>
      <path id="패스_5314" data-name="패스 5314" d="M97.292,93.6a1.362,1.362,0,0,0,1.363,1.363h21.764a1.363,1.363,0,1,0,0-2.726H98.655A1.363,1.363,0,0,0,97.292,93.6Zm0,0" transform="translate(-64.804 -57.898)"/>
      <path id="패스_5315" data-name="패스 5315" d="M91.747,108.249H85.613a1.363,1.363,0,0,0,0,2.726h6.134a1.363,1.363,0,0,0,0-2.726Zm0,0" transform="translate(-65.984 -56.448)"/>
      <path id="패스_5316" data-name="패스 5316" d="M91.747,100.243H85.613a1.363,1.363,0,0,0,0,2.726h6.134a1.363,1.363,0,1,0,0-2.726Zm0,0" transform="translate(-65.984 -57.173)"/>
      <path id="패스_5317" data-name="패스 5317" d="M91.747,92.233H85.613a1.363,1.363,0,0,0,0,2.726h6.134a1.363,1.363,0,0,0,0-2.726Zm0,0" transform="translate(-65.984 -57.898)"/>
      <path id="패스_5318" data-name="패스 5318" d="M135.929,121.27H131.84V67.563a6.824,6.824,0,0,0-6.816-6.816H74.316A6.824,6.824,0,0,0,67.5,67.563V78.195a1.364,1.364,0,0,0,1.363,1.363H78.4V94.4a1.363,1.363,0,0,0,2.726,0V67.563a6.782,6.782,0,0,0-1.366-4.089h45.259a4.094,4.094,0,0,1,4.089,4.089V121.27H90.673a1.363,1.363,0,0,0-1.363,1.363v1.09a4.089,4.089,0,1,1-8.179,0V106.666a1.363,1.363,0,0,0-2.726,0v17.058a6.824,6.824,0,0,0,6.816,6.816h45.256a6.824,6.824,0,0,0,6.816-6.816v-1.09a1.363,1.363,0,0,0-1.363-1.363ZM78.4,67.563v9.269H70.226V67.563a4.09,4.09,0,0,1,8.179,0Zm52.071,60.25H90.67A6.777,6.777,0,0,0,92.029,124h42.528a4.1,4.1,0,0,1-4.081,3.817Zm0,0" transform="translate(-67.5 -60.747)"/>
      <path id="패스_5319" data-name="패스 5319" d="M107.906,70.956h11.676a1.363,1.363,0,1,0,0-2.726H107.906a1.363,1.363,0,0,0,0,2.726Zm0,0" transform="translate(-63.967 -60.07)"/>
      <path id="패스_5320" data-name="패스 5320" d="M107.906,78.956h11.676a1.363,1.363,0,1,0,0-2.726H107.906a1.363,1.363,0,0,0,0,2.726Zm0,0" transform="translate(-63.967 -59.346)"/>
      <path id="패스_5321" data-name="패스 5321" d="M107.906,86.956h11.676a1.363,1.363,0,1,0,0-2.726H107.906a1.363,1.363,0,0,0,0,2.726Zm0,0" transform="translate(-63.967 -58.622)"/>
      <path id="패스_5322" data-name="패스 5322" d="M78.863,98.706a1.365,1.365,0,1,0-.963-.4A1.365,1.365,0,0,0,78.863,98.706Zm0,0" transform="translate(-66.595 -57.559)"/>
      <path id="패스_5323" data-name="패스 5323" d="M83.75,83.746v3.3A1.363,1.363,0,0,0,85.113,88.4h16.9a1.363,1.363,0,0,0,1.363-1.363v-3.3A6.28,6.28,0,0,0,98.3,77.582a5.575,5.575,0,0,0,.877-3.009V73.84a5.618,5.618,0,0,0-11.236,0v.733a5.575,5.575,0,0,0,.877,3.009,6.281,6.281,0,0,0-5.073,6.155Zm6.922-9.9a2.892,2.892,0,0,1,5.784,0v.733a2.892,2.892,0,0,1-5.784,0Zm-4.2,9.9A3.548,3.548,0,0,1,90.02,80.2h7.088a3.548,3.548,0,0,1,3.544,3.544v1.932H86.476Zm0,0" transform="translate(-66.029 -60.07)"/>
    </g>
  </g>
</svg>
