<svg xmlns="http://www.w3.org/2000/svg" width="168" height="168" viewBox="0 0 168 168">
  <g id="그룹_11652" data-name="그룹 11652" transform="translate(-2621 -2815)">
    <path id="사각형_44" data-name="사각형 44" d="M0,0H168V168H0Z" transform="translate(2621 2815)" fill="#fff"/>
    <g id="그룹_11647" data-name="그룹 11647">
      <g id="_01" data-name=" 01" transform="translate(2632.677 2824.998)" style="isolation: isolate">
        <g id="그룹_338" data-name="그룹 338" transform="translate(0 0)" style="isolation: isolate">
          <path id="패스_1265" data-name="패스 1265" d="M840.161,342.316a9.359,9.359,0,0,1-1.219,5.337,5.1,5.1,0,0,1-7.649.04,8.879,8.879,0,0,1-1.282-5.1v-2.73a9.145,9.145,0,0,1,1.219-5.272,5.19,5.19,0,0,1,7.67-.061,8.829,8.829,0,0,1,1.261,5.136Zm-2.046-2.8a7.488,7.488,0,0,0-.728-3.785,2.513,2.513,0,0,0-2.31-1.189,2.474,2.474,0,0,0-2.286,1.184,7.28,7.28,0,0,0-.742,3.636v3.272a7.6,7.6,0,0,0,.756,3.85,2.506,2.506,0,0,0,2.295,1.243,2.471,2.471,0,0,0,2.25-1.17,7.325,7.325,0,0,0,.766-3.693Z" transform="translate(-829.987 -332.861)" fill="#251e1c"/>
          <path id="패스_1266" data-name="패스 1266" d="M847.361,349.18H836.818v-1.468l5.572-6.19a13.133,13.133,0,0,0,1.706-2.284,3.8,3.8,0,0,0,.47-1.818,2.892,2.892,0,0,0-.763-2.067,2.663,2.663,0,0,0-2.034-.806,3.156,3.156,0,0,0-2.37.871,3.308,3.308,0,0,0-.846,2.415H836.51a4.743,4.743,0,0,1,1.431-3.592,5.311,5.311,0,0,1,3.831-1.37,5.1,5.1,0,0,1,3.547,1.177,4.015,4.015,0,0,1,1.306,3.134,9.2,9.2,0,0,1-3.03,5.659l-4.308,4.673h8.077Z" transform="translate(-825.156 -332.863)" fill="#251e1c"/>
        </g>
      </g>
      <line id="선_52" data-name="선 52" x2="24" transform="translate(2631 2849.15)" fill="none" stroke="#6f6f6f" stroke-width="1"/>
    </g>
    <g id="file-28" transform="translate(2676.149 2874.104)">
      <path id="패스_5324" data-name="패스 5324" d="M129.008,76.191V124.7a4.362,4.362,0,0,1-4.362,4.363h-45.8a4.363,4.363,0,0,1-4.362-4.362V66.359A4.361,4.361,0,0,1,78.846,62h35.985Zm0,0" transform="translate(-73.138 -60.634)" fill="#c9f3ff"/>
      <path id="패스_5325" data-name="패스 5325" d="M129.025,76.191V124.7a4.364,4.364,0,0,1-4.361,4.363h-45.8A4.363,4.363,0,0,1,74.5,124.7V66.359A4.361,4.361,0,0,1,78.862,62h35.986Zm0,0" transform="translate(-73.137 -60.634)" fill="#fff1b9"/>
      <path id="패스_5326" data-name="패스 5326" d="M111.483,71.823a4.363,4.363,0,0,0,4.362,4.362h9.814L111.483,61.991Zm0,0" transform="translate(-69.79 -60.634)" fill="#ffc66c"/>
      <rect id="사각형_418" data-name="사각형 418" width="6.543" height="6.543" transform="translate(10.07 8.99)" fill="#fff"/>
      <rect id="사각형_419" data-name="사각형 419" width="6.543" height="6.543" transform="translate(10.07 24.257)" fill="#fff"/>
      <rect id="사각형_420" data-name="사각형 420" width="6.543" height="6.543" transform="translate(10.07 39.524)" fill="#fff"/>
      <rect id="사각형_421" data-name="사각형 421" width="6.543" height="6.543" transform="translate(10.07 54.791)" fill="#fff"/>
      <path id="패스_5327" data-name="패스 5327" d="M94.847,101.467h21.536a1.363,1.363,0,1,0,0-2.726H94.847a1.363,1.363,0,0,0,0,2.726Zm0,0" transform="translate(-71.419 -57.309)"/>
      <path id="패스_5328" data-name="패스 5328" d="M94.847,87.467h21.536a1.363,1.363,0,0,0,0-2.726H94.847a1.363,1.363,0,0,0,0,2.726Zm0,0" transform="translate(-71.419 -58.576)"/>
      <path id="패스_5329" data-name="패스 5329" d="M99.6,73.467h7.5a1.363,1.363,0,0,0,0-2.726H99.6a1.363,1.363,0,0,0,0,2.726Zm0,0" transform="translate(-70.989 -59.843)"/>
      <path id="패스_5330" data-name="패스 5330" d="M94.847,73.468a1.366,1.366,0,1,0-.963-.4,1.366,1.366,0,0,0,.963.4Zm0,0" transform="translate(-71.419 -59.842)"/>
      <path id="패스_5331" data-name="패스 5331" d="M114.6,112.741a1.365,1.365,0,1,0,.964.4,1.365,1.365,0,0,0-.964-.4Zm0,0" transform="translate(-69.632 -56.042)"/>
      <path id="패스_5332" data-name="패스 5332" d="M110.189,112.741H94.847a1.363,1.363,0,0,0,0,2.726h15.342a1.363,1.363,0,1,0,0-2.726Zm0,0" transform="translate(-71.419 -56.042)"/>
      <path id="패스_5333" data-name="패스 5333" d="M130.1,75.34,115.926,61.147a1.357,1.357,0,0,0-.964-.4H78.975a5.731,5.731,0,0,0-5.725,5.725v58.341a5.732,5.732,0,0,0,5.725,5.726h45.8a5.732,5.732,0,0,0,5.725-5.726V76.3a1.359,1.359,0,0,0-.4-.964Zm-13.8-9.954,9.537,9.548H119.3a3,3,0,0,1-3-3Zm8.47,62.427H78.97a3,3,0,0,1-3-3V66.472a3,3,0,0,1,3-3h34.6v8.462a5.732,5.732,0,0,0,5.726,5.725h8.469v47.152a3,3,0,0,1-3,3Zm0,0" transform="translate(-73.25 -60.747)"/>
      <path id="패스_5334" data-name="패스 5334" d="M89.14,67.741H82.6A1.364,1.364,0,0,0,81.234,69.1v6.543A1.363,1.363,0,0,0,82.6,77.01h6.54a1.363,1.363,0,0,0,1.36-1.363V69.1a1.364,1.364,0,0,0-1.363-1.363Zm-1.363,6.543H83.96V70.467h3.817Zm0,0" transform="translate(-72.527 -60.114)"/>
      <path id="패스_5335" data-name="패스 5335" d="M89.14,81.741H82.6A1.363,1.363,0,0,0,81.234,83.1v6.543A1.364,1.364,0,0,0,82.6,91.01h6.54a1.364,1.364,0,0,0,1.36-1.363V83.1a1.363,1.363,0,0,0-1.363-1.363Zm-1.363,6.543H83.96V84.467h3.817Zm0,0" transform="translate(-72.527 -58.847)"/>
      <path id="패스_5336" data-name="패스 5336" d="M89.14,95.741H82.6A1.364,1.364,0,0,0,81.234,97.1v6.543A1.364,1.364,0,0,0,82.6,105.01h6.54a1.364,1.364,0,0,0,1.363-1.363V97.1a1.364,1.364,0,0,0-1.363-1.363Zm-1.363,6.543H83.96V98.467h3.817Zm0,0" transform="translate(-72.527 -57.58)"/>
      <path id="패스_5337" data-name="패스 5337" d="M89.14,109.741H82.6a1.364,1.364,0,0,0-1.363,1.363v6.543A1.364,1.364,0,0,0,82.6,119.01h6.54a1.364,1.364,0,0,0,1.363-1.363V111.1a1.364,1.364,0,0,0-1.363-1.363Zm-1.363,6.543H83.96v-3.817h3.817Zm0,0" transform="translate(-72.527 -56.313)"/>
    </g>
  </g>
</svg>
