<svg xmlns="http://www.w3.org/2000/svg" width="168" height="168" viewBox="0 0 168 168">
  <g id="그룹_11655" data-name="그룹 11655" transform="translate(-3265 -2815)">
    <path id="사각형_389" data-name="사각형 389" d="M0,0H168V168H0Z" transform="translate(3265 2815)" fill="#fff"/>
    <g id="그룹_11650" data-name="그룹 11650">
      <g id="그룹_11420" data-name="그룹 11420" transform="translate(3275 2825)">
        <g id="_01" data-name=" 01" transform="translate(1.675 0)" style="isolation: isolate">
          <g id="그룹_344" data-name="그룹 344" style="isolation: isolate">
            <path id="패스_1271" data-name="패스 1271" d="M921.813,342.316a9.356,9.356,0,0,1-1.219,5.337,5.1,5.1,0,0,1-7.647.04,8.868,8.868,0,0,1-1.283-5.1v-2.73a9.158,9.158,0,0,1,1.219-5.272,5.192,5.192,0,0,1,7.672-.061,8.828,8.828,0,0,1,1.259,5.136Zm-2.044-2.8a7.5,7.5,0,0,0-.728-3.785,2.518,2.518,0,0,0-2.312-1.189,2.474,2.474,0,0,0-2.286,1.184,7.3,7.3,0,0,0-.742,3.636v3.272a7.594,7.594,0,0,0,.757,3.85,2.5,2.5,0,0,0,2.293,1.243,2.47,2.47,0,0,0,2.25-1.17,7.339,7.339,0,0,0,.768-3.693Z" transform="translate(-911.639 -332.865)" fill="#251e1c"/>
            <path id="패스_1272" data-name="패스 1272" d="M919.121,341.016l.82-8.025h8.243v1.891h-6.508l-.488,4.388a5.194,5.194,0,0,1,2.687-.7,4.445,4.445,0,0,1,3.493,1.454,5.708,5.708,0,0,1,1.292,3.93,5.5,5.5,0,0,1-1.343,3.918,4.891,4.891,0,0,1-3.75,1.431,5.079,5.079,0,0,1-3.482-1.182,4.717,4.717,0,0,1-1.538-3.272h1.935a3.249,3.249,0,0,0,.984,2.089,3.056,3.056,0,0,0,2.1.7,2.756,2.756,0,0,0,2.237-.972,4.073,4.073,0,0,0,.813-2.685,3.722,3.722,0,0,0-.881-2.593,2.981,2.981,0,0,0-2.337-.977,3.363,3.363,0,0,0-2.1.585l-.543.442Z" transform="translate(-906.52 -332.772)" fill="#251e1c"/>
          </g>
        </g>
        <line id="선_52" data-name="선 52" x2="24" transform="translate(0 24.148)" fill="none" stroke="#6f6f6f" stroke-width="1"/>
      </g>
    </g>
    <g id="그룹_11430" data-name="그룹 11430" transform="translate(3314.208 2874.104)">
      <g id="Export_Layer" data-name="Export Layer">
        <g id="video">
          <rect id="사각형_416" data-name="사각형 416" width="8.724" height="8.724" transform="translate(22.628 44.983)" fill="#bedaff"/>
          <path id="패스_5297" data-name="패스 5297" d="M114.551,105.164H74.2a5.453,5.453,0,0,1-5.452-5.451V72.449A5.453,5.453,0,0,1,74.2,67h40.348A5.453,5.453,0,0,1,120,72.448V99.712a5.453,5.453,0,0,1-5.451,5.452Zm0,0" transform="translate(-67.387 -60.181)" fill="#ffd88e"/>
          <path id="패스_5298" data-name="패스 5298" d="M68.75,94v3.271a5.453,5.453,0,0,0,5.451,5.452H114.55A5.453,5.453,0,0,0,120,97.268V94Zm0,0" transform="translate(-67.387 -57.738)" fill="#bedaff"/>
          <path id="패스_5299" data-name="패스 5299" d="M92.657,83.992a4.908,4.908,0,0,1-4.907-4.906V76.9a4.907,4.907,0,0,1,9.814,0v2.181a4.908,4.908,0,0,1-4.906,4.907Zm0,0" transform="translate(-65.667 -59.729)" fill="#f4c6af"/>
          <path id="패스_5300" data-name="패스 5300" d="M93.11,83A10.359,10.359,0,0,0,82.75,93.361V95h20.719V93.357A10.359,10.359,0,0,0,93.112,83Zm0,0" transform="translate(-66.12 -58.733)" fill="#d5ea7a"/>
          <path id="패스_5301" data-name="패스 5301" d="M125.976,80.535H108.394a3.2,3.2,0,0,1-3.2-3.2V65.2a3.2,3.2,0,0,1,3.2-3.2h17.582a3.2,3.2,0,0,1,3.2,3.2V77.33a3.2,3.2,0,0,1-3.2,3.2Zm0,0" transform="translate(-64.089 -60.634)" fill="#ff7a7a"/>
          <path id="패스_5302" data-name="패스 5302" d="M114.159,107.581a7.807,7.807,0,0,1-7.807-7.807V96.3a7.807,7.807,0,0,1,15.614,0v3.471a7.807,7.807,0,0,1-7.807,7.807Zm0,0" transform="translate(-63.984 -58.236)" fill="#c68966"/>
          <path id="패스_5303" data-name="패스 5303" d="M118.762,106H111.29a14.517,14.517,0,0,0-14.517,14.517v4.567H133.28v-4.567A14.517,14.517,0,0,0,118.762,106Zm0,0" transform="translate(-64.851 -56.652)" fill="#d5ea7a"/>
          <path id="패스_5304" data-name="패스 5304" d="M113.961,74.054a1.366,1.366,0,0,0,1.363,0l3.62-2.09a1.363,1.363,0,0,0,0-2.361l-3.62-2.089a1.363,1.363,0,0,0-2.045,1.18v4.18a1.362,1.362,0,0,0,.682,1.181Zm0,0" transform="translate(-63.357 -60.151)"/>
          <path id="패스_5305" data-name="패스 5305" d="M123.977,108.936a9.141,9.141,0,0,0,2.868-6.651V98.814a9.179,9.179,0,0,0-5.365-8.339V82.012h7.907a4.573,4.573,0,0,0,4.567-4.568V65.314a4.572,4.572,0,0,0-4.567-4.567H111.8a4.572,4.572,0,0,0-4.568,4.567V66.2H74.316A6.824,6.824,0,0,0,67.5,73.015v27.262a6.824,6.824,0,0,0,6.816,6.816H88.765v6H84.449a1.363,1.363,0,0,0,0,2.726h16.272a15.779,15.779,0,0,0-2.662,8.792v4.567a1.363,1.363,0,0,0,1.363,1.363h12.119a1.363,1.363,0,1,0,0-2.726H100.785v-3.2a13.168,13.168,0,0,1,13.154-13.154h7.472a13.169,13.169,0,0,1,13.155,13.154v3.2H123.809a1.363,1.363,0,0,0,0,2.726h12.12a1.364,1.364,0,0,0,1.363-1.363v-4.567a15.907,15.907,0,0,0-13.315-15.673Zm.142-10.122v3.471a6.444,6.444,0,1,1-12.888,0V98.814a6.444,6.444,0,1,1,12.887,0Zm-14.156-33.5a1.843,1.843,0,0,1,1.842-1.841h17.582a1.843,1.843,0,0,1,1.841,1.841v12.13a1.843,1.843,0,0,1-1.841,1.842H111.8a1.844,1.844,0,0,1-1.842-1.842ZM74.316,68.926h32.921v8.518a4.573,4.573,0,0,0,4.568,4.568h6.949v7.7a9.5,9.5,0,0,0-1.078-.064,9.182,9.182,0,0,0-8.6,6h-2.859V95.37a11.739,11.739,0,0,0-7.28-10.846A6.254,6.254,0,0,0,100.76,80.1V77.922a6.271,6.271,0,1,0-12.541,0V80.1a6.254,6.254,0,0,0,1.828,4.421,11.739,11.739,0,0,0-7.28,10.846v.273H70.226V73.015a4.094,4.094,0,0,1,4.089-4.089ZM90.946,80.1V77.922a3.544,3.544,0,0,1,7.088,0V80.1a3.544,3.544,0,0,1-7.088,0Zm3.544,6.27a9.007,9.007,0,0,1,9,9v.273h-18V95.37a9.007,9.007,0,0,1,9-9Zm-24.264,13.9v-1.9h38.291c-.008.147-.012.3-.012.445v3.471a9.168,9.168,0,0,0,.241,2.082H74.316a4.094,4.094,0,0,1-4.089-4.089Zm21.265,12.813v-6h6v6Zm11.527,0h-2.8v-6h9.656a9.23,9.23,0,0,0,1.5,1.843,15.847,15.847,0,0,0-8.355,4.155Zm0,0" transform="translate(-67.5 -60.747)"/>
          <path id="패스_5306" data-name="패스 5306" d="M113.624,122.247a1.363,1.363,0,1,0,.964.4A1.363,1.363,0,0,0,113.624,122.247Zm0,0" transform="translate(-63.449 -55.181)"/>
        </g>
      </g>
      <g id="Initial_Setup" data-name="Initial Setup">
        <rect id="사각형_417" data-name="사각형 417" width="70" height="70" transform="translate(-0.208 -0.104)" fill="#fff" opacity="0"/>
      </g>
    </g>
  </g>
</svg>
