<svg xmlns="http://www.w3.org/2000/svg" width="168" height="168" viewBox="0 0 168 168">
  <g id="그룹_11651" data-name="그룹 11651" transform="translate(-2406 -2815)">
    <path id="사각형_44" data-name="사각형 44" d="M0,0H168V168H0Z" transform="translate(2406 2815)" fill="#fff"/>
    <g id="그룹_11646" data-name="그룹 11646">
      <g id="_01" data-name=" 01" transform="translate(2417.675 2825)" style="isolation: isolate">
        <g id="그룹_336" data-name="그룹 336" transform="translate(0 0)" style="isolation: isolate">
          <path id="패스_1263" data-name="패스 1263" d="M812.982,342.316a9.358,9.358,0,0,1-1.219,5.337,5.1,5.1,0,0,1-7.647.04,8.869,8.869,0,0,1-1.283-5.1v-2.73a9.16,9.16,0,0,1,1.219-5.272,5.192,5.192,0,0,1,7.672-.061,8.83,8.83,0,0,1,1.259,5.136Zm-2.044-2.8a7.5,7.5,0,0,0-.728-3.785,2.517,2.517,0,0,0-2.312-1.189,2.474,2.474,0,0,0-2.286,1.184,7.3,7.3,0,0,0-.742,3.636v3.272a7.593,7.593,0,0,0,.757,3.85,2.5,2.5,0,0,0,2.293,1.243,2.471,2.471,0,0,0,2.25-1.17,7.34,7.34,0,0,0,.768-3.693Z" transform="translate(-802.808 -332.865)" fill="#251e1c"/>
          <path id="패스_1264" data-name="패스 1264" d="M816,349.117h-2.055V335.491L809.816,337v-1.856l5.861-2.2H816Z" transform="translate(-797.614 -332.804)" fill="#251e1c"/>
        </g>
      </g>
      <line id="선_52" data-name="선 52" x2="24" transform="translate(2416 2849.148)" fill="none" stroke="#6f6f6f" stroke-width="1"/>
    </g>
    <g id="그룹_11432" data-name="그룹 11432" transform="translate(2455 2882.828)">
      <path id="패스_5338" data-name="패스 5338" d="M128.427,116.471h-51.8A7.633,7.633,0,0,1,69,108.838v-1.09h67.066v1.09a7.633,7.633,0,0,1-7.633,7.633Zm0,0" transform="translate(-67.632 -64.945)" fill="#d3d7df"/>
      <path id="패스_5339" data-name="패스 5339" d="M136.174,109.936h-1.363V74.222a5.731,5.731,0,0,0-5.725-5.725H108.775a1.363,1.363,0,0,0,0,2.726h20.311a3,3,0,0,1,3,3v35.714H73.2V74.222a3,3,0,0,1,3-3H96.473a1.363,1.363,0,1,0,0-2.726H76.2a5.731,5.731,0,0,0-5.725,5.725v35.714H69.108a1.363,1.363,0,0,0-1.363,1.363v1.09a9.007,9.007,0,0,0,9,9h51.8a9.006,9.006,0,0,0,9-9V111.3a1.362,1.362,0,0,0-1.363-1.363Zm-7.633,8.724h-51.8a6.277,6.277,0,0,1-6.264-6H134.8a6.278,6.278,0,0,1-6.265,6Zm0,0" transform="translate(-67.745 -68.497)"/>
      <path id="패스_5340" data-name="패스 5340" d="M99.858,71.223a1.365,1.365,0,1,0-.964-.4A1.365,1.365,0,0,0,99.858,71.223Zm0,0" transform="translate(-64.962 -68.497)"/>
      <g id="그룹_11431" data-name="그룹 11431" transform="translate(11.723 8.124)">
        <path id="패스_5341" data-name="패스 5341" d="M117.912,101.227H85.2a5.452,5.452,0,1,1,0-10.9h32.715a5.452,5.452,0,0,1,0,10.9Zm0,0" transform="translate(-78.382 -74.646)" fill="#91def5"/>
        <path id="패스_5342" data-name="패스 5342" d="M78.5,95.888a6.824,6.824,0,0,0,6.816,6.816h32.715a6.816,6.816,0,1,0,0-13.632H85.311A6.824,6.824,0,0,0,78.5,95.888Zm43.62,0a4.094,4.094,0,0,1-4.089,4.089H85.311a4.089,4.089,0,1,1,0-8.179h32.715a4.094,4.094,0,0,1,4.089,4.089Zm0,0" transform="translate(-78.495 -74.759)"/>
        <path id="패스_5343" data-name="패스 5343" d="M104.034,95.435a1.363,1.363,0,1,1-1.363-1.363A1.363,1.363,0,0,1,104.034,95.435Zm0,0" transform="translate(-76.43 -74.307)"/>
        <path id="패스_5344" data-name="패스 5344" d="M98.409,95.435a1.363,1.363,0,1,1-1.363-1.363,1.363,1.363,0,0,1,1.363,1.363Zm0,0" transform="translate(-76.94 -74.307)"/>
        <path id="패스_5345" data-name="패스 5345" d="M109.659,95.435a1.363,1.363,0,1,1-1.363-1.363,1.363,1.363,0,0,1,1.363,1.363Zm0,0" transform="translate(-75.921 -74.307)"/>
        <path id="패스_5346" data-name="패스 5346" d="M92.784,95.435a1.363,1.363,0,1,1-1.363-1.363A1.363,1.363,0,0,1,92.784,95.435Zm0,0" transform="translate(-77.449 -74.307)"/>
        <path id="패스_5347" data-name="패스 5347" d="M105.291,75.947a5.462,5.462,0,0,0-5.28,4.089H95.272V77.719a1.363,1.363,0,0,0-2.726,0v2.317H91.8a1.363,1.363,0,0,0,0,2.726h8.215a5.453,5.453,0,1,0,5.28-6.816Zm0,8.179a2.726,2.726,0,1,1,2.726-2.726A2.726,2.726,0,0,1,105.291,84.126Zm0,0" transform="translate(-77.415 -75.947)"/>
      </g>
    </g>
  </g>
</svg>
