<svg xmlns="http://www.w3.org/2000/svg" width="168" height="168" viewBox="0 0 168 168">
  <g id="그룹_11654" data-name="그룹 11654" transform="translate(-3050 -2815)">
    <path id="사각형_44" data-name="사각형 44" d="M0,0H168V168H0Z" transform="translate(3050 2815)" fill="#fff"/>
    <g id="그룹_11649" data-name="그룹 11649">
      <g id="_01" data-name=" 01" transform="translate(3061.661 2825)" style="isolation: isolate">
        <g id="그룹_342" data-name="그룹 342" transform="translate(0 0)" style="isolation: isolate">
          <path id="패스_1269" data-name="패스 1269" d="M894.432,342.236a9.28,9.28,0,0,1-1.209,5.292,5.055,5.055,0,0,1-7.583.04,8.792,8.792,0,0,1-1.272-5.059V339.8a9.084,9.084,0,0,1,1.209-5.228,5.148,5.148,0,0,1,7.607-.06,8.757,8.757,0,0,1,1.248,5.093Zm-2.027-2.773a7.431,7.431,0,0,0-.722-3.753,2.494,2.494,0,0,0-2.293-1.179,2.455,2.455,0,0,0-2.267,1.174,7.236,7.236,0,0,0-.735,3.6v3.244a7.529,7.529,0,0,0,.751,3.817,2.483,2.483,0,0,0,2.274,1.233,2.45,2.45,0,0,0,2.231-1.16,7.281,7.281,0,0,0,.761-3.662Z" transform="translate(-884.344 -332.865)" fill="#251e1c"/>
          <path id="패스_1270" data-name="패스 1270" d="M899.916,343.585h2.215v1.654h-2.215v3.7h-2.037v-3.7H890.61v-1.19L897.756,333h2.16Zm-7,0h4.965v-7.823l-.242.439Z" transform="translate(-879.792 -332.767)" fill="#251e1c"/>
        </g>
      </g>
      <line id="선_52" data-name="선 52" x2="23.798" transform="translate(3060 2848.945)" fill="none" stroke="#6f6f6f" stroke-width="1"/>
    </g>
    <g id="그룹_11429" data-name="그룹 11429" transform="translate(3099.534 2874.104)">
      <g id="Export_Layer" data-name="Export Layer" transform="translate(0 0.136)">
        <g id="schedule">
          <path id="패스_5282" data-name="패스 5282" d="M125.791,67.314H71.986a3.241,3.241,0,0,0-3.241,3.241v46.2A3.242,3.242,0,0,0,71.986,120h53.8a3.241,3.241,0,0,0,3.241-3.241v-46.2a3.241,3.241,0,0,0-3.241-3.241Zm0,0" transform="translate(-67.387 -60.288)" fill="#fff"/>
          <rect id="사각형_404" data-name="사각형 404" width="7.604" height="7.604" transform="translate(7.332 32.553)" fill="#d8ec84"/>
          <rect id="사각형_405" data-name="사각형 405" width="7.604" height="7.604" transform="translate(20.911 32.553)" fill="#d8ec84"/>
          <rect id="사각형_406" data-name="사각형 406" width="7.604" height="7.604" transform="translate(34.489 32.553)" fill="#d8ec84"/>
          <rect id="사각형_407" data-name="사각형 407" width="7.604" height="7.604" transform="translate(48.067 32.553)" fill="#ffcb7c"/>
          <rect id="사각형_408" data-name="사각형 408" width="7.604" height="7.604" transform="translate(7.332 46.131)" fill="#d8ec84"/>
          <rect id="사각형_409" data-name="사각형 409" width="7.604" height="7.604" transform="translate(20.911 46.131)" fill="#d8ec84"/>
          <rect id="사각형_410" data-name="사각형 410" width="7.604" height="7.604" transform="translate(34.489 46.131)" fill="#d8ec84"/>
          <rect id="사각형_411" data-name="사각형 411" width="7.604" height="7.604" transform="translate(7.332 18.975)" fill="#d8ec84"/>
          <rect id="사각형_412" data-name="사각형 412" width="7.604" height="7.604" transform="translate(20.911 18.975)" fill="#d8ec84"/>
          <rect id="사각형_413" data-name="사각형 413" width="7.604" height="7.604" transform="translate(34.489 18.975)" fill="#d8ec84"/>
          <rect id="사각형_414" data-name="사각형 414" width="7.604" height="7.604" transform="translate(48.067 18.975)" fill="#ffcb7c"/>
          <path id="패스_5283" data-name="패스 5283" d="M116.666,98.972a13.307,13.307,0,1,0,13.307,13.307H116.666Zm0,0" transform="translate(-64.255 -57.423)" fill="#b0e7f8"/>
          <path id="패스_5284" data-name="패스 5284" d="M124.962,120.591a13.265,13.265,0,0,0,3.906-9.416H115.611l-.033.033Zm0,0" transform="translate(-63.149 -56.319)" fill="#ffcb7c"/>
          <path id="패스_5285" data-name="패스 5285" d="M115.562,96.482V112.5h16.023a16.022,16.022,0,0,0-16.024-16.023Zm0,0" transform="translate(-63.151 -57.648)" fill="#f5737f"/>
          <path id="패스_5286" data-name="패스 5286" d="M83.3,78.384a1.357,1.357,0,0,0-1.358-1.358h-7.6a1.357,1.357,0,0,0-1.358,1.358v7.6a1.357,1.357,0,0,0,1.358,1.358h7.6A1.357,1.357,0,0,0,83.3,85.988ZM80.582,84.63H75.694V79.741h4.888Zm0,0" transform="translate(-67.004 -59.409)"/>
          <path id="패스_5287" data-name="패스 5287" d="M86.788,87.345h7.6a1.357,1.357,0,0,0,1.358-1.358v-7.6a1.357,1.357,0,0,0-1.358-1.358h-7.6a1.357,1.357,0,0,0-1.358,1.358v7.6a1.357,1.357,0,0,0,1.358,1.358Zm1.358-7.6h4.889V84.63h-4.89Zm0,0" transform="translate(-65.877 -59.409)"/>
          <path id="패스_5288" data-name="패스 5288" d="M99.24,87.345h7.6a1.357,1.357,0,0,0,1.358-1.358v-7.6a1.357,1.357,0,0,0-1.358-1.358h-7.6a1.358,1.358,0,0,0-1.359,1.358v7.6a1.358,1.358,0,0,0,1.359,1.358Zm1.358-7.6h4.888V84.63H100.6Zm0,0" transform="translate(-64.751 -59.409)"/>
          <path id="패스_5289" data-name="패스 5289" d="M111.691,87.345h7.6a1.358,1.358,0,0,0,1.358-1.358v-7.6a1.358,1.358,0,0,0-1.358-1.358h-7.6a1.358,1.358,0,0,0-1.359,1.358v7.6a1.358,1.358,0,0,0,1.359,1.358Zm1.358-7.6h4.889V84.63h-4.889Zm0,0" transform="translate(-63.624 -59.409)"/>
          <path id="패스_5290" data-name="패스 5290" d="M83.3,90.836a1.357,1.357,0,0,0-1.358-1.358h-7.6a1.357,1.357,0,0,0-1.358,1.358v7.6A1.357,1.357,0,0,0,74.337,99.8h7.6A1.357,1.357,0,0,0,83.3,98.439Zm-2.715,6.245H75.694V92.193h4.888Zm0,0" transform="translate(-67.004 -58.282)"/>
          <path id="패스_5291" data-name="패스 5291" d="M85.43,98.439A1.357,1.357,0,0,0,86.788,99.8h7.6a1.357,1.357,0,0,0,1.358-1.358v-7.6a1.357,1.357,0,0,0-1.358-1.358h-7.6a1.357,1.357,0,0,0-1.358,1.358Zm2.715-6.245h4.889v4.888H88.145Zm0,0" transform="translate(-65.877 -58.282)"/>
          <path id="패스_5292" data-name="패스 5292" d="M97.881,98.439A1.358,1.358,0,0,0,99.24,99.8h7.6a1.357,1.357,0,0,0,1.358-1.358v-7.6a1.357,1.357,0,0,0-1.358-1.358h-7.6a1.358,1.358,0,0,0-1.359,1.358Zm2.716-6.245h4.888v4.888H100.6Zm0,0" transform="translate(-64.751 -58.282)"/>
          <path id="패스_5293" data-name="패스 5293" d="M81.94,101.929h-7.6a1.357,1.357,0,0,0-1.358,1.358v7.6a1.358,1.358,0,0,0,1.358,1.359h7.6a1.358,1.358,0,0,0,1.36-1.356v-7.6a1.357,1.357,0,0,0-1.358-1.358Zm-1.358,7.6H75.694v-4.888h4.888Zm0,0" transform="translate(-67.004 -57.155)"/>
          <g id="그룹_11428" data-name="그룹 11428">
            <path id="패스_5294" data-name="패스 5294" d="M95.749,110.89v-7.6a1.357,1.357,0,0,0-1.358-1.358h-7.6a1.357,1.357,0,0,0-1.358,1.358v7.6a1.358,1.358,0,0,0,1.358,1.359h7.6A1.358,1.358,0,0,0,95.749,110.89Zm-2.715-1.358H88.145v-4.888h4.889Zm0,0" transform="translate(-65.877 -57.155)"/>
            <path id="패스_5295" data-name="패스 5295" d="M130.5,101.957V71.138a4.6,4.6,0,0,0-4.6-4.6h-3.01c0-.034,0-.068,0-.1a5.568,5.568,0,1,0-11.136,0v.1h-7.2c0-.034,0-.068,0-.1a5.567,5.567,0,1,0-11.134,0v.1h-7.2c0-.034,0-.068,0-.1a5.567,5.567,0,1,0-11.134,0v.1h-3a4.6,4.6,0,0,0-4.6,4.6v46.2a4.6,4.6,0,0,0,4.6,4.6h14a1.358,1.358,0,0,0,0-2.715h-14a1.886,1.886,0,0,1-1.883-1.883V71.14A1.886,1.886,0,0,1,72.1,69.255h3.018a5.574,5.574,0,0,0,5.554,5.194,1.358,1.358,0,1,0,0-2.715,2.854,2.854,0,0,1-2.824-2.479h15.6A5.572,5.572,0,0,0,99,74.449a1.358,1.358,0,1,0,0-2.715,2.855,2.855,0,0,1-2.824-2.479h15.6a5.574,5.574,0,0,0,5.553,5.194,1.358,1.358,0,1,0,0-2.715,2.855,2.855,0,0,1-2.824-2.479h11.4a1.886,1.886,0,0,1,1.883,1.883v29.1a17.2,17.2,0,0,0-3.26-1.265V93.425a1.357,1.357,0,0,0-1.358-1.358h-7.6a1.358,1.358,0,0,0-1.359,1.358v7.6a1.356,1.356,0,0,0,.451,1.009,14.7,14.7,0,0,0-5.386,3.608h-7.285A1.358,1.358,0,0,0,100.63,107v7.6a1.359,1.359,0,0,0,1.359,1.359h3.262a14.585,14.585,0,0,0,.419,3.258H98.323a1.358,1.358,0,0,0,0,2.715h8.306a14.663,14.663,0,0,0,27.884-4.853h1.421a1.358,1.358,0,0,0,1.358-1.358A17.36,17.36,0,0,0,130.5,101.95ZM114.48,66.438a2.852,2.852,0,1,1,5.7,0,.657.657,0,0,0,0,.1h-5.7Zm-18.329,0a2.851,2.851,0,1,1,5.7,0,.659.659,0,0,0,.005.1h-5.7Zm-18.331,0a2.851,2.851,0,1,1,5.7,0,.657.657,0,0,0,0,.1H77.819Zm56.695,47.932H121.27V101.125a14.691,14.691,0,0,1,13.244,13.245Zm-17.59-19.588h4.889V98.45a17.676,17.676,0,0,0-1.9-.1,1.356,1.356,0,0,0-1.355,1.323h-1.631ZM103.347,108.36h3.89a14.536,14.536,0,0,0-1.779,4.888h-2.111Zm4.616,7.367a11.965,11.965,0,0,1,10.591-11.871v11.87a.866.866,0,0,0,.007.135.263.263,0,0,0,.009.055c0,.019,0,.051.011.076s.011.043.015.064.011.044.017.065a.561.561,0,0,0,.022.06.647.647,0,0,0,.023.064c.008.019.016.037.025.056l.032.065.029.05c.013.021.025.043.039.064l.037.051c.014.017.027.037.043.055s.047.055.072.081l.017.019,8.39,8.39a11.942,11.942,0,0,1-19.379-9.35Zm21.3,7.43-6.073-6.072h8.593a11.9,11.9,0,0,1-2.52,6.072Zm0,0" transform="translate(-67.5 -60.871)"/>
          </g>
          <path id="패스_5296" data-name="패스 5296" d="M90.275,114.248a1.357,1.357,0,1,0,.96.4,1.357,1.357,0,0,0-.96-.4Zm0,0" transform="translate(-65.562 -56.041)"/>
        </g>
      </g>
      <g id="Initial_Setup" data-name="Initial Setup">
        <rect id="사각형_415" data-name="사각형 415" width="69" height="70" transform="translate(0.466 -0.104)" fill="#fff" opacity="0"/>
      </g>
    </g>
  </g>
</svg>
