<svg xmlns="http://www.w3.org/2000/svg" xmlns:xlink="http://www.w3.org/1999/xlink" width="615" height="376" viewBox="0 0 615 376"><defs><clipPath id="a"><rect width="368.611" height="176.41" fill="none"/></clipPath></defs><g transform="translate(-330 -3400)"><rect width="615" height="376" rx="10" transform="translate(330 3400)" fill="#001331"/><g transform="translate(453.195 3496.59)"><g clip-path="url(#a)"><path d="M39.66,109.08H31.3q.428,5.738.429,12.757v26.735H39.66V128.977h6.654v-7.384H39.66Z" transform="translate(3.556 12.395)" fill="#b2112b"/><path d="M25.211,135.226A14.6,14.6,0,0,0,29.361,124.7a14.894,14.894,0,0,0-4.149-10.653,13.809,13.809,0,0,0-10.438-4.363,14.05,14.05,0,0,0-10.593,4.363A14.818,14.818,0,0,0,0,124.7a14.479,14.479,0,0,0,4.213,10.527,14.16,14.16,0,0,0,10.561,4.3,13.9,13.9,0,0,0,10.438-4.3m-15.506-4.79a9.88,9.88,0,0,1,0-11.629,6.173,6.173,0,0,1,5.068-2.35,6.005,6.005,0,0,1,5,2.35,10.085,10.085,0,0,1-.03,11.629,6,6,0,0,1-4.975,2.38,6.145,6.145,0,0,1-5.068-2.38" transform="translate(0 12.463)" fill="#b2112b"/><path d="M15,140.705H6.579Q7,145.1,7.007,152.058v6.9h36.8V152H15Z" transform="translate(0.748 15.988)" fill="#b2112b"/><path d="M64.7,130.579a22.449,22.449,0,0,0,5.586,6.41,25.539,25.539,0,0,0,6.869,4.149l4.761-5.616a23.9,23.9,0,0,1-9.583-6.439,13.968,13.968,0,0,1-3.785-9.553v-1.648h9.523v-6.775H50.849v6.775h9.583v1.892a15.889,15.889,0,0,1-3.784,10.347,26.087,26.087,0,0,1-9.949,7.294l5.31,5.188a31.5,31.5,0,0,0,7.264-4.946,21.465,21.465,0,0,0,5.431-7.079" transform="translate(5.306 12.625)" fill="#b2112b"/><path d="M64.707,141.254H56.346q.424,5.31.429,11.292v6.348H93.885v-6.959H64.707Z" transform="translate(6.402 16.05)" fill="#b2112b"/><path d="M90.914,148.571V109.08H82.55q.246,3.3.368,10.314v1.954H74.433v7.018h8.485v20.2Z" transform="translate(8.458 12.395)" fill="#b2112b"/><path d="M110.915,141.309h-8.366q.431,5.31.429,11.291v6.289h36.745v-6.96H110.915Z" transform="translate(11.652 16.057)" fill="#fff"/><path d="M135.632,109.079h-8.363q.369,4.886.368,12.758v26.735h8v-17.4h6.593V123.79h-6.593Z" transform="translate(14.461 12.394)" fill="#fff"/><path d="M111.283,129.592a21.676,21.676,0,0,0,5.769,6.531,24.453,24.453,0,0,0,7.355,4.15l4.822-5.736a25.961,25.961,0,0,1-10.194-7.082,15.7,15.7,0,0,1-3.785-10.5v-6.835h-8.543a57.438,57.438,0,0,1,.363,7.324,18.234,18.234,0,0,1-4.027,11.384,25.032,25.032,0,0,1-10.194,7.842l5.492,5.313a27.689,27.689,0,0,0,7.417-4.976,21.92,21.92,0,0,0,5.525-7.417" transform="translate(10.55 12.513)" fill="#fff"/><path d="M181.736,119.822h-7.874a13.3,13.3,0,0,0-5-7.293,14.526,14.526,0,0,0-8.974-2.84,14.368,14.368,0,0,0-10.436,3.968,13.137,13.137,0,0,0-4.089,9.827,12.9,12.9,0,0,0,4.089,9.676,14.432,14.432,0,0,0,10.436,3.936,14.773,14.773,0,0,0,9-2.806,12.8,12.8,0,0,0,4.973-7.265h7.874V138.2h7.937V109.08h-8.363q.3,3.3.427,10.742m-17,8.606a6.185,6.185,0,0,1-4.854,2.015,6.349,6.349,0,0,1-4.942-2.015,7.757,7.757,0,0,1,0-10.01,6.352,6.352,0,0,1,4.942-2.013,6.188,6.188,0,0,1,4.854,2.013,7.864,7.864,0,0,1,0,10.01" transform="translate(16.517 12.395)" fill="#fff"/><path d="M181.017,142.379H160.57v-5.128h-8.361q.424,5.008.427,12.758v9.768h36.257V137.251h-7.876Zm0,11.048H160.57v-4.638h20.447Z" transform="translate(17.295 15.596)" fill="#fff"/><path d="M232.646,109.08h-8.363q.366,6.166.365,12.757v19.411h8V127.635H239.3V120.25h-6.654Z" transform="translate(25.485 12.395)" fill="#fff"/><path d="M221.154,138.943V110.559h-7.876v8.18H202.658v-8.18h-8.3q.428,5.554.427,12.451v15.933Zm-18.5-13.307h10.621v6.409H202.658Z" transform="translate(22.084 12.563)" fill="#fff"/><path d="M199.07,147.219h28.443v13.247h8V140.322H199.07Z" transform="translate(22.62 15.944)" fill="#fff"/><path d="M248.114,152.4v7.079H283.7V139.827H247.687q.424,5.5.427,12.576m7.877-6.044h19.774v6.593H255.99Z" transform="translate(28.144 15.888)" fill="#fff"/><path d="M280.878,109.079h-8.361q.366,4.886.365,12.757V141h8v-13.55h6.656v-7.387h-6.656Z" transform="translate(30.966 12.394)" fill="#fff"/><path d="M255.164,139.541a104.664,104.664,0,0,0,18.738-1.588v-6.531a105.394,105.394,0,0,1-17.946,1.466h-5v-4.822h17.4v-17.4h-25.27v6.594h17.272v4.393H242.592q.424,5.618.424,10.926v6.96Z" transform="translate(27.565 12.575)" fill="#fff"/><rect width="30.52" height="6.409" transform="translate(325.882 130.812)" fill="#fff"/><rect width="16.907" height="5.981" transform="translate(332.721 122.267)" fill="#fff"/><path d="M312.285,142.17a13.321,13.321,0,0,0,6.9-2.99,7.19,7.19,0,0,0,2.5-5.555,7.555,7.555,0,0,0-3.663-6.593q-3.662-2.441-9.888-2.441t-9.918,2.441a7.535,7.535,0,0,0-3.692,6.593,7.2,7.2,0,0,0,2.624,5.646,13.733,13.733,0,0,0,7.2,2.96v3.663H290.494v6.53h11.6q4.637,0,12.085-.428a104.7,104.7,0,0,0,11.9-1.221v-6.47q-4.091.673-13.794,1.282Zm-8.515-5.951a2.889,2.889,0,0,1,0-5.188,9.142,9.142,0,0,1,4.363-.884,8.8,8.8,0,0,1,4.272.884,2.913,2.913,0,0,1,0,5.188,8.765,8.765,0,0,1-4.272.885,9.1,9.1,0,0,1-4.363-.885" transform="translate(33.008 14.157)" fill="#fff"/><path d="M323.438,109.08q.423,4.761.423,12.574v42.178h8V109.08Z" transform="translate(36.752 12.395)" fill="#fff"/><path d="M165.544,101.747h7.508V75.684h3.968V104.25h7.508V49.5h-7.935q.424,4.759.427,12.573V68.3h-3.968V50.413h-7.935q.428,4.759.427,12.573Z" transform="translate(18.762 5.624)" fill="#fff"/><path d="M152.792,90.284A59.32,59.32,0,0,0,165.977,89V82.226a61.247,61.247,0,0,1-11.78,1.1h-2.321V59.581h11.78V52.622H143.579Q144,58.36,144,65.562V90.284Z" transform="translate(16.315 5.979)" fill="#fff"/><rect width="17.275" height="5.921" transform="translate(219.28 54.817)" fill="#fff"/><rect width="31.617" height="6.164" transform="translate(212.322 63.302)" fill="#fff"/><path d="M196.061,80.8q3.814,2.624,10.225,2.624,6.346,0,10.194-2.624a8.449,8.449,0,0,0,.059-14.131q-3.785-2.593-10.253-2.595t-10.253,2.595a8.469,8.469,0,0,0,.028,14.131m5.616-9.981a11.053,11.053,0,0,1,9.217,0,3.2,3.2,0,0,1,1.677,2.9,3.25,3.25,0,0,1-1.707,2.929,10.608,10.608,0,0,1-9.157,0A3.25,3.25,0,0,1,200,73.721a3.2,3.2,0,0,1,1.679-2.9" transform="translate(21.845 7.281)" fill="#fff"/><path d="M234.36,99.08V92.122H205.55V83.7h-8.425q.428,4.455.429,11.352V99.08Z" transform="translate(22.399 9.511)" fill="#fff"/><path d="M222.266,88.989h8V72.326h6.59V65h-6.59V49.5H221.9q.366,4.883.365,12.757Z" transform="translate(25.214 5.624)" fill="#fff"/><path d="M283.115,99.362V92.4H254V81.233h-8.423q.431,4.395.429,11.293v6.835Z" transform="translate(27.904 9.23)" fill="#fff"/><path d="M267.216,78.925V51.58H240.48q.428,5.738.427,12.453V78.925ZM248.781,58.539h10.5V72.028h-10.5Z" transform="translate(27.325 5.861)" fill="#fff"/><path d="M271.384,88.989h7.994V49.5h-8.422q.428,4.759.429,12.755Z" transform="translate(30.788 5.624)" fill="#fff"/><path d="M306.458,84.867H291.444V91.58h29.724v12.7h8V84.867h-14.71V76.931h21.178V70.095h-7.569A90.207,90.207,0,0,0,330.2,50.868H291.565V57.7H321.6a69.307,69.307,0,0,1-1.709,12.391H285.645v6.837h20.813Z" transform="translate(32.457 5.78)" fill="#fff"/><path d="M32.51,92.057H13.56l2.09-1.93c9.224-8.887,15.754-15.866,15.754-24.76,0-6.945-4.529-13.95-14.641-13.95A20.591,20.591,0,0,0,3.473,56.187l-.511.432,2.691,5.958.9-.745a14.617,14.617,0,0,1,8.973-3.6c6.636,0,8.028,4.292,8.028,7.882-.066,6.266-4.9,11.875-16.456,22.873l-5.04,4.892v4.995H32.51Z" transform="translate(0.233 5.842)" fill="#fff"/><path d="M49.08,99.636c10.49,0,16.508-8.965,16.508-24.594,0-7.317-1.353-13.109-4.024-17.218a13.428,13.428,0,0,0-11.723-6.408c-10.184,0-16.51,9.292-16.51,24.257C33.471,90.454,39.5,99.636,49.08,99.636M49.5,57.89c7.167,0,8.236,10.92,8.236,17.429,0,6.664-1.078,17.844-8.305,17.844-5.081,0-8.238-6.678-8.238-17.429,0-11.006,3.182-17.844,8.307-17.844" transform="translate(3.787 5.842)" fill="#fff"/><path d="M96.186,92.057H77.236l2.09-1.93c9.225-8.888,15.754-15.866,15.754-24.76,0-6.945-4.529-13.95-14.643-13.95a20.588,20.588,0,0,0-13.289,4.771l-.511.432,2.691,5.958.9-.745a14.6,14.6,0,0,1,8.971-3.6c6.636,0,8.028,4.292,8.028,7.882-.063,6.266-4.9,11.875-16.456,22.873l-5.04,4.892v4.995H96.186Z" transform="translate(7.469 5.842)" fill="#fff"/><path d="M109.9,92.955a19.443,19.443,0,0,1-9.475-2.695l-.942-.6-2.264,6.412.584.381a23.564,23.564,0,0,0,12.166,3.186c11.928,0,17.268-7.215,17.268-14.364a12.266,12.266,0,0,0-8.465-11.784c4.313-2.245,6.737-5.967,6.737-10.471,0-5.774-4.25-11.6-13.743-11.6a22.261,22.261,0,0,0-12.277,3.628l-.53.392,2.209,6.148.953-.68a15.693,15.693,0,0,1,8.469-2.807c4.443,0,6.992,2.146,6.992,5.888,0,4.927-5.463,6.715-9.135,6.715h-4.274v6.335h4.274c5.142,0,10.661,2.13,10.725,8.115a7.387,7.387,0,0,1-2.049,5.3c-1.629,1.662-4.06,2.5-7.225,2.5" transform="translate(11.047 5.842)" fill="#fff"/><path d="M52.521,6.925h9.716V.544H38.331V6.925h9.715L37.421,17.551l4.511,4.514,8.352-8.353,8.352,8.353,4.511-4.514Z" transform="translate(4.252 0.062)" fill="#b2112b"/><path d="M12.783,23.273A11.636,11.636,0,1,0,1.147,11.637,11.649,11.649,0,0,0,12.783,23.273m0-16.893a5.257,5.257,0,1,1-5.255,5.257A5.264,5.264,0,0,1,12.783,6.38" transform="translate(0.13)" fill="#fff"/><path d="M32.241,14.866h4.247V8.486H32.241v-8H25.86V22.864h6.381Z" transform="translate(2.938 0.055)" fill="#fff"/><path d="M129.324,23.457v6.368H8.794V23.457H2.412V36.2H135.705V23.457Z" transform="translate(0.274 2.665)" fill="#fff"/><rect width="2.531" height="9.494" transform="translate(76.032 0.585)" fill="#b2112b"/><path d="M76.651,1.992,73.334,5.307l3.318,3.318L74.86,10.415,69.75,5.307,74.86.2Z" transform="translate(7.926 0.023)" fill="#b2112b"/><path d="M83.2,4.123l-.5-.068c-.9-.112-1.207-.373-1.207-.79,0-.459.345-.791,1.039-.791a3.942,3.942,0,0,1,2.225.777L85.987,1.5A5.872,5.872,0,0,0,82.5.38c-2.136,0-3.506,1.179-3.506,2.941S80.1,6,82.137,6.288l.5.069c.931.125,1.195.388,1.195.791,0,.527-.46.886-1.332.886A3.857,3.857,0,0,1,80,7L78.55,8.691a6.152,6.152,0,0,0,3.92,1.451c2.522,0,3.856-1.275,3.856-3.023,0-1.788-1.057-2.7-3.121-3" transform="translate(8.925 0.043)" fill="#fff"/><path d="M89.207.531l-3.365,9.488h2.547l.5-1.656h3.065l.5,1.656h2.559L91.728.531Zm.311,5.809.935-3.007.9,3.007Z" transform="translate(9.754 0.06)" fill="#fff"/><path d="M120.865.531l-1.623,3.353H119.2L117.544.531H115.03l2.938,5.781v3.707h2.439V6.311L123.338.531Z" transform="translate(13.071 0.06)" fill="#fff"/><path d="M101.717,10.019h6.447V7.953h-4V6.337h3.326V4.313h-3.326V2.6h4V.531h-6.447Z" transform="translate(11.558 0.06)" fill="#fff"/><path d="M94.844,10.019h2.442V6.339h3.329V4.315H97.286V2.6h4.007V.531H94.844Z" transform="translate(10.777 0.06)" fill="#fff"/><path d="M108.115,2.6h2.538v7.423h2.441V2.6h2.538V.531h-7.517Z" transform="translate(12.285 0.06)" fill="#fff"/><path d="M68.277,21.514h6.21v-2H70.525v-1.6h3.384v-2H70.525V14.382h3.962v-2h-6.21Z" transform="translate(7.758 1.407)" fill="#fff"/><path d="M82.405,12.38H79.854l-1.335,2.578L77.186,12.38H74.632L77.3,16.832l-2.85,4.683H77.02l1.5-2.811,1.5,2.811h2.567l-2.848-4.683Z" transform="translate(8.46 1.407)" fill="#fff"/><path d="M86.2,12.38H82.584v9.135H84.83V18.257H86.2a2.943,2.943,0,1,0,0-5.877m-.1,3.862H84.83V14.395H86.1a.925.925,0,1,1,0,1.848" transform="translate(9.384 1.407)" fill="#fff"/><path d="M93.019,12.311a3.347,3.347,0,0,0-2.554,1.027c-.961.962-.924,2.245-.924,3.619s-.037,2.654.924,3.615a3.686,3.686,0,0,0,5.1,0c.964-.961.924-2.244.924-3.615s.04-2.657-.924-3.619a3.343,3.343,0,0,0-2.551-1.027m.9,6.876a1.182,1.182,0,0,1-1.794,0c-.2-.268-.335-.563-.335-2.229s.13-1.978.335-2.246a1.211,1.211,0,0,1,1.794,0c.207.268.335.577.335,2.246s-.128,1.961-.335,2.229" transform="translate(10.174 1.399)" fill="#fff"/><path d="M103.838,16.033a2.5,2.5,0,0,0,.217-1.075,2.863,2.863,0,0,0-.359-1.444,2.492,2.492,0,0,0-1.018-.982,3.107,3.107,0,0,0-1.46-.334,3.178,3.178,0,0,0-1.119.192,2.669,2.669,0,0,0-.91.565,2.581,2.581,0,0,0-.607.9,2.924,2.924,0,0,0-.21,1.12v.419h2.033v-.419a.745.745,0,0,1,.813-.869.912.912,0,0,1,.449.1.611.611,0,0,1,.252.271,1.063,1.063,0,0,1,.1.473,1.35,1.35,0,0,1-.35.85l-3.309,4.022v1.637h5.694v-1.9h-2.936l2.057-2.52a4.943,4.943,0,0,0,.661-1" transform="translate(11.177 1.386)" fill="#fff"/><path d="M109.369,12.952a2.688,2.688,0,0,0-.915-.565,3.212,3.212,0,0,0-2.158,0,2.572,2.572,0,0,0-.915.567,2.536,2.536,0,0,0-.618.905,2.986,2.986,0,0,0-.217,1.147v3.707a2.876,2.876,0,0,0,.376,1.478,2.588,2.588,0,0,0,1.033.994,3.122,3.122,0,0,0,2.836,0,2.608,2.608,0,0,0,1.039-.991,2.873,2.873,0,0,0,.379-1.481V15.005a2.975,2.975,0,0,0-.222-1.154,2.658,2.658,0,0,0-.618-.9m-1.2,5.726a1.045,1.045,0,0,1-.224.714.712.712,0,0,1-.577.231.7.7,0,0,1-.568-.229,1.054,1.054,0,0,1-.224-.715V15.041a1.255,1.255,0,0,1,.107-.529.7.7,0,0,1,.258-.3.8.8,0,0,1,.427-.108.791.791,0,0,1,.427.111.666.666,0,0,1,.267.3,1.214,1.214,0,0,1,.107.525Z" transform="translate(11.879 1.386)" fill="#fff"/><path d="M116.252,16.033a2.536,2.536,0,0,0,.217-1.075,2.886,2.886,0,0,0-.359-1.444,2.5,2.5,0,0,0-1.02-.982,3.111,3.111,0,0,0-1.458-.334,3.191,3.191,0,0,0-1.121.192,2.712,2.712,0,0,0-.91.565,2.576,2.576,0,0,0-.6.9,2.884,2.884,0,0,0-.213,1.12v.419h2.036v-.419a.745.745,0,0,1,.813-.869.9.9,0,0,1,.447.1.6.6,0,0,1,.252.271,1.034,1.034,0,0,1,.1.473,1.342,1.342,0,0,1-.352.85l-3.309,4.022v1.637h5.7v-1.9h-2.938l2.061-2.52a5.168,5.168,0,0,0,.659-1" transform="translate(12.587 1.386)" fill="#fff"/><path d="M122.344,17.239a2.371,2.371,0,0,0-.461-.531,2.318,2.318,0,0,0,.7-1.766,2.793,2.793,0,0,0-.363-1.423,2.565,2.565,0,0,0-1.022-.987,3.025,3.025,0,0,0-1.462-.349,3.187,3.187,0,0,0-1.082.183,2.792,2.792,0,0,0-.9.536,2.556,2.556,0,0,0-.623.849,3.158,3.158,0,0,0-.265,1.108l-.026.447h2.025l.035-.381a.92.92,0,0,1,.257-.612.934.934,0,0,1,1.178.018.855.855,0,0,1,.218.648.891.891,0,0,1-.2.641.877.877,0,0,1-.653.2h-.614v1.893h.614a.99.99,0,0,1,.742.237.962.962,0,0,1,.237.708.874.874,0,0,1-.944.966,1.008,1.008,0,0,1-.669-.223.836.836,0,0,1-.271-.645l-.021-.4h-2.025l.01.432a2.64,2.64,0,0,0,.905,2.059,3.161,3.161,0,0,0,2.07.688,3.423,3.423,0,0,0,1.474-.317,2.6,2.6,0,0,0,1.1-.987,2.906,2.906,0,0,0,.4-1.542,2.692,2.692,0,0,0-.37-1.454" transform="translate(13.266 1.384)" fill="#fff"/></g></g></g></svg>