<svg xmlns="http://www.w3.org/2000/svg" xmlns:xlink="http://www.w3.org/1999/xlink" width="335" height="190" viewBox="0 0 335 190"><defs><clipPath id="a"><rect width="294.163" height="76.87" fill="none"/></clipPath></defs><g transform="translate(-20 -3110)"><rect width="335" height="190" rx="10" transform="translate(20 3110)" fill="#123724"/><g transform="translate(40 3167)"><g clip-path="url(#a)"><path d="M0,172.789H2.156v3.551H2.18c.168-.311.349-.621.518-.919l1.566-2.632H6.938L4.36,176.352l2.674,4.8H4.517l-1.71-3.389-.651.857v2.533H0Z" transform="translate(0 -118.297)" fill="#fff"/><path d="M29.258,182.65a3.039,3.039,0,0,1-3.2,3.253,2.975,2.975,0,0,1-3.144-3.141,3.037,3.037,0,0,1,3.264-3.24,2.953,2.953,0,0,1,3.083,3.128m-4.107.062c0,.919.289,1.614.964,1.614.59,0,.9-.633.9-1.614,0-.844-.265-1.614-.9-1.614-.723,0-.964.807-.964,1.614" transform="translate(-15.685 -122.906)" fill="#fff"/><path d="M45.64,181.719c0-.969-.012-1.552-.048-2.061h1.855l.084,1.105h.048a1.7,1.7,0,0,1,1.578-1.242,1.574,1.574,0,0,1,.434.037v2.1a2.288,2.288,0,0,0-.554-.062,1.088,1.088,0,0,0-1.193.77,3.268,3.268,0,0,0-.024.385v3.017H45.64Z" transform="translate(-31.214 -122.906)" fill="#fff"/><path d="M61.716,183.495c.072.484.747.757,1.518.757a5.087,5.087,0,0,0,1.614-.236l.277,1.5a5.965,5.965,0,0,1-2.216.385,2.931,2.931,0,0,1-3.264-3.128,3.078,3.078,0,0,1,3.071-3.253c1.915,0,2.734,1.453,2.734,3.128a4.1,4.1,0,0,1-.084.844Zm1.735-1.515a.891.891,0,0,0-.843-.993.993.993,0,0,0-.916.993Z" transform="translate(-40.834 -122.906)" fill="#fff"/><path d="M85.075,184.276a9.179,9.179,0,0,0,.1,1.49H83.22l-.108-.534h-.048a2.053,2.053,0,0,1-1.638.67,1.89,1.89,0,0,1-1.963-1.924c0-1.639,1.433-2.371,3.445-2.371v-.05c0-.248-.181-.521-.976-.521a3.673,3.673,0,0,0-1.674.447l-.373-1.4a5.139,5.139,0,0,1,2.457-.559,2.417,2.417,0,0,1,2.734,2.694Zm-2.1-1.3c-.892,0-1.385.249-1.385.795a.547.547,0,0,0,.615.583.81.81,0,0,0,.746-.571,1.236,1.236,0,0,0,.024-.31Z" transform="translate(-54.402 -122.906)" fill="#fff"/><path d="M113.515,180.65a5.035,5.035,0,0,1-2.036.348c-3.035,0-4.372-1.949-4.372-4.184a4.238,4.238,0,0,1,4.517-4.457,4.73,4.73,0,0,1,2.024.372l-.422,1.763a3.807,3.807,0,0,0-1.506-.3,2.474,2.474,0,0,0,.048,4.941,4.365,4.365,0,0,0,1.445-.236Z" transform="translate(-73.329 -118.001)" fill="#fff"/><path d="M135.755,182.65a3.039,3.039,0,0,1-3.2,3.253,2.975,2.975,0,0,1-3.144-3.141,3.037,3.037,0,0,1,3.264-3.24,2.953,2.953,0,0,1,3.083,3.128m-4.107.062c0,.919.289,1.614.964,1.614.59,0,.9-.633.9-1.614,0-.844-.265-1.614-.9-1.614-.723,0-.964.807-.964,1.614" transform="translate(-88.596 -122.906)" fill="#fff"/><path d="M152.137,181.744c0-.819-.024-1.515-.048-2.086h1.879l.1.782h.036a2.138,2.138,0,0,1,1.782-.919c1.385,0,2.144.968,2.144,2.644v3.6h-2.18v-3.327c0-.708-.229-1.117-.759-1.117a.752.752,0,0,0-.711.534,1.251,1.251,0,0,0-.06.447v3.464h-2.18Z" transform="translate(-104.125 -122.906)" fill="#fff"/><path d="M173.922,183.892a3.816,3.816,0,0,0,1.638.46c.47,0,.651-.1.651-.335s-.133-.323-.771-.522c-1.313-.435-1.758-1.167-1.747-1.875,0-1.217,1.012-2.1,2.578-2.1a4.511,4.511,0,0,1,1.758.348l-.349,1.514a3.357,3.357,0,0,0-1.313-.335c-.373,0-.59.1-.59.348,0,.2.193.323.891.559,1.168.4,1.614,1.018,1.626,1.9,0,1.167-.879,2.048-2.71,2.048a4.547,4.547,0,0,1-2.036-.434Z" transform="translate(-118.817 -122.906)" fill="#fff"/><path d="M192.555,174.443v1.738h1.229v1.639h-1.229v1.751c0,.733.157,1.03.687,1.03a1.6,1.6,0,0,0,.518-.049v1.7a3.979,3.979,0,0,1-1.289.174,2.069,2.069,0,0,1-1.482-.559,2.622,2.622,0,0,1-.554-1.9V177.82H189.7v-1.639h.734v-1.142Z" transform="translate(-129.875 -119.429)" fill="#fff"/><path d="M205.138,181.719c0-.969-.012-1.552-.048-2.061h1.855l.084,1.105h.048a1.7,1.7,0,0,1,1.578-1.242,1.574,1.574,0,0,1,.434.037v2.1a2.288,2.288,0,0,0-.554-.062,1.088,1.088,0,0,0-1.193.77,3.26,3.26,0,0,0-.024.385v3.017h-2.18Z" transform="translate(-140.411 -122.906)" fill="#fff"/><path d="M225.886,183.977c0,.869.024,1.564.048,2.086h-1.879l-.1-.807h-.036a2.036,2.036,0,0,1-1.795.944c-1.325,0-2.108-.881-2.108-2.644v-3.6h2.18v3.24c0,.782.241,1.2.759,1.2a.739.739,0,0,0,.7-.521.867.867,0,0,0,.048-.323v-3.6h2.18Z" transform="translate(-150.633 -123.202)" fill="#fff"/><path d="M246.245,185.629a4.064,4.064,0,0,1-1.626.261,2.945,2.945,0,0,1-3.216-3.129,3.164,3.164,0,0,1,3.481-3.24,4.326,4.326,0,0,1,1.361.211l-.3,1.639a2.385,2.385,0,0,0-.939-.149,1.334,1.334,0,0,0-1.373,1.453,1.359,1.359,0,0,0,1.433,1.477,2.475,2.475,0,0,0,.951-.161Z" transform="translate(-165.272 -122.906)" fill="#fff"/><path d="M260.372,174.443v1.738H261.6v1.639h-1.229v1.751c0,.733.157,1.03.687,1.03a1.6,1.6,0,0,0,.518-.049v1.7a3.979,3.979,0,0,1-1.289.174,2.069,2.069,0,0,1-1.482-.559,2.621,2.621,0,0,1-.554-1.9V177.82h-.734v-1.639h.734v-1.142Z" transform="translate(-176.305 -119.429)" fill="#fff"/><path d="M275.237,172.322a1.048,1.048,0,0,1-1.12,1.055,1.063,1.063,0,1,1,1.12-1.055m-2.2,1.676h2.18v6.108h-2.18Z" transform="translate(-186.919 -117.246)" fill="#fff"/><path d="M289.067,182.65a3.039,3.039,0,0,1-3.2,3.253,2.975,2.975,0,0,1-3.144-3.141,3.037,3.037,0,0,1,3.264-3.24,2.953,2.953,0,0,1,3.083,3.128m-4.107.062c0,.919.289,1.614.964,1.614.59,0,.9-.633.9-1.614,0-.844-.265-1.614-.9-1.614-.723,0-.964.807-.964,1.614" transform="translate(-193.558 -122.906)" fill="#fff"/><path d="M305.449,181.744c0-.819-.024-1.515-.048-2.086h1.879l.1.782h.036a2.138,2.138,0,0,1,1.782-.919c1.385,0,2.144.968,2.144,2.644v3.6h-2.18v-3.327c0-.708-.229-1.117-.759-1.117a.752.752,0,0,0-.711.534,1.25,1.25,0,0,0-.06.447v3.464h-2.18Z" transform="translate(-209.087 -122.906)" fill="#fff"/><path d="M339.514,180.834a4.473,4.473,0,0,1-.446-.509,3.577,3.577,0,0,1-2.168.646c-2.132,0-2.975-1.254-2.975-2.384a2.6,2.6,0,0,1,1.53-2.384v-.05a2.3,2.3,0,0,1,2.011-3.836,2.121,2.121,0,0,1,2.373,2.036,2.4,2.4,0,0,1-1.53,2.123l-.012.05c.361.41.747.906,1.084,1.242a5.389,5.389,0,0,0,.651-1.875h1.927a6.339,6.339,0,0,1-1.421,3.228c.47.571.963,1.155,1.47,1.713Zm-1.445-1.751c-.506-.5-1.06-1.155-1.626-1.8a1.15,1.15,0,0,0,.771,2.074,1.385,1.385,0,0,0,.855-.273m-1.277-4.705a1.5,1.5,0,0,0,.53,1.08c.494-.385.687-.67.687-1.055a.645.645,0,0,0-.614-.708.629.629,0,0,0-.6.683" transform="translate(-228.616 -117.974)" fill="#fff"/><path d="M368.205,178.627a4.772,4.772,0,0,0,2.108.522c.747,0,1.108-.261,1.108-.683s-.361-.646-1.277-.968c-1.373-.5-2.288-1.279-2.288-2.52,0-1.477,1.216-2.619,3.264-2.619a5.058,5.058,0,0,1,2.192.435l-.458,1.788a4.123,4.123,0,0,0-1.758-.4c-.663,0-1.024.248-1.024.621,0,.422.434.6,1.458.981,1.457.559,2.108,1.366,2.108,2.533,0,1.44-1.084,2.669-3.457,2.669a5.607,5.607,0,0,1-2.385-.509Z" transform="translate(-251.805 -118.001)" fill="#fff"/><path d="M393.723,184.276a9.186,9.186,0,0,0,.1,1.49h-1.951l-.108-.534h-.048a2.053,2.053,0,0,1-1.638.67,1.89,1.89,0,0,1-1.963-1.924c0-1.639,1.433-2.371,3.445-2.371v-.05c0-.248-.181-.521-.976-.521a3.673,3.673,0,0,0-1.674.447l-.373-1.4a5.139,5.139,0,0,1,2.457-.559,2.417,2.417,0,0,1,2.734,2.694Zm-2.1-1.3c-.892,0-1.385.249-1.385.795a.547.547,0,0,0,.615.583.81.81,0,0,0,.746-.571,1.234,1.234,0,0,0,.024-.31Z" transform="translate(-265.712 -122.906)" fill="#fff"/><path d="M408.763,179.89v-4.469H408v-1.639h.759v-.2a2.828,2.828,0,0,1,.771-2.011,2.483,2.483,0,0,1,1.723-.633,4.39,4.39,0,0,1,1,.112l-.048,1.713a2.366,2.366,0,0,0-.554-.062.72.72,0,0,0-.735.782v.3H412v1.639h-1.072v4.469Z" transform="translate(-279.332 -117.03)" fill="#fff"/><path d="M424.013,183.495c.072.484.747.757,1.518.757a5.087,5.087,0,0,0,1.614-.236l.277,1.5a5.966,5.966,0,0,1-2.216.385,2.931,2.931,0,0,1-3.264-3.128,3.078,3.078,0,0,1,3.071-3.253c1.915,0,2.734,1.453,2.734,3.128a4.1,4.1,0,0,1-.084.844Zm1.734-1.515a.891.891,0,0,0-.843-.993.993.993,0,0,0-.915.993Z" transform="translate(-288.874 -122.906)" fill="#fff"/><path d="M444.231,174.443v1.738h1.229v1.639h-1.229v1.751c0,.733.157,1.03.687,1.03a1.6,1.6,0,0,0,.518-.049v1.7a3.98,3.98,0,0,1-1.289.174,2.069,2.069,0,0,1-1.482-.559,2.621,2.621,0,0,1-.554-1.9V177.82h-.735v-1.639h.735v-1.142Z" transform="translate(-302.18 -119.429)" fill="#fff"/><path d="M457.417,179.954l.711,2.744c.085.335.193.782.265,1.093h.036c.073-.323.157-.77.217-1.08l.542-2.756H461.5l-1.265,3.886c-.891,2.558-1.47,3.489-2.108,4.072a3.485,3.485,0,0,1-1.975.894l-.446-1.887a3,3,0,0,0,.746-.236,1.8,1.8,0,0,0,.7-.559.522.522,0,0,0,.108-.273.706.706,0,0,0-.084-.323l-2.168-5.574Z" transform="translate(-311.513 -123.202)" fill="#fff"/><path d="M489.507,177.78h-2.915v1.539h3.264v1.838h-5.444v-8.368h5.276v1.837h-3.1v1.341h2.915Z" transform="translate(-331.644 -118.297)" fill="#fff"/><path d="M505.032,179.954l.47.906c.145.3.3.6.434.869h.024c.133-.323.265-.621.4-.906l.4-.869H509.1l-1.915,2.893,1.927,3.216h-2.457l-.482-.981c-.133-.286-.265-.571-.385-.869h-.024c-.132.31-.265.6-.386.869l-.434.981h-2.361l1.963-3.1-1.939-3Z" transform="translate(-344.087 -123.202)" fill="#fff"/><path d="M524.782,181.743c0-.819-.024-1.514-.048-2.086H526.6l.1.782h.024a2.272,2.272,0,0,1,1.927-.919c1.229,0,2.433,1.13,2.433,3.116,0,2.235-1.409,3.265-2.7,3.265a1.731,1.731,0,0,1-1.409-.584h-.024v2.906h-2.168Zm2.168,1.354a1.778,1.778,0,0,0,.036.372.885.885,0,0,0,.843.732c.65,0,1.048-.571,1.048-1.453s-.338-1.477-1.024-1.477a.923.923,0,0,0-.879.782,1.1,1.1,0,0,0-.024.285Z" transform="translate(-359.249 -122.906)" fill="#fff"/><path d="M553,182.65a3.039,3.039,0,0,1-3.2,3.253,2.975,2.975,0,0,1-3.144-3.141,3.037,3.037,0,0,1,3.264-3.24A2.953,2.953,0,0,1,553,182.65m-4.107.062c0,.919.289,1.614.964,1.614.59,0,.9-.633.9-1.614,0-.844-.265-1.614-.9-1.614-.723,0-.964.807-.964,1.614" transform="translate(-374.254 -122.906)" fill="#fff"/><path d="M575.94,181.508v-1.353l1.084-.981c1.589-1.415,2.4-2.26,2.409-3.079,0-.583-.374-1.005-1.169-1.005a2.908,2.908,0,0,0-1.674.658l-.591-1.6a4.594,4.594,0,0,1,2.7-.844c1.819,0,2.9,1.018,2.9,2.607a4.3,4.3,0,0,1-1.819,3.116l-.771.621v.025h2.722v1.838Z" transform="translate(-394.307 -118.647)" fill="#fff"/><path d="M603.019,177.46c0,2.384-.976,4.184-3.083,4.184-2.24,0-3.072-2.036-3.072-4.159,0-2.185.88-4.184,3.084-4.184,2.288,0,3.071,2.1,3.071,4.159m-3.987.013c-.012,1.751.349,2.5.928,2.5.554,0,.891-.758.891-2.5,0-1.7-.325-2.483-.9-2.483-.554,0-.916.745-.916,2.483" transform="translate(-408.632 -118.647)" fill="#fff"/><path d="M618.554,181.508v-1.353l1.084-.981c1.59-1.415,2.4-2.26,2.409-3.079,0-.583-.373-1.005-1.168-1.005a2.909,2.909,0,0,0-1.674.658l-.59-1.6a4.593,4.593,0,0,1,2.7-.844c1.819,0,2.9,1.018,2.9,2.607a4.3,4.3,0,0,1-1.819,3.116l-.771.621v.025h2.722v1.838Z" transform="translate(-423.481 -118.647)" fill="#fff"/><path d="M640.08,179.4a4.542,4.542,0,0,0,1.867.484c.771,0,1.277-.285,1.277-.857,0-.658-.662-.968-1.385-.968h-.807v-1.589h.771c.542,0,1.228-.174,1.228-.733,0-.41-.373-.683-1.048-.683a3.849,3.849,0,0,0-1.674.46l-.41-1.6a5.32,5.32,0,0,1,2.578-.608c1.734,0,2.758.894,2.758,2.049a1.911,1.911,0,0,1-1.433,1.862v.025a1.933,1.933,0,0,1,1.674,1.912c0,1.49-1.325,2.5-3.348,2.5a4.873,4.873,0,0,1-2.457-.571Z" transform="translate(-437.939 -118.647)" fill="#fff"/><path d="M9.824,65.3c0-.815-.407-1.476-1.222-1.476s-1.222.662-1.222,1.476v1.858H2.29V65.3c0-3.614,2.724-5.548,6.312-5.548s6.567,1.934,6.567,5.548v1.018c0,3.156-1.273,4.734-4,7.661C8.424,76.93,7.635,77.49,7.635,78.737V79.2h7.534v4.072H2.036V78.737c0-1.858.178-3.258,4.632-7.177,2.723-2.367,3.156-3.614,3.156-5.243Z" transform="translate(-1.394 -40.907)" fill="#e3b611"/><path d="M48.519,65.3c0-3.614,2.978-5.548,6.567-5.548s6.566,1.934,6.566,5.548V78.356c0,3.614-2.978,5.548-6.566,5.548s-6.567-1.934-6.567-5.548Zm5.09,13.057a1.476,1.476,0,1,0,2.952,0V65.3a1.476,1.476,0,1,0-2.952,0Z" transform="translate(-33.218 -40.907)" fill="#e3b611"/><path d="M102.791,65.3c0-.815-.407-1.476-1.222-1.476s-1.222.662-1.222,1.476v1.858h-5.09V65.3c0-3.614,2.724-5.548,6.312-5.548s6.567,1.934,6.567,5.548v1.018c0,3.156-1.273,4.734-4,7.661-2.749,2.952-3.537,3.512-3.537,4.759V79.2h7.534v4.072H95V78.737c0-1.858.178-3.258,4.632-7.177,2.723-2.367,3.156-3.614,3.156-5.243Z" transform="translate(-65.042 -40.907)" fill="#e3b611"/><path d="M145.693,68.888l1.68-.127a1.692,1.692,0,0,0,1.6-1.476v-2.24a1.476,1.476,0,0,0-2.952,0V66.9h-5.09V65.3c0-3.614,2.978-5.549,6.567-5.549s6.566,1.934,6.566,5.549v1.73a4.14,4.14,0,0,1-1.985,3.869,4.142,4.142,0,0,1,2.24,3.92v3.537c0,3.614-3.232,5.549-6.821,5.549s-6.821-1.934-6.821-5.549V75.582h5.345v2.774a1.476,1.476,0,1,0,2.952,0V74.564a1.717,1.717,0,0,0-1.731-1.476l-1.553-.127Z" transform="translate(-96.313 -40.907)" fill="#e3b611"/><path d="M214.6,60.776h4.454V58.943h5.854v1.833h4.454v3.69H214.6Zm3.92,13.26c-1.96,0-3.665-1.96-3.665-4.4S216.56,65.2,218.52,65.2h6.973c1.96,0,3.665,1.985,3.665,4.429s-1.705,4.4-3.665,4.4ZM237.252,83.1H215.924V75.257H221.6v3.665h15.653ZM220.174,70.473h3.767c.407,0,.662-.459.662-.84,0-.483-.254-.865-.662-.865h-3.767c-.407,0-.687.382-.687.865,0,.381.28.84.687.84m10.969-11.021h5.6V65.23h2.647v4.606h-2.647v7.076h-5.6Z" transform="translate(-146.922 -40.354)" fill="#e3b611"/><path d="M294.494,69.16h23.415v4h-9.086v2.723h8.2v8.577h-5.5V79.8H295.258V75.879h8.094V73.156h-8.857Zm.764-8.6h21.888l-.687,7.967h-5.37l.331-4.072H295.258Z" transform="translate(-201.62 -41.459)" fill="#e3b611"/><path d="M393.559,71.044h-5.6c-2.7,2.774-7.1,3.843-11.555,3.843V70.815c6.287,0,9.162-2.876,9.162-5.8h-9.035V60.94h14.2v2.8a12.246,12.246,0,0,1-.356,2.978h3.181V60.558h5.625V77.992h-5.625ZM399.566,84.2H377.6V75.854h5.676v4.174h16.289Z" transform="translate(-257.699 -41.46)" fill="#e3b611"/><path d="M456.7,68.676c3.334-.738,4.734-2.571,4.81-5.7V60.684h5.548v2.062c0,3.258,1.374,5.141,4.81,5.93v4.1c-3.385-.407-5.955-1.731-7.584-3.894a10.658,10.658,0,0,1-7.585,3.894Zm1.323,4.989h21.583v6.465H463.651v.992h16.34V84.2H458.026V77.508H474.01v-.865H458.026Zm11.3-10.333h4.683V60.557h5.6V73.028h-5.6V67.353h-4.683Z" transform="translate(-312.673 -41.459)" fill="#e3b611"/><path d="M538.211,66.258c0-3.742,3.054-5.7,6.8-5.7s6.8,1.96,6.8,5.7v2.876c0,3.741-3.054,5.65-6.8,5.65s-6.8-1.909-6.8-5.65Zm22.4,17.943H539.28V76.108h5.676v3.919h15.653Zm-17.282-14.94a1.585,1.585,0,0,0,1.731,1.6,1.606,1.606,0,0,0,1.756-1.6V66.106a1.626,1.626,0,0,0-1.756-1.629,1.605,1.605,0,0,0-1.731,1.629Zm11.173-8.7h5.6v5.778h2.647v4.606H560.1v6.821h-5.6Z" transform="translate(-368.476 -41.459)" fill="#e3b611"/><path d="M633.273,75.447c-3.385-.484-5.956-1.578-7.585-3.818-1.654,2.24-4.225,3.334-7.585,3.818V71.095c2.952-.407,5.065-2.062,5.065-5.294v-.56h-4.81v-4.3h14.66v4.3h-4.81v.789c.076,3.054,2.163,4.658,5.065,5.065Zm8.119,8.755H619.428V76.109H625.1v3.919h16.289ZM631.008,66.132h4.378V60.558h5.625V78.119h-5.625v-8.17h-4.378Z" transform="translate(-423.173 -41.46)" fill="#e3b611"/><path d="M699.613,60.812h5.37v2.265h2.978V60.812h5.269V73.919H699.613Zm.814,14.558H721.5v9.086h-5.854V79.569h-15.22Zm4.556-5.5h2.978V67.124h-2.978ZM715.9,60.557h5.6v4.378h2.647v4.479H721.5v5.319h-5.6Z" transform="translate(-478.977 -41.459)" fill="#e3b611"/><path d="M780.313,60.939H793.9v8.093h-8.221v1.451l10.257-.713v3.742l-15.627,1.043V65.7h8.2V64.553h-8.2Zm1.069,14.2H802.2V84.2h-5.625v-.662l-15.195.662Zm5.65,5.116,9.544-.356V78.831h-9.544Zm9.57-19.7h5.6v4.505h2.647v4.454H802.2v5.065h-5.6Z" transform="translate(-534.227 -41.459)" fill="#e3b611"/><path d="M859.4,78.771l5.345-.306V75.258H870.5v2.851l5.676-.356v4.327L859.4,83.1Zm.254-17.994h4.963V58.944h5.956v1.832h4.963v3.945H859.654Zm4,13.719c-1.959,0-3.741-2.036-3.741-4.556,0-2.545,1.782-4.581,3.741-4.581h7.941c1.96,0,3.741,2.036,3.741,4.581,0,2.519-1.781,4.556-3.741,4.556Zm1.629-3.69h4.785a.838.838,0,0,0,.713-.865.813.813,0,0,0-.713-.891h-4.785a.831.831,0,0,0-.738.891.858.858,0,0,0,.738.865m11.53-11.351h5.726V83.1h-5.726Z" transform="translate(-588.372 -40.355)" fill="#e3b611"/><path d="M11.774.906,7.311,6.731H9.59l2.455,6.111H8.437L6.429,7.874,5.168,9.53v3.312H2.143V.906H5.168V4.918L8.206.906Z" transform="translate(-1.467 -0.62)" fill="#e3b611"/><rect width="7.597" height="2.799" transform="translate(11.323 4.54)" fill="#e3b611"/><path d="M65.378,6.254c0,2.427,1.017,3.455,2.6,3.455a2.259,2.259,0,0,0,2.5-2.17h3.052c0,2.627-1.75,4.969-5.548,4.969-3.73,0-5.63-2.342-5.63-6.254S64.252,0,67.983,0c3.8,0,5.548,2.342,5.548,4.969H70.478a2.259,2.259,0,0,0-2.5-2.17c-1.587,0-2.6,1.028-2.6,3.455" transform="translate(-42.689)" fill="#e3b611"/><path d="M98.436,6.254c0-3.912,1.9-6.254,5.63-6.254s5.63,2.342,5.63,6.254-1.9,6.254-5.63,6.254-5.63-2.342-5.63-6.254m3.025,0c0,2.427,1.017,3.455,2.6,3.455s2.6-1.028,2.6-3.455-1.017-3.455-2.6-3.455-2.6,1.028-2.6,3.455" transform="translate(-67.392)" fill="#e3b611"/><path d="M135.637,12.842V.906h3.432l3.717,7.339V.906h3.025V12.842h-3.432l-3.717-7.067v7.067Z" transform="translate(-92.861 -0.62)" fill="#e3b611"/><path d="M169.4,3.855c0-2.385,1.37-3.855,4.883-3.855s4.883,1.471,4.883,3.855h-3.052c0-.871-.448-1.128-1.831-1.128-1.506,0-1.831.385-1.831,1.056,0,.771.448,1.071,1.967,1.071,3.648,0,5.019,1.413,5.019,3.8s-1.371,3.855-5.019,3.855S169.4,11.037,169.4,8.652h3.052c0,.871.448,1.128,1.967,1.128,1.641,0,1.966-.386,1.966-1.057,0-.771-.447-1.071-1.966-1.071-3.649,0-5.019-1.413-5.019-3.8" transform="translate(-115.975)" fill="#e3b611"/><path d="M210.292,2.334,213.4,12.842h-3.161l-.651-2.213H205.68l-.651,2.213h-3.161L205.4.906h3.134l-.42,1.428Zm-3.8,5.526h2.279l-1.14-3.9Z" transform="translate(-138.205 -0.62)" fill="#e3b611"/><path d="M248.1,8.559h-5.141v4.283H239.93V.906h8.7V3.7h-5.67V5.76H248.1Z" transform="translate(-164.263 -0.62)" fill="#e3b611"/><path d="M278.165,8.2h-5.277v1.842h5.806v2.8h-8.831V.907h8.831V3.7h-5.806V5.547h5.277Z" transform="translate(-184.757 -0.621)" fill="#e3b611"/><path d="M303.658,12.842V3.7h-3.432V.906h9.9V3.7h-3.446v9.138Z" transform="translate(-205.544 -0.62)" fill="#e3b611"/><path d="M337.237,12.842V8.716l-4.11-7.81h3.364l2.266,4.726L341.022.906h3.364l-4.124,7.81v4.126Z" transform="translate(-228.069 -0.62)" fill="#e3b611"/><path d="M389.6,8.2H384.32v1.842h5.806v2.8H381.3V.907h8.831V3.7H384.32V5.547H389.6Z" transform="translate(-261.047 -0.621)" fill="#e3b611"/><path d="M416.292,8.688l-2.2,4.155h-3.3l3.039-5.968L410.8.907h3.3l2.2,4.155,2.2-4.155h3.3l-3.039,5.968,3.039,5.968h-3.3Z" transform="translate(-281.245 -0.621)" fill="#e3b611"/><path d="M447.139,12.842V.906h4.816c3.595,0,5.223,1.485,5.223,4.469s-1.628,4.469-5.223,4.469h-1.791v3Zm4.816-5.8c1.384,0,2.2-.314,2.2-1.671s-.814-1.671-2.2-1.671h-1.791V7.045Z" transform="translate(-306.125 -0.62)" fill="#e3b611"/><path d="M479.609,6.254c0-3.912,1.9-6.254,5.63-6.254s5.63,2.342,5.63,6.254-1.9,6.254-5.63,6.254-5.63-2.342-5.63-6.254m3.025,0c0,2.427,1.017,3.455,2.6,3.455s2.6-1.028,2.6-3.455-1.017-3.455-2.6-3.455-2.6,1.028-2.6,3.455" transform="translate(-328.355)" fill="#e3b611"/><path d="M3.45,222.4a2.056,2.056,0,0,0,.968-.161.659.659,0,0,0,.028-1.049,1.722,1.722,0,0,0-.868-.169,1.717,1.717,0,0,0-.88.149.559.559,0,0,0-.25.512v.226H.585v-.21a2.7,2.7,0,0,1,.173-1.017,1.611,1.611,0,0,1,.545-.7,2.548,2.548,0,0,1,.96-.408,6.59,6.59,0,0,1,1.429-.133A5.149,5.149,0,0,1,5,219.587a2.317,2.317,0,0,1,.887.428,1.659,1.659,0,0,1,.5.714,2.833,2.833,0,0,1,.161,1,2.633,2.633,0,0,1-.165.988,1.516,1.516,0,0,1-.529.67,2.487,2.487,0,0,1-.932.387,6.787,6.787,0,0,1-1.376.133,2.869,2.869,0,0,0-.521.04.945.945,0,0,0-.343.125.48.48,0,0,0-.186.222.9.9,0,0,0-.056.339v.137H6.4v1.582H.585v-1.719a2.946,2.946,0,0,1,.157-1.021,1.518,1.518,0,0,1,.5-.69,2.292,2.292,0,0,1,.892-.392A5.947,5.947,0,0,1,3.45,222.4" transform="translate(-0.401 -150.237)" fill="#fff"/><path d="M27.431,222.977a5.138,5.138,0,0,1-.2,1.485,3,3,0,0,1-.593,1.11,2.566,2.566,0,0,1-1,.7,4.168,4.168,0,0,1-2.8,0,2.561,2.561,0,0,1-1-.7,2.991,2.991,0,0,1-.593-1.11,5.673,5.673,0,0,1,0-2.97,2.989,2.989,0,0,1,.593-1.11,2.561,2.561,0,0,1,1-.7,4.167,4.167,0,0,1,2.8,0,2.565,2.565,0,0,1,1,.7,3,3,0,0,1,.593,1.11,5.137,5.137,0,0,1,.2,1.485m-1.8,0a2.488,2.488,0,0,0-.351-1.493,1.4,1.4,0,0,0-2.074,0,3.35,3.35,0,0,0,0,2.986,1.4,1.4,0,0,0,2.074,0,2.487,2.487,0,0,0,.351-1.493" transform="translate(-14.416 -150.237)" fill="#fff"/><path d="M45.926,222.4a2.056,2.056,0,0,0,.968-.161.659.659,0,0,0,.028-1.049,2.475,2.475,0,0,0-1.747-.02.559.559,0,0,0-.25.512v.226H43.061v-.21a2.7,2.7,0,0,1,.173-1.017,1.611,1.611,0,0,1,.545-.7,2.548,2.548,0,0,1,.96-.408,6.59,6.59,0,0,1,1.429-.133,5.149,5.149,0,0,1,1.311.145,2.317,2.317,0,0,1,.887.428,1.659,1.659,0,0,1,.5.714,2.833,2.833,0,0,1,.161,1,2.633,2.633,0,0,1-.165.988,1.516,1.516,0,0,1-.529.67,2.487,2.487,0,0,1-.932.387,6.787,6.787,0,0,1-1.376.133,2.869,2.869,0,0,0-.521.04.945.945,0,0,0-.343.125.48.48,0,0,0-.186.222.9.9,0,0,0-.056.339v.137h3.946v1.582h-5.81v-1.719a2.946,2.946,0,0,1,.157-1.021,1.518,1.518,0,0,1,.5-.69,2.292,2.292,0,0,1,.892-.392,5.947,5.947,0,0,1,1.311-.125" transform="translate(-29.481 -150.237)" fill="#fff"/><path d="M67.149,226.51a5.763,5.763,0,0,1-1.429-.153,2.7,2.7,0,0,1-.96-.436,1.7,1.7,0,0,1-.545-.682,2.236,2.236,0,0,1-.174-.9v-.3h1.864v.315a.455.455,0,0,0,.274.44,2.454,2.454,0,0,0,.969.133,2.1,2.1,0,0,0,.9-.137.487.487,0,0,0,.258-.468.471.471,0,0,0-.275-.468,2.487,2.487,0,0,0-.96-.129h-.928v-1.5h.928a5.072,5.072,0,0,0,.585-.028,1.168,1.168,0,0,0,.383-.1.451.451,0,0,0,.206-.185.594.594,0,0,0,.061-.283.488.488,0,0,0-.258-.464,2.046,2.046,0,0,0-.9-.141,2.453,2.453,0,0,0-.969.133.455.455,0,0,0-.274.44v.315H64.042v-.3a2.262,2.262,0,0,1,.17-.892,1.721,1.721,0,0,1,.533-.686,2.561,2.561,0,0,1,.936-.44,5.435,5.435,0,0,1,1.388-.154,5.754,5.754,0,0,1,1.424.154,2.684,2.684,0,0,1,.964.436,1.7,1.7,0,0,1,.545.682,2.235,2.235,0,0,1,.174.9,2.761,2.761,0,0,1-.032.419,1.337,1.337,0,0,1-.125.4,1.19,1.19,0,0,1-.247.331.258.258,0,1,0,0,.435,1.172,1.172,0,0,1,.247.335,1.39,1.39,0,0,1,.125.4,2.712,2.712,0,0,1,.032.412,2.251,2.251,0,0,1-.17.892,1.722,1.722,0,0,1-.533.686,2.565,2.565,0,0,1-.94.44,5.46,5.46,0,0,1-1.384.153" transform="translate(-43.845 -150.236)" fill="#fff"/><rect width="1.533" height="1.582" transform="translate(27.056 74.531)" fill="#fff"/><path d="M105.017,210.986a7.707,7.707,0,0,1,2.064.242,4.02,4.02,0,0,1,1.409.672,2.611,2.611,0,0,1,.808,1.038,3.406,3.406,0,0,1,.259,1.35v3.373a4.408,4.408,0,0,1-.254,1.551,2.778,2.778,0,0,1-.8,1.15,3.641,3.641,0,0,1-1.4.713,7.472,7.472,0,0,1-2.029.242,7.638,7.638,0,0,1-2.034-.236,4.232,4.232,0,0,1-1.392-.643,2.494,2.494,0,0,1-.8-.956,2.761,2.761,0,0,1-.254-1.173h2.713a.55.55,0,0,0,.436.554,4.64,4.64,0,0,0,1.333.142,2.266,2.266,0,0,0,1.333-.319,1.185,1.185,0,0,0,.436-1.026v-.613a4.264,4.264,0,0,1-.967.395,4.96,4.96,0,0,1-1.309.148,5.777,5.777,0,0,1-1.752-.242,3.756,3.756,0,0,1-1.279-.672,2.83,2.83,0,0,1-.79-1.038,3.273,3.273,0,0,1-.271-1.351,3.4,3.4,0,0,1,.26-1.35,2.607,2.607,0,0,1,.808-1.038,4.016,4.016,0,0,1,1.41-.672,7.7,7.7,0,0,1,2.064-.242m0,4.411a2.636,2.636,0,0,0,1.333-.289.993.993,0,0,0,.053-1.686,4.091,4.091,0,0,0-2.772,0,1.071,1.071,0,0,0,0,1.734,3.01,3.01,0,0,0,1.386.242" transform="translate(-68.789 -144.448)" fill="#fff"/><rect width="2.241" height="2.312" transform="translate(41.83 74.323)" fill="#fff"/><path d="M163.767,221.594H156.69v-2.312h2.335v-5.237h-2.453l1.415-2.312h3.668v7.548h2.111Z" transform="translate(-107.194 -144.96)" fill="#fff"/><path d="M189.536,221.318a8.389,8.389,0,0,1-2.087-.224,3.941,3.941,0,0,1-1.4-.637,2.489,2.489,0,0,1-.8-1,3.268,3.268,0,0,1-.254-1.315v-.436h2.724v.46a.665.665,0,0,0,.4.643,3.58,3.58,0,0,0,1.415.195,3.063,3.063,0,0,0,1.321-.2.71.71,0,0,0,.378-.684.689.689,0,0,0-.4-.684,3.637,3.637,0,0,0-1.4-.189h-1.356v-2.194h1.356a7.465,7.465,0,0,0,.855-.041,1.721,1.721,0,0,0,.56-.148.66.66,0,0,0,.3-.271.868.868,0,0,0,.088-.413.713.713,0,0,0-.378-.678,2.987,2.987,0,0,0-1.321-.207,3.58,3.58,0,0,0-1.415.195.665.665,0,0,0-.4.643v.46H185v-.436a3.309,3.309,0,0,1,.248-1.3,2.52,2.52,0,0,1,.778-1,3.754,3.754,0,0,1,1.368-.643,7.95,7.95,0,0,1,2.028-.224,8.421,8.421,0,0,1,2.082.224,3.938,3.938,0,0,1,1.409.637,2.491,2.491,0,0,1,.8,1,3.27,3.27,0,0,1,.254,1.315,4.055,4.055,0,0,1-.047.613,1.946,1.946,0,0,1-.183.578,1.727,1.727,0,0,1-.36.483,1.415,1.415,0,0,1-.578.319,1.414,1.414,0,0,1,.578.318,1.7,1.7,0,0,1,.36.489,2.023,2.023,0,0,1,.183.584,3.987,3.987,0,0,1,.047.6,3.3,3.3,0,0,1-.248,1.3,2.521,2.521,0,0,1-.778,1,3.753,3.753,0,0,1-1.374.643,7.957,7.957,0,0,1-2.023.224" transform="translate(-126.653 -144.448)" fill="#fff"/><path d="M217.362,221.463a9.344,9.344,0,0,0,.049.968,6.424,6.424,0,0,0,.169.94,7.777,7.777,0,0,0,.319.964,11.036,11.036,0,0,0,.488,1.041h-1.88q-.242-.5-.424-.969a7.4,7.4,0,0,1-.295-.936,7.908,7.908,0,0,1-.169-.96,9.78,9.78,0,0,1,0-2.1,7.929,7.929,0,0,1,.169-.96,7.433,7.433,0,0,1,.295-.936q.182-.468.424-.968h1.88a11,11,0,0,0-.488,1.041,7.756,7.756,0,0,0-.319.964,6.425,6.425,0,0,0-.169.944,9.388,9.388,0,0,0-.049.964" transform="translate(-147.581 -148.941)" fill="#fff"/><path d="M233.989,223.333v1.614h-2.784v1.13h-1.856v-1.13h-2.784v-1.614Zm-5.124-.323h-2.219l2.744-4.438h2.138l-.968,1.614H232.1l1.808,2.824h-2.251l-1.388-2.348Z" transform="translate(-155.114 -149.641)" fill="#fff"/><path d="M253.177,221.463a9.392,9.392,0,0,0-.049-.964,6.423,6.423,0,0,0-.169-.944,7.751,7.751,0,0,0-.319-.964,11.009,11.009,0,0,0-.488-1.041h1.88q.242.5.424.968a7.421,7.421,0,0,1,.294.936,8,8,0,0,1,.17.96,9.77,9.77,0,0,1,0,2.1,7.974,7.974,0,0,1-.17.96,7.39,7.39,0,0,1-.294.936q-.182.468-.424.969h-1.88a11.047,11.047,0,0,0,.488-1.041,7.772,7.772,0,0,0,.319-.964,6.422,6.422,0,0,0,.169-.94,9.348,9.348,0,0,0,.049-.968" transform="translate(-172.631 -148.941)" fill="#fff"/><path d="M270.832,227.635a3.879,3.879,0,0,1,.359-.916,2.4,2.4,0,0,1,.476-.609,1.6,1.6,0,0,1,.569-.335,2.083,2.083,0,0,1,.654-.1,1.227,1.227,0,0,1,.646.161,5.244,5.244,0,0,1,.513.355,5.21,5.21,0,0,0,.508.355,1.165,1.165,0,0,0,.625.161.674.674,0,0,0,.609-.29,2.036,2.036,0,0,0,.27-.783l1.307.807a3.821,3.821,0,0,1-.359.92,2.42,2.42,0,0,1-.476.605,1.6,1.6,0,0,1-.569.335,2.078,2.078,0,0,1-.653.1,1.223,1.223,0,0,1-.646-.161,5.02,5.02,0,0,1-.512-.355,5.564,5.564,0,0,0-.509-.355,1.17,1.17,0,0,0-.625-.161.674.674,0,0,0-.61.291,2.035,2.035,0,0,0-.27.783Z" transform="translate(-185.42 -154.476)" fill="#fff"/><path d="M311.566,221.594H304.49v-2.312h2.335v-5.237h-2.453l1.415-2.312h3.668v7.548h2.111Z" transform="translate(-208.382 -144.96)" fill="#fff"/><path d="M339.171,218.35a.959.959,0,0,0-.448-.914,2.414,2.414,0,0,0-1.191-.254,2.669,2.669,0,0,0-.973.159,1.425,1.425,0,0,0-.666.536h-2.724v-6.145h8.256v2.312h-5.531v1.285a3.734,3.734,0,0,1,.89-.342,5.045,5.045,0,0,1,1.186-.118,5.226,5.226,0,0,1,1.622.236,3.554,3.554,0,0,1,1.238.678,2.948,2.948,0,0,1,.79,1.091,3.721,3.721,0,0,1,.277,1.474,3.187,3.187,0,0,1-1.073,2.565,4.989,4.989,0,0,1-3.291.914,7.23,7.23,0,0,1-1.969-.236,4.034,4.034,0,0,1-1.356-.643,2.552,2.552,0,0,1-.784-.956,2.757,2.757,0,0,1-.254-1.173h2.724a.546.546,0,0,0,.413.554,4.014,4.014,0,0,0,1.227.142,2.41,2.41,0,0,0,1.191-.254.958.958,0,0,0,.448-.914" transform="translate(-228.097 -144.96)" fill="#fff"/><path d="M365.16,221.463a9.34,9.34,0,0,0,.049.968,6.427,6.427,0,0,0,.169.94,7.756,7.756,0,0,0,.319.964,11.025,11.025,0,0,0,.488,1.041H364.3q-.242-.5-.424-.969a7.4,7.4,0,0,1-.295-.936,7.9,7.9,0,0,1-.169-.96,9.764,9.764,0,0,1,0-2.1,7.917,7.917,0,0,1,.169-.96,7.428,7.428,0,0,1,.295-.936q.182-.468.424-.968h1.88a10.987,10.987,0,0,0-.488,1.041,7.735,7.735,0,0,0-.319.964,6.427,6.427,0,0,0-.169.944,9.384,9.384,0,0,0-.049.964" transform="translate(-248.768 -148.941)" fill="#fff"/><path d="M381.787,223.145h-7.424v-1.291h7.424Zm-7.182-2.905v-1.412h6.94l-.323,2.7h-1.856l.153-1.291Zm6.94,5.931h-6.94v-2.7h6.94Zm-5.165-1.154h3.389v-.379H376.38Z" transform="translate(-256.301 -149.816)" fill="#fff"/><path d="M400.976,221.463a9.4,9.4,0,0,0-.049-.964,6.419,6.419,0,0,0-.169-.944,7.755,7.755,0,0,0-.319-.964,10.987,10.987,0,0,0-.488-1.041h1.88q.242.5.424.968a7.441,7.441,0,0,1,.294.936,8.007,8.007,0,0,1,.17.96,9.78,9.78,0,0,1,0,2.1,7.986,7.986,0,0,1-.17.96,7.409,7.409,0,0,1-.294.936q-.182.468-.424.969h-1.88a11.025,11.025,0,0,0,.488-1.041,7.777,7.777,0,0,0,.319-.964,6.419,6.419,0,0,0,.169-.94,9.357,9.357,0,0,0,.049-.968" transform="translate(-273.819 -148.941)" fill="#fff"/><path d="M411.466,236.33H413l-.4,2.066h-1.13Z" transform="translate(-281.702 -161.799)" fill="#fff"/><path d="M429.157,226.51a5.762,5.762,0,0,1-1.428-.153,2.7,2.7,0,0,1-.96-.436,1.7,1.7,0,0,1-.545-.682,2.236,2.236,0,0,1-.174-.9v-.3h1.864v.315a.455.455,0,0,0,.274.44,2.453,2.453,0,0,0,.968.133,2.1,2.1,0,0,0,.9-.137.487.487,0,0,0,.258-.468.471.471,0,0,0-.275-.468,2.487,2.487,0,0,0-.96-.129h-.928v-1.5h.928a5.061,5.061,0,0,0,.585-.028,1.167,1.167,0,0,0,.383-.1.451.451,0,0,0,.206-.185.594.594,0,0,0,.061-.283.488.488,0,0,0-.258-.464,2.048,2.048,0,0,0-.9-.141,2.452,2.452,0,0,0-.968.133.455.455,0,0,0-.274.44v.315H426.05v-.3a2.263,2.263,0,0,1,.17-.892,1.723,1.723,0,0,1,.533-.686,2.565,2.565,0,0,1,.936-.44,5.435,5.435,0,0,1,1.388-.154,5.756,5.756,0,0,1,1.424.154,2.686,2.686,0,0,1,.964.436,1.7,1.7,0,0,1,.545.682,2.234,2.234,0,0,1,.174.9,2.759,2.759,0,0,1-.032.419,1.337,1.337,0,0,1-.125.4,1.19,1.19,0,0,1-.246.331.258.258,0,1,0,0,.435,1.171,1.171,0,0,1,.246.335,1.39,1.39,0,0,1,.125.4,2.71,2.71,0,0,1,.032.412,2.257,2.257,0,0,1-.17.892,1.722,1.722,0,0,1-.533.686,2.565,2.565,0,0,1-.94.44,5.462,5.462,0,0,1-1.384.153" transform="translate(-291.687 -150.236)" fill="#fff"/><path d="M451.444,219.957a1.682,1.682,0,0,1-.621,1.412,3.737,3.737,0,0,1-3.68,0,1.915,1.915,0,0,1,0-2.824,3.737,3.737,0,0,1,3.68,0,1.682,1.682,0,0,1,.621,1.412m2.663,4.72v1.049h-7.343v-2.259h5.326v-.243h-5.326v-1.049h7.343v2.26h-5.326v.242Zm-5.124-4.2a1.163,1.163,0,0,0,.666-.137.5.5,0,0,0,0-.775,1.685,1.685,0,0,0-1.332,0,.5.5,0,0,0,0,.775,1.163,1.163,0,0,0,.666.137m5.124,1.453h-1.856v-3.793h1.856Z" transform="translate(-305.702 -149.291)" fill="#fff"/><path d="M475.3,222.836a10.506,10.506,0,0,0,.327-1.336,10.726,10.726,0,0,0,.141-1.327h-2.889v-1.614h4.761v.807a17.316,17.316,0,0,1-.089,1.735,7.3,7.3,0,0,1-.4,1.735Zm-.565.323v1.21H479.9V225.9h-7.021v-2.744Zm5.81-3.107v1.695H479.9v1.735h-1.856v-5.164H479.9v1.735Z" transform="translate(-323.746 -149.467)" fill="#fff"/></g></g></g></svg>