<svg xmlns="http://www.w3.org/2000/svg" xmlns:xlink="http://www.w3.org/1999/xlink" width="618" height="376" viewBox="0 0 618 376"><defs><clipPath id="a"><rect width="519.47" height="135.747" fill="none"/></clipPath></defs><g transform="translate(-972 -3400)"><rect width="618" height="376" rx="10" transform="translate(972 3400)" fill="#123724"/><g transform="translate(1021 3520)"><g clip-path="url(#a)"><path d="M0,172.789H3.807v6.271H3.85c.3-.549.617-1.1.914-1.623l2.765-4.648h4.722L7.7,179.081l4.722,8.485H7.976l-3.02-5.985-1.149,1.513v4.473H0Z" transform="translate(0 -76.56)" fill="#fff"/><path d="M34.12,185.047a5.367,5.367,0,0,1-5.658,5.745,5.254,5.254,0,0,1-5.552-5.547,5.363,5.363,0,0,1,5.765-5.722,5.215,5.215,0,0,1,5.445,5.525m-7.253.11c0,1.623.511,2.85,1.7,2.85,1.042,0,1.6-1.118,1.6-2.85,0-1.491-.468-2.85-1.6-2.85-1.276,0-1.7,1.425-1.7,2.85" transform="translate(-10.151 -79.543)" fill="#fff"/><path d="M45.677,183.4c0-1.71-.021-2.741-.085-3.639h3.276l.149,1.951H49.1a3,3,0,0,1,2.786-2.193,2.779,2.779,0,0,1,.766.066v3.705a4.04,4.04,0,0,0-.978-.11,1.921,1.921,0,0,0-2.106,1.359,5.772,5.772,0,0,0-.042.68v5.327h-3.85Z" transform="translate(-20.201 -79.543)" fill="#fff"/><path d="M63.3,186.537c.128.855,1.319,1.338,2.68,1.338a8.984,8.984,0,0,0,2.85-.417l.49,2.653a10.535,10.535,0,0,1-3.914.679c-3.68,0-5.764-2.1-5.764-5.525,0-2.5,1.574-5.744,5.424-5.744,3.382,0,4.828,2.565,4.828,5.525a7.238,7.238,0,0,1-.149,1.491Zm3.063-2.675a1.573,1.573,0,0,0-1.489-1.754,1.754,1.754,0,0,0-1.617,1.754Z" transform="translate(-26.427 -79.543)" fill="#fff"/><path d="M89.374,187.918a16.208,16.208,0,0,0,.17,2.631H86.1l-.192-.943h-.085a3.625,3.625,0,0,1-2.893,1.184,3.337,3.337,0,0,1-3.467-3.4c0-2.894,2.531-4.187,6.083-4.187v-.088c0-.438-.319-.921-1.723-.921a6.486,6.486,0,0,0-2.957.789l-.659-2.477a9.075,9.075,0,0,1,4.34-.987c3.594,0,4.828,2.061,4.828,4.758Zm-3.7-2.3c-1.574,0-2.447.439-2.447,1.4a.966.966,0,0,0,1.085,1.03,1.43,1.43,0,0,0,1.318-1.009,2.183,2.183,0,0,0,.043-.548Z" transform="translate(-35.208 -79.543)" fill="#fff"/><path d="M118.423,187a8.892,8.892,0,0,1-3.595.614c-5.36,0-7.721-3.442-7.721-7.389,0-5.218,3.7-7.87,7.976-7.87a8.352,8.352,0,0,1,3.574.658l-.745,3.113a6.723,6.723,0,0,0-2.659-.526c-2.191,0-4.105,1.338-4.105,4.363,0,2.7,1.553,4.363,4.19,4.363a7.709,7.709,0,0,0,2.552-.417Z" transform="translate(-47.457 -76.368)" fill="#fff"/><path d="M140.617,185.047a5.367,5.367,0,0,1-5.658,5.745,5.254,5.254,0,0,1-5.552-5.547,5.363,5.363,0,0,1,5.765-5.722,5.215,5.215,0,0,1,5.445,5.525m-7.253.11c0,1.623.511,2.85,1.7,2.85,1.042,0,1.6-1.118,1.6-2.85,0-1.491-.468-2.85-1.6-2.85-1.276,0-1.7,1.425-1.7,2.85" transform="translate(-57.338 -79.543)" fill="#fff"/><path d="M152.174,183.446c0-1.447-.042-2.675-.085-3.683h3.318l.17,1.381h.064a3.776,3.776,0,0,1,3.148-1.622c2.446,0,3.786,1.71,3.786,4.67v6.358h-3.85v-5.875c0-1.25-.4-1.973-1.34-1.973a1.328,1.328,0,0,0-1.255.942,2.209,2.209,0,0,0-.106.79v6.117h-3.85Z" transform="translate(-67.388 -79.543)" fill="#fff"/><path d="M174.208,187.239a6.74,6.74,0,0,0,2.893.811c.83,0,1.149-.175,1.149-.592,0-.395-.234-.57-1.362-.921-2.318-.767-3.105-2.061-3.084-3.311,0-2.149,1.787-3.7,4.552-3.7a7.967,7.967,0,0,1,3.105.614l-.617,2.674a5.928,5.928,0,0,0-2.318-.591c-.659,0-1.042.175-1.042.614,0,.351.34.57,1.574.986,2.063.7,2.85,1.8,2.871,3.355,0,2.061-1.553,3.617-4.786,3.617a8.03,8.03,0,0,1-3.595-.767Z" transform="translate(-76.896 -79.543)" fill="#fff"/><path d="M194.742,174.443v3.07h2.17v2.894h-2.17V183.5c0,1.294.277,1.819,1.212,1.819a2.827,2.827,0,0,0,.914-.087v3a7.027,7.027,0,0,1-2.276.307,3.653,3.653,0,0,1-2.616-.986A4.63,4.63,0,0,1,191,184.2v-3.793h-1.3v-2.894H191V175.5Z" transform="translate(-84.053 -77.293)" fill="#fff"/><path d="M205.175,183.4c0-1.71-.021-2.741-.085-3.639h3.276l.149,1.951h.085a3,3,0,0,1,2.786-2.193,2.779,2.779,0,0,1,.766.066v3.705a4.04,4.04,0,0,0-.978-.11,1.921,1.921,0,0,0-2.106,1.359,5.772,5.772,0,0,0-.042.68v5.327h-3.85Z" transform="translate(-90.872 -79.543)" fill="#fff"/><path d="M230.379,187.057c0,1.535.043,2.762.085,3.683h-3.318l-.17-1.425h-.063a3.6,3.6,0,0,1-3.169,1.666c-2.34,0-3.722-1.557-3.722-4.67v-6.358h3.85v5.722c0,1.381.426,2.126,1.34,2.126a1.306,1.306,0,0,0,1.234-.921,1.532,1.532,0,0,0,.085-.57v-6.358h3.85Z" transform="translate(-97.487 -79.734)" fill="#fff"/><path d="M249.954,190.308a7.177,7.177,0,0,1-2.871.461c-3.489,0-5.679-2.105-5.679-5.525,0-3.091,2.063-5.722,6.147-5.722a7.639,7.639,0,0,1,2.4.373l-.532,2.894a4.213,4.213,0,0,0-1.659-.263,2.355,2.355,0,0,0-2.425,2.565,2.4,2.4,0,0,0,2.531,2.609,4.371,4.371,0,0,0,1.68-.285Z" transform="translate(-106.961 -79.543)" fill="#fff"/><path d="M262.559,174.443v3.07h2.17v2.894h-2.17V183.5c0,1.294.277,1.819,1.212,1.819a2.827,2.827,0,0,0,.914-.087v3a7.027,7.027,0,0,1-2.276.307,3.653,3.653,0,0,1-2.616-.986,4.629,4.629,0,0,1-.979-3.354v-3.793h-1.3v-2.894h1.3V175.5Z" transform="translate(-114.102 -77.293)" fill="#fff"/><path d="M276.934,173.14A1.851,1.851,0,0,1,274.957,175a1.877,1.877,0,1,1,1.978-1.863m-3.892,2.96h3.85v10.787h-3.85Z" transform="translate(-120.971 -75.88)" fill="#fff"/><path d="M293.929,185.047a5.367,5.367,0,0,1-5.658,5.745,5.254,5.254,0,0,1-5.552-5.547,5.363,5.363,0,0,1,5.765-5.722,5.215,5.215,0,0,1,5.445,5.525m-7.253.11c0,1.623.511,2.85,1.7,2.85,1.042,0,1.6-1.118,1.6-2.85,0-1.491-.468-2.85-1.6-2.85-1.276,0-1.7,1.425-1.7,2.85" transform="translate(-125.268 -79.543)" fill="#fff"/><path d="M305.486,183.446c0-1.447-.042-2.675-.085-3.683h3.318l.17,1.381h.064a3.776,3.776,0,0,1,3.148-1.622c2.446,0,3.786,1.71,3.786,4.67v6.358h-3.85v-5.875c0-1.25-.4-1.973-1.34-1.973a1.328,1.328,0,0,0-1.255.942,2.209,2.209,0,0,0-.106.79v6.117h-3.85Z" transform="translate(-135.318 -79.543)" fill="#fff"/><path d="M343.794,187.357a7.885,7.885,0,0,1-.787-.9,6.316,6.316,0,0,1-3.828,1.14c-3.765,0-5.254-2.214-5.254-4.209a4.59,4.59,0,0,1,2.7-4.21v-.088a4.221,4.221,0,0,1-1.064-2.741c0-1.907,1.51-4.034,4.616-4.034,2.4,0,4.19,1.4,4.19,3.6,0,1.491-.851,2.785-2.7,3.749l-.021.088c.638.723,1.319,1.6,1.914,2.193a9.518,9.518,0,0,0,1.149-3.311h3.4a11.194,11.194,0,0,1-2.51,5.7c.829,1.009,1.7,2.039,2.6,3.025Zm-2.552-3.091c-.893-.877-1.872-2.039-2.871-3.179a2.031,2.031,0,0,0,1.361,3.662,2.446,2.446,0,0,0,1.51-.483m-2.254-8.309a2.656,2.656,0,0,0,.936,1.907c.872-.679,1.212-1.184,1.212-1.863a1.138,1.138,0,0,0-1.084-1.25,1.112,1.112,0,0,0-1.064,1.206" transform="translate(-147.956 -76.351)" fill="#fff"/><path d="M368.519,183.429a8.426,8.426,0,0,0,3.722.921c1.319,0,1.957-.461,1.957-1.206,0-.723-.638-1.14-2.255-1.71-2.425-.877-4.041-2.258-4.041-4.451,0-2.609,2.148-4.626,5.764-4.626a8.931,8.931,0,0,1,3.871.767l-.808,3.157a7.282,7.282,0,0,0-3.105-.7c-1.17,0-1.808.438-1.808,1.1,0,.745.766,1.053,2.574,1.732,2.574.987,3.722,2.411,3.722,4.473,0,2.543-1.914,4.714-6.1,4.714a9.9,9.9,0,0,1-4.211-.9Z" transform="translate(-162.964 -76.368)" fill="#fff"/><path d="M398.022,187.918a16.208,16.208,0,0,0,.17,2.631h-3.446l-.192-.943h-.085a3.625,3.625,0,0,1-2.893,1.184,3.337,3.337,0,0,1-3.467-3.4c0-2.894,2.531-4.187,6.083-4.187v-.088c0-.438-.319-.921-1.723-.921a6.486,6.486,0,0,0-2.957.789l-.659-2.477a9.075,9.075,0,0,1,4.339-.987c3.594,0,4.828,2.061,4.828,4.758Zm-3.7-2.3c-1.574,0-2.447.439-2.447,1.4a.966.966,0,0,0,1.085,1.03,1.43,1.43,0,0,0,1.318-1.009,2.183,2.183,0,0,0,.043-.548Z" transform="translate(-171.965 -79.543)" fill="#fff"/><path d="M409.344,186.747v-7.893H408V175.96h1.34v-.351a4.994,4.994,0,0,1,1.361-3.551,4.385,4.385,0,0,1,3.042-1.118,7.75,7.75,0,0,1,1.765.2l-.085,3.026a4.176,4.176,0,0,0-.979-.11,1.272,1.272,0,0,0-1.3,1.381v.526h1.915v2.894h-1.893v7.893Z" transform="translate(-180.779 -75.74)" fill="#fff"/><path d="M425.6,186.537c.128.855,1.319,1.338,2.68,1.338a8.984,8.984,0,0,0,2.85-.417l.49,2.653a10.535,10.535,0,0,1-3.914.679c-3.68,0-5.764-2.1-5.764-5.525,0-2.5,1.574-5.744,5.424-5.744,3.382,0,4.828,2.565,4.828,5.525a7.239,7.239,0,0,1-.149,1.491Zm3.063-2.675a1.573,1.573,0,0,0-1.489-1.754,1.754,1.754,0,0,0-1.617,1.754Z" transform="translate(-186.955 -79.543)" fill="#fff"/><path d="M446.417,174.443v3.07h2.17v2.894h-2.17V183.5c0,1.294.277,1.819,1.212,1.819a2.827,2.827,0,0,0,.914-.087v3a7.028,7.028,0,0,1-2.276.307,3.653,3.653,0,0,1-2.616-.986,4.629,4.629,0,0,1-.979-3.354v-3.793h-1.3v-2.894h1.3V175.5Z" transform="translate(-195.566 -77.293)" fill="#fff"/><path d="M459.262,179.954l1.255,4.845c.149.592.34,1.381.468,1.93h.063c.128-.57.277-1.359.383-1.908l.957-4.867h4.084l-2.233,6.862c-1.574,4.517-2.6,6.161-3.722,7.191a6.153,6.153,0,0,1-3.488,1.579l-.787-3.333a5.291,5.291,0,0,0,1.318-.417,3.172,3.172,0,0,0,1.234-.987.921.921,0,0,0,.191-.482,1.246,1.246,0,0,0-.149-.57l-3.829-9.844Z" transform="translate(-201.606 -79.734)" fill="#fff"/><path d="M493.409,181.6h-5.148v2.718h5.764v3.245h-9.614V172.789h9.316v3.245h-5.467V178.4h5.148Z" transform="translate(-214.634 -76.56)" fill="#fff"/><path d="M506.9,179.954l.829,1.6c.256.526.532,1.052.766,1.534h.042c.234-.57.468-1.1.7-1.6l.7-1.534h4.148l-3.382,5.108,3.4,5.679h-4.339l-.851-1.732c-.234-.5-.468-1.009-.681-1.535H508.2c-.234.548-.468,1.053-.681,1.535l-.766,1.732h-4.169l3.467-5.481-3.424-5.306Z" transform="translate(-222.687 -79.734)" fill="#fff"/><path d="M524.819,183.445c0-1.447-.042-2.674-.085-3.683h3.3l.17,1.381h.042a4.013,4.013,0,0,1,3.4-1.622c2.17,0,4.3,2,4.3,5.5,0,3.946-2.489,5.766-4.764,5.766a3.058,3.058,0,0,1-2.489-1.031h-.042v5.131h-3.829Zm3.829,2.39a3.144,3.144,0,0,0,.063.658,1.564,1.564,0,0,0,1.489,1.293c1.148,0,1.851-1.008,1.851-2.565,0-1.534-.6-2.609-1.808-2.609a1.63,1.63,0,0,0-1.553,1.381,1.949,1.949,0,0,0-.042.5Z" transform="translate(-232.5 -79.543)" fill="#fff"/><path d="M557.861,185.047a5.367,5.367,0,0,1-5.658,5.745,5.254,5.254,0,0,1-5.552-5.547,5.363,5.363,0,0,1,5.765-5.722,5.215,5.215,0,0,1,5.445,5.525m-7.253.11c0,1.623.511,2.85,1.7,2.85,1.042,0,1.6-1.118,1.6-2.85,0-1.491-.468-2.85-1.6-2.85-1.276,0-1.7,1.425-1.7,2.85" transform="translate(-242.211 -79.543)" fill="#fff"/><path d="M575.94,187.793V185.4l1.915-1.732c2.807-2.5,4.232-3.99,4.254-5.438,0-1.03-.66-1.775-2.064-1.775a5.136,5.136,0,0,0-2.956,1.162l-1.043-2.828a8.112,8.112,0,0,1,4.764-1.491c3.212,0,5.127,1.8,5.127,4.6,0,2.28-1.574,4.122-3.212,5.5l-1.362,1.1v.043h4.807v3.245Z" transform="translate(-255.189 -76.787)" fill="#fff"/><path d="M607.733,180.646c0,4.21-1.723,7.389-5.445,7.389-3.956,0-5.424-3.6-5.424-7.345,0-3.859,1.553-7.389,5.446-7.389,4.041,0,5.424,3.706,5.424,7.345m-7.041.022c-.021,3.091.617,4.407,1.638,4.407.979,0,1.574-1.338,1.574-4.407,0-3-.574-4.385-1.595-4.385-.979,0-1.617,1.315-1.617,4.385" transform="translate(-264.46 -76.787)" fill="#fff"/><path d="M618.554,187.793V185.4l1.915-1.732c2.807-2.5,4.233-3.99,4.254-5.438,0-1.03-.659-1.775-2.063-1.775a5.137,5.137,0,0,0-2.956,1.162l-1.043-2.828a8.11,8.11,0,0,1,4.764-1.491c3.212,0,5.126,1.8,5.126,4.6,0,2.28-1.574,4.122-3.212,5.5l-1.362,1.1v.043h4.807v3.245Z" transform="translate(-274.07 -76.787)" fill="#fff"/><path d="M640.394,184.066a8.02,8.02,0,0,0,3.3.855c1.361,0,2.254-.5,2.254-1.513,0-1.162-1.17-1.71-2.446-1.71h-1.425v-2.806h1.361c.957,0,2.169-.307,2.169-1.294,0-.723-.659-1.206-1.85-1.206a6.8,6.8,0,0,0-2.957.811l-.723-2.829a9.4,9.4,0,0,1,4.552-1.074c3.062,0,4.871,1.579,4.871,3.618a3.374,3.374,0,0,1-2.531,3.289v.044a3.413,3.413,0,0,1,2.956,3.376c0,2.631-2.34,4.407-5.913,4.407a8.606,8.606,0,0,1-4.339-1.009Z" transform="translate(-283.427 -76.787)" fill="#fff"/><path d="M15.789,69.549c0-1.439-.72-2.607-2.157-2.607s-2.157,1.168-2.157,2.607V72.83H2.485V69.549c0-6.382,4.81-9.8,11.147-9.8s11.6,3.416,11.6,9.8v1.8c0,5.573-2.247,8.36-7.057,13.529-4.854,5.213-6.247,6.2-6.247,8.4v.809h13.3v7.191H2.036v-8c0-3.281.315-5.753,8.18-12.674,4.809-4.18,5.573-6.382,5.573-9.259Z" transform="translate(-0.902 -26.475)" fill="#e3b611"/><path d="M48.519,69.549c0-6.382,5.259-9.8,11.6-9.8s11.6,3.416,11.6,9.8V92.606c0,6.382-5.258,9.8-11.6,9.8s-11.6-3.416-11.6-9.8Zm8.989,23.057a2.607,2.607,0,1,0,5.214,0V69.549a2.607,2.607,0,1,0-5.214,0Z" transform="translate(-21.498 -26.475)" fill="#e3b611"/><path d="M108.756,69.549c0-1.439-.72-2.607-2.158-2.607s-2.158,1.168-2.158,2.607V72.83H95.452V69.549c0-6.382,4.81-9.8,11.147-9.8s11.6,3.416,11.6,9.8v1.8c0,5.573-2.247,8.36-7.057,13.529-4.854,5.213-6.247,6.2-6.247,8.4v.809h13.3v7.191H95v-8c0-3.281.315-5.753,8.18-12.674,4.809-4.18,5.573-6.382,5.573-9.259Z" transform="translate(-42.094 -26.475)" fill="#e3b611"/><path d="M149.533,75.887l2.966-.225c1.349-.135,2.832-1.168,2.832-2.606V69.1a2.607,2.607,0,0,0-5.214,0v3.281h-8.989V69.549c0-6.382,5.259-9.8,11.6-9.8s11.6,3.416,11.6,9.8v3.056c0,3.416-1.348,5.529-3.506,6.832a7.314,7.314,0,0,1,3.955,6.922v6.247c0,6.382-5.708,9.8-12.045,9.8s-12.046-3.416-12.046-9.8v-4.9h9.439v4.9a2.607,2.607,0,1,0,5.214,0v-6.7c0-1.439-1.618-2.607-3.056-2.607l-2.742-.224Z" transform="translate(-62.332 -26.475)" fill="#e3b611"/><path d="M214.6,62.18h7.866V58.943H232.8V62.18h7.865V68.7H214.6ZM221.522,85.6c-3.461,0-6.472-3.461-6.472-7.775S218.061,70,221.522,70h12.315c3.461,0,6.473,3.506,6.473,7.821S237.3,85.6,233.836,85.6Zm33.08,16H216.937V87.753H226.96v6.472H254.6ZM224.444,79.3H231.1c.719,0,1.168-.81,1.168-1.483,0-.854-.449-1.528-1.168-1.528h-6.652c-.72,0-1.214.674-1.214,1.528,0,.673.494,1.483,1.214,1.483m19.371-19.462H253.7v10.2h4.674v8.134H253.7v12.5h-9.888Z" transform="translate(-95.085 -26.117)" fill="#e3b611"/><path d="M294.494,75.749h41.349v7.057H319.8v4.808H334.27v15.146h-9.708V94.536h-28.72V87.614h14.293V82.806H294.494Zm1.348-15.192H334.5l-1.214,14.068H323.8l.584-7.191h-28.54Z" transform="translate(-130.485 -26.832)" fill="#e3b611"/><path d="M406.7,79.076H396.81c-4.764,4.9-12.54,6.787-20.4,6.787V78.671c11.1,0,16.18-5.079,16.18-10.248H376.629V61.232h25.08v4.944a21.626,21.626,0,0,1-.629,5.258H406.7V60.558h9.933V91.346H406.7Zm10.607,23.237H378.517V87.57H388.54v7.371h28.765Z" transform="translate(-166.778 -26.832)" fill="#e3b611"/><path d="M456.7,74.895c5.888-1.3,8.359-4.539,8.495-10.068V60.782H475v3.641c0,5.753,2.427,9.079,8.495,10.472v7.236c-5.978-.719-10.517-3.056-13.393-6.877-2.967,3.866-7.416,6.158-13.394,6.877ZM459.04,83.7h38.114V95.12H468.973v1.753h28.854v5.438H459.04V90.491h28.226V88.963H459.04ZM479,65.456h8.27v-4.9h9.888V82.58h-9.888V72.557H479Z" transform="translate(-202.357 -26.832)" fill="#e3b611"/><path d="M538.211,70.625c0-6.607,5.393-10.068,12-10.068s12,3.461,12,10.068V75.7c0,6.607-5.393,9.978-12,9.978s-12-3.371-12-9.978Zm39.552,31.686H540.1V88.019h10.023v6.921h27.641ZM547.245,75.929A2.8,2.8,0,0,0,550.3,78.76a2.837,2.837,0,0,0,3.1-2.831V70.356a2.871,2.871,0,0,0-3.1-2.877,2.834,2.834,0,0,0-3.056,2.877Zm19.731-15.372h9.888v10.2h4.674v8.134h-4.674V90.94h-9.888Z" transform="translate(-238.472 -26.832)" fill="#e3b611"/><path d="M644.892,86.851c-5.978-.854-10.517-2.787-13.394-6.742-2.922,3.955-7.461,5.888-13.394,6.742V79.165c5.214-.719,8.944-3.641,8.944-9.348v-.989h-8.495v-7.6h25.888v7.6h-8.494v1.393c.135,5.394,3.82,8.225,8.944,8.944Zm14.337,15.461H620.441V88.02h10.022v6.921h28.765ZM640.891,70.4h7.731V60.558h9.933V91.57h-9.933V77.142h-7.731Z" transform="translate(-273.871 -26.832)" fill="#e3b611"/><path d="M699.613,61.007H709.1v4h5.258v-4h9.3V84.154H699.613Zm1.438,25.708h37.215v16.045H727.928V94.131H701.051Zm8.045-9.708h5.258V72.154H709.1Zm19.282-16.451h9.888v7.731h4.674V76.2h-4.674v9.394h-9.888Z" transform="translate(-309.986 -26.832)" fill="#e3b611"/><path d="M780.313,61.232h24V75.524H789.8v2.562l18.113-1.259v6.607l-27.6,1.842V69.636h14.472V67.614H780.313ZM782.2,86.311h36.765v16h-9.933v-1.169L782.2,102.311Zm9.978,9.034,16.855-.629V92.828H792.178Zm16.9-34.788h9.888v7.956h4.674v7.865h-4.674v8.944h-9.888Z" transform="translate(-345.743 -26.832)" fill="#e3b611"/><path d="M859.4,93.956l9.439-.54V87.754H879v5.034l10.023-.629V99.8L859.4,101.6Zm.449-31.777h8.764V58.944h10.517V62.18H887.9v6.967H859.849Zm7.056,24.226c-3.46,0-6.607-3.6-6.607-8.045,0-4.495,3.147-8.09,6.607-8.09h14.023c3.461,0,6.607,3.6,6.607,8.09,0,4.449-3.146,8.045-6.607,8.045Zm2.876-6.517h8.45a1.479,1.479,0,0,0,1.259-1.528,1.435,1.435,0,0,0-1.259-1.573h-8.45a1.467,1.467,0,0,0-1.3,1.573,1.516,1.516,0,0,0,1.3,1.528m20.361-20.046h10.113V101.6H890.143Z" transform="translate(-380.785 -26.117)" fill="#e3b611"/><path d="M19.151.906,11.269,11.193h4.025L19.63,21.984H13.258L9.712,13.21,7.485,16.135v5.849H2.143V.906H7.485V7.991L12.85.906Z" transform="translate(-0.949 -0.402)" fill="#e3b611"/><rect width="13.415" height="4.942" transform="translate(19.995 8.018)" fill="#e3b611"/><path d="M67.695,11.044c0,4.286,1.8,6.1,4.6,6.1S76.7,15.33,76.7,13.313h5.39c0,4.639-3.09,8.774-9.8,8.774-6.588,0-9.942-4.135-9.942-11.044S65.707,0,72.295,0c6.708,0,9.8,4.135,9.8,8.774H76.7c0-2.017-1.6-3.832-4.407-3.832s-4.6,1.816-4.6,6.1" transform="translate(-27.628)" fill="#e3b611"/><path d="M98.436,11.044C98.436,4.135,101.79,0,108.378,0s9.942,4.135,9.942,11.044-3.354,11.044-9.942,11.044-9.942-4.135-9.942-11.044m5.342,0c0,4.286,1.8,6.1,4.6,6.1s4.6-1.816,4.6-6.1-1.8-6.1-4.6-6.1-4.6,1.816-4.6,6.1" transform="translate(-43.615)" fill="#e3b611"/><path d="M135.637,21.985V.906h6.06l6.564,12.959V.906H153.6V21.985h-6.061L140.979,9.5V21.985Z" transform="translate(-60.098 -0.402)" fill="#e3b611"/><path d="M169.4,6.808C169.4,2.6,171.817,0,178.021,0s8.624,2.6,8.624,6.808h-5.39c0-1.538-.79-1.992-3.234-1.992-2.659,0-3.233.681-3.233,1.866,0,1.362.79,1.891,3.474,1.891,6.443,0,8.863,2.5,8.863,6.707s-2.42,6.808-8.863,6.808-8.864-2.6-8.864-6.808h5.39c0,1.538.79,1.992,3.474,1.992,2.9,0,3.472-.681,3.472-1.866,0-1.361-.79-1.891-3.472-1.891-6.445,0-8.864-2.5-8.864-6.707" transform="translate(-75.057)" fill="#e3b611"/><path d="M216.744,3.427l5.486,18.557h-5.582l-1.15-3.908h-6.9l-1.15,3.908h-5.581L208.1.906h5.534l-.742,2.521Zm-6.708,9.758h4.025L212.049,6.3Z" transform="translate(-89.444 -0.401)" fill="#e3b611"/><path d="M254.351,14.42h-9.079v7.564H239.93V.906h15.356V5.848H245.272V9.478h9.079Z" transform="translate(-106.309 -0.402)" fill="#e3b611"/><path d="M284.524,13.79h-9.318v3.252h10.253v4.942h-15.6V.907h15.6V5.848H275.205V9.1h9.318Z" transform="translate(-119.572 -0.402)" fill="#e3b611"/><path d="M306.287,21.985V5.848h-6.06V.906h17.487V5.848h-6.085V21.985Z" transform="translate(-133.025 -0.402)" fill="#e3b611"/><path d="M340.385,21.985V14.7L333.127.906h5.941l4,8.345,4-8.345h5.941L345.727,14.7v7.287Z" transform="translate(-147.603 -0.402)" fill="#e3b611"/><path d="M395.956,13.79h-9.318v3.252H396.89v4.942H381.3V.907h15.6V5.848H386.638V9.1h9.318Z" transform="translate(-168.945 -0.402)" fill="#e3b611"/><path d="M420.5,14.647l-3.881,7.337H410.8l5.366-10.54L410.8.907h5.821L420.5,8.243,424.38.907H430.2l-5.366,10.539,5.366,10.54H424.38Z" transform="translate(-182.017 -0.402)" fill="#e3b611"/><path d="M447.139,21.985V.906h8.5c6.348,0,9.223,2.623,9.223,7.892s-2.875,7.892-9.223,7.892h-3.162v5.3Zm8.5-10.237c2.444,0,3.881-.554,3.881-2.95s-1.437-2.95-3.881-2.95h-3.162v5.9Z" transform="translate(-198.119 -0.401)" fill="#e3b611"/><path d="M479.609,11.044C479.609,4.135,482.963,0,489.551,0s9.942,4.135,9.942,11.044-3.354,11.044-9.942,11.044-9.942-4.135-9.942-11.044m5.342,0c0,4.286,1.8,6.1,4.6,6.1s4.6-1.816,4.6-6.1-1.8-6.1-4.6-6.1-4.6,1.816-4.6,6.1" transform="translate(-212.506)" fill="#e3b611"/><path d="M5.644,224.672a3.631,3.631,0,0,0,1.71-.285,1.164,1.164,0,0,0,.05-1.852,3.041,3.041,0,0,0-1.532-.3,3.033,3.033,0,0,0-1.553.263.987.987,0,0,0-.442.9v.4H.585v-.37a4.763,4.763,0,0,1,.306-1.8,2.845,2.845,0,0,1,.962-1.24,4.5,4.5,0,0,1,1.7-.72,11.636,11.636,0,0,1,2.523-.235,9.092,9.092,0,0,1,2.316.257,4.091,4.091,0,0,1,1.567.755,2.931,2.931,0,0,1,.891,1.261,5,5,0,0,1,.285,1.76,4.65,4.65,0,0,1-.292,1.745,2.677,2.677,0,0,1-.933,1.183,4.392,4.392,0,0,1-1.646.684,11.985,11.985,0,0,1-2.429.235,5.065,5.065,0,0,0-.919.071,1.669,1.669,0,0,0-.605.221.847.847,0,0,0-.328.392,1.585,1.585,0,0,0-.1.6v.242h6.968v2.793H.585V228.6a5.2,5.2,0,0,1,.278-1.8,2.68,2.68,0,0,1,.891-1.218,4.047,4.047,0,0,1,1.575-.692,10.5,10.5,0,0,1,2.316-.221" transform="translate(-0.259 -97.231)" fill="#fff"/><path d="M32.314,225.684a9.074,9.074,0,0,1-.349,2.622,5.3,5.3,0,0,1-1.048,1.96,4.531,4.531,0,0,1-1.76,1.232,6.587,6.587,0,0,1-2.473.428,6.582,6.582,0,0,1-2.472-.428,4.523,4.523,0,0,1-1.76-1.232,5.283,5.283,0,0,1-1.048-1.96,10.018,10.018,0,0,1,0-5.244,5.279,5.279,0,0,1,1.048-1.96,4.523,4.523,0,0,1,1.76-1.232,6.582,6.582,0,0,1,2.472-.428,6.587,6.587,0,0,1,2.473.428,4.531,4.531,0,0,1,1.76,1.232,5.3,5.3,0,0,1,1.048,1.96,9.071,9.071,0,0,1,.349,2.622m-3.178,0a4.394,4.394,0,0,0-.62-2.636,2.159,2.159,0,0,0-1.831-.812,2.159,2.159,0,0,0-1.831.812,5.916,5.916,0,0,0,0,5.272,2.16,2.16,0,0,0,1.831.813,2.16,2.16,0,0,0,1.831-.813,4.393,4.393,0,0,0,.62-2.636" transform="translate(-9.33 -97.231)" fill="#fff"/><path d="M48.12,224.672a3.631,3.631,0,0,0,1.71-.285,1.164,1.164,0,0,0,.05-1.852,3.041,3.041,0,0,0-1.532-.3,3.033,3.033,0,0,0-1.553.263.987.987,0,0,0-.442.9v.4H43.061v-.37a4.763,4.763,0,0,1,.306-1.8,2.845,2.845,0,0,1,.962-1.24,4.5,4.5,0,0,1,1.7-.72,11.636,11.636,0,0,1,2.523-.235,9.092,9.092,0,0,1,2.316.257,4.091,4.091,0,0,1,1.567.755,2.931,2.931,0,0,1,.891,1.261,5,5,0,0,1,.285,1.76,4.65,4.65,0,0,1-.292,1.745,2.677,2.677,0,0,1-.933,1.183,4.392,4.392,0,0,1-1.646.684,11.985,11.985,0,0,1-2.429.235,5.065,5.065,0,0,0-.919.071,1.669,1.669,0,0,0-.605.221.847.847,0,0,0-.328.392,1.585,1.585,0,0,0-.1.6v.242h6.968v2.793H43.061V228.6a5.2,5.2,0,0,1,.278-1.8,2.68,2.68,0,0,1,.891-1.218,4.047,4.047,0,0,1,1.575-.692,10.5,10.5,0,0,1,2.316-.221" transform="translate(-19.08 -97.231)" fill="#fff"/><path d="M69.529,231.925a10.176,10.176,0,0,1-2.523-.271,4.761,4.761,0,0,1-1.7-.77,3,3,0,0,1-.962-1.2,3.948,3.948,0,0,1-.307-1.589v-.527h3.292v.556a.8.8,0,0,0,.484.777,4.333,4.333,0,0,0,1.711.234,3.706,3.706,0,0,0,1.6-.242.859.859,0,0,0,.456-.827.831.831,0,0,0-.485-.826,4.391,4.391,0,0,0-1.7-.228H67.762v-2.65H69.4a8.957,8.957,0,0,0,1.034-.05,2.062,2.062,0,0,0,.676-.178.8.8,0,0,0,.364-.327,1.049,1.049,0,0,0,.107-.5.861.861,0,0,0-.456-.819,3.613,3.613,0,0,0-1.6-.249,4.331,4.331,0,0,0-1.711.235.8.8,0,0,0-.484.777v.556H64.042v-.527a4,4,0,0,1,.3-1.574,3.039,3.039,0,0,1,.941-1.212,4.521,4.521,0,0,1,1.652-.776,9.6,9.6,0,0,1,2.451-.271,10.16,10.16,0,0,1,2.515.271,4.74,4.74,0,0,1,1.7.77,3.006,3.006,0,0,1,.962,1.2,3.946,3.946,0,0,1,.307,1.589,4.875,4.875,0,0,1-.057.741,2.361,2.361,0,0,1-.22.7,2.1,2.1,0,0,1-.436.585,1.706,1.706,0,0,1-.7.384,1.713,1.713,0,0,1,.7.385,2.068,2.068,0,0,1,.436.591,2.454,2.454,0,0,1,.22.706,4.788,4.788,0,0,1,.057.727,3.975,3.975,0,0,1-.3,1.574,3.041,3.041,0,0,1-.941,1.211,4.531,4.531,0,0,1-1.66.777,9.64,9.64,0,0,1-2.443.271" transform="translate(-28.376 -97.23)" fill="#fff"/><rect width="2.708" height="2.793" transform="translate(47.779 131.616)" fill="#fff"/><path d="M108.494,210.986a13.611,13.611,0,0,1,3.645.427,7.1,7.1,0,0,1,2.489,1.187,4.611,4.611,0,0,1,1.427,1.833,6.014,6.014,0,0,1,.458,2.384v5.957a7.784,7.784,0,0,1-.448,2.739,4.905,4.905,0,0,1-1.416,2.031,6.43,6.43,0,0,1-2.468,1.26,13.2,13.2,0,0,1-3.583.427,13.488,13.488,0,0,1-3.593-.417,7.474,7.474,0,0,1-2.458-1.135,4.4,4.4,0,0,1-1.416-1.687,4.876,4.876,0,0,1-.448-2.072h4.791a.972.972,0,0,0,.77.979,8.2,8.2,0,0,0,2.354.25,4,4,0,0,0,2.354-.562,2.093,2.093,0,0,0,.771-1.812v-1.083a7.528,7.528,0,0,1-1.708.7,8.757,8.757,0,0,1-2.312.261,10.2,10.2,0,0,1-3.093-.427,6.633,6.633,0,0,1-2.259-1.187,5,5,0,0,1-1.4-1.833,5.781,5.781,0,0,1-.479-2.385,6,6,0,0,1,.458-2.384,4.6,4.6,0,0,1,1.426-1.833,7.091,7.091,0,0,1,2.489-1.187,13.6,13.6,0,0,1,3.644-.427m0,7.79a4.654,4.654,0,0,0,2.354-.511,1.753,1.753,0,0,0,.094-2.978,7.225,7.225,0,0,0-4.895,0,1.891,1.891,0,0,0,0,3.061,5.315,5.315,0,0,0,2.447.427" transform="translate(-44.519 -93.484)" fill="#fff"/><rect width="3.957" height="4.082" transform="translate(73.868 131.248)" fill="#fff"/><path d="M169.277,229.146h-12.5v-4.082H160.9v-9.248h-4.332l2.5-4.082h6.478v13.33h3.728Z" transform="translate(-69.374 -93.816)" fill="#fff"/><path d="M193.014,229.231a14.812,14.812,0,0,1-3.686-.4,6.958,6.958,0,0,1-2.479-1.124,4.395,4.395,0,0,1-1.406-1.76,5.771,5.771,0,0,1-.448-2.322v-.771h4.811v.813a1.174,1.174,0,0,0,.708,1.135,6.322,6.322,0,0,0,2.5.344,5.409,5.409,0,0,0,2.332-.354,1.255,1.255,0,0,0,.667-1.208,1.218,1.218,0,0,0-.708-1.208,6.424,6.424,0,0,0-2.478-.333h-2.4v-3.874h2.4a13.166,13.166,0,0,0,1.51-.073,3.037,3.037,0,0,0,.989-.261,1.165,1.165,0,0,0,.531-.479,1.532,1.532,0,0,0,.156-.729,1.259,1.259,0,0,0-.667-1.2,5.274,5.274,0,0,0-2.332-.365,6.322,6.322,0,0,0-2.5.344,1.174,1.174,0,0,0-.708,1.136v.812h-4.811v-.771a5.843,5.843,0,0,1,.437-2.3,4.451,4.451,0,0,1,1.374-1.77,6.629,6.629,0,0,1,2.416-1.135,14.04,14.04,0,0,1,3.582-.4,14.871,14.871,0,0,1,3.676.4,6.954,6.954,0,0,1,2.489,1.124,4.4,4.4,0,0,1,1.406,1.76,5.773,5.773,0,0,1,.448,2.322,7.159,7.159,0,0,1-.083,1.083,3.437,3.437,0,0,1-.323,1.021,3.05,3.05,0,0,1-.635.854,2.5,2.5,0,0,1-1.02.562,2.5,2.5,0,0,1,1.02.562,3,3,0,0,1,.635.864,3.572,3.572,0,0,1,.323,1.031,7.04,7.04,0,0,1,.083,1.063,5.831,5.831,0,0,1-.437,2.3,4.451,4.451,0,0,1-1.374,1.77,6.628,6.628,0,0,1-2.426,1.135,14.05,14.05,0,0,1-3.572.4" transform="translate(-81.968 -93.484)" fill="#fff"/><path d="M218.74,224.46a16.5,16.5,0,0,0,.086,1.71,11.347,11.347,0,0,0,.3,1.66,13.735,13.735,0,0,0,.563,1.7,19.488,19.488,0,0,0,.862,1.838h-3.32q-.428-.884-.748-1.71a13.066,13.066,0,0,1-.52-1.653,13.966,13.966,0,0,1-.3-1.7,17.264,17.264,0,0,1,0-3.705,14,14,0,0,1,.3-1.7,13.123,13.123,0,0,1,.52-1.653q.321-.826.748-1.71h3.32a19.423,19.423,0,0,0-.862,1.838,13.7,13.7,0,0,0-.563,1.7,11.348,11.348,0,0,0-.3,1.667,16.581,16.581,0,0,0-.086,1.7" transform="translate(-95.512 -96.392)" fill="#fff"/><path d="M239.675,226.979v2.85h-4.916v2h-3.277v-2h-4.916v-2.85Zm-9.049-.57h-3.919l4.846-7.838h3.776l-1.71,2.85h2.722l3.192,4.988h-3.976l-2.451-4.147Z" transform="translate(-100.387 -96.845)" fill="#fff"/><path d="M253.962,224.46a16.576,16.576,0,0,0-.086-1.7,11.348,11.348,0,0,0-.3-1.667,13.7,13.7,0,0,0-.563-1.7,19.423,19.423,0,0,0-.862-1.838h3.32q.428.883.748,1.71a13.112,13.112,0,0,1,.52,1.653,14.11,14.11,0,0,1,.3,1.7,17.256,17.256,0,0,1,0,3.705,14.071,14.071,0,0,1-.3,1.7,13.055,13.055,0,0,1-.52,1.653q-.321.827-.748,1.71h-3.32a19.488,19.488,0,0,0,.862-1.838,13.735,13.735,0,0,0,.563-1.7,11.347,11.347,0,0,0,.3-1.66,16.5,16.5,0,0,0,.086-1.71" transform="translate(-111.724 -96.392)" fill="#fff"/><path d="M270.832,229.168a6.848,6.848,0,0,1,.634-1.617,4.247,4.247,0,0,1,.84-1.076,2.83,2.83,0,0,1,1.005-.591,3.677,3.677,0,0,1,1.154-.178,2.167,2.167,0,0,1,1.14.285,9.262,9.262,0,0,1,.9.627,9.209,9.209,0,0,0,.9.627,2.058,2.058,0,0,0,1.1.285,1.191,1.191,0,0,0,1.076-.513,3.6,3.6,0,0,0,.477-1.382l2.309,1.425a6.746,6.746,0,0,1-.635,1.625,4.27,4.27,0,0,1-.841,1.069,2.828,2.828,0,0,1-1,.591,3.67,3.67,0,0,1-1.153.178,2.159,2.159,0,0,1-1.141-.285,8.874,8.874,0,0,1-.9-.627,9.812,9.812,0,0,0-.9-.627,2.066,2.066,0,0,0-1.1-.285,1.191,1.191,0,0,0-1.077.513,3.594,3.594,0,0,0-.476,1.382Z" transform="translate(-120.001 -99.974)" fill="#fff"/><path d="M317.077,229.146h-12.5v-4.082H308.7v-9.248h-4.332l2.5-4.082h6.478v13.33h3.728Z" transform="translate(-134.862 -93.816)" fill="#fff"/><path d="M343.769,223.418a1.693,1.693,0,0,0-.791-1.614,4.263,4.263,0,0,0-2.1-.448,4.713,4.713,0,0,0-1.719.281,2.519,2.519,0,0,0-1.176.947h-4.811V211.734h14.579v4.082h-9.768v2.27a6.592,6.592,0,0,1,1.572-.6,8.907,8.907,0,0,1,2.093-.208,9.228,9.228,0,0,1,2.864.417,6.276,6.276,0,0,1,2.186,1.2,5.206,5.206,0,0,1,1.4,1.926,6.571,6.571,0,0,1,.49,2.6,5.627,5.627,0,0,1-1.9,4.53q-1.9,1.614-5.811,1.615a12.77,12.77,0,0,1-3.478-.417,7.125,7.125,0,0,1-2.4-1.135,4.507,4.507,0,0,1-1.385-1.687,4.869,4.869,0,0,1-.448-2.072h4.811a.964.964,0,0,0,.729.979,7.087,7.087,0,0,0,2.166.25,4.257,4.257,0,0,0,2.1-.448,1.692,1.692,0,0,0,.791-1.614" transform="translate(-147.621 -93.816)" fill="#fff"/><path d="M366.538,224.46a16.5,16.5,0,0,0,.086,1.71,11.343,11.343,0,0,0,.3,1.66,13.735,13.735,0,0,0,.563,1.7,19.488,19.488,0,0,0,.862,1.838h-3.32q-.428-.884-.748-1.71a13.069,13.069,0,0,1-.52-1.653,13.963,13.963,0,0,1-.3-1.7,17.262,17.262,0,0,1,0-3.705,14,14,0,0,1,.3-1.7,13.126,13.126,0,0,1,.52-1.653q.321-.826.748-1.71h3.32a19.422,19.422,0,0,0-.862,1.838,13.7,13.7,0,0,0-.563,1.7,11.344,11.344,0,0,0-.3,1.667,16.576,16.576,0,0,0-.086,1.7" transform="translate(-160.998 -96.392)" fill="#fff"/><path d="M387.473,226.452h-13.11v-2.28h13.11Zm-12.683-5.13v-2.494h12.256l-.57,4.774H383.2l.271-2.28ZM387.046,231.8H374.791v-4.774h12.256Zm-9.121-2.038h5.985v-.67h-5.985Z" transform="translate(-165.874 -96.959)" fill="#fff"/><path d="M401.761,224.46a16.585,16.585,0,0,0-.086-1.7,11.348,11.348,0,0,0-.3-1.667,13.7,13.7,0,0,0-.563-1.7,19.423,19.423,0,0,0-.862-1.838h3.32q.428.883.749,1.71a13.122,13.122,0,0,1,.52,1.653,14.11,14.11,0,0,1,.3,1.7,17.262,17.262,0,0,1,0,3.705,14.071,14.071,0,0,1-.3,1.7,13.065,13.065,0,0,1-.52,1.653q-.321.827-.749,1.71h-3.32a19.489,19.489,0,0,0,.862-1.838,13.735,13.735,0,0,0,.563-1.7,11.347,11.347,0,0,0,.3-1.66,16.509,16.509,0,0,0,.086-1.71" transform="translate(-177.211 -96.392)" fill="#fff"/><path d="M411.466,236.33h2.708l-.712,3.648h-2Z" transform="translate(-182.313 -104.714)" fill="#fff"/><path d="M431.537,231.925a10.174,10.174,0,0,1-2.522-.271,4.761,4.761,0,0,1-1.7-.77,3,3,0,0,1-.962-1.2,3.948,3.948,0,0,1-.307-1.589v-.527h3.293v.556a.8.8,0,0,0,.484.777,4.332,4.332,0,0,0,1.71.234,3.709,3.709,0,0,0,1.6-.242.859.859,0,0,0,.456-.827.831.831,0,0,0-.485-.826,4.391,4.391,0,0,0-1.7-.228H429.77v-2.65h1.639a8.939,8.939,0,0,0,1.033-.05,2.062,2.062,0,0,0,.677-.178.8.8,0,0,0,.364-.327,1.049,1.049,0,0,0,.107-.5.861.861,0,0,0-.456-.819,3.616,3.616,0,0,0-1.6-.249,4.329,4.329,0,0,0-1.71.235.8.8,0,0,0-.484.777v.556H426.05v-.527a4,4,0,0,1,.3-1.574,3.043,3.043,0,0,1,.941-1.212,4.528,4.528,0,0,1,1.653-.776,9.6,9.6,0,0,1,2.451-.271,10.164,10.164,0,0,1,2.515.271,4.744,4.744,0,0,1,1.7.77,3.006,3.006,0,0,1,.962,1.2,3.947,3.947,0,0,1,.307,1.589,4.87,4.87,0,0,1-.057.741,2.361,2.361,0,0,1-.221.7,2.1,2.1,0,0,1-.435.585,1.706,1.706,0,0,1-.7.384,1.713,1.713,0,0,1,.7.385,2.066,2.066,0,0,1,.435.591,2.454,2.454,0,0,1,.221.706,4.783,4.783,0,0,1,.057.727,3.985,3.985,0,0,1-.3,1.574,3.041,3.041,0,0,1-.941,1.211,4.531,4.531,0,0,1-1.66.777,9.645,9.645,0,0,1-2.444.271" transform="translate(-188.775 -97.23)" fill="#fff"/><path d="M455.214,221.409a2.97,2.97,0,0,1-1.1,2.493,6.6,6.6,0,0,1-6.5,0,3.382,3.382,0,0,1,0-4.987,6.6,6.6,0,0,1,6.5,0,2.971,2.971,0,0,1,1.1,2.494m4.7,8.336V231.6H446.949v-3.99h9.405v-.428h-9.405v-1.852h12.968v3.99h-9.405v.427Zm-9.049-7.41a2.054,2.054,0,0,0,1.176-.242.891.891,0,0,0,0-1.368,2.975,2.975,0,0,0-2.352,0,.891.891,0,0,0,0,1.368,2.053,2.053,0,0,0,1.176.242m9.049,2.565h-3.277v-6.7h3.277Z" transform="translate(-197.846 -96.619)" fill="#fff"/><path d="M477.151,226.3a18.566,18.566,0,0,0,.577-2.359,18.94,18.94,0,0,0,.25-2.344h-5.1v-2.85h8.408v1.425a30.591,30.591,0,0,1-.157,3.064,12.9,12.9,0,0,1-.7,3.064Zm-1,.57V229h9.12v2.708h-12.4v-4.845Zm10.26-5.486v2.993h-1.14v3.064H482v-9.12h3.277v3.064Z" transform="translate(-209.523 -96.732)" fill="#fff"/></g></g></g></svg>