<svg xmlns="http://www.w3.org/2000/svg" xmlns:xlink="http://www.w3.org/1999/xlink" width="335" height="190" viewBox="0 0 335 190"><defs><clipPath id="a"><rect width="218.163" height="104.409" fill="none"/></clipPath></defs><g transform="translate(-20 -2808)"><rect width="335" height="190" rx="10" transform="translate(20 2808)" fill="#001331"/><g transform="translate(78 2851)"><g clip-path="url(#a)"><path d="M36.247,109.08H31.3q.253,3.4.254,7.55v15.823h4.7v-11.6h3.938v-4.371H36.247Z" transform="translate(-10.669 -37.185)" fill="#b2112b"/><path d="M14.921,124.8a8.641,8.641,0,0,0,2.456-6.231,8.815,8.815,0,0,0-2.456-6.3,8.173,8.173,0,0,0-6.178-2.582,8.315,8.315,0,0,0-6.269,2.582A8.77,8.77,0,0,0,0,118.57,8.569,8.569,0,0,0,2.493,124.8a8.381,8.381,0,0,0,6.25,2.547,8.225,8.225,0,0,0,6.178-2.547m-9.177-2.835a5.847,5.847,0,0,1,0-6.882,3.653,3.653,0,0,1,3-1.391,3.554,3.554,0,0,1,2.962,1.391,5.969,5.969,0,0,1-.018,6.882,3.551,3.551,0,0,1-2.944,1.408,3.637,3.637,0,0,1-3-1.408" transform="translate(0 -37.391)" fill="#b2112b"/><path d="M11.563,140.705H6.579q.25,2.6.253,6.72v4.082H28.615v-4.119H11.563Z" transform="translate(-2.243 -47.966)" fill="#b2112b"/><path d="M57.355,122.631a13.286,13.286,0,0,0,3.306,3.794,15.116,15.116,0,0,0,4.065,2.456l2.818-3.324a14.147,14.147,0,0,1-5.672-3.811,8.267,8.267,0,0,1-2.24-5.654v-.975h5.636v-4.01H49.155v4.01h5.672v1.12a9.4,9.4,0,0,1-2.24,6.124,15.44,15.44,0,0,1-5.888,4.317l3.143,3.071a18.642,18.642,0,0,0,4.3-2.927,12.7,12.7,0,0,0,3.214-4.19" transform="translate(-15.92 -37.876)" fill="#b2112b"/><path d="M61.295,141.254H56.346q.251,3.143.254,6.683v3.757H78.564v-4.119H61.295Z" transform="translate(-19.208 -48.153)" fill="#b2112b"/><path d="M84.187,132.453V109.08h-4.95q.145,1.951.217,6.1v1.157H74.433V120.5h5.022v11.958Z" transform="translate(-25.374 -37.185)" fill="#b2112b"/><path d="M107.5,141.309h-4.951q.255,3.143.254,6.683v3.722h21.748v-4.119H107.5Z" transform="translate(-34.959 -48.172)" fill="#fff"/><path d="M132.219,109.079h-4.95q.218,2.892.218,7.551v15.823h4.732v-10.3h3.9v-4.371h-3.9Z" transform="translate(-43.386 -37.185)" fill="#fff"/><path d="M103.759,121.645a12.829,12.829,0,0,0,3.414,3.866,14.473,14.473,0,0,0,4.353,2.456l2.854-3.4a15.365,15.365,0,0,1-6.033-4.191,9.294,9.294,0,0,1-2.24-6.214v-4.046h-5.056a33.994,33.994,0,0,1,.215,4.335,10.792,10.792,0,0,1-2.383,6.737,14.815,14.815,0,0,1-6.033,4.641l3.251,3.145a16.387,16.387,0,0,0,4.39-2.945,12.973,12.973,0,0,0,3.27-4.39" transform="translate(-31.652 -37.54)" fill="#fff"/><path d="M166.888,115.438h-4.661a7.87,7.87,0,0,0-2.962-4.316,8.6,8.6,0,0,0-5.311-1.681,8.5,8.5,0,0,0-6.176,2.348,7.775,7.775,0,0,0-2.42,5.816,7.633,7.633,0,0,0,2.42,5.727,8.542,8.542,0,0,0,6.176,2.329,8.743,8.743,0,0,0,5.33-1.661,7.574,7.574,0,0,0,2.944-4.3h4.661v6.612h4.7V109.08h-4.95q.18,1.952.252,6.358m-10.061,5.094a3.661,3.661,0,0,1-2.873,1.192,3.758,3.758,0,0,1-2.925-1.192,4.591,4.591,0,0,1,0-5.925,3.76,3.76,0,0,1,2.925-1.192,3.663,3.663,0,0,1,2.873,1.192,4.654,4.654,0,0,1,0,5.925" transform="translate(-49.552 -37.185)" fill="#fff"/><path d="M169.259,140.286h-12.1v-3.035h-4.949q.251,2.964.252,7.551v5.781h21.459V137.251h-4.661Zm0,6.539h-12.1V144.08h12.1Z" transform="translate(-51.887 -46.788)" fill="#fff"/><path d="M229.233,109.08h-4.95q.217,3.649.216,7.55v11.488h4.734v-8.056h3.938v-4.371h-3.938Z" transform="translate(-76.457 -37.185)" fill="#fff"/><path d="M210.217,127.358v-16.8h-4.661V115.4H199.27v-4.841h-4.913q.253,3.287.252,7.369v9.43Zm-10.947-7.876h6.286v3.793H199.27Z" transform="translate(-66.256 -37.689)" fill="#fff"/><path d="M199.07,144.4H215.9v7.84h4.734V140.322H199.07Z" transform="translate(-67.862 -47.835)" fill="#fff"/><path d="M247.939,147.27v4.19H269V139.827H247.687q.251,3.253.252,7.443m4.662-3.577h11.7v3.9H252.6Z" transform="translate(-84.436 -47.667)" fill="#fff"/><path d="M277.466,109.079h-4.949q.216,2.892.216,7.55v11.344h4.732v-8.019H281.4v-4.372h-3.939Z" transform="translate(-92.9 -37.185)" fill="#fff"/><path d="M250.033,127.757a61.946,61.946,0,0,0,11.09-.94v-3.866a62.376,62.376,0,0,1-10.621.867h-2.962v-2.854h10.3v-10.3H242.88v3.9H253.1v2.6H242.592q.251,3.325.251,6.466v4.119Z" transform="translate(-82.699 -37.726)" fill="#fff"/><rect width="18.063" height="3.793" transform="translate(192.874 77.422)" fill="#fff"/><rect width="10.007" height="3.54" transform="translate(196.922 72.364)" fill="#fff"/><path d="M303.391,134.995a7.884,7.884,0,0,0,4.082-1.77,4.255,4.255,0,0,0,1.48-3.288,4.471,4.471,0,0,0-2.168-3.9,12.611,12.611,0,0,0-11.722,0,4.46,4.46,0,0,0-2.185,3.9,4.258,4.258,0,0,0,1.553,3.342,8.128,8.128,0,0,0,4.263,1.752V137.2h-8.2v3.865h6.864q2.744,0,7.153-.253a61.966,61.966,0,0,0,7.045-.722v-3.829q-2.421.4-8.164.759Zm-5.04-3.522a1.71,1.71,0,0,1,0-3.071,5.411,5.411,0,0,1,2.582-.523,5.211,5.211,0,0,1,2.528.523,1.724,1.724,0,0,1,0,3.071,5.188,5.188,0,0,1-2.528.524,5.387,5.387,0,0,1-2.582-.524" transform="translate(-99.028 -42.473)" fill="#fff"/><path d="M323.438,109.08q.25,2.818.25,7.442v24.963h4.733v-32.4Z" transform="translate(-110.259 -37.185)" fill="#fff"/><path d="M165.369,80.422h4.444V65h2.348V81.9h4.444V49.5h-4.7q.251,2.817.252,7.441v3.685h-2.348V50.04h-4.7q.253,2.817.252,7.441Z" transform="translate(-56.288 -16.874)" fill="#fff"/><path d="M149.032,74.912a35.109,35.109,0,0,0,7.8-.759V70.143a36.249,36.249,0,0,1-6.972.651H148.49V56.741h6.972V52.622H143.579q.25,3.4.25,7.659V74.912Z" transform="translate(-48.946 -17.939)" fill="#fff"/><rect width="10.224" height="3.504" transform="translate(129.781 32.444)" fill="#fff"/><rect width="18.713" height="3.648" transform="translate(125.663 37.465)" fill="#fff"/><path d="M194.5,73.976a12.533,12.533,0,0,0,12.085,0,5,5,0,0,0,.035-8.363,12.757,12.757,0,0,0-12.137,0,5.013,5.013,0,0,0,.016,8.363m3.324-5.908a6.541,6.541,0,0,1,5.455,0,1.894,1.894,0,0,1,.993,1.716,1.924,1.924,0,0,1-1.01,1.733,6.278,6.278,0,0,1-5.42,0,1.924,1.924,0,0,1-1.012-1.733,1.893,1.893,0,0,1,.994-1.716" transform="translate(-65.537 -21.844)" fill="#fff"/><path d="M219.163,92.8V88.685H202.111V83.7h-4.986q.253,2.637.254,6.719V92.8Z" transform="translate(-67.199 -28.533)" fill="#fff"/><path d="M222.117,72.871h4.734V63.009h3.9V58.673h-3.9V49.5H221.9q.217,2.89.216,7.55Z" transform="translate(-75.645 -16.874)" fill="#fff"/><path d="M267.794,91.963V87.844H250.561V81.233h-4.985q.255,2.6.254,6.684v4.046Z" transform="translate(-83.716 -27.692)" fill="#fff"/><path d="M256.3,67.764V51.58H240.48q.253,3.4.252,7.37v8.814ZM245.393,55.7h6.214v7.984h-6.214Z" transform="translate(-81.979 -17.583)" fill="#fff"/><path d="M271.209,72.871h4.731V49.5h-4.985q.253,2.817.254,7.549Z" transform="translate(-92.368 -16.874)" fill="#fff"/><path d="M297.963,70.99h-8.886v3.973h17.592v7.514H311.4V70.99H302.7v-4.7h12.534V62.247h-4.48a53.389,53.389,0,0,0,1.266-11.379H289.149v4.046h17.774a41.021,41.021,0,0,1-1.012,7.334H285.645v4.046h12.318Z" transform="translate(-97.375 -17.341)" fill="#fff"/><path d="M20.078,75.469H8.863L10.1,74.327c5.459-5.26,9.324-9.39,9.324-14.655,0-4.11-2.681-8.257-8.665-8.257A12.187,12.187,0,0,0,2.893,54.24l-.3.256,1.592,3.526.53-.441a8.651,8.651,0,0,1,5.31-2.129c3.928,0,4.751,2.54,4.751,4.665-.039,3.709-2.9,7.028-9.74,13.537l-2.983,2.9v2.956H20.078Z" transform="translate(-0.7 -17.528)" fill="#fff"/><path d="M42.652,79.955c6.209,0,9.771-5.306,9.771-14.556,0-4.33-.8-7.758-2.381-10.19A7.947,7.947,0,0,0,43.1,51.416c-6.028,0-9.771,5.5-9.771,14.357.082,8.748,3.653,14.183,9.32,14.183M42.9,55.247c4.242,0,4.875,6.463,4.875,10.316,0,3.944-.638,10.561-4.916,10.561-3.007,0-4.875-3.953-4.875-10.316,0-6.514,1.883-10.561,4.916-10.561" transform="translate(-11.363 -17.528)" fill="#fff"/><path d="M83.754,75.469H72.539l1.237-1.142c5.46-5.26,9.324-9.39,9.324-14.655,0-4.11-2.681-8.257-8.667-8.257a12.185,12.185,0,0,0-7.865,2.824l-.3.256,1.592,3.526.531-.441a8.64,8.64,0,0,1,5.31-2.129c3.928,0,4.751,2.54,4.751,4.665-.038,3.709-2.9,7.028-9.74,13.537l-2.983,2.9v2.956H83.754Z" transform="translate(-22.406 -17.528)" fill="#fff"/><path d="M104.722,76a11.507,11.507,0,0,1-5.608-1.6l-.558-.357-1.34,3.8.345.225a13.947,13.947,0,0,0,7.2,1.886c7.06,0,10.22-4.27,10.22-8.5a7.26,7.26,0,0,0-5.01-6.975,6.842,6.842,0,0,0,3.988-6.2c0-3.417-2.515-6.866-8.134-6.866a13.175,13.175,0,0,0-7.266,2.147l-.314.232,1.308,3.639.564-.4a9.288,9.288,0,0,1,5.012-1.662c2.63,0,4.139,1.27,4.139,3.485,0,2.916-3.234,3.974-5.407,3.974h-2.53v3.75h2.53c3.043,0,6.31,1.261,6.348,4.8A4.372,4.372,0,0,1,109,74.519,5.755,5.755,0,0,1,104.722,76" transform="translate(-33.141 -17.528)" fill="#fff"/><path d="M46.358,4.321h5.751V.544H37.96V4.321h5.75l-6.289,6.289,2.67,2.671,4.943-4.944,4.943,4.944,2.67-2.671Z" transform="translate(-12.757 -0.186)" fill="#b2112b"/><path d="M8.034,13.774A6.887,6.887,0,1,0,1.147,6.888a6.895,6.895,0,0,0,6.887,6.886m0-10a3.111,3.111,0,1,1-3.11,3.112,3.115,3.115,0,0,1,3.11-3.112" transform="translate(-0.391)" fill="#fff"/><path d="M29.637,9H32.15V5.222H29.637V.488H25.86V13.732h3.777Z" transform="translate(-8.816 -0.166)" fill="#fff"/><path d="M77.525,23.457v3.769H6.189V23.457H2.412V31H81.3V23.457Z" transform="translate(-0.822 -7.996)" fill="#fff"/><rect width="1.498" height="5.619" transform="translate(45 0.346)" fill="#b2112b"/><path d="M73.835,1.261,71.871,3.223l1.963,1.963-1.06,1.06L69.75,3.223,72.774.2Z" transform="translate(-23.778 -0.068)" fill="#b2112b"/><path d="M81.305,2.6l-.295-.04c-.535-.067-.714-.221-.714-.467,0-.272.2-.468.615-.468a2.333,2.333,0,0,1,1.317.46l.724-1.035A3.476,3.476,0,0,0,80.887.38c-1.264,0-2.075.7-2.075,1.741s.655,1.583,1.861,1.756l.295.041c.551.074.707.229.707.468,0,.312-.272.525-.788.525a2.283,2.283,0,0,1-1.48-.611l-.856,1a3.641,3.641,0,0,0,2.32.859c1.493,0,2.282-.755,2.282-1.789,0-1.059-.625-1.6-1.847-1.773" transform="translate(-26.777 -0.13)" fill="#fff"/><path d="M87.834.531,85.842,6.147h1.507l.3-.98h1.814l.3.98h1.515L89.325.531Zm.184,3.438.554-1.78.531,1.78Z" transform="translate(-29.263 -0.181)" fill="#fff"/><path d="M118.483.531l-.96,1.985H117.5L116.518.531H115.03l1.739,3.421V6.146h1.443V3.952L119.947.531Z" transform="translate(-39.213 -0.181)" fill="#fff"/><path d="M101.717,6.146h3.816V4.924h-2.37V3.967h1.969v-1.2h-1.969V1.753h2.37V.531h-3.816Z" transform="translate(-34.675 -0.181)" fill="#fff"/><path d="M94.844,6.146h1.445V3.969h1.97V2.77h-1.97V1.753h2.371V.531H94.844Z" transform="translate(-32.332 -0.181)" fill="#fff"/><path d="M108.115,1.753h1.5V6.146h1.445V1.753h1.5V.531h-4.449Z" transform="translate(-36.856 -0.181)" fill="#fff"/><path d="M68.277,17.786h3.675V16.6H69.607v-.95h2V14.467h-2v-.9h2.345V12.379H68.277Z" transform="translate(-23.276 -4.22)" fill="#fff"/><path d="M79.159,12.38h-1.51l-.79,1.526L76.07,12.38H74.558l1.579,2.635-1.687,2.772h1.521l.887-1.664.888,1.664h1.519L77.58,15.015Z" transform="translate(-25.38 -4.22)" fill="#fff"/><path d="M84.726,12.38H82.584v5.407h1.329V15.858h.813a1.742,1.742,0,1,0,0-3.478m-.062,2.286h-.751V13.572h.751a.548.548,0,1,1,0,1.093" transform="translate(-28.153 -4.22)" fill="#fff"/><path d="M91.6,12.311a1.981,1.981,0,0,0-1.511.608,2.777,2.777,0,0,0-.547,2.142,2.772,2.772,0,0,0,.547,2.139,2.182,2.182,0,0,0,3.021,0,2.764,2.764,0,0,0,.547-2.139,2.769,2.769,0,0,0-.547-2.142,1.979,1.979,0,0,0-1.51-.608m.531,4.069a.7.7,0,0,1-1.062,0c-.121-.159-.2-.334-.2-1.32s.077-1.171.2-1.329a.717.717,0,0,1,1.062,0c.123.159.2.341.2,1.329s-.076,1.161-.2,1.32" transform="translate(-30.524 -4.197)" fill="#fff"/><path d="M101.6,14.468a1.481,1.481,0,0,0,.129-.636,1.694,1.694,0,0,0-.212-.855,1.475,1.475,0,0,0-.6-.581,1.839,1.839,0,0,0-.864-.2,1.881,1.881,0,0,0-.662.113,1.579,1.579,0,0,0-.538.334,1.527,1.527,0,0,0-.359.531,1.731,1.731,0,0,0-.125.663v.248h1.2v-.248a.441.441,0,0,1,.481-.514.54.54,0,0,1,.266.061.361.361,0,0,1,.149.16.629.629,0,0,1,.059.28.8.8,0,0,1-.207.5L98.361,16.71v.969h3.37V16.551H99.994l1.217-1.492a2.925,2.925,0,0,0,.392-.592" transform="translate(-33.531 -4.158)" fill="#fff"/><path d="M107.4,12.645a1.591,1.591,0,0,0-.542-.334,1.9,1.9,0,0,0-1.277,0,1.522,1.522,0,0,0-.542.335,1.5,1.5,0,0,0-.366.536,1.767,1.767,0,0,0-.129.679v2.194a1.7,1.7,0,0,0,.223.875,1.531,1.531,0,0,0,.612.589,1.847,1.847,0,0,0,1.679,0,1.544,1.544,0,0,0,.615-.587,1.7,1.7,0,0,0,.224-.877V13.86a1.761,1.761,0,0,0-.131-.683,1.573,1.573,0,0,0-.366-.533m-.708,3.389a.618.618,0,0,1-.132.422.421.421,0,0,1-.341.136.413.413,0,0,1-.336-.136.624.624,0,0,1-.132-.423V13.881a.743.743,0,0,1,.063-.313.413.413,0,0,1,.153-.178.476.476,0,0,1,.252-.064.468.468,0,0,1,.252.066.394.394,0,0,1,.158.179.719.719,0,0,1,.063.31Z" transform="translate(-35.639 -4.159)" fill="#fff"/><path d="M114.016,14.468a1.5,1.5,0,0,0,.129-.636,1.708,1.708,0,0,0-.212-.855,1.478,1.478,0,0,0-.6-.581,1.841,1.841,0,0,0-.863-.2,1.888,1.888,0,0,0-.664.113,1.605,1.605,0,0,0-.538.334,1.524,1.524,0,0,0-.358.531,1.707,1.707,0,0,0-.126.663v.248h1.2v-.248a.441.441,0,0,1,.481-.514.531.531,0,0,1,.264.061.354.354,0,0,1,.149.16.612.612,0,0,1,.061.28.794.794,0,0,1-.208.5l-1.958,2.381v.969h3.371V16.551h-1.739l1.22-1.492a3.059,3.059,0,0,0,.39-.592" transform="translate(-37.762 -4.158)" fill="#fff"/><path d="M120.06,15.175a1.4,1.4,0,0,0-.273-.314,1.372,1.372,0,0,0,.413-1.045,1.653,1.653,0,0,0-.215-.842,1.518,1.518,0,0,0-.605-.584,1.79,1.79,0,0,0-.865-.206,1.886,1.886,0,0,0-.641.108,1.653,1.653,0,0,0-.533.317,1.513,1.513,0,0,0-.368.5,1.869,1.869,0,0,0-.157.656l-.015.264H118l.02-.225a.544.544,0,0,1,.152-.363.553.553,0,0,1,.7.011.506.506,0,0,1,.129.384.527.527,0,0,1-.117.38.519.519,0,0,1-.386.119h-.363v1.12h.363a.586.586,0,0,1,.439.14.569.569,0,0,1,.14.419.517.517,0,0,1-.559.571.6.6,0,0,1-.4-.132.5.5,0,0,1-.16-.382l-.013-.235h-1.2l.006.256a1.562,1.562,0,0,0,.536,1.219,1.871,1.871,0,0,0,1.225.407,2.026,2.026,0,0,0,.873-.188,1.542,1.542,0,0,0,.653-.584,1.72,1.72,0,0,0,.238-.913,1.593,1.593,0,0,0-.219-.861" transform="translate(-39.799 -4.153)" fill="#fff"/></g></g></g></svg>