<svg xmlns="http://www.w3.org/2000/svg" width="123.814" height="136.566" viewBox="0 0 123.814 136.566"><g transform="translate(-685.054 -960.546)"><path d="M773.119,1073.525H735.565l5.935-21.754h25.687Z" fill="#fff" stroke="#111b3a" stroke-linecap="round" stroke-linejoin="round" stroke-width="3.827"/><path d="M806.955,987.651a11.93,11.93,0,0,0-11.866-11.995H713.595a11.931,11.931,0,0,0-11.863,11.995v49.538H806.955Z" fill="#a3bcef" stroke="#111b3a" stroke-linecap="round" stroke-linejoin="round" stroke-width="3.827"/><path d="M701.731,1037.189v7.734a11.931,11.931,0,0,0,11.863,11.993h81.494a11.931,11.931,0,0,0,11.866-11.993v-7.734Z" fill="#c13c2d" stroke="#111b3a" stroke-miterlimit="10" stroke-width="3.827"/><rect width="64.623" height="10.89" rx="3.61" transform="translate(722.723 1069.528)" fill="#fff" stroke="#111b3a" stroke-linecap="round" stroke-linejoin="round" stroke-width="3.827"/><path d="M792.781,1045.331a13.886,13.886,0,1,1-13.884-14.04A13.96,13.96,0,0,1,792.781,1045.331Z" fill="#fff" stroke="#111b3a" stroke-linecap="round" stroke-linejoin="round" stroke-width="3.827"/><path d="M792.544,1060.633h-27.3a13.722,13.722,0,0,0-13.646,13.8v20.759H806.19v-20.759A13.722,13.722,0,0,0,792.544,1060.633Z" fill="#fff" stroke="#111b3a" stroke-linecap="round" stroke-linejoin="round" stroke-width="3.827"/><line y2="19.437" transform="translate(763.943 1075.751)" fill="#fff" stroke="#111b3a" stroke-linecap="round" stroke-linejoin="round" stroke-width="3.848"/><line y1="19.437" transform="translate(793.849 1075.751)" fill="#fff" stroke="#111b3a" stroke-linecap="round" stroke-linejoin="round" stroke-width="3.848"/><rect width="27.575" height="51.109" transform="translate(687.76 982.752) rotate(-45.004)" fill="#fff" stroke="#111b3a" stroke-linecap="round" stroke-linejoin="round" stroke-width="3.827"/><path d="M743,999.175l-9.75,9.859-9.747,9.857,16.636,4.2,7.021-7.1Z" fill="#fff" stroke="#111b3a" stroke-linecap="round" stroke-linejoin="round" stroke-width="3.827"/><path d="M747.162,1016l-7.021,7.1,9.358,2.363Z" fill="#fff" stroke="#111b3a" stroke-linecap="round" stroke-linejoin="round" stroke-width="3.827"/><line x1="35.745" y1="36.14" transform="translate(700.865 969.496)" fill="#fff" stroke="#111b3a" stroke-linecap="round" stroke-linejoin="round" stroke-width="3.827"/><line x1="35.746" y1="36.139" transform="translate(694.15 976.287)" fill="#fff" stroke="#111b3a" stroke-linecap="round" stroke-linejoin="round" stroke-width="3.827"/><line y2="11.544" transform="translate(766.64 986.222)" fill="#fff" stroke="#111b3a" stroke-linecap="round" stroke-linejoin="round" stroke-width="3.848"/><line x2="11.417" transform="translate(760.931 991.994)" fill="#fff" stroke="#111b3a" stroke-linecap="round" stroke-linejoin="round" stroke-width="3.806"/><line x2="18.266" transform="translate(777.391 991.994)" fill="#fff" stroke="#111b3a" stroke-linecap="round" stroke-linejoin="round" stroke-width="3.806"/></g></svg>