<svg xmlns="http://www.w3.org/2000/svg" width="150.991" height="109.014" viewBox="0 0 150.991 109.014"><g transform="translate(-158.266 -1148.654)"><path d="M230.665,1172.769l-12.646,19.272,12.646,19.274,8.431-15.922Z" fill="#fff" stroke="#111b3a" stroke-miterlimit="10" stroke-width="4.423"/><path d="M255.248,1204.7a25.669,25.669,0,0,0-15.293-23.433L229.4,1199.429l-10.555-18.166a25.669,25.669,0,0,0-15.293,23.433v18.35h14.1v0h23.5v0h14.1Z" fill="#fff" stroke="#111b3a" stroke-miterlimit="10" stroke-width="4.423"/><path d="M246.52,1168a17.12,17.12,0,1,1-17.118-17.015A17.069,17.069,0,0,1,246.52,1168Z" fill="#fff" stroke="#111b3a" stroke-miterlimit="10" stroke-width="4.423"/><path d="M297.1,1255.456H161.7l16.862-37.047H280.238Z" fill="#a3bcef" stroke="#111b3a" stroke-miterlimit="10" stroke-width="4.423"/><rect width="37.266" height="31.523" transform="translate(210.768 1202.659)" fill="#fff" stroke="#111b3a" stroke-miterlimit="10" stroke-width="4.423"/><path d="M297.267,1155.9v4.147H279.88V1155.9H270.1v38.044h36.947V1155.9Z" fill="#c13c2d" stroke="#111b3a" stroke-miterlimit="10" stroke-width="4.423"/><rect width="17.387" height="9.18" transform="translate(279.88 1150.865)" fill="#fff" stroke="#111b3a" stroke-miterlimit="10" stroke-width="4.423"/><path d="M286.707,1186.233,278,1177.792l3.1-3.156,5.522,5.355,10.252-10.489,3.182,3.073Z" fill="#111b3a"/><path d="M188.841,1178.913a6.654,6.654,0,1,1-6.653-6.614A6.633,6.633,0,0,1,188.841,1178.913Z" fill="#fff" stroke="#111b3a" stroke-miterlimit="10" stroke-width="4.423"/></g></svg>