<svg xmlns="http://www.w3.org/2000/svg" width="118" height="79" viewBox="0 0 118 79"><g transform="translate(-599.083 -316.795)"><path d="M5.293,0H88.038a5.295,5.295,0,0,1,5.295,5.295V61.242a5.293,5.293,0,0,1-5.293,5.293H5.293A5.293,5.293,0,0,1,0,61.242V5.293A5.293,5.293,0,0,1,5.293,0Z" transform="translate(622.185 327.695)" fill="#a3bcef" stroke="#111b3a" stroke-linecap="round" stroke-linejoin="round" stroke-width="3.13"/><line x2="11.912" transform="translate(681.342 348.79)" fill="#a3bcef" stroke="#111b3a" stroke-linecap="round" stroke-linejoin="round" stroke-width="3.13"/><rect width="11.912" height="10.41" transform="translate(681.342 348.79)" fill="#a3bcef" stroke="#111b3a" stroke-linecap="round" stroke-linejoin="round" stroke-width="3.13"/><rect width="11.912" height="10.41" transform="translate(681.342 359.201)" fill="#a3bcef" stroke="#111b3a" stroke-linecap="round" stroke-linejoin="round" stroke-width="3.13"/><line x2="11.914" transform="translate(669.427 348.79)" fill="#a3bcef" stroke="#111b3a" stroke-linecap="round" stroke-linejoin="round" stroke-width="3.13"/><rect width="11.914" height="10.41" transform="translate(669.427 348.79)" fill="#a3bcef" stroke="#111b3a" stroke-linecap="round" stroke-linejoin="round" stroke-width="3.13"/><rect width="11.914" height="10.41" transform="translate(669.427 359.201)" fill="#a3bcef" stroke="#111b3a" stroke-linecap="round" stroke-linejoin="round" stroke-width="3.13"/><rect width="11.918" height="10.41" transform="translate(693.254 359.201)" fill="#a3bcef" stroke="#111b3a" stroke-linecap="round" stroke-linejoin="round" stroke-width="3.13"/><rect width="11.912" height="10.41" transform="translate(681.342 369.61)" fill="#a3bcef" stroke="#111b3a" stroke-linecap="round" stroke-linejoin="round" stroke-width="3.13"/><rect width="11.918" height="10.41" transform="translate(693.254 369.61)" fill="#a3bcef" stroke="#111b3a" stroke-linecap="round" stroke-linejoin="round" stroke-width="3.13"/><rect width="11.918" height="10.41" transform="translate(693.254 348.79)" fill="#a3bcef" stroke="#111b3a" stroke-linecap="round" stroke-linejoin="round" stroke-width="3.13"/><rect width="11.914" height="10.41" transform="translate(669.427 369.61)" fill="#a3bcef" stroke="#111b3a" stroke-linecap="round" stroke-linejoin="round" stroke-width="3.13"/><rect width="11.918" height="10.41" transform="translate(657.509 359.201)" fill="#a3bcef" stroke="#111b3a" stroke-linecap="round" stroke-linejoin="round" stroke-width="3.13"/><rect width="11.918" height="10.41" transform="translate(657.509 348.79)" fill="#a3bcef" stroke="#111b3a" stroke-linecap="round" stroke-linejoin="round" stroke-width="3.13"/><rect width="11.918" height="10.41" transform="translate(657.509 369.61)" fill="#a3bcef" stroke="#111b3a" stroke-linecap="round" stroke-linejoin="round" stroke-width="3.13"/><path d="M644.931,336.3a4.272,4.272,0,0,1-4.272,4.271h0a4.271,4.271,0,0,1-4.272-4.271V322.63a4.271,4.271,0,0,1,4.272-4.271h0a4.272,4.272,0,0,1,4.272,4.271Z" fill="#fff" stroke="#111b3a" stroke-linecap="round" stroke-linejoin="round" stroke-width="3.13"/><path d="M701.318,336.3a4.272,4.272,0,0,1-4.273,4.271h0a4.272,4.272,0,0,1-4.272-4.271V322.63a4.272,4.272,0,0,1,4.272-4.271h0a4.272,4.272,0,0,1,4.273,4.271Z" fill="#fff" stroke="#111b3a" stroke-linecap="round" stroke-linejoin="round" stroke-width="3.13"/><path d="M641.06,358.762a8.91,8.91,0,1,1,0,17.819H635.93V358.762Z" fill="#fff" stroke="#111b3a" stroke-linecap="round" stroke-linejoin="round" stroke-width="3.13"/><path d="M635.93,358.762v17.82l-19.381,8.848V349.914Z" fill="#c13c2d" stroke="#111b3a" stroke-linecap="round" stroke-linejoin="round" stroke-width="3.13"/><line x1="9.001" transform="translate(600.647 367.672)" fill="#fff" stroke="#111b3a" stroke-linecap="round" stroke-linejoin="round" stroke-width="3.13"/><line x1="7.381" y1="5.583" transform="translate(601.457 355.432)" fill="#fff" stroke="#111b3a" stroke-linecap="round" stroke-linejoin="round" stroke-width="3.13"/><line x1="7.381" y2="5.578" transform="translate(601.457 374.332)" fill="#fff" stroke="#111b3a" stroke-linecap="round" stroke-linejoin="round" stroke-width="3.13"/></g></svg>