<svg xmlns="http://www.w3.org/2000/svg" width="120.004" height="102.992" viewBox="0 0 120.004 102.992"><g transform="translate(-473.382 -899.419)"><path d="M581.843,988.409c0,3.919-3.159,5.674-7.056,5.674H491.009c-3.9,0-7.057-1.755-7.057-5.674V919.541a7.074,7.074,0,0,1,7.057-7.092h83.778a7.074,7.074,0,0,1,7.056,7.092Z" fill="#fff" stroke="#111b3a" stroke-miterlimit="10" stroke-width="3.547"/><path d="M543.424,985.118h47.22v8.43a7.075,7.075,0,0,1-4.311,6.533,6.986,6.986,0,0,1-2.749.557H482.211a7,7,0,0,1-2.747-.557,7.087,7.087,0,0,1-4.309-6.533v-8.43h68.269Z" fill="#a3bcef" stroke="#111b3a" stroke-miterlimit="10" stroke-width="3.547"/><line x2="6.052" transform="translate(495.427 950.339)" fill="#fff" stroke="#111b3a" stroke-miterlimit="10" stroke-width="3.539"/><line x2="29.504" transform="translate(508.288 950.339)" fill="#fff" stroke="#111b3a" stroke-miterlimit="10" stroke-width="3.539"/><line x2="6.052" transform="translate(495.427 964.779)" fill="#fff" stroke="#111b3a" stroke-miterlimit="10" stroke-width="3.539"/><line x2="29.504" transform="translate(508.288 964.779)" fill="#fff" stroke="#111b3a" stroke-miterlimit="10" stroke-width="3.539"/><path d="M575.955,941.953l-28.6-4.718,11.939,26.538,4.278-5.6L582.8,972.994l8.105-10.618-19.229-14.823Z" fill="#fff" stroke="#111b3a" stroke-miterlimit="10" stroke-width="3.547"/><path d="M530.925,901.193H504.834a5.641,5.641,0,0,0-5.626,5.654v16.461a5.641,5.641,0,0,0,5.626,5.654h8.6l4.442,6,4.44-6h8.6a5.641,5.641,0,0,0,5.628-5.654V906.847A5.641,5.641,0,0,0,530.925,901.193Z" fill="#c13c2d" stroke="#111b3a" stroke-miterlimit="10" stroke-width="3.547"/><line x2="8.37" transform="translate(528.583 993.536)" fill="#fff" stroke="#111b3a" stroke-miterlimit="10" stroke-width="3.539"/></g></svg>