<svg xmlns="http://www.w3.org/2000/svg" width="103.006" height="90.994" viewBox="0 0 103.006 90.994"><g transform="translate(-140.923 -313.943)"><path d="M197.413,371.4a12.227,12.227,0,0,0-12.207-12.248H154.692A12.227,12.227,0,0,0,142.485,371.4v24.5h.025a7.964,7.964,0,0,0,4.833,6.853,7.893,7.893,0,0,0,3.094.626h27.426a7.9,7.9,0,0,0,3.1-.626,7.928,7.928,0,0,0,4.831-6.853h11.622Z" fill="#a3bcef" stroke="#111b3a" stroke-linecap="round" stroke-linejoin="round" stroke-width="3.125"/><path d="M142.485,395.395h0a7.989,7.989,0,0,0,4.858,7.354,7.893,7.893,0,0,0,3.094.626h27.426a7.9,7.9,0,0,0,3.1-.626,7.98,7.98,0,0,0,4.856-7.354h0a7.948,7.948,0,0,0-7.953-7.98H157.295V374.662" fill="#a3bcef" stroke="#111b3a" stroke-linecap="round" stroke-linejoin="round" stroke-width="3.125"/><path d="M170.167,395.117v2.625a5.622,5.622,0,0,0,5.612,5.633h36.665a5.623,5.623,0,0,0,5.613-5.633v-2.625Z" fill="#fff" stroke="#111b3a" stroke-linecap="round" stroke-linejoin="round" stroke-width="3.125"/><path d="M228.25,403.376h-40.74l14.119-31.167h40.738Z" fill="#c13c2d" stroke="#111b3a" stroke-linecap="round" stroke-linejoin="round" stroke-width="3.125"/><path d="M220.721,315.506a20.445,20.445,0,0,0-20.41,20.478h12.1C212.406,324.676,216.13,315.506,220.721,315.506Z" fill="#fff" stroke="#111b3a" stroke-linecap="round" stroke-linejoin="round" stroke-width="3.125"/><path d="M212.406,335.984h-12.1a20.445,20.445,0,0,0,20.41,20.483C216.13,356.466,212.406,347.3,212.406,335.984Z" fill="#fff" stroke="#111b3a" stroke-linecap="round" stroke-linejoin="round" stroke-width="3.125"/><path d="M220.721,315.506c4.591,0,8.314,9.17,8.314,20.478h12.1A20.445,20.445,0,0,0,220.721,315.506Z" fill="#fff" stroke="#111b3a" stroke-linecap="round" stroke-linejoin="round" stroke-width="3.125"/><path d="M220.721,356.466a20.445,20.445,0,0,0,20.41-20.483h-12.1C229.035,347.3,225.312,356.466,220.721,356.466Z" fill="#fff" stroke="#111b3a" stroke-linecap="round" stroke-linejoin="round" stroke-width="3.125"/><path d="M229.035,335.984H212.406c0,11.314,3.724,20.483,8.314,20.483S229.035,347.3,229.035,335.984Z" fill="#fff" stroke="#111b3a" stroke-linecap="round" stroke-linejoin="round" stroke-width="3.125"/><path d="M212.406,335.984h16.629c0-11.308-3.723-20.478-8.314-20.478S212.406,324.676,212.406,335.984Z" fill="#fff" stroke="#111b3a" stroke-linecap="round" stroke-linejoin="round" stroke-width="3.125"/><path d="M191.069,344.66a18.05,18.05,0,1,1-18.05-18.113A18.082,18.082,0,0,1,191.069,344.66Z" fill="#fff" stroke="#111b3a" stroke-linecap="round" stroke-linejoin="round" stroke-width="3.125"/><line y2="2.762" transform="translate(175.188 341.159)" fill="#fff" stroke="#111b3a" stroke-linecap="round" stroke-linejoin="round" stroke-width="3.13"/><line y2="2.762" transform="translate(185.169 341.159)" fill="#fff" stroke="#111b3a" stroke-linecap="round" stroke-linejoin="round" stroke-width="3.13"/><path d="M184.15,351.153a5.081,5.081,0,0,1-3.971,2.078h0a5.1,5.1,0,0,1-3.973-2.078" fill="#fff" stroke="#111b3a" stroke-linecap="round" stroke-linejoin="round" stroke-width="3.125"/></g></svg>