<svg xmlns="http://www.w3.org/2000/svg" width="100.005" height="88.996" viewBox="0 0 100.005 88.996"><g transform="translate(-292.276 -308.833)"><line y2="9.301" transform="translate(309.845 312.633)" fill="#fff" stroke="#111b3a" stroke-linecap="round" stroke-linejoin="round" stroke-width="3.1"/><line x2="9.275" transform="translate(305.208 317.283)" fill="#fff" stroke="#111b3a" stroke-linecap="round" stroke-linejoin="round" stroke-width="3.092"/><path d="M385.512,367.435c0,2.319-1.872,3.358-4.184,3.358H331.645c-2.311,0-4.185-1.039-4.185-3.358V326.669a4.191,4.191,0,0,1,4.185-4.2h49.683a4.19,4.19,0,0,1,4.184,4.2Z" fill="#fff" stroke="#111b3a" stroke-linecap="round" stroke-linejoin="round" stroke-width="3.096"/><path d="M362.727,365.488h28.005v4.988a4.2,4.2,0,0,1-2.556,3.868,4.147,4.147,0,0,1-1.63.33H326.428a4.152,4.152,0,0,1-1.63-.33,4.2,4.2,0,0,1-2.555-3.868v-4.988h40.485Z" fill="#fff" stroke="#111b3a" stroke-linecap="round" stroke-linejoin="round" stroke-width="3.096"/><path d="M341.654,384.611c0-11.818-10.707-21.394-23.914-21.394s-23.915,9.577-23.915,21.394v11.67h10.327v0h27.174v0h10.329Z" fill="#a3bcef" stroke="#111b3a" stroke-linecap="round" stroke-linejoin="round" stroke-width="3.096"/><path d="M335.736,352.658a18.017,18.017,0,1,1-5.268-12.764A18.029,18.029,0,0,1,335.736,352.658Z" fill="#fff" stroke="#111b3a" stroke-linecap="round" stroke-linejoin="round" stroke-width="3.096"/><line y2="2.764" transform="translate(311.437 348.984)" fill="#fff" stroke="#111b3a" stroke-linecap="round" stroke-linejoin="round" stroke-width="3.1"/><line y2="2.764" transform="translate(324.041 348.984)" fill="#fff" stroke="#111b3a" stroke-linecap="round" stroke-linejoin="round" stroke-width="3.1"/><path d="M322.755,358.98a7.061,7.061,0,0,1-5.015,2.08h0a7.075,7.075,0,0,1-5.016-2.08" fill="#fff" stroke="#111b3a" stroke-linecap="round" stroke-linejoin="round" stroke-width="3.096"/><path d="M341.849,337.547V346.6h29.277V316.649l-1.638-1.565-1.635-1.568-1.637-1.57-1.637-1.565H341.849v27.166Z" fill="#c13c2d" stroke="#111b3a" stroke-linecap="round" stroke-linejoin="round" stroke-width="3.096"/><path d="M366.554,318.912h-4.522v-4.328" fill="#c13c2d" stroke="#111b3a" stroke-linecap="round" stroke-linejoin="round" stroke-width="3.096"/><line y2="9.301" transform="translate(355.681 383.632)" fill="#fff" stroke="#111b3a" stroke-linecap="round" stroke-linejoin="round" stroke-width="3.1"/><line x2="9.275" transform="translate(351.043 388.283)" fill="#fff" stroke="#111b3a" stroke-linecap="round" stroke-linejoin="round" stroke-width="3.092"/><line x2="25.816" transform="translate(364.415 388.283)" fill="#fff" stroke="#111b3a" stroke-linecap="round" stroke-linejoin="round" stroke-width="3.092"/></g></svg>