<svg xmlns="http://www.w3.org/2000/svg" width="103" height="80" viewBox="0 0 103 80"><g transform="translate(-449.115 -319.039)"><rect width="74.382" height="68.469" rx="3.736" transform="translate(468.257 320.595)" fill="#fff" stroke="#111b3a" stroke-linecap="round" stroke-linejoin="round" stroke-width="3.113"/><path d="M1.9,0H88.323a1.9,1.9,0,0,1,1.9,1.9v8.584a1.9,1.9,0,0,1-1.9,1.9H1.9a1.9,1.9,0,0,1-1.9-1.9V1.9A1.9,1.9,0,0,1,1.9,0Z" transform="translate(460.336 385.095)" fill="#c13c2d" stroke="#111b3a" stroke-linecap="round" stroke-linejoin="round" stroke-width="3.113"/><line x2="9.559" transform="translate(500.669 390.808)" fill="#c13c2d" stroke="#111b3a" stroke-linecap="round" stroke-linejoin="round" stroke-width="3.113"/><path d="M508.793,328.6a3.343,3.343,0,1,1-3.345-3.344A3.343,3.343,0,0,1,508.793,328.6Z" fill="#fff" stroke="#111b3a" stroke-linecap="round" stroke-linejoin="round" stroke-width="3.113"/><path d="M470.257,359.384l-19.586-20.039v29.9h39.175v-29.9Z" fill="#a3bcef" stroke="#111b3a" stroke-linecap="round" stroke-linejoin="round" stroke-width="3.113"/><path d="M489.847,339.344v-.237H450.672v.237l19.586,20.039Z" fill="#a3bcef" stroke="#111b3a" stroke-linecap="round" stroke-linejoin="round" stroke-width="3.113"/><path d="M496.7,347.334h25.318a2.751,2.751,0,0,1,2.751,2.753V365.5" fill="#fff" stroke="#111b3a" stroke-linecap="round" stroke-linejoin="round" stroke-width="3.113"/><path d="M528.123,362.805l-3.249,3.25-3.249-3.25" fill="#fff" stroke="#111b3a" stroke-linecap="round" stroke-linejoin="round" stroke-width="3.113"/><line y2="9.342" transform="translate(527.871 331.256)" fill="#fff" stroke="#111b3a" stroke-linecap="round" stroke-linejoin="round" stroke-width="3.114"/><line x2="9.339" transform="translate(523.201 335.926)" fill="#fff" stroke="#111b3a" stroke-linecap="round" stroke-linejoin="round" stroke-width="3.113"/><line y2="8.421" transform="translate(506.554 359.6)" fill="#fff" stroke="#111b3a" stroke-linecap="round" stroke-linejoin="round" stroke-width="3.114"/><line x2="8.42" transform="translate(502.344 363.81)" fill="#fff" stroke="#111b3a" stroke-linecap="round" stroke-linejoin="round" stroke-width="3.113"/></g></svg>