<svg xmlns="http://www.w3.org/2000/svg" width="112.009" height="137.997" viewBox="0 0 112.009 137.997"><g transform="translate(-295.353 -901.962)"><path d="M393.223,1012.117a48.032,48.032,0,1,0-96.063,0v8.566h96.063Z" fill="#a3bcef" stroke="#111b3a" stroke-miterlimit="10" stroke-width="3.613"/><path d="M354.312,966.362l-9.121,20.893-9.121-20.893Z" fill="#fff" stroke="#111b3a" stroke-miterlimit="10" stroke-width="3.613"/><path d="M355.238,907.088H335.145a17.879,17.879,0,0,0-1.858.1c-3.535-.32-7.03-.917-8.63-2.031a16.72,16.72,0,0,0,.332,5.153,17.828,17.828,0,0,0-7.6,14.623l.89,11.331c0,9.856,7.063,17.842,16.869,17.842h20.093c9.806,0,16.868-7.987,16.868-17.842l.888-11.331A17.8,17.8,0,0,0,355.238,907.088Z" fill="#fff" stroke="#111b3a" stroke-miterlimit="10" stroke-width="3.613"/><path d="M328.324,946.427c1.189,3.858-.072,7.677-2.814,8.53s-5.928-1.583-7.118-5.443.074-7.677,2.814-8.53S327.136,942.57,328.324,946.427Z" fill="#fff" stroke="#111b3a" stroke-miterlimit="10" stroke-width="3.613"/><path d="M362.057,946.427c-1.188,3.858.074,7.677,2.816,8.53s5.928-1.583,7.116-5.443-.072-7.677-2.814-8.53S363.247,942.57,362.057,946.427Z" fill="#fff" stroke="#111b3a" stroke-miterlimit="10" stroke-width="3.613"/><path d="M360.908,928.543H329.473a4.71,4.71,0,0,0-4.684,4.705v25.686c0,8.663,6.991,12.343,15.609,12.343h9.582c8.621,0,15.611-3.68,15.611-12.343V933.248A4.709,4.709,0,0,0,360.908,928.543Z" fill="#fff" stroke="#111b3a" stroke-miterlimit="10" stroke-width="3.613"/><path d="M335.26,954.581a10.586,10.586,0,0,0,19.861,0" fill="#fff" stroke="#111b3a" stroke-miterlimit="10" stroke-width="3.613"/><line y2="3.381" transform="translate(335.579 941.417)" fill="#fff" stroke="#111b3a" stroke-miterlimit="10" stroke-width="3.622"/><line y2="3.381" transform="translate(354.802 941.417)" fill="#fff" stroke="#111b3a" stroke-miterlimit="10" stroke-width="3.622"/><path d="M353.287,1031.91h33.055v.271a5.96,5.96,0,0,1-5.947,5.972H309.982a5.956,5.956,0,0,1-5.943-5.972v-.271h49.249Z" fill="#a3bcef" stroke="#111b3a" stroke-miterlimit="10" stroke-width="3.613"/><path d="M2.308,0H60.533a2.306,2.306,0,0,1,2.306,2.306v45.9a2.308,2.308,0,0,1-2.308,2.308H2.306A2.306,2.306,0,0,1,0,48.207V2.308A2.308,2.308,0,0,1,2.308,0Z" transform="translate(313.772 987.64)" fill="#c13c2d" stroke="#111b3a" stroke-miterlimit="10" stroke-width="3.613"/><path d="M405.555,963.432a20.571,20.571,0,0,0-20.524-20.623" fill="#fff"/><path d="M405.555,963.432a20.571,20.571,0,0,0-20.524-20.623" fill="none" stroke="#111b3a" stroke-miterlimit="10" stroke-width="3.613"/><path d="M398.619,963.432a13.621,13.621,0,0,0-13.587-13.653" fill="#fff"/><path d="M398.619,963.432a13.621,13.621,0,0,0-13.587-13.653" fill="none" stroke="#111b3a" stroke-miterlimit="10" stroke-width="3.613"/><path d="M391.681,963.431a6.659,6.659,0,0,0-6.646-6.68" fill="#fff"/><path d="M391.681,963.431a6.659,6.659,0,0,0-6.646-6.68" fill="none" stroke="#111b3a" stroke-miterlimit="10" stroke-width="3.613"/><line y2="10.865" transform="translate(303.446 954.578)" fill="#fff" stroke="#111b3a" stroke-miterlimit="10" stroke-width="3.622"/><line x2="10.813" transform="translate(298.04 960.011)" fill="#fff" stroke="#111b3a" stroke-miterlimit="10" stroke-width="3.604"/><ellipse cx="3.844" cy="3.863" rx="3.844" ry="3.863" transform="translate(341.346 996.227)" fill="#fff" stroke="#111b3a" stroke-miterlimit="10" stroke-width="3.613"/></g></svg>