<svg xmlns="http://www.w3.org/2000/svg" width="106.988" height="116.05" viewBox="0 0 106.988 116.05"><g transform="translate(-769.964 -289.272)"><path d="M837.516,399.763c-1.882-1.767-1.637-12.837-1.728-12.966-.615-.857-9.924-.233-12.252.066-2.326-.3-7.87-.923-8.482-.066-.091.129.151,11.2-1.727,12.966s-4.545,3.057-4.386,3.574.784.37.784.37h31.392s.631.151.784-.37S839.394,401.521,837.516,399.763Z" fill="#fff" stroke="#111b3a" stroke-linecap="round" stroke-linejoin="round" stroke-width="3.112"/><path d="M875.4,387.034a1.632,1.632,0,0,1-1.636,1.626H777.445a1.632,1.632,0,0,1-1.639-1.626V320.766a1.636,1.636,0,0,1,1.639-1.632H873.76a1.637,1.637,0,0,1,1.636,1.632Z" fill="#fff" stroke="#111b3a" stroke-linecap="round" stroke-linejoin="round" stroke-width="3.112"/><path d="M775.806,387.034a1.632,1.632,0,0,0,1.639,1.626H873.76a1.632,1.632,0,0,0,1.636-1.626V376.977h-99.59Z" fill="#c13c2d" stroke="#111b3a" stroke-linecap="round" stroke-linejoin="round" stroke-width="3.112"/><path d="M857.835,361.725a32.236,32.236,0,0,0-64.471,0V367.4h64.471Z" fill="#a3bcef" stroke="#111b3a" stroke-miterlimit="10" stroke-width="3.112"/><path d="M831.721,331.4,825.6,345.245,819.479,331.4Z" fill="#fff" stroke="#111b3a" stroke-linecap="round" stroke-linejoin="round" stroke-width="3.112"/><path d="M832.344,292.109H818.86a12.164,12.164,0,0,0-1.247.064c-2.374-.212-4.718-.608-5.793-1.346a10.992,10.992,0,0,0,.222,3.415,11.771,11.771,0,0,0-5.1,9.692l.595,7.512c0,6.532,4.741,11.826,11.322,11.826h13.484c6.58,0,11.32-5.294,11.32-11.826l.6-7.512A11.871,11.871,0,0,0,832.344,292.109Z" fill="#fff" stroke="#111b3a" stroke-linecap="round" stroke-linejoin="round" stroke-width="3.112"/><path d="M814.281,318.183c.8,2.558-.046,5.09-1.888,5.655s-3.98-1.05-4.777-3.608.05-5.09,1.889-5.654S813.484,315.627,814.281,318.183Z" fill="#fff" stroke="#111b3a" stroke-linecap="round" stroke-linejoin="round" stroke-width="3.112"/><path d="M836.92,318.183c-.8,2.558.05,5.09,1.891,5.655s3.977-1.05,4.775-3.608-.047-5.09-1.888-5.654S837.719,315.627,836.92,318.183Z" fill="#fff" stroke="#111b3a" stroke-linecap="round" stroke-linejoin="round" stroke-width="3.112"/><path d="M836.149,306.33h-21.1a3.141,3.141,0,0,0-3.143,3.119v17.025c0,5.743,4.691,8.181,10.475,8.181h6.43c5.786,0,10.476-2.438,10.476-8.181V309.449A3.14,3.14,0,0,0,836.149,306.33Z" fill="#fff" stroke="#111b3a" stroke-linecap="round" stroke-linejoin="round" stroke-width="3.112"/><path d="M818.935,323.588a7.137,7.137,0,0,0,13.33,0" fill="#fff" stroke="#111b3a" stroke-linecap="round" stroke-linejoin="round" stroke-width="3.112"/><line y2="2.242" transform="translate(819.151 314.863)" fill="#fff" stroke="#111b3a" stroke-linecap="round" stroke-linejoin="round" stroke-width="3.1"/><line y2="2.242" transform="translate(832.051 314.863)" fill="#fff" stroke="#111b3a" stroke-linecap="round" stroke-linejoin="round" stroke-width="3.1"/><path d="M794.548,312.01H774.536A3.006,3.006,0,0,0,771.52,315v15.692a3,3,0,0,0,3.016,2.992h5.637l4.37,7.512,4.368-7.512h5.637a3,3,0,0,0,3.016-2.992V315A3,3,0,0,0,794.548,312.01Z" fill="#c13c2d" stroke="#111b3a" stroke-linecap="round" stroke-linejoin="round" stroke-width="3.112"/><line x2="11.049" transform="translate(779.019 322.871)" fill="#c13c2d" stroke="#111b3a" stroke-linecap="round" stroke-linejoin="round" stroke-width="3.124"/><path d="M865.875,302.562a4.686,4.686,0,1,1-4.686-4.651A4.668,4.668,0,0,1,865.875,302.562Z" fill="#fff" stroke="#111b3a" stroke-linecap="round" stroke-linejoin="round" stroke-width="3.112"/></g></svg>