<svg xmlns="http://www.w3.org/2000/svg" xmlns:xlink="http://www.w3.org/1999/xlink" width="182.39" height="40.975" viewBox="0 0 182.39 40.975"><defs><linearGradient id="a" x1="0.5" y1="0.17" x2="0.5" y2="0.616" gradientUnits="objectBoundingBox"><stop offset="0" stop-color="#83bb4b"/><stop offset="0.345" stop-color="#18a673"/><stop offset="0.69" stop-color="#0085c4"/><stop offset="1" stop-color="#004a9c"/></linearGradient><linearGradient id="b" x1="0.501" y1="-128.542" x2="0.501" y2="155.297" gradientUnits="objectBoundingBox"><stop offset="0" stop-color="#e21221"/><stop offset="0.2" stop-color="#ffe30d"/><stop offset="0.4" stop-color="#008e3f"/><stop offset="0.6" stop-color="#0098d7"/><stop offset="1" stop-color="#003e7b"/></linearGradient><linearGradient id="c" y1="-0.56" y2="0.446" xlink:href="#a"/><linearGradient id="d" y1="-3.838" y2="-1.468" xlink:href="#a"/><linearGradient id="e" y1="-4.705" y2="-2.338" xlink:href="#a"/><linearGradient id="f" y1="-2.176" y2="-1.151" xlink:href="#a"/></defs><g transform="translate(-235.52 -339.895)"><g transform="translate(-206.129 -90.208)"><path d="M590.668,448.841c.03-.03-.026-.143,0-.179.09-.126.192-.164.268-.269.092-.125.082-.287.18-.448.024-.04.157-.042.179-.09.034-.071-.039-.2,0-.269.063-.111.2-.223.268-.358a10.277,10.277,0,0,0,1.076-3.675,11.14,11.14,0,0,0-.537-4.481c-.04-.124-.127-.223-.179-.358-.108-.283-.154-.636-.269-.9a15,15,0,0,0-.986-1.793c-.142-.223-.173-.389-.269-.538-.118-.182-.4-.235-.358-.538.208.061.24.3.448.358-.037-.413-.457-.788-.628-.986-.125-.144-.173-.256-.268-.359-.217-.23-.556-.555-.717-.717-.055-.055-.119-.036-.179-.09a3.909,3.909,0,0,0-.627-.538c-.274-.171-.435-.313-.627-.449a4.066,4.066,0,0,0-.807-.358c-.131-.062-.241-.213-.359-.269a13.647,13.647,0,0,0-4.571-1.255c-.491-.035-1.009.068-1.524,0a5.935,5.935,0,0,0-.807-.179,6.516,6.516,0,0,0-.717.09,5.8,5.8,0,0,0-1.255.268c-.169.062-.362.121-.538.18s-.366.028-.537.089c-.136.05-.308.213-.448.269-.077.031-.192-.031-.269,0-.044.018-.107.145-.179.179-.4.187-.643.263-.986.448a4.187,4.187,0,0,0-.537.448c-.073.055-.2.045-.269.089s-.117.141-.179.18-.194.032-.269.089-.034.223-.089.269c-.08.066-.2.025-.269.09-.127.118-.232.239-.359.358-.218.2-.5.41-.717.628-.049.049-.05.217-.09.268-.167.219-.483.283-.627.448-.043.05-.061.228-.09.269-.005.008-.076.076-.089.089-.062.065-.03.1-.09.18-.137.183-.332.282-.448.448s-.16.452-.269.627c-.017.028-.153-.023-.179,0-.063.056-.029.3-.089.358a2.828,2.828,0,0,0-.448.717c-.322.628-.516,1.3-.807,1.882v-.089h-.079l-.011.045a.277.277,0,0,1,0-.045h-.092a13.346,13.346,0,0,0-.268,7.887,13.951,13.951,0,0,0,.986,2.241c.134.256.212.485.358.717.136.215.3.414.448.627.3.43.53.979.986,1.165.045.449.624.656.807.9.046.061.035.214.09.268.116.116.309.144.448.269.232.208.447.421.717.627.127.1.3.157.448.269.123.091.222.267.359.358.115.077.318.1.448.179.063.037.092.136.179.18.24.12.286.188.448.269a20.069,20.069,0,0,0,2.241.9,8.287,8.287,0,0,0,1.255.269,11.32,11.32,0,0,0,2.778.359,5.336,5.336,0,0,0,1.793-.448,6.046,6.046,0,0,0,.717-.359c.088-.055.168-.033.269-.089a4.287,4.287,0,0,0,.807-.627c.4-.34,1.117-.538,1.076-1.165-.632-.056-1.52.146-1.882-.179a6.117,6.117,0,0,0,1.7-.628,9.607,9.607,0,0,0,1.524-.807,4.853,4.853,0,0,0,.448-.358c.034-.028.149.03.18,0s-.03-.154,0-.179c.1-.085.255-.094.358-.18s.142-.245.269-.358c.109-.1.237-.083.358-.179.273-.216.531-.642.717-.807.032-.028.149.031.18,0s-.03-.149,0-.179c.256-.262.549-.55.717-.717s.082-.168.18-.359C590.5,448.815,590.646,448.863,590.668,448.841Zm-19.36-7.26c-.342-.261-.1-1.026,0-1.523.084-.415.213-.429.358-.807a1.608,1.608,0,0,1,.538-.9,5.994,5.994,0,0,1,.717-.627,4.577,4.577,0,0,1,2.868-.538,1.2,1.2,0,0,1,1.165.986c.149.118.921.448.807.986a.854.854,0,0,1-.448.448c-.544.1-1.114-1.234-1.883-1.345a3.541,3.541,0,0,0-1.972.269A4.348,4.348,0,0,0,571.308,441.581Zm15.865,5.826a2.178,2.178,0,0,1-.627.627c-.181.143-.265.453-.538.358-.165.045,0,.282,0,.269-.03.116-.116.106-.179.179a4.5,4.5,0,0,1-1.165.628,9.386,9.386,0,0,1-1.883.986c-.267.081-.542.11-.807.179a8.547,8.547,0,0,1-3.765.269c-.5-.076-1.029-.238-1.524-.359a7.809,7.809,0,0,1-.807-.179,1.971,1.971,0,0,1-1.076-.717c-.11-.145-.123-.368-.269-.538a5.322,5.322,0,0,0-.807-.717,2.827,2.827,0,0,1-.807-1.344.761.761,0,0,1,.448-.717c.326-.069.408.138.717.448.19.19.432.421.538.538.615.68.717.976,1.434,1.344.041.022.148.17.179.179.08.024.192-.031.269,0a2.776,2.776,0,0,0,.448.18,10.99,10.99,0,0,0,3.765.538,12.531,12.531,0,0,0,3.047-.717,11.966,11.966,0,0,0,1.7-.717,12.743,12.743,0,0,0,1.345-.807c.2-.13.477-.542.806-.628-.031.287-.292.475-.442.718Zm1.7-6.543c-.275-.065-.263.154-.538.09-.521-.381-.325-1.063-.537-1.524a1.849,1.849,0,0,0-.717-.717,3.9,3.9,0,0,0-.807-.538,4.665,4.665,0,0,0-3.765.986c-.157.149-.167.48-.448.448a1.135,1.135,0,0,1,.358-.717c.037-.045.047-.127.089-.179.189-.23.646-.3.628-.717a1.917,1.917,0,0,0,.717-.358c.192-.179.214-.138.717-.269.162-.042.309-.158.448-.179a3.069,3.069,0,0,1,2.6.538c.266.255,1.04.675,1.165.986.106.264-.043.5,0,.807.056.372.557.821.093,1.343Z" transform="translate(-40.441)" fill-rule="evenodd" fill="url(#a)"/><path d="M569.193,445.961a.422.422,0,0,0-.042.134h.009Z" transform="translate(-41.15 -7.114)" fill-rule="evenodd" fill="url(#b)"/><path d="M515.627,451.441c.028.22-.029.453,0,.628.02.124.153.236.179.358.049.231-.036.442,0,.537s.2.108.268.18c.03.03-.024.143,0,.179.075.114.2.242.269.359a6.475,6.475,0,0,0,.448.9c.111.1.4.14.448.179,0,0,.122.192.09.179.07.028.392-.027.538,0,.281.052.508.18.627.179.426,0,.862-.288,1.344-.268a1.675,1.675,0,0,1,.717-.717,2.216,2.216,0,0,0,.537-.448.844.844,0,0,1,.359-.269c.159-.072.2-.454.448-.358.036.382-.087.923.089,1.165.184.2.8-.025.986.18.04-.407.509-.228.717-.359a2.759,2.759,0,0,0,.538-.537c.039-.063.112-.4.179-.627a12.865,12.865,0,0,0,.448-3.765c0-.567.106-1.166.09-1.524-.008-.17-.158-.354-.179-.538-.03-.253.047-.468,0-.717-.019-.1-.125-.265-.18-.448a8.255,8.255,0,0,0-.537-1.524c-.02-.035-.152-.053-.179-.09-.057-.076-.041-.2-.09-.269-.291-.4-.845-1-1.255-.9-.3.078-.132.086-.269.269-.029.038-.163.039-.179.09-.093.292.144.625.179,1.076.016.2-.1.455-.089.717a15,15,0,0,1,.089,2.331c-.032.3-.173.552-.179.806-.009.363.112.668.09.986-.039.531-.313.967-.18,1.524-.222.144-.468.562-.9.807a3.3,3.3,0,0,1-.627.179c-.034.01-.132.166-.179.18-.932.252-1.264.053-1.524-.449-.019-.037-.158-.045-.179-.089-.13-.273.094-.539,0-.807.488-.214,1.05.085,1.434,0a1.567,1.567,0,0,0,.538-.358c.062-.058.208-.03.269-.089.119-.116.138-.358.179-.449.014-.031.158-.052.179-.089a7.15,7.15,0,0,0,.538-1.255c.042-.137-.039-.311,0-.448.005-.02.165-.061.179-.09a.5.5,0,0,0-.09-.448c-.035-.225.234-.472,0-.627-.388-.081-.732.231-1.255.269a15.483,15.483,0,0,0-1.972-.09,1.4,1.4,0,0,0-.358-1.165c-.078-.138-.1-.238-.179-.359a1.863,1.863,0,0,0-.986-.9c-.352.054-.1-.492-.538-.358-.295.012-.051.213-.089.358s-.205.272-.269.448-.111.342-.179.538c-.074.213-.26.643-.269.717a20.067,20.067,0,0,0-.269,4.571C515.465,451.058,515.6,451.272,515.627,451.441Z" transform="translate(-17.027 -5.827)" fill="#004a9c" fill-rule="evenodd"/><path d="M625.844,457.186a8.058,8.058,0,0,1-.18-1.165,7.852,7.852,0,0,0-.089-1.255c-.022-.085-.189-.266-.268-.448-.092-.209-.117-.552-.179-.627a1.324,1.324,0,0,0-1.166-.448c-.2.064-.459.515-.537.9a11.4,11.4,0,0,0,0,1.434,13.056,13.056,0,0,0-.09,1.345,4.983,4.983,0,0,1,.18,1.255,4.92,4.92,0,0,1-2.779.179c-.436-1.45.09-3.313-.179-4.93a9.977,9.977,0,0,1,1.076-.09c.029,0,.226-.17.269-.179.139-.031.313.044.448,0,.364-.119.705-.53,1.165-.538.127,0,.261.117.448.18a5.082,5.082,0,0,0,.538.089,4.956,4.956,0,0,0,1.076.269,5.7,5.7,0,0,0,1.434-.358,6.6,6.6,0,0,0,.986-.18c.259-.16.383-.556.538-.9a5.513,5.513,0,0,0,.358-1.076,3.3,3.3,0,0,0-1.524.18,4.944,4.944,0,0,1-.537.179,7.785,7.785,0,0,1-2.51-.179c-.216,0-.172-.236-.269-.359-.185-.235-.186-.2-.448-.269-.4-.11-.315.024-.538.09a16.658,16.658,0,0,1-3.227.268c-.245.012-.523.1-.718.09a6.1,6.1,0,0,1-1.433-.358,4.792,4.792,0,0,0-1.076-.179,4.36,4.36,0,0,0-.807.269,1.556,1.556,0,0,0,.18.807c.364.807,1.093,1.116,1.523,1.792a9.463,9.463,0,0,0-.986,5.288c.02.163.136.355.179.538a16.7,16.7,0,0,0,.448,1.7,1.286,1.286,0,0,1,.448.269c.052.056.047.212.09.269.163.213.351.2.627.358a2.55,2.55,0,0,0,.986.358,3.638,3.638,0,0,0,2.241-.358c.4-.151.785-.369,1.076-.448a4.157,4.157,0,0,0,1.344-.807c.175-.116.539-.423.619-.446-.021.02.262.168.278.177a3.519,3.519,0,0,0,1.792.627,8.909,8.909,0,0,0,.9.09,4.636,4.636,0,0,0,1.255-.269c.183-.048.384-.037.538-.09.588-.2.907-.4,1.076-.9a2.81,2.81,0,0,0,.18-1.792C629.39,456.779,626.793,458.08,625.844,457.186Z" transform="translate(-62.083 -8.973)" fill-rule="evenodd" fill="url(#c)"/><path d="M712.213,453.456c-.061-.107-.219-.175-.269-.268a8.017,8.017,0,0,0-.359-.807c-.427-.606-1.174-1.378-1.971-1.165-.486.4-.151.79-.09,1.434.016.168-.088.269-.089.358,0,.114.081.342.089.448a3.733,3.733,0,0,0,0,.538c.023.106.174.243.18.358a1.719,1.719,0,0,0-.089.359c-.037.663-.009,1.409,0,1.793,0,.15-.086.321-.09.448-.023.726-.068,1.334-.089,1.883-.009.243.1.491.089.717-.026.632-.193,1.153-.179,1.614a4.061,4.061,0,0,0,.179.986c.058.2-.033.672.449.717a2.792,2.792,0,0,0,.9-.089c.039-.013.106-.15.18-.179.35-.138.558-.094.806-.269.507-.357.63-1.275.807-1.972.077-.3.411-1.7.179-1.882-.057-.046.09-.113.089-.09.01-.837-.054-1.516-.089-2.062A8.3,8.3,0,0,0,712.213,453.456Z" transform="translate(-104.058 -9.455)" fill="#004a9c" fill-rule="evenodd"/><path d="M658.932,456.555c.2.555.428.6.986.9a4.885,4.885,0,0,0,.9.448,8.678,8.678,0,0,0,.9,0c.143.014.274.169.448.179s.325-.119.448-.089c.179.042.243.221.359.269.22.09.458-.069.538.179a5.994,5.994,0,0,1,.358,1.614c.024.458-.1.987-.089,1.255.007.131.1.16.089.359-.047.6-.393,1.215,0,1.7a1.043,1.043,0,0,0,.717-.358c.1-.078.089-.294.179-.359.052-.037.137.094.18.09.074-.007.142-.132.179-.179a5,5,0,0,0,.448-1.076c.023-.055.145-.093.179-.179a5.341,5.341,0,0,0,.269-1.613c.036-.319.171-.625.179-.9a6.478,6.478,0,0,0-.089-.9c-.037-.3-.034-.663-.09-.9-.007-.028-.167-.137-.179-.179-.032-.1.045-.261,0-.358a3.777,3.777,0,0,1-.269-.269,4.067,4.067,0,0,0-1.076-1.076c-.054-.034-.117-.146-.179-.18a5.057,5.057,0,0,0-2.241-.358c-.294.01-.909-.116-1.255-.09a5.376,5.376,0,0,0-1.882.18c-.026.015.019.153,0,.179s-.143.043-.18.089c-.37.467-.067.711.09,1.165C658.9,456.27,658.874,456.4,658.932,456.555Z" transform="translate(-81.277 -10.941)" fill="#004a9c" fill-rule="evenodd"/><path d="M725.287,457.6c.159.311.155.368.359.537a4.891,4.891,0,0,1,.448.448,1.144,1.144,0,0,0,.538.358,14.955,14.955,0,0,0,1.524.359c.254.051.565.04.717.09.023.007.057.164.09.179.072.034.2-.037.269,0,.325.168.334.717.358,1.165.015.282-.008.562-.09.627-.059.048.092.108.09.09a1.737,1.737,0,0,1,0,.358c-.068.617-.556,1.013-.448,1.7.661.241.734-.17,1.076-.359.147-.08.163.057.358-.089-.078-.174.143-.129.18-.18.069-.1.094-.228.179-.358.066-.1.194-.17.269-.268a3.11,3.11,0,0,0,.627-1.434c.06-.252.157-.451.18-.627a4.255,4.255,0,0,0-.448-2.689c-.1-.166-.316-.281-.448-.448-.028-.036.019-.137,0-.179-.1-.216-.5-.378-.627-.448a3.723,3.723,0,0,0-.9-.359c-.223-.072-.421-.225-.627-.268a10.789,10.789,0,0,0-1.076-.09c-1.172-.1-2.465-.3-2.778.538a3.941,3.941,0,0,0,0,1.165C725.117,457.453,725.266,457.561,725.287,457.6Z" transform="translate(-111.113 -11.45)" fill="#004a9c" fill-rule="evenodd"/><path d="M674.565,466.414a1.654,1.654,0,0,0,.538.09c.1-.015.338-.132.358-.269a.692.692,0,0,0,.717-.269c.063-.048.211-.033.269-.09a5.241,5.241,0,0,0,.448-1.076c.01-.034.162-.133.179-.179a4.217,4.217,0,0,0,.179-1.165c.021-.159.154-.267.18-.448a15.209,15.209,0,0,0,.09-2.419,10.341,10.341,0,0,0-.179-2.152,6.252,6.252,0,0,0-.9-1.882,2.041,2.041,0,0,0-.449-.448,1.279,1.279,0,0,0-.179-.089c-1.143-.5-.814.557-.807,1.255,0,.213-.092.482-.09.717,0,.26.095.513.09.717-.018.731-.324,2.663-.448,4.034-.044.486-.2,1.157-.269,1.792C674.207,465.3,674.177,466.176,674.565,466.414Z" transform="translate(-88.306 -11.568)" fill="#004a9c" fill-rule="evenodd"/><path d="M699.74,463.416c.185-.245.286-.4.448-.627.093-.13.226-.185.268-.27s.034-.3.09-.448a3.932,3.932,0,0,0,.268-2.151,7.539,7.539,0,0,0-.627-2.062c-.154-.352-.259-.881-.717-.986a.091.091,0,0,0-.179,0c-.183.026-.176.243-.358.269a2.77,2.77,0,0,0-2.242,1.255c-.073.067-.182.029-.268.09s-.107.209-.179.269a2.226,2.226,0,0,0-.627.627,5.478,5.478,0,0,0-.359.538,2.474,2.474,0,0,1-.089.358c-.217.391-.63.721-.717.986a6.433,6.433,0,0,0-.09,1.883c.118.738,1.439,1.442,2.152,1.523a3.434,3.434,0,0,0,2.151-.537,3.389,3.389,0,0,0,1.075-.717Zm-2.6-.807c-.041-.019-.056-.164-.09-.179a.768.768,0,0,1-.359-.269,1.553,1.553,0,0,1-.089-1.255c.171-.535.771-.811.9-1.255,1.089-.242,1.873,1.268,1.524,2.151a2.225,2.225,0,0,1-1.434.9,2.042,2.042,0,0,1-.452-.093Z" transform="translate(-97.321 -11.976)" fill="#004a9c" fill-rule="evenodd"/><path d="M501.92,464a4.365,4.365,0,0,1,0-.538,7.2,7.2,0,0,0-.359-1.793,5.611,5.611,0,0,0-.358-.627c-.185-.375-.3-.746-.448-.986-.087-.141-.17-.347-.179-.359-.072-.089-.2-.05-.358-.179-.309-.244-.691-.729-.986-.806a1.54,1.54,0,0,1-.538,0c-.267-.1-.228.434-.448.359a11.771,11.771,0,0,1,.179,1.613c-.022.337.063.864.089,1.345.1,1.727-.262,3.545-.268,5.2,0,.347.1.676.089.986a10.289,10.289,0,0,0-.269,2.42c.015.072.136.255.18.359a2.026,2.026,0,0,0,.089.358c.03.03.143-.025.179,0a.935.935,0,0,0,.628.179c.122,0,.158-.149.268-.179-.045.012.058.086.089.089.082.01.116-.072.18-.089.169-.047.383-.092.627-.179.059-.021.184-.146.269-.179.4-.157.413-.136.627-.538.149-.279.272-.544.358-.717a5,5,0,0,0,.269-1.613c.037-.245.159-.435.179-.627a16.965,16.965,0,0,0,0-2.241c-.009-.317.1-.618.09-.9C502.093,464.236,501.946,464.124,501.92,464Z" transform="translate(-9.236 -12.83)" fill="#004a9c" fill-rule="evenodd"/><path d="M717.879,462.229a4,4,0,0,0,.38-.567c.314-.609.146-.826-.067-1.106-.194-.257-.238-.046-.617-.116a8.508,8.508,0,0,0-1.057-.2c-.074,0-.439-.082-.44-.082-.017,0-.152.131-.21.143-.28.061-.487-.077-.721-.044-.1.014-.109.137-.3.127-.293-.015-.486-.2-.7-.132a4.108,4.108,0,0,0,.138,1.211,7.255,7.255,0,0,0,.325.7c.09.222.052.328.11.385a3.8,3.8,0,0,0,1.625.578,3.209,3.209,0,0,0,.754-.132c.081-.039.066-.192.138-.248.054-.042.235,0,.281-.039C717.589,462.64,717.751,462.391,717.879,462.229Z" transform="translate(-106.212 -13.485)" fill="#004a9c" fill-rule="evenodd"/><path d="M685.19,462.227c-.115-.014-.458.094-.628.09-.539-.014-1.136-.2-1.613-.18a3.239,3.239,0,0,0-1.614.448,2.242,2.242,0,0,0-.089,1.614,9.737,9.737,0,0,1,.358,1.076c.386.115.8.439,1.255.537.293.063.692.055,1.076.09a7.3,7.3,0,0,0,1.165.09c.186-.024.173-.148.269-.18.127-.041.329.06.448,0,.025-.013.063-.155.09-.179.065-.061.2-.029.268-.089.129-.117.193-.33.359-.538.116-.147.366-.294.448-.448a7.6,7.6,0,0,0,.448-1.7c-.421-.137-1.176-.3-1.7-.448a4.516,4.516,0,0,0-.54-.183Z" transform="translate(-91.402 -14.372)" fill="#004a9c" fill-rule="evenodd"/><path d="M556.213,464.521c-.034-.078-.2-.154-.269-.268-.1-.149-.093-.3-.179-.448-.4-.71-1.243-1.723-2.062-1.524a.245.245,0,0,0-.179.269c-.287.254.047.791.09,1.255.01.11-.1.126-.09.269,0,.114.083.126.09.268a54.2,54.2,0,0,1-.18,6.006,7.247,7.247,0,0,0,0,2.6c.461.3.757.1,1.165,0a2.447,2.447,0,0,0,1.076-.448c.038-.035.093-.239.179-.358s.222-.169.269-.269a5.374,5.374,0,0,0,.179-.9c.036-.137.148-.207.179-.358s-.028-.376,0-.538a9.049,9.049,0,0,0,.18-.9,13.523,13.523,0,0,0-.359-4.123C556.246,464.871,556.267,464.649,556.213,464.521Z" transform="translate(-34.041 -14.425)" fill="#004a9c" fill-rule="evenodd"/><path d="M484.617,471.046a6.244,6.244,0,0,1-1.076.179,3.967,3.967,0,0,1-1.165.089c-.51-.4-.4-.9-.359-1.613a15.527,15.527,0,0,0-.089-3.5,4.593,4.593,0,0,1,.9-.269c.087-.023.239-.15.358-.179.2-.051.465.059.627,0a4.459,4.459,0,0,0,.627-.358c.084-.055.168-.188.269-.27a2.527,2.527,0,0,1,.358-.179c.045-.051.062-.22.09-.269a1.722,1.722,0,0,0,.359-1.165c-.029-.19-.138-.165-.18-.269a1.741,1.741,0,0,0-.269-.627,2.217,2.217,0,0,0-.806.179c-.113.033-.313.055-.448.09s-.22.157-.358.179c-.089.014-.3-.114-.448-.09-.1.017-.284.175-.358.18-.16.009-.47-.086-.717-.09-.594-.009-1.158.124-1.524.09-.709-.068-1.492-.615-2.151-.538-.332.039-.445.282-.807.358.1,1.362,1.106,1.821,1.793,2.6-.455.352-.465.781-.627,1.434-.057.229-.225.409-.269.627a13.019,13.019,0,0,0-.179,1.614,32.1,32.1,0,0,0,.269,3.406c.16.228.443.334.358.807.413.1.579.566.807.717.177.117.311.184.448.269a1.715,1.715,0,0,0,.807.269,3.039,3.039,0,0,0,1.7-.359c.212-.082.434-.1.627-.179.177-.069.361-.2.538-.269.231-.085.479-.1.627-.179.125-.068.189-.226.358-.358s.32-.154.448-.269a3.978,3.978,0,0,0,.9-1.165c.245-.444.73-.955.538-1.524C485.823,470.2,485.287,470.821,484.617,471.046Z" transform="translate(0 -14.586)" fill="#004a9c" fill-rule="evenodd"/><path d="M663.436,465.2a1.435,1.435,0,0,1-.179-.358c-.243-.186-.716-.157-1.076-.269.015.224-.138.281-.269.359a6.7,6.7,0,0,1-.089,1.523,9.809,9.809,0,0,1,.089,1.614,3.41,3.41,0,0,0,1.614-.627c-.062-.41.372-.8.358-1.255a3.061,3.061,0,0,0-.448-.987Z" transform="translate(-82.735 -15.467)" fill="#004a9c" fill-rule="evenodd"/><path d="M511.289,469.588c.26.042.617-.031.9,0s.551.155.807.179a4.057,4.057,0,0,1,1.345.089,3.945,3.945,0,0,0,0,.9c.006.167-.11.2-.089.358.027.21.176.394.179.627.007.564-.282,1.221.09,1.793.449-.12.77.146,1.075.089.15-.027.388-.27.538-.358.207-.122.328-.3.627-.269a1.8,1.8,0,0,1,.717-.807c.066-.212-.084-.371,0-.627.047-.144.152-.075.179-.269.09-.633-.087-1.368.179-1.7a8.458,8.458,0,0,0,1.345-.09c.089-.021.276-.212.448-.269s.463-.022.627-.089c.035-.014.122-.146.179-.179.254-.147.514-.255.717-.359a5.715,5.715,0,0,0,1.076-.627c.064-.06.2-.029.269-.089a4.811,4.811,0,0,0,.358-.538c.147-.192.307-.378.448-.538-.225-.384.04-.627.09-.986-.31.055-.564-.246-.9-.269-.214-.014-.535.155-.9.179a5.027,5.027,0,0,1-.807-.089c-.276.036-.461.249-.717.268-.177.014-.428-.085-.627-.089-.168,0-.388.091-.538.089-.214,0-.361-.1-.538-.089s-.365.091-.538.089c-.373,0-.733-.262-1.076,0a6.812,6.812,0,0,0-2.6-.179c-.421-.024-.832-.154-1.255-.179-.262-.015-.55.1-.807.09a28.612,28.612,0,0,0-3.227-.269c-.26.024-.588.333-.986.179-.071.26-.342.532-.358.717-.018.2.147.17.179.269.062.19-.044.391,0,.537.036.121.128.16.179.269.067.144-.029.3,0,.358s.24.043.268.09c.053.085-.056.277,0,.358s.208.107.269.18c.273.322.081.233.359.358.03.014.053.158.089.179.08.048.39.1.627.179.064.021.213.049.359.09.1.029.193.163.269.179.183.039.449-.055.627,0C511,469.4,511.1,469.556,511.289,469.588Z" transform="translate(-13.496 -15.817)" fill="#004a9c" fill-rule="evenodd"/><path d="M540.79,467.218a1.235,1.235,0,0,0-1.524-.717c-.373.062-.422.189-.627.269-.223.087-.55.088-.717.179-.151.083-.239.273-.448.448-.166.139-.4.232-.538.358a5.351,5.351,0,0,0-1.076,1.165,7.224,7.224,0,0,0-.538,2.331,3.722,3.722,0,0,0,.807,1.613c.323.453.762,1.067,1.345,1.165a3.437,3.437,0,0,0,1.255-.179,2.829,2.829,0,0,0,.717-.717c.239-.351.448-.6.628-.9a6.463,6.463,0,0,0,.807-2.151,3.807,3.807,0,0,0,0-.807A5.277,5.277,0,0,0,540.79,467.218Zm-2.42,4.84a1.806,1.806,0,0,1-.807-2.6c.024-.037-.03-.149,0-.18.067-.067.461-.144.627-.269.08-.06.055-.148.179-.179a.85.85,0,0,1,1.076.717,2.734,2.734,0,0,1-1.075,2.511Z" transform="translate(-25.967 -16.316)" fill="#004a9c" fill-rule="evenodd"/><path d="M494.431,468.567c-.1-.236-.106.362-.448.179a3.369,3.369,0,0,0-1.076-.09,5.727,5.727,0,0,0-.986-.179c-.139.012-.309.167-.448.179-.3.026-.629-.018-.986,0a.808.808,0,0,1-.359.359,4.1,4.1,0,0,0,.18,1.076c.013.028.156.059.179.089.061.082.028.2.089.269.161.186.365.322.448.448a1.392,1.392,0,0,0,.9.627,1.829,1.829,0,0,0,1.076-.089c.288-.062.584-.03.717-.09.1-.042.318-.332.358-.358a1.1,1.1,0,0,0,.359-.627,6.26,6.26,0,0,0,.179-.627C494.675,469.374,494.9,468.712,494.431,468.567Z" transform="translate(-5.691 -17.216)" fill="#004a9c" fill-rule="evenodd"/><path d="M733.078,469.978a1.178,1.178,0,0,0-.986-.089c-.417.086-1.094.015-1.255.089a.838.838,0,0,1-.269.09,39.626,39.626,0,0,1-4.3.179c-.826.067-1.759.093-2.51.09a10.75,10.75,0,0,0-2.241,0c-.119.035-.387.068-.448.089-.241.088-.174.018-.358.179-.45.395-.23.493.09,1.076.037.068-.029.2,0,.268.045.111.324.223.358.269.065.087.012.2.09.269a1.932,1.932,0,0,0,.179.089,4.139,4.139,0,0,0,1.255.359,9.171,9.171,0,0,0,2.689.268c-.157.329.091.657.09.9,0,.13-.121.161-.09.359,0,.018.169.144.18.179.042.136-.03.309,0,.448a6.476,6.476,0,0,1,.179.627c.013.138-.081.257-.089.448-.007.141.089.311.089.448,0,.291-.072.629-.089.9a2.844,2.844,0,0,0,.179,1.882c.807.213,1.185-.38,1.524-.627.081-.059.2-.036.269-.089.209-.16.214-.35.358-.628a3.208,3.208,0,0,0,.269-.448,4.928,4.928,0,0,0,0-.986c-.011-.089.083-.107.089-.18a7.818,7.818,0,0,0-.089-1.254c0-.28.111-.512.089-.717-.013-.12-.158-.184-.179-.269s.09-.111.09-.179c0-.085-.066-.113-.09-.179-.089-.251-.385-.471-.269-.807.6-.127,1.308-.109,1.972-.268.1-.025.235-.136.358-.18.191-.068.39-.027.538-.089s.253-.25.448-.359.456-.166.627-.269c.066-.039.09-.134.18-.179.122-.061.248-.017.358-.09A1.873,1.873,0,0,0,733.078,469.978Z" transform="translate(-109.044 -17.821)" fill="#004a9c" fill-rule="evenodd"/><path d="M550.324,470.733c-.359-.042-.862.012-1.345,0a5.434,5.434,0,0,0-2.33.179,1.448,1.448,0,0,0,.448,1.524,1.766,1.766,0,0,0,1.434.807c.538.006.9-.336,1.434-.448a4.575,4.575,0,0,0,.359-2.062Z" transform="translate(-31.019 -18.217)" fill="#004a9c" fill-rule="evenodd"/><path d="M661.646,474.432a4.639,4.639,0,0,0,.628-.269c.221-.09.437-.169.627-.268a6.956,6.956,0,0,0,1.165-.717c.074-.076.114-.266.179-.359a2.416,2.416,0,0,0,.269-.358,5.535,5.535,0,0,0,.269-.9,1.34,1.34,0,0,0-1.165-.179,1.71,1.71,0,0,1-.358,0,38.729,38.729,0,0,1-6.454-.359c.009,0-.024.09-.089.09s-.087-.089-.09-.09c-1.266-.138-2.7-.185-2.33,1.166a4.27,4.27,0,0,0,.717,1.434,10.624,10.624,0,0,0,1.344.537,4.074,4.074,0,0,0,1.345.269c.551.061,1.063.076,1.614.09.251.007.514.1.717.089.221-.01.472-.16.718-.179C661.067,474.408,661.431,474.472,661.646,474.432Z" transform="translate(-79.331 -18.331)" fill="#004a9c" fill-rule="evenodd"/><path d="M627.087,473.108a11.5,11.5,0,0,0-2.241-.179c-.219-.007-.5-.1-.717-.09-.293.009-.6.161-.9.18-.133.008-.222-.084-.269-.09-.124-.016-.238.089-.268.09-.3.006-.545,0-.807,0-.957.015-1.949.118-2.689.089-.328-.013-.893-.093-1.344-.089-.829.006-1.679.18-2.51.179-1.133,0-2.522-.23-3.406-.268-.172-.007-.379.1-.538.09-.19-.017-.39-.158-.537-.18a3.94,3.94,0,0,0-1.076,0,3.879,3.879,0,0,0-.807.18c.137.444-.029.9.09,1.255a2.941,2.941,0,0,1,.269.268c.079.114.1.245.179.359.057.081.206.174.27.269.2.3.117.25.358.358.031.014.053.158.09.179.441.255,1.025.432,1.345.627.384.235.787.261.986.627a16.155,16.155,0,0,1,1.614.359c.279.051.584.031.9.089a7.717,7.717,0,0,0,.806.18c.622.051,1.322-.045,1.972,0,.481.033.9.167,1.344.179.241.007.471-.09.718-.089.275,0,.55.1.807.089.239-.012.519-.141.806-.179.474-.063,1.009-.014,1.434-.09.27-.049.587-.2.9-.269.161-.038.385-.054.538-.09.207-.048.39-.042.537-.089.079-.025.178-.231.269-.269.235-.1.448-.033.537-.089a7.469,7.469,0,0,0,.538-.538,6.119,6.119,0,0,0,.537-.538,1.251,1.251,0,0,1,.09-.448c.069-.133.262-.242.269-.269.05-.2-.161-.4-.089-.538.056-.182.453-.025.358-.358S627.024,473.589,627.087,473.108Z" transform="translate(-59.023 -19.158)" fill-rule="evenodd" fill="url(#d)"/><path d="M706.548,477.3a8.241,8.241,0,0,0-.18-1.255c-.4-1.158-.581-1.746-1.433-2.241-.082-.047-.217-.06-.269-.09a4.212,4.212,0,0,0-.628-.269,1.007,1.007,0,0,0-.448-.089c-.665.143-1.6.029-2.061.179a4.322,4.322,0,0,1-1.076.269,2.657,2.657,0,0,0-.537,1.434c1.072.476,2.893-.178,3.406.807a8.5,8.5,0,0,1,.179,2.42c.046,1.8-.3,3.475.269,4.75.348-.159.852-.018,1.255-.179.122-.049.381-.4.448-.448.084-.063.2-.024.269-.09.039-.036.057-.137.089-.179a2.525,2.525,0,0,1,.18-.179c.423-.47.325-.438.448-1.165.045-.269.151-.539.179-.807a14.255,14.255,0,0,0,.089-2.33C706.714,477.664,706.583,477.506,706.548,477.3Z" transform="translate(-99.828 -19.402)" fill="#004a9c" fill-rule="evenodd"/><path d="M674.257,478.458a22.332,22.332,0,0,1-4.124.269c-.95-.01-1.969.087-2.151-.538-.127-.435.423-.762.268-1.255-1.015.034-1.2.439-1.524,1.165-.077.172-.222.3-.268.448a1.793,1.793,0,0,0,0,1.165c.025.1.167.126.179.179.024.1-.148.137-.09.269.01.022.159.067.179.09.069.073.031.18.09.269.353.522.711.508,1.523.717a7.019,7.019,0,0,0,1.434.269c1.309.048,3.459-.167,4.034-.717.074-.072.192-.106.269-.179s.095-.029.18-.089c.173-.125.262-.293.448-.448.514-.431.6-.411.807-.986.09-.249.112-.518.179-.717C675.139,478.124,674.876,478.341,674.257,478.458Z" transform="translate(-84.771 -21.012)" fill="#004a9c" fill-rule="evenodd"/><path d="M591.821,481.114c-.408-.493-2.4-.349-4.212-.269-.973.042-1.937-.07-2.6,0-.31.033-.581.168-.807.179-.169.009-.2-.084-.359-.09s-.293.1-.358.09a5.964,5.964,0,0,0-.807-.179c-.3.01-.616.15-.9.179-.885.091-1.8-.092-2.689-.09-.286,0-.625.1-.9.09-.115,0-.228-.157-.359-.179-.155-.027-.309.1-.448.089-.36-.036-.614-.174-.9-.179-.256,0-.5.105-.717.09-.3-.022-.526-.159-.807-.18a3.8,3.8,0,0,0-1.434.18,2.747,2.747,0,0,0,.448,1.613c.073.077.027.074.089.179a2.525,2.525,0,0,0,.628.628c.155.137.325.372.448.448.308.188.8.254,1.165.448.042.023.124.14.179.179.172.121.412.182.538.269s.094.113.269.179.494.078.806.179c.273.088.535.237.717.269.388.068.884.033,1.344.089.432.053.846.16,1.255.179.343.017.708-.1,1.076-.089.308.012.593.154.9.179a12.839,12.839,0,0,0,2.689-.09c.453-.073.907-.116,1.255-.179a6.316,6.316,0,0,0,.627-.179c.221-.048.424-.051.627-.09a4.553,4.553,0,0,0,.627-.179,4.867,4.867,0,0,0,1.165-.358c.046-.028.123-.137.179-.179a2.526,2.526,0,0,0,.627-.807c.047-.076.145-.121.179-.18.084-.15-.02-.365.089-.538.047-.073.2-.033.27-.09.2-.175-.017-.359,0-.448,0-.022.158-.115.179-.179a1.4,1.4,0,0,0,.09-.627S591.79,481.076,591.821,481.114Z" transform="translate(-43.118 -22.682)" fill-rule="evenodd" fill="url(#e)"/><path d="M525.894,487.289c-.18-.043-.251.081-.448.09a9.353,9.353,0,0,0-1.344.09c-.122.023-.251.144-.359.179a2.97,2.97,0,0,1-.448.09,25.014,25.014,0,0,1-3.585.089c-.518,0-1.067.127-1.524.09-.227-.019-.424-.092-.627-.09a7.214,7.214,0,0,1-.807.09c-.377-.055-.928-.33-.986-.628-.047-.246.142-.526.18-.717a7.331,7.331,0,0,0,1.255,0,10.527,10.527,0,0,0,1.345-.09,2.9,2.9,0,0,0,.717-.358c.229-.115.349-.073.538-.179.132-.075.205-.26.358-.359.253-.163.474-.188.538-.268.153-.194.186-.652.358-.986.2-.389.491-.59.538-.9a1.862,1.862,0,0,0,0-.537,3.7,3.7,0,0,0-.448-1.165c-.218-.233-.437-.128-.717-.269-.091-.046-.166-.208-.269-.268a4.462,4.462,0,0,0-1.792-.269,7.847,7.847,0,0,1-2.331-.09c-.7.348-.5,2.077-.179,2.689.583-.036,1.093.244,1.7.269a7.313,7.313,0,0,1,2.331,0c.176.221-.187.476-.269.717a19.456,19.456,0,0,1-3.137.09c-.324-.015-.646.111-.986.09a3.133,3.133,0,0,0-1.076.089c-.221.044-.5-.025-.627.179a1.7,1.7,0,0,0,.717,1.524c-.572.746-1.4,1.456-1.165,2.6a1.061,1.061,0,0,0,.358.627c.084.106.1.286.179.359a3.121,3.121,0,0,0,1.524.538c.335.079.65.233.9.268a17.818,17.818,0,0,0,2.958,0c.429-.019.777.045,1.165,0,.318-.037.631-.228.986-.268.237-.028.515.045.717,0a7.768,7.768,0,0,0,.807-.359c.3-.116.526-.219.807-.358.3-.149.4-.12.538-.269a2.611,2.611,0,0,1,.627-.358c.18-.1.373-.124.448-.18.16-.118.214-.387.358-.538.026-.028.143.016.179,0,.168-.076.21-.309.269-.448.133-.313-.027-.446.179-.627C526.091,487.565,526.086,487.336,525.894,487.289Z" transform="translate(-16.091 -22.763)" fill="#004a9c" fill-rule="evenodd"/><path d="M629.966,485.648c-.317-.932-.857-.92-1.434-1.614-.379.122-.772-.209-1.255-.269-.95-.117-2.569.106-3.764,0-.673-.06-1.24-.41-1.524,0-.009.008-.086-.009-.09,0a15.76,15.76,0,0,0-.448,2.42,33.11,33.11,0,0,0-.537,3.406c-.012.311.114.619.09.9s-.165.475-.179.717a9.3,9.3,0,0,0,.179,2.958c.156.515.465.87.9.9.4.024.581-.306.9-.268.235-.244.191-.636.359-.9.05-.077.254-.164.359-.269.029-.03-.031-.149,0-.179s.146.029.179,0c.074-.065.064-.143.179-.179.5-.154,1.181.086,1.793,0,.708-.1,1.16-.489,1.7-.538.212-.426.7-.746.9-1.165.074-.157.071-.4.18-.538.062-.078.233-.089.358-.179.107-.077.18-.2.269-.269.376-.287.591-.4.717-.807.038-.124.145-.26.179-.358a6.413,6.413,0,0,0,.359-2.241,7.346,7.346,0,0,0-.369-1.528Zm-3.137,3.5a2.287,2.287,0,0,1-.448,1.524c-.022.026-.169.066-.18.09s.022.165,0,.179a5.755,5.755,0,0,1-1.076.18,4.168,4.168,0,0,1-1.165.089c-.7-.814-.718-2.721-.538-4.123.352-.463,1.74-.437,2.51-.179.077.025.2-.035.268,0,.051.024.049.151.09.179a1.537,1.537,0,0,0,.358.179,5.578,5.578,0,0,1,.179.9,6.6,6.6,0,0,1,0,.978Z" transform="translate(-64.323 -23.989)" fill-rule="evenodd" fill="url(#f)"/></g><g transform="translate(235.874 352.187)"><line x2="18.919" y2="18.919" fill="none" stroke="#2b2b2b" stroke-width="1"/><line x1="18.919" y2="18.919" fill="none" stroke="#2b2b2b" stroke-width="1"/></g></g></svg>