<svg xmlns="http://www.w3.org/2000/svg" xmlns:xlink="http://www.w3.org/1999/xlink" width="81" height="48" viewBox="0 0 81 48"><defs><clipPath id="a"><rect width="81" height="48" transform="translate(2899.054 2103.552)" fill="red" opacity="0.5"/></clipPath></defs><g transform="translate(-2899.054 -2103.552)" clip-path="url(#a)"><path d="M267.215,14.849l-2.695-3.417-3.437,2.709,3.815.452,0-.017Z" transform="translate(2696.869 2103.066)" fill="#00a6ea"/><path d="M268.134,14.872a.569.569,0,0,1,.63-.49l.02-.168.276-2.332-3.816-.451,2.695,3.417Z" transform="translate(2696.145 2103.066)" fill="#c2e7fa"/><path d="M270.257,7.358l-.727,6.148,3.438-2.71Z" transform="translate(2695.399 2103.775)" fill="#e98299"/><path d="M269.506,14.4a.569.569,0,0,1,.5.623l2.51.3.449-3.8-3.437,2.711Z" transform="translate(2695.403 2103.051)" fill="#f3bdcc"/><path d="M270.109,15.758l.178.021L273,19.217l3.438-2.71-3.816-.451Z" transform="translate(2695.298 2102.314)" fill="#00a6ea"/><path d="M270.091,15.779l-.178-.021s0,.007,0,.009a.569.569,0,0,1-.633.5l-.019.168-.277,2.332,2.641.313.851.1.325.039Z" transform="translate(2695.494 2102.314)" fill="#c2e7fa"/><path d="M265.159,19.286l2.711,3.438.45-3.816.277-2.332Z" transform="translate(2696.16 2102.172)" fill="#e98299"/><path d="M268.6,16.343h0l.02-.169a.568.568,0,0,1-.5-.632l0-.008-.2-.023-2.315-.273,0,.017-.449,3.8Z" transform="translate(2696.16 2102.404)" fill="#f3bdcc"/><path d="M269.372,15h0a.569.569,0,0,0-.63.49l0,.009a.57.57,0,0,0,1.132.133.035.035,0,0,1,0-.009.569.569,0,0,0-.5-.623" transform="translate(2695.538 2102.446)" fill="#fff"/><path d="M191.606,21.267c0-.356.3-.519.615-.519s.615.163.615.519v1.338a2.57,2.57,0,0,0,.558,1.779c.3.374.616.721.837.962a.563.563,0,0,1-.827.76c-.154-.164-.423-.462-.654-.741a1.949,1.949,0,0,1-.52-.876h-.009a1.881,1.881,0,0,1-.529.924c-.23.279-.5.577-.779.876a.554.554,0,0,1-.769-.01.564.564,0,0,1-.058-.8c.346-.375.663-.722.962-1.1a2.571,2.571,0,0,0,.558-1.779Zm4.145,1.867h.769V20.72a.575.575,0,0,1,1.135,0v7.445a.575.575,0,0,1-1.135,0V24.173h-.769V28.16a.569.569,0,0,1-1.125,0V20.816a.569.569,0,0,1,1.125,0Z" transform="translate(2709.243 2101.534)" fill="#001a49"/><path d="M200.354,27.962c-.3,0-.433-.24-.433-.52s.135-.52.433-.52h3.02v-1.3h-1.568c-.615,0-.818-.192-.818-.8v-1.3c0-.605.2-.8.818-.8h3.732c.164,0,.221-.058.221-.222v-.4c0-.164-.058-.222-.221-.222H201.4c-.3,0-.433-.24-.433-.519s.135-.52.433-.52h4.751c.615,0,.818.192.818.8v1.289c0,.606-.2.8-.818.8h-3.731c-.164,0-.221.058-.221.221v.414c0,.163.057.221.221.221h4.309c.3,0,.433.241.433.52s-.135.519-.433.519H204.6v1.3h3.021c.3,0,.433.24.433.52s-.135.52-.433.52Z" transform="translate(2707.508 2101.429)" fill="#001a49"/><path d="M210.252,25.729c-.3,0-.433-.24-.433-.51s.135-.52.433-.52h7.272c.3,0,.433.24.433.52s-.135.51-.433.51h-2.9v1.134c0,.327-.269.472-.615.472s-.606-.145-.606-.472V25.729Zm6.387,2.4c.3,0,.433.24.433.519s-.135.52-.433.52h-4.963c-.616,0-.818-.192-.818-.8V26.883c0-.356.3-.52.625-.52s.615.164.615.52v1.029c0,.163.058.221.221.221Zm-2.751-7.628c1.875,0,3.01.577,3.01,1.8s-1.135,1.8-3.01,1.8-3.011-.578-3.011-1.8,1.135-1.8,3.011-1.8m0,1.01c-1.28,0-1.789.307-1.789.789s.51.789,1.789.789,1.788-.309,1.788-.789-.51-.789-1.788-.789" transform="translate(2705.786 2101.488)" fill="#001a49"/><path d="M226.586,24.471c0,.606-.2.8-.818.8h-2.52c-.615,0-.817-.192-.817-.8V21.21a.534.534,0,0,1,.6-.5c.307,0,.605.164.605.5V22.22h1.75V21.21a.534.534,0,0,1,.6-.5c.308,0,.606.164.606.5Zm-2.154,4.617c-.616,0-.818-.192-.818-.8V26.529c0-.356.3-.52.625-.52s.615.164.615.52v1.289c0,.164.058.221.221.221h4.146c.3,0,.433.24.433.529s-.135.52-.433.52Zm.73-4.828c.164,0,.221-.058.221-.221V23.23h-1.75v.808c0,.164.058.221.221.221Zm4.281,2.02a.613.613,0,0,1-1.212,0v-1.75h-.847c-.3,0-.423-.241-.423-.529s.125-.52.423-.52h.847v-.874h-.847c-.3,0-.423-.241-.423-.529s.125-.52.423-.52h.847v-.8a.613.613,0,0,1,1.212,0Z" transform="translate(2703.592 2101.534)" fill="#001a49"/><path d="M232.226,27.356c-.3,0-.432-.24-.432-.519s.134-.51.432-.51c.586,0,1.184,0,1.78-.01v-.76c-.952-.154-1.51-.674-1.51-1.462,0-.943.808-1.51,2.116-1.51s2.116.567,2.116,1.51c0,.788-.568,1.308-1.51,1.462v.731c.568-.02,1.135-.058,1.693-.107.3-.028.433.183.462.462a.445.445,0,0,1-.375.549c-1.241.1-3,.163-4.771.163M234,21.2v-.414c0-.356.3-.52.615-.52s.615.164.615.52V21.2h1.51c.3,0,.434.24.434.518s-.135.51-.434.51H232.39c-.3,0-.433-.24-.433-.51s.135-.518.433-.518Zm1.626,2.894c0-.346-.327-.586-1.01-.586s-1.01.24-1.01.586.328.586,1.01.586,1.01-.24,1.01-.586m3.318-.731h.779c.307,0,.443.24.443.529s-.135.538-.443.538h-.779v3.7c0,.346-.288.51-.606.51s-.605-.164-.605-.51V20.749c0-.347.288-.51.605-.51s.606.163.606.51Z" transform="translate(2701.963 2101.534)" fill="#001a49"/><path d="M213.676,33.168v-.481a.615.615,0,0,1,1.213,0v.481h1.134c.3,0,.433.241.433.52s-.135.51-.433.51H212.4c-.3,0-.433-.24-.433-.51s.135-.52.433-.52Zm2.472,2.953c0,.962-.7,1.568-1.866,1.568s-1.866-.605-1.866-1.568.7-1.568,1.866-1.568,1.866.606,1.866,1.568m-1.048,0c0-.394-.327-.644-.818-.644s-.818.25-.818.644.327.644.818.644.818-.249.818-.644m1.616,1.837c1.856,0,2.982.52,2.982,1.674s-1.126,1.674-2.982,1.674-2.982-.51-2.982-1.674,1.126-1.674,2.982-1.674m0,.972c-1.261,0-1.76.268-1.76.7s.5.7,1.76.7,1.76-.268,1.76-.7-.5-.7-1.76-.7m1.106-4.454h.769V32.7a.57.57,0,0,1,1.126,0v4.809a.57.57,0,0,1-1.126,0v-2h-.769v1.606a.565.565,0,0,1-1.115,0V32.736a.565.565,0,0,1,1.115,0Z" transform="translate(2705.413 2099.458)" fill="#dc001f"/><path d="M222.413,37.751c-.288,0-.423-.23-.423-.51s.135-.51.423-.51h3.04v-.76h-1.587c-.615,0-.818-.192-.818-.8V32.923a.533.533,0,0,1,.6-.5c.308,0,.605.163.605.5V33.4h3.617v-.482a.533.533,0,0,1,.6-.5c.308,0,.606.163.606.5v2.251c0,.606-.2.8-.818.8h-1.587v.76h3.04c.288,0,.423.231.423.51s-.135.51-.423.51Zm5.444,1.809c0-.164-.058-.221-.221-.221h-4.3c-.288,0-.423-.231-.423-.51s.135-.51.423-.51h4.935c.615,0,.817.192.817.8v1.7c0,.356-.3.52-.615.52s-.615-.164-.615-.52Zm-.135-4.569a.128.128,0,0,0,.145-.145v-.462H224.25v.462a.128.128,0,0,0,.145.145Z" transform="translate(2703.669 2099.415)" fill="#dc001f"/><path d="M232.264,34.23c-.3,0-.433-.241-.433-.52s.134-.519.433-.519h1.606V32.72c0-.356.3-.52.615-.52s.615.164.615.52v.472h1.511c.3,0,.433.24.433.519s-.135.52-.433.52Zm4.338,2.039c0,1.01-.808,1.635-2.116,1.635s-2.116-.624-2.116-1.635.809-1.635,2.116-1.635,2.116.625,2.116,1.635m-2.645,4.8c-.615,0-.818-.192-.818-.8V38.818c0-.356.3-.52.625-.52s.615.164.615.52V39.8c0,.163.058.221.221.221h4.011c.3,0,.433.241.433.529s-.135.52-.433.52Zm1.539-4.8c0-.394-.327-.692-1.01-.692s-1.01.3-1.01.692.328.693,1.01.693,1.01-.3,1.01-.693m3.337-1.539h.914c.3,0,.432.24.432.529s-.135.529-.432.529h-.914v2.568a.54.54,0,0,1-.605.52c-.318,0-.615-.164-.615-.52V32.739c0-.356.3-.52.615-.52a.539.539,0,0,1,.605.52Z" transform="translate(2701.957 2099.454)" fill="#dc001f"/><path d="M245.226,30.791c-.648,0-.951-.519-.951-1.146,0-.605.3-1.126.951-1.126h3.959V26.271a3.287,3.287,0,0,1-2.531-3.2c0-2.641,2.552-3.785,6.77-3.785s6.769,1.144,6.769,3.785a3.287,3.287,0,0,1-2.53,3.2V28.52h3.958c.649,0,.952.52.952,1.126,0,.627-.3,1.146-.952,1.146Zm8.2,1.038c4.239,0,6.814,1.147,6.814,3.786s-2.575,3.785-6.814,3.785-6.813-1.146-6.813-3.785,2.574-3.786,6.813-3.786m0,2.186c-2.9,0-4.066.582-4.066,1.6s1.167,1.6,4.066,1.6,4.067-.583,4.067-1.6-1.168-1.6-4.067-1.6M249.4,23.071c0,1.015,1.146,1.578,4.023,1.578s4.023-.563,4.023-1.578-1.147-1.579-4.023-1.579-4.023.562-4.023,1.579m2.422,3.72V28.52h3.2V26.791c-.5.043-1.039.063-1.6.063s-1.1-.02-1.6-.063" transform="translate(2699.792 2101.7)" fill="#dc001f"/><path d="M272.712,26.33a3.817,3.817,0,0,0,1.362,3.158c.931.822,1.751,1.491,2.379,1.968a1.131,1.131,0,0,1,.152,1.687,1.208,1.208,0,0,1-1.688.345c-.54-.41-1.341-1.059-2.163-1.773-.995-.888-1.275-1.19-1.406-1.665h-.021c-.108.5-.368.886-1.47,1.838-.843.736-1.622,1.363-2.466,1.991a1.21,1.21,0,0,1-1.709-.348,1.192,1.192,0,0,1,.173-1.751c.93-.692,1.751-1.363,2.682-2.185a3.818,3.818,0,0,0,1.362-3.158V24.383c0-.822.671-1.19,1.406-1.19s1.407.368,1.407,1.19Zm-2.661,15.919c-1.384,0-1.839-.432-1.839-1.8V36.365c0-.8.671-1.166,1.406-1.166.715,0,1.384.366,1.384,1.166v3.029c0,.368.13.5.5.5h9.02c.671,0,.974.539.974,1.19,0,.627-.3,1.167-.974,1.167Zm13-14.491c.691,0,.995.541.995,1.189,0,.671-.3,1.212-.995,1.212h-2.034v5.775c0,.8-.671,1.168-1.384,1.168s-1.384-.368-1.384-1.168V20.326c0-.8.671-1.168,1.384-1.168s1.384.368,1.384,1.168v7.431Z" transform="translate(2696.122 2101.722)" fill="#dc001f"/></g></svg>