<svg xmlns="http://www.w3.org/2000/svg" xmlns:xlink="http://www.w3.org/1999/xlink" width="66.815" height="50.329" viewBox="0 0 66.815 50.329"><defs><style>.a,.d,.l,.o{fill:none;}.b{clip-path:url(#a);}.c{fill:#fff599;}.d,.l,.o{stroke:#3f2a22;}.e{fill:#feeee1;}.f{fill:#fff;}.g{fill:#e0e0e0;}.h{fill:#5187e5;}.i{fill:#5e453b;}.j{fill:#3f2a22;}.k{fill:#ffd2b3;}.l{stroke-linecap:round;}.m{fill:#ff5757;}.n{fill:#b9e8ed;}.o{stroke-dasharray:20 2 3 2;}</style><clipPath id="a"><rect class="a" width="66.815" height="50.329"/></clipPath></defs><g transform="translate(-47.773 -2425.671)"><g transform="translate(47.773 2425.671)"><g class="b"><path class="c" d="M87.129,4.74h0a4.12,4.12,0,0,0-8.22,0H73.387V9.059H92.652V4.74Z" transform="translate(-35.443 -0.412)"/><path class="d" d="M87.129,4.74h0a4.12,4.12,0,0,0-8.22,0H73.387V9.059H92.652V4.74Z" transform="translate(-35.443 -0.412)"/><path class="c" d="M90.156,7.241a1.1,1.1,0,1,1-1.1-1.1,1.1,1.1,0,0,1,1.1,1.1" transform="translate(-41.478 -2.811)"/><path class="d" d="M90.156,7.241a1.1,1.1,0,1,1-1.1-1.1A1.1,1.1,0,0,1,90.156,7.241Z" transform="translate(-41.478 -2.811)"/><path class="e" d="M94.094,58.715s3.848-2.357,4.29-3.168.576-1.9,1.309-2.445,1.574.038,1.656,1.285-1.195,2.628.083,3.227,3.279-.028,4.653-.72,2.646-1.471,3.179-.777-.4,1.954-2.639,3.225c-1.57.888-8.7,4.861-8.7,4.861Z" transform="translate(-43.084 -24.22)"/><path class="d" d="M94.094,58.715s3.848-2.357,4.29-3.168.576-1.9,1.309-2.445,1.574.038,1.656,1.285-1.195,2.628.083,3.227,3.279-.028,4.653-.72,2.646-1.471,3.179-.777-.4,1.954-2.639,3.225c-1.57.888-8.7,4.861-8.7,4.861Z" transform="translate(-43.084 -24.22)"/><path class="f" d="M16.161,53.341h6.926c1.481,0,3.826-.2,3.826-.2l15.309,8.748,10.009-5.238,5.03,8.647q-5.909,3.221-11.806,6.461c-3.214,1.775-6.35.476-9.554-.471v1.534H.9V67.5c0-7.822,6.833-14.162,15.261-14.162" transform="translate(-0.412 -24.333)"/><path class="d" d="M16.161,53.341h6.926c1.481,0,3.826-.2,3.826-.2l15.309,8.748,10.009-5.238,5.03,8.647q-5.909,3.221-11.806,6.461c-3.214,1.775-6.35.476-9.554-.471v1.534H.9V67.5C.9,59.681,7.733,53.341,16.161,53.341Z" transform="translate(-0.412 -24.333)"/><path class="g" d="M20.86,53.508h-4.7C7.733,53.508.9,59.848.9,67.67v5.32H5.6V67.67c0-7.822,6.833-14.162,15.261-14.162" transform="translate(-0.412 -24.5)"/><path class="d" d="M16.161,53.341h6.926c1.481,0,3.826-.2,3.826-.2l15.309,8.748,10.009-5.238,5.03,8.647q-5.909,3.221-11.806,6.461c-3.214,1.775-6.35.476-9.554-.471v1.534H.9V67.5C.9,59.681,7.733,53.341,16.161,53.341Z" transform="translate(-0.412 -24.333)"/><path class="h" d="M36.155,60.954l.5-1.209.5-1.209-1.3-1.256-1.3-.59-1.3.59-1.3,1.256.5,1.209.5,1.21h3.225Z" transform="translate(-14.622 -25.957)"/><path class="d" d="M36.155,60.954l.5-1.209.5-1.209-1.3-1.256-1.3-.59-1.3.59-1.3,1.256.5,1.209.5,1.21h3.225Z" transform="translate(-14.622 -25.957)"/><path class="h" d="M32.865,64.4H36.09l1.072,13.579H31.793Z" transform="translate(-14.557 -29.487)"/><path class="d" d="M32.865,64.4H36.09l1.072,13.579H31.793Z" transform="translate(-14.557 -29.487)"/><path class="f" d="M39.076,55.327l-2.253-2.307,3.96-3.916,2.261,2.259Z" transform="translate(-16.861 -22.483)"/><path class="d" d="M39.076,55.327l-2.253-2.307,3.96-3.916,2.261,2.259Z" transform="translate(-16.861 -22.483)"/><path class="f" d="M29.524,55.327l2.252-2.307L27.729,49.1l-1.74,2.259Z" transform="translate(-11.9 -22.483)"/><path class="d" d="M29.524,55.327l2.252-2.307L27.729,49.1l-1.74,2.259Z" transform="translate(-11.9 -22.483)"/><path class="i" d="M36.436,31.643H18.5V24.769a7.145,7.145,0,0,1,7.137-7.136h5.153a8.36,8.36,0,0,1,5.232,2.172A6.746,6.746,0,0,1,37.695,25.7a37.29,37.29,0,0,1-1.1,4.145,6.972,6.972,0,0,0-.159,1.8" transform="translate(-8.472 -8.074)"/><path class="d" d="M36.436,31.643H18.5V24.769a7.145,7.145,0,0,1,7.137-7.136h5.153a8.36,8.36,0,0,1,5.232,2.172A6.746,6.746,0,0,1,37.695,25.7a37.29,37.29,0,0,1-1.1,4.145A6.972,6.972,0,0,0,36.436,31.643Z" transform="translate(-8.472 -8.074)"/><path class="e" d="M35.451,32.921H22.585c-.075,1.632-.849,3.073-2.8,2.726a2.052,2.052,0,0,0-1.044-.292,2.075,2.075,0,1,0,0,4.15,2.053,2.053,0,0,0,.847-.186c0,3.754,2.651,6.284,5.83,6.284h5.059a5.838,5.838,0,0,0,5.838-5.836V33.786a.868.868,0,0,0-.866-.865" transform="translate(-7.632 -15.074)"/><path class="d" d="M35.451,32.921H22.585c-.075,1.632-.849,3.073-2.8,2.726a2.052,2.052,0,0,0-1.044-.292,2.075,2.075,0,1,0,0,4.15,2.053,2.053,0,0,0,.847-.186c0,3.754,2.651,6.284,5.83,6.284h5.059a5.838,5.838,0,0,0,5.838-5.836V33.786A.868.868,0,0,0,35.451,32.921Z" transform="translate(-7.632 -15.074)"/><path class="j" d="M33.2,39.042a.8.8,0,0,1-1.607,0v-.933a.8.8,0,0,1,1.607,0Z" transform="translate(-14.467 -17.082)"/><path class="j" d="M47.662,39.042a.8.8,0,0,1-1.6,0v-.933a.8.8,0,0,1,1.6,0Z" transform="translate(-21.089 -17.082)"/><path class="k" d="M32.672,43.654a.708.708,0,0,1-.709.709H30.738a.709.709,0,1,1,0-1.418h1.226a.708.708,0,0,1,.709.709" transform="translate(-13.749 -19.664)"/><path class="k" d="M48.351,43.654a.709.709,0,0,1-.709.709H46.417a.709.709,0,1,1,0-1.418h1.226a.709.709,0,0,1,.709.709" transform="translate(-20.928 -19.664)"/><path class="l" d="M36.6,45.647a2.841,2.841,0,0,0,4.016,0" transform="translate(-16.76 -20.901)"/><line class="d" y1="4.835" transform="translate(7.592 43.526)"/><path class="m" d="M72.3,57.057a.993.993,0,1,1-.993-.993.992.992,0,0,1,.993.993" transform="translate(-32.195 -25.67)"/><path class="d" d="M72.3,57.057a.993.993,0,1,1-.993-.993A.992.992,0,0,1,72.3,57.057Z" transform="translate(-32.195 -25.67)"/><line class="d" x2="7.833" transform="translate(41.758 31.387)"/><line class="f" y2="3.409" transform="translate(25.565 4.462)"/><line class="d" y2="3.409" transform="translate(25.565 4.462)"/><line class="f" x2="3.41" transform="translate(23.86 6.167)"/><line class="d" x2="3.41" transform="translate(23.86 6.167)"/><line class="f" y2="3.409" transform="translate(59.718 42.953)"/><line class="d" y2="3.409" transform="translate(59.718 42.953)"/><line class="f" x2="3.41" transform="translate(58.014 44.658)"/><line class="d" x2="3.41" transform="translate(58.014 44.658)"/><rect class="f" width="18.699" height="5.429" transform="translate(25.311 44.412)"/><rect class="d" width="18.699" height="5.429" transform="translate(25.311 44.412)"/><rect class="n" width="5.228" height="1.81" transform="translate(27.322 46.222)"/><rect class="d" width="5.228" height="1.81" transform="translate(27.322 46.222)"/><rect class="f" width="18.699" height="5.428" transform="translate(25.311 38.984)"/><rect class="d" width="18.699" height="5.428" transform="translate(25.311 38.984)"/><rect class="n" width="5.228" height="1.811" transform="translate(27.322 40.793)"/><rect class="d" width="5.228" height="1.811" transform="translate(27.322 40.793)"/><rect class="f" width="18.699" height="5.429" transform="translate(25.311 33.555)"/><rect class="d" width="18.699" height="5.429" transform="translate(25.311 33.555)"/><rect class="n" width="5.228" height="1.81" transform="translate(27.322 35.364)"/><rect class="d" width="5.228" height="1.81" transform="translate(27.322 35.364)"/><rect class="h" width="19.054" height="2.914" transform="translate(38.154 11.491)"/><path class="d" d="M0,0H19.054V2.914H0Z" transform="translate(38.154 11.491)"/><line class="o" x2="19.503" transform="translate(37.93 18.043)"/><line class="o" x2="19.503" transform="translate(37.93 21.293)"/><line class="o" x2="19.503" transform="translate(37.93 24.544)"/><line class="o" x2="19.503" transform="translate(37.93 27.794)"/></g></g></g></svg>