<svg width="83" height="82" viewBox="0 0 83 82" fill="none" xmlns="http://www.w3.org/2000/svg">
<g clip-path="url(#clip0_14_383)">
<path d="M0.368204 14.0955H14.3799V0H0.368204V14.0955ZM3.35364 3.0033H11.3944V11.0922H3.35364V3.0033ZM67.9883 0V14.0955H82V0H67.9883ZM79.0146 11.0922H70.9738V3.0033H79.0146V11.0922ZM23.1769 5.54609H18.032V8.54938H23.1769V5.54609ZM33.4667 5.54609H28.3218V8.54938H33.4667V5.54609ZM43.7566 5.54609H38.6116V8.54938H43.7566V5.54609ZM54.0464 5.54609H48.9015V8.54938H54.0464V5.54609ZM64.3362 5.54609H59.1913V8.54938H64.3362V5.54609ZM18.032 76.0835H23.1769V73.0802H18.032V76.0835ZM28.3218 76.0835H33.4667V73.0802H28.3218V76.0835ZM38.6116 76.0835H43.7566V73.0802H38.6116V76.0835ZM48.9015 76.0835H54.0464V73.0802H48.9015V76.0835ZM59.1913 76.0835H64.3362V73.0802H59.1913V76.0835ZM0 82H14.0117V67.9045H0V82ZM2.98544 70.9078H11.0262V78.9967H2.98544V70.9078ZM5.51311 33.1764H8.49854V28.0007H5.51311V33.1764ZM5.51311 64.2305H8.49854V59.0548H5.51311V64.2305ZM8.49854 17.6494H5.51311V22.8251H8.49854V17.6494ZM5.51311 53.8791H8.49854V48.7035H5.51311V53.8791ZM5.51311 43.5278H8.49854V38.3521H5.51311V43.5278ZM67.6201 82H81.6318V67.9045H67.6201V82ZM70.6056 70.9078H78.6464V78.9967H70.6056V70.9078ZM73.1332 33.1764H76.1187V28.0007H73.1332V33.1764ZM73.1332 64.2305H76.1187V59.0548H73.1332V64.2305ZM73.1332 53.8791H76.1187V48.7035H73.1332V53.8791ZM76.1187 17.6494H73.1332V22.8251H76.1187V17.6494ZM73.1332 43.5278H76.1187V38.3521H73.1332V43.5278ZM30.7898 27.29C31.3172 32.1052 35.2083 36.0095 39.985 36.5401C46.2942 37.2409 51.6282 32.2954 51.6282 26.0886C51.6282 20.2823 46.951 15.5771 41.1791 15.5671C35.0092 15.5671 30.0932 20.933 30.7898 27.2799V27.29ZM59.8978 59.6154V47.7824C59.8978 43.2274 56.2158 39.5234 51.6879 39.5234H30.6903C26.1624 39.5234 22.4803 43.2274 22.4803 47.7824V59.6154C22.4803 60.0059 22.6396 60.3963 22.9182 60.6766C23.1968 60.9569 23.585 61.1171 23.9731 61.1171H38.7311C39.557 61.1171 40.2238 60.4463 40.2238 59.6154C40.2238 58.7845 39.557 58.1138 38.7311 58.1138H25.4558V47.7824C25.4558 44.8993 27.8243 42.5267 30.6903 42.5167H51.6879C54.5539 42.5167 56.9124 44.8993 56.9124 47.7824V59.6154C56.9124 60.4463 57.5791 61.1171 58.4051 61.1171C59.2311 61.1171 59.8978 60.4463 59.8978 59.6154Z" fill="url(#paint0_linear_14_383)"/>
<circle cx="41.25" cy="26.25" r="7.25" fill="white"/>
</g>
<defs>
<linearGradient id="paint0_linear_14_383" x1="0" y1="40.995" x2="82" y2="40.995" gradientUnits="userSpaceOnUse">
<stop stop-color="#7D00DB"/>
<stop offset="1" stop-color="#E4007F"/>
</linearGradient>
<clipPath id="clip0_14_383">
<rect width="82.4" height="81.91" fill="white"/>
</clipPath>
</defs>
</svg>
