<svg xmlns="http://www.w3.org/2000/svg" xmlns:xlink="http://www.w3.org/1999/xlink" width="60.637" height="48.072" viewBox="0 0 60.637 48.072"><defs><style>.a,.d,.f,.h,.m,.n,.o{fill:none;}.b{clip-path:url(#a);}.c{fill:#fff;}.d,.f,.h,.m,.n,.o{stroke:#3f2a22;}.e{fill:#b9e8ed;}.f{stroke-dasharray:15 2 3 2;}.g{fill:#5187e5;}.h{stroke-dasharray:20 2 3 2;}.i{fill:#5e453b;}.j{fill:#feeee1;}.k{fill:#3f2a22;}.l{fill:#ffd2b3;}.m,.n{stroke-linecap:round;}.n{stroke-linejoin:round;}.o{stroke-width:1.8px;}</style><clipPath id="a"><rect class="a" width="60.637" height="48.072"/></clipPath></defs><g transform="translate(-48 -2426)"><g transform="translate(12)"><g transform="translate(36 2426)"><g class="b" transform="translate(0 0)"><path class="c" d="M5.545,15.15a4.644,4.644,0,0,1,3.6,7.584,2.83,2.83,0,0,0,1.743,1.707H5.631l0,0-.088,0a4.645,4.645,0,1,1,0-9.29" transform="translate(-0.484 -8.157)"/><path class="d" d="M5.545,15.15a4.644,4.644,0,0,1,3.6,7.584,2.83,2.83,0,0,0,1.743,1.707H5.631l0,0-.088,0a4.645,4.645,0,1,1,0-9.29Z" transform="translate(-0.484 -8.157)"/><line class="c" x1="4.037" transform="translate(2.931 10.155)"/><line class="d" x1="4.037" transform="translate(2.931 10.155)"/><line class="c" x1="4.037" transform="translate(2.931 11.857)"/><line class="d" x1="4.037" transform="translate(2.931 11.857)"/><line class="c" x1="4.037" transform="translate(2.931 13.56)"/><line class="d" x1="4.037" transform="translate(2.931 13.56)"/><line class="d" y2="12.031" transform="translate(54.249 29.317)"/><path class="c" d="M117.371,89.771a.919.919,0,1,1-.919-.919.919.919,0,0,1,.919.919" transform="translate(-62.203 -47.838)"/><circle class="d" cx="0.919" cy="0.919" r="0.919" transform="translate(53.33 41.014)"/><rect class="c" width="39.297" height="29.071" transform="translate(18.92 1.918)"/><path class="d" d="M0,0H39.3V29.071H0Z" transform="translate(18.92 1.918)"/><rect class="e" width="43.306" height="2.506" transform="translate(16.915 0.415)"/><rect class="d" width="43.306" height="2.506" transform="translate(16.915 0.415)"/><line class="f" x2="13.808" transform="translate(42.731 27.509)"/><line class="c" y2="2.957" transform="translate(13.203 22.536)"/><line class="c" x2="2.958" transform="translate(11.725 24.014)"/><line class="c" y2="2.957" transform="translate(47.996 35.23)"/><line class="d" y2="2.957" transform="translate(47.996 35.23)"/><line class="c" x2="2.957" transform="translate(46.518 36.709)"/><line class="d" x2="2.957" transform="translate(46.518 36.709)"/><line class="d" x2="3.997" transform="translate(21.196 6.785)"/><line class="d" x2="3.997" transform="translate(21.196 8.666)"/><line class="d" x2="3.997" transform="translate(21.196 10.546)"/><rect class="g" width="16.224" height="2.482" transform="translate(39.325 7.085)"/><path class="d" d="M0,0H16.224V2.482H0Z" transform="translate(39.325 7.085)"/><line class="h" x2="16.606" transform="translate(39.133 12.664)"/><line class="h" x2="16.606" transform="translate(39.133 15.431)"/><line class="h" x2="16.606" transform="translate(39.133 18.199)"/><line class="h" x2="16.606" transform="translate(39.133 20.966)"/><path class="c" d="M39.089,69.272c0-.064.005-.838.007-1.641a8.691,8.691,0,0,0-8.69-8.584H27.414l-1.975,1.2-2.062-1.2H20.412a8.69,8.69,0,0,0-8.689,8.576c0,.806,0,1.584.007,1.649Z" transform="translate(-6.312 -31.791)"/><path class="c" d="M30.4,54.8H27.41L25.435,56l-2.061-1.2H20.408a8.692,8.692,0,0,0-8.692,8.692c0,.135,0,3.361.01,3.5H39.086c.006-.134.009-3.36.009-3.5A8.692,8.692,0,0,0,30.4,54.8" transform="translate(-6.308 -29.502)"/><path class="d" d="M30.4,54.8H27.41L25.435,56l-2.061-1.2H20.408a8.692,8.692,0,0,0-8.692,8.692c0,.135,0,3.361.01,3.5H39.086c.006-.134.009-3.36.009-3.5A8.692,8.692,0,0,0,30.4,54.8Z" transform="translate(-6.308 -29.502)"/><path class="g" d="M38.351,58.485l-.647-1.57,1.694-1.63,1.694,1.63-.648,1.571Z" transform="translate(-20.3 -29.765)"/><path class="d" d="M38.351,58.485l-.647-1.57,1.694-1.63,1.694,1.63-.648,1.571Z" transform="translate(-20.3 -29.765)"/><path class="g" d="M40.715,62.1H38.622l-.415,8.816H41.13Z" transform="translate(-20.571 -33.434)"/><path class="d" d="M40.715,62.1H38.622l-.415,8.816H41.13Z" transform="translate(-20.571 -33.434)"/><path class="c" d="M35.139,54.477l1.463-1.5L34.03,50.436,32.562,51.9Z" transform="translate(-17.531 -27.155)"/><path class="d" d="M35.139,54.477l1.463-1.5L34.03,50.436,32.562,51.9Z" transform="translate(-17.531 -27.155)"/><path class="c" d="M42.9,54.477l-1.462-1.5,2.627-2.543L45.473,51.9Z" transform="translate(-22.308 -27.155)"/><path class="d" d="M42.9,54.477l-1.462-1.5,2.627-2.543L45.473,51.9Z" transform="translate(-22.308 -27.155)"/><path class="i" d="M40.268,34.249H26.99v-4.7a4.884,4.884,0,0,1,4.878-4.878H35.39a4.884,4.884,0,0,1,4.878,4.878v4.7Z" transform="translate(-14.531 -13.285)"/><path class="d" d="M40.268,34.249H26.99v-4.7a4.884,4.884,0,0,1,4.878-4.878H35.39a4.884,4.884,0,0,1,4.878,4.878v4.7Z" transform="translate(-14.531 -13.285)"/><path class="j" d="M28.27,42.737a1.418,1.418,0,1,1-1.419-1.418,1.419,1.419,0,0,1,1.419,1.418" transform="translate(-13.693 -22.246)"/><path class="d" d="M28.27,42.737a1.418,1.418,0,1,1-1.419-1.418A1.419,1.419,0,0,1,28.27,42.737Z" transform="translate(-13.693 -22.246)"/><path class="j" d="M54,42.737a1.418,1.418,0,1,1-1.418-1.418A1.418,1.418,0,0,1,54,42.737" transform="translate(-27.548 -22.246)"/><path class="d" d="M54,42.737a1.418,1.418,0,1,1-1.418-1.418A1.418,1.418,0,0,1,54,42.737Z" transform="translate(-27.548 -22.246)"/><path class="j" d="M39.831,36.945H29.577a.593.593,0,0,0-.591.591v4.088a3.989,3.989,0,0,0,3.989,3.989h3.458a3.989,3.989,0,0,0,3.989-3.989V37.536a.593.593,0,0,0-.591-.591" transform="translate(-15.606 -19.891)"/><path class="d" d="M39.831,36.945H29.577a.593.593,0,0,0-.591.591v4.088a3.989,3.989,0,0,0,3.989,3.989h3.458a3.989,3.989,0,0,0,3.989-3.989V37.536A.593.593,0,0,0,39.831,36.945Z" transform="translate(-15.606 -19.891)"/><path class="k" d="M35.478,42.854a.549.549,0,0,1-1.1,0v-.638a.549.549,0,0,1,1.1,0Z" transform="translate(-18.51 -22.434)"/><path class="k" d="M47.084,42.854a.549.549,0,0,1-1.1,0v-.638a.549.549,0,0,1,1.1,0Z" transform="translate(-24.759 -22.434)"/><path class="l" d="M34.93,46.679a.484.484,0,0,1-.485.484h-.839a.484.484,0,0,1,0-.968h.839a.485.485,0,0,1,.485.484" transform="translate(-17.833 -24.871)"/><path class="l" d="M47.515,46.679a.484.484,0,0,1-.484.484h-.838a.484.484,0,1,1,0-.968h.838a.484.484,0,0,1,.484.484" transform="translate(-24.609 -24.871)"/><path class="m" d="M39.14,48.342a1.085,1.085,0,0,0,2.062,0" transform="translate(-21.073 -26.027)"/><path class="i" d="M44.418,24.674h4.438s.3,2.589-1.552,3.255" transform="translate(-23.915 -13.285)"/><path class="m" d="M44.418,24.674h4.438s.3,2.589-1.552,3.255" transform="translate(-23.915 -13.285)"/><path class="i" d="M60.283,44.238h-2.07a6.5,6.5,0,0,0-6.5,6.5V55.4a2.366,2.366,0,0,0,2.366,2.366H64.422A2.366,2.366,0,0,0,66.788,55.4V50.743a6.5,6.5,0,0,0-6.5-6.5" transform="translate(-27.84 -23.818)"/><path class="d" d="M60.283,44.238h-2.07a6.5,6.5,0,0,0-6.5,6.5V55.4a2.366,2.366,0,0,0,2.366,2.366H64.422A2.366,2.366,0,0,0,66.788,55.4V50.743A6.5,6.5,0,0,0,60.283,44.238Z" transform="translate(-27.84 -23.818)"/><line class="c" y2="2.032" transform="translate(17.839 46.04)"/><path class="e" d="M65.785,85.921V81.465a7.392,7.392,0,0,0-7.392-7.392H46.039a7.392,7.392,0,0,0-7.392,7.392v4.456Z" transform="translate(-20.808 -39.881)"/><path class="d" d="M65.785,85.921V81.465a7.392,7.392,0,0,0-7.392-7.392H46.039a7.392,7.392,0,0,0-7.392,7.392v4.456Z" transform="translate(-20.808 -39.881)"/><path class="c" d="M67.276,71.3l-4.61,11.754L58.056,71.3Z" transform="translate(-31.257 -38.388)"/><path class="n" d="M67.276,71.3l-4.61,11.754L58.056,71.3Z" transform="translate(-31.257 -38.388)"/><path class="j" d="M54.932,63.112a1.419,1.419,0,1,1-1.419-1.419,1.42,1.42,0,0,1,1.419,1.419" transform="translate(-28.047 -33.216)"/><path class="o" d="M54.932,63.112a1.419,1.419,0,1,1-1.419-1.419A1.42,1.42,0,0,1,54.932,63.112Z" transform="translate(-28.047 -33.216)"/><path class="j" d="M80.682,63.112a1.419,1.419,0,1,1-1.419-1.419,1.419,1.419,0,0,1,1.419,1.419" transform="translate(-41.911 -33.216)"/><path class="o" d="M80.682,63.112a1.419,1.419,0,1,1-1.419-1.419A1.419,1.419,0,0,1,80.682,63.112Z" transform="translate(-41.911 -33.216)"/><path class="c" d="M65.1,68.38a2.247,2.247,0,0,0-1.93,1.1,2.248,2.248,0,0,0-4.179,1.15v1.526a2.247,2.247,0,0,0,4.179,1.15,2.247,2.247,0,0,0,4.179-1.15V70.629A2.248,2.248,0,0,0,65.1,68.38" transform="translate(-31.76 -36.816)"/><path class="d" d="M65.1,68.38a2.247,2.247,0,0,0-1.93,1.1,2.248,2.248,0,0,0-4.179,1.15v1.526a2.247,2.247,0,0,0,4.179,1.15,2.247,2.247,0,0,0,4.179-1.15V70.629A2.248,2.248,0,0,0,65.1,68.38Z" transform="translate(-31.76 -36.816)"/><path class="j" d="M67.622,68.612a2.527,2.527,0,0,1-5.053,0V66.9a2.527,2.527,0,0,1,5.053,0Z" transform="translate(-33.687 -34.657)"/><path class="d" d="M67.622,68.612a2.527,2.527,0,0,1-5.053,0V66.9a2.527,2.527,0,0,1,5.053,0Z" transform="translate(-33.687 -34.657)"/><path class="j" d="M66.5,57.687H64.021l-.575-1.328-.574,1.328H59.866l-.574-1.328-.574,1.328H56.239a.593.593,0,0,0-.591.591v3.2a3.992,3.992,0,0,0,3.991,3.992H63.1a3.992,3.992,0,0,0,3.991-3.992v-3.2a.593.593,0,0,0-.591-.591" transform="translate(-29.961 -30.344)"/><path class="n" d="M66.5,57.687H64.021l-.575-1.328-.574,1.328H59.866l-.574-1.328-.574,1.328H56.239a.593.593,0,0,0-.591.591v3.2a3.992,3.992,0,0,0,3.991,3.992H63.1a3.992,3.992,0,0,0,3.991-3.992v-3.2A.593.593,0,0,0,66.5,57.687Z" transform="translate(-29.961 -30.344)"/><path class="k" d="M62.144,63.228a.549.549,0,0,1-1.1,0v-.639a.549.549,0,0,1,1.1,0Z" transform="translate(-32.867 -33.402)"/><path class="k" d="M73.758,63.228a.549.549,0,0,1-1.1,0v-.639a.549.549,0,1,1,1.1,0Z" transform="translate(-39.12 -33.402)"/><path class="l" d="M61.6,67.057a.484.484,0,0,1-.485.484h-.839a.484.484,0,0,1,0-.969h.839a.485.485,0,0,1,.485.485" transform="translate(-32.189 -35.842)"/><path class="l" d="M74.189,67.057a.485.485,0,0,1-.485.484l-.01.247c-.267,0-1.314-.464-1.314-.732a.485.485,0,0,1,.485-.485H73.7a.485.485,0,0,1,.485.485" transform="translate(-38.969 -35.842)"/><path class="m" d="M65.807,68.72a1.086,1.086,0,0,0,2.064,0" transform="translate(-35.431 -36.999)"/></g></g></g></g></svg>