<svg xmlns="http://www.w3.org/2000/svg" xmlns:xlink="http://www.w3.org/1999/xlink" width="48" height="53.127" viewBox="0 0 48 53.127"><defs><style>.a,.d,.l,.m{fill:none;}.b{clip-path:url(#a);}.c{fill:#fff;}.d,.l,.m{stroke:#3f2a22;}.e{fill:#61caff;}.f{fill:#ff5757;}.g{fill:#5187e5;}.h{fill:#5e453b;}.i{fill:#feeee1;}.j{fill:#3f2a22;}.k{fill:#ffd2b3;}.l{stroke-linejoin:round;}.m{stroke-width:0.5px;}.n{fill:#e0e0e0;}</style><clipPath id="a"><rect class="a" width="48" height="53.127"/></clipPath></defs><g transform="translate(-48 -2424.525)"><g class="b" transform="translate(48 2424.525)"><path class="c" d="M52.464,7.483a.865.865,0,0,0-.865-.865H10.207a.865.865,0,0,0-.865.865v31.3H52.464Z" transform="translate(-4.892 -3.466)"/><path class="d" d="M52.464,7.483a.865.865,0,0,0-.865-.865H10.207a.865.865,0,0,0-.865.865v31.3H52.464Z" transform="translate(-4.892 -3.466)"/><rect class="e" width="38.742" height="27.783" transform="translate(6.64 5.341)"/><line class="c" y2="3.14" transform="translate(40.089 8.246)"/><line class="d" y2="3.14" transform="translate(40.089 8.246)"/><line class="c" x2="3.141" transform="translate(38.519 9.815)"/><line class="d" x2="3.141" transform="translate(38.519 9.815)"/><path class="d" d="M21.772,33.723h3.7l3.7-3.587,3.705,3.587h3.7" transform="translate(-11.401 -15.782)"/><path class="c" d="M21.731,36.538a.936.936,0,1,1-.936-.936.936.936,0,0,1,.936.936" transform="translate(-10.4 -18.644)"/><path class="d" d="M21.731,36.538a.936.936,0,1,1-.936-.936A.936.936,0,0,1,21.731,36.538Z" transform="translate(-10.4 -18.644)"/><path class="c" d="M29.564,36.538a.936.936,0,1,1-.936-.936.936.936,0,0,1,.936.936" transform="translate(-14.502 -18.644)"/><path class="d" d="M29.564,36.538a.936.936,0,1,1-.936-.936A.936.936,0,0,1,29.564,36.538Z" transform="translate(-14.502 -18.644)"/><path class="c" d="M44.911,36.538a.936.936,0,1,1-.936-.936.936.936,0,0,1,.936.936" transform="translate(-22.539 -18.644)"/><path class="d" d="M44.911,36.538a.936.936,0,1,1-.936-.936A.936.936,0,0,1,44.911,36.538Z" transform="translate(-22.539 -18.644)"/><path class="c" d="M52.85,36.538a.936.936,0,1,1-.936-.936.937.937,0,0,1,.936.936" transform="translate(-26.696 -18.644)"/><path class="d" d="M52.85,36.538a.936.936,0,1,1-.936-.936A.937.937,0,0,1,52.85,36.538Z" transform="translate(-26.696 -18.644)"/><path class="f" d="M37.291,29.129a.936.936,0,1,1-.936-.937.936.936,0,0,1,.936.937" transform="translate(-18.548 -14.764)"/><path class="d" d="M37.291,29.129a.936.936,0,1,1-.936-.937A.936.936,0,0,1,37.291,29.129Z" transform="translate(-18.548 -14.764)"/><path class="g" d="M74.2,60.919c0-.087.007-2.168.007-2.255A5.607,5.607,0,0,0,68.6,53.057H66.666l-1.275.775-1.33-.775H62.149a5.607,5.607,0,0,0-5.607,5.607c0,.087,0,2.168.006,2.255" transform="translate(-29.61 -27.785)"/><path class="d" d="M74.2,60.919c0-.087.007-2.168.007-2.255A5.607,5.607,0,0,0,68.6,53.057H66.666l-1.275.775-1.33-.775H62.149a5.607,5.607,0,0,0-5.607,5.607c0,.087,0,2.168.006,2.255" transform="translate(-29.61 -27.785)"/><path class="c" d="M73.205,54.423l-.417-1.012,1.093-1.052,1.093,1.052-.417,1.012Z" transform="translate(-38.118 -27.419)"/><path class="d" d="M73.205,54.423l-.417-1.012,1.093-1.052,1.093,1.052-.417,1.012Z" transform="translate(-38.118 -27.419)"/><path class="c" d="M74.721,56.617H73.37L73.1,62.3h1.885Z" transform="translate(-38.282 -29.649)"/><path class="d" d="M74.721,56.617H73.37L73.1,62.3h1.885Z" transform="translate(-38.282 -29.649)"/><path class="h" d="M74.656,40.4H66.09V37.372a3.151,3.151,0,0,1,3.148-3.147h2.271a3.151,3.151,0,0,1,3.148,3.147V40.4Z" transform="translate(-34.61 -17.923)"/><path class="d" d="M74.656,40.4H66.09V37.372a3.151,3.151,0,0,1,3.148-3.147h2.271a3.151,3.151,0,0,1,3.148,3.147V40.4Z" transform="translate(-34.61 -17.923)"/><path class="i" d="M66.947,45.547a.915.915,0,1,1-.915-.915.915.915,0,0,1,.915.915" transform="translate(-34.1 -23.373)"/><circle class="d" cx="0.915" cy="0.915" r="0.915" transform="translate(31.017 21.259)"/><path class="i" d="M83.036,45.547a.915.915,0,1,1-.915-.915.915.915,0,0,1,.915.915" transform="translate(-42.526 -23.373)"/><path class="d" d="M83.036,45.547a.915.915,0,1,1-.915-.915A.915.915,0,0,1,83.036,45.547Z" transform="translate(-42.526 -23.373)"/><path class="i" d="M67.338,41.76v2.425a2.573,2.573,0,0,0,2.574,2.573h2.231a2.573,2.573,0,0,0,2.573-2.573V40.5a10.176,10.176,0,0,1-4.876,1.387,12.159,12.159,0,0,1-2.5-.13" transform="translate(-35.263 -21.211)"/><path class="d" d="M67.338,41.76v2.425a2.573,2.573,0,0,0,2.574,2.573h2.231a2.573,2.573,0,0,0,2.573-2.573V40.5a10.176,10.176,0,0,1-4.876,1.387A12.159,12.159,0,0,1,67.338,41.76Z" transform="translate(-35.263 -21.211)"/><path class="j" d="M71.419,45.614a.354.354,0,0,1-.708,0V45.2a.354.354,0,0,1,.708,0Z" transform="translate(-37.03 -23.486)"/><path class="j" d="M78.675,45.614a.354.354,0,0,1-.708,0V45.2a.354.354,0,0,1,.708,0Z" transform="translate(-40.83 -23.486)"/><path class="k" d="M71.091,47.992a.312.312,0,0,1-.312.312h-.541a.312.312,0,0,1,0-.624h.541a.312.312,0,0,1,.312.312" transform="translate(-36.618 -24.969)"/><path class="k" d="M78.957,47.992a.311.311,0,0,1-.312.312H78.1a.312.312,0,1,1,0-.624h.541a.312.312,0,0,1,.312.312" transform="translate(-40.737 -24.969)"/><path class="f" d="M13.871,7.386A6.486,6.486,0,1,1,7.385.9a6.486,6.486,0,0,1,6.486,6.486" transform="translate(-0.68 -0.471)"/><path class="d" d="M13.871,7.386A6.486,6.486,0,1,1,7.385.9,6.486,6.486,0,0,1,13.871,7.386Z" transform="translate(-0.471 -0.471)"/><path class="c" d="M11.981,9.7,15.953,12l-3.972,2.293Z" transform="translate(-6.274 -5.08)"/><path class="d" d="M11.981,9.7,15.953,12l-3.972,2.293Z" transform="translate(-6.274 -5.08)"/><line class="d" x2="10.319" transform="translate(10.298 24.033)"/><line class="d" x2="10.319" transform="translate(10.298 26.697)"/><line class="d" x2="6.657" transform="translate(10.298 29.36)"/><path class="i" d="M47.566,65.094V55.184a1.811,1.811,0,1,0-3.575,0v5.247a1.812,1.812,0,1,0-3.578,0,1.974,1.974,0,0,0-1.787-2.1c-1.767,0-1.788,2-1.789,3.156a1.97,1.97,0,0,0-1.787-2.1,1.973,1.973,0,0,0-1.788,2.1V72.5h14.3S53,63.724,47.89,61.486" transform="translate(-17.418 -27.798)"/><path class="d" d="M47.566,65.094V55.184a1.811,1.811,0,1,0-3.575,0v5.247a1.812,1.812,0,1,0-3.578,0,1.974,1.974,0,0,0-1.787-2.1c-1.767,0-1.788,2-1.789,3.156a1.97,1.97,0,0,0-1.787-2.1,1.973,1.973,0,0,0-1.788,2.1V72.5h14.3S53,63.724,47.89,61.486" transform="translate(-17.418 -27.798)"/><line class="i" y2="3.05" transform="translate(22.994 32.632)"/><line class="l" y2="3.05" transform="translate(22.994 32.632)"/><line class="i" y1="3.048" x2="0.001" transform="translate(19.418 32.632)"/><line class="l" y1="3.048" x2="0.001" transform="translate(19.418 32.632)"/><line class="i" x1="0.001" y2="3.048" transform="translate(19.418 32.632)"/><path class="m" d="M0,0V3.048" transform="translate(19.418 32.632)"/><line class="i" y1="3.05" transform="translate(22.994 32.632)"/><line class="i" y1="4.641" transform="translate(26.57 31.042)"/><line class="d" y1="4.641" transform="translate(26.57 31.042)"/><rect class="c" width="14.985" height="9.197" transform="translate(15.804 43.502)"/><rect class="n" width="3.524" height="9.197" transform="translate(27.265 43.502)"/><rect class="d" width="14.985" height="9.197" transform="translate(15.804 43.502)"/><line class="d" x2="14.394" transform="translate(16.112 47.558)"/></g></g></svg>