<svg width="91" height="88" viewBox="0 0 91 88" fill="none" xmlns="http://www.w3.org/2000/svg">
<g clip-path="url(#clip0_14_375)">
<path d="M87.65 36.6899H90.98V33.6899H87.65" fill="url(#paint0_linear_14_375)"/>
<path d="M15.3 45.69C20.05 45.69 23.9 41.84 23.9 37.09C23.9 33.3 21.44 30.09 18.03 28.94V15.61L20.97 12.68L24.34 9.31L27.71 5.94L30.64 3.01H39.84H56.7H76.35C77.22 3.01 78.04 3.19 78.78 3.5C79.53 3.82 80.21 4.28 80.78 4.85C81.35 5.42 81.81 6.1 82.13 6.85C82.45 7.6 82.62 8.42 82.62 9.29V26.52H85.62V9.3V9.28C85.62 8 85.36 6.78 84.89 5.68C84.42 4.57 83.74 3.57 82.9 2.73C82.06 1.89 81.06 1.21 79.95 0.74C78.87 0.26 77.65 0 76.37 0H66.53H56.71H39.85H29.41L25.6 3.81L22.23 7.18L18.86 10.55L15.05 14.36V28.49C10.42 28.63 6.71002 32.41 6.71002 37.08C6.71002 41.83 10.56 45.68 15.31 45.68L15.3 45.69ZM11.34 33.13C12.36 32.11 13.75 31.49 15.3 31.49C16.85 31.49 18.24 32.11 19.26 33.13C20.28 34.15 20.9 35.54 20.9 37.09C20.9 38.64 20.28 40.03 19.26 41.05C18.24 42.07 16.85 42.69 15.3 42.69C13.75 42.69 12.36 42.07 11.34 41.05C10.32 40.03 9.70002 38.64 9.70002 37.09C9.70002 35.54 10.32 34.15 11.34 33.13ZM30.16 71.19C30.44 70.91 30.6 70.52 30.6 70.13V56.7C30.6 51.43 26.33 47.16 21.06 47.16H18.97C18.43 47.16 17.94 47.45 17.67 47.91L15.31 52L12.95 47.91C12.68 47.45 12.19 47.16 11.65 47.16H9.56002C4.29002 47.16 0.0200195 51.43 0.0200195 56.7V70.13C0.0200195 70.52 0.18002 70.91 0.46002 71.19C0.74002 71.47 1.12002 71.63 1.52002 71.63H29.12C29.51 71.63 29.9 71.47 30.18 71.19H30.16ZM27.6 68.63H3.00002V56.7C3.00002 54.89 3.73002 53.26 4.92002 52.08C6.11002 50.89 7.74002 50.17 9.55002 50.16H10.78L14.01 55.75C14.28 56.21 14.77 56.5 15.31 56.5C15.85 56.5 16.34 56.21 16.61 55.75L19.84 50.16H21.07C22.88 50.16 24.51 50.89 25.7 52.08C26.89 53.27 27.61 54.89 27.62 56.7V68.63H27.6ZM43.1 37.09C43.1 41.84 46.95 45.69 51.7 45.69C56.45 45.69 60.3 41.84 60.3 37.09C60.3 32.34 56.45 28.49 51.7 28.49C46.95 28.49 43.1 32.34 43.1 37.09ZM47.74 33.13C48.76 32.11 50.15 31.49 51.7 31.49C53.25 31.49 54.64 32.11 55.66 33.13C56.68 34.15 57.3 35.54 57.3 37.09C57.3 38.64 56.68 40.03 55.66 41.05C54.64 42.07 53.25 42.69 51.7 42.69C50.15 42.69 48.76 42.07 47.74 41.05C46.72 40.03 46.1 38.64 46.1 37.09C46.1 35.54 46.72 34.15 47.74 33.13ZM37.9 71.63H65.5C65.89 71.63 66.28 71.47 66.56 71.19C66.84 70.91 67 70.52 67 70.13V56.7C67 51.43 62.73 47.16 57.46 47.16H55.37C54.83 47.16 54.34 47.45 54.07 47.91L51.71 52L49.35 47.91C49.08 47.45 48.59 47.16 48.05 47.16H45.96C40.69 47.16 36.42 51.43 36.42 56.7V70.13C36.42 70.52 36.58 70.91 36.86 71.19C37.14 71.47 37.52 71.63 37.92 71.63H37.9ZM39.4 56.7C39.4 54.89 40.13 53.26 41.32 52.08C42.51 50.89 44.14 50.17 45.95 50.16H47.18L50.41 55.75C50.68 56.21 51.17 56.5 51.71 56.5C52.25 56.5 52.74 56.21 53.01 55.75L56.24 50.16H57.47C59.28 50.16 60.91 50.89 62.1 52.08C63.29 53.27 64.01 54.89 64.02 56.7V68.63H39.42V56.7H39.4ZM23.88 21.82H37.31V8.39H34.31V18.82H23.88V21.82ZM85.66 43.72H82.66V60.93V78.14C82.66 79.01 82.48 79.83 82.16 80.59C81.84 81.34 81.38 82.02 80.81 82.59C80.24 83.16 79.56 83.62 78.81 83.94C78.06 84.26 77.23 84.44 76.36 84.44H65.11H46.82H35.57H24.32C23.45 84.44 22.62 84.26 21.87 83.94C21.12 83.62 20.44 83.16 19.87 82.59C19.3 82.02 18.84 81.34 18.52 80.59C18.2 79.84 18.02 79.01 18.02 78.14H15.02C15.02 79.42 15.28 80.65 15.75 81.76C16.22 82.87 16.9 83.87 17.74 84.71C18.58 85.55 19.58 86.23 20.7 86.7C21.82 87.17 23.04 87.43 24.32 87.43H46.81H65.1H76.35C77.63 87.43 78.86 87.17 79.97 86.7C81.08 86.23 82.08 85.55 82.92 84.71C83.76 83.87 84.44 82.87 84.91 81.76C85.38 80.65 85.64 79.43 85.64 78.14V43.71L85.66 43.72ZM70.98 33.69H67.65V36.69H70.98V33.69ZM77.65 36.69H80.98V33.69H77.65V36.69ZM45.65 15.02V18.02H48.98V15.02H45.65ZM58.98 15.02H55.65V18.02H58.98V15.02ZM68.98 15.02H65.65V18.02H68.98V15.02Z" fill="url(#paint1_linear_14_375)"/>
</g>
<defs>
<linearGradient id="paint0_linear_14_375" x1="87.65" y1="35.1899" x2="90.98" y2="35.1899" gradientUnits="userSpaceOnUse">
<stop stop-color="#7D00DB"/>
<stop offset="1" stop-color="#E4007F"/>
</linearGradient>
<linearGradient id="paint1_linear_14_375" x1="1.95301e-05" y1="43.72" x2="85.66" y2="43.72" gradientUnits="userSpaceOnUse">
<stop stop-color="#7D00DB"/>
<stop offset="1" stop-color="#E4007F"/>
</linearGradient>
<clipPath id="clip0_14_375">
<rect width="90.98" height="87.45" fill="white"/>
</clipPath>
</defs>
</svg>
