<svg width="90" height="83" viewBox="0 0 90 83" fill="none" xmlns="http://www.w3.org/2000/svg">
<g clip-path="url(#clip0_14_368)">
<path d="M54.41 7.18994H38.41V13.1899H54.41V7.18994Z" fill="#F9CCFF"/>
<path d="M83.46 45.8799H89.61V42.8799H83.46" fill="url(#paint0_linear_14_368)"/>
<path d="M45.28 77.8698V62.8298C45.28 58.5998 41.85 55.1698 37.62 55.1698H25.3C21.07 55.1698 17.64 58.5998 17.64 62.8298V77.8698H20.64V62.8298C20.64 61.5398 21.16 60.3798 22.01 59.5398C22.86 58.6898 24.01 58.1798 25.3 58.1698H37.62C38.91 58.1698 40.07 58.6898 40.92 59.5298C41.76 60.3798 42.28 61.5298 42.28 62.8198V77.8598H45.28V77.8698ZM23.69 45.3298C23.69 49.6198 27.17 53.0998 31.46 53.0998C35.75 53.0998 39.22 49.6198 39.23 45.3298C39.23 41.0398 35.75 37.5598 31.46 37.5598C27.17 37.5598 23.69 41.0398 23.69 45.3298ZM36.22 45.3298C36.22 46.6498 35.69 47.8298 34.82 48.6998C33.95 49.5698 32.77 50.0998 31.45 50.0998C30.13 50.0998 28.95 49.5698 28.08 48.6998C27.21 47.8298 26.68 46.6498 26.68 45.3298C26.68 44.0098 27.21 42.8298 28.08 41.9598C28.95 41.0898 30.13 40.5598 31.45 40.5598C32.77 40.5598 33.95 41.0898 34.82 41.9598C35.69 42.8298 36.22 44.0098 36.22 45.3298ZM21.58 8.13977H18.58V18.1398H8.58001V21.1398H21.58V8.13977ZM58.41 73.3498C58.41 74.1798 58.24 74.9698 57.94 75.6898C57.64 76.4098 57.2 77.0498 56.65 77.5998C56.1 78.1498 55.46 78.5898 54.74 78.8898C54.02 79.1898 53.23 79.3598 52.4 79.3598H9.02001C8.19001 79.3598 7.40001 79.1898 6.68001 78.8898C5.96001 78.5898 5.31001 78.1498 4.77001 77.5998C4.22001 77.0498 3.78001 76.4098 3.48001 75.6898L3.50001 75.7298L3.48001 75.6798C3.18001 74.9598 3.01001 74.1698 3.01001 73.3398V60.1798C3.01001 60.1798 3.11001 47.2098 3.11001 38.1798C3.11001 35.9098 3.11001 33.8898 3.09001 32.3898C3.09001 31.6398 3.07001 31.0098 3.06001 30.5398C3.06001 30.2998 3.05001 30.1098 3.04001 29.9398V29.7098C3.04001 29.7098 3.02001 29.6598 3.02001 29.6398V15.1298L5.83001 12.3198L9.08001 9.06977L12.33 5.81977L15.14 3.00977H52.4C53.24 3.00977 54.02 3.17977 54.74 3.47977C55.46 3.77977 56.1 4.21977 56.65 4.76977C57.19 5.31977 57.63 5.96977 57.94 6.67977C58.25 7.39977 58.41 8.18977 58.41 9.01977V19.8398H61.41V9.01977C61.41 7.77977 61.16 6.58977 60.7 5.50977C60.24 4.42977 59.59 3.45977 58.77 2.64977C57.96 1.82977 56.98 1.16977 55.9 0.719766C54.82 0.259766 53.63 0.00976562 52.4 0.00976562H13.89L10.2 3.69977L6.95001 6.94977L3.70001 10.1998L0.0100098 13.8898V29.8698L0.0300098 29.9698C0.0300098 30.0698 0.0500098 30.4198 0.0600098 30.8798C0.0900098 32.2998 0.10001 34.9998 0.10001 38.1798C0.10001 42.6798 0.0800098 48.1798 0.0500098 52.5498C0.0400098 54.7298 0.0300098 56.6398 0.0200098 57.9898C0.0200098 59.3498 0.0100098 60.1498 0.0100098 60.1598V73.3398C0.0100098 74.5798 0.26001 75.7698 0.72001 76.8498C1.18001 77.9298 1.84001 78.8998 2.65001 79.7098C3.47001 80.5298 4.44001 81.1898 5.52001 81.6398C6.60001 82.0998 7.79001 82.3498 9.03001 82.3498H52.4C53.64 82.3498 54.83 82.0998 55.91 81.6398C56.99 81.1898 57.96 80.5198 58.78 79.7098C59.59 78.8998 60.25 77.9298 60.71 76.8398C61.17 75.7598 61.42 74.5698 61.42 73.3298V58.7798H58.42V73.3298L58.41 73.3498ZM81.92 30.5898H52.72V33.5898H81.92V30.5898ZM52.73 45.8798H58.88V42.8798H52.73V45.8798ZM74.24 42.8798H68.09V45.8798H74.24V42.8798ZM71.26 18.9698C73.54 18.9698 75.45 17.4598 76.09 15.3898H85.91V12.3898H76.09C75.45 10.3198 73.54 8.80977 71.26 8.80977C68.45 8.80977 66.18 11.0798 66.18 13.8898C66.18 16.6998 68.45 18.9698 71.26 18.9698ZM71.26 11.8098C72.41 11.8098 73.34 12.7398 73.34 13.8898C73.34 15.0398 72.41 15.9698 71.26 15.9698C70.11 15.9698 69.18 15.0398 69.18 13.8898C69.18 12.7398 70.11 11.8098 71.26 11.8098ZM20.16 34.4298C22.44 34.4298 24.35 32.9198 24.99 30.8498H34.81V27.8498H24.99C24.35 25.7798 22.44 24.2698 20.16 24.2698C17.35 24.2698 15.08 26.5398 15.08 29.3498C15.08 32.1598 17.35 34.4298 20.16 34.4298ZM20.16 27.2698C21.31 27.2698 22.24 28.1998 22.24 29.3498C22.24 30.4998 21.31 31.4298 20.16 31.4298C19.01 31.4298 18.08 30.4998 18.08 29.3498C18.08 28.1998 19.01 27.2698 20.16 27.2698ZM78.37 67.5598C77.73 65.4898 75.82 63.9798 73.54 63.9798C70.73 63.9798 68.46 66.2498 68.46 69.0598C68.46 71.8698 70.73 74.1398 73.54 74.1398C75.82 74.1398 77.73 72.6298 78.37 70.5598H88.19V67.5598H78.37ZM73.54 71.1398C72.39 71.1398 71.46 70.2098 71.46 69.0598C71.46 67.9098 72.39 66.9798 73.54 66.9798C74.69 66.9798 75.62 67.9098 75.62 69.0598C75.62 70.2098 74.69 71.1398 73.54 71.1398Z" fill="url(#paint1_linear_14_368)"/>
</g>
<defs>
<linearGradient id="paint0_linear_14_368" x1="83.46" y1="44.3799" x2="89.61" y2="44.3799" gradientUnits="userSpaceOnUse">
<stop stop-color="#7D00DB"/>
<stop offset="1" stop-color="#E4007F"/>
</linearGradient>
<linearGradient id="paint1_linear_14_368" x1="9.76565e-06" y1="41.1798" x2="88.19" y2="41.1798" gradientUnits="userSpaceOnUse">
<stop stop-color="#7D00DB"/>
<stop offset="1" stop-color="#E4007F"/>
</linearGradient>
<clipPath id="clip0_14_368">
<rect width="89.61" height="82.36" fill="white"/>
</clipPath>
</defs>
</svg>
