<svg xmlns="http://www.w3.org/2000/svg" xmlns:xlink="http://www.w3.org/1999/xlink" width="57.572" height="48.616" viewBox="0 0 57.572 48.616"><defs><style>.a,.d,.f,.k,.l,.p{fill:none;}.b{clip-path:url(#a);}.c{fill:#fff;}.d,.f,.k,.l,.p{stroke:#3f2a22;}.e{fill:#5187e5;}.f{stroke-width:1.8px;}.g{fill:#5e453b;}.h{fill:#feeee1;}.i{fill:#3f2a22;}.j{fill:#ffd2b3;}.k,.l{stroke-linecap:round;}.l,.p{stroke-linejoin:round;}.m{fill:#e0e0e0;}.n{fill:#fff599;}.o{fill:#b9e8ed;}</style><clipPath id="a"><rect class="a" width="57.572" height="48.616"/></clipPath></defs><g transform="translate(-48.037 -2426.384)"><g class="b" transform="translate(48.037 2426.384)"><path class="c" d="M20.584,64.2c0-7.512,6.563-13.6,14.658-13.6H41.9c8.1,0,14.658,6.092,14.658,13.6v5.11H20.584Z" transform="translate(-11.256 -27.665)"/><path class="d" d="M20.584,64.2c0-7.512,6.563-13.6,14.658-13.6H41.9c8.1,0,14.658,6.092,14.658,13.6v5.11H20.584Z" transform="translate(-11.256 -27.665)"/><path class="e" d="M60.255,58.344l.478-1.162.479-1.161-1.253-1.206-1.253-.567-1.253.567L56.2,56.021l.478,1.161.479,1.163h3.1Z" transform="translate(-30.732 -29.664)"/><path class="f" d="M60.255,58.344l.478-1.162.479-1.161-1.253-1.206-1.253-.567-1.253.567L56.2,56.021l.478,1.161.479,1.163h3.1Z" transform="translate(-30.732 -29.664)"/><path class="e" d="M57.572,63.107h3.1l.613,13.042H56.959Z" transform="translate(-31.146 -34.508)"/><path class="d" d="M57.572,63.107h3.1l.613,13.042H56.959Z" transform="translate(-31.146 -34.508)"/><path class="c" d="M63.52,51.509,60.97,49.3l4.187-3.762,1.084,2.579Z" transform="translate(-33.34 -24.898)"/><path class="d" d="M63.52,51.509,60.97,49.3l4.187-3.762,1.084,2.579Z" transform="translate(-33.34 -24.898)"/><path class="c" d="M52.263,51.509,54.809,49.3l-4.271-3.762L48.45,47.7Z" transform="translate(-26.493 -24.898)"/><path class="d" d="M52.263,51.509,54.809,49.3l-4.271-3.762L48.45,47.7Z" transform="translate(-26.493 -24.898)"/><path class="g" d="M57.133,29.971H43.262V24.656a5.526,5.526,0,0,1,5.52-5.52h3.986a6.466,6.466,0,0,1,4.047,1.681,5.214,5.214,0,0,1,1.292,4.556,28.788,28.788,0,0,1-.85,3.207,5.439,5.439,0,0,0-.123,1.392" transform="translate(-23.657 -10.464)"/><path class="d" d="M57.133,29.971H43.262V24.656a5.526,5.526,0,0,1,5.52-5.52h3.986a6.466,6.466,0,0,1,4.047,1.681,5.214,5.214,0,0,1,1.292,4.556,28.788,28.788,0,0,1-.85,3.207A5.439,5.439,0,0,0,57.133,29.971Z" transform="translate(-23.657 -10.464)"/><path class="h" d="M56.092,33.28h-9.95c-.058,1.262-.657,2.376-2.165,2.108a1.6,1.6,0,1,0-.152,2.841,4.58,4.58,0,0,0,4.509,4.859h3.913a4.515,4.515,0,0,0,4.515-4.514V33.949a.672.672,0,0,0-.67-.669" transform="translate(-22.728 -18.198)"/><path class="d" d="M56.092,33.28h-9.95c-.058,1.262-.657,2.376-2.165,2.108a1.6,1.6,0,1,0-.152,2.841,4.58,4.58,0,0,0,4.509,4.859h3.913a4.515,4.515,0,0,0,4.515-4.514V33.949A.672.672,0,0,0,56.092,33.28Z" transform="translate(-22.728 -18.198)"/><path class="i" d="M57.618,39.786a.621.621,0,1,1-1.242,0v-.721a.621.621,0,1,1,1.242,0Z" transform="translate(-30.828 -21.022)"/><path class="i" d="M69,39.786a.62.62,0,1,1-1.241,0v-.721a.62.62,0,1,1,1.241,0Z" transform="translate(-37.052 -21.022)"/><path class="j" d="M56.969,44.212a.549.549,0,0,1-.548.55h-.949a.548.548,0,0,1,0-1.1h.949a.548.548,0,0,1,.548.547" transform="translate(-30.034 -23.877)"/><path class="j" d="M69.481,44.212a.549.549,0,0,1-.549.55h-.949a.548.548,0,0,1,0-1.1h.949a.548.548,0,0,1,.549.547" transform="translate(-36.875 -23.877)"/><path class="k" d="M60.493,46.256a1.79,1.79,0,0,0,2.6,0" transform="translate(-33.079 -25.294)"/><rect class="h" width="10.303" height="4.644" transform="translate(18.99 41.222)"/><rect class="d" width="10.303" height="4.644" transform="translate(18.99 41.222)"/><path class="c" d="M16.967,64.708c-2.911,4.075-6.559,13.248-6.559,13.248S8.092,82.9,13.356,82.9H29.745V74.2H22.919l2.106-4.052" transform="translate(-5.414 -35.384)"/><path class="l" d="M16.967,64.708c-2.911,4.075-6.559,13.248-6.559,13.248S8.092,82.9,13.356,82.9H29.745V74.2H22.919l2.106-4.052" transform="translate(-5.414 -35.384)"/><path class="c" d="M21.754,101.581v.692c0,.818.885,1.481,1.976,1.481H36.636c1.092,0,1.977-.663,1.977-1.481v-.692Z" transform="translate(-11.896 -55.547)"/><path class="d" d="M21.754,101.581v.692c0,.818.885,1.481,1.976,1.481H36.636c1.092,0,1.977-.663,1.977-1.481v-.692Z" transform="translate(-11.896 -55.547)"/><path class="c" d="M99.046,65.236h-21.7L92.266,80.155Z" transform="translate(-42.295 -35.673)"/><path class="m" d="M63.8,65.236H61.04L52.564,83.881H77.022l1.693-3.726Z" transform="translate(-28.743 -35.673)"/><path class="l" d="M77.022,83.881H52.565L61.04,65.236H85.494Z" transform="translate(-28.744 -35.672)"/><path class="n" d="M105.042,42.364H91.671a.7.7,0,0,0-.7.7v2.12l-1.47.965c-.194.126-.162.23.069.23h1.4v1.541a.7.7,0,0,0,.7.7h13.371a.7.7,0,0,0,.7-.7V43.065a.7.7,0,0,0-.7-.7" transform="translate(-48.872 -23.166)"/><path class="d" d="M105.042,42.364H91.671a.7.7,0,0,0-.7.7v2.12l-1.47.965c-.194.126-.162.23.069.23h1.4v1.541a.7.7,0,0,0,.7.7h13.371a.7.7,0,0,0,.7-.7V43.065A.7.7,0,0,0,105.042,42.364Z" transform="translate(-48.872 -23.166)"/><line class="n" x2="9.615" transform="translate(45.322 21.541)"/><line class="d" x2="9.615" transform="translate(45.322 21.541)"/><line class="n" x2="5.602" transform="translate(45.322 23.021)"/><line class="d" x2="5.602" transform="translate(45.322 23.021)"/><path class="o" d="M1.6,25.939H14.563a.7.7,0,0,1,.7.7v2.12l1.47.964c.193.126.162.229-.069.229h-1.4v1.541a.7.7,0,0,1-.7.7H1.6a.7.7,0,0,1-.7-.7V26.64a.7.7,0,0,1,.7-.7" transform="translate(-0.492 -14.184)"/><path class="d" d="M1.6,25.939H14.563a.7.7,0,0,1,.7.7v2.12l1.47.964c.193.126.162.229-.069.229h-1.4v1.541a.7.7,0,0,1-.7.7H1.6a.7.7,0,0,1-.7-.7V26.64A.7.7,0,0,1,1.6,25.939Z" transform="translate(-0.492 -14.184)"/><line class="c" x1="9.616" transform="translate(1.934 14.098)"/><line class="p" x1="9.616" transform="translate(1.934 14.098)"/><line class="c" x1="5.602" transform="translate(5.947 15.578)"/><line class="p" x1="5.602" transform="translate(5.947 15.578)"/><path class="c" d="M106.454,9.056A8.157,8.157,0,1,1,98.3.9a8.158,8.158,0,0,1,8.157,8.157" transform="translate(-49.291 -0.492)"/><circle class="p" cx="8.157" cy="8.157" r="8.157" transform="translate(40.85 0.408)"/><path class="g" d="M101.758,5.368H100.12a5.149,5.149,0,0,0-5.149,5.149V14.2a1.872,1.872,0,0,0,1.873,1.872h8.191a1.872,1.872,0,0,0,1.872-1.872V10.517a5.149,5.149,0,0,0-5.149-5.149" transform="translate(-51.932 -2.935)"/><path class="d" d="M101.758,5.368H100.12a5.149,5.149,0,0,0-5.149,5.149V14.2a1.872,1.872,0,0,0,1.873,1.872h8.191a1.872,1.872,0,0,0,1.872-1.872V10.517A5.149,5.149,0,0,0,101.758,5.368Z" transform="translate(-51.932 -2.935)"/><path class="h" d="M97.529,20.563a1.123,1.123,0,1,1-1.123-1.123,1.125,1.125,0,0,1,1.123,1.123" transform="translate(-52.102 -10.63)"/><path class="d" d="M97.529,20.563a1.123,1.123,0,1,1-1.123-1.123A1.125,1.125,0,0,1,97.529,20.563Z" transform="translate(-52.102 -10.63)"/><path class="h" d="M118.289,20.563a1.123,1.123,0,1,1-1.123-1.123,1.124,1.124,0,0,1,1.123,1.123" transform="translate(-63.455 -10.63)"/><path class="d" d="M118.289,20.563a1.123,1.123,0,1,1-1.123-1.123A1.124,1.124,0,0,1,118.289,20.563Z" transform="translate(-63.455 -10.63)"/><path class="h" d="M106.737,16.192h-1.962l-.455-1.052-.455,1.052h-2.379l-.455-1.052-.455,1.052H98.615a.469.469,0,0,0-.468.467V19.2a3.16,3.16,0,0,0,3.16,3.16h2.738A3.16,3.16,0,0,0,107.2,19.2V16.66a.468.468,0,0,0-.467-.467" transform="translate(-53.669 -8.279)"/><path class="d" d="M106.737,16.192h-1.962l-.455-1.052-.455,1.052h-2.379l-.455-1.052-.455,1.052H98.615a.469.469,0,0,0-.468.467V19.2a3.16,3.16,0,0,0,3.16,3.16h2.738A3.16,3.16,0,0,0,107.2,19.2V16.66A.468.468,0,0,0,106.737,16.192Z" transform="translate(-53.669 -8.279)"/><path class="i" d="M103.369,20.661a.434.434,0,1,1-.868,0v-.5a.434.434,0,1,1,.868,0Z" transform="translate(-56.05 -10.784)"/><path class="i" d="M112.733,20.661a.434.434,0,1,1-.869,0v-.5a.434.434,0,1,1,.869,0Z" transform="translate(-61.17 -10.784)"/><path class="j" d="M102.917,23.757a.384.384,0,0,1-.384.384h-.664a.384.384,0,0,1,0-.768h.664a.384.384,0,0,1,.384.383" transform="translate(-55.495 -12.781)"/><path class="j" d="M113.069,23.757a.385.385,0,0,1-.384.384h-.664a.384.384,0,1,1,0-.768h.664a.384.384,0,0,1,.384.383" transform="translate(-61.046 -12.781)"/><path class="k" d="M106.339,25.106a.859.859,0,0,0,1.633,0" transform="translate(-58.148 -13.729)"/></g></g></svg>