<svg width="95" height="78" viewBox="0 0 95 78" fill="none" xmlns="http://www.w3.org/2000/svg">
<g clip-path="url(#clip0_14_387)">
<path d="M0 62.55V67.06C0 72.69 4.57 77.26 10.2 77.26H83.97C89.6 77.26 94.17 72.69 94.17 67.06V62.55H0ZM91.17 67.06C91.17 71.03 87.95 74.25 83.97 74.26H10.2C6.23 74.26 3.01 71.03 3 67.06V65.55H91.17V67.06ZM10.32 5.17C10.32 5.17 10.34 5.14 10.35 5.12C10.68 4.44 12.57 2.93 14.38 3H79.78C82 3 83.83 4.83 83.84 7.06V58.83H86.84V7.06C86.84 3.17 83.67 0.01 79.78 0H14.38C12.43 0 10.77 0.77 9.55 1.68C8.94 2.14 8.44 2.64 8.05 3.16C7.68 3.7 7.35 4.21 7.32 5.05V58.82H10.32V5.17ZM52.45 8.5H41.71V11.5H52.45V8.5ZM74.26 28.23H58.8V44.82H74.26V28.23ZM61.8 41.83V31.24H71.26V41.83H61.8ZM35.37 28.23H19.91V44.82H35.37V28.23ZM32.37 41.83H22.91V31.24H32.37V41.83ZM54.81 28.23H39.35V44.82H54.81V28.23ZM51.81 41.83H42.35V31.24H51.81V41.83ZM30.1 54.94V51.94H23.31V54.94H30.1ZM36.89 54.94H43.68V51.94H36.89V54.94ZM57.27 51.94H50.48V54.94H57.27V51.94ZM70.85 54.94V51.94H64.06V54.94H70.85ZM73.45 18.18H47.45V21.18H73.45V18.18Z" fill="url(#paint0_linear_14_387)"/>
</g>
<defs>
<linearGradient id="paint0_linear_14_387" x1="0" y1="38.63" x2="94.16" y2="38.63" gradientUnits="userSpaceOnUse">
<stop stop-color="#7D00DB"/>
<stop offset="1" stop-color="#E4007F"/>
</linearGradient>
<clipPath id="clip0_14_387">
<rect width="94.16" height="77.26" fill="white"/>
</clipPath>
</defs>
</svg>
