<svg xmlns="http://www.w3.org/2000/svg" xmlns:xlink="http://www.w3.org/1999/xlink" width="49.355" height="52.832" viewBox="0 0 49.355 52.832"><defs><style>.a,.e,.g,.j{fill:none;}.b{clip-path:url(#a);}.c{fill:#f1c5ff;}.d{fill:#e4aaf9;}.e,.g,.j{stroke:#3f2a22;}.f{fill:#feeee1;}.g{stroke-width:1.8px;}.h{fill:#3f2a22;}.i{fill:#ffd2b3;}.j{stroke-linecap:round;}.k{fill:#72544a;}.l{fill:#fff;}.m{fill:#5187e5;}</style><clipPath id="a"><rect class="a" width="49.355" height="52.832"/></clipPath></defs><g transform="translate(-50 -2424.62)"><g transform="translate(50 2424.62)"><g class="b"><path class="c" d="M49.272,70.328A13.176,13.176,0,0,0,36.1,57.152H14.075A13.175,13.175,0,0,0,.9,70.328V78.27H49.272Z" transform="translate(-0.408 -25.93)"/><path class="d" d="M36.1,57.152H14.075A13.176,13.176,0,0,0,.9,70.328v3.338A13.176,13.176,0,0,1,14.075,60.489H36.1A13.176,13.176,0,0,1,49.272,73.666V70.328A13.176,13.176,0,0,0,36.1,57.152" transform="translate(-0.408 -25.93)"/><path class="e" d="M49.272,70.328A13.176,13.176,0,0,0,36.1,57.152H14.075A13.175,13.175,0,0,0,.9,70.328V78.27H49.272Z" transform="translate(-0.408 -25.93)"/><path class="f" d="M45.839,48.192a3.935,3.935,0,1,1-7.871,0v-2.67a3.935,3.935,0,0,1,7.871,0Z" transform="translate(-17.226 -18.868)"/><path class="e" d="M45.839,48.192a3.935,3.935,0,1,1-7.871,0v-2.67a3.935,3.935,0,0,1,7.871,0Z" transform="translate(-17.226 -18.868)"/><path class="f" d="M26.21,37.3a2.53,2.53,0,1,1-2.529-2.529A2.529,2.529,0,0,1,26.21,37.3" transform="translate(-9.596 -15.775)"/><path class="g" d="M26.21,37.3a2.53,2.53,0,1,1-2.529-2.529A2.529,2.529,0,0,1,26.21,37.3Z" transform="translate(-9.596 -15.775)"/><path class="f" d="M64.991,37.3a2.53,2.53,0,1,1-2.53-2.529,2.53,2.53,0,0,1,2.53,2.529" transform="translate(-27.191 -15.775)"/><path class="g" d="M64.991,37.3a2.53,2.53,0,1,1-2.53-2.529A2.53,2.53,0,0,1,64.991,37.3Z" transform="translate(-27.191 -15.775)"/><path class="f" d="M26.5,27.277v8.837a7.116,7.116,0,0,0,7.116,7.115h6.166A7.115,7.115,0,0,0,46.9,36.114V27.277Z" transform="translate(-12.024 -12.376)"/><path class="e" d="M26.5,27.277v8.837a7.116,7.116,0,0,0,7.116,7.115h6.166A7.115,7.115,0,0,0,46.9,36.114V27.277Z" transform="translate(-12.024 -12.376)"/><path class="h" d="M36.592,38.375a.978.978,0,0,1-1.957,0V37.237a.978.978,0,0,1,1.957,0Z" transform="translate(-15.714 -16.451)"/><path class="h" d="M54.082,38.375a.979.979,0,0,1-1.957,0V37.237a.979.979,0,0,1,1.957,0Z" transform="translate(-23.649 -16.451)"/><path class="i" d="M35.962,43.947a.863.863,0,0,1-.863.863H33.6a.863.863,0,0,1,0-1.726h1.5a.863.863,0,0,1,.863.863" transform="translate(-14.853 -19.547)"/><path class="i" d="M54.927,43.947a.863.863,0,0,1-.864.863h-1.5a.863.863,0,1,1,0-1.726h1.5a.863.863,0,0,1,.864.863" transform="translate(-23.458 -19.547)"/><path class="j" d="M41.805,45.354a1.935,1.935,0,0,0,3.678,0" transform="translate(-18.967 -20.577)"/><path class="k" d="M33.877,6.85a13.6,13.6,0,0,0-13.6,13.6V42.516h4.85v-20.8a45.037,45.037,0,0,0,17.5-3.772V42.516h4.851V20.449a13.6,13.6,0,0,0-13.6-13.6" transform="translate(-9.2 -3.108)"/><path class="e" d="M33.877,6.85a13.6,13.6,0,0,0-13.6,13.6V42.516h4.85v-20.8a45.037,45.037,0,0,0,17.5-3.772V42.516h4.851V20.449A13.6,13.6,0,0,0,33.877,6.85Z" transform="translate(-9.2 -3.108)"/><path class="l" d="M47.555.9H6.631A1.306,1.306,0,0,0,5.325,2.206V44.58a1.306,1.306,0,0,0,1.306,1.306H47.555a1.306,1.306,0,0,0,1.306-1.306V2.206A1.306,1.306,0,0,0,47.555.9m-1,42.683H7.629V8.768h38.93Z" transform="translate(-2.416 -0.408)"/><path class="e" d="M47.555.9H6.631A1.306,1.306,0,0,0,5.325,2.206V44.58a1.306,1.306,0,0,0,1.306,1.306H47.555a1.306,1.306,0,0,0,1.306-1.306V2.206A1.306,1.306,0,0,0,47.555.9Zm-1,42.683H7.629V8.768h38.93Z" transform="translate(-2.416 -0.408)"/><path class="m" d="M15.309,6.984A1.639,1.639,0,1,1,13.67,5.345a1.639,1.639,0,0,1,1.639,1.639" transform="translate(-5.458 -2.425)"/><path class="e" d="M1.639,0A1.639,1.639,0,1,1,0,1.639,1.639,1.639,0,0,1,1.639,0Z" transform="translate(6.573 2.92)"/></g></g></g></svg>