<svg xmlns="http://www.w3.org/2000/svg" xmlns:xlink="http://www.w3.org/1999/xlink" width="41.846" height="32.914" viewBox="0 0 41.846 32.914"><defs><style>.a,.d,.f{fill:none;}.a,.c,.e{stroke:#707070;}.b{clip-path:url(#a);}.c{fill:#58c4dd;}.c,.d,.e,.f{opacity:0.6;}.d,.f{stroke:#212121;}.d{stroke-linecap:round;}.e{fill:#5eea68;}</style><clipPath id="a"><rect class="a" width="41.846" height="32.914" transform="translate(0 0)"/></clipPath></defs><g transform="translate(-47.217 -886)"><g transform="translate(40.171 880.458)"><g class="b" transform="translate(7.046 5.542)"><path class="c" d="M24.283,7.759A6.257,6.257,0,1,1,18.026,1.5a6.257,6.257,0,0,1,6.257,6.258" transform="translate(-6.148 -0.784)"/><path class="d" d="M24.283,7.759A6.257,6.257,0,1,1,18.026,1.5,6.257,6.257,0,0,1,24.283,7.759Z" transform="translate(-6.148 -0.784)"/><path class="c" d="M18.411,34.224H6.912A5.412,5.412,0,0,0,1.5,39.635v10.44H23.823V39.635a5.412,5.412,0,0,0-5.412-5.411" transform="translate(-0.784 -17.878)"/><path class="d" d="M18.411,34.224H6.912A5.412,5.412,0,0,0,1.5,39.635v10.44H23.823V39.635A5.412,5.412,0,0,0,18.411,34.224Z" transform="translate(-0.784 -17.878)"/><path class="e" d="M62.157,7.759A6.257,6.257,0,1,1,55.9,1.5a6.257,6.257,0,0,1,6.257,6.258" transform="translate(-25.933 -0.784)"/><path class="f" d="M62.157,7.759A6.257,6.257,0,1,1,55.9,1.5,6.257,6.257,0,0,1,62.157,7.759Z" transform="translate(-25.933 -0.784)"/><path class="e" d="M56.285,34.224h-11.5a5.412,5.412,0,0,0-5.412,5.411v10.44H61.7V39.635a5.412,5.412,0,0,0-5.412-5.411" transform="translate(-20.568 -17.878)"/><path class="f" d="M56.285,34.224h-11.5a5.412,5.412,0,0,0-5.412,5.411v10.44H61.7V39.635A5.412,5.412,0,0,0,56.285,34.224Z" transform="translate(-20.568 -17.878)"/></g></g></g></svg>