<svg xmlns="http://www.w3.org/2000/svg" xmlns:xlink="http://www.w3.org/1999/xlink" width="180" height="180" viewBox="0 0 180 180"><defs><style>.a,.b,.f,.h,.l,.m,.n{fill:none;}.a,.d,.g{stroke:#707070;}.a,.d,.f,.g,.h,.m{stroke-width:2px;}.c,.g,.k{fill:#fff;}.c{stroke:#4ecc5f;}.d{fill:#7795c6;}.e{clip-path:url(#a);}.f,.n{stroke:#212121;}.f,.l,.m{stroke-linecap:round;stroke-linejoin:round;}.h,.l,.m{stroke:#000;}.i{clip-path:url(#b);}.j{fill:#ff6464;}.l,.n{stroke-width:3px;}.o{stroke:none;}</style><clipPath id="a"><rect class="a" width="98.428" height="92.389" transform="translate(0 0)"/></clipPath><clipPath id="b"><rect class="b" width="98.428" height="92.389" transform="translate(0 0)"/></clipPath></defs><g transform="translate(-640 -1601)"><g class="c" transform="translate(640 1601)"><circle class="o" cx="90" cy="90" r="90"/><circle class="b" cx="90" cy="90" r="89.5"/></g><g transform="translate(690 1644)"><path class="d" d="M56.522,15.5v5.29H12.875V15.5H1.5V90.889H67.9V15.5Z"/><g class="e"><path class="f" d="M56.522,15.5v5.29H12.875V15.5H1.5V90.889H67.9V15.5Z"/></g><rect class="g" width="49.469" height="54.759" transform="translate(9.965 28.459)"/><rect class="h" width="49.469" height="54.759" transform="translate(9.965 28.459)"/><path class="g" d="M26.626,37.719h0Z"/><line class="h" x2="22.092" transform="translate(26.627 37.719)"/><path class="g" d="M26.626,46.977h0Z"/><line class="h" x2="22.092" transform="translate(26.627 46.977)"/><path class="g" d="M26.626,56.235h0Z"/><line class="h" x2="22.092" transform="translate(26.627 56.234)"/><path class="g" d="M26.626,65.494h0Z"/><line class="h" x2="22.092" transform="translate(26.627 65.494)"/><path class="g" d="M20.678,37.719h0Z"/><line class="h" x2="3.112" transform="translate(20.679 37.719)"/><path class="g" d="M20.678,46.977h0Z"/><line class="h" x2="3.112" transform="translate(20.679 46.977)"/><path class="g" d="M20.678,56.235h0Z"/><line class="h" x2="3.112" transform="translate(20.679 56.234)"/><path class="g" d="M20.678,65.494h0Z"/><line class="h" x2="3.112" transform="translate(20.679 65.494)"/><g class="i"><path class="j" d="M44.486,11.264a9.787,9.787,0,0,0-19.574,0H12.875v9.523H56.522V11.264ZM34.7,12.949a2.833,2.833,0,1,1,2.832-2.833A2.833,2.833,0,0,1,34.7,12.949"/><path class="f" d="M44.486,11.264a9.787,9.787,0,0,0-19.574,0H12.875v9.523H56.522V11.264ZM34.7,12.949a2.833,2.833,0,1,1,2.832-2.833A2.833,2.833,0,0,1,34.7,12.949Z"/><path class="k" d="M37.465,77.035,49.84,74.867l-3.17-4.425L43.5,66.015Z"/><path class="l" d="M37.465,77.035,49.84,74.867l-3.17-4.425L43.5,66.015Z"/><rect class="k" width="9.581" height="10.887" transform="matrix(0.813, -0.582, 0.582, 0.813, 82.798, 37.871)"/><rect class="l" width="9.581" height="10.887" transform="matrix(0.813, -0.582, 0.582, 0.813, 82.798, 37.871)"/><path class="k" d="M89.139,46.72l3.3,4.605L74.378,64.256"/><path class="l" d="M89.139,46.72l3.3,4.605L74.378,64.256"/><rect class="k" width="4.355" height="10.887" transform="matrix(0.813, -0.583, 0.583, 0.813, 47.039, 63.482)"/><rect class="l" width="4.355" height="10.887" transform="matrix(0.813, -0.583, 0.583, 0.813, 47.039, 63.482)"/><rect class="k" width="4.354" height="10.888" transform="translate(43.5 66.016) rotate(-35.611)"/><rect class="l" width="4.354" height="10.888" transform="translate(43.5 66.016) rotate(-35.611)"/><rect class="k" width="4.354" height="10.887" transform="matrix(0.813, -0.582, 0.582, 0.813, 50.58, 60.946)"/><rect class="m" width="4.354" height="10.887" transform="matrix(0.813, -0.582, 0.582, 0.813, 50.58, 60.946)"/><path class="j" d="M82.8,37.871,68.236,48.3,54.121,58.409l6.339,8.853,7.087-5.077L89.139,46.72Z"/><path class="n" d="M82.8,37.871,68.236,48.3,54.121,58.409l6.339,8.853,7.087-5.077L89.139,46.72Z"/></g></g></g></svg>