<svg xmlns="http://www.w3.org/2000/svg" xmlns:xlink="http://www.w3.org/1999/xlink" width="180" height="180" viewBox="0 0 180 180"><defs><style>.a,.e,.g{fill:none;}.b,.d{fill:#fff;}.b{stroke:#4ecc5f;}.c{clip-path:url(#a);}.e,.g{stroke:#212121;stroke-width:3px;}.f{fill:#58c4dd;}.g{stroke-linecap:round;stroke-linejoin:round;}.h{stroke:none;}</style><clipPath id="a"><rect class="a" width="76.794" height="77.715"/></clipPath></defs><g transform="translate(-870 -1601)"><g class="b" transform="translate(870 1601)"><circle class="h" cx="90" cy="90" r="90"/><circle class="a" cx="90" cy="90" r="89.5"/></g><g transform="translate(923 1654.654)"><g class="c" transform="translate(0 0)"><path class="d" d="M19,42.469H14.53a11.9,11.9,0,1,1,0-23.8h5.877A20.454,20.454,0,0,1,57.958,11.14H60.17A15.65,15.65,0,0,1,69.6,39.287h-13.4" transform="translate(-0.343 -0.195)"/><path class="e" d="M19,42.469H14.53a11.9,11.9,0,1,1,0-23.8h5.877A20.454,20.454,0,0,1,57.958,11.14H60.17A15.65,15.65,0,0,1,69.6,39.287h-13.4" transform="translate(-0.343 -0.195)"/><path class="f" d="M55.365,51.977a16.13,16.13,0,1,1,0-22.809,16.126,16.126,0,0,1,0,22.809" transform="translate(-3.629 -3.187)"/><path class="g" d="M55.365,51.977a16.13,16.13,0,1,1,0-22.809A16.126,16.126,0,0,1,55.365,51.977Z" transform="translate(-3.629 -3.187)"/><line class="d" x1="9.063" y2="9.064" transform="translate(19.711 48.941)"/><line class="e" x1="9.063" y2="9.064" transform="translate(19.711 48.941)"/><path class="d" d="M7.512,84.4a.923.923,0,0,1-1.3,0L1.771,79.963a.921.921,0,0,1,0-1.305L16.838,63.591a.922.922,0,0,1,1.305,0l4.434,4.435a.922.922,0,0,1,0,1.3Z" transform="translate(-0.196 -8.257)"/><path class="e" d="M7.512,84.4a.923.923,0,0,1-1.3,0L1.771,79.963a.921.921,0,0,1,0-1.305L16.838,63.591a.922.922,0,0,1,1.305,0l4.434,4.435a.922.922,0,0,1,0,1.3Z" transform="translate(-0.196 -8.257)"/><path class="e" d="M37.614,35.9a9.5,9.5,0,0,1,13.427,0" transform="translate(-4.905 -4.318)"/><rect class="d" width="27.683" height="28.713" transform="translate(41.429 38.29)"/><rect class="e" width="27.683" height="28.713" transform="translate(41.429 38.29)"/><line class="d" x2="16.274" transform="translate(47.136 46.412)"/><line class="e" x2="16.274" transform="translate(47.136 46.412)"/><line class="d" x2="16.274" transform="translate(47.136 52.647)"/><line class="e" x2="16.274" transform="translate(47.136 52.647)"/><line class="d" x2="9.392" transform="translate(47.136 58.881)"/><line class="e" x2="9.392" transform="translate(47.136 58.881)"/><line class="d" x2="6.114" transform="translate(29.816 60.85)"/><line class="e" x2="6.114" transform="translate(29.816 60.85)"/><line class="d" x2="6.114" transform="translate(29.816 67.519)"/><line class="e" x2="6.114" transform="translate(29.816 67.519)"/><line class="d" x2="6.114" transform="translate(29.816 74.19)"/><line class="e" x2="6.114" transform="translate(29.816 74.19)"/></g></g></g></svg>