<svg xmlns="http://www.w3.org/2000/svg" xmlns:xlink="http://www.w3.org/1999/xlink" width="180" height="180" viewBox="0 0 180 180"><defs><style>.a,.e,.g{fill:none;}.b{fill:#fff;stroke:#4ecc5f;}.c{clip-path:url(#a);}.d{fill:#58c4dd;}.d,.f{stroke:#707070;}.d,.e,.f,.g{stroke-width:2px;opacity:0.6;}.e,.g{stroke:#212121;}.e{stroke-linecap:round;}.f{fill:#5eea68;}.h{stroke:none;}</style><clipPath id="a"><rect class="a" width="73.52" height="57.827" transform="translate(0 0)"/></clipPath></defs><g transform="translate(-410 -1601)"><g class="b" transform="translate(410 1601)"><circle class="h" cx="90" cy="90" r="90"/><circle class="a" cx="90" cy="90" r="89.5"/></g><g transform="translate(455 1659)"><g class="c" transform="translate(7.046 5.542)"><path class="d" d="M33.755,12.5A10.993,10.993,0,1,1,22.763,1.5,10.994,10.994,0,0,1,33.755,12.5" transform="translate(-1.893 -0.242)"/><path class="e" d="M33.755,12.5A10.993,10.993,0,1,1,22.763,1.5,10.994,10.994,0,0,1,33.755,12.5Z" transform="translate(-1.893 -0.242)"/><path class="d" d="M31.212,34.224h-20.2A9.509,9.509,0,0,0,1.5,43.732V62.074H40.721V43.732a9.509,9.509,0,0,0-9.509-9.508" transform="translate(-0.241 -5.505)"/><path class="e" d="M31.212,34.224h-20.2A9.509,9.509,0,0,0,1.5,43.732V62.074H40.721V43.732A9.509,9.509,0,0,0,31.212,34.224Z" transform="translate(-0.241 -5.505)"/><path class="f" d="M71.629,12.5A10.993,10.993,0,1,1,60.637,1.5,10.994,10.994,0,0,1,71.629,12.5" transform="translate(-7.985 -0.242)"/><path class="g" d="M71.629,12.5A10.993,10.993,0,1,1,60.637,1.5,10.994,10.994,0,0,1,71.629,12.5Z" transform="translate(-7.985 -0.242)"/><path class="f" d="M69.085,34.224h-20.2a9.509,9.509,0,0,0-9.509,9.508V62.074H78.595V43.732a9.509,9.509,0,0,0-9.509-9.508" transform="translate(-6.333 -5.505)"/><path class="g" d="M69.085,34.224h-20.2a9.509,9.509,0,0,0-9.509,9.508V62.074H78.595V43.732A9.509,9.509,0,0,0,69.085,34.224Z" transform="translate(-6.333 -5.505)"/></g></g></g></svg>