<svg xmlns="http://www.w3.org/2000/svg" xmlns:xlink="http://www.w3.org/1999/xlink" width="42.496" height="52.37" viewBox="0 0 42.496 52.37"><defs><style>.a,.d,.f{fill:none;}.a,.c,.e,.g{stroke:#707070;}.b{clip-path:url(#a);}.c{fill:#ffd3b6;}.d,.f{stroke:#212121;stroke-linejoin:round;}.d{stroke-linecap:round;}.e{fill:#fff;}.g{fill:#ff6464;}</style><clipPath id="a"><rect class="a" width="42.496" height="52.37" transform="translate(0 0)"/></clipPath></defs><g class="b"><path class="c" d="M2.953,66.566V48.628s4.106-5.909,8.069-6.268,10.3,7.2,10.3,7.2V59A4.706,4.706,0,0,1,19.019,63.4v4.971Z" transform="translate(-1.477 -21.174)"/><path class="d" d="M2.953,66.566V48.628s4.106-5.909,8.069-6.268,10.3,7.2,10.3,7.2V59A4.706,4.706,0,0,1,19.019,63.4v4.971Z" transform="translate(-1.477 -21.174)"/><path class="e" d="M40.191,1.5H23.284L16.009,8.775V34.384a2.853,2.853,0,0,0,2.853,2.854H40.19a2.853,2.853,0,0,0,2.854-2.854V4.353A2.853,2.853,0,0,0,40.191,1.5" transform="translate(-8.005 -0.75)"/><line class="f" y1="3.502" transform="translate(35.039 13.113)"/><path class="f" d="M43.044,11.861V4.353A2.852,2.852,0,0,0,40.191,1.5H23.285L21.466,3.319,19.647,5.138,17.828,6.957,16.009,8.775V34.384a2.851,2.851,0,0,0,2.853,2.854H40.191a2.851,2.851,0,0,0,2.854-2.853V19.369" transform="translate(-8.005 -0.75)"/><path class="e" d="M27.208,6.636v5.351h-5.35" transform="translate(-10.929 -3.318)"/><path class="f" d="M27.208,6.636v5.351h-5.35" transform="translate(-10.929 -3.318)"/><line class="f" x2="15.194" transform="translate(13.925 14.589)"/><line class="f" x2="15.194" transform="translate(13.925 19.795)"/><line class="f" x2="11.56" transform="translate(13.925 25.003)"/><path class="c" d="M15.294,68.471a3.247,3.247,0,0,1-3.411,3.054,3.073,3.073,0,1,1,0-6.109,3.248,3.248,0,0,1,3.411,3.055" transform="translate(-4.236 -32.708)"/><path class="c" d="M10.508,55.068l9.775-8.961s1.936-1.528,3.157.407-.815,4.684-.815,4.684l-4.582,4.888s2.443,1.528.917,6.924" transform="translate(-5.254 -22.767)"/><path class="d" d="M10.508,55.068l9.775-8.961s1.936-1.528,3.157.407-.815,4.684-.815,4.684l-4.582,4.888s2.443,1.528.917,6.924" transform="translate(-5.254 -22.767)"/><path class="g" d="M1.856,0H15.778a1.857,1.857,0,0,1,1.857,1.857V4.641A1.856,1.856,0,0,1,15.779,6.5H1.855A1.855,1.855,0,0,1,0,4.642V1.856A1.856,1.856,0,0,1,1.856,0Z" transform="translate(0.75 45.123)"/><path class="d" d="M1.856,0H15.778a1.857,1.857,0,0,1,1.857,1.857V4.641A1.856,1.856,0,0,1,15.779,6.5H1.855A1.855,1.855,0,0,1,0,4.642V1.856A1.856,1.856,0,0,1,1.856,0Z" transform="translate(0.75 45.123)"/><path class="g" d="M69.937,65.263l-6.777-7.1-6.777,7.1H59.35v7.874h7.618V65.263Z" transform="translate(-28.191 -29.08)"/><path class="d" d="M69.937,65.263l-6.777-7.1-6.777,7.1H59.35v7.874h7.618V65.263Z" transform="translate(-28.191 -29.08)"/></g></svg>