<svg xmlns="http://www.w3.org/2000/svg" xmlns:xlink="http://www.w3.org/1999/xlink" width="55.82" height="52.395" viewBox="0 0 55.82 52.395"><defs><style>.a,.d,.f,.h,.i{fill:none;}.a,.b,.e,.g{stroke:#707070;}.b{fill:#7795c6;}.c{clip-path:url(#a);}.d,.i{stroke:#212121;}.d,.h{stroke-linecap:round;stroke-linejoin:round;}.e{fill:#fff;}.f,.h{stroke:#000;}.g{fill:#ff6464;}</style><clipPath id="a"><rect class="a" width="55.82" height="52.395"/></clipPath></defs><g transform="translate(-48 -956)"><g transform="translate(48 956)"><path class="b" d="M32.7,15.5v3H7.951v-3H1.5V58.253H39.155V15.5Z" transform="translate(-0.649 -6.709)"/><g transform="translate(0 0)"><g class="c"><path class="d" d="M32.7,15.5v3H7.951v-3H1.5V58.253H39.155V15.5Z" transform="translate(-0.649 -6.708)"/></g></g><rect class="e" width="28.055" height="31.055" transform="translate(5.651 16.139)"/><rect class="f" width="28.055" height="31.055" transform="translate(5.651 16.139)"/><path class="e" d="M26.626,37.719h0Z" transform="translate(-11.526 -16.328)"/><line class="f" x2="12.529" transform="translate(15.101 21.391)"/><path class="e" d="M26.626,46.977h0Z" transform="translate(-11.526 -20.336)"/><line class="f" x2="12.529" transform="translate(15.101 26.641)"/><path class="e" d="M26.626,56.235h0Z" transform="translate(-11.526 -24.343)"/><line class="f" x2="12.529" transform="translate(15.101 31.891)"/><path class="e" d="M26.626,65.494h0Z" transform="translate(-11.526 -28.351)"/><line class="f" x2="12.529" transform="translate(15.101 37.143)"/><path class="e" d="M20.678,37.719h0Z" transform="translate(-8.951 -16.328)"/><line class="f" x2="1.765" transform="translate(11.727 21.391)"/><path class="e" d="M20.678,46.977h0Z" transform="translate(-8.951 -20.336)"/><line class="f" x2="1.765" transform="translate(11.727 26.641)"/><path class="e" d="M20.678,56.235h0Z" transform="translate(-8.951 -24.343)"/><line class="f" x2="1.765" transform="translate(11.727 31.891)"/><path class="e" d="M20.678,65.494h0Z" transform="translate(-8.951 -28.351)"/><line class="f" x2="1.765" transform="translate(11.727 37.143)"/><g transform="translate(0 0)"><g class="c"><path class="g" d="M30.8,7.037a5.55,5.55,0,0,0-11.1,0H12.875v5.4H37.628v-5.4Zm-5.55.956a1.606,1.606,0,1,1,1.606-1.607,1.607,1.607,0,0,1-1.606,1.607" transform="translate(-5.573 -0.649)"/><path class="d" d="M30.8,7.037a5.55,5.55,0,0,0-11.1,0H12.875v5.4H37.628v-5.4Zm-5.55.956a1.606,1.606,0,1,1,1.606-1.607A1.607,1.607,0,0,1,25.252,7.993Z" transform="translate(-5.573 -0.649)"/><path class="e" d="M37.465,72.265l7.018-1.23-1.8-2.509-1.8-2.511Z" transform="translate(-16.218 -28.577)"/><path class="h" d="M37.465,72.265l7.018-1.23-1.8-2.509-1.8-2.511Z" transform="translate(-16.218 -28.577)"/><rect class="e" width="5.433" height="6.174" transform="matrix(0.813, -0.582, 0.582, 0.813, 46.956, 21.478)"/><rect class="h" width="5.433" height="6.174" transform="matrix(0.813, -0.582, 0.582, 0.813, 46.956, 21.478)"/><path class="e" d="M82.749,46.72l1.869,2.612-10.24,7.333" transform="translate(-32.197 -20.224)"/><path class="h" d="M82.749,46.72l1.869,2.612-10.24,7.333" transform="translate(-32.197 -20.224)"/><rect class="e" width="2.47" height="6.174" transform="matrix(0.813, -0.583, 0.583, 0.813, 26.677, 36.002)"/><rect class="h" width="2.47" height="6.174" transform="matrix(0.813, -0.583, 0.583, 0.813, 26.677, 36.002)"/><rect class="e" width="2.469" height="6.175" transform="translate(24.67 37.439) rotate(-35.611)"/><rect class="h" width="2.469" height="6.175" transform="translate(24.67 37.439) rotate(-35.611)"/><rect class="e" width="2.469" height="6.174" transform="matrix(0.813, -0.582, 0.582, 0.813, 28.685, 34.563)"/><rect class="h" width="2.469" height="6.174" transform="matrix(0.813, -0.582, 0.582, 0.813, 28.685, 34.563)"/><path class="g" d="M70.384,37.871l-8.258,5.916-8,5.732,3.595,5.021,4.019-2.879L73.98,42.89Z" transform="translate(-23.428 -16.394)"/><path class="i" d="M70.384,37.871l-8.258,5.916-8,5.732,3.595,5.021,4.019-2.879L73.98,42.89Z" transform="translate(-23.428 -16.394)"/></g></g></g></g></svg>