<svg xmlns="http://www.w3.org/2000/svg" xmlns:xlink="http://www.w3.org/1999/xlink" width="180" height="180" viewBox="0 0 180 180"><defs><style>.a,.e,.g{fill:none;}.b,.f{fill:#fff;}.b{stroke:#4ecc5f;}.c{clip-path:url(#a);}.d{fill:#ffd3b6;}.e,.g{stroke:#212121;stroke-linejoin:round;stroke-width:3px;}.e{stroke-linecap:round;}.h{fill:#ff6464;}.i{stroke:none;}</style><clipPath id="a"><rect class="a" width="84.992" height="104.74" transform="translate(0 0)"/></clipPath></defs><g transform="translate(-1330 -1601)"><g class="b" transform="translate(1330 1601)"><circle class="i" cx="90" cy="90" r="90"/><circle class="a" cx="90" cy="90" r="89.5"/></g><g transform="translate(1380 1641)"><g class="c"><path class="d" d="M2.953,90.785V54.908S11.166,43.09,19.092,42.372,39.7,56.78,39.7,56.78V75.657a9.412,9.412,0,0,1-4.612,8.788v9.942Z"/><path class="e" d="M2.953,90.785V54.908S11.166,43.09,19.092,42.372,39.7,56.78,39.7,56.78V75.657a9.412,9.412,0,0,1-4.612,8.788v9.942Z"/><path class="f" d="M64.373,1.5H30.56L16.009,16.051V67.269a5.707,5.707,0,0,0,5.707,5.707H64.372a5.707,5.707,0,0,0,5.707-5.707V7.207A5.706,5.706,0,0,0,64.373,1.5"/><line class="g" y1="7.005" x2="0.001" transform="translate(70.079 26.227)"/><path class="g" d="M70.079,22.222V7.206A5.7,5.7,0,0,0,64.373,1.5H30.561L26.923,5.139,23.285,8.776l-3.638,3.638-3.638,3.637V67.269a5.7,5.7,0,0,0,5.707,5.707H64.373a5.7,5.7,0,0,0,5.707-5.706V37.238"/><path class="f" d="M32.559,6.636v10.7h-10.7"/><path class="g" d="M32.559,6.636v10.7h-10.7"/><line class="g" x2="30.388" transform="translate(27.85 29.178)"/><line class="g" x2="30.388" transform="translate(27.85 39.591)"/><line class="g" x2="23.121" transform="translate(27.85 50.006)"/><path class="d" d="M22.117,71.526c0,3.374-3.054,6.109-6.822,6.109S8.472,74.9,8.472,71.527s3.055-6.111,6.822-6.111,6.822,2.735,6.823,6.11"/><path class="d" d="M10.508,64.6,30.059,46.68s3.871-3.055,6.314.814-1.629,9.369-1.629,9.369l-9.165,9.775s4.887,3.057,1.833,13.849"/><path class="e" d="M10.508,64.6,30.059,46.68s3.871-3.055,6.314.814-1.629,9.369-1.629,9.369l-9.165,9.775s4.887,3.057,1.833,13.849"/><path class="h" d="M1.856,0H33.414a1.857,1.857,0,0,1,1.857,1.857v9.281a1.856,1.856,0,0,1-1.856,1.856H1.855A1.855,1.855,0,0,1,0,11.139V1.856A1.856,1.856,0,0,1,1.856,0Z" transform="translate(1.5 90.246)"/><path class="e" d="M1.856,0H33.414a1.857,1.857,0,0,1,1.857,1.857v9.281a1.856,1.856,0,0,1-1.856,1.856H1.855A1.855,1.855,0,0,1,0,11.139V1.856A1.856,1.856,0,0,1,1.856,0Z" transform="translate(1.5 90.246)"/><path class="h" d="M83.492,72.367,69.937,58.159,56.382,72.367h5.937V88.115H77.555V72.367Z"/><path class="e" d="M83.492,72.367,69.937,58.159,56.382,72.367h5.937V88.115H77.555V72.367Z"/></g></g></g></svg>