<svg xmlns="http://www.w3.org/2000/svg" xmlns:xlink="http://www.w3.org/1999/xlink" width="50.2" height="50.802" viewBox="0 0 50.2 50.802"><defs><style>.a,.d,.f{fill:none;}.a,.c,.e{stroke:#707070;}.b{clip-path:url(#a);}.c{fill:#fff;}.d,.f{stroke:#212121;}.e{fill:#58c4dd;}.f{stroke-linecap:round;stroke-linejoin:round;}</style><clipPath id="a"><rect class="a" width="50.2" height="50.802"/></clipPath></defs><g transform="translate(-45.771 -1037.531)"><g class="b" transform="translate(45.771 1037.531)"><path class="c" d="M13.329,28.281h-2.92a7.778,7.778,0,1,1,0-15.555h3.842A13.371,13.371,0,0,1,38.8,7.8h1.446a10.23,10.23,0,0,1,6.167,18.4H37.654" transform="translate(-1.135 -0.647)"/><path class="d" d="M13.329,28.281h-2.92a7.778,7.778,0,1,1,0-15.555h3.842A13.371,13.371,0,0,1,38.8,7.8h1.446a10.23,10.23,0,0,1,6.167,18.4H37.654" transform="translate(-1.135 -0.647)"/><path class="e" d="M45.829,42.443a10.544,10.544,0,1,1,0-14.91,10.542,10.542,0,0,1,0,14.91" transform="translate(-12.009 -10.549)"/><path class="f" d="M45.829,42.443a10.544,10.544,0,1,1,0-14.91A10.542,10.542,0,0,1,45.829,42.443Z" transform="translate(-12.009 -10.549)"/><line class="c" x1="5.924" y2="5.925" transform="translate(12.885 31.992)"/><line class="d" x1="5.924" y2="5.925" transform="translate(12.885 31.992)"/><path class="c" d="M5.43,77.1a.6.6,0,0,1-.853,0l-2.9-2.9a.6.6,0,0,1,0-.853L11.526,63.5a.6.6,0,0,1,.853,0l2.9,2.9a.6.6,0,0,1,0,.852Z" transform="translate(-0.647 -27.326)"/><path class="d" d="M5.43,77.1a.6.6,0,0,1-.853,0l-2.9-2.9a.6.6,0,0,1,0-.853L11.526,63.5a.6.6,0,0,1,.853,0l2.9,2.9a.6.6,0,0,1,0,.852Z" transform="translate(-0.647 -27.326)"/><path class="d" d="M37.614,34.936a6.207,6.207,0,0,1,8.777,0" transform="translate(-16.232 -14.292)"/><rect class="c" width="18.096" height="18.77" transform="translate(27.082 25.03)"/><rect class="d" width="18.096" height="18.77" transform="translate(27.082 25.03)"/><line class="c" x2="10.638" transform="translate(30.812 30.339)"/><line class="d" x2="10.638" transform="translate(30.812 30.339)"/><line class="c" x2="10.638" transform="translate(30.812 34.415)"/><line class="d" x2="10.638" transform="translate(30.812 34.415)"/><line class="c" x2="6.139" transform="translate(30.812 38.49)"/><line class="d" x2="6.139" transform="translate(30.812 38.49)"/><line class="c" x2="3.997" transform="translate(19.49 39.777)"/><line class="d" x2="3.997" transform="translate(19.49 39.777)"/><line class="c" x2="3.997" transform="translate(19.49 44.137)"/><line class="d" x2="3.997" transform="translate(19.49 44.137)"/><line class="c" x2="3.997" transform="translate(19.49 48.498)"/><line class="d" x2="3.997" transform="translate(19.49 48.498)"/></g></g></svg>