<svg xmlns="http://www.w3.org/2000/svg" xmlns:xlink="http://www.w3.org/1999/xlink" width="180" height="180" viewBox="0 0 180 180"><defs><style>.a,.e{fill:none;}.b,.d{fill:#fff;}.b{stroke:#4ecc5f;}.c{clip-path:url(#a);}.e{stroke:#212121;stroke-width:3px;}.f{stroke:none;}</style><clipPath id="a"><rect class="a" width="65.141" height="97.544" transform="translate(0 0)"/></clipPath></defs><g transform="translate(-1100 -1601)"><g class="b" transform="translate(1100 1601)"><circle class="f" cx="90" cy="90" r="90"/><circle class="a" cx="90" cy="90" r="89.5"/></g><g transform="translate(1149 1636)"><g class="c"><path class="d" d="M24.64,50.682V76.543a19.5,19.5,0,1,0,39,0V50.682Z"/><path class="e" d="M24.64,50.682V76.543a19.5,19.5,0,1,0,39,0V50.682Z"/><path class="d" d="M32.938,32.979a8.3,8.3,0,0,0-8.3,8.3v9.4h19.5v-17.7Z"/><path class="e" d="M32.938,32.979a8.3,8.3,0,0,0-8.3,8.3v9.4h19.5v-17.7Z"/><path class="d" d="M63.641,41.277a8.3,8.3,0,0,0-8.3-8.3H44.14v17.7h19.5Z"/><path class="e" d="M63.641,41.277a8.3,8.3,0,0,0-8.3-8.3H44.14v17.7h19.5Z"/><line class="d" y2="3.596" transform="translate(33.768 55.937)"/><line class="e" y2="3.596" transform="translate(33.768 55.937)"/><line class="d" y2="3.596" transform="translate(40.683 55.937)"/><line class="e" y2="3.596" transform="translate(40.683 55.937)"/><line class="d" y2="3.596" transform="translate(47.598 55.937)"/><line class="e" y2="3.596" transform="translate(47.598 55.937)"/><line class="d" y2="3.596" transform="translate(54.513 55.937)"/><line class="e" y2="3.596" transform="translate(54.513 55.937)"/><path class="e" d="M44.14,32.979V27.171a4.16,4.16,0,0,1,4.149-4.149h6.272a4.161,4.161,0,0,0,4.148-4.149V0"/><line class="e" x2="6" transform="translate(0 44.051)"/><line class="e" x2="6" transform="translate(0 57.55)"/><line class="e" x2="6" transform="translate(0 71.049)"/></g></g></g></svg>