<svg xmlns="http://www.w3.org/2000/svg" xmlns:xlink="http://www.w3.org/1999/xlink" width="36.561" height="54.747" viewBox="0 0 36.561 54.747"><defs><style>.a,.d{fill:none;}.a,.c{stroke:#707070;}.b{clip-path:url(#a);}.c{fill:#fff;}.d{stroke:#212121;}</style><clipPath id="a"><rect class="a" width="36.561" height="54.747" transform="translate(0 0)"/></clipPath></defs><g transform="translate(-42.58 -1114.228)"><g class="b" transform="translate(42.58 1114.228)"><path class="c" d="M24.64,50.682V65.2a10.945,10.945,0,1,0,21.89,0V50.682Z" transform="translate(-10.811 -22.236)"/><path class="d" d="M24.64,50.682V65.2a10.945,10.945,0,1,0,21.89,0V50.682Z" transform="translate(-10.811 -22.236)"/><path class="c" d="M29.3,32.979a4.657,4.657,0,0,0-4.658,4.658v5.278H35.583V32.979Z" transform="translate(-10.81 -14.469)"/><path class="d" d="M29.3,32.979a4.657,4.657,0,0,0-4.658,4.658v5.278H35.583V32.979Z" transform="translate(-10.81 -14.469)"/><path class="c" d="M55.085,37.636a4.657,4.657,0,0,0-4.657-4.658H44.14v9.936H55.085Z" transform="translate(-19.366 -14.469)"/><path class="d" d="M55.085,37.636a4.657,4.657,0,0,0-4.657-4.658H44.14v9.936H55.085Z" transform="translate(-19.366 -14.469)"/><line class="c" y2="2.018" transform="translate(18.952 31.395)"/><line class="d" y2="2.018" transform="translate(18.952 31.395)"/><line class="c" y2="2.018" transform="translate(22.833 31.395)"/><line class="d" y2="2.018" transform="translate(22.833 31.395)"/><line class="c" y2="2.018" transform="translate(26.715 31.395)"/><line class="d" y2="2.018" transform="translate(26.715 31.395)"/><line class="c" y2="2.018" transform="translate(30.596 31.395)"/><line class="d" y2="2.018" transform="translate(30.596 31.395)"/><path class="d" d="M44.14,18.51V15.25a2.335,2.335,0,0,1,2.329-2.329h3.52a2.335,2.335,0,0,0,2.328-2.329V0" transform="translate(-19.366 0)"/><line class="d" x2="3.368" transform="translate(0 24.724)"/><line class="d" x2="3.368" transform="translate(0 32.3)"/><line class="d" x2="3.368" transform="translate(0 39.877)"/></g></g></svg>