<svg xmlns="http://www.w3.org/2000/svg" xmlns:xlink="http://www.w3.org/1999/xlink" width="425.397" height="63.517" viewBox="0 0 425.397 63.517"><defs><clipPath id="a"><rect width="278" height="63.517" fill="none"/></clipPath><clipPath id="b"><rect width="119.398" height="44.23" fill="none"/></clipPath><clipPath id="c"><path d="M75.61,7.8A7.657,7.657,0,0,0,74,7.985a3.393,3.393,0,0,0-1.654.928,3.493,3.493,0,0,0-1.065,1.773,9.627,9.627,0,0,0-.21,1.91c0,.283.01.593.036.91a4.569,4.569,0,0,0,.138.974,5.775,5.775,0,0,0,.307.983,3.459,3.459,0,0,0,.537.874,2.744,2.744,0,0,0,.654.626c.249.175.486.318.713.446a3.407,3.407,0,0,0,.616.274c.163.064.292.108.382.138l7.824,2.463a3.5,3.5,0,0,1,1.035.472,2.069,2.069,0,0,1,.585.564,1.713,1.713,0,0,1,.252.611,3.525,3.525,0,0,1,.056.6c0,.163-.02.372-.036.62a1.9,1.9,0,0,1-.237.707,1.465,1.465,0,0,1-.555.583,1.851,1.851,0,0,1-1.047.247h-11v2.974h12.2a7.514,7.514,0,0,0,1.894-.228,3.061,3.061,0,0,0,1.657-1.194,4.029,4.029,0,0,0,.807-1.772,10.669,10.669,0,0,0,.194-1.918c0-.219-.031-.5-.056-.829a5.2,5.2,0,0,0-.175-.991,4.008,4.008,0,0,0-.381-1.056,3.219,3.219,0,0,0-.7-.945,4.614,4.614,0,0,0-1.149-.776,12.514,12.514,0,0,0-1.7-.644l-7.258-2.3a2.57,2.57,0,0,1-1.509-.991,2.471,2.471,0,0,1-.326-1.258,3.985,3.985,0,0,1,.069-.726,1.363,1.363,0,0,1,.437-.8,1.388,1.388,0,0,1,.757-.371,3.981,3.981,0,0,1,.809-.073H87.037V7.8Z" transform="translate(-71.071 -7.804)" fill="none"/></clipPath><clipPath id="e"><path d="M26.218,8.505a2.5,2.5,0,0,0-.811,1.992V27.891h3.631V13.308a.542.542,0,0,1,.145-.445.421.421,0,0,1,.254-.129c.036,0,.074.035.14.089a4.592,4.592,0,0,1,.308.393l8.368,13.227A3.116,3.116,0,0,0,39.724,27.8a4.66,4.66,0,0,0,1.731.328,3.44,3.44,0,0,0,2.091-.655,2.554,2.554,0,0,0,.865-2.163V8.033h-3.63V22.668a1.676,1.676,0,0,1-.045.3.247.247,0,0,1-.265.193.271.271,0,0,1-.272-.183,1.147,1.147,0,0,0-.19-.309L31.584,9.358a3.347,3.347,0,0,0-1.11-1.1A3.694,3.694,0,0,0,28.438,7.8a3.272,3.272,0,0,0-2.219.7" transform="translate(-25.407 -7.804)" fill="none"/></clipPath></defs><g transform="translate(-870 -180.713)"><g transform="translate(870 180.713)"><g transform="translate(0 0)" clip-path="url(#a)"><path d="M56.025,40.9l-1.666-3.368a17.43,17.43,0,0,1-.772-1.74l-.054.011c.045.542.064,1.176.073,1.766l.037,3.331H52.75V34.558h1.032l1.766,3.5a12.346,12.346,0,0,1,.626,1.518l.054-.018c-.018-.184-.091-1.187-.091-1.887l-.019-3.111h.855V40.9Z" transform="translate(31.531 20.657)" fill="#fff"/><path d="M58.43,38.023a1.589,1.589,0,0,0-1.2.331.891.891,0,0,0-.24.671c0,.506.259.8.729.8a1.152,1.152,0,0,0,.965-.609l.027-1.178c-.129-.01-.2-.018-.276-.018M59.47,40.5a1.045,1.045,0,0,1-.615-.661,1.606,1.606,0,0,1-1.307.607c-.922,0-1.491-.47-1.491-1.352,0-1.067.855-1.639,2.345-1.639.11,0,.2,0,.321.01v-.305c0-.542-.073-.909-.716-.909a2.534,2.534,0,0,0-1.417.526l-.387-.61a3.662,3.662,0,0,1,1.932-.607,1.276,1.276,0,0,1,1.334.738,2.11,2.11,0,0,1,.091.81c0,.331-.035,1.039-.035,1.711,0,.634.018.893.377,1.114Z" transform="translate(33.508 21.252)" fill="#fff"/><path d="M61.129,36.756h-.911v2.778c0,.574.137.746.6.746a1.03,1.03,0,0,0,.433-.093l.1.516a1.855,1.855,0,0,1-.839.193,1.277,1.277,0,0,1-.781-.23c-.192-.174-.34-.267-.34-.939V36.756h-.551v-.6h.551a9.878,9.878,0,0,1,.056-1.176l.874-.2c-.037.332-.083.911-.083,1.379h1.123Z" transform="translate(35.17 20.789)" fill="#fff"/><path d="M61.091,41.014V36.43l.874-.137v4.721Zm.431-5.421a.6.6,0,0,1-.588-.607.6.6,0,1,1,1.2,0,.615.615,0,0,1-.617.607" transform="translate(36.423 20.544)" fill="#fff"/><path d="M64.282,36.214c-.735,0-1.039.524-1.039,1.686,0,1.408.359,1.876,1.077,1.876.644,0,1.039-.5,1.039-1.7,0-1.427-.414-1.858-1.077-1.858m.019,4.215c-1.233,0-2-.939-2-2.438s.762-2.43,1.976-2.43c1.364,0,2.026,1.085,2.026,2.475,0,1.464-.781,2.393-2.007,2.393" transform="translate(37.243 21.257)" fill="#fff"/><path d="M68.255,40.3V37.192c0-.414-.037-.561-.149-.708a.567.567,0,0,0-.468-.184,1.857,1.857,0,0,0-1.142.591V40.3h-.837V36.872a2.534,2.534,0,0,0-.174-1.1l.8-.222a1.473,1.473,0,0,1,.157.709,4.237,4.237,0,0,1,.6-.451,1.7,1.7,0,0,1,.853-.228,1.152,1.152,0,0,1,1.088.652,1.478,1.478,0,0,1,.109.58V40.3Z" transform="translate(39.143 21.252)" fill="#fff"/><path d="M70.83,38.023a1.591,1.591,0,0,0-1.206.331.885.885,0,0,0-.24.671c0,.506.259.8.727.8a1.152,1.152,0,0,0,.967-.609l.027-1.178c-.129-.01-.2-.018-.275-.018M71.869,40.5a1.041,1.041,0,0,1-.615-.661,1.61,1.61,0,0,1-1.309.607c-.92,0-1.489-.47-1.489-1.352,0-1.067.855-1.639,2.345-1.639.11,0,.2,0,.321.01v-.305c0-.542-.073-.909-.716-.909a2.538,2.538,0,0,0-1.417.526l-.387-.61a3.657,3.657,0,0,1,1.932-.607,1.276,1.276,0,0,1,1.334.738,2.1,2.1,0,0,1,.093.81c0,.331-.037,1.039-.037,1.711,0,.634.018.893.377,1.114Z" transform="translate(40.919 21.252)" fill="#fff"/><path d="M72.489,41.142a.777.777,0,0,1-.716-.35,1.161,1.161,0,0,1-.176-.8V35.813a6.1,6.1,0,0,0-.1-1.323l.882-.185a5.6,5.6,0,0,1,.085,1.317v4.153c0,.484.026.594.12.679a.3.3,0,0,0,.284.066l.145.522a1.257,1.257,0,0,1-.524.1" transform="translate(42.737 20.506)" fill="#fff"/><path d="M76.638,35.4a2.128,2.128,0,0,0-.773-.12H75.2v2.21h.617a1.468,1.468,0,0,0,1.094-.305,1.167,1.167,0,0,0,.313-.855.971.971,0,0,0-.588-.93m.754,5.495c-.185-.359-.268-.508-.524-.939a8.5,8.5,0,0,0-1.1-1.582.71.71,0,0,0-.57-.284V40.9h-.884V34.558h1.777a2.063,2.063,0,0,1,1.5.46,1.745,1.745,0,0,1,.562,1.307,1.613,1.613,0,0,1-1.7,1.74,2.954,2.954,0,0,1,.553.588c.129.176.321.451.532.784.278.431.792,1.259.922,1.462Z" transform="translate(44.423 20.657)" fill="#fff"/><path d="M79.887,36.514a.831.831,0,0,0-.661-.321c-.644,0-.967.522-.967,1.361h1.914a1.683,1.683,0,0,0-.286-1.04M78.248,38.18v.11a1.751,1.751,0,0,0,.195.922,1.21,1.21,0,0,0,1.059.542,1.631,1.631,0,0,0,1.131-.443l.323.506a2.358,2.358,0,0,1-1.593.59c-1.28,0-2.061-.93-2.061-2.44a2.518,2.518,0,0,1,.553-1.785,1.721,1.721,0,0,1,1.388-.634,1.669,1.669,0,0,1,1.251.5,2.589,2.589,0,0,1,.562,1.989v.147Z" transform="translate(46.207 21.249)" fill="#fff"/><path d="M81.867,40.453a3.51,3.51,0,0,1-1.721-.487l.3-.607a3.151,3.151,0,0,0,1.481.459.763.763,0,0,0,.856-.745c0-.4-.24-.625-.773-.727l-.561-.112a1.235,1.235,0,0,1-1.123-1.278A1.488,1.488,0,0,1,82,35.521a2.94,2.94,0,0,1,1.454.377l-.286.6a2.5,2.5,0,0,0-1.131-.331.707.707,0,0,0-.8.692c0,.329.166.514.655.625l.6.137c.844.193,1.2.681,1.2,1.289a1.611,1.611,0,0,1-1.813,1.545" transform="translate(47.907 21.233)" fill="#fff"/><path d="M85.45,36.514a.834.834,0,0,0-.663-.321c-.644,0-.965.522-.965,1.361h1.914a1.693,1.693,0,0,0-.286-1.04M83.812,38.18v.11a1.736,1.736,0,0,0,.193.922,1.209,1.209,0,0,0,1.058.542,1.625,1.625,0,0,0,1.131-.443l.323.506a2.351,2.351,0,0,1-1.591.59c-1.28,0-2.061-.93-2.061-2.44a2.517,2.517,0,0,1,.551-1.785,1.724,1.724,0,0,1,1.39-.634,1.669,1.669,0,0,1,1.251.5,2.583,2.583,0,0,1,.562,1.989v.147Z" transform="translate(49.532 21.249)" fill="#fff"/><path d="M88.138,38.023a1.594,1.594,0,0,0-1.206.331.891.891,0,0,0-.24.671c0,.506.259.8.729.8a1.156,1.156,0,0,0,.967-.609l.027-1.178c-.131-.01-.2-.018-.276-.018M89.177,40.5a1.053,1.053,0,0,1-.615-.661,1.6,1.6,0,0,1-1.307.607c-.919,0-1.491-.47-1.491-1.352,0-1.067.855-1.639,2.347-1.639.109,0,.2,0,.321.01v-.305c0-.542-.073-.909-.717-.909a2.538,2.538,0,0,0-1.417.526l-.387-.61a3.667,3.667,0,0,1,1.932-.607,1.275,1.275,0,0,1,1.334.738,2.1,2.1,0,0,1,.093.81c0,.331-.035,1.039-.035,1.711,0,.634.016.893.375,1.114Z" transform="translate(51.265 21.252)" fill="#fff"/><path d="M90.987,36.442a.665.665,0,0,0-.238-.046.965.965,0,0,0-.957.939v2.973h-.848V36.921a2.913,2.913,0,0,0-.174-1.15l.82-.212a1.941,1.941,0,0,1,.155.709v.083a1.518,1.518,0,0,1,1.253-.8.792.792,0,0,1,.284.048Z" transform="translate(53.061 21.249)" fill="#fff"/><path d="M92.266,40.4a1.685,1.685,0,0,1-1.481-.689,2.782,2.782,0,0,1-.443-1.666,2.527,2.527,0,0,1,.775-2.034,1.8,1.8,0,0,1,2.446.019l-.441.58a1.123,1.123,0,0,0-.81-.36.891.891,0,0,0-.81.5,3.312,3.312,0,0,0-.219,1.411,1.889,1.889,0,0,0,.367,1.323.89.89,0,0,0,.661.28,1.3,1.3,0,0,0,.957-.481l.414.526a1.819,1.819,0,0,1-1.417.6" transform="translate(54.002 21.246)" fill="#fff"/><path d="M95.84,41.051V37.885a1.02,1.02,0,0,0-.157-.644.731.731,0,0,0-.507-.174,1.768,1.768,0,0,0-1.224.671v3.314H93.1v-5.6a4.087,4.087,0,0,0-.1-.967l.855-.176a4.663,4.663,0,0,1,.1,1.069V36.4c0,.165-.008.377-.027.617a3.274,3.274,0,0,1,.487-.379,1.793,1.793,0,0,1,1-.31,1.178,1.178,0,0,1,1.16.689,1.875,1.875,0,0,1,.091.745v3.287Z" transform="translate(55.589 20.505)" fill="#fff"/><path d="M99.849,41.035a2.407,2.407,0,0,1-1.968-.947,3.593,3.593,0,0,1-.69-2.264A4.065,4.065,0,0,1,97.6,35.94a2.556,2.556,0,0,1,2.282-1.457,2.488,2.488,0,0,1,1.556.5l-.433.578a1.792,1.792,0,0,0-1.123-.367,1.511,1.511,0,0,0-1.406.912,3.743,3.743,0,0,0-.305,1.7A3.617,3.617,0,0,0,98.4,39.3a1.612,1.612,0,0,0,1.555,1.031,1.744,1.744,0,0,0,1.168-.395l.435.578a2.877,2.877,0,0,1-1.713.524" transform="translate(58.095 20.612)" fill="#fff"/><path d="M102.318,36.214c-.737,0-1.04.524-1.04,1.686,0,1.408.359,1.876,1.077,1.876.642,0,1.04-.5,1.04-1.7,0-1.427-.412-1.858-1.077-1.858m.019,4.215c-1.233,0-2-.939-2-2.438s.764-2.43,1.978-2.43c1.363,0,2.024,1.085,2.024,2.475,0,1.464-.783,2.393-2.005,2.393" transform="translate(59.978 21.257)" fill="#fff"/><path d="M106.769,40.46a1.078,1.078,0,0,1-.431-.663,1.7,1.7,0,0,1-1.39.663,1.3,1.3,0,0,1-1.243-.689,2,2,0,0,1-.11-.773V35.721l.839-.166v3.21c0,.471.043.655.209.81a.848.848,0,0,0,.535.2,1.268,1.268,0,0,0,1.048-.729V35.739l.839-.165v3.469a1.256,1.256,0,0,0,.284.957Z" transform="translate(61.923 21.253)" fill="#fff"/><path d="M109.416,40.3V37.192c0-.414-.037-.561-.147-.708a.57.57,0,0,0-.47-.184,1.845,1.845,0,0,0-1.139.591V40.3h-.839V36.872a2.534,2.534,0,0,0-.174-1.1l.8-.222a1.474,1.474,0,0,1,.157.709,4.238,4.238,0,0,1,.6-.451,1.7,1.7,0,0,1,.856-.228,1.15,1.15,0,0,1,1.085.652,1.45,1.45,0,0,1,.112.58V40.3Z" transform="translate(63.748 21.252)" fill="#fff"/><path d="M111.554,40.4a1.687,1.687,0,0,1-1.481-.689,2.782,2.782,0,0,1-.443-1.666,2.532,2.532,0,0,1,.772-2.034,1.809,1.809,0,0,1,2.449.019l-.443.58a1.121,1.121,0,0,0-.81-.36.9.9,0,0,0-.81.5,3.308,3.308,0,0,0-.22,1.411,1.889,1.889,0,0,0,.369,1.323.892.892,0,0,0,.661.28,1.3,1.3,0,0,0,.959-.481l.414.526a1.825,1.825,0,0,1-1.417.6" transform="translate(65.531 21.246)" fill="#fff"/><path d="M112.29,41.014V36.43l.876-.137v4.721Zm.435-5.421a.6.6,0,0,1-.59-.607.6.6,0,1,1,1.2,0,.615.615,0,0,1-.615.607" transform="translate(67.028 20.544)" fill="#fff"/><path d="M114.632,41.142a.78.78,0,0,1-.717-.35,1.171,1.171,0,0,1-.174-.8V35.813a5.975,5.975,0,0,0-.1-1.323l.885-.185a5.811,5.811,0,0,1,.081,1.317v4.153c0,.484.027.594.12.679a.3.3,0,0,0,.286.066l.145.522a1.272,1.272,0,0,1-.524.1" transform="translate(67.927 20.506)" fill="#fff"/><path d="M118.214,36.214c-.738,0-1.04.524-1.04,1.686,0,1.408.359,1.876,1.077,1.876.642,0,1.04-.5,1.04-1.7,0-1.427-.415-1.858-1.077-1.858m.019,4.215c-1.235,0-2-.939-2-2.438s.764-2.43,1.98-2.43c1.361,0,2.024,1.085,2.024,2.475,0,1.464-.783,2.393-2.005,2.393" transform="translate(69.479 21.257)" fill="#fff"/><path d="M121.785,35.122a1.324,1.324,0,0,0-.6-.174c-.387,0-.617.265-.617.738v.743h1.224l-.22.6h-.994v4.012h-.856V37.029h-.443v-.6h.452c-.019-.093-.019-.661-.019-.737a1.33,1.33,0,0,1,.514-1.149,1.4,1.4,0,0,1,.839-.222,1.914,1.914,0,0,1,1,.248Z" transform="translate(71.3 20.516)" fill="#fff"/><path d="M124.2,41.06a3.886,3.886,0,0,1-2.044-.562l.351-.679a3.117,3.117,0,0,0,1.71.524c.828,0,1.371-.423,1.371-1.1,0-.516-.34-.874-1.048-1.077l-.663-.193c-.955-.275-1.5-.737-1.5-1.639a1.879,1.879,0,0,1,2.1-1.839,3.361,3.361,0,0,1,1.941.6l-.4.626a2.664,2.664,0,0,0-1.507-.5c-.711,0-1.15.369-1.15.955,0,.454.257.709.935.914l.746.217a1.873,1.873,0,0,1,1.548,1.788A2.128,2.128,0,0,1,124.2,41.06" transform="translate(73.018 20.616)" fill="#fff"/><path d="M127.42,40.4a1.694,1.694,0,0,1-1.483-.689,2.793,2.793,0,0,1-.441-1.666,2.522,2.522,0,0,1,.775-2.034,1.8,1.8,0,0,1,2.446.019l-.443.58a1.121,1.121,0,0,0-.81-.36.891.891,0,0,0-.808.5,3.283,3.283,0,0,0-.22,1.411,1.889,1.889,0,0,0,.367,1.323.892.892,0,0,0,.661.28,1.3,1.3,0,0,0,.959-.481l.414.526a1.825,1.825,0,0,1-1.417.6" transform="translate(75.015 21.246)" fill="#fff"/><path d="M128.271,41.014V36.43l.874-.137v4.721Zm.433-5.421a.6.6,0,0,1-.588-.607.6.6,0,1,1,1.2,0,.615.615,0,0,1-.617.607" transform="translate(76.581 20.544)" fill="#fff"/><path d="M132.074,36.514a.834.834,0,0,0-.663-.321c-.644,0-.967.522-.967,1.361h1.914a1.7,1.7,0,0,0-.284-1.04m-1.639,1.666v.11a1.751,1.751,0,0,0,.193.922,1.21,1.21,0,0,0,1.059.542,1.634,1.634,0,0,0,1.133-.443l.318.506a2.344,2.344,0,0,1-1.59.59c-1.28,0-2.061-.93-2.061-2.44a2.525,2.525,0,0,1,.551-1.785,1.726,1.726,0,0,1,1.39-.634,1.667,1.667,0,0,1,1.251.5,2.583,2.583,0,0,1,.562,1.989v.147Z" transform="translate(77.4 21.249)" fill="#fff"/><path d="M135.279,40.3V37.192c0-.414-.037-.561-.147-.708a.567.567,0,0,0-.468-.184,1.852,1.852,0,0,0-1.142.591V40.3h-.836V36.872a2.5,2.5,0,0,0-.177-1.1l.8-.222a1.473,1.473,0,0,1,.157.709,4.334,4.334,0,0,1,.6-.451,1.708,1.708,0,0,1,.855-.228,1.155,1.155,0,0,1,1.088.652,1.478,1.478,0,0,1,.11.58V40.3Z" transform="translate(79.207 21.252)" fill="#fff"/><path d="M137.417,40.4a1.69,1.69,0,0,1-1.483-.689,2.793,2.793,0,0,1-.441-1.666,2.522,2.522,0,0,1,.773-2.034,1.8,1.8,0,0,1,2.446.019l-.441.58a1.123,1.123,0,0,0-.808-.36.889.889,0,0,0-.81.5,3.259,3.259,0,0,0-.22,1.411,1.889,1.889,0,0,0,.369,1.323.887.887,0,0,0,.661.28,1.3,1.3,0,0,0,.955-.481l.415.526a1.823,1.823,0,0,1-1.417.6" transform="translate(80.991 21.246)" fill="#fff"/><path d="M140.6,36.514a.834.834,0,0,0-.663-.321c-.644,0-.967.522-.967,1.361h1.914a1.693,1.693,0,0,0-.284-1.04m-1.639,1.666v.11a1.752,1.752,0,0,0,.193.922,1.21,1.21,0,0,0,1.059.542,1.625,1.625,0,0,0,1.131-.443l.321.506a2.348,2.348,0,0,1-1.591.59c-1.278,0-2.061-.93-2.061-2.44a2.517,2.517,0,0,1,.553-1.785,1.725,1.725,0,0,1,1.392-.634,1.67,1.67,0,0,1,1.249.5,2.583,2.583,0,0,1,.561,1.989v.147Z" transform="translate(82.499 21.249)" fill="#fff"/><path d="M144.238,35.318a.737.737,0,0,0-.8.781c0,.379.283.738.754,1.112.569-.275.855-.614.855-1.074a.78.78,0,0,0-.81-.82m-.358,2.732a1.3,1.3,0,0,0-.812,1.179c0,.642.46,1.066,1.27,1.066a1.6,1.6,0,0,0,1.28-.532Zm2.769,2.734-.551-.543a2.4,2.4,0,0,1-1.786.69c-1.443,0-2.163-.737-2.163-1.711,0-.829.516-1.222,1.27-1.611a1.75,1.75,0,0,1-.864-1.417,1.538,1.538,0,0,1,1.674-1.473c.951,0,1.73.526,1.73,1.419,0,.762-.653,1.214-1.3,1.508l1.369,1.361a3.439,3.439,0,0,0,.176-1.241h.7a3.722,3.722,0,0,1-.312,1.813l1.2,1.2Z" transform="translate(84.969 20.753)" fill="#fff"/><path d="M150.841,35.295H149.2v5.6h-.876v-5.6h-1.647v-.737h4.26Z" transform="translate(87.674 20.657)" fill="#fff"/><path d="M151.794,36.514a.838.838,0,0,0-.665-.321c-.644,0-.965.522-.965,1.361h1.913a1.7,1.7,0,0,0-.283-1.04m-1.639,1.666v.11a1.768,1.768,0,0,0,.192.922,1.212,1.212,0,0,0,1.059.542,1.632,1.632,0,0,0,1.133-.443l.321.506a2.351,2.351,0,0,1-1.591.59c-1.28,0-2.063-.93-2.063-2.44a2.518,2.518,0,0,1,.553-1.785,1.725,1.725,0,0,1,1.392-.634,1.668,1.668,0,0,1,1.249.5,2.59,2.59,0,0,1,.562,1.989v.147Z" transform="translate(89.187 21.249)" fill="#fff"/><path d="M154.068,40.4a1.687,1.687,0,0,1-1.481-.689,2.793,2.793,0,0,1-.443-1.666,2.532,2.532,0,0,1,.773-2.034,1.807,1.807,0,0,1,2.448.019l-.439.58a1.134,1.134,0,0,0-.812-.36.891.891,0,0,0-.81.5,3.284,3.284,0,0,0-.221,1.411,1.889,1.889,0,0,0,.368,1.323.893.893,0,0,0,.663.28,1.3,1.3,0,0,0,.957-.481l.412.526a1.815,1.815,0,0,1-1.416.6" transform="translate(90.944 21.246)" fill="#fff"/><path d="M157.643,41.051V37.885a1.022,1.022,0,0,0-.155-.644.734.734,0,0,0-.506-.174,1.771,1.771,0,0,0-1.225.671v3.314H154.9v-5.6a3.988,3.988,0,0,0-.1-.967l.856-.176a4.756,4.756,0,0,1,.1,1.069V36.4c0,.165-.008.377-.027.617a3.357,3.357,0,0,1,.487-.379,1.8,1.8,0,0,1,1-.31,1.177,1.177,0,0,1,1.158.689,1.862,1.862,0,0,1,.094.745v3.287Z" transform="translate(92.531 20.505)" fill="#fff"/><path d="M160.667,40.3V37.192c0-.414-.038-.561-.149-.708a.563.563,0,0,0-.467-.184,1.845,1.845,0,0,0-1.142.591V40.3h-.837V36.872a2.534,2.534,0,0,0-.174-1.1l.8-.222a1.474,1.474,0,0,1,.157.709,4.331,4.331,0,0,1,.6-.451,1.711,1.711,0,0,1,.858-.228,1.152,1.152,0,0,1,1.085.652,1.478,1.478,0,0,1,.109.58V40.3Z" transform="translate(94.383 21.252)" fill="#fff"/><path d="M162.85,36.214c-.738,0-1.04.524-1.04,1.686,0,1.408.358,1.876,1.077,1.876.642,0,1.039-.5,1.039-1.7,0-1.427-.414-1.858-1.075-1.858m.018,4.215c-1.233,0-2-.939-2-2.438s.764-2.43,1.98-2.43c1.361,0,2.023,1.085,2.023,2.475,0,1.464-.781,2.393-2.005,2.393" transform="translate(96.16 21.257)" fill="#fff"/><path d="M165.078,41.142a.778.778,0,0,1-.717-.35,1.161,1.161,0,0,1-.176-.8V35.813a5.994,5.994,0,0,0-.1-1.323l.882-.185a5.7,5.7,0,0,1,.083,1.317v4.153c0,.484.029.594.12.679a.3.3,0,0,0,.286.066l.149.522a1.285,1.285,0,0,1-.526.1" transform="translate(98.081 20.506)" fill="#fff"/><path d="M167.444,36.214c-.737,0-1.039.524-1.039,1.686,0,1.408.358,1.876,1.075,1.876.644,0,1.042-.5,1.042-1.7,0-1.427-.415-1.858-1.078-1.858m.019,4.215c-1.233,0-2-.939-2-2.438s.765-2.43,1.98-2.43c1.363,0,2.024,1.085,2.024,2.475,0,1.464-.781,2.393-2.005,2.393" transform="translate(98.906 21.257)" fill="#fff"/><path d="M170.41,36.23c-.542,0-.836.294-.836.884a.842.842,0,1,0,1.682-.019c0-.588-.267-.864-.847-.864m1.85.12a1.072,1.072,0,0,1-.395-.075,1.3,1.3,0,0,1,.329.85,1.453,1.453,0,0,1-1.654,1.424c-.286.093-.729.305-.729.506,0,.137.112.23.332.23h.708c1.178,0,1.666.551,1.666,1.27,0,.994-.82,1.491-1.943,1.491-1.288,0-2.024-.451-2.024-1.216a1.355,1.355,0,0,1,.085-.47l.828-.046a.882.882,0,0,0-.083.352c0,.479.395.737,1.114.737.754,0,1.131-.305,1.131-.794,0-.439-.358-.7-1.27-.7a8.634,8.634,0,0,1-.866-.046c-.4-.043-.642-.275-.642-.615,0-.431.375-.618.9-.81a1.347,1.347,0,0,1-1.085-1.325,1.574,1.574,0,0,1,1.766-1.547,2.294,2.294,0,0,1,.719.1,2.537,2.537,0,0,0,.689.149,1.256,1.256,0,0,0,.754-.267l.433.526a1.144,1.144,0,0,1-.764.275" transform="translate(100.751 21.249)" fill="#fff"/><path d="M173.931,40.443a3.15,3.15,0,0,1-.784,1.419,2.048,2.048,0,0,1-.855.395l-.267-.551a1.407,1.407,0,0,0,.8-.526,2.614,2.614,0,0,0,.377-.9l-.332.048a13.17,13.17,0,0,0-.443-1.539l-1.021-3.026.856-.193.882,2.9c.085.284.2.775.268,1.086h.056c.073-.312.184-.725.313-1.141l.82-2.724h.938Z" transform="translate(102.459 21.26)" fill="#fff"/><path d="M78.761,27.245h3.223V24.937H78.761V18.119H75.65V40.074h2.373a48.588,48.588,0,0,0,.738-8.574Z" transform="translate(45.22 10.831)" fill="#fff"/><path d="M77.917,19.869a1.078,1.078,0,0,0-1.034-1.126H67.094v2.189h7.714a11.3,11.3,0,0,1-7.944,11.286v2.245c5.776-1.58,11.053-5.44,11.053-14.594" transform="translate(39.968 11.204)" fill="#fff"/><path d="M120.257,19.869a1.078,1.078,0,0,0-1.034-1.126h-9.789v2.189h7.717A11.3,11.3,0,0,1,109.2,32.218v2.245c5.779-1.58,11.055-5.44,11.055-14.594" transform="translate(65.275 11.204)" fill="#fff"/><path d="M91.934,29.94V19.869a1.081,1.081,0,0,0-1.039-1.126H80.81V20.93h8.014v9.01Z" transform="translate(48.304 11.204)" fill="#fff"/><path d="M165.6,28.924V19.711a1.078,1.078,0,0,0-1.035-1.123H149.937v2.187h12.554v8.149" transform="translate(89.624 11.111)" fill="#fff"/><path d="M52.75,23.087v2.187h8.567v3.347H55.052v2.187H67.6v6.3h2.374a21.674,21.674,0,0,0,.737-5.715V29.745a1.078,1.078,0,0,0-1.037-1.123H64.45V25.274h8.564V23.087Z" transform="translate(31.531 13.8)" fill="#fff"/><path d="M69.853,26.32V19.557a1.082,1.082,0,0,0-1.037-1.128H54.192v2.189h12.55v5.7" transform="translate(32.393 11.016)" fill="#fff"/><rect width="20.264" height="2.184" transform="translate(194.749 38.01)" fill="#fff"/><path d="M131.419,22.07c1.428,2.7,4.95,3.883,8.519,4.033V23.989c-4.256-.249-6.929-2.748-6.929-5.568v-.3h-3.18v.3c0,2.82-2.673,5.319-6.929,5.568V26.1c3.568-.15,7.089-1.336,8.519-4.033" transform="translate(73.463 10.831)" fill="#fff"/><path d="M123.332,29.668v3.611a1.931,1.931,0,0,0,1.841,2h14.051V33.239h-12.67V31.633h12.438V27.27a1.077,1.077,0,0,0-1.037-1.122H123.332v2.036h12.437v1.484Z" transform="translate(73.721 15.63)" fill="#fff"/><path d="M137.716,26.864v5.987a1.929,1.929,0,0,0,1.842,2h13.357V32.661h-12.09v-5.8Z" transform="translate(82.319 16.058)" fill="#fff"/><path d="M147.144,25.281h-5.356v2.312h5.356V34h3.108V18.119h-3.108V20.5h-5.356V22.81h5.356Z" transform="translate(84.753 10.83)" fill="#fff"/><path d="M141.83,20.417c1.7,0,2.764,1.617,2.764,3.6s-1.061,3.6-2.764,3.6-2.764-1.619-2.764-3.6,1.056-3.6,2.764-3.6m0,9.334a5.6,5.6,0,0,0,5.988-5.738c0-3.295-2.352-5.738-5.988-5.738s-5.987,2.443-5.987,5.738a5.6,5.6,0,0,0,5.987,5.738" transform="translate(81.2 10.925)" fill="#fff"/><path d="M107.221,24.5h3.221V22.191h-3.221V18.119h-3.108V30.7h3.108Z" transform="translate(62.233 10.831)" fill="#fff"/><path d="M101.349,22.272a2.571,2.571,0,0,1,2.534,2.874,2.552,2.552,0,1,1-5.065,0,2.57,2.57,0,0,1,2.531-2.874m-5.755,2.874c0,2.841,2.28,4.988,5.755,4.988s5.757-2.147,5.757-4.988a3.987,3.987,0,0,0-1.488-3.243h2.409V19.716h-5.042V17.805H99.716v1.911H94.672V21.9H97.08a4,4,0,0,0-1.486,3.243" transform="translate(56.59 10.643)" fill="#fff"/><rect width="3.128" height="2.903" transform="translate(203.315 39.517)" fill="#fff"/><path d="M95.086,40.074h2.369a48.588,48.588,0,0,0,.738-8.574v-4.1h3.224V25.092H98.193V18.119H95.086V33.048a12.632,12.632,0,0,1-4.148.6H86.813V27.1H83.681v6.543h-3.59V35.83H90.938a11.411,11.411,0,0,0,4.148-.689Z" transform="translate(47.874 10.831)" fill="#fff"/><path d="M108.637,34.94h2.369a21.63,21.63,0,0,0,.738-5.715V27.83a1.078,1.078,0,0,0-1.037-1.123H96.545v2.187h12.092Z" transform="translate(57.709 15.964)" fill="#fff"/><path d="M118.154,40.074h2.373a48.792,48.792,0,0,0,.735-8.574V18.119h-3.108Z" transform="translate(70.626 10.831)" fill="#fff"/><path d="M166.778,25.894c0-1.793.965-3.116,2.532-3.116s2.532,1.323,2.532,3.116-.967,3.117-2.532,3.117-2.532-1.326-2.532-3.117m11-7.588V33.235a12.561,12.561,0,0,1-4.143.6h-2.759V30.97a5.037,5.037,0,0,0,4.189-5.076,4.285,4.285,0,0,0-1.553-3.493h2.475V20.214h-5.042V17.806h-3.269v2.408H162.63V22.4H165.1a4.3,4.3,0,0,0-1.548,3.493,5.035,5.035,0,0,0,4.188,5.076v2.865h-5.279v2.184h11.171a11.423,11.423,0,0,0,4.143-.689v4.931h2.373a48.668,48.668,0,0,0,.737-8.574V18.306Z" transform="translate(97.112 10.644)" fill="#fff"/><path d="M159.455,35.956a21.587,21.587,0,0,0,.74-5.715V27.194h8.566V25.007H148.5v2.187h8.564v8.762Z" transform="translate(88.765 14.948)" fill="#fff"/><path d="M49.277,24.775V20.448H41.863V14.223H36.081v6.225H32.168v4.327h3.95v14.1c0,5.475,3.017,8.331,8.968,8.331a26.042,26.042,0,0,0,4.129-.451v-4.3c-3.472.5-5.648.128-6.672-1.128a3.677,3.677,0,0,1-.679-2.454v-14.1Z" transform="translate(19.228 8.502)" fill="#fff"/><path d="M16.824,43.5A33.42,33.42,0,0,0,26.132,45c5.343,0,11.285-.941,11.285-7.3,0-4.625-3.064-6.145-7.556-8.182-3.807-1.727-6.5-2.232-6.5-4.632,0-2.32,2.719-2.376,4.872-2.376a34.12,34.12,0,0,1,7.831,1.114V18.992a31.9,31.9,0,0,0-8.759-1.08c-4.394,0-9.508,1.2-9.916,6.164-.383,4.688,2.178,6.648,7.855,8.9,3.742,1.486,6.1,2.339,6.1,4.619,0,2.5-2.347,2.7-5.658,2.7a33.579,33.579,0,0,1-8.855-1.719Z" transform="translate(10.056 10.707)" fill="#fff"/><path d="M22.233,26.915c0-7.468-6.5-9.035-11.956-9.035A49.155,49.155,0,0,0,0,19.347V44.53H5.742v-21.4l.2-.042a22.574,22.574,0,0,1,4.718-.6c3.867,0,5.825,1.71,5.825,5.081V44.53h5.744Z" transform="translate(0 10.688)" fill="#fff"/><path d="M47.586,0a7.864,7.864,0,0,0-4.712,1.558,7.917,7.917,0,0,1,0,12.72A7.916,7.916,0,1,0,47.586,0" transform="translate(25.628 0)" fill="#fff"/><path d="M55.241,7.915a7.9,7.9,0,0,1,3.2-6.359A7.879,7.879,0,0,0,53.731,0H24.74a7.916,7.916,0,0,0,0,15.832H53.731a7.9,7.9,0,0,0,4.713-1.555,7.911,7.911,0,0,1-3.2-6.362" transform="translate(10.057 0)" fill="#fff"/></g></g><g transform="translate(1176 200.001)"><g transform="translate(0 -0.001)"><g clip-path="url(#b)"><path d="M20.321,37.749a2.018,2.018,0,0,1,.412-.757,1.934,1.934,0,0,1,.7-.5,2.384,2.384,0,0,1,.953-.181,2.6,2.6,0,0,1,.823.129,2.024,2.024,0,0,1,.67.371,1.723,1.723,0,0,1,.452.6,1.988,1.988,0,0,1,.166.838,2.116,2.116,0,0,1-.137.791,2.27,2.27,0,0,1-.366.614,3.084,3.084,0,0,1-.524.489q-.3.221-.609.419c-.211.127-.419.253-.629.376a5.1,5.1,0,0,0-.576.395,2.66,2.66,0,0,0-.448.452,1.3,1.3,0,0,0-.242.557h3.465v.713H20.024a3.6,3.6,0,0,1,.215-1.024,2.766,2.766,0,0,1,.424-.737,3.243,3.243,0,0,1,.581-.552c.216-.158.441-.307.677-.448q.426-.265.75-.488a3.447,3.447,0,0,0,.539-.453,1.661,1.661,0,0,0,.324-.5,1.629,1.629,0,0,0,.109-.618,1.174,1.174,0,0,0-.1-.5,1.229,1.229,0,0,0-.282-.387,1.207,1.207,0,0,0-.414-.247,1.466,1.466,0,0,0-.5-.085,1.163,1.163,0,0,0-.6.147,1.252,1.252,0,0,0-.414.386,1.572,1.572,0,0,0-.233.538,2.275,2.275,0,0,0-.062.606h-.81a2.684,2.684,0,0,1,.106-.953" transform="translate(0.561 1.018)" fill="#fff"/><path d="M26.694,37.136l-.362,1.942.02.02a1.285,1.285,0,0,1,.567-.367,2.111,2.111,0,0,1,.69-.118,2.487,2.487,0,0,1,.846.142,1.875,1.875,0,0,1,.7.434,2.087,2.087,0,0,1,.466.723,2.752,2.752,0,0,1,.172,1.015,2.378,2.378,0,0,1-.149.832,2.087,2.087,0,0,1-.441.72,2.159,2.159,0,0,1-.737.5,2.671,2.671,0,0,1-1.035.185,2.6,2.6,0,0,1-.822-.129,2.088,2.088,0,0,1-.681-.371,1.743,1.743,0,0,1-.467-.6,2,2,0,0,1-.181-.82h.809a1.28,1.28,0,0,0,.861,1.129,1.629,1.629,0,0,0,.557.09,1.518,1.518,0,0,0,.548-.1,1.289,1.289,0,0,0,.457-.3,1.461,1.461,0,0,0,.307-.5,1.937,1.937,0,0,0,.115-.7,1.657,1.657,0,0,0-.11-.614,1.463,1.463,0,0,0-.307-.485,1.411,1.411,0,0,0-.481-.319,1.65,1.65,0,0,0-.625-.114,1.413,1.413,0,0,0-.709.176,1.991,1.991,0,0,0-.546.462l-.7-.038.628-3.5h3.332v.713Z" transform="translate(0.708 1.021)" fill="#fff"/><path d="M37.513,37.231a2.11,2.11,0,0,0-1.233-.361,2.223,2.223,0,0,0-1.042.227,2.089,2.089,0,0,0-.714.615,2.68,2.68,0,0,0-.413.88,3.965,3.965,0,0,0-.133,1.028,4.432,4.432,0,0,0,.133,1.1,2.661,2.661,0,0,0,.413.9,2.043,2.043,0,0,0,.72.614,2.226,2.226,0,0,0,1.048.228,2.014,2.014,0,0,0,.795-.148,1.766,1.766,0,0,0,.6-.409,1.863,1.863,0,0,0,.395-.623,2.57,2.57,0,0,0,.172-.78h.9a3.086,3.086,0,0,1-.886,2,2.862,2.862,0,0,1-2.055.714,3.264,3.264,0,0,1-1.38-.271,2.7,2.7,0,0,1-.982-.747,3.2,3.2,0,0,1-.585-1.125,4.757,4.757,0,0,1-.2-1.388,4.52,4.52,0,0,1,.21-1.4,3.337,3.337,0,0,1,.614-1.138,2.862,2.862,0,0,1,1.008-.766,3.258,3.258,0,0,1,1.386-.281,3.481,3.481,0,0,1,1.008.143,2.708,2.708,0,0,1,.847.418,2.336,2.336,0,0,1,.619.69,2.528,2.528,0,0,1,.324.958h-.9a1.678,1.678,0,0,0-.671-1.087" transform="translate(0.927 1.012)" fill="#fff"/><path d="M39.916,38.331a3.394,3.394,0,0,1,.615-1.138,3,3,0,0,1,1.019-.791,3.57,3.57,0,0,1,2.837,0,3.019,3.019,0,0,1,1.018.791,3.392,3.392,0,0,1,.614,1.138,4.471,4.471,0,0,1,0,2.674,3.372,3.372,0,0,1-.614,1.138,2.971,2.971,0,0,1-1.018.786,3.616,3.616,0,0,1-2.837,0,2.955,2.955,0,0,1-1.019-.786A3.374,3.374,0,0,1,39.916,41a4.471,4.471,0,0,1,0-2.674m.834,2.351a2.755,2.755,0,0,0,.418.9,2.16,2.16,0,0,0,.733.643,2.466,2.466,0,0,0,2.133,0,2.147,2.147,0,0,0,.732-.643,2.755,2.755,0,0,0,.418-.9,3.911,3.911,0,0,0,0-2.027,2.746,2.746,0,0,0-.418-.9,2.149,2.149,0,0,0-.732-.644,2.485,2.485,0,0,0-2.133,0,2.162,2.162,0,0,0-.733.644,2.746,2.746,0,0,0-.418.9,3.911,3.911,0,0,0,0,2.027" transform="translate(1.113 1.012)" fill="#fff"/><path d="M51.669,36.266v5.51h-.02l-3.579-5.51H47.11v6.8h.856V37.608h.018l3.551,5.454h.991v-6.8Z" transform="translate(1.32 1.017)" fill="#fff"/><path d="M58.355,36.266v5.51h-.021l-3.578-5.51h-.962v6.8h.856V37.608h.02l3.552,5.454h.989v-6.8Z" transform="translate(1.507 1.017)" fill="#fff"/><path d="M60.489,36.266v6.8h4.722V42.3H61.394V39.949h3.53v-.761h-3.53V37.026h3.787v-.761Z" transform="translate(1.695 1.017)" fill="#fff"/><path d="M70.264,37.231a2.11,2.11,0,0,0-1.233-.361,2.231,2.231,0,0,0-1.043.227,2.085,2.085,0,0,0-.713.615,2.639,2.639,0,0,0-.413.88,3.965,3.965,0,0,0-.133,1.028,4.432,4.432,0,0,0,.133,1.1,2.623,2.623,0,0,0,.413.9,2.025,2.025,0,0,0,.72.614,2.226,2.226,0,0,0,1.048.228,2.008,2.008,0,0,0,.794-.148,1.77,1.77,0,0,0,.6-.409,1.863,1.863,0,0,0,.395-.623,2.633,2.633,0,0,0,.172-.78h.9a3.076,3.076,0,0,1-.885,2,2.862,2.862,0,0,1-2.055.714,3.284,3.284,0,0,1-1.382-.271,2.711,2.711,0,0,1-.98-.747,3.219,3.219,0,0,1-.586-1.125,4.792,4.792,0,0,1-.194-1.388,4.49,4.49,0,0,1,.21-1.4,3.37,3.37,0,0,1,.613-1.138,2.865,2.865,0,0,1,1.01-.766,3.255,3.255,0,0,1,1.386-.281,3.481,3.481,0,0,1,1.008.143,2.73,2.73,0,0,1,.847.418,2.35,2.35,0,0,1,.619.69,2.527,2.527,0,0,1,.323.958h-.9a1.686,1.686,0,0,0-.671-1.087" transform="translate(1.844 1.012)" fill="#fff"/><path d="M72.129,36.266v.761h2.266v6.036h.9V37.026h2.265v-.761Z" transform="translate(2.021 1.017)" fill="#fff"/><path d="M78.147,36.266v6.8h4.722V42.3H79.051V39.949h3.531v-.761H79.051V37.026H82.84v-.761Z" transform="translate(2.19 1.017)" fill="#fff"/><path d="M86.137,36.265a3.392,3.392,0,0,1,2.418.8A3.2,3.2,0,0,1,89.4,39.5a5.526,5.526,0,0,1-.19,1.519,2.812,2.812,0,0,1-.59,1.113,2.56,2.56,0,0,1-1.018.69,4.075,4.075,0,0,1-1.467.238H83.805v-6.8Zm.076,6.036c.1,0,.229-.008.38-.024a2.151,2.151,0,0,0,.486-.115,2.08,2.08,0,0,0,.509-.261,1.708,1.708,0,0,0,.452-.467,2.6,2.6,0,0,0,.329-.737,3.891,3.891,0,0,0,.129-1.072,4.515,4.515,0,0,0-.12-1.09,2.088,2.088,0,0,0-.39-.818,1.736,1.736,0,0,0-.7-.514,2.794,2.794,0,0,0-1.057-.176H84.709V42.3Z" transform="translate(2.348 1.017)" fill="#fff"/><path d="M71.325,27.662h12.2a7.52,7.52,0,0,0,1.894-.228,3.043,3.043,0,0,0,1.656-1.194,4.032,4.032,0,0,0,.808-1.771,10.665,10.665,0,0,0,.192-1.919c0-.218-.029-.5-.054-.828a5.166,5.166,0,0,0-.174-.991,3.953,3.953,0,0,0-.381-1.057,3.228,3.228,0,0,0-.7-.946,4.608,4.608,0,0,0-1.149-.773,12.28,12.28,0,0,0-1.7-.646l-7.259-2.3a2.569,2.569,0,0,1-1.508-.992,2.468,2.468,0,0,1-.329-1.257,4.031,4.031,0,0,1,.072-.726,1.356,1.356,0,0,1,.436-.8,1.385,1.385,0,0,1,.758-.372,4.128,4.128,0,0,1,.809-.074H87.036V7.805H75.609A7.611,7.611,0,0,0,74,7.985a3.4,3.4,0,0,0-1.656.927,3.515,3.515,0,0,0-1.065,1.774,9.71,9.71,0,0,0-.208,1.909c0,.283.009.594.035.912a4.56,4.56,0,0,0,.138.973,5.453,5.453,0,0,0,.308.982,3.342,3.342,0,0,0,.536.877,2.744,2.744,0,0,0,.655.625c.247.173.484.318.712.446a3.418,3.418,0,0,0,.616.272c.163.065.292.109.381.138l7.823,2.464a3.478,3.478,0,0,1,1.037.472,2.066,2.066,0,0,1,.584.565,1.677,1.677,0,0,1,.254.61,3.639,3.639,0,0,1,.054.6c0,.163-.02.372-.036.619a1.96,1.96,0,0,1-.236.709,1.485,1.485,0,0,1-.556.581,1.845,1.845,0,0,1-1.046.247H71.325Z" transform="translate(1.992 0.219)" fill="#fff"/><path d="M75.609,7.805A7.6,7.6,0,0,0,74,7.985a3.4,3.4,0,0,0-1.656.927,3.509,3.509,0,0,0-1.066,1.774,9.706,9.706,0,0,0-.209,1.909c0,.283.01.594.035.912a4.639,4.639,0,0,0,.139.973,5.532,5.532,0,0,0,.307.982,3.378,3.378,0,0,0,.537.876,2.764,2.764,0,0,0,.654.626c.248.173.486.318.712.446a3.425,3.425,0,0,0,.617.272c.163.065.292.109.381.138l7.824,2.464a3.483,3.483,0,0,1,1.036.472,2.052,2.052,0,0,1,.584.565,1.7,1.7,0,0,1,.255.61,3.738,3.738,0,0,1,.053.6c0,.162-.02.372-.036.619a1.943,1.943,0,0,1-.237.709,1.479,1.479,0,0,1-.554.581,1.853,1.853,0,0,1-1.048.247H71.325v2.975h12.2a7.506,7.506,0,0,0,1.893-.228,3.039,3.039,0,0,0,1.656-1.194,4.036,4.036,0,0,0,.81-1.771,10.777,10.777,0,0,0,.191-1.919c0-.218-.029-.5-.054-.828a5.175,5.175,0,0,0-.174-.992,4.008,4.008,0,0,0-.381-1.056,3.243,3.243,0,0,0-.7-.946,4.615,4.615,0,0,0-1.15-.773,12.07,12.07,0,0,0-1.7-.646l-7.257-2.3a2.561,2.561,0,0,1-1.509-.992,2.469,2.469,0,0,1-.328-1.257,4,4,0,0,1,.071-.725,1.357,1.357,0,0,1,.437-.8,1.379,1.379,0,0,1,.757-.372,4.058,4.058,0,0,1,.809-.074H87.036V7.805Z" transform="translate(1.992 0.219)" fill="#fff"/></g></g><g transform="translate(73.063 8.023)"><g clip-path="url(#c)"><rect width="17.001" height="19.857" transform="translate(0 0)" fill="#fff"/></g></g><g transform="translate(0 -0.001)"><g clip-path="url(#b)"><path d="M44.411,8.033H40.782V22.669a1.754,1.754,0,0,1-.045.3.247.247,0,0,1-.266.193.272.272,0,0,1-.272-.183,1.116,1.116,0,0,0-.19-.308L31.585,9.358a3.329,3.329,0,0,0-1.111-1.1,3.684,3.684,0,0,0-2.038-.452,3.261,3.261,0,0,0-2.217.7,2.5,2.5,0,0,0-.812,1.992V27.89h3.63V13.309a.541.541,0,0,1,.147-.446.42.42,0,0,1,.255-.129c.034,0,.073.035.137.089a4.135,4.135,0,0,1,.308.392l8.369,13.228A3.126,3.126,0,0,0,39.725,27.8a4.658,4.658,0,0,0,1.73.327,3.448,3.448,0,0,0,2.093-.655,2.554,2.554,0,0,0,.863-2.163Z" transform="translate(0.712 0.219)" fill="#3683c6"/><path d="M26.219,8.5a2.5,2.5,0,0,0-.812,1.993V27.889h3.629V13.308a.539.539,0,0,1,.148-.446.418.418,0,0,1,.253-.129c.036,0,.074.035.139.089a4.264,4.264,0,0,1,.306.393l8.37,13.227A3.136,3.136,0,0,0,39.725,27.8a4.67,4.67,0,0,0,1.73.326,3.431,3.431,0,0,0,2.091-.655,2.55,2.55,0,0,0,.864-2.162V8.032H40.781V22.668a1.851,1.851,0,0,1-.044.3.248.248,0,0,1-.267.192.272.272,0,0,1-.272-.183,1.128,1.128,0,0,0-.189-.308L31.584,9.357a3.332,3.332,0,0,0-1.11-1.1,3.684,3.684,0,0,0-2.039-.452,3.259,3.259,0,0,0-2.216.7" transform="translate(0.712 0.219)" fill="#fff"/></g></g><g transform="translate(26.119 8.023)"><g clip-path="url(#e)"><rect width="19.003" height="20.319" transform="translate(0 0)" fill="#fff"/></g></g><path d="M89.357,7.805v2.981h7.749V27.662h3.739V10.786h7.779V7.805Z" transform="translate(2.504 0.219)" fill="#fff"/><path d="M89.357,7.806v2.981h7.75V27.662h3.738V10.787h7.779V7.806Z" transform="translate(2.504 0.219)" fill="#fff"/><g transform="translate(0 -0.001)"><g clip-path="url(#b)"><path d="M63.163,27.887V24.912H52.557a4.881,4.881,0,0,1-.782-.045.88.88,0,0,1-.49-.217A.925.925,0,0,1,51,23.883V19.236h11.77V16.253H51V12.259a2.852,2.852,0,0,1,.038-.49.841.841,0,0,1,.272-.484,1.128,1.128,0,0,1,.5-.235,3.288,3.288,0,0,1,.53-.037H63.054V8.031H50.327a7.351,7.351,0,0,0-1.235.108,1.945,1.945,0,0,0-1.157.655,2.711,2.711,0,0,0-.49.918,3.553,3.553,0,0,0-.2,1.155V24.929a7.234,7.234,0,0,0,.118,1.21,2.027,2.027,0,0,0,.628,1.121,1.751,1.751,0,0,0,1.057.555,8.571,8.571,0,0,0,1.219.073Z" transform="translate(1.324 0.226)" fill="#fff"/><path d="M6.376,10.484a1.749,1.749,0,0,0,.951.373,1.88,1.88,0,0,0,.347-.006,1.764,1.764,0,1,0-1.3-.367" transform="translate(0.16 0.206)" fill="#fff"/><path d="M3.806,13.093a1.774,1.774,0,0,0,.3.049,1.773,1.773,0,1,0-.3-.049" transform="translate(0.069 0.27)" fill="#fff"/><path d="M1.2,16.224a1.763,1.763,0,0,0,.877.318,1.8,1.8,0,0,0,.439-.021,1.76,1.76,0,1,0-1.316-.3" transform="translate(0.013 0.366)" fill="#fff"/><path d="M3.492,19.056a1.762,1.762,0,0,0-3.456-.688,1.757,1.757,0,0,0,1.384,2.07,1.8,1.8,0,0,0,.208.029,1.762,1.762,0,0,0,1.865-1.411" transform="translate(0 0.476)" fill="#fff"/><path d="M2.555,20.768a1.76,1.76,0,0,0,.251,3.473,1.778,1.778,0,0,0,.526-.038,1.761,1.761,0,1,0-.777-3.435" transform="translate(0.033 0.581)" fill="#fff"/><path d="M5.81,23.709a1.761,1.761,0,1,0-.5,3.486l.116.013a1.761,1.761,0,0,0,.388-3.5" transform="translate(0.106 0.664)" fill="#fff"/><path d="M10.015,25.566a1.767,1.767,0,0,0-2.4.675,1.763,1.763,0,0,0,1.4,2.616,1.77,1.77,0,0,0,1.678-.9,1.761,1.761,0,0,0-.676-2.4" transform="translate(0.207 0.711)" fill="#fff"/><path d="M13.25,25.392a1.762,1.762,0,0,0-.294,3.511l.019,0a1.77,1.77,0,0,0,1.894-1.6,1.762,1.762,0,0,0-1.618-1.917" transform="translate(0.318 0.712)" fill="#fff"/><path d="M16.18,23.915a1.761,1.761,0,1,0,2.235,1.1,1.75,1.75,0,0,0-2.235-1.1" transform="translate(0.42 0.668)" fill="#fff"/><path d="M18.23,21.382a1.763,1.763,0,1,0,2.492.1,1.756,1.756,0,0,0-2.492-.1" transform="translate(0.495 0.587)" fill="#fff"/><path d="M22.329,18.279a1.758,1.758,0,1,0-.016,1.348,1.752,1.752,0,0,0,.016-1.348" transform="translate(0.53 0.482)" fill="#fff"/><path d="M18.562,15.02a1.763,1.763,0,0,0,1.621,1.732c.054,0,.111.006.164.005a1.766,1.766,0,0,0,1.741-1.783,1.768,1.768,0,0,0-.535-1.239,1.763,1.763,0,0,0-2.993,1.284" transform="translate(0.52 0.371)" fill="#fff"/><path d="M17.774,13.2a1.8,1.8,0,0,0,.473.1,1.765,1.765,0,0,0,.876-.158,1.764,1.764,0,1,0-1.349.053" transform="translate(0.466 0.275)" fill="#fff"/><path d="M14.047,10.515a1.747,1.747,0,0,0,1.023.431,1.777,1.777,0,0,0,1.465-.593,1.764,1.764,0,1,0-2.488.162" transform="translate(0.377 0.209)" fill="#fff"/><path d="M10.825,10A1.759,1.759,0,1,0,9.664,7.8,1.762,1.762,0,0,0,10.825,10" transform="translate(0.269 0.184)" fill="#fff"/><path d="M9.682,12.027a1.623,1.623,0,1,0,1.623-1.622,1.624,1.624,0,0,0-1.623,1.622" transform="translate(0.271 0.292)" fill="#fff"/><path d="M6.978,11.757a1.621,1.621,0,0,0,.7,2.914,1.674,1.674,0,0,0,.257.02,1.621,1.621,0,0,0,1.309-2.575,1.624,1.624,0,0,0-2.266-.359" transform="translate(0.177 0.321)" fill="#fff"/><path d="M4.273,15.393a1.623,1.623,0,0,0,1.042,2.044,1.671,1.671,0,0,0,.5.078A1.624,1.624,0,0,0,7.36,16.394a1.623,1.623,0,0,0-3.087-1" transform="translate(0.117 0.401)" fill="#fff"/><path d="M5.765,21.04a1.627,1.627,0,0,0,1.447-.885,1.623,1.623,0,1,0-1.447.885" transform="translate(0.116 0.499)" fill="#fff"/><path d="M9.115,23.253a1.624,1.624,0,0,0-.36-2.266,1.628,1.628,0,0,0-2.268.359A1.624,1.624,0,0,0,7.8,23.922a1.676,1.676,0,0,0,.257-.021,1.618,1.618,0,0,0,1.06-.649" transform="translate(0.173 0.58)" fill="#fff"/><path d="M11.144,21.815a1.622,1.622,0,1,0,1.624,1.622,1.624,1.624,0,0,0-1.624-1.622" transform="translate(0.267 0.612)" fill="#fff"/><path d="M14.771,20.793a1.624,1.624,0,1,0,1.06.649,1.616,1.616,0,0,0-1.06-.649" transform="translate(0.361 0.583)" fill="#fff"/><path d="M17.134,18.029a1.62,1.62,0,1,0,1.043,2.043,1.625,1.625,0,0,0-1.043-2.043" transform="translate(0.421 0.504)" fill="#fff"/><path d="M15.236,15.309a1.621,1.621,0,0,0,1.447,2.357,1.578,1.578,0,0,0,.5-.079,1.622,1.622,0,1,0-1.948-2.278" transform="translate(0.422 0.405)" fill="#fff"/><path d="M15.6,11.852a1.622,1.622,0,1,0-.957,2.933,1.631,1.631,0,0,0,1.316-.667,1.622,1.622,0,0,0-.359-2.266" transform="translate(0.365 0.324)" fill="#fff"/></g></g></g></g></svg>