<svg xmlns="http://www.w3.org/2000/svg" xmlns:xlink="http://www.w3.org/1999/xlink" width="165.312" height="61.238" viewBox="0 0 165.312 61.238"><defs><clipPath id="a"><rect width="165.312" height="61.238" fill="none"/></clipPath><clipPath id="b"><path d="M77.355,7.8a10.6,10.6,0,0,0-2.229.251,4.7,4.7,0,0,0-2.29,1.285A4.837,4.837,0,0,0,71.361,11.8a13.33,13.33,0,0,0-.29,2.645c0,.391.014.821.05,1.26a6.326,6.326,0,0,0,.191,1.348,8,8,0,0,0,.426,1.361,4.789,4.789,0,0,0,.743,1.21,3.8,3.8,0,0,0,.905.867c.344.242.673.44.988.618a4.717,4.717,0,0,0,.853.38c.226.088.4.149.529.191l10.833,3.41a4.848,4.848,0,0,1,1.433.653,2.865,2.865,0,0,1,.81.781,2.372,2.372,0,0,1,.349.845,4.882,4.882,0,0,1,.077.831c0,.226-.027.515-.05.858a2.634,2.634,0,0,1-.329.979,2.029,2.029,0,0,1-.769.807,2.562,2.562,0,0,1-1.449.342H71.424V35.3H88.311a10.4,10.4,0,0,0,2.622-.316,4.238,4.238,0,0,0,2.294-1.653,5.579,5.579,0,0,0,1.117-2.454,14.771,14.771,0,0,0,.269-2.656c0-.3-.043-.693-.077-1.147a7.2,7.2,0,0,0-.242-1.372,5.549,5.549,0,0,0-.528-1.462,4.456,4.456,0,0,0-.968-1.308,6.389,6.389,0,0,0-1.591-1.075,17.325,17.325,0,0,0-2.354-.891L78.8,17.78a3.558,3.558,0,0,1-2.089-1.372,3.421,3.421,0,0,1-.451-1.742,5.517,5.517,0,0,1,.1-1,1.887,1.887,0,0,1,.6-1.112,1.921,1.921,0,0,1,1.048-.514,5.512,5.512,0,0,1,1.12-.1H93.177V7.8Z" transform="translate(-71.071 -7.804)" fill="none"/></clipPath><clipPath id="d"><path d="M26.53,8.775a3.464,3.464,0,0,0-1.123,2.758V35.615h5.027V15.425a.75.75,0,0,1,.2-.616.583.583,0,0,1,.352-.178c.05,0,.1.048.194.124a6.358,6.358,0,0,1,.427.544L43.193,33.611a4.314,4.314,0,0,0,2.037,1.875,6.452,6.452,0,0,0,2.4.454,4.763,4.763,0,0,0,2.9-.907,3.536,3.536,0,0,0,1.2-2.995V8.121H46.693V28.384a2.321,2.321,0,0,1-.063.414.342.342,0,0,1-.367.268.375.375,0,0,1-.377-.253,1.588,1.588,0,0,0-.263-.428L33.96,9.956A4.634,4.634,0,0,0,32.423,8.43,5.114,5.114,0,0,0,29.6,7.8a4.53,4.53,0,0,0-3.073.971" transform="translate(-25.407 -7.804)" fill="none"/></clipPath></defs><g transform="translate(0 0)"><g clip-path="url(#a)"><path d="M20.435,38.3a2.794,2.794,0,0,1,.571-1.048,2.678,2.678,0,0,1,.969-.692,3.3,3.3,0,0,1,1.319-.251,3.6,3.6,0,0,1,1.14.178,2.8,2.8,0,0,1,.928.514,2.385,2.385,0,0,1,.626.837A2.753,2.753,0,0,1,26.218,39a2.93,2.93,0,0,1-.189,1.095,3.143,3.143,0,0,1-.507.85,4.271,4.271,0,0,1-.726.678q-.41.305-.843.581c-.292.176-.581.35-.871.521a7.054,7.054,0,0,0-.8.547,3.683,3.683,0,0,0-.621.626,1.8,1.8,0,0,0-.334.771h4.8v.988h-6.1a4.988,4.988,0,0,1,.3-1.418,3.829,3.829,0,0,1,.586-1.021,4.49,4.49,0,0,1,.8-.764c.3-.219.611-.426.938-.621q.589-.367,1.039-.676a4.772,4.772,0,0,0,.746-.628,2.3,2.3,0,0,0,.448-.686,2.256,2.256,0,0,0,.151-.855,1.626,1.626,0,0,0-.145-.692,1.7,1.7,0,0,0-.39-.535,1.671,1.671,0,0,0-.574-.342,2.03,2.03,0,0,0-.7-.118,1.61,1.61,0,0,0-.834.2,1.734,1.734,0,0,0-.574.534,2.176,2.176,0,0,0-.323.744,3.15,3.15,0,0,0-.085.838H20.289a3.716,3.716,0,0,1,.147-1.319" transform="translate(8.477 15.373)" fill="#fff"/><path d="M27.239,37.411l-.5,2.689.027.027a1.779,1.779,0,0,1,.786-.508,2.923,2.923,0,0,1,.955-.164,3.443,3.443,0,0,1,1.171.2,2.6,2.6,0,0,1,.964.6,2.89,2.89,0,0,1,.645,1,3.811,3.811,0,0,1,.238,1.4,3.292,3.292,0,0,1-.206,1.151,2.89,2.89,0,0,1-.611,1,2.989,2.989,0,0,1-1.021.692,3.7,3.7,0,0,1-1.433.256,3.6,3.6,0,0,1-1.139-.178,2.891,2.891,0,0,1-.942-.514,2.413,2.413,0,0,1-.646-.836,2.762,2.762,0,0,1-.251-1.136H26.4a1.773,1.773,0,0,0,1.193,1.563,2.255,2.255,0,0,0,.771.125,2.1,2.1,0,0,0,.759-.138,1.785,1.785,0,0,0,.633-.414,2.023,2.023,0,0,0,.426-.693,2.681,2.681,0,0,0,.159-.969,2.3,2.3,0,0,0-.152-.85,2.025,2.025,0,0,0-.426-.672,1.953,1.953,0,0,0-.666-.441,2.285,2.285,0,0,0-.865-.158,1.956,1.956,0,0,0-.982.243,2.756,2.756,0,0,0-.756.639l-.964-.053.87-4.849h4.613v.988Z" transform="translate(10.7 15.42)" fill="#fff"/><path d="M39.22,37.662a2.922,2.922,0,0,0-1.707-.5,3.078,3.078,0,0,0-1.443.315,2.892,2.892,0,0,0-.989.851,3.711,3.711,0,0,0-.572,1.218,5.489,5.489,0,0,0-.184,1.423,6.136,6.136,0,0,0,.184,1.524,3.685,3.685,0,0,0,.572,1.251,2.829,2.829,0,0,0,1,.85,3.082,3.082,0,0,0,1.45.316,2.788,2.788,0,0,0,1.1-.2,2.445,2.445,0,0,0,.83-.566A2.579,2.579,0,0,0,40,43.277a3.559,3.559,0,0,0,.238-1.08h1.253a4.273,4.273,0,0,1-1.227,2.767,3.962,3.962,0,0,1-2.845.989,4.52,4.52,0,0,1-1.91-.376,3.74,3.74,0,0,1-1.359-1.035,4.431,4.431,0,0,1-.81-1.557,6.586,6.586,0,0,1-.27-1.922,6.259,6.259,0,0,1,.29-1.931,4.62,4.62,0,0,1,.85-1.576,3.962,3.962,0,0,1,1.4-1.06,4.511,4.511,0,0,1,1.919-.389,4.82,4.82,0,0,1,1.4.2,3.749,3.749,0,0,1,1.173.579,3.234,3.234,0,0,1,.857.955,3.5,3.5,0,0,1,.448,1.327H40.15a2.324,2.324,0,0,0-.929-1.5" transform="translate(14.001 15.287)" fill="#fff"/><path d="M39.994,39.185a4.7,4.7,0,0,1,.851-1.576,4.158,4.158,0,0,1,1.411-1.095,4.942,4.942,0,0,1,3.928,0,4.18,4.18,0,0,1,1.409,1.095,4.7,4.7,0,0,1,.85,1.576,6.19,6.19,0,0,1,0,3.7,4.669,4.669,0,0,1-.85,1.576,4.113,4.113,0,0,1-1.409,1.089,5.007,5.007,0,0,1-3.928,0,4.091,4.091,0,0,1-1.411-1.089,4.672,4.672,0,0,1-.851-1.576,6.19,6.19,0,0,1,0-3.7m1.154,3.255a3.815,3.815,0,0,0,.579,1.245,2.99,2.99,0,0,0,1.015.89,3.414,3.414,0,0,0,2.953,0,2.972,2.972,0,0,0,1.013-.89,3.815,3.815,0,0,0,.579-1.245,5.415,5.415,0,0,0,0-2.807,3.8,3.8,0,0,0-.579-1.245A2.976,2.976,0,0,0,45.7,37.5a3.44,3.44,0,0,0-2.953,0,2.994,2.994,0,0,0-1.015.891,3.8,3.8,0,0,0-.579,1.245,5.415,5.415,0,0,0,0,2.807" transform="translate(16.812 15.287)" fill="#fff"/><path d="M53.422,36.266v7.629H53.4l-4.955-7.629H47.11v9.41H48.3V38.125h.026l4.916,7.551H54.61v-9.41Z" transform="translate(19.944 15.354)" fill="#fff"/><path d="M60.108,36.266v7.629H60.08l-4.953-7.629H53.794v9.41H54.98V38.125h.027l4.918,7.551h1.369v-9.41Z" transform="translate(22.774 15.354)" fill="#fff"/><path d="M60.489,36.266v9.41h6.537V44.621H61.742V41.365H66.63V40.312H61.742V37.319h5.244V36.266Z" transform="translate(25.608 15.354)" fill="#fff"/><path d="M71.971,37.662a2.922,2.922,0,0,0-1.707-.5,3.088,3.088,0,0,0-1.445.315,2.887,2.887,0,0,0-.988.851,3.654,3.654,0,0,0-.572,1.218,5.49,5.49,0,0,0-.184,1.423,6.137,6.137,0,0,0,.184,1.524,3.631,3.631,0,0,0,.572,1.251,2.8,2.8,0,0,0,1,.85,3.082,3.082,0,0,0,1.45.316,2.781,2.781,0,0,0,1.1-.2,2.451,2.451,0,0,0,.831-.566,2.579,2.579,0,0,0,.547-.863,3.646,3.646,0,0,0,.238-1.08h1.251a4.258,4.258,0,0,1-1.226,2.767,3.962,3.962,0,0,1-2.845.989,4.547,4.547,0,0,1-1.913-.376A3.753,3.753,0,0,1,66.9,44.543a4.457,4.457,0,0,1-.811-1.557,6.635,6.635,0,0,1-.269-1.922,6.216,6.216,0,0,1,.29-1.931,4.667,4.667,0,0,1,.848-1.576,3.968,3.968,0,0,1,1.4-1.06,4.507,4.507,0,0,1,1.919-.389,4.82,4.82,0,0,1,1.4.2,3.78,3.78,0,0,1,1.173.579,3.254,3.254,0,0,1,.857.955,3.5,3.5,0,0,1,.447,1.327H72.9a2.335,2.335,0,0,0-.929-1.5" transform="translate(27.866 15.287)" fill="#fff"/><path d="M72.129,36.266v1.053h3.137v8.356h1.251V37.319h3.136V36.266Z" transform="translate(30.536 15.354)" fill="#fff"/><path d="M78.147,36.266v9.41h6.537V44.621H79.4V41.365h4.889V40.312H79.4V37.319h5.246V36.266Z" transform="translate(33.084 15.354)" fill="#fff"/><path d="M87.033,36.265a4.7,4.7,0,0,1,3.348,1.107,4.43,4.43,0,0,1,1.173,3.373,7.651,7.651,0,0,1-.263,2.1,3.893,3.893,0,0,1-.817,1.541,3.545,3.545,0,0,1-1.409.955,5.642,5.642,0,0,1-2.031.33H83.8V36.265Zm.105,8.356c.141,0,.317-.011.527-.033a2.978,2.978,0,0,0,.673-.159,2.88,2.88,0,0,0,.7-.362,2.366,2.366,0,0,0,.626-.646,3.593,3.593,0,0,0,.455-1.021,5.386,5.386,0,0,0,.178-1.485,6.251,6.251,0,0,0-.167-1.509,2.891,2.891,0,0,0-.539-1.133,2.4,2.4,0,0,0-.968-.712,3.869,3.869,0,0,0-1.463-.243H85.056v7.3Z" transform="translate(35.479 15.354)" fill="#fff"/><path d="M71.422,35.3H88.31a10.412,10.412,0,0,0,2.622-.316,4.213,4.213,0,0,0,2.293-1.653,5.583,5.583,0,0,0,1.119-2.452,14.767,14.767,0,0,0,.266-2.657c0-.3-.04-.692-.075-1.146a7.152,7.152,0,0,0-.241-1.372,5.473,5.473,0,0,0-.528-1.463A4.469,4.469,0,0,0,92.8,22.93a6.381,6.381,0,0,0-1.591-1.07,17,17,0,0,0-2.354-.894L78.8,17.78a3.557,3.557,0,0,1-2.088-1.374,3.416,3.416,0,0,1-.455-1.741,5.582,5.582,0,0,1,.1-1,1.877,1.877,0,0,1,.6-1.11,1.918,1.918,0,0,1,1.049-.515,5.716,5.716,0,0,1,1.12-.1H93.175V7.8H77.353a10.538,10.538,0,0,0-2.226.249,4.707,4.707,0,0,0-2.293,1.284,4.866,4.866,0,0,0-1.475,2.457,13.444,13.444,0,0,0-.288,2.643c0,.391.013.823.048,1.263a6.313,6.313,0,0,0,.191,1.346,7.55,7.55,0,0,0,.427,1.359,4.627,4.627,0,0,0,.742,1.214,3.8,3.8,0,0,0,.907.865c.342.239.67.44.986.618a4.732,4.732,0,0,0,.853.377c.226.09.4.151.528.191l10.832,3.412a4.815,4.815,0,0,1,1.436.653,2.861,2.861,0,0,1,.808.783,2.322,2.322,0,0,1,.352.844,5.038,5.038,0,0,1,.075.831c0,.226-.027.515-.05.857a2.714,2.714,0,0,1-.327.982,2.056,2.056,0,0,1-.77.8,2.555,2.555,0,0,1-1.448.342H71.422Z" transform="translate(30.088 3.305)" fill="#fff"/><path d="M77.354,7.8a10.526,10.526,0,0,0-2.225.249,4.7,4.7,0,0,0-2.293,1.284,4.859,4.859,0,0,0-1.476,2.457,13.439,13.439,0,0,0-.289,2.643c0,.391.014.823.048,1.263a6.422,6.422,0,0,0,.192,1.346,7.661,7.661,0,0,0,.426,1.359,4.677,4.677,0,0,0,.743,1.213,3.826,3.826,0,0,0,.905.867c.343.239.673.44.986.618a4.742,4.742,0,0,0,.854.377c.226.09.4.151.528.191l10.833,3.412a4.822,4.822,0,0,1,1.435.653,2.842,2.842,0,0,1,.808.783,2.351,2.351,0,0,1,.353.844,5.177,5.177,0,0,1,.074.831c0,.225-.027.515-.05.857a2.69,2.69,0,0,1-.329.982,2.047,2.047,0,0,1-.767.8,2.565,2.565,0,0,1-1.45.342H71.423V35.3H88.311a10.393,10.393,0,0,0,2.62-.316,4.208,4.208,0,0,0,2.293-1.653,5.588,5.588,0,0,0,1.122-2.452,14.92,14.92,0,0,0,.265-2.657c0-.3-.04-.693-.075-1.146a7.165,7.165,0,0,0-.241-1.374,5.549,5.549,0,0,0-.528-1.462A4.49,4.49,0,0,0,92.8,22.93a6.39,6.39,0,0,0-1.593-1.07,16.711,16.711,0,0,0-2.356-.894L78.8,17.78a3.546,3.546,0,0,1-2.089-1.374,3.419,3.419,0,0,1-.454-1.741,5.535,5.535,0,0,1,.1-1,1.879,1.879,0,0,1,.6-1.112,1.91,1.91,0,0,1,1.048-.515,5.618,5.618,0,0,1,1.12-.1H93.176V7.8Z" transform="translate(30.088 3.305)" fill="#fff"/></g></g><g transform="translate(101.159 11.109)"><g clip-path="url(#b)"><rect width="23.539" height="27.493" transform="translate(0 0.001)" fill="#fff"/></g></g><g transform="translate(0 0)"><g clip-path="url(#a)"><path d="M51.719,8.121H46.695V28.385a2.428,2.428,0,0,1-.063.413.342.342,0,0,1-.369.268.377.377,0,0,1-.377-.253,1.546,1.546,0,0,0-.263-.427L33.961,9.956a4.609,4.609,0,0,0-1.539-1.524A5.1,5.1,0,0,0,29.6,7.8a4.515,4.515,0,0,0-3.07.969,3.462,3.462,0,0,0-1.124,2.758V35.614h5.026V15.426a.749.749,0,0,1,.2-.618.582.582,0,0,1,.353-.178c.047,0,.1.048.189.124a5.725,5.725,0,0,1,.427.542L43.193,33.61a4.328,4.328,0,0,0,2.038,1.876,6.449,6.449,0,0,0,2.4.453,4.774,4.774,0,0,0,2.9-.907,3.537,3.537,0,0,0,1.194-2.995Z" transform="translate(10.756 3.305)" fill="#3683c6"/><path d="M26.531,8.773a3.463,3.463,0,0,0-1.124,2.76v24.08h5.024V15.424a.747.747,0,0,1,.2-.618.579.579,0,0,1,.35-.178c.05,0,.1.048.192.124a5.9,5.9,0,0,1,.424.544L43.192,33.609a4.341,4.341,0,0,0,2.04,1.877,6.466,6.466,0,0,0,2.4.451,4.75,4.75,0,0,0,2.9-.907,3.53,3.53,0,0,0,1.2-2.993V8.12H46.693V28.384a2.562,2.562,0,0,1-.061.414.343.343,0,0,1-.37.266.377.377,0,0,1-.377-.253,1.562,1.562,0,0,0-.262-.427L33.96,9.954a4.614,4.614,0,0,0-1.537-1.523A5.1,5.1,0,0,0,29.6,7.8a4.513,4.513,0,0,0-3.069.968" transform="translate(10.756 3.305)" fill="#fff"/></g></g><g transform="translate(36.163 11.109)"><g clip-path="url(#d)"><rect width="26.311" height="28.132" transform="translate(0 0.001)" fill="#fff"/></g></g><path d="M89.357,7.805v4.128h10.729V35.3h5.177V11.933h10.77V7.805Z" transform="translate(37.829 3.305)" fill="#fff"/><path d="M89.357,7.806v4.128h10.731V35.3h5.175V11.933h10.77V7.806Z" transform="translate(37.829 3.305)" fill="#fff"/><g transform="translate(0 0)"><g clip-path="url(#a)"><path d="M69.285,35.523V31.4H54.6a6.758,6.758,0,0,1-1.083-.063,1.218,1.218,0,0,1-.679-.3,1.281,1.281,0,0,1-.391-1.062V23.546h16.3V19.415h-16.3v-5.53a3.95,3.95,0,0,1,.053-.679,1.165,1.165,0,0,1,.377-.67,1.561,1.561,0,0,1,.689-.326,4.552,4.552,0,0,1,.734-.051H69.134V8.031H51.513A10.178,10.178,0,0,0,49.8,8.18a2.693,2.693,0,0,0-1.6.907,3.753,3.753,0,0,0-.679,1.271,4.92,4.92,0,0,0-.279,1.6V31.427a10.017,10.017,0,0,0,.164,1.675,2.806,2.806,0,0,0,.87,1.551,2.425,2.425,0,0,0,1.463.769,11.868,11.868,0,0,0,1.688.1Z" transform="translate(20.001 3.401)" fill="#fff"/><path d="M6.635,11.693a2.421,2.421,0,0,0,1.317.517,2.6,2.6,0,0,0,.481-.009,2.442,2.442,0,1,0-1.8-.508" transform="translate(2.415 3.108)" fill="#fff"/><path d="M4.318,14.427a2.456,2.456,0,0,0,.411.068,2.455,2.455,0,1,0-.411-.068" transform="translate(1.048 4.076)" fill="#fff"/><path d="M1.491,17.454a2.441,2.441,0,0,0,1.214.44,2.492,2.492,0,0,0,.608-.028,2.436,2.436,0,1,0-1.822-.411" transform="translate(0.195 5.515)" fill="#fff"/><path d="M4.835,19.866A2.44,2.44,0,0,0,.05,18.914,2.432,2.432,0,0,0,1.965,21.78a2.492,2.492,0,0,0,.288.04,2.44,2.44,0,0,0,2.582-1.954" transform="translate(0 7.177)" fill="#fff"/><path d="M3.084,20.785a2.437,2.437,0,0,0,.347,4.808,2.461,2.461,0,0,0,.729-.053,2.438,2.438,0,1,0-1.076-4.755" transform="translate(0.5 8.775)" fill="#fff"/><path d="M6.585,23.717a2.438,2.438,0,1,0-.7,4.827c.053.007.107.013.161.019a2.439,2.439,0,0,0,.537-4.845" transform="translate(1.606 10.031)" fill="#fff"/><path d="M11.024,25.652a2.447,2.447,0,0,0-3.321.935A2.441,2.441,0,0,0,9.638,30.21a2.45,2.45,0,0,0,2.323-1.24,2.439,2.439,0,0,0-.937-3.318" transform="translate(3.13 10.73)" fill="#fff"/><path d="M13.981,25.394a2.439,2.439,0,0,0-.407,4.861l.026,0a2.451,2.451,0,0,0,2.622-2.209,2.44,2.44,0,0,0-2.24-2.655" transform="translate(4.805 10.748)" fill="#fff"/><path d="M16.64,23.95a2.438,2.438,0,1,0,3.094,1.524A2.423,2.423,0,0,0,16.64,23.95" transform="translate(6.343 10.086)" fill="#fff"/><path d="M18.448,21.561a2.441,2.441,0,1,0,3.45.135,2.431,2.431,0,0,0-3.45-.135" transform="translate(7.478 8.855)" fill="#fff"/><path d="M23.636,18.706a2.434,2.434,0,1,0-.023,1.866,2.425,2.425,0,0,0,.023-1.866" transform="translate(8.014 7.27)" fill="#fff"/><path d="M18.562,15.706a2.441,2.441,0,0,0,2.245,2.4c.075.006.154.009.228.007a2.445,2.445,0,0,0,2.411-2.468,2.447,2.447,0,0,0-.74-1.715,2.441,2.441,0,0,0-4.143,1.778" transform="translate(7.858 5.604)" fill="#fff"/><path d="M18.218,14.515a2.489,2.489,0,0,0,.655.145,2.444,2.444,0,0,0,1.213-.219,2.442,2.442,0,1,0-1.867.074" transform="translate(7.037 4.145)" fill="#fff"/><path d="M14.279,11.7a2.418,2.418,0,0,0,1.416.6,2.461,2.461,0,0,0,2.028-.821,2.442,2.442,0,1,0-3.445.225" transform="translate(5.692 3.147)" fill="#fff"/><path d="M11.3,11.329a2.436,2.436,0,1,0-1.607-3.05,2.439,2.439,0,0,0,1.607,3.05" transform="translate(4.058 2.779)" fill="#fff"/><path d="M9.682,12.651a2.247,2.247,0,1,0,2.247-2.246,2.248,2.248,0,0,0-2.247,2.246" transform="translate(4.099 4.406)" fill="#fff"/><path d="M7.236,11.876a2.244,2.244,0,0,0,.969,4.035,2.317,2.317,0,0,0,.356.027,2.244,2.244,0,0,0,1.812-3.565,2.249,2.249,0,0,0-3.137-.5" transform="translate(2.67 4.847)" fill="#fff"/><path d="M4.3,15.824a2.247,2.247,0,0,0,1.443,2.83,2.313,2.313,0,0,0,.695.108A2.248,2.248,0,0,0,8.578,17.21,2.247,2.247,0,0,0,4.3,15.824" transform="translate(1.775 6.043)" fill="#fff"/><path d="M6.389,22.288a2.253,2.253,0,0,0,2-1.226,2.248,2.248,0,1,0-2,1.226" transform="translate(1.754 7.535)" fill="#fff"/><path d="M10.245,24.243a2.248,2.248,0,0,0-.5-3.137,2.254,2.254,0,0,0-3.14.5A2.248,2.248,0,0,0,8.421,25.17a2.32,2.32,0,0,0,.356-.028,2.241,2.241,0,0,0,1.467-.9" transform="translate(2.615 8.755)" fill="#fff"/><path d="M11.768,21.815a2.246,2.246,0,1,0,2.249,2.246,2.249,2.249,0,0,0-2.249-2.246" transform="translate(4.031 9.236)" fill="#fff"/><path d="M15.493,20.8a2.248,2.248,0,1,0,1.467.9,2.237,2.237,0,0,0-1.467-.9" transform="translate(5.459 8.795)" fill="#fff"/><path d="M17.951,18.06A2.243,2.243,0,1,0,19.4,20.888a2.25,2.25,0,0,0-1.445-2.828" transform="translate(6.354 7.6)" fill="#fff"/><path d="M15.3,15.65a2.244,2.244,0,0,0,2,3.264A2.185,2.185,0,0,0,18,18.8a2.245,2.245,0,1,0-2.7-3.154" transform="translate(6.375 6.107)" fill="#fff"/><path d="M16.593,11.972a2.246,2.246,0,1,0-1.325,4.061,2.258,2.258,0,0,0,1.822-.924,2.245,2.245,0,0,0-.5-3.137" transform="translate(5.513 4.887)" fill="#fff"/></g></g></svg>