<svg xmlns="http://www.w3.org/2000/svg" xmlns:xlink="http://www.w3.org/1999/xlink" width="893.698" height="269" viewBox="0 0 893.698 269"><defs><clipPath id="a"><rect width="893.698" height="269" fill="none"/></clipPath></defs><g transform="translate(0 0)"><path d="M0,0V30.664H9.492V9.565H21.1V0Z" transform="translate(0 0)" fill="#fff"/><g transform="translate(0 0)"><g clip-path="url(#a)"><path d="M32.849,64.292H65.192V71.52H23.8V53.779H55.264V50.42L23.8,50.567V43.483H38.981V39.251H15.692V31.364H71.91v7.886H48.547v4.233h15.7v17.45H32.849ZM66.8,13.769H52.416L68.771,24.282l-6.936,5.694L44.384,17.931a50.05,50.05,0,0,1-18.908,11.9L19.05,23.7a52.687,52.687,0,0,0,17.45-9.93H21.021v-6.5H39.2V.993h9.637V7.272H66.8Z" transform="translate(7.378 0.467)" fill="#fff"/><path d="M74.946,39.333a19.151,19.151,0,0,1-6.9-1.241,17.057,17.057,0,0,1-5.659-3.5,16.193,16.193,0,0,1-3.906-5.475,17.676,17.676,0,0,1-1.423-7.229,17.173,17.173,0,0,1,1.351-6.863,16.822,16.822,0,0,1,3.759-5.476A17.123,17.123,0,0,1,67.79,5.967,19.856,19.856,0,0,1,83.6,6.661a15.615,15.615,0,0,1,6.316,5.732H102.47V2.681h9.42V48.97h-9.42V32.178H89.548a16.745,16.745,0,0,1-6.1,5.221,18.326,18.326,0,0,1-8.505,1.935m-8.47-17.3a10.907,10.907,0,0,0,.584,3.54,9.452,9.452,0,0,0,1.679,3.03A8,8,0,0,0,71.4,30.791a7.668,7.668,0,0,0,3.542.8,7.415,7.415,0,0,0,3.358-.766,8.121,8.121,0,0,0,2.629-2.082,10.037,10.037,0,0,0,1.716-3.03,10.765,10.765,0,0,0,.62-3.686A10.142,10.142,0,0,0,81.078,15.5a8.094,8.094,0,0,0-6.206-2.957A7.789,7.789,0,0,0,71.4,13.3a8.468,8.468,0,0,0-2.665,2.008,9.452,9.452,0,0,0-1.679,3.03,11.362,11.362,0,0,0-.584,3.687M82.319,62.77h30.592v7.885H72.755V46.925h9.564ZM92.687,22.1a16.439,16.439,0,0,1-.219,2.7h10V19.766H92.541q.071.584.109,1.169c.024.39.037.778.037,1.167" transform="translate(26.829 1.261)" fill="#fff"/><path d="M113.266,71.559a62.739,62.739,0,0,1-6.1-7.848A46.347,46.347,0,0,1,102.9,55.5a43.1,43.1,0,0,1-2.59-8.908,55.927,55.927,0,0,1-.841-9.928,55.815,55.815,0,0,1,.913-10.513,41.7,41.7,0,0,1,2.738-8.908,46.228,46.228,0,0,1,4.453-7.921,84.753,84.753,0,0,1,6.06-7.629H123.78q-3.725,4.673-6.5,8.906a52.77,52.77,0,0,0-4.527,8.4,41.567,41.567,0,0,0-2.7,8.505,46.207,46.207,0,0,0-.876,9.164,41.453,41.453,0,0,0,1.1,9.637,46.218,46.218,0,0,0,3.067,8.834,59.182,59.182,0,0,0,4.525,8.36q2.629,4.051,5.7,8.067Z" transform="translate(46.769 0.794)" fill="#fff"/><path d="M134.388,39.333a19.151,19.151,0,0,1-6.9-1.241,17.057,17.057,0,0,1-5.659-3.5,16.193,16.193,0,0,1-3.906-5.475,17.676,17.676,0,0,1-1.423-7.229,17.173,17.173,0,0,1,1.351-6.863,16.822,16.822,0,0,1,3.759-5.476,17.123,17.123,0,0,1,5.622-3.577,19.856,19.856,0,0,1,15.806.694,15.615,15.615,0,0,1,6.316,5.732h12.557V2.681h9.42V48.97h-9.42V32.178H148.99a16.745,16.745,0,0,1-6.1,5.221,18.326,18.326,0,0,1-8.505,1.935m-8.47-17.3a10.907,10.907,0,0,0,.584,3.54,9.427,9.427,0,0,0,1.68,3.03,7.983,7.983,0,0,0,2.664,2.191,7.668,7.668,0,0,0,3.542.8,7.414,7.414,0,0,0,3.358-.766,8.121,8.121,0,0,0,2.629-2.082,10.038,10.038,0,0,0,1.716-3.03,10.765,10.765,0,0,0,.62-3.686A10.142,10.142,0,0,0,140.52,15.5a8.094,8.094,0,0,0-6.206-2.957,7.789,7.789,0,0,0-3.468.766,8.446,8.446,0,0,0-2.664,2.008,9.427,9.427,0,0,0-1.68,3.03,11.362,11.362,0,0,0-.584,3.687M141.761,62.77h30.592v7.885H132.2V46.925h9.564ZM152.129,22.1a16.44,16.44,0,0,1-.219,2.7h10V19.766h-9.928q.071.584.109,1.169c.024.39.037.778.037,1.167" transform="translate(54.778 1.261)" fill="#fff"/><path d="M159.825,70.025q2.774-3.725,5.221-7.483a56.927,56.927,0,0,0,4.271-7.849,48,48,0,0,0,2.774-8.468,42.729,42.729,0,0,0,1.022-9.564,45.772,45.772,0,0,0-.876-9.127,46.526,46.526,0,0,0-2.629-8.542,57.511,57.511,0,0,0-4.6-8.4q-2.776-4.232-6.5-8.906H168.66q3.356,3.87,6.022,7.629a44.8,44.8,0,0,1,4.491,7.921,46.407,46.407,0,0,1,2.7,8.908,53.789,53.789,0,0,1,.95,10.513,56.207,56.207,0,0,1-.84,9.928,46.4,46.4,0,0,1-2.52,8.908,50.222,50.222,0,0,1-4.343,8.214,63.035,63.035,0,0,1-6.1,7.848H160.7Z" transform="translate(74.532 0.794)" fill="#fff"/><path d="M230.467,38H198.636V6.017h31.831Zm-21.319,5.987h38.841v7.594H236.747l13.433,15.55-7.228,4.6L229.3,55.517q-5.11,9.346-16.938,15.7l-5.913-5.622a42.008,42.008,0,0,0,15.259-14.017H209.148Zm12.047-30.518H207.907V30.475h13.288Zm26.868,3.5h9.709v7.885h-9.709V40.331h-9.345V2.731h9.345Z" transform="translate(93.399 1.284)" fill="#fff"/><path d="M248.456,48.011h15.331V41.806H240.5V33.993h56.218v7.813H273.353v6.206h15.331V71.52H248.456Zm43.149-32.636H277.951l15.625,11.1-6.936,5.694L269.19,18.807q-6.645,8.909-18.91,13.214l-6.425-6.132a47.056,47.056,0,0,0,16.938-10.513H245.827V7.637h18.179V.993h9.637V7.637h17.961Zm-34.242,48.4h22.415v-8.1H257.363Z" transform="translate(113.082 0.467)" fill="#fff"/><path d="M326.744,36.324H313.53A15.323,15.323,0,0,1,307.8,40.23a19.864,19.864,0,0,1-7.411,1.35,20.788,20.788,0,0,1-6.169-.912A14.823,14.823,0,0,1,289,37.857a13.732,13.732,0,0,1-3.761-4.563,14.467,14.467,0,0,1-1.5-6.462,15.453,15.453,0,0,1,1.167-5.913,14.56,14.56,0,0,1,3.578-5.112h-7.666V8.58h14.6V1.936h9.564V8.58h14.6v7.228h-7.228a25.125,25.125,0,0,1,1.825,2.045h12.557V3.031h9.42V40.339h-9.42Zm-26.356-2.41a7.252,7.252,0,0,0,5.184-2.007,7.33,7.33,0,0,0,2.117-5.585,8.274,8.274,0,0,0-1.9-5.622,6.759,6.759,0,0,0-5.4-2.191,6.954,6.954,0,0,0-5.293,2.117,7.937,7.937,0,0,0-2.008,5.7,7.6,7.6,0,0,0,2.008,5.512,7.02,7.02,0,0,0,5.293,2.08m36.8,23.582a13.992,13.992,0,0,1-1.642,6.9,15.139,15.139,0,0,1-4.344,4.928,20.236,20.236,0,0,1-6.242,2.957,26.427,26.427,0,0,1-14.164.037,20.587,20.587,0,0,1-6.242-2.848,15.392,15.392,0,0,1-4.49-4.965,14,14,0,0,1-1.716-7.08,13.94,13.94,0,0,1,1.642-6.936A14.2,14.2,0,0,1,304.4,45.67a20.178,20.178,0,0,1,6.206-2.885,28.639,28.639,0,0,1,7.227-1.059,26.122,26.122,0,0,1,6.9.948,20.62,20.62,0,0,1,6.242,2.848,15.524,15.524,0,0,1,4.489,4.928,13.815,13.815,0,0,1,1.717,7.045m-19.42,8.323a11.944,11.944,0,0,0,3.577-.547,9.651,9.651,0,0,0,3.065-1.57,8.543,8.543,0,0,0,2.119-2.629,7.617,7.617,0,0,0,.8-3.577,7.9,7.9,0,0,0-.767-3.577,7.352,7.352,0,0,0-2.079-2.555,9.558,9.558,0,0,0-3.1-1.57,14.888,14.888,0,0,0-3.833-.62,11,11,0,0,0-3.431.547,9.753,9.753,0,0,0-2.993,1.57A8.539,8.539,0,0,0,309,53.919a7.59,7.59,0,0,0-.8,3.577,7.843,7.843,0,0,0,2.848,6.206,8.772,8.772,0,0,0,2.993,1.57,12.427,12.427,0,0,0,3.724.547m-.731-38.987c0,.391-.013.779-.037,1.169s-.062.779-.11,1.167h9.856V25.008h-9.856c.048.341.085.656.11.948s.037.585.037.876" transform="translate(132.043 0.91)" fill="#fff"/><path d="M359.045,39.333a19.128,19.128,0,0,1-6.9-1.242,17.047,17.047,0,0,1-5.657-3.5,16.173,16.173,0,0,1-3.906-5.475,17.676,17.676,0,0,1-1.423-7.229,17.144,17.144,0,0,1,1.351-6.863,16.806,16.806,0,0,1,3.759-5.476,17.123,17.123,0,0,1,5.622-3.577,19.763,19.763,0,0,1,13.98-.074,17.105,17.105,0,0,1,5.659,3.5,16.676,16.676,0,0,1,3.833,5.476,17.651,17.651,0,0,1,1.423,7.228,17.62,17.62,0,0,1-1.313,6.863,16.062,16.062,0,0,1-3.651,5.4,17.426,17.426,0,0,1-5.657,3.651,18.817,18.817,0,0,1-7.119,1.314m-8.47-17.3a10.909,10.909,0,0,0,.584,3.54,9.452,9.452,0,0,0,1.679,3.03,8,8,0,0,0,2.665,2.191,7.66,7.66,0,0,0,3.542.8,7.4,7.4,0,0,0,3.358-.767,8.076,8.076,0,0,0,2.627-2.08,9.976,9.976,0,0,0,1.716-3.03,10.767,10.767,0,0,0,.622-3.686,10.139,10.139,0,0,0-2.191-6.535,8.1,8.1,0,0,0-6.206-2.958,7.785,7.785,0,0,0-3.468.767,8.469,8.469,0,0,0-2.665,2.008,9.436,9.436,0,0,0-1.679,3.03,11.363,11.363,0,0,0-.584,3.687m14.383,40.738h30.59v7.886H355.393V46.925h9.565ZM385.109,2.681h9.343V48.969h-9.343Z" transform="translate(160.412 1.261)" fill="#fff"/><path d="M392.537,32.519h21.83v7.594H383.119V18.719h18.838V13.1H383.119V5.286h28.256V26.532H392.537Zm30.445,38.913V52.6H392.611V44.711h39.863V71.432Zm9.637-30.3H423.2V29.161h-8.834v-7.01H423.2V17.26h-8.834V10.251H423.2V2.731h9.418Z" transform="translate(180.143 1.284)" fill="#fff"/><path d="M439.541,38.751a20.213,20.213,0,0,1-6.9-1.169,16.687,16.687,0,0,1-5.659-3.358,15.5,15.5,0,0,1-3.906-5.366,17.387,17.387,0,0,1-1.423-7.191A16.929,16.929,0,0,1,423,14.841a16.083,16.083,0,0,1,3.761-5.368,16.789,16.789,0,0,1,5.622-3.431,20.883,20.883,0,0,1,13.98-.072,16.739,16.739,0,0,1,5.659,3.358,16,16,0,0,1,3.833,5.366,17.422,17.422,0,0,1,1.423,7.192,17.084,17.084,0,0,1-1.313,6.789,16.248,16.248,0,0,1-3.652,5.329,17.049,17.049,0,0,1-5.657,3.5,19.788,19.788,0,0,1-7.119,1.241m-8.47-16.938a10.552,10.552,0,0,0,.585,3.5,8.619,8.619,0,0,0,1.679,2.92A8.414,8.414,0,0,0,436,30.246a7.969,7.969,0,0,0,3.54.766,7.667,7.667,0,0,0,6.023-2.592,9.582,9.582,0,0,0,2.3-6.607,9.42,9.42,0,0,0-2.189-6.351,8.374,8.374,0,0,0-6.207-2.776,7.994,7.994,0,0,0-6.132,2.63,9.437,9.437,0,0,0-2.264,6.5M474.731,57.3a13.979,13.979,0,0,1-1.642,6.9,15.116,15.116,0,0,1-4.343,4.928,20.249,20.249,0,0,1-6.242,2.955,26.388,26.388,0,0,1-14.164.037,20.585,20.585,0,0,1-6.242-2.846,15.387,15.387,0,0,1-4.489-4.965,13.994,13.994,0,0,1-1.717-7.082,13.931,13.931,0,0,1,1.644-6.936,14.191,14.191,0,0,1,4.416-4.818,20.2,20.2,0,0,1,6.206-2.885,28.649,28.649,0,0,1,7.227-1.059,25.666,25.666,0,0,1,6.863.95,20.654,20.654,0,0,1,6.206,2.846,15.957,15.957,0,0,1,4.527,4.928,13.571,13.571,0,0,1,1.751,7.047m-19.42,8.176A14.061,14.061,0,0,0,458.926,65a10.177,10.177,0,0,0,3.248-1.5,7.765,7.765,0,0,0,2.227-2.554,7.507,7.507,0,0,0,.839-3.651,7.139,7.139,0,0,0-.839-3.542,7.915,7.915,0,0,0-2.227-2.518,9.832,9.832,0,0,0-3.211-1.533,16.555,16.555,0,0,0-3.871-.584,12.494,12.494,0,0,0-3.5.51,9.927,9.927,0,0,0-3.139,1.533,7.768,7.768,0,0,0-2.227,2.555,7.331,7.331,0,0,0-.839,3.578,7.425,7.425,0,0,0,.8,3.5,8.127,8.127,0,0,0,2.191,2.629,9.88,9.88,0,0,0,3.176,1.533,13.656,13.656,0,0,0,3.759.51M474.148,10.2h8.979V17.87h-8.979v6.425h8.979v7.667h-8.979v8.177h-9.492V2.831h9.492Z" transform="translate(198.262 1.331)" fill="#fff"/><path d="M486.286,16.921A61.864,61.864,0,0,1,472.2,39.044l-6.644-5.768a60.748,60.748,0,0,0,15.769-27.89h9.127L503.81,34.079l-7.667,4.746ZM521.478,57.3a13.977,13.977,0,0,1-1.644,6.9,15.1,15.1,0,0,1-4.343,4.928,20.251,20.251,0,0,1-6.242,2.957,26.427,26.427,0,0,1-14.164.037,20.555,20.555,0,0,1-6.242-2.848,15.377,15.377,0,0,1-4.49-4.965,14,14,0,0,1-1.716-7.082,13.921,13.921,0,0,1,1.642-6.935,14.224,14.224,0,0,1,4.416-4.819,20.235,20.235,0,0,1,6.207-2.883,28.574,28.574,0,0,1,7.228-1.059,25.68,25.68,0,0,1,6.863.948,20.65,20.65,0,0,1,6.2,2.848,15.921,15.921,0,0,1,4.527,4.928,13.566,13.566,0,0,1,1.754,7.045m-19.421,8.177A14.477,14.477,0,0,0,505.708,65a9.3,9.3,0,0,0,3.212-1.5,8.175,8.175,0,0,0,2.264-2.555,7.253,7.253,0,0,0,.876-3.651,7.143,7.143,0,0,0-.841-3.542,7.911,7.911,0,0,0-2.226-2.518,10.752,10.752,0,0,0-3.286-1.532,16.477,16.477,0,0,0-3.87-.585,12.443,12.443,0,0,0-3.5.512,9.919,9.919,0,0,0-3.14,1.533,7.753,7.753,0,0,0-2.227,2.555,7.324,7.324,0,0,0-.839,3.577,7.417,7.417,0,0,0,.8,3.5,8.073,8.073,0,0,0,2.189,2.629,9.894,9.894,0,0,0,3.176,1.533,13.675,13.675,0,0,0,3.761.512m-1.9-50.376h10.952V2.831h9.346V40.139h-9.346V23.055H500.159Z" transform="translate(218.903 1.331)" fill="#fff"/><path d="M544.264,47.583l-7.885,4.087L526.084,20.2a73.686,73.686,0,0,1-12.339,31.321l-7.373-4.089Q516.519,31.96,520.9,6.552h9.493Zm24.751-24.313v7.958H558.063v35.7H548.5V2.682h9.564V23.271Z" transform="translate(238.096 1.261)" fill="#fff"/><path d="M606.74,38.726h-9.418V25.51H587.173a16.638,16.638,0,0,1-2.189,5.329,15.2,15.2,0,0,1-3.8,4.089,17.021,17.021,0,0,1-5.147,2.7,19.872,19.872,0,0,1-6.241.948,20.26,20.26,0,0,1-6.9-1.167,16.714,16.714,0,0,1-5.657-3.359,15.517,15.517,0,0,1-3.906-5.366A17.409,17.409,0,0,1,551.91,21.5a16.879,16.879,0,0,1,1.351-6.826A16.08,16.08,0,0,1,557.02,9.3a16.812,16.812,0,0,1,5.621-3.431A20.123,20.123,0,0,1,569.8,4.629a19.9,19.9,0,0,1,5.95.876A19.04,19.04,0,0,1,580.9,7.988a16.932,16.932,0,0,1,3.906,4.089,15.319,15.319,0,0,1,2.3,5.475h10.222V2.731h9.418ZM561.328,21.641a10.582,10.582,0,0,0,.584,3.5,8.671,8.671,0,0,0,1.679,2.92,8.458,8.458,0,0,0,2.664,2.008,8.526,8.526,0,0,0,6.9.072,7.647,7.647,0,0,0,2.627-1.935,9.117,9.117,0,0,0,1.716-2.92,10.461,10.461,0,0,0,.622-3.651,9.42,9.42,0,0,0-2.191-6.351,8.375,8.375,0,0,0-6.206-2.776,8,8,0,0,0-6.134,2.63,9.436,9.436,0,0,0-2.263,6.5M597.833,42.3h8.979V70.631H566.949V42.3h8.908v6.789h21.977Zm0,14.529H575.857v5.987h21.977Z" transform="translate(259.508 1.284)" fill="#fff"/><path d="M614.646,27.512V58.1H593.475V48.538h11.681V27.512Z" transform="translate(279.053 12.936)" fill="#fff"/><path d="M43.438,81.275q2.774,7.959,5.913,16.246t5.915,16.244l-8.032,4.015L36.5,87.628a57.234,57.234,0,0,1-2.045,8.214,74.047,74.047,0,0,1-3.212,8.213,60.981,60.981,0,0,1-3.98,7.3A39.284,39.284,0,0,1,23,116.978l-7.155-5.184a48.637,48.637,0,0,0,4.891-6.681,70.374,70.374,0,0,0,4.089-7.7,69.677,69.677,0,0,0,3.14-8.067,58.175,58.175,0,0,0,1.97-8.068H18.251V73.61H53.878v7.666ZM58.771,68.864h9.492v64.249H58.771Z" transform="translate(7.448 32.38)" fill="#fff"/><path d="M56.661,96.556H98.494v7.739H80.753v8.98H71.481v-8.98H56.661Zm20.587-1.9a23.808,23.808,0,0,1-6.425-.876,18.134,18.134,0,0,1-5.549-2.555,12.259,12.259,0,0,1-3.942-4.052,10.535,10.535,0,0,1-1.461-5.513,10.772,10.772,0,0,1,1.388-5.475,12.653,12.653,0,0,1,3.8-4.089,19.2,19.2,0,0,1,5.585-2.482,27.1,27.1,0,0,1,6.681-.95,24.807,24.807,0,0,1,6.425.839,19.627,19.627,0,0,1,5.622,2.446A12.919,12.919,0,0,1,93.273,76a10.481,10.481,0,0,1,1.5,5.585A10.747,10.747,0,0,1,93.347,87.1a12.862,12.862,0,0,1-3.833,4.125,18.075,18.075,0,0,1-5.585,2.555,25.029,25.029,0,0,1-6.681.876M69.364,81.589a4.017,4.017,0,0,0,.584,2.08,5.343,5.343,0,0,0,1.68,1.716,7.363,7.363,0,0,0,2.482,1.241,10.85,10.85,0,0,0,3.139.438,11.119,11.119,0,0,0,3.03-.4A8.8,8.8,0,0,0,82.8,85.531a5.573,5.573,0,0,0,1.716-1.751,4.161,4.161,0,0,0,.622-2.191,4.721,4.721,0,0,0-2.227-3.833,9.407,9.407,0,0,0-5.731-1.644,9.6,9.6,0,0,0-5.44,1.644,5.013,5.013,0,0,0-2.373,3.833M79.95,129.046H112v7.885H70.385V116.852H79.95Zm8.323-21.1h13.069V69.031h9.492v50.6h-9.492v-4.234H88.273Z" transform="translate(26.642 32.287)" fill="#fff"/><path d="M116.411,105.515a19.157,19.157,0,0,1-6.9-1.241,17.033,17.033,0,0,1-5.659-3.5,16.155,16.155,0,0,1-3.9-5.475,17.645,17.645,0,0,1-1.425-7.228A17.163,17.163,0,0,1,99.874,81.2a16.788,16.788,0,0,1,3.761-5.477,17.117,17.117,0,0,1,5.621-3.577,19.768,19.768,0,0,1,13.982-.074,17.1,17.1,0,0,1,5.659,3.5,16.669,16.669,0,0,1,3.833,5.475,18.823,18.823,0,0,1,.109,14.09,16.025,16.025,0,0,1-3.65,5.4,17.437,17.437,0,0,1-5.657,3.652,18.846,18.846,0,0,1-7.119,1.313m-8.468-17.3a10.894,10.894,0,0,0,.584,3.54,9.38,9.38,0,0,0,1.679,3.03,7.956,7.956,0,0,0,2.665,2.191,7.64,7.64,0,0,0,3.54.8,7.407,7.407,0,0,0,3.359-.767,8.1,8.1,0,0,0,2.627-2.082,9.951,9.951,0,0,0,1.716-3.029,10.773,10.773,0,0,0,.62-3.687,10.136,10.136,0,0,0-2.191-6.535,8.1,8.1,0,0,0-6.206-2.957,7.779,7.779,0,0,0-3.467.767,8.431,8.431,0,0,0-2.665,2.007,9.4,9.4,0,0,0-1.679,3.03,11.368,11.368,0,0,0-.584,3.687m14.382,40.739h30.592v7.885H112.76V113.108h9.564Zm20.152-60.087h9.345v46.288h-9.345Z" transform="translate(46.326 32.38)" fill="#fff"/><path d="M149.9,98.7h21.83V106.3H140.486V84.9h18.836V79.282H140.486V71.469H168.74V92.715H149.9Zm30.445,38.913V118.779H149.976v-7.885h39.863v26.721Zm9.637-30.3h-9.418V95.342h-8.834V88.334h8.834V83.443h-8.834V76.434h8.834v-7.52h9.418Z" transform="translate(66.057 32.403)" fill="#fff"/><path d="M193.465,137.741a62.89,62.89,0,0,1-6.1-7.848,46.338,46.338,0,0,1-4.271-8.214,43.188,43.188,0,0,1-2.592-8.908,60.072,60.072,0,0,1,.074-20.442,41.612,41.612,0,0,1,2.738-8.908A46.228,46.228,0,0,1,187.77,75.5a84.76,84.76,0,0,1,6.06-7.629h10.149q-3.725,4.673-6.5,8.906a52.771,52.771,0,0,0-4.527,8.4,41.566,41.566,0,0,0-2.7,8.505,46.218,46.218,0,0,0-.876,9.164,41.453,41.453,0,0,0,1.1,9.637,46.216,46.216,0,0,0,3.067,8.834,59.186,59.186,0,0,0,4.525,8.36q2.629,4.051,5.7,8.067Z" transform="translate(84.479 31.913)" fill="#fff"/><path d="M208.571,127.8h-9.637V70.851H216.6a30.642,30.642,0,0,1,8.251,1.059,19.238,19.238,0,0,1,6.57,3.176,15.426,15.426,0,0,1,4.344,5.4,16.962,16.962,0,0,1,1.569,7.52,18.864,18.864,0,0,1-1.5,7.739,15.046,15.046,0,0,1-4.271,5.621,18.3,18.3,0,0,1-6.828,3.5,32.769,32.769,0,0,1-9.089,1.169h-7.082Zm0-29.714h7.154q6.278,0,9.053-2.482t2.774-7.375a9.158,9.158,0,0,0-2.629-6.826q-2.627-2.591-8.979-2.592h-7.375Z" transform="translate(93.539 33.314)" fill="#fff"/><path d="M247.981,79.739a20.87,20.87,0,0,1,8.542,1.716,20.012,20.012,0,0,1,6.644,4.709,22.631,22.631,0,0,1,4.343,7.155,24.23,24.23,0,0,1,1.57,8.761,29.555,29.555,0,0,1-1.167,8.214,21.607,21.607,0,0,1-3.724,7.338,19.341,19.341,0,0,1-6.534,5.219,20.95,20.95,0,0,1-9.528,2.008,19.951,19.951,0,0,1-8.468-1.752,19.353,19.353,0,0,1-6.5-4.819A21.685,21.685,0,0,1,229,111.1a26.172,26.172,0,0,1-1.46-8.8,29.8,29.8,0,0,1,1.167-8.286,21.493,21.493,0,0,1,3.652-7.264,18.5,18.5,0,0,1,6.351-5.075,20.561,20.561,0,0,1,9.273-1.935m-.073,8.032a8.7,8.7,0,0,0-5.184,1.46,10.731,10.731,0,0,0-3.212,3.577,15.17,15.17,0,0,0-1.716,4.709,24.9,24.9,0,0,0-.475,4.563,21.565,21.565,0,0,0,.841,6.316,13.562,13.562,0,0,0,2.3,4.562,9.336,9.336,0,0,0,3.5,2.848,10.262,10.262,0,0,0,4.381.95,10.029,10.029,0,0,0,4.344-.95,9.438,9.438,0,0,0,3.468-2.848,13.716,13.716,0,0,0,2.3-4.49,20.587,20.587,0,0,0,.839-6.169,18.866,18.866,0,0,0-.913-6.06,14.788,14.788,0,0,0-2.445-4.6,11.053,11.053,0,0,0-3.615-2.848,9.894,9.894,0,0,0-4.416-1.022" transform="translate(106.988 37.493)" fill="#fff"/><path d="M276.248,98.147q2.7,1.1,5.221,2.227a24.131,24.131,0,0,1,4.49,2.592,12.744,12.744,0,0,1,3.03,3.468,9.026,9.026,0,0,1,1.132,4.636,11.554,11.554,0,0,1-4.492,9.637q-4.49,3.5-12.082,3.5a24.139,24.139,0,0,1-5.075-.512,28.557,28.557,0,0,1-7.483-2.738q-1.387-.767-2.117-1.278l3.87-7.3q.366.218,1.351.839a22.574,22.574,0,0,0,2.373,1.278,18.787,18.787,0,0,0,3.139,1.132,14.208,14.208,0,0,0,3.724.473,8.915,8.915,0,0,0,4.965-1.167,3.6,3.6,0,0,0,1.752-3.139,4.682,4.682,0,0,0-.512-2.3,5.476,5.476,0,0,0-1.46-1.642,13.155,13.155,0,0,0-2.483-1.351l-3.358-1.423q-2.556-1.1-4.856-2.117a18.854,18.854,0,0,1-4.052-2.41,9.737,9.737,0,0,1-3.8-8.177,10.932,10.932,0,0,1,1.132-4.965,11.314,11.314,0,0,1,3.176-3.87,14.136,14.136,0,0,1,4.783-2.482,20.35,20.35,0,0,1,6.1-.876,21.323,21.323,0,0,1,4.781.512,31.446,31.446,0,0,1,3.98,1.167,22.524,22.524,0,0,1,3.065,1.533,20.418,20.418,0,0,1,2.045,1.388l-4.455,6.863q-.584-.439-1.533-1.06a18.624,18.624,0,0,0-2.189-1.2,22.308,22.308,0,0,0-2.811-1.022,10.98,10.98,0,0,0-3.1-.438,5.64,5.64,0,0,0-3.833,1.131,3.851,3.851,0,0,0-1.278,3.03,4.128,4.128,0,0,0,1.9,3.578,23.84,23.84,0,0,0,4.891,2.482Z" transform="translate(121.722 37.704)" fill="#fff"/><path d="M312.164,124.391c-.391.243-.913.547-1.57.913a18.874,18.874,0,0,1-2.3,1.059,17.738,17.738,0,0,1-2.993.839,18.629,18.629,0,0,1-3.578.328q-11.827,0-11.826-11.973V92.267h-6.791v-7.52H289.9V73.284h9.418V84.747h10.221v7.52H299.315v22.341a6.107,6.107,0,0,0,.839,3.651,3.233,3.233,0,0,0,2.738,1.094,6.316,6.316,0,0,0,1.716-.256,15.143,15.143,0,0,0,1.789-.62q.8-.364,1.5-.729c.462-.244.814-.438,1.059-.585Z" transform="translate(133.117 34.458)" fill="#fff"/><rect width="35.189" height="8.689" transform="translate(445.353 130.227)" fill="#fff"/><path d="M377.284,98.564a32.669,32.669,0,0,1-2.155,12.192,25.879,25.879,0,0,1-6.1,9.2,26.906,26.906,0,0,1-9.675,5.913,37.069,37.069,0,0,1-12.666,2.045h-13.58V70.6h13.945q14.676,0,22.451,7.192t7.776,20.77M342.6,119.519h4.674q9.928,0,15-5.257t5.074-15.478q0-10.292-4.93-15.075t-15.514-4.783H342.6Z" transform="translate(156.629 33.197)" fill="#fff"/><path d="M387.124,79.739a20.865,20.865,0,0,1,8.542,1.716,20.018,20.018,0,0,1,6.645,4.709,22.657,22.657,0,0,1,4.343,7.155,24.229,24.229,0,0,1,1.569,8.761,29.5,29.5,0,0,1-1.167,8.214,21.58,21.58,0,0,1-3.724,7.338,19.327,19.327,0,0,1-6.534,5.219,20.95,20.95,0,0,1-9.528,2.008,19.956,19.956,0,0,1-8.468-1.752,19.332,19.332,0,0,1-6.5-4.819,21.66,21.66,0,0,1-4.162-7.191,26.172,26.172,0,0,1-1.46-8.8,29.746,29.746,0,0,1,1.167-8.286,21.49,21.49,0,0,1,3.651-7.264,18.5,18.5,0,0,1,6.351-5.075,20.561,20.561,0,0,1,9.273-1.935m-.072,8.032a8.7,8.7,0,0,0-5.184,1.46,10.733,10.733,0,0,0-3.212,3.577,15.171,15.171,0,0,0-1.716,4.709,24.768,24.768,0,0,0-.475,4.563,21.569,21.569,0,0,0,.839,6.316,13.564,13.564,0,0,0,2.3,4.562,9.337,9.337,0,0,0,3.5,2.848,10.253,10.253,0,0,0,4.381.95,10.022,10.022,0,0,0,4.343-.95,9.439,9.439,0,0,0,3.468-2.848,13.691,13.691,0,0,0,2.3-4.49,20.591,20.591,0,0,0,.838-6.169,18.907,18.907,0,0,0-.912-6.06,14.82,14.82,0,0,0-2.446-4.6,11.062,11.062,0,0,0-3.614-2.848,9.894,9.894,0,0,0-4.416-1.022" transform="translate(172.414 37.493)" fill="#fff"/><path d="M433.437,119.443a21.425,21.425,0,0,1-6.681,3.577,24.927,24.927,0,0,1-7.7,1.169,19.357,19.357,0,0,1-8.286-1.752,19.921,19.921,0,0,1-6.462-4.746,21.563,21.563,0,0,1-4.2-7.01,25.086,25.086,0,0,1-.074-16.865,21.577,21.577,0,0,1,4.125-7.008,19.488,19.488,0,0,1,6.425-4.783,19.977,19.977,0,0,1,8.614-1.788,24.109,24.109,0,0,1,7.522,1.167,20.05,20.05,0,0,1,6.642,3.724L429.2,91.918a51.838,51.838,0,0,0-4.527-2.555A12.123,12.123,0,0,0,419.2,88.2a9.087,9.087,0,0,0-7.664,3.651q-2.776,3.65-2.776,10.221a22.456,22.456,0,0,0,.584,5.074,14.461,14.461,0,0,0,1.827,4.49,9.838,9.838,0,0,0,3.284,3.212,9.377,9.377,0,0,0,4.965,1.241,13.444,13.444,0,0,0,3.467-.437,17.78,17.78,0,0,0,3.03-1.1,14.063,14.063,0,0,0,2.264-1.241c.632-.44,1.119-.779,1.46-1.023Z" transform="translate(187.428 37.727)" fill="#fff"/><rect width="9.709" height="10.587" transform="translate(628.093 152.132)" fill="#fff"/><path d="M437.717,136.207q2.772-3.723,5.219-7.483a56.927,56.927,0,0,0,4.271-7.849,48,48,0,0,0,2.776-8.468,42.723,42.723,0,0,0,1.02-9.564,45.659,45.659,0,0,0-.876-9.127,46.74,46.74,0,0,0-2.626-8.542,57.806,57.806,0,0,0-4.6-8.4q-2.774-4.232-6.5-8.906H446.55q3.356,3.87,6.023,7.629a44.882,44.882,0,0,1,4.49,7.921,46.3,46.3,0,0,1,2.7,8.908,53.8,53.8,0,0,1,.948,10.513,56.2,56.2,0,0,1-.839,9.928,46.287,46.287,0,0,1-2.52,8.908,50.222,50.222,0,0,1-4.343,8.214,63.019,63.019,0,0,1-6.1,7.848h-8.323Z" transform="translate(205.196 31.913)" fill="#fff"/><path d="M23.712,138.126H65.765v33.731H49.922V184.34H72.555v7.886H16.337V184.34H40.431V171.857H23.712ZM33.058,163.9H56.347V146.084H33.058Z" transform="translate(7.682 64.947)" fill="#fff"/><path d="M82.333,145.828l10.878,19.495-7.592,4.746L75.032,151.012a38.752,38.752,0,0,1-2.7,6.242,54.639,54.639,0,0,1-3.359,5.44,40.324,40.324,0,0,1-3.614,4.453,39.647,39.647,0,0,1-3.54,3.358l-6.5-5.694a42.4,42.4,0,0,0,7.41-8.542A45.162,45.162,0,0,0,67.8,145.828H57.364v-7.52H91.9v7.52ZM99.2,174.667h8.98V203H68.315V174.667h8.908v6.789H99.2Zm0,14.529H77.223v5.987H99.2Zm8.834-18.106H98.688V135.1h9.345Z" transform="translate(26.012 63.523)" fill="#fff"/><path d="M129.851,143.832v3.212h32.562v7.666H129.851v3.359H163.8v7.52H147.152v3.358h22.634v7.885H113.57v-7.885h24.094v-3.358H120.652V136.238h42.417v7.594Zm-7.228,48.259a9.83,9.83,0,0,1,1.679-5.768,13.912,13.912,0,0,1,4.38-4.015,21.393,21.393,0,0,1,6.1-2.264,32.821,32.821,0,0,1,6.9-.729,34.06,34.06,0,0,1,6.936.729,23.39,23.39,0,0,1,6.353,2.264,14.723,14.723,0,0,1,4.563,4.052,10.347,10.347,0,0,1,.107,11.462,14.1,14.1,0,0,1-4.381,3.98,21.757,21.757,0,0,1-6.24,2.373,32.547,32.547,0,0,1-7.047.766,32.155,32.155,0,0,1-6.972-.766,22.036,22.036,0,0,1-6.169-2.3,14.021,14.021,0,0,1-4.49-4.015,9.67,9.67,0,0,1-1.716-5.768m29.35.074a3.222,3.222,0,0,0-.878-2.264,6.433,6.433,0,0,0-2.263-1.533,11.128,11.128,0,0,0-3.214-.912,26.249,26.249,0,0,0-3.649-.256,24.539,24.539,0,0,0-3.47.256,14.085,14.085,0,0,0-3.248.839,7.067,7.067,0,0,0-2.408,1.533,3.3,3.3,0,0,0-.037,4.6,6.692,6.692,0,0,0,2.371,1.533,14.024,14.024,0,0,0,3.176.876,22.486,22.486,0,0,0,3.615.291,23.962,23.962,0,0,0,3.431-.254,14.271,14.271,0,0,0,3.212-.84,7.125,7.125,0,0,0,2.408-1.533,3.177,3.177,0,0,0,.951-2.336" transform="translate(53.401 64.059)" fill="#fff"/><path d="M184.612,148.173a15.867,15.867,0,0,1,3.358,4.672,13.819,13.819,0,0,1-.072,11.609,13.3,13.3,0,0,1-3.578,4.455,15.9,15.9,0,0,1-5.293,2.774,22.324,22.324,0,0,1-12.631.072,14.991,14.991,0,0,1-5.221-2.7,12.983,12.983,0,0,1-5.256-10.513,13.659,13.659,0,0,1,1.169-5.622,14.106,14.106,0,0,1,3.5-4.746H153v-7.228h14.6V134.3h9.565v6.644h14.6v7.228Zm-12.047,17.012a6.908,6.908,0,0,0,2.848-.585,7.669,7.669,0,0,0,2.336-1.605,7.563,7.563,0,0,0,1.533-2.227,6.513,6.513,0,0,0,.584-2.738,7.131,7.131,0,0,0-.512-2.664,8.2,8.2,0,0,0-1.386-2.3,7.237,7.237,0,0,0-2.3-1.642,7.375,7.375,0,0,0-3.1-.62,6.9,6.9,0,0,0-5.293,2.154,7.194,7.194,0,0,0-2.008,5.074,7.1,7.1,0,0,0,.512,2.665,6.057,6.057,0,0,0,1.533,2.226,7.246,7.246,0,0,0,2.263,1.644,6.936,6.936,0,0,0,2.993.62m24.385,9.856h8.981v28.328H166.067V175.041h8.908v6.789H196.95Zm0,14.529H174.975v5.987H196.95ZM206,149.707h9.711v7.885H206v13.873h-9.345V135.469H206Z" transform="translate(71.94 63.149)" fill="#fff"/><path d="M195.655,165.638h18.617V152.57h9.492v13.067h28.109v8.032H195.655Zm49.209-29.35q0,17.087-4.455,27.525l-9.052-1.241q3.5-11.17,3.5-18.325H202.152v-7.96Zm-40.156,54.539a11.135,11.135,0,0,1,1.679-6.132,14.459,14.459,0,0,1,4.38-4.381,20.569,20.569,0,0,1,6.1-2.629,27.52,27.52,0,0,1,6.9-.876,29.66,29.66,0,0,1,6.935.841,21.674,21.674,0,0,1,6.353,2.59,15.237,15.237,0,0,1,4.564,4.418,11.785,11.785,0,0,1,.109,12.3,14.476,14.476,0,0,1-4.381,4.38A22.16,22.16,0,0,1,231.1,204a27.585,27.585,0,0,1-7.047.913,28.3,28.3,0,0,1-6.972-.876,20.429,20.429,0,0,1-6.169-2.627,15.346,15.346,0,0,1-4.49-4.453,10.957,10.957,0,0,1-1.716-6.134m29.35.074a4.5,4.5,0,0,0-.876-2.774,7.473,7.473,0,0,0-2.264-1.972,11.907,11.907,0,0,0-3.212-1.1,18.631,18.631,0,0,0-3.651-.365,17.391,17.391,0,0,0-3.468.365,13.1,13.1,0,0,0-3.248,1.1,6.991,6.991,0,0,0-2.41,1.935,4.406,4.406,0,0,0-.95,2.811,4.263,4.263,0,0,0,.913,2.7,7.635,7.635,0,0,0,2.373,1.972,12.947,12.947,0,0,0,3.176,1.132,16.549,16.549,0,0,0,3.614.4,16.85,16.85,0,0,0,3.431-.365,13.228,13.228,0,0,0,3.212-1.1,7.23,7.23,0,0,0,2.41-1.9,4.377,4.377,0,0,0,.95-2.848" transform="translate(91.997 64.083)" fill="#fff"/><path d="M290.655,184.342v7.885H234.439v-7.885h18.617V163.313h9.49v21.028Zm-5.987-46.216a177.057,177.057,0,0,1-1.167,20.662,77.3,77.3,0,0,1-4.089,17.813l-8.834-1.751q1.242-4.527,2.08-8.433t1.351-7.41q.439-3.431.657-6.644t.219-6.279H241.009v-7.958Z" transform="translate(110.233 64.947)" fill="#fff"/></g></g></g></svg>