<svg xmlns="http://www.w3.org/2000/svg" xmlns:xlink="http://www.w3.org/1999/xlink" width="812" height="39.546" viewBox="0 0 812 39.546"><defs><clipPath id="a"><rect width="812" height="39.546" fill="none"/></clipPath></defs><g transform="translate(0 0)"><g transform="translate(0 0)" clip-path="url(#a)"><path d="M0,15.905H30.378v3.717H17.532V25h8.4V37.4H21.451V28.549H4.08V25h8.725V19.622H0ZM26.58,1.364a39.384,39.384,0,0,1-.161,4.282q-.2,1.94-.687,4.363A26.734,26.734,0,0,1,24.237,14.9L20,14.33a28.819,28.819,0,0,0,1.555-5.372,29.26,29.26,0,0,0,.423-3.635V5.2H3.515V1.364Z" transform="translate(0 0.858)" fill="#ffeb29"/><path d="M25.405,26.09a36.45,36.45,0,0,0,2.324-4.06,49.212,49.212,0,0,0,2.039-4.746,48.063,48.063,0,0,0,1.5-5.09,31.234,31.234,0,0,0,.767-5.251H19.791V3.389H36.6a45.61,45.61,0,0,1-.769,7.756q-.322,1.776-.849,3.8T33.687,19.1q-.809,2.182-1.878,4.424a38.186,38.186,0,0,1-2.526,4.463Zm26.7-13.856V15.87H46.735V35.664H42.211V.843h4.525V12.234Z" transform="translate(12.444 0.53)" fill="#ffeb29"/><path d="M51.227,26.01H61.892v3.756H40.078V26.01h6.463V16.4h4.686ZM59.507,3.429q0,1.857-.081,4.181T59.1,12.437q-.283,2.5-.748,5.008a32.8,32.8,0,0,1-1.231,4.727l-4.282-.891a12.058,12.058,0,0,0,.627-2.1q.381-1.615.787-3.717.364-2.06.625-4.3A28.863,28.863,0,0,0,55.1,7.185H41.734V3.429Zm14.26,10.906V17.97h-5.7V35.663H63.547V.844h4.525V14.335Z" transform="translate(25.199 0.531)" fill="#ffeb29"/><path d="M78.643,7.505a7.337,7.337,0,0,1,2.1,2.344,8.416,8.416,0,0,1,1.01,4.08,7.487,7.487,0,0,1-.707,3.311A7.343,7.343,0,0,1,79.129,19.7a8.368,8.368,0,0,1-2.847,1.534,11.189,11.189,0,0,1-3.455.526,11.03,11.03,0,0,1-3.272-.485,7.951,7.951,0,0,1-2.787-1.494,7.1,7.1,0,0,1-2-2.445,8.217,8.217,0,0,1-.829-3.412,8.114,8.114,0,0,1,.971-3.878,8.522,8.522,0,0,1,2.181-2.546H62.325V4.154h8.038V.4h4.727V4.154h8.079V7.505ZM72.827,18.13a4.249,4.249,0,0,0,3.07-1.212,4.4,4.4,0,0,0,1.253-3.313,4.946,4.946,0,0,0-1.132-3.313A3.958,3.958,0,0,0,72.827,8.96a4.014,4.014,0,0,0-3.091,1.293,4.755,4.755,0,0,0-1.191,3.352,4.591,4.591,0,0,0,1.171,3.272,4.054,4.054,0,0,0,3.111,1.253M86.481,38.084V27.946H69.716v-3.8h21.53V38.084ZM91.206,8.919h5.333v3.8H91.206v9.168H86.52V1.124h4.686Z" transform="translate(39.187 0.249)" fill="#ffeb29"/><path d="M90.532,26.09a36.969,36.969,0,0,0,2.324-4.06A49.618,49.618,0,0,0,94.9,17.284a48.056,48.056,0,0,0,1.494-5.09,31.214,31.214,0,0,0,.769-5.251H84.918V3.389h16.8a45.772,45.772,0,0,1-.767,7.756q-.325,1.776-.849,3.8T98.813,19.1q-.806,2.182-1.878,4.424a38.168,38.168,0,0,1-2.525,4.463ZM107.54.843h4.523V35.662H107.54Z" transform="translate(53.392 0.53)" fill="#ffeb29"/><path d="M131.212,33.994v3.635h-22.3V28.218h17.371V26.037H108.912V22.4h8.4V19.613H104.51V15.978h30.378v3.635H122.042V22.4h8.684v9.372H113.4v2.22ZM119.941,5.557a51.493,51.493,0,0,1-5.251,5.735,38.193,38.193,0,0,1-5.131,4l-2.948-3.029a33.144,33.144,0,0,0,3.414-2.585q1.634-1.415,3.049-2.909A38.138,38.138,0,0,0,115.62,3.8,31.552,31.552,0,0,0,117.558.992h4l11.432,11.634-3.313,2.707Z" transform="translate(65.71 0.624)" fill="#ffeb29"/><path d="M154.763.818V25.782h-4.686V16.9H142.6a8.723,8.723,0,0,1-1.173,1.253,10.492,10.492,0,0,1-13.39.02,8.459,8.459,0,0,1-2.847-6.847,8.46,8.46,0,0,1,2.847-6.846,10.04,10.04,0,0,1,6.686-2.4,10.175,10.175,0,0,1,6.7,2.383,7.649,7.649,0,0,1,1.5,1.738h7.15V.818Zm-15.108,10.5a5.594,5.594,0,0,0-1.5-4.078,4.605,4.605,0,0,0-6.867,0A5.593,5.593,0,0,0,129.8,11.32a5.6,5.6,0,0,0,1.494,4.08,4.605,4.605,0,0,0,6.867,0,5.6,5.6,0,0,0,1.5-4.08m-1.171,22.7h16.844v3.758H133.8V24.853h4.686ZM144.1,13.26h5.979V9.827h-5.9a13.541,13.541,0,0,1,.081,1.494,11.319,11.319,0,0,1-.163,1.94" transform="translate(78.716 0.515)" fill="#ffeb29"/><path d="M146.3,19.739h30.376v3.8H163.467V35.613h-4.806V23.536H146.3Zm20.035-2.1a32.783,32.783,0,0,0,.95-3.292c.228-1.011.41-1.985.546-2.928a27.51,27.51,0,0,0,.262-2.767q.061-1.4.06-2.928H148.8V1.885h23.752q0,1.373-.06,3.472t-.262,4.4q-.2,2.343-.586,4.6a24.734,24.734,0,0,1-.989,4Z" transform="translate(91.986 1.186)" fill="#ffeb29"/><path d="M176.165,22.405c-.43-.081-.862-.174-1.292-.283a7.9,7.9,0,0,1-2.95-1.534,7.284,7.284,0,0,1-2.059-2.565,9.023,9.023,0,0,1-.849-3.7,7.812,7.812,0,0,1,.625-3.191,11.315,11.315,0,0,1,1.717-2.707h-4.241V4.914h8.807V.471h4.686V4.914h8.8V8.47h-3.878a9.64,9.64,0,0,1,.829,1.373,13.5,13.5,0,0,1,.666,1.575q.242.85.425,1.616a5.94,5.94,0,0,1,.181,1.334,7.8,7.8,0,0,1-.726,3.412,7.6,7.6,0,0,1-1.981,2.565A8.588,8.588,0,0,1,182.024,22a6.648,6.648,0,0,1-1.253.363v4.363h9.9v3.878H166.834V26.728h9.331Zm-2.624-8.038a5.066,5.066,0,0,0,1.414,3.352,4.509,4.509,0,0,0,3.393,1.334,4.681,4.681,0,0,0,3.332-1.274,4.508,4.508,0,0,0,1.353-3.453,5.237,5.237,0,0,0-1.233-3.534,4.307,4.307,0,0,0-3.453-1.435,4.406,4.406,0,0,0-3.455,1.375,5.716,5.716,0,0,0-1.352,3.635m22.9,21.569h-4.766V1.036h4.766Z" transform="translate(104.896 0.296)" fill="#ffeb29"/><path d="M214.746,28.176h12.846v3.756H197.216V28.176H210.06V19.126h4.686Zm-16.4-11.23A34.017,34.017,0,0,0,204,11.615a42.291,42.291,0,0,0,3.556-4.929,26.218,26.218,0,0,0,2.424-5.049h4.28l11.716,15.592-3.433,2.787q-2.749-3.594-4.606-6.059t-3.029-4.039q-1.334-1.818-2.181-2.989a39.246,39.246,0,0,1-3.676,5.23q-1.979,2.362-3.717,4.1A49.845,49.845,0,0,1,201.3,19.9Z" transform="translate(123.999 1.03)" fill="#ffeb29"/><path d="M239.414,22.954H217.6V19.076h5.816v-7.31h4.727v7.31h11.269Zm-8.442-7.593a48.479,48.479,0,0,0,1.272-6.1,33.577,33.577,0,0,0,.344-3.959H219.459V1.545h17.815q0,2.746-.243,5.412-.2,2.3-.666,4.888a21.3,21.3,0,0,1-1.353,4.645Zm-1.94,18.581H246.4v3.837H224.428v-12.6h4.6ZM251.169,12.25v3.758h-5.453V26.67h-4.6V.819h4.6V12.25Z" transform="translate(136.816 0.515)" fill="#ffeb29"/><path d="M249.478,6.151V2.676H268.02V6.151h-5.534l6.14,11.836-3.715,2.262L258.89,8.372a40.137,40.137,0,0,1-2.039,4.5q-1.112,2.082-2.121,3.657-1.053,1.615-1.88,2.645a12.717,12.717,0,0,1-1.15,1.313L248.429,17.7a24.83,24.83,0,0,0,2.6-3.231,35.48,35.48,0,0,0,1.959-3.272q.848-1.576,1.5-3.07c.3-.7.551-1.358.767-1.979ZM278,30.629a7.012,7.012,0,0,1-.93,3.635,8.806,8.806,0,0,1-2.422,2.666,11.385,11.385,0,0,1-3.435,1.575,14.469,14.469,0,0,1-7.655.021,10.613,10.613,0,0,1-3.372-1.555,8.4,8.4,0,0,1-2.485-2.626,7.152,7.152,0,0,1-.948-3.756,7.3,7.3,0,0,1,.909-3.717,8.161,8.161,0,0,1,2.4-2.626,11.041,11.041,0,0,1,3.414-1.515,16.6,16.6,0,0,1,3.9-.546,14.317,14.317,0,0,1,3.736.5,11.722,11.722,0,0,1,3.414,1.515,8.558,8.558,0,0,1,2.5,2.645A7.144,7.144,0,0,1,278,30.629m-10.7,4.767a8.182,8.182,0,0,0,2.14-.283,6.376,6.376,0,0,0,1.9-.849,4.779,4.779,0,0,0,1.373-1.515,4.179,4.179,0,0,0,.524-2.121,4.066,4.066,0,0,0-.524-2.1,5.084,5.084,0,0,0-1.332-1.5,6.71,6.71,0,0,0-1.94-.868,9.494,9.494,0,0,0-2.222-.344,7.808,7.808,0,0,0-2.08.283,6.4,6.4,0,0,0-1.878.847,4.765,4.765,0,0,0-1.375,1.515,4.667,4.667,0,0,0-.039,4.222,4.429,4.429,0,0,0,1.332,1.5,5.676,5.676,0,0,0,1.878.909,8.2,8.2,0,0,0,2.243.3m-.445-26.62h6.261V.818h4.645V21.379h-4.645V12.573h-6.261Z" transform="translate(156.199 0.515)" fill="#ffeb29"/><path d="M299.763,24.725H286.917V35.751H282.19V24.725H269.385V20.967h30.378ZM296.087,1.538V17.21H273.506V1.538h4.6V5.981H291.6V1.538ZM278.11,13.332H291.6V9.737H278.11Z" transform="translate(169.375 0.967)" fill="#ffeb29"/><path d="M290.094,16.926H320.47v3.635H307.624v3.433h8.847v8.886H298.9V34.86h18.177v3.393h-22.3V29.246h17.493V27.428H294.778V23.995H302.9V20.561H290.094Zm20.319-9.614a36.655,36.655,0,0,0,3.7,3.171q1.918,1.434,4.1,3.21l-2.948,2.788L305.606,8q-1.253,1.5-2.466,2.705a30.86,30.86,0,0,1-2.464,2.222,26.57,26.57,0,0,1-2.6,1.858,26,26,0,0,1-2.928,1.577l-2.585-3.031a39.059,39.059,0,0,0,4.484-2.6A20.8,20.8,0,0,0,301,7.311h-7.836V3.837h9.976V0h4.767V3.837h9.655V7.311Z" transform="translate(182.395 0)" fill="#ffeb29"/><path d="M340.3.818V25.782h-4.686V16.9h-7.473a8.723,8.723,0,0,1-1.173,1.253,10.489,10.489,0,0,1-13.388.02,8.461,8.461,0,0,1-2.85-6.847,8.462,8.462,0,0,1,2.85-6.846,10.035,10.035,0,0,1,6.683-2.4,10.176,10.176,0,0,1,6.706,2.383,7.647,7.647,0,0,1,1.5,1.738h7.15V.818Zm-15.108,10.5a5.594,5.594,0,0,0-1.5-4.078,4.6,4.6,0,0,0-6.865,0,5.587,5.587,0,0,0-1.5,4.078,5.589,5.589,0,0,0,1.5,4.08,4.6,4.6,0,0,0,6.865,0,5.6,5.6,0,0,0,1.5-4.08m-1.171,22.7h16.844v3.758h-21.53V24.853h4.686Zm5.616-20.762h5.977V9.827h-5.9a13.556,13.556,0,0,1,.081,1.494,11.493,11.493,0,0,1-.161,1.94" transform="translate(195.368 0.515)" fill="#ffeb29"/><path d="M361.427.818V25.782h-4.686V16.9h-7.473a8.719,8.719,0,0,1-1.173,1.253,10.492,10.492,0,0,1-13.39.02,8.465,8.465,0,0,1-2.849-6.847,8.466,8.466,0,0,1,2.849-6.846,10.042,10.042,0,0,1,6.684-2.4A10.176,10.176,0,0,1,348.1,4.453a7.647,7.647,0,0,1,1.5,1.738h7.15V.818Zm-15.108,10.5a5.594,5.594,0,0,0-1.5-4.078,4.6,4.6,0,0,0-6.865,0,5.587,5.587,0,0,0-1.5,4.078,5.589,5.589,0,0,0,1.5,4.08,4.6,4.6,0,0,0,6.865,0,5.6,5.6,0,0,0,1.5-4.08m-1.171,22.7h16.844v3.758h-21.53V24.853h4.686Zm5.614-20.762h5.979V9.827h-5.9a13.556,13.556,0,0,1,.081,1.494,11.316,11.316,0,0,1-.163,1.94" transform="translate(208.654 0.515)" fill="#ffeb29"/><path d="M352.963,19.739h30.378v3.8H370.132V35.613h-4.806V23.536H352.963ZM373,17.638a32.807,32.807,0,0,0,.95-3.292c.228-1.011.41-1.985.546-2.928a27.518,27.518,0,0,0,.262-2.767q.061-1.4.06-2.928H355.468V1.885H379.22q0,1.373-.06,3.472t-.262,4.4q-.2,2.343-.586,4.6a24.729,24.729,0,0,1-.99,4Z" transform="translate(221.924 1.186)" fill="#ffeb29"/><path d="M378.219,26.09a36.718,36.718,0,0,0,2.324-4.06,49.207,49.207,0,0,0,2.039-4.746,48.047,48.047,0,0,0,1.5-5.09,31.2,31.2,0,0,0,.767-5.251H372.6V3.389h16.8a45.772,45.772,0,0,1-.766,7.756q-.325,1.776-.85,3.8T386.5,19.1q-.809,2.182-1.878,4.424a38.405,38.405,0,0,1-2.525,4.463ZM395.227.843h4.525V35.662h-4.525Z" transform="translate(234.274 0.53)" fill="#ffeb29"/><path d="M414.184,22.954H392.372V19.076h5.816v-7.31h4.725v7.31h11.271Zm-8.442-7.593a48.758,48.758,0,0,0,1.272-6.1,33.559,33.559,0,0,0,.344-3.959H394.229V1.545h17.815q0,2.746-.243,5.412-.2,2.3-.668,4.888a21.122,21.122,0,0,1-1.352,4.645ZM403.8,33.941h17.369v3.837H399.2v-12.6h4.6ZM425.939,12.25v3.758h-5.453V26.67h-4.6V.819h4.6V12.25Z" transform="translate(246.702 0.515)" fill="#ffeb29"/><path d="M443.022,32.608H424.037V29.619q3.391-4.119,5.937-7.251t4.243-5.513a30.28,30.28,0,0,0,2.542-4.121,7.154,7.154,0,0,0,.85-3.07,4.275,4.275,0,0,0-.324-1.635,4.081,4.081,0,0,0-.888-1.353,4.816,4.816,0,0,0-1.415-.909,4.381,4.381,0,0,0-1.736-.344,6.528,6.528,0,0,0-1.878.283,13.029,13.029,0,0,0-1.88.726,17.164,17.164,0,0,0-1.818,1.051q-.848.567-1.534,1.091-.606-.728-1.192-1.516t-1.152-1.515a13.9,13.9,0,0,1,2.586-2.02,16.932,16.932,0,0,1,3.029-1.414,11.788,11.788,0,0,1,4.039-.647,9.932,9.932,0,0,1,3.575.627,9.079,9.079,0,0,1,2.847,1.717,7.547,7.547,0,0,1,1.819,2.626,8.165,8.165,0,0,1,.606,3.354,9.855,9.855,0,0,1-.748,3.109,24.582,24.582,0,0,1-1.678,3.354,40.86,40.86,0,0,1-2.342,3.453q-1.292,1.718-2.585,3.332t-2.505,3.07q-1.212,1.454-2.06,2.626h2.847c1.119,0,2.269-.013,3.456-.041h6.341Z" transform="translate(266.458 0.92)" fill="#ffeb29"/><path d="M458.756,17.2a31.882,31.882,0,0,1-.464,5.271,17.617,17.617,0,0,1-1.635,5.07,10.7,10.7,0,0,1-3.192,3.8,8.471,8.471,0,0,1-5.17,1.5,8.9,8.9,0,0,1-5.051-1.353,9.975,9.975,0,0,1-3.231-3.575,15.681,15.681,0,0,1-1.7-4.989,33.6,33.6,0,0,1-.485-5.715,34.473,34.473,0,0,1,.445-5.474,16.538,16.538,0,0,1,1.616-5.03A10.136,10.136,0,0,1,443.1,3a8.821,8.821,0,0,1,5.192-1.433,9.016,9.016,0,0,1,4.989,1.292,9.733,9.733,0,0,1,3.21,3.433,15.944,15.944,0,0,1,1.738,4.989,32.726,32.726,0,0,1,.525,5.919M448.294,28.626a3.866,3.866,0,0,0,2.886-1.13,7.63,7.63,0,0,0,1.718-2.828,16.322,16.322,0,0,0,.827-3.7,34.224,34.224,0,0,0,.223-3.775q0-1.092-.081-2.363t-.282-2.526A15.977,15.977,0,0,0,453,9.884a7.487,7.487,0,0,0-1.029-2.06,5.35,5.35,0,0,0-1.536-1.435,4.019,4.019,0,0,0-2.14-.544,3.9,3.9,0,0,0-2.909,1.109,7.2,7.2,0,0,0-1.656,2.808,15.587,15.587,0,0,0-.808,3.7,37.192,37.192,0,0,0-.2,3.738q0,1.656.163,3.655a15.487,15.487,0,0,0,.726,3.7,7.518,7.518,0,0,0,1.676,2.909,3.946,3.946,0,0,0,3.01,1.171" transform="translate(275.285 0.983)" fill="#ffeb29"/><path d="M471.816,32.608H452.831V29.619q3.391-4.119,5.937-7.251t4.243-5.513a30.28,30.28,0,0,0,2.542-4.121,7.154,7.154,0,0,0,.85-3.07,4.274,4.274,0,0,0-.324-1.635,4.08,4.08,0,0,0-.888-1.353,4.86,4.86,0,0,0-1.415-.909,4.381,4.381,0,0,0-1.736-.344,6.528,6.528,0,0,0-1.878.283,13.026,13.026,0,0,0-1.88.726,17.165,17.165,0,0,0-1.818,1.051q-.848.567-1.534,1.091-.606-.728-1.192-1.516t-1.151-1.515a13.9,13.9,0,0,1,2.586-2.02A16.935,16.935,0,0,1,458.2,2.11a11.787,11.787,0,0,1,4.039-.647,9.932,9.932,0,0,1,3.575.627,9.079,9.079,0,0,1,2.847,1.717,7.548,7.548,0,0,1,1.819,2.626,8.164,8.164,0,0,1,.606,3.354,9.9,9.9,0,0,1-.748,3.109,24.582,24.582,0,0,1-1.678,3.354,40.846,40.846,0,0,1-2.342,3.453q-1.292,1.718-2.585,3.332t-2.505,3.07q-1.212,1.454-2.06,2.626h2.847q1.679,0,3.455-.041h6.342Z" transform="translate(284.562 0.92)" fill="#ffeb29"/><path d="M486.423,32.608H467.438V29.619q3.391-4.119,5.937-7.251t4.243-5.513a30.28,30.28,0,0,0,2.542-4.121,7.153,7.153,0,0,0,.85-3.07,4.3,4.3,0,0,0-.323-1.635,4.11,4.11,0,0,0-.889-1.353,4.817,4.817,0,0,0-1.415-.909,4.381,4.381,0,0,0-1.736-.344,6.528,6.528,0,0,0-1.878.283,13.029,13.029,0,0,0-1.88.726,17.17,17.17,0,0,0-1.818,1.051c-.564.378-1.077.741-1.534,1.091q-.606-.728-1.192-1.516t-1.152-1.515a13.952,13.952,0,0,1,2.586-2.02A16.932,16.932,0,0,1,472.81,2.11a11.788,11.788,0,0,1,4.039-.647,9.926,9.926,0,0,1,3.575.627,9.079,9.079,0,0,1,2.847,1.717,7.547,7.547,0,0,1,1.819,2.626,8.164,8.164,0,0,1,.606,3.354,9.853,9.853,0,0,1-.748,3.109,24.394,24.394,0,0,1-1.678,3.354,40.845,40.845,0,0,1-2.342,3.453q-1.292,1.718-2.585,3.332t-2.505,3.07q-1.212,1.454-2.06,2.626h2.847q1.678,0,3.455-.041h6.342Z" transform="translate(293.746 0.92)" fill="#ffeb29"/><path d="M499.634,20.975H481.9V2.192h4.525V17.339h13.208Zm-7.513,13.048h16.885V37.78H487.4V24.853h4.725Zm2.99-29.205h8.645v-4h4.686V25.783h-4.686V14.634h-8.645V11h8.645V8.453h-8.645Z" transform="translate(302.994 0.515)" fill="#ffeb29"/></g></g></svg>