<svg xmlns="http://www.w3.org/2000/svg" width="355.699" height="21.024" viewBox="0 0 355.699 21.024">
  <g id="그룹_11642" data-name="그룹 11642" transform="translate(-5795 -1158.709)">
    <path id="패스_6194" data-name="패스 6194" d="M11.081,120.317a3.928,3.928,0,0,1-1.436-.54,10.553,10.553,0,0,1-1.482-1.068,6.73,6.73,0,0,1-1.265-1.44,6.56,6.56,0,0,1-.81-1.728,5.431,5.431,0,0,1-.729,1.68,7.875,7.875,0,0,1-1.208,1.464,10.6,10.6,0,0,1-1.505,1.08,4.029,4.029,0,0,1-1.46.552L0,119.213a4.653,4.653,0,0,0,1.927-.936,6.606,6.606,0,0,0,1.334-1.56,7.048,7.048,0,0,0,.809-1.872,17.03,17.03,0,0,0,.445-2.184q.114-1.08.137-2.2t.023-2.124v-.672H7.547a5.416,5.416,0,0,0-.011.6c.007.176.011.36.011.552q0,.985.058,2.028t.215,2.124a11.642,11.642,0,0,0,.457,2.052,7.19,7.19,0,0,0,.843,1.788,6.462,6.462,0,0,0,1.323,1.476,4.841,4.841,0,0,0,1.87.924Zm-.866-8.568h3.967q0-1.08.023-2.22t.023-2.268h2.758q0,5.137.023,10.176t.023,10.2h-2.8l-.046-14.4H10.215Z" transform="translate(5795 1052)" fill="#06c"/>
    <path id="패스_6195" data-name="패스 6195" d="M32.559,113.285v-3.624H21.934v-1.488H35.34v6.576H24.875v3.264H35.682v1.464h-5.54v4.2l7.318.024v1.488H20.019v-1.512h7.318v-4.2H24.875q-.547,0-1.038-.048a2.516,2.516,0,0,1-.878-.24,1.336,1.336,0,0,1-.649-.564,1.954,1.954,0,0,1-.239-1.02v-4.32Z" transform="translate(5795 1052)" fill="#06c"/>
    <path id="패스_6196" data-name="패스 6196" d="M44.8,117.245q-.979-4.224-1.937-8.616h2.872l2.69,12.7,3.648-12.432h3.648l3.307,12.48L61.9,108.629h2.782l-4.013,17.184H57.479l-3.625-13.344q-.867,3.264-1.859,6.528t-1.926,6.816H46.785q-1-4.344-1.983-8.568" transform="translate(5795 1052)" fill="#06c"/>
    <path id="패스_6197" data-name="패스 6197" d="M65.139,108.341h3.124v3.168H65.139Zm.068,5.16H68.24v12.192H65.207Z" transform="translate(5795 1052)" fill="#06c"/>
    <path id="패스_6198" data-name="패스 6198" d="M72.709,114.173a2.214,2.214,0,0,1,1.186-.96,4.922,4.922,0,0,1,.877-.264,4.8,4.8,0,0,1,.969-.1,4.919,4.919,0,0,1,2.554.588,4.219,4.219,0,0,1,1.527,1.548,6.547,6.547,0,0,1,.753,2.2,15.413,15.413,0,0,1,.205,2.532v5.976H77.907v-6.408a9.365,9.365,0,0,0-.1-1.332,4.344,4.344,0,0,0-.4-1.308,2.93,2.93,0,0,0-.8-.972,1.994,1.994,0,0,0-1.276-.4,2.084,2.084,0,0,0-1.175.324,2.629,2.629,0,0,0-.808.852,4.423,4.423,0,0,0-.48,1.284,7.279,7.279,0,0,0-.159,1.548v6.408H69.79V113.117h2.919Z" transform="translate(5795 1052)" fill="#06c"/>
    <rect id="사각형_539" data-name="사각형 539" width="10.328" height="2.616" transform="translate(5876.943 1168.837)" fill="#06c"/>
    <path id="패스_6199" data-name="패스 6199" d="M94.324,117.245q-.981-4.224-1.938-8.616h2.873l2.69,12.7,3.647-12.432h3.649l3.306,12.48,2.873-12.744h2.781l-4.013,17.184H107l-3.626-13.344q-.866,3.264-1.858,6.528t-1.926,6.816H96.307q-1-4.344-1.983-8.568" transform="translate(5795 1052)" fill="#06c"/>
    <path id="패스_6200" data-name="패스 6200" d="M114.66,108.341h3.123v3.168H114.66Zm.069,5.16h3.032v12.192h-3.032Z" transform="translate(5795 1052)" fill="#06c"/>
    <path id="패스_6201" data-name="패스 6201" d="M122.23,114.173a2.217,2.217,0,0,1,1.186-.96,4.947,4.947,0,0,1,.877-.264,4.811,4.811,0,0,1,.969-.1,4.917,4.917,0,0,1,2.554.588,4.23,4.23,0,0,1,1.528,1.548,6.568,6.568,0,0,1,.752,2.2,15.413,15.413,0,0,1,.205,2.532v5.976h-2.873v-6.408a9.365,9.365,0,0,0-.1-1.332,4.343,4.343,0,0,0-.4-1.308,2.943,2.943,0,0,0-.8-.972,2,2,0,0,0-1.277-.4,2.078,2.078,0,0,0-1.174.324,2.642,2.642,0,0,0-.809.852,4.422,4.422,0,0,0-.479,1.284,7.277,7.277,0,0,0-.16,1.548v6.408h-2.918V113.117h2.918Z" transform="translate(5795 1052)" fill="#06c"/>
    <path id="패스_6202" data-name="패스 6202" d="M143.365,109.541V111H140.4a4.6,4.6,0,0,1,1.871,1.944,4.034,4.034,0,0,1,.478,1.212,5.992,5.992,0,0,1,.137,1.26,5.156,5.156,0,0,1-.41,2.088,4.29,4.29,0,0,1-1.141,1.56,4.229,4.229,0,0,1-1.63,1.032,5.757,5.757,0,0,1-1.949.336,5.672,5.672,0,0,1-1.915-.324,4.574,4.574,0,0,1-1.642-1.02,5,5,0,0,1-1.14-1.56,4.879,4.879,0,0,1-.433-2.112,5.626,5.626,0,0,1,.149-1.272A4.931,4.931,0,0,1,135.112,111h-2.964v-1.464h4.218v-2.472h2.8v2.472Zm-5.608,2.28a1.8,1.8,0,0,0-1.071.324,2.72,2.72,0,0,0-.776.876,3.207,3.207,0,0,0-.456,1.128,5.974,5.974,0,0,0,0,2.544,3.743,3.743,0,0,0,.456,1.176,3.207,3.207,0,0,0,.776.816,1.886,1.886,0,0,0,2.166-.012,3.427,3.427,0,0,0,.774-.828,3.465,3.465,0,0,0,.456-1.152,6.094,6.094,0,0,0,.137-1.272,6.547,6.547,0,0,0-.125-1.26,3.346,3.346,0,0,0-.444-1.14,2.731,2.731,0,0,0-.776-.876,1.882,1.882,0,0,0-1.117-.324m10.123-4.512v5.16h3.261v1.488H147.88v13.728h-2.805V107.309Z" transform="translate(5795 1052)" fill="#06c"/>
    <path id="패스_6203" data-name="패스 6203" d="M169.152,119.141H151.3v-1.464h17.852Zm-12.9-5.784h11.194v1.464H155.336a1.837,1.837,0,0,1-1.38-.528,1.913,1.913,0,0,1-.513-1.392v-5.64h2.805Zm.615,12.816h10.374v1.464H156.111a2.078,2.078,0,0,1-1.471-.54,1.888,1.888,0,0,1-.581-1.452v-3.984h2.8Z" transform="translate(5795 1052)" fill="#06c"/>
    <path id="패스_6204" data-name="패스 6204" d="M189.809,111.557a3.614,3.614,0,0,1-.376,1.656,4.917,4.917,0,0,1-.97,1.32,5.612,5.612,0,0,1-1.378.936,7.748,7.748,0,0,1-1.585.576v2.448h7.638v1.488h-18.1v-1.488h7.637v-2.472a8.533,8.533,0,0,1-1.607-.552,4.865,4.865,0,0,1-2.348-2.256,3.615,3.615,0,0,1-.377-1.656,3.915,3.915,0,0,1,.525-2.052,4.274,4.274,0,0,1,1.39-1.428,6.409,6.409,0,0,1,1.836-.84,7.359,7.359,0,0,1,2.018-.288,7.86,7.86,0,0,1,2.007.264,5.96,5.96,0,0,1,1.823.816,5.086,5.086,0,0,1,1.346,1.452,3.893,3.893,0,0,1,.524,2.076m1.277,16.056h-11.1a2.03,2.03,0,0,1-1.493-.552,1.964,1.964,0,0,1-.559-1.464v-3.912h2.805v4.44h10.351Zm-4.1-16.08a3.19,3.19,0,0,0-.775-2.268,2.736,2.736,0,0,0-2.1-.828,2.828,2.828,0,0,0-2.154.828,3.156,3.156,0,0,0-.787,2.268q0,3.072,2.941,3.072a2.728,2.728,0,0,0,2.109-.828,3.182,3.182,0,0,0,.764-2.244" transform="translate(5795 1052)" fill="#06c"/>
    <path id="패스_6205" data-name="패스 6205" d="M210.4,107.189v5.016h3.237v1.464H210.4v13.944H207.57v-8.28a7.5,7.5,0,0,1-3.6,1.008h-6.634a2.085,2.085,0,0,1-1.494-.528,1.978,1.978,0,0,1-.558-1.512v-4.944H202.1v-4.008h-6.954v-1.488h9.781v6.96h-6.817v4.056h6.042a10.093,10.093,0,0,0,1.676-.144,8.361,8.361,0,0,0,1.744-.5v-11.04Z" transform="translate(5795 1052)" fill="#06c"/>
    <path id="패스_6206" data-name="패스 6206" d="M219.2,107.429a5.351,5.351,0,0,1,3.671,1.464,5.357,5.357,0,0,1,1.185,1.68,5.014,5.014,0,0,1,.434,2.088,4.91,4.91,0,0,1-.434,2.088,5.423,5.423,0,0,1-2.872,2.748,5.168,5.168,0,0,1-3.968,0,5.421,5.421,0,0,1-1.687-1.092,5.766,5.766,0,0,1-1.208-1.656,4.981,4.981,0,0,1,0-4.164,5.713,5.713,0,0,1,1.208-1.668,5.421,5.421,0,0,1,1.687-1.092,5.147,5.147,0,0,1,1.984-.4m0,1.44a1.7,1.7,0,0,0-1.118.4,3.463,3.463,0,0,0-.8.948,5.084,5.084,0,0,0-.456,1.272,5.851,5.851,0,0,0-.137,1.2,5.781,5.781,0,0,0,.137,1.212,4.054,4.054,0,0,0,.456,1.188,3.192,3.192,0,0,0,.8.96,1.736,1.736,0,0,0,1.118.384,1.643,1.643,0,0,0,1.117-.4,3.692,3.692,0,0,0,.775-.948,4.8,4.8,0,0,0,.445-1.2,5.454,5.454,0,0,0,.148-1.2,6.023,6.023,0,0,0-.137-1.212,5.632,5.632,0,0,0-.433-1.284,3.087,3.087,0,0,0-.764-.936,1.754,1.754,0,0,0-1.151-.384m1.048,11.856v5.448h10.4v1.464H219.47a2.044,2.044,0,0,1-1.447-.54,1.886,1.886,0,0,1-.581-1.452v-4.92Zm9.9,1.488h-2.805V107.261h2.805Z" transform="translate(5795 1052)" fill="#06c"/>
    <path id="패스_6207" data-name="패스 6207" d="M243.274,107.165a5.39,5.39,0,0,1,1.892.348,5.571,5.571,0,0,1,2.9,2.532,4.233,4.233,0,0,1,.478,2.04,4.012,4.012,0,0,1-.478,1.956,5.641,5.641,0,0,1-1.209,1.524,6,6,0,0,1-1.687.984,5.244,5.244,0,0,1-3.819,0,5.719,5.719,0,0,1-1.653-.984,5.1,5.1,0,0,1-1.208-1.524,4.172,4.172,0,0,1-.456-1.956,4.35,4.35,0,0,1,.456-2.016,4.769,4.769,0,0,1,1.208-1.512,5.265,5.265,0,0,1,3.58-1.392m0,1.464a1.673,1.673,0,0,0-1.061.348,3.329,3.329,0,0,0-.763.852,4.143,4.143,0,0,0-.457,1.152,5.155,5.155,0,0,0-.136,1.128,4.977,4.977,0,0,0,.136,1.08,3.818,3.818,0,0,0,.457,1.128,3.294,3.294,0,0,0,.741.84,1.63,1.63,0,0,0,1.06.36,1.668,1.668,0,0,0,1.06-.348,3.115,3.115,0,0,0,.741-.828,4.048,4.048,0,0,0,.468-1.14,4.734,4.734,0,0,0,.147-1.092,5.513,5.513,0,0,0-.136-1.176,3.835,3.835,0,0,0-.433-1.128,2.789,2.789,0,0,0-.753-.84,1.756,1.756,0,0,0-1.071-.336m10.556,15.24h-9.918v2.3h10.329v1.464h-11.1a2.078,2.078,0,0,1-1.471-.54,1.918,1.918,0,0,1-.581-1.476v-3.144h9.941v-2.256H240.857v-1.464H253.83Zm.251-6.984h-2.8v-9.624h2.8Z" transform="translate(5795 1052)" fill="#06c"/>
    <path id="패스_6208" data-name="패스 6208" d="M257.5,107.909h10.351V109.4h-3.762v2.256a10.01,10.01,0,0,0,1.209,4.68,7.331,7.331,0,0,0,1.481,1.92,5.035,5.035,0,0,0,2.03,1.128,2.6,2.6,0,0,1-.331.3,1.331,1.331,0,0,0-.262.252,1.958,1.958,0,0,1-.251.264c-.091.08-.2.184-.319.312a3.873,3.873,0,0,1-1.5-.5,7.229,7.229,0,0,1-1.46-1.08,8.54,8.54,0,0,1-1.231-1.464,5.912,5.912,0,0,1-.8-1.728,5.238,5.238,0,0,1-.763,1.776,9.358,9.358,0,0,1-1.2,1.44,7.745,7.745,0,0,1-1.5,1.02,5.784,5.784,0,0,1-1.5.54l-1.141-1.128a5.268,5.268,0,0,0,2.007-1.128,6.732,6.732,0,0,0,1.482-1.92,9.313,9.313,0,0,0,.889-2.3,10.115,10.115,0,0,0,.3-2.376V109.4H257.5Zm15.413,4.512h3.215v1.488h-3.215v13.728h-2.782V107.261h2.782Z" transform="translate(5795 1052)" fill="#06c"/>
    <path id="패스_6209" data-name="패스 6209" d="M292.954,107.189v20.424h-2.782v-8.28a7.885,7.885,0,0,1-3.67,1.008h-6.863a2.043,2.043,0,0,1-1.482-.528,2,2,0,0,1-.548-1.512v-4.944h6.818v-4.008H277.45v-1.488h9.781v6.96h-6.817v4.056h6.293a10.163,10.163,0,0,0,1.664-.144,9.246,9.246,0,0,0,1.8-.5v-11.04Z" transform="translate(5795 1052)" fill="#06c"/>
    <path id="패스_6210" data-name="패스 6210" d="M302.827,117.821a2.038,2.038,0,0,1-1.46-.54,1.936,1.936,0,0,1-.57-1.476V107.6h2.782v3.36h4.036V107.6h2.827v10.224Zm10.4,9.792v-5.856H302.461v-1.488h11.582a2.031,2.031,0,0,1,1.437.528,1.9,1.9,0,0,1,.57,1.464v5.352Zm-5.608-15.192h-4.036v3.912h4.036Zm11.7.192H316.05v5.664h-2.827V107.189h2.827v3.96h3.261Z" transform="translate(5795 1052)" fill="#06c"/>
    <path id="패스_6211" data-name="패스 6211" d="M335.407,107.189v3.768h3.214v1.44h-3.214v5.376h-2.873v-1.608a6.365,6.365,0,0,1-1.858.852,7.041,7.041,0,0,1-1.812.252H322.2a2.012,2.012,0,0,1-1.459-.552,1.948,1.948,0,0,1-.57-1.464v-3.624h6.909v-2.544h-7.068v-1.464h9.895v5.448h-6.931v2.736h6.042a10.981,10.981,0,0,0,1.756-.144,7.148,7.148,0,0,0,1.755-.528v-7.944Zm-.045,12.576v7.872H324.691a2.037,2.037,0,0,1-1.437-.528,1.9,1.9,0,0,1-.57-1.464v-5.88Zm-2.851,1.488h-7v4.9h7Z" transform="translate(5795 1052)" fill="#06c"/>
    <path id="패스_6212" data-name="패스 6212" d="M339.785,108.965h4.171v-2.256h2.873v2.256h4.127v1.488h-2.6a8.61,8.61,0,0,1,.7.612,3.546,3.546,0,0,1,.582.756,5.949,5.949,0,0,1,.41,1,3.831,3.831,0,0,1,.159,1.14,4.268,4.268,0,0,1-.273,1.6,4.636,4.636,0,0,1-.729,1.236,4.317,4.317,0,0,1-1.083.936,5.286,5.286,0,0,1-1.289.576v2.64h2.44q.456,0,.946-.048a7.19,7.19,0,0,0,.992-.168c.3-.063.6-.136.9-.216a3.717,3.717,0,0,0,.763-.288V107.357H355.7v20.376h-2.828v-6.144a3.669,3.669,0,0,1-.763.336c-.3.1-.619.184-.969.264a9.487,9.487,0,0,1-1.038.18,8.014,8.014,0,0,1-.923.06h-9.485v-1.488h4.263v-2.664a6.127,6.127,0,0,1-1.3-.528,3.631,3.631,0,0,1-1.073-.888,3.724,3.724,0,0,1-.717-1.2,4.851,4.851,0,0,1-.263-1.7,3.919,3.919,0,0,1,.171-1.188,6.333,6.333,0,0,1,.422-1.02,3.96,3.96,0,0,1,1.185-1.3h-2.6Zm5.563,1.824a1.638,1.638,0,0,0-.936.276,2.076,2.076,0,0,0-.661.732,4.634,4.634,0,0,0-.387,1.032,4.585,4.585,0,0,0-.137,1.1,4.981,4.981,0,0,0,.137,1.152,3.347,3.347,0,0,0,.387.984,1.671,1.671,0,0,0,1.6,1.008,1.824,1.824,0,0,0,1.642-1.032,3.726,3.726,0,0,0,.386-.984,4.634,4.634,0,0,0,.138-1.128,4.361,4.361,0,0,0-.138-1.056,4.614,4.614,0,0,0-.386-1.032,2.344,2.344,0,0,0-.685-.768,1.623,1.623,0,0,0-.957-.288" transform="translate(5795 1052)" fill="#06c"/>
  </g>
</svg>
