<svg id="그룹_11614" data-name="그룹 11614" xmlns="http://www.w3.org/2000/svg" width="479.769" height="49.339" viewBox="0 0 479.769 49.339">
  <path id="패스_6021" data-name="패스 6021" d="M4.824,32.351q2.452-1.956,4.768-4a61.617,61.617,0,0,0,4.438-4.328,26.919,26.919,0,0,0,3.776-5.265v.055q1.377-3.417.745-5.54t-4-3.611l.055.056a9.673,9.673,0,0,0-3.39-.5,14.944,14.944,0,0,0-3.391.5A16.047,16.047,0,0,0,4.6,11.044a17.567,17.567,0,0,0-2.729,1.819L1.047,5.807A35.335,35.335,0,0,1,6.7,3.906a25.29,25.29,0,0,1,5.981-.69,18.145,18.145,0,0,1,5.21.717,12.56,12.56,0,0,1,4.217,2.15,10.547,10.547,0,0,1,2.867,3.694,11.975,11.975,0,0,1,1.047,5.182,9.152,9.152,0,0,1-.221,1.985,16.625,16.625,0,0,1-.551,1.929l.055-.055a16.962,16.962,0,0,1-2.618,5.127A44.957,44.957,0,0,1,18.3,29.127q-2.481,2.535-4.989,4.713T8.931,37.561l17.7-.221v6.505q-7.388,0-13.837-.082T0,43.68v-7a57.89,57.89,0,0,1,4.824-4.327" transform="translate(0 -0.57)" fill="#06c"/>
  <path id="패스_6022" data-name="패스 6022" d="M32.227,23.778a37.55,37.55,0,0,1,.717-7.277,21.526,21.526,0,0,1,2.426-6.615,13.646,13.646,0,0,1,4.438-4.823,12.241,12.241,0,0,1,6.918-1.847,12.113,12.113,0,0,1,8.6,3.308,15.379,15.379,0,0,1,2.728,3.556,24.975,24.975,0,0,1,1.9,4.327A29.783,29.783,0,0,1,61,19.093a33.447,33.447,0,0,1-.469,11.963,23.214,23.214,0,0,1-2.508,6.615,14.683,14.683,0,0,1-4.548,4.824,11.948,11.948,0,0,1-6.753,1.846,11.734,11.734,0,0,1-6.918-1.957,14.476,14.476,0,0,1-4.438-4.989,21.526,21.526,0,0,1-2.426-6.615,36.2,36.2,0,0,1-.717-7m7.222,2.095a23.4,23.4,0,0,0,.359,3.8A16.728,16.728,0,0,0,40.992,33.7a9.291,9.291,0,0,0,2.232,3.225,4.973,4.973,0,0,0,3.5,1.3,4.686,4.686,0,0,0,3.749-1.682,12.637,12.637,0,0,0,2.26-4,24.618,24.618,0,0,0,1.075-4.768,34.246,34.246,0,0,0,.3-4,32.578,32.578,0,0,0-.331-4.19,23.422,23.422,0,0,0-1.158-4.8,12.775,12.775,0,0,0-2.315-3.941,4.579,4.579,0,0,0-3.583-1.627,4.8,4.8,0,0,0-3.418,1.3A9.629,9.629,0,0,0,41.1,13.69a16.123,16.123,0,0,0-1.268,3.969,20.671,20.671,0,0,0-.386,3.694Z" transform="translate(-5.711 -0.57)" fill="#06c"/>
  <path id="패스_6023" data-name="패스 6023" d="M71.421,32.351q2.452-1.956,4.768-4a61.619,61.619,0,0,0,4.438-4.328A26.919,26.919,0,0,0,84.4,18.762v.055q1.377-3.417.745-5.54t-4-3.611l.055.056a9.673,9.673,0,0,0-3.39-.5,14.944,14.944,0,0,0-3.391.5A16.047,16.047,0,0,0,71.2,11.044a17.566,17.566,0,0,0-2.729,1.819l-.827-7.056a35.335,35.335,0,0,1,5.651-1.9,25.29,25.29,0,0,1,5.981-.69,18.145,18.145,0,0,1,5.21.717A12.56,12.56,0,0,1,88.7,6.083,10.547,10.547,0,0,1,91.57,9.776a11.975,11.975,0,0,1,1.047,5.182,9.153,9.153,0,0,1-.221,1.985,16.625,16.625,0,0,1-.551,1.929l.055-.055a16.962,16.962,0,0,1-2.618,5.127A44.956,44.956,0,0,1,84.9,29.127q-2.481,2.535-4.989,4.713t-4.383,3.722l17.7-.221v6.505q-7.388,0-13.837-.082T66.6,43.68v-7a57.891,57.891,0,0,1,4.824-4.327" transform="translate(-11.801 -0.57)" fill="#06c"/>
  <path id="패스_6024" data-name="패스 6024" d="M98.824,23.778a37.549,37.549,0,0,1,.717-7.277,21.526,21.526,0,0,1,2.426-6.615A13.646,13.646,0,0,1,106.4,5.063a12.241,12.241,0,0,1,6.918-1.847,12.113,12.113,0,0,1,8.6,3.308,15.38,15.38,0,0,1,2.728,3.556,24.975,24.975,0,0,1,1.9,4.327,29.784,29.784,0,0,1,1.047,4.686,33.447,33.447,0,0,1-.469,11.963,23.214,23.214,0,0,1-2.508,6.615,14.683,14.683,0,0,1-4.548,4.824,11.948,11.948,0,0,1-6.753,1.846,11.734,11.734,0,0,1-6.918-1.957,14.476,14.476,0,0,1-4.438-4.989,21.526,21.526,0,0,1-2.426-6.615,36.2,36.2,0,0,1-.717-7m7.222,2.095a23.4,23.4,0,0,0,.359,3.8,16.728,16.728,0,0,0,1.185,4.024,9.291,9.291,0,0,0,2.232,3.225,4.973,4.973,0,0,0,3.5,1.3,4.686,4.686,0,0,0,3.749-1.682,12.637,12.637,0,0,0,2.26-4,24.618,24.618,0,0,0,1.075-4.768,34.242,34.242,0,0,0,.3-4,32.578,32.578,0,0,0-.331-4.19,23.422,23.422,0,0,0-1.158-4.8,12.775,12.775,0,0,0-2.315-3.941,4.579,4.579,0,0,0-3.583-1.627,4.8,4.8,0,0,0-3.418,1.3,9.629,9.629,0,0,0-2.205,3.17,16.123,16.123,0,0,0-1.268,3.969,20.671,20.671,0,0,0-.386,3.694Z" transform="translate(-17.512 -0.57)" fill="#06c"/>
  <path id="패스_6025" data-name="패스 6025" d="M182.44,9.573a8.914,8.914,0,0,0,.992.055h6.119a2.926,2.926,0,0,0,.662-.055v4.355H182.44v14h-7.718V23.685a22.649,22.649,0,0,1-4.079,1.3,21.95,21.95,0,0,1-4.851.523H143.244v-4.41a2.229,2.229,0,0,0,.8.11h3.749q1.35,0,2.619-.11V10.785H157.8a3.133,3.133,0,0,0-.11,1.019v5.514q0,1.9.11,3.776h8.324a32.126,32.126,0,0,0,4.851-.331,21.7,21.7,0,0,0,3.749-.882V.2h7.718a2.513,2.513,0,0,0-.055.662v7.5q0,.607.055,1.213m-19.4-4.079H144.953V1.138h20.452a5.407,5.407,0,0,1,3.914,1.433,4.969,4.969,0,0,1,1.488,3.749v4.851a12.551,12.551,0,0,1-.221,2.288q-.221,1.186-.5,2.287-.331,1.1-.69,1.985A4.808,4.808,0,0,1,168.713,19h-6.726a10.533,10.533,0,0,0,.882-3.611q.165-2.066.165-4Zm14.113,25.193q4.134,3.253,4.135,7.718a8.641,8.641,0,0,1-1.158,4.383,11.893,11.893,0,0,1-3.087,3.5,15.481,15.481,0,0,1-4.465,2.26,17.422,17.422,0,0,1-10.778-.055,14.814,14.814,0,0,1-4.437-2.37,10.973,10.973,0,0,1-3-3.473,8.776,8.776,0,0,1-1.075-4.245,8.411,8.411,0,0,1,1.075-4.107,12.05,12.05,0,0,1,2.95-3.5,14.746,14.746,0,0,1,4.465-2.37,17.179,17.179,0,0,1,5.568-.882,15.605,15.605,0,0,1,9.813,3.142M171.69,43.035a6.767,6.767,0,0,0,1.819-4.631,6.262,6.262,0,0,0-.469-2.37,7.273,7.273,0,0,0-1.3-2.095,7.106,7.106,0,0,0-1.957-1.461,5.312,5.312,0,0,0-2.453-.578,5.823,5.823,0,0,0-2.426.524,6.191,6.191,0,0,0-1.985,1.405A6.462,6.462,0,0,0,161.05,38.4a6.632,6.632,0,0,0,.5,2.536,7.544,7.544,0,0,0,1.323,2.15,6.178,6.178,0,0,0,1.985,1.405,5.886,5.886,0,0,0,6.836-1.46" transform="translate(-25.383 -0.036)" fill="#06c"/>
  <path id="패스_6026" data-name="패스 6026" d="M215.8,31.365H197.446V27.01h6.946q3.087,0,7.083.027t8.187.028q4.135,0,8.1-.028t7.111-.027h7v4.355H223.521V47.793H215.8V31.365Zm-.055-25.414H202.077V1.541h35.116v4.41H223.576v.221a8.944,8.944,0,0,0,1.6,5.044,16.73,16.73,0,0,0,4.079,4.218,19.873,19.873,0,0,0,5.43,2.867,17.621,17.621,0,0,0,5.816,1.047l-3.694,3.308a20.9,20.9,0,0,1-5.072-.662,25.463,25.463,0,0,1-5.017-1.819,21.233,21.233,0,0,1-4.328-2.591,9.481,9.481,0,0,1-2.728-3.142,9.278,9.278,0,0,1-2.729,3.2,21.251,21.251,0,0,1-4.327,2.591,26.68,26.68,0,0,1-5.154,1.791,21.7,21.7,0,0,1-4.989.634l-3.638-3.308a17.368,17.368,0,0,0,5.871-1.075,21.426,21.426,0,0,0,5.486-2.895,15.9,15.9,0,0,0,4-4.163,9.058,9.058,0,0,0,1.572-5.044Z" transform="translate(-34.988 -0.273)" fill="#06c"/>
  <path id="패스_6027" data-name="패스 6027" d="M262.272,6.021h-8.71V1.611h25.414v4.41h-8.82V8.777a17.359,17.359,0,0,0,1.019,6.064,16.054,16.054,0,0,0,2.729,4.8,13.7,13.7,0,0,0,3.8,3.363,12.905,12.905,0,0,0,4.41,1.654l-3.8,3.308a13.915,13.915,0,0,1-3.666-1.02,18.764,18.764,0,0,1-3.61-2.012,16.661,16.661,0,0,1-3.06-2.674,8.451,8.451,0,0,1-1.791-3,8.186,8.186,0,0,1-1.709,3.032,14.778,14.778,0,0,1-2.977,2.646,19.692,19.692,0,0,1-3.722,2.012,14.726,14.726,0,0,1-3.666,1.02l-3.8-3.308a12.078,12.078,0,0,0,4.41-1.6,14.443,14.443,0,0,0,3.859-3.363,16.739,16.739,0,0,0,2.674-4.824,17.606,17.606,0,0,0,1.019-6.091ZM261.114,31.71h7.773V43.232h25.524v4.3h-27.95a5.522,5.522,0,0,1-3.859-1.351,4.839,4.839,0,0,1-1.488-3.776ZM284.929,11.2q.054-1.6.055-2.949V1.831c0-.257-.01-.486-.028-.69s-.027-.394-.027-.578v-.5h7.828V35.238h-7.828v-.882c0-.294.008-.625.027-.992s.028-.79.028-1.268V20.768q0-2.454-.055-5.265H276V11.2Z" transform="translate(-44.356 -0.012)" fill="#06c"/>
  <path id="패스_6028" data-name="패스 6028" d="M337.654,24.311V20.838a16.76,16.76,0,0,1-3.61,1.351,18.08,18.08,0,0,1-4.659.578H313.232a5.026,5.026,0,0,1-3.886-1.46,5.19,5.19,0,0,1-1.351-3.666V.276H315.6V18.413H329.77a28.447,28.447,0,0,0,4.383-.331,14.25,14.25,0,0,0,3.5-.937V2.756q0-.606-.027-1.13c-.02-.35-.028-.652-.028-.91V0h7.773a.224.224,0,0,0-.055.165V.551q0,.607.028,1.572t.027,2.012V8.269h7.718v4.355h-7.718V24.311ZM313.342,42.283V27.894H344.82v19.57H318.745a5.653,5.653,0,0,1-3.859-1.35,4.821,4.821,0,0,1-1.544-3.832m7.718.827H337.1V32.3H321.06Z" transform="translate(-54.578)" fill="#06c"/>
  <path id="패스_6029" data-name="패스 6029" d="M395.575,25.521V29.6a13.544,13.544,0,0,1,5.568,2.536,8.4,8.4,0,0,1,0,14.278,12.042,12.042,0,0,1-4.245,2.205,18.629,18.629,0,0,1-5.127.662,18.919,18.919,0,0,1-5.154-.662,12.558,12.558,0,0,1-4.328-2.205,8.547,8.547,0,0,1-3.914-7.111,8.687,8.687,0,0,1,3.914-7.167,14.447,14.447,0,0,1,5.678-2.536h-.11V25.521H369.5V21.11h6.946q3.142.056,7.111.055h16.318q3.969,0,7.111-.055h6.946v4.41ZM381.518,12.235a16.353,16.353,0,0,0,4.107-3.445,9.223,9.223,0,0,0,1.957-3.777H374.847V.6h33.738v4.41H395.851a7.586,7.586,0,0,0,1.957,3.8,18.49,18.49,0,0,0,4.272,3.418,23.882,23.882,0,0,0,5.127,2.426,17.137,17.137,0,0,0,5.347.827l-3.694,3.418a26.643,26.643,0,0,1-10.143-2.26q-5.348-2.37-7-5.733-1.654,3.419-7,5.733a26.19,26.19,0,0,1-10.2,2.26l-3.694-3.418a20.429,20.429,0,0,0,10.695-3.253M397.725,39.3a5.726,5.726,0,0,0-1.764-4.19,5.281,5.281,0,0,0-4.19-1.929,5.551,5.551,0,0,0-4.245,1.929,6.067,6.067,0,0,0-1.709,4.19,5.938,5.938,0,0,0,1.709,4.19,6.031,6.031,0,0,0,4.245,1.764,5.5,5.5,0,0,0,4.19-1.764,5.725,5.725,0,0,0,1.764-4.19" transform="translate(-65.477 -0.107)" fill="#06c"/>
  <path id="패스_6030" data-name="패스 6030" d="M442.037,37.9V28.309h7.718V37.9h17.586v4.3H424.507V37.9ZM449.81,6.865a18.126,18.126,0,0,0,1.405,6.946,13.983,13.983,0,0,0,4.218,5.678q5.843,4.8,11.3,4.851L463.317,27.7a20.028,20.028,0,0,1-4.989-.69,20.743,20.743,0,0,1-5.1-2.067,18.679,18.679,0,0,1-4.382-3.308,13.034,13.034,0,0,1-2.95-4.631,14.332,14.332,0,0,1-2.426,4.3,12.606,12.606,0,0,1-4.465,3.583A23.591,23.591,0,0,1,428.531,27.7l-3.418-3.363q5.512-.054,11.136-4.851a13.22,13.22,0,0,0,4.355-5.678,18.436,18.436,0,0,0,1.378-6.946V1.407h7.828a.159.159,0,0,0-.055.11v.331c0,.295.008.643.028,1.047s.027.827.027,1.268Z" transform="translate(-75.224 -0.249)" fill="#06c"/>
  <path id="패스_6031" data-name="패스 6031" d="M504.588,3.032a4.77,4.77,0,0,1,1.488,3.583,28.62,28.62,0,0,1-1.819,10.667,20.448,20.448,0,0,1-5.292,7.691q-7,6.34-14.94,6.836l-4.245-3.087a24.381,24.381,0,0,0,7.111-2.15,22.292,22.292,0,0,0,5.788-4.135A16.161,16.161,0,0,0,496.65,15.9a30.635,30.635,0,0,0,1.268-9.9H482.482V1.654h18.3a5.508,5.508,0,0,1,3.8,1.378m8.159,44.433V0h7.663V47.465Z" transform="translate(-85.019)" fill="#06c"/>
  <path id="패스_6032" data-name="패스 6032" d="M559.87,9.407H566.6V6.21q0-1.268.027-2.728t.028-2.343V.2h7.718a7.057,7.057,0,0,0-.055.882V21.507q0,1.572.055,3.17H566.6v-10.8h-6.505a11.717,11.717,0,0,1-1.543,4.107,12.584,12.584,0,0,1-2.867,3.28,14.325,14.325,0,0,1-3.969,2.178,13.8,13.8,0,0,1-4.741.8,13.661,13.661,0,0,1-9.206-3.528,12.29,12.29,0,0,1-2.867-3.859,10.9,10.9,0,0,1-1.047-4.741,10.536,10.536,0,0,1,1.019-4.576,12.533,12.533,0,0,1,2.784-3.8A14.074,14.074,0,0,1,551.408.918a15.718,15.718,0,0,1,3.887,1.929,13.512,13.512,0,0,1,2.922,2.95,9.913,9.913,0,0,1,1.654,3.61m-12.9-4.8a3.888,3.888,0,0,0-2.205.662,5.657,5.657,0,0,0-1.654,1.709,8.141,8.141,0,0,0-1.1,2.426,10.177,10.177,0,0,0-.386,2.756,10.808,10.808,0,0,0,.413,3.06,7.841,7.841,0,0,0,1.13,2.4,5.607,5.607,0,0,0,1.709,1.654,3.951,3.951,0,0,0,4.162.028,6.046,6.046,0,0,0,1.737-1.627,9.215,9.215,0,0,0,1.158-2.453,10.185,10.185,0,0,0,.441-3.06,11.168,11.168,0,0,0-.3-2.481A9.047,9.047,0,0,0,551.1,7.2a6.231,6.231,0,0,0-1.682-1.846,4.048,4.048,0,0,0-2.453-.745m26.847,43H547.8a5.482,5.482,0,0,1-3.969-1.433,4.969,4.969,0,0,1-1.488-3.749V27.82h7.773a.423.423,0,0,0-.055.165v.276c0,.295.008.653.027,1.075s.028.873.028,1.35V33.5H566.1V27.82h7.718V47.611Zm-23.7-4.355H566.1V37.963H550.113Z" transform="translate(-94.6 -0.036)" fill="#06c"/>
</svg>
