<svg id="레이어_1" data-name="레이어 1" xmlns="http://www.w3.org/2000/svg" viewBox="0 0 600.1 45.85"><defs><style>.cls-1{fill:#0075be;}</style></defs><path class="cls-1" d="M.57,13.15C.57,7,5.54,2.78,12.36,2.78S24.16,7,24.16,13.15s-5,10.38-11.8,10.38S.57,19.31.57,13.15ZM6.44,44.84V33.05h23V31h-23v-5H35.81V37.59h-23v2.18h24v5.07Zm.48-31.69c0,3.08,1.94,5.17,5.44,5.17s5.45-2.09,5.45-5.17S15.87,8,12.36,8,6.92,10.08,6.92,13.15Zm22.64,11V2.69H35.9V24.14Z" transform="translate(-0.57 -0.41)"/><path class="cls-1" d="M52.19,18.7V31.34a112.74,112.74,0,0,0,14.26-.85V35.7a120.48,120.48,0,0,1-17.67,1h-10v-5.4h7.05V18.7Zm3.41,8.71A115.76,115.76,0,0,0,57,10H40.16V4.58h23.4c0,7.91-.48,16.53-1.71,22.83ZM67.87,45.13V2.69h6.34V17.94h5v5.49h-5v21.7Z" transform="translate(-0.57 -0.41)"/><path class="cls-1" d="M102.24,8.75c0,4.83,2.75,9.52,7.73,12.46l-3.32,4.45a24.48,24.48,0,0,1-7.58-8A25,25,0,0,1,90.74,27l-4-4.07c5.44-3.6,8.95-9.09,8.95-14.16v-5h6.53ZM94.43,37.07c0-6,6.25-9.23,16-9.23s16,3.22,16,9.23-6.25,9.19-16,9.19S94.43,43,94.43,37.07Zm6.54,0c0,2.47,3,3.89,9.47,3.89s9.47-1.42,9.47-3.89-3-3.93-9.47-3.93S101,34.56,101,37.07Zm18.47-9.14V17h-3V26h-6.06V3.16h6.06V11.5h3V2.69h6.16V27.93Z" transform="translate(-0.57 -0.41)"/><path class="cls-1" d="M127.72,22.25h10.42V20.59c-5-.57-8-2.56-8-5.73,0-3.74,4.21-5.87,11.08-5.87s11.08,2.13,11.08,5.87c0,3.08-2.89,5.12-7.72,5.68V22.2a95.62,95.62,0,0,0,11-.8v4.26a120.48,120.48,0,0,1-17.67,1H127.72Zm.76-14.07V3.73H138V.41h6.35V3.73H154V8.18Zm5.63,36.66V34.61h22.83V33H134.11V28.5h29.18V38.59H140.46v1.75h23.78v4.5Zm2.37-30c0,1.14,1.56,1.71,4.74,1.71S146,16,146,14.86s-1.56-1.71-4.73-1.71S136.48,13.72,136.48,14.86Zm20.56,12V2.69h6.34v9h4.79v5.5h-4.79v9.66Z" transform="translate(-0.57 -0.41)"/><path class="cls-1" d="M208.42,25.33v9.42h-6.35V25.33H197v9.42h-6.34V25.33H177.4V20h27.32a48.4,48.4,0,0,0,1.52-11.27H181.52V3.45h31.35A79.85,79.85,0,0,1,211.07,20h5.45v5.31Zm-19.94,4.83v9.09h24.44v5.4H182.13V30.16Z" transform="translate(-0.57 -0.41)"/><path class="cls-1" d="M217.93,10.69V5.48h9.9V1.36h6.35V5.48h9.42v5.21ZM219.35,20c0-4.79,4.41-7.91,11.28-7.91S241.9,15.19,241.9,20s-4.41,7.9-11.27,7.9S219.35,24.76,219.35,20Zm3.7,17.76c0-5.55,6.15-8.53,15.77-8.53s15.77,3,15.77,8.53-6.16,8.52-15.77,8.52S223.05,43.28,223.05,37.74ZM225.79,20c0,1.84,1.52,2.88,4.84,2.88s4.83-1,4.83-2.88-1.52-2.89-4.83-2.89S225.79,18.13,225.79,20Zm3.79,17.76c0,2.18,2.94,3.41,9.24,3.41s9.24-1.23,9.24-3.41-2.94-3.41-9.24-3.41S229.58,35.56,229.58,37.74Zm13.08-25.53h4.73V2.69h6.35V28.74h-6.35V26h-4.73v-5.3h4.73V17.51h-4.73Z" transform="translate(-0.57 -0.41)"/><path class="cls-1" d="M270,4c7.06,0,11.51,6.16,11.51,16.82S277,37.59,270,37.59s-11.51-6.15-11.51-16.76S262.87,4,270,4Zm-6.54,16.82c0,8,2.23,12.5,6.54,12.5s6.54-4.55,6.54-12.5S274.24,8.28,270,8.28,263.44,12.82,263.44,20.83Zm24,24.25V2.73h5V45.08Z" transform="translate(-0.57 -0.41)"/><path class="cls-1" d="M306.39,9.79V5.67h10.23V1.6h5V5.67h10V9.79Zm1.52,9.38c0-4.69,4.4-7.77,11.08-7.77s11.08,3.08,11.08,7.77-4.45,7.72-11.08,7.72S307.91,23.81,307.91,19.17Zm4.74,25.62v-15h27.66v15Zm.28-25.62c0,2.42,2.13,3.69,6.06,3.69s6.06-1.27,6.06-3.69-2.13-3.74-6.06-3.74S312.93,16.75,312.93,19.17ZM335.33,34H317.62v6.68h17.71Zm.1-6.4V2.73h5V13.39h5.49v4.36H340.4v9.8Z" transform="translate(-0.57 -0.41)"/><path class="cls-1" d="M345.13,34.42c5.16-7.48,6.35-16.24,6.39-24.86h-4.4V5.29h9.28c.14,14-1.61,22.69-7.1,31.26Zm25.72,9.52V22.06H366a46.51,46.51,0,0,1-5.88,17.24l-4.21-2.23c5.21-8.47,6-18,6.11-27.51h-4.6V5.29h9.48c0,4.6-.05,8.67-.38,12.41h4.31V3.21h4.59V43.94ZM378.38,45V2.73H383V45Z" transform="translate(-0.57 -0.41)"/><path class="cls-1" d="M394.85,13.11V8.84h10.23V3.07h5V8.84h10v4.27Zm12.7,2.18c6.86,0,11.17,4.83,11.17,11.51s-4.31,11.5-11.17,11.5-11.13-4.83-11.13-11.5S400.68,15.29,407.55,15.29ZM401.44,26.8c0,4.4,2.08,7.34,6.11,7.34s6.15-2.94,6.15-7.34-2.08-7.35-6.15-7.35S401.44,22.39,401.44,26.8Zm22.45,18.28V2.73h5v17.1h6v4.36h-6V45.08Z" transform="translate(-0.57 -0.41)"/><path class="cls-1" d="M434.4,27.27V23.05h38.83v4.22Zm4.78-9.38V3.07h5V13.72H469v4.17Zm.14,26.71V30.68h5v9.66h25.15V44.6Z" transform="translate(-0.57 -0.41)"/><path class="cls-1" d="M484.88,24.62h10.47A158,158,0,0,0,513,23.86v5.21a111.81,111.81,0,0,1-11.51.9V44.41h-6.34V30H484.88ZM487,12.49c0-6,4.93-10,11.65-10s11.65,4,11.65,10-4.92,10-11.65,10S487,18.46,487,12.49Zm6.35,0c0,2.8,1.89,4.6,5.3,4.6s5.3-1.8,5.3-4.6-1.89-4.59-5.3-4.59S493.36,9.7,493.36,12.49Zm21.31,32.64v-7h-8.19V32.91h8.19V2.69H521V45.13Z" transform="translate(-0.57 -0.41)"/><path class="cls-1" d="M538.53,18.18V10H524.42V4.63h20.46V23.48H530.77v8.71h3.36a95.78,95.78,0,0,0,15.06-.89v5.21a90.47,90.47,0,0,1-15.06,1.08h-9.71V18.18Zm12.32,27V2.69h6.34V17.46h6V23h-6V45.13Z" transform="translate(-0.57 -0.41)"/><path class="cls-1" d="M570.26,8.56h4.83V4h6.16V23.2H564.1V4h6.16Zm-.38,36.28V33.05h23.49V31H569.88v-5h29.84V37.59H576.23v2.18h24.44v5.07Zm5.21-26.76v-4.4h-4.83v4.4Zm18.57,6.06V16.28H590.2v7.86h-6.06v-21h6.06v7.63h3.46V2.69h6.16V24.14Z" transform="translate(-0.57 -0.41)"/></svg>