<svg xmlns="http://www.w3.org/2000/svg" xmlns:xlink="http://www.w3.org/1999/xlink" width="241.809" height="51.161" viewBox="0 0 241.809 51.161">
  <defs>
    <clipPath id="clip-path">
      <rect id="사각형_536" data-name="사각형 536" width="25.185" height="27.296" transform="translate(199.629 23.514)" fill="none"/>
    </clipPath>
    <clipPath id="clip-path-2">
      <rect id="사각형_537" data-name="사각형 537" width="27.663" height="29.983" transform="translate(226.021 21.177)" fill="none"/>
    </clipPath>
  </defs>
  <g id="그룹_11640" data-name="그룹 11640" transform="translate(-5909.826 -1052)">
    <g id="그룹_11633" data-name="그룹 11633" transform="translate(5795 1052)" opacity="0.3">
      <g id="그룹_11632" data-name="그룹 11632">
        <g id="그룹_11631" data-name="그룹 11631" clip-path="url(#clip-path)">
          <path id="패스_6169" data-name="패스 6169" d="M214.444,37.21h9.941l-.588,2.5H199.629l.588-2.5h9.971l.573-2.432h-3.953a2.317,2.317,0,0,1-1.981-.816,2.5,2.5,0,0,1-.3-2.16l.55-2.336q.234-.991.5-2.064t.463-1.9q.2-.832.332-1.408a2.059,2.059,0,0,0,.1-.576h18.331l-.61,2.592H210.158l-.422,1.792H223.2l-.6,2.528H209.141l-.422,1.792h14.318l-.6,2.56h-7.417Zm5.176,7.712-1.387,5.888h-4.287c.046-.022.106-.187.178-.5s.165-.7.275-1.168q.174-.737.346-1.536t.331-1.472q.069-.416.158-.8c.061-.256.123-.522.189-.8h-3.648q-1.551,0-3.34-.016T205,44.506H202.42a6.547,6.547,0,0,0-1.042.032l.6-2.56h15.353a2.352,2.352,0,0,1,1.985.8,2.454,2.454,0,0,1,.3,2.144" fill="#06c"/>
        </g>
      </g>
    </g>
    <g id="그룹_11636" data-name="그룹 11636" transform="translate(5795 1052)" opacity="0.3">
      <g id="그룹_11635" data-name="그룹 11635">
        <g id="그룹_11634" data-name="그룹 11634" clip-path="url(#clip-path-2)">
          <path id="패스_6170" data-name="패스 6170" d="M242.294,36.221h10.919l-.645,2.742H226.021l.646-2.742h10.952l.63-2.672h-4.341a2.545,2.545,0,0,1-2.177-.9,2.746,2.746,0,0,1-.326-2.373l.6-2.566q.256-1.089.551-2.267t.509-2.091q.215-.914.364-1.546a2.289,2.289,0,0,0,.116-.633h20.136l-.671,2.847H237.587l-.463,1.968h14.792l-.655,2.777H236.469l-.463,1.968h15.728l-.662,2.812h-8.148Zm5.685,8.471-1.523,6.468h-4.708c.049-.024.115-.206.195-.545l.3-1.283q.19-.809.38-1.687c.126-.586.249-1.125.365-1.618q.073-.456.174-.878c.066-.281.134-.574.207-.879h-4.007q-1.7,0-3.67-.017t-3.77-.018h-2.838a7.2,7.2,0,0,0-1.143.035l.662-2.812h16.863a2.585,2.585,0,0,1,2.181.879,2.69,2.69,0,0,1,.33,2.355" fill="#06c"/>
        </g>
      </g>
    </g>
    <path id="패스_6172" data-name="패스 6172" d="M125.063,29.9a12.463,12.463,0,0,1-.627,3.984,10.862,10.862,0,0,1-1.79,3.336,8.909,8.909,0,0,1-2.793,2.436,8.55,8.55,0,0,1-3.728,1.044l-1.3-.96a9.7,9.7,0,0,0,3.351-1.3,7.4,7.4,0,0,0,2.257-2.3,9.165,9.165,0,0,0,1.255-3.024,16.8,16.8,0,0,0,.387-3.72H115.6V27.909h7.455a2.027,2.027,0,0,1,1.414.54,1.869,1.869,0,0,1,.593,1.452m3.169-2.712h2.805V47.613h-2.805Z" transform="translate(5795 1052)" fill="#06c"/>
    <path id="패스_6173" data-name="패스 6173" d="M147.2,31.341q0-.984.023-2.016t.022-2.04h2.783V37.6H147.2V32.829h-3.124a5.417,5.417,0,0,1-3.465,4.236,5.168,5.168,0,0,1-1.779.324,5.392,5.392,0,0,1-3.671-1.44,4.865,4.865,0,0,1-1.173-1.6,4.709,4.709,0,0,1-.445-2.028,4.586,4.586,0,0,1,.445-2.04,5.585,5.585,0,0,1,1.173-1.608,5.421,5.421,0,0,1,1.7-1.032,5.494,5.494,0,0,1,1.971-.36,5.48,5.48,0,0,1,4.447,2.364,4.717,4.717,0,0,1,.729,1.692Zm-8.368-2.592a1.736,1.736,0,0,0-1.1.348,3.066,3.066,0,0,0-.764.9,4.336,4.336,0,0,0-.468,1.164,4.991,4.991,0,0,0-.148,1.164,5.353,5.353,0,0,0,.137,1.164,3.773,3.773,0,0,0,.456,1.14,2.924,2.924,0,0,0,.775.924,1.752,1.752,0,0,0,1.1.348,1.78,1.78,0,0,0,1.1-.336,2.849,2.849,0,0,0,.764-.912,3.76,3.76,0,0,0,.456-1.152,5.453,5.453,0,0,0,.137-1.176,5.293,5.293,0,0,0-.137-1.164A4.088,4.088,0,0,0,140.68,30a3.029,3.029,0,0,0-.741-.888,1.7,1.7,0,0,0-1.106-.36m.32,18.888a2.058,2.058,0,0,1-1.459-.552,1.9,1.9,0,0,1-.593-1.464V39.4h2.8v2.52h7.09V39.4h2.828v8.232Zm7.842-4.224H139.9v2.76h7.091Z" transform="translate(5795 1052)" fill="#06c"/>
    <path id="패스_6174" data-name="패스 6174" d="M163.411,32.517q0-.216.012-.948T163.435,30v-1.62q0-.78-.024-1.116h2.6V47.637h-2.6V34.005h-1.686a6.851,6.851,0,0,1-.605,1.776,4.97,4.97,0,0,1-1.037,1.416,4.418,4.418,0,0,1-3.124,1.3,4.2,4.2,0,0,1-1.881-.432,5.178,5.178,0,0,1-1.539-1.152,5.594,5.594,0,0,1-1.048-1.644,5.117,5.117,0,0,1-.388-2,5.3,5.3,0,0,1,.388-2.028,5.207,5.207,0,0,1,1.048-1.644,5.356,5.356,0,0,1,1.539-1.164,4.108,4.108,0,0,1,1.881-.444,4.059,4.059,0,0,1,1.688.36,5.312,5.312,0,0,1,1.459.984,6.141,6.141,0,0,1,1.049,1.44,5.4,5.4,0,0,1,.57,1.752Zm-4.149.744a5.9,5.9,0,0,0-.547-2.328,3.732,3.732,0,0,0-.741-.96,1.454,1.454,0,0,0-1.015-.384,1.515,1.515,0,0,0-1.06.384,3.06,3.06,0,0,0-.7.96,3.707,3.707,0,0,0-.421,1.212,7.051,7.051,0,0,0-.1,1.116,7.708,7.708,0,0,0,.092,1.128,3.484,3.484,0,0,0,.41,1.2,2.947,2.947,0,0,0,.684.984,1.473,1.473,0,0,0,1.048.408,1.516,1.516,0,0,0,1.083-.4,4.1,4.1,0,0,0,.742-.948,5.762,5.762,0,0,0,.387-1.188,5.682,5.682,0,0,0,.137-1.188m8.186-6h2.622V47.637h-2.622Z" transform="translate(5795 1052)" fill="#06c"/>
    <path id="패스_6175" data-name="패스 6175" d="M172.1,38.277a7.051,7.051,0,0,0,2.474-1.368,7.952,7.952,0,0,0,1.675-2.04,8.951,8.951,0,0,0,.969-2.544,13.48,13.48,0,0,0,.309-2.928h-4.812V27.909h5.518a1.659,1.659,0,0,1,.878.2,2.3,2.3,0,0,1,.582.516,1.792,1.792,0,0,1,.284.72,4.945,4.945,0,0,1,.08.912c0,.24-.008.464-.022.672s-.039.424-.069.648h2.622V29.4q0-1.056-.023-2.208h2.6V40.821h-2.576V33.069h-2.9a9.022,9.022,0,0,1-2.486,3.912,10.885,10.885,0,0,1-1.88,1.38,8.039,8.039,0,0,1-2.064.852Zm5.837,2.592v5.256h11.674v1.488H177.137a2.02,2.02,0,0,1-1.448-.552,1.954,1.954,0,0,1-.581-1.488v-4.7Zm11.468.024h-2.53v-13.7h2.53Z" transform="translate(5795 1052)" fill="#06c"/>
    <path id="패스_6176" data-name="패스 6176" d="M212.134,34.9h9.941l-.588,2.5H197.319l.588-2.5h9.971l.574-2.432H204.5a2.317,2.317,0,0,1-1.981-.816,2.5,2.5,0,0,1-.3-2.16l.55-2.336q.234-.991.5-2.064t.463-1.9q.2-.832.332-1.408a2.111,2.111,0,0,0,.105-.576H222.5l-.61,2.592H207.849l-.423,1.792h13.468l-.6,2.528H206.832l-.422,1.792h14.318l-.6,2.56h-7.417Zm5.177,7.712L215.924,48.5h-4.287c.046-.022.106-.187.178-.5s.165-.7.275-1.168q.174-.737.346-1.536t.331-1.472c.046-.277.1-.544.158-.8s.123-.522.189-.8h-3.648q-1.551,0-3.34-.016T202.7,42.2h-2.584a6.547,6.547,0,0,0-1.042.032l.6-2.56h15.353a2.352,2.352,0,0,1,1.985.8,2.454,2.454,0,0,1,.3,2.144" transform="translate(5795 1052)" fill="#1d2088"/>
    <path id="패스_6177" data-name="패스 6177" d="M239.984,33.912H250.9l-.645,2.742H223.711l.646-2.742h10.952l.629-2.672H231.6a2.545,2.545,0,0,1-2.177-.9,2.746,2.746,0,0,1-.325-2.373l.6-2.566q.256-1.089.55-2.267t.51-2.091q.214-.914.364-1.546a2.255,2.255,0,0,0,.115-.633h20.136l-.67,2.847H235.277l-.463,1.968h14.792l-.655,2.777H234.159l-.463,1.968h15.728l-.663,2.812h-8.148Zm5.685,8.471-1.523,6.468h-4.708c.049-.024.115-.206.195-.545l.3-1.283q.19-.808.38-1.687c.126-.586.249-1.125.365-1.618q.074-.456.174-.878c.066-.281.134-.574.207-.879h-4.007q-1.7,0-3.67-.017t-3.77-.018h-2.838a7.2,7.2,0,0,0-1.143.035l.662-2.812h16.863a2.585,2.585,0,0,1,2.181.879,2.693,2.693,0,0,1,.33,2.355" transform="translate(5795 1052)" fill="#1d2088"/>
    <path id="패스_6178" data-name="패스 6178" d="M271.318,39.717a8.158,8.158,0,0,1-2.691.672,12.827,12.827,0,0,1-1.356.12q-.672.024-1.265.024h-2.234v7.1h-2.6v-7.1h-3.465V39.045h7.524q1.14,0,1.983-.012t1.6-.084a11.755,11.755,0,0,0,1.312-.2,7.427,7.427,0,0,0,1.2-.372V27.261H274.1V47.637h-2.782Zm-3.465-10.848h-6.841v2.64h6.522V33h-6.522v2.376h7.8v1.464h-8.55a2.059,2.059,0,0,1-1.459-.552,1.9,1.9,0,0,1-.593-1.464V27.429h9.645Z" transform="translate(5795 1052)" fill="#06c"/>
    <path id="패스_6179" data-name="패스 6179" d="M294.141,39.141H276.288V37.677h17.853Zm-12.9-5.784h11.2v1.464H280.324a1.835,1.835,0,0,1-1.379-.528,1.913,1.913,0,0,1-.513-1.392v-5.64h2.8Zm.616,12.816h10.374v1.464H281.1a2.078,2.078,0,0,1-1.471-.54,1.891,1.891,0,0,1-.581-1.452V41.661h2.8Z" transform="translate(5795 1052)" fill="#06c"/>
    <path id="패스_6180" data-name="패스 6180" d="M305.563,27.429a5.351,5.351,0,0,1,3.671,1.464,5.341,5.341,0,0,1,1.185,1.68,5.014,5.014,0,0,1,.434,2.088,4.91,4.91,0,0,1-.434,2.088,5.423,5.423,0,0,1-2.872,2.748,5.168,5.168,0,0,1-3.968,0,5.421,5.421,0,0,1-1.687-1.092,5.785,5.785,0,0,1-1.208-1.656,4.981,4.981,0,0,1,0-4.164,5.731,5.731,0,0,1,1.208-1.668,5.421,5.421,0,0,1,1.687-1.092,5.147,5.147,0,0,1,1.984-.4m0,1.44a1.7,1.7,0,0,0-1.117.4,3.466,3.466,0,0,0-.8.948,5.123,5.123,0,0,0-.456,1.272,5.853,5.853,0,0,0-.137,1.2,5.783,5.783,0,0,0,.137,1.212,4.082,4.082,0,0,0,.456,1.188,3.2,3.2,0,0,0,.8.96,1.731,1.731,0,0,0,1.117.384,1.643,1.643,0,0,0,1.117-.4,3.651,3.651,0,0,0,.775-.948,4.764,4.764,0,0,0,.445-1.2,5.454,5.454,0,0,0,.148-1.2,6.023,6.023,0,0,0-.137-1.212,5.584,5.584,0,0,0-.433-1.284,3.072,3.072,0,0,0-.764-.936,1.752,1.752,0,0,0-1.151-.384m1.049,11.856v5.448h10.4v1.464H305.836a2.046,2.046,0,0,1-1.447-.54,1.886,1.886,0,0,1-.581-1.452v-4.92Zm9.895,1.488h-2.8V27.261h2.8Z" transform="translate(5795 1052)" fill="#06c"/>
    <path id="패스_6181" data-name="패스 6181" d="M328.341,27.909V29.4h-2.828q0,1.656.137,3.2a14.179,14.179,0,0,0,.547,2.892,7.882,7.882,0,0,0,1.208,2.34A5,5,0,0,0,329.48,39.4l-1.139,1.008a3.488,3.488,0,0,1-1.289-.528,8.972,8.972,0,0,1-1.22-.96,9.62,9.62,0,0,1-1.026-1.344,4.865,4.865,0,0,1-.638-1.488,4.867,4.867,0,0,1-.639,1.488,10.77,10.77,0,0,1-1,1.344,7.73,7.73,0,0,1-1.266.96,3.965,3.965,0,0,1-1.288.528,5.738,5.738,0,0,0-.546-.5c-.2-.16-.388-.328-.571-.5a4.544,4.544,0,0,0,2.178-1.632,7.224,7.224,0,0,0,1.151-2.568,13.827,13.827,0,0,0,.513-2.94q.1-1.524.1-2.868h-2.828V27.909Zm3.9,5.04H334.4V27.261h2.622V47.637H334.4V34.413h-2.166V47.637h-2.6V27.261h2.6Z" transform="translate(5795 1052)" fill="#06c"/>
    <path id="패스_6182" data-name="패스 6182" d="M338.783,36.813h17.852v1.464H338.783Zm4.24-1.584a1.976,1.976,0,0,1-1.39-.48,1.888,1.888,0,0,1-.525-1.464V30.453h10.443v-1.8H340.926V27.189h13.429v4.752H343.913v1.8h10.83v1.488Zm1.3,9.192v1.7h10.465v1.488H343.594a2.073,2.073,0,0,1-1.483-.564,1.946,1.946,0,0,1-.593-1.476V43.029h10.055V41.373h-10.26V39.909h13.042v4.512Z" transform="translate(5795 1052)" fill="#06c"/>
    <path id="패스_6213" data-name="패스 6213" d="M187.448,13.855,198.9,18.429l-5.284-6.3Z" transform="translate(5795 1052)" fill="#3a45cc"/>
    <path id="패스_6214" data-name="패스 6214" d="M200.716,17.228,200.572,4.6,207.865,0Z" transform="translate(5795 1052)" fill="#1d2088"/>
    <path id="패스_6219" data-name="패스 6219" d="M271.887,14.076l-16,2.879,8.492-6.742Z" transform="translate(5795 1052)" fill="#1d2088"/>
    <path id="패스_6220" data-name="패스 6220" d="M253.856,14.923l1.489-11.195L249.319.506Z" transform="translate(5795 1052)" fill="#3a45cc"/>
  </g>
</svg>
