<svg id="그룹_11596" data-name="그룹 11596" xmlns="http://www.w3.org/2000/svg" width="559.112" height="65.945" viewBox="0 0 559.112 65.945">
  <path id="패스_5844" data-name="패스 5844" d="M49.123,110.419a12.673,12.673,0,0,1-.968,4.875,14.347,14.347,0,0,1-2.754,4.28,17.607,17.607,0,0,1-4.428,3.312,17.1,17.1,0,0,1-5.768,1.825v6.476H59.991v5.879H0v-5.879H24.786V124.71a18.981,18.981,0,0,1-5.844-1.862,16.971,16.971,0,0,1-4.429-3.274,12.752,12.752,0,0,1-3.8-9.155,11.749,11.749,0,0,1,1.489-5.805A15.245,15.245,0,0,1,16.3,99.924a19.255,19.255,0,0,1,6.067-3.163A24.44,24.44,0,0,1,30,95.608a27.2,27.2,0,0,1,7.332.966,20.218,20.218,0,0,1,6.14,2.829,13.743,13.743,0,0,1,4.13,4.652,13.046,13.046,0,0,1,1.526,6.363M19.947,154.7H53.292v5.806H16.673a7.763,7.763,0,0,1-5.173-1.786,6.342,6.342,0,0,1-2.121-5.136V140.935H19.947V154.7ZM38.7,110.419A9.111,9.111,0,0,0,36.4,103.98a8.3,8.3,0,0,0-6.4-2.494,8.44,8.44,0,0,0-8.932,8.932q0,4.318,2.159,6.55T30,119.2q4.315,0,6.513-2.494a9.172,9.172,0,0,0,2.2-6.29" transform="translate(0 -95.012)" fill="#06c"/>
  <path id="패스_5845" data-name="패스 5845" d="M95.855,130.571V96.334H106.2a2.77,2.77,0,0,0-.074.669v10.606q0,1.9.074,4.057h5.284q1.265,0,2.494.037t1.972.037h.6c.1,0,.149-.024.149-.074v5.954H106.2q-.074,6.028-.074,11.388v29.624q0,1.041.074,1.786H95.855V135.559q-2.234.892-4.986,1.711a21.609,21.609,0,0,1-6.178.819H63.255a7.221,7.221,0,0,1-5.284-1.9,6.622,6.622,0,0,1-1.936-4.949q0-2.234.038-4.243t.036-3.722v-5.434c0-.346-.012-.67-.036-.966s-.038-.57-.038-.82v-.743H78.067V104.3H55.44v-5.88H88.561v22.775H66.53v11.016H85.435a31.344,31.344,0,0,0,10.42-1.638" transform="translate(7.006 -94.92)" fill="#06c"/>
  <path id="패스_5846" data-name="패스 5846" d="M125.116,96.9a17.635,17.635,0,0,1,6.81,1.339,18.639,18.639,0,0,1,5.694,3.647,17.727,17.727,0,0,1,3.8,5.4,15.641,15.641,0,0,1,1.415,6.587,15.047,15.047,0,0,1-1.415,6.4,17.858,17.858,0,0,1-16.3,10.346,18.1,18.1,0,0,1-6.922-1.339,18.519,18.519,0,0,1-5.732-3.647,17.218,17.218,0,0,1-3.87-5.359,15.046,15.046,0,0,1-1.414-6.4A15.234,15.234,0,0,1,108.7,107.1a17.9,17.9,0,0,1,4.057-5.434A18.646,18.646,0,0,1,125.116,96.9m0,6.028a5.468,5.468,0,0,0-2.94.857,7.533,7.533,0,0,0-2.345,2.344,11.425,11.425,0,0,0-1.6,3.46,15.694,15.694,0,0,0-.558,4.28,15.114,15.114,0,0,0,.558,4.132,10.444,10.444,0,0,0,1.6,3.386,7.513,7.513,0,0,0,2.345,2.345,5.467,5.467,0,0,0,2.94.856,5.169,5.169,0,0,0,2.828-.856,8.536,8.536,0,0,0,2.382-2.345,12.335,12.335,0,0,0,1.562-3.35,14.113,14.113,0,0,0,.6-4.168,15.943,15.943,0,0,0-.447-3.573,13.994,13.994,0,0,0-1.339-3.573,8.5,8.5,0,0,0-2.308-2.716,5.254,5.254,0,0,0-3.274-1.08m-6.327,50.614V137.839h10.42v16.822h33.642v5.88H126.01a7.489,7.489,0,0,1-5.173-1.824,6.563,6.563,0,0,1-2.047-5.172m32-9.677v-2.084q0-1.042.037-2.382t.037-3.051V103.9q0-1.712-.037-3.051t-.037-2.308V96.532h10.42v47.337Z" transform="translate(13.544 -94.895)" fill="#06c"/>
  <path id="패스_5847" data-name="패스 5847" d="M188.709,96.268a18.97,18.97,0,0,1,6.847,1.228,18.416,18.416,0,0,1,5.582,3.313,16.712,16.712,0,0,1,3.8,5.024,13.692,13.692,0,0,1,1.415,6.141,13.146,13.146,0,0,1-1.415,5.954,15.916,15.916,0,0,1-3.8,4.912,18.039,18.039,0,0,1-5.618,3.424,19.068,19.068,0,0,1-13.658,0,18.124,18.124,0,0,1-5.582-3.424,16.442,16.442,0,0,1-3.759-4.949,13.563,13.563,0,0,1,.149-12.206,16.776,16.776,0,0,1,3.982-4.95,18.926,18.926,0,0,1,5.619-3.274,18.157,18.157,0,0,1,6.438-1.191m-8.485,35.576h43.392v17.12H191.463v5.805h33.568v5.805H188.337a7.216,7.216,0,0,1-5.4-1.935,6.916,6.916,0,0,1-1.9-5.061V143.308H213.2v-5.582H180.224Zm8.485-29.771a4.974,4.974,0,0,0-2.754.819,8.353,8.353,0,0,0-2.232,2.158,11.914,11.914,0,0,0-1.526,3.2,12.835,12.835,0,0,0-.037,7.368,10.139,10.139,0,0,0,1.488,3.127,8.007,8.007,0,0,0,2.159,2.307,4.788,4.788,0,0,0,2.828.893,5.174,5.174,0,0,0,2.828-.855,8,8,0,0,0,2.307-2.271,10.775,10.775,0,0,0,1.526-3.126,12.175,12.175,0,0,0,.559-3.647,14.577,14.577,0,0,0-.41-3.313,11.254,11.254,0,0,0-1.3-3.237,8.188,8.188,0,0,0-2.234-2.457,5.324,5.324,0,0,0-3.2-.968m25.232,25.381q.073-4.315.074-8.149V101.33q0-1.042-.037-1.972c-.026-.621-.037-1.129-.037-1.527V96.565h10.494v30.889Z" transform="translate(21.628 -94.929)" fill="#06c"/>
  <path id="패스_5848" data-name="패스 5848" d="M237.308,104.422H225.251V98.467h34.907v5.955H247.952v6.252a26.749,26.749,0,0,0,1.3,8.372,27.212,27.212,0,0,0,3.536,7.183,21.379,21.379,0,0,0,5.173,5.285,13.851,13.851,0,0,0,6.14,2.53l-5.136,4.54a14.528,14.528,0,0,1-5.1-1.34,24.4,24.4,0,0,1-4.949-2.977,22.587,22.587,0,0,1-4.02-3.982,11.559,11.559,0,0,1-2.232-4.353,13.533,13.533,0,0,1-2.345,4.391,21.344,21.344,0,0,1-3.907,3.871,23.364,23.364,0,0,1-4.949,2.94,18.289,18.289,0,0,1-5.1,1.451l-5.136-4.54a13.785,13.785,0,0,0,6.029-2.493,21.629,21.629,0,0,0,5.135-5.173,26.637,26.637,0,0,0,3.573-7.183,26.99,26.99,0,0,0,1.339-8.521Zm28.73-7.89h10.42a2.78,2.78,0,0,0-.074.67v11.052q0,1.973.074,4.132,2.752,0,4.54.037t2.9.038h1.786a8.5,8.5,0,0,0,1.191-.075v6.029h-10.42q-.074,5.88-.074,11.089v29.251c0,.694.025,1.291.074,1.786h-10.42V154.55q0-1.825.074-4.13V106.5q-.076-2.3-.074-4.168V96.532Z" transform="translate(27.957 -94.895)" fill="#06c"/>
  <path id="패스_5849" data-name="패스 5849" d="M321.135,130.571V96.334h10.42v64.084h-10.42V135.559a50.9,50.9,0,0,1-4.912,1.711,21.608,21.608,0,0,1-6.178.819H287.79a7.221,7.221,0,0,1-5.284-1.9,6.621,6.621,0,0,1-1.935-4.949q0-2.234.037-4.243t.037-3.722v-5.434c0-.346-.012-.67-.037-.966s-.037-.57-.037-.82v-.743H302.6V104.3H279.975v-5.88H313.1v22.775H291.065v11.016H310.64a32.716,32.716,0,0,0,5.768-.484,33.861,33.861,0,0,0,4.726-1.153" transform="translate(35.381 -94.92)" fill="#06c"/>
  <path id="패스_5850" data-name="패스 5850" d="M374.293,130.348H348.912a7.462,7.462,0,0,1-5.285-1.935,5.59,5.59,0,0,1-1.489-2.2,8.15,8.15,0,0,1-.446-2.792v-25.9h10.271a7.267,7.267,0,0,0-.037,1.637q.035,1.565.037,3.573V107.8H363.8V97.525h10.5v32.824ZM392.379,143.3v17.119H382.033V142.48H347.126v-5.955h38.107a7.313,7.313,0,0,1,5.285,1.861,6.806,6.806,0,0,1,1.861,4.913m-40.415-18.98H363.8V113.9H351.963Zm40.415-15.853H402.8v5.954a6.527,6.527,0,0,0-1.6-.074h-6.03q-1.3,0-2.791.074v17.343H382.033V96.334h10.346v12.132Z" transform="translate(43.18 -94.92)" fill="#06c"/>
  <path id="패스_5851" data-name="패스 5851" d="M430.58,122.236q1.412-.373,2.605-.633a7.628,7.628,0,0,0,2.009-.707V96.334h10.494v11.388h5.285q1.935,0,3.535.037a6.436,6.436,0,0,0,1.6-.037v6.1h-10.42v16.3H435.194v-4.316a16.481,16.481,0,0,1-2.2,1.116,18.387,18.387,0,0,1-2.717.893q-1.489.373-3.051.632a20.28,20.28,0,0,1-3.35.261H402.371a6.959,6.959,0,0,1-5.136-2.009,6.265,6.265,0,0,1-2.084-4.913q.073-1.712.074-3.163v-6.81q0-.373-.037-.745a5.944,5.944,0,0,1-.037-.6v-.446h22.4v-6.4h-23V97.6h33.419v18.086H405.645v6.923H424.55q1.712,0,3.2-.113t2.829-.259m-27.316,31.335q.073-2.605.074-4.949v-10.9c0-.4-.013-.781-.038-1.153s-.036-.681-.036-.931v-.818h42.275v25.679H410.557a7.327,7.327,0,0,1-5.284-1.786,6.654,6.654,0,0,1-2.01-5.136m10.42,1.116H435.12V140.768H413.684Z" transform="translate(49.86 -94.92)" fill="#06c"/>
  <path id="패스_5852" data-name="패스 5852" d="M456.274,107.881H448.98V102h13.473V95.079h10.493a3.172,3.172,0,0,0-.149,1v3.5a20.736,20.736,0,0,0,.149,2.419h13.4v5.881h-7.22a14.156,14.156,0,0,1,3.387,4.54,12.978,12.978,0,0,1,.409,10.047,15.956,15.956,0,0,1-2.234,4.019,16.471,16.471,0,0,1-3.46,3.238,14.472,14.472,0,0,1-4.28,2.047v6.922h7.965a43.959,43.959,0,0,0,6.215-.409,26.239,26.239,0,0,0,4.8-1.079V96.94h10.494q-.076.819-.074,1.935v60.511a16.228,16.228,0,0,0,.074,1.638H491.926V142.417q-2.159.743-5.1,1.451a26.475,26.475,0,0,1-6.214.707H448.607v-5.881h13.845v-7a13.371,13.371,0,0,1-4.317-2.084,16.049,16.049,0,0,1-3.35-3.275,14.03,14.03,0,0,1-2.27-4.019,12.794,12.794,0,0,1-.782-4.391,11.958,11.958,0,0,1,1.3-5.621,18.026,18.026,0,0,1,3.238-4.428m11.388.968a4.058,4.058,0,0,0-2.345.743,6.242,6.242,0,0,0-1.824,2.009,11.108,11.108,0,0,0-1.3,2.9,12.151,12.151,0,0,0-.037,6.662,10.341,10.341,0,0,0,1.265,2.864,6.4,6.4,0,0,0,1.824,2.122,4.029,4.029,0,0,0,2.419.782,4.2,4.2,0,0,0,2.457-.782,7.882,7.882,0,0,0,2.008-2.122,10.311,10.311,0,0,0,1.266-2.864,12,12,0,0,0,.446-3.237,13.083,13.083,0,0,0-.372-2.941,11.33,11.33,0,0,0-1.116-2.94,8.79,8.79,0,0,0-1.972-2.271,4.2,4.2,0,0,0-2.717-.929" transform="translate(56.691 -95.079)" fill="#06c"/>
</svg>
