<svg xmlns="http://www.w3.org/2000/svg" width="424.927" height="47.639" viewBox="0 0 424.927 47.639">
  <g id="그룹_11597" data-name="그룹 11597" transform="translate(-4387.542 -1996.52)">
    <path id="패스_5853" data-name="패스 5853" d="M117.58,224.388a16.6,16.6,0,0,1,1.445-1.218q1.023-.8,2.324-1.836t2.68-2.308a22.265,22.265,0,0,0,2.519-2.729,15.8,15.8,0,0,0,1.884-2.892,7.105,7.105,0,0,0,.78-3.054,3.044,3.044,0,0,0-.439-1.625,4.108,4.108,0,0,0-1.121-1.2,5.986,5.986,0,0,0-1.56-.7,5.874,5.874,0,0,0-1.625-.242,11.871,11.871,0,0,0-3.038.405,7.782,7.782,0,0,0-2.777,1.348l-.488-2.795a15.6,15.6,0,0,1,1.788-.78,16.4,16.4,0,0,1,1.982-.584,18.4,18.4,0,0,1,1.982-.275,9.339,9.339,0,0,1,1.82.015,9.889,9.889,0,0,1,2.713.683,7.7,7.7,0,0,1,2.194,1.365,6.743,6.743,0,0,1,1.445,2.03,6.145,6.145,0,0,1,.536,2.615,6.478,6.478,0,0,1-.586,2.583,15.863,15.863,0,0,1-1.527,2.713,28.179,28.179,0,0,1-2.209,2.763q-1.236,1.364-2.5,2.567-1.3,1.236-2.518,2.257t-2.194,1.74h11.925V227.9H117.58Z" transform="translate(4269.962 1802.618)" fill="#06c"/>
    <path id="패스_5854" data-name="패스 5854" d="M130.288,216.089a23.9,23.9,0,0,1,.389-4.24,13.017,13.017,0,0,1,1.365-3.947,8.461,8.461,0,0,1,2.583-2.876,7.086,7.086,0,0,1,4.143-1.122,6.918,6.918,0,0,1,4.062,1.138,8.884,8.884,0,0,1,2.632,2.892,13.678,13.678,0,0,1,1.4,3.947,21.97,21.97,0,0,1,.423,4.208,21.71,21.71,0,0,1-.423,4.191,13.684,13.684,0,0,1-1.4,3.933,8.942,8.942,0,0,1-2.632,2.94,6.847,6.847,0,0,1-4.062,1.153,6.982,6.982,0,0,1-4.094-1.135,8.462,8.462,0,0,1-2.6-2.926,12.923,12.923,0,0,1-1.381-3.931,23.065,23.065,0,0,1-.405-4.224m3.379.812a17.831,17.831,0,0,0,.227,2.633,11.7,11.7,0,0,0,.812,2.859,6.911,6.911,0,0,0,1.56,2.258,3.481,3.481,0,0,0,2.5.925,3.418,3.418,0,0,0,1.852-.487,4.833,4.833,0,0,0,1.365-1.3,7.227,7.227,0,0,0,.909-1.8,13.9,13.9,0,0,0,.552-2.1,19.649,19.649,0,0,0,.277-2.03q.08-.991.082-1.772,0-.746-.1-1.738a19.134,19.134,0,0,0-.325-2.063,18.008,18.008,0,0,0-.586-2.063,7.839,7.839,0,0,0-.909-1.836,5.219,5.219,0,0,0-1.348-1.317,3.147,3.147,0,0,0-1.772-.5,3.59,3.59,0,0,0-2,.536,4.53,4.53,0,0,0-1.381,1.413,7.619,7.619,0,0,0-.927,1.983,14.421,14.421,0,0,0-.5,2.241,18.873,18.873,0,0,0-.243,2.258q-.05,1.089-.049,1.9" transform="translate(4274.247 1802.631)" fill="#06c"/>
    <path id="패스_5855" data-name="패스 5855" d="M144.164,224.388a16.6,16.6,0,0,1,1.445-1.218q1.023-.8,2.324-1.836t2.68-2.308a22.266,22.266,0,0,0,2.519-2.729,15.8,15.8,0,0,0,1.884-2.892,7.105,7.105,0,0,0,.78-3.054,3.044,3.044,0,0,0-.439-1.625,4.108,4.108,0,0,0-1.121-1.2,5.986,5.986,0,0,0-1.561-.7,5.874,5.874,0,0,0-1.625-.242,11.871,11.871,0,0,0-3.038.405,7.782,7.782,0,0,0-2.777,1.348l-.488-2.795a15.6,15.6,0,0,1,1.788-.78,16.4,16.4,0,0,1,1.982-.584,18.4,18.4,0,0,1,1.982-.275,9.339,9.339,0,0,1,1.82.015,9.889,9.889,0,0,1,2.713.683,7.7,7.7,0,0,1,2.194,1.365,6.743,6.743,0,0,1,1.445,2.03,6.145,6.145,0,0,1,.536,2.615,6.478,6.478,0,0,1-.586,2.583,15.863,15.863,0,0,1-1.527,2.713,28.179,28.179,0,0,1-2.209,2.763q-1.236,1.364-2.5,2.567-1.3,1.236-2.518,2.257t-2.194,1.74H159.6V227.9H144.164Z" transform="translate(4278.925 1802.618)" fill="#06c"/>
    <path id="패스_5856" data-name="패스 5856" d="M156.872,216.089a23.9,23.9,0,0,1,.389-4.24,13.017,13.017,0,0,1,1.365-3.947,8.461,8.461,0,0,1,2.583-2.876,7.087,7.087,0,0,1,4.143-1.122,6.918,6.918,0,0,1,4.062,1.138,8.884,8.884,0,0,1,2.632,2.892,13.68,13.68,0,0,1,1.4,3.947,21.971,21.971,0,0,1,.423,4.208,21.712,21.712,0,0,1-.423,4.191,13.686,13.686,0,0,1-1.4,3.933,8.942,8.942,0,0,1-2.632,2.94,6.847,6.847,0,0,1-4.062,1.153,6.982,6.982,0,0,1-4.094-1.135,8.462,8.462,0,0,1-2.6-2.926,12.922,12.922,0,0,1-1.381-3.931,23.064,23.064,0,0,1-.405-4.224m3.379.812a17.831,17.831,0,0,0,.227,2.633,11.7,11.7,0,0,0,.812,2.859,6.911,6.911,0,0,0,1.56,2.258,3.481,3.481,0,0,0,2.5.925,3.418,3.418,0,0,0,1.852-.487,4.833,4.833,0,0,0,1.365-1.3,7.228,7.228,0,0,0,.909-1.8,13.9,13.9,0,0,0,.552-2.1,19.657,19.657,0,0,0,.277-2.03q.08-.991.082-1.772,0-.746-.1-1.738a19.138,19.138,0,0,0-.325-2.063,18,18,0,0,0-.586-2.063,7.839,7.839,0,0,0-.909-1.836,5.219,5.219,0,0,0-1.348-1.317,3.147,3.147,0,0,0-1.772-.5,3.59,3.59,0,0,0-2,.536,4.53,4.53,0,0,0-1.381,1.413,7.62,7.62,0,0,0-.927,1.983,14.423,14.423,0,0,0-.5,2.241A18.873,18.873,0,0,0,160.3,215q-.05,1.089-.049,1.9" transform="translate(4283.21 1802.631)" fill="#06c"/>
    <rect id="사각형_503" data-name="사각형 503" width="4.094" height="4.061" transform="translate(4457.92 2026.713)" fill="#06c"/>
    <path id="패스_5857" data-name="패스 5857" d="M180.175,207.907l-3.736,3.315-1.756-2.4,5.849-4.647h2.958a1.941,1.941,0,0,0-.033.39v.941q-.032.748-.032,2.194v4.013q0,2.565.016,6.481t.016,9.6h-3.281Z" transform="translate(4289.215 1802.722)" fill="#06c"/>
    <path id="패스_5858" data-name="패스 5858" d="M191.4,207.907l-3.736,3.315-1.756-2.4,5.849-4.647h2.958a1.941,1.941,0,0,0-.033.39v.941q-.032.748-.032,2.194v4.013q0,2.565.016,6.481t.016,9.6H191.4Z" transform="translate(4293 1802.722)" fill="#06c"/>
    <rect id="사각형_504" data-name="사각형 504" width="4.094" height="4.061" transform="translate(4492.72 2026.713)" fill="#06c"/>
    <path id="패스_5859" data-name="패스 5859" d="M206.2,207.907l-3.736,3.315-1.756-2.4,5.849-4.647h2.958a1.937,1.937,0,0,0-.033.39v.941q-.032.748-.032,2.194v4.013q0,2.565.016,6.481t.016,9.6H206.2Z" transform="translate(4297.99 1802.722)" fill="#06c"/>
    <path id="패스_5860" data-name="패스 5860" d="M226.159,207.737q-1.236-.517-2.291-.844a8.242,8.242,0,0,0-2.422-.325,5.176,5.176,0,0,0-2.859.813,7.357,7.357,0,0,0-2.143,2.111,9.432,9.432,0,0,0-1.3,2.908,8.859,8.859,0,0,0-.259,3.2,5.809,5.809,0,0,1,2.323-2,6.785,6.785,0,0,1,3.037-.731,7.915,7.915,0,0,1,3.038.568,7.22,7.22,0,0,1,2.388,1.577,7,7,0,0,1,1.56,2.406,8.329,8.329,0,0,1,.552,3.086,7.972,7.972,0,0,1-.618,3.184,7.2,7.2,0,0,1-1.69,2.436,7.812,7.812,0,0,1-2.582,1.609,8.737,8.737,0,0,1-3.169.568,6.7,6.7,0,0,1-6.6-3.93,12.4,12.4,0,0,1-1.169-3.867,30.51,30.51,0,0,1-.293-4.192,19.438,19.438,0,0,1,.586-4.89,11.133,11.133,0,0,1,1.852-3.949,8.664,8.664,0,0,1,3.184-2.616,10.76,10.76,0,0,1,4.776-.959,8.874,8.874,0,0,1,1.8.179q.86.179,1.772.439c.15.043.34.1.567.179a1.812,1.812,0,0,0,.473.114Zm-1.786,12.836a5.018,5.018,0,0,0-1.2-3.379,4.644,4.644,0,0,0-1.4-1.055,4.016,4.016,0,0,0-1.821-.407,4.212,4.212,0,0,0-1.607.341,4.773,4.773,0,0,0-1.479.959,5.2,5.2,0,0,0-1.1,1.527,4.425,4.425,0,0,0-.423,1.95,5.272,5.272,0,0,0,1.236,3.753,4.057,4.057,0,0,0,3.086,1.314,4.368,4.368,0,0,0,1.9-.407,4.8,4.8,0,0,0,1.512-1.119,4.933,4.933,0,0,0,.957-1.593,5.335,5.335,0,0,0,.342-1.885" transform="translate(4301.685 1802.631)" fill="#06c"/>
    <path id="패스_5861" data-name="패스 5861" d="M283.038,211.461q.293.748.666,1.478a6.123,6.123,0,0,0,.828,1.252,4.294,4.294,0,0,1-2,2.323,6.492,6.492,0,0,1-2.974.666,4.45,4.45,0,0,1-1.77-.356q-.828-.359-1.641-.781c-.543-.261-1.078-.508-1.607-.747a3.98,3.98,0,0,0-1.642-.357,1.91,1.91,0,0,0-.925.259,4.55,4.55,0,0,0-.893.65,5.956,5.956,0,0,0-.731.879,3.414,3.414,0,0,0-.439.844,11.525,11.525,0,0,1-.749-1.332,10.816,10.816,0,0,0-.78-1.364,4.149,4.149,0,0,1,.812-1.349,5,5,0,0,1,1.2-.959,5.581,5.581,0,0,1,1.413-.536,6.748,6.748,0,0,1,1.543-.179,4.447,4.447,0,0,1,1.706.342q.828.341,1.641.764c.542.281,1.088.536,1.641.762a4.442,4.442,0,0,0,1.706.342,1.94,1.94,0,0,0,.909-.261,5.182,5.182,0,0,0,.943-.649,5.632,5.632,0,0,0,.747-.845,2.1,2.1,0,0,0,.39-.845" transform="translate(4320.808 1805.179)" fill="#06c"/>
    <path id="패스_5862" data-name="패스 5862" d="M286.293,224.388a16.6,16.6,0,0,1,1.445-1.218q1.023-.8,2.323-1.836t2.681-2.308a22.152,22.152,0,0,0,2.518-2.729,15.738,15.738,0,0,0,1.885-2.892,7.087,7.087,0,0,0,.78-3.054,3.043,3.043,0,0,0-.439-1.625,4.125,4.125,0,0,0-1.121-1.2,5.985,5.985,0,0,0-1.56-.7,5.881,5.881,0,0,0-1.625-.242,11.863,11.863,0,0,0-3.038.405,7.8,7.8,0,0,0-2.779,1.348l-.488-2.795a15.8,15.8,0,0,1,1.788-.78,16.414,16.414,0,0,1,1.983-.584,18.446,18.446,0,0,1,1.982-.275,9.34,9.34,0,0,1,1.82.015,9.91,9.91,0,0,1,2.714.683,7.681,7.681,0,0,1,2.192,1.365,6.725,6.725,0,0,1,1.447,2.03,6.166,6.166,0,0,1,.535,2.615,6.477,6.477,0,0,1-.586,2.583,15.84,15.84,0,0,1-1.524,2.713,28.574,28.574,0,0,1-2.209,2.763c-.826.909-1.658,1.765-2.5,2.567q-1.3,1.236-2.518,2.257t-2.192,1.74h11.925V227.9H286.293Z" transform="translate(4326.847 1802.618)" fill="#06c"/>
    <path id="패스_5863" data-name="패스 5863" d="M299,216.089a23.774,23.774,0,0,1,.389-4.24,13.014,13.014,0,0,1,1.364-3.947,8.451,8.451,0,0,1,2.585-2.876,7.085,7.085,0,0,1,4.141-1.122,6.922,6.922,0,0,1,4.064,1.138,8.881,8.881,0,0,1,2.63,2.892,13.641,13.641,0,0,1,1.4,3.947,21.975,21.975,0,0,1,.424,4.208,21.715,21.715,0,0,1-.424,4.191,13.646,13.646,0,0,1-1.4,3.933,8.938,8.938,0,0,1-2.63,2.94,6.851,6.851,0,0,1-4.064,1.153,6.974,6.974,0,0,1-4.093-1.135,8.448,8.448,0,0,1-2.6-2.926,12.886,12.886,0,0,1-1.381-3.931,22.949,22.949,0,0,1-.405-4.224m3.378.812a17.666,17.666,0,0,0,.229,2.633,11.638,11.638,0,0,0,.812,2.859,6.888,6.888,0,0,0,1.559,2.258,3.486,3.486,0,0,0,2.5.925,3.415,3.415,0,0,0,1.852-.487,4.819,4.819,0,0,0,1.367-1.3,7.224,7.224,0,0,0,.908-1.8,13.59,13.59,0,0,0,.552-2.1,19.682,19.682,0,0,0,.277-2.03q.082-.991.082-1.772,0-.746-.1-1.738a19.115,19.115,0,0,0-.324-2.063,18.282,18.282,0,0,0-.586-2.063,7.841,7.841,0,0,0-.911-1.836,5.2,5.2,0,0,0-1.348-1.317,3.147,3.147,0,0,0-1.772-.5,3.59,3.59,0,0,0-2,.536,4.53,4.53,0,0,0-1.381,1.413,7.617,7.617,0,0,0-.925,1.983,14.585,14.585,0,0,0-.5,2.241,19.143,19.143,0,0,0-.243,2.258q-.048,1.089-.049,1.9" transform="translate(4331.132 1802.631)" fill="#06c"/>
    <path id="패스_5864" data-name="패스 5864" d="M312.875,224.388a16.668,16.668,0,0,1,1.447-1.218q1.023-.8,2.323-1.836t2.681-2.308a22.142,22.142,0,0,0,2.518-2.729,15.662,15.662,0,0,0,1.884-2.892,7.088,7.088,0,0,0,.781-3.054,3.044,3.044,0,0,0-.439-1.625,4.113,4.113,0,0,0-1.122-1.2,5.977,5.977,0,0,0-1.559-.7,5.881,5.881,0,0,0-1.625-.242,11.863,11.863,0,0,0-3.038.405,7.788,7.788,0,0,0-2.779,1.348l-.488-2.795a15.7,15.7,0,0,1,1.788-.78,16.348,16.348,0,0,1,1.983-.584,18.4,18.4,0,0,1,1.982-.275,9.34,9.34,0,0,1,1.82.015,9.889,9.889,0,0,1,2.713.683,7.67,7.67,0,0,1,2.193,1.365,6.747,6.747,0,0,1,1.447,2.03,6.165,6.165,0,0,1,.535,2.615,6.477,6.477,0,0,1-.586,2.583,15.852,15.852,0,0,1-1.526,2.713,28.179,28.179,0,0,1-2.209,2.763q-1.237,1.364-2.5,2.567-1.3,1.236-2.518,2.257t-2.193,1.74H328.31V227.9H312.875Z" transform="translate(4335.81 1802.618)" fill="#06c"/>
    <path id="패스_5865" data-name="패스 5865" d="M325.586,216.089a23.777,23.777,0,0,1,.389-4.24,13.016,13.016,0,0,1,1.364-3.947,8.452,8.452,0,0,1,2.585-2.876,7.085,7.085,0,0,1,4.141-1.122,6.922,6.922,0,0,1,4.064,1.138,8.881,8.881,0,0,1,2.63,2.892,13.64,13.64,0,0,1,1.4,3.947,21.977,21.977,0,0,1,.424,4.208,21.718,21.718,0,0,1-.424,4.191,13.645,13.645,0,0,1-1.4,3.933,8.938,8.938,0,0,1-2.63,2.94,6.851,6.851,0,0,1-4.064,1.153,6.975,6.975,0,0,1-4.093-1.135,8.448,8.448,0,0,1-2.6-2.926,12.886,12.886,0,0,1-1.381-3.931,22.946,22.946,0,0,1-.405-4.224m3.378.812a17.674,17.674,0,0,0,.229,2.633,11.638,11.638,0,0,0,.812,2.859,6.888,6.888,0,0,0,1.559,2.258,3.485,3.485,0,0,0,2.5.925,3.415,3.415,0,0,0,1.852-.487,4.82,4.82,0,0,0,1.367-1.3,7.227,7.227,0,0,0,.908-1.8,13.593,13.593,0,0,0,.552-2.1,19.657,19.657,0,0,0,.277-2.03q.082-.991.082-1.772,0-.746-.1-1.738a19.116,19.116,0,0,0-.324-2.063,18.281,18.281,0,0,0-.586-2.063,7.843,7.843,0,0,0-.911-1.836,5.2,5.2,0,0,0-1.348-1.317,3.147,3.147,0,0,0-1.772-.5,3.59,3.59,0,0,0-2,.536,4.53,4.53,0,0,0-1.381,1.413,7.618,7.618,0,0,0-.925,1.983,14.578,14.578,0,0,0-.5,2.241,19.163,19.163,0,0,0-.243,2.258q-.048,1.089-.049,1.9" transform="translate(4340.095 1802.631)" fill="#06c"/>
    <rect id="사각형_505" data-name="사각형 505" width="4.094" height="4.061" transform="translate(4683.518 2026.713)" fill="#06c"/>
    <path id="패스_5866" data-name="패스 5866" d="M348.887,207.907l-3.737,3.315-1.753-2.4,5.849-4.647H352.2a1.942,1.942,0,0,0-.033.39v.941q-.032.748-.032,2.194v4.013q0,2.565.016,6.481t.016,9.6h-3.281Z" transform="translate(4346.101 1802.722)" fill="#06c"/>
    <path id="패스_5867" data-name="패스 5867" d="M360.114,207.907l-3.737,3.315-1.753-2.4,5.849-4.647h2.956a1.939,1.939,0,0,0-.033.39v.941q-.032.748-.032,2.194v4.013q0,2.565.016,6.481t.016,9.6h-3.281Z" transform="translate(4349.886 1802.722)" fill="#06c"/>
    <rect id="사각형_506" data-name="사각형 506" width="4.094" height="4.061" transform="translate(4718.319 2026.713)" fill="#06c"/>
    <path id="패스_5868" data-name="패스 5868" d="M369.056,224.388a16.671,16.671,0,0,1,1.447-1.218q1.023-.8,2.323-1.836t2.681-2.308a22.147,22.147,0,0,0,2.518-2.729,15.665,15.665,0,0,0,1.884-2.892,7.088,7.088,0,0,0,.781-3.054,3.044,3.044,0,0,0-.439-1.625,4.113,4.113,0,0,0-1.122-1.2,5.977,5.977,0,0,0-1.559-.7,5.881,5.881,0,0,0-1.625-.242,11.863,11.863,0,0,0-3.038.405,7.788,7.788,0,0,0-2.779,1.348l-.488-2.795a15.7,15.7,0,0,1,1.788-.78,16.346,16.346,0,0,1,1.983-.584,18.4,18.4,0,0,1,1.982-.275,9.34,9.34,0,0,1,1.82.015,9.888,9.888,0,0,1,2.713.683,7.67,7.67,0,0,1,2.193,1.365,6.748,6.748,0,0,1,1.447,2.03,6.165,6.165,0,0,1,.535,2.615,6.477,6.477,0,0,1-.586,2.583,15.848,15.848,0,0,1-1.526,2.713,28.174,28.174,0,0,1-2.209,2.763q-1.238,1.364-2.5,2.567-1.3,1.236-2.518,2.257t-2.193,1.74h11.925V227.9H369.056Z" transform="translate(4354.752 1802.618)" fill="#06c"/>
    <path id="패스_5869" data-name="패스 5869" d="M383.876,224.569a6.7,6.7,0,0,0,2.275.78,14.327,14.327,0,0,0,2.373.227,5.909,5.909,0,0,0,3.054-.747,6.067,6.067,0,0,0,2.046-1.95,8.176,8.176,0,0,0,1.138-2.632,12.291,12.291,0,0,0,.357-2.924,9.56,9.56,0,0,1-2.956,1.559,7.3,7.3,0,0,1-1.429.245c-.477.032-.985.048-1.528.048a6.055,6.055,0,0,1-2.712-.616,7.073,7.073,0,0,1-2.194-1.69,8.124,8.124,0,0,1-1.495-2.388,7.353,7.353,0,0,1-.552-2.811,8.67,8.67,0,0,1,.57-3.2,6.9,6.9,0,0,1,4.078-4.013,9.035,9.035,0,0,1,3.216-.552,8.244,8.244,0,0,1,4.224.943,6.5,6.5,0,0,1,2.47,2.6,11.7,11.7,0,0,1,1.186,3.835,32.858,32.858,0,0,1,.309,4.615,25.25,25.25,0,0,1-.439,4.825,10.623,10.623,0,0,1-1.577,3.949,8.064,8.064,0,0,1-3.168,2.664A11.661,11.661,0,0,1,388,228.3a8.506,8.506,0,0,1-1.074-.082c-.412-.054-.822-.123-1.234-.21q-.65-.164-1.268-.342t-1.072-.341Zm1.722-13.095a6.125,6.125,0,0,0,.407,2.4,3.985,3.985,0,0,0,1.056,1.495,3.633,3.633,0,0,0,1.429.812,5.514,5.514,0,0,0,1.559.227,4.817,4.817,0,0,0,1.82-.341,3.9,3.9,0,0,0,1.462-1.023,4.91,4.91,0,0,0,.943-1.625,6.39,6.39,0,0,0,.358-2.209,4.4,4.4,0,0,0-.39-1.836,4.955,4.955,0,0,0-1.007-1.479,5.014,5.014,0,0,0-1.479-.975,4.269,4.269,0,0,0-1.706-.357,4.45,4.45,0,0,0-1.657.324,4.22,4.22,0,0,0-1.429.943,4.58,4.58,0,0,0-.992,1.544,5.594,5.594,0,0,0-.373,2.1" transform="translate(4359.201 1802.631)" fill="#06c"/>
    <path id="패스_5870" data-name="패스 5870" d="M277.125,220.233a23.82,23.82,0,1,1-23.82-23.819,23.82,23.82,0,0,1,23.82,23.819" transform="translate(4307.692 1800.106)" fill="#06c"/>
    <path id="패스_5871" data-name="패스 5871" d="M243.383,216.424h-5.1v-1.819h17.9v1.819H247.38v3.77h-4Zm3.054-12.25a14.188,14.188,0,0,1,2.308.211,10.41,10.41,0,0,1,2.4.7,6.405,6.405,0,0,1,1.836,1.4,3.031,3.031,0,0,1,.764,2.111,3.14,3.14,0,0,1-.731,2.161,5.146,5.146,0,0,1-1.868,1.316,10.887,10.887,0,0,1-2.4.65,15.332,15.332,0,0,1-2.308.2,13.576,13.576,0,0,1-2.225-.211,10.435,10.435,0,0,1-2.388-.7,6.037,6.037,0,0,1-1.836-1.348,2.926,2.926,0,0,1-.764-2.063,3.061,3.061,0,0,1,.731-2.079,5.742,5.742,0,0,1,1.868-1.4,8.418,8.418,0,0,1,2.355-.747,14.409,14.409,0,0,1,2.258-.2m14.948,17.806V227.8H246.015v2.015H261.97v2.015H244.944a3.02,3.02,0,0,1-2.079-.749,2.51,2.51,0,0,1-.845-1.98v-3.12h15.368v-2.015H241.662V221.98Zm-14.948-15.888a5.747,5.747,0,0,0-1.169.13,3.175,3.175,0,0,0-1.072.423,2.94,2.94,0,0,0-.861.812,1.936,1.936,0,0,0-.341,1.138,1.72,1.72,0,0,0,.357,1.122,3.056,3.056,0,0,0,.877.73,2.845,2.845,0,0,0,1.1.488,5.5,5.5,0,0,0,1.1.128,6.312,6.312,0,0,0,1.17-.114,3.211,3.211,0,0,0,1.138-.439,2.366,2.366,0,0,0,.829-.746,1.987,1.987,0,0,0,.34-1.17,1.935,1.935,0,0,0-.34-1.138,3.382,3.382,0,0,0-.8-.812,3.98,3.98,0,0,0-1.137-.423,5.914,5.914,0,0,0-1.2-.13m11.665-1.918h3.965v16.344H258.1V219.8H251.9v-2.014H258.1Z" transform="translate(4310.659 1802.723)" fill="#79d6f8"/>
    <path id="패스_5872" data-name="패스 5872" d="M447.374,220.233a23.82,23.82,0,1,1-23.82-23.819,23.82,23.82,0,0,1,23.82,23.819" transform="translate(4365.095 1800.106)" fill="#06c"/>
    <path id="패스_5873" data-name="패스 5873" d="M415.787,204.149a8.029,8.029,0,0,1,2.7.472,7.575,7.575,0,0,1,2.4,1.381,7.145,7.145,0,0,1,1.722,2.046,5.5,5.5,0,0,1,.683,2.763,5.214,5.214,0,0,1-.683,2.648,7.62,7.62,0,0,1-1.722,2.063,8.614,8.614,0,0,1-2.4,1.333,7.849,7.849,0,0,1-5.442,0,8.236,8.236,0,0,1-2.356-1.333,6.978,6.978,0,0,1-1.722-2.063,5.415,5.415,0,0,1-.65-2.648,5.646,5.646,0,0,1,.65-2.729,6.566,6.566,0,0,1,1.722-2.047,7.5,7.5,0,0,1,2.356-1.4,7.839,7.839,0,0,1,2.747-.488m0,1.983a2.465,2.465,0,0,0-1.511.471,4.617,4.617,0,0,0-1.088,1.154,5.4,5.4,0,0,0-.651,1.56,6.639,6.639,0,0,0-.194,1.526,6.406,6.406,0,0,0,.194,1.463,4.962,4.962,0,0,0,.651,1.526,4.443,4.443,0,0,0,1.056,1.138,2.4,2.4,0,0,0,1.51.488,2.459,2.459,0,0,0,1.511-.471,4.313,4.313,0,0,0,1.055-1.122,5.234,5.234,0,0,0,.667-1.543,6.1,6.1,0,0,0,.211-1.479,7.039,7.039,0,0,0-.2-1.591,5.027,5.027,0,0,0-.618-1.528,3.834,3.834,0,0,0-1.072-1.137,2.59,2.59,0,0,0-1.526-.455m15.044,20.633H416.7v3.12h14.718v1.983H415.59a3.055,3.055,0,0,1-2.1-.731,2.528,2.528,0,0,1-.828-2V224.88h14.167v-3.054H412.342v-1.982h18.489Zm.356-9.455h-4V204.28h4Z" transform="translate(4367.988 1802.714)" fill="#79d6f8"/>
  </g>
</svg>
