<svg xmlns="http://www.w3.org/2000/svg" xmlns:xlink="http://www.w3.org/1999/xlink" width="233.29" height="43.142" viewBox="0 0 233.29 43.142">
  <defs>
    <clipPath id="clip-path">
      <rect id="사각형_538" data-name="사각형 538" width="27.052" height="27.552" transform="translate(228.045 63.226)" fill="none"/>
    </clipPath>
  </defs>
  <g id="그룹_11641" data-name="그룹 11641" transform="translate(-5918.345 -1099.637)">
    <g id="그룹_11639" data-name="그룹 11639" transform="translate(5795 1052)" opacity="0.3">
      <g id="그룹_11638" data-name="그룹 11638">
        <g id="그룹_11637" data-name="그룹 11637" clip-path="url(#clip-path)">
          <path id="패스_6171" data-name="패스 6171" d="M241.108,66.554l-1.922,8.16H241.4a12.667,12.667,0,0,0,2.1-.16q.95-.161,1.892-.416l2.141-9.088.429-1.824H252.2q-.121.384-.354,1.376l-.46,1.952-.43,1.824c-.066.277-.113.523-.144.736H255.1l-.58,2.464H250.23l-1.583,6.72h-4.224l.481-2.048a10.944,10.944,0,0,1-2,.752,8.582,8.582,0,0,1-2.29.3H230.368a2.3,2.3,0,0,1-1.879-.8,2.4,2.4,0,0,1-.339-2.176l2.428-10.3h15.261l-.6,2.528h-4.135Zm-6.056,8.16,1.921-8.16h-2.856l-1.923,8.16Zm12.315,9.024-1.659,7.04h-4.2l1.758-7.456h-12.8l.6-2.528H245.11a2.314,2.314,0,0,1,1.972.8,2.489,2.489,0,0,1,.285,2.144" fill="#06c"/>
        </g>
      </g>
    </g>
    <path id="패스_6183" data-name="패스 6183" d="M141.038,79.045H133.6v8.568h-2.827V79.045h-7.432V77.581h12.266a5.854,5.854,0,0,0,.376-1.7q.057-.864.057-1.776V69.229H124.895V67.741h11.948a2.028,2.028,0,0,1,1.413.54,1.958,1.958,0,0,1,.593,1.524v4.368a7.812,7.812,0,0,1-.206,1.74,5.724,5.724,0,0,1-.661,1.668h3.056Z" transform="translate(5795 1052)" fill="#06c"/>
    <path id="패스_6184" data-name="패스 6184" d="M143.728,67.669H153.92v1.488h-3.671a10.108,10.108,0,0,0,1.231,5.208,6.6,6.6,0,0,0,1.493,1.716,5.2,5.2,0,0,0,2,1,1.92,1.92,0,0,1-.286.324c-.1.088-.186.164-.261.228-.107.1-.205.188-.3.276s-.2.188-.32.3a4.31,4.31,0,0,1-1.447-.468,7.586,7.586,0,0,1-1.471-.972,8.259,8.259,0,0,1-1.243-1.308,5,5,0,0,1-.808-1.524A5.29,5.29,0,0,1,148,75.5a7.953,7.953,0,0,1-1.221,1.284,5.891,5.891,0,0,1-2.986,1.416l-1.163-1.128a5.433,5.433,0,0,0,2.2-1.1,5.923,5.923,0,0,0,1.448-1.848,8.16,8.16,0,0,0,.844-2.34,13.452,13.452,0,0,0,.25-2.628h-3.648Zm12.7,19.968v-6H145.666V80.173H157.18a2.047,2.047,0,0,1,1.448.54,1.889,1.889,0,0,1,.582,1.452v5.472Zm.229-20.376h2.781l.023,10.9h-2.8Z" transform="translate(5795 1052)" fill="#06c"/>
    <path id="패스_6185" data-name="패스 6185" d="M162.424,67.909h10.35V69.4h-3.761v2.256a9.736,9.736,0,0,0,.307,2.376,9.624,9.624,0,0,0,.9,2.3,7.335,7.335,0,0,0,1.482,1.92,5.031,5.031,0,0,0,2.029,1.128,2.536,2.536,0,0,1-.331.3,1.326,1.326,0,0,0-.261.252,2.025,2.025,0,0,1-.251.264c-.091.08-.2.184-.32.312a3.878,3.878,0,0,1-1.5-.5,7.251,7.251,0,0,1-1.459-1.08,8.59,8.59,0,0,1-1.232-1.464,5.909,5.909,0,0,1-.8-1.728,5.278,5.278,0,0,1-.763,1.776,9.365,9.365,0,0,1-1.2,1.44,7.716,7.716,0,0,1-1.505,1.02,5.771,5.771,0,0,1-1.5.54l-1.14-1.128a5.271,5.271,0,0,0,2.006-1.128,6.731,6.731,0,0,0,1.482-1.92,9.313,9.313,0,0,0,.89-2.3,10.112,10.112,0,0,0,.3-2.376V69.4h-3.716Zm15.412,4.512h3.215v1.488h-3.215V87.637h-2.781V67.261h2.781Z" transform="translate(5795 1052)" fill="#06c"/>
    <path id="패스_6186" data-name="패스 6186" d="M191.994,72.517q0-.216.012-.948T192.018,70v-1.62q0-.78-.024-1.116h2.6V87.637h-2.6V74h-1.686a6.851,6.851,0,0,1-.6,1.776,4.97,4.97,0,0,1-1.037,1.416,4.418,4.418,0,0,1-3.124,1.3,4.2,4.2,0,0,1-1.881-.432,5.178,5.178,0,0,1-1.539-1.152,5.593,5.593,0,0,1-1.048-1.644,5.117,5.117,0,0,1-.388-2,5.3,5.3,0,0,1,.388-2.028,5.206,5.206,0,0,1,1.048-1.644,5.357,5.357,0,0,1,1.539-1.164,4.108,4.108,0,0,1,1.881-.444,4.059,4.059,0,0,1,1.688.36,5.311,5.311,0,0,1,1.459.984,6.141,6.141,0,0,1,1.049,1.44,5.4,5.4,0,0,1,.57,1.752Zm-4.149.744a5.9,5.9,0,0,0-.547-2.328,3.733,3.733,0,0,0-.741-.96,1.454,1.454,0,0,0-1.015-.384,1.515,1.515,0,0,0-1.06.384,3.061,3.061,0,0,0-.7.96,3.707,3.707,0,0,0-.421,1.212,7.052,7.052,0,0,0-.1,1.116,7.708,7.708,0,0,0,.092,1.128,3.484,3.484,0,0,0,.41,1.2,2.947,2.947,0,0,0,.684.984,1.473,1.473,0,0,0,1.048.408,1.516,1.516,0,0,0,1.083-.4,4.1,4.1,0,0,0,.742-.948,5.761,5.761,0,0,0,.387-1.188,5.682,5.682,0,0,0,.137-1.188m8.186-6h2.622V87.637h-2.622Z" transform="translate(5795 1052)" fill="#06c"/>
    <path id="패스_6187" data-name="패스 6187" d="M200.681,78.277a7.051,7.051,0,0,0,2.474-1.368,7.952,7.952,0,0,0,1.675-2.04,8.952,8.952,0,0,0,.969-2.544,13.479,13.479,0,0,0,.309-2.928H201.3V67.909h5.518a1.659,1.659,0,0,1,.878.2,2.3,2.3,0,0,1,.582.516,1.791,1.791,0,0,1,.284.72,4.945,4.945,0,0,1,.08.912c0,.24-.008.464-.022.672s-.039.424-.069.648h2.622V69.4q0-1.056-.023-2.208h2.6V80.821h-2.576V73.069h-2.9a9.022,9.022,0,0,1-2.486,3.912,10.885,10.885,0,0,1-1.88,1.38,8.038,8.038,0,0,1-2.064.852Zm5.837,2.592v5.256h11.674v1.488H205.72a2.021,2.021,0,0,1-1.448-.552,1.954,1.954,0,0,1-.581-1.488v-4.7Zm11.468.024h-2.53v-13.7h2.53Z" transform="translate(5795 1052)" fill="#06c"/>
    <path id="패스_6188" data-name="패스 6188" d="M238.8,64.245l-1.922,8.16H239.1a12.668,12.668,0,0,0,2.105-.16q.949-.161,1.892-.416l2.14-9.088.429-1.824h4.226q-.12.384-.354,1.376t-.459,1.952l-.43,1.824c-.066.277-.113.523-.144.736h4.286l-.58,2.464h-4.286l-1.583,6.72h-4.225l.482-2.048a10.945,10.945,0,0,1-2,.752,8.582,8.582,0,0,1-2.29.3H228.059a2.3,2.3,0,0,1-1.88-.8,2.4,2.4,0,0,1-.338-2.176l2.427-10.3h15.261l-.6,2.528H238.8Zm-6.056,8.16,1.921-8.16h-2.857l-1.922,8.16Zm12.314,9.024-1.658,7.04h-4.2l1.757-7.456h-12.8l.6-2.528H242.8a2.31,2.31,0,0,1,1.971.8,2.486,2.486,0,0,1,.285,2.144" transform="translate(5795 1052)" fill="#1d2088"/>
    <path id="패스_6189" data-name="패스 6189" d="M267.328,67.861v9.48h-7.639a2.048,2.048,0,0,1-1.447-.516,1.939,1.939,0,0,1-.559-1.5V67.861Zm-6.863,12.048H272.89v1.464h-4.856a4.976,4.976,0,0,0,.775,2.052,5.292,5.292,0,0,0,1.459,1.452,7.272,7.272,0,0,0,1.871.888,7.921,7.921,0,0,0,1.96.36q-.3.48-.513.768a4.178,4.178,0,0,0-.421.72,7.078,7.078,0,0,1-1.768-.3,8.875,8.875,0,0,1-1.881-.8,7.843,7.843,0,0,1-1.732-1.176,4.71,4.71,0,0,1-1.163-1.536,3.969,3.969,0,0,1-1.1,1.584,8,8,0,0,1-1.686,1.152,8.791,8.791,0,0,1-1.927.792,7.574,7.574,0,0,1-1.722.288l-1-1.512a8.811,8.811,0,0,0,1.938-.384,7.251,7.251,0,0,0,1.87-.888,5.988,5.988,0,0,0,1.436-1.44,4.679,4.679,0,0,0,.8-2.016h-4.765Zm4.036-10.56h-4.013v6.528H264.5Zm8.367,1.608h3.261V72.4h-3.261v5.352h-2.827V67.189h2.827Z" transform="translate(5795 1052)" fill="#06c"/>
    <path id="패스_6190" data-name="패스 6190" d="M294.141,79.141H276.288V77.677h17.853Zm-12.9-5.784h11.2v1.464H280.324a1.835,1.835,0,0,1-1.379-.528,1.913,1.913,0,0,1-.513-1.392v-5.64h2.8Zm.616,12.816h10.374v1.464H281.1a2.078,2.078,0,0,1-1.471-.54,1.891,1.891,0,0,1-.581-1.452V81.661h2.8Z" transform="translate(5795 1052)" fill="#06c"/>
    <path id="패스_6191" data-name="패스 6191" d="M311.217,69.9a12.463,12.463,0,0,1-.627,3.984,10.859,10.859,0,0,1-1.789,3.336,8.909,8.909,0,0,1-2.793,2.436A8.55,8.55,0,0,1,302.28,80.7l-1.3-.96a9.694,9.694,0,0,0,3.351-1.3,7.411,7.411,0,0,0,2.257-2.3,9.184,9.184,0,0,0,1.254-3.024,16.733,16.733,0,0,0,.388-3.72h-6.476V67.909h7.456a2.026,2.026,0,0,1,1.413.54,1.865,1.865,0,0,1,.593,1.452m3.17-2.712h2.8V87.613h-2.8Z" transform="translate(5795 1052)" fill="#06c"/>
    <path id="패스_6192" data-name="패스 6192" d="M333.356,71.341q0-.984.022-2.016t.024-2.04h2.781v10.32h-2.827V72.829h-3.124a5.27,5.27,0,0,1-1.847,3.288,5.292,5.292,0,0,1-3.4,1.272,5.382,5.382,0,0,1-3.671-1.44,4.856,4.856,0,0,1-1.175-1.6,4.722,4.722,0,0,1-.444-2.028,4.6,4.6,0,0,1,.444-2.04,5.572,5.572,0,0,1,1.175-1.608,5.412,5.412,0,0,1,1.7-1.032,5.5,5.5,0,0,1,1.973-.36,5.474,5.474,0,0,1,4.445,2.364,4.682,4.682,0,0,1,.729,1.692Zm-8.367-2.592a1.742,1.742,0,0,0-1.107.348,3.1,3.1,0,0,0-.764.9,4.4,4.4,0,0,0-.467,1.164,4.938,4.938,0,0,0-.148,1.164,5.292,5.292,0,0,0,.137,1.164,3.772,3.772,0,0,0,.456,1.14,2.923,2.923,0,0,0,.775.924,1.749,1.749,0,0,0,1.094.348,1.786,1.786,0,0,0,1.107-.336,2.859,2.859,0,0,0,.763-.912,3.785,3.785,0,0,0,.456-1.152,5.516,5.516,0,0,0,.137-1.176,5.353,5.353,0,0,0-.137-1.164A4.116,4.116,0,0,0,326.835,70a3.06,3.06,0,0,0-.741-.888,1.7,1.7,0,0,0-1.1-.36m.318,18.888a2.061,2.061,0,0,1-1.459-.552,1.9,1.9,0,0,1-.593-1.464V79.4h2.8v2.52h7.091V79.4h2.827v8.232Zm7.844-4.224H326.06v2.76h7.091Z" transform="translate(5795 1052)" fill="#06c"/>
    <path id="패스_6193" data-name="패스 6193" d="M338.783,76.621h17.852v1.464H338.783Zm5.54,7.8v1.7h10.465v1.488H343.594a2.069,2.069,0,0,1-1.483-.564,1.945,1.945,0,0,1-.593-1.476V83.029h10.055V81.373h-10.26V79.909h13.065v4.512Zm9.12-13.368a3.235,3.235,0,0,1-.558,1.932,4.712,4.712,0,0,1-1.38,1.284,6.486,6.486,0,0,1-1.881.684,9.689,9.689,0,0,1-1.9.2,9.894,9.894,0,0,1-1.95-.2,5.926,5.926,0,0,1-1.835-.684,4.172,4.172,0,0,1-1.414-1.26,3.33,3.33,0,0,1-.547-1.956,3.113,3.113,0,0,1,.559-1.86,4.8,4.8,0,0,1,1.425-1.308,7.074,7.074,0,0,1,1.87-.708,8.558,8.558,0,0,1,1.892-.228,9.172,9.172,0,0,1,1.9.216,6.749,6.749,0,0,1,1.881.7,4.781,4.781,0,0,1,1.38,1.272,3.181,3.181,0,0,1,.558,1.92m-2.827,0a2.4,2.4,0,0,0-.89-1.968,2.425,2.425,0,0,0-.912-.492,3.73,3.73,0,0,0-1.071-.156,3.887,3.887,0,0,0-1.071.156,2.417,2.417,0,0,0-.936.492,2.309,2.309,0,0,0-.934,1.968,2.34,2.34,0,0,0,.912,2.016,2.871,2.871,0,0,0,.934.444,3.98,3.98,0,0,0,1.1.156,3.854,3.854,0,0,0,1.083-.156,2.633,2.633,0,0,0,.924-.468,2.342,2.342,0,0,0,.637-.816,2.713,2.713,0,0,0,.229-1.176" transform="translate(5795 1052)" fill="#06c"/>
    <path id="패스_6215" data-name="패스 6215" d="M250.254,47.637l1.015,10.975,2.868-6.77Z" transform="translate(5795 1052)" fill="#3a45cc"/>
    <path id="패스_6216" data-name="패스 6216" d="M252.2,59.982l4.332-4.283,4.038.988Z" transform="translate(5795 1052)" fill="#1d2088"/>
    <path id="패스_6217" data-name="패스 6217" d="M230.655,50.81,226.982,60.2l-.805-6.677Z" transform="translate(5795 1052)" fill="#1d2088"/>
    <path id="패스_6218" data-name="패스 6218" d="M225.82,61.168,223.1,56.307l-3.8-.155Z" transform="translate(5795 1052)" fill="#3a45cc"/>
  </g>
</svg>
