<svg xmlns="http://www.w3.org/2000/svg" width="293.486" height="568.25" viewBox="0 0 293.486 568.25"><g transform="translate(24013.687 10944.624)"><path d="M275.1,575.7a113.009,113.009,0,0,1-8.678-13.832c-3.139-5.8,4.021-11.057,7.629-4.959,3.7,6.25,7.386,13.867,7.386,13.867,2.622,5.912-3.751,8.318-6.338,4.924" transform="translate(-24249.094 -11035.077)" fill="#fff"/><path d="M275.511,571.362s4.224-8.39,8.16-14.9l5.081,2.25c-2.514,6.29-4.484,13.621-6.377,16.809-2.177,3.671-8.786,2.019-6.864-4.157" transform="translate(-24249.717 -11035.226)" fill="#fff"/><path d="M283.826,556.87a17.707,17.707,0,0,1,2.559-4.434c1.6-1.907,1.754-1.446,1.856-.922s-1.784,1.6-1.367,2.982c0,0,4.8-2.807,5.139-2.158s-3.337,2.831-3.337,2.831,4.209-2.418,4.521-1.738-4.072,2.66-4.072,2.66,4.067-1.587,4.378-.906-3.856,2.114-3.856,2.114,3.46-1.2,3.71-.645-2.234,1.374-3.535,1.9-3.063,1.674-5.226.89c-1.316-.477-.769-2.578-.769-2.578" transform="translate(-24250.273 -11034.872)" fill="#f09d97"/><path d="M290.722,562.952a19.553,19.553,0,0,1,.81-6.272,15.873,15.873,0,0,0,.686-5.987H284a15.9,15.9,0,0,0,.686,5.987,19.543,19.543,0,0,1,.811,6.272s.079.665,2.678.665c2.406,0,2.546-.665,2.546-.665" transform="translate(-24250.289 -11034.849)" fill="#106e38"/><path d="M292.46,550.366a.279.279,0,0,1-.258.3h-8.31a.279.279,0,0,1-.258-.3v-.638a.278.278,0,0,1,.258-.3h8.31a.278.278,0,0,1,.258.3Z" transform="translate(-24250.268 -11034.766)" fill="#fff"/><path d="M292.46,549.012a.279.279,0,0,1-.258.3h-8.31a.279.279,0,0,1-.258-.3v-1.2a.278.278,0,0,1,.258-.3h8.31a.278.278,0,0,1,.258.3Z" transform="translate(-24250.268 -11034.641)" fill="#fff"/><path d="M280.806,559.977a17.706,17.706,0,0,1,2.559-4.434c1.6-1.907,1.754-1.446,1.856-.923s-1.784,1.6-1.367,2.982c0,0,4.8-2.807,5.139-2.158s-3.337,2.831-3.337,2.831,4.209-2.418,4.521-1.738-4.072,2.66-4.072,2.66,4.067-1.587,4.378-.907-3.856,2.114-3.856,2.114,3.46-1.2,3.71-.645-2.234,1.374-3.535,1.9-3.063,1.674-5.225.89c-1.316-.477-.769-2.578-.769-2.578" transform="translate(-24250.076 -11035.074)" fill="#f5b7ad"/><path d="M283.514,663.819c.9.567,7.686-.53,12.014-1.465,1.173-.253,1.42-1.331.532-1.469a24.2,24.2,0,0,1-7.71-2.593c-.343.4-.654.88-.443,1.085a7.869,7.869,0,0,0,1.153.84,15.96,15.96,0,0,1-5.879.51c-.213,1.221-.308,2.687.333,3.091" transform="translate(-24250.229 -11041.881)" fill="#0f1f3f"/><path d="M283.562,658.723l-1.007-2.5,4.146-1.14.678,2.681.66.612c-.139.24-.287.673-.163.794a7.814,7.814,0,0,0,1.154.841,15.979,15.979,0,0,1-5.88.509,17.931,17.931,0,0,1,.411-1.795" transform="translate(-24250.201 -11041.671)" fill="#f5b7ad"/><path d="M296.6,661.592c.017.366-.354.823-1.065.977-4.327.935-11.117,2.033-12.014,1.465a.931.931,0,0,1-.361-.506,3.964,3.964,0,0,0,.351,1.18c.218.307,2.257.284,6.536-.387s5.941-1.188,6.456-1.695a.766.766,0,0,0,.1-1.036" transform="translate(-24250.238 -11042.097)" fill="#fff"/><path d="M269.971,582.171s8.824,25.474,9.99,31.2,5.206,37.242,5.206,37.242l-4.263.958s-6.109-22.35-9.242-34.615c0,0-6.321-11.854-10.663-22.19-1.03-1.276-5.566-6.6-3.4-12.576Z" transform="translate(-24248.531 -11036.906)" fill="#29a6e3"/><path d="M233.8,657.253c.251,1.033,5.89,4.969,9.647,7.31,1.019.635,1.946.032,1.4-.685a24.207,24.207,0,0,1-3.733-7.229c-.527.052-1.082.178-1.073.472a7.845,7.845,0,0,0,.244,1.406,15.963,15.963,0,0,1-4.577-3.725c-1,.73-2.092,1.716-1.913,2.451" transform="translate(-24247.01 -11041.652)" fill="#0f1f3f"/><path d="M237.393,653.554l1.019-2.5,3.77,2.067-1.378,2.4.048.9c-.268.075-.676.282-.67.457a7.863,7.863,0,0,0,.244,1.407,15.975,15.975,0,0,1-4.577-3.727,18.022,18.022,0,0,1,1.544-1" transform="translate(-24247.146 -11041.407)" fill="#f5b7ad"/><path d="M244.862,664.73a1.159,1.159,0,0,1-1.446-.039c-3.757-2.34-9.4-6.277-9.647-7.31a.942.942,0,0,1,.093-.613,3.947,3.947,0,0,0-.569,1.093c-.057.371,1.423,1.774,4.964,4.269s5.092,3.282,5.815,3.277a.765.765,0,0,0,.79-.677" transform="translate(-24246.979 -11041.781)" fill="#fff"/><path d="M253.427,593.347l-3.7,22.091s-2.967,12.553-11.149,31.094l3.751,2.282s12.793-23.209,15.844-28.383c2.684-4.552,8.758-32,10.177-38.624l-13.427.332c-1.475,2.831-1.966,7.373-1.494,11.207" transform="translate(-24247.324 -11036.882)" fill="#54b9eb"/><path d="M267.62,546.92l-11.3-7.428c-3.466,6.9-6.825,8.327-11.877,9.632s-1.759,11.979,8.232,10.788,13.572-3.415,14.947-12.991" transform="translate(-24247.557 -11034.116)" fill="#482e15"/><path d="M268.973,539.015c.389,1.253,1.775,8.318-4.738,9.483-5.023.9-8.412-4.241-7.692-7.563,1.395-6.429,10.741-7.38,12.43-1.92" transform="translate(-24248.492 -11033.852)" fill="#482e15"/><path d="M272.913,560.754c-.476-2.139-.394-4.53-1.526-5.946-.638-.8-3.008-1.4-6.363-1.768-1.579-.175-10.674-1.223-12.062,4.959-1.232,5.487,1.945,17.264,2.806,22.321l14,.16c.551-1.373,1.277-6.488,3.118-10.17s.908-5.611.032-9.556" transform="translate(-24248.248 -11034.99)" fill="#fff"/><path d="M274.186,561.333l.379,1.61c.719,2.965,1.151,4.755-.4,7.856l.241.121c1.6-3.189,1.128-5.119.421-8.04l-.378-1.606Z" transform="translate(-24249.65 -11035.539)" fill="#c1c3cc"/><path d="M260.936,552.7l1.576-6.1,4.665,2.513L266.4,553.9l-.8.357Z" transform="translate(-24248.787 -11034.58)" fill="#f5b7ad"/><path d="M262.581,546.753l.038-.151,4.665,2.514-.522,3.235c-2.3-1.091-4.193-3-4.181-5.6" transform="translate(-24248.893 -11034.581)" fill="#f09d97"/><path d="M267.126,552.022l2.142,1.512a5.88,5.88,0,0,1-1.319,2.83,4.249,4.249,0,0,0-1.983-1.885,4.667,4.667,0,0,0,1.16-2.457" transform="translate(-24249.115 -11034.935)" fill="#54b9eb"/><path d="M261.013,550.973s2.3,2.654,4.5,3.438a3.111,3.111,0,0,0-1.715,2.253,8.913,8.913,0,0,1-4.695-3.847Z" transform="translate(-24248.666 -11034.866)" fill="#54b9eb"/><path d="M268,538.648a3.5,3.5,0,0,0-1-.9,3.053,3.053,0,0,0-.307-.147l.046.046a1.292,1.292,0,0,0-1.985.716c-.453,1.326-2.359,5.646-4.322,5.868a1.134,1.134,0,0,0-1.685.365c-.576,1.07.739,1.933,1.644,1.481a4.826,4.826,0,0,0,8.244,1.793c1.7-2.248.782-7.436-.636-9.217" transform="translate(-24248.633 -11033.98)" fill="#f5b7ad"/><path d="M268.52,545.2c-.026.691.637,1.278,1.513,1.4a8.339,8.339,0,0,0,.191-2.325c-.012-.12-.021-.242-.038-.36a1.567,1.567,0,0,0-1.666,1.289" transform="translate(-24249.283 -11034.404)" fill="none"/><path d="M261.694,545.36a1.862,1.862,0,0,0,3.584.134c.028-.754-.753-1.392-1.742-1.429l-.088,0a1.6,1.6,0,0,0-1.754,1.3" transform="translate(-24248.834 -11034.415)" fill="none"/><path d="M265.384,543.843c.072.252.258.421.416.378s.231-.288.158-.54-.257-.423-.416-.379-.229.286-.158.542" transform="translate(-24249.076 -11034.365)" fill="#39180d"/><path d="M265.653,543.526a.085.085,0,0,0,.169,0,.085.085,0,1,0-.169,0" transform="translate(-24249.092 -11034.374)" fill="#fff"/><path d="M265.227,541.692c-.17.075-.284.284-.34.621a.061.061,0,0,0,.12.02c.048-.29.14-.472.268-.529a.283.283,0,0,1,.245.023.06.06,0,0,0,.083-.019.059.059,0,0,0-.018-.083.4.4,0,0,0-.358-.033" transform="translate(-24249.043 -11034.257)" fill="#482e15"/><path d="M268.789,543.443c.071.254.258.424.416.38s.23-.288.159-.541-.259-.426-.419-.38-.227.286-.156.541" transform="translate(-24249.299 -11034.339)" fill="#39180d"/><path d="M269.056,543.127a.084.084,0,0,0,.168,0,.084.084,0,0,0-.083-.085.083.083,0,0,0-.085.084" transform="translate(-24249.318 -11034.348)" fill="#fff"/><path d="M268.632,541.293c-.169.074-.284.283-.34.62a.061.061,0,0,0,.051.07.06.06,0,0,0,.069-.05c.048-.29.141-.472.268-.529a.286.286,0,0,1,.245.023.061.061,0,0,0,.084-.018.06.06,0,0,0-.018-.083.4.4,0,0,0-.359-.034" transform="translate(-24249.27 -11034.23)" fill="#482e15"/><path d="M267.961,544.4a.067.067,0,0,1-.089.015l.362.223a.3.3,0,0,1,.209.253.778.778,0,0,1-.442.6.06.06,0,0,0,.063.1.878.878,0,0,0,.5-.712.422.422,0,0,0-.281-.355l-.335-.207a.054.054,0,0,1,.014.078" transform="translate(-24249.238 -11034.432)" fill="#482e15"/><path d="M266.177,546.185a.061.061,0,0,0-.042.074.736.736,0,0,0,.373.432,1.208,1.208,0,0,0,1-.065.06.06,0,0,0,.032-.079.061.061,0,0,0-.079-.033,1.1,1.1,0,0,1-.9.068.631.631,0,0,1-.312-.356.061.061,0,0,0-.074-.042" transform="translate(-24249.125 -11034.555)" fill="#482e15"/><path d="M266.747,537.553a1.292,1.292,0,0,0-1.985.716c-.537,1.574-3.12,7.37-5.416,5.526s2.671-11.446,7.4-6.242" transform="translate(-24248.646 -11033.889)" fill="#482e15"/><path d="M265.824,555.9c.075.262.278.449.455.416s.259-.272.185-.534-.278-.449-.455-.417-.26.272-.185.535" transform="translate(-24249.104 -11035.153)" fill="#54b9eb"/><path d="M267.057,560.739c.075.262.278.449.455.416s.259-.272.185-.534-.278-.45-.455-.417-.26.272-.185.535" transform="translate(-24249.182 -11035.469)" fill="#54b9eb"/><path d="M268.108,565.627c.075.262.278.449.455.416s.259-.272.185-.534-.278-.45-.455-.417-.26.272-.185.535" transform="translate(-24249.252 -11035.79)" fill="#54b9eb"/><path d="M269.77,568.411c.055.237.217.4.363.367s.218-.252.164-.489-.218-.4-.363-.369-.219.253-.164.491" transform="translate(-24249.363 -11035.975)" fill="#7a7a7a"/><path d="M256.946,552.131a6.277,6.277,0,0,0-6.117,6.413v10.308a.875.875,0,1,0,1.748,0V558.544a4.484,4.484,0,0,1,4.369-4.581h.654a4.484,4.484,0,0,1,4.369,4.581v10.308a.874.874,0,1,0,1.747,0V558.544a6.277,6.277,0,0,0-6.116-6.413Z" transform="translate(-24248.123 -11034.942)" fill="#106e38"/><rect width="28.062" height="27.57" transform="translate(-24004.885 -10466.459)" fill="#fff"/><path d="M253.933,585.233v1.089H250.6c-.332,0-.535-.064-.609-.193a1.193,1.193,0,0,1-.112-.585V581.69h-.249l.249-1.09h3.959v1.09h-2.459V582.8h2.267v1.089h-2.267v1.342Z" transform="translate(-24248.047 -11036.803)" fill="#439e4e"/><path d="M260.006,584.663a2.514,2.514,0,0,1-.85,1.275,2.272,2.272,0,0,1-1.439.461,2.069,2.069,0,0,1-1.88-.912,3.76,3.76,0,0,1-.585-2.073,3.565,3.565,0,0,1,.61-2.035,2.089,2.089,0,0,1,1.863-.909,2.267,2.267,0,0,1,1.489.494,2.289,2.289,0,0,1,.779,1.341l-1.4.406a2.2,2.2,0,0,0-.377-.9.648.648,0,0,0-.491-.249.792.792,0,0,0-.725.571,3.2,3.2,0,0,0-.249,1.286,2.7,2.7,0,0,0,.288,1.415.844.844,0,0,0,.714.479.651.651,0,0,0,.5-.27,2.609,2.609,0,0,0,.4-1Z" transform="translate(-24248.414 -11036.795)" fill="#439e4e"/><path d="M266.445,583.449a3.536,3.536,0,0,1-.628,2.054,2.152,2.152,0,0,1-1.9.911,2.174,2.174,0,0,1-1.9-.911,3.513,3.513,0,0,1-.628-2.054,3.556,3.556,0,0,1,.628-2.067,2.433,2.433,0,0,1,3.8,0,3.556,3.556,0,0,1,.628,2.067m-2.527,1.876a.851.851,0,0,0,.738-.473,3.593,3.593,0,0,0,0-2.827.818.818,0,0,0-1.477,0,3.594,3.594,0,0,0,0,2.827.851.851,0,0,0,.738.473" transform="translate(-24248.814 -11036.794)" fill="#439e4e"/><path d="M260.993,556.5c2.25,3.886,4.49,8.294,5.872,11.093l11.86-8.075,2.782,3.579s-7.3,7.307-12.36,11.989c-3.482,3.222-5.9,1.849-7.633-.259a116.27,116.27,0,0,1-8.2-13.44c-3.084-5.832,4.126-11.018,7.676-4.886" transform="translate(-24248.238 -11035.048)" fill="#fff"/><path d="M266.962,567.786c-.952-1.926-2.39-4.771-3.967-7.673l-.237.129c1.609,2.962,3.081,5.878,4.031,7.8l.069.139,11.883-8.091,2.63,3.384c-.791.789-7.546,7.529-12.272,11.9a5.639,5.639,0,0,1-4.052,1.87,4.938,4.938,0,0,1-3.385-2.116,116.659,116.659,0,0,1-8.182-13.418l-.238.127a116.958,116.958,0,0,0,8.207,13.456,5.188,5.188,0,0,0,3.58,2.22,5.89,5.89,0,0,0,4.254-1.941c5-4.629,12.29-11.919,12.363-11.992l.084-.084-2.932-3.773-11.836,8.06" transform="translate(-24248.283 -11035.439)" fill="#c1c3cc"/><path d="M337.743,540.541c-.3-.3-.464-.475-.464-.475l.837-2.451c-1.492-.233-2.982-.474-4.473-.7l-.279,3.1a6.676,6.676,0,0,1-.522,1.354,14.564,14.564,0,0,0,5.336.91,3.3,3.3,0,0,1-1.112-.871c-.133-.231.267-.58.677-.86" transform="translate(-24253.486 -11033.946)" fill="#fff"/><path d="M338.032,545.178c4.362.392,5.659.421,6.054-.093a.659.659,0,0,0-.269-.2,21.34,21.34,0,0,1-6.144-4.087c-.409.279-.809.629-.677.86a3.3,3.3,0,0,0,1.113.871,14.573,14.573,0,0,1-5.337-.91,7.217,7.217,0,0,0-1.014,2.442,26.378,26.378,0,0,0,6.274,1.12" transform="translate(-24253.414 -11034.202)" fill="#0f1f3f"/><path d="M342.96,546.289c.922.039,1.42-.579,1.125-.976-.393.513-1.691.484-6.053.092a26.453,26.453,0,0,1-6.274-1.119.8.8,0,0,0,.184.518c.647.71,6.942,1.31,11.017,1.484" transform="translate(-24253.414 -11034.43)" fill="#0f1f3f"/><path d="M339.329,543.223a.142.142,0,0,1-.2-.01.139.139,0,0,1-.008-.2l.743-.737a.139.139,0,0,1,.2.01.136.136,0,0,1,.01.194Z" transform="translate(-24253.893 -11034.297)" fill="#0f1f3f"/><path d="M339.9,543.724a.14.14,0,0,1-.2-.01.137.137,0,0,1-.011-.2l.745-.737a.147.147,0,0,1,.207.206Z" transform="translate(-24253.932 -11034.328)" fill="#0f1f3f"/><path d="M340.516,544.117a.14.14,0,0,1-.2-.01.137.137,0,0,1-.01-.194l.745-.737a.147.147,0,0,1,.207.206Z" transform="translate(-24253.971 -11034.354)" fill="#0f1f3f"/><path d="M336.108,469.818l-.789,32.289-2.473,31.39,5.8.694,4.907-30.108,4.521-35.076Z" transform="translate(-24253.486 -11029.509)" fill="#008fd5"/><path d="M334.751,422.591c-.9.365-2.083-.569-1.441-1.535a.941.941,0,0,1,.9-.485,3.222,3.222,0,0,0,1.6,2.011,4.975,4.975,0,0,1,.23-2.173,8.126,8.126,0,0,0,2.152-3.314,4.735,4.735,0,0,1-.641,2.9,10.072,10.072,0,0,0,2.5-3.878A5.319,5.319,0,0,1,340.71,419a4.4,4.4,0,0,0-.139-3.918,4.488,4.488,0,0,1,2.55,2.474,10.835,10.835,0,0,1,.318,1.478,3.258,3.258,0,0,0,.38-3.354,2.634,2.634,0,0,0-3.075-1.921c.064-.775-.168-2.177-2.557-2.609a2.355,2.355,0,0,1,1.864,2.564c-4-1.023-6.9.928-7.544,3.149-.659,2.3-.033,4.8.767,5.493s3.139,3,3.139,3l.034-.04a5.082,5.082,0,0,1-1.695-2.721" transform="translate(-24253.447 -11025.727)" fill="#482e15"/><path d="M323.867,540.2c-.284-.315-.431-.506-.431-.506l1-2.387c-1.472-.334-2.942-.677-4.414-1.008l-.489,3.071a6.66,6.66,0,0,1-.612,1.315,14.578,14.578,0,0,0,5.262,1.271,3.322,3.322,0,0,1-1.051-.944c-.117-.24.307-.562.734-.812" transform="translate(-24252.576 -11033.906)" fill="#fff"/><path d="M323.846,544.864c4.326.688,5.618.8,6.045.32a.653.653,0,0,0-.254-.22,21.36,21.36,0,0,1-5.852-4.5c-.427.251-.851.573-.734.812a3.311,3.311,0,0,0,1.051.944,14.548,14.548,0,0,1-5.262-1.271,7.205,7.205,0,0,0-1.179,2.367,26.4,26.4,0,0,0,6.184,1.544" transform="translate(-24252.494 -11034.18)" fill="#0f1f3f"/><path d="M328.7,546.28c.917.1,1.456-.48,1.19-.9-.428.485-1.721.367-6.046-.32a26.411,26.411,0,0,1-6.184-1.544.815.815,0,0,0,.15.53c.6.752,6.837,1.78,10.89,2.23" transform="translate(-24252.494 -11034.38)" fill="#0f1f3f"/><path d="M325.285,542.979a.142.142,0,0,1-.2-.024.138.138,0,0,1,0-.194l.792-.685a.14.14,0,0,1,.2.023.138.138,0,0,1,0,.2Z" transform="translate(-24252.977 -11034.282)" fill="#0f1f3f"/><path d="M325.822,543.518a.14.14,0,0,1-.194-.023.137.137,0,0,1,0-.2l.793-.686a.141.141,0,0,1,.2.024.139.139,0,0,1,0,.2Z" transform="translate(-24253.014 -11034.318)" fill="#0f1f3f"/><path d="M326.408,543.951a.141.141,0,0,1-.2-.023.137.137,0,0,1,0-.194l.793-.686a.142.142,0,0,1,.2.024.139.139,0,0,1,0,.2Z" transform="translate(-24253.051 -11034.346)" fill="#0f1f3f"/><path d="M326.763,469.592l-2.984,32.161-4.6,31.149,5.741,1.087,6.945-29.7,6.9-34.686Z" transform="translate(-24252.592 -11029.548)" fill="#29a6e3"/><path d="M365.573,440.706a18.611,18.611,0,0,1,.177-5.375c.537-2.555.911-2.206,1.264-1.771s-.862,2.361.208,3.438c0,0,3.055-4.972,3.695-4.54s-1.691,4.273-1.691,4.273,2.7-4.322,3.327-3.847-2.457,4.478-2.457,4.478,2.983-3.481,3.608-3-2.527,3.866-2.527,3.866,2.612-2.825,3.118-2.433-1.39,2.38-2.332,3.514-2.01,3.067-4.4,3.409c-1.456.21-1.988-2.007-1.988-2.007" transform="translate(-24255.617 -11027.118)" fill="#f09d97"/><path d="M343.442,432.837c2.931-1.983,5.029-.319,7.224,2.355,1.263,1.537,7.345,9.955,7.345,9.955s4.22-3.948,5.7-5.365l3.907,2.917a61.915,61.915,0,0,1-7.348,9.812,4.7,4.7,0,0,1-7.041-.086c-2.483-2.752-6.228-6.542-8.731-10.607-2.8-4.539-3.525-7.312-1.058-8.981" transform="translate(-24254.082 -11027.089)" fill="#fff"/><path d="M346.034,432.239c-1.991-1.337-5.168-1.744-8.282-1.879-3.293-.141-8.882.569-11.645,2.01-5.185,2.7-2.95,11.534-1.559,18.7a112.3,112.3,0,0,1,1.5,16.893l21,.069c.278-8.793,1.378-24.65,1.523-27.4.155-2.954.56-6.315-2.53-8.391" transform="translate(-24252.834 -11026.981)" fill="#fff"/><path d="M350.234,442.319l-.641,8.444.245.015.641-8.439.236-3.024-.245-.013Z" transform="translate(-24254.578 -11027.567)" fill="#dddce2"/><path d="M335.754,425.1l.523-2.6,5.384,2.007-.713,5a6.872,6.872,0,0,1-5.194-4.4" transform="translate(-24253.676 -11026.47)" fill="#f09d97"/><path d="M334.661,430.134l1.022-4.852a6.874,6.874,0,0,0,5.194,4.4l-.072.5s.837,2.624-1.914,2.749c-2.88.131-4.332-2.024-4.229-2.8" transform="translate(-24253.607 -11026.65)" fill="#f5b7ad"/><path d="M343.183,417.827a4.491,4.491,0,0,0-2.55-2.474,4.4,4.4,0,0,1,.139,3.918,5.328,5.328,0,0,0-.668-2.881,10.073,10.073,0,0,1-2.5,3.878,4.733,4.733,0,0,0,.641-2.9,8.126,8.126,0,0,1-2.152,3.314,4.986,4.986,0,0,0-.231,2.173,3.226,3.226,0,0,1-1.6-2.011.941.941,0,0,0-.9.485c-.642.965.545,1.9,1.441,1.535a4.576,4.576,0,0,0,7.629,2.414c1.467-1.61,1.411-5.183.74-7.453" transform="translate(-24253.508 -11026.002)" fill="#f5b7ad"/><path d="M342.608,422.706a1.471,1.471,0,0,0,1.307,1.45,7.847,7.847,0,0,0,.383-2.181c0-.112,0-.228-.006-.342l-.119,0a1.453,1.453,0,0,0-1.566,1.076" transform="translate(-24254.125 -11026.412)" fill="none"/><path d="M339.751,421.144c.046.245.206.42.361.392s.243-.25.2-.5-.207-.422-.361-.393-.24.249-.2.5" transform="translate(-24253.938 -11026.349)" fill="#482e15"/><path d="M340.034,420.867a.08.08,0,0,0,.16.014.08.08,0,0,0-.16-.014" transform="translate(-24253.957 -11026.357)" fill="#fff"/><path d="M339.789,419.1c-.167.056-.293.243-.376.557a.057.057,0,1,0,.11.029c.071-.269.175-.435.3-.478a.271.271,0,0,1,.229.043.057.057,0,0,0,.071-.09.384.384,0,0,0-.336-.062" transform="translate(-24253.916 -11026.247)" fill="#482e15"/><path d="M343,421.062c.045.246.207.422.362.394s.24-.251.2-.5-.208-.422-.363-.393-.238.25-.194.5" transform="translate(-24254.15 -11026.342)" fill="#482e15"/><path d="M343.283,420.786a.079.079,0,1,0,.158.014.078.078,0,0,0-.071-.086.077.077,0,0,0-.087.072" transform="translate(-24254.168 -11026.352)" fill="#fff"/><path d="M343.037,419.02c-.166.056-.292.243-.375.557a.057.057,0,1,1,.11.029c.071-.269.175-.435.3-.478a.272.272,0,0,1,.23.044.057.057,0,0,0,.07-.09.381.381,0,0,0-.336-.063" transform="translate(-24254.127 -11026.241)" fill="#482e15"/><path d="M341.883,421.635a.057.057,0,0,0-.006.08,1.813,1.813,0,0,0,.485.415.293.293,0,0,1,.175.247.65.65,0,0,1-.372.487.057.057,0,1,1,.059.1.75.75,0,0,0,.428-.587.4.4,0,0,0-.235-.346,1.68,1.68,0,0,1-.454-.389.057.057,0,0,0-.08-.006" transform="translate(-24254.076 -11026.412)" fill="#482e15"/><path d="M336.149,422.265c-.09.708.591,1.38,1.521,1.5a1.538,1.538,0,0,0,1.852-1.063c.092-.708-.591-1.379-1.521-1.5a2.292,2.292,0,0,0-.286-.018,1.456,1.456,0,0,0-1.566,1.083" transform="translate(-24253.703 -11026.383)" fill="none"/><path d="M340.276,423.69a.057.057,0,0,0-.049.064.694.694,0,0,0,.29.459,1.146,1.146,0,0,0,.946.081.056.056,0,0,0,.041-.069.057.057,0,0,0-.069-.042,1.047,1.047,0,0,1-.851-.063.594.594,0,0,1-.243-.38.057.057,0,0,0-.064-.049" transform="translate(-24253.969 -11026.547)" fill="#482e15"/><path d="M348.59,414.32c-.042-.045-.087-.086-.129-.134,0,0,5.079,6.517,4.742,11.915-.085,1.365.363,1.437,1.892,1.533l14.275.889c1.53.1,1.982.079,2.067-1.286.336-5.4,6.184-11.234,6.184-11.234-.051.045-.1.082-.155.124a20.913,20.913,0,1,0-28.877-1.807" transform="translate(-24254.152 -11023.641)" fill="#fcd64a"/><path d="M362.194,446.684l6.163.383a5.186,5.186,0,0,1-5.5,4.854l-.986-.061-.987-.062a5.185,5.185,0,0,1-4.854-5.5Z" transform="translate(-24255 -11028.024)" fill="#7a7a7a"/><path d="M371.054,434.337l-.822,13.2a1.276,1.276,0,0,1-1.351,1.194L354.9,447.86a1.275,1.275,0,0,1-1.193-1.351l.822-13.2Z" transform="translate(-24254.85 -11027.176)" fill="#535454"/><path d="M351.971,433.137a2.236,2.236,0,0,0,2.093,2.371L371,436.563c1.233.077,2.01-.347,2.087-1.579s-.576-2.809-1.809-2.885l-16.933-1.054a2.236,2.236,0,0,0-2.371,2.093" transform="translate(-24254.736 -11027.027)" fill="#7a7a7a"/><path d="M352.741,439.012a1.274,1.274,0,0,0,1.3,1.245l16.839-.381a1.273,1.273,0,1,0-.057-2.546l-16.839.38a1.273,1.273,0,0,0-1.245,1.3" transform="translate(-24254.785 -11027.438)" fill="#7a7a7a"/><path d="M352.5,442.846a1.275,1.275,0,0,0,1.3,1.246l16.839-.38a1.274,1.274,0,0,0-.057-2.548l-16.839.38a1.275,1.275,0,0,0-1.245,1.3" transform="translate(-24254.768 -11027.688)" fill="#7a7a7a"/><path d="M352.264,446.681a1.273,1.273,0,0,0,1.3,1.244l16.84-.379a1.274,1.274,0,1,0-.058-2.547l-16.839.38a1.273,1.273,0,0,0-1.245,1.3" transform="translate(-24254.756 -11027.939)" fill="#7a7a7a"/><path d="M367.463,398.68l.538-.034a53.89,53.89,0,0,1-2.19,15.651c-.175-.045-.348-.086-.523-.131a53.388,53.388,0,0,0,2.174-15.487" transform="translate(-24255.605 -11024.911)" fill="#106e38"/><path d="M367.77,398.811s3.681-7.969,11.928-3.39c-.595-.331-2.414,7.842-11.928,3.39" transform="translate(-24255.768 -11024.606)" fill="#106e38"/><path d="M367.324,398.83s-1.878-8.573-10.918-5.878c.653-.193.672,8.178,10.918,5.878" transform="translate(-24255.027 -11024.504)" fill="#106e38"/><path d="M356.418,406.086l-.374.031a35.561,35.561,0,0,0,2.322,8.712l.4-.016a35.308,35.308,0,0,1-2.344-8.727" transform="translate(-24255.004 -11025.396)" fill="#369956"/><path d="M355.787,406.235a5.613,5.613,0,0,0-8.533-1.136c.376-.286,2.442,5.145,8.533,1.136" transform="translate(-24254.428 -11025.232)" fill="#369956"/><path d="M356.178,406.176a5.613,5.613,0,0,1,6.914-5.127c-.468-.069.355,5.684-6.914,5.127" transform="translate(-24255.012 -11025.06)" fill="#369956"/><path d="M374.166,408.906l-.209-.188a26.7,26.7,0,0,0-3.531,5.771l.213.207a26.564,26.564,0,0,1,3.527-5.79" transform="translate(-24255.939 -11025.568)" fill="#369956"/><path d="M373.946,408.694a4.211,4.211,0,0,0-3.8-5.224c.35.056-1.532,3.99,3.8,5.224" transform="translate(-24255.92 -11025.225)" fill="#369956"/><path d="M374.043,408.939a4.212,4.212,0,0,1,6.365,1.1c-.2-.29-2.9,3.136-6.365-1.1" transform="translate(-24256.18 -11025.516)" fill="#369956"/><path d="M354.182,441.223a36.2,36.2,0,0,1,1.655-4.123c.513-.811,4.326-2.517,5.05-2.786s1.019.34.455.7-3.09,1.739-3.533,2.165c0,0,4.1-1.509,4.768-1.584s.45.666-.226,1.044-4.279,1.568-4.279,1.568,3.513-.653,4.412-.715.642.683-.24.894-3.669.935-3.669.935,3.5-.464,4.013-.558.675.642-.24.894a14.7,14.7,0,0,0-3.31,1.122c-.149.266.267,2.325-2.811,2.893-.129.114-.356.318-.657.582-.64-.94-1.324-1.853-2.052-2.752Z" transform="translate(-24254.836 -11027.237)" fill="#f5b7ad"/><path d="M325.984,432.988c3.446-1.686,5.858.833,7.161,3.568.86,1.8,5.33,11.966,5.33,11.966s11.418-6.45,13.284-7.815l2.853,3.483S346.652,453,341.58,456.3c-2.514,1.634-4.763,2.352-7.557.971s-7-10.287-9.074-14.6c-2.316-4.825-1.867-8.259,1.035-9.679" transform="translate(-24252.875 -11027.119)" fill="#fff"/><path d="M334.541,440.223l3.972,8.974.118-.066c.113-.063,11.131-6.292,13.2-7.757l2.714,3.314c-.7.766-8.15,8.9-12.937,12.01-2.433,1.582-4.628,2.351-7.435.965-2.674-1.323-6.679-9.67-8.83-14.155l-.188-.392-.221.106.188.392c2.165,4.512,6.193,12.91,8.943,14.269,3.082,1.522,5.512.43,7.678-.978,5.027-3.267,12.976-12.042,13.056-12.13l.071-.079-2.993-3.655-.094.069c-1.747,1.278-12.032,7.106-13.154,7.741l-3.863-8.728Z" transform="translate(-24252.969 -11027.62)" fill="#dddce2"/><rect width="166.864" height="2.945" transform="translate(-23962.783 -10384.586) rotate(-77.463)" fill="#fff"/><rect width="166.864" height="2.945" transform="translate(-23933.576 -10384.586) rotate(-77.463)" fill="#fff"/><rect width="29.206" height="2.945" transform="translate(-23958.834 -10397.028)" fill="#fff"/><rect width="29.206" height="2.945" transform="translate(-23954.467 -10416.663)" fill="#fff"/><rect width="29.206" height="2.945" transform="translate(-23949.012 -10441.207)" fill="#fff"/><rect width="29.206" height="2.945" transform="translate(-23943.553 -10465.751)" fill="#fff"/><rect width="29.206" height="2.945" transform="translate(-23938.094 -10490.298)" fill="#fff"/><rect width="29.206" height="2.945" transform="translate(-23932.637 -10514.841)" fill="#fff"/><rect width="29.206" height="2.945" transform="translate(-23928.27 -10534.477)" fill="#fff"/><path d="M517.512,475.334l-1.56-63.87h-1.744l-1.562,63.87a3.65,3.65,0,0,0,4.866,0" transform="translate(-24265.238 -11025.748)" fill="#fff"/><path d="M513.531,411.351c-1.313-1.309-5.408-.868-5.408-.868l-19.457,6.431.089.373Z" transform="translate(-24263.672 -11025.68)" fill="#fff"/><rect width="24.864" height="6.876" transform="translate(-23775.004 -10615.268)" fill="none"/><path d="M513.832,410.984c-1.431-1.427-5.349-1.051-5.791-1a.466.466,0,0,0-.1.022l-19.458,6.431a.472.472,0,0,0-.31.558l.089.373a.471.471,0,0,0,.569.35l24.776-5.936a.475.475,0,0,0,.345-.332.47.47,0,0,0-.122-.462m-1.642.162-17.084,4.094c5.74-1.9,13.01-4.3,13.081-4.324a12.177,12.177,0,0,1,4,.23" transform="translate(-24263.641 -11025.646)" fill="#fff"/><path d="M515.238,411.4c-.323,1.824,2.38,4.932,2.38,4.932l16.4,12.285.255-.288Z" transform="translate(-24265.406 -11025.743)" fill="#fff"/><rect width="19.066" height="17.217" transform="translate(-23750.195 -10614.345)" fill="none"/><path d="M534.558,427.941l-19.039-16.929a.472.472,0,0,0-.779.27c-.353,1.989,2.2,4.99,2.488,5.326a.625.625,0,0,0,.073.067l16.4,12.285a.472.472,0,0,0,.637-.065l.255-.287a.473.473,0,0,0-.039-.666m-5.613-3.727-11.033-8.262a12.167,12.167,0,0,1-2.095-3.411l13.127,11.674" transform="translate(-24265.373 -11025.712)" fill="#fff"/><path d="M515.2,409.821c1.831-.29,3.891-3.855,3.891-3.855l6.281-19.507-.354-.149Z" transform="translate(-24265.406 -11024.104)" fill="#fff"/><rect width="10.172" height="23.511" transform="translate(-23750.209 -10637.794)" fill="none"/><path d="M525.518,385.99l-.354-.149a.473.473,0,0,0-.618.254l-9.817,23.51a.473.473,0,0,0,.509.65c2-.315,4-3.7,4.226-4.086a.518.518,0,0,0,.04-.091l6.281-19.507a.472.472,0,0,0-.267-.581m-2.672,6.629c-1.854,5.754-4.2,13.048-4.225,13.119a12.244,12.244,0,0,1-2.536,3.094l-.013.007c.621-1.486,4.155-9.948,6.773-16.22" transform="translate(-24265.373 -11024.07)" fill="#fff"/><path d="M514.8,412.677a1.315,1.315,0,1,1,1.617-.919,1.317,1.317,0,0,1-1.617.919" transform="translate(-24265.314 -11025.657)" fill="#dcdbda"/><path d="M516.322,420.784h-2.311l-.028.866h2.367Z" transform="translate(-24265.324 -11026.357)" fill="#e34741"/><path d="M513.9,424.29h2.528l-.028-.865h-2.472Z" transform="translate(-24265.32 -11026.529)" fill="#e34741"/><path d="M411.013,439.085a102.6,102.6,0,1,1-86.689,116.353,102.6,102.6,0,0,1,86.689-116.353" transform="translate(-24252.855 -11027.482)" fill="#51bfce"/><rect width="205.223" height="205.224" transform="translate(-23929.623 -10589.489)" fill="none"/><path d="M362.045,611.445c-1.022-2.595-.463-2.263.357-5.077,2.081-7.135,3.692-9.538,10.707-5.735,4.078,2.21,12.4,2.686,10.941-4.812,6.113-1.271,18.009,4.468,19.257-4.12.539-3.729-.513-4.827,2.647-7.385,1.813-1.471,4.471-2.384,6.352-4.288,3.544-3.59,3.536-4.843,3.053-9.128-.4-3.554.4-5.791,1.206-9.194,1.1-4.647,1.665-11.905,5.4-14.989,1.375-1.136,3.27-.742,4.666-2.152.881-.888.416-2.444,1.49-3.492,2.474-2.415,5.992-1.728,9.165-.953,3.469.851,7.424,3.719,11.2,2.238,1.913-.75,2.043-2.395,3.522-3.281,2.125-1.269,2.2-.762,4.728-1.028,4.269-.448,6.728-1.247,9.179-4.785,2.368-3.421,2.046-5.582,6.329-6.3,4.119-.693,9.222,1.179,13.376,1.684,5.274.641,10.129.646,15.32,2.087,4.278,1.187,8.573,2.065,12.23-1.424,5.115-4.88.322-4.424-3.31-5.677-4.888-1.688-7.027-5.9-10.313-9.6-3.817-4.3-9.418-5.375-13.316-9.529-3.832-4.084-5.951-7.338-10.786-10.416-4.766-3.035-9.56-5.9-13.329-10.188-2.795-3.185-7.045-11.194-12.038-10.048-2.393.549-5.079,5.192-6.056,7.571-1.429,3.469-.153,8.184-2.727,11.118-2.8,3.2-6.384.7-9.579,2.314-3.347,1.688-4.167,6.656-4.2,9.609-.054,5.348-.578,5.163-3.736,9.116-2.745,3.437-3.074,9.64-2.939,13.782.15,4.613,3.855,9.812,2.974,14.279-.85,4.3-4.039,4.04-7.351,5.521-4.791,2.144-2.035,3.486-3.429,8.2-2.248-.246-4.929-.454-7.043.545-1.059,4.378,5.324,5.885,3.448,11.2-1.527,4.334-6.968,4.842-10.294,2.183-2.208-1.764-5.192-8.212-6.264-11.029-1.8-4.729,5.394-7.987,7.815-11.9-1.884-1.34-9.905,1.619-12.258,1.108-3.485-.76-3.969-2.176-7.039-4.164-2.5-1.622-5.621-.981-7.906-2.49-1.957-1.292-3.519-5.016-4.645-7.072-1.223-2.234-2.092-6.495-5.34-5.663-1.9.488-3.953,4.761-5.13,6.274-2.027,2.6-3.08,3.637-3.882,7.008-.536,2.251-.38,6.38-3.811,6.107-.575-8.245-12.632,3.585-14.652,3.811-.906-3.239.921-7.31,3.2-9.572,1.267-1.256,20.369-10.939,14.08-14.327-2-1.079-6,3.076-8.813,2.656-4.416-.657-5.457-2.746-8.742.929-2.05,2.289-3.21,5.807-3.76,8.714-.829,4.381-1.753,6.716-3.844,1.5-1.121-2.8-2.211-7.216-4.159-10.755a102.714,102.714,0,0,0,50.47,101.326c-2.849-5.049-6.1-11.855-7.926-14.169-1.369-1.738-3.7-4.106-4.495-6.135" transform="translate(-24252.857 -11029.817)" fill="#2ea048"/><path d="M358.862,464.917l.972,2.788a4.041,4.041,0,0,1-1.354-1.8c-1.3,5.687,5.834,5.548,8.892,1.68,1.553-1.966,1.711-4.579,4.453-5.7,2.337-.956,4.884.451,7.071-1.18.451,2.646-2.576,3.07-3.936,4.866,2.33,2.438,6.495.323,9.414.29,2.177-.024,2.553,1.709,4.385.193,1.124-.93.135-3.553,1.386-4.764,3.9-3.763,5.7,1.38,7.359,3.827,2.512,3.7,5.175,4.151,9.5,4.553,8.665.809,16.441,5.585,21.871-3.909,1.872-3.278-.065-7.286,1.178-10.583,1.54-4.089,4.523-2.854,8.323-3.441,7.428-1.151,15.4-2,22.91-.579,4.4.828,7.086,1.723,4.975-3.984a13.794,13.794,0,0,0-1.062-2.253,102.661,102.661,0,0,0-106.339,20" transform="translate(-24255.15 -11027.482)" fill="#2ea048"/><path d="M529.814,507.9c1,3.8,3.248,7.852,3.644,11.677.386,3.751-1.675,6.516.121,9.871.742,1.386,2.515,1.781,3.125,3.964.6,2.138-.019,3.926-.411,5.995-.791,4.185-1.275,6.841-.641,11.061.432,2.864.308,9.307,3.555,10.45a4.584,4.584,0,0,0,1.02.238,102.9,102.9,0,0,0-13.97-71.249c-3.043,4.9,2.245,13.015,3.557,17.993" transform="translate(-24266.068 -11030.874)" fill="#2ea048"/><path d="M420.511,646.885c-2.708,1.3-3.58-.467-3.85-.582a14.478,14.478,0,0,0-3.206,1.017c-.853.323-1.159-.313-.7-.533s3.422-1.83,3.422-1.83-2.573,1.022-3.376,1.357-1.434-.076-.7-.532,3.822-1.936,3.822-1.936-3.475,1.129-4.213,1.225-1.34-.332-.779-.651,4.6-1.487,4.6-1.487c-.59-.069-3.337.32-3.983.364s-.773-.574-.058-.78,4.648-1.066,5.516-.75c.206.076,2.737,1.587,3.316,2.014,1.313.967,1.123,1.282,1.748,1.682a20.335,20.335,0,0,1-1.551,1.42" transform="translate(-24258.574 -11040.797)" fill="#f5b7ad"/><path d="M442.409,612.589s-7.821,16.009-8.77,17.152-14.39,10.55-14.39,10.55l2.37,4.116s12.019-5.975,16.523-8.948,10.9-14.865,12.324-17.839-4.5-9.376-8.059-5.031" transform="translate(-24259.135 -11038.799)" fill="#ebeae9"/><path d="M472.5,441.276l-2.383-79.92h-2.664l-2.385,79.92a5.575,5.575,0,0,0,7.432,0" transform="translate(-24262.129 -11022.473)" fill="#fff"/><path d="M467.014,361.883c-2.806.378-6.074,5.753-6.074,5.753l-10.269,29.573.536.238Z" transform="translate(-24261.188 -11022.507)" fill="#fff"/><rect width="16.343" height="35.564" transform="translate(-23810.518 -10660.624)" fill="none"/><path d="M466.869,361.118c-3.06.411-6.242,5.512-6.6,6.093a.694.694,0,0,0-.064.138l-10.27,29.573a.722.722,0,0,0,.388.9l.536.238a.721.721,0,0,0,.953-.365l15.808-35.564a.722.722,0,0,0-.755-1.008m-1.329,2.143c-1,2.258-6.685,15.037-10.9,24.522,3.028-8.723,6.866-19.774,6.9-19.881a18.585,18.585,0,0,1,4-4.641" transform="translate(-24261.137 -11022.456)" fill="#fff"/><path d="M468.106,361.387c1.913,2.086,8.192,1.694,8.192,1.694l30.133-8.488-.111-.577Z" transform="translate(-24262.326 -11021.992)" fill="#fff"/><rect width="38.326" height="9.094" transform="translate(-23794.221 -10667.977)" fill="none"/><path d="M506.134,353.257l-38.215,7.371a.721.721,0,0,0-.393,1.2c2.085,2.276,8.091,1.97,8.769,1.928a.923.923,0,0,0,.15-.026l30.133-8.488a.721.721,0,0,0,.513-.832l-.111-.576a.723.723,0,0,0-.845-.572M496.4,356.6l-20.267,5.708a18.613,18.613,0,0,1-6.083-.626L496.4,356.6" transform="translate(-24262.277 -11021.942)" fill="#fff"/><path d="M466.791,359.638c1.35-2.49-1.063-8.3-1.063-8.3L447.9,325.605l-.509.293Z" transform="translate(-24260.971 -11020.137)" fill="#fff"/><rect width="19.809" height="34.032" transform="translate(-23813.578 -10694.531)" fill="none"/><path d="M447.492,324.928l-.509.293a.722.722,0,0,0-.265.985l19.4,33.739a.72.72,0,0,0,1.26-.015c1.471-2.713-.77-8.292-1.03-8.919a.8.8,0,0,0-.074-.134l-17.826-25.734a.721.721,0,0,0-.952-.215m5.557,9.4,11.988,17.306a18.686,18.686,0,0,1,1.4,5.949l0,.023c-1.226-2.133-8.208-14.278-13.383-23.278" transform="translate(-24260.924 -11020.085)" fill="#fff"/><path d="M469.308,363.455a2.009,2.009,0,1,1,.387-2.814,2.009,2.009,0,0,1-.387,2.814" transform="translate(-24262.193 -11022.373)" fill="#dcdbda"/><path d="M470.684,375.592h-3.531l-.043,1.323h3.617Z" transform="translate(-24262.262 -11023.404)" fill="#e34741"/><path d="M466.979,380.948h3.862l-.043-1.323h-3.776Z" transform="translate(-24262.252 -11023.667)" fill="#e34741"/><path d="M400.751,627.024s8.1-7.96,14.174,2.981c0,0-9.439,6.98-14.174-2.981" transform="translate(-24257.924 -11039.654)" fill="#b2c932"/><path d="M421.334,659.739s-2.781-17.623-1.492-23.5c.5-2.3,6.256-12.229,7.968-16.667a14,14,0,0,0,.98-7.568l-2.314-.537s.036,4.565-1.529,7.393-6.932,8.712-6.932,8.712-1.961-3.561-1.839-6.4-1.44-13.082.161-17.278l-2.862-.711s-.875,12.186-1.17,13.115c-.974,3.065,2.2,18.238,2.572,20.769.219,1.478-.4,19.825-.048,22.882a4.163,4.163,0,0,0,3.406,1.3,3.47,3.47,0,0,0,3.1-1.509" transform="translate(-24258.668 -11038.279)" fill="#8a3d1c"/><path d="M407.653,614.289l-1.294,1.552s4.4,9.31,7.242,12.414l.518-6.725s-5.173-6.206-6.466-7.241" transform="translate(-24258.289 -11039.005)" fill="#8a3d1c"/><path d="M414.612,605.546s-14.224.107-8.681-14.92c0,0,14.372,1.924,8.681,14.92" transform="translate(-24258.182 -11037.458)" fill="#2a702b"/><path d="M414.766,605.128s-10.875-9.168,3.108-16.98c0,0,9.666,10.807-3.108,16.98" transform="translate(-24258.576 -11037.296)" fill="#b2c932"/><path d="M427.47,613.31s-7.117-12.316,8.687-14.917c0,0,5.424,13.448-8.687,14.917" transform="translate(-24259.566 -11037.965)" fill="#2a702b"/><path d="M426.772,623.764s2.827-11,13.676-4.768c0,0-4.477,10.851-13.676,4.768" transform="translate(-24259.625 -11039.188)" fill="#b2c932"/><path d="M407.469,615.611s-2.585-11.062-13.568-5.067c0,0,4.238,10.945,13.568,5.067" transform="translate(-24257.475 -11038.644)" fill="#2a702b"/><path d="M546.947,662.8a.151.151,0,0,0,.215.009.157.157,0,0,0,.051-.211l-.651-.89a.154.154,0,0,0-.216-.01.16.16,0,0,0-.051.213Z" transform="translate(-24267.438 -11042.103)" fill="#fff"/><path d="M546.221,663.284a.15.15,0,0,0,.215.01.157.157,0,0,0,.051-.211l-.651-.889a.153.153,0,0,0-.216-.011.16.16,0,0,0-.052.213Z" transform="translate(-24267.387 -11042.134)" fill="#fff"/><path d="M545.471,663.648a.152.152,0,0,0,.215.01.157.157,0,0,0,.052-.211l-.652-.889a.151.151,0,0,0-.215-.011.16.16,0,0,0-.052.213Z" transform="translate(-24267.34 -11042.157)" fill="#fff"/><path d="M524.993,623.024l-4.19-10.011c-1.681-4.018-4.411-3.882-5.4-6.253l-1.281-3.061-2.341.979,1.281,3.06c.993,2.372-1.021,4.221.661,8.239s4.191,10.011,4.191,10.011.018,1.153,3.838-.446,3.244-2.519,3.244-2.519" transform="translate(-24265.18 -11038.313)" fill="#fff"/><path d="M514.445,603.65a.392.392,0,0,1-.21.514l-2.239.937a.393.393,0,0,1-.3-.724l2.24-.937a.391.391,0,0,1,.513.21" transform="translate(-24265.16 -11038.294)" fill="#fff"/><path d="M514.759,604.4a.392.392,0,0,1-.21.513l-2.24.937a.393.393,0,0,1-.3-.724l2.239-.937a.393.393,0,0,1,.514.211" transform="translate(-24265.18 -11038.343)" fill="#fff"/><path d="M496.039,618.761l10.375,3.185c4.164,1.279,5.806-.906,8.263-.151l3.171.974.746-2.426-3.172-.974c-2.457-.754-2.59-3.483-6.754-4.762l-10.375-3.186s-.9-.724-2.113,3.235-.14,4.106-.14,4.106" transform="translate(-24264.123 -11038.813)" fill="#fff"/><path d="M519.172,623.656a.393.393,0,0,1-.261-.491l.712-2.321a.393.393,0,0,1,.752.23l-.713,2.322a.392.392,0,0,1-.49.26" transform="translate(-24265.646 -11039.416)" fill="#fff"/><path d="M518.395,623.417a.394.394,0,0,1-.26-.491l.713-2.321a.393.393,0,1,1,.751.231l-.712,2.321a.393.393,0,0,1-.492.26" transform="translate(-24265.598 -11039.4)" fill="#fff"/><path d="M525.01,627.933l6.682-8.551c2.682-3.433,1.228-5.747,2.81-7.773S536.546,609,536.546,609l-2-1.563-2.043,2.614c-1.582,2.026-4.18,1.175-6.861,4.607s-6.683,8.553-6.683,8.553-1,.579,2.266,3.129,3.784,1.6,3.784,1.6" transform="translate(-24265.641 -11038.557)" fill="#fff"/><path d="M537.812,609.265a.393.393,0,0,1-.551.067l-1.913-1.494a.393.393,0,0,1,.484-.62l1.913,1.5a.392.392,0,0,1,.067.551" transform="translate(-24266.713 -11038.539)" fill="#fff"/><path d="M537.312,609.905a.391.391,0,0,1-.55.067l-1.913-1.494a.393.393,0,0,1,.483-.619l1.913,1.494a.393.393,0,0,1,.067.551" transform="translate(-24266.682 -11038.579)" fill="#fff"/><path d="M360.815,574.057c-.832-6.58-3.214-11.934-4.212-17.09-1.115-5.758-.79-8.894,2.4-9.655,3.786-.9,5.3,1.627,6.52,5.23.7,2.073,4.928,22.021,4.928,22.021l5.027,11.206-6.382,5.564Z" transform="translate(-24255.002 -11034.615)" fill="#ebeae9"/><path d="M356.74,657.724q2.4-.231,4.8-.425c-.047,1.459-.075,2.322-.075,2.322s.211.179.6.47c-.385.351-.746.778-.552,1.015a8.642,8.642,0,0,0,1.081,1.021,16.343,16.343,0,0,1-5.98-.413,16.819,16.819,0,0,1,.591-1.728c-.164-.769-.318-1.52-.466-2.261" transform="translate(-24255.041 -11041.817)" fill="#fff"/><path d="M363.355,665.043c4.811-.049,6.225-.159,6.543-.763a.817.817,0,0,0-.335-.194,26.314,26.314,0,0,1-7.52-3.8c-.386.35-.746.778-.553,1.015a8.717,8.717,0,0,0,1.081,1.021,16.371,16.371,0,0,1-5.98-.412,5.84,5.84,0,0,0-.278,2.594,29.762,29.762,0,0,0,7.041.54" transform="translate(-24255.02 -11042.011)" fill="#0f1f3f"/><path d="M368.888,665.75c1.008-.059,1.417-.789,1.015-1.191-.319.6-1.732.714-6.543.763a29.721,29.721,0,0,1-7.04-.539,1,1,0,0,0,.309.548c.85.708,7.8.675,12.259.42" transform="translate(-24255.02 -11042.292)" fill="#fff"/><path d="M364.319,662.8a.151.151,0,0,1-.215.009.157.157,0,0,1-.051-.211l.651-.89a.154.154,0,0,1,.216-.01.16.16,0,0,1,.051.213Z" transform="translate(-24255.525 -11042.103)" fill="#fff"/><path d="M365.046,663.284a.15.15,0,0,1-.215.01.157.157,0,0,1-.051-.211l.651-.889a.153.153,0,0,1,.216-.011.16.16,0,0,1,.052.213Z" transform="translate(-24255.57 -11042.134)" fill="#fff"/><path d="M365.8,663.648a.152.152,0,0,1-.215.01.157.157,0,0,1-.052-.211l.652-.889a.151.151,0,0,1,.215-.011.16.16,0,0,1,.052.213Z" transform="translate(-24255.619 -11042.157)" fill="#fff"/><path d="M361.691,619.549l-4.863-32.8-14.575-.767,9.479,35.46,3.511,33.344,6.3-1.007Z" transform="translate(-24254.104 -11037.155)" fill="#29a6e3"/><path d="M330.6,661.063c-.171-.238.229-.665.646-1.015-.365-.291-.56-.47-.56-.47l1.152-2.491-4.706-.442-.737,3.3s-.4.781-.75,1.728a15.986,15.986,0,0,0,5.941.413,7.6,7.6,0,0,1-.986-1.021" transform="translate(-24253.016 -11041.774)" fill="#fff"/><path d="M332.077,665.043c4.817-.049,6.242-.158,6.616-.763a.731.731,0,0,0-.317-.194,23.472,23.472,0,0,1-7.171-3.8c-.418.35-.817.777-.647,1.015a7.635,7.635,0,0,0,.986,1.022,16.027,16.027,0,0,1-5.941-.413,6.067,6.067,0,0,0-.516,2.594,29.008,29.008,0,0,0,6.989.54" transform="translate(-24252.977 -11042.011)" fill="#0f1f3f"/><path d="M337.568,665.75c1.013-.058,1.491-.789,1.125-1.191-.375.6-1.8.714-6.616.763a28.993,28.993,0,0,1-6.989-.539.9.9,0,0,0,.258.548c.785.707,7.743.675,12.222.42" transform="translate(-24252.98 -11042.292)" fill="#fff"/><path d="M333.266,662.8a.154.154,0,0,1-.217.01.15.15,0,0,1-.032-.211l.734-.889a.154.154,0,0,1,.216-.011.152.152,0,0,1,.033.213Z" transform="translate(-24253.494 -11042.101)" fill="#fff"/><path d="M333.948,663.285a.153.153,0,0,1-.216.009.15.15,0,0,1-.033-.211l.735-.889a.161.161,0,0,1,.248.2Z" transform="translate(-24253.541 -11042.134)" fill="#fff"/><path d="M334.663,663.648a.154.154,0,0,1-.216.01.15.15,0,0,1-.033-.211l.735-.889a.161.161,0,0,1,.25.2Z" transform="translate(-24253.586 -11042.156)" fill="#fff"/><path d="M334.313,585.348l.743,34.767-9,33.145,6.426.125,12.465-31.413,1.809-36.618Z" transform="translate(-24253.041 -11037.112)" fill="#54b9eb"/><path d="M361.512,548.008c-1.922-1.807-5.3-2.817-8.653-3.52a26.7,26.7,0,0,0-12,.463c-6.113,2-5.582,7.125-5.67,19.712-.057,8.138-1.4,18.6-1.4,18.6l22.4,3.772c1.875-9.493,5.909-26.506,6.559-29.469.7-3.178,1.738-6.754-1.243-9.56" transform="translate(-24253.549 -11034.412)" fill="#fff"/><path d="M351.8,538.272l1.034-2.731,5.484,3.141-1.668,5.295a7.554,7.554,0,0,1-4.849-5.7" transform="translate(-24254.727 -11033.857)" fill="#f09d97"/><path d="M349.686,543.546l1.978-5.083a7.555,7.555,0,0,0,4.849,5.705l-.168.531s.438,3-2.568,2.64c-3.15-.374-4.34-2.972-4.09-3.794" transform="translate(-24254.584 -11034.049)" fill="#f5b7ad"/><path d="M353.534,533.9s-3.591-1.565-3.884-1.792-.428,2.937,2.672,6.363c0,0,.637-2.278,1.212-4.571" transform="translate(-24254.576 -11033.633)" fill="#6c553e"/><path d="M361.811,531.67c-.329-1.673-1.1-1.327-1.1-1.327-1.918-1.841-3.136,2.392-5.58,3.219a5.667,5.667,0,0,1-2.4.209,7.561,7.561,0,0,0-.519,1.46,3.632,3.632,0,0,1-.243-1.454c-.01.038-.023.074-.031.112a1.042,1.042,0,0,0-1.355.161c-.936.867.092,2.174,1.145,2.014a5.034,5.034,0,0,0,7.535,4.551c1.471-1,2.356-3.372,2.653-5.592-.182-.335.148-2.033-.111-3.353" transform="translate(-24254.625 -11033.488)" fill="#f5b7ad"/><path d="M360.207,537.768a1.617,1.617,0,0,0,1.023,1.889,8.685,8.685,0,0,0,.971-2.231c.029-.123.06-.247.083-.368a2.331,2.331,0,0,0-.67-.1,1.426,1.426,0,0,0-1.408.811" transform="translate(-24255.271 -11033.95)" fill="none"/><path d="M357.57,535.342c-.014.273.112.5.284.513s.324-.206.338-.48-.112-.5-.284-.514-.322.2-.338.481" transform="translate(-24255.104 -11033.813)" fill="#482e15"/><path d="M357.95,535.117a.088.088,0,0,0,.167.057.088.088,0,1,0-.167-.057" transform="translate(-24255.127 -11033.826)" fill="#fff"/><path d="M358.134,533.172c-.193.017-.376.184-.545.5a.063.063,0,1,0,.111.06c.145-.269.3-.419.443-.433a.3.3,0,0,1,.235.106.065.065,0,0,0,.089.01.064.064,0,0,0,.01-.089.42.42,0,0,0-.343-.152" transform="translate(-24255.102 -11033.703)" fill="#482e15"/><path d="M361.066,536.093c-.016.274.112.506.284.515s.321-.207.338-.482-.113-.507-.287-.514-.321.206-.336.481" transform="translate(-24255.332 -11033.862)" fill="#482e15"/><path d="M361.446,535.868a.088.088,0,0,0,.054.112.089.089,0,0,0,.111-.054.086.086,0,0,0-.053-.111.085.085,0,0,0-.112.053" transform="translate(-24255.355 -11033.875)" fill="#fff"/><path d="M361.629,533.923c-.193.016-.376.183-.545.5a.063.063,0,0,0,.025.086.064.064,0,0,0,.086-.026c.145-.269.3-.419.443-.432a.3.3,0,0,1,.235.107.063.063,0,0,0,.088.01.062.062,0,0,0,.011-.088.419.419,0,0,0-.343-.154" transform="translate(-24255.33 -11033.752)" fill="#482e15"/><path d="M359.727,536.413a.062.062,0,0,0-.026.085,2.041,2.041,0,0,0,.411.569.323.323,0,0,1,.124.31.717.717,0,0,1-.523.422.063.063,0,1,0,.037.12.821.821,0,0,0,.609-.515.436.436,0,0,0-.163-.431,1.932,1.932,0,0,1-.385-.535.063.063,0,0,0-.085-.026" transform="translate(-24255.238 -11033.915)" fill="#482e15"/><path d="M353.414,535.631a1.941,1.941,0,1,0,2.255-.661,2.351,2.351,0,0,0-.836-.158,1.444,1.444,0,0,0-1.419.819" transform="translate(-24254.826 -11033.811)" fill="none"/><path d="M363.046,530.263c-.543-1.825-1.743-.933-1.743-.933s.39-2.267-4.266-2.88-9.368,4.394-7.487,6.225a10.727,10.727,0,0,0,2.353.753,3.639,3.639,0,0,0,.244,1.576,7.594,7.594,0,0,1,.518-1.46,5.668,5.668,0,0,0,2.4-.209c2.444-.828,3.663-5.06,5.581-3.219,0,0,.767-.346,1.1,1.327.3,1.529-.193,3.575.241,3.4.972-.382,1.611-2.76,1.067-4.585" transform="translate(-24254.549 -11033.262)" fill="#482e15"/><path d="M357.412,538.251a.764.764,0,0,0,.192.566,1.26,1.26,0,0,0,.99.332.063.063,0,0,0,.063-.064.062.062,0,0,0-.064-.062,1.152,1.152,0,0,1-.893-.289.655.655,0,0,1-.162-.469.063.063,0,1,0-.125-.015" transform="translate(-24255.09 -11034.032)" fill="#482e15"/><path d="M382.723,601.554l13.048,1.1-.093,2.01-16.388,2.013Z" transform="translate(-24256.521 -11038.173)" fill="#00499a"/><path d="M360.395,579.612c-1.907.431-3.374,2.057-4.021,4.465a12.636,12.636,0,0,0,3.515,12.053,1.058,1.058,0,0,0,1.44-1.55,10.578,10.578,0,0,1-2.914-9.953c.258-.954.916-2.6,2.446-2.953,3.979-.9,5.611,4.7,5.679,4.939a1.058,1.058,0,0,0,2.038-.57c-.753-2.693-3.429-7.5-8.184-6.43" transform="translate(-24255 -11036.728)" fill="#00499a"/><path d="M386.7,594.713c-1.864,2.62-19.068-8.925-16.832-12.061,0,0-9.77,12.522-10.922,13.831s-1.347,5.773,5.334,10.532,11.01,5.363,13.057,2.8,9.363-15.1,9.363-15.1" transform="translate(-24255.15 -11036.937)" fill="#00499a"/><path d="M370.661,582.628c1.737-2.439,18.7,9.444,16.832,12.062s-19.068-8.925-16.832-12.062" transform="translate(-24255.947 -11036.914)" fill="#fff"/><path d="M371.337,583.167l-.007.011c-.178.393.346,1.659,2.55,3.731,5,4.7,12.18,8.064,13.034,7.372.1-.342-.8-2.007-4.29-4.855-5.009-4.091-10.387-6.7-11.288-6.259" transform="translate(-24256 -11036.968)" fill="#00499a"/><path d="M400.069,600.331c1.38-.046,1.663,6.068.181,6.118s-1.955-6.056-.181-6.118" transform="translate(-24257.807 -11038.093)" fill="#29a6e3"/><path d="M433.361,642.282q.032.495.061,1l.491-.028q-.028-.5-.062-1Zm-.353-3.9q.083.721.154,1.46l.489-.048q-.072-.743-.155-1.468Zm-.546-3.871q.121.714.229,1.448l.486-.071q-.109-.74-.231-1.459Zm-.764-3.833q.163.705.314,1.432l.48-.1q-.151-.733-.317-1.443Zm-1.008-3.773q.212.691.408,1.407l.474-.131q-.2-.722-.412-1.419Zm-1.28-3.685q.264.672.514,1.37l.462-.165q-.252-.707-.519-1.384Zm-1.579-3.566q.321.645.629,1.321l.447-.2q-.311-.683-.637-1.335Zm-1.9-3.4q.383.608.753,1.252l.425-.245q-.374-.651-.763-1.268Zm-2.243-3.182q.447.565.882,1.165l.4-.289q-.442-.607-.895-1.18Zm-2.586-2.908q.509.509,1.009,1.054l.363-.331q-.509-.555-1.025-1.071Zm-2.917-2.576q.568.442,1.131.924l.32-.373q-.572-.491-1.149-.938Zm-3.214-2.194q.617.367,1.237.776l.271-.41q-.631-.415-1.257-.787Zm-3.465-1.778q.655.286,1.324.616l.218-.44q-.68-.335-1.346-.625Zm-3.662-1.337q.678.2,1.393.449l.162-.464q-.725-.251-1.415-.455Zm-3.8-.876c.45.075.931.165,1.438.273l.1-.479c-.516-.111-1-.2-1.462-.278Zm-3.876-.341s.056,0,.173,0c.225,0,.665.007,1.281.052l.036-.49c-.629-.046-1.081-.053-1.317-.053-.122,0-.186,0-.189,0Z" transform="translate(-24257.885 -11038.109)" fill="#fff"/><path d="M403.425,640.992q-.063.724-.134,1.466l.489.046q.07-.745.134-1.467Zm.306-3.909q-.048.722-.1,1.466l.489.037q.056-.747.106-1.47Zm.224-3.915q-.034.722-.074,1.468l.491.027q.041-.75.074-1.473Zm.124-3.918q-.013.719-.034,1.469l.491.014q.021-.753.035-1.475Zm0-3.918c.008.477.013.966.015,1.469l.491,0q0-.756-.014-1.476Zm-.149-3.911q.043.711.077,1.465l.491-.021q-.034-.76-.078-1.474Zm-.352-3.892c.057.466.111.951.16,1.456l.489-.048q-.074-.766-.162-1.468Zm-.643-3.846q.147.673.283,1.434l.483-.086q-.136-.771-.287-1.452Zm-1.11-3.713c.164.4.329.856.49,1.365l.468-.149c-.165-.522-.335-.987-.5-1.4ZM399.78,606.9l.032-.069-.035.067,0,0,.032-.069-.035.067a3.1,3.1,0,0,1,.936.958l.4-.285a3.4,3.4,0,0,0-1.123-1.116Z" transform="translate(-24257.861 -11038.493)" fill="#fff"/><path d="M424.242,643.457q.023.471.04.948l.491-.018q-.018-.479-.04-.952Zm-.268-3.9q.066.722.121,1.463l.489-.036q-.055-.745-.121-1.471Zm-.45-3.886q.1.718.191,1.455l.487-.06q-.09-.742-.193-1.464Zm-.654-3.854q.142.708.271,1.44l.483-.085q-.131-.737-.274-1.451Zm-.884-3.806q.185.7.36,1.421l.478-.115q-.175-.729-.364-1.432l-.475.126Zm-1.141-3.734q.236.681.459,1.391l.469-.148q-.227-.716-.466-1.4Zm-1.427-3.631q.29.659.57,1.348l.455-.184q-.282-.7-.577-1.362Zm-1.742-3.487q.352.627.692,1.288l.437-.223q-.345-.672-.7-1.3Zm-2.08-3.293q.415.583.821,1.208l.411-.267q-.411-.634-.832-1.225Zm-2.435-3.037q.479.529.955,1.1l.379-.312q-.484-.585-.97-1.122Zm-2.791-2.711q.541.461,1.088.974l.336-.357q-.555-.523-1.106-.991ZM407.24,605.8q.593.376,1.211.813l.285-.4q-.628-.447-1.234-.829Zm-3.435-1.823c.416.18.858.386,1.321.621l.222-.437c-.472-.24-.923-.45-1.349-.634Zm-3.686-1.181.09.016a12.673,12.673,0,0,1,1.316.328l.141-.47a12.063,12.063,0,0,0-1.474-.359Z" transform="translate(-24257.881 -11038.223)" fill="#fff"/><path d="M412.406,642.915q-.053.724-.116,1.466l.489.041q.063-.743.116-1.471Zm.211-3.911q-.025.725-.062,1.468l.491.023q.036-.747.062-1.474Zm.054-3.916c0,.23,0,.462,0,.695,0,.256,0,.514,0,.775l.491,0q0-.393,0-.779,0-.352,0-.7Zm-.126-3.911q.042.721.07,1.465l.491-.019q-.028-.75-.07-1.475Zm-.337-3.894q.084.714.153,1.457l.489-.046q-.07-.749-.154-1.469Zm-.585-3.862q.133.7.251,1.442l.485-.077q-.121-.745-.253-1.456Zm-.878-3.8q.192.688.367,1.417l.477-.116q-.177-.736-.371-1.432Zm-1.225-3.7q.259.662.5,1.372l.464-.161q-.248-.719-.511-1.39Zm-1.638-3.527q.339.618.667,1.3l.442-.213q-.334-.691-.679-1.32Zm-2.12-3.25q.428.548.856,1.177l.406-.276c-.291-.428-.583-.828-.874-1.2Zm-2.664-2.8c.341.289.7.616,1.065.985l.349-.347c-.378-.379-.745-.716-1.1-1.013Zm-3.238-2.027.018.007a7.7,7.7,0,0,1,1.262.617l.249-.423a7.894,7.894,0,0,0-1.377-.667Z" transform="translate(-24257.863 -11038.322)" fill="#fff"/><path d="M399.323,600.608l-3.273,1.866a1.7,1.7,0,0,0,.19,2.241l3.379,1.583c-.985-.841-1.278-4.663-.3-5.691" transform="translate(-24257.598 -11038.111)" fill="#00499a"/><path d="M360.216,582.908c-.491-.307-2.454-1.779-2.454-1.779.184-.429,1.227-.859,1.227-.859a2.442,2.442,0,0,0-1.78-.859,15.642,15.642,0,0,0-3.5.859l-2.081,3.847c1.294,2.006,4.413,3.455,5.7,3.394s.614-1.1.614-1.1c1.227-.307.552-1.166.552-1.166,1.78-.062.737-1.227.737-1.227.981.368,1.472-.8.981-1.1" transform="translate(-24254.713 -11036.726)" fill="#f5b7ad"/><path d="M344.8,554.435s-5.482,10.637-6.425,12.9c-.327.784,14.186,10.384,14.186,10.384l-2.416,4.2s-21.112-8.4-21.231-12.2,3.718-14.55,7.441-21.425c3.224-5.956,13.111-.6,8.445,6.15" transform="translate(-24253.23 -11034.522)" fill="#fff"/><path d="M338.63,568.12a.113.113,0,0,0-.008.045c0,.934,8.768,6.879,14.138,10.433-.116.2-2.186,3.8-2.295,3.988a147.6,147.6,0,0,1-15.647-7.357l-.135.235a149.992,149.992,0,0,0,15.79,7.416l.109.043,2.538-4.411-.106-.07c-5.408-3.577-14.026-9.521-14.131-10.245.576-1.367,2.869-5.919,4.69-9.493l-.24-.122c-1.823,3.578-4.12,8.137-4.7,9.537" transform="translate(-24253.607 -11035.365)" fill="#c1c3cc"/><path d="M440.643,658.947c-.353-.849-.249-1.156-.249-1.156l.476-6.294H435.8l.5,5.882s-.171.169-.493.445c.392.3.769.679.622.9a3.333,3.333,0,0,1-1.165.8,14.56,14.56,0,0,0,5.382-.578" transform="translate(-24260.182 -11041.438)" fill="#fff"/><path d="M434.745,662.618c-4.378.121-5.674.069-6.036-.467a.655.655,0,0,1,.281-.187,21.313,21.313,0,0,0,6.385-3.7c.392.3.769.679.623.9a3.335,3.335,0,0,1-1.166.8,14.542,14.542,0,0,0,5.382-.578,7.217,7.217,0,0,1,.863,2.5,26.467,26.467,0,0,1-6.332.727" transform="translate(-24259.752 -11041.879)" fill="#0f1f3f"/><path d="M429.765,663.448c-.922-.018-1.381-.666-1.063-1.043.362.536,1.658.588,6.036.466a26.459,26.459,0,0,0,6.331-.727.8.8,0,0,1-.216.5c-.689.67-7.011.879-11.089.8" transform="translate(-24259.744 -11042.134)" fill="#fff"/><path d="M434.379,660.608a.139.139,0,0,0,.2,0,.137.137,0,0,0,.021-.194l-.7-.782a.139.139,0,0,0-.2,0,.135.135,0,0,0-.022.193Z" transform="translate(-24260.076 -11041.966)" fill="#fff"/><path d="M433.776,661.073a.14.14,0,0,0,.2,0,.138.138,0,0,0,.023-.194l-.7-.782a.141.141,0,0,0-.2,0,.137.137,0,0,0-.021.193Z" transform="translate(-24260.037 -11041.996)" fill="#fff"/><path d="M433.138,661.428a.141.141,0,0,0,.2,0,.137.137,0,0,0,.022-.194l-.7-.781a.14.14,0,0,0-.2,0,.136.136,0,0,0-.022.193Z" transform="translate(-24259.99 -11042.02)" fill="#fff"/><path d="M463.912,643.52s-15.094-14.113-19.758-18.163-10.186-1.473-10.554,2.823,1.6,25.812,1.6,25.812l6.585.164.409-15.667s7.731,12.394,9.327,14.235,12.4-9.2,12.4-9.2" transform="translate(-24260.07 -11039.596)" fill="#008fd5"/><path d="M481,594.177c-2.428-7.182-10.075-5.367-18.21.585s-11.458.313-15.08-.465l-1.18,11.327c19.819,12.749,36.9-4.266,34.47-11.447" transform="translate(-24260.916 -11037.386)" fill="#482e15"/><path d="M441.1,595.858s-2.173-.39-2.376,2.394,1.681,6.949,3.678,7.388a25.44,25.44,0,0,0,6.039-.034s1.639-2.848,2.225-3.727a5.439,5.439,0,0,0-.723-5.5c-1.838-2.2-5.367-3.606-8.844-.522" transform="translate(-24260.404 -11037.683)" fill="#482e15"/><path d="M453.113,608.547c-5.79.352-9.936,2.983-11.006,7.45-.633,2.636,1.639,9.128,7.284,16.069,4.983,6.127,11.261,13.5,11.261,13.5l12.2-9.962s-5.97-16.909-8.713-20.782-4.49-6.679-11.025-6.28" transform="translate(-24260.619 -11038.628)" fill="#fff"/><path d="M485.5,657.52c-.343.852-.634,1-.634,1l-4.91-.982.444,4.707,7.1-.557s.241,0,.665.029c-.066-.491-.072-1.023.187-1.079a3.329,3.329,0,0,1,1.393.248,14.554,14.554,0,0,0-4.241-3.364" transform="translate(-24263.1 -11041.83)" fill="#fff"/><path d="M492.046,658.889c3.206,2.984,4.094,3.931,3.975,4.567a.647.647,0,0,1-.332-.065,21.325,21.325,0,0,0-7.144-1.842c-.065-.492-.072-1.023.188-1.079a3.332,3.332,0,0,1,1.392.247,14.547,14.547,0,0,0-4.241-3.363,7.214,7.214,0,0,1,1.14-2.388,26.514,26.514,0,0,1,5.023,3.923" transform="translate(-24263.488 -11041.664)" fill="#0f1f3f"/><path d="M496.076,661.952c.645.66.517,1.444.026,1.489.118-.636-.769-1.582-3.975-4.567a26.505,26.505,0,0,0-5.024-3.923.811.811,0,0,1,.509-.208c.961.005,5.612,4.291,8.464,7.208" transform="translate(-24263.568 -11041.649)" fill="#fff"/><path d="M491.406,661.269a.141.141,0,0,0-.139-.139.138.138,0,0,0-.151.123l-.052,1.046a.139.139,0,0,0,.139.138.136.136,0,0,0,.151-.122Z" transform="translate(-24263.826 -11042.065)" fill="#fff"/><path d="M492.162,661.36a.139.139,0,0,0-.138-.138.138.138,0,0,0-.152.122l-.052,1.047a.142.142,0,0,0,.14.139.137.137,0,0,0,.15-.122Z" transform="translate(-24263.879 -11042.073)" fill="#fff"/><path d="M492.865,661.555a.141.141,0,0,0-.138-.139.138.138,0,0,0-.152.123l-.051,1.046a.139.139,0,0,0,.139.139.137.137,0,0,0,.152-.122Z" transform="translate(-24263.922 -11042.086)" fill="#fff"/><path d="M470.944,632.33l-6.545,7.363s-15.545,9.49-19.963,11.945-5.4,11.292,2.946,11.292,33.994-2.006,33.994-2.006l-.77-5.852H461.461l8.992-4.906s5.072-3.926,5.072-9.164-4.582-8.672-4.582-8.672" transform="translate(-24260.563 -11040.183)" fill="#29a6e3"/><path d="M456.862,659.151l.117.216,14.563-7.854-.117-.215Z" transform="translate(-24261.592 -11041.425)" fill="#1d82c7"/><path d="M450.393,604.445l-1.2-2.37-4.654,3.367,2.017,4.626a6.87,6.87,0,0,0,3.835-5.624" transform="translate(-24260.789 -11038.206)" fill="#f09d97"/><path d="M452.811,609.016l-2.277-4.4a6.874,6.874,0,0,1-3.835,5.624l.2.464s-.108,2.751,2.577,2.138c2.81-.64,3.638-3.1,3.333-3.822" transform="translate(-24260.926 -11038.373)" fill="#f5b7ad"/><path d="M450.368,600.9a.974.974,0,0,0-.818-.274c-1.824,2.062-6.4-1.356-7.378-2.152a1.431,1.431,0,0,0-1.488-.281,4.881,4.881,0,0,0-.707,1.941c-.042,2.367.855,5.826,2.7,6.986a4.575,4.575,0,0,0,6.711-4.357c.962.114,1.856-1.1.98-1.864" transform="translate(-24260.488 -11037.946)" fill="#f5b7ad"/><path d="M440.436,603.917c.024.109.057.221.086.331a7.873,7.873,0,0,0,.95,2,1.474,1.474,0,0,0,.873-1.747,1.276,1.276,0,0,0-1.238-.7,2.1,2.1,0,0,0-.67.113" transform="translate(-24260.518 -11038.319)" fill="none"/><path d="M444.766,602.214c.021.249-.087.461-.243.475s-.3-.178-.321-.425.087-.463.242-.477.3.178.322.427" transform="translate(-24260.764 -11038.188)" fill="#482e15"/><path d="M444.442,602.02a.08.08,0,0,1-.046.1.077.077,0,0,1-.1-.045.08.08,0,0,1,.046-.1.081.081,0,0,1,.1.046" transform="translate(-24260.77 -11038.2)" fill="#fff"/><path d="M443.864,600.409a.058.058,0,0,0,.012.08.057.057,0,0,0,.079-.012.269.269,0,0,1,.21-.1c.132.008.276.138.416.38a.057.057,0,0,0,.1-.058c-.163-.28-.335-.427-.51-.437a.381.381,0,0,0-.307.149" transform="translate(-24260.742 -11038.088)" fill="#482e15"/><path d="M441.612,603c.022.249-.087.463-.244.476s-.3-.179-.321-.427.088-.464.244-.477.3.179.321.428" transform="translate(-24260.559 -11038.239)" fill="#482e15"/><path d="M441.289,602.807a.081.081,0,0,1-.046.1.08.08,0,0,1-.1-.047.08.08,0,0,1,.15-.057" transform="translate(-24260.563 -11038.252)" fill="#fff"/><path d="M440.71,601.2a.058.058,0,0,0,.012.08.057.057,0,0,0,.079-.012.273.273,0,0,1,.21-.1c.133.007.277.138.416.379a.057.057,0,0,0,.1-.057c-.163-.281-.334-.428-.509-.437a.382.382,0,0,0-.307.15" transform="translate(-24260.535 -11038.14)" fill="#482e15"/><path d="M442.757,603.279a1.736,1.736,0,0,1-.333.5.4.4,0,0,0-.135.4.75.75,0,0,0,.568.451.057.057,0,0,0,.031-.11.655.655,0,0,1-.489-.369.3.3,0,0,1,.1-.285,1.846,1.846,0,0,0,.357-.53.058.058,0,0,0-.027-.076.057.057,0,0,0-.077.027" transform="translate(-24260.639 -11038.283)" fill="#482e15"/><path d="M446.294,601.823a1.341,1.341,0,1,0,2.068.534,1.289,1.289,0,0,0-1.249-.7,2.133,2.133,0,0,0-.82.17" transform="translate(-24260.826 -11038.179)" fill="none"/><path d="M444.892,604.8a.057.057,0,0,0-.048.065.6.6,0,0,1-.133.432,1.046,1.046,0,0,1-.8.288.056.056,0,0,0-.055.059.055.055,0,0,0,.058.055,1.151,1.151,0,0,0,.89-.33.7.7,0,0,0,.157-.522.058.058,0,0,0-.065-.048" transform="translate(-24260.742 -11038.385)" fill="#482e15"/><path d="M428.213,650.494c-2.8,1.4-3.707-.5-3.986-.624a14.635,14.635,0,0,0-3.32,1.091c-.884.347-1.2-.337-.729-.571s3.544-1.965,3.544-1.965-2.665,1.1-3.5,1.457-1.485-.082-.729-.571,3.957-2.078,3.957-2.078-3.6,1.211-4.364,1.315-1.388-.356-.806-.7,4.765-1.6,4.765-1.6c-.61-.074-3.455.344-4.125.391s-.8-.616-.06-.836,4.813-1.145,5.712-.8c.214.081,2.835,1.7,3.436,2.162,1.359,1.039,1.163,1.376,1.809,1.8a21.471,21.471,0,0,1-1.607,1.525" transform="translate(-24259.055 -11041.007)" fill="#f5b7ad"/><path d="M452.923,612s-8.1,17.181-9.082,18.409-16.936,13.254-16.936,13.254l2.455,4.418s14.48-8.345,19.144-11.536,11.29-15.954,12.763-19.145-4.664-10.063-8.345-5.4" transform="translate(-24259.633 -11038.753)" fill="#fff"/><path d="M448.418,636.913c-4.425,3.027-17.835,10.779-19.017,11.462-.123-.221-2.225-4-2.331-4.2,1.214-.915,15.9-12.005,16.866-13.206.608-.76,3.839-7.408,6.443-12.852l-.243-.117c-3.673,7.678-5.95,12.223-6.412,12.8-.96,1.2-16.751,13.11-16.911,13.23l-.093.071,2.578,4.64.119-.068c.145-.083,14.539-8.385,19.154-11.542,4.743-3.245,11.413-16.174,12.81-19.2l-.246-.113c-1.39,3.012-8.024,15.878-12.717,19.09" transform="translate(-24259.621 -11039.235)" fill="#c1c3cc"/><path d="M499.729,660.274a3.033,3.033,0,0,0,2.777,2.822h26.8a3.031,3.031,0,0,0,2.776-2.822l3.864-38.855H495.865Z" transform="translate(-24264.141 -11039.471)" fill="#e34741"/><path d="M538.425,621.04a3.489,3.489,0,0,1-3.244,3.692H496.257a3.723,3.723,0,0,1,0-7.384h38.924a3.49,3.49,0,0,1,3.244,3.692" transform="translate(-24263.955 -11039.205)" fill="#e65d57"/><path d="M523.923,643.549l-3.045,1.746,2.573,4.488h-4.557v-1.619l-3.373,3.373,3.373,3.372v-1.619h6.57c.088-.152.265-.46.479-.828.32-.555.74-1.278,1.071-1.851.25-.434.442-.763.479-.829Zm-14.29,6.234c.99-1.73,2.019-3.524,2.266-3.955l1.4.8-1.249-4.6-4.6,1.251,1.4.8c-.434.761-3.144,5.488-3.265,5.7l.5.855,1.538,2.652h7.184v-3.51c-.616,0-2.985,0-5.172,0m6.905-12.137,2.283,3.944-1.4.81,4.608,1.229,1.229-4.611-1.4.812-3.293-5.685H514.51l-3.6,6.216,3.036,1.759Z" transform="translate(-24264.779 -11040.303)" fill="#fff"/><path d="M433.909,388.049a65.947,65.947,0,0,1,10.146,28.157c1.667,16.089-25.713,18.5-23.35-.966s13.2-27.191,13.2-27.191" transform="translate(-24259.219 -11024.217)" fill="#106e38"/><path d="M429.222,417.487a.291.291,0,0,1,.579-.057,3.316,3.316,0,0,0,2.024,2.815v-5.07a.582.582,0,0,1,1.165,0v3.082a3.577,3.577,0,0,0,1.747-2.4.292.292,0,0,1,.579.077,4.225,4.225,0,0,1-2.325,2.983v4.85a4.489,4.489,0,0,0,2.211-2.242.292.292,0,0,1,.541.217,4.93,4.93,0,0,1-2.752,2.642v17.022a.582.582,0,1,1-1.165,0V420.866a3.945,3.945,0,0,1-2.6-3.38" transform="translate(-24259.781 -11025.952)" fill="#8a3d1c"/><path d="M448.591,403.524A48.127,48.127,0,0,1,456,424.072c1.216,11.741-18.765,13.5-17.04-.7s9.635-19.843,9.635-19.843" transform="translate(-24260.414 -11025.229)" fill="#b2c932"/><path d="M445.17,425.008a.213.213,0,0,1,.423-.043,2.419,2.419,0,0,0,1.478,2.054v-3.7a.425.425,0,1,1,.85,0v2.25a2.626,2.626,0,0,0,1.275-1.749.212.212,0,1,1,.421.054,3.077,3.077,0,0,1-1.7,2.179v3.538a3.281,3.281,0,0,0,1.613-1.636.212.212,0,0,1,.393.158,3.594,3.594,0,0,1-2.007,1.93v12.421a.425.425,0,1,1-.85,0V427.473a2.878,2.878,0,0,1-1.9-2.465" transform="translate(-24260.828 -11026.494)" fill="#8a3d1c"/><path d="M493.759,417.18a48.127,48.127,0,0,1,7.405,20.548c1.216,11.741-18.765,13.5-17.04-.7s9.635-19.843,9.635-19.843" transform="translate(-24263.367 -11026.121)" fill="#b2c932"/><path d="M490.339,438.663a.213.213,0,0,1,.423-.043,2.419,2.419,0,0,0,1.478,2.054v-3.7a.425.425,0,1,1,.85,0v2.25a2.625,2.625,0,0,0,1.275-1.75.212.212,0,0,1,.42.055,3.077,3.077,0,0,1-1.7,2.179v3.538a3.281,3.281,0,0,0,1.613-1.636.212.212,0,0,1,.393.158,3.593,3.593,0,0,1-2.007,1.93V456.12a.425.425,0,0,1-.85,0V441.128a2.878,2.878,0,0,1-1.9-2.465" transform="translate(-24263.781 -11027.388)" fill="#8a3d1c"/><path d="M417.463,453.353a1.66,1.66,0,1,1-3.321,0V430.709a1.66,1.66,0,1,1,3.321,0Z" transform="translate(-24258.799 -11026.897)" fill="#fff"/><path d="M430.447,441.225H387.332l.922,1.258h43.116Z" transform="translate(-24257.047 -11027.694)" fill="#e1e3e4"/><path d="M444.7,413.187l-11.237,26.205.922,1.259c.6-1.389,8.215-19.156,11.237-26.205Z" transform="translate(-24260.063 -11025.858)" fill="#c4c9cb"/><path d="M441.685,413.187H398.569l-11.238,26.205h43.117l11.237-26.205" transform="translate(-24257.047 -11025.858)" fill="#fff"/><path d="M400.29,415.341c-.415.97-7.339,17.116-9.509,22.178h38.4c.434-1.01,7.578-17.672,9.509-22.178Z" transform="translate(-24257.271 -11026.002)" fill="#00499a"/><rect width="27.054" height="0.651" transform="translate(-23858.334 -10587.271) rotate(-66.745)" fill="#fff"/><rect width="27.054" height="0.651" transform="translate(-23848.557 -10587.271) rotate(-66.745)" fill="#fff"/><rect width="27.053" height="0.651" transform="translate(-23838.271 -10587.271) rotate(-66.745)" fill="#fff"/><rect width="40.765" height="0.686" transform="translate(-23861.176 -10603.995)" fill="#fff"/><rect width="40.661" height="0.686" transform="translate(-23864.377 -10596.442)" fill="#fff"/><path d="M434.283,143.495c4.685.743,15.812-10.84,26.356-7.883s7.905,8.869,15.436,8.212,15.813,5.255,14.307,9.853S474.192,156.3,470.8,158.6s-16.189,3.613-23.343,1.972-37.274,1.641-39.91-4.271,6.024-16.1,26.733-12.81" transform="translate(-24289.969 -11079.752)" fill="#fff"/><path d="M377.331,329.961c3.143.5,10.607-7.271,17.68-5.288s5.3,5.95,10.356,5.509,10.607,3.525,9.6,6.61-10.861,1.764-13.134,3.3-10.86,2.424-15.66,1.323-25,1.1-26.772-2.865,4.04-10.8,17.933-8.594" transform="translate(-24175.271 -11076.295)" fill="#fff"/></g></svg>