<svg xmlns="http://www.w3.org/2000/svg" xmlns:xlink="http://www.w3.org/1999/xlink" width="418" height="391" viewBox="0 0 418 391"><defs><clipPath id="a"><rect width="418" height="391" fill="#fff" stroke="#707070" stroke-width="1"/></clipPath><clipPath id="b"><rect width="368.737" height="431.724" fill="none"/></clipPath></defs><g clip-path="url(#a)"><g transform="translate(46.263 4)"><rect width="50.987" height="410.82" transform="translate(199.101 15.629)" fill="#ffd2d2"/><path d="M194.86,422.786H148.952V50.677L194.86,15.2Z" transform="translate(4.24 0.433)" fill="#ff9a9a"/><path d="M188.852,49.725,152.415,74.67V68.005l36.438-24.944Z" transform="translate(4.339 1.226)" fill="#f6f6f6"/><path d="M152.415,56.474l36.438-28.633v7.946L152.415,62.408Z" transform="translate(4.339 0.793)" fill="#f6f6f6"/><rect width="38.604" height="6.474" transform="translate(206.901 26.387)" fill="#fff"/><path d="M188.461,65.938l-35.676,23.3V81.932L188.461,57.94Z" transform="translate(4.35 1.649)" fill="#f6f6f6"/><rect width="42.857" height="288.722" transform="translate(279.897 137.726)" fill="#ffd2d2"/><path d="M284.118,135.54l9.119-58.74,8.5,58.74Z" transform="translate(8.089 2.186)" fill="#ff9a9a"/><rect width="31.997" height="4.848" transform="translate(285.158 145.878)" fill="#fff"/><rect width="31.997" height="4.848" transform="translate(285.158 160.516)" fill="#fff"/><rect width="31.997" height="4.848" transform="translate(285.158 175.154)" fill="#fff"/><rect width="31.997" height="4.848" transform="translate(285.158 189.794)" fill="#fff"/><rect width="31.997" height="4.848" transform="translate(285.158 204.432)" fill="#fff"/><rect width="31.997" height="4.848" transform="translate(285.158 219.07)" fill="#fff"/><rect width="31.997" height="4.848" transform="translate(285.158 233.708)" fill="#fff"/><rect width="31.997" height="4.848" transform="translate(285.158 248.346)" fill="#fff"/><rect width="31.997" height="4.848" transform="translate(285.158 262.985)" fill="#fff"/><rect width="31.997" height="4.848" transform="translate(285.158 277.623)" fill="#fff"/><rect width="31.997" height="4.848" transform="translate(285.158 292.261)" fill="#fff"/><rect width="31.997" height="4.848" transform="translate(285.158 306.899)" fill="#fff"/><rect width="31.997" height="4.848" transform="translate(285.158 321.538)" fill="#fff"/><rect width="31.997" height="4.848" transform="translate(285.158 336.177)" fill="#fff"/><rect width="31.997" height="4.848" transform="translate(285.158 350.815)" fill="#fff"/><rect width="31.997" height="4.848" transform="translate(285.158 365.453)" fill="#fff"/><rect width="31.997" height="4.848" transform="translate(285.158 380.091)" fill="#fff"/><rect width="104.851" height="296.45" transform="translate(89.222 129.998)" fill="#ffd2d2"/><rect width="93.836" height="7.104" transform="translate(95.013 148.369)" fill="#fff"/><rect width="93.836" height="7.104" transform="translate(95.013 168.889)" fill="#fff"/><rect width="93.836" height="7.104" transform="translate(95.013 189.409)" fill="#fff"/><rect width="93.836" height="7.104" transform="translate(95.013 209.929)" fill="#fff"/><rect width="93.836" height="7.104" transform="translate(95.013 230.448)" fill="#fff"/><rect width="93.836" height="7.104" transform="translate(95.013 250.968)" fill="#fff"/><rect width="93.836" height="7.104" transform="translate(95.013 271.488)" fill="#fff"/><rect width="93.836" height="7.104" transform="translate(95.013 292.007)" fill="#fff"/><rect width="93.836" height="7.104" transform="translate(95.013 312.527)" fill="#fff"/><rect width="93.836" height="7.104" transform="translate(95.013 333.047)" fill="#fff"/><rect width="93.836" height="7.104" transform="translate(95.013 353.567)" fill="#fff"/><rect width="93.836" height="7.104" transform="translate(95.013 374.087)" fill="#fff"/><rect width="42.553" height="195.992" transform="translate(326.184 230.456)" fill="#ff9a9a"/><rect width="4.321" height="14.638" transform="translate(331.044 239.425)" fill="#fff"/><rect width="4.32" height="14.638" transform="translate(340.549 239.425)" fill="#fff"/><rect width="4.321" height="14.638" transform="translate(350.053 239.425)" fill="#fff"/><rect width="4.32" height="14.638" transform="translate(359.558 239.425)" fill="#fff"/><rect width="4.321" height="14.638" transform="translate(331.044 262.57)" fill="#fff"/><rect width="4.32" height="14.638" transform="translate(340.549 262.57)" fill="#fff"/><rect width="4.321" height="14.638" transform="translate(350.053 262.57)" fill="#fff"/><rect width="4.32" height="14.638" transform="translate(359.558 262.57)" fill="#fff"/><rect width="4.321" height="14.638" transform="translate(331.044 285.715)" fill="#fff"/><rect width="4.32" height="14.638" transform="translate(340.549 285.715)" fill="#fff"/><rect width="4.321" height="14.638" transform="translate(350.053 285.715)" fill="#fff"/><rect width="4.32" height="14.638" transform="translate(359.558 285.715)" fill="#fff"/><rect width="4.321" height="14.638" transform="translate(331.044 308.859)" fill="#fff"/><rect width="4.32" height="14.638" transform="translate(340.549 308.859)" fill="#fff"/><rect width="4.321" height="14.638" transform="translate(350.053 308.859)" fill="#fff"/><rect width="4.32" height="14.638" transform="translate(359.558 308.859)" fill="#fff"/><rect width="4.321" height="14.638" transform="translate(331.044 332.004)" fill="#fff"/><rect width="4.32" height="14.638" transform="translate(340.549 332.004)" fill="#fff"/><rect width="4.321" height="14.638" transform="translate(350.053 332.004)" fill="#fff"/><rect width="4.32" height="14.638" transform="translate(359.558 332.004)" fill="#fff"/><rect width="4.321" height="14.638" transform="translate(331.044 355.149)" fill="#fff"/><rect width="4.32" height="14.638" transform="translate(340.549 355.149)" fill="#fff"/><rect width="4.321" height="14.638" transform="translate(350.053 355.149)" fill="#fff"/><rect width="4.32" height="14.638" transform="translate(359.558 355.149)" fill="#fff"/><rect width="4.321" height="14.638" transform="translate(331.044 378.293)" fill="#fff"/><rect width="4.32" height="14.638" transform="translate(340.549 378.293)" fill="#fff"/><rect width="4.321" height="14.638" transform="translate(350.053 378.293)" fill="#fff"/><rect width="4.32" height="14.638" transform="translate(359.558 378.293)" fill="#fff"/><rect width="32.41" height="54.609" transform="translate(219.577 76.26)" fill="#ffb1b1"/><path d="M0,0H60.86V23.088H0Z" transform="translate(205.351 130.867)" fill="#ff9a9a"/><rect width="77.425" height="272.492" transform="translate(197.069 153.957)" fill="#ffb1b1"/><rect width="19.446" height="19.659" transform="translate(226.058 56.601)" fill="#ff9a9a"/><rect width="8.186" height="54.609" transform="translate(231.688 76.26)" fill="#ff9a9a"/><g clip-path="url(#b)"><path d="M.5,56.6h-1V0h1Z" transform="translate(235.472)" fill="#ff9a9a"/></g><rect width="3.481" height="23.088" transform="translate(210.566 130.867)" fill="#fff"/><rect width="3.481" height="23.088" transform="translate(219.576 130.867)" fill="#fff"/><rect width="3.481" height="23.088" transform="translate(228.586 130.867)" fill="#fff"/><rect width="3.481" height="23.088" transform="translate(237.597 130.867)" fill="#fff"/><rect width="3.481" height="23.088" transform="translate(246.607 130.867)" fill="#fff"/><rect width="3.481" height="23.088" transform="translate(255.618 130.867)" fill="#fff"/><rect width="62.968" height="3.034" transform="translate(202.635 160.588)" fill="#fff"/><rect width="10.623" height="10.623" transform="translate(204.743 171.705)" fill="#fff"/><rect width="10.623" height="10.623" transform="translate(220.956 171.705)" fill="#fff"/><rect width="10.623" height="10.623" transform="translate(237.168 171.705)" fill="#fff"/><rect width="10.623" height="10.623" transform="translate(253.38 171.705)" fill="#fff"/><rect width="10.623" height="10.623" transform="translate(204.743 196.289)" fill="#fff"/><rect width="10.623" height="10.623" transform="translate(220.956 196.289)" fill="#fff"/><rect width="10.623" height="10.623" transform="translate(237.168 196.289)" fill="#fff"/><rect width="10.623" height="10.623" transform="translate(253.38 196.289)" fill="#fff"/><rect width="10.623" height="10.623" transform="translate(205.351 220.873)" fill="#fff"/><rect width="10.623" height="10.623" transform="translate(220.956 220.873)" fill="#fff"/><rect width="10.623" height="10.623" transform="translate(237.168 220.873)" fill="#fff"/><rect width="10.623" height="10.623" transform="translate(253.38 220.873)" fill="#fff"/><rect width="10.623" height="10.623" transform="translate(205.351 245.457)" fill="#fff"/><rect width="10.623" height="10.623" transform="translate(221.564 245.457)" fill="#fff"/><rect width="10.623" height="10.623" transform="translate(237.776 245.457)" fill="#fff"/><rect width="10.623" height="10.623" transform="translate(253.989 245.457)" fill="#fff"/><rect width="10.623" height="10.623" transform="translate(205.351 270.041)" fill="#fff"/><rect width="10.623" height="10.623" transform="translate(221.564 270.041)" fill="#fff"/><rect width="10.623" height="10.623" transform="translate(237.776 270.041)" fill="#fff"/><rect width="10.623" height="10.623" transform="translate(253.989 270.041)" fill="#fff"/><rect width="10.623" height="10.623" transform="translate(205.351 294.625)" fill="#fff"/><rect width="10.623" height="10.623" transform="translate(221.564 294.625)" fill="#fff"/><rect width="10.623" height="10.623" transform="translate(237.776 294.625)" fill="#fff"/><rect width="10.623" height="10.623" transform="translate(253.989 294.625)" fill="#fff"/><rect width="10.623" height="10.623" transform="translate(205.351 319.209)" fill="#edeff9"/><rect width="10.623" height="10.623" transform="translate(221.564 319.209)" fill="#edeff9"/><rect width="10.623" height="10.623" transform="translate(237.776 319.209)" fill="#edeff9"/><rect width="10.623" height="10.623" transform="translate(253.989 319.209)" fill="#edeff9"/><rect width="10.623" height="10.623" transform="translate(205.351 343.793)" fill="#edeff9"/><rect width="10.623" height="10.623" transform="translate(221.564 343.793)" fill="#edeff9"/><rect width="10.623" height="10.623" transform="translate(237.776 343.793)" fill="#edeff9"/><rect width="10.623" height="10.623" transform="translate(253.989 343.793)" fill="#edeff9"/><rect width="10.623" height="10.623" transform="translate(205.351 368.377)" fill="#edeff9"/><rect width="10.623" height="10.623" transform="translate(221.564 368.377)" fill="#edeff9"/><rect width="10.623" height="10.623" transform="translate(237.776 368.377)" fill="#edeff9"/><rect width="10.623" height="10.623" transform="translate(253.989 368.377)" fill="#edeff9"/><rect width="10.623" height="10.623" transform="translate(205.351 392.961)" fill="#edeff9"/><rect width="10.623" height="10.623" transform="translate(221.564 392.961)" fill="#edeff9"/><rect width="10.623" height="10.623" transform="translate(237.776 392.961)" fill="#edeff9"/><rect width="10.623" height="10.623" transform="translate(253.989 392.961)" fill="#edeff9"/><rect width="136.285" height="97.061" transform="translate(153.174 330.867)" fill="#ffb1b1"/><rect width="91.662" height="31.156" transform="translate(175.486 300.477)" fill="#ff9a9a"/><rect width="89.222" height="192.868" transform="translate(0 210.717)" fill="#ffb1b1"/><rect width="10.226" height="20.79" transform="translate(11.539 223.605)" fill="#edeff9"/><rect width="10.226" height="20.79" transform="translate(30.628 223.605)" fill="#fff"/><rect width="10.226" height="20.79" transform="translate(49.716 223.605)" fill="#fff"/><rect width="10.226" height="20.79" transform="translate(68.805 223.605)" fill="#fff"/><rect width="10.226" height="20.79" transform="translate(11.539 259.646)" fill="#edeff9"/><rect width="10.226" height="20.79" transform="translate(30.628 259.646)" fill="#fff"/><rect width="10.226" height="20.79" transform="translate(49.716 259.646)" fill="#fff"/><rect width="10.226" height="20.79" transform="translate(68.805 259.646)" fill="#fff"/><rect width="10.226" height="20.79" transform="translate(11.539 295.688)" fill="#edeff9"/><rect width="10.226" height="20.79" transform="translate(30.628 295.688)" fill="#fff"/><rect width="10.226" height="20.79" transform="translate(49.716 295.688)" fill="#fff"/><rect width="10.226" height="20.79" transform="translate(68.805 295.688)" fill="#fff"/><rect width="10.226" height="20.79" transform="translate(11.539 331.729)" fill="#edeff9"/><rect width="10.226" height="20.79" transform="translate(30.628 331.729)" fill="#fff"/><rect width="10.226" height="20.79" transform="translate(49.716 331.729)" fill="#fff"/><rect width="10.226" height="20.79" transform="translate(68.805 331.729)" fill="#fff"/><rect width="7.324" height="93.57" transform="translate(168.264 338.154)" fill="#fff"/><rect width="7.324" height="93.57" transform="translate(184.727 338.154)" fill="#fff"/><rect width="7.324" height="93.57" transform="translate(201.191 338.154)" fill="#fff"/><rect width="7.323" height="93.57" transform="translate(217.655 338.154)" fill="#fff"/><rect width="7.324" height="93.57" transform="translate(234.119 338.154)" fill="#fff"/><rect width="7.324" height="93.57" transform="translate(250.582 338.154)" fill="#fff"/><rect width="7.324" height="93.57" transform="translate(267.046 338.154)" fill="#fff"/></g></g></svg>