<svg xmlns="http://www.w3.org/2000/svg" xmlns:xlink="http://www.w3.org/1999/xlink" width="769.735" height="356.227" viewBox="0 0 769.735 356.227"><defs><clipPath id="a"><rect width="769.735" height="356.227" fill="none"/></clipPath><clipPath id="b"><path d="M187.014,216.656a2.966,2.966,0,0,0-2.805-.648c-1.816.416-3.478,3.483-3.478,3.483s-5.687,2.811-6.751,4.459-.112,1.82-.112,1.82a9.9,9.9,0,0,0-4.911,11.171,15.314,15.314,0,0,0,.994,3.118c1.987,4.313,12.119,16.636,12.119,16.636l8.735,19.647,21.582-10.984-10.457-14.945c5.983-7.858,1.911-23.708-.012-26.628-2.315-3.515-5.447-1.962-5.447-1.962s-4-6.849-6.168-7.221a2.685,2.685,0,0,0-.456-.04c-1.886,0-2.833,2.094-2.833,2.094" transform="translate(-168.697 -214.562)" fill="none"/></clipPath><clipPath id="d"><path d="M276.492,217.894l-36.87,20.087,7.285,68.637v36.2h89.758L341,224.927l-31.169-19.979Z" transform="translate(-239.622 -204.948)" fill="none"/></clipPath><clipPath id="e"><path d="M280.591,217.894l-7.192,3.918.655,74.612s23.186-70.158,45.333-87.981l-5.452-3.494Z" transform="translate(-273.399 -204.948)" fill="none"/></clipPath><clipPath id="g"><path d="M357.171,161.647s-6.819.3-8.58,1.468-.9,1.744-.9,1.744c-4.668.209-8.645,3.826-9.673,8.878a16.458,16.458,0,0,0-.371,3.5c.09,5.108,4.734,21.63,4.734,21.63l.1,23.132,27.659,1.779-5.477-22.5c9.293-5.148,12.144-22.522,11.514-26.23-.758-4.463-4.514-4.29-4.514-4.29s-.977-8.477-2.949-9.782c-1.994-1.32-4.129.6-4.129.6a3.19,3.19,0,0,0-2.481-1.854,2.489,2.489,0,0,0-.462-.041c-1.938,0-4.471,1.967-4.471,1.967" transform="translate(-337.648 -159.68)" fill="none"/></clipPath><clipPath id="i"><path d="M487.623,296.619a22.4,22.4,0,0,0-10.214-3.021c-5.7-.167-13.593,11.391-16.782,14.076s-4.7,10.74-.671,11.916c-2.685,2.853-.168,7.72,3.524,8.223-2.266,2.685-1.285,5.068.263,6.779a7.952,7.952,0,0,0,6.7,2.452l14.982-1.474a26.71,26.71,0,0,0,17.593-9.117l14.338-16.6c-3.692-20.475-17.629-29.556-17.629-29.556Z" transform="translate(-457.526 -280.3)" fill="none"/></clipPath><clipPath id="k"><path d="M493.941,142.914a3.4,3.4,0,0,0-2.962-1.462c-2.14-.014-4.8,2.975-4.8,2.975s-7.095,1.642-8.716,3.2-.6,2-.6,2c-4.856,1.124-8.327,5.689-8.427,11.188a17.506,17.506,0,0,0,.29,3.745c1.083,5.342,9.159,21.774,9.159,21.774l4.586,24.247,27-6.59-7.747-19.448c8.751-7.2,8.374-25.982,6.995-29.751-1.661-4.534-5.569-3.624-5.569-3.624s-2.668-8.7-4.989-9.691a2.931,2.931,0,0,0-1.152-.241,4.433,4.433,0,0,0-3.063,1.67" transform="translate(-468.426 -141.244)" fill="none"/></clipPath><clipPath id="m"><path d="M719.44,147.588l.43,9.078-13.276,79.873,9.819,21.828,11.3-22.124.319-80.541,6.058-7.512-8.8-9.293Z" transform="translate(-706.594 -138.897)" fill="none"/></clipPath></defs><g clip-path="url(#a)"><path d="M147.548,164.373c-24.51-.016-27.371,31.681-23.116,41.414s39.867-3.533,39.867-3.533c6.764-12.679-1.127-25.3-16.751-37.881" transform="translate(-14.905 -19.951)" fill="#583b1c"/><path d="M170.986,181.388c-.815-4.6-.707-11.311-14.272-12.9a40.371,40.371,0,0,0-7.084-.2,14.475,14.475,0,0,0-12.668,9.4c-3.857,10.333-11.386,31.755,6.8,35.194-.338.674,2.991,19.853-3.866,20.629-4.392,5.95,15.042,4.751,27.08-3.549Z" transform="translate(-16.033 -20.417)" fill="#f5c7b6"/><path d="M144.939,184.436a2.007,2.007,0,1,1,.894,2.695,2.007,2.007,0,0,1-.894-2.695" transform="translate(-17.566 -22.252)" fill="#272525"/><path d="M136.119,185.851s-3.519,2.31-3.342,3.29A5.632,5.632,0,0,0,135,191.818" transform="translate(-16.115 -22.558)" fill="#f5c7b6"/><path d="M135,192.448c-.137,0-.554,0-1.624-1.177a4.8,4.8,0,0,1-1.221-2.018c-.123-.686.423-1.467,1.827-2.613.873-.713,1.753-1.292,1.79-1.316a.631.631,0,0,1,.692,1.054c-.008.005-.778.512-1.557,1.136-1.27,1.016-1.473,1.459-1.5,1.552a5.962,5.962,0,0,0,1.752,2.141.631.631,0,0,1-.156,1.242Z" transform="translate(-16.115 -22.558)" fill="#e37669"/><path d="M139.285,199.438a8.356,8.356,0,0,1-2.5-.4,7.339,7.339,0,0,1-2.884-1.669.6.6,0,0,1,.821-.869,6.154,6.154,0,0,0,2.419,1.4,6.66,6.66,0,0,0,6.519-1.337.6.6,0,1,1,.756.926,8.662,8.662,0,0,1-2.652,1.525A7.488,7.488,0,0,1,139.285,199.438Z" transform="translate(-16.302 -23.904)" fill="#e37669"/><path d="M150.661,181.356a.628.628,0,0,1-.412-.153c-1.773-1.53-4.531-1.044-4.558-1.039a.631.631,0,0,1-.232-1.24c.137-.026,3.376-.608,5.614,1.324a.631.631,0,0,1-.412,1.108Z" transform="translate(-17.669 -21.781)" fill="#44160b"/><path d="M149.684,191.194c-.157,1.144-2.128,1.817-4.4,1.505s-3.987-1.494-3.83-2.637,2.127-1.818,4.4-1.505,3.987,1.493,3.831,2.637" transform="translate(-17.168 -22.877)" fill="#f08f7b"/><path d="M150.967,164.373s25.816,2.429,29.976,5.882,25.166,55.422-25.523,37.7c12.136-13.427,5.884-28.338-4.453-43.579" transform="translate(-18.324 -19.951)" fill="#583b1c"/><path d="M189.2,397.058l-77.416-.858c-.046-44.444,4.717-72.128,4.717-72.128,19.974-6.578,39.578-6.842,58.784,0,17.739,42.788,13.915,72.986,13.915,72.986" transform="translate(-13.568 -38.724)" fill="#f5abd2"/><path d="M127.529,249.521s-14.375,12.713-15.754,23.1c-.594,4.483,4.715,40.4,4.715,40.4,19.973-6.365,39.584-6.621,58.786,0l18.363-65.479a9.4,9.4,0,0,0-5.048-11.047l-22.531-7.094-22.05,14.17L142,232.626a.938.938,0,0,0-1.565-.109Z" transform="translate(-13.561 -27.845)" fill="#fff"/><path d="M43.61,163.356l-17.484-27.8s-8.432,11.182-12.563,17.922a6.978,6.978,0,0,0,.877,8.435c3.3,3.507,9.205,8.065,17.645,8.017Z" transform="translate(-1.521 -16.453)" fill="#f5c7b6"/><path d="M32.115,172.651,52.8,201.643l16.584-20.888-28.005-21.9Z" transform="translate(-3.898 -19.281)" fill="#f5c7b6"/><path d="M26.006,133.482l-9.733-13.9a2.6,2.6,0,0,0-4.516,2.525l8.9,20.545Z" transform="translate(-1.401 -14.379)" fill="#f5c7b6"/><path d="M18.033,157.723a3.6,3.6,0,0,1-2.832-1.367l-9-11.343a3.612,3.612,0,0,1,3.6-5.773l10.885,2.392a3.613,3.613,0,0,1-1.55,7.057l-.972-.214,2.691,3.392a3.611,3.611,0,0,1-2.827,5.857" transform="translate(-0.658 -16.89)" fill="#f5c7b6"/><path d="M13.12,161.284a3.606,3.606,0,0,1-1.7-.43L7.8,158.915a3.61,3.61,0,0,1-1.28-1.153l-3.092-4.55a3.612,3.612,0,0,1,5.976-4.06L12,152.968l2.834,1.52a3.613,3.613,0,0,1-1.711,6.8" transform="translate(-0.34 -17.911)" fill="#f5c7b6"/><path d="M9.427,165.709a3.6,3.6,0,0,1-1.865-.522l-4.23-2.557a3.613,3.613,0,0,1-1.472-1.718L.272,157.052A3.612,3.612,0,1,1,6.954,154.3l1.134,2.76,3.21,1.941a3.613,3.613,0,0,1-1.872,6.7" transform="translate(0 -18.457)" fill="#f5c7b6"/><path d="M135.289,227.088,72.338,183.781l-15.891,20.9L108.6,262.771Z" transform="translate(-6.851 -22.306)" fill="#fff"/><path d="M63.765,176.224,49.773,197.5a4.208,4.208,0,0,0,.3,5.027l6.869,8.129,20.338-28.435-10.058-6.7a2.489,2.489,0,0,0-3.459.7" transform="translate(-5.957 -21.253)" fill="#fff"/><path d="M76.707,186.326l-16.192,22.64,4.781,5.325c-.25-.278,11.412-27.965,11.412-27.965" transform="translate(-7.345 -22.615)" fill="#d4d4d4"/><path d="M183.943,294.889s-.624-13.58-2.782-16.889-12.257-4.318-12.257-4.318l-16.542,17.058s4.571,13.535,17.683,17.654Z" transform="translate(-18.493 -33.218)" fill="#f5c7b6"/><path d="M161.116,292.529l-5.622,4.289-4-5.248a3.536,3.536,0,0,1,5.622-4.289Z" transform="translate(-18.299 -34.7)" fill="#f5c7b6"/><path d="M164.761,286.957l-5.622,4.289-4-5.248a3.536,3.536,0,0,1,5.622-4.289Z" transform="translate(-18.742 -34.024)" fill="#f5c7b6"/><path d="M169.229,281.274l-5.622,4.289-4-5.248a3.536,3.536,0,0,1,5.622-4.289Z" transform="translate(-19.284 -33.334)" fill="#f5c7b6"/><path d="M176.058,278.809l-5.622,4.289-4-5.248a3.536,3.536,0,0,1,5.622-4.289Z" transform="translate(-20.113 -33.035)" fill="#f5c7b6"/><path d="M172.489,311.324s16.94,24.037,22.734,27.888,13.694-3.259,17.381-11.687-26.217-29.707-26.217-29.707Z" transform="translate(-20.936 -36.148)" fill="#fff"/><path d="M186.337,297.17l.34.242a180.372,180.372,0,0,1,14.537,11.731,67.308,67.308,0,0,1,9.255,9.9,18.16,18.16,0,0,1,2.541,4.634,5.579,5.579,0,0,1,.052,4.055,28.727,28.727,0,0,1-6.229,9.1c-2.716,2.594-5.512,3.965-8.087,3.965a6.756,6.756,0,0,1-3.8-1.158c-2.449-1.628-7.045-6.844-13.66-15.5-4.908-6.424-9.163-12.455-9.206-12.515l-.246-.349Zm12.409,42.617c2.313,0,4.871-1.275,7.4-3.688a27.706,27.706,0,0,0,6-8.773c.765-1.749-.072-4.34-2.487-7.7a66.316,66.316,0,0,0-9.111-9.736,179.543,179.543,0,0,0-14.113-11.418l-13.29,12.915c2.11,2.97,17.081,23.906,22.355,27.412A5.773,5.773,0,0,0,198.745,339.787Z" transform="translate(-20.936 -36.148)" fill="#e6e6e6"/><path d="M136.283,269.022l-1-.057a79.832,79.832,0,0,1,1.608-10.756,97.324,97.324,0,0,1,2.99-10.939,84.4,84.4,0,0,1,5.325-12.459l.884.468a90.512,90.512,0,0,0-8.216,23.116A78.893,78.893,0,0,0,136.283,269.022Z" transform="translate(-16.481 -28.529)" fill="#9e5555"/><path d="M138.8,270.091l-.632-.775a121.627,121.627,0,0,0,11.826-11.526c5.923-6.549,14-16.821,18.854-28.572l.924.382a87.75,87.75,0,0,1-8.854,16.044A130.127,130.127,0,0,1,138.8,270.091Z" transform="translate(-16.808 -27.845)" fill="#9e5555"/><path d="M0,0H27.445V14.7H0Z" transform="translate(108.805 265.744) rotate(-78.309)" fill="#fb7280"/><path d="M190.8,276.342,182.07,256.7s-10.132-12.323-12.119-16.636a15.26,15.26,0,0,1-.994-3.118,9.9,9.9,0,0,1,4.91-11.171s-.952-.172.112-1.821,6.752-4.459,6.752-4.459,1.661-3.067,3.478-3.484a2.965,2.965,0,0,1,2.8.649s1.1-2.432,3.289-2.055c2.165.373,6.168,7.221,6.168,7.221s3.131-1.552,5.447,1.962c1.923,2.92,5.995,18.771.013,26.628l10.456,14.945Z" transform="translate(-20.476 -26.043)" fill="#f5c7b6"/></g><g transform="translate(148.221 188.519)"><g clip-path="url(#b)"><path d="M180.7,243.564a3.76,3.76,0,0,1-2.42-.867c-.193-.167-.457-.4-2.192-5.06-.828-2.227-1.6-4.428-1.612-4.45a.708.708,0,0,1,1.337-.471c1.392,3.953,3.04,8.328,3.437,8.944a2.41,2.41,0,0,0,1.983.428,4.016,4.016,0,0,0,2.582-2.517c.3-.643.451-2.054-.488-5.124a49.732,49.732,0,0,0-2.577-6.4,2.583,2.583,0,0,0-3.269-1.444l-2.609,1.169a.709.709,0,1,1-.579-1.293l2.609-1.169a3.637,3.637,0,0,1,2.939,0,4.3,4.3,0,0,1,2.188,2.127,51.146,51.146,0,0,1,2.652,6.6c.871,2.846,1.008,4.851.421,6.13-1.071,2.33-2.532,3.086-3.57,3.31A3.933,3.933,0,0,1,180.7,243.564Z" transform="translate(-169.411 -215.915)" fill="#f08f7b"/><path d="M185.732,238.946a.709.709,0,0,1-.006-1.417,3.318,3.318,0,0,0,2.86-1.163,2.392,2.392,0,0,0,.426-1.167.583.583,0,0,1,.016-.137,24.226,24.226,0,0,0-1.326-5.25c-.782-2.484-1.722-5.122-2.236-6.273-1.118-2.5-1.669-2.834-2.984-2.669a.708.708,0,1,1-.176-1.406c2.543-.319,3.45,1.248,4.454,3.5.545,1.221,1.526,3.976,2.332,6.549,1.42,4.53,1.393,5.469,1.333,5.792a3.783,3.783,0,0,1-.628,1.8,4.568,4.568,0,0,1-4.059,1.841Z" transform="translate(-170.359 -215.238)" fill="#f08f7b"/><path d="M195.452,234.513a.709.709,0,0,1-.028-1.416,6.8,6.8,0,0,0,3.487-1.261c.344-.277.6-1.879-.086-5.16a33.95,33.95,0,0,0-2.918-8.287.709.709,0,1,1,1.252-.664,35.469,35.469,0,0,1,3.053,8.659,18.73,18.73,0,0,1,.465,3.89,3.329,3.329,0,0,1-.877,2.665,8.153,8.153,0,0,1-4.318,1.573Z" transform="translate(-171.944 -214.986)" fill="#f08f7b"/><path d="M190.335,236.612a.709.709,0,0,1-.037-1.416c1.095-.061,3.034-.462,3.6-1.281a6.471,6.471,0,0,0-.066-2.592,44.527,44.527,0,0,0-1-5.013c-1.054-4.147-2.381-7.421-3.465-8.545a.708.708,0,1,1,1.02-.983c1.9,1.973,3.436,7.655,3.861,9.35a44.6,44.6,0,0,1,1.011,5.212c.281,2.31.051,3-.181,3.349-1.125,1.68-4.342,1.9-4.706,1.918Z" transform="translate(-171.268 -214.891)" fill="#f08f7b"/><path d="M197.494,249.049a.709.709,0,0,1-.659-.447,16.186,16.186,0,0,1-.9-4.342,17.059,17.059,0,0,1,2-9.553.708.708,0,1,1,1.241.683,16.141,16.141,0,0,0-1.029,12.69.709.709,0,0,1-.658.97Z" transform="translate(-172.083 -217.048)" fill="#f08f7b"/></g></g><g clip-path="url(#a)"><path d="M210.45,255.7,186.6,267.838v6.853l-4.578-4.586-2.758,1.568,4.221,9.663,31.95-16.391Z" transform="translate(-21.759 -31.036)" fill="#fff"/><path d="M238.646,242.545s-5.49,3.719-6.192,9.5-.876,62.558-.876,62.558l14.352-3.423Z" transform="translate(-28.108 -29.439)" fill="#2b2b51"/><path d="M234.154,340.46c11.115-6,14-22.247,6.414-36.287l-21.336-39.531L181.668,283.26,200.3,325.919c7.574,14.04,22.739,20.542,33.853,14.541" transform="translate(-22.05 -32.121)" fill="#2b2b51"/><path d="M332.409,144.165s2.022,9.161,2.993,17.255-11.43,17.969-11.43,17.969l-6.021,11.691-4.079-25.33Z" transform="translate(-38.096 -17.498)" fill="#272525"/><path d="M294.913,127.074c-1.91-3.131-14.38-2.618-17.348-.6-9.174,6.231-7.31,22.067,5.986,20.482,3.442-.41,3.494,7.428,3.494,7.428l31.822,12.339,7.449-13a14.055,14.055,0,0,0-1.909-16.594c-11.637-12.407-23.039-10.249-29.495-10.048" transform="translate(-32.999 -15.153)" fill="#272525"/><path d="M318.183,167.756a8.023,8.023,0,0,0-6.635-8.33l3.827-20.395-27.6-5.4a13.517,13.517,0,0,0-15.473,9.158l-5.467,21.733s-4.7,20.492,11.883,23.06l1,22.857,33.343-12.946-2.89-23.048c3.482-.713,7.874-2.824,8.01-6.691" transform="translate(-32.313 -16.189)" fill="#f5c7b6"/><path d="M283.635,154.906a2.121,2.121,0,1,1,1.762,2.427,2.12,2.12,0,0,1-1.762-2.427" transform="translate(-34.423 -18.585)" fill="#272525"/><path d="M284.1,148.5a8.062,8.062,0,0,1,6.4,1.56.458.458,0,0,1-.525.748,6.713,6.713,0,0,0-5.435-.491.937.937,0,1,1-.439-1.817" transform="translate(-34.388 -18.011)" fill="#272525"/><path d="M273.412,153.632l-4.34,3.4a2.5,2.5,0,0,0-.394,3.567,4.334,4.334,0,0,0,1.717,1.282" transform="translate(-32.541 -18.647)" fill="#f5c7b6"/><path d="M270.394,162.593a.707.707,0,0,1-.256-.048,5.008,5.008,0,0,1-2-1.486,3.141,3.141,0,0,1-.725-2.368,3.252,3.252,0,0,1,1.223-2.214l4.34-3.4a.708.708,0,0,1,.874,1.115l-4.34,3.4a1.8,1.8,0,0,0-.688,1.245,1.735,1.735,0,0,0,.4,1.309,3.614,3.614,0,0,0,1.432,1.078.709.709,0,0,1-.257,1.369Z" transform="translate(-32.541 -18.647)" fill="#e37669"/><path d="M275.987,170.946a11.241,11.241,0,0,1-1.319-.079,9.176,9.176,0,0,1-3.927-1.387.709.709,0,0,1,.767-1.192,7.77,7.77,0,0,0,3.327,1.172,8.4,8.4,0,0,0,7.771-3.171.708.708,0,0,1,1.083.913,10.822,10.822,0,0,1-2.909,2.487A9.489,9.489,0,0,1,275.987,170.946Z" transform="translate(-32.908 -20.239)" fill="#e37669"/><path d="M317.612,174.731a.709.709,0,0,1-.132-1.4,3.806,3.806,0,0,0,1.754-6.636.708.708,0,1,1,.919-1.079,5.223,5.223,0,0,1-2.407,9.107A.711.711,0,0,1,317.612,174.731Z" transform="translate(-38.55 -20.167)" fill="#272525"/><path d="M292.786,133.9a77.578,77.578,0,0,1,13.821,4.87,5.49,5.49,0,0,1,2.852,6.193l-1.77,7.289a5.48,5.48,0,0,0,4.244,6.665l2.839.572,6.419-20.927Z" transform="translate(-35.537 -16.252)" fill="#272525"/><path d="M296.228,128.217c-3.429,6.979,8.155,20.953,14.579,22.317l5.823-14.791Z" transform="translate(-35.879 -15.562)" fill="#272525"/><path d="M292.667,125.74c-1.032-4.779,5.392-9.917,5.392-9.917s-2.791,4.079.73,6.091c5.133-4.654,12.468-4.651,14.3-2.816-2.61,2.461-2.472,4.76-2.472,4.76s9.66,2.5,13.487,5.433,1.059,14.956,1.059,14.956Z" transform="translate(-35.509 -14.058)" fill="#272525"/><path d="M352.634,227.687l4.87,3.369a13.806,13.806,0,0,1,5.715,8.783c4.009,21.148,17.435,96.818,10.851,129.452H340.285l-8.95-98.281Z" transform="translate(-40.216 -27.636)" fill="#2b2b51"/><path d="M375.561,388.852s-.528,10.259-2.117,14.139l-25.318.433s-2.477-6.838,4.784-14.572Z" transform="translate(-42.205 -47.197)" fill="#e8b7a7"/><path d="M373.223,375.775H338.991L327.963,277.05l.994-.111,10.929,97.837h33.338Z" transform="translate(-39.867 -33.62)" fill="#1c1c3a"/><path d="M276.492,217.893l-36.87,20.088,7.285,68.637v36.2h89.758L341,224.927l-31.169-19.98Z" transform="translate(-29.084 -24.876)" fill="#2b2b51"/></g><g transform="translate(210.538 180.072)"><g clip-path="url(#d)"><path d="M272.493,216.55l.691,78.53s23.184-70.163,45.333-87.98l2.071-13.222L266.224,203.6Z" transform="translate(-242.851 -203.604)" fill="#fff"/></g></g><g transform="translate(240.215 180.072)"><g clip-path="url(#e)"><path d="M278.114,226.874l1.687,3.8S264.159,289.087,263,315.2l9.581,9.866,9.279-13.639,5.816-80.754,5.476-6.518-8.615-7.643Z" transform="translate(-272.137 -206.352)" fill="#970d1b"/></g></g><g clip-path="url(#a)"><path d="M280.132,207.848l-6.772,10.4,5.815,8.931,6.62-11.712s-5.482-3.507-5.662-7.616" transform="translate(-33.179 -25.228)" fill="#fff"/><path d="M287.512,214.309l27.823-15.982,5.766,9.313-20.7,17.668Z" transform="translate(-34.897 -24.072)" fill="#fff"/><path d="M247.5,361.864s-3.287,42.349-3,42.349,94.98.485,94.98.485,4.533-18.483-2.225-42.834Z" transform="translate(-29.674 -48.471)" fill="#2b2b51"/><path d="M266.886,393.459a.709.709,0,0,1-.658-.972l4.586-11.466,1.741-71.979a.709.709,0,0,1,.708-.691h.017a.708.708,0,0,1,.691.725l-1.744,72.106a.709.709,0,0,1-.05.246l-4.634,11.585A.709.709,0,0,1,266.886,393.459Z" transform="translate(-32.393 -37.512)" fill="#1c1c3a"/><path d="M4.643,11.786-.458.2.458-.2l5.1,11.585Z" transform="translate(239.127 343.654)" fill="#1c1c3a"/><path d="M495.54,391.182h-101.7c-.062-56.751,5.75-93.2,5.75-93.2,26.363-8.4,52.24-8.738,77.589,0,23.414,54.636,18.366,93.2,18.366,93.2" transform="translate(-47.802 -35.388)" fill="#970d1b"/><path d="M342.481,222l-.1-23.131s-4.644-16.523-4.734-21.63a16.419,16.419,0,0,1,.372-3.5c1.027-5.051,5-8.668,9.672-8.877,0,0-.863-.581.9-1.744s8.58-1.469,8.58-1.469,2.964-2.3,4.933-1.925a3.189,3.189,0,0,1,2.481,1.853s2.135-1.919,4.129-.6c1.972,1.3,2.949,9.783,2.949,9.783s3.756-.173,4.514,4.289c.631,3.709-2.221,21.083-11.514,26.231l5.477,22.5Z" transform="translate(-40.982 -19.381)" fill="#f5c7b6"/></g><g transform="translate(296.666 140.299)"><g clip-path="url(#g)"><path d="M349.369,184.717a4.274,4.274,0,0,1-.855-.086,4.039,4.039,0,0,1-2.828-2.143c-.115-.242-.273-.575.037-5.906.148-2.551.337-5.055.339-5.08a.709.709,0,0,1,1.413.107c-.342,4.523-.614,9.566-.486,10.317a2.646,2.646,0,0,0,1.809,1.316,4.373,4.373,0,0,0,3.68-1.375c1.468-1.3,2.193-5.939,1.989-12.72a2.836,2.836,0,0,0-2.632-2.891h-.017l-3.074.022h-.005a.708.708,0,0,1,0-1.417l3.074-.022a3.86,3.86,0,0,1,2.855,1.256,4.578,4.578,0,0,1,1.22,3.008,55.051,55.051,0,0,1-.244,7.637c-.373,3.166-1.1,5.189-2.221,6.185A6.1,6.1,0,0,1,349.369,184.717Z" transform="translate(-338.692 -160.392)" fill="#f08f7b"/><path d="M356.945,182.385a6.386,6.386,0,0,1-2.517-.574.708.708,0,1,1,.559-1.3,3.616,3.616,0,0,0,3.374.087,2.624,2.624,0,0,0,.941-.986.6.6,0,0,1,.071-.121c.157-.266.536-1.769.973-5.748.307-2.793.524-5.809.516-7.172-.016-2.826-.339-3.531-1.822-3.972a.708.708,0,1,1,.4-1.358c2.608.776,2.82,2.7,2.835,5.322.008,1.438-.218,4.572-.538,7.452-.564,5.084-.992,5.976-1.186,6.259a4.009,4.009,0,0,1-1.382,1.487A4.08,4.08,0,0,1,356.945,182.385Z" transform="translate(-339.719 -159.952)" fill="#f08f7b"/><path d="M368.719,182.27a9.276,9.276,0,0,1-3.089-.547.709.709,0,1,1,.517-1.319,7.374,7.374,0,0,0,4.014.27c.405-.109,1.384-1.328,2.187-5.16a36.584,36.584,0,0,0,.715-9.44.709.709,0,1,1,1.413-.1,38.1,38.1,0,0,1-.741,9.834,20.1,20.1,0,0,1-1.223,4.021c-.584,1.289-1.233,2.014-1.982,2.216A6.964,6.964,0,0,1,368.719,182.27Z" transform="translate(-341.076 -160.45)" fill="#f08f7b"/><path d="M362.93,182.169a10.608,10.608,0,0,1-3.351-.656.708.708,0,1,1,.5-1.326c.749.281,3.115.935,4.15.288a6.668,6.668,0,0,0,1.065-2.573,47.732,47.732,0,0,0,1.195-5.378c.764-4.564.875-8.387.289-9.976a.709.709,0,0,1,1.33-.49c1.015,2.754.067,9-.247,10.853a47.941,47.941,0,0,1-1.259,5.565c-.718,2.38-1.234,2.955-1.6,3.19A3.853,3.853,0,0,1,362.93,182.169Z" transform="translate(-340.34 -159.998)" fill="#f08f7b"/><path d="M361.874,197.024h-.026a.709.709,0,0,1-.682-.734,17.35,17.35,0,0,1,.994-4.649,18.3,18.3,0,0,1,6.088-8.518.709.709,0,0,1,.861,1.125,16.885,16.885,0,0,0-5.612,7.86,16.117,16.117,0,0,0-.916,4.233A.709.709,0,0,1,361.874,197.024Z" transform="translate(-340.588 -162.594)" fill="#f08f7b"/></g></g><g clip-path="url(#a)"><path d="M395.574,197.252a18.53,18.53,0,0,0-8.28,4.65h0a18.526,18.526,0,0,0-2.273,2.66l-14.752,17.264-32.62,4.92.38,34.132c2.758,14.7,14.435,24.836,26.079,22.651,3.068-.576,23.988-11.559,23.988-11.559l11.195-5.395,22.335-76.028Z" transform="translate(-40.982 -23.128)" fill="#d6cdf1"/><path d="M6.968,31.314-.486.116.486-.116l7.454,31.2Z" transform="translate(327.824 198.919)" fill="#a88bf8"/><path d="M426.782,146s.771,37.53-4.839,49.525l23.021-1.161-4.548-43.528Z" transform="translate(-51.214 -17.721)" fill="#44160b"/><path d="M478.854,95.234c13.25,5.556,17.015,17.966,17.481,28.194s2.036,63.924,2.036,63.924l-33.65-5.932Z" transform="translate(-56.406 -11.559)" fill="#44160b"/><path d="M441.614,87.412c-16.536-1.066-28.855,28.083-23.239,40.929s41.552-9.5,41.552-9.5Z" transform="translate(-50.613 -10.606)" fill="#44160b"/><path d="M471.437,109.876c-1.076-6.074-.934-14.93-18.838-17.027a53.445,53.445,0,0,0-9.351-.269,19.106,19.106,0,0,0-16.72,12.406c-5.09,13.64-15.028,41.914,8.98,46.453-.446.89,3.948,26.2-5.1,27.228-5.8,7.854,19.854,6.271,35.743-4.683Z" transform="translate(-50.99 -11.226)" fill="#f5c7b6"/><path d="M437.058,113.9a2.65,2.65,0,1,1,1.18,3.557,2.65,2.65,0,0,1-1.18-3.557" transform="translate(-53.014 -13.647)" fill="#272525"/><path d="M425.416,115.766s-4.644,3.05-4.412,4.343a7.444,7.444,0,0,0,2.935,3.533" transform="translate(-51.099 -14.051)" fill="#f5c7b6"/><path d="M423.939,124.35h0a1.712,1.712,0,0,1-1.044-.535,10.675,10.675,0,0,1-1.006-.978,6.227,6.227,0,0,1-1.581-2.6c-.152-.843.578-1.871,2.368-3.331,1.147-.937,2.3-1.7,2.352-1.73a.708.708,0,0,1,.778,1.184c-.01.007-1.063.7-2.112,1.544-1.777,1.43-1.968,2.022-1.987,2.1a4.738,4.738,0,0,0,1.1,1.727,7.269,7.269,0,0,0,1.3,1.219.709.709,0,0,1-.161,1.4Z" transform="translate(-51.099 -14.051)" fill="#e37669"/><path d="M429.6,133.619a10.95,10.95,0,0,1-3.273-.519,9.619,9.619,0,0,1-3.775-2.184.709.709,0,1,1,.972-1.031,8.214,8.214,0,0,0,3.225,1.862,8.86,8.86,0,0,0,8.678-1.779.709.709,0,0,1,.9,1.1,11.341,11.341,0,0,1-3.476,2A9.8,9.8,0,0,1,429.6,133.619Z" transform="translate(-51.346 -15.828)" fill="#e37669"/><path d="M444.609,109.709a.706.706,0,0,1-.463-.172c-2.4-2.07-6.081-1.407-6.118-1.4a.708.708,0,0,1-.262-1.393c.178-.034,4.4-.792,7.306,1.72a.709.709,0,0,1-.463,1.245Z" transform="translate(-53.15 -13.026)" fill="#44160b"/><path d="M443.319,122.818c-.207,1.509-2.807,2.4-5.807,1.986s-5.262-1.97-5.055-3.479,2.807-2.4,5.807-1.987,5.262,1.971,5.055,3.48" transform="translate(-52.488 -14.473)" fill="#f08f7b"/><path d="M414.079,199.8s-18.974,16.779-20.793,30.5c-.785,5.917,6.222,53.327,6.222,53.327,26.362-8.4,52.246-8.74,77.59,0L501.338,197.2a12.413,12.413,0,0,0-6.664-14.581l-29.739-9.362-29.1,18.7L433.177,177.5a1.237,1.237,0,0,0-2.066-.143Z" transform="translate(-47.728 -21.029)" fill="#d6cdf1"/><path d="M414.079,203.471s-18.974,16.779-20.793,30.5c-.48,3.613,1.946,22.7,3.908,37.009" transform="translate(-47.728 -24.696)" fill="#d6cdf1"/><path d="M396.7,271.044c-2.049-14.945-4.389-33.52-3.908-37.143a29.819,29.819,0,0,1,4.079-10.737,71.448,71.448,0,0,1,7.112-9.911,107.831,107.831,0,0,1,9.766-10.157l.662.749a106.772,106.772,0,0,0-9.672,10.062c-6.437,7.655-10.226,14.614-10.957,20.125-.364,2.74,1.024,15.836,3.908,36.876Z" transform="translate(-47.728 -24.696)" fill="#a88bf8"/><path d="M474.731,185.126l-29.47,26.382-7.338-14.785-12.094,14.7-1.441-18.513" transform="translate(-51.51 -22.47)" fill="#d6cdf1"/><path d="M425.426,212.7l-1.537-19.749,1-.078,1.345,17.276,11.8-14.335,7.39,14.888L474.4,184.753l.667.745-29.959,26.821-7.287-14.681Z" transform="translate(-51.51 -22.47)" fill="#a88bf8"/><path d="M438.1,198.326s-11.332,25.926-12.1,37.516,1.251,45.446,1.251,45.446" transform="translate(-51.686 -24.072)" fill="#d6cdf1"/><path d="M426.755,281.317c-.02-.339-2.007-34.022-1.251-45.508.32-4.854,2.461-12.675,6.364-23.244,2.9-7.853,5.744-14.374,5.772-14.439l.916.4c-.028.065-2.862,6.563-5.752,14.39-3.814,10.329-5.993,18.268-6.3,22.958-.752,11.425,1.231,45.045,1.251,45.383Z" transform="translate(-51.686 -24.072)" fill="#a88bf8"/><path d="M440.644,222.861a2.183,2.183,0,1,1-2.183-2.182,2.182,2.182,0,0,1,2.183,2.182" transform="translate(-52.954 -26.785)" fill="#a88bf8"/><path d="M436.643,246.034a2.183,2.183,0,1,1-2.183-2.182,2.182,2.182,0,0,1,2.183,2.182" transform="translate(-52.468 -29.598)" fill="#a88bf8"/><path d="M436.924,270.731a2.183,2.183,0,1,1-2.183-2.183,2.182,2.182,0,0,1,2.183,2.183" transform="translate(-52.502 -32.595)" fill="#a88bf8"/><path d="M445.014,87.416s17.547,35.542,28.24,36.465l3.208-29.6Z" transform="translate(-54.014 -10.61)" fill="#44160b"/><path d="M517.351,309.856l-14.339,16.6a26.7,26.7,0,0,1-17.592,9.117l-14.983,1.474a7.951,7.951,0,0,1-6.7-2.452c-1.547-1.712-2.528-4.094-.262-6.779-3.693-.5-6.21-5.37-3.524-8.224-4.028-1.175-2.518-9.23.671-11.915S471.7,293.43,477.409,293.6a22.4,22.4,0,0,1,10.213,3.021l12.1-16.319s13.937,9.081,17.629,29.556" transform="translate(-55.532 -34.022)" fill="#f5c7b6"/></g><g transform="translate(401.993 246.278)"><g clip-path="url(#i)"><path d="M.234,5.215l-.468-.884,9-4.774.468.884Z" transform="translate(5.314 43.085)" fill="#f08f7b"/><path d="M.234,5.215l-.468-.884,9-4.774.468.884Z" transform="translate(1.386 34.909)" fill="#f08f7b"/><path d="M.234,5.215l-.468-.884,9-4.774.468.884Z" transform="translate(1.744 23.602)" fill="#f08f7b"/></g></g><g clip-path="url(#a)"><path d="M504.295,268.867l6.89-12.116-15.992-10.886L509.971,186.1s43.443,43.713,48.038,54.2c8.275,18.892-36.086,58.124-36.086,58.124Z" transform="translate(-60.104 -22.587)" fill="#d6cdf1"/><path d="M647.891,390.262H539.084c-9.8-75.913,6.439-99.425,6.439-99.425,28.125-8.962,55.731-9.322,82.775,0,24.979,58.288,19.593,99.425,19.593,99.425" transform="translate(-65.05 -34.468)" fill="#d1428e"/><path d="M482.465,210.589l-4.586-24.247s-8.075-16.433-9.16-21.774a17.5,17.5,0,0,1-.289-3.745c.1-5.5,3.57-10.064,8.426-11.188,0,0-1.017-.443.6-2s8.717-3.2,8.717-3.2,2.664-2.989,4.8-2.976a3.4,3.4,0,0,1,2.962,1.464s1.868-2.428,4.216-1.43c2.32.987,4.989,9.691,4.989,9.691s3.907-.91,5.569,3.625c1.379,3.768,1.756,22.548-6.995,29.75L509.466,204Z" transform="translate(-56.855 -17.144)" fill="#f5c7b6"/></g><g transform="translate(411.57 124.1)"><g clip-path="url(#k)"><path d="M481.438,170.692h-.082a4.261,4.261,0,0,1-3.345-1.68c-.165-.228-.39-.541-1.1-6.181-.339-2.705-.626-5.368-.629-5.394a.709.709,0,0,1,1.409-.152c.52,4.836,1.216,10.2,1.5,10.936a2.87,2.87,0,0,0,2.194,1.054,4.706,4.706,0,0,0,3.632-2.173c1.3-1.665,1.163-6.684-.371-13.77a3.069,3.069,0,0,0-3.393-2.555l-3.221.619a.709.709,0,0,1-.268-1.392l3.221-.619a4.071,4.071,0,0,1,3.2.756,4.835,4.835,0,0,1,1.844,2.891,58.523,58.523,0,0,1,1.225,8.053c.222,3.382-.145,5.635-1.121,6.887C484.389,170.209,482.632,170.692,481.438,170.692Z" transform="translate(-469.465 -142.31)" fill="#f08f7b"/><path d="M489.01,166.828a7.734,7.734,0,0,1-1.707-.2.709.709,0,0,1,.313-1.382,3.859,3.859,0,0,0,3.646-.617,2.848,2.848,0,0,0,.762-1.193.708.708,0,0,1,.05-.137c.115-.3.226-1.943-.088-6.223-.22-3-.578-6.214-.852-7.648-.563-2.955-1.072-3.675-2.722-3.851a.709.709,0,0,1,.15-1.409c2.854.3,3.443,2.262,3.964,4.995.287,1.5.658,4.835.881,7.917.392,5.414.111,6.457-.028,6.775a4.223,4.223,0,0,1-1.15,1.811A4.555,4.555,0,0,1,489.01,166.828Z" transform="translate(-470.736 -141.684)" fill="#f08f7b"/><path d="M500.515,164.4a9.1,9.1,0,0,1-1.592-.129.709.709,0,0,1,.269-1.391,7.916,7.916,0,0,0,4.293-.5c.413-.2,1.221-1.68,1.321-5.878a39.085,39.085,0,0,0-1.082-10.055.709.709,0,0,1,1.371-.359,40.6,40.6,0,0,1,1.127,10.448,21.4,21.4,0,0,1-.5,4.445c-.36,1.451-.891,2.326-1.625,2.677A8.4,8.4,0,0,1,500.515,164.4Z" transform="translate(-472.144 -141.854)" fill="#f08f7b"/><path d="M494.682,165.4a12.813,12.813,0,0,1-2.052-.167.709.709,0,1,1,.251-1.395c.847.151,3.48.379,4.452-.517.031-.038.375-.506.628-2.9a50.678,50.678,0,0,0,.215-5.884c-.082-4.959-.709-9.011-1.638-10.576a.709.709,0,1,1,1.218-.723c1.593,2.682,1.81,9.411,1.839,11.409a51.065,51.065,0,0,1-.242,6.076c-.29,2.621-.714,3.316-1.051,3.629a5.181,5.181,0,0,1-3.555,1.045Z" transform="translate(-471.379 -141.53)" fill="#f08f7b"/><path d="M497.724,181.09a.709.709,0,0,1-.7-.605,18.457,18.457,0,0,1,.141-5.055,20.257,20.257,0,0,1,1.386-4.873,18.807,18.807,0,0,1,3.339-5.218.708.708,0,1,1,1.051.95,18.057,18.057,0,0,0-4.376,9.358,17.245,17.245,0,0,0-.14,4.632.709.709,0,0,1-.7.812Z" transform="translate(-471.97 -144.226)" fill="#f08f7b"/></g></g><g clip-path="url(#a)"><path d="M569.447,176.215l-27.794,7.154a19.776,19.776,0,0,0-13.562,12.139l-11.477,26.3-.036-.089-7.088-24.761-30.1,3.71.8,46.063a32.434,32.434,0,0,0,4.6,16.412c5.417,8.831,14.365,13.944,23.294,12.27a18.47,18.47,0,0,0,5.613-2.043l31.922-16.043Z" transform="translate(-58.186 -21.388)" fill="#fff"/><path d="M2.939,15.686-.488.107.488-.107,3.916,15.471Z" transform="translate(458.392 200.331)" fill="#e6e6e6"/><path d="M564.068,65.089c-17.336,2.332-22.863,23.805-13.534,31.69s40.206-14.325,40.206-14.325Z" transform="translate(-66.276 -7.9)" fill="#974f3b"/><path d="M612.67,76.5c-5.107-2.976-17.474-13.735-36.5-10.963a56.974,56.974,0,0,0-9.712,2.3A20.383,20.383,0,0,0,552.64,85.236c-1.487,15.459-3.939,47.339,22.055,45.4-.183.883,3.035,15.475-1.551,22.013a4.655,4.655,0,0,0,3.437,7.438c10.94.572,31.933-5.269,41.131-16.057,0,0-10.344-11.086-7.9-35.154Z" transform="translate(-66.975 -7.9)" fill="#f5c7b6"/><path d="M564.762,92.652a2.827,2.827,0,1,1,2.2,3.341,2.827,2.827,0,0,1-2.2-3.341" transform="translate(-68.541 -10.972)" fill="#272525"/><path d="M552.9,97s-3.947,4.423-3.35,5.692,3.594,2.94,4,2.833" transform="translate(-66.695 -11.774)" fill="#f5c7b6"/><path d="M553.506,106.164a2.342,2.342,0,0,1-.933-.283,11.266,11.266,0,0,1-1.291-.723,6.73,6.73,0,0,1-2.3-2.194c-.247-.526-.3-1.451,1.511-3.959.921-1.276,1.9-2.375,1.94-2.421a.631.631,0,0,1,.941.84c-.009.01-.941,1.058-1.808,2.25-1.539,2.117-1.448,2.72-1.44,2.758.457.958,2.838,2.343,3.385,2.467a.631.631,0,0,1,.2,1.239A.787.787,0,0,1,553.506,106.164Z" transform="translate(-66.695 -11.774)" fill="#e37669"/><path d="M559.441,114.9q-.265,0-.533-.011a10.1,10.1,0,0,1-4.425-1.192.6.6,0,0,1,.568-1.051,8.916,8.916,0,0,0,3.906,1.05,9.6,9.6,0,0,0,8.588-4.29.6.6,0,1,1,.97.7,11.948,11.948,0,0,1-2.992,2.981A10.6,10.6,0,0,1,559.441,114.9Z" transform="translate(-67.335 -13.321)" fill="#e37669"/><path d="M563.765,86.4a.631.631,0,0,1-.273-1.2c.172-.083,4.259-2,7.895-.241a.631.631,0,1,1-.549,1.135c-3.1-1.5-6.764.226-6.8.244A.628.628,0,0,1,563.765,86.4Z" transform="translate(-68.427 -10.299)" fill="#974f3b"/><path d="M573.665,100.016c.2,1.613-2.233,3.246-5.437,3.647s-5.967-.581-6.169-2.194,2.232-3.246,5.437-3.647,5.967.581,6.169,2.194" transform="translate(-68.219 -11.862)" fill="#f08f7b"/><path d="M630.326,109.475s-.21-34.911-12.83-44.742c0,0-16.8-16.163-52.129-3.621a2.428,2.428,0,0,0-1.211,3.612c7.386,11.362,12.411,42.18,42.436,45.76,1.171,9.315,3.39,23.7,6.7,28.578,8.269,12.172,27.435,8.7,30.263-5.739a18.8,18.8,0,0,0,.308-3.623c.005-18.772-13.54-20.225-13.54-20.225" transform="translate(-68.427 -6.839)" fill="#974f3b"/><path d="M560.626,185.207s-28.279,27.241-28.279,33.608,12.735,55.817,12.735,55.817c28.125-8.962,55.738-9.324,82.778,0l25.858-92.2a13.242,13.242,0,0,0-7.108-15.555l-37.127-16.385L570.5,160.7a5.625,5.625,0,0,0-3.984,3.9Z" transform="translate(-64.614 -18.266)" fill="#fff"/><path d="M613.831,150.516l-33.683,9.18a1.772,1.772,0,0,1-2.239-1.71v-7.314a1.773,1.773,0,0,1,1.307-1.711l31.574-8.605a4.089,4.089,0,0,1,4.882,2.451l.89,2.269a4.089,4.089,0,0,1-2.731,5.44" transform="translate(-70.144 -17.018)" fill="#c87777"/><path d="M611.6,150.489c-9.1,18.238,14.965,31.883,14.965,31.883s5.5-25.959-14.965-31.883" transform="translate(-73.983 -18.266)" fill="#c87777"/><path d="M616.6,149.769c2.7,20.2,30.269,18.007,30.269,18.007s-10-24.579-30.269-18.007" transform="translate(-74.84 -18.043)" fill="#c87777"/><path d="M594.481,253.672l-.558-.83,24.12-16.206L616.4,200.1l1-.045,1.667,37.1-.233.157Z" transform="translate(-72.122 -24.285)" fill="#e6e6e6"/><path d="M599.553,279.171,551.1,284.912a2.941,2.941,0,0,1-3.2-2.213l-20.649-83.161a2.943,2.943,0,0,1,2.369-3.611l47.734-8.006a2.942,2.942,0,0,1,3.341,2.188l21.364,85.427a2.942,2.942,0,0,1-2.509,3.636" transform="translate(-63.985 -22.804)" fill="#fb7280"/><path d="M616.73,189.663l2.031,45.191-22.869,15.364,1.495,31.6s50.384-3.21,64.538-18.068V183.268Z" transform="translate(-72.327 -22.244)" fill="#fff"/><path d="M575.029,264.108l-30.1-1.39a3.735,3.735,0,0,0-3.678,1.532c-1.038,1.48-2.16,3.546-1.757,5.155.7,2.819,1.551,2.961,1.551,2.961a6.3,6.3,0,0,0-.846,4.934,8.032,8.032,0,0,0,2.568,4.23s-1.659,1.406,0,5.216,2.508,4.324,2.508,4.324-1.27,5.827.987,6.955,24.531-.658,35.246-6.955h9.023l-1.495-31.6Z" transform="translate(-65.471 -31.493)" fill="#f5c7b6"/><path d="M16.951.5H0v-1H16.951Z" transform="translate(546.434 212.61)" fill="#e6e6e6"/><path d="M698.313,153.068c-.243.48-16.422,13.1-19.171,27.927s-5.772,153.778-5.772,153.778,12.076,5.05,16.793,1.327Z" transform="translate(-81.731 -18.579)" fill="#fff"/><path d="M673.371,359.874s.606,39.136,12.5,39.6l-.062-37.89Z" transform="translate(-81.731 -43.68)" fill="#f08f7b"/><path d="M687.588,179.664l-.058,99.448,112.914-6.836,13.329-128.726-19.621-33.5-30.7,2.7-29.629,11.63a84.643,84.643,0,0,0-27.084,17.151l-6.711,6.314a46.82,46.82,0,0,0-12.444,31.817" transform="translate(-83.449 -13.358)" fill="#fff"/><path d="M723.015,7.571c-3.35-3.507-19.32.665-22.588,4.1-10.1,10.635-2.722,40.331,14.015,34.54,4.333-1.5,7.284,3.811,7.284,3.811l44.6,6.986,5.965-18.9A18.59,18.59,0,0,0,765.149,17.2C746.619,4.446,731.3,5.493,723.015,7.571" transform="translate(-84.457 -0.758)" fill="#6c473f"/><path d="M766.769,59.007a10.611,10.611,0,0,0-10.92-8.9l-.8-27.432-37.183.793a17.88,17.88,0,0,0-17.419,16.19l-.945,29.625s-.3,27.8,21.847,26.455l2.819,30.325L761.22,98.546l-.428-27.787a10.681,10.681,0,0,0,5.977-11.752" transform="translate(-84.903 -2.752)" fill="#f5c7b6"/><path d="M728.737,53.1a2.8,2.8,0,1,1,2.736,2.871,2.8,2.8,0,0,1-2.736-2.871" transform="translate(-88.451 -6.113)" fill="#272525"/><path d="M702.867,55.832a2.655,2.655,0,1,1,2.59,2.718,2.655,2.655,0,0,1-2.59-2.718" transform="translate(-85.311 -6.462)" fill="#272525"/><path d="M728.352,44.912a10.446,10.446,0,0,1,8.476.769.457.457,0,0,1,.156.629.463.463,0,0,1-.613.167,9.11,9.11,0,0,0-7.358.184.935.935,0,1,1-.66-1.748" transform="translate(-88.325 -5.386)" fill="#272525"/><path d="M712.809,68.229a.714.714,0,0,1-.111-.009c-3.305-.522-5.276-3.957-5.358-4.1a.709.709,0,0,1,.071-.8l6.426-7.763a.709.709,0,0,1,1.092.9l-6.1,7.364c.571.828,2.053,2.677,4.086,3a.709.709,0,0,1-.11,1.408Z" transform="translate(-85.929 -6.798)" fill="#e37669"/><path d="M764.481,70.886a.709.709,0,0,1-.126-1.406,5.19,5.19,0,0,0,4.335-5.9,5.031,5.031,0,0,0-4.015-3.98.709.709,0,0,1,.286-1.388,6.442,6.442,0,0,1,5.123,5.114,6.607,6.607,0,0,1-5.476,7.551A.713.713,0,0,1,764.481,70.886Z" transform="translate(-92.789 -7.149)" fill="#272525"/><path d="M706.855,49.3a4.551,4.551,0,0,0-4.792,1.149.566.566,0,0,1-.868-.721,6.039,6.039,0,0,1,6.22-2.211.936.936,0,1,1-.56,1.784" transform="translate(-85.094 -5.747)" fill="#272525"/><path d="M707.957,76.389a.6.6,0,0,1-.067-1.191l13.564-1.537a2.418,2.418,0,0,0,1.337-.594l2.013-1.78a.6.6,0,1,1,.792.9l-2.013,1.78a3.607,3.607,0,0,1-1.994.886l-13.564,1.537A.6.6,0,0,1,707.957,76.389Z" transform="translate(-85.929 -8.707)" fill="#e37669"/><path d="M723.1,23.035c7.062.389,13.793.988,19.231,2.4a7.261,7.261,0,0,1,5.429,7.2l-.234,9.918a7.247,7.247,0,0,0,7.36,7.418l3.829-.06,2.4-28.851Z" transform="translate(-87.766 -2.557)" fill="#6c473f"/><path d="M726.027,14.97c-2.466,9.984,16.437,24.782,25.123,24.736l3.362-20.752Z" transform="translate(-88.095 -1.817)" fill="#6c473f"/><path d="M687.529,301.613l.062,90.041H810.467c3.268-24.23-4.666-70.285-10.087-96.216Z" transform="translate(-83.449 -35.859)" fill="#1d1a37"/><path d="M735,397.1l-7.108-48.759-10.047-8.258.635-.773,10.346,8.5,7.164,49.142Z" transform="translate(-87.167 -41.23)" fill="#8d8d8d"/><path d="M775.185,111.105l-4.772-10.338a5.287,5.287,0,0,0-8.539-1.524l-34.041,34.027,13.315,14.947Z" transform="translate(-88.341 -11.858)" fill="#fff"/><path d="M765.6,97.195h0a5.828,5.828,0,0,1,3.06.865,5.751,5.751,0,0,1,2.206,2.5l4.911,10.64-34.636,37.766-14-15.713L761.521,98.89A5.736,5.736,0,0,1,765.6,97.195Zm8.99,13.818-4.632-10.036a4.749,4.749,0,0,0-4.358-2.782h0a4.743,4.743,0,0,0-3.373,1.4L728.52,133.291l12.633,14.182Z" transform="translate(-88.341 -11.858)" fill="#e6e6e6"/><path d="M734.091,148.191l-6.058,7.512-.32,80.541-11.3,22.124-9.819-21.829,13.275-79.873-.43-9.078,5.849-8.691Z" transform="translate(-85.763 -16.859)" fill="#970d1b"/></g><g transform="translate(620.831 122.038)"><g clip-path="url(#m)"><path d="M.275,49.756l-.55-.826L73.89-.413l.549.826Z" transform="translate(-16.703 -7.892)" fill="#ffa5a5"/><path d="M.275,49.756l-.55-.826L73.89-.413l.549.826Z" transform="translate(-16.285 2.167)" fill="#ffa5a5"/><path d="M.275,49.756l-.55-.826L73.89-.413l.549.826Z" transform="translate(-15.867 12.225)" fill="#ffa5a5"/><path d="M.275,49.756l-.55-.826L73.89-.413l.549.826Z" transform="translate(-15.45 22.284)" fill="#ffa5a5"/><path d="M.275,49.756l-.55-.826L73.89-.413l.549.826Z" transform="translate(-15.032 32.343)" fill="#ffa5a5"/><path d="M.275,49.756l-.55-.826L73.89-.413l.549.826Z" transform="translate(-14.615 42.402)" fill="#ffa5a5"/><path d="M.275,49.756l-.55-.826L73.89-.413l.549.826Z" transform="translate(-14.197 52.461)" fill="#ffa5a5"/><path d="M.275,49.756l-.55-.826L73.89-.413l.549.826Z" transform="translate(-13.779 62.52)" fill="#ffa5a5"/><path d="M.275,49.756l-.55-.826L73.89-.413l.549.826Z" transform="translate(-13.362 72.579)" fill="#ffa5a5"/><path d="M.275,49.756l-.55-.826L73.89-.413l.549.826Z" transform="translate(-12.944 82.638)" fill="#ffa5a5"/></g></g><g clip-path="url(#a)"><path d="M724.925,121.882c-4.566,3.482-5.1,11.82-5.1,11.82l1.223,11.82,5.848-8.691Z" transform="translate(-87.369 -14.794)" fill="#fff"/><path d="M725.308,120.961l2.106,15.992-6.724,9.993-1.369-13.234,0-.042a25.283,25.283,0,0,1,.856-4.707c.965-3.451,2.46-5.967,4.442-7.479Zm1.065,15.748-1.824-13.846c-3.574,3.444-4.18,10.248-4.225,10.832l1.077,10.4Z" transform="translate(-87.369 -14.794)" fill="#e6e6e6"/><path d="M783.8,26.029,726.65.087s-2.681-1.206-1.835,5.4c.81,6.319,17.7,17.4,17.7,17.4s1.035,16.007,9.4,19.57,20.6,3.878,20.6,3.878Z" transform="translate(-87.955 0)" fill="#f5c7b6"/><path d="M805.346,81.6c-13.2,24.02-25.526,47.745-27.271,57.732-2.6,14.887,22.415,68.773,34.811,42.1,7.814-16.813,37.183-68.959,46.793-88.332,5.389-10.864,7.125-35.5-3.484-41.378L792.645,24.5,776.27,53.041Z" transform="translate(-94.22 -2.974)" fill="#fff"/><line x1="18.624" y2="32.938" transform="translate(691.728 26.637)" fill="#fff"/><path d="M.435,33.184l-.87-.492L18.189-.246l.87.492Z" transform="translate(691.728 26.637)" fill="#e6e6e6"/><line y1="13.573" x2="22.102" transform="translate(711.126 65.056)" fill="#fff"/><path d="M.262,14l-.523-.852L21.84-.426l.523.852Z" transform="translate(711.126 65.056)" fill="#e6e6e6"/></g></svg>