<svg xmlns="http://www.w3.org/2000/svg" xmlns:xlink="http://www.w3.org/1999/xlink" width="310" height="173" viewBox="0 0 310 173"><defs><clipPath id="a"><rect width="310" height="173" transform="translate(0.193 -0.223)" fill="red"/></clipPath><clipPath id="b"><rect width="310.197" height="263.59" fill="none"/></clipPath><clipPath id="c"><path d="M216.414,97.844l-2.385,8.177s-11.278-33.36-18.338-39.977c0,0-14.372,2.838-15.661,4.992l-2.457,29.191,3.317,61.378,59.842-1.3L243.875,71,235.8,67.208a103.454,103.454,0,0,0-12.976-2.048s-.618,10.877-6.411,32.684" transform="translate(-177.573 -65.16)" fill="none"/></clipPath><clipPath id="e"><path d="M338.436,116.974c-1.905-5.761-3.889-11.7-3.889-11.7-1.633-8.752-2.859-16.777-1.377-20,0,0-3.9.283-5.256,1.2-21.352,14.433-5.225,31.751-5.225,31.751l-2.822,32.819c6.326,0,11.327.027,14.677.078a.279.279,0,0,0,0,.1c4.271.172,34.883.545,34.883.545-1.2-31.115-6.072-64.964-6.072-64.964l-7.277-.949-4.88-.685c-1.245,1.226-3.618,6.322-12.764,31.808" transform="translate(-316.85 -85.166)" fill="none"/></clipPath></defs><g transform="translate(-0.193 0.223)" clip-path="url(#a)"><g clip-path="url(#b)"><path d="M176.366,31.855a23.246,23.246,0,0,1-6.958,18.426l-9.231-7.655s-4.924-19.073,7.635-20Z" transform="translate(-43.223 -6.143)" fill="#bd462e"/><path d="M169.611,20.63c1.282.744,1.348,3.026.15,5.1s-3.219,3.15-4.5,2.4-1.35-3.025-.144-5.1,3.214-3.155,4.5-2.408" transform="translate(-44.587 -5.536)" fill="#bd462e"/><path d="M174.681,22.759c1.4.81,1.383,3.445-.034,5.888s-3.7,3.763-5.091,2.954-1.386-3.447.035-5.885,3.692-3.767,5.09-2.956" transform="translate(-45.745 -6.114)" fill="#bd462e"/><path d="M179.258,26.571c1.4.809,1.383,3.442-.035,5.885s-3.692,3.764-5.09,2.952-1.384-3.445.033-5.884,3.694-3.761,5.092-2.953" transform="translate(-46.988 -7.149)" fill="#bd462e"/><path d="M183.049,31.372c1.281.747,1.349,3.026.149,5.1s-3.214,3.149-4.5,2.4-1.349-3.024-.149-5.1,3.219-3.149,4.5-2.407" transform="translate(-48.236 -8.452)" fill="#bd462e"/><path d="M178.475,35.4a15.185,15.185,0,0,0,2.2-3.148" transform="translate(-48.448 -8.756)" fill="none" stroke="#35051f" stroke-linecap="round" stroke-linejoin="round" stroke-width="1"/><path d="M168.821,28.816s1.466-3.447,2.892-4.054" transform="translate(-45.828 -6.722)" fill="none" stroke="#35051f" stroke-linecap="round" stroke-linejoin="round" stroke-width="1"/><path d="M173.737,32.627s1.3-3.183,3.1-4.115" transform="translate(-47.162 -7.74)" fill="none" stroke="#35051f" stroke-linecap="round" stroke-linejoin="round" stroke-width="1"/><path d="M159.966,39.7s-4.131-11.44-.189-14.024c0,0,3.64-3.649,3.317,2.143l-.369,2.314s4.38,3.259,2.331,10.706" transform="translate(-42.91 -6.663)" fill="#bd462e"/><path d="M87.7,77.552c1.445-2.112-1.845-1.789.256-3.19,2.32-1.55,4.451-4.8,6.884-4.425,3.544.541,15.02-.7,18.628-.7a34.122,34.122,0,0,0,12.068-1.7c6.217-2.32,7.815,1.145,7.9.806,0,0,10.993.492,10.991,5.6-.011,15.363-16.169,19.9-28.279,23.063C110.7,98.433,86.8,103.6,81.384,105.123c-1.338.375-2.679.74-4.017,1.1,0,0,10.228-14.384,8.6-16.716-1.186-1.7-1.024-5.232-.389-6.923.859-2.307.781-3.075,2.125-5.036" transform="translate(-21.002 -18.115)" fill="#92c3f4"/><path d="M22.407,321.469a12.955,12.955,0,0,1,7.014-7.97c.017.058,5.116-2.8,7.449-4.106l2.811-23.165,17.72,1.2c-.267.916-3.241,20.561-4.184,26.829l.423.036a9.508,9.508,0,0,1,1.2,4.982,8.726,8.726,0,0,1-.981,3.6l-31.236,2.3a4.773,4.773,0,0,1-.213-3.7" transform="translate(-6.008 -77.699)" fill="#376ac4"/><line y1="2.398" x2="27.838" transform="translate(19.451 241.345)" fill="none" stroke="#35051f" stroke-linecap="round" stroke-linejoin="round" stroke-width="1"/><line x2="2.578" y2="1.291" transform="translate(31.805 227.333)" fill="none" stroke="#35051f" stroke-linecap="round" stroke-linejoin="round" stroke-width="1"/><line x2="2.211" y2="1.474" transform="translate(31.25 229.915)" fill="none" stroke="#35051f" stroke-linecap="round" stroke-linejoin="round" stroke-width="1"/><line x2="1.473" y2="2.212" transform="translate(29.591 232.127)" fill="none" stroke="#35051f" stroke-linecap="round" stroke-linejoin="round" stroke-width="1"/><path d="M93.4,312.15s-.868-26-1.128-26.929l17.926-.266,1,23.338c2.493,1.5,6.413,3.847,6.429,3.8a12.959,12.959,0,0,1,6.767,8.178,4.765,4.765,0,0,1-.331,3.7L92.92,320.712a8.79,8.79,0,0,1-.87-3.622,9.48,9.48,0,0,1,1.351-4.94" transform="translate(-24.987 -77.353)" fill="#376ac4"/><line x1="27.839" y1="2.398" transform="translate(69.412 241.345)" fill="none" stroke="#35051f" stroke-linecap="round" stroke-linejoin="round" stroke-width="1"/><line x1="2.582" y2="1.291" transform="translate(82.317 227.333)" fill="none" stroke="#35051f" stroke-linecap="round" stroke-linejoin="round" stroke-width="1"/><line x1="2.213" y2="1.474" transform="translate(83.239 229.915)" fill="none" stroke="#35051f" stroke-linecap="round" stroke-linejoin="round" stroke-width="1"/><line x1="1.475" y2="2.212" transform="translate(85.636 232.127)" fill="none" stroke="#35051f" stroke-linecap="round" stroke-linejoin="round" stroke-width="1"/><path d="M101.958,202.02a3.329,3.329,0,0,0,3.259,3.357l8.805-.55a3.327,3.327,0,0,0,2.815-3.736l-.876-14.041a3.328,3.328,0,0,0-3.257-3.359l-8.806.549a3.329,3.329,0,0,0-2.817,3.739Z" transform="translate(-27.437 -49.863)" fill="#182b79"/><path d="M96.553,132.791c2.189,2.068,3.04,8.912,3.812,11.762.974,3.6,3.323,7.244,3.917,10.921,1.066,6.57,5.7,69.678,7.084,79.4.964,6.759,1.091,21.774-7.682,24-3.917,1-14.512,2.882-17.982.507-7.44-5.1-5.473-21.9-5.889-29.5-.792-14.514-1.778-29.005-3.394-43.458q-.8-7.171-1.821-14.319c-.417-2.927-3.406-11.551-2.189-14.108.016-.031,6.051-12.693,16.857-32.078,0,0,7.277,6.861,7.286,6.866" transform="translate(-19.578 -34.183)" fill="#376ac4"/><path d="M117.078,276.872s0,14.313-4.381,17.009" transform="translate(-30.592 -75.159)" fill="none" stroke="#35051f" stroke-linecap="round" stroke-linejoin="round" stroke-width="1"/><path d="M103.023,275.1s-2.924,13.332.045,17.665" transform="translate(-27.617 -74.679)" fill="none" stroke="#35051f" stroke-linecap="round" stroke-linejoin="round" stroke-width="1"/><path d="M89.35,271.922s1.239,14.488,6.187,19.842" transform="translate(-24.255 -73.815)" fill="none" stroke="#35051f" stroke-linecap="round" stroke-linejoin="round" stroke-width="1"/><path d="M49.782,132.756c-2.227,2.029-3.19,8.855-4.008,11.7a107.765,107.765,0,0,0-2.554,10.879c-1.172,6.551-2.4,13.169-2.6,19.807-.3,10.116-1.539,17.862-2.557,28-.986,9.8-2.478,21.764-4.026,31.46-1.077,6.743-2.225,21.728,6.508,24.1,3.9,1.06,14.462,3.123,17.972.805,7.524-4.976,5.837-21.81,6.379-29.392,1.032-14.5,2.258-28.973,4.117-43.4q.923-7.157,2.059-14.285c.465-2.921,3.6-11.495,2.424-14.07-.015-.033-5.836-12.792-16.318-32.358,0,0-7.393,6.742-7.4,6.749" transform="translate(-9.042 -34.206)" fill="#376ac4"/><path d="M65.08,272.625s0,17.784-4.381,21.134" transform="translate(-16.477 -74.006)" fill="none" stroke="#35051f" stroke-linecap="round" stroke-linejoin="round" stroke-width="1"/><path d="M42.657,277.228s1.032,11.853,5.155,16.236" transform="translate(-11.58 -75.256)" fill="none" stroke="#35051f" stroke-linecap="round" stroke-linejoin="round" stroke-width="1"/><path d="M38.214,197.7a3.511,3.511,0,0,0,3.061,3.9l9.979,1.074a3.507,3.507,0,0,0,3.823-3.159l1.505-13.99a3.5,3.5,0,0,0-3.058-3.9l-9.979-1.078a3.51,3.51,0,0,0-3.823,3.164Z" transform="translate(-10.368 -49.005)" fill="#182b79"/><path d="M55.949,189.349s-6.73,3.535-12.683-1.367" transform="translate(-11.745 -51.029)" fill="none" stroke="#35051f" stroke-linecap="round" stroke-linejoin="round" stroke-width="1"/><path d="M50.474,195.548a1.207,1.207,0,1,0,1.3,1.107,1.209,1.209,0,0,0-1.3-1.107" transform="translate(-13.4 -53.082)" fill="#35051f"/><path d="M86.183,183.17l-2.976,6.955-3.112,39.365" transform="translate(-21.742 -49.723)" fill="none" stroke="#35051f" stroke-linecap="round" stroke-linejoin="round" stroke-width="1"/><path d="M33.567,79.237c1.8-4.873,4.678-6.554,8.423-7.543.041-.1,2.834-1.232,2.878-1.333,0,0,21.765-2.666,25.006-2.888C99.663,65.442,96.086,89.061,95.2,111.531l.106,36.146L39.52,147.16l-2.307-30.218Z" transform="translate(-9.112 -18.283)" fill="#92c3f4"/><path d="M84.364,69.616,83.02,98.375,66.428,69.063,84.31,67.586Z" transform="translate(-18.032 -18.347)" fill="#cc6723"/><path d="M84,76.538s-4.757,1.754-8.514.5" transform="translate(-20.492 -20.777)" fill="none" stroke="#35051f" stroke-linecap="round" stroke-linejoin="round" stroke-width="1"/><path d="M37.671,71.975C29.282,66,14.518,84.027,10.722,89.314,7.135,94.31-1.9,107.244.937,113.068c2.532,5.2,16.263-.358,20.581,3.523,0,0,18.072-23.353,18.2-23.522,3.588-4.645,3.435-17.18-2.052-21.094" transform="translate(-0.107 -19.213)" fill="#92c3f4"/><path d="M47.575,104.981s-8.657,10.355-11.093,14.489" transform="translate(-9.903 -28.498)" fill="none" stroke="#35051f" stroke-linecap="round" stroke-linejoin="round" stroke-width="1"/><path d="M166.359,60.282a61.891,61.891,0,0,0,4.7-8.452l-12.312-8.313c-1.539,3.233-4.016,10.98-6.3,13.225Z" transform="translate(-41.384 -11.813)" fill="#bd462e"/><path d="M169.878,50.009s-18.3-7.813-18.3-7.813-17.233,26.787-17.266,26.836c-1.9,2.834-.36,8.973,1.593,11.316,4.491,5.389,13.508,3.957,18.377.213,4.242-3.262,6.8-8.752,8.992-13.3.583-1.214,7.411-16.906,6.6-17.248" transform="translate(-36.225 -11.454)" fill="#92c3f4"/><path d="M144.563,70.617s8.6,3.257,5.879,12.13" transform="translate(-39.243 -19.17)" fill="none" stroke="#35051f" stroke-linecap="round" stroke-linejoin="round" stroke-width="1"/><path d="M101.991,34.432s1.426,4.69-5,10.169l-2.081-4.978,3.9-5.433Z" transform="translate(-25.765 -9.281)" fill="#580a31"/><path d="M93.506,35.382s-.566,6.327-.569,6.358c.332,2.785,2.992,6.542-1.531,11.34A8.142,8.142,0,0,1,86.525,54.9c-.332.009-.874,6.338-.952,7.108-.176,1.746-12.213.036-13.565-.12l1.961-20.549,5-7.932,9.331-.49Z" transform="translate(-19.547 -8.936)" fill="#edbab7"/><path d="M92.284,54.822s-2.366,1.578-4.414,0" transform="translate(-23.853 -14.882)" fill="none" stroke="#35051f" stroke-linecap="round" stroke-linejoin="round" stroke-width="1"/><path d="M84,22.063a27.845,27.845,0,0,0-5.447-1.287,15.24,15.24,0,0,0-13.046,5.37C60.039,32.964,63.061,41.91,69.063,47.5a11.4,11.4,0,0,0,1.622,1.292L72.05,39.12c.774-1.265,4.156-8.064,6.584-5.693,3.934,3.845,11.687,4.64,15.3-1.405a5.833,5.833,0,0,0-1.381-7.672S89.894,23.763,84,22.063" transform="translate(-17.005 -5.627)" fill="#580a31"/><path d="M83.622,52.179c-.017.679-.891,1.21-1.958,1.185s-1.909-.6-1.9-1.276.885-1.209,1.947-1.186,1.921.6,1.906,1.278" transform="translate(-21.654 -13.817)" fill="#e58396"/><path d="M76.7,48.2s-10.957-3.235-3.483,4.376Z" transform="translate(-19.166 -12.9)" fill="#edbab7"/><line x1="2.119" y1="0.422" transform="translate(53.706 36.476)" fill="none" stroke="#35051f" stroke-linecap="round" stroke-linejoin="round" stroke-width="1"/><path d="M73.624,35.283s-4.314,1.7-4.256,6.055" transform="translate(-18.83 -9.578)" fill="none" stroke="#35051f" stroke-linecap="round" stroke-linejoin="round" stroke-width="1"/><path d="M85.986,46.632c-.015.657.3,1.2.686,1.205s.717-.517.731-1.173-.294-1.19-.686-1.2-.721.514-.731,1.166" transform="translate(-23.341 -12.342)" fill="#35051f"/><path d="M95.338,45.993c-.013.657.291,1.193.684,1.2s.723-.512.733-1.168-.29-1.192-.691-1.2c-.385-.009-.711.514-.726,1.166" transform="translate(-25.88 -12.169)" fill="#35051f"/><path d="M91.351,47.245l1.231,1.019-1.049,1.084" transform="translate(-24.798 -12.825)" fill="none" stroke="#35051f" stroke-linecap="round" stroke-linejoin="round" stroke-width="1"/><path d="M91.683,32.933s.966,2.149,4.251,2.217" transform="translate(-24.888 -8.94)" fill="none" stroke="#35051f" stroke-linecap="round" stroke-linejoin="round" stroke-width="1"/><path d="M88.6,20.577S70.651,24.412,63.442,38.526c0,0-7.824-14.268,2.148-20.864,0,0,14.88-12.119,23.01,2.915" transform="translate(-16.429 -3.541)" fill="#4a84d8"/><path d="M87.778,22.527s15.034.766,16.107,6.6c0,0,.308,2.915-4.754.46a20.816,20.816,0,0,0-18.1,3.682s-1.993,3.987-5.982,1.84l-3.989-2.147s5.831-11.2,16.722-10.432" transform="translate(-19.289 -6.105)" fill="#4a84d8"/><path d="M89.041,23.173A24.906,24.906,0,0,0,72.32,31.765" transform="translate(-19.632 -6.29)" fill="none" stroke="#35051f" stroke-linecap="round" stroke-linejoin="round" stroke-width="1"/><path d="M89.09,62.038a26.769,26.769,0,0,1-7.4-2.861l6.837,7.84Z" transform="translate(-22.175 -16.064)" fill="#580a31"/><path d="M88.7,113.645S92.2,152.912,91.647,159" transform="translate(-24.077 -30.85)" fill="none" stroke="#35051f" stroke-linecap="round" stroke-linejoin="round" stroke-width="1"/><rect width="12.317" height="16.874" transform="translate(74.888 76.866)" fill="#73b4f4"/><path d="M114.466,109.067s-4.964,5.522-10.19-.614" transform="translate(-28.307 -29.44)" fill="none" stroke="#35051f" stroke-linecap="round" stroke-linejoin="round" stroke-width="1"/><rect width="14.465" height="16.874" transform="translate(39.297 77.479)" fill="#73b4f4"/><path d="M68.072,109.487a8.339,8.339,0,0,1-11.966-.613" transform="translate(-15.23 -29.555)" fill="none" stroke="#35051f" stroke-linecap="round" stroke-linejoin="round" stroke-width="1"/><path d="M90.939,65.707S90.1,73.69,89.63,77.52L97,85.1s2.309-8.854,1.359-16.9Z" transform="translate(-24.331 -17.837)" fill="#4a84d8"/><path d="M68.191,65.537l-7.363,3.836,7.39,16.258L74.634,79.8s-3.379-11.45-6.443-14.267" transform="translate(-16.512 -17.791)" fill="#4a84d8"/><path d="M41.512,149.168c2.494-.892,4.749-1.706,4.749-1.706l.659-.023S64.239,141.154,66.6,152.8c0,0,.533,4.488-1.195,5.6-.471.3-1.016.427-1.548-.522.486,1.295.914,3.665-2.811,3.038,0,0,1.177,2.974-1.074,3.361a3.068,3.068,0,0,1-1.722-.717c.7.131-1.04,1.742-1.252,1.828-2.724,1.155-2.246-2.213-4.77-4.975-.976.1-1.954.182-2.905.217A12.7,12.7,0,0,1,37.951,158.5" transform="translate(-10.302 -39.564)" fill="#bd462e"/><path d="M69.319,153.417s3.243,2.929,2.695,5.762" transform="translate(-18.817 -41.646)" fill="none" stroke="#35051f" stroke-linecap="round" stroke-linejoin="round" stroke-width="1"/><path d="M64.424,158.918s3.936,3.108,3.805,5.579" transform="translate(-17.488 -43.14)" fill="none" stroke="#35051f" stroke-linecap="round" stroke-linejoin="round" stroke-width="1"/><path d="M61.93,163.245s3.058,2.169,2.826,5.071" transform="translate(-16.811 -44.314)" fill="none" stroke="#35051f" stroke-linecap="round" stroke-linejoin="round" stroke-width="1"/><path d="M38.737,133.038,23.513,119.375l-1.118-5.249L13.679,95.045,2.2,110.769c-3.321,6.955-3.353,17.528,3.272,23.117,4.961,4.177,10.667,8.761,16.439,11.3,3.128,1.372,6.318,2.667,9.372,4.239Z" transform="translate(0 -25.801)" fill="#92c3f4"/><line x2="13.645" y2="8.851" transform="translate(23.922 94.97)" fill="none" stroke="#35051f" stroke-linecap="round" stroke-linejoin="round" stroke-width="1"/><path d="M25.334,123.81s-5.923-3.039-12.419,4.229" transform="translate(-3.506 -33.438)" fill="none" stroke="#35051f" stroke-linecap="round" stroke-linejoin="round" stroke-width="1"/><path d="M164.377,25.173s1.47,1.752.059,5.133c0,0,6.115.542,2.7,8.883" transform="translate(-44.621 -6.833)" fill="none" stroke="#35051f" stroke-linecap="round" stroke-linejoin="round" stroke-width="1"/><path d="M168.753,30.73s0,3.22,2.817,2.8" transform="translate(-45.809 -8.342)" fill="none" stroke="#35051f" stroke-linecap="round" stroke-linejoin="round" stroke-width="1"/><path d="M173.433,34.184s-.005,3.219,2.816,2.8" transform="translate(-47.08 -9.28)" fill="none" stroke="#35051f" stroke-linecap="round" stroke-linejoin="round" stroke-width="1"/><path d="M177.795,37.213s0,3.22,2.817,2.8" transform="translate(-48.264 -10.102)" fill="none" stroke="#35051f" stroke-linecap="round" stroke-linejoin="round" stroke-width="1"/><path d="M245.342,66.382c15.692-1.429,30.336,15.051,40.664,30.793l-19.733,13.493L245.267,89.239l-3.615,4.13s-6.4-17.207-6.267-20.3c.073-1.713,7.248-6.316,8.944-6.567.342-.048.678-.087,1.012-.119" transform="translate(-63.897 -17.996)" fill="#cc6723"/><path d="M257.253,140.913l13.712-25.181.077-1.23,6.111-23.136L291.736,104.1c2.672,2.333,4.58,8.014,4.844,11.542a20.833,20.833,0,0,1-2.829,11.283c-3.666,6.814-10.758,13.9-16.078,19.263-1.036,1.04-11.649,11.261-13.01,9.223Z" transform="translate(-69.833 -24.802)" fill="#cc6723"/><path d="M276.843,124.886s7.6-4.121,18.666-.423" transform="translate(-75.151 -33.368)" fill="none" stroke="#35051f" stroke-linecap="round" stroke-linejoin="round" stroke-width="1"/><path d="M240.557,33.8c-.252,4.183-2.516,8.444-5.176,11.462a19.531,19.531,0,0,1-3.017,2.762,9.9,9.9,0,0,0-1.271.863c0-.008-.061-13.844-.061-13.844Z" transform="translate(-62.715 -9.174)" fill="#182b79"/><path d="M201.31,25.095s-5.564,10.438,4.207,18.013l2.822-9.628-.162-4.652Z" transform="translate(-54.219 -6.812)" fill="#182b79"/><path d="M226.051,45.329,226.3,32.8l-6.153-3.172L212.2,26.367l-5,3.252s-.338,5.216-.342,5.254c-.564,2.78-2.433,6.582,1.644,11.807a6.234,6.234,0,0,0,4.123,2.064" transform="translate(-55.901 -7.158)" fill="#edbab7"/><path d="M225.83,52.394l-.338,16.759-13.031-.429-.066-14.912Z" transform="translate(-57.656 -14.223)" fill="#edbab7"/><path d="M224.531,56.739,212.345,61.57l.11-5.27s3.184,2.085,12.076.439" transform="translate(-57.643 -15.283)" fill="#580a31"/><path d="M225.029,40.407c.017.663-.283,1.2-.666,1.209s-.7-.529-.717-1.2.285-1.2.667-1.2.7.528.715,1.19" transform="translate(-60.71 -10.646)" fill="#35051f"/><path d="M214.659,39.646c.017.662-.282,1.2-.662,1.209s-.7-.531-.719-1.195.285-1.2.668-1.206.7.528.713,1.192" transform="translate(-57.896 -10.439)" fill="#35051f"/><path d="M231.949,27.566c.251-4.156-.378-7.794-2.95-10.781-2.987-3.468-21.9-11.88-28.506.892-3.674,7.1,1.716,12,10.412,6.858,2.543-1.5,5.6,2.716,9.762,5.044,2.275,1.271,4.846,2.038,4.831,1.757" transform="translate(-54.108 -2.944)" fill="#182b79"/><path d="M224.679,46.409c-.04.688.771,1.3,1.808,1.373s1.907-.429,1.947-1.118-.766-1.3-1.805-1.371-1.907.429-1.95,1.117" transform="translate(-60.991 -12.293)" fill="#e58396"/><path d="M208.158,45.373c-.039.688.769,1.3,1.805,1.372s1.909-.429,1.948-1.118-.767-1.3-1.8-1.374-1.909.431-1.949,1.12" transform="translate(-56.506 -12.011)" fill="#e58396"/><path d="M228.682,42.732s10.9-2.28,3.041,4.736Z" transform="translate(-62.078 -11.504)" fill="#edbab7"/><line y1="0.237" x2="2.095" transform="translate(169.24 32.755)" fill="none" stroke="#35051f" stroke-linecap="round" stroke-linejoin="round" stroke-width="1"/><path d="M206.621,38.14a4.273,4.273,0,0,0-2.658-.472c-1.625.3-3.179,1.836,1.129,5.6Z" transform="translate(-54.916 -10.21)" fill="#edbab7"/><line x1="0.804" y1="0.315" transform="translate(149.131 29.113)" fill="none" stroke="#35051f" stroke-linecap="round" stroke-linejoin="round" stroke-width="1"/><path d="M218.624,40.964l-1.2,1.019,1.027,1.11" transform="translate(-59.023 -11.12)" fill="none" stroke="#35051f" stroke-linecap="round" stroke-linejoin="round" stroke-width="1"/><path d="M223.973,25.347s1.259,3.89,3.887,4.837" transform="translate(-60.799 -6.881)" fill="none" stroke="#35051f" stroke-linecap="round" stroke-linejoin="round" stroke-width="1"/><path d="M231.042,25.781s1.263,4.312,3.05,5.152" transform="translate(-62.718 -6.998)" fill="none" stroke="#35051f" stroke-linecap="round" stroke-linejoin="round" stroke-width="1"/><path d="M216.484,48.066a2.882,2.882,0,0,0,3.306.245" transform="translate(-58.766 -13.048)" fill="none" stroke="#35051f" stroke-linecap="round" stroke-linejoin="round" stroke-width="1"/><path d="M213.261,23.418a5.264,5.264,0,0,1-3.8,2.081" transform="translate(-56.861 -6.357)" fill="none" stroke="#35051f" stroke-linecap="round" stroke-linejoin="round" stroke-width="1"/><line x1="22.626" y1="1.174" transform="translate(148.659 83.116)" fill="none" stroke="#35051f" stroke-linecap="round" stroke-linejoin="round" stroke-width="1"/><path d="M235.3,298.278l19.626,1.271-1.19,30.586-18.506.193s.313-30.8.07-32.05" transform="translate(-63.856 -80.97)" fill="#545a63"/><path d="M268.557,349.756a14.3,14.3,0,0,0-6.719-9.6c-.032.076-8.839-6.264-8.839-6.264l-1.52,4.589-16.308-.419a10.477,10.477,0,0,0-1.922,5.319,9.658,9.658,0,0,0,.631,4.062l33.989,6.354a5.27,5.27,0,0,0,.688-4.042" transform="translate(-63.312 -90.638)" fill="#545a63"/><line x1="26.627" y1="3.196" transform="translate(172.839 254.512)" fill="none" stroke="#35051f" stroke-linecap="round" stroke-linejoin="round" stroke-width="1"/><path d="M181.06,298.976l19.2,1.165-1.328,30.551-18.112.294s.472-30.761.238-32.01" transform="translate(-49.086 -81.159)" fill="#545a63"/><path d="M213.949,350.345a14.3,14.3,0,0,0-6.718-9.6c-.034.077-8.841-6.265-8.841-6.265l-1.52,4.589-16.307-.419a10.515,10.515,0,0,0-1.924,5.318,9.678,9.678,0,0,0,.635,4.063l33.985,6.353a5.279,5.279,0,0,0,.691-4.043" transform="translate(-48.488 -90.798)" fill="#545a63"/><line x1="25.829" y1="4.793" transform="translate(133.964 254.778)" fill="none" stroke="#35051f" stroke-linecap="round" stroke-linejoin="round" stroke-width="1"/><path d="M239.677,132.107C251.471,166.4,254.8,252.872,255.36,265.4c.144,3.2-2.666,8.956-5.965,9.808-2.672.69-6.141.392-8.9.517-4.126.187-11.37,2.733-14.408-1.3-3.345-4.441-2.758-30.587-3.366-36.855-1.549-16.012-3-32.01-4.9-47.987-.575-4.829-1.228-9.647-1.89-14.465-.331-2.411-.662-4.823-1.01-7.232-.21-1.441-1.612-5.577-1.038-6.85.013-.031,6.5-14.462,18.109-36.583Z" transform="translate(-58.023 -33.783)" fill="#dc9d4f"/><path d="M257.847,313.163s-.8,5.591-4.526,8.254" transform="translate(-68.766 -85.011)" fill="none" stroke="#35051f" stroke-linecap="round" stroke-linejoin="round" stroke-width="1"/><path d="M191.353,130.337c-13.993,34.246-10.9,52.451-14.839,88-1.678,15.17-1.337,27.034-2.753,42.234-.4,4.275-1.247,9.336,3.085,11.978,4.124,2.514,10.287,1.364,14.9,1.706,6.7.5,12.571,1.168,13.52-7.457,2.106-19.129,4.851-65.89,13.234-107.262,0,0-6.595-14.516-18.519-36.8Z" transform="translate(-47.076 -33.316)" fill="#dc9d4f"/><path d="M185.12,289.406s-2.4,13.847,2.4,22.1" transform="translate(-50.089 -78.562)" fill="none" stroke="#35051f" stroke-linecap="round" stroke-linejoin="round" stroke-width="1"/><path d="M203.458,302.2s-.8,9.586-5.326,14.379" transform="translate(-53.784 -82.034)" fill="none" stroke="#35051f" stroke-linecap="round" stroke-linejoin="round" stroke-width="1"/><path d="M219.791,192.352l1.354,3.176,1.826,35.574" transform="translate(-59.664 -52.216)" fill="none" stroke="#35051f" stroke-linecap="round" stroke-linejoin="round" stroke-width="1"/><path d="M192.573,90.97a41.069,41.069,0,0,1,4.2-24.73s10.153-.547,17.618-.323c3.12.09,12.161-1.072,13.549-.226,0,0-.2-4.174,4.2,25.542l.828,11.193-15.485,25.122L190.3,103.929c1.233-4.094,1.238-9.5,2.271-12.959" transform="translate(-51.659 -17.748)" fill="#fff"/><path d="M173.536,71.814c1.289-2.154,21.059-5.769,21.059-5.769,7.06,6.617,18.338,39.977,18.338,39.977l2.384-8.177c5.794-21.807,6.411-32.683,6.411-32.683a103.52,103.52,0,0,1,12.976,2.047l8.213,2.993-3.281,90.1-59.842,1.3-3.317-61.377Z" transform="translate(-47.108 -17.688)" fill="#cc6723"/></g><g transform="translate(129.369 47.472)"><g clip-path="url(#c)"><rect width="93.359" height="9.542" transform="translate(-14.311 33.364)" fill="#969caa"/><rect width="93.359" height="9.54" transform="translate(-14.311 67.438)" fill="#969caa"/></g></g><g clip-path="url(#b)"><line x1="0.682" y2="45.997" transform="translate(165.144 88.332)" fill="none" stroke="#35051f" stroke-linecap="round" stroke-linejoin="round" stroke-width="1"/><path d="M174.728,71.125c-15.692-1.366-30.335,14.392-40.664,29.445l19.734,12.9L174.8,92.981l3.614,3.949s6.4-16.454,6.268-19.413c-.074-1.638-7.249-6.04-8.945-6.28-.342-.045-.678-.083-1.012-.113" transform="translate(-36.393 -19.285)" fill="#cc6723"/><line x1="13.917" y2="11.201" transform="translate(122.097 77.291)" fill="none" stroke="#35051f" stroke-linecap="round" stroke-linejoin="round" stroke-width="1"/><path d="M242.221,172.334l-.028,8.214c-45.119,10.844-62.017,1.191-62.017,1.191l-.133-8.859c12.743,11.8,62.179-.546,62.179-.546" transform="translate(-48.874 -46.781)" fill="#545a63"/><path d="M169,191.841a4.5,4.5,0,0,0,3.721,5.173l12.9,2.105a4.506,4.506,0,0,0,5.175-3.722l2.873-17.607a4.505,4.505,0,0,0-3.719-5.173l-12.9-2.108a4.51,4.51,0,0,0-5.176,3.724Z" transform="translate(-45.859 -46.27)" fill="#42464c"/><path d="M193.023,182.454s-8.981,3.977-16.4-2.675" transform="translate(-47.946 -48.802)" fill="none" stroke="#35051f" stroke-linecap="round" stroke-linejoin="round" stroke-width="1"/><path d="M207.781,190.277a4.505,4.505,0,0,0,4.666,4.34l13.062-.476a4.507,4.507,0,0,0,4.341-4.668l-.588-11.753a4.5,4.5,0,0,0-4.666-4.339l-13.061.474a4.509,4.509,0,0,0-4.34,4.668Z" transform="translate(-56.244 -47.065)" fill="#42464c"/><path d="M228.2,182.944s-8.023,5.667-16.6.605" transform="translate(-57.44 -49.662)" fill="none" stroke="#35051f" stroke-linecap="round" stroke-linejoin="round" stroke-width="1"/><path d="M252.526,172.539s-8.423-.97-12.221,1.706c0,0,4.844,6.14,12.532-1.286Z" transform="translate(-65.233 -46.791)" fill="#36393d"/><path d="M232.339,154.3a8.923,8.923,0,0,0,6.971,7.349l4.269,27.395a3.67,3.67,0,0,0,4.807,2.626c.142-.042.283-1.3.421-1.34,1.5-.448,1.287-.675,1.041-2.263l-4.27-27.394a8.919,8.919,0,0,0,4.4-9.12c-.534-3.44-1.859-6.233-4.953-7.241-.255-.082-1.629-.028-1.894-.087l1.008,6.465a3.289,3.289,0,0,1-6.5,1.013l.671-6.492-1.673.028a8.919,8.919,0,0,0-4.3,9.061m13.724,30.084a1.077,1.077,0,0,1,1.231.9l.424,2.734a1.076,1.076,0,1,1-2.125.334l-.427-2.739a1.078,1.078,0,0,1,.9-1.23" transform="translate(-63.041 -39.151)" fill="#545a63"/><path d="M234.642,154.263a8.913,8.913,0,0,0,6.969,7.349l4.271,27.4a3.17,3.17,0,0,0,6.265-.973l-4.268-27.4a8.917,8.917,0,0,0-2.444-16.449l1.005,6.466a3.288,3.288,0,1,1-6.5,1.013l-1.005-6.466a8.919,8.919,0,0,0-4.3,9.062m13.723,30.084a1.08,1.08,0,0,1,1.229.9l.425,2.736a1.076,1.076,0,0,1-2.126.334l-.425-2.737a1.077,1.077,0,0,1,.9-1.231" transform="translate(-63.666 -39.141)" fill="#6b7787"/><path d="M252.837,173.18s-7.371,4.133-12.531,1.286l3.934,26.626s7.151,5.5,12.276-2.012Z" transform="translate(-65.233 -47.011)" fill="#42464c"/><path d="M190.955,164.812c3.968-.8,2.573-2.931,1.559-4,.921.717,1.415.394,1.759-.077,1.265-1.735-1.1-5.883-1.1-5.883-7.113-10.4-21.809,2.205-21.809,2.205l-.649.272s-12.214-3.035-12.223-3.023c.243-.192,6.126,7.394,6.548,7.929,1.838,2.32,3.5,5.431,6.143,6.952,3.57,2.052,7.473.077,10.78-1.544,3.643,1.725,4.545,5.17,6.787,3.026.175-.167,1.255-2.379.5-2.242a3.42,3.42,0,0,0,2.007.044c2.09-1.22-.3-3.659-.3-3.659" transform="translate(-43.023 -40.919)" fill="#fff"/><path d="M197.337,157.426s4.432,1.617,5.048,4.567" transform="translate(-53.569 -42.735)" fill="none" stroke="#35051f" stroke-linecap="round" stroke-linejoin="round" stroke-width="1"/><path d="M194.711,164.6s5.2,1.533,6.077,3.976" transform="translate(-52.856 -44.681)" fill="none" stroke="#35051f" stroke-linecap="round" stroke-linejoin="round" stroke-width="1"/><path d="M193.993,169.73s3.937.95,4.894,3.852" transform="translate(-52.661 -46.075)" fill="none" stroke="#35051f" stroke-linecap="round" stroke-linejoin="round" stroke-width="1"/><path d="M169.281,136.821l-14.2-20.651.16-1.167-1.578-22.833-16.747,9.282c-3.068,1.7-6.027,6.684-6.96,9.948a19.105,19.105,0,0,0,.621,11.107c2.3,7.066,6.985,12.935,11.184,18.94.817,1.164,8.026,12.35,9.75,10.684Z" transform="translate(-35.123 -25.021)" fill="#cc6723"/><path d="M155.393,125.427s-5.771-5.294-16.427-.761" transform="translate(-37.723 -33.343)" fill="none" stroke="#35051f" stroke-linecap="round" stroke-linejoin="round" stroke-width="1"/><path d="M225.55,46.471c2.61-2.58,3.613-6.48,3.767-10.376.029-.734.238-8.224-.576-8.19l4.21-1.294c.654,7.139-.525,18.863-7.845,22.73-2.925,1.545-7.87,2.7-10.2-.443a11.583,11.583,0,0,0,6.718-.057,9.886,9.886,0,0,0,3.929-2.371" transform="translate(-58.337 -7.224)" fill="#545a63"/><path d="M215.96.016c-9.183-.378-18,5.842-19.446,17.2-.074.576-1.026,2.562-1.063,3.164-.034.667,29.45,1.738,29.45,1.738l9.163-.23c.021-.258-.925-1.834-.911-2.089C233.831,7.168,225.561.411,215.96.016" transform="translate(-53.057 0)" fill="#fff"/><path d="M215.434,12.181a5.075,5.075,0,1,1,5.142,5.007,5.075,5.075,0,0,1-5.142-5.007" transform="translate(-58.481 -1.91)" fill="#c1cadb"/><path d="M218.253,11.919l2.006-.026-.025-2.006,2-.028.028,2.006,2-.027.028,2-2.006.023.027,2.009-2.006.027-.025-2.009-2.006.029Z" transform="translate(-59.247 -2.676)" fill="#182b79"/><line x2="23.68" y2="0.405" transform="translate(146.551 17.957)" fill="none" stroke="#35051f" stroke-linecap="round" stroke-linejoin="round" stroke-width="1"/><path d="M263.548,159.97c0-.009.652-5.317-4.044-4.394,0,0-5.194,1.215-5.424,4.737-.157,2.382,2.205,1.013,3.3.56.5-.2,6.249-1.625,6.164-.9" transform="translate(-68.97 -42.203)" fill="#fff"/><path d="M267.327,165.374c-.005-.013.7-5.74-4.361-4.746,0,0-6.716,1.3-6.966,5.1-.166,2.572,3.214,1.676,4.4,1.194.534-.226,7.022-2.328,6.926-1.551" transform="translate(-69.492 -43.572)" fill="#fff"/><path d="M269.806,171.009c0-.008.653-5.318-4.04-4.395,0,0-6.086.782-6.316,4.3-.157,2.386,3.1,1.452,4.195,1,.5-.2,6.252-1.628,6.161-.9" transform="translate(-70.428 -45.2)" fill="#fff"/><path d="M272.182,176.562c0-.008.654-5.323-4.043-4.4,0,0-5.2,1.217-5.426,4.735-.153,2.384,4.8,2.176,5.9,1.727.489-.211,1.811-1.153,3.567-2.064" transform="translate(-71.314 -46.706)" fill="#fff"/><path d="M264.034,160.551s-7.338.386-7.508,4.193" transform="translate(-69.636 -43.583)" fill="none" stroke="#35051f" stroke-linecap="round" stroke-linejoin="round" stroke-width="1"/><path d="M267.778,166.135s-7,.309-8.01,3.58" transform="translate(-70.516 -45.099)" fill="none" stroke="#35051f" stroke-linecap="round" stroke-linejoin="round" stroke-width="1"/><path d="M270.957,172.648s-6.1-1.013-7.274,3.284" transform="translate(-71.579 -46.838)" fill="none" stroke="#35051f" stroke-linecap="round" stroke-linejoin="round" stroke-width="1"/><line x1="0.659" y2="17.127" transform="translate(194.665 66.707)" fill="none" stroke="#35051f" stroke-linecap="round" stroke-linejoin="round" stroke-width="1"/><path d="M395.456,75.378c-4-3.756-5.98-6.947-6.724-12.016-.457-3.112-.752-6.351-1.955-9.294-2.363-5.78-8.977-8.04-13.878-3.447a15.75,15.75,0,0,0-3.327,4.843c-1.493,3.147-2.916,6.922-1.912,10.417,1.019,3.557,4.9,4.165,7.186,6.643,2.148,2.326,1.81,5.547,2.77,8.348.425,1.246,1.273,3.845,3.839,4.889L397.03,76.6a11.692,11.692,0,0,1-1.574-1.226" transform="translate(-99.713 -13.076)" fill="#101335"/><path d="M366.268,86.585a27.225,27.225,0,0,1,7.6,1.032c10.591,2.711,14.4,7.623,20.766,27.86l-15.809,7.407-14.9-15.645Z" transform="translate(-98.789 -23.502)" fill="#fff"/><path d="M315.528,302.734l21.465,4.213-3.471,21.847-19.091-6.486Z" transform="translate(-85.355 -82.179)" fill="#376ac4"/><path d="M302.016,334c-6.064,2.371-8.11,7.076-9.251,10.575l11.451-1.308c-.165-5.011-1.122-7.768-2.2-9.267" transform="translate(-79.473 -90.666)" fill="#376ac4"/><path d="M331.65,326.218l-19.312-.361-.89,4.728a34.27,34.27,0,0,0-5.985,1.2c1.078,1.5,2.035,4.256,2.2,9.267l25.972-.245a11.5,11.5,0,0,0-2.328-7.143Z" transform="translate(-82.92 -88.456)" fill="#376ac4"/><line x2="3.025" y2="1.036" transform="translate(229.476 239.454)" fill="none" stroke="#35051f" stroke-linecap="round" stroke-linejoin="round" stroke-width="1"/><line x2="3.631" y2="1.84" transform="translate(228.528 242.128)" fill="none" stroke="#35051f" stroke-linecap="round" stroke-linejoin="round" stroke-width="1"/><path d="M291.974,346.608a7.35,7.35,0,0,0-.267,4.136l37.567-.044a10.25,10.25,0,0,0,1.045-4.216Z" transform="translate(-79.139 -94.056)" fill="#580a31"/><line x2="3.024" y2="1.035" transform="translate(229.915 235.059)" fill="none" stroke="#35051f" stroke-linecap="round" stroke-linejoin="round" stroke-width="1"/><line x2="3.024" y2="1.035" transform="translate(230.501 230.664)" fill="none" stroke="#35051f" stroke-linecap="round" stroke-linejoin="round" stroke-width="1"/><path d="M388.894,303.69,367.428,307.9,370.9,329.75l19.091-6.485Z" transform="translate(-99.741 -82.439)" fill="#376ac4"/><path d="M406.546,334.954c6.064,2.371,8.11,7.077,9.25,10.576l-11.451-1.306c.165-5.012,1.123-7.768,2.2-9.269" transform="translate(-109.763 -90.926)" fill="#376ac4"/><path d="M370.68,327.174l19.313-.361.889,4.729a34.369,34.369,0,0,1,5.985,1.2c-1.077,1.5-2.036,4.258-2.2,9.268l-25.972-.245a11.5,11.5,0,0,1,2.328-7.146Z" transform="translate(-100.084 -88.716)" fill="#376ac4"/><line x1="3.025" y2="1.035" transform="translate(286.826 240.152)" fill="none" stroke="#35051f" stroke-linecap="round" stroke-linejoin="round" stroke-width="1"/><line x1="3.63" y2="1.84" transform="translate(287.167 242.826)" fill="none" stroke="#35051f" stroke-linecap="round" stroke-linejoin="round" stroke-width="1"/><path d="M406.4,347.567a7.354,7.354,0,0,1,.264,4.135l-37.565-.044a10.252,10.252,0,0,1-1.045-4.215Z" transform="translate(-99.912 -94.316)" fill="#580a31"/><line x1="3.024" y2="1.032" transform="translate(286.387 235.757)" fill="none" stroke="#35051f" stroke-linecap="round" stroke-linejoin="round" stroke-width="1"/><line x1="3.024" y2="1.035" transform="translate(285.801 231.361)" fill="none" stroke="#35051f" stroke-linecap="round" stroke-linejoin="round" stroke-width="1"/><path d="M325.839,153.56s-6.7,4.223-7.285,44.063c-.861,9.747-1.551,19.51-2.566,29.243-.949,9.1-2.191,18.061-3.146,27.156-.707,6.743.742,12.087,7.538,14.776,5.654,2.236,14.067,3.466,17.822-2.87,3.625-6.117,2.833-15.192,3.053-22.02.863-26.82,2.68-53.578,4.641-80.343.306-4.165.584-8.335.866-12.5Z" transform="translate(-84.88 -41.007)" fill="#6b7af1"/><path d="M371.4,151.69s9.962,15.773,10.573,49.211q1.567,23.394,3.136,46.786c.424,6.327,3.007,10.175-2.256,17.312-4.672,6.338-21.92,5.806-24.378-.283-2.682-6.638-2.395-18.184-2.831-24.719q-.873-13.073-1.751-26.147-1.758-26.716-3.517-53.433c-.043-.646-.395-11.184-.739-11.226Z" transform="translate(-94.911 -40.499)" fill="#6b7af1"/><path d="M351.139,181.96l1.379,1.59,2.183,24.593" transform="translate(-95.32 -49.394)" fill="none" stroke="#35051f" stroke-linecap="round" stroke-linejoin="round" stroke-width="1"/><path d="M379.03,163.846s4.832,71.82,6.382,97.012" transform="translate(-102.891 -44.477)" fill="none" stroke="#35051f" stroke-linecap="round" stroke-linejoin="round" stroke-width="1"/><path d="M370.13,215.19a4.207,4.207,0,0,0,4.5,3.9l12.183-.881a4.211,4.211,0,0,0,3.9-4.5l-1.2-16.63a4.209,4.209,0,0,0-4.5-3.9l-12.184.879a4.213,4.213,0,0,0-3.9,4.507Z" transform="translate(-100.145 -52.436)" fill="#5858ed"/><path d="M388.642,202s-7.3,5.561-15.487,1.121" transform="translate(-101.296 -54.834)" fill="none" stroke="#35051f" stroke-linecap="round" stroke-linejoin="round" stroke-width="1"/><path d="M374.649,252.206a4.209,4.209,0,0,0,4.5,3.9l12.183-.882a4.211,4.211,0,0,0,3.9-4.5l-1-10.4a4.211,4.211,0,0,0-4.5-3.9l-12.183.879a4.215,4.215,0,0,0-3.9,4.506Z" transform="translate(-101.427 -64.176)" fill="#5858ed"/><path d="M393.367,243.064s-7.3,5.562-15.488,1.121" transform="translate(-102.578 -65.982)" fill="none" stroke="#35051f" stroke-linecap="round" stroke-linejoin="round" stroke-width="1"/><path d="M336.159,85a31.019,31.019,0,0,0-17.443,12.307l9.043,9.142,9.138-4.342Z" transform="translate(-86.518 -23.075)" fill="#fff"/><path d="M331.21,47.251s-3.067,6.609,1.975,11.312c0,0,3.758,1.153,3.786.626s2.736-13.8,2.736-13.8Z" transform="translate(-89.659 -12.32)" fill="#101335"/><path d="M337.153,61.544s-10.662-.6-2.1,4.937Z" transform="translate(-90.049 -16.701)" fill="#edbab7"/><line x1="2.016" y2="0.074" transform="translate(243.927 46.74)" fill="none" stroke="#35051f" stroke-linecap="round" stroke-linejoin="round" stroke-width="1"/><path d="M337.463,47.395l-2.856,4.389L335.62,60.3a16.856,16.856,0,0,1-.072,3.061c-.268,3.584,2.862,6.526,4.789,6.324l.373,9.913,4.158,7.871,8.893-6.81.289-23.122-4.36-7.024L342.5,47.038Z" transform="translate(-90.832 -12.769)" fill="#edbab7"/><path d="M351.713,68.766c.048.578.805,1,1.695.939s1.574-.571,1.529-1.149-.8-1-1.692-.942-1.574.575-1.531,1.152" transform="translate(-95.475 -18.353)" fill="#e58396"/><path d="M336.558,68.462c.045.578.8,1,1.692.941s1.576-.573,1.531-1.153-.8-1-1.694-.941-1.573.576-1.529,1.153" transform="translate(-91.361 -18.27)" fill="#e58396"/><path d="M342.471,77.507s2.854.968,8.587-1.643l-8.45,6.66Z" transform="translate(-92.966 -20.594)" fill="#580a31"/><path d="M353.349,66l.042-2.984c-.1-9.169-.868-8.493-.868-8.493-7.578-1.837-12.261-5.482-13.953-6.163-3.172-1.287-4.257,2.15-4.79,1.99-1.609-.492-2.556-2.688-2.508-4.148.1-2.68,2.181-5.825,4.371-6.081a10.449,10.449,0,0,0,3.458-.792c13.249-7.25,19.187,3.549,19.187,3.549,2.939.286,4.62,5.246,4.9,8.488,0,0-.575,10.38-9.834,14.634" transform="translate(-89.926 -9.997)" fill="#101335"/><path d="M330.207,115.718,319.324,92.1l-13.913,13.335-6.49,4.395L295.86,128.77c5.93,3.869,15.334-1.453,19.478-4.066Z" transform="translate(-80.313 -25.002)" fill="#fff"/><path d="M335.98,104.361c-1.634-8.4-1.093-14.605.391-17.7a9.038,9.038,0,0,1,3.855-1.615c-.394,2.071,2.675,5.011,4.829,4.813,2.826-.256,5.733-1.975,7.894-3.406,6.716-4.44,1.719,4.968,1.075,13.164l-.218,40.043c-4.258-.1-11.437-.348-16.178-.5l-.418-27.228c-.176-.879-1.231-7.569-1.231-7.569" transform="translate(-90.933 -23.087)" fill="#fff"/><path d="M333.171,85.316c-1.483,3.223-.257,11.247,1.377,20,0,0,7.165,21.454,7.341,22.369l-4.235,23.546c-2.806-.1-9.035-.146-17.788-.146l2.823-32.819s-16.127-17.317,5.225-31.75c1.357-.917,5.257-1.2,5.257-1.2" transform="translate(-86.011 -23.16)" fill="#dc9d4f"/><path d="M369.95,86.8l-7.277-.949-4.881-.685c-1.3,1.276-3.809,6.73-13.913,35.019,0,0-2.882,31.029-2.739,31.034,4.271.172,34.882.544,34.882.544-1.2-31.115-6.071-64.963-6.071-64.963" transform="translate(-92.603 -23.119)" fill="#dc9d4f"/></g><g transform="translate(230.838 62.047)"><g clip-path="url(#e)"><rect width="7.205" height="70.537" transform="matrix(0.023, -1, 1, 0.023, -6.705, 26.418)" fill="#969caa"/><rect width="7.206" height="70.537" transform="matrix(0.023, -1, 1, 0.023, -5.012, 55.219)" fill="#969caa"/></g></g><g clip-path="url(#b)"><path d="M296.993,79.522l-1-5.31s3.743-9.034-1.8-10.863c0,0-3.879-13.6-7.927-10.417,0,0-.6.143-.353,2.161a23.82,23.82,0,0,0,2.151,6.845s-3.852-2.274-4.7,2.093a2.127,2.127,0,0,0-2.365,2.738s-.77,1.418,1.6,5.273l2.278,7.346" transform="translate(-76.249 -14.238)" fill="#376ac4"/><path d="M280.254,70.9s-5.061,3.02,1.691,6.15c0,0,1.885.691,1.509-2.207" transform="translate(-75.583 -19.247)" fill="#376ac4"/><path d="M297.6,67.406s-4.955-.553-4.074,6.574c0,0,1.36,3.692,3.551-.815" transform="translate(-79.651 -18.295)" fill="none" stroke="#35051f" stroke-linecap="round" stroke-linejoin="round" stroke-width="1"/><path d="M285.451,67.61a3.344,3.344,0,0,0,2,3.714" transform="translate(-77.473 -18.353)" fill="none" stroke="#35051f" stroke-linecap="round" stroke-linejoin="round" stroke-width="1"/><path d="M289.879,70.6s-1.538,2.834-3.625,1c0,0,1.853,4.089-2.058,3.066" transform="translate(-77.147 -19.165)" fill="none" stroke="#35051f" stroke-linecap="round" stroke-linejoin="round" stroke-width="1"/><path d="M280.254,70.9s-5.061,3.02,1.691,6.15c0,0,1.885.691,1.509-2.207" transform="translate(-75.583 -19.247)" fill="none" stroke="#35051f" stroke-linecap="round" stroke-linejoin="round" stroke-width="1"/><path d="M281.052,72.1s.753,3.045,3.113,3.067" transform="translate(-76.294 -19.573)" fill="none" stroke="#35051f" stroke-linecap="round" stroke-linejoin="round" stroke-width="1"/><path d="M302.706,116.708l-2.827-17.776-1.864-12.5-14.765,1.08s-6.374,35.039,9.674,40.307c.271.09.536.166.8.241" transform="translate(-76.551 -23.464)" fill="#fff"/><path d="M356.3,61.669s10.96-1.566,2.628,4.915Z" transform="translate(-96.721 -16.695)" fill="#edbab7"/><line y1="0.102" x2="2.087" transform="translate(260.955 46.727)" fill="none" stroke="#35051f" stroke-linecap="round" stroke-linejoin="round" stroke-width="1"/><path d="M349.885,62.46c-.015.645-.335,1.153-.713,1.138s-.669-.542-.654-1.185.337-1.151.715-1.137.669.541.652,1.184" transform="translate(-94.608 -16.634)" fill="#35051f"/><path d="M340.9,61.309c-.017.642-.333,1.153-.71,1.141s-.671-.545-.653-1.187.334-1.152.713-1.139.668.546.65,1.185" transform="translate(-92.171 -16.321)" fill="#35051f"/><path d="M344.761,62.775l-1.235.928.966,1.123" transform="translate(-93.253 -17.041)" fill="none" stroke="#35051f" stroke-linecap="round" stroke-linejoin="round" stroke-width="1"/><path d="M349.289,51.016s2.848,3.616,6.589,4.293" transform="translate(-94.817 -13.849)" fill="none" stroke="#35051f" stroke-linecap="round" stroke-linejoin="round" stroke-width="1"/><path d="M359.176,50.723a7.992,7.992,0,0,1,4.8,5.748" transform="translate(-97.501 -13.769)" fill="none" stroke="#35051f" stroke-linecap="round" stroke-linejoin="round" stroke-width="1"/><path d="M343.013,68.422s-.443,1.774,2,2.122c0,0,2.272-.039,2.462-2.022A20.32,20.32,0,0,1,343.013,68.422Z" transform="translate(-93.105 -18.574)" fill="none" stroke="#35051f" stroke-linecap="round" stroke-linejoin="round" stroke-width="1"/><path d="M354.832,141.152a2.569,2.569,0,0,0,.711,2.261c1.075,1.244,1.428,1.094,1.692,1.094l29.7-1.441a3.032,3.032,0,0,0,2.61-1.914L406.387,99.44c.1-.267-.083-.612-.646-1.4a2.829,2.829,0,0,0-1.954-1.3H372.909a3.025,3.025,0,0,0-2.611,1.915Z" transform="translate(-96.301 -26.262)" fill="#545a63"/><path d="M356.695,143.4a1.3,1.3,0,0,0,1.218,1.918h30.876A3.033,3.033,0,0,0,391.4,143.4l15.463-42.489A1.3,1.3,0,0,0,405.649,99H374.771a3.016,3.016,0,0,0-2.608,1.915Z" transform="translate(-96.794 -26.874)" fill="#42464c"/><path d="M411.826,144.532c0-.005,3.6-1.893.951-4.422,0,0-3.052-2.716-5.346-1.337-1.556.933.34,1.815,1.108,2.3.347.221,3.775,3.2,3.287,3.455" transform="translate(-110.439 -37.565)" fill="#376ac4"/><path d="M410.026,149.3c0-.008,3.885-2.044,1.029-4.773,0,0-3.778-3.626-6.254-2.138-1.676,1,.373,2.726,1.2,3.261.375.235,4.552,3.37,4.025,3.649" transform="translate(-109.713 -38.555)" fill="#376ac4"/><path d="M407.821,153.162s3.6-1.889.955-4.422c0,0-3.175-3.456-5.471-2.078-1.556.935.463,2.558,1.232,3.05.347.219,3.774,3.194,3.284,3.45" transform="translate(-109.325 -39.724)" fill="#376ac4"/><path d="M405.3,157.092s3.6-1.894.955-4.424c0,0-3.056-2.717-5.349-1.339-1.555.937.342,1.818,1.108,2.309.347.221,3.774,3.193,3.286,3.453" transform="translate(-108.669 -40.974)" fill="#376ac4"/><path d="M412.051,145s-3.482-4.413-5.929-2.872" transform="translate(-110.245 -38.493)" fill="none" stroke="#35051f" stroke-linecap="round" stroke-linejoin="round" stroke-width="1"/><path d="M410.368,149.74s-3.284-4.233-5.768-3.455" transform="translate(-109.832 -39.684)" fill="none" stroke="#35051f" stroke-linecap="round" stroke-linejoin="round" stroke-width="1"/><path d="M407.759,154.472s-2.063-4.242-5.257-3.119" transform="translate(-109.262 -41.035)" fill="none" stroke="#35051f" stroke-linecap="round" stroke-linejoin="round" stroke-width="1"/><line x2="1.643" y2="11.616" transform="translate(224.16 82.918)" fill="none" stroke="#35051f" stroke-linecap="round" stroke-linejoin="round" stroke-width="1"/><path d="M356.3,50.277s2.141,13.26-8.176,21.15l3.893-.08s7.71-5.337,8.214-20.883Z" transform="translate(-94.5 -13.648)" fill="#545a63"/><path d="M349.407,25.975c-9.14-1.5-18.665,2.933-21.392,12.891-.14.5-3.788,2.1-3.893,2.64-.111.591,30.251,5.665,30.251,5.665,1.178.16,2.568,2.939,2.991,3.853.642,1.391,1.679,1.726,3.292,2.187.437.126,1.236.221,1.212.32a46.342,46.342,0,0,0,1.7-5.244c.112-.449.208-.893.293-1.334,2.106-11.188-4.9-19.405-14.454-20.977" transform="translate(-87.985 -6.974)" fill="#cc6723"/><path d="M347.479,33.246a5.117,5.117,0,1,1,3.392,6.392,5.117,5.117,0,0,1-3.392-6.392" transform="translate(-94.264 -8.043)" fill="#fff"/><path d="M350.484,33.611l1.931.593.6-1.934,1.929.591-.59,1.935,1.93.593-.59,1.932-1.934-.6-.592,1.936-1.933-.593.594-1.936-1.934-.591Z" transform="translate(-94.981 -8.76)" fill="#182b79"/><line x2="19.488" y2="2.559" transform="translate(242.366 32.411)" fill="none" stroke="#35051f" stroke-linecap="round" stroke-linejoin="round" stroke-width="1"/><line x2="0.367" y2="28.604" transform="translate(251.275 97.066)" fill="none" stroke="#35051f" stroke-linecap="round" stroke-linejoin="round" stroke-width="1"/><path d="M322.918,282.076s-2.119,7.944,3.706,13.769" transform="translate(-87.557 -76.572)" fill="none" stroke="#35051f" stroke-linecap="round" stroke-linejoin="round" stroke-width="1"/></g></g></svg>