<svg xmlns="http://www.w3.org/2000/svg" xmlns:xlink="http://www.w3.org/1999/xlink" width="259.933" height="87.624" viewBox="0 0 259.933 87.624"><defs><style>.a{fill:none;}.b{clip-path:url(#a);}.c{fill:#bd462e;}.d{fill:#fff;}.e{fill:#cc4e3a;}</style><clipPath id="a"><rect class="a" width="259.933" height="87.624"/></clipPath></defs><g class="b" transform="translate(0 0)"><path class="c" d="M150.134,17.4c3.031-8.978,5.2-15.406,5.2-15.406,1.213-2.66,3.169-2.654,4.372.009,0,0,2.149,6.4,5.151,15.357a22.6,22.6,0,0,1-7.422,1.2,22.639,22.639,0,0,1-7.3-1.16" transform="translate(-27.472 0)"/><path class="c" d="M136.354,56.429c2.739-8.148,5.854-17.4,8.638-25.645a22.39,22.39,0,0,0,19.945-.047c2.76,8.249,5.862,17.507,8.587,25.663-3.963,2.252-10.81,3.74-18.607,3.74-7.769,0-14.592-1.48-18.563-3.712" transform="translate(-24.951 -5.624)"/><path class="c" d="M132.314,70.91c3.043,3.2,11.278,5.5,20.963,5.5,9.717,0,17.969-2.309,20.986-5.525,2.866,8.6,4.9,14.736,4.9,14.862,0,4.543-11.584,8.222-25.882,8.222S127.4,90.289,127.4,85.746c0-.126,2.038-6.244,4.919-14.836" transform="translate(-23.311 -12.971)"/><path class="d" d="M133.416,69.311c.752-2.231,1.557-4.63,2.4-7.135,3.972,2.232,10.794,3.712,18.563,3.712,7.8,0,14.644-1.489,18.608-3.741.835,2.507,1.634,4.9,2.378,7.138C172.348,72.5,164.1,74.81,154.379,74.81c-9.685,0-17.92-2.295-20.963-5.5" transform="translate(-24.413 -11.372)"/><path class="d" d="M146.928,29.047c.92-2.722,1.8-5.333,2.619-7.761a22.639,22.639,0,0,0,7.3,1.16,22.6,22.6,0,0,0,7.422-1.2c.81,2.421,1.688,5.029,2.6,7.753a22.385,22.385,0,0,1-19.944.047" transform="translate(-26.886 -3.888)"/><path class="e" d="M186.386,95.258a8.284,8.284,0,0,1-8.281,8.281H124.28a8.281,8.281,0,0,1,0-16.562H178.1a8.281,8.281,0,0,1,8.281,8.28" transform="translate(-21.226 -15.916)"/><path class="c" d="M266.134,17.4c3.031-8.978,5.2-15.406,5.2-15.406,1.213-2.66,3.169-2.654,4.372.009,0,0,2.149,6.4,5.151,15.357a22.6,22.6,0,0,1-7.422,1.2,22.635,22.635,0,0,1-7.3-1.16" transform="translate(-48.699 0)"/><path class="c" d="M252.354,56.429c2.739-8.148,5.854-17.4,8.638-25.645a22.39,22.39,0,0,0,19.945-.047c2.759,8.249,5.862,17.507,8.587,25.663-3.964,2.252-10.81,3.74-18.608,3.74-7.77,0-14.592-1.48-18.563-3.712" transform="translate(-46.177 -5.624)"/><path class="c" d="M248.314,70.91c3.043,3.2,11.278,5.5,20.963,5.5,9.717,0,17.969-2.309,20.986-5.525,2.866,8.6,4.9,14.736,4.9,14.862,0,4.543-11.584,8.222-25.882,8.222S243.4,90.289,243.4,85.746c0-.126,2.038-6.244,4.919-14.836" transform="translate(-44.538 -12.971)"/><path class="d" d="M249.416,69.311c.752-2.231,1.557-4.63,2.4-7.135,3.972,2.232,10.793,3.712,18.563,3.712,7.8,0,14.644-1.489,18.608-3.741.835,2.507,1.634,4.9,2.378,7.138C288.348,72.5,280.1,74.81,270.379,74.81c-9.685,0-17.92-2.295-20.963-5.5" transform="translate(-45.639 -11.372)"/><path class="d" d="M262.928,29.047c.92-2.722,1.8-5.333,2.619-7.761a22.635,22.635,0,0,0,7.3,1.16,22.6,22.6,0,0,0,7.422-1.2c.81,2.421,1.688,5.029,2.6,7.753a22.385,22.385,0,0,1-19.944.047" transform="translate(-48.112 -3.888)"/><path class="e" d="M302.386,95.258a8.284,8.284,0,0,1-8.281,8.281H240.279a8.281,8.281,0,0,1,0-16.562H294.1a8.281,8.281,0,0,1,8.281,8.28" transform="translate(-42.452 -15.916)"/><path class="c" d="M34.133,17.4c3.032-8.978,5.2-15.406,5.2-15.406,1.211-2.66,3.168-2.654,4.37.009,0,0,2.15,6.4,5.152,15.357a22.6,22.6,0,0,1-7.422,1.2,22.648,22.648,0,0,1-7.3-1.16" transform="translate(-6.246 0)"/><path class="c" d="M20.353,56.429c2.741-8.148,5.856-17.4,8.639-25.645a20.7,20.7,0,0,0,9.925,2.32,20.685,20.685,0,0,0,10.021-2.367C51.7,38.986,54.8,48.244,57.525,56.4c-3.964,2.252-10.811,3.74-18.608,3.74-7.771,0-14.592-1.48-18.564-3.712" transform="translate(-3.724 -5.624)"/><path class="c" d="M16.315,70.91c3.042,3.2,11.277,5.5,20.962,5.5,9.717,0,17.969-2.309,20.986-5.525,2.867,8.6,4.9,14.736,4.9,14.862,0,4.543-11.584,8.222-25.882,8.222s-25.883-3.68-25.883-8.222c0-.126,2.038-6.244,4.921-14.836" transform="translate(-2.085 -12.971)"/><path class="d" d="M17.417,69.311c.752-2.231,1.556-4.63,2.4-7.135,3.974,2.232,10.794,3.712,18.564,3.712,7.8,0,14.643-1.489,18.608-3.741.834,2.507,1.634,4.9,2.378,7.138C56.348,72.5,48.1,74.81,38.379,74.81c-9.685,0-17.92-2.295-20.962-5.5" transform="translate(-3.187 -11.372)"/><path class="d" d="M30.928,29.047c.92-2.722,1.8-5.333,2.619-7.761a22.648,22.648,0,0,0,7.3,1.16,22.6,22.6,0,0,0,7.422-1.2c.81,2.421,1.686,5.029,2.6,7.753a20.676,20.676,0,0,1-10.021,2.368,20.689,20.689,0,0,1-9.923-2.32" transform="translate(-5.659 -3.888)"/><path class="e" d="M70.386,95.258a8.284,8.284,0,0,1-8.28,8.281H8.28a8.281,8.281,0,0,1,0-16.562H62.105a8.281,8.281,0,0,1,8.28,8.28" transform="translate(0 -15.916)"/></g></svg>