<svg xmlns="http://www.w3.org/2000/svg" xmlns:xlink="http://www.w3.org/1999/xlink" width="467" height="274" viewBox="0 0 467 274"><defs><style>.a,.s{fill:#fff;}.a{stroke:#707070;opacity:0.5;}.b,.f{fill:none;}.c{clip-path:url(#a);}.d{clip-path:url(#b);}.e{fill:#bd462e;}.f{stroke:#35051f;stroke-linecap:round;stroke-linejoin:round;}.g{fill:#92c3f4;}.h{fill:#376ac4;}.i{fill:#182b79;}.j{fill:#35051f;}.k{fill:#cc6723;}.l{fill:#580a31;}.m{fill:#edbab7;}.n{fill:#e58396;}.o{fill:#4a84d8;}.p{fill:#73b4f4;}.q{fill:#545a63;}.r{fill:#dc9d4f;}.t{clip-path:url(#c);}.u{fill:#969caa;}.v{fill:#42464c;}.w{fill:#36393d;}.x{fill:#6b7787;}.y{fill:#c1cadb;}.z{fill:#101335;}.aa{fill:#6b7af1;}.ab{fill:#5858ed;}.ac{clip-path:url(#e);}</style><clipPath id="a"><rect class="a" width="467" height="274" transform="translate(726 845)"/></clipPath><clipPath id="b"><rect class="b" width="466.823" height="396.684"/></clipPath><clipPath id="c"><path class="b" d="M236.025,114.347l-3.589,12.306s-16.972-50.2-27.6-60.162c0,0-21.629,4.272-23.568,7.513l-3.7,43.931,4.992,92.369,90.058-1.963,4.729-134.393L265.2,68.242a155.692,155.692,0,0,0-19.528-3.082s-.93,16.369-9.648,49.187" transform="translate(-177.573 -65.16)"/></clipPath><clipPath id="e"><path class="b" d="M349.335,133.035c-2.867-8.67-5.853-17.606-5.853-17.606-2.457-13.171-4.3-25.248-2.072-30.1,0,0-5.87.426-7.911,1.806-32.133,21.721-7.863,47.782-7.863,47.782l-4.247,49.39c9.52,0,17.047.041,22.088.117a.42.42,0,0,0,.005.146c6.428.259,52.5.82,52.5.82-1.8-46.826-9.137-97.766-9.137-97.766L375.889,86.2l-7.345-1.031c-1.874,1.845-5.445,9.515-19.209,47.869" transform="translate(-316.85 -85.166)"/></clipPath></defs><g class="c" transform="translate(-726 -845)"><g transform="translate(726.589 845.136)"><g class="d"><path class="e" d="M185.02,36.513a34.984,34.984,0,0,1-10.472,27.729l-13.891-11.52s-7.41-28.7,11.49-30.093Z" transform="translate(15.35 2.181)"/><path class="e" d="M172.317,20.749c1.929,1.119,2.028,4.554.226,7.678s-4.844,4.741-6.778,3.616-2.032-4.552-.217-7.67,4.837-4.747,6.769-3.624" transform="translate(15.834 1.966)"/><path class="e" d="M177.794,22.88c2.1,1.219,2.082,5.184-.05,8.861s-5.561,5.663-7.662,4.445S168,31,170.134,27.329s5.555-5.668,7.659-4.449" transform="translate(16.245 2.171)"/><path class="e" d="M182.37,26.691c2.1,1.218,2.081,5.181-.053,8.857s-5.557,5.665-7.659,4.443-2.082-5.184.049-8.856,5.559-5.661,7.663-4.444" transform="translate(16.687 2.539)"/><path class="e" d="M185.755,31.49c1.929,1.124,2.031,4.554.224,7.68s-4.837,4.739-6.771,3.615-2.029-4.551-.224-7.673,4.844-4.74,6.771-3.623" transform="translate(17.13 3.002)"/><path class="f" d="M178.475,36.994a22.852,22.852,0,0,0,3.311-4.738" transform="translate(17.205 3.11)"/><path class="f" d="M168.821,30.863s2.206-5.188,4.352-6.1" transform="translate(16.275 2.387)"/><path class="f" d="M173.737,34.7s1.963-4.79,4.661-6.192" transform="translate(16.749 2.749)"/><path class="e" d="M160.922,47.357s-6.217-17.217-.284-21.106c0,0,5.478-5.492,4.992,3.226l-.555,3.482s6.592,4.9,3.508,16.112" transform="translate(15.239 2.366)"/><path class="g" d="M92.918,83.015c2.174-3.178-2.777-2.692.385-4.8,3.491-2.332,6.7-7.222,10.36-6.66,5.333.814,22.6-1.049,28.034-1.055,6.188-.01,12.3-.368,18.162-2.555,9.357-3.491,11.761,1.724,11.893,1.213,0,0,16.544.74,16.54,8.43-.016,23.12-24.332,29.944-42.558,34.708-8.2,2.145-44.167,9.925-52.321,12.212-2.014.565-4.031,1.114-6.046,1.662,0,0,15.392-21.647,12.939-25.157-1.785-2.558-1.54-7.874-.585-10.419,1.293-3.472,1.175-4.628,3.2-7.578" transform="translate(7.458 6.433)"/><path class="h" d="M22.547,339.263c1.448-4.04,4.041-9.011,10.556-11.994.026.088,7.7-4.21,11.21-6.179l4.23-34.861,26.668,1.813c-.4,1.378-4.877,30.943-6.3,40.376l.637.055a14.309,14.309,0,0,1,1.8,7.5,13.132,13.132,0,0,1-1.477,5.411l-47.008,3.456a7.183,7.183,0,0,1-.321-5.574" transform="translate(2.133 27.593)"/><line class="f" y1="3.609" x2="41.894" transform="translate(29.272 363.206)"/><line class="f" x2="3.88" y2="1.943" transform="translate(47.864 342.12)"/><line class="f" x2="3.328" y2="2.218" transform="translate(47.029 346.005)"/><line class="f" x2="2.217" y2="3.329" transform="translate(44.533 349.333)"/><path class="h" d="M94.084,325.881s-1.307-39.134-1.7-40.526l26.978-.4,1.512,35.122c3.752,2.253,9.652,5.789,9.676,5.716,6.424,3.178,8.853,8.229,10.183,12.307a7.172,7.172,0,0,1-.5,5.566l-46.877-4.9a13.228,13.228,0,0,1-1.309-5.45,14.267,14.267,0,0,1,2.033-7.435" transform="translate(8.874 27.47)"/><line class="f" x1="41.896" y1="3.609" transform="translate(104.459 363.206)"/><line class="f" x1="3.886" y2="1.943" transform="translate(123.881 342.12)"/><line class="f" x1="3.331" y2="2.218" transform="translate(125.269 346.005)"/><line class="f" x1="2.22" y2="3.329" transform="translate(128.876 349.333)"/><path class="i" d="M102.405,211.277c.185,2.947,2.379,5.209,4.9,5.052l13.251-.828c2.524-.156,4.422-2.675,4.236-5.622l-1.318-21.131c-.183-2.949-2.378-5.211-4.9-5.054l-13.252.826c-2.528.159-4.425,2.677-4.24,5.627Z" transform="translate(9.744 17.708)"/><path class="h" d="M108.89,136.257c3.295,3.112,4.575,13.412,5.736,17.7,1.466,5.42,5,10.9,5.9,16.435,1.6,9.887,8.572,104.861,10.661,119.49,1.451,10.172,1.641,32.768-11.562,36.123-5.9,1.5-21.839,4.337-27.061.763-11.2-7.676-8.236-32.962-8.862-44.389-1.192-21.843-2.675-43.651-5.108-65.4q-1.207-10.792-2.74-21.549c-.628-4.4-5.126-17.383-3.294-21.232.024-.047,9.106-19.1,25.369-48.276,0,0,10.952,10.326,10.965,10.332" transform="translate(6.953 12.139)"/><path class="f" d="M119.291,276.872s0,21.54-6.594,25.6" transform="translate(10.864 26.691)"/><path class="f" d="M103.672,275.1s-4.4,20.064.068,26.584" transform="translate(9.808 26.521)"/><path class="f" d="M89.35,271.922s1.864,21.8,9.311,29.861" transform="translate(8.614 26.214)"/><path class="h" d="M58.1,136.164c-3.352,3.053-4.8,13.327-6.032,17.6a162.178,162.178,0,0,0-3.844,16.373c-1.764,9.859-3.61,19.819-3.906,29.808-.45,15.224-2.316,26.882-3.848,42.14-1.485,14.751-3.729,32.754-6.059,47.345-1.62,10.148-3.348,32.7,9.794,36.274,5.868,1.6,21.765,4.7,27.047,1.212,11.323-7.488,8.784-32.822,9.6-44.232,1.554-21.822,3.4-43.6,6.2-65.309q1.39-10.77,3.1-21.5c.7-4.4,5.417-17.3,3.648-21.175-.022-.049-8.782-19.252-24.557-48.7,0,0-11.126,10.146-11.136,10.157" transform="translate(3.211 12.147)"/><path class="f" d="M67.292,272.625s0,26.763-6.593,31.8" transform="translate(5.852 26.282)"/><path class="f" d="M42.657,277.228s1.554,17.838,7.758,24.433" transform="translate(4.112 26.725)"/><path class="i" d="M38.225,206.366a5.284,5.284,0,0,0,4.607,5.876l15.017,1.616A5.278,5.278,0,0,0,63.6,209.1l2.265-21.054a5.273,5.273,0,0,0-4.6-5.872l-15.017-1.623a5.282,5.282,0,0,0-5.754,4.762Z" transform="translate(3.682 17.403)"/><path class="f" d="M62.353,190.039s-10.127,5.32-19.087-2.057" transform="translate(4.171 18.122)"/><path class="j" d="M51.035,195.549a1.817,1.817,0,1,0,1.956,1.665,1.82,1.82,0,0,0-1.956-1.665" transform="translate(4.759 18.851)"/><path class="f" d="M89.258,183.17l-4.479,10.467-4.684,59.242" transform="translate(7.721 17.658)"/><path class="g" d="M33.567,85.239c2.715-7.334,7.04-9.863,12.677-11.351.061-.156,4.265-1.854,4.331-2.006,0,0,32.755-4.013,37.633-4.346,44.83-3.057,39.446,32.488,38.114,66.3l.16,54.4-83.956-.777-3.471-45.477Z" transform="translate(3.236 6.493)"/><path class="k" d="M93.421,70.641,91.4,113.921,66.428,69.809l26.911-2.222Z" transform="translate(6.404 6.515)"/><path class="f" d="M88.3,76.538s-7.16,2.639-12.814.752" transform="translate(7.277 7.378)"/><path class="g" d="M56.492,72.581C43.869,63.586,21.649,90.719,15.937,98.674c-5.4,7.519-18.994,26.985-14.726,35.749,3.811,7.831,24.475-.539,30.973,5.3,0,0,27.2-35.144,27.4-35.4,5.4-6.991,5.17-25.855-3.089-31.745" transform="translate(0.038 6.823)"/><path class="f" d="M53.176,104.981s-13.029,15.583-16.694,21.805" transform="translate(3.517 10.12)"/><path class="e" d="M173.381,68.747a93.142,93.142,0,0,0,7.079-12.719L161.933,43.517c-2.317,4.866-6.043,16.524-9.481,19.9Z" transform="translate(14.697 4.195)"/><path class="g" d="M188.272,53.954S160.735,42.2,160.735,42.2,134.8,82.509,134.751,82.582c-2.856,4.265-.542,13.5,2.4,17.029,6.758,8.11,20.328,5.955,27.657.32,6.383-4.909,10.238-13.171,13.532-20.02.877-1.827,11.154-25.442,9.937-25.957" transform="translate(12.865 4.068)"/><path class="f" d="M144.563,70.617s12.947,4.9,8.847,18.255" transform="translate(13.936 6.808)"/><path class="l" d="M105.566,34.554s2.146,7.059-7.522,15.3l-3.131-7.492,5.875-8.176Z" transform="translate(9.15 3.296)"/><path class="m" d="M104.361,36.625s-.852,9.521-.856,9.568c.5,4.192,4.5,9.846-2.3,17.065-1.492,1.584-5.038,2.689-7.345,2.745-.5.013-1.315,9.539-1.433,10.7-.265,2.627-18.379.054-20.414-.181L74.958,45.6,82.49,33.658l14.043-.738Z" transform="translate(6.942 3.174)"/><path class="f" d="M94.513,54.822s-3.561,2.375-6.643,0" transform="translate(8.471 5.285)"/><path class="l" d="M94.781,22.737a41.905,41.905,0,0,0-8.2-1.937c-7.335-.558-14.924,2.209-19.633,8.082C58.723,39.142,63.271,52.6,72.3,61.015a17.151,17.151,0,0,0,2.442,1.944L76.8,48.405c1.164-1.9,6.254-12.135,9.908-8.567,5.921,5.787,17.587,6.983,23.023-2.115a8.778,8.778,0,0,0-2.078-11.545s-4-.884-12.872-3.442" transform="translate(6.039 1.998)"/><path class="n" d="M85.568,52.824c-.026,1.022-1.341,1.821-2.946,1.783s-2.873-.9-2.853-1.921S81.1,50.866,82.7,50.9s2.891.9,2.868,1.923" transform="translate(7.69 4.907)"/><path class="m" d="M79.773,48.548s-16.489-4.869-5.242,6.585Z" transform="translate(6.806 4.581)"/><line class="f" x1="3.189" y1="0.635" transform="translate(80.824 54.893)"/><path class="f" d="M75.773,35.283S69.28,37.839,69.368,44.4" transform="translate(6.687 3.401)"/><path class="j" d="M85.986,47.221c-.022.989.444,1.8,1.033,1.813s1.079-.777,1.1-1.765-.442-1.792-1.033-1.8-1.085.774-1.1,1.755" transform="translate(8.289 4.383)"/><path class="j" d="M95.338,46.581c-.02.989.439,1.8,1.03,1.81s1.089-.771,1.1-1.758-.436-1.794-1.039-1.807c-.58-.013-1.07.774-1.093,1.754" transform="translate(9.191 4.321)"/><path class="f" d="M91.351,47.245,93.2,48.778,91.624,50.41" transform="translate(8.806 4.555)"/><path class="f" d="M91.683,32.933s1.454,3.234,6.4,3.336" transform="translate(8.838 3.175)"/><path class="o" d="M102.777,24.38S75.765,30.151,64.915,51.392c0,0-11.774-21.472,3.233-31.4,0,0,22.393-18.239,34.629,4.387" transform="translate(5.835 1.258)"/><path class="o" d="M96.221,22.546s22.625,1.153,24.24,9.927c0,0,.464,4.387-7.155.693a31.326,31.326,0,0,0-27.243,5.541s-3,6-9,2.77l-6-3.231s8.775-16.854,25.165-15.7" transform="translate(6.85 2.168)"/><path class="f" d="M97.484,23.173A37.481,37.481,0,0,0,72.32,36.1" transform="translate(6.972 2.234)"/><path class="l" d="M92.827,63.483s-6.919-1.524-11.139-4.306l10.289,11.8Z" transform="translate(7.875 5.705)"/><path class="f" d="M88.7,113.645s5.271,59.094,4.442,68.252" transform="translate(8.55 10.956)"/><rect class="p" width="18.536" height="25.395" transform="translate(112.7 115.677)"/><path class="f" d="M119.611,109.377s-7.47,8.311-15.335-.924" transform="translate(10.052 10.455)"/><rect class="p" width="21.769" height="25.395" transform="translate(59.139 116.6)"/><path class="f" d="M74.113,109.8s-8.772,8.312-18.007-.923" transform="translate(5.409 10.496)"/><path class="o" d="M91.6,65.707s-1.256,12.014-1.97,17.777l11.093,11.408s3.475-13.325,2.046-25.432Z" transform="translate(8.641 6.334)"/><path class="o" d="M71.908,65.537,60.828,71.31,71.95,95.777,81.6,87.008s-5.085-17.231-9.7-21.471" transform="translate(5.864 6.318)"/><path class="e" d="M43.31,150.9c3.753-1.343,7.147-2.567,7.147-2.567l.992-.034s26.063-9.46,29.611,8.071c0,0,.8,6.754-1.8,8.432-.708.458-1.529.643-2.33-.786.731,1.948,1.375,5.515-4.23,4.572,0,0,1.771,4.475-1.616,5.058a4.617,4.617,0,0,1-2.591-1.079c1.054.2-1.566,2.621-1.885,2.751-4.1,1.739-3.38-3.331-7.178-7.487-1.469.146-2.941.274-4.372.327a19.115,19.115,0,0,1-17.109-3.21" transform="translate(3.659 14.05)"/><path class="f" d="M69.319,153.417s4.881,4.408,4.056,8.671" transform="translate(6.683 14.79)"/><path class="f" d="M64.424,158.918s5.924,4.677,5.727,8.4" transform="translate(6.211 15.32)"/><path class="f" d="M61.93,163.245s4.6,3.264,4.253,7.632" transform="translate(5.97 15.737)"/><path class="g" d="M58.3,152.221,35.385,131.66l-1.683-7.9L20.586,95.045,3.3,118.709c-5,10.466-5.047,26.378,4.924,34.789,7.465,6.287,16.054,13.184,24.739,17,4.707,2.065,9.508,4.014,14.1,6.379Z" transform="translate(0 9.163)"/><line class="f" x2="20.535" y2="13.32" transform="translate(36 142.923)"/><path class="f" d="M31.605,124.128s-8.914-4.574-18.69,6.365" transform="translate(1.245 11.875)"/><path class="f" d="M164.377,25.173s2.213,2.637.089,7.725c0,0,9.2.816,4.067,13.368" transform="translate(15.846 2.427)"/><path class="f" d="M168.753,30.73s-.007,4.846,4.239,4.212" transform="translate(16.268 2.962)"/><path class="f" d="M173.433,34.184s-.008,4.845,4.238,4.211" transform="translate(16.719 3.295)"/><path class="f" d="M177.795,37.213s-.007,4.846,4.239,4.212" transform="translate(17.14 3.587)"/><path class="k" d="M250.37,66.425c23.615-2.15,45.653,22.651,61.2,46.342l-29.7,20.305-31.611-32.248-5.44,6.215s-9.624-25.9-9.431-30.552c.11-2.578,10.908-9.506,13.461-9.883.514-.072,1.02-.132,1.523-.179" transform="translate(22.691 6.391)"/><path class="k" d="M257.253,165.93l20.635-37.9.116-1.851,9.2-34.817,21.947,19.156c4.021,3.511,6.893,12.06,7.29,17.369.447,5.952-1.472,11.8-4.257,16.98-5.517,10.255-16.189,20.919-24.2,28.989-1.559,1.565-17.531,16.947-19.579,13.879Z" transform="translate(24.8 8.808)"/><path class="f" d="M276.843,125.878s11.443-6.2,28.091-.636" transform="translate(26.688 11.85)"/><path class="i" d="M245.366,33.8c-.379,6.3-3.786,12.707-7.79,17.25a29.394,29.394,0,0,1-4.54,4.156,14.9,14.9,0,0,0-1.912,1.3c0-.012-.092-20.834-.092-20.834Z" transform="translate(22.272 3.258)"/><path class="i" d="M202.107,25.095S193.734,40.8,208.438,52.2l4.247-14.489-.243-7Z" transform="translate(19.255 2.419)"/><path class="m" d="M236.21,54.9l.382-18.849-9.259-4.774L215.36,26.367l-7.531,4.894s-.509,7.849-.515,7.906c-.849,4.184-3.661,9.9,2.475,17.768a9.382,9.382,0,0,0,6.2,3.106" transform="translate(19.852 2.542)"/><path class="m" d="M232.614,52.394,232.1,77.614l-19.61-.646-.1-22.441Z" transform="translate(20.475 5.051)"/><path class="l" d="M230.685,56.96l-18.34,7.27.166-7.93s4.791,3.138,18.174.66" transform="translate(20.471 5.427)"/><path class="j" d="M225.727,41.009c.025,1-.425,1.812-1,1.819s-1.057-.8-1.079-1.8.429-1.806,1-1.81,1.054.795,1.077,1.792" transform="translate(21.56 3.781)"/><path class="j" d="M215.357,40.248c.026,1-.424,1.811-1,1.82s-1.059-.8-1.082-1.8.429-1.811,1.005-1.816,1.055.795,1.073,1.794" transform="translate(20.56 3.707)"/><path class="i" d="M248.423,36.008c.377-6.255-.569-11.729-4.439-16.225-4.5-5.219-32.959-17.879-42.9,1.342-5.529,10.689,2.583,18.064,15.669,10.32,3.826-2.261,8.426,4.087,14.692,7.59,3.424,1.912,7.293,3.067,7.27,2.643" transform="translate(19.215 1.046)"/><path class="n" d="M224.68,46.976c-.06,1.035,1.16,1.96,2.721,2.066s2.869-.646,2.93-1.683-1.153-1.955-2.717-2.063-2.87.646-2.934,1.681" transform="translate(21.659 4.366)"/><path class="n" d="M208.159,45.941c-.059,1.035,1.158,1.958,2.717,2.065s2.873-.646,2.932-1.682-1.155-1.957-2.716-2.068-2.873.649-2.933,1.685" transform="translate(20.067 4.266)"/><path class="m" d="M228.682,42.911s16.41-3.431,4.576,7.127Z" transform="translate(22.045 4.085)"/><line class="f" y1="0.356" x2="3.153" transform="translate(254.694 49.293)"/><path class="m" d="M208.8,38.407a6.431,6.431,0,0,0-4-.71c-2.445.457-4.784,2.763,1.7,8.425Z" transform="translate(19.502 3.626)"/><line class="f" x1="1.21" y1="0.475" transform="translate(224.431 43.814)"/><path class="f" d="M219.229,40.964l-1.8,1.534,1.545,1.67" transform="translate(20.961 3.949)"/><path class="f" d="M223.973,25.347s1.895,5.855,5.85,7.279" transform="translate(21.592 2.444)"/><path class="f" d="M231.042,25.781s1.9,6.49,4.591,7.754" transform="translate(22.273 2.485)"/><path class="f" d="M216.484,48.066a4.338,4.338,0,0,0,4.975.368" transform="translate(20.87 4.634)"/><path class="f" d="M215.178,23.418a7.922,7.922,0,0,1-5.714,3.132" transform="translate(20.193 2.258)"/><line class="f" x1="34.051" y1="1.767" transform="translate(223.72 125.083)"/><path class="q" d="M235.338,298.278l29.536,1.912-1.79,46.03-27.851.291s.471-46.348.105-48.233" transform="translate(22.677 28.755)"/><path class="q" d="M286.395,357.766c-1.1-4.6-3.325-10.377-10.112-14.446-.048.115-13.3-9.427-13.3-9.427l-2.287,6.906-24.543-.63a15.767,15.767,0,0,0-2.892,8,14.535,14.535,0,0,0,.949,6.114l51.15,9.562a7.931,7.931,0,0,0,1.036-6.083" transform="translate(22.484 32.188)"/><line class="f" x1="40.071" y1="4.81" transform="translate(260.11 383.022)"/><path class="q" d="M181.181,298.976l28.9,1.753-2,45.978-27.258.442s.71-46.293.359-48.173" transform="translate(17.432 28.822)"/><path class="q" d="M231.788,358.354c-1.1-4.6-3.325-10.372-10.11-14.442-.052.116-13.3-9.428-13.3-9.428l-2.288,6.906-24.541-.63a15.824,15.824,0,0,0-2.9,8,14.565,14.565,0,0,0,.955,6.115l51.145,9.561a7.944,7.944,0,0,0,1.039-6.085" transform="translate(17.219 32.245)"/><line class="f" x1="38.871" y1="7.213" transform="translate(201.605 383.423)"/><path class="r" d="M252.77,135.972c17.75,51.6,22.759,181.743,23.6,200.592.216,4.816-4.013,13.478-8.976,14.761-4.022,1.038-9.242.59-13.393.777-6.21.282-17.112,4.113-21.682-1.954-5.034-6.684-4.151-46.031-5.065-55.465-2.331-24.1-4.519-48.173-7.379-72.217-.865-7.268-1.849-14.519-2.844-21.769-.5-3.629-1-7.258-1.521-10.883-.316-2.169-2.425-8.393-1.562-10.309.02-.047,9.789-21.764,27.252-55.055Z" transform="translate(20.605 11.997)"/><path class="f" d="M260.133,313.163s-1.2,8.414-6.812,12.421" transform="translate(24.421 30.19)"/><path class="r" d="M200.408,134.177c-21.059,51.537-16.4,78.934-22.332,132.428-2.525,22.829-2.012,40.684-4.143,63.558-.6,6.434-1.876,14.05,4.643,18.026,6.206,3.784,15.481,2.052,22.429,2.568,10.08.747,18.918,1.758,20.347-11.222,3.17-28.788,7.3-99.16,19.916-161.421,0,0-9.925-21.846-27.869-55.384Z" transform="translate(16.718 11.832)"/><path class="f" d="M185.422,289.406s-3.608,20.838,3.606,33.26" transform="translate(17.788 27.899)"/><path class="f" d="M206.148,302.2s-1.2,14.426-8.016,21.639" transform="translate(19.1 29.133)"/><path class="f" d="M219.791,192.352l2.038,4.78,2.748,53.536" transform="translate(21.188 18.543)"/><path class="s" d="M193.719,103.891a61.806,61.806,0,0,1,6.323-37.217s15.279-.823,26.513-.487c4.7.136,18.3-1.614,20.39-.34,0,0-.3-6.281,6.323,38.439l1.246,16.844-23.3,37.807L190.3,123.393c1.856-6.161,1.863-14.293,3.417-19.5" transform="translate(18.346 6.303)"/><path class="k" d="M173.536,75.173c1.94-3.241,31.693-8.682,31.693-8.682,10.625,9.958,27.6,60.162,27.6,60.162l3.589-12.306c8.72-32.818,9.648-49.186,9.648-49.186a155.791,155.791,0,0,1,19.528,3.081l12.36,4.5-4.938,135.6L182.954,210.3l-4.992-92.369Z" transform="translate(16.729 6.282)"/></g><g transform="translate(194.691 71.442)"><g class="t"><rect class="u" width="140.498" height="14.36" transform="translate(-21.537 50.211)"/><rect class="u" width="140.498" height="14.357" transform="translate(-21.537 101.49)"/></g></g><g class="d"><line class="f" x1="1.026" y2="69.221" transform="translate(248.529 132.934)"/><path class="k" d="M195.261,71.167c-23.615-2.056-45.652,21.658-61.2,44.312l29.7,19.416,31.611-30.836L200.813,110s9.625-24.762,9.432-29.215c-.111-2.465-10.909-9.089-13.462-9.451-.514-.068-1.02-.125-1.523-.17" transform="translate(12.924 6.849)"/><line class="f" x1="20.945" y2="16.856" transform="translate(183.746 116.317)"/><path class="q" d="M273.617,172.334l-.043,12.362c-67.9,16.319-93.331,1.793-93.331,1.793l-.2-13.332c19.177,17.756,93.575-.822,93.575-.822" transform="translate(17.356 16.613)"/><path class="v" d="M169.026,202.641a6.777,6.777,0,0,0,5.6,7.786l19.411,3.169a6.781,6.781,0,0,0,7.788-5.6l4.323-26.5a6.78,6.78,0,0,0-5.6-7.784l-19.412-3.173a6.788,6.788,0,0,0-7.789,5.6Z" transform="translate(16.286 16.432)"/><path class="f" d="M201.3,183.8s-13.516,5.985-24.678-4.026" transform="translate(17.027 17.331)"/><path class="v" d="M208.079,198.81a6.78,6.78,0,0,0,7.021,6.531l19.657-.716a6.782,6.782,0,0,0,6.532-7.025l-.885-17.687a6.779,6.779,0,0,0-7.021-6.53l-19.656.713a6.786,6.786,0,0,0-6.531,7.026Z" transform="translate(19.974 16.714)"/><path class="f" d="M236.588,182.944s-12.075,8.528-24.988.911" transform="translate(20.399 17.636)"/><path class="w" d="M258.7,172.626s-12.677-1.459-18.391,2.568c0,0,7.29,9.24,18.859-1.935Z" transform="translate(23.166 16.617)"/><path class="q" d="M232.393,159.386a13.429,13.429,0,0,0,10.491,11.059l6.425,41.227a5.523,5.523,0,0,0,7.234,3.953c.214-.063.426-1.955.634-2.016,2.251-.674,1.937-1.016,1.567-3.405l-6.426-41.226a13.423,13.423,0,0,0,6.626-13.725c-.8-5.177-2.8-9.381-7.454-10.9-.384-.124-2.452-.042-2.851-.132l1.516,9.729a4.95,4.95,0,0,1-9.782,1.525l1.01-9.77-2.517.042a13.423,13.423,0,0,0-6.472,13.636m20.653,45.275a1.621,1.621,0,0,1,1.852,1.355l.638,4.114a1.619,1.619,0,1,1-3.2.5l-.643-4.121a1.622,1.622,0,0,1,1.351-1.851" transform="translate(22.388 13.903)"/><path class="x" d="M234.7,159.35a13.413,13.413,0,0,0,10.488,11.059l6.427,41.228a4.771,4.771,0,0,0,9.428-1.465l-6.423-41.231a13.419,13.419,0,0,0-3.677-24.755l1.513,9.731a4.949,4.949,0,1,1-9.779,1.525l-1.513-9.731A13.422,13.422,0,0,0,234.7,159.35m20.652,45.275a1.625,1.625,0,0,1,1.85,1.351l.639,4.117a1.619,1.619,0,0,1-3.2.5l-.64-4.119a1.621,1.621,0,0,1,1.351-1.852" transform="translate(22.61 13.9)"/><path class="v" d="M259.164,173.18s-11.092,6.22-18.858,1.935l5.921,40.07s10.762,8.272,18.474-3.028Z" transform="translate(23.166 16.695)"/><path class="s" d="M207.348,171.918c5.972-1.2,3.872-4.411,2.346-6.019,1.386,1.079,2.129.593,2.648-.116,1.9-2.611-1.662-8.853-1.662-8.853-10.7-15.656-32.821,3.319-32.821,3.319l-.977.409s-18.381-4.568-18.394-4.55c.366-.288,9.219,11.127,9.854,11.932,2.766,3.491,5.265,8.174,9.245,10.462,5.372,3.087,11.247.116,16.223-2.323,5.482,2.6,6.839,7.781,10.214,4.554.263-.251,1.888-3.581.757-3.374.4.145,2.259.514,3.021.067,3.146-1.836-.454-5.507-.454-5.507" transform="translate(15.279 14.532)"/><path class="f" d="M197.337,157.426s6.669,2.434,7.6,6.873" transform="translate(19.024 15.176)"/><path class="f" d="M194.711,164.6s7.822,2.307,9.145,5.984" transform="translate(18.771 15.868)"/><path class="f" d="M193.993,169.73s5.925,1.43,7.366,5.8" transform="translate(18.701 16.362)"/><path class="k" d="M189.425,159.366l-21.368-31.078.24-1.756-2.375-34.361-25.2,13.969c-4.617,2.561-9.071,10.059-10.475,14.97-1.576,5.506-.809,11.35.934,16.716,3.455,10.634,10.512,19.466,16.831,28.5,1.23,1.752,12.078,18.585,14.673,16.079Z" transform="translate(12.473 8.885)"/><path class="f" d="M163.688,126.737s-8.685-7.968-24.722-1.146" transform="translate(13.397 11.841)"/><path class="q" d="M230.926,56.5c3.928-3.883,5.437-9.752,5.668-15.615.044-1.105.359-12.376-.866-12.325l6.336-1.947c.983,10.744-.789,28.387-11.806,34.207-4.4,2.325-11.843,4.057-15.355-.667,3.534,1.322,8.179.549,10.11-.086a14.877,14.877,0,0,0,5.913-3.568" transform="translate(20.717 2.565)"/><path class="s" d="M226.316.024C212.5-.545,199.221,8.816,197.052,25.9c-.112.866-1.545,3.855-1.6,4.762-.052,1,44.32,2.615,44.32,2.615l13.789-.346c.032-.388-1.391-2.761-1.371-3.144,1.019-19-11.427-29.171-25.875-29.765" transform="translate(18.842 0)"/><path class="y" d="M215.434,14.778a7.638,7.638,0,1,1,7.738,7.536,7.637,7.637,0,0,1-7.738-7.536" transform="translate(20.768 0.678)"/><path class="i" d="M218.253,12.959l3.018-.039L221.234,9.9l3.012-.042.043,3.019,3.015-.041.043,3.017-3.018.035.041,3.023-3.018.041-.037-3.023-3.018.044Z" transform="translate(21.04 0.95)"/><line class="f" x2="35.636" y2="0.61" transform="translate(220.548 27.023)"/><path class="s" d="M268.333,162.243c0-.014.981-8-6.086-6.612,0,0-7.816,1.829-8.163,7.129-.236,3.585,3.319,1.525,4.972.842.752-.3,9.4-2.445,9.277-1.358" transform="translate(24.493 14.987)"/><path class="s" d="M273.05,167.828c-.008-.02,1.056-8.639-6.563-7.142,0,0-10.108,1.961-10.483,7.679-.25,3.871,4.836,2.523,6.623,1.8.8-.34,10.568-3.5,10.422-2.334" transform="translate(24.678 15.474)"/><path class="s" d="M275.038,173.283c0-.012.982-8-6.081-6.613,0,0-9.158,1.176-9.5,6.472-.236,3.591,4.662,2.185,6.313,1.5.748-.308,9.409-2.449,9.272-1.362" transform="translate(25.011 16.052)"/><path class="s" d="M276.966,178.837c0-.012.985-8.01-6.085-6.618,0,0-7.82,1.831-8.166,7.126-.23,3.587,7.225,3.275,8.883,2.6.736-.317,2.726-1.735,5.368-3.106" transform="translate(25.326 16.587)"/><path class="f" d="M267.824,160.551s-11.043.581-11.3,6.31" transform="translate(24.73 15.477)"/><path class="f" d="M271.823,166.135s-10.529.465-12.055,5.388" transform="translate(25.042 16.016)"/><path class="f" d="M274.629,172.7s-9.177-1.525-10.946,4.943" transform="translate(25.42 16.634)"/><line class="f" x1="0.991" y2="25.774" transform="translate(292.957 100.389)"/><path class="z" d="M409.661,89.116c-6.014-5.652-9-10.454-10.12-18.083-.687-4.684-1.132-9.558-2.942-13.987-3.556-8.7-13.51-12.1-20.885-5.188a23.7,23.7,0,0,0-5.007,7.288c-2.247,4.736-4.389,10.417-2.877,15.676,1.534,5.353,7.37,6.268,10.815,10,3.233,3.5,2.725,8.348,4.169,12.564.639,1.875,1.917,5.787,5.778,7.358l23.439-13.78a17.6,17.6,0,0,1-2.369-1.845" transform="translate(35.411 4.644)"/><path class="s" d="M367.454,86.589a40.971,40.971,0,0,1,11.435,1.554c15.938,4.08,21.673,11.472,31.252,41.928L386.35,141.217l-22.43-23.544Z" transform="translate(35.083 8.346)"/><path class="h" d="M316.082,302.734l32.3,6.34-5.223,32.878-28.731-9.761Z" transform="translate(30.312 29.184)"/><path class="h" d="M306.687,334c-9.125,3.569-12.205,10.648-13.922,15.914L310,347.944c-.248-7.541-1.689-11.691-3.311-13.946" transform="translate(28.223 32.198)"/><path class="h" d="M344.872,326.4l-29.063-.543-1.339,7.115a51.572,51.572,0,0,0-9.007,1.811c1.623,2.255,3.063,6.405,3.31,13.946l39.086-.369a17.3,17.3,0,0,0-3.5-10.75Z" transform="translate(29.447 31.413)"/><line class="f" x2="4.552" y2="1.559" transform="translate(345.344 360.361)"/><line class="f" x2="5.464" y2="2.768" transform="translate(343.918 364.385)"/><path class="l" d="M292.2,346.67a11.061,11.061,0,0,0-.4,6.224l56.535-.067a15.424,15.424,0,0,0,1.573-6.345Z" transform="translate(28.105 33.402)"/><line class="f" x2="4.551" y2="1.557" transform="translate(346.005 353.747)"/><line class="f" x2="4.551" y2="1.557" transform="translate(346.887 347.132)"/><path class="h" d="M399.733,303.69l-32.3,6.342,5.223,32.877,28.731-9.759Z" transform="translate(35.421 29.276)"/><path class="h" d="M407.657,334.954c9.125,3.568,12.205,10.65,13.921,15.915L404.346,348.9c.248-7.542,1.69-11.691,3.311-13.949" transform="translate(38.98 32.29)"/><path class="h" d="M371.685,327.357l29.065-.544,1.338,7.117a51.724,51.724,0,0,1,9.007,1.81c-1.62,2.258-3.063,6.407-3.31,13.948L368.7,349.32a17.3,17.3,0,0,1,3.5-10.754Z" transform="translate(35.543 31.506)"/><line class="f" x1="4.552" y2="1.558" transform="translate(431.652 361.411)"/><line class="f" x1="5.463" y2="2.768" transform="translate(432.166 365.435)"/><path class="l" d="M425.767,347.629a11.068,11.068,0,0,1,.4,6.223l-56.533-.067a15.429,15.429,0,0,1-1.573-6.344Z" transform="translate(35.482 33.494)"/><line class="f" x1="4.551" y2="1.554" transform="translate(430.991 354.797)"/><line class="f" x1="4.551" y2="1.557" transform="translate(430.109 348.181)"/><path class="aa" d="M332.483,154.821s-10.08,6.355-10.963,66.312c-1.3,14.669-2.334,29.361-3.862,44.008-1.429,13.7-3.3,27.181-4.734,40.868-1.065,10.147,1.117,18.19,11.344,22.236,8.508,3.365,21.17,5.216,26.82-4.32,5.456-9.205,4.263-22.862,4.6-33.139,1.3-40.362,4.034-80.632,6.985-120.91.461-6.268.878-12.544,1.3-18.814Z" transform="translate(30.143 14.563)"/><path class="aa" d="M382.389,152.952s14.992,23.737,15.911,74.059q2.358,35.206,4.719,70.409c.638,9.522,4.525,15.312-3.394,26.054-7.031,9.539-32.987,8.738-36.688-.425-4.036-9.989-3.6-27.366-4.261-37.2q-1.314-19.674-2.635-39.349-2.646-40.206-5.293-80.412c-.065-.973-.594-16.831-1.112-16.894Z" transform="translate(33.706 14.382)"/><path class="f" d="M351.139,181.96l2.075,2.393,3.285,37.011" transform="translate(33.851 17.541)"/><path class="f" d="M379.03,163.846s7.271,108.083,9.6,146" transform="translate(36.539 15.795)"/><path class="ab" d="M370.744,226.311a6.332,6.332,0,0,0,6.777,5.864l18.334-1.326a6.337,6.337,0,0,0,5.865-6.779l-1.813-25.026a6.334,6.334,0,0,0-6.775-5.862L374.795,194.5a6.341,6.341,0,0,0-5.863,6.782Z" transform="translate(35.564 18.621)"/><path class="f" d="M396.462,202s-10.99,8.369-23.307,1.687" transform="translate(35.973 19.473)"/><path class="ab" d="M375.16,260.181a6.334,6.334,0,0,0,6.778,5.864l18.334-1.327a6.337,6.337,0,0,0,5.865-6.778l-1.505-15.649a6.338,6.338,0,0,0-6.775-5.864l-18.335,1.323a6.344,6.344,0,0,0-5.867,6.781Z" transform="translate(36.019 22.791)"/><path class="f" d="M401.187,243.064s-10.991,8.37-23.308,1.687" transform="translate(36.428 23.432)"/><path class="s" d="M344.967,85a46.681,46.681,0,0,0-26.251,18.522l13.609,13.758,13.752-6.535Z" transform="translate(30.725 8.195)"/><path class="z" d="M331.676,48.193s-4.616,9.947,2.972,17.024c0,0,5.655,1.736,5.7.942s4.118-20.772,4.118-20.772Z" transform="translate(31.84 4.375)"/><path class="m" d="M339.894,61.554s-16.045-.9-3.162,7.429Z" transform="translate(31.979 5.931)"/><line class="f" x1="3.034" y2="0.111" transform="translate(367.093 70.34)"/><path class="m" d="M338.9,47.575l-4.3,6.6,1.524,12.813a25.368,25.368,0,0,1-.109,4.606c-.4,5.393,4.308,9.822,7.207,9.518l.561,14.919,6.257,11.846,13.384-10.249.435-34.8L357.3,52.265l-10.816-5.227Z" transform="translate(32.257 4.535)"/><path class="n" d="M351.714,69.35c.072.871,1.212,1.5,2.55,1.413s2.368-.86,2.3-1.729-1.208-1.5-2.547-1.418-2.369.865-2.3,1.733" transform="translate(33.906 6.518)"/><path class="n" d="M336.559,69.046c.068.869,1.208,1.5,2.546,1.417s2.372-.862,2.3-1.735-1.207-1.5-2.549-1.417-2.367.866-2.3,1.735" transform="translate(32.445 6.488)"/><path class="l" d="M342.471,78.336s4.3,1.457,12.923-2.472L342.677,85.886Z" transform="translate(33.015 7.313)"/><path class="z" d="M364.5,80.737l.064-4.491c-.147-13.8-1.306-12.782-1.306-12.782-11.4-2.765-18.451-8.249-21-9.276-4.774-1.936-6.406,3.235-7.209,3-2.421-.741-3.847-4.045-3.774-6.243.144-4.033,3.281-8.767,6.577-9.152a15.726,15.726,0,0,0,5.2-1.192c19.939-10.911,28.875,5.342,28.875,5.342,4.423.431,6.953,7.9,7.367,12.774,0,0-.865,15.62-14.8,22.023" transform="translate(31.935 3.55)"/><path class="s" d="M347.55,127.642,331.172,92.1l-20.938,20.067-9.767,6.613-4.607,28.5c8.925,5.823,23.077-2.187,29.312-6.119Z" transform="translate(28.522 8.879)"/><path class="s" d="M336.484,114.113c-2.459-12.635-1.645-21.98.589-26.634,1.171-.907,2.358-1.573,5.8-2.431-.593,3.116,4.026,7.541,7.268,7.244,4.253-.386,8.628-2.972,11.881-5.126,10.108-6.681,2.586,7.476,1.618,19.811l-.328,60.262c-6.407-.158-17.211-.523-24.347-.76l-.629-40.976c-.264-1.322-1.853-11.391-1.853-11.391" transform="translate(32.293 8.199)"/><path class="r" d="M341.412,85.316c-2.232,4.85-.387,16.926,2.072,30.1,0,0,10.783,32.287,11.047,33.664l-6.373,35.436c-4.222-.144-13.6-.219-26.77-.219l4.249-49.391s-24.27-26.06,7.863-47.781c2.042-1.38,7.912-1.806,7.912-1.806" transform="translate(30.545 8.225)"/><path class="r" d="M384.5,87.625,373.548,86.2,366.2,85.166c-1.951,1.921-5.732,10.129-20.938,52.7,0,0-4.337,46.7-4.122,46.7,6.427.259,52.495.819,52.495.819-1.8-46.825-9.136-97.765-9.136-97.765" transform="translate(32.886 8.21)"/></g><g transform="translate(347.395 93.376)"><g class="ac"><rect class="u" width="10.842" height="106.152" transform="matrix(0.023, -1, 1, 0.023, -10.091, 39.758)"/><rect class="u" width="10.844" height="106.153" transform="matrix(0.023, -1, 1, 0.023, -7.542, 83.101)"/></g></g><g class="d"><path class="h" d="M305.124,93.191l-1.5-7.992s5.632-13.6-2.7-16.347c0,0-5.837-20.462-11.93-15.676,0,0-.9.215-.532,3.252a35.846,35.846,0,0,0,3.237,10.3s-5.8-3.422-7.066,3.15c0,0-4.411-.346-3.559,4.12,0,0-1.159,2.134,2.415,7.936l3.428,11.055" transform="translate(27.078 5.056)"/><path class="h" d="M281.174,70.9s-7.617,4.545,2.545,9.255c0,0,2.837,1.039,2.271-3.321" transform="translate(26.842 6.835)"/><path class="f" d="M299.71,67.411s-7.457-.832-6.131,9.893c0,0,2.047,5.557,5.344-1.226" transform="translate(28.286 6.497)"/><path class="f" d="M285.478,67.61a5.033,5.033,0,0,0,3.01,5.589" transform="translate(27.513 6.518)"/><path class="f" d="M292.749,70.6s-2.315,4.265-5.456,1.505c0,0,2.789,6.153-3.1,4.614" transform="translate(27.397 6.806)"/><path class="f" d="M281.174,70.9s-7.617,4.545,2.545,9.255c0,0,2.837,1.039,2.271-3.321" transform="translate(26.842 6.835)"/><path class="f" d="M281.052,72.1s1.133,4.582,4.685,4.616" transform="translate(27.094 6.951)"/><path class="s" d="M313.161,131.993l-4.255-26.752-2.806-18.8-22.22,1.625s-9.592,52.731,14.559,60.66c.408.135.807.25,1.208.363" transform="translate(27.185 8.333)"/><path class="m" d="M356.3,61.753s16.494-2.356,3.955,7.4Z" transform="translate(34.348 5.929)"/><line class="f" y1="0.153" x2="3.141" transform="translate(392.718 70.321)"/><path class="j" d="M350.576,63.058c-.023.97-.5,1.735-1.073,1.713s-1.007-.816-.985-1.783.508-1.732,1.077-1.711,1.007.815.981,1.782" transform="translate(33.598 5.907)"/><path class="j" d="M341.593,61.907c-.025.966-.5,1.736-1.069,1.717s-1.01-.82-.982-1.786.5-1.733,1.073-1.714,1.005.821.978,1.783" transform="translate(32.733 5.796)"/><path class="f" d="M345.385,62.775l-1.858,1.4,1.454,1.69" transform="translate(33.117 6.052)"/><path class="f" d="M349.289,51.016s4.286,5.443,9.916,6.461" transform="translate(33.672 4.918)"/><path class="f" d="M359.176,50.723a12.027,12.027,0,0,1,7.229,8.651" transform="translate(34.625 4.89)"/><path class="f" d="M343.029,68.422s-.667,2.67,3.016,3.193c0,0,3.42-.058,3.706-3.043A30.581,30.581,0,0,1,343.029,68.422Z" transform="translate(33.064 6.596)"/><path class="q" d="M354.871,163.574c-.435,1.191.431,2.67,1.07,3.4,1.618,1.873,2.149,1.646,2.546,1.646l44.689-2.169a4.563,4.563,0,0,0,3.927-2.88L432.458,100.8c.145-.4-.125-.921-.973-2.1-.609-.84-1.748-1.957-2.941-1.957H382.076a4.553,4.553,0,0,0-3.93,2.882Z" transform="translate(34.199 9.326)"/><path class="v" d="M356.758,165.823c-.583,1.6.239,2.886,1.833,2.886h46.467a4.564,4.564,0,0,0,3.934-2.886l23.271-63.943c.58-1.6-.239-2.882-1.832-2.882H383.961a4.538,4.538,0,0,0-3.925,2.882Z" transform="translate(34.374 9.544)"/><path class="h" d="M414.346,147.637c0-.008,5.418-2.848,1.431-6.655,0,0-4.593-4.087-8.045-2.012-2.342,1.4.512,2.731,1.668,3.467.523.332,5.682,4.812,4.947,5.2" transform="translate(39.22 13.34)"/><path class="h" d="M412.988,152.967c.007-.012,5.846-3.075,1.548-7.183,0,0-5.686-5.457-9.412-3.217-2.523,1.51.561,4.1,1.806,4.907.565.354,6.85,5.071,6.058,5.492" transform="translate(38.962 13.692)"/><path class="h" d="M410.391,156.608c.007,0,5.42-2.843,1.437-6.655,0,0-4.778-5.2-8.234-3.127-2.342,1.408.7,3.849,1.854,4.591.522.329,5.679,4.807,4.943,5.191" transform="translate(38.824 14.107)"/><path class="h" d="M407.823,160.2c.007,0,5.421-2.851,1.437-6.657,0,0-4.6-4.088-8.05-2.015-2.341,1.41.514,2.737,1.668,3.476.523.332,5.679,4.806,4.945,5.2" transform="translate(38.591 14.551)"/><path class="f" d="M415.044,146.616s-5.24-6.642-8.922-4.322" transform="translate(39.151 13.67)"/><path class="f" d="M413.28,151.533s-4.941-6.37-8.68-5.2" transform="translate(39.004 14.093)"/><path class="f" d="M410.414,156.143s-3.105-6.384-7.912-4.694" transform="translate(38.802 14.573)"/><line class="f" x2="2.472" y2="17.481" transform="translate(337.345 124.786)"/><path class="q" d="M360.425,50.277s3.221,19.956-12.3,31.829l5.859-.121s11.6-8.031,12.361-31.427Z" transform="translate(33.56 4.847)"/><path class="k" d="M362.175,26.119c-13.754-2.259-28.089,4.414-32.194,19.4-.211.758-5.7,3.166-5.859,3.972-.167.889,45.526,8.526,45.526,8.526,1.773.24,3.865,4.423,4.5,5.8.966,2.093,2.527,2.6,4.954,3.291.658.19,1.861.333,1.823.481a69.738,69.738,0,0,0,2.559-7.892c.169-.675.314-1.344.441-2.008,3.17-16.837-7.372-29.2-21.751-31.569" transform="translate(31.246 2.476)"/><path class="s" d="M347.593,35.073a7.7,7.7,0,1,1,5.1,9.62,7.7,7.7,0,0,1-5.1-9.62" transform="translate(33.476 2.856)"/><path class="i" d="M350.783,34.289l2.907.893.9-2.911,2.9.889-.888,2.912,2.9.892-.888,2.908-2.911-.9-.891,2.914L351.908,41l.895-2.913-2.911-.889Z" transform="translate(33.73 3.111)"/><line class="f" x2="29.328" y2="3.851" transform="translate(364.743 48.776)"/><line class="f" x2="0.553" y2="43.047" transform="translate(378.15 146.077)"/><path class="f" d="M323.108,282.076s-3.189,11.955,5.577,20.721" transform="translate(31.094 27.193)"/></g></g></g></svg>