<svg xmlns="http://www.w3.org/2000/svg" width="864.81" height="472.903" viewBox="0 0 864.81 472.903"><g transform="translate(-367.6 -201.718)"><path d="M63.255,179.6q-8.2,0-13.021-4.619t-4.82-13.252v-1.666a92.518,92.518,0,0,1,.864-13.4,39.383,39.383,0,0,1,2.949-10.449,31.884,31.884,0,0,1,5.539-8.406,55.058,55.058,0,0,1,8.488-7.42l22.588-15.75a12.832,12.832,0,0,0,4.677-5.3,14.3,14.3,0,0,0,1.223-5.6,8.528,8.528,0,0,0-2.806-6.437,10.764,10.764,0,0,0-7.7-2.65,11.544,11.544,0,0,0-5.827,1.439,31.459,31.459,0,0,0-4.963,3.56,32.846,32.846,0,0,1-2.806,2.271,11.969,11.969,0,0,1-3.668,1.818,20.893,20.893,0,0,1-7.194.6,12.036,12.036,0,0,1-7.05-3.028,11.5,11.5,0,0,1-4.1-8.633,15.977,15.977,0,0,1,2.519-9.54A26.4,26.4,0,0,1,54.7,65.864a40.429,40.429,0,0,1,8.488-5,43.833,43.833,0,0,1,9.351-2.878,50.868,50.868,0,0,1,9.424-.909,51.819,51.819,0,0,1,15.322,2.2,36.723,36.723,0,0,1,12.375,6.437A31.56,31.56,0,0,1,118,76.011a30.24,30.24,0,0,1,3.094,13.932q0,12.268-4.1,20.369a38.062,38.062,0,0,1-13.021,14.159L86.13,136.437a44.2,44.2,0,0,0-7.912,6.587,10.318,10.318,0,0,0-2.446,7.042v1.059q0,2.271,2.156,2.273h44.313v26.2Z" transform="translate(325.061 144.79)" fill="#fff100"/><path d="M133.568,182.547a48.089,48.089,0,0,1-15.9-2.575A34.294,34.294,0,0,1,96.376,159.6a46.772,46.772,0,0,1-3.092-17.642V97.587a46.213,46.213,0,0,1,3.092-17.569,36.3,36.3,0,0,1,8.488-12.72,34.875,34.875,0,0,1,12.8-7.724,50.358,50.358,0,0,1,31.8,0,34.874,34.874,0,0,1,12.8,7.724,36.275,36.275,0,0,1,8.488,12.72,46.248,46.248,0,0,1,3.094,17.569V141.96a46.808,46.808,0,0,1-3.094,17.642,34.295,34.295,0,0,1-21.293,20.369,48.094,48.094,0,0,1-15.9,2.575m0-25.745a13.426,13.426,0,0,0,3.884-.607,9.411,9.411,0,0,0,3.669-2.119,11.707,11.707,0,0,0,2.733-3.939,14.9,14.9,0,0,0,1.08-6.056V95.466a14.479,14.479,0,0,0-1.08-5.906,11.744,11.744,0,0,0-2.733-3.939,10.343,10.343,0,0,0-3.669-2.2,11.406,11.406,0,0,0-7.769,0,10.278,10.278,0,0,0-3.668,2.2,11.694,11.694,0,0,0-2.735,3.939,14.512,14.512,0,0,0-1.078,5.906v48.615a14.929,14.929,0,0,0,1.078,6.056,11.657,11.657,0,0,0,2.735,3.939,9.358,9.358,0,0,0,3.668,2.119,13.387,13.387,0,0,0,3.885.607" transform="translate(367.109 144.719)" fill="#fff100"/><path d="M161.293,179.6q-8.2,0-13.021-4.619t-4.82-13.252v-1.666a92.516,92.516,0,0,1,.864-13.4,39.384,39.384,0,0,1,2.949-10.449A31.885,31.885,0,0,1,152.8,127.8a55.058,55.058,0,0,1,8.488-7.42l22.588-15.75a12.832,12.832,0,0,0,4.677-5.3,14.3,14.3,0,0,0,1.223-5.6,8.529,8.529,0,0,0-2.806-6.437,10.764,10.764,0,0,0-7.7-2.65,11.544,11.544,0,0,0-5.827,1.439,31.459,31.459,0,0,0-4.963,3.56,32.847,32.847,0,0,1-2.806,2.271,11.969,11.969,0,0,1-3.669,1.818,20.893,20.893,0,0,1-7.194.6,12.036,12.036,0,0,1-7.05-3.028,11.5,11.5,0,0,1-4.1-8.633,15.977,15.977,0,0,1,2.519-9.54,26.4,26.4,0,0,1,6.546-7.269,40.429,40.429,0,0,1,8.488-5,43.834,43.834,0,0,1,9.351-2.878A50.867,50.867,0,0,1,180,57.079a51.819,51.819,0,0,1,15.322,2.2,36.723,36.723,0,0,1,12.375,6.437,31.56,31.56,0,0,1,8.344,10.3,30.241,30.241,0,0,1,3.094,13.932q0,12.268-4.1,20.369a38.062,38.062,0,0,1-13.021,14.159l-17.841,11.965a44.2,44.2,0,0,0-7.912,6.587,10.318,10.318,0,0,0-2.446,7.042v1.059q0,2.271,2.156,2.273H220.28v26.2Z" transform="translate(411.176 144.79)" fill="#fff100"/><path d="M268.508,141.009a43.546,43.546,0,0,1-3.236,17.264,36.93,36.93,0,0,1-21.725,20.749,44.863,44.863,0,0,1-15.609,2.726,71.308,71.308,0,0,1-9.711-.682,52.432,52.432,0,0,1-9.5-2.2,32.78,32.78,0,0,1-8.274-4.089,25.313,25.313,0,0,1-6.33-6.21,14.721,14.721,0,0,1-2.517-9.54,12.732,12.732,0,0,1,4.1-8.783,11.047,11.047,0,0,1,6.9-3.18,20.94,20.94,0,0,1,7.194.6,10.519,10.519,0,0,1,3.668,1.969,33.393,33.393,0,0,0,2.806,2.121,11.944,11.944,0,0,0,5.107,2.044,42.442,42.442,0,0,0,5.97.379,12.206,12.206,0,0,0,9.21-3.937,14.131,14.131,0,0,0,3.74-10.147,11.966,11.966,0,0,0-1.367-5.831,12.9,12.9,0,0,0-3.74-4.24,17.476,17.476,0,0,0-5.468-2.65,23.617,23.617,0,0,0-6.689-.909h-6.907a8.484,8.484,0,0,1-5.827-2.423,10.657,10.657,0,0,1-3.381-5.6,14.736,14.736,0,0,1,0-7.649,15.791,15.791,0,0,1,4.749-7.042l22.156-20.9H205.492a11.775,11.775,0,0,1-5.395-1.136,10.9,10.9,0,0,1-3.668-2.953,11.775,11.775,0,0,1-2.087-4.012,15.777,15.777,0,0,1-.648-4.469,16.057,16.057,0,0,1,.648-4.392,11.511,11.511,0,0,1,5.755-7.117,11.157,11.157,0,0,1,5.395-1.212h44.745a15.012,15.012,0,0,1,9.711,3.18,17.44,17.44,0,0,1,5.611,7.724,18.538,18.538,0,0,1,.791,9.615,16.666,16.666,0,0,1-4.459,8.86l-20.142,21.051a27.854,27.854,0,0,1,9.711,3.18,31.637,31.637,0,0,1,8.633,6.815,33.142,33.142,0,0,1,6.114,10.07,35.03,35.03,0,0,1,2.3,12.95" transform="translate(453.439 145.216)" fill="#fff100"/><path d="M76.541,216.106v-8.177a35.055,35.055,0,0,1-11.725-2.046,22.529,22.529,0,0,1-8.272-5.3,22.025,22.025,0,0,1-4.965-8.028,29.664,29.664,0,0,1-1.653-10.07,19.491,19.491,0,0,1,1.294-6.817,9.8,9.8,0,0,1-5.468-3.71,11.133,11.133,0,0,1-1.869-6.587,11.013,11.013,0,0,1,2.949-8.026q2.947-3.029,8.415-3.028H75.678q.718-5.756,4.459-8.481t9.783-2.727q6.044,0,9.711,2.727t4.39,8.481h20.429q5.466,0,8.417,3.028a11.021,11.021,0,0,1,2.949,8.026,10.51,10.51,0,0,1-1.942,6.512,10.334,10.334,0,0,1-5.252,3.635,19.864,19.864,0,0,1,1.294,6.967,29.71,29.71,0,0,1-1.653,10.07,22.075,22.075,0,0,1-4.965,8.028,22.529,22.529,0,0,1-8.272,5.3,35.073,35.073,0,0,1-11.725,2.046v8.177h22.732q6.616,0,9.351,3.332a13.24,13.24,0,0,1-.071,16.2q-2.806,3.333-9.279,3.332H56.111q-6.475,0-9.352-3.332a12.978,12.978,0,0,1-.071-16.2q2.806-3.33,9.424-3.332Zm-.718,70.877a34.832,34.832,0,0,1-10-1.212,13.455,13.455,0,0,1-6.259-3.787,14.813,14.813,0,0,1-3.236-6.815,48.436,48.436,0,0,1-.935-10.3V258.36q0-7.726,4.388-10.829a17.6,17.6,0,0,1,10.431-3.1,16.351,16.351,0,0,1,10.215,3.18Q84.6,250.787,84.6,258.36v1.666q0,2.575.721,3.178t3.165.607h75.389q6.616,0,9.351,3.484a13.237,13.237,0,0,1-.071,16.2q-2.806,3.483-9.279,3.484Zm21.868-97.834a6.391,6.391,0,0,0,5.25-2.2,7.574,7.574,0,0,0,1.8-4.921,7,7,0,0,0-1.8-4.771,6.619,6.619,0,0,0-5.25-2.044H82.153a6.618,6.618,0,0,0-5.252,2.044,6.993,6.993,0,0,0-1.8,4.771,7.564,7.564,0,0,0,1.8,4.921,6.39,6.39,0,0,0,5.252,2.2Zm45.175-29.38q0-7.419,4.172-11.206a14.7,14.7,0,0,1,19.783.075q4.24,3.863,4.243,11.131v22.867h4.461a11.084,11.084,0,0,1,5.466,1.212,10.1,10.1,0,0,1,3.452,3.1,12.912,12.912,0,0,1,1.871,4.24,18.847,18.847,0,0,1,0,9.238,12.853,12.853,0,0,1-1.871,4.241,9.877,9.877,0,0,1-3.524,3.1,11.145,11.145,0,0,1-5.395,1.212h-4.461v42.859h-28.2Z" transform="translate(323.717 220.358)" fill="#fff100"/><path d="M135.228,198.669a74.65,74.65,0,0,0,14.819-.53,38.355,38.355,0,0,0,11.87-3.484,20.032,20.032,0,0,0,7.84-6.815,18.544,18.544,0,0,0,2.88-10.525v-1.969q0-3.33-3.31-3.332H136.811a13.3,13.3,0,0,1-5.4-.984,10.158,10.158,0,0,1-3.668-2.65,10.3,10.3,0,0,1-2.085-3.787,15.2,15.2,0,0,1,0-8.783,10.358,10.358,0,0,1,2.085-3.787,10.22,10.22,0,0,1,3.668-2.649,13.33,13.33,0,0,1,5.4-.984h43.161q8.63,0,13.092,2.726a13.625,13.625,0,0,1,6.041,8.179,7.371,7.371,0,0,1,1.728-.152h20.429v-.455q0-7.269,4.245-10.979A14.511,14.511,0,0,1,235.363,144a14.928,14.928,0,0,1,5.323.984,14.577,14.577,0,0,1,4.6,2.8,13.4,13.4,0,0,1,3.236,4.544,15.411,15.411,0,0,1,1.223,6.36v65.727H221.263V211.846H200.834q-8.061,0-9.927-6.514-8.923,10.9-24.1,15.145a89.187,89.187,0,0,1-33.163,2.423,12.13,12.13,0,0,1-8.2-4.164q-3.311-3.711-2.878-9.769.431-5.3,3.956-7.951a12.789,12.789,0,0,1,8.7-2.346M157.241,286.2a36.334,36.334,0,0,1-13.021-2.121,25.125,25.125,0,0,1-9.208-5.906,24.036,24.036,0,0,1-5.466-8.935,36.505,36.505,0,0,1,0-22.64,24.66,24.66,0,0,1,5.466-9.088,25.427,25.427,0,0,1,9.208-6.058,35.277,35.277,0,0,1,13.021-2.2H221.7a35.934,35.934,0,0,1,12.876,2.121,24.621,24.621,0,0,1,9.208,5.983,25.527,25.527,0,0,1,5.539,9.086,35.907,35.907,0,0,1,0,22.867,24.806,24.806,0,0,1-5.539,9.013,24.373,24.373,0,0,1-9.208,5.83A37.143,37.143,0,0,1,221.7,286.2ZM214.069,265q4.748,0,6.33-2.271a8.317,8.317,0,0,0,1.584-4.846,7.667,7.667,0,0,0-1.584-4.694q-1.583-2.119-6.33-2.121h-49.2q-4.748,0-6.33,2.121a7.665,7.665,0,0,0-1.582,4.694,8.315,8.315,0,0,0,1.582,4.846q1.583,2.274,6.33,2.271Zm-13.955-84.807a48.615,48.615,0,0,1-1.871,10.752,9.958,9.958,0,0,0,1.294-.075,9.941,9.941,0,0,1,1.3-.075h20.429v-10.6Z" transform="translate(392.787 221.137)" fill="#fff100"/><path d="M204.346,202.606a29.971,29.971,0,0,0,16.689-13.025q5.753-9.388,5.755-26.5v-2.726a14.879,14.879,0,0,1,1.223-6.287,12.364,12.364,0,0,1,3.31-4.39,13.708,13.708,0,0,1,4.747-2.575,18.463,18.463,0,0,1,5.539-.832,14.985,14.985,0,0,1,9.711,3.71q4.1,3.559,4.1,10.374v2.726a94.628,94.628,0,0,1-.864,13.327,40.7,40.7,0,0,1,13.812,4.392,30.634,30.634,0,0,1,10.433,9.238,43.215,43.215,0,0,1,6.473,14.691,73.319,73.319,0,0,1,1.8,20.595H259.306q1.3-22.262-11.941-25.745-6.187,12.268-15.609,19.082a43.036,43.036,0,0,1-19.638,8.179,13.35,13.35,0,0,1-5.323-.152,12.958,12.958,0,0,1-4.317-1.893,12.625,12.625,0,0,1-3.165-3.105,10.312,10.312,0,0,1-1.728-3.785,13.536,13.536,0,0,1,.505-9.465,10.432,10.432,0,0,1,6.257-5.83m24.748,83.6a34.831,34.831,0,0,1-10-1.212,13.456,13.456,0,0,1-6.259-3.787,14.813,14.813,0,0,1-3.236-6.815,48.434,48.434,0,0,1-.935-10.3v-15.9q0-7.723,4.388-11.359a15.834,15.834,0,0,1,10.431-3.635,15,15,0,0,1,10.215,3.635q4.173,3.635,4.172,11.359v10.752q0,2.578.721,3.18t3.165.607h75.389q6.616,0,9.351,3.56a13.461,13.461,0,0,1-.071,16.355q-2.806,3.556-9.279,3.56ZM296.138,158.99q0-7.419,4.172-11.206a14.7,14.7,0,0,1,19.783.075q4.241,3.863,4.243,11.131v22.867H328.8a11.085,11.085,0,0,1,5.466,1.212,10.1,10.1,0,0,1,3.452,3.1,12.913,12.913,0,0,1,1.871,4.24,18.788,18.788,0,0,1,0,9.238,12.853,12.853,0,0,1-1.871,4.241,9.877,9.877,0,0,1-3.524,3.1,11.145,11.145,0,0,1-5.395,1.212h-4.461v42.859h-28.2Z" transform="translate(458.188 221.137)" fill="#fff100"/><path d="M275.5,180.494a38.047,38.047,0,0,1,2.947-15.75,27.937,27.937,0,0,1,8.274-10.677,34.068,34.068,0,0,1,12.732-6.058,65.993,65.993,0,0,1,16.329-1.892q15.539,0,25.9,5.981t12.95,19.31h19.855V158.686q0-7.269,4.315-10.979a15.055,15.055,0,0,1,15.251-2.726,14.547,14.547,0,0,1,4.606,2.8,13.456,13.456,0,0,1,3.237,4.544,15.443,15.443,0,0,1,1.223,6.36V220.78h-28.63V195.033h-20q-2.879,13.028-13.164,18.78t-25.538,5.755a67.427,67.427,0,0,1-16.545-1.893,33.319,33.319,0,0,1-12.732-6.058,27.579,27.579,0,0,1-8.13-10.677,38.818,38.818,0,0,1-2.876-15.75ZM302.548,286.2a34.75,34.75,0,0,1-10-1.212,13.449,13.449,0,0,1-6.259-3.785,14.785,14.785,0,0,1-3.236-6.815,48.458,48.458,0,0,1-.935-10.3V240.013q0-7.723,4.243-11.131a15.918,15.918,0,0,1,10.288-3.407,15.586,15.586,0,0,1,9.422,2.878q3.956,2.877,4.677,9.238H375.2q.719-6.362,4.747-9.238a16.15,16.15,0,0,1,9.64-2.878,15.344,15.344,0,0,1,10.143,3.407q4.1,3.406,4.1,11.131V286.2Zm1.007-99.5q0,5.756,3.381,8.556a15.369,15.369,0,0,0,17.7,0q3.378-2.8,3.381-8.556V178.98q0-5.753-3.381-8.558a15.377,15.377,0,0,0-17.7,0q-3.381,2.806-3.381,8.558Zm71.5,79.356v-9.086H310.892v5.3q0,2.578.719,3.182a5.437,5.437,0,0,0,3.165.6Z" transform="translate(527.164 221.137)" fill="#fff100"/><path d="M45.721,267.473A36.021,36.021,0,0,1,48.67,252.1a26.756,26.756,0,0,1,8.344-10.3,35.242,35.242,0,0,1,12.948-5.831,71.713,71.713,0,0,1,16.763-1.818,71.72,71.72,0,0,1,16.761,1.818,35.242,35.242,0,0,1,12.948,5.831,26.811,26.811,0,0,1,8.346,10.3,36.078,36.078,0,0,1,2.949,15.373v4.087a36.063,36.063,0,0,1-2.949,15.371,26.775,26.775,0,0,1-8.346,10.3,35.212,35.212,0,0,1-12.948,5.831,71.718,71.718,0,0,1-16.761,1.818,71.712,71.712,0,0,1-16.763-1.818,35.212,35.212,0,0,1-12.948-5.831,26.719,26.719,0,0,1-8.344-10.3,36.006,36.006,0,0,1-2.949-15.371Zm26.04,107.222a21.543,21.543,0,0,1-8.7-1.666,18.451,18.451,0,0,1-6.4-4.544A20.215,20.215,0,0,1,52.7,361.9a22.343,22.343,0,0,1-1.366-7.8V352.28q0-8.177,5.25-13.025t15.179-4.846h72.367v-3.937a3.1,3.1,0,0,0-.43-1.893,2.418,2.418,0,0,0-1.871-.53h-81q-4.176,0-6.043-2.725a10.7,10.7,0,0,1-1.871-6.21,10.583,10.583,0,0,1,1.871-5.981q1.868-2.8,6.043-2.8h94.954q9.639,0,13.6,3.483t3.956,12.42v24.231H84.853a3.125,3.125,0,0,0-2.374.832,2.857,2.857,0,0,0-.791,2.044v.456a2.851,2.851,0,0,0,.791,2.044,3.118,3.118,0,0,0,2.374.832h84.022q4.314,0,6.257,2.878a11.118,11.118,0,0,1,1.942,6.36,10.611,10.611,0,0,1-1.869,5.983q-1.874,2.8-6.33,2.8Zm2.3-102.073q0,5.756,3.451,8.329t9.21,2.573q5.751,0,9.208-2.573t3.452-8.329v-6.21q0-5.6-3.452-8.254t-9.208-2.65q-5.756,0-9.21,2.65t-3.451,8.254Zm70.208-25.14q0-7.419,4.388-11.206a15.069,15.069,0,0,1,10.143-3.787,15.471,15.471,0,0,1,5.395.984,13.76,13.76,0,0,1,4.677,2.878,14.16,14.16,0,0,1,3.236,4.694,16,16,0,0,1,1.223,6.437v58H144.272Z" transform="translate(325.33 298.866)" fill="#fff"/><path d="M150.461,264.141H132.045A12.126,12.126,0,0,1,126.506,263a11.679,11.679,0,0,1-3.74-2.953,10.984,10.984,0,0,1-2.158-4.164,16.785,16.785,0,0,1,0-9.238,11.191,11.191,0,0,1,5.827-7.194,11.914,11.914,0,0,1,5.611-1.212h65.03a11.5,11.5,0,0,1,5.539,1.212,11.811,11.811,0,0,1,3.668,3.028,10.8,10.8,0,0,1,2.016,4.166,19.484,19.484,0,0,1,.575,4.619,17.308,17.308,0,0,1-.648,4.619,12.248,12.248,0,0,1-2.014,4.164A10.082,10.082,0,0,1,202.543,263a12.247,12.247,0,0,1-5.468,1.136h-18.7V280.5q0,5.3-.287,10.147t-.864,9.39a51.448,51.448,0,0,1,13.956,7.724A39.419,39.419,0,0,1,201.536,320.4a63.13,63.13,0,0,1,6.114,19.006,131.3,131.3,0,0,1,1.367,26.806H182.112q1.3-15.142-1.51-24.686t-9.279-14.539a75.74,75.74,0,0,1-13.38,24.231,52.972,52.972,0,0,1-19.567,14.689,12.608,12.608,0,0,1-4.963,1.136,17.82,17.82,0,0,1-5.181-.6,14.888,14.888,0,0,1-4.6-2.121,8.7,8.7,0,0,1-3.094-3.71,12.791,12.791,0,0,1-1.08-8.935,12.171,12.171,0,0,1,5.395-7.572,49.866,49.866,0,0,0,11.582-10.3,53.12,53.12,0,0,0,7.985-13.7,76.316,76.316,0,0,0,4.6-17.8,159.678,159.678,0,0,0,1.439-22.565Zm69.634-16.962q0-7.269,4.316-10.981a15.055,15.055,0,0,1,15.251-2.726,13.731,13.731,0,0,1,4.533,2.8,13.971,13.971,0,0,1,3.165,4.544,15.443,15.443,0,0,1,1.223,6.36v38.315h4.747a11.072,11.072,0,0,1,5.468,1.212,10.1,10.1,0,0,1,3.452,3.105,12.9,12.9,0,0,1,1.871,4.239,18.847,18.847,0,0,1,0,9.238,12.852,12.852,0,0,1-1.871,4.241,9.917,9.917,0,0,1-3.526,3.1,11.162,11.162,0,0,1-5.395,1.212h-4.747v62.849H220.095Z" transform="translate(389.781 298.866)" fill="#fff"/><path d="M228.208,336.984q0,3.942,1.439,5.226t5.181,1.287h42.442a13.374,13.374,0,0,1,5.611,1.061,10.709,10.709,0,0,1,3.811,2.878,11.136,11.136,0,0,1,2.158,4.012,15.705,15.705,0,0,1,.648,4.467,13.994,13.994,0,0,1-2.878,8.558q-2.88,3.863-9.351,3.862H224.18a42.143,42.143,0,0,1-11.511-1.364,17.04,17.04,0,0,1-7.7-4.392,18.048,18.048,0,0,1-4.317-7.951,45.5,45.5,0,0,1-1.367-12.039V315.025a44.66,44.66,0,0,1,1.367-11.963,18.068,18.068,0,0,1,4.317-7.876,16.5,16.5,0,0,1,7.7-4.315,44.5,44.5,0,0,1,11.511-1.289h25.753V267.624a6.1,6.1,0,0,0-.719-2.88q-.721-1.361-3.165-1.362h-33.09a13.366,13.366,0,0,1-5.613-1.059,10,10,0,0,1-3.74-2.878,12.688,12.688,0,0,1-2.158-4.089,14.941,14.941,0,0,1-.719-4.544,16.507,16.507,0,0,1,.648-4.544,11.083,11.083,0,0,1,2.156-4.087,11.506,11.506,0,0,1,3.813-2.955,12.592,12.592,0,0,1,5.613-1.136h40.714a51.839,51.839,0,0,1,12.3,1.212,16.994,16.994,0,0,1,7.7,3.939,14.679,14.679,0,0,1,4.027,7.117,43.759,43.759,0,0,1,1.151,10.9v53.006H234.827q-3.742,0-5.181,1.287t-1.439,5.226Zm69.2,37.71V247.48q0-7.416,4.317-11.206a15.285,15.285,0,0,1,20.142,0q4.317,3.787,4.315,11.206V374.694Z" transform="translate(460.223 298.864)" fill="#fff"/><path d="M66.11,401.061a35.5,35.5,0,0,1-9.783-1.136,12.485,12.485,0,0,1-6.116-3.71,14.614,14.614,0,0,1-3.092-6.74,50.343,50.343,0,0,1-.862-10.072V339.272q0-7.571,4.027-10.981a14.846,14.846,0,0,1,9.927-3.407q6.044,0,9.567,3.407T73.3,339.272v2.423h26.04v-2.423q0-7.726,3.668-11.056a13.9,13.9,0,0,1,9.713-3.332,14.233,14.233,0,0,1,9.854,3.407q3.809,3.409,3.813,10.981v61.789Zm-2.876,33.922q-6.044,0-9.281-3.33a13.132,13.132,0,0,1,0-17.266q3.237-3.328,9.281-3.332h86.034a45.831,45.831,0,0,1,10.934,1.061,12.079,12.079,0,0,1,6.475,3.787,15,15,0,0,1,3.094,7.192,66.713,66.713,0,0,1,.791,11.283V463.91H141.786V438.617q0-3.635-3.452-3.635Zm36.11-56.337v-15.9H73.3v12.116q0,2.578.719,3.18t3.165.607Zm41.148-41.95q0-7.419,4.245-11.206a14.889,14.889,0,0,1,19.926.075q4.314,3.863,4.317,11.131v13.327h4.459a11.093,11.093,0,0,1,5.468,1.212,10.463,10.463,0,0,1,3.452,3.03,12.055,12.055,0,0,1,1.871,4.162,18.854,18.854,0,0,1,0,9.24,12.843,12.843,0,0,1-1.871,4.239,9.243,9.243,0,0,1-3.526,3.028,11.756,11.756,0,0,1-5.395,1.136h-4.459v29.077H140.492Z" transform="translate(771.801 210.711)" fill="#fff"/><path d="M144.613,403.482a22.3,22.3,0,0,1-9.638-1.969,20.247,20.247,0,0,1-6.978-5.3,22.9,22.9,0,0,1-4.245-7.724,28.984,28.984,0,0,1-1.439-9.088v-2.878q0-9.69,5.611-15.75t16.689-6.058h27.624v-5.149q0-2.874-3.6-2.878H132.672q-5.038,0-7.337-3.407a12.406,12.406,0,0,1-2.3-7.042,12.857,12.857,0,0,1,2.3-7.344q2.3-3.409,7.337-3.407H180.3q10.929,0,15.752,5.3t4.82,13.782v29.836h-45.32a3.509,3.509,0,0,0-2.876,1.059,3.945,3.945,0,0,0-.864,2.573v.759a3.241,3.241,0,0,0,3.74,3.483H203.17a8.721,8.721,0,0,1,4.243.984,9.2,9.2,0,0,1,2.949,2.5,10.7,10.7,0,0,1,1.726,3.407,13.218,13.218,0,0,1,.577,3.86,12.862,12.862,0,0,1-2.158,7.119q-2.158,3.33-7.337,3.33Zm4.749,60.428a39.761,39.761,0,0,1-10.5-1.136,12.262,12.262,0,0,1-6.261-3.787,14.777,14.777,0,0,1-3.02-7.042,63.993,63.993,0,0,1-.791-11.054v-8.178a64.309,64.309,0,0,1,.791-10.979,14.863,14.863,0,0,1,3.02-7.119,12.272,12.272,0,0,1,6.261-3.785,39.758,39.758,0,0,1,10.5-1.136h76.971a39.8,39.8,0,0,1,10.5,1.136,12.292,12.292,0,0,1,6.257,3.785,14.9,14.9,0,0,1,3.022,7.119,64.5,64.5,0,0,1,.791,10.979v31.2Zm7.769-25.443a7.557,7.557,0,0,0,.646,3.483q.648,1.214,2.806,1.212h57.98v-8.329a6.546,6.546,0,0,0-.719-3.332,3.076,3.076,0,0,0-2.876-1.212H160.583q-2.158,0-2.806,1.212a7.164,7.164,0,0,0-.646,3.332ZM217.557,336.7q0-7.419,4.245-11.206a14.889,14.889,0,0,1,19.926.075q4.314,3.863,4.317,11.131v12.873H250.5a11.071,11.071,0,0,1,5.468,1.212,10.458,10.458,0,0,1,3.453,3.028,12.057,12.057,0,0,1,1.871,4.166,18.846,18.846,0,0,1,0,9.238,12.843,12.843,0,0,1-1.871,4.24,9.263,9.263,0,0,1-3.526,3.03,11.781,11.781,0,0,1-5.395,1.136h-4.459v28.773H217.557Z" transform="translate(838.607 210.711)" fill="#fff"/><path d="M244.518,321.139q6.906,0,10.791,4.014t4.027,11.282H281.2q5.322,0,8.2,3.18a11.516,11.516,0,0,1,2.878,8.026,11.957,11.957,0,0,1-2.733,7.951,10.291,10.291,0,0,1-7.626,3.56,39.126,39.126,0,0,1,2.158,13.479v6.36q0,15.446-6.834,23.852t-18.487,11.131v20.749H282.5q6.616,0,9.351,3.71a14.366,14.366,0,0,1-.071,16.962q-2.806,3.711-9.279,3.71H210.132q-6.475,0-9.351-3.71a14.072,14.072,0,0,1-.073-16.962q2.806-3.711,9.424-3.71h20.142V413.974q-11.8-2.725-18.632-11.131t-6.834-23.852v-6.36a39.126,39.126,0,0,1,2.158-13.479,10.379,10.379,0,0,1-7.553-3.56,11.753,11.753,0,0,1-2.8-7.951,11.506,11.506,0,0,1,2.876-8.026q2.877-3.178,8.2-3.18H229.7q.141-7.269,4.027-11.282t10.791-4.014m-12.66,58.609q0,7.12,3.74,10.07a14.943,14.943,0,0,0,17.841,0q3.739-2.953,3.74-10.07v-8.633q0-7.114-3.74-10.07a14.943,14.943,0,0,0-17.841,0q-3.742,2.953-3.74,10.07Zm67.907,84.657V337.192q0-7.416,4.317-11.206a15.285,15.285,0,0,1,20.142,0q4.316,3.787,4.315,11.206V464.405Z" transform="translate(903.871 210.216)" fill="#fff"/></g></svg>