<svg xmlns="http://www.w3.org/2000/svg" width="245.62" height="66.572" viewBox="0 0 245.62 66.572"><g transform="translate(0 0)"><path d="M.342,516.795v-1.062a3.465,3.465,0,0,1,.266-1.318,5.773,5.773,0,0,1,.854-1.394q.588-.74,1.006-1.176T3.7,510.595q.854-.834,1.376-1.412a8.446,8.446,0,0,0,.987-1.365,2.869,2.869,0,0,0,.465-1.432,2.014,2.014,0,0,0-.493-1.412,1.688,1.688,0,0,0-1.309-.541,1.875,1.875,0,0,0-1.4.692,4.483,4.483,0,0,0-.958,1.716L0,505.8a6.446,6.446,0,0,1,1.85-2.645,4.369,4.369,0,0,1,2.913-1.033,4.556,4.556,0,0,1,3.226,1.109,3.947,3.947,0,0,1,1.2,3.043A4.666,4.666,0,0,1,8.89,507.9a6.23,6.23,0,0,1-.939,1.631q-.645.835-1.1,1.318T5.5,512.206a11.761,11.761,0,0,0-1.974,2.275H9.508v2.313Z" transform="translate(0 -497.517)" fill="#fff"/><path d="M41.546,504.11a12.669,12.669,0,0,1,0,11.064,4.013,4.013,0,0,1-3.567,1.981,3.947,3.947,0,0,1-3.539-1.981,12.952,12.952,0,0,1,0-11.073,3.946,3.946,0,0,1,3.539-1.981,4.009,4.009,0,0,1,3.567,1.991m-5.712,5.537a11.079,11.079,0,0,0,.531,3.735q.531,1.461,1.613,1.46,1.1,0,1.661-1.469a12.715,12.715,0,0,0,0-7.461q-.56-1.479-1.661-1.479a1.462,1.462,0,0,0-1.224.73,4.788,4.788,0,0,0-.712,1.877,14.632,14.632,0,0,0-.209,2.607" transform="translate(-22.551 -497.517)" fill="#fff"/><path d="M66.617,516.795v-1.062a3.465,3.465,0,0,1,.266-1.318,5.773,5.773,0,0,1,.854-1.394q.588-.74,1.006-1.176t1.234-1.252q.854-.834,1.376-1.412a8.446,8.446,0,0,0,.987-1.365,2.869,2.869,0,0,0,.465-1.432,2.013,2.013,0,0,0-.494-1.412A1.688,1.688,0,0,0,71,504.432a1.875,1.875,0,0,0-1.395.692,4.483,4.483,0,0,0-.958,1.716L66.275,505.8a6.446,6.446,0,0,1,1.85-2.645,4.369,4.369,0,0,1,2.913-1.033,4.556,4.556,0,0,1,3.226,1.109,3.947,3.947,0,0,1,1.2,3.043,4.666,4.666,0,0,1-.294,1.631,6.231,6.231,0,0,1-.939,1.631q-.645.835-1.1,1.318t-1.347,1.356a11.761,11.761,0,0,0-1.974,2.275h5.978v2.313Z" transform="translate(-45.021 -497.517)" fill="#fff"/><path d="M108.786,505.8a3.607,3.607,0,0,1-1.632,3.091,3.82,3.82,0,0,1,1.974,3.432,4.732,4.732,0,0,1-.379,1.924,4.017,4.017,0,0,1-1.015,1.422,5.954,5.954,0,0,1-1.5.948,7.8,7.8,0,0,1-1.784.559,10.45,10.45,0,0,1-1.907.171,17.006,17.006,0,0,1-2.448-.247v-2.162q1.594.133,2.011.133a9.5,9.5,0,0,0,2.04-.2,3.389,3.389,0,0,0,1.585-.825,2.108,2.108,0,0,0,.683-1.631,1.843,1.843,0,0,0-.863-1.668,3.9,3.9,0,0,0-2.135-.55h-1.4V507.92h1.366a3.472,3.472,0,0,0,1.917-.512,1.669,1.669,0,0,0,.8-1.5,1.164,1.164,0,0,0-.588-1.071,2.975,2.975,0,0,0-1.537-.351,4.551,4.551,0,0,0-2.809,1.233l-1.272-1.9a6.858,6.858,0,0,1,4.4-1.707,5.194,5.194,0,0,1,3.178.977,3.175,3.175,0,0,1,1.319,2.7" transform="translate(-67.854 -497.516)" fill="#fff"/><path d="M135.086,541.292a1.584,1.584,0,0,1,1.186.531,1.75,1.75,0,0,1,.009,2.446,1.6,1.6,0,0,1-1.2.512,1.629,1.629,0,0,1-1.2-.512,1.7,1.7,0,0,1-.5-1.232,1.715,1.715,0,0,1,.5-1.214,1.6,1.6,0,0,1,1.2-.531" transform="translate(-90.605 -524.138)" fill="#fff"/><path d="M175.141,511.212h-3.226V498.065a21.507,21.507,0,0,1-2.443,1.2l-1.383-2.371a12.1,12.1,0,0,0,4.609-3.385h2.443Z" transform="translate(-114.185 -491.664)" fill="#f6a800"/><path d="M215.381,511.212h-3.226V498.065a21.509,21.509,0,0,1-2.443,1.2l-1.383-2.371a12.1,12.1,0,0,0,4.609-3.385h2.443Z" transform="translate(-141.52 -491.664)" fill="#f6a800"/><path d="M248.561,540.43a1.921,1.921,0,0,1,1.44.645,2.126,2.126,0,0,1,.012,2.97,1.943,1.943,0,0,1-1.452.622,1.98,1.98,0,0,1-1.463-.622,2.059,2.059,0,0,1-.611-1.5,2.083,2.083,0,0,1,.611-1.474,1.946,1.946,0,0,1,1.463-.645" transform="translate(-167.441 -523.552)" fill="#f6a800"/><path d="M284.915,510.681v-1.289a4.22,4.22,0,0,1,.323-1.6,7.021,7.021,0,0,1,1.037-1.693q.714-.9,1.221-1.427t1.5-1.52q1.037-1.013,1.671-1.715a10.283,10.283,0,0,0,1.2-1.658,3.486,3.486,0,0,0,.564-1.738,2.447,2.447,0,0,0-.6-1.715,2.05,2.05,0,0,0-1.59-.656,2.276,2.276,0,0,0-1.694.84,5.447,5.447,0,0,0-1.164,2.084l-2.88-1.266a7.829,7.829,0,0,1,2.247-3.212,5.306,5.306,0,0,1,3.537-1.255,5.533,5.533,0,0,1,3.918,1.347,4.794,4.794,0,0,1,1.452,3.7,5.672,5.672,0,0,1-.357,1.98,7.579,7.579,0,0,1-1.141,1.98q-.784,1.014-1.337,1.6t-1.636,1.646a14.3,14.3,0,0,0-2.4,2.763h7.259v2.809Z" transform="translate(-193.264 -491.224)" fill="#f6a800"/><path d="M327.821,540.43a1.921,1.921,0,0,1,1.44.645,2.125,2.125,0,0,1,.012,2.97,1.943,1.943,0,0,1-1.452.622,1.98,1.98,0,0,1-1.463-.622,2.06,2.06,0,0,1-.611-1.5,2.084,2.084,0,0,1,.611-1.474,1.946,1.946,0,0,1,1.463-.645" transform="translate(-221.283 -523.552)" fill="#f6a800"/><path d="M344.286,498.923q0-6.953,3.733-11.167h3.157a19.107,19.107,0,0,0,0,22.312h-3.157q-3.733-4.214-3.733-11.144" transform="translate(-233.877 -487.756)" fill="#f6a800"/><path d="M368.387,499.716v-3.293q0-2.325-.161-4.283h14.38v7.575h-5.439v1.8h7.812v2.74h-18.92v-2.74h7.812v-1.8Zm14.172,12.618h-3.3v-4.007H368.225v-2.763h14.334Zm-3.2-17.522h-7.7v2.21h7.7Z" transform="translate(-248.667 -490.736)" fill="#f6a800"/><path d="M432.256,498.923q0,6.931-3.756,11.144h-3.157a17.642,17.642,0,0,0,2.846-5.561,20.421,20.421,0,0,0,.772-5.584,18.33,18.33,0,0,0-3.618-11.167H428.5q3.756,4.214,3.756,11.167" transform="translate(-288.939 -487.756)" fill="#f6a800"/><path d="M477.445,517.232h-2.657V506.405a17.625,17.625,0,0,1-2.011.986l-1.139-1.953a9.957,9.957,0,0,0,3.8-2.787h2.012Z" transform="translate(-320.388 -497.878)" fill="#fff"/><path d="M507.589,505.627h2.619v5.707h1.48v2.332h-1.48v2.882h-2.619v-2.882H501.4v-1.934l4.953-10.087h2.923l-4.744,9.689h3.055Z" transform="translate(-340.608 -497.194)" fill="#fff"/><path d="M540.713,500.676v3.451a8.508,8.508,0,0,0,1.082,4.19,9.082,9.082,0,0,0,3.245,3.3l-1.784,1.82a9.866,9.866,0,0,1-2.182-1.763,8.169,8.169,0,0,1-1.689-2.465,9.04,9.04,0,0,1-1.623,2.7,9.387,9.387,0,0,1-2.173,1.944l-1.935-1.707a9.412,9.412,0,0,0,3.2-3.593,9.833,9.833,0,0,0,1.129-4.522q0-1.8-.133-3.356Zm5.218,16.477V504.07q0-2.483-.133-3.963h2.846v17.046Z" transform="translate(-362.516 -496.15)" fill="#fff"/><path d="M612.394,518.917,613.912,520a5.833,5.833,0,0,1-1.442,2.029,2.716,2.716,0,0,1-1.708.758,2.517,2.517,0,0,1-.854-.114,4.289,4.289,0,0,1-.712-.275q-.275-.142-.749-.445a2.726,2.726,0,0,0-1.594-.531,1.615,1.615,0,0,0-.75.408,2.945,2.945,0,0,0-.655.787l-1.556-.948a5.753,5.753,0,0,1,1.224-1.839,2.886,2.886,0,0,1,1.7-.91,2.384,2.384,0,0,1,.7-.01,2.275,2.275,0,0,1,.617.171q.275.124.579.284t.569.332q.285.152.522.294a2.693,2.693,0,0,0,.512.237,1.5,1.5,0,0,0,.484.095,1.743,1.743,0,0,0,.873-.407,2.3,2.3,0,0,0,.721-1" transform="translate(-410.23 -508.911)" fill="#fff"/><path d="M662.957,517.232H660.3V506.405a17.642,17.642,0,0,1-2.012.986l-1.138-1.953a9.956,9.956,0,0,0,3.8-2.787h2.011Z" transform="translate(-446.408 -497.878)" fill="#fff"/><path d="M688.275,505.339v-2.332h9.318V505a13.359,13.359,0,0,0-2.752,4.844,26.065,26.065,0,0,0-1.442,7.613h-2.752a25.028,25.028,0,0,1,1.243-7.12,19.9,19.9,0,0,1,2.419-5Z" transform="translate(-467.552 -498.12)" fill="#fff"/><path d="M726.224,500.676v3.451a8.51,8.51,0,0,0,1.082,4.19,9.083,9.083,0,0,0,3.245,3.3l-1.784,1.82a9.861,9.861,0,0,1-2.182-1.763,8.16,8.16,0,0,1-1.689-2.465,9.04,9.04,0,0,1-1.623,2.7,9.386,9.386,0,0,1-2.173,1.944l-1.935-1.707a9.408,9.408,0,0,0,3.2-3.593,9.83,9.83,0,0,0,1.129-4.522q0-1.8-.133-3.356Zm5.219,16.477V504.07q0-2.483-.133-3.963h2.846v17.046Z" transform="translate(-488.536 -496.15)" fill="#fff"/></g><g transform="translate(0.211 31.588)"><path d="M.657,597.222v-2.257H3.379v-.2q-.019-1.721-.111-2.886H6.027v3.053a40.95,40.95,0,0,0,4.944-.407v2.2a54.306,54.306,0,0,1-8.092.5Zm8.87-3.367H6.935a17.478,17.478,0,0,0,.334-2.1q.148-1.341.148-1.989H1.565v-2.257h8.629a29.253,29.253,0,0,1-.185,3.377,20.5,20.5,0,0,1-.481,2.969M3.1,603.217v-1.7q0-2.035-.13-3.386H5.75v2.831h8.7v2.257Zm8.3-3.978v-8.363q0-2.46-.13-3.9h2.777v4.922h1.926v2.461H14.045v4.885Z" transform="translate(-0.657 -586.769)" fill="#fff"/><path d="M51.932,591.561a4.258,4.258,0,0,1,1.268-3.136,4.357,4.357,0,0,1,3.213-1.267,4.318,4.318,0,0,1,4.444,4.4,4.228,4.228,0,0,1-1.259,3.1,4.3,4.3,0,0,1-3.185,1.267A4.372,4.372,0,0,1,53.2,594.67a4.2,4.2,0,0,1-1.268-3.108m13.185,12.082H62.468v-4.015h-8.5v-2.258H65.117ZM55.006,590.007a2.534,2.534,0,0,0,0,3.071,1.749,1.749,0,0,0,1.408.61,1.7,1.7,0,0,0,1.379-.61,2.57,2.57,0,0,0,0-3.071,1.7,1.7,0,0,0-1.379-.611,1.751,1.751,0,0,0-1.408.611m7.481,6.605v-5.736q0-2.165-.13-3.9h2.759v3.33H67.1v2.461H65.117v3.848Z" transform="translate(-35.489 -586.769)" fill="#fff"/><path d="M101.821,598.222v-2.313H111.8a30.993,30.993,0,0,0,.63-4.773h-8.888v-2.257h11.722a34.718,34.718,0,0,1-.778,7.031h2.537v2.313h-6.277V604.9H108.08v-6.679Z" transform="translate(-69.379 -588.064)" fill="#fff"/><path d="M153.684,591.677v-2.165h8.351v1.443h2.092v-.314q0-2.46-.13-3.9h2.778v10.139h-2.648V593.3h-2.092v-1.628h-2.777q.518,1.98,3.741,2.886l-1.5,1.887a6.156,6.156,0,0,1-1.926-.842,5.989,5.989,0,0,1-1.685-1.508,6.965,6.965,0,0,1-1.722,1.8,7.219,7.219,0,0,1-2.055,1.175l-1.593-1.832a7.6,7.6,0,0,0,2.565-1.452,3.925,3.925,0,0,0,1.324-2.119Zm2.889,11.083a2.658,2.658,0,0,1-1.593-2.442,2.7,2.7,0,0,1,1.611-2.461,11.533,11.533,0,0,1,8.787,0,2.711,2.711,0,0,1,1.583,2.48,2.636,2.636,0,0,1-1.574,2.442,9.556,9.556,0,0,1-4.407.833,9.45,9.45,0,0,1-4.407-.851m3.777-14.043h-5.018v-2.091h5.018ZM157.609,600.3q0,1.221,3.37,1.221t3.37-1.166q0-1.239-3.37-1.239t-3.37,1.184" transform="translate(-103.817 -586.533)" fill="#fff"/><path d="M229.393,599.241a3.875,3.875,0,0,1-1.444,3.275,5.66,5.66,0,0,1-3.555,1.11,5.406,5.406,0,0,1-3.343-1.036,3.874,3.874,0,0,1-.722-5.125,5.812,5.812,0,0,1,1.657-1.61,3.955,3.955,0,0,1-1.907-3.256,3.118,3.118,0,0,1,1.333-2.738,5.512,5.512,0,0,1,3.222-.925,4.81,4.81,0,0,1,2.926.9,3.028,3.028,0,0,1,1.222,2.6,3.91,3.91,0,0,1-1.963,3.219q2.574,1.369,2.574,3.589m-2.667.315a1.842,1.842,0,0,0-.195-.87,1.966,1.966,0,0,0-.685-.694,8.021,8.021,0,0,0-.768-.463q-.278-.139-1.019-.453a2.641,2.641,0,0,0-1.7,2.276,1.941,1.941,0,0,0,.611,1.527,2.571,2.571,0,0,0,3.12.037,1.649,1.649,0,0,0,.639-1.36m-.611-7.142q0-1.388-1.685-1.388a1.963,1.963,0,0,0-1.222.38,1.239,1.239,0,0,0-.5,1.045q0,1.147,1.889,2.072a2.517,2.517,0,0,0,1.518-2.109" transform="translate(-149.435 -588.103)" fill="#fff"/><path d="M252.7,594.7h15.2v2.165H252.7Zm1.778-3.774v-1.98H266.2v1.98h-3.944q1.129,1.147,4.8,1.462l-1.148,1.869a13,13,0,0,1-3.028-.574,5.609,5.609,0,0,1-2.565-1.48,5.575,5.575,0,0,1-2.583,1.517,12.272,12.272,0,0,1-3.009.555l-1.241-1.85q3.722-.277,4.889-1.5Zm-.2,9.529a2.435,2.435,0,0,1,1.6-2.2,12.765,12.765,0,0,1,8.87,0,2.444,2.444,0,0,1,1.583,2.22,2.391,2.391,0,0,1-1.574,2.193,13.2,13.2,0,0,1-8.9-.009,2.409,2.409,0,0,1-1.583-2.2m2.648-.019q0,1.036,3.388,1.036t3.389-.981q0-1.073-3.389-1.073t-3.388,1.018m.074-14.1h6.666v1.943H257Z" transform="translate(-171.872 -586.337)" fill="#fff"/><path d="M323.274,599.517v-7.53q0-2.516-.13-3.978h6.166v2.313H325.9V597.2h.555a19.037,19.037,0,0,0,3.463-.315v2.239a17.408,17.408,0,0,1-3.944.388Zm7.185,3.331v-11.73q0-2.424-.13-3.867h2.611V592.6h.981V590.84q0-2.423-.13-3.867H336.4v16.633h-2.481v-8.529h-.981v7.771Z" transform="translate(-219.726 -586.769)" fill="#fff"/><path d="M372.434,587.621h8.24a8.584,8.584,0,0,1-2.583,6.087,13.14,13.14,0,0,1-2.472,1.878,11.987,11.987,0,0,1-2.722,1.175l-1.482-1.924a11.828,11.828,0,0,0,3.991-2.035,5.686,5.686,0,0,0,2.009-2.923h-4.981Zm1.056,12.637a2.962,2.962,0,0,1,1.565-2.655,10.3,10.3,0,0,1,8.675.009,2.986,2.986,0,0,1,1.555,2.664,2.919,2.919,0,0,1-1.555,2.646,8.55,8.55,0,0,1-4.351.925,8.428,8.428,0,0,1-4.342-.934,2.942,2.942,0,0,1-1.546-2.655m2.629-.019q0,1.406,3.259,1.406,3.277,0,3.277-1.351,0-1.443-3.277-1.443-3.26,0-3.259,1.388m6.166-3.719v-5.773q-.019-2.516-.13-3.774h2.777v3.534H386.9v2.461h-1.963v3.552Z" transform="translate(-252.517 -586.769)" fill="#fff"/><path d="M424.957,595.41v-3.793q0-2.5-.13-3.978h7.907v2.294h-5.148v3.145h1.166a27.958,27.958,0,0,0,5.37-.5v2.313a28.229,28.229,0,0,1-5.536.518Zm1.019,4.811a3,3,0,0,1,1.583-2.673,10.127,10.127,0,0,1,8.657,0,3.021,3.021,0,0,1,1.555,2.692,2.962,2.962,0,0,1-1.546,2.664,10.437,10.437,0,0,1-8.694-.009,2.98,2.98,0,0,1-1.555-2.674m2.648-.019q0,1.443,3.259,1.443,3.277,0,3.277-1.387,0-1.462-3.277-1.462-3.26,0-3.259,1.406m6.166-3.7v-6.549q-.037-1.795-.13-2.979h2.759v2.9h1.963v2.461h-1.963V596.5Z" transform="translate(-288.8 -586.769)" fill="#fff"/></g><g transform="translate(0.038 56.027)"><path d="M.118,667.888a7.666,7.666,0,0,1,1.764-5.278H3.375a9.031,9.031,0,0,0,0,10.545H1.882a7.65,7.65,0,0,1-1.764-5.267" transform="translate(-0.118 -662.61)" fill="#fff"/><path d="M13.339,664.193v1.981a4.889,4.889,0,0,0,.621,2.405,5.216,5.216,0,0,0,1.863,1.893L14.8,671.517a5.675,5.675,0,0,1-1.252-1.012,4.687,4.687,0,0,1-.969-1.415,5.188,5.188,0,0,1-.931,1.551,5.379,5.379,0,0,1-1.247,1.116l-1.111-.979a5.4,5.4,0,0,0,1.835-2.062,5.641,5.641,0,0,0,.648-2.6q0-1.034-.076-1.926Zm1.285,3.744v-1.448h1.71v-.348q0-1.425-.076-2.274h1.634v9.784H16.334v-5.713Z" transform="translate(-6.347 -663.464)" fill="#fff"/><path d="M40.295,668.587v-1.164h8.942v1.164H45.545v.577H48.1v2.6H43.051v.446h5.2v1.077h-6.84v-.707q0-.838-.065-1.861h5.13v-.479H41.406v-1.077h2.582v-.577Zm4.477-1.545a6.156,6.156,0,0,1-2.614-.446,1.4,1.4,0,0,1-.926-1.295,1.434,1.434,0,0,1,.926-1.312,5.971,5.971,0,0,1,2.614-.462,5.979,5.979,0,0,1,2.608.462,1.434,1.434,0,0,1,.931,1.312,1.407,1.407,0,0,1-.931,1.29,6.106,6.106,0,0,1-2.608.451m0-1.164q1.993,0,1.993-.6t-1.993-.588q-1.993,0-1.993.588t1.993.6" transform="translate(-27.411 -663.233)" fill="#fff"/><path d="M71.855,671.245v-4.429q0-1.48-.076-2.34h3.627v1.36h-2v4.049h.327a11.187,11.187,0,0,0,2.037-.185v1.317a10.241,10.241,0,0,1-2.32.228Zm4.226,1.959v-6.9q0-1.425-.076-2.274h1.536v3.145h.577v-1.034q0-1.426-.076-2.274h1.536v9.784H78.118v-5.017h-.577v4.57Z" transform="translate(-48.798 -663.464)" fill="#fff"/><path d="M100.953,666.445a2.356,2.356,0,0,1,.74-1.768,2.608,2.608,0,0,1,1.884-.713,2.581,2.581,0,0,1,1.873.718,2.359,2.359,0,0,1,.741,1.763,2.326,2.326,0,0,1-.741,1.752,2.849,2.849,0,0,1-3.758,0,2.326,2.326,0,0,1-.74-1.752M102.4,673.5v-1.73q0-1.4-.076-2.307h1.623v.838h3.442v-.838h1.536V673.5Zm.36-7.9a1.183,1.183,0,0,0-.305.832,1.2,1.2,0,0,0,.305.838,1.045,1.045,0,0,0,.817.338,1.016,1.016,0,0,0,.8-.338,1.323,1.323,0,0,0,.005-1.67,1.022,1.022,0,0,0-.806-.332,1.056,1.056,0,0,0-.817.332m1.187,6.655h3.442v-.718h-3.442Zm3.431-3.178v-2.917q0-1.447-.076-2.3h1.623v5.213Z" transform="translate(-68.616 -663.464)" fill="#fff"/><path d="M129.956,670.483v-1.36h5.871a18.235,18.235,0,0,0,.37-2.808h-5.228v-1.327h6.894a20.407,20.407,0,0,1-.458,4.135H138.9v1.36h-3.692v3.929h-1.569v-3.929Z" transform="translate(-88.318 -664.225)" fill="#fff"/><path d="M167.13,669.536V668.23h-1.775a2.486,2.486,0,0,1-2.015.9,2.58,2.58,0,0,1-1.9-.745,2.469,2.469,0,0,1-.751-1.823,2.513,2.513,0,0,1,.751-1.85,2.569,2.569,0,0,1,1.9-.751,2.523,2.523,0,0,1,1.96.86h1.8q-.022-.674-.044-.958h1.623v5.67Zm1.547,4.135h-1.558V671.31H162v-1.328h6.677Zm-6.165-8.02a1.346,1.346,0,0,0-.305.9,1.367,1.367,0,0,0,.305.909,1.022,1.022,0,0,0,.828.365,1,1,0,0,0,.811-.365,1.386,1.386,0,0,0,.3-.909,1.364,1.364,0,0,0-.3-.9,1,1,0,0,0-.811-.359,1.029,1.029,0,0,0-.828.359m3.442.914a1.83,1.83,0,0,1-.033.359h1.209v-.794h-1.209q.033.424.033.435" transform="translate(-109.198 -663.464)" fill="#fff"/><path d="M204.925,667.132a2.07,2.07,0,0,1-.937,1.774,2.192,2.192,0,0,1,1.133,1.97,2.714,2.714,0,0,1-.218,1.1,2.3,2.3,0,0,1-.583.816,3.413,3.413,0,0,1-.86.544,4.48,4.48,0,0,1-1.024.321,6,6,0,0,1-1.095.1,9.739,9.739,0,0,1-1.4-.142v-1.241q.915.076,1.154.076a5.47,5.47,0,0,0,1.171-.114,1.947,1.947,0,0,0,.909-.474,1.21,1.21,0,0,0,.392-.936,1.059,1.059,0,0,0-.5-.958,2.24,2.24,0,0,0-1.225-.315h-.806v-1.306h.784a1.994,1.994,0,0,0,1.1-.294.958.958,0,0,0,.457-.86.668.668,0,0,0-.337-.615,1.709,1.709,0,0,0-.882-.2,2.612,2.612,0,0,0-1.612.707l-.73-1.088a3.937,3.937,0,0,1,2.527-.98,2.984,2.984,0,0,1,1.824.56,1.823,1.823,0,0,1,.757,1.551" transform="translate(-135.775 -664.248)" fill="#fff"/><path d="M220.645,669.373V666.38q0-1.241-.076-2.231h1.623v1.5h1.655v-1.5h1.547v1.861h1.231q0-1.186-.076-2.144h1.634v7.02h-1.558v-3.428h-1.231v1.915Zm1.013,4.048V672.18q0-1.218-.076-2.024h1.634v1.9h5.108v1.36Zm.534-5.4h1.655v-1.034h-1.655Z" transform="translate(-149.873 -663.464)" fill="#fff"/><path d="M248.587,668.93v-1.1h8.942v1.1h-3.692v.479h2.56v2.373h-5.054v.381h5.206V673.2H249.7v-.61q0-.827-.076-1.752h5.141v-.392H249.7v-1.034h2.581v-.479Zm1.046-3.09v-1.078h6.894v1.078h-2.342a2.055,2.055,0,0,0,1.019.5A14.885,14.885,0,0,0,257,666.6l-.621,1.034a7.124,7.124,0,0,1-1.764-.272,3.24,3.24,0,0,1-1.547-.806,3.168,3.168,0,0,1-1.552.822,7.2,7.2,0,0,1-1.77.267l-.675-1.012a13.571,13.571,0,0,0,1.824-.261,2.111,2.111,0,0,0,1.062-.533Zm1.481-2.449h3.921v1.045h-3.921Z" transform="translate(-168.905 -663.141)" fill="#fff"/><path d="M278.475,670.483v-1.36h5.871a18.229,18.229,0,0,0,.37-2.808h-5.228v-1.327h6.894a20.431,20.431,0,0,1-.457,4.135h1.492v1.36h-3.692v3.929h-1.568v-3.929Z" transform="translate(-189.209 -664.225)" fill="#fff"/><path d="M309.761,667.888a7.621,7.621,0,0,1-1.775,5.267h-1.492a8.337,8.337,0,0,0,1.345-2.628,9.649,9.649,0,0,0,.365-2.639,8.663,8.663,0,0,0-1.71-5.278h1.492a7.638,7.638,0,0,1,1.775,5.278" transform="translate(-208.242 -662.61)" fill="#fff"/></g></svg>