<svg xmlns="http://www.w3.org/2000/svg" width="169.998" height="103.763" viewBox="0 0 169.998 103.763"><g transform="translate(24479.058 9189.862)"><path d="M57.441,594.445H74.747V604H47.054v-51.67H74.747v9.56H57.441v11.481h14.4v9.588h-14.4Z" transform="translate(-24520.887 -9742.195)" fill="#fff"/><path d="M99.318,561.893H89.49v32.552h9.828v-7.911h10.389v10.418a6.523,6.523,0,0,1-2.288,5.005A7.74,7.74,0,0,1,102.042,604H86.771a7.721,7.721,0,0,1-5.38-2.046,6.523,6.523,0,0,1-2.288-5.005V559.389a6.521,6.521,0,0,1,2.288-5.007,7.731,7.731,0,0,1,5.38-2.048h15.27a7.75,7.75,0,0,1,5.378,2.048,6.521,6.521,0,0,1,2.288,5.007v10.383H99.318Z" transform="translate(-24520.492 -9742.195)" fill="#fff"/><path d="M143.318,554.382a7.738,7.738,0,0,0-5.375-2.049H122.669a7.722,7.722,0,0,0-5.376,2.049A6.516,6.516,0,0,0,115,559.388v37.563a6.52,6.52,0,0,0,2.288,5.006A7.716,7.716,0,0,0,122.669,604h.578a19.365,19.365,0,0,0,5.861-5.263.008.008,0,0,0,.006-.008.315.315,0,0,0,.034-.043c.086-.122.169-.239.255-.36,5.083-7.325,6.2-19.1,2-28.442,2.691,8.7-.673,19.2-3.282,24.719-19.489-6.723,6.334-26.525-7.582-37.408,35.82,11.479,15.18,37.095,5.588,46.8h11.816a7.731,7.731,0,0,0,5.375-2.046,6.522,6.522,0,0,0,2.284-5.006V559.388a6.518,6.518,0,0,0-2.284-5.006" transform="translate(-24520.348 -9742.195)" fill="#fff"/><path d="M45.644,647.785q3.631,0,3.63-2.481V616.683H56.9V645.3a8.537,8.537,0,0,1-3.358,7.037,12.363,12.363,0,0,1-7.9,2.5H41.583v-7.059Z" transform="translate(-24520.641 -9740.943)" fill="#fff"/><path d="M78.623,616.682a5.662,5.662,0,0,1,3.948,1.511,4.831,4.831,0,0,1,1.679,3.7v27.741a4.83,4.83,0,0,1-1.679,3.7,5.658,5.658,0,0,1-3.948,1.511H67.413a5.658,5.658,0,0,1-3.948-1.511,4.834,4.834,0,0,1-1.679-3.7V621.892a4.834,4.834,0,0,1,1.679-3.7,5.663,5.663,0,0,1,3.948-1.511Zm-9.213,31.1h7.216V623.742H69.41Z" transform="translate(-24521.543 -9740.943)" fill="#fff"/><path d="M90.04,616.683H105.9a5.768,5.768,0,0,1,3.994,1.511,4.829,4.829,0,0,1,1.679,3.7v7.872a7.156,7.156,0,0,1-2.5,5.638,7.189,7.189,0,0,1,3.427,6.36V645.3a8.537,8.537,0,0,1-3.358,7.037,12.271,12.271,0,0,1-7.875,2.5H90.04Zm7.625,7.059v8.48h3.517a2.875,2.875,0,0,0,1.93-.7,2.281,2.281,0,0,0,.839-1.759v-6.022Zm0,24.043h3.607q3.608,0,3.608-2.481v-3.541a2.261,2.261,0,0,0-.817-1.759,2.841,2.841,0,0,0-1.906-.7H97.665Z" transform="translate(-24520.582 -9740.943)" fill="#fff"/><path d="M128.142,616.682h20.331v7.059H135.767v8.481H146.34V639.3H135.767v15.54h-7.624Z" transform="translate(-24520.596 -9740.943)" fill="#fff"/><path d="M157.292,647.108l-1.542,7.736h-7.715l7.443-38.161h10.143l7.42,38.161H165.3l-1.5-7.736Zm1.386-7.059h3.72l-1.859-16.262Z" transform="translate(-24520.424 -9740.943)" fill="#fff"/><rect width="7.625" height="38.162" transform="translate(-24345.016 -9124.262)" fill="#fff"/><path d="M196.564,641.244v13.6h-7.625V616.683h16.838a5.656,5.656,0,0,1,3.947,1.511,4.83,4.83,0,0,1,1.68,3.7v9.834a7.136,7.136,0,0,1-2.926,5.977,7.18,7.18,0,0,1,2.926,6.022v11.119h-7.625V643.725a2.329,2.329,0,0,0-.817-1.782,2.84,2.84,0,0,0-1.906-.7Zm4.493-7.059a2.791,2.791,0,0,0,1.906-.721,2.2,2.2,0,0,0,.817-1.737v-7.985h-7.216v10.443Z" transform="translate(-24520.463 -9740.943)" fill="#fff"/></g></svg>