<svg xmlns="http://www.w3.org/2000/svg" width="279.273" height="170.461" viewBox="0 0 279.273 170.461"><g transform="translate(24479.058 9189.862)"><path d="M64.825,624.379H94.432v16.352H47.054v-88.4H94.432v16.356H64.825v19.642H89.466v16.4H64.825Z" transform="translate(-24517.172 -9742.195)" fill="#fff"/><path d="M113.687,568.688H96.874v55.691h16.813V610.844h17.774v17.823a11.159,11.159,0,0,1-3.914,8.563,13.242,13.242,0,0,1-9.2,3.5H92.222a13.209,13.209,0,0,1-9.2-3.5,11.159,11.159,0,0,1-3.914-8.563V564.4a11.156,11.156,0,0,1,3.914-8.566,13.226,13.226,0,0,1,9.2-3.5h26.124a13.26,13.26,0,0,1,9.2,3.5,11.156,11.156,0,0,1,3.914,8.566v17.763H113.687Z" transform="translate(-24496.84 -9742.194)" fill="#fff"/><path d="M163.444,555.839a13.239,13.239,0,0,0-9.2-3.506H128.116a13.212,13.212,0,0,0-9.2,3.506A11.147,11.147,0,0,0,115,564.4v64.263a11.155,11.155,0,0,0,3.914,8.564,13.2,13.2,0,0,0,9.2,3.5h.989a33.129,33.129,0,0,0,10.027-9,.013.013,0,0,0,.01-.013.547.547,0,0,0,.059-.073c.147-.209.289-.409.436-.616,8.7-12.531,10.6-32.68,3.424-48.66,4.6,14.888-1.151,32.84-5.614,42.29-33.342-11.5,10.836-45.379-12.972-64,61.282,19.639,25.971,63.462,9.56,80.075h20.214a13.227,13.227,0,0,0,9.2-3.5,11.159,11.159,0,0,0,3.908-8.564V564.4a11.152,11.152,0,0,0-3.908-8.564" transform="translate(-24474.063 -9742.195)" fill="#fff"/><path d="M48.531,669.893q6.212,0,6.211-4.245V616.683H67.786v48.965a14.606,14.606,0,0,1-5.745,12.039,21.151,21.151,0,0,1-13.51,4.282H41.583V669.893Z" transform="translate(-24520.641 -9701.371)" fill="#fff"/><path d="M90.591,616.682a9.687,9.687,0,0,1,6.755,2.586,8.265,8.265,0,0,1,2.872,6.328v47.46a8.264,8.264,0,0,1-2.872,6.328,9.679,9.679,0,0,1-6.755,2.586H71.413a9.679,9.679,0,0,1-6.755-2.586,8.27,8.27,0,0,1-2.872-6.328V625.6a8.27,8.27,0,0,1,2.872-6.328,9.687,9.687,0,0,1,6.755-2.586ZM74.829,669.893H87.173V628.76H74.829Z" transform="translate(-24507.824 -9701.372)" fill="#fff"/><path d="M90.04,616.683h27.134a9.868,9.868,0,0,1,6.833,2.586,8.261,8.261,0,0,1,2.872,6.327v13.468a12.243,12.243,0,0,1-4.269,9.646,12.3,12.3,0,0,1,5.863,10.88v6.059a14.606,14.606,0,0,1-5.745,12.039,20.993,20.993,0,0,1-13.472,4.282H90.04Zm13.044,12.077v14.509H109.1a4.918,4.918,0,0,0,3.3-1.2,3.9,3.9,0,0,0,1.435-3.009v-10.3Zm0,41.133h6.172q6.173,0,6.173-4.245v-6.059a3.868,3.868,0,0,0-1.4-3.009,4.86,4.86,0,0,0-3.261-1.2h-7.687Z" transform="translate(-24489.898 -9701.371)" fill="#fff"/><path d="M128.142,616.682h34.783v12.077H141.186v14.509h18.09v12.116h-18.09V681.97H128.142Z" transform="translate(-24465.727 -9701.372)" fill="#fff"/><path d="M163.872,668.734l-2.638,13.235h-13.2l12.734-65.286h17.352l12.694,65.286H177.579l-2.561-13.235Zm2.372-12.077h6.364l-3.181-27.821Z" transform="translate(-24453.107 -9701.371)" fill="#fff"/><rect width="13.044" height="65.288" transform="translate(-24259.279 -9084.69)" fill="#fff"/><path d="M201.983,658.7v23.267H188.939V616.683h28.806a9.676,9.676,0,0,1,6.753,2.586,8.262,8.262,0,0,1,2.873,6.327V642.42a12.209,12.209,0,0,1-5.006,10.225,12.283,12.283,0,0,1,5.006,10.3v19.023H214.328V662.947a3.985,3.985,0,0,0-1.4-3.048,4.858,4.858,0,0,0-3.261-1.2Zm7.687-12.077a4.775,4.775,0,0,0,3.261-1.234,3.756,3.756,0,0,0,1.4-2.971V628.76H201.983v17.866Z" transform="translate(-24427.156 -9701.371)" fill="#fff"/></g></svg>