<svg xmlns="http://www.w3.org/2000/svg" width="236.243" height="273.234" viewBox="0 0 236.243 273.234"><g transform="translate(-367.6 -201.718)"><path d="M52.9,108.454a7.56,7.56,0,0,1-5.46-1.937,7.335,7.335,0,0,1-2.021-5.557v-.7a38.794,38.794,0,0,1,.362-5.62,16.514,16.514,0,0,1,1.237-4.382,13.37,13.37,0,0,1,2.323-3.525A23.088,23.088,0,0,1,52.9,83.624l9.471-6.6A5.381,5.381,0,0,0,64.328,74.8a6,6,0,0,0,.513-2.35,3.576,3.576,0,0,0-1.177-2.7,4.514,4.514,0,0,0-3.228-1.111,4.84,4.84,0,0,0-2.443.6,13.191,13.191,0,0,0-2.081,1.493,13.771,13.771,0,0,1-1.177.952,5.019,5.019,0,0,1-1.538.762,8.761,8.761,0,0,1-3.017.254,5.047,5.047,0,0,1-2.956-1.27,4.824,4.824,0,0,1-1.719-3.62,6.7,6.7,0,0,1,1.056-4,11.07,11.07,0,0,1,2.745-3.048,16.953,16.953,0,0,1,3.559-2.1,18.38,18.38,0,0,1,3.921-1.207,21.33,21.33,0,0,1,3.952-.381A21.729,21.729,0,0,1,67.162,58a15.4,15.4,0,0,1,5.189,2.7,13.234,13.234,0,0,1,3.5,4.319,12.68,12.68,0,0,1,1.3,5.842A18.837,18.837,0,0,1,75.428,79.4a15.96,15.96,0,0,1-5.46,5.937l-7.481,5.017a18.533,18.533,0,0,0-3.318,2.762,4.326,4.326,0,0,0-1.026,2.953v.444q0,.952.9.953H77.629v10.986Z" transform="translate(323.391 144.702)" fill="#fff100"/><path d="M110.176,109.643a20.165,20.165,0,0,1-6.667-1.08,14.38,14.38,0,0,1-8.929-8.541,19.612,19.612,0,0,1-1.3-7.4V74.018a19.378,19.378,0,0,1,1.3-7.367,15.222,15.222,0,0,1,3.559-5.334,14.624,14.624,0,0,1,5.369-3.239,21.116,21.116,0,0,1,13.332,0,14.623,14.623,0,0,1,5.369,3.239,15.211,15.211,0,0,1,3.559,5.334,19.393,19.393,0,0,1,1.3,7.367V92.625a19.628,19.628,0,0,1-1.3,7.4,14.38,14.38,0,0,1-8.929,8.541,20.167,20.167,0,0,1-6.666,1.08m0-10.8a5.63,5.63,0,0,0,1.629-.254,3.946,3.946,0,0,0,1.538-.888,4.909,4.909,0,0,0,1.146-1.652,6.246,6.246,0,0,0,.453-2.539V73.129a6.071,6.071,0,0,0-.453-2.476A4.924,4.924,0,0,0,113.343,69a4.337,4.337,0,0,0-1.538-.921,4.783,4.783,0,0,0-3.258,0,4.31,4.31,0,0,0-1.538.921,4.9,4.9,0,0,0-1.147,1.652,6.085,6.085,0,0,0-.452,2.476V93.514a6.26,6.26,0,0,0,.452,2.539,4.888,4.888,0,0,0,1.147,1.652,3.924,3.924,0,0,0,1.538.888,5.614,5.614,0,0,0,1.629.254" transform="translate(313.226 144.719)" fill="#fff100"/><path d="M150.933,108.454a7.559,7.559,0,0,1-5.46-1.937,7.335,7.335,0,0,1-2.021-5.557v-.7a38.793,38.793,0,0,1,.362-5.62,16.514,16.514,0,0,1,1.237-4.382,13.37,13.37,0,0,1,2.323-3.525,23.088,23.088,0,0,1,3.559-3.111l9.471-6.6a5.381,5.381,0,0,0,1.961-2.223,6,6,0,0,0,.513-2.35,3.576,3.576,0,0,0-1.177-2.7,4.514,4.514,0,0,0-3.228-1.111,4.841,4.841,0,0,0-2.443.6,13.191,13.191,0,0,0-2.081,1.493,13.773,13.773,0,0,1-1.177.952,5.019,5.019,0,0,1-1.538.762,8.761,8.761,0,0,1-3.017.254,5.047,5.047,0,0,1-2.956-1.27,4.824,4.824,0,0,1-1.719-3.62,6.7,6.7,0,0,1,1.056-4,11.07,11.07,0,0,1,2.745-3.048,16.953,16.953,0,0,1,3.559-2.1,18.38,18.38,0,0,1,3.921-1.207,21.33,21.33,0,0,1,3.952-.381A21.728,21.728,0,0,1,165.2,58a15.4,15.4,0,0,1,5.189,2.7,13.234,13.234,0,0,1,3.5,4.319,12.681,12.681,0,0,1,1.3,5.842,18.837,18.837,0,0,1-1.719,8.541,15.96,15.96,0,0,1-5.46,5.937l-7.481,5.017a18.533,18.533,0,0,0-3.318,2.762,4.326,4.326,0,0,0-1.026,2.953v.444q0,.952.9.953h18.581v10.986Z" transform="translate(302.572 144.702)" fill="#fff100"/><path d="M223.831,92.554a18.26,18.26,0,0,1-1.357,7.239,15.486,15.486,0,0,1-9.11,8.7,18.812,18.812,0,0,1-6.545,1.143,29.9,29.9,0,0,1-4.072-.286,21.986,21.986,0,0,1-3.982-.921,13.745,13.745,0,0,1-3.47-1.715,10.614,10.614,0,0,1-2.654-2.6,6.173,6.173,0,0,1-1.055-4,5.339,5.339,0,0,1,1.719-3.683,4.632,4.632,0,0,1,2.9-1.333,8.78,8.78,0,0,1,3.017.254,4.411,4.411,0,0,1,1.538.825,14.007,14.007,0,0,0,1.177.889,5.008,5.008,0,0,0,2.142.857,17.8,17.8,0,0,0,2.5.159,5.118,5.118,0,0,0,3.862-1.651,5.925,5.925,0,0,0,1.568-4.255,5.018,5.018,0,0,0-.573-2.445,5.411,5.411,0,0,0-1.568-1.778,7.328,7.328,0,0,0-2.293-1.111,9.9,9.9,0,0,0-2.8-.381h-2.9a3.557,3.557,0,0,1-2.443-1.016,4.469,4.469,0,0,1-1.418-2.35,6.179,6.179,0,0,1,0-3.207A6.621,6.621,0,0,1,200,76.932l9.29-8.763H197.407a4.937,4.937,0,0,1-2.262-.477,4.569,4.569,0,0,1-1.538-1.238,4.938,4.938,0,0,1-.875-1.682,6.616,6.616,0,0,1-.272-1.874,6.733,6.733,0,0,1,.272-1.841,4.827,4.827,0,0,1,2.413-2.984,4.678,4.678,0,0,1,2.262-.508h18.762a6.3,6.3,0,0,1,4.072,1.333,7.313,7.313,0,0,1,2.353,3.239,7.774,7.774,0,0,1,.332,4.032,6.988,6.988,0,0,1-1.87,3.715l-8.446,8.827a11.679,11.679,0,0,1,4.072,1.333A13.265,13.265,0,0,1,220.3,82.9a13.9,13.9,0,0,1,2.564,4.223,14.689,14.689,0,0,1,.965,5.43" transform="translate(292.353 144.599)" fill="#fff100"/><path d="M57.577,173.718V170.29a14.7,14.7,0,0,1-4.916-.858,9.447,9.447,0,0,1-3.469-2.222,9.236,9.236,0,0,1-2.082-3.366,12.439,12.439,0,0,1-.693-4.223,8.173,8.173,0,0,1,.543-2.858,4.109,4.109,0,0,1-2.293-1.556,4.668,4.668,0,0,1-.784-2.762,4.618,4.618,0,0,1,1.237-3.366,4.7,4.7,0,0,1,3.529-1.27h8.567a4.905,4.905,0,0,1,1.87-3.556,6.8,6.8,0,0,1,4.1-1.144,6.661,6.661,0,0,1,4.072,1.144A4.956,4.956,0,0,1,69.1,147.81h8.566a4.7,4.7,0,0,1,3.529,1.27,4.621,4.621,0,0,1,1.237,3.366,4.407,4.407,0,0,1-.814,2.731,4.333,4.333,0,0,1-2.2,1.524,8.329,8.329,0,0,1,.543,2.921,12.458,12.458,0,0,1-.693,4.223,9.257,9.257,0,0,1-2.082,3.366,9.447,9.447,0,0,1-3.469,2.222,14.707,14.707,0,0,1-4.916.858v3.429H78.33q2.774,0,3.921,1.4a5.552,5.552,0,0,1-.03,6.795,4.828,4.828,0,0,1-3.891,1.4H49.011a4.925,4.925,0,0,1-3.922-1.4,5.442,5.442,0,0,1-.03-6.795,4.914,4.914,0,0,1,3.952-1.4Zm-.3,29.72a14.606,14.606,0,0,1-4.193-.508,5.642,5.642,0,0,1-2.624-1.588,6.211,6.211,0,0,1-1.357-2.858,20.31,20.31,0,0,1-.392-4.318v-2.731q0-3.24,1.84-4.541a7.382,7.382,0,0,1,4.374-1.3,6.856,6.856,0,0,1,4.283,1.333q1.75,1.334,1.749,4.509v.7q0,1.08.3,1.333a2.27,2.27,0,0,0,1.327.254H94.2q2.774,0,3.921,1.461a5.551,5.551,0,0,1-.03,6.794,4.716,4.716,0,0,1-3.891,1.461Zm9.17-41.023a2.68,2.68,0,0,0,2.2-.921,3.176,3.176,0,0,0,.755-2.064,2.936,2.936,0,0,0-.755-2,2.776,2.776,0,0,0-2.2-.857H59.93a2.775,2.775,0,0,0-2.2.857,2.932,2.932,0,0,0-.755,2,3.172,3.172,0,0,0,.755,2.064,2.679,2.679,0,0,0,2.2.921ZM85.389,150.1a5.744,5.744,0,0,1,5.912-6.287,5.831,5.831,0,0,1,5.912,6.287v9.589h1.871a4.648,4.648,0,0,1,2.292.508,4.236,4.236,0,0,1,1.448,1.3,5.415,5.415,0,0,1,.785,1.778,7.9,7.9,0,0,1,0,3.874,5.39,5.39,0,0,1-.785,1.779,4.141,4.141,0,0,1-1.478,1.3,4.673,4.673,0,0,1-2.262.508H97.213v17.972H85.389Z" transform="translate(323.717 126.433)" fill="#fff100"/><path d="M127.847,166.922a31.3,31.3,0,0,0,6.214-.222,16.084,16.084,0,0,0,4.977-1.461,8.4,8.4,0,0,0,3.288-2.858,7.776,7.776,0,0,0,1.207-4.413v-.825a1.231,1.231,0,0,0-1.388-1.4H128.511a5.576,5.576,0,0,1-2.263-.413,4.26,4.26,0,0,1-1.538-1.111,4.318,4.318,0,0,1-.874-1.588,6.376,6.376,0,0,1,0-3.683,4.344,4.344,0,0,1,.874-1.588,4.285,4.285,0,0,1,1.538-1.111,5.589,5.589,0,0,1,2.263-.413h18.1a10.657,10.657,0,0,1,5.49,1.143,5.713,5.713,0,0,1,2.533,3.429,3.092,3.092,0,0,1,.725-.064h8.566v-.191a5.786,5.786,0,0,1,1.78-4.6A6.085,6.085,0,0,1,169.835,144a6.26,6.26,0,0,1,2.232.413,6.112,6.112,0,0,1,1.93,1.175,5.621,5.621,0,0,1,1.357,1.905,6.462,6.462,0,0,1,.513,2.667v27.56H163.923v-5.27h-8.566q-3.38,0-4.163-2.732a19.385,19.385,0,0,1-10.1,6.351,37.4,37.4,0,0,1-13.906,1.016,5.086,5.086,0,0,1-3.439-1.746,5.317,5.317,0,0,1-1.207-4.1,4.382,4.382,0,0,1,1.659-3.334,5.363,5.363,0,0,1,3.65-.984m9.23,36.7a15.236,15.236,0,0,1-5.46-.889,10.535,10.535,0,0,1-3.861-2.476,10.078,10.078,0,0,1-2.292-3.747,15.307,15.307,0,0,1,0-9.493,10.34,10.34,0,0,1,2.292-3.811,10.662,10.662,0,0,1,3.861-2.54,14.792,14.792,0,0,1,5.46-.921H164.1a15.068,15.068,0,0,1,5.4.889,10.324,10.324,0,0,1,3.861,2.509,10.7,10.7,0,0,1,2.323,3.81,15.057,15.057,0,0,1,0,9.589,10.4,10.4,0,0,1-2.323,3.779,10.22,10.22,0,0,1-3.861,2.445,15.575,15.575,0,0,1-5.4.857Zm23.829-8.891a3.052,3.052,0,0,0,2.654-.952,3.488,3.488,0,0,0,.664-2.032,3.215,3.215,0,0,0-.664-1.968,3.173,3.173,0,0,0-2.654-.889H140.274a3.173,3.173,0,0,0-2.654.889,3.214,3.214,0,0,0-.663,1.968,3.486,3.486,0,0,0,.663,2.032,3.052,3.052,0,0,0,2.654.952Zm-5.851-35.561a20.384,20.384,0,0,1-.785,4.508,4.176,4.176,0,0,0,.543-.032,4.173,4.173,0,0,1,.543-.031h8.566v-4.445Z" transform="translate(307.018 126.244)" fill="#fff100"/><path d="M200.064,168.573a12.568,12.568,0,0,0,7-5.462q2.413-3.937,2.413-11.113v-1.143a6.239,6.239,0,0,1,.513-2.636,5.185,5.185,0,0,1,1.388-1.841,5.748,5.748,0,0,1,1.99-1.08,7.742,7.742,0,0,1,2.323-.349,6.284,6.284,0,0,1,4.072,1.556,5.449,5.449,0,0,1,1.719,4.35V152a39.681,39.681,0,0,1-.362,5.588,17.067,17.067,0,0,1,5.791,1.841,12.845,12.845,0,0,1,4.375,3.874,18.12,18.12,0,0,1,2.714,6.16,30.745,30.745,0,0,1,.754,8.636H223.11q.543-9.335-5.007-10.8a21.676,21.676,0,0,1-6.545,8,18.046,18.046,0,0,1-8.235,3.429,5.6,5.6,0,0,1-2.232-.064,5.433,5.433,0,0,1-1.81-.794,5.294,5.294,0,0,1-1.327-1.3,4.324,4.324,0,0,1-.725-1.587,5.676,5.676,0,0,1,.212-3.969,4.374,4.374,0,0,1,2.624-2.445m10.377,35.054a14.605,14.605,0,0,1-4.193-.508,5.642,5.642,0,0,1-2.624-1.588,6.212,6.212,0,0,1-1.357-2.858,20.309,20.309,0,0,1-.392-4.318v-6.668a5.833,5.833,0,0,1,1.84-4.763,6.64,6.64,0,0,1,4.374-1.524,6.292,6.292,0,0,1,4.283,1.524,5.991,5.991,0,0,1,1.749,4.763V192.2q0,1.081.3,1.334a2.27,2.27,0,0,0,1.327.254h31.612q2.774,0,3.921,1.493a5.644,5.644,0,0,1-.03,6.858,4.666,4.666,0,0,1-3.891,1.493Zm28.112-53.343A5.744,5.744,0,0,1,244.466,144a5.831,5.831,0,0,1,5.912,6.287v9.589h1.871a4.648,4.648,0,0,1,2.292.508,4.235,4.235,0,0,1,1.448,1.3,5.414,5.414,0,0,1,.785,1.778,7.878,7.878,0,0,1,0,3.874,5.389,5.389,0,0,1-.785,1.778,4.141,4.141,0,0,1-1.478,1.3,4.673,4.673,0,0,1-2.262.508h-1.871v17.972H238.554Z" transform="translate(291.207 126.244)" fill="#fff100"/><path d="M275.5,159.3a15.954,15.954,0,0,1,1.236-6.6,11.715,11.715,0,0,1,3.47-4.477,14.286,14.286,0,0,1,5.339-2.54,27.672,27.672,0,0,1,6.847-.793,21.451,21.451,0,0,1,10.859,2.508,11.288,11.288,0,0,1,5.43,8.1h8.325v-5.335a5.738,5.738,0,0,1,1.809-4.6,6.313,6.313,0,0,1,6.395-1.143,6.1,6.1,0,0,1,1.931,1.174,5.642,5.642,0,0,1,1.357,1.905,6.476,6.476,0,0,1,.513,2.667v26.037H317.007V165.4H308.62a11.293,11.293,0,0,1-5.52,7.875,21.681,21.681,0,0,1-10.709,2.413,28.274,28.274,0,0,1-6.938-.794,13.971,13.971,0,0,1-5.339-2.54,11.565,11.565,0,0,1-3.409-4.477,16.277,16.277,0,0,1-1.206-6.6Zm11.341,44.325a14.571,14.571,0,0,1-4.193-.508,5.639,5.639,0,0,1-2.624-1.587,6.2,6.2,0,0,1-1.357-2.858,20.321,20.321,0,0,1-.392-4.319v-10.1q0-3.238,1.779-4.668a6.675,6.675,0,0,1,4.314-1.429,6.536,6.536,0,0,1,3.951,1.207,5.244,5.244,0,0,1,1.961,3.874h27.027a5.2,5.2,0,0,1,1.99-3.874,6.772,6.772,0,0,1,4.042-1.207,6.434,6.434,0,0,1,4.253,1.429q1.719,1.428,1.719,4.668v19.368Zm.422-41.721a4.391,4.391,0,0,0,1.418,3.588,6.444,6.444,0,0,0,7.42,0,4.393,4.393,0,0,0,1.418-3.588v-3.239a4.4,4.4,0,0,0-1.418-3.588,6.448,6.448,0,0,0-7.42,0,4.4,4.4,0,0,0-1.418,3.588Zm29.983,33.275v-3.81H290.341v2.222q0,1.081.3,1.334a2.28,2.28,0,0,0,1.327.254Z" transform="translate(274.529 126.244)" fill="#fff100"/><path d="M45.721,247.158a15.1,15.1,0,0,1,1.237-6.446,11.219,11.219,0,0,1,3.5-4.318,14.778,14.778,0,0,1,5.429-2.445,32.777,32.777,0,0,1,14.057,0,14.778,14.778,0,0,1,5.429,2.445,11.242,11.242,0,0,1,3.5,4.318,15.128,15.128,0,0,1,1.237,6.446v1.714a15.122,15.122,0,0,1-1.237,6.445,11.227,11.227,0,0,1-3.5,4.319,14.766,14.766,0,0,1-5.429,2.445,32.777,32.777,0,0,1-14.057,0,14.766,14.766,0,0,1-5.429-2.445,11.2,11.2,0,0,1-3.5-4.319,15.1,15.1,0,0,1-1.237-6.445Zm10.919,44.96a9.034,9.034,0,0,1-3.65-.7,7.737,7.737,0,0,1-2.685-1.905,8.476,8.476,0,0,1-1.659-2.762,9.369,9.369,0,0,1-.573-3.27v-.762a7.072,7.072,0,0,1,2.2-5.462q2.2-2.031,6.365-2.032H86.985v-1.651a1.3,1.3,0,0,0-.18-.794,1.014,1.014,0,0,0-.784-.222H52.055a2.849,2.849,0,0,1-2.534-1.143,4.489,4.489,0,0,1-.784-2.6,4.437,4.437,0,0,1,.784-2.508,2.822,2.822,0,0,1,2.534-1.175H91.871q4.042,0,5.7,1.46t1.659,5.208v10.161H62.13a1.31,1.31,0,0,0-1,.349,1.2,1.2,0,0,0-.332.857v.191a1.2,1.2,0,0,0,.332.857,1.308,1.308,0,0,0,1,.349H97.362a2.938,2.938,0,0,1,2.624,1.207,4.662,4.662,0,0,1,.814,2.667,4.449,4.449,0,0,1-.784,2.509,2.956,2.956,0,0,1-2.654,1.175Zm.966-42.8a4.07,4.07,0,0,0,1.447,3.492,6.31,6.31,0,0,0,3.862,1.079,6.311,6.311,0,0,0,3.861-1.079,4.07,4.07,0,0,0,1.448-3.492v-2.6a4.088,4.088,0,0,0-1.448-3.461,7.264,7.264,0,0,0-7.723,0,4.088,4.088,0,0,0-1.447,3.461Zm29.44-10.542a5.867,5.867,0,0,1,1.84-4.7,6.319,6.319,0,0,1,4.253-1.588,6.488,6.488,0,0,1,2.262.413,5.77,5.77,0,0,1,1.961,1.207,5.938,5.938,0,0,1,1.357,1.968,6.71,6.71,0,0,1,.513,2.7V263.1H87.045Z" transform="translate(323.326 107.452)" fill="#fff"/><path d="M132.248,245.761h-7.722a5.085,5.085,0,0,1-2.323-.477,4.9,4.9,0,0,1-1.568-1.238,4.606,4.606,0,0,1-.9-1.746,7.038,7.038,0,0,1,0-3.874,4.693,4.693,0,0,1,2.443-3.017,5,5,0,0,1,2.353-.508h27.268a4.82,4.82,0,0,1,2.323.508,4.952,4.952,0,0,1,1.538,1.27,4.529,4.529,0,0,1,.845,1.747,8.17,8.17,0,0,1,.241,1.937,7.257,7.257,0,0,1-.272,1.937,5.136,5.136,0,0,1-.844,1.746,4.227,4.227,0,0,1-1.538,1.238,5.136,5.136,0,0,1-2.293.477h-7.843v6.858q0,2.224-.121,4.255t-.362,3.937a21.573,21.573,0,0,1,5.852,3.239,16.529,16.529,0,0,1,4.344,5.3,26.471,26.471,0,0,1,2.564,7.969,55.055,55.055,0,0,1,.573,11.24H145.52a28.806,28.806,0,0,0-.633-10.351,11.526,11.526,0,0,0-3.891-6.1,31.76,31.76,0,0,1-5.61,10.161,22.212,22.212,0,0,1-8.2,6.159,5.287,5.287,0,0,1-2.081.477,7.474,7.474,0,0,1-2.172-.254,6.244,6.244,0,0,1-1.93-.889,3.649,3.649,0,0,1-1.3-1.556,5.363,5.363,0,0,1-.453-3.747,5.1,5.1,0,0,1,2.262-3.175,20.91,20.91,0,0,0,4.857-4.319,22.274,22.274,0,0,0,3.348-5.747,32,32,0,0,0,1.931-7.462,66.956,66.956,0,0,0,.6-9.462Zm29.2-7.112a5.74,5.74,0,0,1,1.81-4.6,6.313,6.313,0,0,1,6.395-1.143,5.758,5.758,0,0,1,1.9,1.175,5.858,5.858,0,0,1,1.327,1.905,6.476,6.476,0,0,1,.513,2.667v16.066h1.99a4.643,4.643,0,0,1,2.293.508,4.236,4.236,0,0,1,1.448,1.3,5.408,5.408,0,0,1,.784,1.778,7.9,7.9,0,0,1,0,3.874,5.389,5.389,0,0,1-.784,1.778,4.159,4.159,0,0,1-1.478,1.3,4.681,4.681,0,0,1-2.262.508h-1.99v26.354H161.447Z" transform="translate(307.744 107.452)" fill="#fff"/><path d="M211.416,276.3a2.945,2.945,0,0,0,.6,2.191,3.3,3.3,0,0,0,2.172.54h17.8a5.608,5.608,0,0,1,2.353.445,4.49,4.49,0,0,1,1.6,1.207,4.669,4.669,0,0,1,.9,1.682,6.585,6.585,0,0,1,.272,1.873,5.868,5.868,0,0,1-1.207,3.589,4.568,4.568,0,0,1-3.921,1.619H209.727a17.67,17.67,0,0,1-4.827-.572,7.145,7.145,0,0,1-3.227-1.841,7.568,7.568,0,0,1-1.81-3.334,19.079,19.079,0,0,1-.573-5.048V267.1a18.727,18.727,0,0,1,.573-5.016,7.576,7.576,0,0,1,1.81-3.3,6.92,6.92,0,0,1,3.227-1.809,18.659,18.659,0,0,1,4.827-.54h10.8v-9.208a2.557,2.557,0,0,0-.3-1.207q-.3-.571-1.327-.571H205.022a5.6,5.6,0,0,1-2.353-.444,4.2,4.2,0,0,1-1.568-1.207,5.32,5.32,0,0,1-.905-1.715,6.265,6.265,0,0,1-.3-1.905,6.922,6.922,0,0,1,.272-1.905,4.647,4.647,0,0,1,.9-1.714,4.825,4.825,0,0,1,1.6-1.239,5.28,5.28,0,0,1,2.353-.477h17.072a21.737,21.737,0,0,1,5.158.508A7.126,7.126,0,0,1,230.48,237a6.155,6.155,0,0,1,1.689,2.984,18.35,18.35,0,0,1,.483,4.572v22.226h-18.46a3.307,3.307,0,0,0-2.172.539,2.949,2.949,0,0,0-.6,2.191Zm29.018,15.813V238.774a5.92,5.92,0,0,1,1.81-4.7,6.409,6.409,0,0,1,8.446,0,5.919,5.919,0,0,1,1.809,4.7v53.343Z" transform="translate(290.714 107.452)" fill="#fff"/><path d="M54.582,354.979a14.888,14.888,0,0,1-4.1-.477,5.235,5.235,0,0,1-2.565-1.556,6.128,6.128,0,0,1-1.3-2.826,21.109,21.109,0,0,1-.362-4.223V329.07q0-3.175,1.689-4.6a6.225,6.225,0,0,1,4.163-1.429,5.528,5.528,0,0,1,4.011,1.429q1.478,1.43,1.478,4.6v1.016H68.517V329.07q0-3.24,1.538-4.636a5.828,5.828,0,0,1,4.073-1.4,5.968,5.968,0,0,1,4.132,1.429q1.6,1.43,1.6,4.6v25.909ZM53.376,369.2a5.18,5.18,0,0,1-3.892-1.4,5.507,5.507,0,0,1,0-7.24,5.184,5.184,0,0,1,3.892-1.4H89.451a19.219,19.219,0,0,1,4.585.445,5.065,5.065,0,0,1,2.715,1.588,6.288,6.288,0,0,1,1.3,3.016,27.975,27.975,0,0,1,.332,4.731v12.383H86.314V370.727q0-1.524-1.448-1.524ZM68.517,345.58v-6.668H57.6v5.08q0,1.081.3,1.333a2.27,2.27,0,0,0,1.327.254Zm17.254-17.59a5.97,5.97,0,0,1,1.78-4.7,6.243,6.243,0,0,1,8.355.031,5.94,5.94,0,0,1,1.81,4.668v5.588h1.87a4.652,4.652,0,0,1,2.293.508,4.387,4.387,0,0,1,1.448,1.271,5.054,5.054,0,0,1,.784,1.745,7.906,7.906,0,0,1,0,3.874,5.386,5.386,0,0,1-.784,1.778,3.876,3.876,0,0,1-1.478,1.27,4.929,4.929,0,0,1-2.262.477h-1.87v12.193H85.771Z" transform="translate(324.237 93.619)" fill="#fff"/><path d="M131.664,355.995a9.35,9.35,0,0,1-4.041-.825,8.49,8.49,0,0,1-2.926-2.222,9.6,9.6,0,0,1-1.78-3.239,12.154,12.154,0,0,1-.6-3.811v-1.207a9.337,9.337,0,0,1,2.353-6.6q2.353-2.539,7-2.54h11.583v-2.159q0-1.205-1.508-1.207H126.657a3.444,3.444,0,0,1-3.077-1.429,5.2,5.2,0,0,1-.966-2.953,5.391,5.391,0,0,1,.966-3.08,3.442,3.442,0,0,1,3.077-1.429h19.969q4.583,0,6.605,2.222a8.26,8.26,0,0,1,2.021,5.779V343.8h-19a1.471,1.471,0,0,0-1.206.444,1.654,1.654,0,0,0-.362,1.079v.318a1.359,1.359,0,0,0,1.568,1.46h19.969a3.657,3.657,0,0,1,1.779.413,3.858,3.858,0,0,1,1.237,1.048,4.488,4.488,0,0,1,.724,1.429,5.543,5.543,0,0,1,.242,1.619,5.393,5.393,0,0,1-.9,2.985,3.384,3.384,0,0,1-3.077,1.4Zm1.991,25.338a16.673,16.673,0,0,1-4.4-.477,5.142,5.142,0,0,1-2.625-1.588,6.2,6.2,0,0,1-1.267-2.953,26.834,26.834,0,0,1-.332-4.635v-3.429a26.966,26.966,0,0,1,.332-4.6,6.233,6.233,0,0,1,1.267-2.985,5.146,5.146,0,0,1,2.625-1.587,16.67,16.67,0,0,1,4.4-.477H165.93a16.688,16.688,0,0,1,4.4.477,5.155,5.155,0,0,1,2.624,1.587,6.248,6.248,0,0,1,1.267,2.985,27.045,27.045,0,0,1,.332,4.6v13.082Zm3.258-10.669a3.169,3.169,0,0,0,.271,1.46,1.212,1.212,0,0,0,1.177.508h24.312V369.14a2.745,2.745,0,0,0-.3-1.4,1.29,1.29,0,0,0-1.206-.508h-22.8a1.215,1.215,0,0,0-1.177.508,3,3,0,0,0-.271,1.4ZM162.25,327.99a5.97,5.97,0,0,1,1.78-4.7,6.243,6.243,0,0,1,8.355.031,5.94,5.94,0,0,1,1.81,4.668v5.4h1.87a4.642,4.642,0,0,1,2.293.508,4.385,4.385,0,0,1,1.448,1.27,5.056,5.056,0,0,1,.784,1.747,7.9,7.9,0,0,1,0,3.874,5.387,5.387,0,0,1-.784,1.778,3.885,3.885,0,0,1-1.478,1.27,4.94,4.94,0,0,1-2.262.477H174.2v12.065H162.25Z" transform="translate(308.086 93.619)" fill="#fff"/><path d="M216.7,321.139a6.006,6.006,0,0,1,4.525,1.683,6.726,6.726,0,0,1,1.689,4.731h9.17a4.4,4.4,0,0,1,3.439,1.333,4.829,4.829,0,0,1,1.207,3.366,5.014,5.014,0,0,1-1.146,3.334,4.315,4.315,0,0,1-3.2,1.493,16.406,16.406,0,0,1,.9,5.652V345.4q0,6.477-2.865,10a13.656,13.656,0,0,1-7.752,4.668v8.7h9.954q2.774,0,3.921,1.556a6.024,6.024,0,0,1-.03,7.112,4.568,4.568,0,0,1-3.891,1.556H202.28a4.653,4.653,0,0,1-3.921-1.556,5.9,5.9,0,0,1-.031-7.112,4.643,4.643,0,0,1,3.952-1.556h8.446v-8.7a13.682,13.682,0,0,1-7.813-4.668q-2.865-3.524-2.865-10v-2.667a16.406,16.406,0,0,1,.9-5.652,4.352,4.352,0,0,1-3.167-1.493,4.928,4.928,0,0,1-1.176-3.334,4.825,4.825,0,0,1,1.206-3.366,4.4,4.4,0,0,1,3.439-1.333h9.23a6.723,6.723,0,0,1,1.689-4.731,6.006,6.006,0,0,1,4.525-1.683m-5.309,24.576q0,2.986,1.568,4.223a6.266,6.266,0,0,0,7.481,0q1.568-1.238,1.568-4.223v-3.62q0-2.983-1.568-4.223a6.266,6.266,0,0,0-7.481,0q-1.569,1.238-1.568,4.223Zm28.475,35.5V327.87a5.92,5.92,0,0,1,1.81-4.7,6.409,6.409,0,0,1,8.446,0,5.92,5.92,0,0,1,1.809,4.7v53.343Z" transform="translate(292.309 93.739)" fill="#fff"/></g></svg>