<svg xmlns="http://www.w3.org/2000/svg" width="489.089" height="132.562" viewBox="0 0 489.089 132.562"><g transform="translate(0 -311.208)"><path d="M.68,531.342v-2.114a6.9,6.9,0,0,1,.529-2.624,11.5,11.5,0,0,1,1.7-2.775q1.171-1.473,2-2.341T7.368,519q1.7-1.662,2.739-2.812a16.816,16.816,0,0,0,1.965-2.719A5.712,5.712,0,0,0,13,510.614a4.011,4.011,0,0,0-.982-2.812,3.362,3.362,0,0,0-2.607-1.076A3.733,3.733,0,0,0,6.632,508.1a8.926,8.926,0,0,0-1.908,3.417L0,509.444a12.835,12.835,0,0,1,3.685-5.267,8.7,8.7,0,0,1,5.8-2.058,9.072,9.072,0,0,1,6.424,2.209,7.86,7.86,0,0,1,2.38,6.059,9.291,9.291,0,0,1-.586,3.247,12.407,12.407,0,0,1-1.87,3.247q-1.284,1.662-2.192,2.624t-2.683,2.7a23.424,23.424,0,0,0-3.93,4.531h11.9v4.606Z" transform="translate(0 -181.747)" fill="#fff"/><path d="M49.823,506.083q2.532,3.964,2.532,11.025t-2.532,11.006a7.992,7.992,0,0,1-7.1,3.945,7.859,7.859,0,0,1-7.047-3.945Q33.2,524.169,33.2,517.108q0-7.1,2.475-11.044a7.858,7.858,0,0,1,7.047-3.945,7.983,7.983,0,0,1,7.1,3.964M38.449,517.108a22.06,22.06,0,0,0,1.058,7.438q1.057,2.908,3.212,2.907,2.191,0,3.307-2.926a25.318,25.318,0,0,0,0-14.857q-1.115-2.945-3.307-2.945a2.911,2.911,0,0,0-2.437,1.453,9.533,9.533,0,0,0-1.417,3.738,29.136,29.136,0,0,0-.416,5.192" transform="translate(-11.998 -181.747)" fill="#fff"/><path d="M66.955,531.342v-2.114a6.9,6.9,0,0,1,.529-2.624,11.5,11.5,0,0,1,1.7-2.775q1.171-1.473,2-2.341T73.643,519q1.7-1.662,2.739-2.812a16.816,16.816,0,0,0,1.965-2.719,5.712,5.712,0,0,0,.926-2.851,4.008,4.008,0,0,0-.983-2.812,3.36,3.36,0,0,0-2.607-1.076,3.733,3.733,0,0,0-2.777,1.378A8.926,8.926,0,0,0,71,511.521l-4.724-2.077a12.835,12.835,0,0,1,3.685-5.267,8.7,8.7,0,0,1,5.8-2.058,9.072,9.072,0,0,1,6.424,2.209,7.86,7.86,0,0,1,2.38,6.059,9.291,9.291,0,0,1-.586,3.247,12.407,12.407,0,0,1-1.87,3.247q-1.284,1.662-2.192,2.624t-2.683,2.7a23.425,23.425,0,0,0-3.93,4.531h11.9v4.606Z" transform="translate(-23.954 -181.747)" fill="#fff"/><path d="M117.608,509.443a7.182,7.182,0,0,1-3.25,6.154,7.606,7.606,0,0,1,3.93,6.834,9.423,9.423,0,0,1-.755,3.832,8,8,0,0,1-2.022,2.832,11.854,11.854,0,0,1-2.985,1.887,15.541,15.541,0,0,1-3.552,1.114,20.807,20.807,0,0,1-3.8.34,33.849,33.849,0,0,1-4.875-.491v-4.3q3.174.265,4.005.264a18.915,18.915,0,0,0,4.063-.4,6.748,6.748,0,0,0,3.155-1.642,4.2,4.2,0,0,0,1.36-3.247,3.671,3.671,0,0,0-1.719-3.322,7.765,7.765,0,0,0-4.251-1.095h-2.8v-4.531h2.721a6.914,6.914,0,0,0,3.817-1.02,3.324,3.324,0,0,0,1.587-2.983,2.317,2.317,0,0,0-1.171-2.133,5.923,5.923,0,0,0-3.061-.7,9.063,9.063,0,0,0-5.593,2.454l-2.532-3.776a13.656,13.656,0,0,1,8.767-3.4,10.342,10.342,0,0,1,6.329,1.945,6.322,6.322,0,0,1,2.626,5.38" transform="translate(-36.102 -181.747)" fill="#fff"/><path d="M136.779,541.292a3.153,3.153,0,0,1,2.362,1.057,3.485,3.485,0,0,1,.019,4.87,3.186,3.186,0,0,1-2.381,1.019,3.244,3.244,0,0,1-2.4-1.019,3.375,3.375,0,0,1-1-2.454,3.415,3.415,0,0,1,1-2.416,3.19,3.19,0,0,1,2.4-1.057" transform="translate(-48.207 -195.926)" fill="#fff"/><path d="M182.131,528.763h-6.424V502.584a42.788,42.788,0,0,1-4.864,2.384l-2.754-4.722a24.086,24.086,0,0,0,9.178-6.74h4.864Z" transform="translate(-60.752 -178.63)" fill="#f6a800"/><path d="M222.371,528.763h-6.424V502.584a42.792,42.792,0,0,1-4.864,2.384l-2.754-4.722a24.086,24.086,0,0,0,9.178-6.74h4.864Z" transform="translate(-75.296 -178.63)" fill="#f6a800"/><path d="M250.617,540.43a3.825,3.825,0,0,1,2.868,1.284,4.233,4.233,0,0,1,.023,5.915,3.869,3.869,0,0,1-2.891,1.238,3.942,3.942,0,0,1-2.914-1.238,4.1,4.1,0,0,1-1.216-2.98,4.147,4.147,0,0,1,1.216-2.934,3.874,3.874,0,0,1,2.914-1.284" transform="translate(-89.088 -195.614)" fill="#f6a800"/><path d="M285.326,528.346v-2.568a8.4,8.4,0,0,1,.642-3.186,13.983,13.983,0,0,1,2.065-3.37q1.421-1.788,2.432-2.842t2.983-3.026q2.065-2.016,3.327-3.415a20.47,20.47,0,0,0,2.386-3.3,6.942,6.942,0,0,0,1.124-3.461,4.872,4.872,0,0,0-1.193-3.416,4.083,4.083,0,0,0-3.166-1.307,4.532,4.532,0,0,0-3.373,1.674,10.845,10.845,0,0,0-2.317,4.149l-5.736-2.522a15.59,15.59,0,0,1,4.474-6.4,10.565,10.565,0,0,1,7.043-2.5,11.017,11.017,0,0,1,7.8,2.682,9.546,9.546,0,0,1,2.891,7.359,11.3,11.3,0,0,1-.711,3.942,15.088,15.088,0,0,1-2.271,3.943q-1.561,2.019-2.662,3.187t-3.258,3.278a28.467,28.467,0,0,0-4.773,5.5h14.455v5.594Z" transform="translate(-102.827 -178.395)" fill="#f6a800"/><path d="M329.877,540.43a3.824,3.824,0,0,1,2.868,1.284,4.231,4.231,0,0,1,.023,5.915,3.869,3.869,0,0,1-2.891,1.238,3.942,3.942,0,0,1-2.914-1.238,4.1,4.1,0,0,1-1.216-2.98,4.15,4.15,0,0,1,1.216-2.934,3.874,3.874,0,0,1,2.914-1.284" transform="translate(-117.734 -195.614)" fill="#f6a800"/><path d="M344.286,509.993q0-13.846,7.434-22.237h6.287a38.046,38.046,0,0,0,0,44.428H351.72q-7.434-8.391-7.434-22.191" transform="translate(-124.435 -176.548)" fill="#f6a800"/><path d="M370.694,507.225v-6.557q0-4.63-.321-8.527h28.633v15.084H388.177V510.8h15.556v5.456H366.059V510.8h15.556v-3.576Zm28.22,25.125h-6.562v-7.978h-21.98v-5.5h28.542Zm-6.378-34.891H377.21v4.4h15.326Z" transform="translate(-132.304 -178.135)" fill="#f6a800"/><path d="M439.108,509.993q0,13.8-7.48,22.191h-6.287a35.13,35.13,0,0,0,5.667-11.073,40.663,40.663,0,0,0,1.537-11.118,36.5,36.5,0,0,0-7.2-22.237h6.287q7.479,8.391,7.48,22.237" transform="translate(-153.731 -176.548)" fill="#f6a800"/><path d="M483.2,531.685h-5.291V510.126a35.1,35.1,0,0,1-4.005,1.963l-2.268-3.889a19.829,19.829,0,0,0,7.557-5.55H483.2Z" transform="translate(-170.464 -181.94)" fill="#fff"/><path d="M513.721,509.574h5.216v11.364h2.947v4.644h-2.947v5.739h-5.216v-5.739H501.4v-3.851l9.862-20.086h5.82l-9.447,19.293h6.083Z" transform="translate(-181.222 -181.575)" fill="#fff"/><path d="M547.711,501.24v6.872a16.942,16.942,0,0,0,2.154,8.344,18.089,18.089,0,0,0,6.461,6.57l-3.552,3.624a19.637,19.637,0,0,1-4.346-3.511,16.263,16.263,0,0,1-3.363-4.908,18,18,0,0,1-3.231,5.38,18.692,18.692,0,0,1-4.326,3.87l-3.854-3.4a18.742,18.742,0,0,0,6.367-7.155,19.58,19.58,0,0,0,2.248-9q0-3.586-.264-6.683Zm10.391,32.81V508q0-4.945-.264-7.891h5.668v33.942Z" transform="translate(-192.878 -181.019)" fill="#fff"/><path d="M620.821,518.948l3.023,2.152a11.616,11.616,0,0,1-2.872,4.04,5.408,5.408,0,0,1-3.4,1.51,5.006,5.006,0,0,1-1.7-.227,8.523,8.523,0,0,1-1.417-.547q-.548-.282-1.492-.887a5.429,5.429,0,0,0-3.174-1.057,3.218,3.218,0,0,0-1.493.812,5.868,5.868,0,0,0-1.3,1.567l-3.1-1.888a11.456,11.456,0,0,1,2.437-3.662,5.745,5.745,0,0,1,3.383-1.812,4.742,4.742,0,0,1,1.4-.019,4.521,4.521,0,0,1,1.228.34q.547.246,1.153.566t1.134.66q.567.3,1.039.585a5.358,5.358,0,0,0,1.02.472,2.993,2.993,0,0,0,.963.189,3.469,3.469,0,0,0,1.739-.811,4.586,4.586,0,0,0,1.436-1.982" transform="translate(-218.264 -187.816)" fill="#fff"/><path d="M668.713,531.685h-5.29V510.126a35.15,35.15,0,0,1-4.006,1.963L657.15,508.2a19.828,19.828,0,0,0,7.557-5.55h4.005Z" transform="translate(-237.513 -181.94)" fill="#fff"/><path d="M688.275,507.651v-4.644h18.554v3.964q-3.061,3.058-5.479,9.647a51.9,51.9,0,0,0-2.872,15.159H693a49.841,49.841,0,0,1,2.475-14.178,39.625,39.625,0,0,1,4.817-9.948Z" transform="translate(-248.763 -182.069)" fill="#fff"/><path d="M733.221,501.24v6.872a16.944,16.944,0,0,0,2.155,8.344,18.089,18.089,0,0,0,6.461,6.57l-3.552,3.624a19.631,19.631,0,0,1-4.345-3.511,16.249,16.249,0,0,1-3.363-4.908,18,18,0,0,1-3.231,5.38,18.688,18.688,0,0,1-4.326,3.87l-3.854-3.4a18.734,18.734,0,0,0,6.366-7.155,19.572,19.572,0,0,0,2.248-9q0-3.586-.264-6.683Zm10.391,32.81V508q0-4.945-.264-7.891h5.668v33.942Z" transform="translate(-259.927 -181.019)" fill="#fff"/><path d="M.657,607.382v-4.494H6.078v-.406q-.037-3.426-.222-5.747h5.494v6.079A81.558,81.558,0,0,0,21.2,602v4.384a108.13,108.13,0,0,1-16.113.995Zm17.662-6.705H13.157a34.808,34.808,0,0,0,.664-4.181q.294-2.671.3-3.961H2.464v-4.494H19.647a58.249,58.249,0,0,1-.369,6.724,40.821,40.821,0,0,1-.958,5.913m-12.8,18.642v-3.39q0-4.052-.258-6.742H10.8v5.636h17.33v4.5ZM22.043,611.4V594.746q0-4.9-.258-7.774h5.531v9.8h3.835v4.9H27.316V611.4Z" transform="translate(-0.237 -212.461)" fill="#fff"/><path d="M51.932,596.109a8.478,8.478,0,0,1,2.526-6.244,8.675,8.675,0,0,1,6.4-2.524,8.6,8.6,0,0,1,8.849,8.768A8.42,8.42,0,0,1,67.2,602.28a8.565,8.565,0,0,1-6.342,2.523,8.706,8.706,0,0,1-6.4-2.5,8.372,8.372,0,0,1-2.526-6.19m26.254,24.058H72.912v-7.995H55.988v-4.5h22.2ZM58.053,593.015a5.046,5.046,0,0,0,0,6.116,3.483,3.483,0,0,0,2.8,1.216A3.388,3.388,0,0,0,63.6,599.13a5.117,5.117,0,0,0,0-6.116,3.391,3.391,0,0,0-2.746-1.216,3.486,3.486,0,0,0-2.8,1.216m14.9,13.153V594.746q0-4.311-.258-7.773h5.494V593.6h3.945v4.9H78.186v7.663Z" transform="translate(-18.77 -212.461)" fill="#fff"/><path d="M101.821,607.483v-4.605H121.7a61.718,61.718,0,0,0,1.254-9.5h-17.7v-4.495h23.34a69.132,69.132,0,0,1-1.549,14h5.051v4.605h-12.5v13.3h-5.31v-13.3Z" transform="translate(-36.801 -213.15)" fill="#fff"/><path d="M154.84,596.683v-4.311h16.629v2.874h4.167v-.626q0-4.9-.258-7.774h5.531v20.189h-5.273v-7.111h-4.167v-3.242h-5.531q1.032,3.943,7.448,5.748l-2.987,3.758a12.256,12.256,0,0,1-3.835-1.677,11.926,11.926,0,0,1-3.356-3,13.868,13.868,0,0,1-3.429,3.592,14.377,14.377,0,0,1-4.093,2.339l-3.171-3.648a15.123,15.123,0,0,0,5.107-2.892,7.815,7.815,0,0,0,2.637-4.219Zm5.752,22.069a5.294,5.294,0,0,1-3.171-4.863,5.366,5.366,0,0,1,3.208-4.9,18.515,18.515,0,0,1,8.739-1.732q5.605,0,8.757,1.732a5.4,5.4,0,0,1,3.153,4.937,5.249,5.249,0,0,1-3.134,4.862q-3.135,1.659-8.776,1.658-5.605,0-8.775-1.695m7.522-27.963h-9.992v-4.163h9.992Zm-5.457,23.063q0,2.432,6.711,2.432t6.711-2.321q0-2.467-6.711-2.468t-6.711,2.358" transform="translate(-55.124 -212.335)" fill="#fff"/><path d="M239.029,609.457a7.717,7.717,0,0,1-2.876,6.521,11.271,11.271,0,0,1-7.08,2.211,10.764,10.764,0,0,1-6.656-2.063,7.713,7.713,0,0,1-1.437-10.2,11.575,11.575,0,0,1,3.3-3.206q-3.8-2.726-3.8-6.484a6.208,6.208,0,0,1,2.655-5.453,10.975,10.975,0,0,1,6.416-1.842,9.577,9.577,0,0,1,5.826,1.786,6.028,6.028,0,0,1,2.434,5.176q0,3.685-3.909,6.41,5.125,2.727,5.126,7.147m-5.31.627a3.667,3.667,0,0,0-.388-1.732,3.913,3.913,0,0,0-1.364-1.381,15.941,15.941,0,0,0-1.53-.921q-.554-.277-2.028-.9-3.393,1.806-3.393,4.531a3.864,3.864,0,0,0,1.217,3.04,5.121,5.121,0,0,0,6.213.074,3.284,3.284,0,0,0,1.272-2.708M232.5,595.862q0-2.763-3.355-2.763a3.909,3.909,0,0,0-2.434.756,2.467,2.467,0,0,0-1,2.081q0,2.284,3.761,4.126,3.023-1.769,3.024-4.2" transform="translate(-79.396 -213.171)" fill="#fff"/><path d="M252.7,602.989h30.272v4.31H252.7Zm3.54-7.516v-3.942h23.34v3.942h-7.854q2.249,2.284,9.55,2.911l-2.286,3.721a25.9,25.9,0,0,1-6.029-1.142,11.169,11.169,0,0,1-5.107-2.947,11.1,11.1,0,0,1-5.144,3.02,24.449,24.449,0,0,1-5.992,1.106l-2.471-3.685q7.412-.552,9.735-2.984Zm-.406,18.974q0-2.8,3.19-4.385a20.185,20.185,0,0,1,8.831-1.584q5.678,0,8.831,1.584t3.153,4.421q0,2.837-3.135,4.366t-8.849,1.529q-5.715,0-8.868-1.547t-3.153-4.384m5.273-.037q0,2.063,6.747,2.063t6.748-1.952q0-2.136-6.748-2.137t-6.747,2.026m.148-28.074h13.274v3.869H261.254Z" transform="translate(-91.333 -212.231)" fill="#fff"/><path d="M323.4,611.951V596.956q0-5.009-.258-7.921h12.278v4.606h-6.784v13.7h1.106a37.885,37.885,0,0,0,6.9-.626v4.458a34.671,34.671,0,0,1-7.854.773Zm14.307,6.632V595.225q0-4.827-.258-7.7h5.2v10.647H344.6v-3.5q0-4.826-.258-7.7h5.2v33.121H344.6V603.11H342.65v15.473Z" transform="translate(-116.794 -212.461)" fill="#fff"/><path d="M373.443,588.263h16.409a17.093,17.093,0,0,1-5.144,12.121,26.159,26.159,0,0,1-4.922,3.74,23.874,23.874,0,0,1-5.42,2.34l-2.95-3.832a23.554,23.554,0,0,0,7.946-4.052,11.323,11.323,0,0,0,4-5.821h-9.919Zm2.1,25.163a5.9,5.9,0,0,1,3.116-5.287q3.116-1.9,8.61-1.9,5.567,0,8.665,1.916a5.946,5.946,0,0,1,3.1,5.3,5.812,5.812,0,0,1-3.1,5.269q-3.1,1.841-8.665,1.842t-8.647-1.86a5.858,5.858,0,0,1-3.079-5.287m5.236-.037q0,2.8,6.49,2.8,6.526,0,6.526-2.689,0-2.874-6.526-2.874-6.49,0-6.49,2.763m12.278-7.405v-11.5q-.037-5.009-.258-7.515h5.531v7.037h3.909v4.9h-3.909v7.073Z" transform="translate(-134.24 -212.461)" fill="#fff"/><path d="M425.085,603.773V596.22q0-4.973-.258-7.921h15.745v4.568h-10.25v6.263h2.323a55.657,55.657,0,0,0,10.693-.995v4.605a56.2,56.2,0,0,1-11.024,1.031Zm2.028,9.579a5.969,5.969,0,0,1,3.153-5.323q3.152-1.934,8.61-1.935,5.531,0,8.628,1.935a6.015,6.015,0,0,1,3.1,5.36,5.9,5.9,0,0,1-3.078,5.305q-3.079,1.879-8.646,1.879t-8.665-1.9a5.934,5.934,0,0,1-3.1-5.324m5.273-.037q0,2.874,6.49,2.874,6.526,0,6.526-2.763,0-2.91-6.526-2.911-6.49,0-6.49,2.8m12.278-7.368V592.9q-.075-3.574-.258-5.932H449.9v5.784h3.908v4.9H449.9v8.289Z" transform="translate(-153.545 -212.461)" fill="#fff"/><path d="M.118,673.12q0-6.543,3.513-10.51H6.6a17.983,17.983,0,0,0,0,21H3.631Q.118,679.643.118,673.12" transform="translate(-0.043 -239.838)" fill="#fff"/><path d="M17.355,664.516v3.944a9.735,9.735,0,0,0,1.236,4.79,10.386,10.386,0,0,0,3.709,3.77L20.261,679.1a11.3,11.3,0,0,1-2.494-2.016,9.333,9.333,0,0,1-1.93-2.817,10.33,10.33,0,0,1-1.854,3.088,10.714,10.714,0,0,1-2.483,2.222l-2.212-1.951a10.748,10.748,0,0,0,3.655-4.107,11.233,11.233,0,0,0,1.291-5.168q0-2.059-.152-3.836Zm2.559,7.455v-2.883h3.4v-.694q0-2.838-.151-4.529H26.42v19.481h-3.1V671.971Z" transform="translate(-3.357 -240.293)" fill="#fff"/><path d="M40.295,673.6v-2.319H58.1V673.6H50.748v1.148h5.1v5.179H45.782v.889H56.127v2.145H42.507v-1.409q0-1.668-.13-3.706H52.592V676.9H42.507v-2.145h5.14V673.6Zm8.914-3.077A12.261,12.261,0,0,1,44,669.638a2.791,2.791,0,0,1-1.844-2.578A2.854,2.854,0,0,1,44,664.448a11.888,11.888,0,0,1,5.205-.921,11.9,11.9,0,0,1,5.194.921,2.855,2.855,0,0,1,1.854,2.612,2.8,2.8,0,0,1-1.854,2.568,12.16,12.16,0,0,1-5.194.9m0-2.319q3.968,0,3.969-1.192,0-1.171-3.969-1.17t-3.969,1.17q0,1.193,3.969,1.192" transform="translate(-14.564 -240.17)" fill="#fff"/><path d="M71.93,678.558v-8.82q0-2.947-.151-4.659H79v2.708H75.01v8.062h.651a22.289,22.289,0,0,0,4.056-.369V678.1a20.4,20.4,0,0,1-4.619.455Zm8.415,3.9V668.72q0-2.839-.152-4.529h3.058v6.262H84.4v-2.058q0-2.839-.152-4.529h3.058v19.481H84.4v-9.99H83.252v9.1Z" transform="translate(-25.943 -240.293)" fill="#fff"/><path d="M100.953,669a4.691,4.691,0,0,1,1.474-3.521,5.194,5.194,0,0,1,3.752-1.419,5.14,5.14,0,0,1,3.73,1.43,4.7,4.7,0,0,1,1.475,3.51,4.631,4.631,0,0,1-1.475,3.489,5.673,5.673,0,0,1-7.482,0A4.63,4.63,0,0,1,100.953,669m2.884,14.042V679.6q0-2.8-.152-4.594h3.231v1.669h6.854V675h3.058v8.039Zm.716-15.721a2.355,2.355,0,0,0-.608,1.658,2.391,2.391,0,0,0,.608,1.668,2.08,2.08,0,0,0,1.626.672,2.024,2.024,0,0,0,1.594-.672,2.635,2.635,0,0,0,.011-3.326,2.035,2.035,0,0,0-1.6-.661,2.1,2.1,0,0,0-1.626.661m2.363,13.251h6.853v-1.431h-6.853Zm6.832-6.327v-5.808q0-2.882-.152-4.572h3.232v10.38Z" transform="translate(-36.487 -240.293)" fill="#fff"/><path d="M129.956,675.93v-2.708h11.69a36.315,36.315,0,0,0,.738-5.591h-10.41v-2.643H145.7a40.635,40.635,0,0,1-.911,8.235h2.972v2.708h-7.353v7.823h-3.123V675.93Z" transform="translate(-46.97 -240.699)" fill="#fff"/><path d="M173.51,675.156v-2.6h-3.535a4.951,4.951,0,0,1-4.012,1.8,5.137,5.137,0,0,1-3.774-1.484,4.917,4.917,0,0,1-1.5-3.63,5,5,0,0,1,1.5-3.683,5.116,5.116,0,0,1,3.774-1.5,5.024,5.024,0,0,1,3.9,1.712h3.579q-.044-1.343-.087-1.907h3.232v11.29Zm3.08,8.234h-3.1v-4.7H163.3v-2.644h13.3ZM164.315,667.42a2.68,2.68,0,0,0-.608,1.8,2.721,2.721,0,0,0,.608,1.809,2.034,2.034,0,0,0,1.648.726,1.981,1.981,0,0,0,1.616-.726,2.758,2.758,0,0,0,.6-1.809,2.717,2.717,0,0,0-.6-1.8,2,2,0,0,0-1.616-.715,2.049,2.049,0,0,0-1.648.715m6.853,1.82a3.648,3.648,0,0,1-.065.715h2.407v-1.582H171.1q.065.844.065.866" transform="translate(-58.079 -240.293)" fill="#fff"/><path d="M209.989,669.225a4.122,4.122,0,0,1-1.865,3.532,4.364,4.364,0,0,1,2.255,3.923,5.4,5.4,0,0,1-.434,2.2,4.578,4.578,0,0,1-1.16,1.625,6.8,6.8,0,0,1-1.713,1.083,8.932,8.932,0,0,1-2.038.639,11.936,11.936,0,0,1-2.18.2,19.419,19.419,0,0,1-2.8-.282V679.67q1.822.152,2.3.152a10.885,10.885,0,0,0,2.331-.227,3.876,3.876,0,0,0,1.811-.943,2.409,2.409,0,0,0,.781-1.863,2.11,2.11,0,0,0-.987-1.908,4.461,4.461,0,0,0-2.44-.628h-1.6v-2.6h1.561a3.971,3.971,0,0,0,2.19-.585,1.909,1.909,0,0,0,.911-1.712,1.33,1.33,0,0,0-.672-1.224,3.4,3.4,0,0,0-1.757-.4,5.2,5.2,0,0,0-3.21,1.408l-1.453-2.167a7.839,7.839,0,0,1,5.032-1.951,5.942,5.942,0,0,1,3.633,1.116,3.63,3.63,0,0,1,1.507,3.088" transform="translate(-72.22 -240.711)" fill="#fff"/><path d="M220.721,674.832v-5.959q0-2.471-.152-4.443H223.8v2.99h3.3v-2.99h3.08v3.706h2.451q0-2.362-.152-4.269h3.254v13.977h-3.1v-6.826h-2.451v3.814Zm2.017,8.061v-2.47q0-2.426-.152-4.03h3.254v3.792H236.01v2.708Zm1.063-10.748h3.3v-2.059h-3.3Z" transform="translate(-79.72 -240.293)" fill="#fff"/><path d="M248.587,674.421v-2.189h17.806v2.189H259.04v.953h5.1V680.1H254.074v.758h10.367v2.059H250.8V681.7q0-1.646-.152-3.488h10.236v-.78H250.8v-2.059h5.14v-.953Zm2.082-6.154v-2.146H264.4v2.146h-4.663a4.09,4.09,0,0,0,2.028,1,29.644,29.644,0,0,0,3.568.52l-1.236,2.058a14.184,14.184,0,0,1-3.513-.541,6.454,6.454,0,0,1-3.08-1.6,6.313,6.313,0,0,1-3.091,1.636,14.348,14.348,0,0,1-3.524.531l-1.344-2.015a27.033,27.033,0,0,0,3.632-.52,4.2,4.2,0,0,0,2.115-1.062Zm2.95-4.876h7.808v2.081h-7.808Z" transform="translate(-89.847 -240.121)" fill="#fff"/><path d="M278.475,675.93v-2.708h11.69a36.313,36.313,0,0,0,.738-5.591h-10.41v-2.643H294.22a40.68,40.68,0,0,1-.911,8.235h2.971v2.708h-7.353v7.823h-3.123V675.93Z" transform="translate(-100.649 -240.699)" fill="#fff"/><path d="M313,673.12q0,6.522-3.535,10.488h-2.971a16.6,16.6,0,0,0,2.679-5.233,19.215,19.215,0,0,0,.727-5.255,17.25,17.25,0,0,0-3.405-10.51h2.971Q313,666.575,313,673.12" transform="translate(-110.776 -239.838)" fill="#fff"/></g></svg>