<svg xmlns="http://www.w3.org/2000/svg" width="270.928" height="98.83" viewBox="0 0 270.928 98.83"><g transform="translate(0 0)"><path d="M8.8,128.006v-1.759a5.753,5.753,0,0,1,.44-2.183,9.573,9.573,0,0,1,1.415-2.308q.974-1.225,1.666-1.947t2.043-2.073q1.415-1.381,2.279-2.34a13.981,13.981,0,0,0,1.634-2.261,4.756,4.756,0,0,0,.77-2.371,3.337,3.337,0,0,0-.817-2.34,2.8,2.8,0,0,0-2.169-.895,3.105,3.105,0,0,0-2.31,1.146,7.433,7.433,0,0,0-1.587,2.842L8.23,109.791a10.678,10.678,0,0,1,3.065-4.381A7.237,7.237,0,0,1,16.12,103.7a7.545,7.545,0,0,1,5.343,1.837,6.537,6.537,0,0,1,1.98,5.041,7.741,7.741,0,0,1-.487,2.7,10.315,10.315,0,0,1-1.556,2.7q-1.069,1.383-1.823,2.183t-2.232,2.246a19.473,19.473,0,0,0-3.269,3.768h9.9v3.832Z" transform="translate(-8.23 -102.347)" fill="#f6a800"/><path d="M77.046,107q2.105,3.3,2.106,9.171t-2.106,9.155a6.648,6.648,0,0,1-5.909,3.282,6.538,6.538,0,0,1-5.862-3.282q-2.059-3.281-2.059-9.155,0-5.9,2.059-9.186a6.538,6.538,0,0,1,5.862-3.282,6.64,6.64,0,0,1,5.909,3.3m-9.461,9.171a18.354,18.354,0,0,0,.88,6.187q.879,2.419,2.672,2.418,1.823,0,2.75-2.434a21.049,21.049,0,0,0,0-12.358q-.927-2.45-2.75-2.45a2.421,2.421,0,0,0-2.027,1.209,7.932,7.932,0,0,0-1.179,3.109,24.247,24.247,0,0,0-.346,4.318" transform="translate(-45.583 -102.347)" fill="#f6a800"/><path d="M118.572,128.006v-1.759a5.753,5.753,0,0,1,.44-2.183,9.574,9.574,0,0,1,1.415-2.308q.974-1.225,1.666-1.947t2.043-2.073q1.414-1.381,2.279-2.34a13.982,13.982,0,0,0,1.634-2.261,4.756,4.756,0,0,0,.77-2.371,3.337,3.337,0,0,0-.817-2.34,2.8,2.8,0,0,0-2.169-.895,3.105,3.105,0,0,0-2.31,1.146,7.433,7.433,0,0,0-1.587,2.842l-3.929-1.727a10.678,10.678,0,0,1,3.065-4.381A7.237,7.237,0,0,1,125.9,103.7a7.545,7.545,0,0,1,5.343,1.837,6.537,6.537,0,0,1,1.98,5.041,7.741,7.741,0,0,1-.487,2.7,10.316,10.316,0,0,1-1.556,2.7q-1.069,1.383-1.823,2.183t-2.232,2.246a19.473,19.473,0,0,0-3.269,3.768h9.9v3.832Z" transform="translate(-82.802 -102.347)" fill="#f6a800"/><path d="M188.42,109.791a5.974,5.974,0,0,1-2.7,5.119,6.326,6.326,0,0,1,3.269,5.685,7.837,7.837,0,0,1-.629,3.188,6.649,6.649,0,0,1-1.681,2.355,9.878,9.878,0,0,1-2.483,1.57,12.921,12.921,0,0,1-2.955.927,17.3,17.3,0,0,1-3.159.283,28.145,28.145,0,0,1-4.055-.408v-3.58q2.64.22,3.332.22a15.739,15.739,0,0,0,3.379-.33,5.614,5.614,0,0,0,2.625-1.366,3.492,3.492,0,0,0,1.132-2.7,3.055,3.055,0,0,0-1.43-2.764,6.459,6.459,0,0,0-3.536-.911H177.2v-3.769h2.263a5.749,5.749,0,0,0,3.174-.848,2.765,2.765,0,0,0,1.32-2.481,1.928,1.928,0,0,0-.974-1.775,4.932,4.932,0,0,0-2.546-.581,7.538,7.538,0,0,0-4.652,2.041l-2.106-3.14a11.361,11.361,0,0,1,7.293-2.827,8.6,8.6,0,0,1,5.265,1.618,5.259,5.259,0,0,1,2.185,4.475" transform="translate(-120.62 -102.347)" fill="#f6a800"/><path d="M257.676,117.765v-3.832H262.3v-.345q-.031-2.92-.188-4.9h4.683v5.182a69.483,69.483,0,0,0,8.392-.691v3.737a92.18,92.18,0,0,1-13.736.848Zm15.056-5.716h-4.4a29.576,29.576,0,0,0,.566-3.565q.251-2.277.251-3.376h-9.933v-3.832h14.647a49.689,49.689,0,0,1-.314,5.732,34.853,34.853,0,0,1-.817,5.041M261.825,127.94v-2.889q0-3.454-.22-5.747h4.715v4.805h14.773v3.832Zm14.082-6.752v-14.2q0-4.176-.22-6.626H280.4v8.354h3.269V112.9H280.4v8.291Z" transform="translate(-177.681 -100.083)" fill="#f6a800"/><path d="M344.712,108.155a7.227,7.227,0,0,1,2.153-5.324,7.394,7.394,0,0,1,5.453-2.151,7.329,7.329,0,0,1,7.544,7.475,7.178,7.178,0,0,1-2.137,5.26,7.3,7.3,0,0,1-5.407,2.152,7.42,7.42,0,0,1-5.453-2.136,7.135,7.135,0,0,1-2.153-5.276m22.38,20.508H362.6v-6.815H348.169v-3.832h18.922ZM349.93,105.517a4.3,4.3,0,0,0,0,5.213,2.971,2.971,0,0,0,2.389,1.037,2.891,2.891,0,0,0,2.342-1.037,4.362,4.362,0,0,0,0-5.213,2.89,2.89,0,0,0-2.342-1.037,2.97,2.97,0,0,0-2.389,1.037m12.7,11.212v-9.736q0-3.674-.22-6.626h4.683v5.653h3.363V110.2h-3.363v6.532Z" transform="translate(-236.806 -100.083)" fill="#f6a800"/><path d="M429.4,119.46v-3.926h16.942a52.74,52.74,0,0,0,1.069-8.1H432.319V103.6h19.9a58.969,58.969,0,0,1-1.32,11.934H455.2v3.926H444.546V130.8H440.02V119.46Z" transform="translate(-294.332 -102.281)" fill="#f6a800"/><path d="M544.366,117.667v-3.832h10.655v-2.073a11.236,11.236,0,0,1-5.862-1.916A4.961,4.961,0,0,1,547.1,105.7a5.108,5.108,0,0,1,2.672-4.585,18.13,18.13,0,0,1,15.04,0A5.1,5.1,0,0,1,567.5,105.7a4.949,4.949,0,0,1-2.075,4.146,11.335,11.335,0,0,1-5.878,1.916v2.073h10.624v3.832Zm3.269,9.673v-2.324q0-3.58-.22-5.873h4.746v4.271h15.81v3.926Zm9.65-19.158q5.752,0,5.752-2.544,0-2.512-5.752-2.512t-5.752,2.512q0,2.544,5.752,2.544" transform="translate(-372.432 -99.483)" fill="#f6a800"/><rect width="12.824" height="3.989" transform="translate(200.41 12.5)" fill="#f6a800"/><path d="M681.584,125.948v-3.894h10.655v-4.679a9.7,9.7,0,0,1-5.768-2.5,7.015,7.015,0,0,1-2.059-5.229,7.1,7.1,0,0,1,2.687-5.857,13.813,13.813,0,0,1,14.8,0,7.071,7.071,0,0,1,2.719,5.857,6.973,6.973,0,0,1-2.09,5.214,9.764,9.764,0,0,1-5.768,2.512v4.679H707.39v3.894ZM694.5,113.857a7,7,0,0,0,4.149-1.083,4.136,4.136,0,0,0,.016-6.375,8.575,8.575,0,0,0-8.345,0,4.177,4.177,0,0,0,0,6.375,6.97,6.97,0,0,0,4.18,1.083" transform="translate(-465.646 -100.949)" fill="#f6a800"/><path d="M767.836,124.318h25.806v3.894H767.836Zm2.106-3.769v-3.863h3.709l-.283-6.847h4.526l.283,6.847h5.061l.315-6.91h4.526l-.314,6.91H791.5v3.863Zm.6-15.577h20.368V108.8H770.539Z" transform="translate(-524.238 -103.213)" fill="#f6a800"/></g><g transform="translate(0.812 41.827)"><path d="M23.552,285.124V270.193H10.762v-7.718H22.856A162.656,162.656,0,0,0,47.17,261.02v7.655a113.519,113.519,0,0,1-14.5,1.265v15.184Zm-9.118-38.719v-7.086H43.688v7.086H34.7a12.05,12.05,0,0,0,4.559,4.144,22.169,22.169,0,0,0,6.585,2.5l-4.433,6.137a19.46,19.46,0,0,1-6.458-2.5,16.533,16.533,0,0,1-5.445-4.65q-3.609,5.5-12.854,8.1L11.965,254a21.721,21.721,0,0,0,7.092-2.91,13.042,13.042,0,0,0,4.686-4.682Zm23.048-9.617H20.766v-6.706H37.483ZM48.817,286.9V243.242q0-8.287-.443-13.223h9.5V286.9Z" transform="translate(-10.762 -230.019)" fill="#fff"/><path d="M183.13,245.013a13.693,13.693,0,0,1,4.306-10.281,15.154,15.154,0,0,1,10.954-4.144,15.449,15.449,0,0,1,9.245,2.816,13.833,13.833,0,0,1,5.319,7.37h7.535q-.128-7.528-.443-10.755h9.435v30.3h-8.991V249h-7.472a13.758,13.758,0,0,1-5.287,7.434,15.448,15.448,0,0,1-9.339,2.879,15.214,15.214,0,0,1-10.954-4.112,13.517,13.517,0,0,1-4.306-10.186m8.422,41V275.95q0-8.1-.443-13.413h9.434v4.935h20.009v-4.935h8.928V286.01Zm2.09-45.9a6.879,6.879,0,0,0-1.773,4.84,6.992,6.992,0,0,0,1.773,4.872,6.084,6.084,0,0,0,4.749,1.961,5.916,5.916,0,0,0,4.654-1.961,7.7,7.7,0,0,0,.032-9.711,5.94,5.94,0,0,0-4.686-1.93,6.134,6.134,0,0,0-4.749,1.93m6.9,38.687h20.009v-4.112H200.543Z" transform="translate(-127.853 -230.019)" fill="#fff"/><path d="M360.088,261.527V244.634q0-7.212-.443-12.969h9.435v8.225h9.941v-8.225h8.928v29.862Zm43.184,25.5h-9.118v-13.35H365.09v-7.782h38.181Zm-34.192-33.342h9.941v-5.947h-9.941Zm25.138,9.617V243.369q0-7.4-.443-13.349h9.5v11.324h6.711v8.415h-6.711V263.3Z" transform="translate(-247.761 -230.02)" fill="#fff"/><path d="M560.432,250.327h-17.6v4.365h4.686a106.383,106.383,0,0,0,18.109-1.455v7.4a112.577,112.577,0,0,1-19,1.518h-12.79v-7.466q0-5.82-.443-11.578h17.919v-3.922H533.9v-7.466h26.531ZM539.727,286.01v-7.339q0-7.655-.443-13.223h37.738V286.01Zm8.928-7.4H568.03v-5.82H548.655Zm19.312-15.374V243.368q0-8.414-.443-13.349h9.5v11.135h6.712v8.415h-6.712v13.665Z" transform="translate(-365.792 -230.019)" fill="#fff"/><path d="M706.158,277.026v-7.339h13.994v-3.353a13.967,13.967,0,0,1-7.345-3.037,7.376,7.376,0,0,1-2.659-5.757,7.75,7.75,0,0,1,3.863-6.77q3.862-2.53,10.448-2.531t10.448,2.531a7.752,7.752,0,0,1,3.862,6.77,7.233,7.233,0,0,1-2.564,5.631,14.281,14.281,0,0,1-7.06,3.1v3.037a122.374,122.374,0,0,0,13.677-1.329v7.339a104.16,104.16,0,0,1-12.189,1.265q-7.694.444-12.253.443Zm2.406-37.327h31.849v7.212H708.564Zm24.948-2.214H715.656v-6.706h17.856ZM724.457,260.7q5.635,0,5.636-3.163,0-3.1-5.636-3.1-5.7,0-5.7,3.1,0,3.165,5.7,3.163M744.213,286.9V243.242q0-8.287-.444-13.223h9.5V286.9Z" transform="translate(-483.151 -230.019)" fill="#fff"/></g></svg>