<svg xmlns="http://www.w3.org/2000/svg" width="539.482" height="196.795" viewBox="0 0 539.482 196.795"><g transform="translate(-5.255 -63.474)"><path d="M9.357,152.1v-3.5a11.456,11.456,0,0,1,.876-4.346,19.062,19.062,0,0,1,2.817-4.6q1.939-2.439,3.317-3.877t4.068-4.127q2.817-2.751,4.538-4.659a27.839,27.839,0,0,0,3.254-4.5,9.47,9.47,0,0,0,1.534-4.722,6.645,6.645,0,0,0-1.628-4.659,5.569,5.569,0,0,0-4.319-1.782,6.183,6.183,0,0,0-4.6,2.282,14.8,14.8,0,0,0-3.161,5.659L8.23,115.83a21.263,21.263,0,0,1,6.1-8.724A14.41,14.41,0,0,1,23.94,103.7q6.7,0,10.64,3.659t3.943,10.037a15.415,15.415,0,0,1-.97,5.378,20.54,20.54,0,0,1-3.1,5.378q-2.129,2.753-3.63,4.346t-4.444,4.472q-5.2,5.065-6.51,7.5H39.588v7.63Z" transform="translate(-2.975 -37.535)" fill="#f6a800"/><path d="M90.755,110.265q4.193,6.566,4.193,18.261t-4.193,18.229a13.238,13.238,0,0,1-11.766,6.535,13.019,13.019,0,0,1-11.673-6.535q-4.1-6.534-4.1-18.229,0-11.757,4.1-18.292A13.018,13.018,0,0,1,78.989,103.7a13.221,13.221,0,0,1,11.766,6.567M71.916,128.525a36.546,36.546,0,0,0,1.753,12.32q1.751,4.816,5.32,4.815,3.629,0,5.476-4.847a34.9,34.9,0,0,0,1.847-12.289,35.175,35.175,0,0,0-1.847-12.32q-1.847-4.878-5.476-4.878a4.822,4.822,0,0,0-4.037,2.407,15.794,15.794,0,0,0-2.347,6.192,48.282,48.282,0,0,0-.688,8.6" transform="translate(-22.848 -37.535)" fill="#f6a800"/><path d="M119.133,152.1v-3.5a11.456,11.456,0,0,1,.876-4.346,19.063,19.063,0,0,1,2.817-4.6q1.939-2.439,3.317-3.877t4.068-4.127q2.816-2.751,4.538-4.659a27.84,27.84,0,0,0,3.254-4.5,9.47,9.47,0,0,0,1.534-4.722,6.645,6.645,0,0,0-1.628-4.659,5.569,5.569,0,0,0-4.319-1.782,6.183,6.183,0,0,0-4.6,2.282,14.8,14.8,0,0,0-3.161,5.659l-7.824-3.439a21.263,21.263,0,0,1,6.1-8.724,14.41,14.41,0,0,1,9.607-3.408q6.7,0,10.64,3.659t3.943,10.037a15.414,15.414,0,0,1-.97,5.378,20.54,20.54,0,0,1-3.1,5.378Q142.1,130.9,140.6,132.5t-4.444,4.472q-5.2,5.065-6.51,7.5h19.716v7.63Z" transform="translate(-42.651 -37.535)" fill="#f6a800"/><path d="M203.032,115.83a11.9,11.9,0,0,1-5.383,10.193,12.6,12.6,0,0,1,6.509,11.319,15.606,15.606,0,0,1-1.252,6.348,13.24,13.24,0,0,1-3.348,4.69,19.668,19.668,0,0,1-4.945,3.126,25.73,25.73,0,0,1-5.883,1.845,34.461,34.461,0,0,1-6.291.563,56.044,56.044,0,0,1-8.074-.813v-7.129q5.258.438,6.635.438a31.341,31.341,0,0,0,6.729-.657,11.18,11.18,0,0,0,5.226-2.721,6.953,6.953,0,0,0,2.253-5.378,6.083,6.083,0,0,0-2.848-5.5,12.862,12.862,0,0,0-7.042-1.814h-4.632v-7.5h4.506a11.448,11.448,0,0,0,6.321-1.689,5.506,5.506,0,0,0,2.629-4.94,3.84,3.84,0,0,0-1.94-3.533,9.821,9.821,0,0,0-5.07-1.157q-4.318,0-9.263,4.065l-4.194-6.253q6.885-5.628,14.521-5.629a17.127,17.127,0,0,1,10.483,3.221,10.472,10.472,0,0,1,4.35,8.911" transform="translate(-62.772 -37.535)" fill="#f6a800"/><path d="M257.676,135.012v-7.63h9.2v-.688q-.062-5.815-.375-9.756h9.326v10.319a138.364,138.364,0,0,0,16.711-1.376v7.442a183.552,183.552,0,0,1-27.352,1.689Zm29.981-11.382h-8.763a58.89,58.89,0,0,0,1.127-7.1q.5-4.534.5-6.722H260.743v-7.63H289.91a98.936,98.936,0,0,1-.626,11.413,69.383,69.383,0,0,1-1.627,10.037m-21.719,31.644V149.52q0-6.878-.438-11.445h9.388v9.568h29.417v7.63Zm28.04-13.445V113.561q0-8.316-.439-13.195h9.389V117h6.509v8.317h-6.509v16.51Z" transform="translate(-93.132 -36.329)" fill="#f6a800"/><path d="M344.712,115.875a14.391,14.391,0,0,1,4.287-10.6,14.723,14.723,0,0,1,10.859-4.284,14.594,14.594,0,0,1,15.022,14.884,14.294,14.294,0,0,1-4.256,10.475,14.541,14.541,0,0,1-10.766,4.284A14.774,14.774,0,0,1,349,126.381a14.208,14.208,0,0,1-4.287-10.506m44.563,40.836h-8.95v-13.57H351.6v-7.63h37.679ZM355.1,110.622a8.564,8.564,0,0,0,0,10.381,5.916,5.916,0,0,0,4.757,2.064A5.756,5.756,0,0,0,364.521,121a8.685,8.685,0,0,0,0-10.381,5.754,5.754,0,0,0-4.663-2.064,5.914,5.914,0,0,0-4.757,2.064m25.286,22.326V113.561q0-7.317-.438-13.195h9.326v11.256h6.7v8.317h-6.7v13.008Z" transform="translate(-124.589 -36.329)" fill="#f6a800"/><path d="M429.4,135.181v-7.817h33.735a105.021,105.021,0,0,0,2.129-16.135H435.216V103.6h39.62a117.418,117.418,0,0,1-2.629,23.764h8.575v7.817H459.563v22.576h-9.012V135.181Z" transform="translate(-155.196 -37.499)" fill="#f6a800"/><path d="M544.366,135.692v-7.63h21.217v-4.127q-7.574-.687-11.672-3.815a9.879,9.879,0,0,1-4.1-8.255,10.171,10.171,0,0,1,5.32-9.13q5.319-3.251,14.959-3.252t14.99,3.252a10.161,10.161,0,0,1,5.352,9.13,9.855,9.855,0,0,1-4.132,8.255q-4.131,3.128-11.7,3.815v4.127h21.155v7.63Zm6.509,19.261v-4.628q0-7.129-.438-11.695h9.451v8.505H591.37v7.817Zm19.215-38.148q11.454,0,11.454-5.065,0-5-11.454-5t-11.453,5q0,5.066,11.453,5.065" transform="translate(-196.75 -36.009)" fill="#f6a800"/><rect width="25.536" height="7.942" transform="translate(404.321 88.364)" fill="#f6a800"/><path d="M681.584,150.044v-7.755H702.8v-9.318q-7.386-.938-11.485-4.972a13.969,13.969,0,0,1-4.1-10.413,14.143,14.143,0,0,1,5.351-11.663q5.352-4.282,14.74-4.283,9.326,0,14.74,4.283a14.08,14.08,0,0,1,5.413,11.663,13.884,13.884,0,0,1-4.162,10.382q-4.164,4.066-11.485,5v9.318h21.154v7.755Zm25.724-24.077q5.258,0,8.262-2.157a8.235,8.235,0,0,0,.031-12.7q-2.973-2.158-8.293-2.158-5.383,0-8.324,2.158a8.318,8.318,0,0,0,0,12.7q2.94,2.157,8.324,2.157" transform="translate(-246.344 -36.79)" fill="#f6a800"/><path d="M767.836,143.495h51.386v7.755H767.836Zm4.193-7.5V128.3h7.386l-.563-13.633h9.013l.563,13.633H798.5l.627-13.759h9.013l-.626,13.759h7.448v7.692Zm1.19-31.018h40.558v7.63H773.219Z" transform="translate(-277.518 -37.996)" fill="#f6a800"/><path d="M36.231,339.746V310.015H10.762V294.646H34.844q30.006,0,48.416-2.9v15.243a226.02,226.02,0,0,1-28.873,2.519v30.235Zm-18.156-77.1v-14.11h58.25v14.11h-17.9q2.772,4.662,9.079,8.251a44.142,44.142,0,0,0,13.112,4.976L71.786,288.1a38.748,38.748,0,0,1-12.86-4.976,32.92,32.92,0,0,1-10.843-9.26q-7.187,10.96-25.6,16.125l-9.33-12.22a43.251,43.251,0,0,0,14.121-5.795q6.555-4.157,9.33-9.322ZM63.969,243.5H30.683V230.145H63.969Zm22.569,99.775V256.348q0-16.5-.882-26.329h18.912V343.274Z" transform="translate(-3.89 -83.258)" fill="#fff"/><path d="M183.13,259.876A27.265,27.265,0,0,1,191.7,239.4q8.573-8.25,21.812-8.252a30.763,30.763,0,0,1,18.408,5.606,27.546,27.546,0,0,1,10.591,14.676h15q-.255-14.99-.883-21.416h18.787v60.344h-17.9v-22.55H242.642a27.4,27.4,0,0,1-10.528,14.8,30.76,30.76,0,0,1-18.6,5.732q-13.239,0-21.812-8.189a26.916,26.916,0,0,1-8.574-20.283M199.9,341.51V321.479q0-16.125-.883-26.708H217.8V304.6h39.842v-9.826h17.778V341.51Zm4.161-91.4a13.7,13.7,0,0,0-3.531,9.637,13.923,13.923,0,0,0,3.531,9.7,12.115,12.115,0,0,0,9.456,3.905,11.781,11.781,0,0,0,9.267-3.905,15.323,15.323,0,0,0,.063-19.338,11.828,11.828,0,0,0-9.33-3.842,12.214,12.214,0,0,0-9.456,3.842M217.8,327.149h39.842V318.96H217.8Z" transform="translate(-66.189 -83.258)" fill="#fff"/><path d="M360.527,292.757V259.12q0-14.361-.883-25.825h18.787v16.377h19.8V233.3H416v59.462Zm85.989,50.77H428.36V316.945H370.488v-15.5h76.028Zm-68.085-66.391h19.8V265.293h-19.8Zm50.055,19.149V256.6q0-14.74-.883-26.581h18.913v22.55H459.88v16.756H446.516v26.959Z" transform="translate(-129.986 -83.258)" fill="#fff"/><path d="M587.233,270.458H552.181v8.693h9.331a211.83,211.83,0,0,0,36.059-2.9v14.739a224.164,224.164,0,0,1-37.825,3.024H534.278V279.151q0-11.589-.883-23.054h35.682v-7.81H534.4V233.42h52.83ZM546,341.51V326.9q0-15.242-.882-26.329h75.145V341.51Zm17.778-14.74h38.582V315.18H563.781Zm38.456-30.612V256.6q0-16.753-.883-26.581h18.912v22.172h13.365v16.756H620.266v27.211Z" transform="translate(-192.785 -83.258)" fill="#fff"/><path d="M706.158,323.621V309.007h27.865v-6.676q-9.332-1.385-14.626-6.047a14.687,14.687,0,0,1-5.3-11.464q0-8.438,7.692-13.48t20.8-5.039q13.112,0,20.8,5.039t7.69,13.48a14.4,14.4,0,0,1-5.106,11.212q-5.107,4.535-14.058,6.173v6.047a243.7,243.7,0,0,0,27.234-2.646v14.614a207.418,207.418,0,0,1-24.271,2.52q-15.32.883-24.4.882Zm4.791-74.327h63.42v14.362h-63.42Zm49.677-4.409H725.07V231.531h35.556ZM742.6,291.118q11.22,0,11.222-6.3,0-6.171-11.222-6.173-11.347,0-11.347,6.173,0,6.3,11.347,6.3m39.338,52.155V256.348q0-16.5-.883-26.329h18.913V343.274Z" transform="translate(-255.226 -83.258)" fill="#fff"/></g></svg>