<svg width="24" height="24" viewBox="0 0 24 24" fill="none" xmlns="http://www.w3.org/2000/svg">
<path d="M5.7124 7.84451C7.44207 7.84451 8.84451 6.44207 8.84451 4.7124V2L3 7.84451H5.7124Z" fill="#FF5822"/>
<path d="M14.7822 2C16.5118 2 17.9149 3.40229 17.915 5.13184V11.9111L17.6602 11.1797C17.1128 9.60661 14.8872 9.60661 14.3398 11.1797L13.5225 13.5234L11.1797 14.3398V14.3408C9.60691 14.8884 9.60671 17.1128 11.1797 17.6602L13.5225 18.4775L14.0537 20H6.13184C4.40238 19.9998 3.00015 18.5976 3 16.8682V7.84473L8.84473 2H14.7822ZM14.3545 17.8828L14.3955 17.957C14.3755 17.9155 14.3511 17.8767 14.3242 17.8398C14.3345 17.854 14.3451 17.8679 14.3545 17.8828Z" fill="url(#paint0_linear_1_109)"/>
<path d="M17.5714 18.0365L16.7154 20.4913C16.4797 21.1696 15.5203 21.1696 15.2846 20.4913L14.4286 18.0365C14.3527 17.8185 14.1815 17.6473 13.9635 17.5714L11.5087 16.7154C10.8304 16.4797 10.8304 15.5203 11.5087 15.2846L13.9635 14.4286C14.1815 14.3527 14.3527 14.1815 14.4286 13.9635L15.2846 11.5087C15.5203 10.8304 16.4797 10.8304 16.7154 11.5087L17.5714 13.9635C17.6473 14.1815 17.8185 14.3527 18.0365 14.4286L20.4913 15.2846C21.1696 15.5203 21.1696 16.4797 20.4913 16.7154L18.0365 17.5714C17.8185 17.6473 17.6473 17.8185 17.5714 18.0365Z" fill="#FF6B3B"/>
<path d="M5.7124 7.84451C7.44207 7.84451 8.84451 6.44207 8.84451 4.7124V2L3 7.84451H5.7124Z" fill="#FF5822"/>
<defs>
<linearGradient id="paint0_linear_1_109" x1="10.4573" y1="20.001" x2="10.4573" y2="2" gradientUnits="userSpaceOnUse">
<stop stop-color="#FFDACE"/>
<stop offset="1" stop-color="#FF7D53"/>
</linearGradient>
</defs>
</svg>
