<svg width="80" height="126" viewBox="0 0 80 126" fill="none" xmlns="http://www.w3.org/2000/svg">
<g clip-path="url(#clip0_2_353)">
<path d="M58.9792 81.781C57.5094 82.9707 56.302 84.7553 55.4201 87.4213C55.2399 87.9678 55.0378 88.5711 54.8213 89.2143C58.4893 89.3969 63.1843 91.393 65.9305 99.3668C66.3285 97.3864 67.1173 96.17 68.1226 95.4059C66.7531 86.9292 62.421 83.3177 58.978 81.7798L58.9792 81.781Z" fill="#79371E"/>
<path d="M58.9818 81.7714C62.4274 83.3106 66.7617 86.9246 68.1316 95.4044C68.1321 95.4077 68.1307 95.411 68.1281 95.4131C67.1249 96.1756 66.3371 97.3897 65.9394 99.3685C65.9386 99.3725 65.9352 99.3755 65.9311 99.3758C65.927 99.3761 65.9232 99.3735 65.9219 99.3697C64.5493 95.3841 62.6899 92.8932 60.7161 91.3759C58.7423 89.8587 56.6534 89.3144 54.8209 89.2232C54.818 89.2231 54.8155 89.2217 54.8139 89.2193C54.8123 89.217 54.8118 89.214 54.8127 89.2113C55.0292 88.5681 55.2313 87.9648 55.4116 87.4184C56.293 84.7538 57.4997 82.9685 58.9692 81.7775C58.9695 81.7764 58.9699 81.7754 58.9705 81.7745C58.973 81.7709 58.9778 81.7696 58.9818 81.7714ZM58.9811 81.791C57.5146 82.9794 56.3095 84.7616 55.4288 87.424C55.2496 87.9673 55.0487 88.5668 54.8336 89.2057C56.6663 89.2989 58.7542 89.845 60.7272 91.3616C62.6993 92.8776 64.5558 95.3627 65.9283 99.3328C66.3281 97.3725 67.1128 96.1637 68.1127 95.402C66.7437 86.9377 62.4195 83.3291 58.9811 81.791Z" fill="#231815"/>
<path d="M52.2711 96.6681C51.3444 99.3486 50.4685 101.862 49.906 103.469C53.6683 104.11 58.9151 106.43 61.8983 113.983C63.217 112.678 64.2005 110.791 64.8405 108.166C62.0979 100.224 56.5246 97.5253 52.2711 96.6681Z" fill="#79371E"/>
<path d="M52.2728 96.6592C56.5287 97.5169 62.1052 100.217 64.849 108.163C64.8495 108.165 64.8496 108.167 64.8492 108.168C64.209 110.794 63.2249 112.683 61.9047 113.99C61.9025 113.992 61.8994 113.993 61.8964 113.992C61.8934 113.991 61.891 113.989 61.8899 113.986C58.908 106.437 53.6643 104.118 49.9045 103.478C49.9018 103.478 49.8996 103.476 49.8982 103.474C49.8968 103.471 49.8966 103.469 49.8975 103.466C50.46 101.859 51.3359 99.3456 52.2625 96.6651L52.2641 96.6623C52.2661 96.6598 52.2695 96.6586 52.2728 96.6592ZM52.277 96.6785C51.3532 99.3506 50.4801 101.856 49.9179 103.462C53.6799 104.105 58.9188 106.428 61.9016 113.967C63.2133 112.664 64.1928 110.783 64.8309 108.167C62.091 100.235 56.5266 97.5368 52.277 96.6785Z" fill="#231815"/>
<path d="M54.8214 89.2142C54.0762 91.428 53.1507 94.123 52.2712 96.6681C56.5247 97.5253 62.0981 100.224 64.8406 108.166C65.2785 106.366 65.5556 104.219 65.6669 101.675C65.7044 100.808 65.7951 100.043 65.9318 99.3667C63.1857 91.393 58.4906 89.3956 54.8226 89.2142H54.8214Z" fill="#EC7032"/>
<path d="M72.7317 80.4522C70.8832 79.7594 68.9318 79.4305 67.2648 79.4668C66.643 79.4801 66.0357 79.5079 65.4441 79.5551C68.7479 82.4508 72.3978 87.2229 72.2139 94.094C73.4079 93.9719 74.6153 93.9308 75.6932 93.7168C75.8541 87.6776 74.3273 83.3213 72.7317 80.451V80.4522Z" fill="#79371E"/>
<path d="M67.2647 79.4577C68.9316 79.4214 70.8823 79.75 72.7304 80.442C72.7341 80.4415 72.7378 80.4432 72.7397 80.4465C74.3361 83.3181 75.8632 87.676 75.7023 93.717C75.7021 93.7212 75.6991 93.7248 75.6949 93.7257C74.6165 93.9398 73.408 93.981 72.2149 94.103C72.2123 94.1033 72.2097 94.1024 72.2078 94.1007C72.2059 94.0989 72.2048 94.0963 72.2048 94.0937C72.3886 87.2263 68.7408 82.4565 65.4381 79.5618C65.4354 79.5594 65.4344 79.5556 65.4355 79.5521C65.4367 79.5487 65.4398 79.5463 65.4434 79.546C66.0352 79.4988 66.6427 79.471 67.2647 79.4577ZM72.7262 80.4596C70.8794 79.7678 68.9301 79.4396 67.265 79.4758C66.6509 79.489 66.0509 79.5163 65.4662 79.5624C68.7653 82.459 72.4029 87.2258 72.2232 94.0839C73.4121 93.9627 74.6118 93.9212 75.6843 93.7091C75.8436 87.6784 74.3196 83.3275 72.7262 80.4596Z" fill="#231815"/>
<path d="M49.9061 103.47C49.5384 104.525 49.3049 105.19 49.2807 105.256C49.2807 105.256 44.2916 115.592 52.4394 116.346C56.5102 116.722 59.6785 116.179 61.8972 113.984C58.914 106.431 53.6673 104.111 49.9049 103.47H49.9061Z" fill="#EC7032"/>
<path d="M65.4442 79.5551C62.9739 79.7558 60.7794 80.3216 58.9792 81.7797C62.4222 83.3177 66.7544 86.9291 68.1238 95.4059C69.2876 94.522 70.7405 94.2452 72.2152 94.094C72.3991 87.2229 68.7492 82.4508 65.4454 79.5551H65.4442Z" fill="#EC7032"/>
<path d="M72.7317 80.4521C74.3274 83.3225 75.8541 87.6775 75.6932 93.718C77.4026 93.3782 78.7841 92.602 79.2668 90.3677C80.3652 85.2787 76.8013 81.9804 72.7317 80.4534V80.4521Z" fill="#EC7032"/>
<path d="M67.2534 79.0262C70.0245 78.9666 73.54 79.8696 76.176 81.7576C78.8363 83.663 80.6409 86.6134 79.7866 90.5693C79.5702 91.5712 79.1782 92.3387 78.6339 92.9186C78.0907 93.4972 77.4252 93.8578 76.711 94.0932C76.0021 94.3268 75.2301 94.4418 74.4599 94.5207C74.0736 94.5604 73.6797 94.5916 73.2911 94.6231C72.9002 94.6548 72.5134 94.6869 72.13 94.7285C70.5836 94.8965 69.1986 95.2133 68.1553 96.1608C67.1243 97.0971 66.3313 98.7416 66.198 101.789V101.789C65.9225 108.07 64.645 112.1 62.2775 114.446C59.889 116.813 56.5182 117.346 52.3916 116.965H52.3915C50.228 116.765 48.8446 115.913 48.0599 114.669C47.2933 113.454 47.1571 111.955 47.276 110.564C47.3956 109.164 47.7794 107.802 48.1273 106.799C48.3021 106.296 48.4696 105.878 48.5939 105.585C48.6561 105.438 48.7076 105.323 48.7439 105.243C48.7608 105.206 48.7743 105.177 48.7842 105.155C48.9855 104.579 53.0534 92.978 54.9153 87.3452L54.9692 87.1844C56.1094 83.8274 57.7886 81.7915 59.9121 80.5966C62.0471 79.3951 64.5635 79.0841 67.2534 79.0262ZM75.5566 82.6214C73.1261 80.8807 69.8415 80.0335 67.2763 80.0887C64.6288 80.1457 62.3321 80.4544 60.4339 81.5226C58.5577 82.5784 57.0029 84.4165 55.9251 87.6786H55.9249C54.0725 93.2826 50.0439 104.774 49.793 105.492C49.7847 105.521 49.7742 105.55 49.7607 105.578L49.7606 105.578C49.7606 105.578 49.7605 105.578 49.7604 105.578C49.76 105.579 49.7593 105.581 49.7584 105.583C49.7564 105.587 49.7533 105.593 49.7492 105.602C49.7408 105.62 49.7281 105.647 49.7117 105.683C49.6789 105.755 49.6312 105.862 49.5729 106C49.4562 106.275 49.2975 106.67 49.1319 107.148C48.799 108.107 48.4447 109.376 48.3355 110.654C48.2256 111.941 48.37 113.168 48.9594 114.102C49.5308 115.008 50.5791 115.731 52.4894 115.907L52.677 115.924C56.6018 116.261 59.5097 115.692 61.5287 113.691C63.6006 111.638 64.8631 107.957 65.1356 101.742L65.1427 101.593C65.3022 98.4802 66.1403 96.5548 67.4402 95.3743C68.7485 94.1861 70.4297 93.8443 72.0152 93.672C72.4147 93.6286 72.8149 93.5955 73.2051 93.5639C73.5976 93.5321 73.9787 93.5017 74.3513 93.4635C75.0987 93.3869 75.7798 93.2811 76.3781 93.0839C76.9711 92.8885 77.467 92.6083 77.8583 92.1914C78.2484 91.7758 78.564 91.193 78.7472 90.345C79.4908 86.9016 77.9627 84.3447 75.5566 82.6214Z" fill="#231815"/>
<path d="M57.408 119.993L57.2096 120.03C58.8888 117.286 58.9843 103.996 58.8984 101.499C58.5754 92.0337 57.7141 65.8962 36.7091 68.5501C36.7091 68.5501 29.8969 67.7775 25.3567 78.4669C23.2276 83.4784 21.5992 91.0097 21.4057 102.32C21.2448 111.729 22.238 117.146 23.7986 119.995C24.0683 120.487 20.4778 121.615 20.4778 123.55C20.4778 126.219 30.5417 125.64 32.6395 124.411C33.7161 123.873 37.0611 115.552 37.3926 114.89C38.2261 113.224 41.484 110.422 44.1358 114.814C45.9952 117.892 47.4929 123.872 48.5683 124.41C50.666 125.638 60.73 126.218 60.73 123.549C60.73 121.613 57.1395 120.485 57.4092 119.993H57.408Z" fill="#EC7032"/>
<path d="M51.1498 97.7345C46.416 81.0168 33.047 80.1922 28.0979 96.8495C24.2146 109.917 29.4105 120.322 35.0068 120.322C36.6206 116.88 36.9448 115.782 37.3924 114.889C38.226 113.223 41.8952 110.964 44.1356 114.813C45.2655 116.753 45.447 117.418 46.6313 120.322C52.2277 120.322 54.3798 109.136 51.151 97.7345H51.1498Z" fill="#FFF9EF"/>
<path d="M40.196 112.252C40.9672 112.099 41.8078 112.135 42.602 112.495C43.4008 112.858 44.1051 113.528 44.6333 114.558L44.7148 114.719C45.5567 116.4 46.3811 118.62 47.1088 120.453C47.4889 121.411 47.8415 122.261 48.1621 122.902C48.3226 123.223 48.4676 123.476 48.596 123.658C48.6599 123.748 48.714 123.813 48.7577 123.857C48.7803 123.88 48.7969 123.894 48.8072 123.902L48.8191 123.91L48.8513 123.928C49.2745 124.176 50.201 124.432 51.4373 124.617C52.646 124.797 54.0707 124.9 55.4299 124.882C56.7973 124.865 58.0593 124.727 58.9611 124.449C59.4137 124.309 59.735 124.145 59.9335 123.977C60.1196 123.819 60.1734 123.681 60.1734 123.548C60.1734 123.246 60.0348 122.937 59.7518 122.609C59.4677 122.279 59.0755 121.974 58.6565 121.69C58.4493 121.55 58.2427 121.419 58.0453 121.295C57.8519 121.173 57.6602 121.053 57.4995 120.942C57.347 120.838 57.1792 120.713 57.058 120.576C57.0535 120.571 57.0487 120.566 57.0435 120.56C56.9273 120.523 56.8239 120.448 56.7521 120.344C56.6277 120.162 56.6214 119.925 56.7361 119.738C56.9027 119.465 57.0715 119.021 57.2302 118.407C57.3866 117.803 57.5242 117.07 57.6444 116.246C57.8848 114.599 58.0503 112.621 58.1614 110.64C58.3836 106.676 58.3857 102.747 58.3434 101.517V101.517C58.1815 96.7706 57.8837 87.9648 55.0422 80.6813C53.6243 77.0466 51.5897 73.8371 48.665 71.6962C45.7541 69.5653 41.9088 68.4541 36.7813 69.1019C36.7375 69.1075 36.6932 69.1077 36.6493 69.1028V69.1029C36.6481 69.1027 36.646 69.1026 36.6433 69.1024C36.6352 69.1017 36.6208 69.1005 36.6005 69.0993C36.5599 69.0969 36.4953 69.0941 36.4092 69.094C36.2367 69.0938 35.9778 69.104 35.6498 69.1477C34.9942 69.2351 34.0618 69.4565 32.9886 69.9967C30.8527 71.0719 28.0987 73.4417 25.8725 78.6829L25.8726 78.683C25.718 79.0479 25.5656 79.4262 25.4155 79.8191C25.3056 80.1067 24.9833 80.2509 24.6955 80.1411C24.4078 80.0313 24.2637 79.7092 24.3735 79.4216C24.5282 79.0165 24.6855 78.6258 24.8455 78.2483L24.8457 78.2479C27.1596 72.8002 30.0818 70.2119 32.4869 69.0011C33.6843 68.3983 34.7388 68.1446 35.5023 68.0428C35.8839 67.992 36.1928 67.979 36.4106 67.9793C36.5195 67.9794 36.6057 67.9828 36.6671 67.9865C36.6789 67.9872 36.6897 67.9883 36.6997 67.989C42.0464 67.3256 46.1672 68.4859 49.3241 70.7969C52.4787 73.1061 54.618 76.5251 56.0814 80.2763C59.0026 87.7644 59.2971 96.7601 59.4581 101.479C59.5017 102.747 59.4989 106.71 59.2751 110.702C59.1632 112.698 58.9953 114.713 58.7482 116.407C58.6247 117.254 58.4801 118.029 58.3101 118.686C58.2025 119.103 58.0804 119.487 57.94 119.819C57.9484 119.844 57.9549 119.871 57.9595 119.897C57.9982 119.929 58.0538 119.971 58.1314 120.024C58.2693 120.119 58.4387 120.225 58.6397 120.352C58.8367 120.475 59.0579 120.615 59.2825 120.767C59.7275 121.069 60.2162 121.439 60.5969 121.881C60.9787 122.324 61.2888 122.882 61.2888 123.548C61.2888 124.082 61.0282 124.51 60.6557 124.826C60.2956 125.132 59.8142 125.352 59.2906 125.513C58.2398 125.838 56.8548 125.979 55.444 125.997C54.025 126.015 52.5403 125.909 51.272 125.719C50.0352 125.534 48.92 125.258 48.2932 124.893C48.0428 124.759 47.8422 124.523 47.6845 124.3C47.5102 124.053 47.3365 123.744 47.1645 123.401C46.8201 122.712 46.452 121.822 46.072 120.864C45.3268 118.987 44.53 116.841 43.719 115.222L43.6405 115.067C43.21 114.227 42.6781 113.754 42.1406 113.51C41.5985 113.264 41.0024 113.229 40.4136 113.346C39.8222 113.463 39.2556 113.732 38.8002 114.069C38.3662 114.39 38.072 114.743 37.9367 115.037L37.9118 115.095C37.3659 116.465 36.469 118.723 35.5728 120.706C35.1253 121.697 34.6725 122.631 34.2592 123.357C34.053 123.719 33.85 124.041 33.6563 124.296C33.4824 124.525 33.2689 124.764 33.022 124.896C32.3941 125.26 31.2728 125.536 30.0282 125.72C28.75 125.91 27.2521 126.016 25.8199 125.998C24.3959 125.98 22.998 125.84 21.9378 125.515C21.4096 125.354 20.9242 125.134 20.5611 124.829C20.1858 124.514 19.9211 124.086 19.9211 123.549C19.9212 122.883 20.2314 122.325 20.6132 121.882C20.9939 121.441 21.4824 121.07 21.9274 120.769C22.1521 120.616 22.3734 120.477 22.5703 120.353C22.7713 120.226 22.9407 120.12 23.0787 120.025C23.1078 120.005 23.1338 119.986 23.157 119.97C21.613 116.919 20.6932 111.43 20.8491 102.31C20.9475 96.5546 21.4154 91.764 22.1354 87.7757C22.1901 87.4727 22.4802 87.2714 22.7833 87.3261C23.0864 87.3807 23.2878 87.6706 23.2331 87.9736C22.5256 91.8925 22.062 96.6222 21.9644 102.329C21.8036 111.728 22.8037 117.015 24.2887 119.725C24.5094 120.128 24.2446 120.473 24.1521 120.577C24.0309 120.714 23.863 120.839 23.7105 120.944C23.5498 121.054 23.3581 121.174 23.1647 121.296C22.9672 121.42 22.7607 121.551 22.5534 121.691C22.1345 121.975 21.7424 122.28 21.4583 122.61C21.1753 122.938 21.0366 123.247 21.0366 123.549C21.0366 123.68 21.0898 123.817 21.2789 123.976C21.4803 124.145 21.8061 124.309 22.2642 124.449C23.1767 124.728 24.4528 124.866 25.8339 124.884C27.2069 124.901 28.6452 124.799 29.8642 124.618C31.1113 124.433 32.0437 124.177 32.4663 123.929L32.4988 123.912C32.4948 123.914 32.5203 123.9 32.5755 123.846C32.6278 123.795 32.6922 123.722 32.768 123.622C32.9199 123.422 33.0955 123.147 33.2898 122.806C33.6776 122.125 34.1138 121.227 34.5564 120.247C35.4403 118.291 36.3278 116.057 36.8756 114.683V114.682C37.0988 114.122 37.5706 113.591 38.137 113.173C38.711 112.748 39.4276 112.405 40.196 112.252ZM57.8995 120.26C57.9049 120.25 57.9096 120.24 57.9141 120.23C57.9094 120.24 57.9048 120.25 57.8995 120.26ZM57.9219 120.213C57.9232 120.21 57.9244 120.207 57.9256 120.204C57.9244 120.207 57.9232 120.21 57.9219 120.213ZM36.6506 69.103H36.6499C36.6497 69.103 36.6494 69.1029 36.6493 69.1029C36.6499 69.1029 36.6504 69.103 36.6506 69.103Z" fill="#231815"/>
<path d="M8.58447 38.1992C8.58447 38.1992 5.25401 22.5019 9.76882 19.096C14.2836 15.69 27.0212 23.0303 28.7765 26.8581C30.5319 30.686 12.5924 48.2259 8.58447 38.1992Z" fill="#FFF9EF"/>
<path d="M9.42722 18.6439C10.7352 17.6572 12.5643 17.4957 14.4778 17.773C16.4088 18.0528 18.5354 18.7941 20.551 19.7529C22.5696 20.7132 24.5026 21.9043 26.0484 23.1041C27.5728 24.2873 28.7925 25.5338 29.2916 26.6221C29.6136 27.3243 29.4454 28.2107 29.1035 29.0659C28.7486 29.9536 28.1461 30.957 27.3814 31.9916C25.8495 34.0639 23.6074 36.34 21.184 38.1755C18.7734 40.0013 16.115 41.4435 13.7516 41.7569C12.559 41.9151 11.4077 41.79 10.4042 41.2454C9.39553 40.698 8.598 39.7602 8.05798 38.4092L8.04002 38.3641L8.02986 38.3166L8.58429 38.1992L8.02986 38.3163C8.02983 38.3161 8.02969 38.3159 8.02962 38.3156C8.0295 38.315 8.02937 38.3141 8.02915 38.3131C8.0287 38.311 8.02798 38.3078 8.02714 38.3038C8.02546 38.2957 8.02311 38.2839 8.01994 38.2686C8.01357 38.2378 8.00426 38.1925 7.99241 38.1336C7.9687 38.0157 7.93462 37.8433 7.89305 37.623C7.80993 37.1824 7.69649 36.5505 7.57467 35.7819C7.33121 34.2459 7.0534 32.1583 6.91781 29.9596C6.78252 27.7658 6.78707 25.4362 7.11971 23.4253C7.44779 21.442 8.11637 19.6328 9.42722 18.6439ZM14.3152 18.8942C12.5158 18.6335 11.0597 18.8318 10.1102 19.5481C9.16366 20.2621 8.55538 21.6923 8.23814 23.6101C7.92547 25.5003 7.91614 27.7337 8.04912 29.8899C8.18179 32.0412 8.45436 34.0909 8.69428 35.6046C8.81414 36.3608 8.92563 36.9818 9.007 37.413C9.04767 37.6286 9.08076 37.7966 9.10364 37.9103C9.1143 37.9633 9.12276 38.0046 9.12868 38.0333C9.58921 39.1628 10.2219 39.8573 10.9451 40.2498C11.683 40.6503 12.5771 40.7699 13.6024 40.6339C15.675 40.359 18.1433 39.057 20.4992 37.2726C22.8421 35.4981 25.0063 33.2982 26.4697 31.3185C27.2025 30.3271 27.745 29.4105 28.0509 28.6456C28.3697 27.848 28.378 27.3489 28.2612 27.0941C27.8825 26.2685 26.8517 25.162 25.3531 23.9988C23.8759 22.8522 22.0133 21.7032 20.0637 20.7758C18.1111 19.8469 16.0971 19.1524 14.3152 18.8942Z" fill="#231815"/>
<path d="M14.7771 32.4356C14.7771 32.4356 12.2584 26.2113 14.3597 24.625C16.4611 23.0399 22.3901 26.4568 23.2079 28.2377C24.0245 30.0199 17.372 38.9439 14.7771 32.4344V32.4356Z" fill="#79371E"/>
<path d="M14.3543 24.6178C14.8825 24.2193 15.6501 24.136 16.5151 24.2614C17.3804 24.3868 18.345 24.7213 19.269 25.1609C20.1932 25.6005 21.0772 26.1454 21.7814 26.6918C22.4633 27.2209 22.9777 27.7523 23.1959 28.1917L23.2161 28.234L23.2342 28.2775C23.3173 28.5021 23.2973 28.8219 23.1952 29.1991C23.0861 29.6019 22.8828 30.0719 22.6079 30.5651C22.0581 31.5514 21.2213 32.6315 20.2777 33.4523C19.3345 34.2728 18.2829 34.8356 17.3035 34.7845C16.3235 34.7334 15.4192 34.0679 14.7698 32.4408C14.7694 32.4402 14.769 32.4397 14.7687 32.439L14.7686 32.4389V32.4386C14.7685 32.4385 14.7684 32.4382 14.7683 32.4378C14.7679 32.4371 14.7674 32.4359 14.7668 32.4344C14.7656 32.4314 14.7639 32.4269 14.7615 32.4211C14.7568 32.4092 14.7498 32.3915 14.7408 32.3685C14.7229 32.3225 14.6968 32.2548 14.6644 32.1681C14.5996 31.9948 14.5095 31.7453 14.4078 31.4411C14.2044 30.8325 13.9551 30.0046 13.7715 29.127C13.5879 28.2494 13.47 27.3218 13.5294 26.514C13.5889 25.7064 13.8259 25.0167 14.3543 24.6178ZM16.5125 24.2794C15.6493 24.1542 14.8876 24.2382 14.3652 24.6323C13.8429 25.0265 13.6068 25.7097 13.5475 26.5153C13.4882 27.3207 13.6058 28.2465 13.7892 29.1233C13.9726 30 14.2217 30.8273 14.4249 31.4354C14.5265 31.7394 14.6167 31.9887 14.6814 32.1619C14.7138 32.2485 14.7398 32.3161 14.7577 32.362C14.7667 32.385 14.7737 32.4025 14.7784 32.4143C14.7808 32.4202 14.7825 32.4247 14.7837 32.4277C14.7839 32.428 14.784 32.4283 14.7841 32.4286C14.7847 32.4293 14.7851 32.4301 14.7855 32.431C15.4335 34.0565 16.3335 34.7158 17.3045 34.7664C18.2767 34.8172 19.3237 34.2581 20.2658 33.4386C21.2076 32.6193 22.0432 31.5409 22.5921 30.5562C22.8665 30.0639 23.0691 29.5953 23.1777 29.1944C23.2864 28.793 23.3003 28.4613 23.1996 28.2415C22.9961 27.7984 22.4738 27.252 21.7703 26.7061C21.0672 26.1605 20.1843 25.6164 19.2612 25.1773C18.3382 24.7382 17.3754 24.4044 16.5125 24.2794Z" fill="#231815"/>
<path d="M73.3462 38.1992C73.3462 38.1992 76.6767 22.5019 72.1619 19.096C67.6471 15.69 54.9095 23.0303 53.1542 26.8581C51.3988 30.686 69.3383 48.2259 73.3462 38.1992Z" fill="#FFF9EF"/>
<path d="M67.4529 17.773C69.3664 17.4957 71.1956 17.6572 72.5035 18.6439C73.8143 19.6328 74.4829 21.442 74.811 23.4253C75.1436 25.4362 75.1483 27.7658 75.013 29.9596C74.8774 32.1583 74.5995 34.2459 74.356 35.7819C74.2342 36.5505 74.1208 37.1824 74.0377 37.623C73.9961 37.8432 73.962 38.0157 73.9383 38.1336C73.9265 38.1925 73.9173 38.2378 73.9109 38.2686C73.9077 38.2839 73.9053 38.2957 73.9036 38.3038C73.9027 38.3078 73.902 38.311 73.9016 38.3131C73.9013 38.3141 73.9012 38.315 73.9011 38.3156C73.901 38.3159 73.9009 38.3161 73.9009 38.3163L73.3464 38.1991L73.9009 38.3166L73.8908 38.3641L73.8727 38.4092C73.3327 39.7602 72.5352 40.698 71.5265 41.2454C70.523 41.79 69.3718 41.9151 68.1791 41.7569C65.8157 41.4434 63.1573 40.0013 60.7468 38.1755C58.3233 36.34 56.0812 34.0639 54.5494 31.9916C53.7846 30.957 53.1822 29.9536 52.8273 29.0659C52.4855 28.2107 52.3171 27.3243 52.6391 26.6221C53.1382 25.5338 54.3579 24.2873 55.8823 23.1041C57.4281 21.9043 59.3612 20.7132 61.3798 19.7529C63.3953 18.7941 65.5219 18.0528 67.4529 17.773ZM71.8206 19.5481C70.8712 18.8318 69.4149 18.6335 67.6156 18.8942C65.8336 19.1524 63.8196 19.8469 61.867 20.7758C59.9174 21.7032 58.0549 22.8522 56.5776 23.9988C55.079 25.162 54.0482 26.2685 53.6696 27.0941C53.5527 27.3489 53.5611 27.848 53.88 28.6455C54.1858 29.4105 54.7282 30.3271 55.461 31.3185C56.9244 33.2982 59.0886 35.4981 61.4315 37.2726C63.7874 39.057 66.2557 40.359 68.3283 40.6339C69.3536 40.7699 70.2477 40.6503 70.9856 40.2498C71.7088 39.8574 72.3414 39.1627 72.8019 38.0333C72.8078 38.0046 72.8164 37.9634 72.8271 37.9103C72.8499 37.7966 72.883 37.6286 72.9237 37.413C73.0051 36.9818 73.1166 36.3608 73.2364 35.6046C73.4764 34.0909 73.7489 32.0412 73.8816 29.8899C74.0146 27.7337 74.0052 25.5003 73.6926 23.6101C73.3753 21.6924 72.7671 20.2621 71.8206 19.5481Z" fill="#231815"/>
<path d="M67.1548 32.4356C67.1548 32.4356 69.6735 26.2113 67.5722 24.625C65.4708 23.0399 59.5418 26.4568 58.724 28.2377C57.9074 30.0199 64.5599 38.9439 67.1548 32.4344V32.4356Z" fill="#79371E"/>
<path d="M65.4168 24.2614C66.2818 24.136 67.0494 24.2194 67.5776 24.6178C68.106 25.0167 68.3431 25.7064 68.4026 26.514C68.462 27.3218 68.3439 28.2494 68.1604 29.1269C67.9768 30.0046 67.7274 30.8325 67.5241 31.4411C67.4224 31.7453 67.3323 31.9948 67.2675 32.1681C67.2351 32.2548 67.209 32.3225 67.191 32.3685C67.1821 32.3915 67.1751 32.4092 67.1704 32.4211C67.168 32.4269 67.1662 32.4314 67.165 32.4344C67.1644 32.4359 67.1639 32.4371 67.1636 32.4378C67.1635 32.4382 67.1635 32.4385 67.1634 32.4386L67.1633 32.4389L67.1628 32.4386V32.4388L67.1633 32.439C67.163 32.4397 67.1623 32.4403 67.1619 32.4409C66.5125 34.0678 65.6084 34.7333 64.6285 34.7845C63.6491 34.8356 62.5974 34.2728 61.6541 33.4523C60.7106 32.6315 59.8738 31.5514 59.324 30.5651C59.049 30.0719 58.8457 29.6019 58.7367 29.1991C58.6277 28.7968 58.6123 28.4598 58.7158 28.234L58.736 28.1917C58.9542 27.7523 59.4686 27.2209 60.1505 26.6918C60.8547 26.1454 61.7387 25.6005 62.6628 25.1609C63.5869 24.7213 64.5515 24.3868 65.4168 24.2614ZM67.5667 24.6323C67.0443 24.2382 66.2826 24.1542 65.4194 24.2794C64.5565 24.4044 63.5937 24.7382 62.6706 25.1773C61.7476 25.6164 60.8647 26.1605 60.1616 26.7061C59.4581 27.252 58.9358 27.7984 58.7323 28.2415C58.6316 28.4613 58.6455 28.793 58.7542 29.1944C58.8627 29.5953 59.0654 30.0639 59.3398 30.5562C59.8887 31.5409 60.7242 32.6193 61.6661 33.4386C62.6082 34.2581 63.6553 34.8172 64.6275 34.7664C65.5985 34.7157 66.4984 34.0565 67.1464 32.431C67.1467 32.4301 67.1471 32.4293 67.1477 32.4286C67.1478 32.4283 67.148 32.428 67.1481 32.4277C67.1493 32.4247 67.1512 32.4202 67.1536 32.4143C67.1583 32.4025 67.1652 32.385 67.1741 32.362C67.1921 32.3161 67.2181 32.2485 67.2505 32.1619C67.3152 31.9887 67.4053 31.7394 67.5069 31.4354C67.7102 30.8273 67.9592 30 68.1427 29.1233C68.3261 28.2465 68.4436 27.3207 68.3844 26.5153C68.3251 25.7097 68.0889 25.0265 67.5667 24.6323Z" fill="#231815"/>
<path d="M6.80484 46.1088C6.80484 46.1088 11.8967 28.2812 25.025 24.1208C38.1533 19.9604 49.1983 20.1031 62.0157 26.6308C73.4286 32.444 79.1144 53.5881 75.9908 65.4151C75.9908 65.4151 80.7936 67.9251 78.0631 68.3737C77.4317 68.4777 73.6439 67.9058 74.6359 68.2999C76.1275 68.8924 78.8664 69.1414 78.4152 70.1026C77.9639 71.0639 77.3083 70.735 73.5024 70.8438C73.5024 70.8438 76.1312 71.5608 76.8171 71.9332C77.503 72.3056 78.3111 73.17 73.0112 72.9899C73.0112 72.9899 66.2571 82.6007 39.1646 81.6818C12.0721 80.763 6.28344 70.2743 6.28344 70.2743C6.28344 70.2743 2.31302 71.1376 2.11583 69.6626C2.01058 68.8755 5.06642 68.6639 5.06642 68.6639C5.06642 68.6639 1.43957 69.2648 0.930265 68.2782C0.266109 66.9905 5.17772 65.3704 5.17772 65.3704C5.17772 65.3704 1.06455 67.2722 0.601212 65.2156C0.136665 63.159 4.50873 62.3647 4.50873 62.3647C4.50873 62.3647 3.824 53.1951 6.80484 46.11V46.1088Z" fill="#EC7032"/>
<path d="M42.0741 38.1109C42.0741 38.1109 46.232 32.0498 49.0471 33.6615C52.0776 35.3965 49.4572 37.6671 47.2252 38.4772C45.517 39.0975 42.9705 40.5471 42.2543 39.8217C41.3168 38.8714 42.0741 38.1097 42.0741 38.1097V38.1109Z" fill="#FFF9EF"/>
<path d="M13.5892 75.8988C13.5892 75.8988 25.1412 80.5307 26.657 79.7183C23.9665 74.0175 21.922 62.5085 23.9653 56.2866C26.1174 49.7335 27.8438 49.8048 23.4644 49.1048C19.4517 48.4628 17.8185 49.4869 15.2466 52.8154C10.0833 59.4967 9.50023 72.8871 13.5892 75.8988Z" fill="#FFF9EF"/>
<path d="M51.1496 80.7399C54.1632 78.8042 57.0617 65.8225 56.423 59.4423C55.9923 55.1392 55.0257 54.4356 53.9224 51.9437C52.7369 49.268 59.053 48.8956 60.3111 48.8521C61.5693 48.8074 65.6583 51.5374 67.1233 56.9153C69.6287 66.1151 68.852 76.0125 63.9561 78.3726C63.9561 78.3726 55.2386 81.3843 51.1484 80.7387L51.1496 80.7399Z" fill="#FFF9EF"/>
<path d="M27.7831 62.0225C26.9569 57.7968 29.4647 51.5448 31.462 48.8014C33.8344 45.5454 36.9894 45.4064 39.4646 45.4064C42.2289 45.4064 44.0653 45.6651 46.5344 48.8812C49.0047 52.0973 50.7383 58.2236 50.5326 61.1786C50.1128 67.1913 43.5971 68.6917 39.0339 68.5321C31.7802 68.2794 28.751 66.9785 27.7819 62.0213L27.7831 62.0225Z" fill="#FFF9EF"/>
<path d="M30.5997 38.5836C30.5997 38.5836 32.5728 39.9196 33.9144 39.98C35.2548 40.0405 37.8776 40.0344 36.9194 38.1737C35.9613 36.3117 33.0724 31.7584 30.3384 35.2792C29.1068 36.8643 29.7649 37.9004 30.6009 38.5836H30.5997Z" fill="#FFF9EF"/>
<path d="M50.4963 45.1645C50.5508 43.5915 49.4995 42.4828 48.1566 42.4356C46.8138 42.3885 45.6887 43.4222 45.6331 44.9952C45.5726 46.7278 46.6275 47.7422 47.9703 47.7881C49.3132 47.8353 50.4431 46.6649 50.4963 45.1633V45.1645Z" fill="#231815"/>
<path d="M28.1922 45.1282C28.1378 43.5552 29.189 42.4465 30.5319 42.3994C31.8747 42.3522 32.9998 43.386 33.0554 44.959C33.1159 46.6915 32.061 47.706 30.7182 47.7519C29.3754 47.799 28.2454 46.6287 28.1922 45.127V45.1282Z" fill="#231815"/>
<path d="M33.6528 52.8287C33.6528 52.8287 33.8682 61.1108 39.3568 61.2184C44.9532 61.3285 45.3367 53.9036 45.3838 52.5059C43.2317 52.7211 40.7517 52.1964 39.3871 51.182C38.4943 52.1202 36.3433 54.4416 33.6528 52.8287Z" fill="#DE6164"/>
<path d="M34.1912 55.9482C34.1912 55.9482 39.4645 53.4744 45.0608 55.9482C45.0608 55.9482 45.6452 53.3136 45.4915 52.3984C41.7703 53.4212 39.4185 50.7299 39.4185 50.7299C39.4185 50.7299 38.4955 53.2592 33.5452 52.6136C33.6057 54.0149 34.1912 55.9482 34.1912 55.9482Z" fill="white"/>
<path d="M39.337 50.3314C39.4982 50.3121 39.6563 50.3868 39.7439 50.5235C40.1965 51.2304 41.0231 51.7551 42.049 52.0105C43.0711 52.2649 44.2538 52.241 45.363 51.8876C45.4939 51.8458 45.6371 51.8702 45.7468 51.953C45.8565 52.0357 45.9191 52.1666 45.9148 52.3039C45.8605 54.0407 45.6147 56.3448 44.7138 58.2279C44.2609 59.1747 43.6346 60.0314 42.7686 60.6515C41.8981 61.2748 40.8091 61.6416 39.4646 61.6416C36.3828 61.6416 34.8011 59.2576 34.005 57.0594C33.6024 55.9479 33.3825 54.842 33.2629 54.0177C33.203 53.6046 33.1679 53.2598 33.1477 53.0172C33.1377 52.8958 33.1314 52.7998 33.1275 52.7335C33.1256 52.7004 33.1242 52.6747 33.1234 52.6569C33.123 52.648 33.1227 52.641 33.1225 52.6361C33.1224 52.6338 33.1223 52.6319 33.1222 52.6305V52.6281C33.1233 52.6279 33.1442 52.6269 33.5453 52.6123L33.1221 52.6278C33.117 52.4881 33.1813 52.3549 33.2938 52.2719C33.4063 52.1889 33.5525 52.1668 33.6846 52.2127C34.8261 52.6103 36.0474 52.5612 37.0453 52.2221C38.0572 51.8782 38.7618 51.2669 38.9868 50.6138L38.9977 50.5856C39.0568 50.447 39.1858 50.3494 39.337 50.3314ZM39.4619 51.5257C38.9926 52.2042 38.2062 52.7215 37.318 53.0234C36.3309 53.3589 35.161 53.4511 34.0139 53.1869C34.0338 53.3846 34.0616 53.6247 34.101 53.8963C34.2155 54.6857 34.4245 55.7313 34.8012 56.7714C35.5635 58.8761 36.9416 60.7953 39.4646 60.7953C40.6455 60.7953 41.5592 60.4763 42.2754 59.9635C42.9961 59.4474 43.5408 58.7178 43.9498 57.8629C44.683 56.3302 44.9551 54.4487 45.0435 52.8504C43.959 53.0961 42.8413 53.0799 41.8444 52.8318C40.9179 52.6012 40.0723 52.1633 39.4619 51.5257Z" fill="#231815"/>
<path d="M36.3433 49.6828C36.5078 48.7409 37.6353 47.5573 39.4645 47.5573C41.2936 47.5573 42.2626 48.8485 42.3703 49.7082C42.6159 51.6765 35.9731 51.8023 36.3433 49.6816V49.6828Z" fill="#231815"/>
<path d="M72.8038 38.3437C73.0874 38.2112 73.4247 38.3336 73.5572 38.617C77.5549 47.1654 78.6089 57.6643 76.6573 64.9212C76.7553 64.9768 76.8672 65.0415 76.9882 65.1134C77.4045 65.3609 77.9447 65.7039 78.4038 66.069C78.6328 66.2512 78.8548 66.4492 79.0336 66.6532C79.2031 66.8467 79.3804 67.0971 79.4445 67.3854C79.4786 67.5392 79.4826 67.7141 79.4256 67.8925C79.3681 68.0723 79.2602 68.2193 79.1272 68.3335C78.9198 68.5114 78.6433 68.6172 78.3393 68.6834C78.4226 68.731 78.5008 68.7819 78.5719 68.837C78.7294 68.959 78.8954 69.1329 78.979 69.3742C79.0688 69.6335 79.0378 69.8959 78.9282 70.1293C78.7861 70.4319 78.5944 70.702 78.275 70.8857C77.9773 71.0569 77.6293 71.1163 77.2585 71.1438C77.1666 71.1506 77.0684 71.1555 76.9638 71.1592C77.0081 71.1803 77.0497 71.2009 77.0876 71.2215C77.2715 71.3213 77.5546 71.4982 77.7248 71.7469C77.8166 71.8809 77.919 72.1009 77.8687 72.369C77.8175 72.6418 77.6354 72.8221 77.4647 72.9315C77.1518 73.132 76.6538 73.2412 75.9909 73.3031C75.3486 73.363 74.468 73.3841 73.2778 73.3507C73.2254 73.4128 73.1623 73.4858 73.0872 73.5683C72.833 73.8476 72.4451 74.237 71.897 74.697C70.8003 75.6174 69.0651 76.8177 66.4806 77.9828C61.311 80.3132 52.7598 82.4957 39.1453 82.0339C25.5276 81.5721 17.2138 78.7033 12.2849 75.9124C9.82092 74.5172 8.20761 73.144 7.20393 72.1075C6.70231 71.5894 6.35363 71.1561 6.12755 70.8472C6.08555 70.7898 6.04798 70.7365 6.01425 70.688C5.93454 70.7018 5.84456 70.7168 5.74631 70.7319C5.35813 70.7918 4.83099 70.857 4.29106 70.8737C3.76196 70.8901 3.17091 70.8619 2.67915 70.7064C2.18854 70.5512 1.64587 70.2109 1.55398 69.5236C1.53193 69.3586 1.55859 69.2101 1.61187 69.0815C1.39731 69.0343 1.18201 68.9664 0.989627 68.865C0.776768 68.7527 0.559904 68.5823 0.426452 68.3238V68.3237C0.254563 67.9905 0.274577 67.646 0.39987 67.3493C0.51603 67.0742 0.720276 66.8399 0.932801 66.6471C1.02466 66.5638 1.12515 66.4824 1.23181 66.4027C0.987585 66.3252 0.749765 66.2028 0.546128 66.0147C0.29812 65.7856 0.12918 65.4856 0.0481667 65.1261L0.0482848 65.126C-0.120422 64.3785 0.168817 63.7585 0.604135 63.299C1.02443 62.8554 1.60699 62.5266 2.15225 62.2866C2.70605 62.0427 3.26849 61.8703 3.6876 61.7594C3.75956 61.7403 3.82771 61.7232 3.89115 61.7075C3.87261 61.5028 3.85206 61.2405 3.83385 60.9254C3.78613 60.0994 3.7544 58.9102 3.81684 57.4458C3.94159 54.5201 4.44257 50.4888 5.94798 46.0591C5.95006 46.0522 5.95311 46.0423 5.95707 46.0294C5.96499 46.0035 5.97666 45.9657 5.99216 45.9166C6.02318 45.8184 6.06955 45.6746 6.13145 45.4901C6.25523 45.1212 6.44149 44.589 6.69297 43.9306C7.19574 42.6145 7.9602 40.7916 9.00852 38.7604C9.15202 38.4824 9.49388 38.3733 9.77206 38.5167C10.0502 38.6601 10.1594 39.0018 10.0159 39.2798C8.99072 41.2662 8.24301 43.0494 7.75198 44.3348C7.50657 44.9773 7.32547 45.4947 7.20617 45.8503C7.14652 46.028 7.10234 46.1654 7.07326 46.2575C7.05873 46.3035 7.0479 46.3383 7.04089 46.3612C7.03739 46.3726 7.03485 46.3811 7.03321 46.3866C7.03241 46.3892 7.0318 46.3912 7.03144 46.3923C7.03126 46.3929 7.03115 46.3934 7.03109 46.3936L7.02447 46.4144C5.55877 50.7238 5.07068 54.6482 4.94934 57.494C4.88869 58.9163 4.91972 60.0674 4.96552 60.8601C4.98842 61.2564 5.01506 61.5629 5.0357 61.7687C5.04601 61.8716 5.05484 61.9493 5.06098 62.0005C5.06404 62.026 5.06638 62.045 5.06795 62.0571C5.06873 62.0632 5.06937 62.0676 5.06972 62.0702C5.06989 62.0715 5.07001 62.0724 5.07007 62.0728V62.073L5.07326 62.1011C5.09894 62.3908 4.8996 62.6551 4.61027 62.7078H4.61015C4.60994 62.7079 4.60956 62.7081 4.60897 62.7082C4.60759 62.7084 4.60515 62.7088 4.60177 62.7095C4.59498 62.7108 4.58425 62.7129 4.56987 62.7157C4.54108 62.7214 4.49767 62.7302 4.44192 62.7423C4.3303 62.7665 4.1697 62.8037 3.97787 62.8545C3.59176 62.9567 3.09029 63.1114 2.60921 63.3232C2.11952 63.5388 1.69603 63.7942 1.42722 64.0779C1.17352 64.3457 1.09058 64.5962 1.15396 64.8768L1.15408 64.8772C1.1889 65.0317 1.24987 65.1222 1.31546 65.1827C1.38545 65.2474 1.49043 65.3049 1.6472 65.3434C1.97614 65.4244 2.43533 65.3987 2.95135 65.2949C3.21592 65.2417 3.479 65.1712 3.72398 65.0961C3.90107 65.0237 4.06773 64.958 4.21816 64.9006C4.44859 64.8125 4.6426 64.7424 4.77957 64.6942C4.84806 64.6701 4.90243 64.6514 4.94 64.6387C4.95877 64.6323 4.97338 64.6273 4.98348 64.6239C4.98853 64.6222 4.99253 64.6209 4.99529 64.62C4.99664 64.6196 4.9977 64.6192 4.99848 64.619C4.99885 64.6188 4.99919 64.6187 4.99943 64.6186C4.99955 64.6186 4.99972 64.6185 4.99978 64.6185C4.99989 64.6184 4.99995 64.6185 5.17758 65.1564L5.4154 65.6706C5.41533 65.6707 5.41507 65.6707 5.41493 65.6707C5.41466 65.6709 5.41436 65.671 5.41398 65.6712C5.41318 65.6716 5.41208 65.672 5.41079 65.6726C5.40819 65.6738 5.40458 65.6755 5.40004 65.6776C5.39094 65.6817 5.37793 65.6875 5.36141 65.6948C5.32838 65.7095 5.28097 65.7303 5.22106 65.7556C5.10128 65.8063 4.93092 65.8758 4.72546 65.9522C4.54416 66.0197 4.33299 66.0934 4.10321 66.1649C3.77197 66.3012 3.409 66.4607 3.05614 66.6352C2.49563 66.9123 2.00164 67.2075 1.69457 67.486C1.54004 67.6262 1.46955 67.7298 1.44423 67.7898C1.44112 67.7971 1.43897 67.803 1.43761 67.8074C1.44671 67.8168 1.46927 67.837 1.51854 67.863C1.60159 67.9068 1.72785 67.9502 1.90262 67.9852C2.25284 68.0553 2.7048 68.0738 3.17357 68.0608C3.41409 68.0541 3.65151 68.0392 3.87154 68.0211C4.11385 67.9823 4.34092 67.9533 4.52698 67.9323C4.67471 67.9156 4.79841 67.9038 4.88566 67.8962C4.92928 67.8923 4.96389 67.8895 4.98797 67.8877C5.00001 67.8867 5.00949 67.886 5.01608 67.8855C5.01935 67.8853 5.02191 67.8851 5.02376 67.885C5.02468 67.8849 5.02545 67.8849 5.02601 67.8848C5.02628 67.8848 5.02653 67.8849 5.02672 67.8848L5.02695 67.8847C5.02705 67.8847 5.02712 67.8848 5.06629 68.4498C5.15499 68.9846 5.15873 69.0076 5.1588 69.0087L5.15856 69.0088C5.15835 69.0088 5.15806 69.0088 5.15773 69.0089C5.15708 69.009 5.15622 69.0092 5.15514 69.0094C5.15296 69.0097 5.14991 69.0102 5.14604 69.0108C5.13828 69.012 5.12712 69.0137 5.11284 69.016C5.08427 69.0204 5.04303 69.0267 4.9908 69.0343C4.88639 69.0494 4.73763 69.0697 4.55794 69.0908C4.39849 69.1096 4.21341 69.1289 4.01236 69.1461C3.89752 69.1649 3.78015 69.1858 3.66361 69.2093C3.30077 69.2824 2.98453 69.3717 2.77792 69.4709C2.76546 69.4769 2.75381 69.4827 2.74295 69.4884C2.79065 69.5315 2.87393 69.5798 3.02117 69.6264C3.32931 69.7239 3.76785 69.7565 4.25597 69.7414C4.73327 69.7267 5.21105 69.6683 5.57347 69.6124C5.75362 69.5846 5.90295 69.5578 6.00645 69.5381C6.05811 69.5283 6.09823 69.5202 6.12495 69.5147C6.13829 69.512 6.14833 69.5099 6.15472 69.5086C6.15791 69.5079 6.16021 69.5073 6.16157 69.507C6.16219 69.5069 6.16264 69.5069 6.16287 69.5068L6.18579 69.5023C6.42259 69.4609 6.66098 69.5736 6.77862 69.7849L6.77968 69.7868C6.78113 69.7893 6.78403 69.7943 6.78843 69.8017C6.79721 69.8166 6.81205 69.841 6.83332 69.8745C6.87586 69.9414 6.94429 70.0443 7.04243 70.1784C7.23875 70.4467 7.5541 70.84 8.0185 71.3196C8.94683 72.2783 10.4739 73.5849 12.8436 74.9267C17.5821 77.6098 25.7091 80.4447 39.1838 80.9017C52.6618 81.3589 61.034 79.1953 66.0145 76.9501C68.5051 75.8273 70.1517 74.6824 71.168 73.8294C71.6764 73.4028 72.0278 73.0486 72.2488 72.8059C72.3593 72.6845 72.4371 72.5909 72.4858 72.53C72.5101 72.4996 72.5272 72.4773 72.5373 72.4638C72.5423 72.4571 72.5457 72.4525 72.5473 72.4502L72.5483 72.4489C72.5482 72.4491 72.5479 72.4495 72.5478 72.4495C72.6579 72.2934 72.8394 72.2032 73.0304 72.2097C74.3439 72.2544 75.2604 72.2335 75.8854 72.1751C76.0636 72.1585 76.2119 72.1391 76.3345 72.119C76.2016 72.0636 76.0285 71.9984 75.823 71.9267C75.4903 71.8107 75.1055 71.6886 74.7375 71.5767C74.3703 71.4651 74.0238 71.3649 73.7688 71.2925C73.6414 71.2564 73.5371 71.2271 73.4648 71.207C73.4287 71.197 73.4005 71.1892 73.3815 71.184C73.372 71.1814 73.3648 71.1794 73.36 71.1781C73.3576 71.1775 73.3559 71.177 73.3547 71.1767C73.3541 71.1765 73.3537 71.1764 73.3534 71.1763L73.3532 71.1762C73.0822 71.1023 72.9062 70.8413 72.9396 70.5626C72.9729 70.2839 73.2053 70.0715 73.4861 70.0635C74.4463 70.0361 75.2079 70.0363 75.8125 70.0368C76.4259 70.0373 76.8531 70.0377 77.1748 70.0139C77.5 69.9898 77.6385 69.9445 77.7096 69.9036C77.7512 69.8797 77.7997 69.8408 77.8641 69.7225C77.7306 69.6246 77.475 69.5125 77.0838 69.3893C76.6929 69.2663 76.2459 69.1549 75.7739 69.0299C75.3439 68.9161 74.8945 68.7911 74.5038 68.6424L74.4265 68.6123C74.3564 68.5845 74.269 68.5465 74.1924 68.4961C74.1586 68.4738 74.0827 68.4213 74.0179 68.3323C73.9467 68.2344 73.839 68.0108 73.954 67.7509C74.0452 67.545 74.2186 67.466 74.2667 67.4453C74.3349 67.416 74.3974 67.4032 74.4336 67.397C74.5098 67.3839 74.59 67.3804 74.6554 67.3794C74.9169 67.3754 75.3501 67.4103 75.7912 67.4497C76.25 67.4908 76.7412 67.5393 77.165 67.5718C77.3758 67.588 77.5617 67.5994 77.711 67.6039C77.7855 67.6062 77.8468 67.6066 77.8948 67.6054C77.9186 67.6047 77.9372 67.6038 77.9512 67.6028C77.9641 67.6018 77.9702 67.6009 77.9709 67.6008H77.9711C78.1092 67.5781 78.2095 67.5513 78.2802 67.5258C78.2553 67.4895 78.2227 67.4473 78.181 67.3997C78.0636 67.2658 77.8985 67.1149 77.6979 66.9554C77.2975 66.6369 76.8077 66.3242 76.4087 66.0871C76.2112 65.9696 76.0396 65.8729 75.9179 65.8057C75.8571 65.7722 75.8089 65.7461 75.7762 65.7286C75.7599 65.7199 75.7475 65.7133 75.7394 65.709C75.7353 65.7069 75.7323 65.7053 75.7304 65.7043C75.7294 65.7038 75.7287 65.7034 75.7284 65.7032L75.7281 65.7031L75.706 65.6909C75.4818 65.5609 75.3734 65.2937 75.4465 65.0428C77.4729 58.0823 76.5132 47.6135 72.5303 39.0966C72.3978 38.8132 72.5202 38.4762 72.8038 38.3437ZM5.02719 67.8847C5.329 67.8638 5.594 68.0836 5.62923 68.3839C5.66444 68.6842 5.45749 68.9592 5.15903 69.0087L5.06629 68.4498L5.02719 67.8847ZM5.00002 64.6185C5.2853 64.5244 5.59451 64.6691 5.70484 64.9484C5.81514 65.2276 5.68827 65.5444 5.41564 65.6705L5.17758 65.1564L5.00002 64.6185Z" fill="#231815"/>
<path d="M25.6675 23.1122C36.5994 19.776 46.3033 19.4531 56.6546 23.3882C56.9472 23.4994 57.0942 23.8267 56.9829 24.1191C56.8716 24.4114 56.5442 24.5583 56.2516 24.4471C46.1847 20.62 36.7455 20.916 25.9985 24.1958C25.6992 24.2872 25.3824 24.1187 25.291 23.8195C25.1996 23.5203 25.3681 23.2036 25.6675 23.1122Z" fill="#231815"/>
<path d="M41.6506 69.4219V64.3752C41.6506 64.3752 47.8978 59.6381 54.2515 62.2122C54.2515 62.2122 54.2514 64.7537 52.6001 66.3327C52.6001 66.3327 54.5382 66.8816 54.3591 70.1437H41.6494V69.4219H41.6506Z" fill="#DE6164"/>
<path d="M45.3741 61.7983C47.8018 60.9096 51.1079 60.3294 54.4637 61.6889L54.8164 61.8318V62.2122H54.2514C54.7964 62.2122 54.8157 62.2124 54.8164 62.2126V62.217C54.8164 62.2192 54.8163 62.222 54.8163 62.2255C54.8162 62.2323 54.8162 62.2415 54.8159 62.2531C54.8154 62.2762 54.8144 62.3087 54.8126 62.3496C54.809 62.4312 54.8019 62.5467 54.7879 62.6891C54.76 62.9733 54.7045 63.368 54.5935 63.8161C54.4169 64.5282 54.0922 65.4053 53.4896 66.1849C53.646 66.3042 53.8137 66.4565 53.9777 66.6499C54.5467 67.3209 55.0194 68.4217 54.9232 70.1746L54.8939 70.7084H41.0845V68.8572H41.0857V64.0949L41.3092 63.9255L41.6506 64.3752C41.3114 63.9284 41.3093 63.9253 41.3095 63.9251C41.3096 63.925 41.3099 63.9249 41.3101 63.9248C41.3105 63.9245 41.3111 63.924 41.3117 63.9236C41.3129 63.9227 41.3144 63.9215 41.3164 63.92C41.3203 63.9171 41.3258 63.913 41.3327 63.9079C41.3466 63.8976 41.3665 63.883 41.3921 63.8645C41.4434 63.8276 41.5178 63.775 41.6139 63.7098C41.806 63.5792 42.085 63.3977 42.439 63.1891C43.146 62.7721 44.1568 62.244 45.3741 61.7983ZM53.6619 62.5918C50.7914 61.5639 47.9513 62.0575 45.7627 62.8587C44.6241 63.2755 43.676 63.7708 43.0131 64.1616C42.6821 64.3568 42.4235 64.5252 42.2491 64.6437C42.2375 64.6516 42.2264 64.6593 42.2155 64.6667V69.579H53.8042C53.7769 68.4084 53.4266 67.7466 53.1158 67.38C52.9331 67.1646 52.7499 67.0341 52.6193 66.9593C52.5539 66.9219 52.5019 66.8986 52.4704 66.8858C52.4547 66.8794 52.4442 66.8757 52.4398 66.8742C52.4396 66.8742 52.4394 66.874 52.4393 66.874L51.4962 66.6069L52.2096 65.9248C52.9283 65.2376 53.3039 64.3221 53.4966 63.5446C53.5903 63.1668 53.6378 62.8327 53.6619 62.5918ZM52.4406 66.8743C52.4413 66.8745 52.4422 66.8749 52.4431 66.8752C52.4435 66.8753 52.4439 66.8753 52.4444 66.8754L52.4406 66.8743Z" fill="#231815"/>
<path d="M42.4321 65.721C42.2918 65.721 42.2047 65.7186 42.1841 65.7173C41.9385 65.7089 41.7462 65.507 41.7547 65.2688C41.7631 65.0294 41.9688 64.8444 42.2168 64.8504C42.2482 64.8517 45.5182 64.9472 47.6038 63.6523C47.8107 63.5229 48.0865 63.5821 48.2196 63.7841C48.3527 63.986 48.2922 64.2544 48.0841 64.3838C46.0904 65.6218 43.2814 65.721 42.4321 65.721Z" fill="#231815"/>
<path d="M44.8468 68.2008C44.7585 68.2008 44.669 68.179 44.5867 68.133C43.885 67.7425 43.1701 67.786 43.1628 67.7873C42.8664 67.8066 42.6305 67.6035 42.6087 67.3326C42.587 67.0618 42.7962 66.8248 43.0793 66.8031C43.1205 66.7995 44.1137 66.7281 45.1057 67.2807C45.3525 67.4185 45.4347 67.7208 45.292 67.9565C45.1952 68.1137 45.0234 68.202 44.8456 68.202L44.8468 68.2008Z" fill="#1B1719"/>
<path d="M36.4934 69.4219V64.3752C36.4934 64.3752 30.2462 59.6381 23.8925 62.2122C23.8925 62.2122 23.8925 64.7537 25.5439 66.3327C25.5439 66.3327 23.6058 66.8816 23.7849 70.1437H36.4934V69.4219Z" fill="#DE6164"/>
<path d="M35.9284 64.6667C35.9176 64.6593 35.9064 64.6516 35.8948 64.6437C35.7205 64.5252 35.4618 64.3568 35.1308 64.1616C34.468 63.7708 33.5198 63.2755 32.3812 62.8587C30.1926 62.0575 27.3525 61.5638 24.4819 62.5918C24.506 62.8326 24.5537 63.1668 24.6473 63.5446C24.84 64.3221 25.2158 65.2376 25.9344 65.9248L26.6478 66.6069L25.7045 66.874L25.7043 66.8742C25.6999 66.8757 25.6893 66.8794 25.6736 66.8858C25.642 66.8986 25.5901 66.9219 25.5247 66.9593C25.3941 67.0341 25.2109 67.1646 25.0282 67.38C24.7174 67.7466 24.3671 68.4084 24.3398 69.579H35.9284V64.6667ZM37.0583 70.7084H23.2501L23.2208 70.1746C23.1246 68.4217 23.5972 67.3209 24.1662 66.6499C24.3302 66.4565 24.4978 66.3041 24.6543 66.1849C24.0517 65.4054 23.7271 64.5282 23.5506 63.8161C23.4395 63.368 23.3839 62.9733 23.356 62.6891C23.3421 62.5467 23.335 62.4312 23.3313 62.3496C23.3295 62.3087 23.3286 62.2762 23.3281 62.2531C23.3279 62.2415 23.3277 62.2323 23.3277 62.2255C23.3276 62.222 23.3276 62.2192 23.3276 62.217V62.2126C23.3278 62.2124 23.3384 62.2122 23.8925 62.2122H23.3276V61.8318L23.6803 61.6889C27.0362 60.3294 30.3423 60.9095 32.7699 61.7983C33.9873 62.2439 34.998 62.7721 35.705 63.189C36.059 63.3978 36.3381 63.5792 36.5302 63.7097C36.6263 63.775 36.7007 63.8276 36.752 63.8645C36.7776 63.883 36.7974 63.8976 36.8113 63.9079C36.8182 63.913 36.8236 63.9171 36.8276 63.92C36.8295 63.9215 36.8312 63.9227 36.8324 63.9236C36.833 63.924 36.8335 63.9245 36.8339 63.9248C36.8341 63.9249 36.8343 63.925 36.8344 63.9251C36.8346 63.9253 36.8348 63.9254 36.4933 64.3752L36.8349 63.9255L37.0583 64.0949V70.7084Z" fill="#231815"/>
<path d="M35.7131 65.7209C34.8638 65.7209 32.0548 65.6218 30.0611 64.3837C29.853 64.2543 29.7925 63.9871 29.9256 63.784C30.0587 63.5821 30.3345 63.5241 30.5426 63.6522C32.633 64.9508 35.8969 64.8504 35.9296 64.8504C36.1667 64.8419 36.3833 65.0281 36.3917 65.2675C36.4002 65.5069 36.2079 65.7076 35.9623 65.7173C35.9417 65.7173 35.8546 65.7209 35.7143 65.7209H35.7131Z" fill="#231815"/>
<path d="M33.2996 68.2007C33.1218 68.2007 32.9488 68.1137 32.8532 67.9553C32.7093 67.7195 32.7928 67.4173 33.0395 67.2794C34.0291 66.7269 35.0248 66.797 35.0671 66.8019C35.3514 66.8248 35.5631 67.063 35.5389 67.335C35.5159 67.6071 35.2631 67.8066 34.9836 67.7872C34.9618 67.7848 34.2541 67.7461 33.5609 68.133C33.4799 68.179 33.3892 68.2007 33.3008 68.2007H33.2996Z" fill="#1B1719"/>
<path d="M42.818 69.1909C42.818 69.7543 42.2712 70.2126 41.5974 70.2126H37.1467C36.4728 70.2126 35.9248 69.7543 35.9248 69.1909V64.7464C35.9248 64.183 36.4728 63.7247 37.1467 63.7247H41.5974C42.2712 63.7247 42.818 64.183 42.818 64.7464V69.1909Z" fill="#DE6164"/>
<path d="M42.253 64.7465C42.253 64.5844 42.0569 64.2894 41.5973 64.2894H37.1466C36.6863 64.2894 36.4898 64.585 36.4898 64.7465V69.1909C36.4898 69.3524 36.6863 69.648 37.1466 69.648H41.5973C42.0569 69.648 42.253 69.353 42.253 69.1909V64.7465ZM43.383 69.1909C43.383 70.1557 42.4854 70.7772 41.5973 70.7772H37.1466C36.2594 70.7772 35.3599 70.1563 35.3599 69.1909V64.7465C35.3599 63.7811 36.2594 63.1602 37.1466 63.1602H41.5973C42.4854 63.1602 43.383 63.7817 43.383 64.7465V69.1909Z" fill="#231815"/>
<path d="M63.5858 66.8164H15.4097V74.9183H63.5858V66.8164Z" fill="#77BADF"/>
<path d="M63.586 66.3322C63.8535 66.3322 64.0705 66.549 64.0705 66.8164V74.9183C64.0705 75.1857 63.8535 75.4025 63.586 75.4025H15.4098C15.1422 75.4025 14.9253 75.1857 14.9253 74.9183V66.8164C14.9253 66.5489 15.1422 66.3322 15.4098 66.3322H63.586ZM15.8943 74.4341H63.1014V67.3006H15.8943V74.4341Z" fill="#231815"/>
<path d="M61.008 74.9231H18.2358V96.8506H61.008V74.9231Z" fill="#77BADF"/>
<path d="M61.0078 74.4388C61.2754 74.4388 61.4924 74.6556 61.4924 74.9231V96.8507C61.4924 97.1181 61.2754 97.3349 61.0078 97.3349H18.2357C17.9681 97.3349 17.7512 97.1181 17.7512 96.8507V74.9231C17.7512 74.6556 17.9681 74.4388 18.2357 74.4388H61.0078ZM18.7202 96.3664H60.5233V75.4073H18.7202V96.3664Z" fill="#231815"/>
<path d="M60.4514 75.4055H18.7402V76.1648H60.4514V75.4055Z" fill="#2B90BA"/>
<path d="M44.4525 75.9327H33.9639V96.1531H44.4525V75.9327Z" fill="#2B90BA"/>
<path d="M43.0503 66.7837H35.2256V96.8506H43.0503V66.7837Z" fill="#DE6164"/>
<path d="M43.6152 66.2191V97.4153H34.6606V66.2191H43.6152ZM35.7905 96.286H42.4853V67.3484H35.7905V96.286Z" fill="#231815"/>
<path d="M61.5935 83.1798C62.9738 83.3914 63.921 84.1507 64.7715 85.1856C65.5917 86.1831 66.1651 87.1927 66.2413 87.854C66.3176 88.5154 65.7115 93.0192 63.6343 96.3997C62.3278 98.5264 55.0983 98.0912 54.9265 93.0796C54.8043 89.5093 56.625 86.3609 58.1118 85.5145C58.8195 85.1119 59.8744 85.1324 60.8906 85.2147" fill="#E24D4D"/>
<path d="M61.0422 83.0953C61.0889 82.7911 61.3736 82.5823 61.6781 82.629C63.2461 82.8693 64.3052 83.74 65.2024 84.8318L65.2817 84.9292C65.675 85.417 66.0152 85.9114 66.273 86.3754C66.5421 86.8597 66.745 87.3528 66.7954 87.7904C66.8237 88.0354 66.7885 88.5073 66.7107 89.0693C66.6295 89.6568 66.4923 90.4064 66.287 91.2405C65.8776 92.9031 65.1892 94.9344 64.1096 96.6914C63.6653 97.4147 62.7868 97.8358 61.8605 98.0287C60.9114 98.2263 59.7972 98.2113 58.7269 97.9591C56.5923 97.4561 54.4669 95.9474 54.3692 93.0988V93.0987C54.3048 91.2158 54.7519 89.4492 55.4105 88.0397C56.0602 86.6492 56.9509 85.534 57.8358 85.0303L57.8359 85.0302C58.2917 84.7709 58.8259 84.6648 59.345 84.627C59.868 84.5889 60.4201 84.6175 60.9356 84.6592C61.2426 84.6841 61.4714 84.9529 61.4465 85.2597C61.4217 85.5665 61.1526 85.7951 60.8457 85.7703C60.3449 85.7298 59.8615 85.707 59.4261 85.7388C58.9868 85.7708 58.6396 85.8557 58.3877 85.999L58.3876 85.9989C57.7858 86.3415 57.0228 87.2237 56.4211 88.5114C55.8282 89.7804 55.4261 91.3731 55.4839 93.0605C55.558 95.2235 57.1333 96.4382 58.9829 96.874C59.9048 97.0913 60.8536 97.0996 61.6329 96.9373C62.435 96.7703 62.9502 96.4482 63.1591 96.1081L63.2516 95.9551C64.1972 94.3654 64.8223 92.5237 65.2038 90.9741C65.4001 90.177 65.53 89.4653 65.6059 88.9167C65.6853 88.3427 65.6971 88.0036 65.6873 87.9179C65.6615 87.6941 65.5396 87.3517 65.2979 86.9165C65.062 86.492 64.7339 86.0179 64.3406 85.5396L64.3405 85.5394C63.5368 84.5615 62.7014 83.9136 61.5089 83.7308C61.2045 83.6841 60.9955 83.3996 61.0422 83.0953Z" fill="#231815"/>
<path d="M17.7567 83.7046C16.3619 83.6405 15.284 84.1991 14.246 85.0466C13.2456 85.8628 12.4846 86.7405 12.2802 87.3741C12.0745 88.0076 11.7842 92.5428 13.156 96.2643C14.0186 98.6063 21.1925 99.6001 22.3466 94.7203C23.1692 91.2431 22.003 87.7985 20.711 86.6765C20.0964 86.142 19.0572 85.9546 18.0459 85.8362" fill="#E24D4D"/>
<path d="M13.9963 84.5319C15.0641 83.6812 16.2472 83.0773 17.7824 83.1478C18.0901 83.1619 18.3281 83.4226 18.3139 83.7301C18.2998 84.0376 18.0389 84.2755 17.7313 84.2613C16.5264 84.206 15.5801 84.6771 14.599 85.4782L14.5988 85.4784C14.1191 85.8697 13.7043 86.2699 13.3896 86.6398C13.067 87.019 12.8802 87.3309 12.8111 87.5452L12.8107 87.546C12.7842 87.6277 12.7292 87.9622 12.6941 88.5408C12.6606 89.0936 12.6481 89.8169 12.6839 90.6369C12.7556 92.2826 13.0206 94.2842 13.6794 96.0715L13.6795 96.0718C13.8175 96.4462 14.2592 96.8633 15.0126 97.1846C15.7448 97.4969 16.6768 97.6753 17.6233 97.6434C19.5225 97.5796 21.3058 96.6982 21.8039 94.5921C22.1927 92.9486 22.1119 91.3078 21.7801 89.9471C21.4433 88.5662 20.8683 87.5514 20.3452 87.0972L20.345 87.097C20.1264 86.9068 19.8026 86.7551 19.3782 86.6373C18.9575 86.5206 18.4792 86.4481 17.981 86.3897C17.6751 86.3539 17.4562 86.077 17.492 85.7713C17.5279 85.4655 17.8051 85.2467 18.111 85.2826C18.6241 85.3427 19.1711 85.423 19.6765 85.5632C20.178 85.7024 20.681 85.9116 21.0769 86.2557L21.1486 86.3201C21.8864 87.003 22.5115 88.2385 22.8638 89.6831C23.2208 91.1473 23.3172 92.9013 22.9285 94.6766L22.8894 94.8486C22.2334 97.6222 19.8527 98.6838 17.6609 98.7575C16.5619 98.7944 15.4665 98.5902 14.5749 98.21C13.7047 97.8388 12.9262 97.2534 12.6328 96.4569C11.9198 94.5228 11.644 92.3961 11.5694 90.6854C11.532 89.8273 11.5449 89.0653 11.5808 88.4733C11.6151 87.9078 11.6734 87.4384 11.7496 87.203H11.7495C11.8848 86.7837 12.1807 86.3399 12.5398 85.9178C12.9068 85.4865 13.3726 85.0397 13.8933 84.615L13.9963 84.5319Z" fill="#231815"/>
<path d="M57.4403 3.53767C57.7706 2.43742 57.3544 1.55723 56.4072 1.21385C55.0499 0.720555 54.3168 1.83652 54.053 2.5148C54.2466 1.83289 53.995 0.611739 52.7029 0.353C51.6577 0.143832 50.6355 0.869269 50.4225 2.09768C49.9786 4.6488 52.9933 6.58934 53.0477 6.6377C53.1203 6.63287 56.6649 6.12144 57.4403 3.53888V3.53767Z" fill="#E01C21"/>
<path d="M50.1098 2.04335C50.3489 0.664547 51.5209 -0.207153 52.7655 0.0419038L52.8349 0.056781C53.5439 0.219443 53.9889 0.646687 54.2222 1.13962C54.2692 1.23888 54.3075 1.34059 54.3378 1.44307C54.4242 1.34781 54.5196 1.25727 54.6243 1.17528C55.0909 0.80996 55.7278 0.629207 56.5159 0.91564H56.5158C57.0602 1.11302 57.4719 1.47395 57.6924 1.96129C57.9105 2.44342 57.9267 3.01638 57.7472 3.62021C57.7463 3.62353 57.7456 3.62695 57.7446 3.63024C57.3182 5.05011 56.1387 5.87701 55.1122 6.3439C54.0849 6.81118 53.1431 6.94952 53.069 6.95446C52.9841 6.96011 52.9005 6.93148 52.8369 6.87499C52.8655 6.90037 52.0266 6.33942 51.3088 5.51456C50.5809 4.67815 49.8633 3.45978 50.1098 2.04335ZM52.6407 0.664264C51.7949 0.495028 50.9224 1.07413 50.7356 2.15198V2.15221C50.5381 3.28686 51.1059 4.31429 51.788 5.098C52.3323 5.72349 52.8789 6.12519 53.1279 6.30411C53.3832 6.25871 54.0877 6.1125 54.8491 5.76618C55.8053 5.33124 56.7838 4.61278 57.1344 3.45361C57.135 3.45127 57.1356 3.44885 57.1363 3.44652C57.2843 2.95335 57.2568 2.53936 57.1136 2.22282C56.9718 1.90921 56.7018 1.65827 56.299 1.51226H56.2988C55.7296 1.30541 55.3212 1.43607 55.016 1.67496C54.6921 1.92854 54.4699 2.31909 54.3491 2.62982C54.2877 2.78778 54.113 2.86966 53.9522 2.81578C53.7914 2.76188 53.7014 2.59129 53.7477 2.42827C53.8242 2.15871 53.8144 1.76215 53.6482 1.41107C53.4937 1.08471 53.2023 0.791787 52.6909 0.675008L52.6407 0.664264Z" fill="#231815"/>
<path d="M56.5538 12.7677C56.9082 11.1233 56.1981 9.88647 54.7742 9.49353C52.7358 8.9301 51.7934 10.6458 51.4873 11.6662C51.6917 10.6482 51.1824 8.89262 49.265 8.66532C47.7153 8.48154 46.3059 9.65917 46.1365 11.4776C45.7845 15.2547 50.4118 17.7393 50.4977 17.8034C50.603 17.7877 55.7214 16.6294 56.5538 12.7677Z" fill="#E01C21"/>
<path d="M45.7414 11.4408C45.9285 9.4324 47.5097 8.05783 49.3116 8.27149C50.4013 8.40067 51.1152 8.97416 51.5158 9.67183C51.6157 9.84572 51.6958 10.0269 51.7579 10.2102C51.8893 10.0278 52.0401 9.85241 52.2124 9.69403C52.8352 9.12143 53.72 8.79084 54.8795 9.11122H54.8796C55.6821 9.33269 56.3094 9.80162 56.6782 10.4698C57.045 11.1344 57.1344 11.9564 56.9415 12.8512C56.49 14.9461 54.8834 16.2775 53.4454 17.0746C52.0061 17.8724 50.6547 18.1809 50.5562 18.1956C50.4515 18.2112 50.345 18.1845 50.2602 18.1212C50.2858 18.1404 49.0189 17.4372 47.875 16.316C46.7202 15.1841 45.5488 13.5072 45.7414 11.4408ZM49.2181 9.05915C47.9206 8.90528 46.6832 9.88593 46.5315 11.5144C46.3721 13.225 47.3382 14.679 48.4306 15.7497C49.318 16.6195 50.1965 17.1591 50.5644 17.3804C50.6994 17.346 50.9365 17.281 51.2443 17.1772C51.7358 17.0116 52.3883 16.7536 53.0605 16.3809C54.4161 15.6295 55.7849 14.451 56.1657 12.6842V12.6841C56.3273 11.9346 56.2389 11.316 55.9833 10.8529C55.7296 10.3933 55.2898 10.0472 54.6684 9.87574H54.6683C53.7895 9.63286 53.184 9.87837 52.7496 10.2778C52.2933 10.6973 52.0093 11.3066 51.8673 11.7801C51.8064 11.983 51.5967 12.1023 51.3911 12.051C51.1854 11.9997 51.0564 11.7958 51.0981 11.5881C51.182 11.1702 51.1196 10.5751 50.8275 10.0667C50.5453 9.57524 50.0458 9.15728 49.2181 9.05915Z" fill="#231815"/>
</g>
<defs>
<clipPath id="clip0_2_353">
<rect width="80" height="126" fill="white"/>
</clipPath>
</defs>
</svg>
