<svg width="83" height="65" viewBox="0 0 83 65" fill="none" xmlns="http://www.w3.org/2000/svg">
<path d="M18.5444 24.0615C8.36738 24.0615 9.25564e-05 31.0599 9.25564e-05 39.6624C9.25564e-05 43.1011 1.33391 46.5959 3.77997 49.3046L0.325812 53.2518C-0.0140577 53.6406 -0.0964984 54.1929 0.118568 54.6641C0.332316 55.1353 0.800945 55.4379 1.31844 55.4379H19.8628C27.3769 55.4379 37.0887 48.9674 37.0887 39.6624C37.0887 31.0599 28.7214 24.0615 18.5444 24.0615ZM10.5466 42.0789C9.09309 42.0789 7.91 40.8957 7.91 39.4423C7.91 37.9888 9.09318 36.8057 10.5466 36.8057C12 36.8057 13.1832 37.9888 13.1832 39.4423C13.1833 40.8957 12.0001 42.0789 10.5466 42.0789ZM18.5444 42.0789C17.0909 42.0789 15.9078 40.8957 15.9078 39.4423C15.9078 37.9888 17.091 36.8057 18.5444 36.8057C19.9978 36.8057 21.181 37.9888 21.181 39.4423C21.181 40.8957 19.9979 42.0789 18.5444 42.0789ZM26.5422 42.0789C25.0887 42.0789 23.9056 40.8957 23.9056 39.4423C23.9056 37.9888 25.0888 36.8057 26.5422 36.8057C27.9957 36.8057 29.1788 37.9888 29.1788 39.4423C29.1788 40.8957 27.9957 42.0789 26.5422 42.0789Z" fill="#C0D9FF"/>
<path d="M45.9957 36.3881L42.8918 32.7666C45.1074 30.2664 46.3138 27.2177 46.3138 24.0636C46.3137 16.0675 38.6253 9.56213 29.1756 9.56213C20.6305 9.56213 13.3707 14.8873 12.0889 21.8184C14.4731 21.0082 17.147 20.5477 19.8596 20.5477C31.4042 20.5477 40.8891 28.6111 41.0277 38.5651H44.9954C46.1216 38.5652 46.7263 37.2391 45.9957 36.3881Z" fill="#A5BBFD"/>
<g clip-path="url(#clip0_104_1484)">
<path d="M70.1842 39.9403C69.336 40.6257 68.6391 41.6525 68.1308 43.1872C68.0266 43.502 67.9103 43.8492 67.7852 44.2197C69.9015 44.3249 72.6113 45.4739 74.1952 50.0637C74.4252 48.9242 74.8801 48.2236 75.4602 47.784C74.6698 42.9047 72.1703 40.8258 70.1836 39.9409L70.1842 39.9403Z" fill="#79371E"/>
<path d="M70.1813 39.9364C70.1834 39.9347 70.1864 39.9349 70.1882 39.9369C70.1884 39.9371 70.1884 39.9373 70.1885 39.9375C72.1764 40.8238 74.6751 42.9044 75.4654 47.7832C75.4657 47.785 75.465 47.7869 75.4635 47.788C74.8846 48.2267 74.4302 48.9261 74.2004 50.0647C74.2 50.0669 74.1981 50.0686 74.1958 50.0687C74.1935 50.0689 74.1914 50.0675 74.1906 50.0653C73.3989 47.7712 72.326 46.3374 71.187 45.464C70.048 44.5906 68.8425 44.2773 67.7851 44.2248C67.7835 44.2247 67.7821 44.2239 67.7812 44.2226C67.7803 44.2213 67.78 44.2196 67.7805 44.2181C67.9057 43.8475 68.022 43.5005 68.1262 43.1857C68.6347 41.6502 69.3322 40.6225 70.1813 39.9364ZM70.1845 39.9468C69.3387 40.6314 68.6432 41.6566 68.1358 43.1888C68.0322 43.5019 67.9167 43.8469 67.7923 44.2151C68.8497 44.2687 70.0547 44.5829 71.1932 45.4559C72.3312 46.3286 73.4025 47.7592 74.1942 50.0447C74.4252 48.9165 74.8778 48.2201 75.4549 47.7818C74.6646 42.9087 72.1689 40.8315 70.1845 39.9468Z" fill="#231815"/>
<path d="M66.314 48.5099C65.779 50.0529 65.2739 51.4996 64.9492 52.4244C67.1202 52.7931 70.1476 54.129 71.8688 58.4762C72.6293 57.7256 73.1973 56.6386 73.5665 55.1279C71.9844 50.5558 68.7683 49.0033 66.314 48.5099Z" fill="#79371E"/>
<path d="M66.3152 48.5049C68.7709 48.9986 71.9888 50.5521 73.5715 55.1262C73.5718 55.1272 73.5718 55.1281 73.5716 55.1291C73.2023 56.6404 72.6339 57.7283 71.8726 58.4797C71.8713 58.4809 71.8696 58.4814 71.868 58.4811C71.8663 58.4807 71.8649 58.4796 71.8643 58.478C70.1439 54.1328 67.1181 52.7978 64.9485 52.4294C64.9471 52.4292 64.9458 52.4283 64.945 52.427C64.9443 52.4257 64.9441 52.4242 64.9446 52.4227C65.2693 51.498 65.7744 50.0512 66.3093 48.5082L66.3103 48.5066C66.3114 48.5052 66.3133 48.5045 66.3152 48.5049ZM66.3175 48.5157C65.7841 50.054 65.2806 51.4962 64.9561 52.4204C67.1269 52.7905 70.1499 54.1276 71.8708 58.4671C72.6275 57.7178 73.1933 56.6339 73.5614 55.1281C71.9808 50.5619 68.7697 49.0098 66.3175 48.5157Z" fill="#231815"/>
<path d="M67.7849 44.2197C67.3548 45.4941 66.8211 47.0454 66.3135 48.5099C68.7672 49.0033 71.9833 50.5565 73.566 55.1279C73.8189 54.0916 73.979 52.8558 74.0431 51.3913C74.0647 50.8922 74.1175 50.4519 74.1956 50.063C72.6111 45.4732 69.9019 44.3242 67.7856 44.2191L67.7849 44.2197Z" fill="#EC7032"/>
<path d="M78.1198 39.1758C77.0537 38.7767 75.9272 38.588 74.9653 38.6089C74.6069 38.6165 74.2562 38.6323 73.915 38.6602C75.8217 40.3267 77.9273 43.0739 77.8212 47.029C78.5099 46.9586 79.2069 46.9352 79.8282 46.8117C79.921 43.3355 79.0404 40.8284 78.1191 39.1764L78.1198 39.1758Z" fill="#79371E"/>
<path d="M75.0561 38.6025C75.9984 38.5949 77.0884 38.7842 78.1218 39.171C78.1234 39.1716 78.1246 39.173 78.1249 39.1747C78.125 39.1751 78.1249 39.1755 78.1249 39.1759C79.0461 40.8286 79.9263 43.336 79.8336 46.8118C79.8335 46.8141 79.8318 46.8162 79.8295 46.8167C79.2078 46.9402 78.5101 46.9637 77.8219 47.034C77.8205 47.0341 77.819 47.0337 77.8179 47.0327C77.8169 47.0317 77.8163 47.0302 77.8163 47.0288C77.9224 43.0758 75.8179 40.3299 73.9119 38.6639C73.9104 38.6626 73.9098 38.6605 73.9104 38.6586C73.911 38.6566 73.9128 38.6553 73.9148 38.6551C74.2561 38.6272 74.607 38.6114 74.9654 38.6038L75.0561 38.6025ZM78.1151 39.1793C77.0505 38.7813 75.9259 38.593 74.9656 38.6139H74.9656C74.6115 38.6214 74.2648 38.637 73.9275 38.6642C75.8315 40.3313 77.9303 43.0754 77.8266 47.0233C78.5124 46.9535 79.2051 46.9299 79.8234 46.8074C79.9154 43.3346 79.0355 40.8299 78.1151 39.1793Z" fill="#231815"/>
<path d="M64.949 52.4244C64.7368 53.0313 64.6021 53.4138 64.5882 53.4525C64.5882 53.4525 61.7094 59.4022 66.411 59.8355C68.7599 60.0521 70.5878 59.7398 71.8686 58.4762C70.1475 54.1283 67.12 52.7931 64.949 52.4244Z" fill="#EC7032"/>
<path d="M73.9153 38.6602C72.4896 38.7754 71.224 39.1017 70.1846 39.9409C72.1713 40.8265 74.6708 42.9054 75.4611 47.784C76.1327 47.2753 76.9714 47.1157 77.8215 47.0289C77.9276 43.0745 75.822 40.3273 73.9153 38.6602Z" fill="#EC7032"/>
<path d="M78.1201 39.1758C79.0414 40.8277 79.922 43.3348 79.8292 46.8111C80.8153 46.6153 81.6126 46.1688 81.8916 44.8823C82.5256 41.9533 80.4684 40.0543 78.1208 39.1758H78.1201Z" fill="#EC7032"/>
<path d="M74.9593 38.3559C76.5585 38.3213 78.5868 38.8412 80.1077 39.9279C81.6426 41.0246 82.6838 42.7227 82.1909 44.9993C82.0661 45.576 81.8399 46.0177 81.5259 46.3515C81.2126 46.6845 80.8286 46.892 80.4166 47.0275C80.0076 47.162 79.5621 47.2282 79.1177 47.2736C78.8948 47.2964 78.6676 47.3144 78.4434 47.3325C78.2179 47.3508 77.9946 47.3692 77.7734 47.3932C76.8811 47.4899 76.0818 47.6722 75.4797 48.2177C74.8846 48.7567 74.4268 49.7034 74.3497 51.4573C74.1909 55.0729 73.4539 57.3923 72.0878 58.7427C70.7096 60.105 68.7646 60.4119 66.3834 60.1924C65.1352 60.0773 64.337 59.5869 63.8842 58.8709C63.4419 58.1714 63.3634 57.3091 63.4319 56.5081C63.5009 55.7023 63.7222 54.9184 63.9229 54.3414C64.0237 54.0516 64.1203 53.811 64.192 53.6423C64.2279 53.5579 64.2576 53.4913 64.2786 53.4454C64.289 53.4225 64.2974 53.4047 64.3031 53.3924C64.3037 53.3912 64.3041 53.3901 64.3046 53.3891C64.4421 52.9982 66.7713 46.3694 67.8404 43.144C68.4987 41.1565 69.4789 39.9584 70.7236 39.2598C71.9555 38.5684 73.4074 38.3894 74.9593 38.3559ZM79.7506 40.4247C78.3482 39.4227 76.4529 38.935 74.9726 38.967C73.445 39 72.1198 39.1776 71.0244 39.7924C69.9418 40.4001 69.0445 41.458 68.4226 43.3357V43.3357C67.3326 46.6243 64.9377 53.4367 64.8781 53.6062C64.8743 53.6169 64.8699 53.6274 64.8649 53.6377C64.8649 53.6378 64.8648 53.638 64.8647 53.6382C64.8645 53.6387 64.8641 53.6395 64.8635 53.6407C64.8624 53.6431 64.8606 53.6468 64.8582 53.6519C64.8534 53.6622 64.8461 53.6778 64.8366 53.6986C64.8177 53.74 64.7902 53.8017 64.7565 53.8809C64.6892 54.0392 64.5977 54.2669 64.5021 54.5416C64.3101 55.0937 64.1058 55.8244 64.0428 56.5601C63.9794 57.3008 64.0627 58.007 64.4029 58.545C64.7327 59.0664 65.3376 59.4822 66.4398 59.5838C68.7595 59.7976 70.4726 59.4786 71.6561 58.3086C72.8517 57.1268 73.5801 55.0075 73.7372 51.4305L73.7413 51.3447C73.8335 49.5529 74.3173 48.4447 75.0674 47.7653C75.8223 47.0815 76.7923 46.8846 77.7072 46.7855C77.9377 46.7605 78.1687 46.7415 78.3938 46.7233C78.6203 46.705 78.8402 46.6876 79.0552 46.6656C79.4864 46.6215 79.8794 46.5605 80.2246 46.447C80.5668 46.3346 80.8529 46.1733 81.0787 45.9333C81.3038 45.6941 81.486 45.3585 81.5916 44.8704C82.0206 42.8885 81.1389 41.4167 79.7506 40.4247Z" fill="#231815"/>
<path d="M69.1118 61.4394L68.9987 61.4596C69.9594 59.8932 70.014 52.306 69.9657 50.8808C69.7808 45.4771 69.2884 30.5555 57.267 32.0701C57.267 32.0701 53.3685 31.6292 50.7699 37.7316C49.5519 40.5928 48.6192 44.8918 48.5087 51.3496C48.4166 56.721 48.9846 59.8127 49.8779 61.4394C50.0323 61.7206 47.9775 62.3642 47.9775 63.4695C47.9775 64.9929 53.737 64.6616 54.9378 63.961C55.5534 63.6538 57.4684 58.9031 57.6577 58.5256C58.1349 57.5748 59.999 55.9755 61.5168 58.4825C62.5804 60.2403 63.4375 63.6544 64.0538 63.961C65.2546 64.6622 71.0141 64.9929 71.0141 63.4695C71.0141 62.3642 68.9587 61.7206 69.1137 61.4394H69.1118Z" fill="#EC7032"/>
<path d="M65.4038 48.8583C62.6947 39.3139 55.0438 38.8432 52.2114 48.3534C49.989 55.8133 52.9624 61.7535 56.1652 61.7535C57.089 59.7886 57.2745 59.1615 57.53 58.6516C58.0071 57.7009 60.1069 56.4112 61.3891 58.6086C62.0352 59.7164 62.1394 60.0958 62.8173 61.7535C66.0201 61.7535 67.2521 55.3673 65.4045 48.8583H65.4038Z" fill="#FFF9EF"/>
<path d="M59.1345 57.1473C59.5759 57.0598 60.057 57.0803 60.5115 57.2862C60.9687 57.4933 61.3717 57.8757 61.674 58.4641L61.674 58.4642C62.1718 59.4334 62.6606 60.7493 63.0904 61.8297C63.308 62.3765 63.5098 62.8618 63.6933 63.2275C63.7852 63.4106 63.8683 63.555 63.9418 63.6588C63.9783 63.7104 64.0093 63.7474 64.0343 63.7725C64.0602 63.7986 64.0722 63.8043 64.0693 63.8029C64.0757 63.806 64.082 63.8095 64.0881 63.8131C64.3304 63.9545 64.8606 64.1006 65.5682 64.2062C66.2599 64.3094 67.0753 64.3678 67.8532 64.3579C68.6357 64.348 69.358 64.2693 69.874 64.1102C70.1331 64.0303 70.317 63.937 70.4305 63.8408C70.537 63.7507 70.5678 63.6719 70.5678 63.5962C70.5678 63.4237 70.4884 63.2474 70.3265 63.06C70.1639 62.8718 69.9394 62.6976 69.6996 62.5355C69.581 62.4553 69.4628 62.3808 69.3497 62.3099C69.2391 62.2404 69.1293 62.1718 69.0373 62.1088C68.9501 62.0489 68.854 61.9777 68.7846 61.8994C68.7821 61.8966 68.7793 61.8933 68.7764 61.8899C68.7093 61.8689 68.6495 61.8262 68.6082 61.766C68.5372 61.6626 68.5338 61.5272 68.5994 61.4203C68.6946 61.2649 68.7912 61.0113 68.882 60.6609C68.9714 60.3157 69.0502 59.8974 69.1189 59.427C69.2565 58.4865 69.3512 57.3571 69.4148 56.2261C69.5421 53.9636 69.5434 51.7203 69.5196 51.0184C69.4269 48.3086 69.2567 43.2815 67.6306 39.1234C66.8192 37.0484 65.6548 35.2161 63.981 33.9939C62.3152 32.7773 60.1145 32.1429 57.18 32.5126C57.1549 32.5157 57.1296 32.5158 57.1044 32.513V32.5131C57.1045 32.5131 57.1047 32.5131 57.1048 32.5131C57.105 32.5131 57.1052 32.5132 57.1053 32.5132H57.1052C57.1047 32.5131 57.1033 32.5129 57.101 32.5127C57.0964 32.5123 57.0881 32.5117 57.0765 32.511C57.0532 32.5096 57.0163 32.5081 56.967 32.508C56.8683 32.5079 56.7202 32.5138 56.5325 32.5387C56.1573 32.5886 55.6237 32.7149 55.0095 33.0234C53.8062 33.6277 52.2601 34.9482 50.9967 37.8436L50.9368 37.9826C49.74 40.794 48.811 45.0492 48.7009 51.4817C48.6088 56.8478 49.1809 59.8653 50.0309 61.4132L50.031 61.4132C50.1571 61.6431 50.0057 61.8398 49.9527 61.8996C49.8833 61.9778 49.7872 62.0489 49.6999 62.1088C49.608 62.1718 49.4983 62.2404 49.3876 62.3099C49.2746 62.3808 49.1564 62.4553 49.0378 62.5355C48.798 62.6976 48.5736 62.8718 48.4111 63.06C48.2491 63.2474 48.1698 63.4237 48.1698 63.5962C48.1698 63.6706 48.2003 63.7491 48.3084 63.8397C48.4237 63.9363 48.6101 64.0298 48.8722 64.1098C49.3944 64.2691 50.1248 64.3478 50.9152 64.3577C51.7009 64.3675 52.5241 64.3091 53.2218 64.2058C53.9355 64.1002 54.4692 63.9542 54.7112 63.813L54.7295 63.803C54.7314 63.8018 54.746 63.7926 54.7734 63.7659C54.8033 63.7367 54.8401 63.6947 54.8834 63.6378C54.9704 63.5236 55.0708 63.3666 55.182 63.1718C55.4039 62.783 55.6536 62.2705 55.9068 61.7115C56.4127 60.5946 56.9207 59.3194 57.2341 58.5346V58.5345C57.3618 58.2148 57.6318 57.9117 57.956 57.6727C58.2845 57.4305 58.6947 57.2345 59.1345 57.1473ZM69.2665 61.7194C69.2696 61.7138 69.2723 61.7082 69.2749 61.7027C69.2722 61.7083 69.2696 61.7139 69.2665 61.7194ZM71.2063 63.5962C71.2063 63.9013 71.0571 64.1454 70.8439 64.326C70.6378 64.5006 70.3624 64.626 70.0627 64.7184C69.4613 64.9038 68.6687 64.9842 67.8613 64.9944C67.0492 65.0047 66.1995 64.944 65.4737 64.8357C64.7668 64.7302 64.1293 64.5728 63.7703 64.3651C63.6261 64.2886 63.5107 64.1538 63.4201 64.0259C63.3202 63.8848 63.2208 63.7086 63.1223 63.5124C62.9251 63.1194 62.7144 62.611 62.4969 62.0644C62.0567 60.9579 61.5851 59.6879 61.1056 58.7543V58.7542C60.8593 58.2747 60.5549 58.0051 60.2474 57.8658C59.9371 57.7252 59.596 57.7049 59.259 57.7717C58.9206 57.8388 58.5963 57.9924 58.3357 58.1845C58.0873 58.3677 57.919 58.5691 57.8416 58.737L57.8273 58.7701C57.5149 59.5523 57.0016 60.8412 56.4888 61.9735C56.2326 62.5389 55.9735 63.0723 55.737 63.4866C55.619 63.6933 55.5029 63.8772 55.392 64.0227C55.2924 64.1536 55.17 64.2903 55.0283 64.3654C54.6688 64.573 54.0274 64.7301 53.3155 64.8355C52.584 64.9438 51.7268 65.0044 50.9072 64.9942C50.0922 64.984 49.2922 64.9037 48.6854 64.7185C48.3831 64.6263 48.1054 64.5012 47.8976 64.327C47.6827 64.147 47.5313 63.9026 47.5312 63.5962C47.5312 63.2161 47.7088 62.8974 47.9273 62.6445C48.1452 62.3923 48.4248 62.1808 48.6794 62.0086C48.808 61.9217 48.9346 61.842 49.0473 61.7712C49.1623 61.699 49.2593 61.6383 49.3382 61.5841C49.3549 61.5727 49.3697 61.5621 49.383 61.5525C48.4992 59.8108 47.9732 56.6773 48.0625 51.4708C48.1735 44.9878 49.1098 40.6448 50.349 37.7339L50.4114 37.5893C51.7256 34.5778 53.3673 33.1353 54.7223 32.4548C55.4076 32.1107 56.011 31.9658 56.448 31.9077C56.6664 31.8787 56.8431 31.8712 56.9678 31.8714C57.0301 31.8715 57.0795 31.8735 57.1146 31.8755C57.1214 31.876 57.1277 31.8766 57.1335 31.877C60.1934 31.4984 62.5517 32.161 64.3584 33.4803C66.1638 34.7987 67.3881 36.7507 68.2255 38.8922C69.7928 42.9 70.0387 47.6641 70.1393 50.4637L70.1578 50.9966V50.9968C70.1823 51.7201 70.1805 53.9829 70.0524 56.2618C69.9883 57.4015 69.8922 58.5517 69.7508 59.5188C69.6801 60.0023 69.5974 60.4449 69.5002 60.8201C69.4388 61.057 69.3693 61.2759 69.2892 61.4648C69.2945 61.4803 69.2984 61.4962 69.3012 61.5123C69.3232 61.5301 69.355 61.5539 69.3991 61.5842C69.478 61.6383 69.575 61.699 69.69 61.7712C69.8027 61.842 69.9293 61.9217 70.0579 62.0086C70.3126 62.1807 70.5923 62.3923 70.8102 62.6445C71.0287 62.8974 71.2063 63.216 71.2063 63.5962Z" fill="#231815"/>
<path d="M49.8779 26.0145C52.1525 33.8924 56.5364 41.4935 58.4965 42.7914C58.5085 42.7996 58.6832 42.7882 58.7093 42.7882C58.7245 42.7882 58.8338 42.5811 58.823 42.5703C57.6159 41.3668 56.3452 39.6566 55.0014 37.0906C52.4727 32.2613 50.6518 24.4968 50.1556 23.0083C50.1556 23.0083 50.0253 23.6417 49.9529 24.6444C49.918 25.1252 49.8779 26.0139 49.8779 26.0139V26.0145Z" fill="#090909"/>
<path d="M60.8619 43.5889H56.4463C56.3147 43.5889 56.208 43.6952 56.208 43.8264V50.0023C56.208 50.1335 56.3147 50.2398 56.4463 50.2398H60.8619C60.9935 50.2398 61.1002 50.1335 61.1002 50.0023V43.8264C61.1002 43.6952 60.9935 43.5889 60.8619 43.5889Z" fill="white"/>
<path d="M60.5289 48.0228H56.7168V48.2129H60.5289V48.0228Z" fill="#2463A0"/>
<mask id="mask0_104_1484" style="mask-type:luminance" maskUnits="userSpaceOnUse" x="57" y="44" width="4" height="4">
<path d="M60.2745 44.1589H57.0342V47.7061H60.2745V44.1589Z" fill="white"/>
</mask>
<g mask="url(#mask0_104_1484)">
<path d="M60.2745 44.1589H57.0342V47.7061H60.2745V44.1589Z" fill="#98BEDE"/>
</g>
<path d="M60.8375 43.2721H59.3241C59.3241 42.9358 59.0103 42.6628 58.6227 42.6628C58.2351 42.6628 57.9213 42.9358 57.9213 43.2721H56.4079C56.087 43.2721 55.8271 43.5312 55.8271 43.8511V50.0409C55.8271 50.3608 56.087 50.6198 56.4079 50.6198H60.8375C61.1584 50.6198 61.4182 50.3608 61.4182 50.0409V43.8511C61.4182 43.5312 61.1584 43.2721 60.8375 43.2721ZM58.6456 42.8129C58.7453 42.8129 58.8266 42.8933 58.8266 42.9934C58.8266 43.0935 58.7459 43.174 58.6456 43.174C58.5452 43.174 58.4645 43.0929 58.4645 42.9934C58.4645 42.894 58.5452 42.8129 58.6456 42.8129ZM60.8623 50.2398H56.446C56.3151 50.2398 56.2077 50.1327 56.2077 50.0023V43.8257C56.2077 43.6953 56.3151 43.5882 56.446 43.5882H60.8623C60.9932 43.5882 61.1006 43.6953 61.1006 43.8257V50.0023C61.1006 50.1327 60.9932 50.2398 60.8623 50.2398Z" fill="#090909"/>
<path d="M57.4966 45.5025C57.4966 45.5025 57.3715 44.9153 57.5411 44.7879C57.7107 44.6606 58.1879 44.9349 58.254 45.0787C58.32 45.2225 57.6472 45.8781 57.4966 45.5031V45.5025Z" fill="#FFF9EF"/>
<path d="M57.5281 44.771C57.5772 44.7341 57.6459 44.728 57.7176 44.7384C57.7901 44.7489 57.8698 44.7766 57.9453 44.8125C58.021 44.8484 58.0934 44.893 58.1514 44.9379C58.2086 44.9822 58.2544 45.029 58.2731 45.0698C58.2852 45.0962 58.2789 45.1294 58.2661 45.1615C58.2528 45.1947 58.2303 45.2323 58.2016 45.271C58.1442 45.3486 58.0601 45.4337 57.9692 45.5024C57.8788 45.5706 57.7791 45.6245 57.6904 45.6362C57.6457 45.6421 57.6024 45.6374 57.5648 45.617C57.5269 45.5966 57.4969 45.5615 57.4767 45.511L57.4752 45.5072V45.5048C57.4749 45.5036 57.4746 45.502 57.4742 45.5C57.4733 45.4956 57.472 45.4891 57.4704 45.4809C57.4673 45.4644 57.4631 45.4408 57.4585 45.412C57.4493 45.3546 57.4389 45.2765 57.4338 45.1942C57.4287 45.1122 57.4289 45.0251 57.4414 44.9498C57.4537 44.8757 57.4788 44.808 57.5281 44.771ZM57.7115 44.7804C57.644 44.7707 57.5894 44.7781 57.5537 44.8049C57.5182 44.8316 57.4953 44.8851 57.4834 44.9568C57.4717 45.0275 57.4713 45.111 57.4763 45.1916C57.4813 45.2721 57.4915 45.3487 57.5005 45.4054C57.505 45.4336 57.5092 45.4569 57.5123 45.473C57.5138 45.4811 57.5151 45.4873 57.5159 45.4916C57.5164 45.4937 57.5167 45.4953 57.5169 45.4964C57.517 45.4967 57.517 45.497 57.517 45.4972C57.5343 45.5392 57.558 45.5651 57.585 45.5797C57.6127 45.5947 57.6463 45.5992 57.6848 45.5941C57.7626 45.5839 57.8551 45.5352 57.9435 45.4685C58.0314 45.4022 58.1125 45.3198 58.1673 45.2458C58.1948 45.2087 58.2152 45.1744 58.2266 45.1457C58.2385 45.1159 58.2388 45.0972 58.2344 45.0875C58.2202 45.0565 58.1815 45.015 58.1253 44.9714C58.0699 44.9285 58.0001 44.8855 57.927 44.8508C57.8539 44.8161 57.7783 44.7901 57.7115 44.7804Z" fill="#231815"/>
<path d="M57.7288 45.2871C57.7288 45.2871 57.6342 45.054 57.713 44.9951C57.7917 44.9355 58.0141 45.0635 58.0446 45.13C58.0751 45.1965 57.8254 45.5303 57.7282 45.2871H57.7288Z" fill="#79371E"/>
<path d="M57.7131 44.9948C57.7329 44.9799 57.7616 44.9767 57.7941 44.9814C57.8265 44.986 57.8627 44.9985 57.8974 45.0149C57.932 45.0314 57.9651 45.0518 57.9915 45.0722C58.0179 45.0926 58.0376 45.1132 58.0452 45.1299C58.0491 45.1383 58.0485 45.1509 58.0444 45.1659C58.0403 45.1809 58.0326 45.1985 58.0223 45.217C58.0016 45.2538 57.9703 45.2942 57.9349 45.3249C57.8995 45.3556 57.86 45.3767 57.8232 45.3748C57.7888 45.3731 57.7568 45.3511 57.7329 45.2982L57.7286 45.2879V45.2867H57.7287C57.7287 45.2867 57.7286 45.2866 57.7286 45.2865C57.7284 45.2861 57.7281 45.2854 57.7278 45.2846C57.7271 45.2829 57.7262 45.2803 57.725 45.277C57.7225 45.2705 57.7191 45.2612 57.7153 45.2498C57.7076 45.227 57.6983 45.196 57.6914 45.1632C57.6845 45.1304 57.68 45.0957 57.6822 45.0655C57.6844 45.0354 57.6933 45.0096 57.7131 44.9948ZM57.794 44.982C57.7616 44.9773 57.7331 44.9805 57.7135 44.9953C57.6939 45.01 57.685 45.0355 57.6828 45.0655C57.6806 45.0956 57.6851 45.1303 57.692 45.1631C57.6989 45.1959 57.7083 45.2269 57.7159 45.2496C57.7197 45.261 57.7231 45.2704 57.7256 45.2768C57.7268 45.2801 57.7278 45.2826 57.7284 45.2843C57.7288 45.2852 57.729 45.2858 57.7292 45.2863V45.2874H57.729C57.7533 45.3478 57.7869 45.3723 57.8233 45.3742C57.8598 45.376 57.8991 45.3551 57.9344 45.3244C57.9698 45.2938 58.0012 45.2535 58.0218 45.2167C58.0321 45.1983 58.0397 45.1807 58.0437 45.1658C58.0478 45.1508 58.0484 45.1383 58.0446 45.1301C58.037 45.1136 58.0175 45.0931 57.9911 45.0727C57.9648 45.0523 57.9317 45.032 57.8971 45.0156C57.8625 44.9991 57.8264 44.9866 57.794 44.982ZM57.7295 45.2869H57.7294L57.7294 45.2868C57.7293 45.2867 57.7293 45.2865 57.7292 45.2863L57.7295 45.2869Z" fill="#231815"/>
<path d="M59.925 45.5025C59.925 45.5025 60.0501 44.9153 59.8805 44.7879C59.7109 44.6606 59.2337 44.9349 59.1676 45.0787C59.1016 45.2218 59.7744 45.8781 59.925 45.5031V45.5025Z" fill="#FFF9EF"/>
<path d="M59.7036 44.7384C59.7754 44.728 59.844 44.7341 59.8931 44.771C59.9424 44.808 59.9675 44.8757 59.9799 44.9498C59.9924 45.025 59.9925 45.1122 59.9874 45.1942C59.9823 45.2765 59.9719 45.3546 59.9627 45.412C59.9582 45.4408 59.9539 45.4644 59.9508 45.4809C59.9492 45.4891 59.9479 45.4956 59.947 45.5C59.9466 45.502 59.9463 45.5036 59.946 45.5048V45.5072L59.9446 45.5109C59.9243 45.5615 59.8943 45.5966 59.8565 45.617C59.8188 45.6374 59.7756 45.6421 59.7308 45.6361C59.6421 45.6244 59.5424 45.5704 59.452 45.5021C59.3611 45.4334 59.277 45.3482 59.2196 45.2707C59.191 45.232 59.1684 45.1945 59.1551 45.1613C59.1423 45.1293 59.136 45.0961 59.1481 45.0698C59.1668 45.029 59.2126 44.9822 59.2698 44.9379C59.3278 44.893 59.4003 44.8484 59.4759 44.8124C59.5515 44.7766 59.6312 44.7489 59.7036 44.7384ZM59.8675 44.8049C59.8318 44.7781 59.7772 44.7707 59.7097 44.7804C59.6429 44.7901 59.5674 44.8161 59.4942 44.8508C59.4212 44.8855 59.3513 44.9285 59.2959 44.9714C59.2468 45.0095 59.211 45.0461 59.1933 45.0754L59.1868 45.0875C59.1824 45.097 59.1827 45.1157 59.1946 45.1456C59.2061 45.1742 59.2264 45.2084 59.2539 45.2455C59.3087 45.3196 59.3899 45.4019 59.4777 45.4683C59.5661 45.535 59.6587 45.5837 59.7365 45.594C59.7749 45.5991 59.8085 45.5947 59.8362 45.5797C59.8632 45.5651 59.8868 45.5392 59.9041 45.4972C59.9041 45.497 59.9042 45.4967 59.9043 45.4964C59.9045 45.4953 59.9049 45.4937 59.9053 45.4916C59.9061 45.4873 59.9074 45.4811 59.9089 45.473C59.912 45.4569 59.9162 45.4336 59.9207 45.4054C59.9297 45.3487 59.9399 45.2721 59.9449 45.1916C59.9499 45.111 59.9496 45.0274 59.9379 44.9568C59.9259 44.885 59.9031 44.8316 59.8675 44.8049Z" fill="#231815"/>
<path d="M59.6933 45.2871C59.6933 45.2871 59.788 45.054 59.7092 44.9951C59.6304 44.9355 59.4081 45.0635 59.3776 45.13C59.3471 45.1965 59.5968 45.5303 59.694 45.2871H59.6933Z" fill="#79371E"/>
<path d="M59.7094 44.9953C59.6898 44.9805 59.6612 44.9773 59.6288 44.982C59.5965 44.9866 59.5603 44.9991 59.5257 45.0156C59.4911 45.032 59.458 45.0523 59.4316 45.0727C59.4053 45.0931 59.3857 45.1136 59.3782 45.1301C59.3744 45.1383 59.3749 45.1508 59.379 45.1658C59.3831 45.1807 59.3907 45.1983 59.4011 45.2167C59.4217 45.2535 59.4531 45.2938 59.4884 45.3244C59.5238 45.3551 59.5631 45.376 59.5995 45.3742C59.6359 45.3723 59.6696 45.3477 59.6938 45.2871C59.6938 45.2871 59.6937 45.2871 59.6937 45.2871L59.6934 45.2869L59.6934 45.2868C59.6935 45.2867 59.6935 45.2865 59.6936 45.2863C59.6938 45.2859 59.6941 45.2852 59.6944 45.2843C59.6951 45.2826 59.696 45.2801 59.6973 45.2769C59.6997 45.2704 59.7031 45.261 59.7069 45.2496C59.7145 45.2269 59.7239 45.1959 59.7308 45.1631C59.7377 45.1303 59.7421 45.0956 59.7399 45.0655C59.7377 45.0355 59.7289 45.01 59.7094 44.9953ZM59.694 45.2869L59.6946 45.2872C59.6703 45.3481 59.6363 45.373 59.5995 45.3748C59.5628 45.3767 59.5234 45.3556 59.488 45.3249C59.4526 45.2942 59.4212 45.2538 59.4005 45.217C59.3902 45.1985 59.3825 45.1809 59.3784 45.1659C59.3743 45.1509 59.3737 45.1383 59.3776 45.1299C59.3853 45.1132 59.4049 45.0926 59.4313 45.0722C59.4577 45.0518 59.4908 45.0314 59.5255 45.0149C59.5601 44.9985 59.5963 44.986 59.6287 44.9814C59.6611 44.9767 59.6899 44.9799 59.7097 44.9948C59.7295 45.0097 59.7384 45.0354 59.7406 45.0655C59.7428 45.0957 59.7384 45.1304 59.7314 45.1632C59.7245 45.196 59.7151 45.227 59.7075 45.2498C59.7037 45.2612 59.7003 45.2705 59.6978 45.277C59.6966 45.2803 59.6956 45.2829 59.695 45.2846C59.6946 45.2854 59.6944 45.2861 59.6942 45.2865C59.6941 45.2867 59.694 45.2868 59.694 45.2869Z" fill="#231815"/>
<path d="M57.4294 45.7989C57.4294 45.7989 57.6207 45.1319 58.1131 44.9761C58.6055 44.8203 59.0197 44.826 59.5007 45.0698C59.9289 45.2871 60.1418 46.0782 60.0249 46.521C60.0249 46.521 60.2053 46.6147 60.1024 46.6318C60.0789 46.6356 59.9365 46.6141 59.974 46.6293C60.0299 46.6515 60.1329 46.661 60.1157 46.6965C60.0986 46.7319 60.0744 46.7199 59.9315 46.7243C59.9315 46.7243 60.0299 46.7509 60.056 46.7649C60.082 46.7788 60.1119 46.8111 59.913 46.8041C59.913 46.8041 59.6595 47.1639 58.6436 47.1291C57.6277 47.0949 57.4104 46.7022 57.4104 46.7022C57.4104 46.7022 57.2617 46.7345 57.2541 46.6794C57.2503 46.6496 57.3646 46.642 57.3646 46.642C57.3646 46.642 57.2287 46.6642 57.2096 46.6274C57.1848 46.5793 57.3691 46.5185 57.3691 46.5185C57.3691 46.5185 57.2147 46.5894 57.1975 46.5128C57.1804 46.4361 57.3443 46.4063 57.3443 46.4063C57.3443 46.4063 57.3189 46.063 57.4307 45.7983L57.4294 45.7989Z" fill="#EC7032"/>
<path d="M58.7518 45.4993C58.7518 45.4993 58.9075 45.2725 59.0136 45.3327C59.1273 45.3973 59.0288 45.4828 58.9449 45.5126C58.8808 45.536 58.7855 45.5898 58.7588 45.5626C58.7238 45.5271 58.7518 45.4986 58.7518 45.4986V45.4993Z" fill="#FFF9EF"/>
<path d="M58.3293 45.5043C58.3293 45.5043 58.4024 45.5537 58.4519 45.5556C58.5015 45.5575 58.5987 45.5575 58.5631 45.4891C58.5275 45.4201 58.4208 45.2522 58.3191 45.3821C58.2734 45.4403 58.2982 45.479 58.3287 45.5043H58.3293Z" fill="#FFF9EF"/>
<path d="M57.6844 46.9131C57.6844 46.9131 58.0796 47.0866 58.1361 47.0562C58.0256 46.7693 57.9595 46.4722 58.0777 46.2397C58.1958 46.0073 58.2232 45.9971 58.0586 45.9712C57.908 45.9471 57.8496 45.9876 57.7505 46.1099C57.5135 46.4019 57.5306 46.8003 57.6844 46.9131Z" fill="#FFF9EF"/>
<path d="M59.0928 47.0942C59.2059 47.022 59.3552 46.5964 59.331 46.3576C59.3151 46.1967 59.2789 46.1701 59.237 46.077C59.1925 45.9769 59.4295 45.9629 59.4765 45.961C59.5235 45.9591 59.6595 46.0275 59.7141 46.2283C59.8082 46.5723 59.7567 46.9169 59.5731 47.0049C59.5731 47.0049 59.2459 47.1177 59.0928 47.0936V47.0942Z" fill="#FFF9EF"/>
<path d="M58.2151 46.5286C58.184 46.3702 58.278 46.1365 58.353 46.0339C58.4419 45.9123 58.5601 45.9066 58.6529 45.9066C58.7564 45.9066 58.8257 45.9161 58.9178 46.0364C59.0106 46.1568 59.0754 46.3861 59.0677 46.4963C59.0519 46.7211 58.8079 46.7775 58.6363 46.7712C58.3644 46.7617 58.2507 46.7129 58.2145 46.5273L58.2151 46.5286Z" fill="#FFF9EF"/>
<path d="M59.0672 45.8983C59.0691 45.8394 59.0297 45.7982 58.9795 45.7963C58.9294 45.7944 58.8868 45.8331 58.8849 45.892C58.8823 45.9566 58.9224 45.9946 58.9726 45.9965C59.0228 45.9984 59.0653 45.9547 59.0672 45.8983Z" fill="#231815"/>
<path d="M58.2296 45.8964C58.2277 45.8375 58.267 45.7963 58.3172 45.7944C58.3674 45.7925 58.41 45.8312 58.4119 45.8901C58.4144 45.9547 58.3744 45.9927 58.3242 45.9946C58.274 45.9965 58.2315 45.9528 58.2296 45.8964Z" fill="#231815"/>
<path d="M58.5357 46.0674C58.5421 46.032 58.584 45.9876 58.6526 45.9876C58.7212 45.9876 58.7575 46.0358 58.7619 46.0681C58.7714 46.1415 58.5217 46.1466 58.5357 46.0668V46.0674Z" fill="#231815"/>
<path d="M57.363 46.6126C57.3744 46.6118 57.3843 46.6201 57.3856 46.6313C57.3869 46.6426 57.3791 46.6529 57.3679 46.6547H57.3677C57.3677 46.6547 57.3676 46.6547 57.3674 46.6548C57.3671 46.6548 57.3667 46.6549 57.3662 46.6549C57.3651 46.6551 57.3636 46.6553 57.3616 46.6556C57.3577 46.6562 57.3521 46.657 57.3454 46.6577C57.34 46.6584 57.3338 46.6589 57.327 46.6595C57.3221 46.6602 57.317 46.661 57.312 46.6621C57.2984 46.6648 57.2866 46.6681 57.2788 46.6718C57.2784 46.6721 57.2779 46.6723 57.2775 46.6725C57.2793 46.6741 57.2824 46.676 57.288 46.6777C57.2995 46.6813 57.316 46.6825 57.3343 46.682C57.3522 46.6814 57.3701 46.6792 57.3836 46.6772C57.3904 46.6761 57.3959 46.6751 57.3998 46.6744C57.4018 46.674 57.4033 46.6737 57.4043 46.6735C57.4048 46.6734 57.4052 46.6733 57.4054 46.6733C57.4055 46.6732 57.4056 46.6732 57.4057 46.6732C57.4148 46.6712 57.4243 46.6754 57.4289 46.6836C57.4289 46.6837 57.429 46.6839 57.4292 46.6842C57.4295 46.6848 57.4301 46.6857 57.4309 46.6869C57.4325 46.6894 57.435 46.6933 57.4387 46.6983C57.4461 46.7083 57.4579 46.7231 57.4753 46.7411C57.5102 46.7769 57.5675 46.8259 57.6564 46.8761C57.8341 46.9765 58.1389 47.0826 58.6442 47.0996C59.1495 47.117 59.4635 47.0361 59.6504 46.9521C59.7438 46.9101 59.8056 46.8672 59.8437 46.8353C59.8628 46.8194 59.876 46.8061 59.8843 46.797C59.8884 46.7925 59.8913 46.789 59.8931 46.7867C59.894 46.7856 59.8947 46.7847 59.8951 46.7842C59.8952 46.784 59.8954 46.7838 59.8954 46.7837C59.8996 46.7778 59.9064 46.7745 59.9136 46.7747C59.9629 46.7764 59.9973 46.7757 60.0208 46.7735C60.0273 46.7729 60.0327 46.7722 60.0372 46.7715C60.0234 46.7658 60.0005 46.7583 59.9776 46.7514C59.9639 46.7473 59.9508 46.7436 59.9413 46.7409C59.9365 46.7395 59.9326 46.7385 59.9299 46.7377C59.9286 46.7373 59.9275 46.737 59.9268 46.7368C59.9264 46.7368 59.9261 46.7367 59.926 46.7367C59.9259 46.7366 59.9258 46.7366 59.9258 46.7366C59.9156 46.7338 59.9089 46.724 59.9101 46.7136C59.9114 46.7032 59.9201 46.6952 59.9306 46.6949C59.9667 46.6938 59.9952 46.6937 60.0179 46.6936C60.0409 46.6936 60.0569 46.6935 60.069 46.6926C60.0812 46.6917 60.0864 46.69 60.0891 46.6885C60.0906 46.6876 60.0922 46.6861 60.0945 46.682C60.0894 46.6785 60.08 46.6744 60.0657 46.6699C60.0511 46.6653 60.0343 46.6611 60.0165 46.6564C59.9993 46.6519 59.9813 46.6468 59.966 46.6408L59.9659 46.6407C59.9632 46.6396 59.9599 46.6382 59.957 46.6363C59.9557 46.6354 59.9529 46.6334 59.9505 46.6301C59.948 46.6266 59.9441 46.6186 59.9479 46.6091C59.951 46.6013 59.9574 46.598 59.9594 46.5971C59.962 46.5959 59.9645 46.5954 59.9659 46.5951C59.9688 46.5946 59.9719 46.5944 59.9744 46.5944C59.9842 46.5942 60.0005 46.5955 60.017 46.5969C60.0343 46.5985 60.0527 46.6003 60.0686 46.6015C60.0765 46.6021 60.0835 46.6026 60.0891 46.6027C60.0919 46.6028 60.0942 46.6028 60.096 46.6028C60.0969 46.6028 60.0976 46.6028 60.0981 46.6027C60.0984 46.6027 60.0986 46.6027 60.0987 46.6027C60.1043 46.6018 60.108 46.6007 60.1105 46.5998C60.1096 46.5984 60.1084 46.5968 60.1069 46.595C60.1025 46.59 60.0963 46.5843 60.0888 46.5784C60.0738 46.5665 60.0554 46.5548 60.0404 46.546C60.033 46.5416 60.0266 46.5379 60.022 46.5354C60.0197 46.5342 60.0179 46.5332 60.0167 46.5325C60.0161 46.5322 60.0156 46.5319 60.0153 46.5318C60.0152 46.5317 60.015 46.5316 60.0149 46.5316C60.0059 46.5269 60.0014 46.5166 60.0043 46.5069C60.0801 46.2466 60.0443 45.8547 59.8949 45.5361C59.8899 45.5255 59.8945 45.5129 59.9051 45.5079C59.9158 45.503 59.9284 45.5076 59.9334 45.5182C60.0834 45.838 60.1227 46.2309 60.0496 46.5023C60.0533 46.5044 60.0576 46.5068 60.0621 46.5095C60.0778 46.5187 60.0981 46.5315 60.1153 46.5451C60.1239 46.552 60.1323 46.5594 60.139 46.567C60.1453 46.5743 60.1519 46.5837 60.1543 46.5946C60.1555 46.6004 60.1557 46.6069 60.1535 46.6136C60.1514 46.6203 60.1472 46.6258 60.1423 46.6301C60.1344 46.6368 60.1239 46.6406 60.1123 46.6431C60.1156 46.645 60.1187 46.6469 60.1215 46.6491C60.1274 46.6536 60.1337 46.6601 60.1368 46.6691C60.1402 46.6789 60.1389 46.6887 60.1347 46.6974C60.1293 46.7086 60.1221 46.7186 60.1102 46.7253C60.0991 46.7317 60.0861 46.7339 60.0722 46.7349C60.0685 46.7352 60.0645 46.7352 60.0602 46.7354C60.0623 46.7363 60.0642 46.7371 60.0659 46.738C60.0729 46.7417 60.0836 46.7483 60.09 46.7576C60.0935 46.7627 60.0973 46.7709 60.0953 46.781C60.0934 46.7912 60.0865 46.798 60.0801 46.802C60.0683 46.8095 60.0496 46.8135 60.0247 46.8158C60.0006 46.818 59.9675 46.8187 59.9227 46.8174C59.9208 46.8197 59.9185 46.8225 59.9157 46.8255C59.9062 46.836 59.8916 46.8506 59.871 46.8678C59.8299 46.9022 59.7648 46.9472 59.6678 46.9908C59.4739 47.078 59.1532 47.1596 58.6427 47.1421C58.1321 47.1249 57.8202 47.0175 57.6353 46.913C57.5429 46.8608 57.4824 46.8094 57.4447 46.7706C57.4259 46.7512 57.4128 46.7349 57.4044 46.7234C57.4028 46.7212 57.4015 46.7192 57.4002 46.7174C57.3972 46.7179 57.3938 46.7185 57.3901 46.7191C57.3756 46.7213 57.3558 46.7238 57.3356 46.7244C57.3158 46.725 57.2936 46.724 57.2752 46.7182C57.2568 46.7124 57.2364 46.6997 57.2329 46.674L57.2328 46.6738C57.232 46.6676 57.2332 46.662 57.2352 46.6571C57.2271 46.6553 57.219 46.6529 57.2117 46.6491C57.2037 46.6449 57.1956 46.6386 57.1905 46.6289C57.1841 46.6164 57.1849 46.6035 57.1896 46.5924C57.194 46.5821 57.2016 46.5733 57.2096 46.5661C57.2131 46.5629 57.2171 46.5598 57.2212 46.5568C57.212 46.5539 57.2029 46.5494 57.1953 46.5424C57.186 46.5338 57.1796 46.5226 57.1766 46.5091C57.1703 46.4812 57.1813 46.458 57.1977 46.4409C57.2135 46.4244 57.2353 46.4121 57.2558 46.4031C57.2765 46.394 57.2976 46.3876 57.3133 46.3835C57.316 46.3827 57.3186 46.3821 57.321 46.3815C57.3203 46.3739 57.3195 46.3641 57.3188 46.3523C57.317 46.3214 57.3158 46.2769 57.3181 46.2221C57.3228 46.1125 57.3416 45.9616 57.3983 45.7959C57.3984 45.7957 57.3984 45.7954 57.3985 45.7951C57.3988 45.7942 57.3993 45.7927 57.3999 45.7909C57.401 45.7872 57.4028 45.7818 57.4051 45.7749C57.4097 45.7611 57.4167 45.7411 57.4262 45.7165C57.4451 45.6672 57.4738 45.599 57.5133 45.5231C57.5187 45.5127 57.5316 45.5086 57.542 45.514C57.5525 45.5194 57.5565 45.5322 57.5511 45.5426C57.5125 45.6168 57.4843 45.6835 57.4659 45.7317C57.4567 45.7557 57.4499 45.7751 57.4454 45.7884C57.4432 45.795 57.4416 45.8001 57.4405 45.8036C57.4399 45.8053 57.4395 45.8066 57.4393 45.8075C57.4392 45.8079 57.439 45.8083 57.439 45.8085C57.4389 45.8086 57.4389 45.8086 57.4389 45.8087L57.4387 45.8095C57.3836 45.9706 57.3652 46.1174 57.3607 46.2239C57.3584 46.2771 57.3596 46.3201 57.3613 46.3498C57.3622 46.3646 57.3632 46.3761 57.364 46.3838C57.3643 46.3877 57.3647 46.3906 57.3649 46.3925C57.365 46.3934 57.3651 46.3941 57.3651 46.3946C57.3652 46.3948 57.3652 46.395 57.3652 46.3951V46.3952C57.3668 46.4065 57.3592 46.4169 57.348 46.419C57.3479 46.419 57.3478 46.419 57.3476 46.419C57.3474 46.4191 57.347 46.4192 57.3465 46.4193C57.3454 46.4195 57.3438 46.4198 57.3417 46.4203C57.3375 46.4212 57.3314 46.4226 57.3243 46.4245C57.3098 46.4283 57.2909 46.4341 57.2729 46.442C57.2545 46.4501 57.2386 46.4596 57.2285 46.4702C57.219 46.4802 57.2158 46.4896 57.2182 46.4999C57.2194 46.5056 57.2217 46.509 57.2241 46.5112C57.2267 46.5136 57.2306 46.5157 57.2365 46.5171C57.2488 46.5201 57.2661 46.5192 57.2854 46.5153C57.2967 46.5131 57.3079 46.5098 57.3182 46.5065C57.3234 46.5044 57.3284 46.5024 57.3329 46.5007C57.3416 46.4974 57.3488 46.4947 57.354 46.4929C57.3565 46.492 57.3586 46.4913 57.36 46.4908C57.3607 46.4906 57.3612 46.4904 57.3616 46.4903C57.3618 46.4902 57.3619 46.4902 57.362 46.4902L57.3622 46.4901C57.3729 46.4866 57.3846 46.492 57.3887 46.5025C57.3923 46.5116 57.3891 46.5218 57.3814 46.5274L57.3779 46.5295L57.3777 46.5296C57.3776 46.5296 57.3774 46.5297 57.3772 46.5297C57.3769 46.5299 57.3764 46.5302 57.3758 46.5304C57.3746 46.531 57.3728 46.5317 57.3705 46.5327C57.366 46.5345 57.3596 46.5372 57.3519 46.54C57.3466 46.542 57.3404 46.5439 57.3339 46.546C57.3201 46.5516 57.3044 46.5582 57.2893 46.5657C57.2683 46.5761 57.2497 46.5871 57.2382 46.5975C57.2324 46.6028 57.2297 46.6067 57.2288 46.609C57.2287 46.6092 57.2286 46.6094 57.2285 46.6095C57.2289 46.6099 57.2297 46.6106 57.2315 46.6116C57.2346 46.6132 57.2393 46.6148 57.2459 46.6162C57.259 46.6188 57.276 46.6195 57.2935 46.619C57.3033 46.6188 57.3129 46.6181 57.3216 46.6173C57.33 46.616 57.3379 46.615 57.3444 46.6143C57.3499 46.6137 57.3545 46.6133 57.3578 46.613C57.3594 46.6129 57.3607 46.6128 57.3616 46.6127C57.3621 46.6127 57.3624 46.6126 57.3627 46.6126H57.363Z" fill="#231815"/>
<path d="M58.1371 44.938C58.5472 44.8134 58.9112 44.8009 59.2996 44.9486C59.3106 44.9528 59.3161 44.965 59.3119 44.976C59.3077 44.9869 59.2955 44.9924 59.2845 44.9882C58.9067 44.8446 58.5527 44.8561 58.1496 44.9786C58.1383 44.982 58.1264 44.9757 58.123 44.9645C58.1196 44.9533 58.1259 44.9414 58.1371 44.938Z" fill="#231815"/>
<path d="M58.4541 46.177C58.4541 46.177 58.4541 46.4728 58.632 46.4792C58.8099 46.4855 58.8239 46.2537 58.8258 46.2017C58.7858 46.1948 58.6898 46.1517 58.639 46.1143C58.6053 46.1492 58.5551 46.2385 58.4547 46.1777L58.4541 46.177Z" fill="#DE6164"/>
<path d="M58.471 46.2815C58.471 46.2815 58.5999 46.189 58.8102 46.2815C58.8102 46.2815 58.8465 46.1776 58.8261 46.1567C58.6971 46.189 58.6406 46.0966 58.6406 46.0966C58.6406 46.0966 58.5879 46.2093 58.4551 46.1612C58.4576 46.2137 58.471 46.2822 58.471 46.2822V46.2815Z" fill="white"/>
<path d="M58.6374 46.0859C58.642 46.0854 58.6465 46.0875 58.649 46.0913C58.6668 46.1191 58.7022 46.1433 58.7382 46.1554C58.756 46.1614 58.7732 46.1642 58.7876 46.1634C58.802 46.1626 58.8123 46.1582 58.8185 46.1513C58.8218 46.1475 58.8272 46.1462 58.8319 46.1481C58.8367 46.1499 58.8397 46.1546 58.8396 46.1596C58.8376 46.2247 58.8264 46.3069 58.7973 46.3732C58.7681 46.4395 58.7195 46.4931 58.642 46.4931C58.5925 46.4931 58.555 46.4715 58.5272 46.4399C58.4997 46.4086 58.4815 46.3675 58.4695 46.3274C58.4573 46.2872 58.4511 46.2472 58.4479 46.2173C58.4462 46.2023 58.4454 46.1898 58.4449 46.181C58.4447 46.1766 58.4445 46.1731 58.4445 46.1708C58.4444 46.1696 58.4444 46.1687 58.4444 46.168C58.4444 46.1678 58.4443 46.1676 58.4443 46.1675V46.1669C58.4443 46.1602 58.4497 46.1549 58.4564 46.1549C58.4598 46.1548 58.4628 46.1563 58.4651 46.1586C58.4964 46.1767 58.5313 46.1741 58.5618 46.16C58.5933 46.1454 58.6182 46.1191 58.6274 46.0937L58.629 46.0908C58.6309 46.0881 58.634 46.0863 58.6374 46.0859ZM58.641 46.1204C58.6262 46.1455 58.6013 46.1682 58.572 46.1818C58.5412 46.1962 58.5046 46.2009 58.4697 46.1873C58.4702 46.1948 58.4707 46.2041 58.4719 46.2147C58.475 46.2437 58.4811 46.2822 58.4926 46.3205C58.5042 46.359 58.5211 46.3964 58.5454 46.424C58.5694 46.4513 58.6006 46.469 58.642 46.469C58.7055 46.469 58.7477 46.426 58.7751 46.3636C58.7992 46.3086 58.8106 46.241 58.8143 46.1822C58.8063 46.1852 58.7977 46.1869 58.7889 46.1874C58.7707 46.1884 58.7503 46.1849 58.7304 46.1782C58.6975 46.1671 58.6639 46.1464 58.641 46.1204Z" fill="#231815"/>
<path d="M58.6542 46.0875C58.6756 46.1221 58.7049 46.1427 58.7382 46.1505C58.7718 46.1582 58.8107 46.1533 58.8513 46.1339C58.8594 46.1301 58.869 46.1335 58.8729 46.1415C58.8767 46.1496 58.8733 46.1593 58.8653 46.1631C58.8194 46.185 58.7729 46.1917 58.7309 46.1819C58.6961 46.1739 58.6655 46.1545 58.6414 46.125C58.5829 46.2065 58.4746 46.2062 58.4129 46.1616C58.4057 46.1563 58.4041 46.1462 58.4093 46.139C58.4146 46.1318 58.4247 46.1303 58.4319 46.1355C58.4859 46.1746 58.5832 46.1705 58.626 46.0885L58.6392 46.0632L58.6542 46.0875Z" fill="#231815"/>
<path d="M65.0404 32.2132C65.0404 32.2132 64.198 35.4747 62.3815 38.3897C61.4018 39.9619 58.4983 42.7578 58.5059 42.7603C58.6539 42.8161 58.8668 42.8553 58.9354 42.8066C59.0751 42.7065 60.1457 41.6955 60.9107 40.8917C63.2615 38.4214 65.0404 35.3176 65.6758 32.7839L65.0404 32.2138V32.2132Z" fill="#090909"/>
<path opacity="0.5" d="M60.8589 44.5884L56.3994 47.283L56.4058 48.5827L60.8469 45.9331L60.8589 44.5884Z" fill="white"/>
<path opacity="0.5" d="M60.915 46.1409L56.4834 48.819L56.4974 49.1807L60.9105 46.5482L60.915 46.1409Z" fill="white"/>
<path d="M57.5485 49.1687C57.478 49.182 57.4062 49.1908 57.3522 49.1965V49.4803H57.1616V49.2048C57.1 49.2079 57.0313 49.2079 56.9691 49.2079L56.9506 49.0781C57.1177 49.0781 57.3439 49.0768 57.5377 49.0521L57.5485 49.1687ZM56.9424 48.9425C57.0853 48.9178 57.1374 48.852 57.1425 48.7829H56.9703V48.6562H57.1609V48.5929H57.3515V48.6562H57.4786V48.7829H57.3077C57.3134 48.8469 57.3649 48.9052 57.5028 48.9273L57.4405 49.0553C57.3376 49.0369 57.2696 48.9957 57.2283 48.94C57.187 49.0027 57.1158 49.0502 57.0066 49.0711L56.9424 48.9432V48.9425ZM57.7334 48.5295V49.4797H57.5428V48.5295H57.7334Z" fill="#231815"/>
<path d="M58.6866 48.5929V49.0996H58.496V48.9096H58.3702C58.3429 49.0059 58.2488 49.0718 58.1319 49.0718C57.9921 49.0718 57.8848 48.9774 57.8848 48.8475C57.8848 48.7189 57.9921 48.6246 58.1319 48.6246C58.2469 48.6246 58.3397 48.6885 58.3695 48.7829H58.4966V48.5929H58.6872H58.6866ZM58.496 49.0996H58.6866V49.4797H58.0512V49.0996H58.1783V49.163H58.496V49.0996ZM58.2323 48.8279C58.2323 48.7658 58.191 48.7335 58.1345 48.7335C58.0779 48.7335 58.0366 48.7658 58.0366 48.8279C58.0366 48.89 58.0779 48.9235 58.1345 48.9235C58.191 48.9235 58.2323 48.8906 58.2323 48.8279ZM58.496 49.2897H58.1783V49.353H58.496V49.2897Z" fill="#231815"/>
<path d="M59.2503 49.1383C59.1168 49.1699 58.9421 49.1731 58.8335 49.1731L58.8182 49.0363H58.876V48.7829H58.8125V48.6562H59.2572V48.7829H59.1937V49.0205C59.2109 49.0186 59.2261 49.016 59.2414 49.0141L59.2503 49.1383ZM59.6391 49.353V49.4797H58.9402V49.163H59.1308V49.353H59.6391ZM59.0037 49.0097L59.0673 49.0078V48.7836H59.0037V49.0097ZM59.4485 49.2897H59.2579V48.5929H59.385V48.8463H59.4485V48.5929H59.5756V49.2897H59.4485Z" fill="#231815"/>
<path d="M59.9575 49.156C60.0656 49.1547 60.1609 49.1478 60.2632 49.1288L60.2771 49.2605C60.1501 49.2852 60.0281 49.2896 59.8858 49.2896H59.7676V48.6562H60.2123V48.7829H59.9582V49.156H59.9575ZM60.5929 49.0363H60.4658V49.4797H60.2752V48.5295H60.4658V48.9096H60.5929V49.0363Z" fill="#231815"/>
<path d="M40.6314 14.2183C40.6314 14.2183 37.285 4.78343 39.8252 2.73304C42.3659 0.682646 49.8669 4.66308 50.9559 6.83445C52.0448 9.00583 43.1423 19.9172 40.6308 14.2189L40.6314 14.2183Z" fill="#FFF9EF"/>
<path d="M39.6542 2.45171C40.3885 1.88127 41.4262 1.75848 42.5194 1.87897C43.6402 2.00249 44.883 2.38805 46.066 2.90117C47.2507 3.41507 48.3906 4.06355 49.3069 4.72467C50.2106 5.37667 50.9396 6.07107 51.2492 6.68841C51.4435 7.07593 51.3917 7.58841 51.2428 8.09988C51.0887 8.62925 50.8069 9.23663 50.4389 9.86944C49.702 11.1365 48.5933 12.5501 47.3701 13.714C46.1553 14.87 44.7873 15.8183 43.5272 16.0934C42.8888 16.2327 42.2584 16.2031 41.6928 15.9181C41.1268 15.6328 40.6674 15.1128 40.3313 14.3502L40.2412 14.1458L40.2556 14.1313C40.2351 14.0708 40.2103 13.9969 40.1819 13.911C40.0946 13.6465 39.9728 13.267 39.8348 12.8053C39.5589 11.8828 39.217 10.6288 38.9548 9.30796C38.6933 7.99037 38.5077 6.59027 38.5526 5.38055C38.5967 4.1919 38.8663 3.08718 39.6195 2.47924L39.6542 2.45171ZM42.4475 2.52811C41.4194 2.4148 40.5922 2.55127 40.0569 2.96686L40.0316 2.98684C39.5147 3.4041 39.2501 4.24764 39.2072 5.40468C39.1651 6.54067 39.3399 7.88374 39.5974 9.18115C39.8543 10.4753 40.1903 11.7082 40.4625 12.6188C40.5985 13.0737 40.7183 13.4472 40.8041 13.7067C40.8469 13.8365 40.8812 13.9376 40.9048 14.0061C40.9165 14.0404 40.9256 14.0664 40.9316 14.0838C40.9347 14.0925 40.9369 14.099 40.9384 14.1033C40.9389 14.1046 40.9393 14.1058 40.9396 14.1067C41.23 14.757 41.5949 15.137 41.9883 15.3353C42.3861 15.5357 42.8547 15.5716 43.3871 15.4554C44.4686 15.2194 45.7292 14.3726 46.9178 13.2416C48.098 12.1185 49.1677 10.7533 49.8722 9.54185C50.2249 8.93542 50.4796 8.37859 50.6137 7.91789C50.753 7.43933 50.7412 7.13583 50.6633 6.9805C50.4284 6.51216 49.8113 5.8947 48.9229 5.25374C48.0472 4.62192 46.9488 3.99634 45.8046 3.50001C44.6586 3.00291 43.4817 2.6421 42.4475 2.52811Z" fill="#231815"/>
<path d="M42.9804 10.3215C42.9804 10.3215 41.4035 6.78444 42.5865 5.82987C43.7689 4.8753 47.2608 6.72807 47.7678 7.73901C48.2748 8.74995 44.6069 14.0219 42.9811 10.3215H42.9804Z" fill="#79371E"/>
<path d="M42.5825 5.82588C42.8797 5.58598 43.3213 5.52289 43.8234 5.5782C44.3256 5.63353 44.8893 5.80746 45.4316 6.04269C45.974 6.27795 46.4953 6.57468 46.9128 6.87585C47.33 7.17688 47.6442 7.48284 47.7716 7.73673C47.8358 7.86475 47.8335 8.05921 47.7785 8.29314C47.7234 8.52734 47.6152 8.80214 47.4661 9.09166C47.1679 9.67072 46.7058 10.3093 46.1769 10.8007C45.6482 11.2919 45.0519 11.6366 44.4853 11.6263C43.9183 11.6159 43.3831 11.25 42.9762 10.325C42.9758 10.3245 42.9753 10.3241 42.975 10.3235L42.9796 10.3215L42.975 10.3234L42.9749 10.3233C42.9749 10.3232 42.9748 10.323 42.9747 10.3228C42.9745 10.3224 42.9742 10.3217 42.9739 10.3209C42.9731 10.3192 42.972 10.3166 42.9705 10.3133C42.9676 10.3066 42.9632 10.2966 42.9575 10.2835C42.9463 10.2573 42.9299 10.2188 42.9095 10.1695C42.8686 10.0709 42.8117 9.92895 42.747 9.75564C42.6176 9.40902 42.4574 8.93683 42.3341 8.43479C42.2109 7.9328 42.1246 7.40064 42.1431 6.93412C42.1617 6.46775 42.2851 6.06588 42.5825 5.82588ZM43.8223 5.58828C43.3213 5.53309 42.883 5.59637 42.5889 5.83374V5.8338C42.2949 6.07108 42.1718 6.46928 42.1532 6.93456C42.1348 7.3997 42.2209 7.93079 42.344 8.43238C42.4671 8.93392 42.6272 9.40571 42.7565 9.75211C42.8212 9.92528 42.8781 10.0671 42.9189 10.1656C42.9393 10.2149 42.9557 10.2533 42.9669 10.2795C42.9725 10.2925 42.9769 10.3025 42.9798 10.3092C42.9813 10.3126 42.9824 10.3151 42.9832 10.3168C42.9833 10.3172 42.9835 10.3175 42.9836 10.3178C42.9841 10.3183 42.9846 10.3188 42.9849 10.3194C43.3909 11.2435 43.9236 11.6058 44.4855 11.6161C45.0481 11.6264 45.6419 11.2839 46.17 10.7932C46.6979 10.3028 47.1593 9.66514 47.4571 9.08702C47.6059 8.79796 47.7138 8.52394 47.7686 8.29079C47.8235 8.05738 47.825 7.86595 47.7624 7.74124C47.6363 7.48966 47.3239 7.18488 46.9068 6.88402C46.49 6.5833 45.9694 6.28695 45.4276 6.05197C44.8858 5.81698 44.3232 5.64347 43.8223 5.58828Z" fill="#231815"/>
<path d="M66.7011 5.51505C69.4966 2.98136 75.6532 1.23818 77.4957 2.97186C79.7588 5.32313 77.2288 14.6617 75.1506 15.9266C73.0724 17.1909 62.8731 8.78415 66.7011 5.51569V5.51505Z" fill="#FFF9EF"/>
<path d="M72.3756 2.32668C73.4558 2.05354 74.519 1.91264 75.4404 1.95535C76.3531 1.99765 77.1771 2.22277 77.7209 2.73438L77.7268 2.73995L77.7324 2.74577C78.385 3.42373 78.6546 4.55266 78.7039 5.79721C78.754 7.05895 78.5801 8.51511 78.2715 9.92615C77.9628 11.3382 77.5158 12.7198 77.0109 13.8339C76.7585 14.3908 76.4889 14.8869 76.2109 15.2887C75.9362 15.6856 75.6382 16.0127 75.3217 16.2053H75.3216C74.9472 16.4331 74.4507 16.4146 73.9561 16.2934C73.4469 16.1686 72.8646 15.9166 72.2561 15.578C71.0371 14.8997 69.6628 13.8455 68.4785 12.6504C67.2978 11.459 66.2803 10.102 65.807 8.81117C65.5694 8.16345 65.4622 7.51446 65.5565 6.9036C65.6506 6.29412 65.9428 5.74258 66.4655 5.28769L66.4812 5.27346C67.9292 3.9611 70.2204 2.87166 72.3756 2.32668ZM75.41 2.6077C74.5716 2.56884 73.5754 2.69701 72.5367 2.95967C70.5084 3.47255 68.3833 4.48102 67.029 5.66149V5.66595L66.9145 5.76368C66.4947 6.12211 66.2753 6.54094 66.204 7.00294C66.1315 7.47248 66.2093 8.00665 66.4221 8.58693C66.8494 9.7521 67.794 11.0306 68.9444 12.1914C70.0912 13.3486 71.4171 14.3633 72.5754 15.0078C73.1555 15.3306 73.681 15.5535 74.1125 15.6593C74.5445 15.7651 74.8178 15.7381 74.9664 15.656L74.9804 15.6479C75.1834 15.5243 75.4191 15.2828 75.6717 14.9178C75.921 14.5575 76.1723 14.0982 76.4139 13.565C76.8972 12.4988 77.3309 11.1617 77.6315 9.78703C77.9324 8.41142 78.0966 7.01305 78.0494 5.823C78.0018 4.62085 77.7409 3.70343 77.2658 3.20432C76.8876 2.85221 76.2532 2.64678 75.41 2.6077Z" fill="#231815"/>
<path d="M70.1772 6.74325C70.1772 6.74325 73.5801 4.87908 74.6335 5.97364C75.687 7.06819 74.1291 10.6926 73.1621 11.2817C72.1944 11.8702 67.3798 9.74061 70.1778 6.74388L70.1772 6.74325Z" fill="#79371E"/>
<path d="M73.4928 5.62706C73.9605 5.6062 74.3726 5.69492 74.6374 5.97012C74.9022 6.24521 75.0023 6.67867 74.9893 7.1821C74.9763 7.68569 74.8499 8.26028 74.6605 8.81886C74.471 9.37746 74.2184 9.92029 73.9526 10.3604C73.687 10.8002 73.4078 11.1381 73.1649 11.2861C73.0427 11.3604 72.8605 11.3914 72.6413 11.3837C72.422 11.3759 72.165 11.3292 71.8928 11.2472C71.3485 11.0833 70.7427 10.7783 70.2547 10.3611C69.7667 9.9439 69.396 9.4141 69.3228 8.80055C69.2496 8.18738 69.4736 7.49165 70.1724 6.74248C70.1726 6.74093 70.1736 6.73959 70.175 6.73883L70.1774 6.74328C70.1749 6.73884 70.1749 6.73878 70.175 6.73877L70.1756 6.73846C70.176 6.73823 70.1766 6.73791 70.1774 6.73747C70.1791 6.73658 70.1815 6.73525 70.1848 6.73351C70.1913 6.73001 70.2009 6.72481 70.2135 6.71811C70.2387 6.70471 70.2758 6.68519 70.3233 6.66077C70.4185 6.61191 70.5556 6.54335 70.7234 6.46449C71.059 6.30678 71.5175 6.10791 72.0089 5.94322C72.5003 5.77854 73.025 5.64794 73.4928 5.62706ZM74.63 5.97718C74.3682 5.7051 73.9598 5.61639 73.4932 5.63721C73.0268 5.65802 72.5032 5.78826 72.0121 5.9528C71.5212 6.11733 71.0631 6.31604 70.7277 6.47365C70.5601 6.55245 70.423 6.62099 70.328 6.6698C70.2805 6.6942 70.2434 6.7137 70.2183 6.72708C70.2057 6.73377 70.1961 6.73893 70.1896 6.74242C70.1864 6.74414 70.184 6.74543 70.1824 6.74632C70.1822 6.74666 70.182 6.74707 70.1817 6.74737C69.4829 7.49576 69.26 8.18932 69.3328 8.79931C69.4056 9.40948 69.7745 9.9372 70.2613 10.3534C70.7482 10.7696 71.3526 11.074 71.8957 11.2375C72.1673 11.3193 72.4234 11.3658 72.6416 11.3735C72.86 11.3813 73.0399 11.3502 73.1596 11.2774C73.4003 11.1308 73.6785 10.7948 73.9439 10.3552C74.2093 9.91576 74.4616 9.3736 74.6508 8.81564C74.8401 8.25766 74.9661 7.6841 74.9791 7.18186C74.9921 6.67945 74.892 6.24937 74.63 5.97718Z" fill="#231815"/>
<path d="M38.87 18.7561C38.87 18.7561 41.4578 8.40156 48.9473 5.75195C56.4368 3.10234 66.0363 4.31091 70.3281 6.47468C76.5882 9.6304 80.7167 21.649 79.1461 28.5134C79.1461 28.5134 81.9652 29.8638 80.3997 30.1748C80.0375 30.2471 77.8417 29.9924 78.4218 30.1996C79.2942 30.5112 80.8781 30.6011 80.6366 31.163C80.3952 31.7248 80.0108 31.5481 77.8182 31.6849C77.8182 31.6849 79.3482 32.046 79.751 32.2468C80.1538 32.4476 80.6367 32.929 77.5768 32.929C77.5768 32.929 73.8695 38.5892 58.2279 38.5892C42.5862 38.5892 39.0428 32.668 39.0428 32.668C39.0428 32.668 36.7702 33.2419 36.6279 32.3969C36.5516 31.9459 38.3103 31.7647 38.3103 31.7647C38.3103 31.7647 36.2301 32.1809 35.9176 31.6241C35.509 30.8963 38.3103 29.8683 38.3103 29.8683C38.3103 29.8683 35.976 31.0426 35.6679 29.8683C35.3597 28.6939 37.8655 28.1523 37.8655 28.1523C37.8655 28.1523 37.2912 22.8911 38.8713 18.7568L38.87 18.7561Z" fill="#EC7032"/>
<path d="M52.5157 17.0066C52.5157 17.0066 53.2153 18.1873 53.8995 18.549C54.5838 18.91 55.953 19.5523 55.913 18.3482C55.8729 17.144 55.4905 14.0637 53.1949 15.2229C52.1612 15.7448 52.2489 16.4454 52.5157 17.0066Z" fill="#FFF9EF"/>
<path d="M58.6406 17.7813C58.6406 17.7813 60.344 13.9073 62.1134 14.516C64.0182 15.1716 62.778 16.7368 61.6001 17.4355C60.6985 17.9701 59.4113 19.0634 58.9278 18.7302C58.2937 18.2937 58.6406 17.7819 58.6406 17.7819V17.7813Z" fill="#FFF9EF"/>
<path d="M64.9482 38.1154C64.9482 38.1154 68.2178 33.5903 67.7031 28.6287C67.4617 26.3002 67.0989 25.4571 66.0925 24.3733C65.0861 23.2895 68.9916 22.888 69.7165 22.848C70.4415 22.8081 71.9714 22.6073 72.7764 26.0595C73.5814 29.5117 72.9606 34.5429 71.6321 36.4293C71.6321 36.4293 68.8137 37.7538 64.9482 38.1154Z" fill="#FFF9EF"/>
<path d="M43.1347 35.9485C43.1347 35.9485 50.4895 38.69 51.3523 38.1902C49.9126 35.2473 48.4837 32.3272 49.2391 28.699C50.0308 24.8946 52.5512 22.8132 48.9818 22.8595C46.6259 22.8899 44.988 22.9323 43.2503 26.9127C40.9249 32.2392 41.8386 35.457 43.1341 35.9485H43.1347Z" fill="#FFF9EF"/>
<path d="M63.7354 38.4062C65.4438 37.228 67.5976 33.9393 67.1033 28.8675C66.8606 26.3781 65.8708 25.6383 65.182 24.2194C64.4425 22.696 68.3092 22.8645 69.038 22.8138C69.7661 22.7638 71.8755 23.6398 72.9606 26.6771C74.3762 30.6385 75.157 34.8071 72.3666 36.2677C72.3666 36.2677 66.4718 38.4062 63.7354 38.4062Z" fill="#FFF9EF"/>
<path d="M52.249 25.7643C52.249 25.7643 54.0204 21.4608 56.7987 21.4691C59.9888 21.4786 61.9127 22.9944 62.9591 26.2463C64.0061 29.4977 63.6434 33.1912 59.3757 34.5562C55.1074 35.9213 49.3092 33.3115 52.249 25.7649V25.7643Z" fill="#FFF9EF"/>
<path d="M55.3332 24.1782C55.3332 24.1782 55.6274 22.9899 56.9584 22.8949C58.2895 22.7999 59.2438 24.0844 58.6129 24.868C58.2431 25.3279 54.9336 25.4685 55.3332 24.1776V24.1782Z" fill="#231815"/>
<path d="M55.0473 27.8261C55.0473 27.8261 54.9564 32.2823 57.5537 32.2823C60.151 32.2823 59.7844 27.3929 59.7844 27.3929C59.7844 27.3929 59.0061 27.8591 58.447 27.3929C57.8879 26.9267 57.177 26.3325 57.1998 25.0625C57.1998 25.0625 57.2526 27.4955 55.0479 27.8268L55.0473 27.8261Z" fill="#DE6164"/>
<path d="M57.1999 24.92C57.2778 24.9198 57.3414 24.9818 57.3431 25.0594L57.2002 25.0625C57.3431 25.0594 57.3431 25.0595 57.3431 25.0596V25.0604C57.3431 25.0609 57.3432 25.0615 57.3432 25.0622C57.3432 25.0637 57.3432 25.0658 57.3433 25.0685C57.3433 25.0738 57.3433 25.0814 57.3432 25.0911C57.3431 25.0998 57.3429 25.1102 57.3426 25.1223C57.3428 26.2818 57.9919 26.8272 58.5391 27.2836C58.7706 27.4766 59.0519 27.4821 59.2949 27.4286C59.4152 27.402 59.5206 27.3619 59.5961 27.3283C59.6336 27.3115 59.6634 27.2966 59.6833 27.2861C59.6932 27.2808 59.7007 27.2767 59.7054 27.274C59.7078 27.2727 59.7095 27.2717 59.7104 27.2711C59.7109 27.2709 59.7112 27.2707 59.7114 27.2706L59.7113 27.2706H59.7112C59.7538 27.2452 59.8065 27.2436 59.8505 27.2663C59.8946 27.289 59.9236 27.3329 59.9273 27.3822L59.7848 27.3929C59.9192 27.3829 59.9269 27.3823 59.9273 27.3824C59.9274 27.3824 59.9274 27.3825 59.9274 27.3826C59.9274 27.3828 59.9274 27.3831 59.9275 27.3834C59.9275 27.3841 59.9276 27.3851 59.9277 27.3864C59.9278 27.3889 59.9281 27.3927 59.9284 27.3975C59.929 27.4072 59.93 27.4213 59.931 27.4396C59.9331 27.4763 59.9358 27.5298 59.9383 27.5977C59.9434 27.7334 59.9476 27.9269 59.9445 28.1588C59.9382 28.622 59.9025 29.242 59.7839 29.8641C59.6657 30.4841 59.4629 31.1188 59.1144 31.6015C58.7617 32.0902 58.2574 32.4248 57.5541 32.4248C56.8571 32.4248 56.3378 32.1233 55.9579 31.6784C55.5818 31.238 55.3425 30.6582 55.1889 30.0914C55.0348 29.5228 54.9639 28.9563 54.9315 28.5333C54.9152 28.3214 54.9085 28.1447 54.9059 28.0206C54.9046 27.9586 54.9043 27.9097 54.9043 27.876C54.9043 27.8593 54.9044 27.8463 54.9045 27.8374C54.9045 27.8329 54.9046 27.8295 54.9047 27.8271C54.9047 27.8259 54.9047 27.825 54.9047 27.8244C54.9047 27.8241 54.9047 27.8238 54.9047 27.8236C54.9047 27.8235 54.9047 27.8234 54.9047 27.8233C54.9051 27.8233 54.9123 27.8234 55.0476 27.8261L54.9047 27.8232C54.9059 27.7661 54.9412 27.7152 54.9944 27.6939C55.0088 27.6881 55.0237 27.6849 55.0386 27.684C56.0696 27.5248 56.5702 26.8818 56.8184 26.2672C56.9438 25.9568 57.0037 25.655 57.0322 25.43C57.0464 25.3178 57.0526 25.2254 57.0554 25.1617C57.056 25.1463 57.0564 25.1327 57.0567 25.1208C57.0567 25.1007 57.0569 25.0804 57.0573 25.06L57.0583 25.0456C57.0667 24.9748 57.1269 24.9201 57.1999 24.92ZM57.2002 26.0325C57.1688 26.1428 57.1305 26.2575 57.0836 26.3736C56.8177 27.032 56.2754 27.7405 55.1906 27.947C55.1909 27.9672 55.1912 27.9898 55.1918 28.0146C55.1943 28.1342 55.2008 28.3056 55.2166 28.5115C55.2482 28.924 55.317 29.4715 55.4649 30.017C55.6132 30.5642 55.8382 31.0985 56.1756 31.4936C56.5091 31.8842 56.9524 32.1398 57.5541 32.1398C58.1495 32.1398 58.5733 31.8631 58.8824 31.435C59.1956 31.0011 59.3882 30.4134 59.503 29.811C59.6174 29.2108 59.6524 28.6085 59.6586 28.1549C59.6616 27.9317 59.6575 27.7453 59.6527 27.6139C59.5718 27.6468 59.4705 27.6818 59.3566 27.7069C59.0707 27.7699 58.6833 27.7754 58.3557 27.5022C57.9511 27.1649 57.4438 26.7427 57.2002 26.0325Z" fill="#262727"/>
<path d="M55.3796 29.6327C55.3796 29.6327 57.2818 28.3645 59.698 29.5104V27.6456C59.698 27.6456 58.1948 27.5683 57.8632 26.9906C57.5315 26.4123 57.191 25.8467 57.191 25.8467C57.191 25.8467 56.5416 27.4575 55.6134 27.8109L54.9717 27.7058V28.8573L55.3796 29.6327Z" fill="white"/>
<path d="M57.1996 24.8091C57.338 24.8089 57.4511 24.9191 57.4541 25.0571L57.2 25.0625C57.4541 25.057 57.4542 25.0572 57.4542 25.0573V25.0606C57.4542 25.0624 57.4543 25.0648 57.4543 25.0677C57.4543 25.0736 57.4543 25.0818 57.4542 25.0921C57.4542 25.101 57.454 25.1116 57.4537 25.1238C57.4543 26.2282 58.0656 26.7444 58.6103 27.1985C58.8043 27.3603 59.0445 27.3702 59.2708 27.3203C59.3818 27.2958 59.4799 27.2587 59.5506 27.2272C59.5856 27.2116 59.613 27.1977 59.631 27.1882C59.64 27.1834 59.6465 27.1798 59.6504 27.1776C59.6521 27.1767 59.6533 27.176 59.654 27.1756C59.7295 27.1304 59.8232 27.1275 59.9015 27.1678C59.9798 27.2083 60.0315 27.2863 60.0381 27.374L59.7847 27.3929C60.0381 27.374 60.0381 27.3741 60.0381 27.3742C60.0381 27.3743 60.0381 27.3744 60.0381 27.3744C60.0382 27.3747 60.0382 27.3751 60.0382 27.3754C60.0383 27.3762 60.0384 27.3773 60.0385 27.3786C60.0386 27.3813 60.0389 27.3852 60.0392 27.3902C60.0399 27.4001 60.0408 27.4146 60.0419 27.4333C60.044 27.4707 60.0468 27.525 60.0493 27.5936C60.0544 27.7309 60.0586 27.9262 60.0555 28.1603C60.0491 28.6272 60.0132 29.2542 59.893 29.8849C59.7735 30.5116 59.5667 31.1645 59.2045 31.6663C58.8348 32.1785 58.2992 32.5357 57.554 32.5357C56.8199 32.5357 56.2711 32.2163 55.8731 31.7503C55.482 31.2923 55.2371 30.6948 55.0814 30.1203C54.9249 29.5428 54.8532 28.9689 54.8205 28.5418C54.804 28.3276 54.7973 28.1487 54.7946 28.023C54.7932 27.9601 54.7929 27.9103 54.793 27.8759C54.793 27.8587 54.7931 27.8454 54.7932 27.8362C54.7933 27.8315 54.7933 27.8279 54.7933 27.8254C54.7934 27.8241 54.7934 27.8231 54.7934 27.8224V27.8212C54.7934 27.8211 54.7948 27.821 55.0475 27.8261L54.7934 27.821C54.7955 27.7194 54.8582 27.6289 54.9528 27.591C54.9768 27.5814 55.0017 27.5757 55.0266 27.5736C56.005 27.4207 56.4775 26.814 56.7151 26.2257C56.8359 25.9267 56.8941 25.6347 56.9217 25.4162C56.9355 25.3074 56.9415 25.2181 56.9441 25.157C56.9448 25.1417 56.9452 25.1282 56.9455 25.1166C56.9455 25.0972 56.9456 25.0776 56.946 25.0579L56.9465 25.0451C56.9555 24.9132 57.0655 24.8094 57.1996 24.8091ZM57.1866 26.415C56.9183 27.0793 56.3738 27.7999 55.3034 28.037C55.3063 28.1533 55.3127 28.3134 55.3273 28.5031C55.3587 28.9115 55.4267 29.4516 55.5721 29.9881C55.7183 30.5277 55.9378 31.0442 56.2601 31.4217C56.5756 31.7912 56.9893 32.0289 57.554 32.0289C58.1074 32.0289 58.4999 31.7749 58.792 31.3703C59.0915 30.9554 59.2801 30.3859 59.3936 29.7902C59.5064 29.1986 59.5411 28.6033 59.5472 28.1534C59.5492 28.0083 59.548 27.879 59.5457 27.7705C59.4944 27.7868 59.4391 27.8022 59.3805 27.8151C59.0778 27.8818 58.6493 27.8916 58.2842 27.5872C57.9323 27.2938 57.4891 26.9258 57.2114 26.3516C57.2034 26.3727 57.1951 26.3938 57.1866 26.415Z" fill="#231815"/>
<path d="M57.233 24.6209C57.3806 24.6266 57.4996 24.7436 57.5076 24.8906C57.5076 24.8906 57.5076 24.8907 57.5076 24.8908C57.5076 24.891 57.5076 24.8914 57.5076 24.892C57.5077 24.8933 57.5079 24.8955 57.5081 24.8986C57.5085 24.9048 57.5091 24.9145 57.5102 24.9275C57.5123 24.9534 57.5158 24.9922 57.5213 25.0415C57.5324 25.1402 57.5516 25.2804 57.5838 25.4432C57.6488 25.7725 57.7639 26.1779 57.9611 26.522C58.1578 26.8652 58.4192 27.1193 58.77 27.2079C59.122 27.2968 59.633 27.2363 60.3666 26.799C60.5023 26.7181 60.678 26.7621 60.7591 26.8974C60.8403 27.0326 60.7961 27.2079 60.6604 27.2887C59.854 27.7695 59.1834 27.901 58.6295 27.7612C58.0743 27.621 57.7053 27.2259 57.4641 26.8051C57.3602 26.624 57.2769 26.4329 57.2101 26.2453C57.0577 26.6778 56.8663 27.0141 56.644 27.2699C56.2264 27.7504 55.7221 27.9221 55.2454 27.9309C54.7799 27.9395 54.3475 27.7938 54.0415 27.6551C53.8865 27.5849 53.7589 27.5141 53.6694 27.4605C53.6246 27.4336 53.589 27.4109 53.5641 27.3945C53.5517 27.3862 53.5418 27.3796 53.5348 27.3747C53.5313 27.3723 53.5284 27.3704 53.5263 27.3689L53.5229 27.3664C53.5227 27.3664 53.5226 27.3662 53.5225 27.3662C53.5225 27.3659 53.5265 27.36 53.6886 27.1338L53.5222 27.366C53.3936 27.2744 53.3638 27.0962 53.4557 26.968C53.5475 26.8398 53.7261 26.81 53.8547 26.9014C53.8548 26.9015 53.8549 26.9016 53.8551 26.9017C53.8559 26.9022 53.8573 26.9032 53.8594 26.9047C53.8636 26.9076 53.8705 26.9122 53.8798 26.9183C53.8985 26.9307 53.9271 26.949 53.9643 26.9713C54.0389 27.016 54.147 27.076 54.2785 27.1356C54.5453 27.2565 54.8886 27.3667 55.2347 27.3603C55.5696 27.3541 55.9127 27.2397 56.2114 26.8961C56.5187 26.5425 56.7984 25.9233 56.938 24.8688C56.9573 24.7226 57.0852 24.6151 57.233 24.6209Z" fill="#231815"/>
<path d="M76.4233 13.2272C76.5857 13.1481 76.7816 13.2152 76.8609 13.377C79.1952 18.141 80.3744 24.1627 79.5194 28.3355C79.5784 28.3663 79.6464 28.4023 79.7201 28.4427C79.965 28.577 80.2833 28.7637 80.5552 28.9648C80.6909 29.0652 80.8228 29.1748 80.9299 29.2886C81.0315 29.3966 81.1387 29.5372 81.1814 29.7018C81.2041 29.7896 81.2099 29.8901 81.1805 29.9939C81.1509 30.0986 81.0916 30.1853 81.0171 30.2536C80.901 30.36 80.7437 30.4263 80.5698 30.4702C80.6188 30.4961 80.6649 30.5239 80.707 30.5542C80.8002 30.6213 80.8994 30.7182 80.9523 30.8554C81.0092 31.0028 80.9963 31.1544 80.9377 31.2908C80.8617 31.4677 80.7564 31.6268 80.5757 31.7388C80.4073 31.8431 80.2078 31.884 79.9946 31.907C79.9421 31.9127 79.886 31.9174 79.8261 31.9216C79.8517 31.9326 79.8757 31.9434 79.8976 31.9543C80.0056 32.0082 80.1723 32.1044 80.2754 32.2442C80.331 32.3196 80.3944 32.4442 80.3706 32.5995C80.3464 32.7575 80.2448 32.8648 80.1485 32.931C79.972 33.0525 79.6869 33.125 79.3058 33.1736C78.9366 33.2206 78.4292 33.25 77.7422 33.254C77.7132 33.2908 77.6782 33.3339 77.6366 33.3828C77.4954 33.5484 77.2793 33.78 76.9722 34.0553C76.3577 34.6062 75.3805 35.3305 73.9129 36.0511C70.9771 37.4925 66.0884 38.9148 58.2282 38.9148C50.366 38.9148 45.5155 37.4265 42.6185 35.9171C41.1702 35.1625 40.213 34.404 39.6139 33.8272C39.3145 33.5389 39.105 33.2965 38.9686 33.1231C38.9432 33.091 38.9205 33.0611 38.9001 33.0339C38.8545 33.0434 38.8029 33.0538 38.7466 33.0644C38.5239 33.1064 38.2212 33.1541 37.9102 33.1742C37.6054 33.1939 37.264 33.1892 36.9774 33.1092C36.6914 33.0294 36.3718 32.844 36.3055 32.4502V32.4502C36.2896 32.3559 36.302 32.27 36.3301 32.195C36.2057 32.1721 36.0805 32.1374 35.9678 32.0829C35.8429 32.0226 35.7144 31.9289 35.6324 31.7828C35.5266 31.5944 35.5313 31.3958 35.5977 31.2226C35.6593 31.062 35.7726 30.9232 35.8914 30.8081C35.9428 30.7584 35.9991 30.7095 36.0591 30.6615C35.9169 30.6217 35.7775 30.5559 35.6564 30.4517C35.5089 30.3248 35.4055 30.1555 35.3516 29.9502C35.2396 29.5233 35.3943 29.1608 35.6365 28.8879C35.8702 28.6245 36.1997 28.424 36.5095 28.2753C36.8241 28.1243 37.1452 28.0143 37.3847 27.9423C37.4258 27.93 37.4646 27.9187 37.5009 27.9085C37.4862 27.7912 37.4692 27.6408 37.4525 27.4601C37.4088 26.9859 37.3672 26.3024 37.3745 25.4587C37.3892 23.7733 37.5992 21.4444 38.3807 18.8667C38.3809 18.866 38.3811 18.8653 38.3814 18.8644C38.3828 18.8591 38.3849 18.8512 38.3876 18.8411C38.3931 18.8209 38.4013 18.7912 38.4122 18.7528C38.434 18.6758 38.4666 18.5635 38.5105 18.4199C38.5983 18.1329 38.7315 17.721 38.9135 17.2182C39.2775 16.2132 39.838 14.8422 40.6246 13.3782C40.7099 13.2194 40.9082 13.1597 41.0675 13.2447C41.2268 13.3298 41.2867 13.5275 41.2014 13.6863C40.4333 15.1158 39.8851 16.4565 39.529 17.4398C39.3511 17.9312 39.2214 18.3326 39.1364 18.6103C39.0939 18.7492 39.0626 18.857 39.042 18.9298C39.0318 18.9661 39.0242 18.9937 39.0193 19.0119C39.0168 19.021 39.0149 19.0278 39.0137 19.0322C39.0132 19.0344 39.0128 19.036 39.0125 19.037C39.0124 19.0374 39.0123 19.0378 39.0122 19.0379L39.0122 19.0381C39.0111 19.0421 39.01 19.0462 39.0088 19.0501C38.2478 21.5578 38.0432 23.8249 38.0289 25.4643C38.0218 26.2837 38.0623 26.9453 38.1042 27.4004C38.1252 27.6279 38.1465 27.8037 38.1625 27.9217C38.1704 27.9807 38.177 28.0252 38.1816 28.0545C38.1838 28.0691 38.1856 28.08 38.1867 28.0869C38.1873 28.0904 38.1877 28.0929 38.188 28.0944C38.1881 28.0952 38.1882 28.0957 38.1882 28.096L38.1883 28.0961H38.1882C38.2181 28.2683 38.1065 28.4335 37.9352 28.4705L37.9351 28.4704C37.935 28.4705 37.9348 28.4706 37.9346 28.4706C37.9338 28.4708 37.9324 28.4711 37.9304 28.4716C37.9265 28.4724 37.9204 28.4738 37.9122 28.4757C37.8957 28.4795 37.8708 28.4855 37.8389 28.4935C37.775 28.5096 37.6832 28.5341 37.5735 28.567C37.3529 28.6333 37.0667 28.732 36.7934 28.8632C36.5152 28.9967 36.276 29.1518 36.1266 29.3202C35.9856 29.4791 35.9427 29.6248 35.9847 29.785C36.0079 29.8733 36.0449 29.9242 36.0839 29.9578C36.1256 29.9937 36.1873 30.0247 36.2785 30.0439C36.4698 30.084 36.7341 30.0603 37.0296 29.9905C37.1808 29.9548 37.3308 29.9092 37.4704 29.8614C37.5713 29.8162 37.6663 29.7752 37.7521 29.7391C37.8833 29.6839 37.9939 29.6398 38.0719 29.6094C38.111 29.5942 38.142 29.5824 38.1634 29.5743C38.1741 29.5703 38.1824 29.5671 38.1882 29.565C38.191 29.5639 38.1933 29.5631 38.1949 29.5625C38.1956 29.5622 38.1963 29.562 38.1967 29.5618L38.1975 29.5616C38.1977 29.5621 38.2024 29.5747 38.3106 29.8676L38.4579 30.1589C38.4578 30.1589 38.4577 30.159 38.4576 30.159C38.4575 30.1591 38.4573 30.1592 38.4571 30.1593C38.4566 30.1596 38.456 30.1598 38.4553 30.1602C38.4538 30.161 38.4517 30.162 38.4491 30.1632C38.444 30.1658 38.4366 30.1694 38.4273 30.1739C38.4085 30.183 38.3815 30.1959 38.3475 30.2117C38.2794 30.2432 38.1825 30.2865 38.0655 30.3345C37.9621 30.3769 37.8415 30.4235 37.7102 30.4693C37.5219 30.5541 37.3158 30.6528 37.1159 30.7599C36.7981 30.9303 36.519 31.1098 36.3474 31.2761C36.261 31.3597 36.2224 31.4206 36.209 31.4556C36.2074 31.4598 36.2064 31.4632 36.2057 31.4657C36.2112 31.471 36.2245 31.482 36.2531 31.4958C36.3018 31.5193 36.3754 31.5418 36.4768 31.5584C36.6801 31.5919 36.9411 31.5936 37.2112 31.577C37.3497 31.5685 37.4863 31.5553 37.6127 31.5406C37.7518 31.5135 37.8823 31.4924 37.9893 31.4767C38.0742 31.4643 38.1453 31.4551 38.1955 31.449C38.2206 31.4459 38.2406 31.4436 38.2544 31.442C38.2613 31.4413 38.2668 31.4407 38.2705 31.4403C38.2724 31.4401 38.2739 31.4399 38.275 31.4398C38.2756 31.4397 38.276 31.4397 38.2763 31.4397C38.2765 31.4397 38.2766 31.4396 38.2767 31.4396H38.2769C38.277 31.4399 38.2779 31.4487 38.3106 31.7641C38.3723 32.0709 38.3748 32.0834 38.3748 32.0839L38.3747 32.084C38.3745 32.084 38.3744 32.084 38.3742 32.0841C38.3739 32.0841 38.3734 32.0842 38.3727 32.0844C38.3715 32.0846 38.3697 32.085 38.3675 32.0854C38.3631 32.0863 38.3567 32.0875 38.3485 32.0891C38.3321 32.0922 38.3084 32.0966 38.2784 32.102C38.2185 32.1127 38.1331 32.1273 38.0299 32.1429C37.9382 32.1568 37.8316 32.1716 37.7159 32.1854C37.6501 32.1984 37.5829 32.2127 37.5163 32.2285C37.3084 32.2776 37.1278 32.3351 37.0106 32.3962C37.0035 32.3999 36.9969 32.4035 36.9907 32.4069C37.019 32.4308 37.0679 32.457 37.1537 32.4809C37.3332 32.531 37.5867 32.5413 37.8679 32.5231C38.1428 32.5054 38.4171 32.4625 38.625 32.4233C38.7283 32.4038 38.8139 32.3855 38.8732 32.3721C38.9028 32.3655 38.9258 32.3601 38.9411 32.3564C38.9488 32.3546 38.9545 32.3532 38.9581 32.3523L38.9629 32.3511C39.1028 32.3158 39.2494 32.3761 39.3237 32.4994L39.3241 32.5002C39.325 32.5017 39.3268 32.5045 39.3295 32.5086C39.3348 32.517 39.3439 32.5308 39.3568 32.5496C39.3826 32.5872 39.4241 32.6451 39.4834 32.7204C39.6018 32.8709 39.7913 33.091 40.0685 33.3579C40.6226 33.8913 41.5288 34.6132 42.9216 35.3389C45.7066 36.79 50.4486 38.2624 58.2282 38.2624C66.0096 38.2624 70.7954 36.8545 73.6237 35.4658C75.038 34.7714 75.9652 34.0806 76.5347 33.5702C76.8195 33.3148 77.0153 33.1042 77.1379 32.9603C77.1993 32.8884 77.2424 32.833 77.2692 32.797C77.2827 32.779 77.292 32.7659 77.2976 32.7579C77.3004 32.754 77.3022 32.7513 77.3031 32.75C77.3035 32.7494 77.3037 32.7491 77.3038 32.749C77.3643 32.6573 77.467 32.6021 77.5771 32.6021C78.3354 32.6021 78.8636 32.5722 79.2229 32.5264C79.3249 32.5134 79.4098 32.4993 79.48 32.4854C79.4023 32.4562 79.3016 32.4222 79.1821 32.3851C78.988 32.3249 78.7637 32.2622 78.5494 32.205C78.3354 32.148 78.1336 32.0972 77.9852 32.0605C77.911 32.0422 77.8503 32.0274 77.8082 32.0173C77.7872 32.0122 77.7708 32.0083 77.7598 32.0057C77.7542 32.0044 77.75 32.0034 77.7472 32.0027C77.7459 32.0024 77.7448 32.0021 77.7441 32.002C77.7438 32.0019 77.7435 32.0018 77.7434 32.0018C77.7433 32.0018 77.7432 32.0017 77.7432 32.0017C77.5854 31.9645 77.4788 31.8177 77.4925 31.6566C77.5063 31.4955 77.6363 31.3688 77.7981 31.3587C78.3513 31.3242 78.7905 31.3094 79.1392 31.298C79.4929 31.2863 79.7392 31.2783 79.9242 31.2584C80.1114 31.2382 80.1903 31.2094 80.2304 31.1846C80.2538 31.17 80.281 31.1467 80.3157 31.0775C80.2369 31.0238 80.0874 30.9643 79.8595 30.9011C79.6317 30.8379 79.3718 30.7826 79.0971 30.7199C78.8302 30.659 78.5503 30.5912 78.3117 30.506V30.5059C78.2708 30.4913 78.2197 30.4713 78.1745 30.4439C78.1546 30.4318 78.1099 30.4031 78.0707 30.3533C78.0278 30.2986 77.9608 30.1719 78.022 30.0199C78.0706 29.8993 78.1692 29.8503 78.1966 29.8375C78.2353 29.8193 78.2711 29.8107 78.2919 29.8064C78.3356 29.7974 78.3817 29.7938 78.4194 29.792C78.5701 29.7846 78.8206 29.7962 79.0758 29.8102C79.3411 29.8248 79.6254 29.8431 79.8704 29.8535C79.9923 29.8586 80.0998 29.8616 80.1859 29.8613C80.229 29.8612 80.2644 29.8601 80.292 29.8585C80.3058 29.8576 80.3165 29.8567 80.3245 29.8558C80.3319 29.855 80.3354 29.8544 80.3358 29.8543L80.336 29.8543C80.4149 29.8386 80.472 29.8214 80.5122 29.8054C80.4972 29.7851 80.4776 29.7615 80.4527 29.735C80.3823 29.6602 80.2841 29.5767 80.1653 29.4888C79.9281 29.3134 79.6395 29.1431 79.4048 29.0144C79.2885 28.9507 79.1877 28.8984 79.1162 28.8621C79.0804 28.844 79.0521 28.8299 79.0329 28.8205C79.0234 28.8158 79.0161 28.8122 79.0113 28.8099C79.0089 28.8088 79.0071 28.8079 79.006 28.8074C79.0055 28.8071 79.0051 28.8069 79.0048 28.8068C79.0048 28.8068 79.0047 28.8068 79.0047 28.8068C78.867 28.7408 78.7934 28.5886 78.8274 28.4402C79.7391 24.4549 78.6148 18.443 76.2729 13.6634C76.1936 13.5016 76.2609 13.3062 76.4233 13.2272ZM38.2769 31.4396C38.4507 31.4217 38.6079 31.543 38.6341 31.7152C38.6603 31.8874 38.5462 32.0497 38.375 32.0839L38.3106 31.7641L38.2769 31.4396ZM38.1976 29.5615C38.3603 29.5018 38.5416 29.579 38.6107 29.7376C38.6798 29.8962 38.6128 30.081 38.458 30.1589L38.3106 29.8676L38.1976 29.5615Z" fill="#231815"/>
<path d="M48.8383 5.44451C55.2184 3.18746 62.4755 3.64566 67.7153 5.19083C67.8886 5.24193 67.9876 5.42342 67.9363 5.59619C67.8851 5.76893 67.703 5.86755 67.5298 5.81646C62.3905 4.30094 55.2786 3.85841 49.0572 6.05938L49.0571 6.05932C48.906 6.11281 48.7572 6.16931 48.6106 6.22924C48.4434 6.29759 48.2523 6.21784 48.1837 6.05115C48.1152 5.88446 48.1951 5.69393 48.3623 5.62557C48.5194 5.56136 48.6781 5.50122 48.8383 5.44451H48.8383Z" fill="#231815"/>
<path d="M69.0529 44.5339C69.0529 44.5339 69.1272 44.0252 69.8153 43.7104C71.173 43.089 72.9012 41.5897 73.4743 37.9634C74.3536 32.3962 75.3117 30.152 72.6286 29.6022C69.9449 29.053 70.1489 30.9856 70.1304 32.2303C70.1146 33.3191 69.0567 35.049 68.326 37.2888C68.2218 37.6087 67.2104 38.0096 66.7656 38.0096" fill="#EC7032"/>
<path d="M71.0086 29.3172C71.4386 29.1692 71.9901 29.1596 72.6902 29.3029H72.6903C73.4024 29.4488 73.9287 29.7187 74.264 30.1778C74.5949 30.6306 74.7011 31.2156 74.6938 31.9045C74.6865 32.5946 74.5639 33.4364 74.3925 34.4371C74.2305 35.3834 74.0243 36.4747 73.8182 37.7528L73.777 38.0109C73.1888 41.7335 71.3985 43.3221 69.9431 43.9882V43.9883C69.6557 44.1197 69.5101 44.2843 69.4358 44.4025C69.3978 44.4629 69.3768 44.5141 69.3658 44.5468C69.3603 44.5632 69.3573 44.5747 69.356 44.5804C69.3554 44.5827 69.3552 44.584 69.3552 44.5843L69.3558 44.5805C69.3558 44.5802 69.3559 44.5797 69.356 44.5793C69.356 44.5791 69.3561 44.5789 69.3561 44.5787C69.3561 44.5786 69.3561 44.5784 69.3561 44.5783L69.356 44.5783C69.3315 44.7451 69.1761 44.8606 69.0086 44.8363C68.8411 44.812 68.7251 44.6569 68.7495 44.4899L69.0528 44.5339C68.7615 44.4916 68.75 44.4897 68.7495 44.4895C68.7495 44.4894 68.7496 44.4892 68.7496 44.4891C68.7496 44.4888 68.7497 44.4885 68.7497 44.4883C68.7498 44.4877 68.7499 44.4871 68.75 44.4865C68.7502 44.4853 68.7504 44.4839 68.7506 44.4824C68.7511 44.4795 68.7517 44.476 68.7524 44.472C68.7539 44.464 68.756 44.4541 68.7587 44.4424C68.7641 44.419 68.7724 44.3885 68.7846 44.3522C68.809 44.2797 68.8496 44.1841 68.9162 44.078C69.0511 43.8632 69.2867 43.616 69.6874 43.4327C70.9474 42.856 72.6135 41.4459 73.1714 37.9159L73.2127 37.6569C73.4196 36.3739 73.6285 35.2663 73.7882 34.3342C73.9599 33.3312 74.074 32.5337 74.0808 31.8981C74.0875 31.2614 73.9851 30.8342 73.7685 30.5377C73.5564 30.2473 73.1962 30.0306 72.5668 29.9016V29.9015C71.9252 29.7702 71.4957 29.7962 71.2087 29.895C70.9335 29.9897 70.7654 30.1592 70.654 30.3805C70.5372 30.6127 70.4812 30.907 70.4568 31.2396C70.4323 31.5757 70.4417 31.9063 70.4369 32.2348C70.4279 32.85 70.1305 33.6124 69.7788 34.4464C69.4176 35.3031 68.9777 36.279 68.6175 37.3831C68.5588 37.5635 68.4025 37.6974 68.2784 37.7854C68.1395 37.8839 67.9692 37.9738 67.7963 38.0492C67.4605 38.1956 67.0505 38.3153 66.7656 38.3153C66.5962 38.3153 66.459 38.1784 66.459 38.0096C66.459 37.8409 66.5962 37.704 66.7656 37.704C66.9253 37.704 67.2435 37.6231 67.5506 37.4892C67.6992 37.4244 67.8291 37.3539 67.923 37.2873C68.0183 37.2198 68.0372 37.1837 68.036 37.1894L68.0345 37.1943C68.4049 36.0587 68.8593 35.0499 69.2136 34.2095C69.5775 33.3464 69.8169 32.6995 69.8239 32.2258V32.2258C69.8282 31.9319 69.8191 31.5543 69.8453 31.1951C69.8718 30.8325 69.936 30.4445 70.106 30.1065C70.2814 29.7578 70.5666 29.4693 71.0086 29.3172Z" fill="#231815"/>
<path d="M69.4983 33.3704C69.1864 34.0856 69.0142 34.852 68.8674 35.6172C68.8185 35.8737 68.7734 36.1499 68.8782 36.3868C68.9379 36.5217 69.0421 36.6319 69.1578 36.7219C69.4748 36.9683 69.877 37.0728 70.269 37.1608C71.1331 37.3547 72.0111 37.4946 72.8968 37.5523C73.048 37.5624 73.2113 37.5669 73.339 37.4826C73.4438 37.4136 73.5067 37.2964 73.5601 37.1817C73.8701 36.5223 74.0315 35.8059 74.191 35.0959C74.3168 34.5347 74.4432 33.9734 74.569 33.4116" fill="#D1D1D1"/>
<path d="M69.4793 37.0513C69.3402 36.9905 69.2074 36.9157 69.0854 36.8214C68.9387 36.7074 68.8332 36.58 68.7728 36.4438C68.6566 36.181 68.6972 35.8953 68.7538 35.6008C68.8974 34.8521 69.074 34.0584 69.3936 33.3261C69.4209 33.2634 69.4895 33.233 69.5473 33.2577H69.548C69.6051 33.2831 69.6293 33.3534 69.602 33.4154C69.2932 34.1236 69.1204 34.9002 68.98 35.6337C68.9317 35.8871 68.8954 36.1309 68.9831 36.3292C69.0282 36.4312 69.1115 36.53 69.2303 36.6218C69.5302 36.8549 69.9234 36.9569 70.3008 37.0412C71.2272 37.2489 72.0811 37.3762 72.9128 37.4301C73.0481 37.439 73.1885 37.4428 73.2838 37.38C73.3626 37.3281 73.4134 37.2299 73.4585 37.133C73.7635 36.4844 73.9242 35.768 74.0799 35.075L74.4579 33.3907C74.4725 33.3242 74.5348 33.2799 74.5971 33.2913C74.6587 33.3021 74.6975 33.3654 74.6822 33.4319L74.3042 35.1162C74.1453 35.8231 73.9814 36.5541 73.6637 37.2299C73.6047 37.3547 73.531 37.496 73.3956 37.5846C73.2393 37.6879 73.0564 37.6854 72.8829 37.674C72.0404 37.6188 71.1757 37.4903 70.2386 37.28C69.9844 37.223 69.7227 37.1577 69.4793 37.0513Z" fill="#DF9669"/>
<path d="M69.243 33.2611C69.2994 33.1318 69.4501 33.0479 69.5979 33.1025C69.6034 33.1043 69.6087 33.1063 69.6139 33.1086C69.7645 33.1754 69.8097 33.3482 69.7513 33.481C69.4504 34.1712 69.2802 34.9323 69.1402 35.664L69.1402 35.6641C69.0903 35.9261 69.0684 36.1188 69.1323 36.2634C69.1615 36.3293 69.2182 36.4026 69.311 36.4778L69.3301 36.4929L69.3304 36.4932C69.5977 36.701 69.9563 36.7972 70.3361 36.882L70.3363 36.882C71.2555 37.0882 72.1009 37.2141 72.9229 37.2673H72.923C72.9903 37.2717 73.048 37.274 73.0981 37.2694C73.1483 37.2649 73.177 37.2545 73.1931 37.244C73.2274 37.2213 73.2616 37.1674 73.3096 37.0643L73.31 37.0638C73.606 36.4341 73.7634 35.7355 73.9198 35.0393L74.2978 33.3551C74.3292 33.2139 74.4665 33.1025 74.6248 33.1307L74.6248 33.1306C74.6251 33.1306 74.6254 33.1307 74.6257 33.1308C74.6258 33.1308 74.626 33.1308 74.6261 33.1308L74.6261 33.1309C74.7916 33.1606 74.8739 33.3236 74.8414 33.4675L74.8414 33.4675L74.4634 35.1518C74.3052 35.8557 74.1379 36.6044 73.8114 37.2991L73.8112 37.2995C73.7524 37.4237 73.6626 37.6046 73.485 37.7209L73.485 37.7209C73.2783 37.8572 73.0435 37.848 72.8717 37.8367V37.8366C72.0197 37.7809 71.1465 37.651 70.2022 37.4391C69.963 37.3854 69.7063 37.3223 69.4619 37.2214L69.4132 37.2007C69.264 37.1354 69.1191 37.0542 68.9847 36.9502L68.9844 36.95C68.8215 36.8235 68.6964 36.6759 68.6227 36.5098L68.6226 36.5096C68.4834 36.1948 68.5367 35.8614 68.5926 35.5701L68.62 35.4287C68.7595 34.7189 68.9362 33.9641 69.243 33.2611Z" fill="#231815"/>
<path d="M76.5494 28.8884C74.8975 31.4221 69.7543 26.9178 69.6876 26.418C69.4335 24.5177 70.3408 24.2732 70.5136 24.201C72.1877 23.5011 74.2374 23.7241 75.8149 24.443C76.1746 24.6071 76.5284 24.7952 76.8194 25.0663C77.6212 25.8137 78.031 26.7797 77.8195 27.9376C77.6079 29.0961 77.2184 29.5332 76.6625 30.579C76.0996 31.638 75.536 32.6978 74.9731 33.7569C74.8505 33.9874 74.745 34.2465 74.5398 34.4036C74.1344 34.7146 73.4356 34.7779 72.8637 34.7146C72.0797 34.6278 70.6667 34.166 69.9278 33.8949C69.133 33.6036 69.2429 32.3342 68.9862 31.6083C68.6755 30.7291 67.9932 30.1584 67.7937 29.1848C67.6539 28.502 67.6831 27.7368 68.0408 27.1122C68.3985 26.4871 68.9907 25.967 69.6235 26.164C69.6203 26.0266 69.6196 25.9847 69.6235 25.8473" fill="#E24D4D"/>
<path d="M70.3871 23.9002C72.1375 23.1684 74.245 23.392 75.8738 24.1116L75.951 24.1463L75.9511 24.1463C76.3078 24.3091 76.6878 24.5072 77.0117 24.7994L77.0429 24.828L77.0429 24.828C77.9142 25.6402 78.3757 26.714 78.1414 27.9961C77.9249 29.1818 77.5118 29.6959 77.0013 30.6391L76.9516 30.7317L75.2622 33.9096V33.9097C75.2129 34.0025 75.1405 34.1537 75.0689 34.2741C74.9915 34.4043 74.8885 34.548 74.7391 34.6624C74.4768 34.8635 74.1413 34.9703 73.8153 35.0217C73.4852 35.0737 73.1377 35.0732 72.8276 35.0388V35.0388C71.9986 34.947 70.5504 34.4709 69.8149 34.2011V34.2011C69.2468 33.9929 69.043 33.4438 68.9365 32.9887C68.8815 32.7535 68.8439 32.5017 68.8072 32.2852C68.7689 32.0589 68.7314 31.8688 68.6776 31.7167V31.7167C68.5373 31.3197 68.3149 30.9946 68.0707 30.6047C67.8328 30.2247 67.5852 29.7972 67.4731 29.2501L67.4731 29.25C67.3236 28.5202 67.3465 27.6667 67.7567 26.9505C67.952 26.609 68.2203 26.2792 68.5455 26.0597C68.7669 25.9102 69.0237 25.8072 69.3003 25.7963C69.3037 25.7748 69.3091 25.754 69.3165 25.7342C69.3258 25.1413 69.4681 24.7271 69.6727 24.4366C69.9522 24.0396 70.316 23.9299 70.3871 23.9002ZM75.6075 24.7076C74.1018 24.0426 72.1857 23.8557 70.6401 24.5018L70.6401 24.5019C70.5383 24.5444 70.3621 24.5931 70.2083 24.8114C70.0565 25.0271 69.8957 25.4632 70.0078 26.3416C70.012 26.3485 70.0179 26.3579 70.0262 26.3697C70.0571 26.4141 70.1067 26.4756 70.1768 26.553C70.3162 26.7071 70.5193 26.9052 70.7715 27.126C71.2759 27.5676 71.9597 28.0853 72.6888 28.5089C73.4236 28.9358 74.1759 29.2503 74.8234 29.3171C75.453 29.382 75.9468 29.2141 76.2751 28.7106C76.3735 28.5595 76.5762 28.5167 76.7278 28.6148C76.8793 28.713 76.9223 28.9151 76.8238 29.0661C76.3261 29.8295 75.5575 30.0487 74.7561 29.9661C73.9726 29.8853 73.1252 29.5175 72.3594 29.0726C71.5878 28.6243 70.8701 28.0806 70.3398 27.6163C70.0747 27.3842 69.8521 27.1681 69.6909 26.9901C69.6108 26.9015 69.5415 26.8175 69.4889 26.7422C69.4627 26.7046 69.4374 26.6646 69.4166 26.6237C69.3979 26.5869 69.3724 26.5294 69.3633 26.4611V26.461C69.3627 26.4567 69.3622 26.4525 69.3617 26.4482C69.2164 26.4449 69.0671 26.4956 68.9125 26.5999C68.694 26.7474 68.4874 26.9902 68.3251 27.2739L68.3249 27.274C68.0198 27.8069 67.9842 28.4838 68.1143 29.1196H68.1142C68.2016 29.546 68.395 29.8906 68.6258 30.2592C68.8504 30.6178 69.1244 31.0177 69.2948 31.4999H69.2948C69.3694 31.7108 69.4144 31.9516 69.4525 32.1765C69.4923 32.4113 69.5249 32.6311 69.5739 32.8405C69.6722 33.2608 69.8054 33.491 70.0197 33.5805L70.0408 33.5887L70.0408 33.5888C70.76 33.8527 72.0754 34.2808 72.8287 34.3816L72.8999 34.3904C73.1616 34.4194 73.4496 34.4188 73.7131 34.3772C73.9807 34.3351 74.1972 34.2548 74.3402 34.145L74.3405 34.1449C74.3963 34.1021 74.4488 34.0377 74.506 33.9414C74.5691 33.8354 74.6108 33.7418 74.684 33.604C74.9655 33.0745 75.2471 32.5448 75.5287 32.0152C75.8103 31.4854 76.092 30.9557 76.3734 30.4262C76.9519 29.338 77.2979 28.9722 77.4976 27.8792L77.5061 27.8308C77.6752 26.8187 77.3169 25.9767 76.596 25.3046L76.5723 25.2829C76.3249 25.0597 76.0189 24.8948 75.6789 24.7397L75.6075 24.7076Z" fill="#231815"/>
<path d="M69.0467 34.6804C68.9895 34.655 68.9654 34.5847 68.9927 34.522C69.02 34.4599 69.0893 34.4295 69.1464 34.4549C70.5614 35.0731 72.5627 35.4582 74.0139 35.3917C74.0774 35.3885 74.1282 35.4405 74.1263 35.5076C74.125 35.5748 74.0723 35.6318 74.0081 35.6343C72.5036 35.7033 70.5099 35.3201 69.0454 34.6797L69.0467 34.6804Z" fill="#DF9669"/>
<path d="M68.843 34.4565C68.9011 34.3246 69.0603 34.2387 69.2122 34.3055L69.2779 34.3339C70.6451 34.9167 72.5429 35.2814 73.9392 35.2316L74.0064 35.2288C74.1726 35.2209 74.2934 35.3578 74.2899 35.5107L74.29 35.5107C74.2872 35.6557 74.1739 35.7904 74.0157 35.7972L74.0157 35.7972C74.0157 35.7972 74.0156 35.7972 74.0155 35.7972C74.0152 35.7973 74.015 35.7973 74.0147 35.7973L74.0146 35.7972C72.4843 35.8672 70.4673 35.4792 68.9817 34.83C68.9813 34.8298 68.9808 34.8297 68.9804 34.8295C68.9781 34.8285 68.9759 34.8273 68.9737 34.8262L68.9736 34.8263L68.9723 34.8256H68.9725C68.8278 34.7562 68.786 34.5872 68.8427 34.4571L68.843 34.4565Z" fill="#231815"/>
<path d="M69.3925 35.9884C69.212 35.9092 69.0341 35.8244 68.8594 35.7325C68.8041 35.7034 68.7844 35.6305 68.8156 35.5704C68.8467 35.5096 68.9172 35.4855 68.9725 35.5134C70.4001 36.2602 72.0209 36.5832 73.6601 36.4464C73.7236 36.4413 73.7764 36.4914 73.777 36.5579C73.7776 36.625 73.7268 36.6833 73.6633 36.689C72.1848 36.8119 70.721 36.5699 69.3931 35.9884H69.3925Z" fill="#DF9669"/>
<path d="M68.6703 35.4955C68.7365 35.3671 68.8932 35.2999 69.033 35.3614L69.0464 35.3677L69.0487 35.3689C70.4482 36.101 72.0378 36.4181 73.6466 36.2838L73.6472 36.2837C73.807 36.271 73.9313 36.3941 73.9402 36.5419L73.9407 36.5563L73.9405 36.5699C73.9353 36.7102 73.8281 36.8379 73.6781 36.8514C73.6777 36.8514 73.6773 36.8514 73.677 36.8515C72.1733 36.9764 70.6835 36.7308 69.3313 36.1394C69.3298 36.1388 69.3282 36.1384 69.3267 36.1377C69.1431 36.0571 68.9617 35.9706 68.7832 35.8768L68.783 35.8766C68.6376 35.8 68.6039 35.6239 68.6703 35.4955Z" fill="#231815"/>
<path d="M63.3565 21.813C63.387 20.9402 62.8018 20.3251 62.0553 20.2991C61.3081 20.2732 60.6823 20.8464 60.6518 21.7193C60.6181 22.6808 61.2052 23.2433 61.9517 23.2692C62.6989 23.2952 63.3272 22.646 63.3565 21.813Z" fill="#231815"/>
<path d="M51.4884 21.7927C51.4579 20.9199 52.0431 20.3048 52.7896 20.2789C53.5368 20.2529 54.1626 20.8261 54.1931 21.699C54.2268 22.6605 53.6397 23.223 52.8932 23.249C52.1467 23.275 51.5177 22.6257 51.4884 21.7927Z" fill="#231815"/>
<path d="M37.2297 30.9649L48.4884 27.2658C49.1606 27.0449 49.8867 27.4099 50.1082 28.0801L55.1164 43.2307C55.3379 43.9009 54.9718 44.6247 54.2996 44.8456L43.0409 48.5447L37.2295 30.9643L37.2297 30.9649Z" fill="#231815"/>
<path d="M49.8966 28.1495C49.7135 27.5956 49.1131 27.2938 48.5576 27.4763L37.51 31.106L43.182 48.2648L54.2296 44.6351C54.7851 44.4525 55.0878 43.854 54.9047 43.3001L49.8966 28.1495ZM55.3271 43.1613C55.5871 43.9478 55.1576 44.797 54.3688 45.0562L43.11 48.7553C42.9934 48.7936 42.8677 48.7304 42.8292 48.6141L37.0178 31.0337C36.9794 30.9174 37.0428 30.7921 37.1594 30.7537C37.1644 30.7521 37.1693 30.7508 37.1743 30.7495L48.4184 27.0552C49.2072 26.796 50.059 27.2242 50.319 28.0107L55.3271 43.1613Z" fill="#231815"/>
<path d="M36.4064 31.2355L47.6652 27.5363C48.3374 27.3155 49.0635 27.6805 49.285 28.3507L54.2932 43.5013C54.5147 44.1714 54.1486 44.8953 53.4763 45.1162L42.2176 48.8153L36.4062 31.2349L36.4064 31.2355Z" fill="#00996A"/>
<path d="M49.0733 28.4201C48.8902 27.8662 48.2899 27.5643 47.7343 27.7469L36.6868 31.3766L42.3588 48.5354L53.4063 44.9056C53.9619 44.7231 54.2646 44.1245 54.0815 43.5707L49.0733 28.4201ZM54.5039 43.4319C54.7639 44.2183 54.3344 45.0676 53.5455 45.3267L42.2868 49.0259C42.1702 49.0642 42.0444 49.001 42.006 48.8847L36.1946 31.3042C36.1562 31.188 36.2196 31.0626 36.3362 31.0243C36.3411 31.0227 36.3461 31.0213 36.3511 31.0201L47.5951 27.3257C48.384 27.0666 49.2357 27.4948 49.4957 28.2813L54.5039 43.4319Z" fill="#231815"/>
<path d="M37.7378 30.7978L36.4072 31.2349L42.2186 48.8154L43.5492 48.3782L37.7378 30.7978Z" fill="#687AB5"/>
<path d="M37.6677 30.5873C37.7844 30.5489 37.9101 30.6121 37.9485 30.7284L43.7599 48.3089C43.7983 48.4252 43.7349 48.5505 43.6183 48.5888L42.2878 49.026C42.1711 49.0643 42.0454 49.0011 42.007 48.8848L36.1956 31.3044C36.1571 31.1881 36.2205 31.0627 36.3372 31.0244L37.6677 30.5873ZM42.3598 48.5355L43.2679 48.2371L37.5957 31.0778L36.6876 31.3761L42.3598 48.5355Z" fill="#231815"/>
<path d="M45.8214 36.5399C47.8659 35.8681 49.2024 34.3526 48.8065 33.1548C48.4105 31.957 46.4321 31.5306 44.3876 32.2024C42.343 32.8741 41.0065 34.3897 41.4024 35.5875C41.7984 36.7852 43.7768 37.2116 45.8214 36.5399Z" fill="#F3B411"/>
<path d="M48.6671 33.2008C48.4922 32.6717 47.9584 32.2879 47.1847 32.1211C46.4149 31.9552 45.4361 32.0129 44.4343 32.342C43.4325 32.6711 42.6111 33.205 42.0911 33.7947C41.5685 34.3874 41.3682 35.0123 41.5431 35.5415C41.718 36.0706 42.2518 36.4544 43.0254 36.6211C43.7952 36.787 44.7741 36.7295 45.7758 36.4004C46.7776 36.0712 47.599 35.5373 48.119 34.9476C48.6417 34.3549 48.842 33.73 48.6671 33.2008ZM48.9471 33.1088C49.1681 33.7774 48.8982 34.5091 48.3404 35.1416C47.78 35.7771 46.9109 36.3369 45.8681 36.6795C44.8253 37.0221 43.7927 37.0872 42.9631 36.9084C42.1375 36.7304 41.4841 36.3021 41.263 35.6335C41.042 34.9648 41.312 34.2331 41.8697 33.6006C42.4301 32.9652 43.2992 32.4054 44.342 32.0628C45.3848 31.7202 46.4175 31.6551 47.247 31.8339C48.0727 32.0119 48.726 32.4402 48.9471 33.1088Z" fill="#231815"/>
<path d="M45.5502 35.7186C44.7179 35.9922 43.8532 36.0651 43.1772 35.9194C42.6702 35.8104 42.315 35.5849 42.2261 35.3163C42.0444 34.7665 42.9021 33.6004 44.6595 33.0227C45.4918 32.7491 46.3565 32.6762 47.0325 32.8219C47.5395 32.9309 47.8947 33.1564 47.9836 33.4249C48.1653 33.9748 47.3076 35.1409 45.5502 35.7186Z" fill="white"/>
<path d="M44.6133 32.8831C45.464 32.6034 46.356 32.5258 47.0636 32.6783L47.0635 32.6783C47.3295 32.7355 47.5624 32.8245 47.7439 32.9396C47.924 33.0538 48.0647 33.2012 48.1235 33.3789L48.1236 33.3789C48.1843 33.5627 48.1529 33.7775 48.0631 33.9909C47.9723 34.2067 47.8157 34.4367 47.601 34.6624C47.171 35.1145 46.4955 35.5626 45.5963 35.8581C44.7456 36.1378 43.8537 36.2155 43.146 36.063V36.0629C42.8801 36.0058 42.6472 35.9168 42.4657 35.8017C42.2856 35.6875 42.1449 35.5401 42.0861 35.3624L42.086 35.3623C42.0253 35.1786 42.0568 34.9639 42.1465 34.7504C42.2373 34.5346 42.3939 34.3046 42.6086 34.0789C43.0387 33.6268 43.7142 33.1787 44.6133 32.8831ZM47.0013 32.9655C46.3569 32.8267 45.5195 32.8947 44.7056 33.1623C43.8474 33.4444 43.2153 33.8682 42.8225 34.2811C42.6259 34.4878 42.4922 34.6886 42.4184 34.8641C42.3436 35.042 42.3359 35.1793 42.366 35.2704H42.366C42.3961 35.3612 42.4775 35.4608 42.624 35.5537C42.769 35.6457 42.9672 35.7239 43.2082 35.7757H43.2083C43.8527 35.9146 44.6902 35.8466 45.504 35.579C46.3623 35.2969 46.9943 34.8731 47.3871 34.4602C47.5837 34.2535 47.7174 34.0527 47.7912 33.8772C47.8661 33.6993 47.8737 33.5621 47.8436 33.471C47.8135 33.3801 47.7321 33.2804 47.5857 33.1875C47.4406 33.0956 47.2424 33.0174 47.0014 32.9656L47.0013 32.9655Z" fill="#231815"/>
<path d="M46.4298 33.433C46.5071 33.4076 46.5904 33.4495 46.6159 33.5266C46.6414 33.6037 46.5993 33.6867 46.522 33.7121L43.5714 34.6813C43.4941 34.7067 43.4109 34.6648 43.3854 34.5877C43.3599 34.5106 43.4019 34.4275 43.4792 34.4021L46.4298 33.433Z" fill="#231815"/>
<path d="M46.6372 34.0607C46.7145 34.0353 46.7978 34.0772 46.8233 34.1542C46.8488 34.2313 46.8067 34.3144 46.7294 34.3398L43.7795 35.309C43.7022 35.3344 43.6189 35.2925 43.5934 35.2154C43.5679 35.1383 43.6099 35.0552 43.6872 35.0298L46.6372 34.0607Z" fill="#231815"/>
<path d="M67.0957 24.6533L65.5696 26.888L63.6966 24.7065L62.8643 23.7374L63.1635 23.2997L64.3726 23.7158L67.0957 24.6533Z" fill="white"/>
<path d="M62.9906 23.1599C63.049 23.0881 63.1469 23.0595 63.2358 23.0901L64.4448 23.5063L67.1679 24.4437C67.2334 24.4663 67.2846 24.518 67.3064 24.5835C67.3282 24.6491 67.3182 24.721 67.2792 24.7781L65.7531 27.0128C65.7141 27.0699 65.6506 27.1056 65.5815 27.1094C65.5123 27.1132 65.4454 27.0846 65.4003 27.0322L62.6951 23.8816C62.6297 23.8055 62.6237 23.6952 62.6802 23.6125L62.9795 23.1748L62.9906 23.1599ZM63.1435 23.722L65.5491 26.5236L66.7478 24.7682L63.2512 23.5645L63.1435 23.722Z" fill="#231815"/>
<path d="M67.0964 24.6539L65.5703 26.8893L77.9617 35.2976L79.4878 33.0622L67.0964 24.6539Z" fill="#687AB5"/>
<path d="M66.913 24.5291C66.9821 24.4279 67.1204 24.4017 67.2219 24.4706L79.6133 32.8789C79.7148 32.9477 79.7411 33.0857 79.672 33.1869L78.1459 35.4223C78.0768 35.5235 77.9384 35.5498 77.8369 35.4809L65.4456 27.0726C65.344 27.0037 65.3177 26.8658 65.3868 26.7646L66.913 24.5291ZM77.9033 34.9896L79.1792 33.1207L67.1555 24.9619L65.8796 26.8308L77.9033 34.9896Z" fill="#231815"/>
<path d="M64.3726 23.7158L63.6966 24.7065L62.8643 23.7374L63.1635 23.2997L64.3726 23.7158Z" fill="#231815"/>
<path d="M62.9959 23.1643C63.0525 23.0948 63.1473 23.0672 63.2334 23.0968L64.4424 23.5129C64.5058 23.5347 64.5554 23.5848 64.5765 23.6483C64.5977 23.7117 64.5879 23.7814 64.5502 23.8367L63.8742 24.8274C63.8365 24.8827 63.775 24.9173 63.708 24.921C63.641 24.9247 63.5762 24.897 63.5325 24.8463L62.7002 23.8771C62.6369 23.8035 62.6311 23.6967 62.6859 23.6165L62.9851 23.1788L62.9959 23.1643ZM63.1346 23.7226L63.6765 24.3536L64.0356 23.8272L63.2483 23.5562L63.1346 23.7226Z" fill="#231815"/>
<path d="M79.488 33.0625L77.9619 35.2979L78.7566 35.8371L80.2827 33.6017L79.488 33.0625Z" fill="#F3B411"/>
<path d="M79.3036 32.9377C79.3727 32.8365 79.511 32.8103 79.6125 32.8792L80.4072 33.4184C80.5087 33.4873 80.535 33.6252 80.4659 33.7264L78.9398 35.9619C78.8707 36.0631 78.7324 36.0893 78.6309 36.0204L77.8362 35.4812C77.7346 35.4123 77.7084 35.2744 77.7775 35.1732L79.3036 32.9377ZM78.6973 35.5291L79.9731 33.6602L79.5461 33.3705L78.2702 35.2394L78.6973 35.5291Z" fill="#231815"/>
<path d="M78.7559 35.8367L80.282 33.6012L81.4711 34.4081C81.7054 34.5671 81.7666 34.886 81.6068 35.1201L80.6591 36.5083C80.4997 36.7418 80.1798 36.8029 79.945 36.6436L78.7559 35.8367Z" fill="#00996A"/>
<path d="M80.3411 33.9092L79.0652 35.7781L80.0705 36.4603C80.2036 36.5506 80.3852 36.516 80.4757 36.3835L81.4233 34.9954C81.5139 34.8627 81.4792 34.6815 81.3463 34.5914L80.3411 33.9092ZM81.5966 34.2248C81.9322 34.4526 82.02 34.9094 81.791 35.2449L80.8433 36.633C80.6149 36.9676 80.1567 37.0551 79.8202 36.8268L78.6311 36.0199C78.5296 35.9511 78.5033 35.8131 78.5724 35.7119L80.0985 33.4765C80.1676 33.3753 80.3059 33.349 80.4075 33.4179L81.5966 34.2248Z" fill="#231815"/>
<path d="M76.5558 28.8846C74.9039 31.4182 70.0975 27.9807 69.694 26.4142C69.4342 25.4039 69.7182 24.8674 70.006 24.5804" fill="#E24D4D"/>
<path d="M69.8265 24.4013C69.9258 24.3024 70.0867 24.3024 70.186 24.4013C70.2852 24.5002 70.2852 24.6606 70.186 24.7596C70.07 24.8752 69.9532 25.0418 69.8914 25.2877C69.8292 25.5351 69.8188 25.8781 69.9404 26.3512L69.9489 26.3815C70.0434 26.6991 70.3692 27.1524 70.879 27.6333C71.3951 28.1201 72.0654 28.6032 72.7721 28.961C73.4819 29.3204 74.208 29.5431 74.8402 29.5344C75.46 29.5258 75.9839 29.2971 76.343 28.7465C76.4194 28.6292 76.5769 28.5959 76.6946 28.6721C76.8122 28.7484 76.8456 28.9053 76.7691 29.0226C76.3022 29.7388 75.6059 30.0306 74.8473 30.0411C74.1011 30.0515 73.2906 29.7919 72.5419 29.4128C71.7901 29.0322 71.0799 28.5204 70.5297 28.0014C69.9896 27.4919 69.5678 26.9417 69.4481 26.4772V26.4771C69.3099 25.9399 69.3116 25.5096 69.3983 25.1644C69.4855 24.8178 69.6547 24.5726 69.8265 24.4013Z" fill="#231815"/>
<path d="M49.6955 25.588L35.7666 30.1645L42.0139 49.0636L55.9428 44.4872L49.6955 25.588Z" fill="white"/>
<path d="M49.853 25.2765L56.2552 44.6443L41.8563 49.3751L35.4541 30.0074L49.853 25.2765ZM42.1714 48.7521L55.6302 44.3301L49.5378 25.8995L36.079 30.3215L42.1714 48.7521Z" fill="#231815"/>
<path d="M48.7449 31.8703L48.2803 32.0229L47.81 30.6002L47.2052 30.7989L47.0545 30.343L47.6593 30.1443L47.3469 29.1995L47.8116 29.0468L48.7449 31.8703ZM46.4383 29.5795C46.5614 29.9521 46.6507 30.3045 46.706 30.6368L47.9389 31.6827L47.6244 32.0795L46.7492 31.2992C46.7464 31.637 46.6902 31.9164 46.5806 32.1371C46.4726 32.3547 46.3166 32.501 46.1125 32.5762L45.9448 32.0689C46.0834 32.0016 46.1751 31.8587 46.2201 31.6402C46.2667 31.4183 46.268 31.1421 46.2241 30.8115C46.1794 30.4783 46.0918 30.1145 45.9614 29.7199L46.4383 29.5795Z" fill="black"/>
<path d="M43.9706 31.4378C43.8886 31.7174 43.7572 31.9589 43.5765 32.1623C43.3957 32.3657 43.1799 32.5086 42.9292 32.591L42.776 32.1278C42.958 32.068 43.1143 31.9555 43.245 31.7903C43.3757 31.6251 43.4664 31.4254 43.5172 31.1914C43.5679 30.9574 43.5695 30.7109 43.5221 30.4521L44.0234 30.373C44.0603 30.5836 44.0698 30.7857 44.052 30.979L45.4456 31.3363L45.3322 31.8096L43.9706 31.4378ZM45.7593 32.2236L45.91 32.6795L43.1959 33.5712L43.0452 33.1153L44.1663 32.747L43.9427 32.0705L44.4147 31.9154L44.6383 32.5919L45.7593 32.2236Z" fill="black"/>
<path d="M42.3867 32.5327L42.812 33.8195L42.3474 33.9721L41.414 31.1486L41.8787 30.996L42.2311 32.0621L42.5667 31.9519L42.7222 32.4225L42.3867 32.5327ZM40.7434 31.9518C40.8308 32.241 40.8917 32.5036 40.9261 32.7395L42.0823 33.5661L41.8084 33.974L40.9498 33.3431C40.9308 33.6401 40.8653 33.8871 40.7533 34.0842C40.6405 34.2789 40.4861 34.4138 40.2902 34.4891L40.1274 33.9964C40.2561 33.9324 40.3486 33.8123 40.4049 33.6363C40.4603 33.4577 40.4762 33.2379 40.4526 32.9766C40.4305 32.7122 40.3701 32.4222 40.2714 32.1069L39.6481 32.3117L39.4999 31.8631L41.1925 31.307L41.3408 31.7555L40.7434 31.9518Z" fill="black"/>
<path d="M50.5447 32.7251L39.3916 36.3895L39.6807 37.2642L50.8339 33.5998L50.5447 32.7251Z" fill="#528BDD"/>
<path d="M52.3748 38.2592L52.3297 38.2738L41.2092 41.9014L39.8857 37.8691L39.9309 37.8545L51.0514 34.2269L52.3748 38.2592ZM41.2695 41.7811L52.2541 38.1978L50.9904 34.346L40.0058 37.9292L41.2702 41.7811H41.2695Z" fill="#E8E8E8"/>
<path d="M41.9265 37.2525L41.8359 37.282L43.1284 41.2245L43.219 41.1949L41.9265 37.2525Z" fill="#E8E8E8"/>
<path d="M51.3299 35.2223L40.2549 38.8355L40.2845 38.9258L51.3596 35.3126L51.3299 35.2223Z" fill="#E8E8E8"/>
<path d="M51.6551 36.2109L40.5801 39.8241L40.6097 39.9144L51.6848 36.3012L51.6551 36.2109Z" fill="#E8E8E8"/>
<path d="M51.9784 37.2003L40.9033 40.8135L40.933 40.9038L52.008 37.2906L51.9784 37.2003Z" fill="#E8E8E8"/>
<path d="M53.9031 42.882L53.858 42.8966L42.7375 46.5242L41.4141 42.4918L41.4592 42.4772L52.5797 38.8496L53.9031 42.882ZM42.7979 46.4038L53.7824 42.8205L52.5187 38.9687L41.5341 42.552L42.7985 46.4038H42.7979Z" fill="#E8E8E8"/>
<path d="M43.4548 41.875L43.3643 41.9045L44.6568 45.847L44.7473 45.8174L43.4548 41.875Z" fill="#E8E8E8"/>
<path d="M52.8582 39.8446L41.7832 43.4578L41.8128 43.5481L52.8879 39.9349L52.8582 39.8446Z" fill="#E8E8E8"/>
<path d="M53.1834 40.8332L42.1084 44.4464L42.138 44.5367L53.2131 40.9235L53.1834 40.8332Z" fill="#E8E8E8"/>
<path d="M53.5067 41.8219L42.4316 45.4351L42.4613 45.5254L53.5363 41.9122L53.5067 41.8219Z" fill="#E8E8E8"/>
<path d="M40.8319 40.8664C40.3433 40.8354 40.0675 40.8677 39.5205 41.1711C39.3185 40.9234 38.9373 39.9733 38.8737 39.7833C38.1748 40.2267 37.5814 41.0419 37.1951 42.4481C36.9937 43.1809 37.0115 44.1444 37.1303 44.5187C37.2485 44.8925 37.4721 46.0846 40.3064 48.2376C41.4793 49.1282 45.4903 46.9029 44.3739 44.1678C43.5785 42.2188 42.2328 40.9564 40.8319 40.8671V40.8664Z" fill="#E24D4D"/>
<path d="M38.7143 39.4984C38.7962 39.4528 38.8942 39.4443 38.9833 39.4758C39.0782 39.5094 39.1523 39.5848 39.1842 39.6801C39.2114 39.7614 39.3181 40.0362 39.4449 40.3246C39.5077 40.4674 39.5734 40.6089 39.6344 40.7278C39.6369 40.7328 39.6395 40.7376 39.642 40.7424C39.8133 40.6631 39.9706 40.6081 40.13 40.5743C40.3723 40.5228 40.5987 40.5247 40.8527 40.5408C40.86 40.5413 40.8672 40.5421 40.8743 40.543C42.4509 40.6553 43.8654 42.0562 44.6771 44.0449C45.3143 45.6062 44.4659 46.9889 43.4002 47.8193C42.8623 48.2384 42.244 48.541 41.6706 48.6791C41.1148 48.813 40.52 48.8098 40.1082 48.4971L40.1081 48.497C38.6723 47.4063 37.8805 46.5462 37.4306 45.8962C36.9745 45.2374 36.877 44.8024 36.8183 44.6168L36.8183 44.6168C36.743 44.3791 36.7095 44.003 36.7155 43.6128C36.7217 43.2146 36.7697 42.7618 36.8796 42.3619C37.2796 40.9059 37.9093 40.0085 38.6981 39.5081L38.7143 39.4984ZM38.7251 40.3035C38.2543 40.722 37.8324 41.3966 37.5283 42.4711L37.5107 42.5343C37.4192 42.8672 37.3754 43.2626 37.3698 43.6229C37.3645 43.9681 37.3947 44.2468 37.4343 44.3929L37.4423 44.4203L37.4424 44.4207C37.5019 44.6088 37.5753 44.9567 37.9692 45.5256C38.3692 46.1034 39.1063 46.9158 40.5047 47.9781L40.5216 47.9902C40.7012 48.1138 41.0411 48.1596 41.517 48.0449C41.9906 47.9308 42.5252 47.673 42.9972 47.3053C43.9511 46.562 44.55 45.4646 44.0709 44.2908C43.2953 42.3905 42.0276 41.2701 40.811 41.1926C40.805 41.1922 40.799 41.1916 40.7931 41.1909C40.5684 41.1773 40.4168 41.1804 40.2663 41.2124C40.1117 41.2452 39.9378 41.3129 39.6796 41.4561C39.5409 41.5331 39.3668 41.4997 39.2667 41.3769C39.1926 41.2861 39.1177 41.1532 39.0519 41.0251C38.9827 40.8903 38.9112 40.736 38.8455 40.5865C38.8031 40.49 38.7623 40.3935 38.7251 40.3035Z" fill="#231815"/>
</g>
<defs>
<clipPath id="clip0_104_1484">
<rect width="47" height="65" fill="white" transform="translate(35.3145)"/>
</clipPath>
</defs>
</svg>
