<svg width="90" height="63" viewBox="0 0 90 63" fill="none" xmlns="http://www.w3.org/2000/svg">
<g clip-path="url(#clip0_96_862)">
<path d="M29.3252 19.806C27.983 17.565 31.1508 15.4611 32.5855 14.6252C34.8682 13.2963 36.7176 13.1362 39.2408 13.337C42.4694 13.5936 44.377 9.04034 47.7984 8.99969C49.5237 8.97936 51.4603 9.34779 52.821 10.603C54.0707 11.7565 54.4168 13.6698 55.7141 14.7827C57.3865 16.2158 61.1012 16.5308 62.9031 17.6386C64.2373 18.4619 64.3483 20.1261 62.7393 20.8909C60.5094 21.9505 47.4788 21.7523 44.303 21.793C30.3133 21.9759 29.3674 19.8771 29.3252 19.806Z" fill="#E9EEFF"/>
</g>
<g clip-path="url(#clip1_96_862)">
<path d="M0.249519 8.51371C-0.779474 6.74803 1.64919 5.09046 2.74908 4.43184C4.49918 3.38485 5.91709 3.25873 7.85151 3.41688C10.3268 3.61907 11.7892 0.031675 14.4124 -0.000355358C15.7351 -0.0163705 17.2198 0.273904 18.263 1.26284C19.2211 2.1717 19.4864 3.67913 20.481 4.55596C21.7632 5.68503 24.6112 5.93326 25.9926 6.80609C27.0155 7.4547 27.1006 8.76594 25.867 9.36852C24.1574 10.2033 14.1673 10.0472 11.7325 10.0792C1.00709 10.2233 0.281929 8.56976 0.249519 8.51371Z" fill="#E9EEFF"/>
</g>
<path d="M21.7618 18.2189H5.97266V28.0497H21.7618V18.2189Z" fill="#C3D2FF"/>
<path d="M24.5625 22.6168V28.6529L34.2402 32.8931V62.9752H4.18945V22.6168H24.5625Z" fill="url(#paint0_linear_96_862)"/>
<path d="M21.0804 39.9503H7.83789V41.2438H21.0804V39.9503Z" fill="#F6F8FE"/>
<g clip-path="url(#clip2_96_862)">
<path d="M54.1194 26H32V62.8657H54.1194V26Z" fill="url(#paint1_linear_96_862)"/>
<path d="M48.4117 38.0159H37.709V40.4347H48.4117V38.0159Z" fill="#F6F8FE"/>
<path d="M48.4117 31.425H37.709V36.383H48.4117V31.425Z" fill="#F6F8FE"/>
</g>
<path d="M78.1447 36.9634C77.3204 37.6424 76.6433 38.6593 76.149 40.1798C76.0476 40.4914 75.9348 40.8355 75.8135 41.2023C77.8701 41.3059 80.5031 42.4449 82.0431 46.9917C82.2664 45.8626 82.7088 45.1689 83.2724 44.7334C82.5048 39.8995 80.0758 37.8405 78.1453 36.9634H78.1447Z" fill="#79371E"/>
<path d="M78.1452 36.9585L78.1472 36.9589C80.0792 37.8367 82.5092 39.8971 83.2771 44.7326C83.2774 44.7344 83.2767 44.7362 83.2753 44.7373C82.7128 45.1719 82.271 45.8645 82.0478 46.9927C82.0474 46.9949 82.0456 46.9965 82.0434 46.9967C82.0413 46.9968 82.0392 46.9955 82.0385 46.9934C81.2687 44.7207 80.226 43.3001 79.119 42.4347C78.0121 41.5694 76.8407 41.259 75.8132 41.2072C75.8117 41.2071 75.8103 41.2064 75.8094 41.2051C75.8086 41.2038 75.8084 41.2022 75.8088 41.2008C75.9301 40.834 76.043 40.4899 76.1444 40.1783C76.6389 38.6571 77.3164 37.6393 78.1416 36.9596L78.1431 36.9588C78.1436 36.9586 78.1441 36.9585 78.1446 36.9585H78.1452ZM78.1456 36.969C77.3231 37.6472 76.6471 38.6628 76.1535 40.1814C76.0527 40.4912 75.9406 40.8333 75.82 41.1978C76.8476 41.2506 78.0185 41.562 79.1249 42.4269C80.2309 43.2916 81.2722 44.7091 82.0419 46.9734C82.2661 45.8551 82.7064 45.1655 83.2672 44.7313C82.4996 39.9031 80.0739 37.8458 78.1456 36.969Z" fill="#231815"/>
<path d="M74.3834 45.4529C73.8639 46.9814 73.3726 48.4148 73.0576 49.3312C75.1674 49.6961 78.1093 51.0198 79.7815 55.3267C80.5208 54.5827 81.0724 53.5063 81.4308 52.0097C79.8932 47.4807 76.7678 45.9418 74.3828 45.4529H74.3834Z" fill="#79371E"/>
<path d="M74.3834 45.4479C74.3839 45.4479 74.3844 45.4481 74.3848 45.4483C76.7709 45.9377 79.8972 47.4777 81.4353 52.008C81.4356 52.0089 81.4357 52.0099 81.4355 52.0108C81.0769 53.5079 80.525 54.5853 79.7849 55.3301C79.7837 55.3313 79.782 55.3318 79.7805 55.3315C79.7789 55.3311 79.7776 55.33 79.777 55.3285C78.1055 51.0234 75.1651 49.7006 73.0567 49.3359C73.0553 49.3357 73.0541 49.3348 73.0534 49.3336C73.0527 49.3323 73.0526 49.3308 73.053 49.3294C73.3679 48.4135 73.8587 46.9811 74.378 45.4534C74.378 45.4531 74.3779 45.4527 74.3779 45.4524C74.3782 45.4499 74.3803 45.4479 74.3828 45.4479H74.3834ZM74.3865 45.4586C73.8685 46.9825 73.3787 48.4115 73.0639 49.3272C75.1735 49.6936 78.1112 51.0184 79.7832 55.3179C80.5188 54.5751 81.0682 53.5016 81.4257 52.0097C79.8895 47.4868 76.7693 45.9482 74.3865 45.4586Z" fill="#231815"/>
<path d="M75.813 41.2022C75.3948 42.4651 74.8765 44.0016 74.3828 45.4528C76.7677 45.9416 79.8931 47.4799 81.4308 52.0095C81.6764 50.9828 81.8321 49.7585 81.8943 48.3079C81.9154 47.8136 81.9667 47.3775 82.0427 46.9917C80.5026 42.4449 77.8703 41.3059 75.813 41.2022Z" fill="#EC7032"/>
<path d="M85.8551 36.2059C84.8189 35.8103 83.7242 35.6238 82.79 35.6441C82.4412 35.6514 82.1008 35.6674 81.7695 35.695C83.6222 37.3461 85.6686 40.0676 85.5654 43.9857C86.2352 43.9158 86.9117 43.8925 87.5158 43.7704C87.6057 40.3264 86.75 37.8423 85.8551 36.2059Z" fill="#79371E"/>
<path d="M82.7908 35.6392C83.6965 35.6196 84.7527 35.7941 85.7603 36.1648L85.8577 36.2013L85.8591 36.2022C85.8595 36.2026 85.8599 36.203 85.8602 36.2035C86.7555 37.8407 87.6115 40.3256 87.5216 43.7706C87.5215 43.7729 87.5199 43.7748 87.5177 43.7752C86.9133 43.8974 86.2362 43.9207 85.5668 43.9906C85.5654 43.9907 85.5641 43.9903 85.563 43.9893C85.562 43.9884 85.5615 43.987 85.5615 43.9856C85.6646 40.0695 83.6193 37.3493 81.7673 35.6987C81.7658 35.6974 81.7653 35.6953 81.7659 35.6935C81.7665 35.6916 81.7681 35.6903 81.77 35.6901C82.1015 35.6625 82.4419 35.6465 82.7908 35.6392ZM85.8526 36.2098C84.8175 35.8149 83.7241 35.6288 82.7911 35.649C82.4463 35.6563 82.1098 35.6719 81.7821 35.699C83.6323 37.3506 85.6723 40.0691 85.5713 43.9802C86.2384 43.9108 86.9108 43.8873 87.512 43.7663C87.6011 40.3264 86.7465 37.8449 85.8526 36.2098Z" fill="#231815"/>
<path d="M73.0569 49.3311C72.8505 49.9321 72.7195 50.3112 72.7062 50.3492C72.7062 50.3492 69.9085 56.2436 74.4774 56.6729C76.7598 56.8876 78.5364 56.5779 79.7808 55.326C78.1079 51.019 75.166 49.6954 73.0569 49.3304V49.3311Z" fill="#EC7032"/>
<path d="M81.7696 35.6949C80.3846 35.809 79.1541 36.1323 78.1445 36.9634C80.075 37.8405 82.504 39.9001 83.2716 44.7334C83.924 44.2292 84.7393 44.0715 85.5655 43.9851C85.6686 40.0669 83.6223 37.3455 81.7696 35.6943V35.6949Z" fill="#EC7032"/>
<path d="M85.8555 36.2059C86.7504 37.8423 87.6061 40.3258 87.5162 43.7704C88.4745 43.5766 89.2494 43.1343 89.5204 41.8598C90.1365 38.958 88.1378 37.0768 85.8555 36.2065V36.2059Z" fill="#EC7032"/>
<path d="M82.7836 35.3936C84.3376 35.3595 86.3086 35.8744 87.7866 36.9509C89.2781 38.0373 90.2898 39.7196 89.8111 41.9751V41.9752C89.6898 42.5464 89.47 42.984 89.1648 43.3146C88.8603 43.6445 88.4872 43.8501 88.0868 43.9843C87.6893 44.1175 87.2565 44.1831 86.8246 44.2282C86.608 44.2507 86.3871 44.2685 86.1693 44.2865C85.9501 44.3046 85.7332 44.3229 85.5182 44.3466C84.6511 44.4424 83.8744 44.6231 83.2893 45.1636C82.711 45.6977 82.2663 46.6357 82.1914 48.3734C82.037 51.9555 81.3209 54.2533 79.9934 55.5911C78.6542 56.9407 76.7641 57.2446 74.4497 57.0271C73.2368 56.9131 72.4611 56.4272 72.0212 55.7179C71.5914 55.0249 71.5151 54.1706 71.5817 53.3771C71.6487 52.5788 71.8639 51.8022 72.0589 51.2305C72.1569 50.9434 72.2508 50.7051 72.3205 50.538C72.3553 50.4544 72.3842 50.3884 72.4046 50.343C72.4147 50.3202 72.4228 50.3026 72.4284 50.2904C72.4299 50.2872 72.4312 50.2844 72.4323 50.282C72.5831 49.8446 74.8319 43.3196 75.866 40.137C76.5059 38.168 77.4585 36.9811 78.6679 36.289C79.865 35.6039 81.2758 35.4266 82.7836 35.3936ZM87.4396 37.443C86.0768 36.4503 84.2351 35.9673 82.7965 35.9988C81.3123 36.0314 80.0246 36.2074 78.9602 36.8165C77.9245 37.4091 77.0634 38.434 76.4601 40.2403L76.4316 40.3269C75.3726 43.5858 73.0452 50.3352 72.9877 50.5021C72.9822 50.5178 72.9755 50.5328 72.9679 50.5471C72.9678 50.5472 72.9678 50.5473 72.9677 50.5475C72.9631 50.5576 72.9559 50.5731 72.9468 50.5936C72.9284 50.6347 72.9016 50.6958 72.8689 50.7742C72.8035 50.9311 72.7146 51.1567 72.6217 51.4289C72.435 51.9758 72.2364 52.6996 72.1752 53.4285C72.1136 54.1623 72.1945 54.8621 72.5251 55.3951C72.8455 55.9117 73.4334 56.3236 74.5046 56.4243C76.7591 56.6362 78.4238 56.3202 79.574 55.1612C80.7358 53.9904 81.4436 51.8907 81.5964 48.3469C81.675 46.5216 82.1483 45.3994 82.8887 44.7155C83.6222 44.038 84.5649 43.843 85.4539 43.7448C85.6779 43.72 85.9023 43.7012 86.1211 43.6831C86.3412 43.665 86.5549 43.6477 86.7638 43.6259C87.1829 43.5822 87.5647 43.5218 87.9002 43.4094C88.2328 43.298 88.5109 43.1382 88.7304 42.9005C88.9492 42.6634 89.1261 42.331 89.2288 41.8474C89.6456 39.8838 88.7887 38.4257 87.4396 37.443Z" fill="#231815"/>
<path d="M63.4176 31.9512C63.4176 31.9512 55.0089 35.0026 52.7622 37.0574C49.1297 40.3795 49.7351 43.148 52.0357 45.1166C53.3858 46.272 54.639 47.0853 54.639 47.0853C54.639 47.0853 58.7559 45.1166 57.6661 44.0708C55.0628 42.6558 57.3634 42.2867 58.8164 41.9175" fill="white"/>
<path d="M54.7752 47.3784C54.6761 47.4258 54.5601 47.4182 54.4678 47.3583L54.6394 47.0854L54.7752 47.3784ZM63.418 31.9512C63.5252 32.2563 63.5252 32.2563 63.5251 32.2563C63.5251 32.2563 63.525 32.2563 63.5249 32.2564C63.5247 32.2565 63.5243 32.2566 63.5238 32.2568C63.5229 32.2571 63.5214 32.2576 63.5194 32.2584C63.5154 32.2598 63.5095 32.262 63.5016 32.2648C63.4858 32.2706 63.4623 32.2792 63.4315 32.2906C63.3698 32.3132 63.2788 32.3469 63.1622 32.3904C62.9288 32.4775 62.5928 32.6043 62.1823 32.7629C61.3613 33.0802 60.2436 33.5244 59.0566 34.0323C57.8688 34.5406 56.6151 35.1111 55.5207 35.681C54.419 36.2547 53.5045 36.8148 52.9759 37.2982C51.1931 38.9286 50.5069 40.3721 50.4932 41.5983C50.4795 42.8201 51.133 43.9204 52.2415 44.8689C52.908 45.4393 53.5514 45.9259 54.0286 46.2701C54.267 46.4421 54.4634 46.5782 54.5999 46.6711C54.6224 46.6865 54.6434 46.7005 54.6626 46.7135C54.6657 46.7119 54.6689 46.7104 54.6721 46.7088C54.7802 46.6541 54.9339 46.5746 55.1151 46.4759C55.4786 46.2779 55.948 46.0054 56.3812 45.7032C56.8219 45.3959 57.1951 45.0781 57.3937 44.795C57.4925 44.6542 57.5274 44.5508 57.5311 44.483C57.5334 44.439 57.5247 44.3916 57.4731 44.3328C57.1582 44.1595 56.9062 43.9968 56.7122 43.8421C56.5121 43.6825 56.3565 43.5183 56.2634 43.3438C56.1651 43.1596 56.1343 42.9574 56.2022 42.7588C56.2655 42.5737 56.3991 42.438 56.5344 42.3391C56.8002 42.1448 57.192 42.0077 57.5716 41.899C57.9559 41.789 58.3905 41.692 58.7395 41.6034C58.9103 41.56 59.0833 41.6655 59.126 41.839C59.1687 42.0126 59.0649 42.1884 58.8941 42.2318C58.5166 42.3277 58.1187 42.4154 57.7444 42.5225C57.3653 42.6311 57.0723 42.7439 56.9067 42.865C56.8263 42.9237 56.8076 42.962 56.8044 42.9713C56.8035 42.974 56.8031 42.9759 56.8037 42.9809C56.8044 42.9872 56.8078 43.0047 56.8239 43.035C56.8585 43.0997 56.939 43.1995 57.1057 43.3324C57.2593 43.4549 57.4725 43.5949 57.7586 43.7533L57.8169 43.7852L57.8352 43.796C57.8532 43.8074 57.87 43.8205 57.8854 43.8353C58.0835 44.0255 58.1814 44.2609 58.1676 44.5183C58.1547 44.7583 58.0467 44.9803 57.9128 45.1711C57.646 45.5513 57.1943 45.9218 56.742 46.2373C56.2822 46.558 55.7905 46.8431 55.4162 47.0469C55.2285 47.1491 55.0691 47.2316 54.9563 47.2887C54.8998 47.3172 54.855 47.3394 54.8241 47.3546C54.8086 47.3622 54.7966 47.3681 54.7883 47.372C54.7842 47.374 54.781 47.3756 54.7788 47.3767C54.7777 47.3772 54.7768 47.3776 54.7762 47.3779L54.7753 47.3784L54.6394 47.0854L54.4678 47.3583L54.4677 47.3582C54.4677 47.3582 54.4675 47.3582 54.4674 47.3581C54.4672 47.358 54.467 47.3577 54.4666 47.3575C54.4659 47.357 54.4648 47.3564 54.4635 47.3555C54.4609 47.3538 54.4571 47.3513 54.4521 47.3481C54.4422 47.3415 54.4275 47.3319 54.4086 47.3194C54.3707 47.2942 54.3155 47.2572 54.2451 47.2094C54.1044 47.1136 53.9032 46.9742 53.6595 46.7984C53.1725 46.4471 52.5143 45.9494 51.8308 45.3645C50.6387 44.3444 49.8391 43.0761 49.8557 41.591C49.8723 40.1102 50.6996 38.5084 52.5494 36.8167C53.1441 36.2728 54.1232 35.6808 55.23 35.1045C56.3441 34.5243 57.6139 33.9468 58.8091 33.4353C60.005 32.9236 61.13 32.4764 61.9557 32.1574C62.3687 31.9978 62.7071 31.8701 62.9424 31.7823C63.0601 31.7384 63.152 31.7044 63.2146 31.6814C63.2458 31.6699 63.2698 31.6611 63.286 31.6552C63.2941 31.6523 63.3002 31.65 63.3044 31.6485C63.3064 31.6477 63.308 31.6472 63.3091 31.6468C63.3096 31.6466 63.3101 31.6464 63.3103 31.6463C63.3105 31.6463 63.3106 31.6462 63.3106 31.6462C63.3107 31.6462 63.3108 31.6462 63.418 31.9512ZM63.3108 31.6462C63.4766 31.5861 63.659 31.6738 63.7182 31.8423C63.7774 32.0108 63.691 32.1961 63.5252 32.2563L63.3108 31.6462Z" fill="#231815"/>
<path d="M55.8652 41.7945C55.8652 41.7945 56.157 43.1713 58.1658 44.3784L55.8652 41.7945Z" fill="#EC7032"/>
<path d="M55.7986 41.4778C55.9703 41.4403 56.1395 41.5509 56.1771 41.7251C56.177 41.7247 56.1769 41.7244 56.1769 41.7242L56.1782 41.7296C56.1797 41.7357 56.1827 41.7467 56.1873 41.7623C56.1966 41.7935 56.2127 41.8428 56.2383 41.9073C56.2895 42.0363 56.3789 42.2265 56.5281 42.4544C56.8257 42.909 57.3656 43.521 58.3285 44.0996C58.4801 44.1906 58.5303 44.3893 58.4407 44.5433C58.3511 44.6972 58.1556 44.7483 58.0041 44.6572C56.9583 44.0288 56.3479 43.3488 55.9973 42.8132C55.8225 42.5461 55.7133 42.3166 55.6471 42.1497C55.614 42.0663 55.5916 41.9986 55.5771 41.9498C55.5698 41.9253 55.5645 41.9056 55.5608 41.891C55.5589 41.8837 55.5575 41.8776 55.5564 41.8729C55.5558 41.8705 55.5553 41.8685 55.555 41.8668C55.5548 41.866 55.5546 41.8652 55.5545 41.8645C55.5544 41.8642 55.5543 41.8638 55.5543 41.8636C55.5542 41.8634 55.5542 41.8632 55.5542 41.8631C55.5542 41.8629 55.5541 41.8627 55.8657 41.7945L55.5541 41.8627C55.517 41.6878 55.6265 41.5155 55.7986 41.4778Z" fill="#231815"/>
<path d="M80.1424 41.7945C80.1424 41.7945 79.8506 43.1713 77.8418 44.3784L80.1424 41.7945Z" fill="#EC7032"/>
<path d="M79.8315 41.7251C79.8691 41.5509 80.0383 41.4403 80.2099 41.4778C80.382 41.5155 80.4915 41.6878 80.4545 41.8627L80.1428 41.7945C80.4544 41.8627 80.4544 41.8629 80.4544 41.8631C80.4543 41.8632 80.4543 41.8634 80.4543 41.8636C80.4542 41.8638 80.4541 41.8642 80.4541 41.8645C80.4539 41.8652 80.4538 41.866 80.4536 41.8668C80.4532 41.8685 80.4527 41.8705 80.4522 41.8729C80.4511 41.8776 80.4496 41.8837 80.4478 41.891C80.4441 41.9056 80.4387 41.9253 80.4315 41.9498C80.4169 41.9986 80.3946 42.0663 80.3615 42.1497C80.2952 42.3166 80.1861 42.5461 80.0112 42.8132C79.6607 43.3488 79.0503 44.0288 78.0045 44.6572C77.8529 44.7483 77.6575 44.6972 77.5679 44.5433C77.4783 44.3893 77.5285 44.1906 77.68 44.0996C78.6429 43.521 79.1829 42.909 79.4804 42.4544C79.6296 42.2265 79.719 42.0363 79.7702 41.9073C79.7959 41.8428 79.812 41.7935 79.8213 41.7623C79.8259 41.7467 79.8288 41.7357 79.8304 41.7296L79.8317 41.7242C79.8316 41.7244 79.8316 41.7247 79.8315 41.7251Z" fill="#231815"/>
<path d="M77.8206 59.5396L77.7092 59.5599C78.6537 57.9905 78.7076 50.3896 78.6597 48.9617C78.4781 43.5479 77.9938 28.5983 66.1778 30.116C66.1778 30.116 62.3455 29.6743 59.7918 35.7882C58.5943 38.6545 57.6777 42.9622 57.5694 49.4317C57.4785 54.8136 58.0373 57.9111 58.9152 59.5402C59.0672 59.822 57.0469 60.4667 57.0469 61.5741C57.0469 63.1004 62.7081 62.7688 63.8881 62.0662C64.4935 61.7586 66.3758 56.9994 66.5616 56.6204C67.0302 55.6675 68.8628 54.0655 70.3546 56.5774C71.4001 58.3381 72.2429 61.7586 72.8483 62.0662C74.0283 62.7688 79.6895 63.1004 79.6895 61.5741C79.6895 60.4667 77.6693 59.822 77.8212 59.5402L77.8206 59.5396Z" fill="white"/>
<path d="M57.5587 49.6697C57.5484 54.4535 58.0909 58.0113 58.9142 59.5395C59.0662 59.8212 57.0459 60.466 57.0459 61.5733C57.0459 63.0997 62.7072 62.7681 63.8871 62.0655C64.4926 61.7579 66.3748 56.9987 66.5607 56.6197C67.0293 55.6667 68.8619 54.0647 70.3536 56.5766C71.3992 58.3373 72.2419 61.7579 72.8473 62.0655C74.0273 62.7681 79.6886 63.0997 79.6886 61.5733C79.6886 60.466 77.6683 59.8212 77.8202 59.5395L77.7089 59.5598C78.4662 58.301 78.6509 52.4234 78.6697 49.7017C78.6697 49.7017 74.1817 50.3772 67.8781 50.3772C62.0727 50.3772 57.5587 49.6697 57.5587 49.6697Z" fill="#535354"/>
<path d="M67.9947 55.0216C68.4052 54.9016 68.861 54.9074 69.3194 55.1292C69.773 55.3486 70.2044 55.7674 70.5965 56.4276C71.1357 57.3357 71.6179 58.6611 72.0307 59.7634C72.24 60.3222 72.431 60.8233 72.6062 61.2033C72.6939 61.3934 72.7736 61.5444 72.8452 61.6534C72.8808 61.7077 72.9114 61.7468 72.9365 61.7737C72.9495 61.7876 72.9593 61.7962 72.9656 61.8013L72.9741 61.8075L72.9907 61.8166C73.2341 61.9616 73.7603 62.1085 74.4559 62.2143C75.1374 62.3181 75.9404 62.3766 76.7066 62.3668C77.477 62.3569 78.1902 62.278 78.7015 62.1174C78.958 62.0368 79.143 61.9418 79.2589 61.8417C79.3686 61.7471 79.4044 61.6602 79.4044 61.5734C79.4044 61.3907 79.3218 61.2073 79.16 61.0164C78.9975 60.8248 78.7743 60.6485 78.5379 60.4857C78.4208 60.405 78.3042 60.3302 78.1931 60.2591C78.0841 60.1893 77.9768 60.121 77.887 60.0582C77.8014 59.9984 77.7096 59.9289 77.644 59.8535C77.6399 59.8488 77.6353 59.8432 77.6302 59.8369C77.568 59.8187 77.5123 59.7792 77.4743 59.7227C77.4112 59.6289 77.4081 59.5062 77.4664 59.4093C77.5404 59.2863 77.6178 59.0873 77.6928 58.81C77.7668 58.5367 77.8344 58.204 77.8955 57.8246C78.0176 57.066 78.1115 56.1377 78.1828 55.1581C78.3142 53.3532 78.3676 51.3914 78.3825 50.0326C78.2569 50.0493 78.0966 50.0702 77.9036 50.0938C77.3815 50.1574 76.6204 50.2422 75.6621 50.3269C73.7456 50.4964 71.0394 50.6658 67.8778 50.6658C64.9642 50.6658 62.3753 50.4883 60.5146 50.3108C59.5841 50.222 58.8354 50.1332 58.3187 50.0665C58.1273 50.0418 57.9678 50.0199 57.8427 50.0024C57.85 52.2448 57.9808 54.2007 58.2047 55.7845C58.4407 57.454 58.7765 58.6834 59.163 59.4008C59.2772 59.6126 59.1411 59.7949 59.09 59.8535C59.0244 59.9289 58.9327 59.9984 58.847 60.0582C58.7572 60.121 58.65 60.1893 58.541 60.2591C58.4299 60.3302 58.3132 60.405 58.1962 60.4857C57.9597 60.6485 57.7365 60.8248 57.5741 61.0164C57.4122 61.2073 57.3297 61.3907 57.3297 61.5734C57.3297 61.6602 57.3654 61.7471 57.4751 61.8417C57.591 61.9418 57.7761 62.0368 58.0326 62.1174C58.5438 62.278 59.2571 62.3569 60.0274 62.3668C60.7936 62.3766 61.5966 62.3181 62.2781 62.2143C62.9737 62.1085 63.4999 61.9616 63.7434 61.8166C63.7488 61.8134 63.7543 61.8103 63.7599 61.8075C63.7523 61.8114 63.7675 61.8046 63.806 61.7622C63.8412 61.7235 63.8843 61.6679 63.9349 61.594C64.0361 61.4463 64.1542 61.2442 64.2843 61.0006C64.544 60.5143 64.8385 59.8862 65.1224 59.2502C65.4058 58.6153 65.6765 57.9776 65.8884 57.4739C66.0964 56.9792 66.2549 56.5958 66.3064 56.491L66.3065 56.4908C66.5661 55.9627 67.1958 55.2552 67.9947 55.0216ZM78.069 59.6782C78.0718 59.673 78.0743 59.6678 78.0767 59.6627C78.0743 59.6679 78.0718 59.6731 78.069 59.6782ZM79.9723 61.5734C79.9723 61.8681 79.8312 62.1049 79.6266 62.2815C79.4284 62.4527 79.1619 62.5767 78.8692 62.6686C78.2821 62.8531 77.5063 62.9336 76.7138 62.9438C75.9172 62.954 75.0836 62.8934 74.3718 62.785C73.6765 62.6792 73.0546 62.5219 72.7074 62.3166C72.5682 62.2412 72.4586 62.1043 72.3728 61.9738C72.2784 61.83 72.1848 61.6495 72.092 61.4481C71.9062 61.0452 71.7077 60.5235 71.4999 59.9686C71.0786 58.8436 70.6166 57.5784 70.1103 56.7258C69.7565 56.1301 69.3995 55.8071 69.0753 55.6502C68.7558 55.4957 68.4444 55.4906 68.1518 55.5762C67.5443 55.7538 67.0234 56.3238 66.8145 56.7487C66.7727 56.8339 66.6264 57.1873 66.4105 57.7007C66.1982 58.2055 65.9257 58.8479 65.6396 59.4886C65.3541 60.1283 65.0529 60.7713 64.7835 61.2758C64.6491 61.5275 64.5195 61.7507 64.4011 61.9236C64.3419 62.01 64.2823 62.0886 64.2233 62.1536C64.1697 62.2127 64.1023 62.2764 64.0228 62.3189C63.6749 62.523 63.055 62.6796 62.3623 62.785C61.6504 62.8934 60.8169 62.954 60.0202 62.9438C59.2278 62.9336 58.452 62.8531 57.8648 62.6686C57.5722 62.5767 57.3057 62.4527 57.1074 62.2815C56.9029 62.1049 56.7617 61.8681 56.7617 61.5734C56.7617 61.2024 56.9317 60.89 57.1439 60.6397C57.3555 60.3902 57.6278 60.18 57.8775 60.0081C58.0034 59.9213 58.1275 59.8416 58.2383 59.7707C58.3512 59.6985 58.4471 59.6373 58.5254 59.5827C58.5513 59.5646 58.573 59.5485 58.5913 59.5346C58.189 58.7164 57.8675 57.4577 57.6426 55.8665C57.4029 54.1711 57.2694 52.0713 57.2746 49.6691L57.275 49.6534C57.2793 49.5751 57.3149 49.5018 57.3739 49.4505C57.4368 49.3958 57.52 49.3718 57.6017 49.3846H57.6019C57.602 49.3846 57.6021 49.3846 57.6024 49.3847C57.6029 49.3847 57.6036 49.3849 57.6046 49.385C57.6067 49.3853 57.6098 49.3858 57.614 49.3865C57.6225 49.3878 57.6352 49.3897 57.6521 49.3922C57.686 49.3973 57.7367 49.4049 57.8035 49.4145C57.937 49.4336 58.1347 49.4611 58.3903 49.4941C58.9014 49.56 59.644 49.6481 60.5677 49.7362C62.4154 49.9124 64.9861 50.0887 67.8778 50.0887C71.0199 50.0887 73.7095 49.9203 75.6129 49.752C76.5645 49.6679 77.3194 49.5838 77.8359 49.5208C78.0941 49.4893 78.2926 49.4631 78.4264 49.4448C78.4932 49.4357 78.5439 49.4285 78.5777 49.4237C78.5946 49.4212 78.6073 49.4194 78.6157 49.4181C78.6199 49.4175 78.623 49.417 78.625 49.4167C78.626 49.4166 78.6268 49.4165 78.6272 49.4164C78.6275 49.4163 78.6277 49.4163 78.6278 49.4163H78.6278C78.7098 49.404 78.7931 49.4287 78.8557 49.4839C78.9183 49.5392 78.954 49.6195 78.9534 49.7037C78.944 51.0682 78.893 53.225 78.7492 55.2007C78.6773 56.188 78.5819 57.1353 78.4559 57.9178C78.3929 58.309 78.3215 58.6633 78.2404 58.963C78.1938 59.135 78.1424 59.2948 78.0849 59.4362C78.093 59.4574 78.0986 59.4793 78.1015 59.5016C78.1247 59.5214 78.1592 59.5481 78.2087 59.5827C78.2869 59.6373 78.3828 59.6985 78.4957 59.7707C78.6065 59.8416 78.7306 59.9212 78.8566 60.008C79.1062 60.18 79.3785 60.3902 79.5902 60.6397C79.8023 60.89 79.9723 61.2024 79.9723 61.5734Z" fill="#231815"/>
<path d="M71.6465 59.5481C72.1139 60.7976 72.5159 61.897 72.847 62.0655C74.027 62.7681 79.6883 63.0997 79.6883 61.5734C79.6883 60.466 78.3993 60.3128 77.7158 59.5395C77.7158 59.5395 76.5619 59.7591 74.9291 59.7591C73.2963 59.7591 71.6465 59.5481 71.6465 59.5481Z" fill="#26211F"/>
<path d="M79.3856 61.5735C79.3856 61.1794 79.1744 60.9446 78.7916 60.688C78.6959 60.6238 78.594 60.5612 78.4849 60.4949C78.3775 60.4297 78.2627 60.3604 78.1498 60.2873C77.9678 60.1695 77.7794 60.0347 77.6094 59.8694C77.5926 59.8721 77.5746 59.875 77.5554 59.878C77.4179 59.8991 77.2185 59.9272 76.9677 59.9551C76.4664 60.011 75.7585 60.0668 74.9291 60.0668C74.1011 60.0668 73.2713 60.0133 72.6501 59.9602C72.4433 59.9425 72.2591 59.9247 72.1054 59.9089C72.2725 60.3534 72.4282 60.7571 72.5739 61.0859C72.6717 61.3067 72.7607 61.4837 72.8409 61.6118C72.8808 61.6756 72.9151 61.7217 72.9433 61.7532C72.9696 61.7825 72.9833 61.7908 72.9833 61.7909L72.9826 61.7906L72.9915 61.7951L73.0001 61.8002C73.2401 61.9431 73.7631 62.0897 74.4586 62.1955C75.1391 62.2991 75.9411 62.3576 76.7063 62.3478C77.4759 62.3379 78.1871 62.259 78.6958 62.0992C78.9512 62.0189 79.1335 61.9249 79.2467 61.8272C79.3532 61.7352 79.3856 61.6534 79.3856 61.5735ZM79.991 61.5735C79.991 61.8751 79.8464 62.1167 79.6387 62.296C79.4378 62.4695 79.1685 62.5946 78.8747 62.6869C78.2851 62.8722 77.5072 62.9527 76.714 62.9629C75.9163 62.9732 75.0818 62.9124 74.3689 62.8039C73.6763 62.6985 73.0534 62.5416 72.702 62.3356C72.5448 62.2517 72.4233 62.0911 72.33 61.9419C72.2271 61.7774 72.1243 61.5698 72.0218 61.3385C71.8168 60.8759 71.5957 60.2781 71.3635 59.6575L71.1846 59.1791L71.6843 59.2429C71.6843 59.2429 71.6844 59.243 71.6845 59.243C71.6846 59.243 71.6849 59.243 71.6852 59.2431C71.6859 59.2431 71.687 59.2433 71.6885 59.2435C71.6914 59.2439 71.696 59.2444 71.702 59.2452C71.7141 59.2467 71.7322 59.2489 71.7559 59.2517C71.8034 59.2574 71.8733 59.2655 71.9623 59.2753C72.1405 59.2949 72.3954 59.321 72.7009 59.3472C73.3128 59.3995 74.1243 59.4516 74.9291 59.4516C75.7324 59.4516 76.4179 59.3975 76.9018 59.3436C77.1436 59.3166 77.3347 59.2898 77.4647 59.2697C77.5296 59.2597 77.5793 59.2515 77.6123 59.2458C77.6288 59.2429 77.6412 59.2407 77.6492 59.2392C77.6532 59.2385 77.6561 59.2379 77.6579 59.2376C77.6588 59.2374 77.6595 59.2373 77.6598 59.2372C77.66 59.2372 77.6601 59.2372 77.6601 59.2372L77.8273 59.2054L77.941 59.334C78.0848 59.4967 78.2667 59.6336 78.475 59.7684C78.579 59.8357 78.6853 59.8998 78.7957 59.967C78.9044 60.033 79.0169 60.1019 79.1251 60.1745C79.5577 60.4646 79.991 60.8602 79.991 61.5735Z" fill="#231815"/>
<path d="M58.8987 59.5118C58.9036 59.5211 58.9084 59.5303 58.9132 59.5395C59.0652 59.8213 57.0449 60.466 57.0449 61.5734C57.0449 63.0997 62.7062 62.7681 63.8862 62.0656C64.1749 61.9185 64.7549 60.7576 65.3022 59.5426C65.3022 59.5426 63.8274 59.7592 62.0233 59.7592C60.2191 59.7592 58.8987 59.5118 58.8987 59.5118Z" fill="#26211F"/>
<path d="M58.9545 59.2093L58.9545 59.2094C58.9545 59.2094 58.9547 59.2094 58.955 59.2094C58.9554 59.2095 58.9562 59.2096 58.9573 59.2098C58.9594 59.2102 58.9628 59.2109 58.9675 59.2117C58.9768 59.2134 58.9911 59.2159 59.0101 59.2191C59.048 59.2256 59.1049 59.235 59.1791 59.2463C59.3275 59.2689 59.5449 59.2993 59.8183 59.3297C60.3655 59.3906 61.1354 59.4515 62.0243 59.4515C62.915 59.4515 63.7253 59.3981 64.3132 59.3445C64.607 59.3178 64.8447 59.291 65.0085 59.271C65.0904 59.2611 65.1537 59.2527 65.1964 59.247C65.2177 59.2441 65.2339 59.2418 65.2446 59.2403C65.2499 59.2396 65.2539 59.239 65.2565 59.2387C65.2577 59.2385 65.2587 59.2383 65.2592 59.2382C65.2595 59.2382 65.2597 59.2382 65.2598 59.2382H65.2599L65.8096 59.1574L65.5784 59.6706C65.3038 60.2803 65.0183 60.8824 64.7634 61.353C64.6362 61.5876 64.5133 61.7959 64.4002 61.958C64.3438 62.039 64.2864 62.1134 64.229 62.1754C64.1769 62.2318 64.1107 62.2934 64.0321 62.3355C63.6807 62.5416 63.0578 62.6985 62.3652 62.8039C61.6524 62.9124 60.8178 62.9731 60.0202 62.9629C59.227 62.9527 58.4491 62.8722 57.8595 62.6869C57.5656 62.5945 57.2964 62.4695 57.0954 62.296C56.8877 62.1167 56.7432 61.875 56.7432 61.5734C56.7432 61.1962 56.916 60.8795 57.1298 60.6273C57.3431 60.3758 57.6171 60.1645 57.8672 59.9922C57.9934 59.9053 58.1177 59.8255 58.2285 59.7546C58.3415 59.6823 58.4371 59.6213 58.5149 59.567C58.5343 59.5535 58.5512 59.5411 58.5661 59.53L58.3371 59.0937L58.9545 59.2093ZM57.3486 61.5734C57.3486 61.6533 57.3809 61.7352 57.4874 61.8272C57.6006 61.9249 57.783 62.0189 58.0383 62.0991C58.547 62.259 59.2582 62.3379 60.0279 62.3477C60.793 62.3576 61.595 62.2991 62.2755 62.1955C62.971 62.0896 63.4941 61.9431 63.7341 61.8002L63.7426 61.7951L63.7478 61.7924C63.7484 61.7917 63.7617 61.7824 63.7878 61.7541C63.8196 61.7198 63.8592 61.6698 63.9063 61.6023C64.0003 61.4675 64.1107 61.282 64.233 61.0562C64.409 60.7315 64.6026 60.3362 64.7991 59.9141C64.6734 59.9278 64.5285 59.9426 64.3673 59.9573C63.7668 60.012 62.9377 60.0667 62.0243 60.0667C61.109 60.0667 60.3166 60.0041 59.7525 59.9413C59.4833 59.9113 59.2658 59.8812 59.1113 59.8579C59.1088 59.8609 59.1065 59.8637 59.1043 59.8662C59.0371 59.9434 58.9436 60.0141 58.8579 60.0739C58.7677 60.1369 58.66 60.2055 58.5511 60.2752C58.44 60.3463 58.3237 60.421 58.2069 60.5015C57.9709 60.664 57.7493 60.8392 57.5885 61.0288C57.4283 61.2178 57.3486 61.3969 57.3486 61.5734Z" fill="#231815"/>
<path d="M68.1375 55.1118C68.5713 55.0242 69.0442 55.0448 69.491 55.2512C69.9403 55.4588 70.3364 55.8419 70.6334 56.4313L70.6793 56.5234C71.1528 57.4846 71.6166 58.7546 72.0259 59.8031C72.2398 60.3509 72.4381 60.8371 72.6185 61.2036C72.7088 61.387 72.7905 61.5317 72.8627 61.6358C72.8986 61.6875 72.929 61.7246 72.9536 61.7498C72.9791 61.776 72.9909 61.7817 72.9881 61.7803C72.9943 61.7834 73.0004 61.7868 73.0064 61.7904C73.2444 61.9321 73.7655 62.0785 74.461 62.1843C75.1409 62.2878 75.9423 62.3462 76.7069 62.3364C77.4761 62.3265 78.186 62.2477 78.6932 62.0883C78.9478 62.0083 79.1286 61.9149 79.2402 61.8185C79.3448 61.7282 79.3751 61.6493 79.3751 61.5734C79.3751 61.4007 79.2971 61.2241 79.1379 61.0363C78.9781 60.8478 78.7574 60.6733 78.5217 60.5109C78.4051 60.4306 78.2889 60.356 78.1777 60.2849C78.0689 60.2152 77.9611 60.1465 77.8707 60.0833C77.7849 60.0234 77.6904 59.9522 77.6222 59.8738C77.6195 59.8707 77.6166 59.8673 77.6135 59.8635C77.5483 59.8423 77.4903 59.7996 77.4501 59.7399C77.3804 59.6362 77.377 59.5006 77.4415 59.3935C77.5351 59.2378 77.63 58.9837 77.7193 58.6326C77.8072 58.2868 77.8847 57.8678 77.9523 57.3966C78.0875 56.4543 78.1807 55.3229 78.2432 54.1898C78.3683 51.9232 78.3696 49.6757 78.3461 48.9726L78.3337 48.6093C78.2688 46.7301 78.1482 43.9309 77.6015 41.0779C77.5684 40.9049 77.6795 40.7374 77.8497 40.7038C78.0198 40.6701 78.1846 40.783 78.2178 40.9559C78.7745 43.8612 78.8963 46.7047 78.9612 48.5873L78.9735 48.9508V48.9508C78.9978 49.6757 78.996 51.9426 78.87 54.2256C78.807 55.3674 78.7126 56.5198 78.5736 57.4887C78.5041 57.973 78.4227 58.4164 78.3271 58.7923C78.2665 59.0305 78.1979 59.2506 78.1189 59.4404C78.1236 59.4552 78.1272 59.4702 78.1298 59.4854C78.1515 59.5034 78.1828 59.5273 78.2263 59.5577C78.3039 59.6119 78.3992 59.6727 78.5123 59.745C78.6231 59.8159 78.7476 59.8958 78.874 59.9828C79.1243 60.1553 79.3993 60.3673 79.6135 60.6199C79.8283 60.8733 80.0029 61.1925 80.0029 61.5734C80.0029 61.8791 79.8562 62.1238 79.6466 62.3047C79.444 62.4796 79.1733 62.6052 78.8787 62.6978C78.2876 62.8836 77.5084 62.9642 76.7148 62.9743C75.9166 62.9846 75.0814 62.9238 74.368 62.8152C73.6733 62.7095 73.0468 62.5518 72.694 62.3436C72.5522 62.2669 72.4388 62.1319 72.3497 62.0035C72.2516 61.8622 72.1538 61.6856 72.057 61.489C71.8632 61.0953 71.6562 60.586 71.4424 60.0384C71.0096 58.9299 70.546 57.6575 70.0746 56.7221C69.8325 56.2417 69.5334 55.9716 69.2311 55.832C68.9263 55.6912 68.5911 55.6707 68.2599 55.7375C67.9273 55.8047 67.6086 55.9585 67.3524 56.151C67.0921 56.3467 66.9211 56.5632 66.8527 56.7377C66.5456 57.5214 66.0411 58.8129 65.537 59.9474C65.2853 60.514 65.0306 61.0484 64.7981 61.4635C64.6821 61.6706 64.5679 61.8548 64.459 62.0006C64.361 62.1318 64.2406 62.2687 64.1013 62.3439C63.7479 62.5521 63.1176 62.7096 62.418 62.8153C61.699 62.9238 60.8564 62.9846 60.0508 62.9743C59.2497 62.9642 58.4633 62.8836 57.8669 62.6981C57.5697 62.6057 57.2968 62.4803 57.0925 62.3058C56.8813 62.1254 56.7324 61.8805 56.7324 61.5734C56.7324 61.1925 56.907 60.8733 57.1218 60.6199C57.336 60.3673 57.611 60.1553 57.8613 59.9828C57.9877 59.8958 58.1122 59.8159 58.223 59.745C58.3361 59.6727 58.4314 59.6119 58.509 59.5577C58.5254 59.5462 58.5399 59.5357 58.5529 59.5261C57.6844 57.7816 57.1669 54.6421 57.2549 49.4256C57.3102 46.1345 57.5736 43.3941 57.9785 41.1128C58.0093 40.9395 58.1725 40.8243 58.3431 40.8555C58.5137 40.8868 58.6271 41.0527 58.5963 41.2261C58.1985 43.4678 57.9375 46.1732 57.8827 49.4365C57.7919 54.8129 58.3547 57.8361 59.1899 59.3863L59.2007 59.4078C59.3049 59.6288 59.1636 59.8158 59.1131 59.8738C59.0449 59.9522 58.9504 60.0234 58.8646 60.0833C58.7742 60.1465 58.6663 60.2152 58.5575 60.2849C58.4464 60.356 58.3302 60.4306 58.2136 60.5109C57.9779 60.6733 57.7572 60.8478 57.5974 61.0363C57.4382 61.2241 57.3602 61.4007 57.3602 61.5734C57.3602 61.6479 57.3901 61.7266 57.4965 61.8175C57.6097 61.9142 57.7929 62.0079 58.0506 62.0881C58.5639 62.2477 59.2817 62.3265 60.0586 62.3364C60.8309 62.3463 61.6401 62.2878 62.3257 62.1842C63.0273 62.0783 63.5517 61.9319 63.7894 61.7904L63.8077 61.7803C63.8098 61.7789 63.8241 61.7697 63.8508 61.7431C63.8802 61.7139 63.9163 61.6718 63.959 61.6148C64.0444 61.5004 64.1432 61.3431 64.2524 61.1479C64.4706 60.7584 64.7159 60.245 64.9648 59.6848C65.4621 58.5658 65.9614 57.2881 66.2694 56.5018V56.5017C66.395 56.1814 66.6605 55.8776 66.9791 55.6381C67.3021 55.3954 67.7052 55.1991 68.1375 55.1118ZM78.0959 59.6929C78.099 59.6872 78.1017 59.6816 78.1042 59.676C78.1016 59.6817 78.0989 59.6874 78.0959 59.6929ZM78.1089 59.6656C78.1094 59.6643 78.1098 59.6631 78.1103 59.6618C78.1098 59.6631 78.1094 59.6643 78.1089 59.6656Z" fill="#231815"/>
<path d="M70.4205 48.1933L67.908 51.3918L65.0322 48.1933L67.908 37.827L70.4205 48.1933Z" fill="#26211F"/>
<path d="M67.9153 37.4362C68.0899 37.4391 68.2407 37.5613 68.2825 37.7336L70.795 48.0999C70.8236 48.2177 70.7966 48.3424 70.7221 48.4373L68.2096 51.6357C68.1394 51.7251 68.0342 51.7788 67.9217 51.7826C67.8093 51.7864 67.7008 51.7399 67.6249 51.6555L64.7491 48.457C64.6594 48.3572 64.6268 48.2174 64.6629 48.0872L67.5386 37.721L67.5433 37.7051C67.5957 37.543 67.7461 37.4333 67.9153 37.4362ZM65.4615 48.0901L67.8892 50.7902L70.0024 48.0999L67.8838 39.3584L65.4615 48.0901Z" fill="#231815"/>
<path d="M67.8782 41.3952C67.2546 41.3952 66.97 41.2106 66.97 41.2106L65.7344 40.1648L67.9563 37.907L70.1781 40.1648L68.8462 41.2106C68.8462 41.2106 68.5011 41.3952 67.8776 41.3952H67.8782Z" fill="#26211F"/>
<path d="M67.6985 37.6167C67.8496 37.478 68.0827 37.4826 68.2283 37.6305L70.4502 39.8884C70.5284 39.9678 70.5691 40.0776 70.5621 40.1897C70.5551 40.3018 70.5009 40.4055 70.4134 40.4742L69.0815 41.52C69.0639 41.5339 69.0451 41.5461 69.0254 41.5566L68.8462 41.2107L69.0251 41.5568C69.0251 41.5568 69.025 41.5569 69.0249 41.5569C69.0247 41.557 69.0246 41.5571 69.0244 41.5572C69.024 41.5574 69.0236 41.5576 69.0231 41.5578C69.0223 41.5583 69.0214 41.5588 69.0204 41.5593C69.0184 41.5603 69.016 41.5616 69.0133 41.5629C69.0078 41.5657 69.001 41.5691 68.9927 41.573C68.9763 41.5808 68.9542 41.5907 68.9268 41.6019C68.872 41.6245 68.7954 41.6525 68.6983 41.6798C68.5039 41.7344 68.2275 41.786 67.8785 41.7861L67.8782 41.7862H67.8776C67.8774 41.7862 67.8773 41.7861 67.8772 41.7861C67.5279 41.786 67.2634 41.7343 67.0782 41.677C66.9857 41.6484 66.9137 41.6186 66.8613 41.5937C66.8351 41.5813 66.8139 41.5701 66.7976 41.5609C66.7894 41.5563 66.7825 41.5522 66.7767 41.5488C66.7738 41.547 66.7712 41.5454 66.769 41.544C66.7678 41.5433 66.7668 41.5426 66.7658 41.542C66.7653 41.5417 66.7648 41.5414 66.7643 41.5411C66.7641 41.5409 66.7639 41.5408 66.7636 41.5406C66.7635 41.5406 66.7634 41.5405 66.7633 41.5405L66.97 41.2107L66.763 41.5402C66.7494 41.5314 66.7362 41.5216 66.7238 41.5111L65.4881 40.4652C65.405 40.3949 65.3549 40.2923 65.35 40.1826C65.3451 40.0728 65.3858 39.966 65.4623 39.8884L67.6842 37.6305L67.6985 37.6167ZM66.3044 40.1385L67.1862 40.8849C67.1866 40.885 67.1869 40.8852 67.1872 40.8854C67.2077 40.8951 67.2458 40.9115 67.3024 40.929C67.4151 40.9639 67.6042 41.0042 67.8779 41.0042C68.1518 41.0042 68.3594 40.9638 68.4932 40.9262C68.5603 40.9073 68.609 40.8891 68.6383 40.8771C68.6411 40.8759 68.6437 40.8746 68.6462 40.8736L69.5969 40.1271L67.9562 38.4599L66.3044 40.1385Z" fill="#231815"/>
<path d="M67.6058 37.8658L65.3658 40.3186L59.7656 36.0737L67.6058 37.8658Z" fill="white"/>
<path d="M59.4755 35.9383C59.5383 35.7994 59.6882 35.7241 59.835 35.7576L67.6752 37.5497C67.7865 37.5752 67.8759 37.6591 67.9097 37.7698C67.9434 37.8805 67.9165 38.0011 67.8389 38.0861L65.5988 40.5389C65.4881 40.6602 65.3051 40.6771 65.1746 40.5782L59.5744 36.3332C59.4539 36.2418 59.4126 36.0772 59.4755 35.9383ZM65.3263 39.885L66.9946 38.0582L61.1554 36.7234L65.3263 39.885Z" fill="#231815"/>
<path d="M68.0596 37.8658L70.2996 40.3186L75.8997 36.0737L68.0596 37.8658Z" fill="white"/>
<path d="M75.8302 35.7576C75.977 35.7241 76.1268 35.7994 76.1897 35.9383C76.2526 36.0772 76.2113 36.2418 76.0907 36.3332L70.4906 40.5782C70.3601 40.6771 70.1771 40.6602 70.0663 40.5389L67.8263 38.0861C67.7487 38.0011 67.7217 37.8805 67.7555 37.7698C67.7893 37.6591 67.8787 37.5752 67.99 37.5497L75.8302 35.7576ZM68.6705 38.0582L70.3388 39.885L74.5097 36.7234L68.6705 38.0582Z" fill="#231815"/>
<path d="M55.7335 48.4461C55.119 48.0942 54.579 47.6272 54.0583 47.1468C53.8839 46.9856 53.7023 46.8078 53.6515 46.5758C53.6224 46.4436 53.6394 46.3051 53.6757 46.1747C53.7756 45.8185 54.0135 45.5189 54.2539 45.2365C54.783 44.6152 55.3515 44.0264 55.9696 43.493C56.075 43.402 56.1924 43.3085 56.3317 43.2992C56.4461 43.2919 56.5551 43.3429 56.6562 43.3971C57.2392 43.709 57.7447 44.1458 58.2448 44.5783C58.6401 44.9203 59.0355 45.2624 59.4308 45.605" fill="#D1D1D1"/>
<path d="M53.7333 45.7552C53.6643 45.877 53.6068 46.0055 53.5687 46.1421C53.5227 46.3076 53.5142 46.459 53.5432 46.5925C53.5995 46.8496 53.7842 47.0372 53.9846 47.2218C54.4937 47.6918 55.0513 48.176 55.6816 48.5371C55.7355 48.5679 55.8021 48.5525 55.8311 48.5021C55.8596 48.4516 55.839 48.3864 55.7857 48.3556C55.1767 48.0068 54.6312 47.5325 54.1323 47.0723C53.9604 46.9136 53.8018 46.7543 53.7594 46.5598C53.7376 46.4596 53.7448 46.3414 53.7824 46.2079C53.8768 45.8708 54.1099 45.578 54.3406 45.3073C54.9079 44.6416 55.6077 43.8579 56.1883 43.3577C56.2828 43.2759 56.3839 43.1959 56.4874 43.1891C56.5728 43.1836 56.6636 43.2279 56.7489 43.2734C57.3229 43.5804 57.714 44.0086 58.2001 44.5998L59.2632 45.8278C59.3099 45.8684 59.3795 45.8665 59.4188 45.8234C59.4582 45.781 59.4521 45.7133 59.4055 45.6733L58.3545 44.4429C57.872 43.9249 57.4446 43.4081 56.8476 43.0882C56.7368 43.0292 56.6067 42.967 56.4602 42.9763C56.2894 42.9873 56.1574 43.0907 56.0358 43.1953C55.4479 43.7022 54.7402 44.4927 54.1668 45.1664C54.0112 45.3491 53.8544 45.5417 53.7333 45.7545V45.7552Z" fill="#DF9669"/>
<path d="M56.4504 42.8127C56.6214 42.802 56.7697 42.8645 56.8786 42.92L56.9228 42.9431L56.9231 42.9433C57.5107 43.2582 57.9427 43.7561 58.3835 44.2349L58.4719 44.3303L58.4766 44.3356L59.5211 45.5585C59.6208 45.6543 59.6424 45.8217 59.5365 45.9359L59.5364 45.9359C59.4321 46.0491 59.2637 46.044 59.1585 45.9523C59.1527 45.9473 59.1473 45.9419 59.1423 45.9361L58.0792 44.7082C58.0783 44.7071 58.0774 44.7061 58.0765 44.705C57.5917 44.1154 57.2178 43.7095 56.6742 43.4186C56.582 43.3695 56.531 43.3507 56.4979 43.3528C56.4827 43.3538 56.4574 43.3612 56.4188 43.3852C56.3805 43.4091 56.3398 43.4422 56.2932 43.4826L56.2929 43.4829C55.7228 43.974 55.0301 44.7489 54.4627 45.4147C54.2304 45.6874 54.0212 45.9552 53.9378 46.2529L53.9377 46.2531C53.9053 46.3685 53.9027 46.4581 53.9171 46.5246H53.9171C53.9467 46.6601 54.0626 46.7863 54.241 46.951H54.241C54.7387 47.4102 55.273 47.8737 55.8651 48.2129L55.8657 48.2132H55.8656C55.9857 48.2825 56.0501 48.4439 55.9713 48.5837C55.9711 48.5841 55.9708 48.5846 55.9705 48.585C55.8912 48.7227 55.7229 48.7488 55.6027 48.6802L55.6026 48.6801C54.9556 48.3094 54.3869 47.8146 53.8765 47.3434L53.8014 47.2732C53.625 47.105 53.4461 46.9029 53.386 46.6282L53.3859 46.6279C53.3498 46.4621 53.3621 46.2827 53.4136 46.0976L53.4137 46.0974C53.4551 45.9491 53.5165 45.8114 53.5882 45.6834C53.59 45.6797 53.5919 45.6761 53.5939 45.6726C53.7232 45.4452 53.8889 45.2425 54.045 45.0592C54.6185 44.3854 55.3333 43.5863 55.9316 43.0704L55.9318 43.0702C56.0518 42.967 56.2206 42.8276 56.4501 42.8127H56.4504Z" fill="#231815"/>
<path d="M54.6964 47.7356C54.6679 47.786 54.6885 47.8512 54.7424 47.8814C54.7963 47.9115 54.8629 47.8955 54.8913 47.8457C55.5948 46.6079 56.8547 45.2163 57.9548 44.4614C58.0032 44.4282 58.0123 44.3624 57.9747 44.3138C57.9372 44.2652 57.8682 44.2529 57.8197 44.2861C56.6797 45.0687 55.4241 46.4553 54.6958 47.7356H54.6964Z" fill="#DF9669"/>
<path d="M57.7291 44.1503C57.8482 44.0686 58.0047 44.0986 58.0929 44.2023L58.1013 44.2126L58.1096 44.2239C58.1891 44.3385 58.1726 44.4996 58.0566 44.5887L58.0446 44.5974C56.9661 45.3375 55.7227 46.7102 55.0307 47.9277L55.0305 47.928C54.9522 48.0651 54.7844 48.0922 54.6642 48.025C54.5473 47.9596 54.4836 47.8093 54.5457 47.6745C54.5485 47.6673 54.5519 47.6603 54.5557 47.6535C55.2956 46.3531 56.5676 44.9475 57.729 44.1503H57.7291Z" fill="#231815"/>
<path d="M54.2441 46.5833C54.1545 46.7414 54.0704 46.9026 53.9911 47.0662C53.9663 47.1185 53.9911 47.1825 54.0462 47.2096C54.1019 47.2366 54.1667 47.2157 54.1921 47.1647C54.8356 45.8253 55.9454 44.5457 57.2204 43.7379C57.27 43.7066 57.2815 43.6407 57.2458 43.5915C57.2101 43.5417 57.1411 43.5275 57.0914 43.5583C55.9411 44.2873 54.9028 45.4205 54.2435 46.5827L54.2441 46.5833Z" fill="#DF9669"/>
<path d="M57.0071 43.4184C57.1304 43.342 57.2915 43.3783 57.3753 43.4944L57.3754 43.4943C57.4642 43.6167 57.4387 43.7929 57.3053 43.8772C56.0569 44.6682 54.9675 45.9241 54.3368 47.2367C54.3364 47.2374 54.3361 47.2381 54.3358 47.2388C54.2667 47.3774 54.1028 47.4191 53.9762 47.3575L53.9756 47.3572C53.8509 47.296 53.777 47.1392 53.8454 46.995L53.846 46.9938C53.9245 46.832 54.0077 46.6723 54.0962 46.5153C54.0984 46.5104 54.1008 46.5055 54.1035 46.5008C54.7751 45.317 55.8314 44.1635 57.0057 43.4193L57.0071 43.4184Z" fill="#231815"/>
<path d="M61.5631 46.0154C61.4693 45.5515 61.3694 45.3017 60.9522 44.8692C61.1902 44.9203 61.6218 45.8739 61.6721 45.7939C62.8829 43.8867 60.5835 43.0255 59.1899 43.0255C58.4634 43.0255 57.5795 43.2894 57.2646 43.4961C56.9498 43.7022 55.9073 44.2171 54.6359 47.4162C54.1098 48.7401 57.1708 51.9146 59.4115 50.1705C61.0079 48.9278 61.8325 47.3467 61.5631 46.016V46.0154Z" fill="#E24D4D"/>
<path d="M59.1906 42.7034C59.9316 42.7034 60.929 42.9286 61.5981 43.4365C61.9385 43.6949 62.2162 44.0445 62.3029 44.495C62.3899 44.9478 62.2724 45.4429 61.9399 45.9672C61.9268 45.9881 61.9098 46.0096 61.889 46.0298C62.1469 47.5183 61.2137 49.1739 59.6049 50.4262C58.3233 51.4238 56.8323 50.9851 55.7976 50.2022C55.2754 49.8071 54.8404 49.3068 54.5683 48.8061C54.3048 48.3209 54.1572 47.7627 54.3428 47.2957C54.987 45.6747 55.5808 44.714 56.0672 44.1265C56.5602 43.5309 56.9373 43.3278 57.0937 43.2254C57.2944 43.0938 57.6333 42.9659 57.9946 42.8714C58.3636 42.7749 58.7936 42.7034 59.1906 42.7034ZM59.1906 43.3476C58.8611 43.3476 58.4859 43.4081 58.1526 43.4952C57.8119 43.5843 57.5516 43.6917 57.4374 43.7666L57.437 43.7669C57.2787 43.8706 56.977 44.028 56.5523 44.5411C56.1208 45.0624 55.5577 45.9588 54.9305 47.5368C54.8531 47.7317 54.8908 48.0669 55.1233 48.4948C55.3472 48.9071 55.7189 49.3396 56.1761 49.6856C57.1005 50.3849 58.2605 50.6614 59.2195 49.9149C60.7753 48.7038 61.4868 47.2337 61.2534 46.0809C61.2532 46.0796 61.2529 46.0782 61.2527 46.0769C61.208 45.8565 61.1666 45.713 61.0982 45.5786C61.0293 45.4432 60.9233 45.2987 60.7266 45.0948C60.6289 44.9934 60.6079 44.8389 60.6751 44.7144C60.7423 44.5899 60.8818 44.5248 61.0185 44.5542C61.1275 44.5776 61.2099 44.6411 61.2588 44.6845C61.3134 44.733 61.3633 44.7906 61.4067 44.8459C61.4841 44.9447 61.5607 45.0628 61.6279 45.1711C61.7021 44.9524 61.7098 44.7698 61.6807 44.6186C61.6332 44.3713 61.476 44.1479 61.2187 43.9526C60.6924 43.5531 59.8433 43.3476 59.1906 43.3476Z" fill="#231815"/>
<path d="M50.1282 12.6021C50.1282 12.6021 48.261 3.65083 50.792 1.70895C53.3236 -0.232938 60.4657 3.9526 61.4499 6.13492C62.4342 8.31785 52.3749 18.3192 50.1282 12.6021Z" fill="#FFF9EF"/>
<path d="M50.601 1.45133C51.3343 0.888798 52.3599 0.796771 53.4328 0.954895C54.5155 1.11447 55.708 1.53716 56.8381 2.08391C57.97 2.63149 59.0539 3.31057 59.9206 3.99466C60.7754 4.6693 61.4593 5.38 61.7391 6.00046V6.00052C61.9197 6.40092 61.8253 6.90634 61.6336 7.39399C61.4346 7.9002 61.0968 8.47239 60.668 9.06233C59.8091 10.244 58.5518 11.5418 57.1929 12.5885C55.8413 13.6296 54.3507 14.452 53.0256 14.6308C52.3569 14.721 51.7114 14.6496 51.1488 14.3392C50.5833 14.027 50.1362 13.4923 49.8335 12.722L49.8233 12.6963L49.8177 12.6693L50.1285 12.6022C49.8177 12.6692 49.8176 12.6691 49.8176 12.669C49.8176 12.6689 49.8176 12.6688 49.8176 12.6686C49.8175 12.6683 49.8174 12.6678 49.8173 12.6672C49.817 12.666 49.8167 12.6642 49.8162 12.662C49.8153 12.6574 49.8139 12.6507 49.8121 12.6419C49.8085 12.6243 49.8033 12.5985 49.7966 12.5649C49.7834 12.4977 49.7643 12.3993 49.741 12.2737C49.6944 12.0225 49.6308 11.6621 49.5625 11.2238C49.426 10.3479 49.2702 9.15751 49.1942 7.90372C49.1183 6.65274 49.1209 5.32437 49.3074 4.17771C49.4913 3.04677 49.866 2.01516 50.6009 1.45133H50.601ZM53.3416 1.59413C52.3327 1.44543 51.5162 1.55844 50.9838 1.96681C50.4532 2.37393 50.1121 3.18942 49.9343 4.28301C49.759 5.36087 49.7539 6.63444 49.8285 7.86401C49.9029 9.09078 50.0556 10.2596 50.1901 11.1228C50.2573 11.554 50.3198 11.9081 50.3655 12.154C50.3883 12.277 50.4069 12.3728 50.4197 12.4376C50.4257 12.4678 50.4304 12.4913 50.4337 12.5077C50.6919 13.1517 51.0465 13.5478 51.452 13.7716C51.8657 13.9999 52.3671 14.0681 52.942 13.9905C54.1041 13.8337 55.4881 13.0913 56.8091 12.0738C58.1229 11.0619 59.3363 9.80743 60.1569 8.67856C60.5678 8.11324 60.872 7.59057 61.0435 7.15434C61.2167 6.71374 61.2265 6.43285 61.1674 6.2836L61.1615 6.26959C60.9492 5.7989 60.3712 5.16803 59.5309 4.50481C58.7026 3.85103 57.6581 3.19593 56.565 2.66708C55.4701 2.1374 54.3408 1.74139 53.3416 1.59413Z" fill="#231815"/>
<path d="M53.6007 9.31579C53.6007 9.31579 52.1885 5.7663 53.3665 4.86221C54.5451 3.95813 57.8696 5.90676 58.3277 6.92247C58.7857 7.93819 55.055 13.0272 53.6007 9.31579Z" fill="#79371E"/>
<path d="M53.3636 4.8584C53.6598 4.63121 54.0901 4.58362 54.5751 4.6551C55.0603 4.72661 55.6012 4.91738 56.1194 5.16807C56.6375 5.41877 57.1331 5.72952 57.5279 6.04114C57.9225 6.35262 58.217 6.66544 58.3321 6.9205C58.39 7.0491 58.3814 7.24114 58.3203 7.47049C58.2592 7.7001 58.1452 7.96815 57.991 8.24934C57.6827 8.81172 57.2135 9.42753 56.6845 9.89558C56.1556 10.3635 55.566 10.6844 55.017 10.6554C54.4759 10.6268 53.976 10.2583 53.6133 9.36081L53.5961 9.31768L53.5961 9.31756C53.596 9.31745 53.596 9.31724 53.5959 9.31702C53.5957 9.31659 53.5955 9.31595 53.5951 9.31511C53.5945 9.31339 53.5935 9.31082 53.5921 9.30744C53.5895 9.30069 53.5856 9.29066 53.5806 9.27755C53.5705 9.25131 53.5559 9.2127 53.5377 9.16327C53.5014 9.06441 53.4508 8.92219 53.3938 8.74871C53.2798 8.40171 53.14 7.92954 53.0371 7.4291C52.9342 6.92872 52.8679 6.39975 52.9013 5.9392C52.9346 5.47877 53.0674 5.08568 53.3636 4.8584ZM54.5738 4.66481C54.0897 4.59346 53.6625 4.64133 53.3694 4.86618C53.0765 5.09094 52.9442 5.48056 52.9109 5.93991C52.8777 6.39916 52.9437 6.92712 53.0465 7.42712C53.1494 7.92706 53.289 8.39882 53.403 8.7456C53.4599 8.91896 53.5105 9.06108 53.5468 9.15985C53.5649 9.20924 53.5795 9.24782 53.5895 9.27402C53.5946 9.28711 53.5985 9.29712 53.6011 9.30385C53.6024 9.30721 53.6034 9.30975 53.6041 9.31145C53.6044 9.3123 53.6047 9.31294 53.6049 9.31337C53.6049 9.31358 53.605 9.31374 53.605 9.31385L53.6051 9.31397C53.6051 9.314 53.6051 9.31405 53.6006 9.31589L53.6051 9.31403C53.9683 10.2409 54.4729 10.6168 55.0174 10.6456C55.5626 10.6745 56.1498 10.3555 56.6781 9.88815C57.2062 9.42092 57.6748 8.80604 57.9826 8.24455C58.1365 7.96381 58.2501 7.69658 58.311 7.46797C58.372 7.23911 58.3798 7.04991 58.3233 6.92458C58.2093 6.67179 57.9164 6.36017 57.522 6.04887C57.1278 5.73771 56.6327 5.42735 56.1152 5.17693C55.5976 4.92651 55.0577 4.73613 54.5738 4.66481Z" fill="#231815"/>
<path d="M86.4421 12.6021C86.4421 12.6021 88.3092 3.65083 85.7783 1.70895C83.2467 -0.232938 76.1046 3.9526 75.1203 6.13492C74.136 8.31785 84.1953 18.3192 86.4421 12.6021Z" fill="#FFF9EF"/>
<path d="M83.1382 0.9549C84.2111 0.796769 85.2367 0.888792 85.9701 1.45133L86.0043 1.47811C86.7166 2.04742 87.0826 3.06444 87.2636 4.17771C87.4501 5.32437 87.4527 6.65274 87.3768 7.90373C87.3008 9.15752 87.145 10.3479 87.0085 11.2238C86.9402 11.6621 86.8766 12.0225 86.83 12.2737C86.8067 12.3993 86.7876 12.4977 86.7743 12.5649C86.7677 12.5985 86.7625 12.6243 86.7589 12.6419C86.7571 12.6507 86.7558 12.6574 86.7548 12.662C86.7544 12.6643 86.754 12.666 86.7537 12.6672C86.7536 12.6678 86.7535 12.6683 86.7534 12.6686C86.7534 12.6688 86.7534 12.6689 86.7534 12.669C86.7533 12.6692 86.7533 12.6692 86.4425 12.6022L86.7533 12.6693L86.7476 12.6963L86.7376 12.722C86.4348 13.4924 85.9877 14.0271 85.4222 14.3392C84.8596 14.6496 84.2141 14.721 83.5454 14.6308C82.2203 14.452 80.7297 13.6296 79.3781 12.5885C78.0192 11.5419 76.7619 10.244 75.903 9.06234C75.4742 8.47239 75.1364 7.90021 74.9374 7.394C74.7457 6.90634 74.6513 6.40087 74.8318 6.00047C75.1117 5.38001 75.7956 4.66931 76.6503 3.99466C77.5171 3.31057 78.601 2.6315 79.7329 2.08392C80.863 1.53717 82.0554 1.11447 83.1382 0.9549ZM85.5872 1.96682C85.0548 1.55843 84.2383 1.44543 83.2293 1.59413C82.2302 1.74139 81.1008 2.1374 80.006 2.66708C78.9128 3.19594 77.8685 3.85103 77.0401 4.50482C76.1999 5.16802 75.6218 5.79884 75.4095 6.26953C75.344 6.41487 75.3487 6.69955 75.5275 7.15434C75.699 7.59058 76.0031 8.11324 76.4141 8.67857C77.2346 9.80745 78.4482 11.0619 79.7619 12.0738C81.0829 13.0913 82.4669 13.8337 83.629 13.9905C84.2039 14.0681 84.7052 13.9999 85.119 13.7716C85.5245 13.5478 85.8792 13.1516 86.1373 12.5074C86.1406 12.491 86.1454 12.4677 86.1514 12.4376C86.1642 12.3728 86.1828 12.277 86.2056 12.154C86.2512 11.9081 86.3136 11.554 86.3808 11.1228C86.5153 10.2596 86.6682 9.09079 86.7426 7.86402C86.8171 6.63444 86.8119 5.36088 86.6367 4.28301C86.4616 3.20654 86.1285 2.39951 85.612 1.98622L85.5872 1.96682Z" fill="#231815"/>
<path d="M82.9698 9.31579C82.9698 9.31579 84.3819 5.7663 83.204 4.86221C82.0254 3.95813 78.7008 5.90676 78.2428 6.92247C77.7848 7.93819 81.5154 13.0272 82.9698 9.31579Z" fill="#79371E"/>
<path d="M81.9962 4.6551C82.4813 4.58362 82.9116 4.63121 83.2078 4.8584C83.5039 5.08569 83.6368 5.47878 83.6701 5.9392C83.7034 6.39975 83.6372 6.92872 83.5343 7.4291C83.4313 7.92954 83.2916 8.40171 83.1776 8.74871C83.1206 8.92219 83.07 9.06441 83.0337 9.16327C83.0155 9.2127 83.0009 9.25132 82.9908 9.27755C82.9858 9.29066 82.9819 9.30069 82.9793 9.30744C82.9779 9.31082 82.9769 9.3134 82.9763 9.31511C82.9759 9.31595 82.9757 9.3166 82.9755 9.31703C82.9754 9.31724 82.9754 9.31746 82.9753 9.31757L82.9753 9.31769C82.6113 10.2466 82.1041 10.6263 81.5544 10.6554C81.0054 10.6844 80.4158 10.3635 79.8869 9.89558C79.3579 9.42754 78.8887 8.81172 78.5804 8.24935C78.4262 7.96815 78.3121 7.70011 78.251 7.47049C78.1899 7.24114 78.1813 7.0491 78.2393 6.92051C78.3544 6.66545 78.6488 6.35262 79.0434 6.04114C79.4382 5.72952 79.9339 5.41877 80.452 5.16807C80.9702 4.91739 81.511 4.72662 81.9962 4.6551ZM83.202 4.86619C82.9088 4.64135 82.4817 4.59347 81.9976 4.66481C81.5137 4.73613 80.9737 4.92651 80.4562 5.17694C79.9386 5.42735 79.4436 5.73771 79.0494 6.04887C78.655 6.36017 78.3621 6.67179 78.2481 6.92458C78.1916 7.04991 78.1994 7.23912 78.2604 7.46798C78.3213 7.69658 78.4349 7.96382 78.5888 8.24455C78.8966 8.80603 79.3651 9.42092 79.8932 9.88815C80.4215 10.3555 81.0087 10.6745 81.5539 10.6456C82.0984 10.6168 82.603 10.2409 82.9662 9.31403H82.9663V9.31397L82.9664 9.31385C82.9664 9.31375 82.9664 9.31357 82.9665 9.31337C82.9667 9.31295 82.967 9.3123 82.9673 9.31146C82.968 9.30975 82.9689 9.3072 82.9702 9.30385C82.9729 9.29712 82.9768 9.28711 82.9818 9.27402C82.9918 9.24782 83.0064 9.20924 83.0246 9.15985C83.0609 9.06108 83.1114 8.91897 83.1684 8.7456C83.2823 8.39882 83.422 7.92707 83.5249 7.42712C83.6277 6.92713 83.6937 6.39916 83.6605 5.93992C83.6272 5.48055 83.4948 5.09094 83.202 4.86619Z" fill="#231815"/>
<path d="M49.1302 17.1128C49.1302 17.1128 51.9858 6.94709 59.347 4.57463C66.7082 2.20217 72.9017 2.28313 80.0884 6.0062C86.4877 9.32077 89.6764 21.3781 87.9245 28.1226C87.9245 28.1226 90.6179 29.5541 89.0868 29.8099C88.7326 29.8688 86.6084 29.5431 87.1648 29.7676C88.0018 30.1049 89.537 30.2472 89.2836 30.7956C89.0301 31.3439 88.6632 31.1562 86.5287 31.2182C86.5287 31.2182 88.003 31.6273 88.3874 31.8395C88.7718 32.0517 89.225 32.5449 86.2529 32.4424C86.2529 32.4424 82.4655 37.9228 67.2743 37.399C52.083 36.8752 48.8369 30.8937 48.8369 30.8937C48.8369 30.8937 46.6107 31.3862 46.5002 30.5447C46.4411 30.0957 48.155 29.9749 48.155 29.9749C48.155 29.9749 46.1213 30.3178 45.8358 29.7553C45.4629 29.0205 48.2177 28.0968 48.2177 28.0968C48.2177 28.0968 45.9119 29.1812 45.6512 28.0085C45.3911 26.8358 47.8424 26.3831 47.8424 26.3831C47.8424 26.3831 47.4586 21.1542 49.1296 17.1141L49.1302 17.1128Z" fill="#EC7032"/>
<path d="M68.9068 11.6939C68.9068 11.6939 71.2386 8.23761 72.8167 9.15641C74.5161 10.1458 73.0466 11.4405 71.795 11.903C70.8373 12.2569 69.4095 13.0831 69.0075 12.6697C68.4813 12.1281 68.9062 11.6939 68.9062 11.6939H68.9068Z" fill="#FFF9EF"/>
<path d="M52.9343 34.1002C52.9343 34.1002 59.2974 36.7254 60.1477 36.2623C58.3976 32.6435 57.1164 26.797 58.8804 23.2592C60.6751 19.6594 61.2291 19.2822 58.7736 18.8829C56.5238 18.5173 55.65 19.1344 54.1654 20.999C50.6206 25.4507 50.6411 32.3828 52.9343 34.1002Z" fill="#FFF9EF"/>
<path d="M73.9957 36.8604C75.6854 35.7564 76.7071 27.9864 76.3493 24.348C76.1079 21.8945 75.566 21.4928 74.9468 20.0723C74.2824 18.5468 77.8236 18.3346 78.529 18.3089C79.2345 18.2837 81.2603 19.3178 82.0817 22.3852C83.4866 27.6313 83.9217 34.1653 81.1765 35.511C81.1765 35.511 76.2883 37.2284 73.9951 36.8604H73.9957Z" fill="#FFF9EF"/>
<path d="M60.867 26.5236C60.4041 24.1143 61.8096 20.5489 62.9303 18.9848C64.2603 17.1282 66.0297 17.0491 67.4177 17.0491C68.968 17.0491 69.9969 17.1963 71.3825 19.0308C72.7675 20.8648 73.7397 24.3578 73.6244 26.0433C73.3891 29.472 69.7356 30.327 67.1769 30.2368C63.1095 30.0927 61.4107 29.3511 60.8676 26.5242L60.867 26.5236Z" fill="#FFF9EF"/>
<path d="M73.6039 16.911C73.6346 16.0137 73.045 15.3819 72.2919 15.355C71.5388 15.328 70.9075 15.9174 70.8774 16.8147C70.8436 17.8029 71.435 18.3806 72.1881 18.4076C72.9412 18.434 73.5749 17.7673 73.6045 16.911H73.6039Z" fill="#231815"/>
<path d="M61.0969 16.8902C61.0661 15.9928 61.6557 15.3611 62.4088 15.3341C63.1619 15.3077 63.7932 15.8965 63.8234 16.7939C63.8571 17.782 63.2657 18.3598 62.5126 18.3868C61.7595 18.4131 61.1258 17.7464 61.0963 16.8902H61.0969Z" fill="#231815"/>
<path d="M70.4299 21.2804C70.5302 21.1912 70.6827 21.2016 70.7705 21.3035C70.8583 21.4055 70.8481 21.5605 70.7477 21.6497C70.3747 21.9815 69.8323 22.2135 69.2368 22.3643C68.6369 22.5161 67.9611 22.5909 67.3015 22.593C66.6421 22.5951 65.99 22.5247 65.4379 22.3809C64.8951 22.2394 64.4109 22.0172 64.13 21.6868C64.0429 21.5843 64.054 21.4294 64.1548 21.3408C64.2557 21.2522 64.4081 21.2635 64.4953 21.366C64.6782 21.5812 65.0444 21.7717 65.5579 21.9056C66.0621 22.037 66.6721 22.1043 67.2999 22.1023C67.9274 22.1003 68.5638 22.029 69.1201 21.8881C69.681 21.7462 70.1391 21.539 70.4299 21.2804Z" fill="#231815"/>
<path d="M67.1183 19.5345C67.1342 19.4 67.2543 19.304 67.3867 19.3201C67.5191 19.3363 67.6135 19.4584 67.5976 19.593C67.5091 20.343 67.509 21.019 67.5312 21.5075C67.5423 21.7515 67.5589 21.9481 67.5726 22.083C67.5795 22.1504 67.5856 22.2023 67.59 22.237C67.5921 22.2543 67.5939 22.2674 67.595 22.2759C67.5956 22.2801 67.5961 22.2832 67.5963 22.2851C67.5965 22.2861 67.5966 22.2868 67.5966 22.2872L67.5967 22.2874C67.6165 22.4214 67.5256 22.5464 67.3938 22.5665C67.2619 22.5866 67.1391 22.4942 67.1193 22.3603L67.3579 22.3238C67.1192 22.3602 67.1192 22.3602 67.1192 22.3601V22.36C67.1192 22.3599 67.1192 22.3598 67.1191 22.3597C67.1191 22.3595 67.1191 22.3591 67.119 22.3587C67.1189 22.3579 67.1188 22.3568 67.1186 22.3554C67.1182 22.3526 67.1176 22.3486 67.1169 22.3435C67.1155 22.3332 67.1135 22.3184 67.1111 22.2993C67.1062 22.2609 67.0997 22.205 67.0924 22.1334C67.0778 21.9904 67.0605 21.7844 67.049 21.5301C67.0259 21.0219 67.0258 20.3179 67.1183 19.5345Z" fill="#231815"/>
<path d="M65.6685 19.4877C65.7609 18.9504 66.3927 18.2757 67.4186 18.2757C68.4445 18.2757 68.9876 19.0117 69.048 19.5024C69.1862 20.6248 65.4609 20.696 65.6685 19.4877Z" fill="#231815"/>
<path d="M86.1373 12.685C86.2962 12.6095 86.4853 12.6792 86.5596 12.8408C88.8016 17.7157 89.3925 23.7022 88.2978 27.8403C88.3528 27.8721 88.4155 27.9089 88.4834 27.95C88.7169 28.0912 89.0198 28.2867 89.2773 28.495C89.4057 28.5989 89.5302 28.7118 89.6305 28.8281C89.7255 28.9384 89.8249 29.0813 89.8608 29.2456C89.88 29.3333 89.8823 29.433 89.8503 29.5347C89.8181 29.6373 89.7576 29.7211 89.683 29.7862C89.5669 29.8876 89.4119 29.948 89.2416 29.9857C89.2881 30.0128 89.3318 30.0419 89.3715 30.0732C89.4598 30.1429 89.5528 30.2421 89.5995 30.3798C89.6497 30.5277 89.6322 30.6771 89.5707 30.8101C89.491 30.9826 89.3835 31.1367 89.2044 31.2414C89.0375 31.3391 88.8424 31.3729 88.6345 31.3886C88.583 31.3925 88.528 31.3953 88.4693 31.3974C88.4942 31.4094 88.5174 31.4213 88.5386 31.433C88.6417 31.4899 88.8004 31.5908 88.8959 31.7326C88.9473 31.8091 89.0047 31.9346 88.9765 32.0874C88.9478 32.2429 88.8456 32.3456 88.7499 32.408C88.5745 32.5224 88.2953 32.5847 87.9235 32.6201C87.5633 32.6543 87.0695 32.6664 86.402 32.6474C86.3726 32.6828 86.3372 32.7245 86.2951 32.7715C86.1525 32.9308 85.935 33.1529 85.6277 33.4152C85.0127 33.94 84.0397 34.6244 82.5905 35.2888C79.6918 36.6177 74.8969 37.8622 67.2631 37.599C59.6273 37.3357 54.9656 35.6997 52.2018 34.1082C50.8201 33.3125 49.9155 32.5294 49.3527 31.9383C49.0714 31.6429 48.8759 31.3958 48.7491 31.2197C48.7256 31.1869 48.7045 31.1566 48.6855 31.1289C48.6409 31.1368 48.5904 31.1453 48.5354 31.154C48.3177 31.1881 48.0221 31.2253 47.7194 31.2348C47.4227 31.2441 47.0913 31.2281 46.8156 31.1394C46.5405 31.0509 46.2364 30.8567 46.1849 30.4648L46.183 30.4487C46.1742 30.361 46.1892 30.2817 46.2174 30.2125C46.0971 30.1857 45.9766 30.1469 45.8688 30.0891C45.7494 30.0252 45.6279 29.928 45.5531 29.7806L45.553 29.7807C45.4566 29.5907 45.4677 29.3942 45.5379 29.2249C45.6029 29.068 45.7175 28.9344 45.8367 28.8244C45.8883 28.7768 45.9447 28.7302 46.0047 28.6846C45.8678 28.6404 45.7345 28.5707 45.6203 28.4635C45.4812 28.333 45.3864 28.162 45.3408 27.957V27.9568C45.2462 27.5305 45.4085 27.177 45.6527 26.915C45.8884 26.6621 46.215 26.4746 46.5207 26.3377C46.8313 26.1987 47.1467 26.1005 47.3816 26.0372C47.422 26.0264 47.4602 26.0166 47.4958 26.0076C47.4854 25.8909 47.4739 25.7414 47.4637 25.5618C47.4369 25.0908 47.4191 24.4127 47.4541 23.5776C47.5241 21.9094 47.805 19.6106 48.6491 17.0847C48.6503 17.0808 48.652 17.0751 48.6542 17.0677C48.6586 17.0529 48.6652 17.0314 48.6739 17.0034C48.6913 16.9474 48.7173 16.8654 48.752 16.7602C48.8214 16.5498 48.9259 16.2463 49.0669 15.8709C49.3488 15.1204 49.7775 14.081 50.3651 12.9228C50.4455 12.7643 50.6371 12.702 50.7931 12.7838C50.9491 12.8655 51.0103 13.0602 50.9299 13.2188C50.3552 14.3514 49.936 15.3683 49.6606 16.1013C49.523 16.4677 49.4214 16.7628 49.3545 16.9656C49.321 17.067 49.2962 17.1452 49.2799 17.1978C49.2718 17.224 49.2657 17.2438 49.2618 17.2569C49.2598 17.2634 49.2583 17.2683 49.2574 17.2714C49.257 17.2729 49.2567 17.2741 49.2565 17.2747C49.2564 17.2751 49.2563 17.2753 49.2562 17.2754C49.2551 17.2794 49.2538 17.2834 49.2525 17.2873C48.4307 19.7446 48.1571 21.9824 48.089 23.6051C48.055 24.4162 48.0723 25.0726 48.098 25.5246C48.1109 25.7505 48.1258 25.9253 48.1374 26.0426C48.1432 26.1013 48.1481 26.1456 48.1515 26.1748C48.1533 26.1893 48.1546 26.2002 48.1555 26.2071C48.1559 26.2105 48.1562 26.213 48.1564 26.2145C48.1565 26.2153 48.1566 26.2158 48.1567 26.216C48.18 26.3874 48.0663 26.5471 47.8988 26.578H47.8988L47.8988 26.5781C47.8987 26.5781 47.8985 26.5782 47.8981 26.5782C47.8974 26.5784 47.896 26.5786 47.8941 26.579C47.8903 26.5797 47.8843 26.5809 47.8762 26.5825C47.8601 26.5858 47.8357 26.5908 47.8045 26.5977C47.7419 26.6115 47.6519 26.6327 47.5443 26.6616C47.3278 26.7199 47.0466 26.8081 46.7769 26.9288C46.5023 27.0517 46.2648 27.1973 46.1141 27.3591C45.9718 27.5118 45.9252 27.6546 45.9606 27.8146C45.9802 27.9027 46.0145 27.9544 46.0514 27.989C46.0908 28.0259 46.1497 28.0588 46.2377 28.0808C46.4223 28.1269 46.6798 28.1122 46.9691 28.0531C47.1166 28.0229 47.2633 27.9831 47.4 27.9406C47.5001 27.899 47.5942 27.8612 47.6792 27.8282C47.8084 27.778 47.9173 27.7381 47.9941 27.7106C48.0326 27.6968 48.0631 27.6862 48.0841 27.6789C48.0947 27.6753 48.1029 27.6725 48.1085 27.6705C48.1113 27.6696 48.1135 27.6688 48.1151 27.6683C48.1158 27.6681 48.1164 27.6679 48.1169 27.6677C48.1171 27.6676 48.1173 27.6676 48.1175 27.6675C48.1175 27.6675 48.1176 27.6675 48.1177 27.6675C48.1179 27.668 48.122 27.6804 48.2173 27.9741L48.3506 28.2672C48.3505 28.2672 48.3504 28.2673 48.3503 28.2673C48.3502 28.2674 48.35 28.2675 48.3498 28.2676C48.3493 28.2678 48.3487 28.2681 48.348 28.2684C48.3466 28.2691 48.3445 28.2701 48.342 28.2712C48.3369 28.2736 48.3296 28.2769 48.3203 28.2811C48.3018 28.2894 48.2752 28.3013 48.2416 28.3157C48.1744 28.3447 48.079 28.3842 47.9638 28.4278C47.8619 28.4664 47.7431 28.5085 47.6138 28.5494C47.4283 28.6271 47.225 28.7179 47.0273 28.8173C46.713 28.9753 46.436 29.1437 46.2638 29.3026C46.1772 29.3825 46.1376 29.4416 46.1234 29.4758C46.1216 29.4801 46.1205 29.4835 46.1197 29.4861C46.1247 29.4914 46.1374 29.503 46.1652 29.5179C46.2118 29.5429 46.2826 29.5676 46.3805 29.5876C46.5769 29.6275 46.8303 29.638 47.0932 29.6305C47.2279 29.6267 47.361 29.6182 47.4843 29.6079C47.6202 29.5857 47.7476 29.5692 47.852 29.5572C47.9348 29.5477 48.0042 29.541 48.0531 29.5366C48.0776 29.5344 48.0971 29.5327 48.1106 29.5317C48.1173 29.5311 48.1226 29.5308 48.1263 29.5305C48.1281 29.5303 48.1296 29.5303 48.1306 29.5302C48.1311 29.5301 48.1316 29.5301 48.1319 29.5301H48.1324C48.1325 29.5306 48.1335 29.544 48.1545 29.8522L48.2064 30.1708H48.2062C48.2061 30.1708 48.206 30.1709 48.2058 30.1709C48.2055 30.171 48.205 30.171 48.2043 30.1711C48.2031 30.1713 48.2014 30.1716 48.1992 30.172C48.1949 30.1727 48.1886 30.1737 48.1806 30.175C48.1646 30.1775 48.1415 30.1811 48.1122 30.1854C48.0536 30.194 47.9702 30.2056 47.8695 30.2177C47.7801 30.2284 47.6763 30.2394 47.5636 30.2492C47.4991 30.2599 47.4332 30.2718 47.3678 30.2853C47.1643 30.327 46.987 30.3779 46.8711 30.4346C46.864 30.438 46.8574 30.4414 46.8512 30.4447C46.8779 30.4694 46.9246 30.497 47.0074 30.5236C47.1802 30.5792 47.426 30.5979 47.6997 30.5893C47.9673 30.5809 48.2352 30.5475 48.4384 30.5156C48.5394 30.4998 48.6231 30.4845 48.6811 30.4733C48.7101 30.4677 48.7327 30.4631 48.7477 30.46C48.7551 30.4584 48.7607 30.4572 48.7643 30.4564C48.7661 30.4561 48.7674 30.4558 48.7682 30.4556C48.7685 30.4555 48.7687 30.4555 48.7689 30.4554C48.9062 30.425 49.0468 30.4899 49.1147 30.615H49.1146L49.1147 30.6151C49.1155 30.6165 49.1171 30.6193 49.1196 30.6236C49.1245 30.632 49.1328 30.6459 49.1447 30.665C49.1686 30.7031 49.207 30.7619 49.2621 30.8384C49.3722 30.9914 49.5489 31.2157 49.8093 31.4892C50.3299 32.036 51.1863 32.781 52.5151 33.5462C55.1721 35.0763 59.7291 36.693 67.2846 36.9535C74.842 37.2141 79.5365 35.9804 82.3292 34.7C83.7258 34.0598 84.6491 33.4069 85.219 32.9205C85.5041 32.6772 85.7011 32.4752 85.825 32.3368C85.887 32.2676 85.9307 32.2143 85.958 32.1796C85.9716 32.1622 85.9812 32.1495 85.9869 32.1419C85.9897 32.138 85.9915 32.1354 85.9925 32.1341L85.993 32.1333C85.9929 32.1334 85.9928 32.1336 85.9928 32.1336C86.0545 32.0447 86.1562 31.9933 86.2633 31.997C86.9998 32.0223 87.5138 32.0103 87.8643 31.977C87.9645 31.9675 88.0478 31.9564 88.1168 31.9449C88.0422 31.9133 87.9451 31.876 87.8297 31.8351C87.6431 31.7689 87.4273 31.6993 87.221 31.6355C87.0151 31.5718 86.8207 31.5146 86.6777 31.4733C86.6063 31.4527 86.5478 31.436 86.5073 31.4246C86.487 31.4188 86.4712 31.4144 86.4606 31.4115C86.4552 31.41 86.4512 31.4088 86.4485 31.4081C86.4471 31.4077 86.4461 31.4074 86.4455 31.4073L86.4446 31.407C86.2927 31.3648 86.1941 31.216 86.2128 31.0571C86.2315 30.8982 86.3618 30.7772 86.5192 30.7726C86.9231 30.7609 87.2643 30.7581 87.5527 30.7575H88.063C88.2839 30.7571 88.4524 30.7547 88.5876 30.7445C88.77 30.7308 88.8476 30.7049 88.8874 30.6816C88.9108 30.6679 88.9381 30.6456 88.9744 30.5779C88.8996 30.5221 88.7565 30.458 88.5372 30.3877C88.3181 30.3176 88.0675 30.2541 87.8028 30.1829C87.5457 30.1137 87.276 30.0373 87.0472 29.945H87.0471C87.0078 29.9292 86.9588 29.9076 86.9159 29.8789C86.8969 29.8662 86.8544 29.8363 86.8181 29.7857C86.7782 29.73 86.7175 29.6024 86.7821 29.454C86.8333 29.3364 86.9306 29.2914 86.9575 29.2797C86.9957 29.263 87.0307 29.2557 87.051 29.2522C87.0937 29.2447 87.1386 29.2428 87.1752 29.2422C87.3219 29.2399 87.5647 29.2598 87.8122 29.2823C88.0695 29.3057 88.345 29.3333 88.5827 29.3519C88.701 29.3611 88.8053 29.3677 88.889 29.3703C88.9308 29.3716 88.9652 29.3718 88.9922 29.3711C89.0056 29.3708 89.0161 29.3702 89.0239 29.3696C89.0305 29.3691 89.034 29.3686 89.0349 29.3685L89.0643 29.3633C89.1268 29.3516 89.1738 29.3384 89.2083 29.3258C89.1943 29.3051 89.176 29.281 89.1525 29.2537C89.0866 29.1773 88.994 29.0913 88.8815 29.0003C88.657 28.8186 88.3823 28.6404 88.1585 28.5051C88.0477 28.4381 87.9515 28.3829 87.8833 28.3446C87.8492 28.3254 87.8221 28.3106 87.8038 28.3006C87.7947 28.2956 87.7877 28.2918 87.7831 28.2894C87.7809 28.2882 87.7792 28.2873 87.7781 28.2867C87.7776 28.2864 87.7772 28.2862 87.777 28.2861C87.7769 28.286 87.7769 28.286 87.7768 28.286C87.6428 28.2147 87.5767 28.0572 87.619 27.9096C88.7556 23.9404 88.2177 17.9712 85.984 13.1143C85.9097 12.9527 85.9783 12.7605 86.1373 12.685ZM48.1326 29.53C48.3018 29.5181 48.4503 29.6434 48.4701 29.8146C48.4898 29.9858 48.3738 30.1426 48.2065 30.1708L48.1545 29.8522L48.1326 29.53ZM48.1178 27.6674C48.2777 27.6138 48.451 27.6963 48.5128 27.8555C48.5746 28.0147 48.5036 28.1953 48.3507 28.2672L48.2173 27.9741L48.1178 27.6674Z" fill="#231815"/>
<path d="M59.7075 4.00015C65.8369 2.098 71.2784 1.91364 77.0826 4.15744C77.2466 4.22084 77.329 4.40739 77.2666 4.57409C77.2042 4.74077 77.0207 4.82453 76.8567 4.76115C71.2119 2.57897 65.9187 2.74789 59.893 4.61787C59.7252 4.66994 59.5476 4.57388 59.4964 4.40332C59.4451 4.23274 59.5396 4.05223 59.7075 4.00015Z" fill="#231815"/>
<path d="M62.2313 12.883C62.2313 12.883 63.338 13.6448 64.09 13.6791C64.8419 13.7135 66.312 13.7104 65.7749 12.6487C65.2372 11.587 63.6175 8.99065 62.0846 10.9982C61.3943 11.9023 61.763 12.4929 62.2313 12.8824V12.883Z" fill="#FFF9EF"/>
<path d="M60.9261 36.8598C60.9261 36.8598 61.3353 36.6432 62.0419 36.1814C63.7938 35.0369 67.3724 32.3865 71.0711 27.7974C72.1707 26.4333 75.4765 22.4612 75.4161 21.8479C75.4155 21.8411 75.0704 21.827 74.9937 21.8479C74.8386 21.8902 74.6189 22.3741 74.5363 22.4766C69.4816 28.7444 64.5464 33.1103 60.3395 35.7956C59.905 36.0728 59.4778 36.3329 59.0596 36.5745L60.9261 36.8598Z" fill="#171818"/>
<path d="M81.089 22.8004H69.2609C68.9086 22.8004 68.623 23.0907 68.623 23.4487V40.3136C68.623 40.6716 68.9086 40.9619 69.2609 40.9619H81.089C81.4413 40.9619 81.7269 40.6716 81.7269 40.3136V23.4487C81.7269 23.0907 81.4413 22.8004 81.089 22.8004Z" fill="white"/>
<path d="M80.1952 34.9081H69.9844V35.427H80.1952V34.9081Z" fill="#2463A0"/>
<mask id="mask0_96_862" style="mask-type:luminance" maskUnits="userSpaceOnUse" x="70" y="24" width="10" height="11">
<path d="M79.5141 24.3572H70.835V34.0433H79.5141V24.3572Z" fill="white"/>
</mask>
<g mask="url(#mask0_96_862)">
<path d="M79.5141 24.3572H70.835V34.0433H79.5141V24.3572Z" fill="#98BEDE"/>
</g>
<path d="M81.0327 22.2294H76.9683C76.9683 21.3106 76.1271 20.5654 75.0897 20.5654C74.0523 20.5654 73.2111 21.3106 73.2111 22.2294H69.2837C68.5547 22.2294 67.9639 22.8299 67.9639 23.5708V40.2933C67.9639 41.033 68.5535 41.6323 69.2813 41.6323H81.0393C81.7665 41.6323 82.3561 41.033 82.3561 40.294V23.5745C82.3561 22.8317 81.7635 22.23 81.0333 22.23L81.0327 22.2294ZM75.0559 20.9837C75.3969 20.918 75.6908 21.2168 75.6262 21.5633C75.59 21.7571 75.4361 21.9135 75.2454 21.9503C74.9038 22.016 74.6105 21.7173 74.6751 21.3701C74.7113 21.1763 74.8652 21.0199 75.0559 20.9837ZM81.0888 40.9619H69.2607C68.9101 40.9619 68.6229 40.6699 68.6229 40.3136V23.4488C68.6229 23.0924 68.9101 22.8004 69.2607 22.8004H81.0888C81.4395 22.8004 81.7267 23.0918 81.7267 23.4488V40.3136C81.7267 40.6699 81.4401 40.9619 81.0888 40.9619Z" fill="#231815"/>
<path d="M71.9661 28.0877C71.9661 28.0877 71.6245 26.4518 72.0874 26.0967C72.5503 25.7416 73.8556 26.507 74.0354 26.9057C74.2152 27.3044 72.3771 29.1328 71.9661 28.0877Z" fill="#FFF9EF"/>
<path d="M72.0529 26.0495C72.187 25.9466 72.3746 25.9298 72.5707 25.9587C72.7687 25.9879 72.9866 26.0652 73.1932 26.1652C73.4001 26.2653 73.5982 26.3894 73.7566 26.5145C73.9128 26.6378 74.0378 26.7677 74.089 26.8811C74.122 26.9543 74.1047 27.0468 74.0697 27.1359C74.0333 27.2284 73.9716 27.333 73.8932 27.4408C73.7362 27.6568 73.5064 27.894 73.2581 28.0854C73.0111 28.2757 72.7386 28.426 72.4964 28.4587C72.3741 28.4752 72.2561 28.4621 72.1532 28.4053C72.0498 28.3483 71.968 28.2505 71.9126 28.1097L71.9108 28.105L71.9098 28.1L71.9097 28.0999C71.9097 28.0998 71.9097 28.0997 71.9097 28.0996C71.9097 28.0994 71.9095 28.0991 71.9095 28.0987C71.9093 28.0978 71.909 28.0966 71.9087 28.095C71.908 28.0918 71.9071 28.0871 71.9059 28.0809C71.9035 28.0687 71.9 28.0506 71.8957 28.0277C71.8872 27.9818 71.8756 27.9159 71.8631 27.8358C71.8381 27.6758 71.8096 27.4582 71.7957 27.2291C71.7818 27.0004 71.7823 26.7576 71.8163 26.548C71.85 26.3413 71.9185 26.1526 72.0529 26.0495ZM72.554 26.0759C72.3696 26.0487 72.2204 26.0694 72.1231 26.144C72.0261 26.2184 71.9638 26.3675 71.9313 26.5673C71.8992 26.7643 71.8983 26.9971 71.9119 27.2218C71.9256 27.4459 71.9535 27.6595 71.9781 27.8173C71.9904 27.8961 72.0018 27.9608 72.0102 28.0058C72.0143 28.0282 72.0177 28.0457 72.0201 28.0576C72.0211 28.063 72.022 28.0672 72.0226 28.0702C72.0698 28.188 72.1346 28.2605 72.2088 28.3014C72.2844 28.3431 72.376 28.3556 72.4811 28.3414C72.6934 28.3127 72.9463 28.177 73.1877 27.991C73.4278 27.8061 73.6496 27.5767 73.7995 27.3704C73.8746 27.2671 73.9302 27.1716 73.9615 27.0919C73.9942 27.0088 73.995 26.9569 73.9831 26.9304C73.9443 26.8445 73.8387 26.7292 73.6852 26.608C73.5338 26.4885 73.3429 26.3687 73.1431 26.272C72.943 26.1752 72.7366 26.1028 72.554 26.0759Z" fill="#231815"/>
<path d="M72.6013 27.4872C72.6013 27.4872 72.343 26.8383 72.5584 26.6733C72.7739 26.5083 73.3816 26.8641 73.4649 27.0499C73.5487 27.2358 72.8668 28.1656 72.6007 27.4872H72.6013Z" fill="#79371E"/>
<path d="M72.5578 26.6726C72.6119 26.6311 72.6906 26.6224 72.7792 26.6355C72.8679 26.6486 72.9668 26.6834 73.0615 26.7292C73.1562 26.775 73.2467 26.8318 73.3188 26.8887C73.3909 26.9457 73.4447 27.0029 73.4656 27.0496C73.4762 27.0731 73.4747 27.1082 73.4635 27.1501C73.4524 27.1921 73.4315 27.2411 73.4034 27.2925C73.347 27.3953 73.2612 27.5079 73.1645 27.5934C73.0678 27.6789 72.96 27.7375 72.8596 27.7322C72.7591 27.7268 72.6663 27.6574 72.5997 27.4876C72.5996 27.4873 72.5997 27.487 72.5999 27.4868L72.6 27.4866C72.5999 27.4864 72.5998 27.4861 72.5996 27.4858C72.5991 27.4845 72.5984 27.4826 72.5975 27.4802C72.5957 27.4754 72.593 27.4684 72.5897 27.4594C72.583 27.4413 72.5737 27.4153 72.5633 27.3836C72.5425 27.3201 72.5169 27.2338 72.4981 27.1424C72.4793 27.0509 72.4672 26.9542 72.4733 26.8701C72.4794 26.7859 72.5036 26.7141 72.5578 26.6726ZM72.779 26.6374C72.6905 26.6243 72.6125 26.633 72.5589 26.6741C72.5053 26.7151 72.4811 26.7862 72.475 26.8702C72.469 26.9541 72.481 27.0506 72.4998 27.142C72.5187 27.2334 72.5442 27.3196 72.565 27.383C72.5754 27.4147 72.5847 27.4407 72.5914 27.4587C72.5947 27.4678 72.5974 27.4748 72.5992 27.4796C72.6001 27.482 72.6008 27.4838 72.6013 27.485C72.6015 27.4856 72.6017 27.4862 72.6019 27.4865C72.6019 27.4866 72.602 27.4867 72.602 27.4868L72.602 27.4869C72.6022 27.4872 72.6021 27.4875 72.6019 27.4878H72.6018C72.6682 27.6565 72.7604 27.725 72.8598 27.7303C72.9594 27.7356 73.0668 27.6774 73.1633 27.592C73.2599 27.5066 73.3455 27.3942 73.4018 27.2916C73.4299 27.2403 73.4506 27.1915 73.4618 27.1497C73.4729 27.1078 73.4743 27.0732 73.4639 27.0503C73.4432 27.004 73.3897 26.9471 73.3177 26.8902C73.2457 26.8333 73.1553 26.7767 73.0607 26.7309C72.9661 26.6852 72.8675 26.6504 72.779 26.6374Z" fill="#231815"/>
<path d="M78.6031 28.0877C78.6031 28.0877 78.9447 26.4518 78.4818 26.0967C78.019 25.7416 76.7137 26.507 76.5338 26.9057C76.354 27.3044 78.1922 29.1328 78.6031 28.0877Z" fill="#FFF9EF"/>
<path d="M77.9997 25.9587C78.1959 25.9298 78.3835 25.9466 78.5176 26.0495C78.652 26.1526 78.7205 26.3413 78.7542 26.548C78.7882 26.7576 78.7887 27.0004 78.7748 27.2291C78.7609 27.4582 78.7324 27.6758 78.7074 27.8358C78.6949 27.9159 78.6833 27.9818 78.6748 28.0277C78.6705 28.0506 78.667 28.0687 78.6646 28.0809C78.6634 28.0871 78.6625 28.0918 78.6618 28.095C78.6615 28.0966 78.6612 28.0978 78.661 28.0987L78.6607 28.0999V28.1L78.6597 28.105L78.6579 28.1097C78.6025 28.2505 78.5207 28.3483 78.4173 28.4053C78.3144 28.4621 78.1964 28.4752 78.0741 28.4587C77.8319 28.426 77.5594 28.2757 77.3124 28.0854C77.0641 27.894 76.8343 27.6568 76.6773 27.4408C76.5989 27.333 76.5372 27.2284 76.5008 27.1359C76.4658 27.0468 76.4485 26.9543 76.4815 26.8811C76.5327 26.7677 76.6577 26.6378 76.8139 26.5145C76.9723 26.3894 77.1704 26.2653 77.3773 26.1652C77.5839 26.0652 77.8018 25.9879 77.9997 25.9587ZM78.4474 26.144C78.3501 26.0694 78.2009 26.0487 78.0165 26.0759C77.8339 26.1028 77.6275 26.1752 77.4274 26.272C77.2276 26.3687 77.0367 26.4885 76.8853 26.608C76.7318 26.7292 76.6262 26.8445 76.5874 26.9304C76.5755 26.9569 76.5763 27.0088 76.609 27.0919C76.6403 27.1716 76.6959 27.2671 76.771 27.3704C76.9209 27.5767 77.1426 27.8061 77.3827 27.991C77.6241 28.177 77.8771 28.3127 78.0894 28.3414C78.1945 28.3556 78.2861 28.3431 78.3617 28.3014C78.4358 28.2605 78.5006 28.188 78.5478 28.0702C78.5484 28.0672 78.5494 28.063 78.5504 28.0576C78.5528 28.0457 78.5562 28.0282 78.5603 28.0058C78.5687 27.9608 78.5801 27.8961 78.5924 27.8173C78.617 27.6595 78.6449 27.4459 78.6586 27.2218C78.6722 26.9971 78.6713 26.7643 78.6392 26.5673C78.6067 26.3675 78.5444 26.2184 78.4474 26.144Z" fill="#231815"/>
<path d="M77.9683 27.4872C77.9683 27.4872 78.2266 26.8383 78.0112 26.6733C77.7957 26.5083 77.188 26.8641 77.1048 27.0499C77.0209 27.2358 77.7028 28.1656 77.9689 27.4872H77.9683Z" fill="#79371E"/>
<path d="M77.7911 26.6355C77.8798 26.6224 77.9585 26.6311 78.0126 26.6726C78.0668 26.7141 78.0911 26.7859 78.0972 26.8701C78.1033 26.9542 78.0911 27.0509 78.0723 27.1424C78.0535 27.2338 78.0279 27.3201 78.0071 27.3836C77.9966 27.4153 77.9874 27.4413 77.9807 27.4594C77.9774 27.4684 77.9748 27.4754 77.973 27.4802C77.972 27.4826 77.9713 27.4845 77.9708 27.4858C77.9707 27.4861 77.9705 27.4864 77.9704 27.4867C77.9705 27.4867 77.9706 27.4867 77.9706 27.4868C77.9708 27.487 77.9708 27.4873 77.9707 27.4876C77.904 27.6574 77.8113 27.7268 77.7108 27.7322C77.6104 27.7375 77.5026 27.6789 77.4059 27.5934C77.3092 27.5079 77.2234 27.3953 77.1671 27.2925C77.1389 27.2411 77.1181 27.1921 77.1069 27.1501C77.0958 27.1082 77.0942 27.0731 77.1048 27.0496C77.1257 27.0029 77.1795 26.9457 77.2516 26.8887C77.3237 26.8318 77.4142 26.775 77.5089 26.7292C77.6036 26.6834 77.7025 26.6486 77.7911 26.6355ZM78.0116 26.6741C77.958 26.633 77.8799 26.6243 77.7914 26.6374C77.7029 26.6504 77.6043 26.6852 77.5097 26.7309C77.4151 26.7767 77.3247 26.8333 77.2527 26.8902C77.1807 26.9471 77.1272 27.004 77.1065 27.0503C77.0961 27.0732 77.0975 27.1078 77.1086 27.1497C77.1198 27.1915 77.1406 27.2403 77.1687 27.2916C77.2249 27.3942 77.3105 27.5066 77.4071 27.592C77.5037 27.6774 77.611 27.7356 77.7107 27.7303C77.8101 27.725 77.9022 27.6566 77.9686 27.4878L77.9685 27.4878C77.9683 27.4875 77.9683 27.4872 77.9684 27.4869V27.4868C77.9684 27.4867 77.9685 27.4866 77.9686 27.4865C77.9687 27.4862 77.9689 27.4856 77.9691 27.485C77.9696 27.4838 77.9703 27.482 77.9712 27.4796C77.9731 27.4748 77.9758 27.4678 77.9791 27.4587C77.9857 27.4407 77.9949 27.4147 78.0054 27.383C78.0262 27.3196 78.0517 27.2334 78.0705 27.142C78.0894 27.0506 78.1014 26.9541 78.0954 26.8702C78.0893 26.7862 78.0651 26.7151 78.0116 26.6741Z" fill="#231815"/>
<path d="M71.7845 28.912C71.7845 28.912 72.3065 27.0542 73.6517 26.6206C74.9968 26.1869 76.1289 26.2016 77.4427 26.8825C78.6122 27.4885 79.1952 29.6916 78.8747 30.9245C78.8747 30.9245 79.3672 31.1864 79.0872 31.233C79.0226 31.244 78.6339 31.1845 78.7359 31.225C78.8886 31.287 79.1692 31.3127 79.1234 31.4127C79.0769 31.5127 79.0099 31.4783 78.6201 31.49C78.6201 31.49 78.8892 31.5648 78.9598 31.6035C79.0298 31.6421 79.1131 31.7323 78.57 31.7139C78.57 31.7139 77.8778 32.7155 75.1012 32.6198C72.3246 32.5241 71.7314 31.4311 71.7314 31.4311C71.7314 31.4311 71.3247 31.5213 71.3041 31.3673C71.2933 31.2851 71.6065 31.263 71.6065 31.263C71.6065 31.263 71.2348 31.3256 71.1829 31.2232C71.1147 31.0888 71.618 30.9202 71.618 30.9202C71.618 30.9202 71.1967 31.1183 71.1491 30.9042C71.1014 30.6902 71.5498 30.6074 71.5498 30.6074C71.5498 30.6074 71.4798 29.6518 71.7851 28.9133L71.7845 28.912Z" fill="#EC7032"/>
<path d="M75.3985 28.0786C75.3985 28.0786 75.8246 27.4468 76.113 27.6149C76.4238 27.7958 76.1553 28.0326 75.9266 28.1166C75.7516 28.181 75.4903 28.3325 75.4172 28.257C75.3213 28.1583 75.3985 28.0786 75.3985 28.0786Z" fill="#FFF9EF"/>
<path d="M74.2447 28.0926C74.2447 28.0926 74.4444 28.23 74.5802 28.2361C74.716 28.2423 74.9815 28.2416 74.8843 28.0503C74.7872 27.8589 74.4951 27.3903 74.2181 27.7522C74.0938 27.9153 74.1602 28.0221 74.2447 28.092V28.0926Z" fill="#FFF9EF"/>
<path d="M72.4791 32.0169C72.4791 32.0169 73.5581 32.4996 73.7138 32.415C73.4109 31.6158 73.2316 30.7878 73.5539 30.1413C73.8762 29.4948 73.9516 29.466 73.5026 29.393C73.0916 29.3261 72.9317 29.439 72.6602 29.78C72.012 30.5933 72.0603 31.7035 72.4791 32.0175V32.0169Z" fill="#FFF9EF"/>
<path d="M76.3297 32.521C76.6387 32.3192 77.046 31.1342 76.9802 30.4694C76.9362 30.021 76.8372 29.9474 76.7238 29.6879C76.6025 29.4089 77.2494 29.3702 77.3785 29.3659C77.5077 29.361 77.8776 29.5506 78.0279 30.1112C78.285 31.0698 78.1437 32.0285 77.6417 32.2745C77.6417 32.2745 76.7485 32.5885 76.3291 32.521H76.3297Z" fill="#FFF9EF"/>
<path d="M73.9296 30.9459C73.8451 30.5055 74.1016 29.8541 74.3068 29.5683C74.55 29.2291 74.8735 29.2144 75.1269 29.2144C75.41 29.2144 75.5982 29.2413 75.8517 29.5762C76.1045 29.9117 76.2826 30.5496 76.2615 30.8575C76.2186 31.4844 75.5506 31.6402 75.0829 31.6236C74.3394 31.5972 74.0292 31.4617 73.9296 30.9452V30.9459Z" fill="#FFF9EF"/>
<path d="M76.2569 29.1892C76.2623 29.0255 76.1549 28.9095 76.0173 28.9046C75.8797 28.8997 75.7645 29.0077 75.759 29.1715C75.753 29.3518 75.861 29.4579 75.9986 29.4628C76.1362 29.4677 76.2521 29.3456 76.2575 29.1892H76.2569Z" fill="#231815"/>
<path d="M73.9713 29.185C73.9659 29.0213 74.0733 28.9053 74.2109 28.9004C74.3485 28.8955 74.4637 29.0035 74.4692 29.1672C74.4752 29.3476 74.3672 29.4537 74.2296 29.4586C74.092 29.4635 73.9761 29.3414 73.9707 29.185H73.9713Z" fill="#231815"/>
<path d="M74.8072 29.6597C74.8241 29.5615 74.9394 29.4382 75.127 29.4382C75.3147 29.4382 75.4137 29.5726 75.4246 29.6627C75.4499 29.8676 74.7692 29.8811 74.8072 29.6603V29.6597Z" fill="#231815"/>
<path d="M78.548 28.1027C78.5772 28.0889 78.6118 28.1016 78.6255 28.1312C79.0354 29.0224 79.143 30.116 78.9429 30.8724C78.9529 30.8782 78.9644 30.885 78.9768 30.8924C79.0194 30.9183 79.0748 30.9541 79.1219 30.9922C79.1454 31.0112 79.1682 31.0318 79.1865 31.0531C79.2039 31.0733 79.2221 31.0994 79.2286 31.1295C79.2321 31.1456 79.2326 31.1638 79.2267 31.1825C79.2208 31.2012 79.2097 31.2166 79.1961 31.2285C79.1749 31.2469 79.1467 31.2579 79.1157 31.2648C79.124 31.2696 79.1319 31.2747 79.1389 31.2803C79.1551 31.293 79.1721 31.311 79.1808 31.3361C79.1901 31.3631 79.187 31.3905 79.1758 31.4149L79.1757 31.4152C79.1611 31.4467 79.1414 31.4748 79.1086 31.4939C79.0781 31.5117 79.0424 31.5179 79.0045 31.5207C78.9951 31.5214 78.9851 31.5219 78.9745 31.5223L78.9871 31.5286L78.9873 31.5287C79.0061 31.5391 79.0351 31.5574 79.0525 31.5834C79.062 31.5973 79.0725 31.6203 79.0674 31.6482C79.0622 31.6767 79.0435 31.6956 79.026 31.7071C78.994 31.728 78.9429 31.7394 78.875 31.7459C78.8092 31.7522 78.719 31.7545 78.5971 31.7511C78.5917 31.7576 78.5853 31.7652 78.5776 31.7738C78.5515 31.8029 78.5118 31.8435 78.4556 31.8914C78.3432 31.9874 78.1653 32.1124 77.9005 32.2339C77.3706 32.4768 76.4943 32.7042 75.099 32.6561C73.7033 32.608 72.8512 32.3091 72.3461 32.0183C72.0936 31.8729 71.9282 31.7298 71.8254 31.6218C71.7739 31.5678 71.7382 31.5226 71.715 31.4904C71.7107 31.4844 71.7068 31.4788 71.7034 31.4737C71.6952 31.4751 71.6861 31.4769 71.6761 31.4785C71.6364 31.4847 71.5823 31.4916 71.527 31.4933C71.4727 31.4951 71.4121 31.4921 71.3617 31.4759C71.3113 31.4596 71.2557 31.4241 71.2462 31.3525V31.3524C71.2439 31.3352 71.2466 31.3197 71.2521 31.3062C71.2302 31.3013 71.2082 31.2944 71.1885 31.2839C71.1667 31.2722 71.1444 31.2545 71.1308 31.2275L71.1308 31.2275C71.1132 31.1927 71.1152 31.1568 71.128 31.1258C71.1399 31.0971 71.1609 31.0727 71.1826 31.0526C71.192 31.0439 71.2022 31.0355 71.2131 31.0273C71.1882 31.0192 71.1639 31.0066 71.1431 30.9871C71.1177 30.9632 71.1003 30.932 71.0919 30.8945C71.0746 30.8165 71.1043 30.7519 71.149 30.704C71.1921 30.6578 71.2519 30.6236 71.3078 30.5986C71.3646 30.5732 71.4223 30.5552 71.4653 30.5437C71.4726 30.5417 71.4796 30.5399 71.4861 30.5383C71.4842 30.517 71.482 30.4897 71.4801 30.4569C71.4752 30.3709 71.472 30.2469 71.4784 30.0943C71.4911 29.7896 71.5424 29.3697 71.6965 28.9081L71.6977 28.9043C71.6985 28.9016 71.6997 28.8976 71.7013 28.8925C71.7045 28.8822 71.7093 28.8672 71.7156 28.848C71.7283 28.8096 71.7475 28.7541 71.7733 28.6855C71.8248 28.5484 71.9032 28.3584 72.0106 28.147C72.0254 28.1179 72.0606 28.1065 72.0891 28.1215C72.1177 28.1365 72.1289 28.1722 72.1142 28.2012C72.0092 28.408 71.9324 28.5938 71.882 28.7278C71.8569 28.7947 71.8383 28.8487 71.826 28.8857C71.8199 28.9042 71.8154 28.9186 71.8124 28.9282C71.8109 28.933 71.8097 28.9366 71.809 28.939C71.8087 28.9402 71.8084 28.9411 71.8083 28.9416C71.8082 28.9419 71.8081 28.9421 71.8081 28.9422L71.808 28.9423C71.8078 28.9431 71.8076 28.9438 71.8074 28.9445C71.6572 29.3938 71.6072 29.8028 71.5947 30.0993C71.5885 30.2476 71.5917 30.3675 71.5964 30.4501C71.5987 30.4914 71.6015 30.5233 71.6036 30.5447C71.6047 30.5555 71.6056 30.5636 71.6062 30.5689C71.6066 30.5716 71.6068 30.5735 71.6069 30.5748C71.607 30.5754 71.6071 30.5759 71.6071 30.5762C71.6071 30.5763 71.6071 30.5764 71.6071 30.5764C71.6114 30.6078 71.5906 30.6371 71.5599 30.6428C71.5599 30.6428 71.5598 30.6428 71.5597 30.6429C71.5596 30.6429 71.5594 30.6429 71.559 30.643C71.5583 30.6431 71.5572 30.6433 71.5557 30.6436C71.5528 30.6442 71.5483 30.6451 71.5427 30.6464C71.5312 30.6489 71.5147 30.6528 71.495 30.6581C71.4554 30.6687 71.404 30.6849 71.3547 30.7069C71.3044 30.7294 71.261 30.756 71.2335 30.7855C71.2075 30.8133 71.1991 30.8393 71.2056 30.8684C71.2091 30.8844 71.2154 30.8938 71.2221 30.9001C71.2292 30.9068 71.24 30.9128 71.256 30.9168C71.2897 30.9252 71.3367 30.9225 71.3896 30.9117C71.4169 30.9061 71.4441 30.8986 71.4694 30.8906C71.4873 30.8832 71.5041 30.8765 71.5193 30.8706C71.5429 30.8614 71.5628 30.8541 71.5768 30.8491C71.5839 30.8466 71.5894 30.8446 71.5933 30.8433C71.5952 30.8426 71.5967 30.8421 71.5978 30.8418C71.5983 30.8416 71.5987 30.8414 71.5989 30.8414C71.5991 30.8413 71.5992 30.8413 71.5993 30.8412L71.5993 30.8412H71.5994L71.6049 30.8396C71.6326 30.8333 71.6612 30.8483 71.6718 30.8757C71.6831 30.9048 71.6701 30.9379 71.6421 30.9511L71.6177 30.8974L71.6421 30.9511L71.642 30.9512C71.6419 30.9512 71.6417 30.9513 71.6416 30.9513C71.6413 30.9514 71.641 30.9517 71.6405 30.9519C71.6396 30.9523 71.6383 30.9529 71.6366 30.9537C71.6332 30.9552 71.6283 30.9574 71.6222 30.96C71.6099 30.9653 71.5924 30.9725 71.5714 30.9805C71.5534 30.9873 71.5324 30.9946 71.5096 31.0018C71.4751 31.0162 71.4372 31.0331 71.4003 31.0516C71.3429 31.0805 71.2923 31.1112 71.2609 31.1402C71.2451 31.1548 71.2379 31.1655 71.2353 31.1718C71.235 31.1725 71.2348 31.1731 71.2347 31.1736C71.2356 31.1746 71.238 31.1765 71.2428 31.1791C71.2513 31.1836 71.2642 31.1881 71.282 31.1918C71.3179 31.199 71.3642 31.2009 71.4122 31.1995C71.4374 31.1988 71.4623 31.1972 71.4853 31.1952C71.5095 31.1913 71.5322 31.1883 71.5509 31.1862C71.566 31.1844 71.5787 31.1832 71.5876 31.1824C71.5921 31.182 71.5957 31.1817 71.5982 31.1815C71.5994 31.1814 71.6003 31.1813 71.601 31.1813C71.6013 31.1812 71.6016 31.1812 71.6018 31.1812H71.6021L71.6062 31.2403L71.6157 31.2987H71.6156C71.6155 31.2987 71.6154 31.2987 71.6153 31.2987C71.6151 31.2988 71.6148 31.2988 71.6144 31.2989C71.6136 31.299 71.6124 31.2992 71.611 31.2994C71.608 31.2999 71.6038 31.3005 71.5985 31.3013C71.5878 31.3029 71.5725 31.305 71.5541 31.3072C71.5381 31.3091 71.5196 31.311 71.4996 31.3128C71.4874 31.3148 71.4749 31.317 71.4625 31.3196C71.4253 31.3272 71.3929 31.3365 71.3718 31.3469C71.3706 31.3475 71.3694 31.3481 71.3684 31.3486C71.3733 31.3531 71.3818 31.3582 71.3969 31.363C71.4284 31.3732 71.4734 31.3766 71.5234 31.375C71.5723 31.3734 71.6212 31.3673 71.6583 31.3615C71.6768 31.3586 71.6921 31.3558 71.7027 31.3538C71.7079 31.3528 71.7121 31.3519 71.7148 31.3513C71.7162 31.351 71.7172 31.3508 71.7179 31.3507C71.7182 31.3506 71.7184 31.3506 71.7186 31.3505L71.7187 31.3505C71.7439 31.3449 71.7697 31.3568 71.7821 31.3797C71.7822 31.38 71.7825 31.3805 71.783 31.3813C71.7839 31.3828 71.7854 31.3854 71.7876 31.3889C71.7919 31.3958 71.799 31.4065 71.809 31.4205C71.8291 31.4485 71.8615 31.4894 71.909 31.5394C72.0042 31.6393 72.1606 31.7755 72.4035 31.9153C72.8891 32.1948 73.7219 32.4903 75.1029 32.5378C76.4841 32.5854 77.3421 32.36 77.8526 32.126C78.1078 32.009 78.2766 31.8896 78.3807 31.8007C78.4328 31.7563 78.4688 31.7194 78.4914 31.6941C78.5028 31.6815 78.5107 31.6717 78.5157 31.6654C78.5182 31.6622 78.5199 31.6599 78.521 31.6585C78.5215 31.6578 78.5219 31.6573 78.522 31.657C78.5221 31.6569 78.5222 31.6569 78.5222 31.6569L78.5221 31.6569C78.5334 31.6407 78.552 31.6313 78.5716 31.6319C78.7062 31.6365 78.8001 31.6342 78.8641 31.6281C78.8819 31.6264 78.8969 31.6244 78.9093 31.6223C78.8719 31.6066 78.809 31.5855 78.7462 31.5661C78.7086 31.5544 78.6731 31.544 78.647 31.5364C78.6339 31.5326 78.6233 31.5296 78.6159 31.5275C78.6122 31.5264 78.6093 31.5256 78.6073 31.5251C78.6064 31.5248 78.6056 31.5246 78.6051 31.5245C78.6049 31.5244 78.6047 31.5243 78.6046 31.5243H78.6044C78.5766 31.5166 78.5585 31.4893 78.5619 31.4602C78.5654 31.4311 78.5892 31.4089 78.618 31.408C78.7164 31.4051 78.7944 31.405 78.8564 31.4051C78.9192 31.4051 78.9629 31.4051 78.9959 31.4027C79.0291 31.4002 79.0434 31.3955 79.0507 31.3912C79.0549 31.3888 79.0596 31.3847 79.0661 31.3728C79.0523 31.3626 79.0262 31.351 78.9864 31.3383C78.9463 31.3255 78.9005 31.3139 78.8521 31.3008C78.8051 31.2882 78.7558 31.2742 78.714 31.2572V31.2572C78.7069 31.2543 78.6982 31.2505 78.6906 31.2455C78.6872 31.2433 78.6794 31.238 78.6727 31.2289C78.6654 31.219 78.6534 31.1953 78.6656 31.1674C78.6752 31.1455 78.6934 31.1373 78.6981 31.1353C78.7051 31.1324 78.7114 31.1311 78.7151 31.1305C78.7228 31.1292 78.731 31.1288 78.7377 31.1287C78.7644 31.1284 78.8088 31.1321 78.854 31.1362C78.901 31.1405 78.9514 31.1456 78.9948 31.1489C79.0164 31.1506 79.0354 31.1518 79.0507 31.1522C79.0583 31.1524 79.0646 31.1525 79.0695 31.1523C79.0719 31.1523 79.0738 31.1522 79.0752 31.152C79.0764 31.1519 79.077 31.1519 79.0772 31.1519L79.0774 31.1518C79.0914 31.1495 79.1015 31.1466 79.1088 31.144C79.1062 31.1403 79.103 31.1359 79.0989 31.1311C79.0868 31.1171 79.0699 31.1014 79.0494 31.0848C79.0083 31.0516 78.9581 31.019 78.9172 30.9942C78.897 30.982 78.8794 30.9719 78.8669 30.9649C78.8607 30.9614 78.8557 30.9586 78.8524 30.9568C78.8507 30.9559 78.8494 30.9552 78.8486 30.9547C78.8482 30.9545 78.8478 30.9544 78.8476 30.9543C78.8476 30.9542 78.8475 30.9542 78.8475 30.9541H78.8474C78.8228 30.9411 78.8108 30.9122 78.8185 30.8851C79.0263 30.1596 78.9284 29.0692 78.52 28.1814C78.5063 28.1518 78.5189 28.1165 78.548 28.1027ZM71.6022 31.1812C71.6332 31.179 71.6604 31.202 71.6641 31.2334C71.6677 31.2648 71.6464 31.2935 71.6157 31.2987L71.6062 31.2403L71.6022 31.1812Z" fill="#231815"/>
<path d="M73.718 26.5154C74.8385 26.1678 75.8328 26.1338 76.8938 26.5443C76.9239 26.5559 76.9389 26.5901 76.9275 26.6206C76.9161 26.6512 76.8824 26.6665 76.8523 26.6549C75.8205 26.2558 74.8535 26.2869 73.752 26.6286C73.7213 26.6382 73.6887 26.6206 73.6793 26.5893C73.6699 26.5581 73.6872 26.525 73.718 26.5154Z" fill="#231815"/>
<path d="M74.5869 29.9652C74.5869 29.9652 74.5857 30.7889 75.0721 30.8061C75.5591 30.8226 75.5965 30.178 75.6014 30.0326C75.4927 30.0136 75.2308 29.894 75.0908 29.7885C74.9991 29.886 74.8627 30.1338 74.5869 29.9658V29.9652Z" fill="#DE6164"/>
<path d="M74.6306 30.2565C74.6306 30.2565 74.9836 29.9989 75.5569 30.2565C75.5569 30.2565 75.6553 29.9676 75.601 29.9087C75.2479 29.9983 75.0935 29.7407 75.0935 29.7407C75.0935 29.7407 74.9498 30.0547 74.5859 29.9198C74.592 30.0657 74.63 30.2559 74.63 30.2559L74.6306 30.2565Z" fill="white"/>
<path d="M75.0882 29.7101C75.1007 29.7087 75.113 29.7147 75.1198 29.7255C75.1686 29.8031 75.2656 29.8702 75.3638 29.9041C75.4126 29.9208 75.4595 29.9287 75.4987 29.9264C75.5381 29.9241 75.5662 29.912 75.5831 29.8928C75.5924 29.8823 75.6072 29.8788 75.6201 29.884C75.6331 29.8893 75.6414 29.9023 75.641 29.9164C75.6352 30.0979 75.6045 30.327 75.525 30.5118C75.4454 30.6967 75.3126 30.8458 75.1003 30.8458C74.9651 30.8458 74.8626 30.7858 74.7865 30.6977C74.7112 30.6106 74.6615 30.4961 74.6285 30.3845C74.5953 30.2725 74.5781 30.161 74.5692 30.0778C74.5648 30.0361 74.5623 30.0013 74.561 29.9769C74.5604 29.9647 74.56 29.955 74.5598 29.9484C74.5597 29.9451 74.5597 29.9425 74.5596 29.9407C74.5596 29.9398 74.5596 29.9391 74.5596 29.9387V29.9379C74.5595 29.9289 74.5629 29.9202 74.5691 29.9138C74.5754 29.9073 74.5839 29.9038 74.5928 29.9038H74.5933L74.5979 29.9041C74.6024 29.9047 74.6068 29.9062 74.6107 29.9087C74.6983 29.963 74.7964 29.9565 74.8815 29.9162C74.9676 29.8755 75.0355 29.8023 75.0606 29.7321L75.0626 29.7278C75.0677 29.718 75.0772 29.7113 75.0882 29.7101ZM75.0982 29.8077C75.0575 29.8773 74.9891 29.9398 74.9096 29.9774C74.825 30.0175 74.7246 30.0308 74.6286 29.9926C74.63 30.0138 74.6319 30.0403 74.6352 30.0705C74.6438 30.1513 74.6604 30.2584 74.6921 30.3651C74.7238 30.4721 74.7699 30.5763 74.8364 30.6532C74.902 30.7291 74.9872 30.7784 75.1003 30.7784C75.2742 30.7784 75.3893 30.6586 75.4641 30.4848C75.53 30.3317 75.5611 30.1434 75.5715 29.9795C75.5499 29.9878 75.5265 29.9923 75.5025 29.9937C75.4526 29.9966 75.3969 29.9867 75.3426 29.968C75.2528 29.9371 75.1607 29.8801 75.0982 29.8077Z" fill="#231815"/>
<path d="M75.1323 29.7171C75.1905 29.8128 75.2707 29.8701 75.3619 29.8917C75.4536 29.9134 75.5603 29.8997 75.6715 29.8461C75.6935 29.8355 75.7198 29.8451 75.7302 29.8674C75.7406 29.8897 75.7312 29.9164 75.7093 29.927C75.5839 29.9875 75.4568 30.006 75.3419 29.9789C75.247 29.9564 75.163 29.9032 75.0974 29.8214C74.9376 30.0485 74.6422 30.0487 74.4731 29.9227C74.4535 29.9081 74.4492 29.88 74.4636 29.8601C74.478 29.8402 74.5056 29.8358 74.5252 29.8504C74.673 29.9607 74.9383 29.9486 75.0557 29.7199L75.0915 29.6501L75.1323 29.7171Z" fill="#231815"/>
<path d="M71.8952 38.0356C71.7063 38.0712 71.5144 38.0957 71.3696 38.1122V38.8863H70.859V38.1343C70.6937 38.1423 70.5102 38.1423 70.3425 38.1423L70.2942 37.7884C70.7426 37.7884 71.3472 37.7859 71.8656 37.7172L71.8952 38.0356ZM70.2725 37.4192C70.6551 37.3517 70.7957 37.172 70.8089 36.9837H70.3479V36.6377H70.8584V36.4648H71.369V36.6377H71.7093V36.9837H71.2513C71.2676 37.1585 71.4046 37.318 71.7745 37.3774L71.6073 37.7258C71.3322 37.6755 71.1493 37.5627 71.0383 37.4112C70.9278 37.5823 70.7359 37.7117 70.4451 37.7688L70.2725 37.4198V37.4192ZM72.3901 36.2918V38.8863H71.8795V36.2918H72.3901Z" fill="#231815"/>
<path d="M74.9425 36.4648V37.8486H74.432V37.3297H74.0941C74.0198 37.5928 73.7694 37.7719 73.4556 37.7719C73.0808 37.7719 72.793 37.5149 72.793 37.1604C72.793 36.8089 73.0808 36.5513 73.4556 36.5513C73.7646 36.5513 74.0126 36.7255 74.0916 36.9831H74.432V36.4642H74.9425V36.4648ZM74.432 37.8486H74.9425V38.8864H73.2407V37.8486H73.5811V38.0215H74.432V37.8486ZM73.7271 37.1052C73.7271 36.9353 73.6167 36.847 73.4652 36.847C73.3138 36.847 73.2033 36.9353 73.2033 37.1052C73.2033 37.2757 73.3144 37.3665 73.4652 37.3665C73.6167 37.3665 73.7271 37.2757 73.7271 37.1052ZM74.432 38.3675H73.5811V38.5404H74.432V38.3675Z" fill="#231815"/>
<path d="M76.4539 37.9535C76.0973 38.0406 75.6284 38.0491 75.3381 38.0491L75.2977 37.6756H75.4534V36.9837H75.2832V36.6378H76.4745V36.9837H76.3043V37.6321C76.3501 37.6265 76.3906 37.621 76.4316 37.6149L76.4545 37.9535H76.4539ZM77.4949 38.5404V38.8864H75.623V38.0215H76.1335V38.5404H77.4949ZM75.7931 37.602L75.9633 37.5965V36.9837H75.7931V37.602ZM76.9844 38.3675H76.4739V36.4648H76.8142V37.1567H76.9844V36.4648H77.3248V38.3675H76.9844Z" fill="#231815"/>
<path d="M78.3465 38.0019C78.6355 37.9988 78.8902 37.9798 79.1648 37.9283L79.2016 38.289C78.8612 38.357 78.5354 38.3681 78.1528 38.3681H77.8359V36.6384H79.0272V36.9843H78.3465V38.0025V38.0019ZM80.0483 37.6756H79.7079V38.8864H79.1974V36.2919H79.7079V37.3297H80.0483V37.6756Z" fill="#231815"/>
<path opacity="0.5" d="M80.1455 32.3719L70.6836 38.0179L70.6902 39.4562L80.1328 33.8599L80.1455 32.3719Z" fill="white"/>
<path opacity="0.5" d="M81.126 26.8222L69.8066 33.7954L69.8422 38.0331L81.1151 31.177L81.126 26.8222Z" fill="white"/>
<path d="M78.9162 41.5986C79.0568 42.3819 78.8263 43.0332 78.4334 43.684C78.0544 44.3115 77.6236 44.8077 77.2868 44.9721C76.9501 45.1364 74.4505 45.6468 72.278 45.1561C70.9111 44.8475 69.8206 40.8718 72.447 39.8475C74.3183 39.1176 76.3213 39.5132 77.0424 40.1572C77.3852 40.4639 77.5674 41.0355 77.7093 41.5986" fill="#E24D4D"/>
<path d="M72.3339 39.5477C73.3214 39.1625 74.3407 39.0749 75.2092 39.1678C76.0392 39.2565 76.774 39.5152 77.2099 39.8803L77.2511 39.916L77.2513 39.9162C77.4725 40.1141 77.6267 40.3824 77.7418 40.6552C77.8577 40.9301 77.9435 41.2331 78.0155 41.519C78.0588 41.6907 77.9568 41.8657 77.7878 41.9097C77.6188 41.9536 77.4466 41.85 77.4034 41.6782C77.3335 41.401 77.2573 41.1366 77.161 40.9082C77.0639 40.6778 76.9555 40.507 76.8338 40.3982V40.3981C76.5424 40.1381 75.9358 39.8911 75.1432 39.8064C74.3621 39.7229 73.4442 39.8025 72.5603 40.1472C71.4287 40.5886 71.0726 41.6612 71.1795 42.7379C71.2328 43.2745 71.4017 43.7868 71.63 44.1761C71.865 44.5768 72.1294 44.7935 72.3467 44.8426L72.4447 44.864C73.4602 45.0779 74.5509 45.0724 75.4424 44.9899C75.9009 44.9475 76.3019 44.8852 76.6067 44.8241C76.9257 44.7602 77.1072 44.7036 77.1502 44.6826C77.2639 44.6271 77.423 44.498 77.6095 44.2871C77.7914 44.0813 77.9828 43.8167 78.1644 43.516C78.5356 42.901 78.7268 42.3315 78.6056 41.6562C78.5743 41.4818 78.688 41.3146 78.8597 41.2827C79.0313 41.2509 79.1958 41.3665 79.2272 41.5409C79.3872 42.4321 79.1173 43.1654 78.7029 43.8519L78.7028 43.852C78.5055 44.1787 78.2919 44.476 78.0794 44.7163C77.8716 44.9514 77.6469 45.1526 77.4238 45.2615C77.2984 45.3227 77.0412 45.3915 76.729 45.4541C76.4025 45.5196 75.9797 45.5851 75.4997 45.6295C74.5727 45.7152 73.4142 45.7241 72.3157 45.4926L72.2097 45.4695C71.7435 45.3642 71.359 44.9684 71.0872 44.5049C70.8087 44.0299 70.6128 43.4263 70.5509 42.8024C70.4274 41.558 70.8393 40.1306 72.3339 39.5477Z" fill="#231815"/>
<path d="M64.4219 34.9338C66.207 34.6302 66.668 34.2082 67.5105 32.1044C67.5962 34.3745 67.8876 34.9314 69.4633 35.8355C67.6782 36.1391 67.2172 36.5611 66.3747 38.6649C66.289 36.3949 65.9975 35.8379 64.4219 34.9338Z" fill="#F3B411"/>
<path d="M67.231 31.9888C67.2846 31.8551 67.4228 31.7774 67.5627 31.8024C67.7027 31.8274 67.8066 31.9484 67.812 32.0927C67.855 33.2304 67.9501 33.8712 68.1945 34.3382C68.4322 34.7923 68.8329 35.1216 69.6117 35.5684C69.723 35.6323 69.7827 35.7606 69.7605 35.8886C69.7384 36.0166 69.6392 36.1165 69.5131 36.138C68.6308 36.2881 68.1435 36.4586 67.7675 36.8029C67.381 37.157 67.0764 37.7261 66.6542 38.7805C66.6006 38.9143 66.4625 38.992 66.3225 38.967C66.1825 38.9419 66.0786 38.821 66.0732 38.6766C66.0302 37.539 65.9351 36.8982 65.6907 36.4312C65.453 35.9771 65.0523 35.6478 64.2736 35.2009C64.1622 35.1371 64.1025 35.0087 64.1247 34.8807C64.1468 34.7527 64.246 34.6528 64.3721 34.6314C65.2544 34.4813 65.7417 34.3108 66.1177 33.9664C66.5042 33.6124 66.8088 33.0432 67.231 31.9888ZM67.2979 33.3327C67.0617 33.7952 66.8187 34.15 66.5217 34.422C66.1664 34.7474 65.7511 34.9395 65.2281 35.078C65.6731 35.3894 65.9988 35.714 66.2234 36.1431C66.4112 36.502 66.5205 36.9198 66.5873 37.4366C66.8235 36.9741 67.0665 36.6194 67.3635 36.3473C67.7188 36.0219 68.134 35.8298 68.6571 35.6913C68.2121 35.3799 67.8863 35.0553 67.6617 34.6262C67.4739 34.2674 67.3646 33.8495 67.2979 33.3327Z" fill="#231815"/>
<path d="M80.043 25.8286C81.4545 24.6767 81.6536 24.0799 81.3766 21.8258C82.5432 23.7634 83.0652 24.1044 84.875 24.1106C83.4635 25.2624 83.2643 25.8598 83.5413 28.1133C82.3748 26.1757 81.8528 25.8347 80.043 25.8286Z" fill="#F3B411"/>
<path d="M81.277 21.5363C81.4111 21.4886 81.5599 21.5426 81.6341 21.6658C82.2187 22.6369 82.6099 23.1485 83.0477 23.4345C83.4735 23.7126 83.9815 23.8009 84.876 23.8039C85.0039 23.8043 85.1175 23.8866 85.1598 24.0093C85.202 24.132 85.1636 24.2683 85.0639 24.3497C84.3662 24.919 84.0231 25.31 83.8608 25.7973C83.6939 26.2982 83.7019 26.946 83.8407 28.0754C83.8583 28.2187 83.7752 28.3551 83.641 28.4028C83.5069 28.4505 83.3581 28.3966 83.2839 28.2734C82.6993 27.3024 82.3081 26.7906 81.8703 26.5046C81.4444 26.2266 80.9365 26.1383 80.042 26.1353C79.9141 26.1348 79.8004 26.0525 79.7582 25.9299C79.7159 25.8072 79.7544 25.6708 79.854 25.5895C80.5517 25.0201 80.8949 24.6293 81.0572 24.1421C81.2241 23.6413 81.2161 22.9936 81.0773 21.8639C81.0596 21.7205 81.1428 21.5841 81.277 21.5363ZM81.782 23.0029C81.7984 23.5238 81.7571 23.954 81.6288 24.3389C81.4754 24.7993 81.2054 25.1731 80.8156 25.5538C81.3538 25.6045 81.7941 25.7259 82.1965 25.9887C82.5329 26.2084 82.8292 26.5186 83.136 26.9362C83.1196 26.4155 83.1609 25.9854 83.2892 25.6005C83.4426 25.14 83.7125 24.766 84.1023 24.3853C83.5642 24.3346 83.1239 24.2133 82.7215 23.9505C82.3851 23.7307 82.0888 23.4206 81.782 23.0029Z" fill="#231815"/>
<path d="M21.0804 26.7562H7.83789V28.0498H21.0804V26.7562Z" fill="#F6F8FE"/>
<path d="M21.0804 31.1543H7.83789V32.4478H21.0804V31.1543Z" fill="#F6F8FE"/>
<path d="M21.0804 35.5522H7.83789V36.8458H21.0804V35.5522Z" fill="#F6F8FE"/>
<path d="M21.0804 44.3483H7.83789V45.6418H21.0804V44.3483Z" fill="#F6F8FE"/>
<path d="M21.0804 48.7463H7.83789V50.0398H21.0804V48.7463Z" fill="#F6F8FE"/>
<path d="M21.0804 53.1442H7.83789V54.4378H21.0804V53.1442Z" fill="#F6F8FE"/>
<path d="M21.0804 56.5074H7.83789V57.801H21.0804V56.5074Z" fill="#F6F8FE"/>
<path d="M31.1846 49.0049H25.582V51.592H31.1846V49.0049Z" fill="#F6F8FE"/>
<path d="M31.1846 45.1244H25.582V47.9702H31.1846V45.1244Z" fill="#F6F8FE"/>
<defs>
<linearGradient id="paint0_linear_96_862" x1="19.2148" y1="22.6168" x2="19.2148" y2="62.9752" gradientUnits="userSpaceOnUse">
<stop stop-color="#C3D2FF"/>
<stop offset="1" stop-color="#C3D2FF"/>
</linearGradient>
<linearGradient id="paint1_linear_96_862" x1="43.0597" y1="26" x2="43.0597" y2="62.8657" gradientUnits="userSpaceOnUse">
<stop stop-color="#C3D2FF"/>
<stop offset="1" stop-color="#C3D2FF"/>
</linearGradient>
<clipPath id="clip0_96_862">
<rect width="34.9254" height="12.806" fill="white" transform="translate(29 9)"/>
</clipPath>
<clipPath id="clip1_96_862">
<rect width="26.7761" height="10.0896" fill="white"/>
</clipPath>
<clipPath id="clip2_96_862">
<rect width="22.1194" height="36.8657" fill="white" transform="translate(32 26)"/>
</clipPath>
</defs>
</svg>
