<svg width="16" height="16" viewBox="0 0 16 16" fill="none" xmlns="http://www.w3.org/2000/svg">
<g clip-path="url(#clip0_26_248)">
<path d="M8.00008 15.3333C3.95564 15.3333 0.666748 12.0444 0.666748 7.99996C0.666748 3.95551 3.95564 0.666626 8.00008 0.666626C12.0445 0.666626 15.3334 3.95551 15.3334 7.99996C15.3334 12.0444 12.0445 15.3333 8.00008 15.3333Z" stroke="#999999" stroke-linecap="round" stroke-linejoin="round"/>
<path d="M7.99997 5.68439C8.49089 5.68439 8.88886 5.28642 8.88886 4.79551C8.88886 4.30459 8.49089 3.90662 7.99997 3.90662C7.50905 3.90662 7.11108 4.30459 7.11108 4.79551C7.11108 5.28642 7.50905 5.68439 7.99997 5.68439Z" fill="#999999"/>
<path d="M8.69323 11.1199V7.1355C8.69323 6.8755 8.45545 6.67995 8.1999 6.72884L7.05323 6.99328C6.80434 7.04217 6.62212 7.25995 6.62212 7.5155H7.25101C7.41101 7.5155 7.5399 7.64439 7.5399 7.80439V11.1199C7.5399 11.2955 7.39768 11.4377 7.22212 11.4377H6.98656C6.78212 11.4377 6.61768 11.6022 6.61768 11.8066V11.8955H9.38212V11.8066C9.38212 11.6022 9.21768 11.4377 9.01323 11.4377C8.83768 11.4377 8.69545 11.2955 8.69545 11.1199H8.69323Z" fill="#999999"/>
</g>
<defs>
<clipPath id="clip0_26_248">
<rect width="16" height="16" fill="white"/>
</clipPath>
</defs>
</svg>
