<svg width="12" height="12" viewBox="0 0 12 12" fill="none" xmlns="http://www.w3.org/2000/svg">
<g clip-path="url(#clip0_96_822)">
<mask id="path-1-inside-1_96_822" fill="white">
<path d="M10.6155 2.00012L10 1.38461L1.38483 9.99978L2.00034 10.6153L10.6155 2.00012Z"/>
</mask>
<path d="M10 1.38461L10.7071 0.677506L10 -0.0296005L9.29289 0.677506L10 1.38461ZM10.6155 2.00012L11.3226 2.70723L12.0297 2.00012L11.3226 1.29302L10.6155 2.00012ZM2.00034 10.6153L1.29323 11.3224L2.00034 12.0295L2.70744 11.3224L2.00034 10.6153ZM1.38483 9.99978L0.677721 9.29268L-0.0293853 9.99978L0.677721 10.7069L1.38483 9.99978ZM10 1.38461L9.29289 2.09172L9.9084 2.70723L10.6155 2.00012L11.3226 1.29302L10.7071 0.677506L10 1.38461ZM10.6155 2.00012L9.9084 1.29302L1.29323 9.90819L2.00034 10.6153L2.70744 11.3224L11.3226 2.70723L10.6155 2.00012ZM2.00034 10.6153L2.70744 9.90819L2.09194 9.29268L1.38483 9.99978L0.677721 10.7069L1.29323 11.3224L2.00034 10.6153ZM1.38483 9.99978L2.09194 10.7069L10.7071 2.09172L10 1.38461L9.29289 0.677506L0.677721 9.29268L1.38483 9.99978Z" fill="white" mask="url(#path-1-inside-1_96_822)"/>
<path d="M10.2892 2.00012L10 1.71097L1.71119 9.99978L2.00034 10.2889L10.2892 2.00012Z" stroke="white"/>
<mask id="path-4-inside-2_96_822" fill="white">
<path d="M9.99973 10.6157L10.6152 10.0002L2.00006 1.38498L1.38455 2.00049L9.99973 10.6157Z"/>
</mask>
<path d="M10.6152 10.0002L11.3223 10.7073L12.0294 10.0002L11.3223 9.29305L10.6152 10.0002ZM9.99973 10.6157L9.29262 11.3228L9.99973 12.0299L10.7068 11.3228L9.99973 10.6157ZM1.38455 2.00049L0.677447 1.29338L-0.0296602 2.00049L0.677447 2.7076L1.38455 2.00049ZM2.00006 1.38498L2.70717 0.677874L2.00006 -0.0292327L1.29296 0.677874L2.00006 1.38498ZM10.6152 10.0002L9.90813 9.29305L9.29262 9.90856L9.99973 10.6157L10.7068 11.3228L11.3223 10.7073L10.6152 10.0002ZM9.99973 10.6157L10.7068 9.90856L2.09166 1.29338L1.38455 2.00049L0.677447 2.7076L9.29262 11.3228L9.99973 10.6157ZM1.38455 2.00049L2.09166 2.7076L2.70717 2.09209L2.00006 1.38498L1.29296 0.677874L0.677447 1.29338L1.38455 2.00049ZM2.00006 1.38498L1.29296 2.09209L9.90813 10.7073L10.6152 10.0002L11.3223 9.29305L2.70717 0.677874L2.00006 1.38498Z" fill="white" mask="url(#path-4-inside-2_96_822)"/>
<path d="M9.99991 10.2893L10.2891 10.0002L2.00025 1.71134L1.7111 2.00049L9.99991 10.2893Z" stroke="white"/>
</g>
<defs>
<clipPath id="clip0_96_822">
<rect width="12" height="12" fill="white"/>
</clipPath>
</defs>
</svg>
