<svg width="20" height="20" viewBox="0 0 20 20" fill="none" xmlns="http://www.w3.org/2000/svg">
<path d="M13.2904 4.61572L3.71777 10.0006" stroke="#999999"/>
<path d="M13.2904 15.3854L3.71777 10.0005" stroke="#999999"/>
<path d="M14.9995 1.75C16.5717 1.75 17.8335 3.00258 17.8335 4.53125C17.8335 6.05995 16.5718 7.3125 14.9995 7.3125C13.4274 7.31233 12.1665 6.05985 12.1665 4.53125C12.1665 3.00269 13.4274 1.75017 14.9995 1.75Z" fill="white" stroke="#999999"/>
<path d="M14.9998 7.22668C16.512 7.22668 17.7379 6.01992 17.7379 4.53131C17.7379 3.0427 16.512 1.83594 14.9998 1.83594C13.4876 1.83594 12.2617 3.0427 12.2617 4.53131C12.2617 6.01992 13.4876 7.22668 14.9998 7.22668Z" stroke="#999999"/>
<path d="M4.99951 7.21924C6.57173 7.21924 7.83346 8.47182 7.8335 10.0005C7.8335 11.5292 6.57176 12.7817 4.99951 12.7817C3.42742 12.7816 2.1665 11.5291 2.1665 10.0005C2.16654 8.47193 3.42744 7.21941 4.99951 7.21924Z" fill="white" stroke="#999999"/>
<path d="M4.99981 12.6959C6.51201 12.6959 7.7379 11.4892 7.7379 10.0005C7.7379 8.51194 6.51201 7.30518 4.99981 7.30518C3.4876 7.30518 2.26172 8.51194 2.26172 10.0005C2.26172 11.4892 3.4876 12.6959 4.99981 12.6959Z" stroke="#999999"/>
<path d="M14.9995 12.6875C16.5717 12.6875 17.8335 13.9401 17.8335 15.4688C17.8335 16.9974 16.5718 18.25 14.9995 18.25C13.4274 18.2498 12.1665 16.9973 12.1665 15.4688C12.1665 13.9402 13.4274 12.6877 14.9995 12.6875Z" fill="white" stroke="#999999"/>
<path d="M14.9998 18.1642C16.512 18.1642 17.7379 16.9574 17.7379 15.4688C17.7379 13.9802 16.512 12.7734 14.9998 12.7734C13.4876 12.7734 12.2617 13.9802 12.2617 15.4688C12.2617 16.9574 13.4876 18.1642 14.9998 18.1642Z" stroke="#999999"/>
</svg>
