<svg xmlns="http://www.w3.org/2000/svg" xmlns:xlink="http://www.w3.org/1999/xlink" width="51.74" height="50" viewBox="0 0 51.74 50"><defs><style>.a{fill:none;}.b{clip-path:url(#a);}.c{fill:#cdcecd;}.d{fill:#323333;}.e{fill:#888;}.f{fill:#ec7032;}.g{fill:#231815;}.h{fill:#79371e;}.i{fill:#231814;}.j{fill:#de6164;}.k{fill:#fff9ef;}.l{fill:#fff;}.m{fill:#262727;}.n{fill:#dfdacc;}.o{fill:#84b341;}.p{fill:#d0d0d0;}.q{fill:#d79268;}</style><clipPath id="a"><rect class="a" width="51.74" height="50"/></clipPath></defs><g class="b"><path class="c" d="M319.537,23.259h-8.661a1.784,1.784,0,0,1-1.784-1.784V4.634a1.784,1.784,0,0,1,1.784-1.784h8.661a1.784,1.784,0,0,1,1.784,1.784V21.475a1.784,1.784,0,0,1-1.784,1.784" transform="translate(-273.676 -2.523)"/><path class="d" d="M317.014,21.063h-8.661a2.113,2.113,0,0,1-2.11-2.11V2.111A2.113,2.113,0,0,1,308.353,0h8.661a2.113,2.113,0,0,1,2.11,2.11V18.952a2.113,2.113,0,0,1-2.11,2.11M308.353.654A1.459,1.459,0,0,0,306.9,2.111V18.952a1.459,1.459,0,0,0,1.457,1.457h8.661a1.459,1.459,0,0,0,1.457-1.457V2.111A1.459,1.459,0,0,0,317.014.654Z" transform="translate(-271.153 -0.001)"/><path class="c" d="M338.135,21.2a3.615,3.615,0,1,0-3.615,3.615,3.615,3.615,0,0,0,3.615-3.615" transform="translate(-292.989 -15.573)"/><path class="d" d="M332,22.622a3.942,3.942,0,1,1,3.941-3.942A3.946,3.946,0,0,1,332,22.622m0-7.23a3.289,3.289,0,1,0,3.289,3.289A3.292,3.292,0,0,0,332,15.392" transform="translate(-290.466 -13.05)"/><path class="c" d="M338.135,96.6a3.615,3.615,0,1,0-3.615,3.615,3.615,3.615,0,0,0,3.615-3.615" transform="translate(-292.989 -82.329)"/><path class="d" d="M332,98.017a3.942,3.942,0,1,1,3.941-3.942A3.946,3.946,0,0,1,332,98.017m0-7.23a3.289,3.289,0,1,0,3.289,3.289A3.292,3.292,0,0,0,332,90.787" transform="translate(-290.466 -79.806)"/><path class="d" d="M350.222,42.221c0,.592-.2,1.071-.44,1.071s-.44-.48-.44-1.071.2-1.071.44-1.071.44.48.44,1.071" transform="translate(-309.314 -36.435)"/><path class="d" d="M368.766,42.221c0,.592-.2,1.071-.44,1.071s-.44-.48-.44-1.071.2-1.071.44-1.071.44.48.44,1.071" transform="translate(-325.733 -36.435)"/><rect class="e" width="8.068" height="3.728" transform="translate(37.497 12.405)"/><path class="d" d="M332.576,109.61h-8.068a.355.355,0,0,1-.355-.354v-3.728a.355.355,0,0,1,.355-.354h8.068a.355.355,0,0,1,.354.354v3.728a.355.355,0,0,1-.354.354m-7.714-.709h7.359v-3.019h-7.359Z" transform="translate(-287.011 -93.122)"/><path class="d" d="M190.046,100.464a.362.362,0,0,1-.063-.719c4.328-.768,4.76-1.251,5.7-2.308a15.01,15.01,0,0,1,3.259-2.8,7.109,7.109,0,0,1,7.3-.318,12.382,12.382,0,0,1,3.292,2.287.362.362,0,0,1-.519.505,11.871,11.871,0,0,0-3.1-2.146,6.337,6.337,0,0,0-6.566.274,14.189,14.189,0,0,0-3.121,2.676c-1.1,1.229-1.719,1.758-6.118,2.539a.366.366,0,0,1-.064.006" transform="translate(-167.949 -82.763)"/><path class="f" d="M382.121,268.935c-1.021-.741-2.792-.041-3.956,1.563s-1.28,3.505-.259,4.246,2.792.041,3.956-1.563,1.28-3.505.259-4.246" transform="translate(-333.988 -237.858)"/><path class="g" d="M376.2,272.751a1.948,1.948,0,0,1-1.164-.362c-1.19-.864-1.109-2.936.184-4.719a5.119,5.119,0,0,1,2.181-1.777,2.3,2.3,0,0,1,2.248.139c1.19.864,1.109,2.936-.184,4.719a5.119,5.119,0,0,1-2.181,1.777,2.962,2.962,0,0,1-1.083.223m2.282-6.4a2.283,2.283,0,0,0-.832.175,4.439,4.439,0,0,0-1.882,1.545c-1.035,1.426-1.188,3.154-.334,3.773a1.651,1.651,0,0,0,1.6.057,4.439,4.439,0,0,0,1.882-1.545c1.035-1.426,1.188-3.154.335-3.773a1.287,1.287,0,0,0-.77-.232" transform="translate(-331.322 -235.23)"/><path class="h" d="M347.111,162.257a5.649,5.649,0,0,0-1.724,2.735c-.088.265-.185.557-.29.87,1.777.088,4.052,1.056,5.383,4.922a3.013,3.013,0,0,1,1.062-1.92c-.663-4.109-2.762-5.86-4.43-6.606" transform="translate(-305.554 -143.665)"/><path class="g" d="M350.445,170.753a0,0,0,0,1,0,0c-1.346-3.912-3.668-4.834-5.379-4.919l0,0a0,0,0,0,1,0,0c.109-.325.207-.618.29-.869a5.669,5.669,0,0,1,1.726-2.737h0c1.655.74,3.767,2.487,4.433,6.609a0,0,0,0,1,0,0,3.026,3.026,0,0,0-1.061,1.917,0,0,0,0,1,0,0Zm-5.377-4.93a5.014,5.014,0,0,1,2.856,1.045,8.049,8.049,0,0,1,2.52,3.865,3.027,3.027,0,0,1,1.059-1.906c-.665-4.115-2.773-5.86-4.425-6.6a5.664,5.664,0,0,0-1.721,2.731c-.083.25-.18.541-.289.864" transform="translate(-305.52 -143.631)"/><path class="h" d="M325.457,225.247c-.449,1.3-.874,2.518-1.146,3.3,1.823.31,4.365,1.435,5.81,5.1a5.767,5.767,0,0,0,1.425-2.82,7.9,7.9,0,0,0-6.09-5.574" transform="translate(-287.151 -199.438)"/><path class="i" d="M330.088,233.612h0l0,0c-1.436-3.638-3.95-4.778-5.807-5.094l0,0a0,0,0,0,1,0,0c.278-.8.7-2.013,1.146-3.3a0,0,0,0,1,0,0,7.912,7.912,0,0,1,6.093,5.577,0,0,0,0,1,0,0,5.767,5.767,0,0,1-1.426,2.822h0m-5.8-5.1a7.023,7.023,0,0,1,3.043,1.292,8.516,8.516,0,0,1,2.762,3.8,5.764,5.764,0,0,0,1.419-2.812,7.9,7.9,0,0,0-6.082-5.569c-.442,1.28-.865,2.494-1.143,3.289" transform="translate(-287.118 -199.404)"/><path class="f" d="M335.547,193.71c-.361,1.073-.81,2.38-1.236,3.613a7.9,7.9,0,0,1,6.09,5.574,16.483,16.483,0,0,0,.4-3.147,7.314,7.314,0,0,1,.128-1.119c-1.33-3.866-3.605-4.834-5.383-4.922" transform="translate(-296.005 -171.514)"/><path class="h" d="M393.547,152.936a7.316,7.316,0,0,0-2.649-.478c-.3.007-.6.02-.882.043a8.953,8.953,0,0,1,3.28,7.048c.579-.059,1.163-.079,1.686-.183a12.366,12.366,0,0,0-1.435-6.431" transform="translate(-345.327 -134.988)"/><path class="g" d="M393.262,159.52h0a0,0,0,0,1,0,0,8.975,8.975,0,0,0-3.279-7.045,0,0,0,0,1,0,0,0,0,0,0,1,0,0c.271-.022.559-.036.882-.043h.123a7.369,7.369,0,0,1,2.528.479l0,0a11.037,11.037,0,0,1,1.037,2.64,13.9,13.9,0,0,1,.4,3.793,0,0,0,0,1,0,0,10.159,10.159,0,0,1-1.146.135c-.177.014-.36.029-.54.048h0m-3.27-7.049a10.164,10.164,0,0,1,2.267,2.8,8.367,8.367,0,0,1,1.007,4.244c.179-.018.36-.033.535-.047a10.19,10.19,0,0,0,1.142-.134,12.545,12.545,0,0,0-1.434-6.424,7.359,7.359,0,0,0-2.523-.478h-.122c-.319.007-.6.021-.872.042" transform="translate(-345.293 -134.954)"/><path class="f" d="M316.31,254.023c-.178.511-.291.833-.3.866,0,0-2.417,5.011,1.53,5.376,1.972.182,3.507-.081,4.583-1.145-1.445-3.662-3.987-4.787-5.81-5.1" transform="translate(-279.15 -224.916)"/><path class="f" d="M365.81,152.844a5.489,5.489,0,0,0-3.133,1.079c1.668.746,3.767,2.5,4.43,6.606a3.834,3.834,0,0,1,1.982-.636,8.952,8.952,0,0,0-3.28-7.048" transform="translate(-321.121 -135.331)"/><path class="f" d="M420.828,156.637a12.367,12.367,0,0,1,1.435,6.431,1.942,1.942,0,0,0,1.732-1.624c.532-2.467-1.195-4.066-3.166-4.806" transform="translate(-372.609 -138.689)"/><path class="g" d="M316.615,169.045q-.514,0-1.089-.053a2.56,2.56,0,0,1-2.153-1.2c-.924-1.634.295-4.288.408-4.527.22-.628,2.094-5.982,2.968-8.628,1.078-3.263,3.169-3.972,5.978-4.033a7.068,7.068,0,0,1,5.28,2.207,3.867,3.867,0,0,1,.792,3.389c-.376,1.741-1.764,1.853-3.107,1.962-1.716.139-3.336.27-3.477,3.477-.139,3.185-.8,5.191-2.088,6.312a5.091,5.091,0,0,1-3.512,1.1m6.235-17.932h-.111c-2.664.058-4.514.693-5.5,3.679-.878,2.658-2.761,8.037-2.973,8.642,0,.009-.01.026-.014.035-.013.026-1.245,2.623-.43,4.064a2.08,2.08,0,0,0,1.752.944c1.949.18,3.289-.112,4.215-.92,1.172-1.022,1.779-2.912,1.912-5.946.16-3.661,2.261-3.831,3.95-3.968,1.313-.106,2.351-.191,2.646-1.557a3.326,3.326,0,0,0-.686-2.952,6.593,6.593,0,0,0-4.76-2.021m-8.83,12.246h0Z" transform="translate(-277.162 -133.342)"/><path class="j" d="M17.693,354.248s-1.98-1.383-6.01-.265c-1.516.421-2.87,4.852.064,6.045s9.218-.979,9.8-1.341c.726-.452-.931-2.119-3.854-4.439" transform="translate(-8.865 -313.037)"/><path class="g" d="M10.872,357.672a6.435,6.435,0,0,1-2.385-.384,3.238,3.238,0,0,1-1.977-3.417c.092-1.594.97-3.114,1.957-3.388,4.164-1.156,6.261.262,6.348.323l.02.015c3.726,2.958,4.209,3.91,4.175,4.5a.737.737,0,0,1-.358.6,22.513,22.513,0,0,1-7.779,1.756m.661-6.833a10.664,10.664,0,0,0-2.851.419c-.583.162-1.293,1.334-1.37,2.66a2.49,2.49,0,0,0,1.477,2.626c2.758,1.122,8.825-.972,9.417-1.3-.019-.186-.353-1-3.858-3.784a5.483,5.483,0,0,0-2.816-.622" transform="translate(-5.757 -309.924)"/><path class="f" d="M159.248,204.737c0,4.893-5.879,9.558-14.959,9.558s-17.016-3.094-17.016-7.987,8.74-15.018,17.82-15.018,14.155,8.554,14.155,13.447" transform="translate(-112.69 -169.371)"/><path class="i" d="M141.673,212.017a30.624,30.624,0,0,1-12.05-2.188c-3.421-1.519-5.3-3.7-5.3-6.138,0-2.559,2.255-6.413,5.611-9.589,3.872-3.665,8.445-5.767,12.547-5.767a14.141,14.141,0,0,1,10.737,5,14.541,14.541,0,0,1,3.756,8.781c0,2.549-1.539,5.062-4.222,6.893a19.837,19.837,0,0,1-11.075,3m.8-23c-9.029,0-17.481,10.093-17.481,14.679,0,4.361,7.17,7.649,16.677,7.649,9.151,0,14.62-4.687,14.62-9.219a13.836,13.836,0,0,0-3.589-8.335,13.358,13.358,0,0,0-10.228-4.773" transform="translate(-110.073 -166.755)"/><path class="k" d="M271.939,313.31c9.079-.111,12.88-3.906,12.588-8.281,0-.019-.007-.1-.007-.121-14.941,10.889-18.652,8.477-12.581,8.4" transform="translate(-238.314 -269.97)"/><path class="f" d="M275.893,321.8a19.782,19.782,0,0,1-5.224,2.322c-2.109.377-1.228,7.258,4.605,4.524,10.41-4.879,7.263-12.193,7.263-12.193" transform="translate(-238.733 -280.191)"/><path class="i" d="M270.154,327.01a3.323,3.323,0,0,1-2.192-.76,3.852,3.852,0,0,1-1.193-3.772,1.626,1.626,0,0,1,1.216-1.308,19.57,19.57,0,0,0,5.1-2.276.339.339,0,1,1,.359.574,19.813,19.813,0,0,1-5.344,2.368c-.424.076-.608.543-.68.815a3.189,3.189,0,0,0,.973,3.079c.961.8,2.382.8,4.109-.01,4.139-1.94,6.677-4.586,7.34-7.653a7.428,7.428,0,0,0-.245-4.1.339.339,0,0,1,.622-.267,7.961,7.961,0,0,1,.293,4.471c-.485,2.3-2.219,5.583-7.723,8.163a6.264,6.264,0,0,1-2.639.676" transform="translate(-236.108 -277.574)"/><path class="k" d="M32.476,134.479s-3.12-7.019-.78-8.913,9.247,1.783,10.25,3.788-7.157,10.388-9.47,5.125" transform="translate(-27.294 -110.712)"/><path class="g" d="M32.511,134.11q-.149,0-.3-.014a2.851,2.851,0,0,1-2.367-1.882c-.134-.3-3.187-7.26-.691-9.28a4.178,4.178,0,0,1,3.522-.416c2.8.607,6.439,2.781,7.2,4.307.4.805-.331,2.086-.8,2.778-1.316,1.924-4.167,4.507-6.565,4.507M31.16,122.96a2.521,2.521,0,0,0-1.612.457c-1.766,1.43.028,6.653.868,8.545h0a2.238,2.238,0,0,0,1.856,1.513c1.972.183,4.8-2.05,6.29-4.226.782-1.143.906-1.859.761-2.148-.62-1.24-3.935-3.362-6.777-3.977a6.617,6.617,0,0,0-1.387-.165" transform="translate(-24.95 -108.322)"/><path class="h" d="M57.831,156.85s-1.452-3.267-.363-4.149,4.3.83,4.771,1.763-2.911,5.8-4.408,2.385" transform="translate(-50.525 -134.988)"/><path class="i" d="M59.21,158.026c-.039,0-.077,0-.116-.005-.535-.05-.972-.453-1.3-1.2a11.809,11.809,0,0,1-.59-1.744,5.147,5.147,0,0,1-.176-1.386,1.322,1.322,0,0,1,.4-1.023,1.817,1.817,0,0,1,1.521-.166,6.953,6.953,0,0,1,2.007.833,3.481,3.481,0,0,1,1.249,1.1c.156.312-.112,1.082-.653,1.871-.579.846-1.489,1.721-2.349,1.721m-.929-5.594a1.118,1.118,0,0,0-1.243,1.261,5.145,5.145,0,0,0,.176,1.384,11.816,11.816,0,0,0,.59,1.743c.325.741.759,1.143,1.291,1.193.038,0,.077.005.115.005.857,0,1.764-.873,2.342-1.717.539-.787.807-1.553.653-1.863a3.475,3.475,0,0,0-1.246-1.094,6.937,6.937,0,0,0-2-.832,3.206,3.206,0,0,0-.673-.08" transform="translate(-50.493 -134.959)"/><path class="k" d="M245.9,121.727s6.037-4.749,8.448-2.947.545,9.4-1.152,10.866-11.785-1.149-7.3-7.919" transform="translate(-216.717 -104.809)"/><path class="i" d="M249.223,128a9.1,9.1,0,0,1-5.535-2.034c-1.158-1.02-2.753-3.255-.429-6.76l.027-.042.039-.031c.254-.2,6.253-4.875,8.826-2.951a4.177,4.177,0,0,1,1.27,3.311c.1,2.868-1.113,6.925-2.4,8.04a2.824,2.824,0,0,1-1.794.467m-5.473-8.409c-1.923,2.932-.874,4.83.349,5.908,2.042,1.8,5.653,2.3,6.511,1.563,1.05-.906,2.291-4.641,2.189-7.547a3.621,3.621,0,0,0-1.02-2.835c-1.807-1.35-6.369,1.614-8.03,2.911" transform="translate(-214.331 -102.459)"/><path class="h" d="M271.28,149.472s2.81-2.211,3.932-1.372.254,4.376-.536,5.058-5.486-.535-3.4-3.686" transform="translate(-239.726 -130.962)"/><path class="i" d="M273.9,153.316a3.515,3.515,0,0,1-.663-.069,3.956,3.956,0,0,1-1.817-.844,1.946,1.946,0,0,1-.693-1.224,2.587,2.587,0,0,1,.518-1.739h0a11.805,11.805,0,0,1,1.546-1,5.148,5.148,0,0,1,1.3-.511,1.323,1.323,0,0,1,1.091.14,1.818,1.818,0,0,1,.535,1.433,6.951,6.951,0,0,1-.314,2.151,3.485,3.485,0,0,1-.756,1.48,1.2,1.2,0,0,1-.746.184m-2.649-3.871c-.968,1.46-.44,2.411.174,2.952a3.949,3.949,0,0,0,1.813.842,1.9,1.9,0,0,0,1.4-.114,3.474,3.474,0,0,0,.754-1.477,6.933,6.933,0,0,0,.314-2.148,1.81,1.81,0,0,0-.531-1.427,1.314,1.314,0,0,0-1.085-.139,5.137,5.137,0,0,0-1.3.51,11.807,11.807,0,0,0-1.544,1" transform="translate(-239.694 -130.933)"/><path class="f" d="M5.691,146.814s2.387-9.579,9.294-12.03,15.761-1.333,19.72.668c5.773,2.919,9.581,14.038,8.133,20.388,0,0,2.6,1.249,1.156,1.537-.334.067-2.359-.169-1.824.023.8.288,2.265.371,2.043.891s-.577.357-2.6.483a15.076,15.076,0,0,1,1.783.52c.371.186.817.631-2.005.631,0,0-3.419,5.236-17.845,5.236s-17.694-5.478-17.694-5.478-2.1.531-2.227-.251c-.07-.417,1.551-.585,1.551-.585s-1.918.385-2.207-.13c-.377-.673,2.207-1.624,2.207-1.624s-2.153,1.086-2.437,0,2.027-1.588,2.027-1.588a21.844,21.844,0,0,1,.928-8.692" transform="translate(-2.401 -118.1)"/><path class="g" d="M23.243,164.894c-7.46,0-11.88-1.492-14.275-2.743a9.221,9.221,0,0,1-3.437-2.729c-.213.052-1.527.35-2.043.013a.439.439,0,0,1-.2-.3.207.207,0,0,1,.045-.164.994.994,0,0,1,.466-.256c-.5.022-1.017-.024-1.162-.283a.335.335,0,0,1-.018-.291c.116-.312.629-.642,1.136-.9a1.653,1.653,0,0,1-1-.011.621.621,0,0,1-.355-.43.737.737,0,0,1,.093-.591,3.572,3.572,0,0,1,1.929-1.036,21.934,21.934,0,0,1,.933-8.673,24.661,24.661,0,0,1,2.06-5.1c1.335-2.47,3.679-5.682,7.259-6.952A28.371,28.371,0,0,1,25.653,133.1a24.238,24.238,0,0,1,8.769,2.008c2.681,1.355,5.157,4.61,6.793,8.928,1.552,4.1,2.062,8.381,1.367,11.473.265.129,1.643.825,1.585,1.287-.019.149-.171.251-.466.309a6.87,6.87,0,0,1-1.02-.022c-.293-.017-.643-.038-.8-.03h0a7.64,7.64,0,0,0,.839.221c.566.128,1.1.248,1.225.492a.26.26,0,0,1,0,.23c-.176.41-.433.419-1.388.45-.269.009-.591.019-.986.041a11.53,11.53,0,0,1,1.539.462c.124.062.326.187.292.333-.059.249-.809.371-2.294.372a9.465,9.465,0,0,1-3.516,2.614c-2.429,1.2-6.89,2.622-14.35,2.622M5.567,159.332l.015.025a8.9,8.9,0,0,0,3.43,2.728c2.387,1.246,6.793,2.73,14.231,2.73s11.894-1.422,14.315-2.614a9.155,9.155,0,0,0,3.5-2.6l.011-.018h.021c1.954,0,2.217-.218,2.239-.312.016-.066-.08-.161-.251-.246a15.115,15.115,0,0,0-1.774-.517l-.255-.06.261-.016c.516-.032.921-.046,1.247-.056.94-.031,1.163-.038,1.319-.4a.184.184,0,0,0,0-.164c-.108-.211-.649-.333-1.173-.451a7.705,7.705,0,0,1-.848-.224c-.066-.024-.124-.049-.114-.1.013-.064.1-.074.944-.024a7.2,7.2,0,0,0,1,.023c.254-.051.39-.132.4-.243.046-.361-1.117-1-1.569-1.221l-.028-.013.007-.03c.7-3.08.2-7.363-1.357-11.458-1.63-4.3-4.092-7.54-6.756-8.887a24.159,24.159,0,0,0-8.739-2,28.286,28.286,0,0,0-10.95,1.333c-3.557,1.262-5.887,4.458-7.216,6.916a24.542,24.542,0,0,0-2.053,5.087v0A21.961,21.961,0,0,0,4.5,155.2l0,.035-.034.007c-.015,0-1.5.332-1.914,1.009a.662.662,0,0,0-.084.531.546.546,0,0,0,.312.379,2.177,2.177,0,0,0,1.4-.129c.356-.161.639-.265.67-.277l.031.071a5.945,5.945,0,0,1-.677.281c-.594.268-1.387.688-1.526,1.063a.257.257,0,0,0,.013.226c.172.307.987.271,1.567.2.31-.061.578-.09.6-.092l.012.077c-.028.006-.28.055-.608.094a1.771,1.771,0,0,0-.883.343.131.131,0,0,0-.03.1.359.359,0,0,0,.17.25c.522.341,1.994-.026,2.009-.03Z" transform="translate(-2.101 -117.793)"/><path class="k" d="M137.3,188.948a4.646,4.646,0,0,0,1.276,1.427c.631.334,1.894.928,1.857-.186s-.39-3.964-2.507-2.891a1.113,1.113,0,0,0-.627,1.65" transform="translate(-121.425 -165.627)"/><path class="k" d="M187.173,185.976s1.571-3.584,3.2-3.021c1.757.606.613,2.055-.473,2.7-.832.494-2.019,1.506-2.465,1.2a.62.62,0,0,1-.265-.877" transform="translate(-165.649 -161.938)"/><path class="k" d="M61.445,275.144s4.645,1.63,5.759,1.816a27.951,27.951,0,0,1-.677-12.221c.908-4.373,1.764-3.773-.706-4.078-2.146-.264-3.231-.741-3.751,1.436a34.335,34.335,0,0,0-.625,13.046" transform="translate(-54.089 -230.585)"/><path class="k" d="M238.623,270.581a21.207,21.207,0,0,0,2.541-10.95c-.223-2.687-.557-3.66-1.485-4.912s2.674-1.714,3.342-1.761,2.08-.278,2.822,3.707.063,10.425-1.162,12.6a30.038,30.038,0,0,1-6.058,1.313" transform="translate(-211.281 -223.958)"/><path class="k" d="M130.7,246.71s1.634-3.981,4.2-3.974c2.942.009,4.716,1.411,5.682,4.419s.631,6.425-3.305,7.687-9.284-1.151-6.573-8.133" transform="translate(-115.07 -214.923)"/><path class="g" d="M160.984,255.4a1.652,1.652,0,0,1,1.5-1.187c1.228-.088,2.108,1.1,1.526,1.826-.341.425-3.394.556-3.025-.638" transform="translate(-142.511 -225.081)"/><path class="f" d="M19.27,355.715c.34-.04.6-.092.6-.092s-.277.029-.6.092" transform="translate(-17.062 -314.875)"/><path class="f" d="M18.669,340.584a6.008,6.008,0,0,0,.665-.276s-.292.108-.665.276" transform="translate(-16.53 -301.315)"/><path class="j" d="M160.075,274.3s-.084,4.122,2.312,4.122,2.057-4.523,2.057-4.523a1.158,1.158,0,0,1-1.234,0,2.539,2.539,0,0,1-1.151-2.156s.049,2.251-1.985,2.557" transform="translate(-141.733 -240.605)"/><path class="g" d="M161.508,277.658a1.829,1.829,0,0,1-1.351-.567c-1.113-1.135-1.076-3.568-1.074-3.672a.114.114,0,0,1,.1-.11,2.324,2.324,0,0,0,1.888-2.376c0-.023,0-.047,0-.071a.114.114,0,0,1,.113-.112h0a.114.114,0,0,1,.114.111s0,.017,0,.045a2.44,2.44,0,0,0,1.11,2.027c.447.373,1.1-.006,1.1-.01a.114.114,0,0,1,.172.089c.009.118.2,2.894-.916,4.1a1.65,1.65,0,0,1-1.254.546m-2.2-4.14c.005.457.081,2.467,1.01,3.414a1.609,1.609,0,0,0,1.189.5,1.43,1.43,0,0,0,1.088-.473c.9-.969.888-3.136.865-3.758a1.15,1.15,0,0,1-1.2-.091,2.992,2.992,0,0,1-1.081-1.418,2.335,2.335,0,0,1-1.868,1.828" transform="translate(-140.854 -239.728)"/><path class="l" d="M158.691,281.581a4.2,4.2,0,0,1,3.983-.113v-1.725s-1.386-.071-1.692-.606-.62-1.058-.62-1.058-.6,1.49-1.455,1.817l-.592-.1v1.065Z" transform="translate(-140.175 -246.216)"/><path class="m" d="M158.827,276.331a2.019,2.019,0,0,1-1.492-.626c-1.17-1.194-1.133-3.707-1.131-3.814a.311.311,0,0,1,.265-.3,2.124,2.124,0,0,0,1.72-2.174c0-.027,0-.054,0-.081a.311.311,0,0,1,.31-.305h0a.311.311,0,0,1,.311.3c0,.035,0,.07,0,.107a2.258,2.258,0,0,0,1.039,1.817c.337.281.869-.025.874-.028a.311.311,0,0,1,.47.243c.009.121.208,2.981-.968,4.248a1.84,1.84,0,0,1-1.4.609m-2-4.179a5.233,5.233,0,0,0,.95,3.118,1.4,1.4,0,0,0,1.047.438,1.224,1.224,0,0,0,.943-.41c.752-.809.827-2.546.819-3.352a1.234,1.234,0,0,1-1.138-.212,3.784,3.784,0,0,1-.932-1.017,2.458,2.458,0,0,1-1.689,1.434" transform="translate(-138.306 -238.203)"/><path class="g" d="M146.981,270.927a3.049,3.049,0,0,1-1.581-.532.311.311,0,0,1,.361-.506,2.022,2.022,0,0,0,1.688.323c.552-.241.927-.992,1.082-2.171a.311.311,0,0,1,.619.024c.024.439.237,1.657.919,2.02a1.705,1.705,0,0,0,1.646-.293.311.311,0,0,1,.319.534,2.257,2.257,0,0,1-2.259.307,2.2,2.2,0,0,1-.947-1.18,2.218,2.218,0,0,1-1.135,1.33,1.777,1.777,0,0,1-.713.144" transform="translate(-128.624 -237.089)"/><path class="g" d="M21.143,162.835c-7.515,0-11.979-1.509-14.4-2.774A10.021,10.021,0,0,1,3.313,157.4a3.3,3.3,0,0,1-2.075-.065.709.709,0,0,1-.324-.484.466.466,0,0,1,.021-.233.9.9,0,0,1-.641-.382.6.6,0,0,1-.035-.518,1.327,1.327,0,0,1,.419-.519,1.036,1.036,0,0,1-.137-.05.893.893,0,0,1-.507-.61,1.013,1.013,0,0,1,.124-.8,3.38,3.38,0,0,1,1.856-1.1,20.981,20.981,0,0,1,.814-8.359,25.687,25.687,0,0,1,2.164-5.253c2-3.663,4.59-6.142,7.488-7.171a29.111,29.111,0,0,1,19.948.676c2.664,1.159,5.169,4.4,6.873,8.9,1.553,4.1,2.117,8.512,1.491,11.6.787.4,1.611.95,1.545,1.471-.032.248-.22.421-.561.514a.73.73,0,0,1,.312.3.535.535,0,0,1,.009.461c-.183.428-.458.542-1,.586l.034.016c.456.228.468.5.435.639-.085.358-.514.57-2.422.581a10.182,10.182,0,0,1-3.532,2.587c-2.455,1.209-6.958,2.65-14.47,2.65m-17.695-6.1a.311.311,0,0,1,.267.152,8.779,8.779,0,0,0,3.376,2.655c2.358,1.219,6.709,2.671,14.051,2.671s11.739-1.389,14.132-2.555a9.063,9.063,0,0,0,3.454-2.541.313.313,0,0,1,.26-.14,10.265,10.265,0,0,0,1.723-.1c-.361-.132-1.115-.328-1.572-.436a.311.311,0,0,1,.052-.613c.519-.033.927-.046,1.255-.057.9-.029.991-.055,1.058-.193a4.2,4.2,0,0,0-.961-.288,7.9,7.9,0,0,1-.88-.233c-.3-.108-.311-.3-.289-.407.058-.285.356-.278.6-.272.173,0,.4.017.631.031a8.59,8.59,0,0,0,.931.028.965.965,0,0,0,.153-.042,4.919,4.919,0,0,0-1.383-.91.311.311,0,0,1-.169-.349c.681-2.985.139-7.385-1.414-11.483-1.621-4.277-4.065-7.473-6.54-8.55a28.88,28.88,0,0,0-19.492-.66c-6.67,2.367-9.234,11.9-9.259,12l0,.011a20.21,20.21,0,0,0-.757,8.364.311.311,0,0,1-.24.357,3.3,3.3,0,0,0-1.74.885.389.389,0,0,0-.052.319.272.272,0,0,0,.161.2,1.868,1.868,0,0,0,1.136-.113c.305-.138.575-.242.732-.3a.311.311,0,0,1,.247.569,6,6,0,0,1-.723.3c-.727.334-1.312.713-1.349.9A2.3,2.3,0,0,0,2.068,156c.262-.054.51-.085.672-.1a.311.311,0,0,1,.093.614c-.174.035-.413.077-.676.108a2.588,2.588,0,0,0-.587.182l.008.005a3.314,3.314,0,0,0,1.794-.066.31.31,0,0,1,.076-.009m-.321-12.374h0Z" transform="translate(0 -115.463)"/><path class="g" d="M82.745,236.771H75.973a.35.35,0,0,1,0-.7h6.772a.35.35,0,1,1,0,.7" transform="translate(-66.958 -209.021)"/><path class="g" d="M223.692,236.771H216.92a.35.35,0,0,1,0-.7h6.772a.35.35,0,1,1,0,.7" transform="translate(-191.755 -209.021)"/><path class="l" d="M129.849,60.145H119.092a2.3,2.3,0,0,1-2.3-2.3V53.688a1.269,1.269,0,0,1,1.27-1.27h11.791a1.247,1.247,0,0,1,1.247,1.247V58.9a1.247,1.247,0,0,1-1.247,1.247" transform="translate(-103.406 -46.412)"/><path class="d" d="M131.689,54.349h-.552V53.8a1.381,1.381,0,0,0-1.38-1.38H118.167a1.381,1.381,0,0,0-1.38,1.38v4.967a1.381,1.381,0,0,0,1.38,1.38h11.591a1.381,1.381,0,0,0,1.38-1.38v-.552h.552a.553.553,0,0,0,.552-.552V54.9a.553.553,0,0,0-.552-.552m-1.1,4.415a.829.829,0,0,1-.828.828H118.167a.829.829,0,0,1-.828-.828V53.8a.829.829,0,0,1,.828-.828h11.591a.829.829,0,0,1,.828.828v4.967Z" transform="translate(-103.405 -46.411)"/><rect class="n" width="2.898" height="4.967" transform="translate(23.454 7.386)"/><rect class="o" width="8.693" height="4.967" transform="translate(14.762 7.386)"/><path class="d" d="M165.26,74.3l.917-1.225-1.654-1.134,2.674-1.159-.917,1.225,1.654,1.134Z" transform="translate(-145.672 -62.674)"/><path class="p" d="M320.483,371.262a8.953,8.953,0,0,1,1.552-1.227,1.112,1.112,0,0,1,.606-.243.758.758,0,0,1,.353.108,2.328,2.328,0,0,1,.706.723,14.407,14.407,0,0,1,1.163,1.922.6.6,0,0,1,.09.368.59.59,0,0,1-.163.271,8.487,8.487,0,0,1-1.426,1.174l-1.194.846" transform="translate(-283.761 -327.42)"/><path class="q" d="M322.584,369.265a1.557,1.557,0,0,0-.309-.232.847.847,0,0,0-.4-.12,1.189,1.189,0,0,0-.666.261,9.127,9.127,0,0,0-1.571,1.243.1.1,0,0,0,0,.142h0a.1.1,0,0,0,.141-.009,8.921,8.921,0,0,1,1.533-1.211,1.022,1.022,0,0,1,.545-.225.668.668,0,0,1,.31.1,2.263,2.263,0,0,1,.677.7,14.228,14.228,0,0,1,1.156,1.91.528.528,0,0,1,.082.306.5.5,0,0,1-.136.217,8.425,8.425,0,0,1-1.408,1.158l-1.194.846a.105.105,0,0,0-.032.141.1.1,0,0,0,.138.02l1.194-.846a8.6,8.6,0,0,0,1.445-1.191.687.687,0,0,0,.19-.325.677.677,0,0,0-.1-.429,14.377,14.377,0,0,0-1.171-1.934,3.493,3.493,0,0,0-.426-.517" transform="translate(-282.988 -326.642)"/><path class="i" d="M320.56,373.8a.2.2,0,0,1-.039,0,.2.2,0,0,1-.128-.086.213.213,0,0,1,.061-.286l1.194-.846a8.335,8.335,0,0,0,1.39-1.143.428.428,0,0,0,.11-.165.468.468,0,0,0-.072-.238,14.1,14.1,0,0,0-1.148-1.9,2.175,2.175,0,0,0-.642-.666.564.564,0,0,0-.259-.083.936.936,0,0,0-.484.207,8.824,8.824,0,0,0-1.514,1.2.208.208,0,0,1-.291.014l0,0a.209.209,0,0,1,0-.293,9.229,9.229,0,0,1,1.589-1.258,1.28,1.28,0,0,1,.727-.279.954.954,0,0,1,.448.134,1.654,1.654,0,0,1,.33.248,3.629,3.629,0,0,1,.44.533,14.5,14.5,0,0,1,1.179,1.948.659.659,0,0,1-.109.874,8.669,8.669,0,0,1-1.462,1.206l-1.195.846a.215.215,0,0,1-.124.04" transform="translate(-282.161 -325.812)"/><path class="q" d="M326.812,375.619a.105.105,0,0,0-.144.152,10.265,10.265,0,0,1,2.321,3.491.093.093,0,0,0,.128.05.109.109,0,0,0,.061-.133,10.306,10.306,0,0,0-2.365-3.559h0" transform="translate(-289.213 -332.558)"/><path class="i" d="M328.247,378.6a.2.2,0,0,1-.079-.016.194.194,0,0,1-.108-.114,10.149,10.149,0,0,0-2.294-3.449.208.208,0,0,1,0-.294.217.217,0,0,1,.151-.068.194.194,0,0,1,.142.054h0a10.427,10.427,0,0,1,2.392,3.6.215.215,0,0,1-.118.268.209.209,0,0,1-.086.018" transform="translate(-288.386 -331.728)"/><path class="q" d="M333.878,371.7q-.181-.172-.374-.332a.1.1,0,0,0-.141.019.1.1,0,0,0,.007.141,7.219,7.219,0,0,1,2.259,3.351.092.092,0,0,0,.125.054.109.109,0,0,0,.065-.132,7.425,7.425,0,0,0-1.941-3.1" transform="translate(-295.142 -328.801)"/><path class="i" d="M334.889,374.226a.2.2,0,0,1-.085-.019.2.2,0,0,1-.1-.118,7.114,7.114,0,0,0-2.225-3.3.212.212,0,0,1,.272-.325c.13.108.257.221.38.337a7.566,7.566,0,0,1,1.969,3.146.216.216,0,0,1-.127.264.208.208,0,0,1-.079.015" transform="translate(-294.317 -327.974)"/><path class="j" d="M286.438,353.985s1.011.094,2.334,1.707c.5.607-.089,2.5-1.563,1.987a4.016,4.016,0,0,1-2.284-1.77,1.4,1.4,0,0,1,1.514-1.924" transform="translate(-252.202 -313.418)"/><path class="g" d="M285.064,355.485a1.794,1.794,0,0,1-.584-.1A4.382,4.382,0,0,1,282,353.435a1.99,1.99,0,0,1,.2-1.741,1.7,1.7,0,0,1,1.649-.663h.006c.118.011,1.191.155,2.565,1.83a1.745,1.745,0,0,1-.11,1.954,1.483,1.483,0,0,1-1.241.669m-1.433-3.785a.993.993,0,0,0-.878.379,1.345,1.345,0,0,0-.14,1.07,3.719,3.719,0,0,0,2.088,1.594.838.838,0,0,0,1.049-.314,1.133,1.133,0,0,0,.142-1.138,3.955,3.955,0,0,0-2.106-1.585c-.053,0-.105-.006-.155-.006" transform="translate(-249.584 -310.801)"/><path class="j" d="M256.679,369.414a10.766,10.766,0,0,0-6.884-.188c-1.517.421-2.936,5.386,0,6.58s7.7-1.44,8.283-1.8c.726-.452,1.526-2.268-1.4-4.588" transform="translate(-219.659 -326.518)"/><path class="g" d="M248.453,373.39a5.081,5.081,0,0,1-1.919-.341,3.392,3.392,0,0,1-1.95-3.622c.089-1.546.878-3.407,2-3.717a11.086,11.086,0,0,1,7.159.21.4.4,0,0,1,.082.051c1.924,1.527,2.271,2.828,2.224,3.65a2,2,0,0,1-.865,1.594c-.043.027-3.6,2.175-6.727,2.175m1.483-7.34a11.728,11.728,0,0,0-3.141.435c-.581.161-1.322,1.5-1.408,2.989a2.681,2.681,0,0,0,1.45,2.831c2.546,1.036,6.894-1.134,7.919-1.772a1.2,1.2,0,0,0,.487-.958c.051-.884-.616-1.927-1.88-2.941a9.472,9.472,0,0,0-3.428-.584" transform="translate(-216.55 -323.39)"/></g></svg>