<svg xmlns="http://www.w3.org/2000/svg" xmlns:xlink="http://www.w3.org/1999/xlink" width="72.435" height="70" viewBox="0 0 72.435 70"><defs><style>.a{fill:none;}.b{clip-path:url(#a);}.c{fill:#cdcecd;}.d{fill:#323333;}.e{fill:#888;}.f{fill:#ec7032;}.g{fill:#231815;}.h{fill:#79371e;}.i{fill:#231814;}.j{fill:#de6164;}.k{fill:#fff9ef;}.l{fill:#fff;}.m{fill:#262727;}.n{fill:#dfdacc;}.o{fill:#84b341;}.p{fill:#d0d0d0;}.q{fill:#d79268;}</style><clipPath id="a"><rect class="a" width="72.435" height="70"/></clipPath></defs><g class="b"><path class="c" d="M323.715,31.422H311.589a2.5,2.5,0,0,1-2.5-2.5V5.347a2.5,2.5,0,0,1,2.5-2.5h12.126a2.5,2.5,0,0,1,2.5,2.5V28.925a2.5,2.5,0,0,1-2.5,2.5" transform="translate(-259.509 -2.393)"/><path class="d" d="M321.323,29.487H309.2a2.958,2.958,0,0,1-2.954-2.954V2.955A2.958,2.958,0,0,1,309.2,0h12.125a2.958,2.958,0,0,1,2.954,2.954V26.533a2.958,2.958,0,0,1-2.954,2.954M309.2.915a2.043,2.043,0,0,0-2.04,2.04V26.533a2.042,2.042,0,0,0,2.04,2.04h12.125a2.042,2.042,0,0,0,2.04-2.04V2.955a2.043,2.043,0,0,0-2.04-2.04Z" transform="translate(-257.117 -0.001)"/><path class="c" d="M341.027,22.649a5.061,5.061,0,1,0-5.061,5.061,5.061,5.061,0,0,0,5.061-5.061" transform="translate(-277.823 -14.767)"/><path class="d" d="M333.573,25.775a5.518,5.518,0,1,1,5.518-5.518,5.524,5.524,0,0,1-5.518,5.518m0-10.122a4.6,4.6,0,1,0,4.6,4.6,4.609,4.609,0,0,0-4.6-4.6" transform="translate(-275.43 -12.375)"/><path class="c" d="M341.027,98.044a5.061,5.061,0,1,0-5.061,5.061,5.061,5.061,0,0,0,5.061-5.061" transform="translate(-277.823 -78.067)"/><path class="d" d="M333.573,101.17a5.518,5.518,0,1,1,5.518-5.518,5.524,5.524,0,0,1-5.518,5.518m0-10.122a4.6,4.6,0,1,0,4.6,4.6,4.609,4.609,0,0,0-4.6-4.6" transform="translate(-275.43 -75.675)"/><path class="d" d="M350.574,42.65c0,.828-.276,1.5-.616,1.5s-.616-.671-.616-1.5.276-1.5.616-1.5.616.671.616,1.5" transform="translate(-293.302 -34.549)"/><path class="d" d="M369.118,42.65c0,.828-.276,1.5-.616,1.5s-.616-.671-.616-1.5.276-1.5.616-1.5.616.671.616,1.5" transform="translate(-308.871 -34.549)"/><rect class="e" width="11.295" height="5.219" transform="translate(52.495 17.368)"/><path class="d" d="M335.945,111.384h-11.3a.5.5,0,0,1-.5-.5v-5.219a.5.5,0,0,1,.5-.5h11.3a.5.5,0,0,1,.5.5v5.219a.5.5,0,0,1-.5.5m-10.8-.992h10.3v-4.226h-10.3Z" transform="translate(-272.154 -88.302)"/><path class="d" d="M190.19,103.26a.507.507,0,0,1-.088-1.006c6.06-1.075,6.663-1.751,7.987-3.232a21.016,21.016,0,0,1,4.563-3.914c3.021-2.015,6.552-2.169,10.213-.446a17.335,17.335,0,0,1,4.608,3.2.507.507,0,0,1-.726.708,16.619,16.619,0,0,0-4.34-3c-3.36-1.574-6.453-1.444-9.193.384a19.867,19.867,0,0,0-4.369,3.746c-1.537,1.72-2.406,2.462-8.566,3.555a.512.512,0,0,1-.089.008" transform="translate(-159.256 -78.479)"/><path class="f" d="M384.085,269.053c-1.429-1.037-3.909-.057-5.539,2.189s-1.792,4.907-.363,5.945,3.909.057,5.539-2.189,1.792-4.907.363-5.944" transform="translate(-316.699 -225.545)"/><path class="g" d="M377.007,275.584a2.728,2.728,0,0,1-1.63-.506c-1.666-1.209-1.553-4.111.258-6.606a7.168,7.168,0,0,1,3.054-2.488,3.214,3.214,0,0,1,3.147.194c1.666,1.209,1.553,4.111-.258,6.606a7.167,7.167,0,0,1-3.054,2.488,4.147,4.147,0,0,1-1.517.312m3.195-8.964a3.2,3.2,0,0,0-1.164.245,6.215,6.215,0,0,0-2.635,2.163c-1.449,2-1.663,4.415-.468,5.282a2.312,2.312,0,0,0,2.242.08,6.216,6.216,0,0,0,2.635-2.163c1.449-2,1.663-4.415.468-5.283a1.8,1.8,0,0,0-1.077-.324" transform="translate(-314.171 -223.053)"/><path class="h" d="M347.916,162.257a7.909,7.909,0,0,0-2.414,3.828c-.123.371-.259.78-.406,1.217,2.488.124,5.673,1.479,7.536,6.891a4.219,4.219,0,0,1,1.487-2.688c-.929-5.753-3.867-8.2-6.2-9.248" transform="translate(-289.737 -136.228)"/><path class="g" d="M352.6,174.167a.006.006,0,0,1-.006,0c-1.885-5.476-5.135-6.768-7.531-6.887l0,0a.006.006,0,0,1,0-.005c.153-.456.29-.865.406-1.217a7.938,7.938,0,0,1,2.416-3.831.006.006,0,0,1,.006,0c2.317,1.036,5.274,3.482,6.206,9.253a.006.006,0,0,1,0,.006,4.236,4.236,0,0,0-1.485,2.684.006.006,0,0,1-.005,0Zm-7.528-6.9a7.02,7.02,0,0,1,4,1.463,11.269,11.269,0,0,1,3.528,5.41,4.237,4.237,0,0,1,1.482-2.668c-.931-5.761-3.882-8.2-6.2-9.239a7.929,7.929,0,0,0-2.409,3.823c-.116.35-.252.757-.4,1.21" transform="translate(-289.705 -136.196)"/><path class="h" d="M325.915,225.247c-.629,1.819-1.223,3.525-1.6,4.616,2.552.435,6.111,2.01,8.134,7.136a8.075,8.075,0,0,0,2-3.948c-1.86-5.391-5.641-7.222-8.526-7.8" transform="translate(-272.287 -189.114)"/><path class="i" d="M332.414,236.973h0a.006.006,0,0,1,0,0c-2.01-5.093-5.53-6.689-8.13-7.132l0,0a.005.005,0,0,1,0-.005c.389-1.114.983-2.818,1.6-4.616a.005.005,0,0,1,.007,0c2.862.577,6.664,2.4,8.53,7.808a0,0,0,0,1,0,0,8.073,8.073,0,0,1-2,3.951l0,0m-8.126-7.147a9.834,9.834,0,0,1,4.261,1.808,11.925,11.925,0,0,1,3.867,5.322,8.071,8.071,0,0,0,1.987-3.937c-1.863-5.4-5.658-7.22-8.515-7.8-.619,1.792-1.211,3.492-1.6,4.6" transform="translate(-272.255 -189.082)"/><path class="f" d="M336.041,193.71c-.506,1.5-1.133,3.332-1.73,5.059,2.885.582,6.666,2.413,8.526,7.8a23.077,23.077,0,0,0,.561-4.406,10.237,10.237,0,0,1,.18-1.566c-1.863-5.412-5.048-6.767-7.536-6.891" transform="translate(-280.682 -162.636)"/><path class="h" d="M394.959,153.127a10.243,10.243,0,0,0-3.708-.669c-.422.009-.834.028-1.235.06a12.534,12.534,0,0,1,4.592,9.868c.81-.083,1.629-.111,2.36-.256a17.313,17.313,0,0,0-2.009-9" transform="translate(-327.452 -128)"/><path class="g" d="M394.576,162.361l0,0a.005.005,0,0,1,0,0,12.566,12.566,0,0,0-4.59-9.863.006.006,0,0,1,0-.006.006.006,0,0,1,.005,0c.379-.031.783-.051,1.235-.06l.172,0a10.316,10.316,0,0,1,3.539.671l0,0a15.456,15.456,0,0,1,1.452,3.7,19.454,19.454,0,0,1,.558,5.31.006.006,0,0,1,0,.006,14.229,14.229,0,0,1-1.6.189c-.248.02-.5.041-.756.067h0M390,152.492a14.228,14.228,0,0,1,3.174,3.914,11.714,11.714,0,0,1,1.41,5.942c.25-.025.5-.046.75-.066a14.273,14.273,0,0,0,1.6-.188,17.564,17.564,0,0,0-2.007-8.993,10.3,10.3,0,0,0-3.532-.669l-.171,0c-.446.01-.846.029-1.22.059" transform="translate(-327.419 -127.969)"/><path class="f" d="M316.725,254.023c-.25.715-.408,1.167-.424,1.212,0,0-3.384,7.016,2.143,7.527,2.761.255,4.91-.113,6.416-1.6-2.023-5.126-5.582-6.7-8.134-7.136" transform="translate(-264.7 -213.274)"/><path class="f" d="M367.063,152.844a7.685,7.685,0,0,0-4.386,1.51c2.335,1.044,5.274,3.5,6.2,9.248a5.367,5.367,0,0,1,2.775-.891,12.534,12.534,0,0,0-4.592-9.868" transform="translate(-304.498 -128.325)"/><path class="f" d="M420.828,156.637a17.312,17.312,0,0,1,2.009,9,2.719,2.719,0,0,0,2.424-2.274c.745-3.454-1.673-5.693-4.433-6.729" transform="translate(-353.321 -131.51)"/><path class="g" d="M318.049,176.423q-.719,0-1.525-.075a3.584,3.584,0,0,1-3.014-1.686c-1.293-2.287.413-6,.571-6.338.308-.879,2.932-8.375,4.156-12.08,1.509-4.569,4.437-5.561,8.369-5.646a9.9,9.9,0,0,1,7.392,3.09,5.413,5.413,0,0,1,1.109,4.744c-.526,2.437-2.47,2.594-4.35,2.747-2.4.195-4.671.378-4.867,4.868-.2,4.459-1.124,7.267-2.923,8.837a7.127,7.127,0,0,1-4.917,1.538m8.728-25.1-.156,0c-3.73.081-6.319.97-7.7,5.151-1.229,3.721-3.866,11.253-4.162,12.1,0,.013-.014.037-.02.049-.018.037-1.743,3.673-.6,5.69a2.911,2.911,0,0,0,2.453,1.322c2.729.253,4.6-.157,5.9-1.289,1.64-1.431,2.491-4.076,2.677-8.325.225-5.126,3.166-5.364,5.53-5.555,1.839-.149,3.291-.267,3.7-2.18a4.657,4.657,0,0,0-.961-4.133,9.23,9.23,0,0,0-6.664-2.83m-12.363,17.144h0Z" transform="translate(-262.815 -126.439)"/><path class="j" d="M20.765,354.529s-2.772-1.936-8.414-.371c-2.123.589-4.018,6.793.089,8.464s12.905-1.37,13.721-1.878c1.016-.632-1.3-2.967-5.4-6.215" transform="translate(-8.406 -296.833)"/><path class="g" d="M12.621,360.729a9.009,9.009,0,0,1-3.34-.537,4.533,4.533,0,0,1-2.768-4.783c.129-2.232,1.358-4.36,2.74-4.744,5.83-1.618,8.765.366,8.887.451l.028.021c5.217,4.141,5.892,5.474,5.845,6.3a1.032,1.032,0,0,1-.5.835,31.517,31.517,0,0,1-10.891,2.458m.925-9.566a14.93,14.93,0,0,0-3.992.586c-.817.227-1.81,1.867-1.917,3.724a3.486,3.486,0,0,0,2.068,3.676c3.861,1.571,12.355-1.361,13.184-1.818-.026-.26-.494-1.4-5.4-5.3a7.677,7.677,0,0,0-3.942-.871" transform="translate(-5.459 -293.881)"/><path class="f" d="M172.038,210.116c0,6.85-8.231,13.381-20.942,13.381s-23.823-4.332-23.823-11.182,12.236-21.025,24.948-21.025,19.817,11.976,19.817,18.826" transform="translate(-106.856 -160.604)"/><path class="i" d="M148.615,221.49a42.874,42.874,0,0,1-16.87-3.063c-4.789-2.127-7.426-5.178-7.426-8.593,0-3.582,3.157-8.978,7.855-13.425,5.42-5.131,11.823-8.073,17.566-8.073a19.8,19.8,0,0,1,15.032,7.006c3.195,3.655,5.259,8.48,5.259,12.293,0,3.569-2.155,7.087-5.911,9.651-3.972,2.711-9.479,4.2-15.505,4.2m1.125-32.207c-12.641,0-24.473,14.131-24.473,20.55,0,6.1,10.038,10.708,23.348,10.708,12.812,0,20.468-6.562,20.468-12.907,0-3.6-1.972-8.177-5.025-11.669a18.7,18.7,0,0,0-14.319-6.682" transform="translate(-104.375 -158.123)"/><path class="k" d="M273.053,316.671c12.71-.156,18.033-5.468,17.624-11.594,0-.026-.01-.144-.01-.17-20.917,15.244-26.113,11.868-17.613,11.764" transform="translate(-225.978 -255.995)"/><path class="f" d="M278.4,323.936s-4.36,2.724-7.313,3.251-1.719,10.161,6.447,6.333c14.574-6.83,10.168-17.07,10.168-17.07" transform="translate(-226.375 -265.687)"/><path class="i" d="M271.551,332.415a4.653,4.653,0,0,1-3.068-1.064,5.393,5.393,0,0,1-1.671-5.281,2.277,2.277,0,0,1,1.7-1.831c2.827-.505,7.1-3.16,7.146-3.187a.474.474,0,1,1,.5.8c-.181.113-4.473,2.778-7.481,3.316-.593.106-.851.76-.952,1.141a4.464,4.464,0,0,0,1.362,4.31c1.345,1.124,3.335,1.12,5.753-.014,5.795-2.716,9.348-6.42,10.275-10.714a10.4,10.4,0,0,0-.342-5.74.474.474,0,0,1,.871-.374,11.147,11.147,0,0,1,.41,6.259c-.68,3.22-3.107,7.816-10.812,11.428a8.768,8.768,0,0,1-3.695.947" transform="translate(-223.886 -263.206)"/><path class="k" d="M33.136,138.254s-4.367-9.826-1.092-12.478,12.946,2.5,14.35,5.3-10.02,14.544-13.258,7.175" transform="translate(-25.881 -104.981)"/><path class="g" d="M34.244,138.818q-.209,0-.414-.019a3.992,3.992,0,0,1-3.314-2.634c-.187-.421-4.461-10.165-.968-12.993,1.053-.852,2.758-1.054,4.931-.583,3.926.85,9.014,3.894,10.082,6.03.564,1.128-.464,2.921-1.126,3.889-1.843,2.694-5.834,6.31-9.191,6.31m-1.891-15.61a3.53,3.53,0,0,0-2.257.64c-2.472,2,.039,9.314,1.216,11.963v0a3.133,3.133,0,0,0,2.6,2.119c2.761.256,6.721-2.87,8.805-5.916,1.095-1.6,1.269-2.6,1.066-3.008-.868-1.737-5.509-4.707-9.488-5.568a9.264,9.264,0,0,0-1.942-.231" transform="translate(-23.659 -102.715)"/><path class="h" d="M58.138,158.608s-2.033-4.574-.508-5.808,6.026,1.162,6.68,2.469-4.075,8.124-6.171,3.34" transform="translate(-47.909 -128)"/><path class="i" d="M60.083,160.267c-.054,0-.108,0-.162-.008-.749-.07-1.361-.635-1.817-1.677a16.533,16.533,0,0,1-.826-2.442,7.205,7.205,0,0,1-.246-1.94,1.85,1.85,0,0,1,.566-1.432,2.545,2.545,0,0,1,2.13-.232,9.734,9.734,0,0,1,2.81,1.167,4.873,4.873,0,0,1,1.748,1.536c.219.437-.157,1.514-.914,2.62-.811,1.185-2.084,2.409-3.288,2.409m-1.3-7.831a1.566,1.566,0,0,0-1.74,1.765,7.2,7.2,0,0,0,.246,1.937,16.542,16.542,0,0,0,.826,2.44c.455,1.038,1.063,1.6,1.808,1.67.053,0,.107.008.161.008,1.2,0,2.469-1.222,3.279-2.4.755-1.1,1.13-2.174.914-2.608a4.865,4.865,0,0,0-1.744-1.531,9.712,9.712,0,0,0-2.807-1.165,4.488,4.488,0,0,0-.942-.112" transform="translate(-47.88 -127.973)"/><path class="k" d="M246.36,123.069s8.451-6.649,11.827-4.126.763,13.162-1.613,15.213-16.5-1.609-10.214-11.087" transform="translate(-205.498 -99.383)"/><path class="i" d="M252.085,132.912a12.747,12.747,0,0,1-7.749-2.848c-1.621-1.428-3.855-4.556-.6-9.463l.039-.058.055-.043c.356-.28,8.755-6.825,12.357-4.132,1.085.811,1.7,2.414,1.777,4.636.141,4.015-1.558,9.695-3.367,11.255a3.954,3.954,0,0,1-2.511.654m-7.663-11.772c-2.692,4.105-1.223,6.762.489,8.271,2.859,2.519,7.914,3.225,9.116,2.188,1.47-1.269,3.208-6.5,3.065-10.566-.068-1.949-.562-3.321-1.428-3.969-2.529-1.89-8.917,2.26-11.242,4.076" transform="translate(-203.237 -97.155)"/><path class="h" d="M271.493,150.1s3.934-3.095,5.505-1.92.355,6.127-.751,7.081-7.68-.749-4.754-5.161" transform="translate(-227.317 -124.183)"/><path class="i" d="M275.175,155.491a4.922,4.922,0,0,1-.929-.1,5.539,5.539,0,0,1-2.543-1.181,2.724,2.724,0,0,1-.971-1.714,3.622,3.622,0,0,1,.725-2.434h0a16.519,16.519,0,0,1,2.164-1.4,7.2,7.2,0,0,1,1.82-.716,1.852,1.852,0,0,1,1.528.2,2.545,2.545,0,0,1,.748,2.007,9.729,9.729,0,0,1-.44,3.011,4.877,4.877,0,0,1-1.059,2.072,1.681,1.681,0,0,1-1.045.257m-3.709-5.419c-1.355,2.044-.615,3.376.244,4.133a5.529,5.529,0,0,0,2.538,1.179,2.659,2.659,0,0,0,1.964-.159,4.862,4.862,0,0,0,1.055-2.067,9.709,9.709,0,0,0,.44-3.007,2.534,2.534,0,0,0-.744-2,1.84,1.84,0,0,0-1.518-.194,7.191,7.191,0,0,0-1.817.714,16.531,16.531,0,0,0-2.162,1.4" transform="translate(-227.286 -124.155)"/><path class="f" d="M6.882,152.187s3.341-13.411,13.012-16.842,22.066-1.866,27.607.936c8.083,4.087,13.414,19.653,11.386,28.543,0,0,3.64,1.749,1.618,2.152-.468.093-3.3-.237-2.554.032,1.126.4,3.171.52,2.86,1.248s-.808.5-3.64.676a21.107,21.107,0,0,1,2.5.728c.52.26,1.144.884-2.807.884,0,0-4.787,7.331-24.984,7.331S7.1,170.2,7.1,170.2s-2.934.744-3.118-.351c-.1-.584,2.172-.819,2.172-.819s-2.686.539-3.09-.183c-.527-.943,3.09-2.274,3.09-2.274s-3.014,1.521-3.412,0,2.838-2.223,2.838-2.223-.742-6.814,1.3-12.169" transform="translate(-2.277 -111.987)"/><path class="g" d="M31.592,177.636c-10.444,0-16.633-2.088-19.985-3.841a12.908,12.908,0,0,1-4.812-3.82c-.3.072-2.138.49-2.861.018a.614.614,0,0,1-.287-.423.29.29,0,0,1,.063-.23,1.391,1.391,0,0,1,.652-.358c-.7.031-1.424-.033-1.627-.4a.469.469,0,0,1-.025-.408c.162-.437.88-.9,1.59-1.262a2.314,2.314,0,0,1-1.4-.015.869.869,0,0,1-.5-.6,1.031,1.031,0,0,1,.13-.828c.563-.916,2.376-1.375,2.7-1.451-.06-.623-.625-7.074,1.306-12.143a34.524,34.524,0,0,1,2.883-7.144c1.87-3.459,5.15-7.955,10.162-9.733a39.719,39.719,0,0,1,15.374-1.873,33.934,33.934,0,0,1,12.277,2.811c3.753,1.9,7.219,6.454,9.511,12.5,2.173,5.734,2.887,11.733,1.913,16.062.371.181,2.3,1.155,2.219,1.8-.026.209-.24.351-.653.433a9.607,9.607,0,0,1-1.427-.031c-.41-.024-.9-.053-1.12-.043h0a10.692,10.692,0,0,0,1.175.31c.792.179,1.541.348,1.715.689a.364.364,0,0,1,0,.322c-.246.574-.606.586-1.944.63-.376.012-.828.027-1.38.057a16.14,16.14,0,0,1,2.154.646c.173.087.457.262.409.467-.082.349-1.133.519-3.212.52a13.251,13.251,0,0,1-4.923,3.66c-3.4,1.675-9.646,3.671-20.09,3.671M6.845,169.85l.021.035c.011.019,1.184,1.932,4.8,3.82,3.341,1.744,9.51,3.822,19.924,3.822s16.651-1.99,20.042-3.66c3.666-1.805,4.884-3.628,4.9-3.646l.016-.025h.03c2.736,0,3.1-.305,3.134-.436.022-.093-.112-.225-.351-.344a21.159,21.159,0,0,0-2.484-.724l-.357-.085.366-.023c.722-.045,1.289-.064,1.746-.079,1.316-.043,1.628-.054,1.847-.564a.257.257,0,0,0,0-.23c-.151-.3-.909-.466-1.642-.632a10.78,10.78,0,0,1-1.187-.313c-.092-.033-.174-.068-.16-.135.018-.09.135-.1,1.322-.034a10.067,10.067,0,0,0,1.4.032c.356-.071.546-.185.566-.34.064-.505-1.564-1.405-2.2-1.71l-.039-.019.009-.042c.983-4.312.274-10.308-1.9-16.041-2.282-6.021-5.729-10.555-9.458-12.441a33.823,33.823,0,0,0-12.234-2.8,39.6,39.6,0,0,0-15.33,1.867c-4.979,1.767-8.242,6.241-10.1,9.683a34.357,34.357,0,0,0-2.874,7.122l0,.006c-2.013,5.281-1.3,12.076-1.3,12.144l.005.049-.048.01c-.021,0-2.1.465-2.679,1.412a.926.926,0,0,0-.117.743.764.764,0,0,0,.437.531,3.047,3.047,0,0,0,1.966-.181c.5-.225.9-.372.937-.387l.043.1a8.31,8.31,0,0,1-.947.394c-.832.376-1.942.962-2.137,1.488a.36.36,0,0,0,.018.317c.241.43,1.382.38,2.194.284.433-.086.809-.126.843-.129l.016.107c-.039.008-.392.078-.851.131a2.479,2.479,0,0,0-1.236.48.184.184,0,0,0-.043.145.5.5,0,0,0,.239.349c.731.477,2.792-.037,2.813-.042Z" transform="translate(-1.992 -111.696)"/><path class="k" d="M137.364,189.7a6.5,6.5,0,0,0,1.787,2c.884.468,2.652,1.3,2.6-.26s-.545-5.549-3.509-4.048a1.558,1.558,0,0,0-.877,2.31" transform="translate(-115.139 -157.054)"/><path class="k" d="M187.208,187.208s2.2-5.018,4.484-4.229c2.46.849.858,2.877-.663,3.781-1.164.692-2.826,2.108-3.451,1.677a.868.868,0,0,1-.37-1.228" transform="translate(-157.074 -153.556)"/><path class="k" d="M61.588,281.031s6.5,2.282,8.062,2.542c0,0-2.69-8.725-.948-17.109,1.272-6.122,2.47-5.283-.988-5.709-3.005-.37-4.523-1.038-5.251,2.011a48.069,48.069,0,0,0-.875,18.265" transform="translate(-51.289 -218.649)"/><path class="k" d="M238.623,277.638s4.222-7.313,3.557-15.33c-.312-3.762-.78-5.125-2.08-6.876s3.743-2.4,4.679-2.465,2.911-.389,3.951,5.19.088,14.595-1.627,17.643a42.062,42.062,0,0,1-8.481,1.838" transform="translate(-200.344 -212.365)"/><path class="k" d="M130.994,248.3s2.288-5.574,5.875-5.563c4.119.012,6.6,1.976,7.955,6.187s.884,8.994-4.627,10.762-13-1.612-9.2-11.386" transform="translate(-109.114 -203.797)"/><path class="g" d="M161,255.877a2.313,2.313,0,0,1,2.1-1.662c1.719-.123,2.951,1.54,2.136,2.556-.478.6-4.751.778-4.234-.894" transform="translate(-135.134 -213.43)"/><path class="f" d="M19.27,355.751c.476-.056.835-.128.835-.128s-.387.04-.835.128" transform="translate(-16.179 -298.576)"/><path class="f" d="M18.669,340.694a8.4,8.4,0,0,0,.932-.386s-.409.151-.932.386" transform="translate(-15.674 -285.717)"/><path class="j" d="M160.075,275.322s-.117,5.771,3.236,5.771,2.88-6.333,2.88-6.333a1.621,1.621,0,0,1-1.727,0,3.555,3.555,0,0,1-1.611-3.019s.068,3.151-2.779,3.58" transform="translate(-134.396 -228.15)"/><path class="g" d="M162.478,280.42a2.56,2.56,0,0,1-1.892-.793c-1.558-1.59-1.507-5-1.5-5.14a.159.159,0,0,1,.135-.154c2.438-.367,2.63-2.808,2.643-3.327,0-.033,0-.065,0-.1a.159.159,0,0,1,.159-.156h0a.159.159,0,0,1,.159.156s0,.024,0,.063a3.416,3.416,0,0,0,1.554,2.837c.626.523,1.534-.009,1.544-.014a.159.159,0,0,1,.24.125c.012.165.283,4.052-1.282,5.739a2.31,2.31,0,0,1-1.756.764m-3.077-5.8c.007.64.114,3.454,1.413,4.78a2.252,2.252,0,0,0,1.664.7A2,2,0,0,0,164,279.44c1.259-1.356,1.243-4.39,1.21-5.261a1.61,1.61,0,0,1-1.683-.128,4.19,4.19,0,0,1-1.513-1.985,3.269,3.269,0,0,1-2.615,2.559" transform="translate(-133.563 -227.318)"/><path class="l" d="M158.842,282.982a5.878,5.878,0,0,1,5.576-.158v-2.415s-1.941-.1-2.369-.848-.868-1.482-.868-1.482-.838,2.086-2.037,2.544l-.829-.137v1.492Z" transform="translate(-132.919 -233.471)"/><path class="m" d="M159.877,279.251a2.827,2.827,0,0,1-2.089-.876c-1.638-1.672-1.586-5.19-1.583-5.339a.435.435,0,0,1,.371-.422,2.973,2.973,0,0,0,2.407-3.044c0-.037,0-.075,0-.113a.436.436,0,0,1,.435-.428h0a.435.435,0,0,1,.435.426c0,.048,0,.1,0,.15a3.161,3.161,0,0,0,1.455,2.544c.471.394,1.216-.035,1.223-.039a.436.436,0,0,1,.659.341c.013.17.291,4.173-1.355,5.948a2.577,2.577,0,0,1-1.959.853m-2.8-5.85c.03.885.216,3.23,1.33,4.365a1.96,1.96,0,0,0,1.466.614,1.713,1.713,0,0,0,1.32-.574c1.052-1.133,1.158-3.564,1.146-4.693a1.727,1.727,0,0,1-1.593-.3,5.3,5.3,0,0,1-1.3-1.424,3.441,3.441,0,0,1-2.365,2.008" transform="translate(-131.147 -225.873)"/><path class="g" d="M147.666,272.19a4.268,4.268,0,0,1-2.214-.744.435.435,0,0,1,.505-.709,2.831,2.831,0,0,0,2.363.452c.773-.338,1.3-1.389,1.515-3.04a.436.436,0,0,1,.867.034c.034.614.331,2.32,1.287,2.827a2.387,2.387,0,0,0,2.3-.41.435.435,0,0,1,.447.747,3.16,3.16,0,0,1-3.162.43,3.083,3.083,0,0,1-1.326-1.652,3.105,3.105,0,0,1-1.589,1.862,2.488,2.488,0,0,1-1,.2" transform="translate(-121.966 -224.816)"/><path class="g" d="M29.6,175.808c-10.521,0-16.771-2.112-20.162-3.884a14.029,14.029,0,0,1-4.8-3.729c-.685.147-2.17.388-2.9-.091a.993.993,0,0,1-.454-.678.652.652,0,0,1,.029-.327,1.254,1.254,0,0,1-.9-.534.846.846,0,0,1-.049-.726,1.857,1.857,0,0,1,.587-.727,1.454,1.454,0,0,1-.192-.07,1.25,1.25,0,0,1-.71-.854,1.418,1.418,0,0,1,.174-1.124,4.732,4.732,0,0,1,2.6-1.535,29.374,29.374,0,0,1,1.14-11.7,35.962,35.962,0,0,1,3.03-7.354c2.8-5.128,6.426-8.6,10.483-10.039,9.8-3.477,21.087-2.03,27.927.947,3.73,1.623,7.237,6.165,9.622,12.46,2.175,5.739,2.963,11.917,2.087,16.242,1.1.561,2.255,1.33,2.163,2.06-.044.347-.308.589-.785.719a1.022,1.022,0,0,1,.437.419.749.749,0,0,1,.013.645c-.257.6-.641.758-1.4.82l.048.023c.638.319.655.7.609.9-.119.5-.719.8-3.391.813a14.255,14.255,0,0,1-4.945,3.621c-3.437,1.693-9.741,3.71-20.258,3.71m-24.772-8.54a.436.436,0,0,1,.374.212c.01.017,1.168,1.877,4.726,3.717,3.3,1.706,9.393,3.74,19.672,3.74s16.434-1.945,19.784-3.577c3.613-1.76,4.824-3.54,4.836-3.558a.439.439,0,0,1,.364-.2,14.37,14.37,0,0,0,2.412-.142c-.505-.184-1.561-.459-2.2-.611a.435.435,0,0,1,.073-.858c.727-.046,1.3-.064,1.757-.079,1.259-.041,1.388-.077,1.481-.27a5.883,5.883,0,0,0-1.346-.4,11.043,11.043,0,0,1-1.232-.326c-.422-.151-.435-.422-.4-.57.081-.4.5-.389.834-.381.242.006.554.024.884.043a12.037,12.037,0,0,0,1.3.039,1.357,1.357,0,0,0,.214-.058,6.885,6.885,0,0,0-1.936-1.274.436.436,0,0,1-.236-.489c.953-4.179.194-10.339-1.98-16.077-2.269-5.988-5.692-10.463-9.155-11.971-6.467-2.814-17.764-4.3-27.288-.925C8.425,136.567,4.835,149.92,4.8,150.054l0,.016a28.294,28.294,0,0,0-1.06,11.71.436.436,0,0,1-.336.5,4.618,4.618,0,0,0-2.436,1.24.545.545,0,0,0-.073.447.381.381,0,0,0,.225.28,2.616,2.616,0,0,0,1.591-.159c.427-.193.805-.339,1.025-.42a.435.435,0,0,1,.346.8,8.39,8.39,0,0,1-1.013.421c-1.018.468-1.837,1-1.888,1.257a3.217,3.217,0,0,0,1.72.1c.366-.075.714-.119.941-.143a.435.435,0,0,1,.131.86c-.244.049-.578.108-.947.151a3.621,3.621,0,0,0-.822.255l.011.008a4.64,4.64,0,0,0,2.511-.092.435.435,0,0,1,.107-.013m-.449-17.324h0Z" transform="translate(0 -109.486)"/><path class="g" d="M85.593,237.051h-9.48a.49.49,0,0,1,0-.98h9.48a.49.49,0,1,1,0,.98" transform="translate(-63.492 -198.202)"/><path class="g" d="M226.54,237.051h-9.48a.49.49,0,0,1,0-.98h9.48a.49.49,0,1,1,0,.98" transform="translate(-181.829 -198.202)"/><path class="l" d="M135.073,63.236h-15.06a3.226,3.226,0,0,1-3.226-3.226V54.2a1.777,1.777,0,0,1,1.777-1.777h16.508a1.746,1.746,0,0,1,1.746,1.746V61.49a1.746,1.746,0,0,1-1.746,1.746" transform="translate(-98.053 -44.009)"/><path class="d" d="M137.65,55.121h-.773v-.773a1.934,1.934,0,0,0-1.932-1.932H118.719a1.934,1.934,0,0,0-1.932,1.932V61.3a1.934,1.934,0,0,0,1.932,1.932h16.227a1.934,1.934,0,0,0,1.932-1.932V60.53h.773a.774.774,0,0,0,.773-.773V55.894a.774.774,0,0,0-.773-.773M136.1,61.3a1.16,1.16,0,0,1-1.159,1.159H118.719A1.16,1.16,0,0,1,117.56,61.3V54.349a1.16,1.16,0,0,1,1.159-1.159h16.227a1.16,1.16,0,0,1,1.159,1.159V61.3Z" transform="translate(-98.053 -44.009)"/><rect class="n" width="4.057" height="6.954" transform="translate(32.836 10.34)"/><rect class="o" width="12.17" height="6.954" transform="translate(20.666 10.34)"/><path class="d" d="M165.555,75.71l1.284-1.715-2.316-1.587,3.743-1.623L166.983,72.5l2.316,1.587Z" transform="translate(-138.131 -59.43)"/><path class="p" d="M320.483,371.85a12.535,12.535,0,0,1,2.173-1.718,1.557,1.557,0,0,1,.848-.34,1.062,1.062,0,0,1,.495.152,3.258,3.258,0,0,1,.989,1.013,20.174,20.174,0,0,1,1.629,2.691.838.838,0,0,1,.126.515.825.825,0,0,1-.228.38,11.885,11.885,0,0,1-2,1.644l-1.672,1.184" transform="translate(-269.073 -310.472)"/><path class="q" d="M323.773,369.406a2.181,2.181,0,0,0-.432-.325,1.186,1.186,0,0,0-.556-.168,1.665,1.665,0,0,0-.932.365,12.775,12.775,0,0,0-2.2,1.74.141.141,0,0,0,0,.2h0a.14.14,0,0,0,.2-.013,12.486,12.486,0,0,1,2.146-1.7,1.431,1.431,0,0,1,.763-.315.936.936,0,0,1,.434.135,3.169,3.169,0,0,1,.948.977,19.9,19.9,0,0,1,1.619,2.674.739.739,0,0,1,.114.428.693.693,0,0,1-.19.3,11.785,11.785,0,0,1-1.971,1.621l-1.672,1.184a.148.148,0,0,0-.045.2.134.134,0,0,0,.193.029l1.672-1.184a12.041,12.041,0,0,0,2.023-1.668.962.962,0,0,0,.266-.455.948.948,0,0,0-.137-.6,20.135,20.135,0,0,0-1.639-2.707,4.9,4.9,0,0,0-.6-.724" transform="translate(-268.34 -309.734)"/><path class="i" d="M321.314,376.136a.291.291,0,0,1-.054-.005.273.273,0,0,1-.179-.121.3.3,0,0,1,.085-.4l1.672-1.184a11.675,11.675,0,0,0,1.946-1.6.6.6,0,0,0,.154-.231.655.655,0,0,0-.1-.334,19.729,19.729,0,0,0-1.607-2.654,3.048,3.048,0,0,0-.9-.933.792.792,0,0,0-.363-.116,1.311,1.311,0,0,0-.678.29,12.361,12.361,0,0,0-2.12,1.674.291.291,0,0,1-.407.02l0,0a.292.292,0,0,1,0-.411,12.914,12.914,0,0,1,2.225-1.762,1.793,1.793,0,0,1,1.018-.39,1.336,1.336,0,0,1,.627.188,2.321,2.321,0,0,1,.462.347,5.076,5.076,0,0,1,.616.746,20.287,20.287,0,0,1,1.651,2.728.923.923,0,0,1-.152,1.223,12.136,12.136,0,0,1-2.047,1.689l-1.672,1.184a.3.3,0,0,1-.173.056" transform="translate(-267.555 -308.947)"/><path class="q" d="M326.881,375.629a.147.147,0,0,0-.2.213,14.371,14.371,0,0,1,3.249,4.887.13.13,0,0,0,.179.07.152.152,0,0,0,.085-.187,14.429,14.429,0,0,0-3.311-4.982h0" transform="translate(-274.242 -315.343)"/><path class="i" d="M329.264,380.174a.282.282,0,0,1-.11-.022.271.271,0,0,1-.15-.159,14.208,14.208,0,0,0-3.212-4.829.292.292,0,0,1,0-.411.3.3,0,0,1,.211-.1.271.271,0,0,1,.2.076h0a14.6,14.6,0,0,1,3.349,5.04.3.3,0,0,1-.165.376.3.3,0,0,1-.12.025" transform="translate(-273.458 -314.556)"/><path class="q" d="M334.094,371.846q-.253-.241-.524-.465a.142.142,0,0,0-.2.026.14.14,0,0,0,.009.2,10.107,10.107,0,0,1,3.163,4.691.129.129,0,0,0,.176.076.153.153,0,0,0,.091-.184,10.4,10.4,0,0,0-2.717-4.342" transform="translate(-279.864 -311.781)"/><path class="i" d="M335.884,375.749a.281.281,0,0,1-.119-.026.272.272,0,0,1-.146-.165,9.96,9.96,0,0,0-3.116-4.622.3.3,0,0,1,.38-.456c.181.15.36.309.531.472a10.59,10.59,0,0,1,2.757,4.405.3.3,0,0,1-.178.37.294.294,0,0,1-.11.022" transform="translate(-279.082 -310.997)"/><path class="j" d="M287.078,353.988s1.415.131,3.268,2.39c.7.85-.125,3.493-2.189,2.781a5.621,5.621,0,0,1-3.2-2.479,1.962,1.962,0,0,1,2.119-2.693" transform="translate(-239.147 -297.194)"/><path class="g" d="M286.337,357.27a2.508,2.508,0,0,1-.818-.143,6.134,6.134,0,0,1-3.473-2.726,2.786,2.786,0,0,1,.275-2.438,2.375,2.375,0,0,1,2.309-.929h.009c.165.015,1.668.217,3.591,2.562a2.443,2.443,0,0,1-.154,2.736,2.076,2.076,0,0,1-1.738.937m-2.006-5.3a1.39,1.39,0,0,0-1.229.531,1.884,1.884,0,0,0-.2,1.5,5.206,5.206,0,0,0,2.924,2.231,1.173,1.173,0,0,0,1.468-.439,1.587,1.587,0,0,0,.2-1.593c-1.624-1.981-2.866-2.206-2.948-2.219s-.147-.008-.217-.008" transform="translate(-236.664 -294.713)"/><path class="j" d="M260.117,369.67a15.072,15.072,0,0,0-9.637-.264c-2.123.589-4.111,7.541,0,9.211s10.78-2.016,11.6-2.524c1.016-.632,2.136-3.176-1.956-6.424" transform="translate(-208.288 -309.616)"/><path class="g" d="M250,376.65a7.114,7.114,0,0,1-2.687-.477c-1.877-.763-2.872-2.612-2.729-5.071.125-2.164,1.229-4.769,2.794-5.2a15.521,15.521,0,0,1,10.022.294.563.563,0,0,1,.115.071c2.693,2.138,3.18,3.959,3.114,5.11a2.8,2.8,0,0,1-1.211,2.232c-.06.037-5.041,3.044-9.418,3.044m2.076-10.276a16.419,16.419,0,0,0-4.4.608c-.813.226-1.851,2.1-1.972,4.184-.066,1.145.109,3.183,2.03,3.964,3.565,1.45,9.652-1.588,11.087-2.48a1.685,1.685,0,0,0,.682-1.341c.071-1.238-.863-2.7-2.631-4.117a13.256,13.256,0,0,0-4.8-.817" transform="translate(-205.341 -306.65)"/></g></svg>