<svg xmlns="http://www.w3.org/2000/svg" xmlns:xlink="http://www.w3.org/1999/xlink" width="79.857" height="110" viewBox="0 0 79.857 110"><defs><style>.a{fill:none;}.b{clip-path:url(#a);}.c{fill:#ec7032;}.d{fill:#231815;}.e{fill:#79371e;}.f{fill:#fff9ef;}.g{opacity:0.5;}.h{clip-path:url(#c);}.i{fill:#fff;}.j{clip-path:url(#d);}.k{fill:#171818;}.l{fill:#262727;}.m{fill:#de6164;}.n{fill:#88e3ff;}.o{opacity:0.2;}.p{clip-path:url(#e);}.q{fill:#2463a0;}.r{clip-path:url(#f);}.s{fill:#98bede;}.t{fill:#090909;}.u{fill:#fff4ea;}.v{fill:#df9669;}.w{fill:#ff4d4d;}.x{fill:#f3b411;}</style><clipPath id="a"><rect class="a" width="79.857" height="110"/></clipPath><clipPath id="c"><rect class="a" width="7.421" height="6.668"/></clipPath><clipPath id="d"><rect class="a" width="7.421" height="5.106"/></clipPath><clipPath id="e"><rect class="a" width="67.493" height="12.156"/></clipPath><clipPath id="f"><rect class="a" width="8.924" height="9.735"/></clipPath></defs><g class="b"><g class="b"><path class="c" d="M76.874,281.475s-25.854,1.688-16.1,20.066c2.9,5.468,20.538,3.429,20.538,3.429s6.734-6.872-.95-7.041S64.423,297,70.2,293.472" transform="translate(-46.139 -221.715)"/><path class="d" d="M72.163,303.827c-5.4,0-12.163-.715-13.96-4.1-2.611-4.919-2.966-9.149-1.056-12.574,4.1-7.35,17.064-8.278,17.614-8.314a.56.56,0,0,1,.073,1.118c-.129.008-12.908.925-16.709,7.743-1.712,3.071-1.353,6.941,1.067,11.5,2.2,4.149,14.828,3.7,19.778,3.157.908-.974,2.887-3.5,2.344-4.829-.357-.876-1.851-1.091-3.04-1.118-10.546-.231-12.289-1.456-12.6-2.623-.322-1.2,1.078-2.212,2.159-2.872a.56.56,0,0,1,.584.957c-1.752,1.069-1.675,1.57-1.661,1.624.1.364,1.22,1.568,11.546,1.794,2.219.049,3.583.66,4.054,1.816.952,2.338-2.338,5.791-2.716,6.177a.56.56,0,0,1-.336.164,67.9,67.9,0,0,1-7.137.38" transform="translate(-44.062 -219.636)"/><path class="e" d="M263.018,315.412a11.529,11.529,0,0,0-3.518,5.58c-.179.541-.378,1.138-.592,1.774,3.626.18,8.268,2.155,10.983,10.043a6.148,6.148,0,0,1,2.167-3.918c-1.354-8.385-5.636-11.957-9.04-13.479" transform="translate(-203.94 -248.447)"/><path class="d" d="M269.858,332.785a.008.008,0,0,1-.008-.006c-2.747-7.981-7.485-9.864-10.975-10.037a.01.01,0,0,1-.007,0,.009.009,0,0,1,0-.008c.221-.657.42-1.254.592-1.774a11.569,11.569,0,0,1,3.521-5.584.009.009,0,0,1,.009,0c3.377,1.51,7.687,5.075,9.045,13.486a.009.009,0,0,1,0,.008,6.174,6.174,0,0,0-2.164,3.913.008.008,0,0,1-.008.007Zm-10.971-10.06a10.229,10.229,0,0,1,5.827,2.132,16.425,16.425,0,0,1,5.142,7.886,6.175,6.175,0,0,1,2.16-3.888c-1.357-8.4-5.658-11.956-9.029-13.465a11.556,11.556,0,0,0-3.511,5.572c-.171.517-.369,1.11-.588,1.763" transform="translate(-203.907 -248.415)"/><path class="e" d="M238.357,384.778c-.916,2.651-1.783,5.138-2.338,6.728,3.719.633,8.906,2.929,11.855,10.4a11.767,11.767,0,0,0,2.908-5.754c-2.711-7.857-8.221-10.526-12.426-11.374" transform="translate(-185.91 -303.086)"/><path class="d" d="M247.841,401.882h0a.009.009,0,0,1-.006-.005c-2.93-7.423-8.061-9.75-11.849-10.395a.009.009,0,0,1-.006,0,.008.008,0,0,1,0-.007c.45-1.289,1.353-3.877,2.338-6.728a.009.009,0,0,1,.008-.006h0c4.17.841,9.713,3.5,12.432,11.379a.008.008,0,0,1,0,.005,11.762,11.762,0,0,1-2.911,5.758.008.008,0,0,1-.006,0M236,391.466a14.327,14.327,0,0,1,6.21,2.636,17.382,17.382,0,0,1,5.637,7.756,11.76,11.76,0,0,0,2.9-5.738c-2.716-7.867-8.246-10.522-12.411-11.364-.982,2.841-1.881,5.42-2.332,6.711" transform="translate(-185.877 -303.053)"/><path class="c" d="M249.552,350.049c-.737,2.19-1.652,4.856-2.522,7.373,4.2.848,9.715,3.517,12.426,11.374a33.627,33.627,0,0,0,.817-6.421,14.905,14.905,0,0,1,.262-2.283c-2.715-7.888-7.356-9.863-10.983-10.043" transform="translate(-194.583 -275.731)"/><path class="e" d="M315.578,305.6a14.93,14.93,0,0,0-5.4-.975c-.615.013-1.215.04-1.8.088a18.268,18.268,0,0,1,6.693,14.382c1.18-.121,2.374-.162,3.439-.373a25.234,25.234,0,0,0-2.928-13.122" transform="translate(-242.904 -239.946)"/><path class="d" d="M315.034,319.069l-.006,0a.008.008,0,0,1,0-.007,18.313,18.313,0,0,0-6.69-14.375.009.009,0,0,1,.005-.015c.555-.045,1.143-.074,1.8-.088.083,0,.167,0,.251,0a15.035,15.035,0,0,1,5.157.978.008.008,0,0,1,0,0,22.5,22.5,0,0,1,2.116,5.387,28.351,28.351,0,0,1,.813,7.739.009.009,0,0,1-.007.008,20.738,20.738,0,0,1-2.338.276c-.361.029-.735.059-1.1.1Zm-6.671-14.383a20.748,20.748,0,0,1,4.626,5.705,17.075,17.075,0,0,1,2.054,8.66c.365-.037.735-.067,1.093-.1a20.788,20.788,0,0,0,2.329-.274,25.6,25.6,0,0,0-2.925-13.107,14.867,14.867,0,0,0-5.4-.973c-.648.014-1.23.042-1.778.086" transform="translate(-242.871 -239.914)"/><path class="c" d="M228.181,416.466c-.364,1.043-.595,1.7-.618,1.767,0,0-4.932,10.225,3.123,10.97,4.024.372,7.156-.165,9.35-2.336-2.949-7.472-8.136-9.767-11.855-10.4" transform="translate(-178.072 -328.047)"/><path class="c" d="M284.66,305.046a11.2,11.2,0,0,0-6.392,2.2c3.4,1.521,7.686,5.094,9.04,13.479a7.822,7.822,0,0,1,4.044-1.3,18.268,18.268,0,0,0-6.693-14.382" transform="translate(-219.189 -240.282)"/><path class="c" d="M342.3,309.223a25.234,25.234,0,0,1,2.928,13.122,3.962,3.962,0,0,0,3.533-3.315c1.086-5.034-2.438-8.3-6.461-9.807" transform="translate(-269.631 -243.572)"/><path class="d" d="M230.911,340.211q-1.049,0-2.222-.109a5.223,5.223,0,0,1-4.393-2.457c-1.885-3.334.6-8.749.832-9.237.223-.637,4.23-12.076,6.057-17.606,2.2-6.658,6.466-8.105,12.2-8.229,3.337-.075,8.135,1.306,10.773,4.5a7.892,7.892,0,0,1,1.617,6.915c-.766,3.552-3.6,3.781-6.34,4-3.5.284-6.808.552-7.094,7.1-.285,6.5-1.638,10.591-4.261,12.879-1.733,1.512-4.043,2.241-7.166,2.241m12.721-36.589-.227,0c-5.436.117-9.21,1.414-11.222,7.508-1.873,5.67-6.031,17.532-6.073,17.651a.477.477,0,0,1-.022.054c-.026.053-2.54,5.352-.876,8.292a4.243,4.243,0,0,0,3.574,1.926c3.978.368,6.71-.229,8.6-1.878,2.391-2.086,3.631-5.941,3.9-12.134.327-7.47,4.614-7.817,8.059-8.1,2.68-.217,4.8-.389,5.4-3.178a6.787,6.787,0,0,0-1.4-6.024c-2.253-2.731-6.539-4.124-9.712-4.124m-18.018,24.987h0Z" transform="translate(-176.123 -238.333)"/><path class="c" d="M207.432,283.929s20.8,1.794,14.766,14.31c-2.688,5.576-20.538,3.429-20.538,3.429s-6.734-6.872.949-7.041,15.939-.933,10.165-4.457" transform="translate(-156.696 -223.648)"/><path class="d" d="M206.933,300.559a67.978,67.978,0,0,1-7.412-.414.559.559,0,0,1-.333-.164c-.379-.386-3.669-3.839-2.717-6.177.471-1.156,1.835-1.767,4.054-1.815,10.326-.227,11.448-1.431,11.546-1.794.015-.054.091-.555-1.661-1.624a.56.56,0,1,1,.584-.957c1.081.66,2.481,1.675,2.159,2.872-.314,1.168-2.058,2.392-12.6,2.623-1.19.026-2.683.241-3.04,1.117-.544,1.333,1.438,3.857,2.345,4.83,5,.574,17.733,1.08,19.767-3.139,1.29-2.675,1.378-5.026.261-6.987-3.113-5.468-14.457-6.512-14.571-6.521a.56.56,0,0,1,.1-1.117c.49.042,12.043,1.1,15.448,7.082,1.311,2.3,1.235,5-.225,8.03-1.649,3.42-8.294,4.155-13.7,4.155" transform="translate(-154.623 -221.569)"/><path class="c" d="M118.375,253.366s-14.531-1.648-15.13,33.405,14.98,14.081,15.8,12.433,4.045-4.419,6.666-.075,4.269,6.516,8.389,6.292,5.468-3.82,5.917-7.415,1.049-47.187-21.646-44.64" transform="translate(-81.312 -199.49)"/><path class="f" d="M148.327,346.544c-2.419-18.2-16.578-19.774-21.471-3.3-3.839,12.926-1.348,22.164-.1,25.546,4.158-.379,8.841-6.819,9.283-7.7.824-1.648,4.044-4.419,6.666-.075,2.373,3.932,3.948,6.085,7.281,6.291.429-5.831-.661-13.22-1.663-20.764" transform="translate(-98.306 -261.378)"/><path class="d" d="M107.429,305.5a4.138,4.138,0,0,1-.989-.117c-3.977-.975-5.884-7.9-5.668-20.569.335-19.579,5.062-27.777,8.969-31.206,3.238-2.843,6.194-2.755,6.68-2.719a14.336,14.336,0,0,1,12.3,4.336c5.622,5.693,8.043,15.907,9.084,23.473a89.644,89.644,0,0,1,.789,17.424c-.6,4.766-2.692,7.181-6.41,7.384-4.347.236-6.173-1.59-8.867-6.054-.853-1.414-1.809-2.109-2.847-2.069a3.912,3.912,0,0,0-2.9,2.108c-.373.747-5.5,8.009-10.143,8.009m8.716-53.568a8.933,8.933,0,0,0-5.752,2.5c-3.729,3.3-8.242,11.256-8.57,30.4-.258,15.093,2.5,18.951,4.867,19.53,3.905.958,9.345-6.148,9.941-7.341a4.916,4.916,0,0,1,3.8-2.688c.994-.042,2.46.375,3.788,2.577,2.621,4.343,4.133,5.755,7.91,5.548,3.215-.175,4.888-2.169,5.424-6.465.4-3.2.633-29.689-9.578-40.029a13.338,13.338,0,0,0-11.488-4.024.528.528,0,0,1-.116,0s-.083-.008-.226-.008" transform="translate(-79.365 -197.542)"/><g class="g" transform="translate(35.769 75.039)"><g class="h"><path class="i" d="M175.9,353.442l-7.421,4.5.011,2.17,7.39-4.423Z" transform="translate(-168.477 -353.442)"/></g></g><g class="g" transform="translate(35.805 77.626)"><g class="j"><path class="i" d="M176.064,365.628l-7.421,4.5.023.608,7.39-4.423Z" transform="translate(-168.643 -365.628)"/></g></g><path class="c" d="M224.555,489.134s-1.51-2.587,1.788-4.962,6.68,0,7.42.665c.611.55,2.486,4.591-.784,5.063s-3.442-1.332-6.553-.01a1.346,1.346,0,0,1-1.871-.755" transform="translate(-176.608 -380.565)"/><path class="d" d="M223.844,488.632a1.813,1.813,0,0,1-1.624-1.109l-.021-.039-.011-.018c-.018-.03-1.708-3.03,1.935-5.653,3.209-2.311,6.688-.553,8.079.7a5.208,5.208,0,0,1,1.14,4.274,2.434,2.434,0,0,1-2.2,1.7,6.935,6.935,0,0,1-3.267-.258,3.856,3.856,0,0,0-3.156.212,2.273,2.273,0,0,1-.874.192m-.749-1.7c.013.022.03.051.049.085.258.475.543.717,1.164.452a4.861,4.861,0,0,1,3.853-.256,5.941,5.941,0,0,0,2.83.229,1.443,1.443,0,0,0,1.345-.964,4.308,4.308,0,0,0-.837-3.188c-.034-.03-3.432-3.027-6.762-.628-2.809,2.023-1.721,4.125-1.642,4.27" transform="translate(-174.695 -378.632)"/><path class="k" d="M193.137,253.275c-1.3,3.235-4.46,10.162-8.825,12.735a.859.859,0,0,1-.144.006.21.21,0,0,1-.012-.131c.8-.186,2.486-2.444,3.476-4.2,2.162-3.842,4.824-9.612,5.348-10.752a8.968,8.968,0,0,1,.134,1.279c.016.375.022,1.067.022,1.067" transform="translate(-145.054 -197.655)"/><path class="k" d="M140.023,246.845s3.465,6.716,5.521,11.419a17.279,17.279,0,0,0,2.439,4.152.308.308,0,0,0,.05.044c.014.01.065.023.058.025a.5.5,0,0,1-.356-.037,3.626,3.626,0,0,1-.51-.368,48.271,48.271,0,0,1-9.058-15.626Z" transform="translate(-108.832 -194.128)"/><path class="c" d="M113.957,489.134s-1.51-2.587,1.788-4.962,6.68,0,7.42.665c.611.55,2.486,4.591-.784,5.063s-3.442-1.332-6.553-.01a1.346,1.346,0,0,1-1.871-.755" transform="translate(-89.491 -380.565)"/><path class="d" d="M113.246,488.632a1.813,1.813,0,0,1-1.624-1.109l-.021-.039-.011-.018c-.018-.03-1.708-3.03,1.935-5.653,3.21-2.311,6.688-.553,8.079.7a5.208,5.208,0,0,1,1.14,4.274,2.434,2.434,0,0,1-2.2,1.7,6.935,6.935,0,0,1-3.267-.258,3.856,3.856,0,0,0-3.156.212,2.273,2.273,0,0,1-.874.192m-.749-1.7c.013.022.03.051.049.085.258.475.543.717,1.164.452a4.861,4.861,0,0,1,3.853-.256,5.941,5.941,0,0,0,2.83.229,1.443,1.443,0,0,0,1.345-.964,4.309,4.309,0,0,0-.837-3.188c-.034-.03-3.432-3.027-6.762-.628-2.809,2.023-1.721,4.125-1.642,4.27" transform="translate(-87.578 -378.632)"/><path class="f" d="M27.316,26.871s-5.879-13.229-1.47-16.8,17.429,3.36,19.318,7.14-13.49,19.58-17.849,9.659" transform="translate(-19.067 -7.153)"/><path class="d" d="M29.982,28.749q-.278,0-.552-.025a5.23,5.23,0,0,1-4.391-3.5c-.248-.559-5.981-13.623-1.327-17.391,1.4-1.13,3.667-1.4,6.566-.768,5.265,1.141,12.086,5.215,13.515,8.073.739,1.479-.629,3.861-1.511,5.149-2.471,3.61-7.814,8.458-12.3,8.458M27.435,7.735a4.839,4.839,0,0,0-3.094.881c-3.37,2.729.021,12.624,1.612,16.206v0a4.3,4.3,0,0,0,3.568,2.9c.146.014.295.02.446.02,3.718,0,8.777-4.062,11.487-8.022,1.251-1.828,1.8-3.413,1.441-4.136-1.177-2.354-7.454-6.377-12.832-7.542a12.554,12.554,0,0,0-2.63-.313" transform="translate(-17.247 -5.307)"/><path class="e" d="M52.342,45.252s-2.737-6.158-.684-7.82S59.771,39,60.65,40.756s-5.486,10.937-8.308,4.5" transform="translate(-40.089 -29.121)"/><path class="d" d="M54.967,47.492c-.073,0-.145,0-.218-.01-1.009-.095-1.833-.855-2.447-2.258a22.245,22.245,0,0,1-1.112-3.288,9.7,9.7,0,0,1-.332-2.612,2.493,2.493,0,0,1,.762-1.929,3.427,3.427,0,0,1,2.868-.313,13.1,13.1,0,0,1,3.784,1.571,6.563,6.563,0,0,1,2.354,2.068c.294.589-.212,2.039-1.231,3.528-1.093,1.6-2.807,3.244-4.428,3.244M53.216,36.949a2.107,2.107,0,0,0-2.341,2.375,9.691,9.691,0,0,0,.331,2.607,22.227,22.227,0,0,0,1.112,3.285h0c.612,1.4,1.431,2.153,2.433,2.247.072.007.144.01.217.01,1.615,0,3.323-1.645,4.413-3.236,1.016-1.483,1.521-2.926,1.23-3.51a6.55,6.55,0,0,0-2.348-2.061A13.075,13.075,0,0,0,54.484,37.1a6.035,6.035,0,0,0-1.268-.15" transform="translate(-40.057 -29.091)"/><path class="f" d="M245.842,9.748S256.436-.118,261.247,2.89s2.5,17.573-.462,20.59-22.316-.312-14.943-13.732" transform="translate(-192.338 -1.827)"/><path class="d" d="M255.01,23.186a17.119,17.119,0,0,1-9.6-2.987c-2.312-1.718-5.626-5.629-1.841-12.519l.039-.07.059-.055c.444-.414,10.934-10.09,16.012-6.917,1.523.952,2.514,3.013,2.863,5.958.635,5.35-1,13.126-3.233,15.407-.772.788-2.371,1.183-4.3,1.183M244.4,8.232c-3.191,5.87-.9,9.31,1.6,11.163,4.148,3.082,11.074,3.451,12.587,1.907,1.843-1.879,3.6-9.125,2.954-14.588-.313-2.634-1.143-4.441-2.4-5.227C255.491-.8,247.326,5.529,244.4,8.232" transform="translate(-190.501 0)"/><path class="e" d="M271.259,36.81s4.931-4.592,7.171-3.192,1.162,8.18-.215,9.584-10.387-.145-6.956-6.392" transform="translate(-213.058 -26.271)"/><path class="d" d="M276.336,43.659a7.2,7.2,0,0,1-.779-.044,7.457,7.457,0,0,1-3.545-1.3,3.668,3.668,0,0,1-1.494-2.192,4.878,4.878,0,0,1,.7-3.348l0,0a22.274,22.274,0,0,1,2.747-2.122,9.706,9.706,0,0,1,2.362-1.164,2.494,2.494,0,0,1,2.073.093,3.427,3.427,0,0,1,1.229,2.61,13.09,13.09,0,0,1-.254,4.089,6.565,6.565,0,0,1-1.189,2.9,2.78,2.78,0,0,1-1.852.482m-5.1-6.874c-1.589,2.893-.447,4.6.79,5.516a7.441,7.441,0,0,0,3.536,1.3,3.58,3.58,0,0,0,2.616-.433,6.547,6.547,0,0,0,1.184-2.891,13.076,13.076,0,0,0,.253-4.083,3.412,3.412,0,0,0-1.221-2.6,2.477,2.477,0,0,0-2.058-.091,9.688,9.688,0,0,0-2.357,1.162,22.248,22.248,0,0,0-2.744,2.119" transform="translate(-213.026 -26.24)"/><path class="c" d="M7.969,47.357s4.5-18.055,17.517-22.675,29.707-2.512,37.167,1.26c10.882,5.5,18.059,26.458,15.329,38.427,0,0,4.9,2.355,2.178,2.9-.63.125-4.446-.318-3.439.042,1.516.543,4.27.7,3.85,1.68s-1.088.672-4.9.91a28.412,28.412,0,0,1,3.36.98c.7.35,1.54,1.19-3.78,1.19,0,0-6.444,9.869-33.635,9.869S8.267,71.613,8.267,71.613s-3.95,1-4.2-.472c-.132-.786,2.924-1.1,2.924-1.1s-3.616.726-4.16-.246c-.71-1.269,4.16-3.061,4.16-3.061s-4.058,2.047-4.594,0,3.82-2.992,3.82-2.992-1-9.174,1.749-16.383" transform="translate(-1.854 -17.363)"/><path class="f" d="M139.4,80.2a8.76,8.76,0,0,0,2.406,2.689c1.19.63,3.57,1.75,3.5-.35s-.734-7.47-4.725-5.449c-1.8.91-1.645,2.132-1.181,3.11" transform="translate(-109.565 -60.372)"/><path class="f" d="M190.068,78.214s2.961-6.755,6.037-5.694c3.312,1.143,1.155,3.873-.892,5.09-1.567.932-3.8,2.838-4.646,2.257a1.169,1.169,0,0,1-.5-1.654" transform="translate(-149.585 -57.034)"/><path class="f" d="M62.41,179.014s8.754,3.073,10.854,3.422c0,0-3.622-11.746-1.277-23.033,1.712-8.242,3.325-7.112-1.33-7.685-4.046-.5-6.089-1.4-7.069,2.707a64.714,64.714,0,0,0-1.178,24.589" transform="translate(-48.63 -119.156)"/><path class="f" d="M242.327,176.907s5.684-9.845,4.789-20.639c-.42-5.065-1.05-6.9-2.8-9.257s5.04-3.231,6.3-3.319,3.92-.524,5.32,6.987.119,19.648-2.191,23.753a56.631,56.631,0,0,1-11.418,2.475" transform="translate(-190.879 -113.158)"/><path class="f" d="M133.185,140.767s3.08-7.5,7.909-7.489c5.546.016,8.889,2.66,10.709,8.329s1.19,12.109-6.23,14.489-17.5-2.17-12.389-15.329" transform="translate(-103.814 -104.982)"/><path class="l" d="M163.38,147.2a3.113,3.113,0,0,1,2.825-2.237c2.314-.166,3.973,2.074,2.876,3.441-.643.8-6.4,1.048-5.7-1.2" transform="translate(-128.647 -114.175)"/><path class="m" d="M161.253,167.6s-.158,7.769,4.357,7.769,3.877-8.526,3.877-8.526a2.181,2.181,0,0,1-2.325,0,4.786,4.786,0,0,1-2.169-4.064s.092,4.243-3.741,4.82" transform="translate(-127.017 -128.224)"/><path class="l" d="M164.686,174.7a3.48,3.48,0,0,1-2.571-1.078c-2.107-2.15-2.038-6.75-2.035-6.945a.248.248,0,0,1,.211-.241c3.254-.49,3.511-3.753,3.529-4.445q0-.066,0-.133a.249.249,0,0,1,.248-.244h0a.248.248,0,0,1,.249.243s0,.033,0,.084a4.568,4.568,0,0,0,2.08,3.794c.823.688,2.026-.015,2.038-.023a.249.249,0,0,1,.376.195c.017.222.383,5.47-1.735,7.753a3.142,3.142,0,0,1-2.39,1.04m-4.108-7.808c.013.911.171,4.626,1.893,6.382a3,3,0,0,0,2.215.929,2.664,2.664,0,0,0,2.025-.881c1.664-1.792,1.665-5.778,1.622-7.009a2.178,2.178,0,0,1-2.255-.2,5.768,5.768,0,0,1-2.012-2.578,4.4,4.4,0,0,1-3.488,3.353" transform="translate(-126.093 -127.301)"/><path class="i" d="M161.346,175.831a7.914,7.914,0,0,1,7.507-.213v-3.251s-2.613-.134-3.189-1.142-1.168-1.995-1.168-1.995-1.129,2.808-2.743,3.425l-1.115-.184v2.008Z" transform="translate(-126.532 -133.301)"/><path class="l" d="M164.159,174.314a3.618,3.618,0,0,1-2.673-1.121c-2.148-2.193-2.079-6.85-2.075-7.047a.39.39,0,0,1,.332-.379c3.142-.473,3.39-3.64,3.408-4.308,0-.044,0-.088,0-.133a.39.39,0,0,1,.39-.384h0a.391.391,0,0,1,.39.383s0,.032,0,.083a4.4,4.4,0,0,0,2.029,3.689c.744.622,1.863-.029,1.874-.036a.392.392,0,0,1,.59.307c.017.225.387,5.533-1.773,7.86a3.279,3.279,0,0,1-2.494,1.086M160.2,166.48c.024,1.063.23,4.515,1.85,6.167a2.825,2.825,0,0,0,2.114.886,2.493,2.493,0,0,0,1.921-.836c1.55-1.67,1.623-5.313,1.59-6.71a2.232,2.232,0,0,1-2.209-.289,6.3,6.3,0,0,1-1.909-2.26,4.447,4.447,0,0,1-3.356,3.042" transform="translate(-125.566 -126.773)"/><path class="l" d="M150.921,164.932a5.649,5.649,0,0,1-2.927-.986.5.5,0,0,1,.578-.81c.028.02,1.805,1.256,3.267.618,1.087-.475,1.791-1.875,2.093-4.163a.5.5,0,0,1,.99.039c0,.03.184,3.032,1.78,3.88.8.423,1.869.237,3.19-.553a.5.5,0,1,1,.511.854c-1.642.982-3.046,1.176-4.17.577a4.218,4.218,0,0,1-1.828-2.4,4.226,4.226,0,0,1-2.173,2.678,3.262,3.262,0,0,1-1.311.264" transform="translate(-116.41 -125.368)"/><path class="d" d="M39.763,80.444c-14.147,0-22.548-2.838-27.1-5.219a18.625,18.625,0,0,1-6.467-5.041c-.847.183-2.921.539-3.9-.1a1.252,1.252,0,0,1-.573-.856.79.79,0,0,1,.072-.487,1.682,1.682,0,0,1-1.25-.7,1.055,1.055,0,0,1-.061-.905,2.619,2.619,0,0,1,.9-1.048,1.981,1.981,0,0,1-.416-.132,1.6,1.6,0,0,1-.908-1.093,1.825,1.825,0,0,1,.224-1.446C1,62.255,2.9,61.615,3.8,61.369a39.352,39.352,0,0,1,1.522-15.8A49.333,49.333,0,0,1,9.4,35.692c2.623-4.8,7.192-11.036,14.066-13.476a51.749,51.749,0,0,1,20.3-2.592A52.507,52.507,0,0,1,61,23.489c5,2.176,9.705,8.273,12.908,16.727C76.84,47.956,77.9,56.289,76.7,62.1c1.284.65,3.047,1.731,2.923,2.715-.061.481-.47.8-1.219.949l-.009,0a1.491,1.491,0,0,1,.768.631.908.908,0,0,1,.015.8c-.368.859-.918,1.013-2.185,1.076a3.992,3.992,0,0,1,.409.168c.766.383.844.814.774,1.109-.12.51-.574,1.008-4.524,1.029A18.943,18.943,0,0,1,67,75.458c-4.619,2.275-13.093,4.986-27.235,4.986M6.413,69.119a.5.5,0,0,1,.43.244c.014.024,1.576,2.54,6.38,5.027,4.453,2.305,12.672,5.053,26.54,5.053s22.171-2.628,26.69-4.833c4.877-2.38,6.51-4.787,6.526-4.811a.5.5,0,0,1,.418-.226,15.889,15.889,0,0,0,3.536-.251,27.3,27.3,0,0,0-3.231-.931.5.5,0,0,1,.084-.987c.977-.061,1.745-.086,2.362-.107,1.818-.06,1.935-.1,2.1-.476a6.576,6.576,0,0,0-1.9-.6,14.854,14.854,0,0,1-1.649-.437c-.482-.173-.533-.459-.49-.669.1-.51.427-.491,2.224-.387a15.712,15.712,0,0,0,1.776.051,1.432,1.432,0,0,0,.4-.126,8.159,8.159,0,0,0-2.7-1.829.5.5,0,0,1-.271-.562c1.287-5.641.264-13.954-2.669-21.693-3.108-8.2-7.618-14.095-12.372-16.164-8.72-3.8-23.955-5.805-36.8-1.247C11.185,27.636,6.34,45.656,6.293,45.837l-.005.018a38.087,38.087,0,0,0-1.429,15.8.5.5,0,0,1-.387.575c-.734.16-2.764.779-3.334,1.708a.813.813,0,0,0-.108.669.6.6,0,0,0,.35.434,3.675,3.675,0,0,0,2.246-.226c.606-.274,1.12-.47,1.34-.551a.5.5,0,0,1,.4.917,11.282,11.282,0,0,1-1.341.558c-1.2.551-2.424,1.258-2.6,1.743-.017.046-.011.057,0,.069.142.255,1.192.316,2.423.183.521-.107,1-.165,1.249-.191a.5.5,0,0,1,.15.989c-.328.066-.782.146-1.281.2a3.977,3.977,0,0,0-1.219.408.318.318,0,0,0,.1.1c.578.377,2.364.161,3.449-.113a.5.5,0,0,1,.123-.016m-.6-23.408h0Z" transform="translate(0 -15.369)"/><path class="n" d="M240.269,129.166v34.843a55.939,55.939,0,0,1-7.9,1.695V129.166Z" transform="translate(-183.032 -101.743)"/><path class="n" d="M93.188,129.166v34.2a56.835,56.835,0,0,0,7.9,1.663V129.166Z" transform="translate(-73.403 -101.743)"/><g class="o" transform="translate(6.069 52.653)"><g class="p"><path class="d" d="M94.2,248.926c-27.943,15.134-54.655,4.407-62.515-.035-2.643-1.494-3.287-1.07-3.052.984.117-.026.185-.043.185-.043s6.159,10.324,33.35,10.324S95.8,250.287,95.8,250.287h.279c-.379-2.566.652-2.733-1.882-1.36" transform="translate(-28.587 -248.001)"/></g></g><path class="d" d="M92.2,129.952H79.018a.572.572,0,0,1,0-1.145H92.2a.572.572,0,0,1,0,1.145" transform="translate(-61.791 -101.46)"/><path class="d" d="M230.621,129.952H217.441a.572.572,0,1,1,0-1.145h13.179a.572.572,0,0,1,0,1.145" transform="translate(-170.826 -101.46)"/><path class="i" d="M164.374,328.581H152.179a.656.656,0,0,0-.654.654v17.038a.656.656,0,0,0,.654.654h12.195a.656.656,0,0,0,.654-.654V329.235a.656.656,0,0,0-.654-.654" transform="translate(-119.355 -258.82)"/><rect class="q" width="10.52" height="0.471" transform="translate(33.662 82.011)"/></g><g transform="translate(34.46 71.255)"><g class="r"><rect class="s" width="8.924" height="9.735"/></g></g><g class="b"><path class="t" d="M160.879,317.918h-4.167a1.949,1.949,0,0,0-3.861,0h-4.167a1.6,1.6,0,0,0-1.6,1.6v17.038a1.6,1.6,0,0,0,1.6,1.6h12.195a1.6,1.6,0,0,0,1.6-1.6V319.514a1.6,1.6,0,0,0-1.6-1.6m-6.1-1.22a.5.5,0,1,1-.5.5.5.5,0,0,1,.5-.5m6.752,19.854a.656.656,0,0,1-.654.654H148.685a.656.656,0,0,1-.654-.654V319.514a.656.656,0,0,1,.654-.655h12.195a.656.656,0,0,1,.654.655Z" transform="translate(-115.86 -249.1)"/><path class="u" d="M167.25,345.418s-.582-1.31-.146-1.663,1.726.333,1.913.707-1.336,1.939-1.767.956" transform="translate(-131.499 -270.695)"/><path class="d" d="M167.49,345.585l-.055,0a.531.531,0,0,1-.441-.35c-.024-.055-.594-1.354-.13-1.73a.778.778,0,0,1,.656-.078,2.418,2.418,0,0,1,1.343.8c.075.149-.062.388-.15.517a1.869,1.869,0,0,1-1.224.841m-.252-2.081a.471.471,0,0,0-.3.086c-.331.268,0,1.243.162,1.6h0a.419.419,0,0,0,.348.284c.37.034.9-.383,1.176-.79.146-.214.169-.348.142-.4a2.319,2.319,0,0,0-1.266-.743,1.228,1.228,0,0,0-.259-.031" transform="translate(-131.295 -270.487)"/><path class="e" d="M169.728,347.238s-.271-.61-.068-.774.8.155.89.329-.543,1.083-.823.445" transform="translate(-133.58 -272.87)"/><path class="d" d="M169.991,347.46h-.021c-.1-.009-.182-.085-.242-.224,0-.006-.269-.612-.067-.775a.339.339,0,0,1,.284-.031,1.09,1.09,0,0,1,.608.36c.029.058-.021.2-.122.349s-.278.321-.439.321m-.173-1.044a.245.245,0,0,0-.157.045c-.2.162.065.767.068.773.061.138.142.213.241.223h.021c.16,0,.329-.163.437-.321s.151-.29.122-.348a1.086,1.086,0,0,0-.607-.359.594.594,0,0,0-.126-.015" transform="translate(-133.58 -272.867)"/><path class="u" d="M188.89,343.722s1.049-.977,1.525-.679.247,1.74-.046,2.039-2.21-.031-1.48-1.36" transform="translate(-148.657 -270.167)"/><path class="d" d="M189.772,345.035a1.7,1.7,0,0,1-.955-.3.876.876,0,0,1-.184-1.248l.011-.014c.044-.041,1.087-1,1.594-.686a.778.778,0,0,1,.287.595,2.419,2.419,0,0,1-.322,1.532.63.63,0,0,1-.43.118m-1.045-1.483a.765.765,0,0,0,.157,1.1,1.308,1.308,0,0,0,1.238.19,2.318,2.318,0,0,0,.291-1.439.677.677,0,0,0-.234-.513c-.357-.224-1.162.4-1.451.666" transform="translate(-148.45 -269.963)"/><path class="e" d="M191.407,346.4s.488-.455.71-.316.115.81-.021.949-1.029-.014-.689-.633" transform="translate(-150.709 -272.588)"/><path class="d" d="M191.907,347.081a.756.756,0,0,1-.428-.133.382.382,0,0,1-.078-.548h0s.371-.342.611-.342a.184.184,0,0,1,.1.026.34.34,0,0,1,.122.258,1.09,1.09,0,0,1-.143.692.276.276,0,0,1-.183.047m-.505-.68a.38.38,0,0,0,.078.546.623.623,0,0,0,.609.086,1.088,1.088,0,0,0,.143-.691.339.339,0,0,0-.121-.257c-.218-.135-.7.307-.709.316" transform="translate(-150.704 -272.586)"/><path class="c" d="M165.335,348.679s.445-1.788,1.735-2.245a5.424,5.424,0,0,1,3.68.125c1.078.545,1.788,2.62,1.518,3.805,0,0,.485.233.216.287-.062.013-.44-.031-.34,0,.15.054.423.069.381.166s-.108.066-.485.09a2.827,2.827,0,0,1,.333.1c.069.035.152.118-.374.118,0,0-.638.977-3.331.977s-3.3-1.022-3.3-1.022-.391.1-.416-.047c-.013-.078.29-.109.29-.109s-.358.072-.412-.024c-.07-.126.412-.3.412-.3s-.4.2-.455,0,.378-.3.378-.3a4.079,4.079,0,0,1,.173-1.622" transform="translate(-129.795 -272.677)"/><path class="u" d="M178.35,355.249a.867.867,0,0,0,.238.266c.118.062.354.173.346-.035s-.073-.74-.468-.54a.208.208,0,0,0-.117.308" transform="translate(-140.461 -279.549)"/><path class="u" d="M183.367,355.052s.293-.669.6-.564c.328.113.114.384-.088.5-.155.092-.377.281-.46.224a.116.116,0,0,1-.049-.164" transform="translate(-144.424 -279.219)"/><path class="u" d="M170.685,364.019s.882.251,1.09.279a3.044,3.044,0,0,1-.132-1.754c.169-.654.329-.565-.132-.61-.4-.039-.6-.111-.7.215a3.752,3.752,0,0,0-.127,1.87" transform="translate(-134.396 -285.065)"/><path class="u" d="M188.542,363.933a2.706,2.706,0,0,0,.474-1.638,1.049,1.049,0,0,0-.277-.735c-.173-.187.5-.256.624-.263s.388-.041.527.555a2.79,2.79,0,0,1-.2,1.791,3.8,3.8,0,0,1-1.15.291" transform="translate(-148.513 -284.588)"/><path class="d" d="M173.908,359.264a.052.052,0,0,1-.027-.007,1.19,1.19,0,0,0-1.065,0,.053.053,0,0,1-.05-.093,1.276,1.276,0,0,1,1.167,0,.053.053,0,0,1-.027.1" transform="translate(-136.065 -282.796)"/><path class="d" d="M186.341,359.039a.053.053,0,0,1-.028-.1,1.49,1.49,0,0,1,1.275-.108.053.053,0,0,1-.04.1,1.4,1.4,0,0,0-1.179.1.052.052,0,0,1-.028.008" transform="translate(-146.738 -282.571)"/><path class="u" d="M177.734,360.928s.3-.743.783-.742a1.19,1.19,0,0,1,.444,2.26c-.735.236-1.733-.215-1.227-1.518" transform="translate(-139.891 -283.715)"/><path class="l" d="M180.725,361.563a.309.309,0,0,1,.28-.222c.229-.016.393.206.285.341-.064.079-.633.1-.565-.119" transform="translate(-142.351 -284.625)"/><path class="m" d="M180.514,363.585s-.015.769.431.769.384-.844.384-.844a.216.216,0,0,1-.23,0,.474.474,0,0,1-.215-.4.466.466,0,0,1-.37.477" transform="translate(-142.189 -286.017)"/><path class="l" d="M180.854,364.287a.345.345,0,0,1-.255-.107,1.125,1.125,0,0,1-.2-.688.024.024,0,0,1,.021-.024.431.431,0,0,0,.35-.44v-.013a.025.025,0,0,1,.049,0v.008a.452.452,0,0,0,.206.376c.082.068.2,0,.2,0a.025.025,0,0,1,.024,0,.025.025,0,0,1,.013.02,1.238,1.238,0,0,1-.172.768.311.311,0,0,1-.237.1m-.407-.773a1.052,1.052,0,0,0,.187.632.3.3,0,0,0,.219.092.264.264,0,0,0,.2-.087,1.13,1.13,0,0,0,.161-.694.215.215,0,0,1-.223-.02.569.569,0,0,1-.2-.255.436.436,0,0,1-.345.332" transform="translate(-142.098 -285.925)"/><path class="i" d="M180.522,364.4a.784.784,0,0,1,.743-.021v-.322s-.259-.013-.316-.113-.116-.2-.116-.2-.112.278-.272.339l-.111-.018v.2Z" transform="translate(-142.141 -286.52)"/><path class="l" d="M180.8,364.25a.357.357,0,0,1-.265-.111,1.141,1.141,0,0,1-.206-.7.039.039,0,0,1,.033-.037.418.418,0,0,0,.338-.427v-.013a.039.039,0,0,1,.077,0v.008a.435.435,0,0,0,.2.365c.074.062.185,0,.186,0a.04.04,0,0,1,.038,0,.039.039,0,0,1,.021.031,1.253,1.253,0,0,1-.176.779.325.325,0,0,1-.247.107m-.393-.776a1.019,1.019,0,0,0,.183.611.28.28,0,0,0,.209.088.246.246,0,0,0,.19-.083,1.085,1.085,0,0,0,.158-.664.222.222,0,0,1-.219-.029.623.623,0,0,1-.189-.224.441.441,0,0,1-.332.3" transform="translate(-142.045 -285.874)"/><path class="l" d="M179.491,363.321a.56.56,0,0,1-.29-.1.049.049,0,0,1,.057-.08.388.388,0,0,0,.324.061c.108-.047.177-.186.207-.412a.051.051,0,0,1,.051-.043.049.049,0,0,1,.047.047s.018.3.176.384a.327.327,0,0,0,.316-.055.049.049,0,1,1,.051.085.412.412,0,0,1-.413.057.2.2,0,1,0-.4.028.324.324,0,0,1-.13.026" transform="translate(-141.139 -285.734)"/><path class="d" d="M168.458,351.929c-2.446,0-3.192-.83-3.327-1.015a.615.615,0,0,1-.387-.012.131.131,0,0,1-.06-.089.086.086,0,0,1,0-.045.167.167,0,0,1-.12-.071.111.111,0,0,1-.007-.1.251.251,0,0,1,.081-.1l-.029-.01a.165.165,0,0,1-.094-.113.188.188,0,0,1,.023-.148.632.632,0,0,1,.347-.2,3.916,3.916,0,0,1,.152-1.561c.023-.09.5-1.857,1.8-2.318a5.432,5.432,0,0,1,3.722.126c1.056.459,1.806,2.616,1.56,3.826.147.075.3.177.288.273-.006.046-.042.079-.108.1a.138.138,0,0,1,.061.057.1.1,0,0,1,0,.085c-.035.081-.087.1-.192.109l.013.006c.084.042.086.092.08.117-.016.066-.1.105-.451.107-.123.159-.877.977-3.36.977m-3.3-1.135a.057.057,0,0,1,.049.027c.006.01.634,1,3.254,1s3.277-.942,3.284-.952a.057.057,0,0,1,.047-.025,1.828,1.828,0,0,0,.328-.02c-.065-.024-.212-.063-.3-.084a.056.056,0,0,1-.043-.059.057.057,0,0,1,.053-.052c.1-.006.173-.008.235-.01.179-.006.187-.01.2-.045a1.534,1.534,0,0,0-.184-.048,1.513,1.513,0,0,1-.164-.044c-.055-.02-.057-.055-.053-.074.011-.056.048-.054.227-.044.061,0,.154.008.174.005a.171.171,0,0,0,.031-.009.894.894,0,0,0-.26-.172.057.057,0,0,1-.031-.063c.265-1.163-.458-3.294-1.486-3.741a5.39,5.39,0,0,0-3.639-.123c-1.246.442-1.725,2.223-1.729,2.241v0a3.77,3.77,0,0,0-.141,1.562.057.057,0,0,1-.044.065.615.615,0,0,0-.326.166.073.073,0,0,0-.01.061.052.052,0,0,0,.031.039.366.366,0,0,0,.22-.024c.059-.027.108-.045.13-.053a.056.056,0,0,1,.045.1,1.11,1.11,0,0,1-.135.056c-.139.064-.25.137-.253.17a.415.415,0,0,0,.231.014,1.246,1.246,0,0,1,.126-.019.053.053,0,0,1,.061.048.056.056,0,0,1-.045.063c-.032.007-.077.014-.126.02a.461.461,0,0,0-.113.035l0,0a.619.619,0,0,0,.336-.012l.014,0m-.059-2.311h0Z" transform="translate(-129.586 -272.447)"/><path class="d" d="M163.023,394.732c-.194.036-.391.061-.585.077v.773h-.449v-.751c-.2.008-.388.008-.56.008l-.05-.357a13.176,13.176,0,0,0,1.613-.072Zm-1.58-.663c.394-.066.538-.244.551-.429h-.474V393.3H162v-.233h.449v.233h.474v.341h-.471c.017.172.158.33.537.388l-.172.344a.7.7,0,0,0-1.194.042Zm2.126,1.591h-.449v-2.6h.449Z" transform="translate(-127.118 -309.611)"/><path class="d" d="M175.6,393.074v1.4h-.449v-.5H174.8a.667.667,0,0,1-.67.457.634.634,0,1,1,0-1.261.671.671,0,0,1,.668.446h.358v-.546Zm-.444,1.5h.444v1.07h-1.76v-1.07h.443v.2h.873Zm-.762-.773a.269.269,0,1,0-.269.263.245.245,0,0,0,.269-.263m.762,1.314h-.873v.177h.873Z" transform="translate(-136.612 -309.621)"/><path class="d" d="M186.446,394.579a6.352,6.352,0,0,1-1.214.091l-.044-.357h.169v-.662h-.127V393.3h1.18v.352h-.127v.621l.139-.017Zm1.053.7v.352h-1.854v-.823h.449v.471Zm-1.743-.978.127-.005v-.648h-.127Zm1.167.654h-.416v-1.84h.416v.687h.1v-.731h.424v1.967h-.424v-.878h-.1Z" transform="translate(-145.871 -309.621)"/><path class="d" d="M198.2,394.675a5.7,5.7,0,0,0,.925-.075l.042.366a6.529,6.529,0,0,1-1.186.08h-.227v-1.763h1.216v.358h-.77Zm1.867-.333h-.349v1.317h-.449v-2.611h.449v.928h.349Z" transform="translate(-155.768 -309.601)"/><rect class="i" width="6.631" height="21.802" transform="translate(51.915 61.89)"/><path class="d" d="M250.012,312.166h-4.338V292.657h4.338Zm1.146-20.655h-6.631v21.8h6.631Z" transform="translate(-192.612 -229.621)"/><path class="m" d="M239.977,329.814a3.335,3.335,0,0,1-.141,2.7c-.253.66-2.294,1.075-2.7-.289a3.385,3.385,0,0,1,.226-2.691,1.667,1.667,0,0,1,2.616.28" transform="translate(-186.658 -259.164)"/><path class="d" d="M236.636,331.784l-.092,0a1.776,1.776,0,0,1-1.734-1.257,3.81,3.81,0,0,1,.307-3.134,2.3,2.3,0,0,1,1.751-.711,2.044,2.044,0,0,1,1.676,1.022l.016.026a3.755,3.755,0,0,1-.11,3.122,1.942,1.942,0,0,1-1.815.934m.151-4.113a1.456,1.456,0,0,0-.885.328,2.94,2.94,0,0,0-.14,2.242.762.762,0,0,0,.729.543,1.309,1.309,0,0,0,1.035-.294,3,3,0,0,0,.172-2.269,1.08,1.08,0,0,0-.827-.546c-.028,0-.055,0-.083,0" transform="translate(-184.809 -257.322)"/><path class="f" d="M261.335,326.7a16.556,16.556,0,0,1,3.675-.46,2.046,2.046,0,0,1,1.2.2,1.422,1.422,0,0,1,.456.524,4.452,4.452,0,0,1,.412,1.869,27.76,27.76,0,0,1-.038,4.264,1.157,1.157,0,0,1-.219.685,1.1,1.1,0,0,1-.526.279,15.7,15.7,0,0,1-3.423.5l-2.731.194" transform="translate(-204.912 -256.973)"/><path class="v" d="M266.382,326.88a2.968,2.968,0,0,0-.263-.68,1.589,1.589,0,0,0-.514-.587,2.19,2.19,0,0,0-1.316-.233,16.857,16.857,0,0,0-3.721.467.193.193,0,0,0-.145.227h0a.185.185,0,0,0,.233.124,16.477,16.477,0,0,1,3.628-.453,1.88,1.88,0,0,1,1.089.173,1.25,1.25,0,0,1,.4.462,4.33,4.33,0,0,1,.392,1.8,27.384,27.384,0,0,1-.038,4.237,1.016,1.016,0,0,1-.171.577.931.931,0,0,1-.43.218,15.579,15.579,0,0,1-3.377.49l-2.731.194a.2.2,0,0,0-.19.2.179.179,0,0,0,.2.169l2.731-.194a15.9,15.9,0,0,0,3.468-.507,1.291,1.291,0,0,0,.621-.34,1.306,1.306,0,0,0,.267-.792,27.726,27.726,0,0,0,.039-4.29,6.731,6.731,0,0,0-.17-1.259" transform="translate(-204.191 -256.294)"/><path class="d" d="M258.359,333.495a.478.478,0,0,1-.321-.123.448.448,0,0,1-.147-.325.481.481,0,0,1,.454-.485l2.731-.194a15.385,15.385,0,0,0,3.316-.479.8.8,0,0,0,.3-.136.933.933,0,0,0,.1-.413,27.113,27.113,0,0,0,.038-4.194,4.1,4.1,0,0,0-.358-1.681.973.973,0,0,0-.3-.36,1.683,1.683,0,0,0-.923-.127,16.245,16.245,0,0,0-3.565.443.487.487,0,0,1-.369-.047.453.453,0,0,1-.211-.273l0-.01a.479.479,0,0,1,.346-.57,17.115,17.115,0,0,1,3.784-.476,2.453,2.453,0,0,1,1.481.279,1.865,1.865,0,0,1,.608.689,3.223,3.223,0,0,1,.288.745,6.967,6.967,0,0,1,.178,1.313,27.994,27.994,0,0,1-.039,4.334,1.569,1.569,0,0,1-.338.956,1.55,1.55,0,0,1-.751.422,16.117,16.117,0,0,1-3.528.518l-2.733.194h-.034" transform="translate(-203.138 -255.242)"/><path class="v" d="M274.523,326.059a.185.185,0,0,0-.234-.123.193.193,0,0,0-.144.228,19.763,19.763,0,0,1,.261,7.949.174.174,0,0,0,.154.207.205.205,0,0,0,.228-.156,19.831,19.831,0,0,0-.264-8.1h0" transform="translate(-215.937 -256.731)"/><path class="d" d="M273.535,333.552a.515.515,0,0,1-.065,0,.469.469,0,0,1-.321-.191.455.455,0,0,1-.074-.355,19.447,19.447,0,0,0-.258-7.82.478.478,0,0,1,.343-.572.485.485,0,0,1,.371.046.452.452,0,0,1,.214.28,20.15,20.15,0,0,1,.268,8.231.487.487,0,0,1-.478.386m.1-.437h0m-.161-8.108-.275.071h0Z" transform="translate(-214.885 -255.679)"/><path class="v" d="M282.788,326.8q-.119-.458-.269-.908a.188.188,0,0,0-.243-.109.192.192,0,0,0-.128.235,13.887,13.887,0,0,1,.3,7.662.174.174,0,0,0,.146.212.206.206,0,0,0,.233-.149,14.3,14.3,0,0,0-.039-6.944" transform="translate(-222.239 -256.611)"/><path class="d" d="M281.579,333.132a.492.492,0,0,1-.08-.007.468.468,0,0,1-.313-.2.456.456,0,0,1-.063-.357,13.6,13.6,0,0,0-.293-7.506.479.479,0,0,1,.306-.594.489.489,0,0,1,.373.023.455.455,0,0,1,.231.264c.1.306.194.617.274.927a14.64,14.64,0,0,1,.04,7.081.489.489,0,0,1-.475.369" transform="translate(-221.19 -255.56)"/><path class="m" d="M253.073,318.282s1.669,2.958-.439,8.447c-.793,2.066-7.177,3.363-8.452-.9a10.588,10.588,0,0,1,.707-8.419c.73-.955,5.331-3.528,8.184.875" transform="translate(-191.93 -248.744)"/><path class="d" d="M246.561,327.309c-.088,0-.175,0-.262,0a4.487,4.487,0,0,1-4.452-3.178,10.97,10.97,0,0,1,.789-8.862,6.286,6.286,0,0,1,4.6-1.81,5.38,5.38,0,0,1,4.4,2.716l.016.026c.073.129,1.759,3.226-.408,8.869-.487,1.267-2.55,2.243-4.677,2.243m.456-12.866a5.324,5.324,0,0,0-3.593,1.424,10.082,10.082,0,0,0-.626,7.975,3.565,3.565,0,0,0,3.539,2.47c1.891.073,3.661-.786,3.974-1.6,1.923-5.008.574-7.821.475-8.017a4.413,4.413,0,0,0-3.592-2.246c-.059,0-.118,0-.176,0" transform="translate(-190.071 -246.902)"/><path class="i" d="M226.881,202.467a12.273,12.273,0,1,0-12.273,12.273,12.273,12.273,0,0,0,12.273-12.273" transform="translate(-159.378 -149.814)"/><path class="d" d="M212.251,213.017a12.909,12.909,0,1,1,12.909-12.909,12.923,12.923,0,0,1-12.909,12.909m0-24.546a11.637,11.637,0,1,0,11.637,11.637,11.65,11.65,0,0,0-11.637-11.637" transform="translate(-157.02 -147.456)"/><rect class="w" width="4.432" height="17.142" transform="translate(47.603 48.159) rotate(-45)"/><rect class="w" width="17.142" height="4.432" transform="translate(47.603 57.147) rotate(-45)"/><path class="x" d="M292.945,171.674s3.063,4.654-1.723,9.219c0,0,4.212-4.416,7.849,1.606,0,0-2.489-5.079.766-7.665,0,0-2.68,1.818-6.892-3.16" transform="translate(-229.393 -135.226)"/><path d="M296.732,180.79a.63.63,0,0,1-.54-.3c-1.053-1.744-2.233-2.7-3.507-2.844a4.482,4.482,0,0,0-3.256,1.26l-.111.108a.631.631,0,0,1-.891-.892c.011-.012.062-.064.147-.144,4.178-4.112,1.617-8.123,1.505-8.293a.631.631,0,0,1,1.008-.754c3.741,4.421,6.035,3.061,6.057,3.046a.631.631,0,0,1,.746,1.016c-2.815,2.236-.614,6.848-.591,6.895a.631.631,0,0,1-.567.907m-4.39-4.429a4.314,4.314,0,0,1,.472.026,4.733,4.733,0,0,1,2.457,1.06,6.285,6.285,0,0,1,.593-4.009,6.727,6.727,0,0,1-3.772-1.725,7.487,7.487,0,0,1-.816,4.775,4.587,4.587,0,0,1,1.065-.128" transform="translate(-227.053 -132.887)"/><path class="x" d="M322.7,151.155a3.2,3.2,0,0,1-1.088,4.056s2.05-1.828,3.49.984c0,0-.953-2.352.6-3.4,0,0-1.271.72-3.005-1.645" transform="translate(-253.328 -119.064)"/><path d="M324.045,155.426a.284.284,0,0,1-.253-.155,2.3,2.3,0,0,0-1.487-1.389,2.042,2.042,0,0,0-1.517.452l-.054.044a.284.284,0,0,1-.368-.432c.006-.005.03-.027.071-.059a2.874,2.874,0,0,0,.958-3.646.284.284,0,0,1,.476-.307c1.541,2.1,2.6,1.586,2.641,1.563a.287.287,0,0,1,.378.106.282.282,0,0,1-.084.379c-1.344.9-.507,3.032-.5,3.053a.284.284,0,0,1-.145.364.281.281,0,0,1-.118.026m-2.006-2.136a1.991,1.991,0,0,1,.366.034,2.153,2.153,0,0,1,1.073.559,2.791,2.791,0,0,1,.4-1.769,3.065,3.065,0,0,1-1.647-.9,3.319,3.319,0,0,1-.527,2.1,2.13,2.13,0,0,1,.333-.027" transform="translate(-252.275 -118.01)"/><path class="c" d="M106.65,299.909s2.711.508,4.23.717l-2.785,7.525a2.238,2.238,0,0,0-2.568.166Z" transform="translate(-83.123 -236.236)"/><path class="c" d="M104.92,308.1l1.167-8.739.1.019c.027,0,2.726.51,4.225.716l.122.017-2.873,7.761-.106-.073a2.122,2.122,0,0,0-2.452.165Zm1.336-8.506-1.08,8.085a2.349,2.349,0,0,1,2.388-.107l2.7-7.3c-1.35-.192-3.514-.59-4.009-.681" transform="translate(-82.645 -235.803)"/></g></g></svg>