<svg xmlns="http://www.w3.org/2000/svg" width="60" height="17.626" viewBox="0 0 60 17.626"><defs><style>.a{fill:#fab40a;}.b{fill:#ff460a;}</style></defs><path d="M228.25,402.789v-5.251c0-.966-.456-1.6-1.367-1.6-.875,0-1.386.638-1.386,1.6v5.251h-2.552v-8.824H225.5v.8h.018a2.709,2.709,0,0,1,2.279-1c1.951,0,3.008,1.349,3.008,3.282v5.743Z" transform="translate(-208.179 -390.386)"/><path d="M399.628,379.415h0v-2.169h2.552v2.169Zm0,10.228h0v-8.824h2.552v8.824Z" transform="translate(-348.787 -377.24)"/><path d="M424.347,393.3c-2.042,0-2.808-.911-2.808-2.935v-4.12h-.916v-1.878h.916v-2.662h2.534v2.662H425.5v1.878h-1.422v4.011c0,.656.219.875.8.875h.62V393.3Z" transform="translate(-365.496 -380.792)"/><path d="M354.937,403.571v-.82h-.018a2.635,2.635,0,0,1-2.261,1.021c-1.951,0-2.972-1.367-2.972-3.281v-5.743h2.552V400c0,.948.456,1.6,1.349,1.6.875,0,1.349-.638,1.349-1.6v-5.25h2.552v8.824Z" transform="translate(-309.042 -391.168)"/><path d="M273.727,402.732c3.026,0,3.925-2.06,3.925-3.548H275.1a1.256,1.256,0,0,1-1.37,1.355,1.331,1.331,0,0,1-1.367-.966,7.337,7.337,0,0,1,0-3.084,1.331,1.331,0,0,1,1.367-.966,1.256,1.256,0,0,1,1.37,1.355h2.555c0-1.488-.9-3.548-3.925-3.548a3.72,3.72,0,0,0-3.829,2.527,8.247,8.247,0,0,0,0,4.348,3.72,3.72,0,0,0,3.829,2.527" transform="translate(-245.313 -390.04)"/><path d="M317.472,394.653h2.348v1.691a2.777,2.777,0,0,1,2.992-1.7v2.524c-.492-.044-1.864-.206-2.5.772a2.658,2.658,0,0,0-.269,1.42v4.121h-2.574Z" transform="translate(-283.406 -391.074)"/><rect width="2.611" height="12.403" transform="translate(9.792)"/><path class="a" d="M175.616,435.485v-3.917H173V438.1h6.528v-2.611Z" transform="translate(-168.435 -420.47)"/><path class="b" d="M154.214,377.216a3.591,3.591,0,1,0,3.59,3.591,3.59,3.59,0,0,0-3.59-3.591m0,4.827a1.236,1.236,0,1,1,1.236-1.236,1.238,1.238,0,0,1-1.236,1.236" transform="translate(-150.624 -377.216)"/></svg>