<svg id="레이어_1" data-name="레이어 1" xmlns="http://www.w3.org/2000/svg" viewBox="0 0 20.62 19.86"><defs><style>.cls-1{fill:#fff;stroke:#9d9d9d;stroke-linecap:round;stroke-linejoin:round;stroke-width:0.75px;}</style></defs><path class="cls-1" d="M13.06,2.94l.86,2.65A2.16,2.16,0,0,0,16,7.08h2.78A2.17,2.17,0,0,1,20,11l-2.25,1.63A2.16,2.16,0,0,0,17,15.06l.86,2.65a2.17,2.17,0,0,1-3.34,2.42L12.27,18.5a2.16,2.16,0,0,0-2.54,0L7.48,20.13a2.17,2.17,0,0,1-3.34-2.42L5,15.06a2.16,2.16,0,0,0-.79-2.42L2,11A2.17,2.17,0,0,1,3.24,7.08H6A2.16,2.16,0,0,0,8.08,5.59l.86-2.65A2.16,2.16,0,0,1,13.06,2.94Z" transform="translate(-0.69 -1.07)"/></svg>