<svg xmlns="http://www.w3.org/2000/svg" xmlns:xlink="http://www.w3.org/1999/xlink" width="32" height="32" viewBox="0 0 32 32"><defs><style>.a{fill:#b8b8b8;}.b{fill:#fff;}.c{clip-path:url(#a);}</style><clipPath id="a"><rect class="a" width="18" height="14.799"/></clipPath></defs><g transform="translate(-1558 -212)"><circle class="b" cx="16" cy="16" r="16" transform="translate(1558 212)"/><path class="a" d="M16,1A15,15,0,0,0,5.393,26.607,15,15,0,1,0,26.607,5.393,14.9,14.9,0,0,0,16,1m0-1A16,16,0,1,1,0,16,16,16,0,0,1,16,0Z" transform="translate(1558 212)"/><g transform="translate(1444.333 391.079)"><g class="c" transform="translate(120.667 -170.079)"><path class="a" d="M28.469,49.356a.7.7,0,0,0-.515.218.758.758,0,0,0,0,1.056.7.7,0,0,0,.515.218.746.746,0,0,0,0-1.492" transform="translate(-24.661 -43.879)"/><path class="a" d="M84.595,49.3a.694.694,0,0,0-.515.218.757.757,0,0,0,0,1.056.7.7,0,0,0,.515.218.746.746,0,0,0,0-1.492" transform="translate(-74.558 -43.827)"/><path class="a" d="M122.027,49.356a.7.7,0,0,0-.516.218.758.758,0,0,0,0,1.056.7.7,0,0,0,.516.218.746.746,0,0,0,0-1.492" transform="translate(-107.836 -43.879)"/><path class="a" d="M16.038,0H1.962A1.969,1.969,0,0,0,0,1.962v7.96a1.968,1.968,0,0,0,1.962,1.962H7.489S8.557,14.8,8.945,14.8s1.544-2.914,1.544-2.914h5.548A1.968,1.968,0,0,0,18,9.923V1.962A1.969,1.969,0,0,0,16.038,0M5.232,7.349A1.52,1.52,0,0,1,4.06,7.8,1.528,1.528,0,0,1,3.1,7.5H3.09V7.72H2.033V3.111H3.09V4.873H3.1a1.737,1.737,0,0,1,1.113-.342,1.4,1.4,0,0,1,1.02.5,1.847,1.847,0,0,1,.412,1.184,1.513,1.513,0,0,1-.417,1.131M7.5,7.754H6.422V4.9a.686.686,0,0,0-.52-.745V3.016A1.816,1.816,0,0,1,7.5,4.938Zm4.229-.874a1.674,1.674,0,0,1-.4.553,1.805,1.805,0,0,1-.59.368,1.952,1.952,0,0,1-.7.128A1.9,1.9,0,0,1,9.345,7.8a1.853,1.853,0,0,1-.591-.368,1.752,1.752,0,0,1-.4-.559,1.61,1.61,0,0,1,0-1.3,1.76,1.76,0,0,1,.4-.559,1.853,1.853,0,0,1,.591-.368,1.9,1.9,0,0,1,.693-.128,1.95,1.95,0,0,1,.7.128,1.8,1.8,0,0,1,.59.368,1.673,1.673,0,0,1,.4.553,1.661,1.661,0,0,1,0,1.313m4.238.458a2.1,2.1,0,0,1-.514,1.646,1.835,1.835,0,0,1-1.556.363V8.509a.9.9,0,0,0,1.02-.8V7.5H14.9a1.2,1.2,0,0,1-1.061.454,1.362,1.362,0,0,1-1.065-.459,1.784,1.784,0,0,1-.382-1.2,1.986,1.986,0,0,1,.426-1.339,1.457,1.457,0,0,1,1.151-.485A1.245,1.245,0,0,1,14.9,4.8h.013V4.55h1.05Z"/></g></g></g></svg>